<svg class="marks" width="419.6666666666667" height="320.6666666666667" viewBox="0 0 419.6666666666667 320.6666666666667" version="1.1" xmlns="http://www.w3.org/2000/svg" xmlns:xlink="http://www.w3.org/1999/xlink"><defs><clipPath id="clip1"><rect x="0" y="0" width="266.6666666666667" height="266.6666666666667"></rect></clipPath><clipPath id="clip2"><rect x="0" y="0" width="266.6666666666667" height="266.6666666666667"></rect></clipPath><clipPath id="clip3"><rect x="0" y="0" width="266.6666666666667" height="266.6666666666667"></rect></clipPath><clipPath id="clip4"><rect x="0" y="0" width="266.6666666666667" height="266.6666666666667"></rect></clipPath><clipPath id="clip5"><rect x="0" y="0" width="266.6666666666667" height="266.6666666666667"></rect></clipPath><clipPath id="clip6"><rect x="0" y="0" width="266.6666666666667" height="266.6666666666667"></rect></clipPath><clipPath id="clip7"><rect x="0" y="0" width="266.6666666666667" height="266.6666666666667"></rect></clipPath><clipPath id="clip8"><rect x="0" y="0" width="266.6666666666667" height="266.6666666666667"></rect></clipPath><clipPath id="clip9"><rect x="0" y="0" width="266.6666666666667" height="266.6666666666667"></rect></clipPath><clipPath id="clip10"><rect x="0" y="0" width="266.6666666666667" height="266.6666666666667"></rect></clipPath></defs><rect width="419.6666666666667" height="320.6666666666667" fill="white"></rect><g fill="none" stroke-miterlimit="10" transform="translate(50,37)"><g class="mark-group role-frame root" role="graphics-object" aria-roledescription="group mark container"><g transform="translate(0,0)"><path class="background" aria-hidden="true" d="M0,0h266.6666666666667v266.6666666666667h-266.6666666666667Z" stroke="#ddd" stroke-width="0"></path><g><g class="mark-group role-axis" aria-hidden="true"><g transform="translate(0.5,0.5)"><path class="background" aria-hidden="true" d="M0,0h0v0h0Z" pointer-events="none"></path><g><g class="mark-rule role-axis-grid" pointer-events="none"><line transform="translate(0,267)" x2="266.6666666666667" y2="0" stroke="#ddd" stroke-width="1" opacity="1"></line><line transform="translate(0,218)" x2="266.6666666666667" y2="0" stroke="#ddd" stroke-width="1" opacity="1"></line><line transform="translate(0,170)" x2="266.6666666666667" y2="0" stroke="#ddd" stroke-width="1" opacity="1"></line><line transform="translate(0,121)" x2="266.6666666666667" y2="0" stroke="#ddd" stroke-width="1" opacity="1"></line><line transform="translate(0,73)" x2="266.6666666666667" y2="0" stroke="#ddd" stroke-width="1" opacity="1"></line><line transform="translate(0,24)" x2="266.6666666666667" y2="0" stroke="#ddd" stroke-width="1" opacity="1"></line></g></g><path class="foreground" aria-hidden="true" d="" pointer-events="none" display="none"></path></g></g><g class="mark-group role-axis" role="graphics-symbol" aria-roledescription="axis" aria-label="X-axis for a time scale with values from Monday, 18 May 2020, 5:00:00 PM to Tuesday, 02 June 2020, 5:00:00 PM"><g transform="translate(0.5,267.1666666666667)"><path class="background" aria-hidden="true" d="M0,0h0v0h0Z" pointer-events="none"></path><g><g class="mark-text role-axis-label" pointer-events="none"><text text-anchor="middle" transform="translate(5.185185185185186,10)" font-family="Roboto Condensed" font-size="10px" fill="#000" opacity="1">Tue 19</text><text text-anchor="middle" transform="translate(40.74074074074075,10)" font-family="Roboto Condensed" font-size="10px" fill="#000" opacity="0">Thu 21</text><text text-anchor="middle" transform="translate(76.29629629629629,10)" font-family="Roboto Condensed" font-size="10px" fill="#000" opacity="1">Sat 23</text><text text-anchor="middle" transform="translate(111.85185185185186,10)" font-family="Roboto Condensed" font-size="10px" fill="#000" opacity="0">Mon 25</text><text text-anchor="middle" transform="translate(147.40740740740742,10)" font-family="Roboto Condensed" font-size="10px" fill="#000" opacity="1">Wed 27</text><text text-anchor="middle" transform="translate(182.962962962963,10)" font-family="Roboto Condensed" font-size="10px" fill="#000" opacity="0">Fri 29</text><text text-anchor="middle" transform="translate(218.51851851851853,10)" font-family="Roboto Condensed" font-size="10px" fill="#000" opacity="1">May 31</text><text text-anchor="middle" transform="translate(236.2962962962963,10)" font-family="Roboto Condensed" font-size="10px" fill="#000" opacity="0">June</text></g><g class="mark-rule role-axis-domain" pointer-events="none"><line transform="translate(0,0)" x2="266.6666666666667" y2="0" stroke="lightgray" stroke-width="1" opacity="1"></line></g></g><path class="foreground" aria-hidden="true" d="" pointer-events="none" display="none"></path></g></g><g class="mark-group role-axis" role="graphics-symbol" aria-roledescription="axis" aria-label="Y-axis for a linear scale with values from 0 to 110,000"><g transform="translate(0.5,0.5)"><path class="background" aria-hidden="true" d="M0,0h0v0h0Z" pointer-events="none"></path><g><g class="mark-text role-axis-label" pointer-events="none"><text text-anchor="end" transform="translate(-2,269.6666666666667)" font-family="Roboto Condensed" font-size="10px" fill="#000" opacity="1">0</text><text text-anchor="end" transform="translate(-2,221.1818181818182)" font-family="Roboto Condensed" font-size="10px" fill="#000" opacity="1">20,000</text><text text-anchor="end" transform="translate(-2,172.69696969696972)" font-family="Roboto Condensed" font-size="10px" fill="#000" opacity="1">40,000</text><text text-anchor="end" transform="translate(-2,124.21212121212123)" font-family="Roboto Condensed" font-size="10px" fill="#000" opacity="1">60,000</text><text text-anchor="end" transform="translate(-2,75.72727272727273)" font-family="Roboto Condensed" font-size="10px" fill="#000" opacity="1">80,000</text><text text-anchor="end" transform="translate(-2,27.242424242424253)" font-family="Roboto Condensed" font-size="10px" fill="#000" opacity="1">100,000</text></g><g class="mark-rule role-axis-domain" pointer-events="none"><line transform="translate(0,266.6666666666667)" x2="0" y2="-266.6666666666667" stroke="lightgray" stroke-width="1" opacity="1"></line></g></g><path class="foreground" aria-hidden="true" d="" pointer-events="none" display="none"></path></g></g><g class="mark-group role-scope pathgroup" role="graphics-object" aria-roledescription="group mark container"><g transform="translate(0,0)"><path class="background" aria-hidden="true" d="M0,0h266.6666666666667v266.6666666666667h-266.6666666666667Z"></path><g><g class="mark-line role-mark marks" clip-path="url(#clip1)" role="graphics-object" aria-roledescription="line mark container"><path aria-label="Country: Belgium; Date: Mar 01, 2020; Confirmed: 2; Recovered: 1; Deaths: 0; : 0" role="graphics-symbol" aria-roledescription="line mark" d="M-1398.5185185185187,266.6666666666667L-1380.7407407407409,266.6666666666667L-1362.962962962963,266.6666666666667L-1345.1851851851852,266.6666666666667L-1327.4074074074076,266.6666666666667L-1309.6296296296298,266.6666666666667L-1291.851851851852,266.6666666666667L-1274.0740740740741,266.6666666666667L-1257.037037037037,266.6666666666667L-1239.2592592592594,266.6666666666667L-1221.4814814814815,266.65939393939396L-1203.703703703704,266.65939393939396L-1185.9259259259259,266.65939393939396L-1168.1481481481483,266.6569696969697L-1150.3703703703704,266.6569696969697L-1132.5925925925926,266.6545454545455L-1114.8148148148148,266.6424242424242L-1097.0370370370372,266.63272727272727L-1079.2592592592594,266.6157575757576L-1061.4814814814815,266.5769696969697L-1043.7037037037037,266.5042424242424L-1025.925925925926,266.4848484848485L-1008.1481481481482,266.4533333333333L-990.3703703703704,266.3709090909091L-972.5925925925926,266.23515151515153L-954.8148148148149,266.1333333333333L-937.0370370370371,265.96606060606064L-919.2592592592594,265.8109090909091L-901.4814814814815,265.6218181818182L-883.7037037037038,265.4230303030303L-865.925925925926,264.9575757575758L-848.1481481481482,264.65939393939396L-830.3703703703704,264.2157575757576L-812.5925925925926,263.8957575757576L-794.8148148148149,263.55636363636364L-777.0370370370371,263.1587878787879L-759.2592592592594,262.71030303030307L-741.4814814814815,261.73333333333335L-723.7037037037038,261.23636363636365L-705.925925925926,260.55030303030304L-688.1481481481483,259.3478787878788L-670.3703703703704,258.5551515151515L-652.5925925925927,257.93939393939394L-634.8148148148149,257.2048484848485L-617.0370370370372,256.58909090909094L-599.2592592592594,255.9030303030303L-581.4814814814815,254.89212121212122L-563.7037037037038,254.15030303030304L-545.9259259259259,253.44727272727272L-528.1481481481482,252.88969696969698L-510.37037037037044,252.53818181818184L-492.59259259259267,252.1260606060606L-474.81481481481484,251.48606060606062L-457.03703703703707,250.93333333333337L-439.2592592592593,250.47515151515154L-421.48148148148147,249.89818181818185L-403.7037037037037,249.46909090909094L-385.9259259259259,249.19515151515154L-368.14814814814815,248.89454545454547L-350.3703703703704,248.48242424242426L-332.5925925925926,248.2569696969697L-314.81481481481484,247.99272727272728L-297.03703703703707,247.84242424242424L-279.2592592592593,247.65090909090912L-261.48148148148147,247.4569696969697L-243.70370370370372,247.2339393939394L-225.92592592592595,246.4509090909091L-208.14814814814815,246.26666666666668L-190.37037037037038,246.009696969697L-172.5925925925926,245.86424242424243L-154.81481481481484,245.68242424242425L-137.03703703703704,245.55878787878788L-119.25925925925927,245.4278787878788L-101.48148148148148,245.22909090909093L-83.70370370370371,245.0836363636364L-65.92592592592594,244.94787878787878L-48.14814814814815,244.83636363636364L-30.37037037037037,244.72242424242427L-12.592592592592593,244.65454545454546L5.185185185185186,244.5866666666667L22.962962962962965,244.48484848484853L40.74074074074075,244.3975757575758L58.51851851851852,244.33454545454546L76.29629629629629,244.2739393939394L94.07407407407409,244.169696969697L111.85185185185186,244.09212121212124L129.62962962962965,244.03878787878787L147.40740740740742,243.96606060606064L165.1851851851852,243.90787878787881L182.962962962963,243.8060606060606L200.74074074074076,243.75030303030306L218.51851851851853,243.71636363636367L236.2962962962963,243.67030303030305L254.07407407407408,243.62424242424245L271.85185185185185,243.5830303030303" stroke="#4c78a8" stroke-width="2" opacity="1"></path></g></g><path class="foreground" aria-hidden="true" d="" display="none"></path></g><g transform="translate(0,0)"><path class="background" aria-hidden="true" d="M0,0h266.6666666666667v266.6666666666667h-266.6666666666667Z"></path><g><g class="mark-line role-mark marks" clip-path="url(#clip2)" role="graphics-object" aria-roledescription="line mark container"><path aria-label="Country: Brazil; Date: Mar 01, 2020; Confirmed: 2; Recovered: 0; Deaths: 0; : 0" role="graphics-symbol" aria-roledescription="line mark" d="M-1398.5185185185187,266.6666666666667L-1380.7407407407409,266.6666666666667L-1362.962962962963,266.6666666666667L-1345.1851851851852,266.6666666666667L-1327.4074074074076,266.6666666666667L-1309.6296296296298,266.6666666666667L-1291.851851851852,266.6666666666667L-1274.0740740740741,266.6666666666667L-1257.037037037037,266.6666666666667L-1239.2592592592594,266.6666666666667L-1221.4814814814815,266.6666666666667L-1203.703703703704,266.6666666666667L-1185.9259259259259,266.6666666666667L-1168.1481481481483,266.6666666666667L-1150.3703703703704,266.6666666666667L-1132.5925925925926,266.6666666666667L-1114.8148148148148,266.66424242424245L-1097.0370370370372,266.65939393939396L-1079.2592592592594,266.65212121212124L-1061.4814814814815,266.64000000000004L-1043.7037037037037,266.6303030303031L-1025.925925925926,266.6060606060606L-1008.1481481481482,266.58424242424246L-990.3703703703704,266.5551515151515L-972.5925925925926,266.5236363636364L-954.8148148148149,266.48L-937.0370370370371,266.44363636363636L-919.2592592592594,266.39757575757574L-901.4814814814815,266.33696969696973L-883.7037037037038,266.28121212121215L-865.925925925926,266.17939393939395L-848.1481481481482,266.0848484848485L-830.3703703703704,265.8812121212121L-812.5925925925926,265.79636363636365L-794.8148148148149,265.5878787878788L-777.0370370370371,265.48848484848486L-759.2592592592594,265.29939393939395L-741.4814814814815,265.0036363636364L-723.7037037037038,264.6812121212121L-705.925925925926,264.3636363636364L-688.1481481481483,264.10424242424244L-670.3703703703704,263.94181818181823L-652.5925925925927,263.7018181818182L-634.8148148148149,263.4472727272728L-617.0370370370372,262.9527272727273L-599.2592592592594,262.4581818181818L-581.4814814814815,262.00242424242424L-563.7037037037038,261.47636363636366L-545.9259259259259,260.96000000000004L-528.1481481481482,260.69818181818187L-510.37037037037044,260.39515151515155L-492.59259259259267,260.0218181818182L-474.81481481481484,259.6218181818182L-457.03703703703707,258.5915151515152L-439.2592592592593,257.6872727272727L-421.48148148148147,256.83151515151513L-403.7037037037037,256.27636363636367L-385.9259259259259,255.5078787878788L-368.14814814814815,254.34424242424245L-350.3703703703704,253.3018181818182L-332.5925925925926,252.10666666666668L-314.81481481481484,251.12242424242427L-297.03703703703707,250.27636363636364L-279.2592592592593,249.57333333333335L-261.48148148148147,248.80727272727273L-243.70370370370372,247.42303030303034L-225.92592592592595,245.84727272727275L-208.14814814814815,244.3878787878788L-190.37037037037038,242.38303030303032L-172.5925925925926,240.83393939393943L-154.81481481481484,239.7018181818182L-137.03703703703704,238.41696969696972L-119.25925925925927,236.45818181818186L-101.48148148148148,234.569696969697L-83.70370370370371,232.729696969697L-65.92592592592594,230.39515151515153L-48.14814814814815,228.69818181818184L-30.37037037037037,227.5927272727273L-12.592592592592593,225.81090909090912L5.185185185185186,223.07151515151517L22.962962962962965,220.9478787878788L40.74074074074075,218.06787878787878L58.51851851851852,215.64121212121216L76.29629629629629,213.3018181818182L94.07407407407409,211.71878787878788L111.85185185185186,209.76242424242426L129.62962962962965,207.2436363636364L147.40740740740742,204.61090909090908L165.1851851851852,201.80848484848488L182.962962962963,199.08363636363637L200.74074074074076,196.76606060606062L218.51851851851853,195.60242424242426L236.2962962962963,194.0921212121212L254.07407407407408,191.0327272727273L271.85185185185185,187.76242424242426" stroke="#f58518" stroke-width="2" opacity="1"></path></g></g><path class="foreground" aria-hidden="true" d="" display="none"></path></g><g transform="translate(0,0)"><path class="background" aria-hidden="true" d="M0,0h266.6666666666667v266.6666666666667h-266.6666666666667Z"></path><g><g class="mark-line role-mark marks" clip-path="url(#clip3)" role="graphics-object" aria-roledescription="line mark container"><path aria-label="Country: France; Date: Mar 01, 2020; Confirmed: 130; Recovered: 12; Deaths: 2; : 2" role="graphics-symbol" aria-roledescription="line mark" d="M-1398.5185185185187,266.6618181818182L-1380.7407407407409,266.65939393939396L-1362.962962962963,266.6569696969697L-1345.1851851851852,266.6569696969697L-1327.4074074074076,266.65212121212124L-1309.6296296296298,266.6448484848485L-1291.851851851852,266.64000000000004L-1274.0740740740741,266.62060606060606L-1257.037037037037,266.62060606060606L-1239.2592592592594,266.5866666666667L-1221.4814814814815,266.55030303030304L-1203.703703703704,266.55030303030304L-1185.9259259259259,266.47515151515154L-1168.1481481481483,266.44606060606066L-1150.3703703703704,266.44606060606066L-1132.5925925925926,266.3078787878788L-1114.8148148148148,266.3078787878788L-1097.0370370370372,266.3078787878788L-1079.2592592592594,266.07757575757574L-1061.4814814814815,265.57575757575756L-1043.7037037037037,265.30424242424243L-1025.925925925926,265.0327272727273L-1008.1481481481482,264.5818181818182L-990.3703703703704,264L-972.5925925925926,263.44L-954.8148148148149,262.5551515151515L-937.0370370370371,261.83030303030307L-919.2592592592594,261.0569696969697L-901.4814814814815,260.34909090909093L-883.7037037037038,259.3357575757576L-865.925925925926,258.12606060606066L-848.1481481481482,255.9927272727273L-830.3703703703704,253.60727272727274L-812.5925925925926,250.89212121212122L-794.8148148148149,248.33939393939394L-777.0370370370371,247.08363636363637L-759.2592592592594,245.06424242424245L-741.4814814814815,241.6290909090909L-723.7037037037038,240.31757575757575L-705.925925925926,237.0666666666667L-688.1481481481483,234.67393939393943L-670.3703703703704,233.13454545454545L-652.5925925925927,231.7745454545455L-634.8148148148149,230.38303030303032L-617.0370370370372,228.5769696969697L-599.2592592592594,225.0957575757576L-581.4814814814815,223.27030303030304L-563.7037037037038,221.4278787878788L-545.9259259259259,219.87151515151515L-528.1481481481482,218.92363636363638L-510.37037037037044,217.60000000000002L-492.59259259259267,216.32727272727274L-474.81481481481484,215.00848484848487L-457.03703703703707,213.75757575757578L-439.2592592592593,212.81454545454548L-421.48148148148147,211.92000000000002L-403.7037037037037,211.33333333333334L-385.9259259259259,210.2739393939394L-368.14814814814815,209.38424242424242L-350.3703703703704,208.34909090909093L-332.5925925925926,207.64848484848486L-314.81481481481484,207.12L-297.03703703703707,206.71757575757576L-279.2592592592593,206.39030303030304L-261.48148148148147,205.65333333333334L-243.70370370370372,204.85333333333335L-225.92592592592595,204.1890909090909L-208.14814814814815,203.76000000000002L-190.37037037037038,203.1709090909091L-172.5925925925926,202.97939393939396L-154.81481481481484,202.809696969697L-137.03703703703704,202.17212121212123L-119.25925925925927,201.3309090909091L-101.48148148148148,201.13454545454547L-83.70370370370371,200.28848484848487L-65.92592592592594,200.03636363636363L-48.14814814814815,200.04121212121214L-30.37037037037037,198.63757575757575L-12.592592592592593,198.32000000000002L5.185185185185186,198.8460606060606L22.962962962962965,198.58424242424243L40.74074074074075,198.38303030303032L58.51851851851852,198.20363636363638L76.29629629629629,198.09939393939396L94.07407407407409,198.01939393939395L111.85185185185186,197.80121212121213L129.62962962962965,197.62424242424242L147.40740740740742,197.46424242424243L165.1851851851852,197.30666666666667L182.962962962963,197.18060606060607L200.74074074074076,197.04242424242426L218.51851851851853,196.96727272727273L236.2962962962963,196.89939393939395L254.07407407407408,196.64000000000001L271.85185185185185,196.44363636363636" stroke="#e45756" stroke-width="2" opacity="1"></path></g></g><path class="foreground" aria-hidden="true" d="" display="none"></path></g><g transform="translate(0,0)"><path class="background" aria-hidden="true" d="M0,0h266.6666666666667v266.6666666666667h-266.6666666666667Z"></path><g><g class="mark-line role-mark marks" clip-path="url(#clip4)" role="graphics-object" aria-roledescription="line mark container"><path aria-label="Country: Germany; Date: Mar 01, 2020; Confirmed: 130; Recovered: 16; Deaths: 0; : 0" role="graphics-symbol" aria-roledescription="line mark" d="M-1398.5185185185187,266.6666666666667L-1380.7407407407409,266.6666666666667L-1362.962962962963,266.6666666666667L-1345.1851851851852,266.6666666666667L-1327.4074074074076,266.6666666666667L-1309.6296296296298,266.6666666666667L-1291.851851851852,266.6666666666667L-1274.0740740740741,266.6666666666667L-1257.037037037037,266.6618181818182L-1239.2592592592594,266.6618181818182L-1221.4814814814815,266.65939393939396L-1203.703703703704,266.65939393939396L-1185.9259259259259,266.649696969697L-1168.1481481481483,266.6448484848485L-1150.3703703703704,266.64000000000004L-1132.5925925925926,266.6254545454546L-1114.8148148148148,266.60848484848486L-1097.0370370370372,266.5987878787879L-1079.2592592592594,266.56L-1061.4814814814815,266.5042424242424L-1043.7037037037037,266.46303030303034L-1025.925925925926,266.4387878787879L-1008.1481481481482,266.36848484848485L-990.3703703703704,266.28606060606063L-972.5925925925926,266.16727272727275L-954.8148148148149,266.019393939394L-937.0370370370371,265.8375757575758L-919.2592592592594,265.6169696969697L-901.4814814814815,265.37454545454545L-883.7037037037038,265.1030303030303L-865.925925925926,264.7878787878788L-848.1481481481482,264.43636363636364L-830.3703703703704,263.9830303030303L-812.5925925925926,263.5757575757576L-794.8148148148149,263.1660606060606L-777.0370370370371,262.8266666666667L-759.2592592592594,262.2787878787879L-741.4814814814815,261.77939393939397L-723.7037037037038,260.97212121212124L-705.925925925926,260.3466666666667L-688.1481481481483,259.9587878787879L-670.3703703703704,260.0339393939394L-652.5925925925927,259.3406060606061L-634.8148148148149,258.9236363636364L-617.0370370370372,258.6812121212121L-599.2592592592594,257.44484848484854L-581.4814814814815,256.8436363636364L-563.7037037037038,256.11636363636364L-545.9259259259259,255.8569696969697L-528.1481481481482,255.54909090909092L-510.37037037037044,254.88000000000002L-492.59259259259267,254.46545454545455L-474.81481481481484,253.86909090909094L-457.03703703703707,253.15151515151518L-439.2592592592593,252.70303030303032L-421.48148148148147,252.41939393939396L-403.7037037037037,252.17939393939395L-385.9259259259259,251.81575757575757L-368.14814814814815,251.36L-350.3703703703704,250.98909090909092L-332.5925925925926,250.6109090909091L-314.81481481481484,250.3369696969697L-297.03703703703707,250.1527272727273L-279.2592592592593,250.0218181818182L-261.48148148148147,249.71393939393943L-243.70370370370372,249.71393939393943L-225.92592592592595,249.03030303030303L-208.14814814814815,248.74666666666667L-190.37037037037038,248.46060606060607L-172.5925925925926,248.3660606060606L-154.81481481481484,248.31757575757578L-137.03703703703704,248.09454545454545L-119.25925925925927,247.90787878787881L-101.48148148148148,247.60969696969698L-83.70370370370371,247.5539393939394L-65.92592592592594,247.52242424242425L-48.14814814814815,247.42303030303034L-30.37037037037037,247.3648484848485L-12.592592592592593,247.26545454545456L5.185185185185186,247.07636363636365L22.962962962962965,246.92363636363638L40.74074074074075,246.7806060606061L58.51851851851852,246.72000000000003L76.29629629629629,246.64000000000004L94.07407407407409,246.58666666666667L111.85185185185186,246.52363636363637L129.62962962962965,246.37090909090912L147.40740740740742,246.23515151515153L165.1851851851852,246.13333333333335L182.962962962963,246.0509090909091L200.74074074074076,245.9878787878788L218.51851851851853,245.9636363636364L236.2962962962963,245.92727272727274L254.07407407407408,245.90787878787881L271.85185185185185,245.81333333333333" stroke="#72b7b2" stroke-width="2" opacity="1"></path></g></g><path class="foreground" aria-hidden="true" d="" display="none"></path></g><g transform="translate(0,0)"><path class="background" aria-hidden="true" d="M0,0h266.6666666666667v266.6666666666667h-266.6666666666667Z"></path><g><g class="mark-line role-mark marks" clip-path="url(#clip5)" role="graphics-object" aria-roledescription="line mark container"><path aria-label="Country: Iran; Date: Mar 01, 2020; Confirmed: 978; Recovered: 175; Deaths: 54; : 54" role="graphics-symbol" aria-roledescription="line mark" d="M-1398.5185185185187,266.5357575757576L-1380.7407407407409,266.50666666666666L-1362.962962962963,266.48L-1345.1851851851852,266.44363636363636L-1327.4074074074076,266.40727272727275L-1309.6296296296298,266.3660606060606L-1291.851851851852,266.31515151515157L-1274.0740740740741,266.1963636363636L-1257.037037037037,266.09212121212124L-1239.2592592592594,265.96121212121216L-1221.4814814814815,265.80848484848485L-1203.703703703704,265.62666666666667L-1185.9259259259259,265.4206060606061L-1168.1481481481483,265.18545454545455L-1150.3703703703704,264.9115151515152L-1132.5925925925926,264.5987878787879L-1114.8148148148148,264.2715151515152L-1097.0370370370372,263.91515151515154L-1079.2592592592594,263.5539393939394L-1061.4814814814815,263.19272727272727L-1043.7037037037037,262.8945454545455L-1025.925925925926,262.5818181818182L-1008.1481481481482,262.27393939393943L-990.3703703703704,261.97818181818184L-972.5925925925926,261.63151515151515L-954.8148148148149,261.2509090909091L-937.0370370370371,260.9018181818182L-919.2592592592594,260.5648484848485L-901.4814814814815,260.26666666666665L-883.7037037037038,259.9830303030303L-865.925925925926,259.64121212121216L-848.1481481481482,259.3066666666667L-830.3703703703704,259.0060606060606L-812.5925925925926,258.6812121212121L-794.8148148148149,258.29818181818183L-777.0370370370371,257.9321212121212L-759.2592592592594,257.60242424242426L-741.4814814814815,257.28000000000003L-723.7037037037038,256.9866666666667L-705.925925925926,256.70303030303035L-688.1481481481483,256.40727272727275L-670.3703703703704,256.10424242424244L-652.5925925925927,255.82060606060608L-634.8148148148149,255.5515151515152L-617.0370370370372,255.3139393939394L-599.2592592592594,255.0860606060606L-581.4814814814815,254.8630303030303L-563.7037037037038,254.64727272727274L-545.9259259259259,254.47030303030303L-528.1481481481482,254.25939393939396L-510.37037037037044,254.0387878787879L-492.59259259259267,253.82545454545456L-474.81481481481484,253.59757575757578L-457.03703703703707,253.37939393939396L-439.2592592592593,253.1539393939394L-421.48148148148147,252.96969696969697L-403.7037037037037,252.82424242424244L-385.9259259259259,252.59151515151518L-368.14814814814815,252.41939393939396L-350.3703703703704,252.22545454545457L-332.5925925925926,252.05333333333337L-314.81481481481484,251.9006060606061L-297.03703703703707,251.74303030303034L-279.2592592592593,251.62909090909093L-261.48148148148147,251.449696969697L-243.70370370370372,251.29696969696974L-225.92592592592595,251.1078787878788L-208.14814814814815,250.94303030303033L-190.37037037037038,250.80969696969697L-172.5925925925926,250.69333333333336L-154.81481481481484,250.569696969697L-137.03703703703704,250.46060606060607L-119.25925925925927,250.34424242424245L-101.48148148148148,250.22303030303033L-83.70370370370371,250.05090909090913L-65.92592592592594,249.93454545454546L-48.14814814814815,249.849696969697L-30.37037037037037,249.7260606060606L-12.592592592592593,249.55878787878788L5.185185185185186,249.40848484848487L22.962962962962965,249.25333333333333L40.74074074074075,249.09333333333336L58.51851851851852,248.96969696969697L76.29629629629629,248.82666666666668L94.07407407407409,248.68606060606064L111.85185185185186,248.60363636363638L129.62962962962965,248.46545454545455L147.40740740740742,248.32969696969698L165.1851851851852,248.1769696969697L182.962962962963,248.05575757575758L200.74074074074076,247.91757575757578L218.51851851851853,247.7648484848485L236.2962962962963,247.56848484848487L254.07407407407408,247.41333333333333L271.85185185185185,247.2436363636364" stroke="#54a24b" stroke-width="2" opacity="1"></path></g></g><path class="foreground" aria-hidden="true" d="" display="none"></path></g><g transform="translate(0,0)"><path class="background" aria-hidden="true" d="M0,0h266.6666666666667v266.6666666666667h-266.6666666666667Z"></path><g><g class="mark-line role-mark marks" clip-path="url(#clip6)" role="graphics-object" aria-roledescription="line mark container"><path aria-label="Country: Italy; Date: Mar 01, 2020; Confirmed: 1694; Recovered: 83; Deaths: 34; : 34" role="graphics-symbol" aria-roledescription="line mark" d="M-1398.5185185185187,266.58424242424246L-1380.7407407407409,266.5406060606061L-1362.962962962963,266.47515151515154L-1345.1851851851852,266.40727272727275L-1327.4074074074076,266.3078787878788L-1309.6296296296298,266.1890909090909L-1291.851851851852,266.1018181818182L-1274.0740740740741,265.77939393939397L-1257.037037037037,265.54424242424244L-1239.2592592592594,265.1369696969697L-1221.4814814814815,264.6618181818182L-1203.703703703704,264.2036363636364L-1185.9259259259259,263.5975757575758L-1168.1481481481483,263.17333333333335L-1150.3703703703704,262.28121212121215L-1132.5925925925926,261.4351515151515L-1114.8148148148148,260.5987878787879L-1097.0370370370372,259.4472727272728L-1079.2592592592594,258.41212121212124L-1061.4814814814815,256.8921212121212L-1043.7037037037037,254.969696969697L-1025.925925925926,253.39151515151516L-1008.1481481481482,251.93454545454546L-990.3703703703704,250.13333333333333L-972.5925925925926,248.47757575757578L-954.8148148148149,246.75151515151518L-937.0370370370371,244.5236363636364L-919.2592592592594,242.36848484848485L-901.4814814814815,240.53575757575757L-883.7037037037038,238.56727272727275L-865.925925925926,236.53818181818184L-848.1481481481482,234.7757575757576L-830.3703703703704,232.93333333333334L-812.5925925925926,231.07636363636365L-794.8148148148149,229.42545454545456L-777.0370370370371,228.15272727272728L-759.2592592592594,226.6109090909091L-741.4814814814815,225.1466666666667L-723.7037037037038,223.83272727272728L-705.925925925926,222.3539393939394L-688.1481481481483,220.97212121212124L-670.3703703703704,219.47151515151518L-652.5925925925927,218.42666666666668L-634.8148148148149,217.0545454545455L-617.0370370370372,215.59515151515154L-599.2592592592594,214.1939393939394L-581.4814814814815,212.92121212121214L-563.7037037037038,211.52727272727273L-545.9259259259259,210.3587878787879L-528.1481481481482,209.3090909090909L-510.37037037037044,208.2084848484849L-492.59259259259267,206.9139393939394L-474.81481481481484,205.85454545454547L-457.03703703703707,204.729696969697L-439.2592592592593,203.71151515151516L-421.48148148148147,202.70545454545456L-403.7037037037037,202.07515151515153L-385.9259259259259,201.2678787878788L-368.14814814814815,200.34181818181818L-350.3703703703704,199.55878787878788L-332.5925925925926,198.8678787878788L-314.81481481481484,198.21575757575758L-297.03703703703707,197.0666666666667L-279.2592592592593,196.64484848484847L-261.48148148148147,196.1721212121212L-243.70370370370372,195.60000000000002L-225.92592592592595,194.70545454545456L-208.14814814814815,194.04121212121214L-190.37037037037038,193.45212121212123L-172.5925925925926,192.9818181818182L-154.81481481481484,192.58181818181822L-137.03703703703704,192.1478787878788L-119.25925925925927,191.73090909090908L-101.48148148148148,191.2581818181818L-83.70370370370371,190.62303030303033L-65.92592592592594,190.03636363636366L-48.14814814814815,189.66545454545454L-30.37037037037037,189.31393939393942L-12.592592592592593,189.0739393939394L5.185185185185186,188.68121212121213L22.962962962962965,188.2909090909091L40.74074074074075,187.9127272727273L58.51851851851852,187.59757575757578L76.29629629629629,187.30909090909094L94.07407407407409,187.18787878787882L111.85185185185186,186.9648484848485L129.62962962962965,186.7757575757576L147.40740740740742,186.49212121212122L165.1851851851852,186.32242424242426L182.962962962963,186.1115151515152L200.74074074074076,185.84242424242427L218.51851851851853,185.66060606060606L236.2962962962963,185.51515151515153L254.07407407407408,185.38181818181818L271.85185185185185,185.20969696969698" stroke="#eeca3b" stroke-width="2" opacity="1"></path></g></g><path class="foreground" aria-hidden="true" d="" display="none"></path></g><g transform="translate(0,0)"><path class="background" aria-hidden="true" d="M0,0h266.6666666666667v266.6666666666667h-266.6666666666667Z"></path><g><g class="mark-line role-mark marks" clip-path="url(#clip7)" role="graphics-object" aria-roledescription="line mark container"><path aria-label="Country: Mexico; Date: Mar 01, 2020; Confirmed: 5; Recovered: 0; Deaths: 0; : 0" role="graphics-symbol" aria-roledescription="line mark" d="M-1398.5185185185187,266.6666666666667L-1380.7407407407409,266.6666666666667L-1362.962962962963,266.6666666666667L-1345.1851851851852,266.6666666666667L-1327.4074074074076,266.6666666666667L-1309.6296296296298,266.6666666666667L-1291.851851851852,266.6666666666667L-1274.0740740740741,266.6666666666667L-1257.037037037037,266.6666666666667L-1239.2592592592594,266.6666666666667L-1221.4814814814815,266.6666666666667L-1203.703703703704,266.6666666666667L-1185.9259259259259,266.6666666666667L-1168.1481481481483,266.6666666666667L-1150.3703703703704,266.6666666666667L-1132.5925925925926,266.6666666666667L-1114.8148148148148,266.6666666666667L-1097.0370370370372,266.6666666666667L-1079.2592592592594,266.66424242424245L-1061.4814814814815,266.6618181818182L-1043.7037037037037,266.6618181818182L-1025.925925925926,266.65939393939396L-1008.1481481481482,266.6569696969697L-990.3703703703704,266.6545454545455L-972.5925925925926,266.65212121212124L-954.8148148148149,266.64727272727276L-937.0370370370371,266.63757575757575L-919.2592592592594,266.6278787878788L-901.4814814814815,266.6181818181818L-883.7037037037038,266.5987878787879L-865.925925925926,266.59636363636366L-848.1481481481482,266.5769696969697L-830.3703703703704,266.54545454545456L-812.5925925925926,266.52121212121216L-794.8148148148149,266.47515151515154L-777.0370370370371,266.4387878787879L-759.2592592592594,266.3636363636364L-741.4814814814815,266.32484848484853L-723.7037037037038,266.2448484848485L-705.925925925926,266.1963636363636L-688.1481481481483,266.1018181818182L-670.3703703703704,266.00484848484854L-652.5925925925927,265.94909090909096L-634.8148148148149,265.8618181818182L-617.0370370370372,265.68242424242425L-599.2592592592594,265.57818181818186L-581.4814814814815,265.48848484848486L-563.7037037037038,265.34303030303033L-545.9259259259259,265.0909090909091L-528.1481481481482,265.0036363636364L-510.37037037037044,264.94060606060606L-492.59259259259267,264.58909090909094L-474.81481481481484,264.3151515151515L-457.03703703703707,264.0751515151515L-439.2592592592593,263.7066666666667L-421.48148148148147,263.5030303030303L-403.7037037037037,263.3915151515152L-385.9259259259259,263.190303030303L-368.14814814814815,262.8630303030303L-350.3703703703704,262.4678787878788L-332.5925925925926,262.16L-314.81481481481484,261.88606060606065L-297.03703703703707,261.67030303030305L-279.2592592592593,261.44484848484854L-261.48148148148147,261.16121212121215L-243.70370370370372,260.58909090909094L-225.92592592592595,260.11151515151516L-208.14814814814815,259.48848484848486L-190.37037037037038,259.0060606060606L-172.5925925925926,258.53818181818184L-154.81481481481484,258.2666666666667L-137.03703703703704,258.0048484848485L-119.25925925925927,257.14909090909094L-101.48148148148148,256.43636363636364L-83.70370370370371,255.81333333333336L-65.92592592592594,255.11030303030304L-48.14814814814815,254.43636363636367L-30.37037037037037,254.11636363636367L-12.592592592592593,253.7406060606061L5.185185185185186,252.9309090909091L22.962962962962965,251.9030303030303L40.74074074074075,250.8848484848485L58.51851851851852,249.7236363636364L76.29629629629629,249.26303030303035L94.07407407407409,248.7418181818182L111.85185185185186,248.16242424242427L129.62962962962965,246.9478787878788L147.40740740740742,245.82545454545456L165.1851851851852,244.7418181818182L182.962962962963,243.84242424242427L200.74074074074076,242.96000000000004L218.51851851851853,242.59393939393942L236.2962962962963,242.01939393939398L254.07407407407408,240.88000000000002L271.85185185185185,238.2327272727273" stroke="#b279a2" stroke-width="2" opacity="1"></path></g></g><path class="foreground" aria-hidden="true" d="" display="none"></path></g><g transform="translate(0,0)"><path class="background" aria-hidden="true" d="M0,0h266.6666666666667v266.6666666666667h-266.6666666666667Z"></path><g><g class="mark-line role-mark marks" clip-path="url(#clip8)" role="graphics-object" aria-roledescription="line mark container"><path aria-label="Country: Spain; Date: Mar 01, 2020; Confirmed: 84; Recovered: 2; Deaths: 0; : 0" role="graphics-symbol" aria-roledescription="line mark" d="M-1398.5185185185187,266.6666666666667L-1380.7407407407409,266.6666666666667L-1362.962962962963,266.66424242424245L-1345.1851851851852,266.6618181818182L-1327.4074074074076,266.65939393939396L-1309.6296296296298,266.6545454545455L-1291.851851851852,266.6424242424242L-1274.0740740740741,266.6254545454546L-1257.037037037037,266.5987878787879L-1239.2592592592594,266.5818181818182L-1221.4814814814815,266.5357575757576L-1203.703703703704,266.53333333333336L-1185.9259259259259,266.34424242424245L-1168.1481481481483,266.1939393939394L-1150.3703703703704,265.96606060606064L-1132.5925925925926,265.8375757575758L-1114.8148148148148,265.37454545454545L-1097.0370370370372,265.15636363636366L-1079.2592592592594,264.6545454545455L-1061.4814814814815,264.13818181818186L-1043.7037037037037,263.33333333333337L-1025.925925925926,262.3709090909091L-1008.1481481481482,261.0642424242425L-990.3703703703704,259.85939393939395L-972.5925925925926,257.8254545454546L-954.8148148148149,256.0848484848485L-937.0370370370371,254.2109090909091L-919.2592592592594,252.1648484848485L-901.4814814814815,250.17454545454547L-883.7037037037038,247.96121212121216L-865.925925925926,246.1478787878788L-848.1481481481482,243.91030303030306L-830.3703703703704,241.58060606060607L-812.5925925925926,239.52L-794.8148148148149,237.70424242424244L-777.0370370370371,236.0218181818182L-759.2592592592594,234.3248484848485L-741.4814814814815,232.61818181818182L-723.7037037037038,230.80727272727273L-705.925925925926,229.21939393939397L-688.1481481481483,227.68242424242428L-670.3703703703704,226.40969696969697L-652.5925925925927,224.9478787878788L-634.8148148148149,223.6218181818182L-617.0370370370372,222.89454545454547L-599.2592592592594,221.31393939393942L-581.4814814814815,219.84242424242424L-563.7037037037038,218.17696969696973L-545.9259259259259,218.07757575757577L-528.1481481481482,217.08363636363637L-510.37037037037044,216.11636363636364L-492.59259259259267,215.0739393939394L-474.81481481481484,214.01939393939395L-457.03703703703707,212.95272727272726L-439.2592592592593,212.0630303030303L-421.48148148148147,211.1466666666667L-403.7037037037037,210.44848484848487L-385.9259259259259,209.64606060606062L-368.14814814814815,208.91636363636363L-350.3703703703704,207.81818181818184L-332.5925925925926,207.16848484848487L-314.81481481481484,207.16848484848487L-297.03703703703707,205.81818181818184L-279.2592592592593,205.42060606060608L-261.48148148148147,205.0230303030303L-243.70370370370372,204.57454545454547L-225.92592592592595,203.98303030303032L-208.14814814814815,203.4666666666667L-190.37037037037038,202.91151515151518L-172.5925925925926,202.47757575757578L-154.81481481481484,202.1309090909091L-137.03703703703704,201.83272727272728L-119.25925925925927,201.40606060606063L-101.48148148148148,200.96000000000004L-83.70370370370371,200.4339393939394L-65.92592592592594,200.09939393939396L-48.14814814814815,199.84727272727275L-30.37037037037037,199.84727272727275L-12.592592592592593,199.49333333333334L5.185185185185186,199.32606060606062L22.962962962962965,199.05939393939397L40.74074074074075,198.93333333333334L58.51851851851852,197.26545454545453L76.29629629629629,197.14424242424244L94.07407407407409,196.96484848484852L111.85185185185186,201.61454545454546L129.62962962962965,200.92848484848486L147.40740740740742,200.92848484848486L165.1851851851852,200.92363636363638L182.962962962963,200.9187878787879L200.74074074074076,200.90909090909093L218.51851851851853,200.90424242424245L236.2962962962963,200.90424242424245L254.07407407407408,200.90424242424245L271.85185185185185,200.9018181818182" stroke="#ff9da6" stroke-width="2" opacity="1"></path></g></g><path class="foreground" aria-hidden="true" d="" display="none"></path></g><g transform="translate(0,0)"><path class="background" aria-hidden="true" d="M0,0h266.6666666666667v266.6666666666667h-266.6666666666667Z"></path><g><g class="mark-line role-mark marks" clip-path="url(#clip9)" role="graphics-object" aria-roledescription="line mark container"><path aria-label="Country: US; Date: Mar 01, 2020; Confirmed: 74; Recovered: 7; Deaths: 1; : 1" role="graphics-symbol" aria-roledescription="line mark" d="M-1398.5185185185187,266.66424242424245L-1380.7407407407409,266.65212121212124L-1362.962962962963,266.649696969697L-1345.1851851851852,266.64000000000004L-1327.4074074074076,266.63757575757575L-1309.6296296296298,266.63272727272727L-1291.851851851852,266.6254545454546L-1274.0740740740741,266.6157575757576L-1257.037037037037,266.61333333333334L-1239.2592592592594,266.5987878787879L-1221.4814814814815,266.579393939394L-1203.703703703704,266.56484848484854L-1185.9259259259259,266.54545454545456L-1168.1481481481483,266.52121212121216L-1150.3703703703704,266.48727272727274L-1132.5925925925926,266.42424242424244L-1114.8148148148148,266.3418181818182L-1097.0370370370372,266.2666666666667L-1079.2592592592594,266.0387878787879L-1061.4814814814815,265.8181818181818L-1043.7037037037037,265.59515151515154L-1025.925925925926,265.24363636363637L-1008.1481481481482,264.7612121212121L-990.3703703703704,264.2157575757576L-972.5925925925926,263.4666666666667L-954.8148148148149,262.48242424242426L-937.0370370370371,261.1660606060606L-919.2592592592594,260.0145454545455L-901.4814814814815,258.3757575757576L-883.7037037037038,256.49454545454546L-865.925925925926,253.65575757575758L-848.1481481481482,250.88242424242426L-830.3703703703704,247.42303030303034L-812.5925925925926,244.21818181818185L-794.8148148148149,240.31515151515154L-777.0370370370371,236.66666666666669L-759.2592592592594,232.98424242424244L-741.4814814814815,227.41575757575757L-723.7037037037038,222.3757575757576L-705.925925925926,217.48363636363638L-688.1481481481483,212.46787878787882L-670.3703703703704,207.59757575757578L-652.5925925925927,203.4278787878788L-634.8148148148149,199.10303030303032L-617.0370370370372,193.30424242424243L-599.2592592592594,187.24848484848488L-581.4814814814815,182.19636363636366L-563.7037037037038,175.93212121212122L-545.9259259259259,170.24242424242425L-528.1481481481482,167.4060606060606L-510.37037037037044,163.18545454545458L-492.59259259259267,157.36727272727273L-474.81481481481484,151.72848484848487L-457.03703703703707,146.1236363636364L-439.2592592592593,141.83515151515152L-421.48148148148147,136.35151515151514L-403.7037037037037,133.62181818181818L-385.9259259259259,130.37818181818182L-368.14814814814815,125.20000000000002L-350.3703703703704,118.86787878787878L-332.5925925925926,113.9490909090909L-314.81481481481484,109.22909090909091L-297.03703703703707,105.77212121212122L-279.2592592592593,102.58909090909091L-261.48148148148147,99.58303030303033L-243.70370370370372,94.39030303030304L-225.92592592592595,88.5939393939394L-208.14814814814815,83.24363636363636L-190.37037037037038,79.56363636363638L-172.5925925925926,75.64848484848484L-154.81481481481484,73.87636363636364L-137.03703703703704,71.0739393939394L-119.25925925925927,67.01575757575759L-101.48148148148148,62.741818181818175L-83.70370370370371,58.42909090909092L-65.92592592592594,54.472727272727276L-48.14814814814815,51.50545454545454L-30.37037037037037,49.54666666666666L-12.592592592592593,47.64363636363637L5.185185185185186,43.82787878787878L22.962962962962965,40.1478787878788L40.74074074074075,37.0860606060606L58.51851851851852,33.99272727272728L76.29629629629629,31.306666666666654L94.07407407407409,29.7721212121212L111.85185185185186,28.559999999999995L129.62962962962965,26.880000000000003L147.40740740740742,23.23151515151517L165.1851851851852,20.324848484848495L182.962962962963,17.432727272727266L200.74074074074076,15.088484848484848L218.51851851851853,13.621818181818195L236.2962962962963,11.760000000000009L254.07407407407408,9.260606060606058L271.85185185185185,6.848484848484838" stroke="#9d755d" stroke-width="2" opacity="1"></path></g></g><path class="foreground" aria-hidden="true" d="" display="none"></path></g><g transform="translate(0,0)"><path class="background" aria-hidden="true" d="M0,0h266.6666666666667v266.6666666666667h-266.6666666666667Z"></path><g><g class="mark-line role-mark marks" clip-path="url(#clip10)" role="graphics-object" aria-roledescription="line mark container"><path aria-label="Country: United Kingdom; Date: Mar 01, 2020; Confirmed: 36; Recovered: 8; Deaths: 0; : 0" role="graphics-symbol" aria-roledescription="line mark" d="M-1398.5185185185187,266.6666666666667L-1380.7407407407409,266.6666666666667L-1362.962962962963,266.6666666666667L-1345.1851851851852,266.6666666666667L-1327.4074074074076,266.6666666666667L-1309.6296296296298,266.66424242424245L-1291.851851851852,266.6618181818182L-1274.0740740740741,266.6618181818182L-1257.037037037037,266.65939393939396L-1239.2592592592594,266.649696969697L-1221.4814814814815,266.649696969697L-1203.703703703704,266.6448484848485L-1185.9259259259259,266.6424242424242L-1168.1481481481483,266.5987878787879L-1150.3703703703704,266.56242424242424L-1132.5925925925926,266.5090909090909L-1114.8148148148148,266.47030303030306L-1097.0370370370372,266.3878787878788L-1079.2592592592594,266.2836363636364L-1061.4814814814815,266.1963636363636L-1043.7037037037037,266.06060606060606L-1025.925925925926,265.9757575757576L-1008.1481481481482,265.79636363636365L-990.3703703703704,265.4351515151515L-972.5925925925926,264.98424242424244L-954.8148148148149,264.5406060606061L-937.0370370370371,263.85212121212123L-919.2592592592594,263.1393939393939L-901.4814814814815,262.62060606060606L-883.7037037037038,261.7139393939394L-865.925925925926,260.7878787878788L-848.1481481481482,259.1636363636364L-830.3703703703704,257.5830303030303L-812.5925925925926,255.8521212121212L-794.8148148148149,254.009696969697L-777.0370370370371,252.44848484848487L-759.2592592592594,251.07151515151517L-741.4814814814815,248.55515151515155L-723.7037037037038,246.04848484848486L-705.925925925926,243.37454545454548L-688.1481481481483,240.5818181818182L-670.3703703703704,238.5478787878788L-652.5925925925927,236.8848484848485L-634.8148148148149,235.08121212121213L-617.0370370370372,232.55030303030304L-599.2592592592594,230.50909090909093L-581.4814814814815,228.0145454545455L-563.7037037037038,225.7478787878788L-545.9259259259259,223.0448484848485L-528.1481481481482,221.8375757575758L-510.37037037037044,220.48242424242426L-492.59259259259267,217.64121212121213L-474.81481481481484,215.61212121212122L-457.03703703703707,213.849696969697L-439.2592592592593,211.41333333333333L-421.48148148148147,209.36969696969697L-403.7037037037037,208.35151515151517L-385.9259259259259,207.53212121212124L-368.14814814814815,205.32848484848486L-350.3703703703704,203.40121212121213L-332.5925925925926,201.76727272727274L-314.81481481481484,199.97575757575757L-297.03703703703707,198.47030303030303L-279.2592592592593,197.7066666666667L-261.48148148148147,197.00848484848487L-243.70370370370372,195.32848484848486L-225.92592592592595,193.75515151515154L-208.14814814814815,192.44848484848487L-190.37037037037038,190.93090909090913L-172.5925925925926,190.09212121212124L-154.81481481481484,189.44242424242427L-137.03703703703704,188.93333333333337L-119.25925925925927,187.41333333333336L-101.48148148148148,186.2157575757576L-83.70370370370371,185.17818181818183L-65.92592592592594,184.24727272727273L-48.14814814814815,183.1127272727273L-30.37037037037037,182.7006060606061L-12.592592592592593,182.31272727272727L5.185185185185186,180.99151515151516L22.962962962962965,180.11151515151516L40.74074074074075,179.29212121212123L58.51851851851852,178.44121212121212L76.29629629629629,177.75757575757575L94.07407407407409,177.47151515151518L111.85185185185186,177.17818181818183L129.62962962962965,176.85333333333335L147.40740740740742,175.85454545454547L165.1851851851852,174.94060606060606L182.962962962963,174.15515151515154L200.74074074074076,173.63393939393941L218.51851851851853,173.36L236.2962962962963,172.0121212121212L254.07407407407408,171.2266666666667L271.85185185185185,170.35636363636365" stroke="#bab0ac" stroke-width="2" opacity="1"></path></g></g><path class="foreground" aria-hidden="true" d="" display="none"></path></g></g><g class="mark-group role-legend" role="graphics-symbol" aria-roledescription="legend" aria-label="Symbol legend for stroke color with 10 values: Belgium, Brazil, France, Germany, Iran, ending with United Kingdom"><g transform="translate(285,0)"><path class="background" aria-hidden="true" d="M0,0h79v128h-79Z" pointer-events="none"></path><g><g class="mark-group role-legend-entry"><g transform="translate(0,0)"><path class="background" aria-hidden="true" d="M0,0h0v0h0Z" pointer-events="none"></path><g><g class="mark-group role-scope Country_legend_entries" role="graphics-object" aria-roledescription="group mark container"><g transform="translate(0,0)"><path class="background" aria-hidden="true" d="M0,0h79v11h-79Z" opacity="1"></path><g><g class="mark-symbol role-legend-symbol Country_legend_symbols"><path transform="translate(6,6)" d="M-5,0L5,0" stroke="#4c78a8" stroke-width="1.5" opacity="1"></path></g><g class="mark-text role-legend-label Country_legend_labels"><text text-anchor="start" transform="translate(16,9)" font-family="Roboto Condensed" font-size="10px" fill="#000" opacity="1">Belgium</text></g></g><path class="foreground" aria-hidden="true" d="" display="none"></path></g><g transform="translate(0,13)"><path class="background" aria-hidden="true" d="M0,0h79v11h-79Z" opacity="1"></path><g><g class="mark-symbol role-legend-symbol Country_legend_symbols"><path transform="translate(6,6)" d="M-5,0L5,0" stroke="#f58518" stroke-width="1.5" opacity="1"></path></g><g class="mark-text role-legend-label Country_legend_labels"><text text-anchor="start" transform="translate(16,9)" font-family="Roboto Condensed" font-size="10px" fill="#000" opacity="1">Brazil</text></g></g><path class="foreground" aria-hidden="true" d="" display="none"></path></g><g transform="translate(0,26)"><path class="background" aria-hidden="true" d="M0,0h79v11h-79Z" opacity="1"></path><g><g class="mark-symbol role-legend-symbol Country_legend_symbols"><path transform="translate(6,6)" d="M-5,0L5,0" stroke="#e45756" stroke-width="1.5" opacity="1"></path></g><g class="mark-text role-legend-label Country_legend_labels"><text text-anchor="start" transform="translate(16,9)" font-family="Roboto Condensed" font-size="10px" fill="#000" opacity="1">France</text></g></g><path class="foreground" aria-hidden="true" d="" display="none"></path></g><g transform="translate(0,39)"><path class="background" aria-hidden="true" d="M0,0h79v11h-79Z" opacity="1"></path><g><g class="mark-symbol role-legend-symbol Country_legend_symbols"><path transform="translate(6,6)" d="M-5,0L5,0" stroke="#72b7b2" stroke-width="1.5" opacity="1"></path></g><g class="mark-text role-legend-label Country_legend_labels"><text text-anchor="start" transform="translate(16,9)" font-family="Roboto Condensed" font-size="10px" fill="#000" opacity="1">Germany</text></g></g><path class="foreground" aria-hidden="true" d="" display="none"></path></g><g transform="translate(0,52)"><path class="background" aria-hidden="true" d="M0,0h79v11h-79Z" opacity="1"></path><g><g class="mark-symbol role-legend-symbol Country_legend_symbols"><path transform="translate(6,6)" d="M-5,0L5,0" stroke="#54a24b" stroke-width="1.5" opacity="1"></path></g><g class="mark-text role-legend-label Country_legend_labels"><text text-anchor="start" transform="translate(16,9)" font-family="Roboto Condensed" font-size="10px" fill="#000" opacity="1">Iran</text></g></g><path class="foreground" aria-hidden="true" d="" display="none"></path></g><g transform="translate(0,65)"><path class="background" aria-hidden="true" d="M0,0h79v11h-79Z" opacity="1"></path><g><g class="mark-symbol role-legend-symbol Country_legend_symbols"><path transform="translate(6,6)" d="M-5,0L5,0" stroke="#eeca3b" stroke-width="1.5" opacity="1"></path></g><g class="mark-text role-legend-label Country_legend_labels"><text text-anchor="start" transform="translate(16,9)" font-family="Roboto Condensed" font-size="10px" fill="#000" opacity="1">Italy</text></g></g><path class="foreground" aria-hidden="true" d="" display="none"></path></g><g transform="translate(0,78)"><path class="background" aria-hidden="true" d="M0,0h79v11h-79Z" opacity="1"></path><g><g class="mark-symbol role-legend-symbol Country_legend_symbols"><path transform="translate(6,6)" d="M-5,0L5,0" stroke="#b279a2" stroke-width="1.5" opacity="1"></path></g><g class="mark-text role-legend-label Country_legend_labels"><text text-anchor="start" transform="translate(16,9)" font-family="Roboto Condensed" font-size="10px" fill="#000" opacity="1">Mexico</text></g></g><path class="foreground" aria-hidden="true" d="" display="none"></path></g><g transform="translate(0,91)"><path class="background" aria-hidden="true" d="M0,0h79v11h-79Z" opacity="1"></path><g><g class="mark-symbol role-legend-symbol Country_legend_symbols"><path transform="translate(6,6)" d="M-5,0L5,0" stroke="#ff9da6" stroke-width="1.5" opacity="1"></path></g><g class="mark-text role-legend-label Country_legend_labels"><text text-anchor="start" transform="translate(16,9)" font-family="Roboto Condensed" font-size="10px" fill="#000" opacity="1">Spain</text></g></g><path class="foreground" aria-hidden="true" d="" display="none"></path></g><g transform="translate(0,104)"><path class="background" aria-hidden="true" d="M0,0h79v11h-79Z" opacity="1"></path><g><g class="mark-symbol role-legend-symbol Country_legend_symbols"><path transform="translate(6,6)" d="M-5,0L5,0" stroke="#9d755d" stroke-width="1.5" opacity="1"></path></g><g class="mark-text role-legend-label Country_legend_labels"><text text-anchor="start" transform="translate(16,9)" font-family="Roboto Condensed" font-size="10px" fill="#000" opacity="1">US</text></g></g><path class="foreground" aria-hidden="true" d="" display="none"></path></g><g transform="translate(0,117)"><path class="background" aria-hidden="true" d="M0,0h79v11h-79Z" opacity="1"></path><g><g class="mark-symbol role-legend-symbol Country_legend_symbols"><path transform="translate(6,6)" d="M-5,0L5,0" stroke="#bab0ac" stroke-width="1.5" opacity="1"></path></g><g class="mark-text role-legend-label Country_legend_labels"><text text-anchor="start" transform="translate(16,9)" font-family="Roboto Condensed" font-size="10px" fill="#000" opacity="1">United Kingdom</text></g></g><path class="foreground" aria-hidden="true" d="" display="none"></path></g></g></g><path class="foreground" aria-hidden="true" d="" pointer-events="none" display="none"></path></g></g></g><path class="foreground" aria-hidden="true" d="" pointer-events="none" display="none"></path></g></g><g class="mark-group role-title"><g transform="translate(133.33333333333334,-32)"><path class="background" aria-hidden="true" d="M0,0h0v0h0Z" pointer-events="none"></path><g><g class="mark-text role-title-text" role="graphics-symbol" aria-roledescription="title" aria-label="Title text 'Deaths (total) [2020-06-03]'" pointer-events="none"><text text-anchor="middle" transform="translate(0,10)" font-family="Roboto Condensed" font-size="13px" font-weight="normal" fill="#000" opacity="1"><tspan>Deaths (total)</tspan><tspan x="0" dy="15">[2020-06-03]</tspan></text></g></g><path class="foreground" aria-hidden="true" d="" pointer-events="none" display="none"></path></g></g></g><path class="foreground" aria-hidden="true" d="" display="none"></path></g></g></g></svg>