<svg class="marks" width="996" height="491" viewBox="0 0 996 491" version="1.1" xmlns="http://www.w3.org/2000/svg" xmlns:xlink="http://www.w3.org/1999/xlink"><defs><clipPath id="clip1"><rect x="0" y="0" width="400" height="400"></rect></clipPath><clipPath id="clip2"><rect x="0" y="0" width="400" height="400"></rect></clipPath><clipPath id="clip3"><rect x="0" y="0" width="400" height="400"></rect></clipPath><clipPath id="clip4"><rect x="0" y="0" width="400" height="400"></rect></clipPath><clipPath id="clip5"><rect x="0" y="0" width="400" height="400"></rect></clipPath><clipPath id="clip6"><rect x="0" y="0" width="400" height="400"></rect></clipPath><clipPath id="clip7"><rect x="0" y="0" width="400" height="400"></rect></clipPath><clipPath id="clip8"><rect x="0" y="0" width="400" height="400"></rect></clipPath><clipPath id="clip9"><rect x="0" y="0" width="400" height="400"></rect></clipPath></defs><rect width="996" height="491" fill="white"></rect><g fill="none" stroke-miterlimit="10" transform="translate(50,59)"><g class="mark-group role-frame root" role="graphics-object" aria-roledescription="group mark container"><g transform="translate(0,0)"><path class="background" aria-hidden="true" d="M0,0h0v400h0Z"></path><g><g class="mark-group role-scope concat_0_group" role="graphics-object" aria-roledescription="group mark container"><g transform="translate(0,0)"><path class="background" aria-hidden="true" d="M0,0h400v400h-400Z" stroke="#ddd" stroke-width="0"></path><g><g class="mark-group role-axis" aria-hidden="true"><g transform="translate(0.5,0.5)"><path class="background" aria-hidden="true" d="M0,0h0v0h0Z" pointer-events="none"></path><g><g class="mark-rule role-axis-grid" pointer-events="none"><line transform="translate(0,400)" x2="400" y2="0" stroke="#ddd" stroke-width="1" opacity="1"></line><line transform="translate(0,360)" x2="400" y2="0" stroke="#ddd" stroke-width="1" opacity="1"></line><line transform="translate(0,320)" x2="400" y2="0" stroke="#ddd" stroke-width="1" opacity="1"></line><line transform="translate(0,280)" x2="400" y2="0" stroke="#ddd" stroke-width="1" opacity="1"></line><line transform="translate(0,240)" x2="400" y2="0" stroke="#ddd" stroke-width="1" opacity="1"></line><line transform="translate(0,200)" x2="400" y2="0" stroke="#ddd" stroke-width="1" opacity="1"></line><line transform="translate(0,160)" x2="400" y2="0" stroke="#ddd" stroke-width="1" opacity="1"></line><line transform="translate(0,120)" x2="400" y2="0" stroke="#ddd" stroke-width="1" opacity="1"></line><line transform="translate(0,80)" x2="400" y2="0" stroke="#ddd" stroke-width="1" opacity="1"></line><line transform="translate(0,40)" x2="400" y2="0" stroke="#ddd" stroke-width="1" opacity="1"></line><line transform="translate(0,0)" x2="400" y2="0" stroke="#ddd" stroke-width="1" opacity="1"></line></g></g><path class="foreground" aria-hidden="true" d="" pointer-events="none" display="none"></path></g></g><g class="mark-group role-axis" role="graphics-symbol" aria-roledescription="axis" aria-label="X-axis titled 'Date' for a time scale with values from May 19 to June 03"><g transform="translate(0.5,400.5)"><path class="background" aria-hidden="true" d="M0,0h0v0h0Z" pointer-events="none"></path><g><g class="mark-text role-axis-label" pointer-events="none"><text text-anchor="middle" transform="translate(34.44444444444444,10)" font-family="Roboto Condensed" font-size="10px" fill="#000" opacity="1">May 21</text><text text-anchor="middle" transform="translate(87.77777777777777,10)" font-family="Roboto Condensed" font-size="10px" fill="#000" opacity="0">May 23</text><text text-anchor="middle" transform="translate(141.11111111111111,10)" font-family="Roboto Condensed" font-size="10px" fill="#000" opacity="1">May 25</text><text text-anchor="middle" transform="translate(194.44444444444443,10)" font-family="Roboto Condensed" font-size="10px" fill="#000" opacity="0">May 27</text><text text-anchor="middle" transform="translate(247.77777777777777,10)" font-family="Roboto Condensed" font-size="10px" fill="#000" opacity="1">May 29</text><text text-anchor="middle" transform="translate(301.1111111111111,10)" font-family="Roboto Condensed" font-size="10px" fill="#000" opacity="0">May 31</text><text text-anchor="middle" transform="translate(327.77777777777777,10)" font-family="Roboto Condensed" font-size="10px" fill="#000" opacity="1">Jun 01</text><text text-anchor="middle" transform="translate(381.1111111111111,10)" font-family="Roboto Condensed" font-size="10px" fill="#000" opacity="0">Jun 03</text></g><g class="mark-rule role-axis-domain" pointer-events="none"><line transform="translate(0,0)" x2="400" y2="0" stroke="lightgray" stroke-width="1" opacity="1"></line></g><g class="mark-text role-axis-title" pointer-events="none"><text text-anchor="middle" transform="translate(200,25)" font-family="Roboto Condensed" font-size="11px" font-weight="normal" fill="#000" opacity="1">Date</text></g></g><path class="foreground" aria-hidden="true" d="" pointer-events="none" display="none"></path></g></g><g class="mark-group role-axis" role="graphics-symbol" aria-roledescription="axis" aria-label="Y-axis titled 'Count' for a linear scale with values from -100 to 900"><g transform="translate(0.5,0.5)"><path class="background" aria-hidden="true" d="M0,0h0v0h0Z" pointer-events="none"></path><g><g class="mark-text role-axis-label" pointer-events="none"><text text-anchor="end" transform="translate(-2,403)" font-family="Roboto Condensed" font-size="10px" fill="#000" opacity="1">-100</text><text text-anchor="end" transform="translate(-2,363)" font-family="Roboto Condensed" font-size="10px" fill="#000" opacity="1">0</text><text text-anchor="end" transform="translate(-2,323)" font-family="Roboto Condensed" font-size="10px" fill="#000" opacity="1">100</text><text text-anchor="end" transform="translate(-2,283)" font-family="Roboto Condensed" font-size="10px" fill="#000" opacity="1">200</text><text text-anchor="end" transform="translate(-2,243)" font-family="Roboto Condensed" font-size="10px" fill="#000" opacity="1">300</text><text text-anchor="end" transform="translate(-2,203)" font-family="Roboto Condensed" font-size="10px" fill="#000" opacity="1">400</text><text text-anchor="end" transform="translate(-2,163)" font-family="Roboto Condensed" font-size="10px" fill="#000" opacity="1">500</text><text text-anchor="end" transform="translate(-2,123.00000000000001)" font-family="Roboto Condensed" font-size="10px" fill="#000" opacity="1">600</text><text text-anchor="end" transform="translate(-2,82.99999999999999)" font-family="Roboto Condensed" font-size="10px" fill="#000" opacity="1">700</text><text text-anchor="end" transform="translate(-2,42.99999999999999)" font-family="Roboto Condensed" font-size="10px" fill="#000" opacity="1">800</text><text text-anchor="end" transform="translate(-2,3)" font-family="Roboto Condensed" font-size="10px" fill="#000" opacity="1">900</text></g><g class="mark-rule role-axis-domain" pointer-events="none"><line transform="translate(0,400)" x2="0" y2="-400" stroke="lightgray" stroke-width="1" opacity="1"></line></g><g class="mark-text role-axis-title" pointer-events="none"><text text-anchor="start" transform="translate(-45,-13)" font-family="Roboto Condensed" font-size="11px" font-weight="normal" fill="#000" opacity="1">Count</text></g></g><path class="foreground" aria-hidden="true" d="" pointer-events="none" display="none"></path></g></g><g class="mark-group role-scope concat_0_layer_0_pathgroup" role="graphics-object" aria-roledescription="group mark container"><g transform="translate(0,0)"><path class="background" aria-hidden="true" d="M0,0h400v400h-400Z"></path><g><g class="mark-line role-mark concat_0_layer_0_marks" clip-path="url(#clip1)" role="graphics-object" aria-roledescription="line mark container"><path aria-label="Type: Recovered; Date: Mar 01; Count: 0" role="graphics-symbol" aria-roledescription="line mark" d="M-2124.4444444444443,360L-2097.777777777778,360L-2071.1111111111113,360L-2044.4444444444443,360L-2017.7777777777778,360L-1991.111111111111,359.6L-1964.4444444444446,360L-1937.7777777777776,360L-1912.2222222222224,360L-1885.5555555555554,360L-1858.888888888889,360L-1832.2222222222222,360L-1805.5555555555557,360L-1778.8888888888887,360L-1752.2222222222222,360L-1725.5555555555557,360L-1698.8888888888887,360L-1672.2222222222222,360L-1645.5555555555557,360L-1618.888888888889,360L-1592.2222222222222,360L-1565.5555555555554,360L-1538.888888888889,360L-1512.2222222222222,360L-1485.5555555555557,360L-1458.888888888889,360L-1432.2222222222222,360L-1405.5555555555554,360L-1378.888888888889,360L-1352.2222222222222,360L-1325.5555555555557,360L-1298.888888888889,2.8000000000000025L-1272.2222222222222,282L-1245.5555555555557,318.40000000000003L-1218.888888888889,324L-1192.2222222222222,342.4L-1165.5555555555554,339.59999999999997L-1138.888888888889,314.8L-1112.2222222222222,308L-1085.5555555555557,314L-1058.888888888889,345.2L-1032.2222222222222,287.2L-1005.5555555555555,292.8L-978.8888888888889,315.2L-952.2222222222222,248L-925.5555555555557,266.8L-898.8888888888889,250L-872.2222222222222,213.60000000000002L-845.5555555555555,176.79999999999998L-818.8888888888888,242.4L-792.2222222222223,291.59999999999997L-765.5555555555555,204.8L-738.8888888888889,205.20000000000002L-712.2222222222222,241.2L-685.5555555555555,303.2L-658.8888888888889,302.8L-632.2222222222222,305.6L-605.5555555555555,298.4L-578.8888888888889,295.2L-552.2222222222222,262L-525.5555555555555,288L-498.8888888888889,286.8L-472.22222222222223,296L-445.55555555555554,320.8L-418.8888888888889,319.59999999999997L-392.22222222222223,276.79999999999995L-365.55555555555554,281.20000000000005L-338.88888888888886,272.79999999999995L-312.22222222222223,273.59999999999997L-285.55555555555554,293.6L-258.8888888888889,310.40000000000003L-232.22222222222223,315.6L-205.55555555555554,259.2L-178.88888888888889,326.79999999999995L-152.22222222222223,303.2L-125.55555555555556,298.4L-98.88888888888889,300.8L-72.22222222222221,312L-45.55555555555556,330.40000000000003L-18.88888888888889,314L7.777777777777778,312L34.44444444444444,317.2L61.111111111111114,311.6L87.77777777777777,331.20000000000005L114.44444444444444,334.4L141.11111111111111,334.4L167.77777777777777,328L194.44444444444443,335.2L221.11111111111111,330.40000000000003L247.77777777777777,336L274.44444444444446,325.2L301.1111111111111,346L327.77777777777777,340L354.44444444444446,329.2L381.1111111111111,334.8L407.77777777777777,332.8" stroke="#e45756" stroke-width="2" opacity="0.2"></path></g></g><path class="foreground" aria-hidden="true" d="" display="none"></path></g><g transform="translate(0,0)"><path class="background" aria-hidden="true" d="M0,0h400v400h-400Z"></path><g><g class="mark-line role-mark concat_0_layer_0_marks" clip-path="url(#clip2)" role="graphics-object" aria-roledescription="line mark container"><path aria-label="Type: Deaths; Date: Mar 01; Count: 0" role="graphics-symbol" aria-roledescription="line mark" d="M-2124.4444444444443,360L-2097.777777777778,360L-2071.1111111111113,360L-2044.4444444444443,360L-2017.7777777777778,360L-1991.111111111111,360L-1964.4444444444446,360L-1937.7777777777776,360L-1912.2222222222224,360L-1885.5555555555554,360L-1858.888888888889,360L-1832.2222222222222,360L-1805.5555555555557,360L-1778.8888888888887,359.6L-1752.2222222222222,359.6L-1725.5555555555557,359.6L-1698.8888888888887,359.6L-1672.2222222222222,360L-1645.5555555555557,359.2L-1618.888888888889,358.8L-1592.2222222222222,358.40000000000003L-1565.5555555555554,360L-1538.888888888889,355.6L-1512.2222222222222,356.8L-1485.5555555555557,359.2L-1458.888888888889,357.2L-1432.2222222222222,355.6L-1405.5555555555554,354.8L-1378.888888888889,357.2L-1352.2222222222222,358L-1325.5555555555557,354.8L-1298.888888888889,354.4L-1272.2222222222222,352.4L-1245.5555555555557,353.6L-1218.888888888889,351.2L-1192.2222222222222,352.8L-1165.5555555555554,356.8L-1138.888888888889,353.6L-1112.2222222222222,354L-1085.5555555555557,352.4L-1058.888888888889,356L-1032.2222222222222,354.8L-1005.5555555555555,354.8L-978.8888888888889,355.2L-952.2222222222222,354.4L-925.5555555555557,356L-898.8888888888889,355.2L-872.2222222222222,354L-845.5555555555555,356L-818.8888888888888,356.4L-792.2222222222223,356.4L-765.5555555555555,357.6L-738.8888888888889,354.4L-712.2222222222222,356L-685.5555555555555,356.4L-658.8888888888889,354L-632.2222222222222,358.40000000000003L-605.5555555555555,358L-578.8888888888889,357.2L-552.2222222222222,356.4L-525.5555555555555,356.4L-498.8888888888889,356.8L-472.22222222222223,354L-445.55555555555554,356.4L-418.8888888888889,356.4L-392.22222222222223,356L-365.55555555555554,358.8L-338.88888888888886,356.8L-312.22222222222223,356.8L-285.55555555555554,358.40000000000003L-258.8888888888889,358.8L-232.22222222222223,358.40000000000003L-205.55555555555554,362.40000000000003L-178.88888888888889,357.6L-152.22222222222223,358.40000000000003L-125.55555555555556,360L-98.88888888888889,357.6L-72.22222222222221,358.40000000000003L-45.55555555555556,359.6L-18.88888888888889,358.8L7.777777777777778,358.8L34.44444444444444,357.2L61.111111111111114,360L87.77777777777777,360L114.44444444444444,359.6L141.11111111111111,359.6L167.77777777777777,360L194.44444444444443,359.2L221.11111111111111,358.8L247.77777777777777,360L274.44444444444446,358.8L301.1111111111111,358.8L327.77777777777777,359.2L354.44444444444446,358.40000000000003L381.1111111111111,360L407.77777777777777,359.2" stroke="#f58518" stroke-width="2" opacity="0.2"></path></g></g><path class="foreground" aria-hidden="true" d="" display="none"></path></g><g transform="translate(0,0)"><path class="background" aria-hidden="true" d="M0,0h400v400h-400Z"></path><g><g class="mark-line role-mark concat_0_layer_0_marks" clip-path="url(#clip3)" role="graphics-object" aria-roledescription="line mark container"><path aria-label="Type: Confirmed; Date: Mar 01; Count: 1" role="graphics-symbol" aria-roledescription="line mark" d="M-2124.4444444444443,359.6L-2097.777777777778,360L-2071.1111111111113,359.2L-2044.4444444444443,358.40000000000003L-2017.7777777777778,360L-1991.111111111111,354.8L-1964.4444444444446,360L-1937.7777777777776,355.2L-1912.2222222222224,338L-1885.5555555555554,291.2L-1858.888888888889,288L-1832.2222222222222,290.8L-1805.5555555555557,285.59999999999997L-1778.8888888888887,349.6L-1752.2222222222222,345.2L-1725.5555555555557,340L-1698.8888888888887,334.8L-1672.2222222222222,328L-1645.5555555555557,322.40000000000003L-1618.888888888889,318.40000000000003L-1592.2222222222222,331.59999999999997L-1565.5555555555554,332.4L-1538.888888888889,338L-1512.2222222222222,303.6L-1485.5555555555557,306.8L-1458.888888888889,298.8L-1432.2222222222222,292.4L-1405.5555555555554,298L-1378.888888888889,282.4L-1352.2222222222222,287.2L-1325.5555555555557,246.8L-1298.888888888889,261.2L-1272.2222222222222,248.4L-1245.5555555555557,211.60000000000002L-1218.888888888889,232.00000000000003L-1192.2222222222222,243.2L-1165.5555555555554,235.20000000000005L-1138.888888888889,204L-1112.2222222222222,227.59999999999997L-1085.5555555555557,266.8L-1058.888888888889,286.4L-1032.2222222222222,289.2L-1005.5555555555555,288.8L-978.8888888888889,302.4L-952.2222222222222,282.8L-925.5555555555557,292L-898.8888888888889,280.79999999999995L-872.2222222222222,282.4L-845.5555555555555,292.4L-818.8888888888888,303.2L-792.2222222222223,307.6L-765.5555555555555,288L-738.8888888888889,273.20000000000005L-712.2222222222222,295.6L-685.5555555555555,305.2L-658.8888888888889,266L-632.2222222222222,308L-605.5555555555555,310.8L-578.8888888888889,298.8L-552.2222222222222,297.2L-525.5555555555555,300L-498.8888888888889,298.8L-472.22222222222223,321.6L-445.55555555555554,313.6L-418.8888888888889,301.2L-392.22222222222223,299.6L-365.55555555555554,313.2L-338.88888888888886,302L-312.22222222222223,306L-285.55555555555554,319.59999999999997L-258.8888888888889,316L-232.22222222222223,326.40000000000003L-205.55555555555554,328.8L-178.88888888888889,329.6L-152.22222222222223,341.59999999999997L-125.55555555555556,328.8L-98.88888888888889,333.2L-72.22222222222221,332.4L-45.55555555555556,343.6L-18.88888888888889,329.6L7.777777777777778,330.79999999999995L34.44444444444444,334L61.111111111111114,340.8L87.77777777777777,336.4L114.44444444444444,331.59999999999997L141.11111111111111,349.2L167.77777777777777,343.6L194.44444444444443,339.2L221.11111111111111,347.2L247.77777777777777,327.59999999999997L274.44444444444446,344L301.1111111111111,345.6L327.77777777777777,348L354.44444444444446,346L381.1111111111111,345.2L407.77777777777777,344" stroke="#4c78a8" stroke-width="2" opacity="0.2"></path></g></g><path class="foreground" aria-hidden="true" d="" display="none"></path></g></g><g class="mark-group role-scope concat_0_layer_1_pathgroup" role="graphics-object" aria-roledescription="group mark container"><g transform="translate(0,0)"><path class="background" aria-hidden="true" d="M0,0h400v400h-400Z"></path><g><g class="mark-line role-mark concat_0_layer_1_marks" clip-path="url(#clip4)" role="graphics-object" aria-roledescription="line mark container"><path aria-label="Type: Recovered; Date: Mar 01; Count: 0" role="graphics-symbol" aria-roledescription="line mark" d="M-1964.4444444444446,359.9428571428572L-1937.7777777777776,359.9428571428572L-1912.2222222222224,359.9428571428572L-1885.5555555555554,359.9428571428572L-1858.888888888889,359.9428571428572L-1832.2222222222222,359.9428571428572L-1805.5555555555557,360L-1778.8888888888887,360L-1752.2222222222222,360L-1725.5555555555557,360L-1698.8888888888887,360L-1672.2222222222222,360L-1645.5555555555557,360L-1618.888888888889,360L-1592.2222222222222,360L-1565.5555555555554,360L-1538.888888888889,360L-1512.2222222222222,360L-1485.5555555555557,360L-1458.888888888889,360L-1432.2222222222222,360L-1405.5555555555554,360L-1378.888888888889,360L-1352.2222222222222,360L-1325.5555555555557,360L-1298.888888888889,308.9714285714286L-1272.2222222222222,297.8285714285715L-1245.5555555555557,291.8857142857143L-1218.888888888889,286.74285714285713L-1192.2222222222222,284.22857142857146L-1165.5555555555554,281.3142857142857L-1138.888888888889,274.85714285714283L-1112.2222222222222,318.45714285714286L-1085.5555555555557,323.02857142857147L-1058.888888888889,326.8571428571429L-1032.2222222222222,321.6L-1005.5555555555555,314.5142857142857L-978.8888888888889,311.0285714285714L-952.2222222222222,301.4857142857143L-925.5555555555557,295.6L-898.8888888888889,286.45714285714286L-872.2222222222222,267.65714285714284L-845.5555555555555,251.88571428571427L-818.8888888888888,244.68571428571425L-792.2222222222223,241.3142857142857L-765.5555555555555,235.14285714285714L-738.8888888888889,226.34285714285713L-712.2222222222222,225.0857142857143L-685.5555555555555,237.8857142857143L-658.8888888888889,255.88571428571427L-632.2222222222222,264.9142857142857L-605.5555555555555,265.8857142857143L-578.8888888888889,278.8L-552.2222222222222,286.9142857142857L-525.5555555555555,293.6L-498.8888888888889,291.2571428571428L-472.22222222222223,290.2857142857143L-445.55555555555554,292.45714285714286L-418.8888888888889,295.48571428571427L-392.22222222222223,292.85714285714283L-365.55555555555554,295.6L-338.88888888888886,293.42857142857144L-312.22222222222223,291.54285714285714L-285.55555555555554,291.2L-258.8888888888889,289.71428571428567L-232.22222222222223,289.14285714285717L-205.55555555555554,286.62857142857143L-178.88888888888889,293.14285714285717L-152.22222222222223,297.4857142857143L-125.55555555555556,301.0285714285714L-98.88888888888889,302.0571428571428L-72.22222222222221,302.28571428571433L-45.55555555555556,304.4L-18.88888888888889,312.22857142857146L7.777777777777778,310.1142857142857L34.44444444444444,312.1142857142857L61.111111111111114,314L87.77777777777777,318.34285714285716L114.44444444444444,321.54285714285714L141.11111111111111,322.1142857142857L167.77777777777777,324.1142857142857L194.44444444444443,327.4285714285714L221.11111111111111,329.3142857142857L247.77777777777777,332.8L274.44444444444446,331.9428571428571L301.1111111111111,333.59999999999997L327.77777777777777,334.4L354.44444444444446,334.57142857142856L381.1111111111111,334.51428571428573L407.77777777777777,334.8571428571429" stroke="#e45756" stroke-width="2" opacity="1"></path></g></g><path class="foreground" aria-hidden="true" d="" display="none"></path></g><g transform="translate(0,0)"><path class="background" aria-hidden="true" d="M0,0h400v400h-400Z"></path><g><g class="mark-line role-mark concat_0_layer_1_marks" clip-path="url(#clip5)" role="graphics-object" aria-roledescription="line mark container"><path aria-label="Type: Deaths; Date: Mar 01; Count: 0" role="graphics-symbol" aria-roledescription="line mark" d="M-1964.4444444444446,360L-1937.7777777777776,360L-1912.2222222222224,360L-1885.5555555555554,360L-1858.888888888889,360L-1832.2222222222222,360L-1805.5555555555557,360L-1778.8888888888887,359.9428571428572L-1752.2222222222222,359.8857142857143L-1725.5555555555557,359.8285714285714L-1698.8888888888887,359.7714285714286L-1672.2222222222222,359.7714285714286L-1645.5555555555557,359.65714285714284L-1618.888888888889,359.48571428571427L-1592.2222222222222,359.31428571428575L-1565.5555555555554,359.37142857142857L-1538.888888888889,358.8L-1512.2222222222222,358.40000000000003L-1485.5555555555557,358.2857142857143L-1458.888888888889,358L-1432.2222222222222,357.54285714285714L-1405.5555555555554,357.0285714285714L-1378.888888888889,356.62857142857143L-1352.2222222222222,356.9714285714286L-1325.5555555555557,356.68571428571425L-1298.888888888889,356L-1272.2222222222222,355.31428571428575L-1245.5555555555557,355.0285714285714L-1218.888888888889,354.51428571428573L-1192.2222222222222,353.88571428571424L-1165.5555555555554,353.7142857142857L-1138.888888888889,353.54285714285714L-1112.2222222222222,353.48571428571427L-1085.5555555555557,353.48571428571427L-1058.888888888889,353.8285714285714L-1032.2222222222222,354.34285714285716L-1005.5555555555555,354.62857142857143L-978.8888888888889,354.4L-952.2222222222222,354.51428571428573L-925.5555555555557,354.8L-898.8888888888889,355.2L-872.2222222222222,354.9142857142857L-845.5555555555555,355.0857142857143L-818.8888888888888,355.31428571428575L-792.2222222222223,355.48571428571427L-765.5555555555555,355.9428571428572L-738.8888888888889,355.71428571428567L-712.2222222222222,355.8285714285714L-685.5555555555555,356.1714285714286L-658.8888888888889,355.88571428571424L-632.2222222222222,356.1714285714286L-605.5555555555555,356.4L-578.8888888888889,356.34285714285716L-552.2222222222222,356.62857142857143L-525.5555555555555,356.68571428571425L-498.8888888888889,356.74285714285713L-472.22222222222223,356.74285714285713L-445.55555555555554,356.45714285714286L-418.8888888888889,356.2285714285714L-392.22222222222223,356.0571428571428L-365.55555555555554,356.4L-338.88888888888886,356.45714285714286L-312.22222222222223,356.45714285714286L-285.55555555555554,357.0857142857143L-258.8888888888889,357.42857142857144L-232.22222222222223,357.7142857142857L-205.55555555555554,358.62857142857143L-178.88888888888889,358.45714285714286L-152.22222222222223,358.68571428571425L-125.55555555555556,359.14285714285717L-98.88888888888889,359.0285714285714L-72.22222222222221,358.9714285714286L-45.55555555555556,359.14285714285717L-18.88888888888889,358.62857142857143L7.777777777777778,358.8L34.44444444444444,358.62857142857143L61.111111111111114,358.62857142857143L87.77777777777777,358.9714285714286L114.44444444444444,359.14285714285717L141.11111111111111,359.14285714285717L167.77777777777777,359.31428571428575L194.44444444444443,359.37142857142857L221.11111111111111,359.6L247.77777777777777,359.6L274.44444444444446,359.42857142857144L301.1111111111111,359.31428571428575L327.77777777777777,359.25714285714287L354.44444444444446,359.0285714285714L381.1111111111111,359.14285714285717L407.77777777777777,359.2" stroke="#f58518" stroke-width="2" opacity="1"></path></g></g><path class="foreground" aria-hidden="true" d="" display="none"></path></g><g transform="translate(0,0)"><path class="background" aria-hidden="true" d="M0,0h400v400h-400Z"></path><g><g class="mark-line role-mark concat_0_layer_1_marks" clip-path="url(#clip6)" role="graphics-object" aria-roledescription="line mark container"><path aria-label="Type: Confirmed; Date: Mar 01; Count: 0" role="graphics-symbol" aria-roledescription="line mark" d="M-1964.4444444444446,358.85714285714283L-1937.7777777777776,358.22857142857146L-1912.2222222222224,355.0857142857143L-1885.5555555555554,345.37142857142857L-1858.888888888889,335.31428571428575L-1832.2222222222222,325.42857142857144L-1805.5555555555557,315.54285714285714L-1778.8888888888887,314.0571428571429L-1752.2222222222222,312.62857142857143L-1725.5555555555557,312.9142857142857L-1698.8888888888887,319.1428571428571L-1672.2222222222222,324.8571428571429L-1645.5555555555557,329.37142857142857L-1618.888888888889,334.0571428571429L-1592.2222222222222,331.48571428571427L-1565.5555555555554,329.65714285714284L-1538.888888888889,329.37142857142857L-1512.2222222222222,324.9142857142857L-1485.5555555555557,321.8857142857143L-1458.888888888889,318.51428571428573L-1432.2222222222222,314.8L-1405.5555555555554,310L-1378.888888888889,302.85714285714283L-1352.2222222222222,295.6L-1325.5555555555557,287.4857142857143L-1298.888888888889,280.97142857142853L-1272.2222222222222,273.77142857142854L-1245.5555555555557,262.22857142857146L-1218.888888888889,252.8L-1192.2222222222222,247.2L-1165.5555555555554,239.77142857142857L-1138.888888888889,233.65714285714287L-1112.2222222222222,228.85714285714286L-1085.5555555555557,231.4857142857143L-1058.888888888889,242.17142857142858L-1032.2222222222222,250.34285714285716L-1005.5555555555555,256.85714285714283L-978.8888888888889,266.45714285714286L-952.2222222222222,277.7142857142857L-925.5555555555557,286.9142857142857L-898.8888888888889,288.91428571428565L-872.2222222222222,288.34285714285716L-845.5555555555555,288.8L-818.8888888888888,290.85714285714283L-792.2222222222223,291.59999999999997L-765.5555555555555,292.34285714285716L-738.8888888888889,289.65714285714284L-712.2222222222222,291.77142857142854L-685.5555555555555,295.0285714285714L-658.8888888888889,291.2571428571428L-632.2222222222222,291.9428571428571L-605.5555555555555,292.4L-578.8888888888889,293.9428571428572L-552.2222222222222,297.37142857142857L-525.5555555555555,298L-498.8888888888889,297.0857142857143L-472.22222222222223,305.0285714285714L-445.55555555555554,305.8285714285714L-418.8888888888889,304.45714285714286L-392.22222222222223,304.57142857142856L-365.55555555555554,306.85714285714283L-338.88888888888886,307.1428571428571L-312.22222222222223,308.1714285714286L-285.55555555555554,307.8857142857143L-258.8888888888889,308.22857142857146L-232.22222222222223,311.8285714285714L-205.55555555555554,316L-178.88888888888889,318.34285714285716L-152.22222222222223,324L-125.55555555555556,327.25714285714287L-98.88888888888889,329.2L-72.22222222222221,331.54285714285714L-45.55555555555556,334L-18.88888888888889,334.1142857142857L7.777777777777778,334.2857142857143L34.44444444444444,333.2L61.111111111111114,334.9142857142857L87.77777777777777,335.37142857142857L114.44444444444444,335.2571428571428L141.11111111111111,336.0571428571428L167.77777777777777,338.0571428571429L194.44444444444443,339.2571428571428L221.11111111111111,341.14285714285717L247.77777777777777,339.2571428571428L274.44444444444446,340.34285714285716L301.1111111111111,342.34285714285716L327.77777777777777,342.1714285714286L354.44444444444446,342.51428571428573L381.1111111111111,343.37142857142857L407.77777777777777,342.9142857142857" stroke="#4c78a8" stroke-width="2" opacity="1"></path></g></g><path class="foreground" aria-hidden="true" d="" display="none"></path></g></g><g class="mark-group role-title"><g transform="translate(200,-54)"><path class="background" aria-hidden="true" d="M0,0h0v0h0Z" pointer-events="none"></path><g><g class="mark-text role-title-text" role="graphics-symbol" aria-roledescription="title" aria-label="Title text '7-day average (light color: daily values) [2020-06-04]'" pointer-events="none"><text text-anchor="middle" transform="translate(0,10)" font-family="Roboto Condensed" font-size="13px" font-weight="normal" fill="#000" opacity="1"><tspan>7-day average (light color: daily values)</tspan><tspan x="0" dy="15">[2020-06-04]</tspan></text></g></g><path class="foreground" aria-hidden="true" d="" pointer-events="none" display="none"></path></g></g></g><path class="foreground" aria-hidden="true" d="" display="none"></path></g></g><g class="mark-group role-scope concat_1_group" role="graphics-object" aria-roledescription="group mark container"><g transform="translate(465,0)"><path class="background" aria-hidden="true" d="M0,0h400v400h-400Z" stroke="#ddd" stroke-width="0"></path><g><g class="mark-group role-axis" aria-hidden="true"><g transform="translate(0.5,0.5)"><path class="background" aria-hidden="true" d="M0,0h0v0h0Z" pointer-events="none"></path><g><g class="mark-rule role-axis-grid" pointer-events="none"><line transform="translate(0,400)" x2="400" y2="0" stroke="#ddd" stroke-width="1" opacity="1"></line><line transform="translate(0,367)" x2="400" y2="0" stroke="#ddd" stroke-width="1" opacity="1"></line><line transform="translate(0,333)" x2="400" y2="0" stroke="#ddd" stroke-width="1" opacity="1"></line><line transform="translate(0,300)" x2="400" y2="0" stroke="#ddd" stroke-width="1" opacity="1"></line><line transform="translate(0,267)" x2="400" y2="0" stroke="#ddd" stroke-width="1" opacity="1"></line><line transform="translate(0,233)" x2="400" y2="0" stroke="#ddd" stroke-width="1" opacity="1"></line><line transform="translate(0,200)" x2="400" y2="0" stroke="#ddd" stroke-width="1" opacity="1"></line><line transform="translate(0,167)" x2="400" y2="0" stroke="#ddd" stroke-width="1" opacity="1"></line><line transform="translate(0,133)" x2="400" y2="0" stroke="#ddd" stroke-width="1" opacity="1"></line><line transform="translate(0,100)" x2="400" y2="0" stroke="#ddd" stroke-width="1" opacity="1"></line><line transform="translate(0,67)" x2="400" y2="0" stroke="#ddd" stroke-width="1" opacity="1"></line><line transform="translate(0,33)" x2="400" y2="0" stroke="#ddd" stroke-width="1" opacity="1"></line><line transform="translate(0,0)" x2="400" y2="0" stroke="#ddd" stroke-width="1" opacity="1"></line></g></g><path class="foreground" aria-hidden="true" d="" pointer-events="none" display="none"></path></g></g><g class="mark-group role-axis" role="graphics-symbol" aria-roledescription="axis" aria-label="X-axis titled 'Date' for a time scale with values from May 19 to June 03"><g transform="translate(0.5,400.5)"><path class="background" aria-hidden="true" d="M0,0h0v0h0Z" pointer-events="none"></path><g><g class="mark-text role-axis-label" pointer-events="none"><text text-anchor="middle" transform="translate(34.44444444444444,10)" font-family="Roboto Condensed" font-size="10px" fill="#000" opacity="1">May 21</text><text text-anchor="middle" transform="translate(87.77777777777777,10)" font-family="Roboto Condensed" font-size="10px" fill="#000" opacity="0">May 23</text><text text-anchor="middle" transform="translate(141.11111111111111,10)" font-family="Roboto Condensed" font-size="10px" fill="#000" opacity="1">May 25</text><text text-anchor="middle" transform="translate(194.44444444444443,10)" font-family="Roboto Condensed" font-size="10px" fill="#000" opacity="0">May 27</text><text text-anchor="middle" transform="translate(247.77777777777777,10)" font-family="Roboto Condensed" font-size="10px" fill="#000" opacity="1">May 29</text><text text-anchor="middle" transform="translate(301.1111111111111,10)" font-family="Roboto Condensed" font-size="10px" fill="#000" opacity="0">May 31</text><text text-anchor="middle" transform="translate(327.77777777777777,10)" font-family="Roboto Condensed" font-size="10px" fill="#000" opacity="1">Jun 01</text><text text-anchor="middle" transform="translate(381.1111111111111,10)" font-family="Roboto Condensed" font-size="10px" fill="#000" opacity="0">Jun 03</text></g><g class="mark-rule role-axis-domain" pointer-events="none"><line transform="translate(0,0)" x2="400" y2="0" stroke="lightgray" stroke-width="1" opacity="1"></line></g><g class="mark-text role-axis-title" pointer-events="none"><text text-anchor="middle" transform="translate(200,25)" font-family="Roboto Condensed" font-size="11px" font-weight="normal" fill="#000" opacity="1">Date</text></g></g><path class="foreground" aria-hidden="true" d="" pointer-events="none" display="none"></path></g></g><g class="mark-group role-axis" role="graphics-symbol" aria-roledescription="axis" aria-label="Y-axis titled 'Count' for a linear scale with values from 0 to 12,000"><g transform="translate(0.5,0.5)"><path class="background" aria-hidden="true" d="M0,0h0v0h0Z" pointer-events="none"></path><g><g class="mark-text role-axis-label" pointer-events="none"><text text-anchor="end" transform="translate(-2,403)" font-family="Roboto Condensed" font-size="10px" fill="#000" opacity="1">0</text><text text-anchor="end" transform="translate(-2,369.66666666666663)" font-family="Roboto Condensed" font-size="10px" fill="#000" opacity="1">1,000</text><text text-anchor="end" transform="translate(-2,336.33333333333337)" font-family="Roboto Condensed" font-size="10px" fill="#000" opacity="1">2,000</text><text text-anchor="end" transform="translate(-2,303)" font-family="Roboto Condensed" font-size="10px" fill="#000" opacity="1">3,000</text><text text-anchor="end" transform="translate(-2,269.6666666666667)" font-family="Roboto Condensed" font-size="10px" fill="#000" opacity="1">4,000</text><text text-anchor="end" transform="translate(-2,236.33333333333331)" font-family="Roboto Condensed" font-size="10px" fill="#000" opacity="1">5,000</text><text text-anchor="end" transform="translate(-2,203)" font-family="Roboto Condensed" font-size="10px" fill="#000" opacity="1">6,000</text><text text-anchor="end" transform="translate(-2,169.66666666666666)" font-family="Roboto Condensed" font-size="10px" fill="#000" opacity="1">7,000</text><text text-anchor="end" transform="translate(-2,136.33333333333334)" font-family="Roboto Condensed" font-size="10px" fill="#000" opacity="1">8,000</text><text text-anchor="end" transform="translate(-2,103)" font-family="Roboto Condensed" font-size="10px" fill="#000" opacity="1">9,000</text><text text-anchor="end" transform="translate(-2,69.66666666666666)" font-family="Roboto Condensed" font-size="10px" fill="#000" opacity="1">10,000</text><text text-anchor="end" transform="translate(-2,36.33333333333335)" font-family="Roboto Condensed" font-size="10px" fill="#000" opacity="1">11,000</text><text text-anchor="end" transform="translate(-2,3)" font-family="Roboto Condensed" font-size="10px" fill="#000" opacity="1">12,000</text></g><g class="mark-rule role-axis-domain" pointer-events="none"><line transform="translate(0,400)" x2="0" y2="-400" stroke="lightgray" stroke-width="1" opacity="1"></line></g><g class="mark-text role-axis-title" pointer-events="none"><text text-anchor="start" transform="translate(-45,-13)" font-family="Roboto Condensed" font-size="11px" font-weight="normal" fill="#000" opacity="1">Count</text></g></g><path class="foreground" aria-hidden="true" d="" pointer-events="none" display="none"></path></g></g><g class="mark-group role-scope concat_1_pathgroup" role="graphics-object" aria-roledescription="group mark container"><g transform="translate(0,0)"><path class="background" aria-hidden="true" d="M0,0h400v400h-400Z"></path><g><g class="mark-line role-mark concat_1_marks" clip-path="url(#clip7)" role="graphics-object" aria-roledescription="line mark container"><path aria-label="Type: Recovered; Date: Mar 01; Country: Denmark; Confirmed: 4; Recovered: 0; Deaths: 0; Count: 0" role="graphics-symbol" aria-roledescription="line mark" d="M-2124.4444444444443,400L-2097.777777777778,400L-2071.1111111111113,400L-2044.4444444444443,400L-2017.7777777777778,400L-1991.111111111111,399.9666666666667L-1964.4444444444446,399.9666666666667L-1937.7777777777776,399.9666666666667L-1912.2222222222224,399.9666666666667L-1885.5555555555554,399.9666666666667L-1858.888888888889,399.9666666666667L-1832.2222222222222,399.9666666666667L-1805.5555555555557,399.9666666666667L-1778.8888888888887,399.9666666666667L-1752.2222222222222,399.9666666666667L-1725.5555555555557,399.9666666666667L-1698.8888888888887,399.9666666666667L-1672.2222222222222,399.9666666666667L-1645.5555555555557,399.9666666666667L-1618.888888888889,399.9666666666667L-1592.2222222222222,399.9666666666667L-1565.5555555555554,399.9666666666667L-1538.888888888889,399.9666666666667L-1512.2222222222222,399.9666666666667L-1485.5555555555557,399.9666666666667L-1458.888888888889,399.9666666666667L-1432.2222222222222,399.9666666666667L-1405.5555555555554,399.9666666666667L-1378.888888888889,399.9666666666667L-1352.2222222222222,399.9666666666667L-1325.5555555555557,399.9666666666667L-1298.888888888889,370.2L-1272.2222222222222,363.7L-1245.5555555555557,360.2333333333333L-1218.888888888889,357.23333333333335L-1192.2222222222222,355.76666666666665L-1165.5555555555554,354.06666666666666L-1138.888888888889,350.3L-1112.2222222222222,345.96666666666664L-1085.5555555555557,342.1333333333333L-1058.888888888889,340.9L-1032.2222222222222,334.83333333333337L-1005.5555555555555,329.23333333333335L-978.8888888888889,325.5L-952.2222222222222,316.1666666666667L-925.5555555555557,308.40000000000003L-898.8888888888889,299.23333333333335L-872.2222222222222,287.03333333333336L-845.5555555555555,271.76666666666665L-818.8888888888888,261.96666666666664L-792.2222222222223,256.2666666666667L-765.5555555555555,243.33333333333337L-738.8888888888889,230.4333333333333L-712.2222222222222,220.53333333333333L-685.5555555555555,215.79999999999998L-658.8888888888889,211.0333333333333L-632.2222222222222,206.5L-605.5555555555555,201.36666666666665L-578.8888888888889,195.96666666666667L-552.2222222222222,187.8L-525.5555555555555,181.8L-498.8888888888889,175.70000000000002L-472.22222222222223,170.36666666666667L-445.55555555555554,167.1L-418.8888888888889,163.73333333333332L-392.22222222222223,156.8L-365.55555555555554,150.23333333333335L-338.88888888888886,142.9666666666667L-312.22222222222223,135.76666666666668L-285.55555555555554,130.23333333333335L-258.8888888888889,126.10000000000001L-232.22222222222223,122.40000000000002L-205.55555555555554,114.00000000000001L-178.88888888888889,111.23333333333333L-152.22222222222223,106.5L-125.55555555555556,101.36666666666665L-98.88888888888889,96.43333333333332L-72.22222222222221,92.43333333333332L-45.55555555555556,89.96666666666667L-18.88888888888889,86.13333333333335L7.777777777777778,82.13333333333335L34.44444444444444,78.56666666666668L61.111111111111114,74.53333333333335L87.77777777777777,72.13333333333334L114.44444444444444,70.00000000000001L141.11111111111111,67.86666666666665L167.77777777777777,65.20000000000002L194.44444444444443,63.133333333333354L221.11111111111111,60.66666666666664L247.77777777777777,58.66666666666664L274.44444444444446,55.76666666666665L301.1111111111111,54.59999999999998L327.77777777777777,52.93333333333332L354.44444444444446,50.366666666666674L381.1111111111111,48.26666666666668L407.77777777777777,46" stroke="#e45756" stroke-width="2" opacity="0.7"></path></g></g><path class="foreground" aria-hidden="true" d="" display="none"></path></g><g transform="translate(0,0)"><path class="background" aria-hidden="true" d="M0,0h400v400h-400Z"></path><g><g class="mark-line role-mark concat_1_marks" clip-path="url(#clip8)" role="graphics-object" aria-roledescription="line mark container"><path aria-label="Type: Deaths; Date: Mar 01; Country: Denmark; Confirmed: 4; Recovered: 0; Deaths: 0; Count: 0" role="graphics-symbol" aria-roledescription="line mark" d="M-2124.4444444444443,400L-2097.777777777778,400L-2071.1111111111113,400L-2044.4444444444443,400L-2017.7777777777778,400L-1991.111111111111,400L-1964.4444444444446,400L-1937.7777777777776,400L-1912.2222222222224,400L-1885.5555555555554,400L-1858.888888888889,400L-1832.2222222222222,400L-1805.5555555555557,400L-1778.8888888888887,399.9666666666667L-1752.2222222222222,399.93333333333334L-1725.5555555555557,399.90000000000003L-1698.8888888888887,399.8666666666667L-1672.2222222222222,399.8666666666667L-1645.5555555555557,399.8L-1618.888888888889,399.7L-1592.2222222222222,399.56666666666666L-1565.5555555555554,399.56666666666666L-1538.888888888889,399.2L-1512.2222222222222,398.93333333333334L-1485.5555555555557,398.8666666666667L-1458.888888888889,398.6333333333333L-1432.2222222222222,398.26666666666665L-1405.5555555555554,397.83333333333337L-1378.888888888889,397.6L-1352.2222222222222,397.43333333333334L-1325.5555555555557,397L-1298.888888888889,396.5333333333333L-1272.2222222222222,395.90000000000003L-1245.5555555555557,395.3666666666667L-1218.888888888889,394.6333333333333L-1192.2222222222222,394.0333333333333L-1165.5555555555554,393.7666666666667L-1138.888888888889,393.23333333333335L-1112.2222222222222,392.73333333333335L-1085.5555555555557,392.09999999999997L-1058.888888888889,391.7666666666667L-1032.2222222222222,391.3333333333333L-1005.5555555555555,390.9L-978.8888888888889,390.5L-952.2222222222222,390.0333333333333L-925.5555555555557,389.7L-898.8888888888889,389.29999999999995L-872.2222222222222,388.8L-845.5555555555555,388.46666666666664L-818.8888888888888,388.1666666666667L-792.2222222222223,387.8666666666667L-765.5555555555555,387.66666666666663L-738.8888888888889,387.2L-712.2222222222222,386.8666666666667L-685.5555555555555,386.56666666666666L-658.8888888888889,386.06666666666666L-632.2222222222222,385.93333333333334L-605.5555555555555,385.76666666666665L-578.8888888888889,385.5333333333333L-552.2222222222222,385.2333333333333L-525.5555555555555,384.93333333333334L-498.8888888888889,384.6666666666667L-472.22222222222223,384.1666666666667L-445.55555555555554,383.8666666666667L-418.8888888888889,383.56666666666666L-392.22222222222223,383.2333333333333L-365.55555555555554,383.1333333333333L-338.88888888888886,382.8666666666667L-312.22222222222223,382.6L-285.55555555555554,382.46666666666664L-258.8888888888889,382.3666666666667L-232.22222222222223,382.23333333333335L-205.55555555555554,382.43333333333334L-178.88888888888889,382.23333333333335L-152.22222222222223,382.1L-125.55555555555556,382.1L-98.88888888888889,381.9L-72.22222222222221,381.76666666666665L-45.55555555555556,381.73333333333335L-18.88888888888889,381.6333333333333L7.777777777777778,381.5333333333333L34.44444444444444,381.3L61.111111111111114,381.3L87.77777777777777,381.3L114.44444444444444,381.2666666666667L141.11111111111111,381.2333333333333L167.77777777777777,381.2333333333333L194.44444444444443,381.16666666666663L221.11111111111111,381.06666666666666L247.77777777777777,381.06666666666666L274.44444444444446,380.9666666666667L301.1111111111111,380.8666666666667L327.77777777777777,380.79999999999995L354.44444444444446,380.6666666666667L381.1111111111111,380.6666666666667L407.77777777777777,380.6" stroke="#f58518" stroke-width="2" opacity="0.7"></path></g></g><path class="foreground" aria-hidden="true" d="" display="none"></path></g><g transform="translate(0,0)"><path class="background" aria-hidden="true" d="M0,0h400v400h-400Z"></path><g><g class="mark-line role-mark concat_1_marks" clip-path="url(#clip9)" role="graphics-object" aria-roledescription="line mark container"><path aria-label="Type: Confirmed; Date: Mar 01; Country: Denmark; Confirmed: 4; Recovered: 0; Deaths: 0; Count: 4" role="graphics-symbol" aria-roledescription="line mark" d="M-2124.4444444444443,399.8666666666667L-2097.777777777778,399.8666666666667L-2071.1111111111113,399.8L-2044.4444444444443,399.6666666666667L-2017.7777777777778,399.6666666666667L-1991.111111111111,399.23333333333335L-1964.4444444444446,399.23333333333335L-1937.7777777777776,398.8333333333333L-1912.2222222222224,397L-1885.5555555555554,391.26666666666665L-1858.888888888889,385.26666666666665L-1832.2222222222222,379.5L-1805.5555555555557,373.3L-1778.8888888888887,372.43333333333334L-1752.2222222222222,371.20000000000005L-1725.5555555555557,369.5333333333333L-1698.8888888888887,367.43333333333334L-1672.2222222222222,364.7666666666667L-1645.5555555555557,361.6333333333333L-1618.888888888889,358.16666666666663L-1592.2222222222222,355.79999999999995L-1565.5555555555554,353.5L-1538.888888888889,351.6666666666667L-1512.2222222222222,346.9666666666667L-1485.5555555555557,342.53333333333336L-1458.888888888889,337.43333333333334L-1432.2222222222222,331.8L-1405.5555555555554,326.6333333333333L-1378.888888888889,320.1666666666667L-1352.2222222222222,314.1L-1325.5555555555557,304.6666666666667L-1298.888888888889,296.43333333333334L-1272.2222222222222,287.1333333333333L-1245.5555555555557,274.76666666666665L-1218.888888888889,264.1L-1192.2222222222222,254.36666666666667L-1165.5555555555554,243.96666666666667L-1138.888888888889,230.96666666666667L-1112.2222222222222,219.93333333333337L-1085.5555555555557,212.16666666666666L-1058.888888888889,206.03333333333333L-1032.2222222222222,200.13333333333333L-1005.5555555555555,194.20000000000002L-978.8888888888889,189.4L-952.2222222222222,182.96666666666667L-925.5555555555557,177.3L-898.8888888888889,170.7L-872.2222222222222,164.23333333333332L-845.5555555555555,158.6L-818.8888888888888,153.86666666666667L-792.2222222222223,149.5L-765.5555555555555,143.5L-738.8888888888889,136.26666666666668L-712.2222222222222,130.9L-685.5555555555555,126.33333333333331L-658.8888888888889,118.5L-632.2222222222222,114.16666666666666L-605.5555555555555,110.06666666666666L-578.8888888888889,104.96666666666665L-552.2222222222222,99.73333333333332L-525.5555555555555,94.73333333333333L-498.8888888888889,89.63333333333333L-472.22222222222223,86.43333333333332L-445.55555555555554,82.56666666666668L-418.8888888888889,77.66666666666669L-392.22222222222223,72.63333333333333L-365.55555555555554,68.73333333333332L-338.88888888888886,63.89999999999998L-312.22222222222223,59.399999999999984L-285.55555555555554,56.03333333333333L-258.8888888888889,52.366666666666674L-232.22222222222223,49.56666666666667L-205.55555555555554,46.96666666666665L-178.88888888888889,44.43333333333332L-152.22222222222223,42.899999999999984L-125.55555555555556,40.300000000000004L-98.88888888888889,38.06666666666665L-72.22222222222221,35.76666666666668L-45.55555555555556,34.399999999999984L-18.88888888888889,31.866666666666667L7.777777777777778,29.433333333333334L34.44444444444444,27.266666666666683L61.111111111111114,25.666666666666682L87.77777777777777,23.70000000000001L114.44444444444444,21.333333333333336L141.11111111111111,20.433333333333348L167.77777777777777,19.066666666666656L194.44444444444443,17.333333333333336L221.11111111111111,16.26666666666665L247.77777777777777,13.566666666666682L274.44444444444446,12.233333333333318L301.1111111111111,11.033333333333317L327.77777777777777,10.033333333333339L354.44444444444446,8.866666666666667L381.1111111111111,7.633333333333336L407.77777777777777,6.300000000000017" stroke="#4c78a8" stroke-width="2" opacity="0.7"></path></g></g><path class="foreground" aria-hidden="true" d="" display="none"></path></g></g><g class="mark-group role-title"><g transform="translate(200,-54)"><path class="background" aria-hidden="true" d="M0,0h0v0h0Z" pointer-events="none"></path><g><g class="mark-text role-title-text" role="graphics-symbol" aria-roledescription="title" aria-label="Title text 'Total [2020-06-04]'" pointer-events="none"><text text-anchor="middle" transform="translate(0,10)" font-family="Roboto Condensed" font-size="13px" font-weight="normal" fill="#000" opacity="1"><tspan>Total</tspan><tspan x="0" dy="15">[2020-06-04]</tspan></text></g></g><path class="foreground" aria-hidden="true" d="" pointer-events="none" display="none"></path></g></g></g><path class="foreground" aria-hidden="true" d="" display="none"></path></g></g><g class="mark-group role-legend" role="graphics-symbol" aria-roledescription="legend" aria-label="Symbol legend for stroke color with 3 values: Confirmed, Deaths, Recovered"><g transform="translate(883,0)"><path class="background" aria-hidden="true" d="M0,0h58v37h-58Z" pointer-events="none"></path><g><g class="mark-group role-legend-entry"><g transform="translate(0,0)"><path class="background" aria-hidden="true" d="M0,0h0v0h0Z" pointer-events="none"></path><g><g class="mark-group role-scope" role="graphics-object" aria-roledescription="group mark container"><g transform="translate(0,0)"><path class="background" aria-hidden="true" d="M0,0h58v11h-58Z" pointer-events="none" opacity="1"></path><g><g class="mark-symbol role-legend-symbol" pointer-events="none"><path transform="translate(6,6)" d="M-5,0L5,0" stroke="#4c78a8" stroke-width="1.5" opacity="0.2"></path></g><g class="mark-text role-legend-label" pointer-events="none"><text text-anchor="start" transform="translate(16,9)" font-family="Roboto Condensed" font-size="10px" fill="#000" opacity="1">Confirmed</text></g></g><path class="foreground" aria-hidden="true" d="" pointer-events="none" display="none"></path></g><g transform="translate(0,13)"><path class="background" aria-hidden="true" d="M0,0h58v11h-58Z" pointer-events="none" opacity="1"></path><g><g class="mark-symbol role-legend-symbol" pointer-events="none"><path transform="translate(6,6)" d="M-5,0L5,0" stroke="#f58518" stroke-width="1.5" opacity="0.2"></path></g><g class="mark-text role-legend-label" pointer-events="none"><text text-anchor="start" transform="translate(16,9)" font-family="Roboto Condensed" font-size="10px" fill="#000" opacity="1">Deaths</text></g></g><path class="foreground" aria-hidden="true" d="" pointer-events="none" display="none"></path></g><g transform="translate(0,26)"><path class="background" aria-hidden="true" d="M0,0h58v11h-58Z" pointer-events="none" opacity="1"></path><g><g class="mark-symbol role-legend-symbol" pointer-events="none"><path transform="translate(6,6)" d="M-5,0L5,0" stroke="#e45756" stroke-width="1.5" opacity="0.2"></path></g><g class="mark-text role-legend-label" pointer-events="none"><text text-anchor="start" transform="translate(16,9)" font-family="Roboto Condensed" font-size="10px" fill="#000" opacity="1">Recovered</text></g></g><path class="foreground" aria-hidden="true" d="" pointer-events="none" display="none"></path></g></g></g><path class="foreground" aria-hidden="true" d="" pointer-events="none" display="none"></path></g></g></g><path class="foreground" aria-hidden="true" d="" pointer-events="none" display="none"></path></g></g></g><path class="foreground" aria-hidden="true" d="" display="none"></path></g></g></g></svg>