<svg class="marks" width="996" height="491" viewBox="0 0 996 491" version="1.1" xmlns="http://www.w3.org/2000/svg" xmlns:xlink="http://www.w3.org/1999/xlink"><defs><clipPath id="clip1"><rect x="0" y="0" width="400" height="400"></rect></clipPath><clipPath id="clip2"><rect x="0" y="0" width="400" height="400"></rect></clipPath><clipPath id="clip3"><rect x="0" y="0" width="400" height="400"></rect></clipPath><clipPath id="clip4"><rect x="0" y="0" width="400" height="400"></rect></clipPath><clipPath id="clip5"><rect x="0" y="0" width="400" height="400"></rect></clipPath><clipPath id="clip6"><rect x="0" y="0" width="400" height="400"></rect></clipPath><clipPath id="clip7"><rect x="0" y="0" width="400" height="400"></rect></clipPath><clipPath id="clip8"><rect x="0" y="0" width="400" height="400"></rect></clipPath><clipPath id="clip9"><rect x="0" y="0" width="400" height="400"></rect></clipPath></defs><rect width="996" height="491" fill="white"></rect><g fill="none" stroke-miterlimit="10" transform="translate(50,59)"><g class="mark-group role-frame root" role="graphics-object" aria-roledescription="group mark container"><g transform="translate(0,0)"><path class="background" aria-hidden="true" d="M0,0h0v400h0Z"></path><g><g class="mark-group role-scope concat_0_group" role="graphics-object" aria-roledescription="group mark container"><g transform="translate(0,0)"><path class="background" aria-hidden="true" d="M0,0h400v400h-400Z" stroke="#ddd" stroke-width="0"></path><g><g class="mark-group role-axis" aria-hidden="true"><g transform="translate(0.5,0.5)"><path class="background" aria-hidden="true" d="M0,0h0v0h0Z" pointer-events="none"></path><g><g class="mark-rule role-axis-grid" pointer-events="none"><line transform="translate(0,400)" x2="400" y2="0" stroke="#ddd" stroke-width="1" opacity="1"></line><line transform="translate(0,350)" x2="400" y2="0" stroke="#ddd" stroke-width="1" opacity="1"></line><line transform="translate(0,300)" x2="400" y2="0" stroke="#ddd" stroke-width="1" opacity="1"></line><line transform="translate(0,250)" x2="400" y2="0" stroke="#ddd" stroke-width="1" opacity="1"></line><line transform="translate(0,200)" x2="400" y2="0" stroke="#ddd" stroke-width="1" opacity="1"></line><line transform="translate(0,150)" x2="400" y2="0" stroke="#ddd" stroke-width="1" opacity="1"></line><line transform="translate(0,100)" x2="400" y2="0" stroke="#ddd" stroke-width="1" opacity="1"></line><line transform="translate(0,50)" x2="400" y2="0" stroke="#ddd" stroke-width="1" opacity="1"></line><line transform="translate(0,0)" x2="400" y2="0" stroke="#ddd" stroke-width="1" opacity="1"></line></g></g><path class="foreground" aria-hidden="true" d="" pointer-events="none" display="none"></path></g></g><g class="mark-group role-axis" role="graphics-symbol" aria-roledescription="axis" aria-label="X-axis titled 'Date' for a time scale with values from May 18 to June 02"><g transform="translate(0.5,400.5)"><path class="background" aria-hidden="true" d="M0,0h0v0h0Z" pointer-events="none"></path><g><g class="mark-text role-axis-label" pointer-events="none"><text text-anchor="middle" transform="translate(7.777777777777778,10)" font-family="Roboto Condensed" font-size="10px" fill="#000" opacity="1">May 19</text><text text-anchor="middle" transform="translate(61.111111111111114,10)" font-family="Roboto Condensed" font-size="10px" fill="#000" opacity="0">May 21</text><text text-anchor="middle" transform="translate(114.44444444444444,10)" font-family="Roboto Condensed" font-size="10px" fill="#000" opacity="1">May 23</text><text text-anchor="middle" transform="translate(167.77777777777777,10)" font-family="Roboto Condensed" font-size="10px" fill="#000" opacity="0">May 25</text><text text-anchor="middle" transform="translate(221.11111111111111,10)" font-family="Roboto Condensed" font-size="10px" fill="#000" opacity="1">May 27</text><text text-anchor="middle" transform="translate(274.44444444444446,10)" font-family="Roboto Condensed" font-size="10px" fill="#000" opacity="0">May 29</text><text text-anchor="middle" transform="translate(327.77777777777777,10)" font-family="Roboto Condensed" font-size="10px" fill="#000" opacity="1">May 31</text><text text-anchor="middle" transform="translate(354.44444444444446,10)" font-family="Roboto Condensed" font-size="10px" fill="#000" opacity="0">Jun 01</text></g><g class="mark-rule role-axis-domain" pointer-events="none"><line transform="translate(0,0)" x2="400" y2="0" stroke="lightgray" stroke-width="1" opacity="1"></line></g><g class="mark-text role-axis-title" pointer-events="none"><text text-anchor="middle" transform="translate(200,25)" font-family="Roboto Condensed" font-size="11px" font-weight="normal" fill="#000" opacity="1">Date</text></g></g><path class="foreground" aria-hidden="true" d="" pointer-events="none" display="none"></path></g></g><g class="mark-group role-axis" role="graphics-symbol" aria-roledescription="axis" aria-label="Y-axis titled 'Count' for a linear scale with values from 0 to 8,000"><g transform="translate(0.5,0.5)"><path class="background" aria-hidden="true" d="M0,0h0v0h0Z" pointer-events="none"></path><g><g class="mark-text role-axis-label" pointer-events="none"><text text-anchor="end" transform="translate(-2,403)" font-family="Roboto Condensed" font-size="10px" fill="#000" opacity="1">0</text><text text-anchor="end" transform="translate(-2,353)" font-family="Roboto Condensed" font-size="10px" fill="#000" opacity="1">1,000</text><text text-anchor="end" transform="translate(-2,303)" font-family="Roboto Condensed" font-size="10px" fill="#000" opacity="1">2,000</text><text text-anchor="end" transform="translate(-2,253)" font-family="Roboto Condensed" font-size="10px" fill="#000" opacity="1">3,000</text><text text-anchor="end" transform="translate(-2,203)" font-family="Roboto Condensed" font-size="10px" fill="#000" opacity="1">4,000</text><text text-anchor="end" transform="translate(-2,153)" font-family="Roboto Condensed" font-size="10px" fill="#000" opacity="1">5,000</text><text text-anchor="end" transform="translate(-2,103)" font-family="Roboto Condensed" font-size="10px" fill="#000" opacity="1">6,000</text><text text-anchor="end" transform="translate(-2,53)" font-family="Roboto Condensed" font-size="10px" fill="#000" opacity="1">7,000</text><text text-anchor="end" transform="translate(-2,3)" font-family="Roboto Condensed" font-size="10px" fill="#000" opacity="1">8,000</text></g><g class="mark-rule role-axis-domain" pointer-events="none"><line transform="translate(0,400)" x2="0" y2="-400" stroke="lightgray" stroke-width="1" opacity="1"></line></g><g class="mark-text role-axis-title" pointer-events="none"><text text-anchor="start" transform="translate(-45,-13)" font-family="Roboto Condensed" font-size="11px" font-weight="normal" fill="#000" opacity="1">Count</text></g></g><path class="foreground" aria-hidden="true" d="" pointer-events="none" display="none"></path></g></g><g class="mark-group role-scope concat_0_layer_0_pathgroup" role="graphics-object" aria-roledescription="group mark container"><g transform="translate(0,0)"><path class="background" aria-hidden="true" d="M0,0h400v400h-400Z"></path><g><g class="mark-line role-mark concat_0_layer_0_marks" clip-path="url(#clip1)" role="graphics-object" aria-roledescription="line mark container"><path aria-label="Type: Recovered; Date: Mar 01; Count: 0" role="graphics-symbol" aria-roledescription="line mark" d="M-2097.777777777778,400L-2071.1111111111113,400L-2044.4444444444443,400L-2017.7777777777778,400L-1991.111111111111,400L-1964.4444444444446,400L-1937.7777777777776,400L-1911.111111111111,400L-1885.5555555555554,399.95L-1858.888888888889,400L-1832.2222222222222,400L-1805.5555555555557,400L-1778.8888888888887,400L-1752.2222222222222,400L-1725.5555555555557,400L-1698.8888888888887,400L-1672.2222222222222,400L-1645.5555555555557,400L-1618.888888888889,400L-1592.2222222222222,400L-1565.5555555555554,400L-1538.888888888889,400L-1512.2222222222222,400L-1485.5555555555557,399.75L-1458.888888888889,400L-1432.2222222222222,400L-1405.5555555555554,400L-1378.888888888889,399.95L-1352.2222222222222,400L-1325.5555555555557,399.75L-1298.888888888889,399.95L-1272.2222222222222,400L-1245.5555555555557,399.05L-1218.888888888889,400L-1192.2222222222222,400L-1165.5555555555554,400L-1138.888888888889,400L-1112.2222222222222,400L-1085.5555555555557,400L-1058.888888888889,400L-1032.2222222222222,400L-1005.5555555555555,400L-978.8888888888889,400L-952.2222222222222,400L-925.5555555555557,400L-898.8888888888889,400L-872.2222222222222,400L-845.5555555555555,400L-818.8888888888888,400L-792.2222222222223,400L-765.5555555555555,400L-738.8888888888889,400L-712.2222222222222,400L-685.5555555555555,400L-658.8888888888889,400L-632.2222222222222,400L-605.5555555555555,400L-578.8888888888889,400L-552.2222222222222,400L-525.5555555555555,400L-498.8888888888889,400L-472.22222222222223,400L-445.55555555555554,400L-418.8888888888889,400L-392.22222222222223,400L-365.55555555555554,400L-338.88888888888886,400L-312.22222222222223,400L-285.55555555555554,400L-258.8888888888889,400L-232.22222222222223,400L-205.55555555555554,400L-178.88888888888889,400L-152.22222222222223,400L-125.55555555555556,400L-98.88888888888889,400L-72.22222222222221,400L-45.55555555555556,400L-18.88888888888889,400L7.777777777777778,400L34.44444444444444,400L61.111111111111114,400L87.77777777777777,15.249999999999986L114.44444444444444,400L141.11111111111111,400L167.77777777777777,400L194.44444444444443,400L221.11111111111111,400L247.77777777777777,400L274.44444444444446,400L301.1111111111111,400L327.77777777777777,400L354.44444444444446,400L381.1111111111111,400L407.77777777777777,400" stroke="#e45756" stroke-width="2" opacity="0.2"></path></g></g><path class="foreground" aria-hidden="true" d="" display="none"></path></g><g transform="translate(0,0)"><path class="background" aria-hidden="true" d="M0,0h400v400h-400Z"></path><g><g class="mark-line role-mark concat_0_layer_0_marks" clip-path="url(#clip2)" role="graphics-object" aria-roledescription="line mark container"><path aria-label="Type: Deaths; Date: Mar 01; Count: 0" role="graphics-symbol" aria-roledescription="line mark" d="M-2097.777777777778,400L-2071.1111111111113,400L-2044.4444444444443,400L-2017.7777777777778,400L-1991.111111111111,400L-1964.4444444444446,400L-1937.7777777777776,400L-1911.111111111111,400L-1885.5555555555554,400L-1858.888888888889,400L-1832.2222222222222,400L-1805.5555555555557,400L-1778.8888888888887,400L-1752.2222222222222,399.85L-1725.5555555555557,400L-1698.8888888888887,400L-1672.2222222222222,400L-1645.5555555555557,399.85L-1618.888888888889,399.95L-1592.2222222222222,400L-1565.5555555555554,400L-1538.888888888889,400L-1512.2222222222222,399.85L-1485.5555555555557,399.90000000000003L-1458.888888888889,399.90000000000003L-1432.2222222222222,400L-1405.5555555555554,399.75L-1378.888888888889,399.8L-1352.2222222222222,399.90000000000003L-1325.5555555555557,399.65000000000003L-1298.888888888889,399.65000000000003L-1272.2222222222222,399.75L-1245.5555555555557,399.7L-1218.888888888889,399.54999999999995L-1192.2222222222222,399.85L-1165.5555555555554,399.54999999999995L-1138.888888888889,399.75L-1112.2222222222222,399.35L-1085.5555555555557,399.40000000000003L-1058.888888888889,399.65000000000003L-1032.2222222222222,399.75L-1005.5555555555555,399.7L-978.8888888888889,399.54999999999995L-952.2222222222222,399.7L-925.5555555555557,399.75L-898.8888888888889,399.45L-872.2222222222222,399.90000000000003L-845.5555555555555,399.54999999999995L-818.8888888888888,399.85L-792.2222222222223,399.95L-765.5555555555555,399.2L-738.8888888888889,399.95L-712.2222222222222,399.75L-685.5555555555555,399.65000000000003L-658.8888888888889,399.75L-632.2222222222222,399.90000000000003L-605.5555555555555,400L-578.8888888888889,399.8L-552.2222222222222,399.95L-525.5555555555555,399.95L-498.8888888888889,399.85L-472.22222222222223,400L-445.55555555555554,399.95L-418.8888888888889,400L-392.22222222222223,399.85L-365.55555555555554,399.95L-338.88888888888886,399.95L-312.22222222222223,399.95L-285.55555555555554,399.95L-258.8888888888889,399.95L-232.22222222222223,400L-205.55555555555554,399.75L-178.88888888888889,399.8L-152.22222222222223,399.95L-125.55555555555556,399.85L-98.88888888888889,400L-72.22222222222221,400L-45.55555555555556,400L-18.88888888888889,399.95L7.777777777777778,400L34.44444444444444,399.95L61.111111111111114,399.95L87.77777777777777,400L114.44444444444444,400L141.11111111111111,400L167.77777777777777,400L194.44444444444443,400L221.11111111111111,400L247.77777777777777,399.95L274.44444444444446,400L301.1111111111111,400L327.77777777777777,400L354.44444444444446,400L381.1111111111111,399.95L407.77777777777777,400" stroke="#f58518" stroke-width="2" opacity="0.2"></path></g></g><path class="foreground" aria-hidden="true" d="" display="none"></path></g><g transform="translate(0,0)"><path class="background" aria-hidden="true" d="M0,0h400v400h-400Z"></path><g><g class="mark-line role-mark concat_0_layer_0_marks" clip-path="url(#clip3)" role="graphics-object" aria-roledescription="line mark container"><path aria-label="Type: Confirmed; Date: Mar 01; Count: 4" role="graphics-symbol" aria-roledescription="line mark" d="M-2097.777777777778,399.8L-2071.1111111111113,399.7L-2044.4444444444443,399.65000000000003L-2017.7777777777778,398.8L-1991.111111111111,398.45L-1964.4444444444446,398.95L-1937.7777777777776,398.05L-1911.111111111111,398.55L-1885.5555555555554,398.55L-1858.888888888889,390.25L-1832.2222222222222,390.09999999999997L-1805.5555555555557,394.8L-1778.8888888888887,385.3L-1752.2222222222222,395.3L-1725.5555555555557,393.45L-1698.8888888888887,394.4L-1672.2222222222222,393.5L-1645.5555555555557,395.65000000000003L-1618.888888888889,390.2L-1592.2222222222222,391.59999999999997L-1565.5555555555554,389.8L-1538.888888888889,386.65L-1512.2222222222222,388.2L-1485.5555555555557,387.9L-1458.888888888889,388.95L-1432.2222222222222,385.75L-1405.5555555555554,380.7L-1378.888888888889,387L-1352.2222222222222,386.55L-1325.5555555555557,391.95000000000005L-1298.888888888889,390.2L-1272.2222222222222,388.9L-1245.5555555555557,385.8L-1218.888888888889,388.85L-1192.2222222222222,391L-1165.5555555555554,393.15L-1138.888888888889,391.1L-1112.2222222222222,388.95L-1085.5555555555557,400L-1058.888888888889,393.75L-1032.2222222222222,394.85L-1005.5555555555555,395.25L-978.8888888888889,394.20000000000005L-952.2222222222222,396.09999999999997L-925.5555555555557,399L-898.8888888888889,394.15L-872.2222222222222,392.2L-845.5555555555555,397.95L-818.8888888888888,395.05L-792.2222222222223,397.90000000000003L-765.5555555555555,396.09999999999997L-738.8888888888889,398.25L-712.2222222222222,392.65L-685.5555555555555,396.85L-658.8888888888889,396.9L-632.2222222222222,398.20000000000005L-605.5555555555555,398.6L-578.8888888888889,396.4L-552.2222222222222,396.95L-525.5555555555555,397.5L-498.8888888888889,398.6L-472.22222222222223,397.75L-445.55555555555554,398.7L-418.8888888888889,398.09999999999997L-392.22222222222223,397.15L-365.55555555555554,397.45L-338.88888888888886,397.95L-312.22222222222223,398.09999999999997L-285.55555555555554,398.20000000000005L-258.8888888888889,398.55L-232.22222222222223,399.7L-205.55555555555554,398.65L-178.88888888888889,398.75L-152.22222222222223,399.1L-125.55555555555556,398.95L-98.88888888888889,398.85L-72.22222222222221,399.1L-45.55555555555556,399.40000000000003L-18.88888888888889,399.6L7.777777777777778,399.5L34.44444444444444,399.3L61.111111111111114,398.6L87.77777777777777,398.85L114.44444444444444,399.3L141.11111111111111,399.7L167.77777777777777,399.40000000000003L194.44444444444443,399.05L221.11111111111111,399.1L247.77777777777777,399.5L274.44444444444446,399.45L301.1111111111111,399.25L327.77777777777777,399.85L354.44444444444446,399.7L381.1111111111111,399.54999999999995L407.77777777777777,398.9" stroke="#4c78a8" stroke-width="2" opacity="0.2"></path></g></g><path class="foreground" aria-hidden="true" d="" display="none"></path></g></g><g class="mark-group role-scope concat_0_layer_1_pathgroup" role="graphics-object" aria-roledescription="group mark container"><g transform="translate(0,0)"><path class="background" aria-hidden="true" d="M0,0h400v400h-400Z"></path><g><g class="mark-line role-mark concat_0_layer_1_marks" clip-path="url(#clip4)" role="graphics-object" aria-roledescription="line mark container"><path aria-label="Type: Recovered; Date: Mar 01; Count: 0" role="graphics-symbol" aria-roledescription="line mark" d="M-1937.7777777777776,400L-1911.111111111111,400L-1885.5555555555554,399.99285714285713L-1858.888888888889,399.99285714285713L-1832.2222222222222,399.99285714285713L-1805.5555555555557,399.99285714285713L-1778.8888888888887,399.99285714285713L-1752.2222222222222,399.99285714285713L-1725.5555555555557,399.99285714285713L-1698.8888888888887,400L-1672.2222222222222,400L-1645.5555555555557,400L-1618.888888888889,400L-1592.2222222222222,400L-1565.5555555555554,400L-1538.888888888889,400L-1512.2222222222222,400L-1485.5555555555557,399.9642857142857L-1458.888888888889,399.9642857142857L-1432.2222222222222,399.9642857142857L-1405.5555555555554,399.9642857142857L-1378.888888888889,399.95714285714286L-1352.2222222222222,399.95714285714286L-1325.5555555555557,399.9214285714286L-1298.888888888889,399.95L-1272.2222222222222,399.95L-1245.5555555555557,399.81428571428575L-1218.888888888889,399.81428571428575L-1192.2222222222222,399.82142857142856L-1165.5555555555554,399.82142857142856L-1138.888888888889,399.8571428571429L-1112.2222222222222,399.8642857142857L-1085.5555555555557,399.8642857142857L-1058.888888888889,400L-1032.2222222222222,400L-1005.5555555555555,400L-978.8888888888889,400L-952.2222222222222,400L-925.5555555555557,400L-898.8888888888889,400L-872.2222222222222,400L-845.5555555555555,400L-818.8888888888888,400L-792.2222222222223,400L-765.5555555555555,400L-738.8888888888889,400L-712.2222222222222,400L-685.5555555555555,400L-658.8888888888889,400L-632.2222222222222,400L-605.5555555555555,400L-578.8888888888889,400L-552.2222222222222,400L-525.5555555555555,400L-498.8888888888889,400L-472.22222222222223,400L-445.55555555555554,400L-418.8888888888889,400L-392.22222222222223,400L-365.55555555555554,400L-338.88888888888886,400L-312.22222222222223,400L-285.55555555555554,400L-258.8888888888889,400L-232.22222222222223,400L-205.55555555555554,400L-178.88888888888889,400L-152.22222222222223,400L-125.55555555555556,400L-98.88888888888889,400L-72.22222222222221,400L-45.55555555555556,400L-18.88888888888889,400L7.777777777777778,400L34.44444444444444,400L61.111111111111114,400L87.77777777777777,345.0357142857143L114.44444444444444,345.0357142857143L141.11111111111111,345.0357142857143L167.77777777777777,345.0357142857143L194.44444444444443,345.0357142857143L221.11111111111111,345.0357142857143L247.77777777777777,345.0357142857143L274.44444444444446,400L301.1111111111111,400L327.77777777777777,400L354.44444444444446,400L381.1111111111111,400L407.77777777777777,400" stroke="#e45756" stroke-width="2" opacity="1"></path></g></g><path class="foreground" aria-hidden="true" d="" display="none"></path></g><g transform="translate(0,0)"><path class="background" aria-hidden="true" d="M0,0h400v400h-400Z"></path><g><g class="mark-line role-mark concat_0_layer_1_marks" clip-path="url(#clip5)" role="graphics-object" aria-roledescription="line mark container"><path aria-label="Type: Deaths; Date: Mar 01; Count: 0" role="graphics-symbol" aria-roledescription="line mark" d="M-1937.7777777777776,400L-1911.111111111111,400L-1885.5555555555554,400L-1858.888888888889,400L-1832.2222222222222,400L-1805.5555555555557,400L-1778.8888888888887,400L-1752.2222222222222,399.9785714285714L-1725.5555555555557,399.9785714285714L-1698.8888888888887,399.9785714285714L-1672.2222222222222,399.9785714285714L-1645.5555555555557,399.95714285714286L-1618.888888888889,399.95L-1592.2222222222222,399.95L-1565.5555555555554,399.97142857142853L-1538.888888888889,399.97142857142853L-1512.2222222222222,399.95L-1485.5555555555557,399.9357142857143L-1458.888888888889,399.9428571428572L-1432.2222222222222,399.95L-1405.5555555555554,399.9142857142857L-1378.888888888889,399.88571428571424L-1352.2222222222222,399.87142857142857L-1325.5555555555557,399.8428571428571L-1298.888888888889,399.8071428571428L-1272.2222222222222,399.7857142857143L-1245.5555555555557,399.74285714285713L-1218.888888888889,399.7142857142857L-1192.2222222222222,399.72142857142853L-1165.5555555555554,399.6714285714286L-1138.888888888889,399.6857142857143L-1112.2222222222222,399.64285714285717L-1085.5555555555557,399.59285714285716L-1058.888888888889,399.5857142857143L-1032.2222222222222,399.6142857142857L-1005.5555555555555,399.59285714285716L-978.8888888888889,399.59285714285716L-952.2222222222222,399.5857142857143L-925.5555555555557,399.64285714285717L-898.8888888888889,399.65000000000003L-872.2222222222222,399.6857142857143L-845.5555555555555,399.65714285714284L-818.8888888888888,399.67857142857144L-792.2222222222223,399.7357142857143L-765.5555555555555,399.6642857142857L-738.8888888888889,399.6928571428572L-712.2222222222222,399.7357142857143L-685.5555555555555,399.7L-658.8888888888889,399.72857142857146L-632.2222222222222,399.7357142857143L-605.5555555555555,399.74285714285713L-578.8888888888889,399.8285714285714L-552.2222222222222,399.8285714285714L-525.5555555555555,399.8571428571429L-498.8888888888889,399.88571428571424L-472.22222222222223,399.9214285714286L-445.55555555555554,399.9285714285714L-418.8888888888889,399.9285714285714L-392.22222222222223,399.9357142857143L-365.55555555555554,399.9357142857143L-338.88888888888886,399.9357142857143L-312.22222222222223,399.95L-285.55555555555554,399.9428571428572L-258.8888888888889,399.9428571428572L-232.22222222222223,399.9428571428572L-205.55555555555554,399.9285714285714L-178.88888888888889,399.90714285714284L-152.22222222222223,399.90714285714284L-125.55555555555556,399.8928571428571L-98.88888888888889,399.90000000000003L-72.22222222222221,399.90714285714284L-45.55555555555556,399.90714285714284L-18.88888888888889,399.9357142857143L7.777777777777778,399.9642857142857L34.44444444444444,399.9642857142857L61.111111111111114,399.9785714285714L87.77777777777777,399.9785714285714L114.44444444444444,399.9785714285714L141.11111111111111,399.9785714285714L167.77777777777777,399.9857142857143L194.44444444444443,399.9857142857143L221.11111111111111,399.99285714285713L247.77777777777777,399.99285714285713L274.44444444444446,399.99285714285713L301.1111111111111,399.99285714285713L327.77777777777777,399.99285714285713L354.44444444444446,399.99285714285713L381.1111111111111,399.9857142857143L407.77777777777777,399.9857142857143" stroke="#f58518" stroke-width="2" opacity="1"></path></g></g><path class="foreground" aria-hidden="true" d="" display="none"></path></g><g transform="translate(0,0)"><path class="background" aria-hidden="true" d="M0,0h400v400h-400Z"></path><g><g class="mark-line role-mark concat_0_layer_1_marks" clip-path="url(#clip6)" role="graphics-object" aria-roledescription="line mark container"><path aria-label="Type: Confirmed; Date: Mar 01; Count: 0" role="graphics-symbol" aria-roledescription="line mark" d="M-1937.7777777777776,399.0571428571429L-1911.111111111111,398.87857142857143L-1885.5555555555554,398.7142857142857L-1858.888888888889,397.37142857142857L-1832.2222222222222,396.12857142857143L-1805.5555555555557,395.6071428571429L-1778.8888888888887,393.65714285714284L-1752.2222222222222,393.26428571428573L-1725.5555555555557,392.5357142857143L-1698.8888888888887,391.9428571428571L-1672.2222222222222,392.40714285714284L-1645.5555555555557,393.2L-1618.888888888889,392.54285714285714L-1592.2222222222222,393.4428571428572L-1565.5555555555554,392.65714285714284L-1538.888888888889,391.68571428571425L-1512.2222222222222,390.8L-1485.5555555555557,390L-1458.888888888889,389.04285714285714L-1432.2222222222222,388.40714285714284L-1405.5555555555554,386.85L-1378.888888888889,386.45L-1352.2222222222222,386.4357142857143L-1325.5555555555557,386.9714285714286L-1298.888888888889,387.3L-1272.2222222222222,387.29285714285714L-1245.5555555555557,387.3L-1218.888888888889,388.4642857142857L-1192.2222222222222,389.0357142857143L-1165.5555555555554,389.9785714285714L-1138.888888888889,389.85714285714283L-1112.2222222222222,389.67857142857144L-1085.5555555555557,391.26428571428573L-1058.888888888889,392.4L-1032.2222222222222,393.25714285714287L-1005.5555555555555,393.86428571428576L-978.8888888888889,394.0142857142857L-952.2222222222222,394.7285714285714L-925.5555555555557,396.1642857142857L-898.8888888888889,395.3285714285714L-872.2222222222222,395.1071428571429L-845.5555555555555,395.54999999999995L-818.8888888888888,395.5214285714286L-792.2222222222223,396.05L-765.5555555555555,396.05L-738.8888888888889,395.9428571428572L-712.2222222222222,395.72857142857146L-685.5555555555555,396.3928571428571L-658.8888888888889,396.2428571428572L-632.2222222222222,396.6928571428571L-605.5555555555555,396.79285714285714L-578.8888888888889,396.8357142857143L-552.2222222222222,396.65L-525.5555555555555,397.34285714285716L-498.8888888888889,397.5928571428571L-472.22222222222223,397.7142857142857L-445.55555555555554,397.7857142857143L-418.8888888888889,397.7142857142857L-392.22222222222223,397.8214285714286L-365.55555555555554,397.8928571428571L-338.88888888888886,397.95714285714286L-312.22222222222223,397.88571428571424L-285.55555555555554,397.95L-258.8888888888889,397.9285714285714L-232.22222222222223,398.1571428571429L-205.55555555555554,398.37142857142857L-178.88888888888889,398.5571428571429L-152.22222222222223,398.7214285714286L-125.55555555555556,398.84285714285716L-98.88888888888889,398.9357142857143L-72.22222222222221,399.01428571428573L-45.55555555555556,398.9714285714286L-18.88888888888889,399.10714285714283L7.777777777777778,399.2142857142857L34.44444444444444,399.24285714285713L61.111111111111114,399.1928571428571L87.77777777777777,399.1928571428571L114.44444444444444,399.2214285714286L141.11111111111111,399.26428571428573L167.77777777777777,399.23571428571427L194.44444444444443,399.1714285714286L221.11111111111111,399.14285714285717L247.77777777777777,399.2714285714286L274.44444444444446,399.3571428571429L301.1111111111111,399.35L327.77777777777777,399.37142857142857L354.44444444444446,399.4142857142857L381.1111111111111,399.48571428571427L407.77777777777777,399.45714285714286" stroke="#4c78a8" stroke-width="2" opacity="1"></path></g></g><path class="foreground" aria-hidden="true" d="" display="none"></path></g></g><g class="mark-group role-title"><g transform="translate(200,-54)"><path class="background" aria-hidden="true" d="M0,0h0v0h0Z" pointer-events="none"></path><g><g class="mark-text role-title-text" role="graphics-symbol" aria-roledescription="title" aria-label="Title text '7-day average (light color: daily values) [2020-06-03]'" pointer-events="none"><text text-anchor="middle" transform="translate(0,10)" font-family="Roboto Condensed" font-size="13px" font-weight="normal" fill="#000" opacity="1"><tspan>7-day average (light color: daily values)</tspan><tspan x="0" dy="15">[2020-06-03]</tspan></text></g></g><path class="foreground" aria-hidden="true" d="" pointer-events="none" display="none"></path></g></g></g><path class="foreground" aria-hidden="true" d="" display="none"></path></g></g><g class="mark-group role-scope concat_1_group" role="graphics-object" aria-roledescription="group mark container"><g transform="translate(465,0)"><path class="background" aria-hidden="true" d="M0,0h400v400h-400Z" stroke="#ddd" stroke-width="0"></path><g><g class="mark-group role-axis" aria-hidden="true"><g transform="translate(0.5,0.5)"><path class="background" aria-hidden="true" d="M0,0h0v0h0Z" pointer-events="none"></path><g><g class="mark-rule role-axis-grid" pointer-events="none"><line transform="translate(0,400)" x2="400" y2="0" stroke="#ddd" stroke-width="1" opacity="1"></line><line transform="translate(0,356)" x2="400" y2="0" stroke="#ddd" stroke-width="1" opacity="1"></line><line transform="translate(0,311)" x2="400" y2="0" stroke="#ddd" stroke-width="1" opacity="1"></line><line transform="translate(0,267)" x2="400" y2="0" stroke="#ddd" stroke-width="1" opacity="1"></line><line transform="translate(0,222)" x2="400" y2="0" stroke="#ddd" stroke-width="1" opacity="1"></line><line transform="translate(0,178)" x2="400" y2="0" stroke="#ddd" stroke-width="1" opacity="1"></line><line transform="translate(0,133)" x2="400" y2="0" stroke="#ddd" stroke-width="1" opacity="1"></line><line transform="translate(0,89)" x2="400" y2="0" stroke="#ddd" stroke-width="1" opacity="1"></line><line transform="translate(0,44)" x2="400" y2="0" stroke="#ddd" stroke-width="1" opacity="1"></line><line transform="translate(0,0)" x2="400" y2="0" stroke="#ddd" stroke-width="1" opacity="1"></line></g></g><path class="foreground" aria-hidden="true" d="" pointer-events="none" display="none"></path></g></g><g class="mark-group role-axis" role="graphics-symbol" aria-roledescription="axis" aria-label="X-axis titled 'Date' for a time scale with values from May 18 to June 02"><g transform="translate(0.5,400.5)"><path class="background" aria-hidden="true" d="M0,0h0v0h0Z" pointer-events="none"></path><g><g class="mark-text role-axis-label" pointer-events="none"><text text-anchor="middle" transform="translate(7.777777777777778,10)" font-family="Roboto Condensed" font-size="10px" fill="#000" opacity="1">May 19</text><text text-anchor="middle" transform="translate(61.111111111111114,10)" font-family="Roboto Condensed" font-size="10px" fill="#000" opacity="0">May 21</text><text text-anchor="middle" transform="translate(114.44444444444444,10)" font-family="Roboto Condensed" font-size="10px" fill="#000" opacity="1">May 23</text><text text-anchor="middle" transform="translate(167.77777777777777,10)" font-family="Roboto Condensed" font-size="10px" fill="#000" opacity="0">May 25</text><text text-anchor="middle" transform="translate(221.11111111111111,10)" font-family="Roboto Condensed" font-size="10px" fill="#000" opacity="1">May 27</text><text text-anchor="middle" transform="translate(274.44444444444446,10)" font-family="Roboto Condensed" font-size="10px" fill="#000" opacity="0">May 29</text><text text-anchor="middle" transform="translate(327.77777777777777,10)" font-family="Roboto Condensed" font-size="10px" fill="#000" opacity="1">May 31</text><text text-anchor="middle" transform="translate(354.44444444444446,10)" font-family="Roboto Condensed" font-size="10px" fill="#000" opacity="0">Jun 01</text></g><g class="mark-rule role-axis-domain" pointer-events="none"><line transform="translate(0,0)" x2="400" y2="0" stroke="lightgray" stroke-width="1" opacity="1"></line></g><g class="mark-text role-axis-title" pointer-events="none"><text text-anchor="middle" transform="translate(200,25)" font-family="Roboto Condensed" font-size="11px" font-weight="normal" fill="#000" opacity="1">Date</text></g></g><path class="foreground" aria-hidden="true" d="" pointer-events="none" display="none"></path></g></g><g class="mark-group role-axis" role="graphics-symbol" aria-roledescription="axis" aria-label="Y-axis titled 'Count' for a linear scale with values from 0 to 9,000"><g transform="translate(0.5,0.5)"><path class="background" aria-hidden="true" d="M0,0h0v0h0Z" pointer-events="none"></path><g><g class="mark-text role-axis-label" pointer-events="none"><text text-anchor="end" transform="translate(-2,403)" font-family="Roboto Condensed" font-size="10px" fill="#000" opacity="1">0</text><text text-anchor="end" transform="translate(-2,358.55555555555554)" font-family="Roboto Condensed" font-size="10px" fill="#000" opacity="1">1,000</text><text text-anchor="end" transform="translate(-2,314.11111111111114)" font-family="Roboto Condensed" font-size="10px" fill="#000" opacity="1">2,000</text><text text-anchor="end" transform="translate(-2,269.6666666666667)" font-family="Roboto Condensed" font-size="10px" fill="#000" opacity="1">3,000</text><text text-anchor="end" transform="translate(-2,225.22222222222223)" font-family="Roboto Condensed" font-size="10px" fill="#000" opacity="1">4,000</text><text text-anchor="end" transform="translate(-2,180.77777777777777)" font-family="Roboto Condensed" font-size="10px" fill="#000" opacity="1">5,000</text><text text-anchor="end" transform="translate(-2,136.33333333333334)" font-family="Roboto Condensed" font-size="10px" fill="#000" opacity="1">6,000</text><text text-anchor="end" transform="translate(-2,91.88888888888889)" font-family="Roboto Condensed" font-size="10px" fill="#000" opacity="1">7,000</text><text text-anchor="end" transform="translate(-2,47.444444444444464)" font-family="Roboto Condensed" font-size="10px" fill="#000" opacity="1">8,000</text><text text-anchor="end" transform="translate(-2,3)" font-family="Roboto Condensed" font-size="10px" fill="#000" opacity="1">9,000</text></g><g class="mark-rule role-axis-domain" pointer-events="none"><line transform="translate(0,400)" x2="0" y2="-400" stroke="lightgray" stroke-width="1" opacity="1"></line></g><g class="mark-text role-axis-title" pointer-events="none"><text text-anchor="start" transform="translate(-45,-13)" font-family="Roboto Condensed" font-size="11px" font-weight="normal" fill="#000" opacity="1">Count</text></g></g><path class="foreground" aria-hidden="true" d="" pointer-events="none" display="none"></path></g></g><g class="mark-group role-scope concat_1_pathgroup" role="graphics-object" aria-roledescription="group mark container"><g transform="translate(0,0)"><path class="background" aria-hidden="true" d="M0,0h400v400h-400Z"></path><g><g class="mark-line role-mark concat_1_marks" clip-path="url(#clip7)" role="graphics-object" aria-roledescription="line mark container"><path aria-label="Type: Recovered; Date: Mar 01; Country: Norway; Confirmed: 19; Recovered: 0; Deaths: 0; Count: 0" role="graphics-symbol" aria-roledescription="line mark" d="M-2097.777777777778,400L-2071.1111111111113,400L-2044.4444444444443,400L-2017.7777777777778,400L-1991.111111111111,400L-1964.4444444444446,400L-1937.7777777777776,400L-1911.111111111111,400L-1885.5555555555554,399.9555555555556L-1858.888888888889,399.9555555555556L-1832.2222222222222,399.9555555555556L-1805.5555555555557,399.9555555555556L-1778.8888888888887,399.9555555555556L-1752.2222222222222,399.9555555555556L-1725.5555555555557,399.9555555555556L-1698.8888888888887,399.9555555555556L-1672.2222222222222,399.9555555555556L-1645.5555555555557,399.9555555555556L-1618.888888888889,399.9555555555556L-1592.2222222222222,399.9555555555556L-1565.5555555555554,399.9555555555556L-1538.888888888889,399.9555555555556L-1512.2222222222222,399.9555555555556L-1485.5555555555557,399.7333333333333L-1458.888888888889,399.7333333333333L-1432.2222222222222,399.7333333333333L-1405.5555555555554,399.7333333333333L-1378.888888888889,399.68888888888887L-1352.2222222222222,399.68888888888887L-1325.5555555555557,399.4666666666667L-1298.888888888889,399.4222222222222L-1272.2222222222222,399.4222222222222L-1245.5555555555557,398.5777777777778L-1218.888888888889,398.5777777777778L-1192.2222222222222,398.5777777777778L-1165.5555555555554,398.5777777777778L-1138.888888888889,398.5777777777778L-1112.2222222222222,398.5777777777778L-1085.5555555555557,398.5777777777778L-1058.888888888889,398.5777777777778L-1032.2222222222222,398.5777777777778L-1005.5555555555555,398.5777777777778L-978.8888888888889,398.5777777777778L-952.2222222222222,398.5777777777778L-925.5555555555557,398.5777777777778L-898.8888888888889,398.5777777777778L-872.2222222222222,398.5777777777778L-845.5555555555555,398.5777777777778L-818.8888888888888,398.5777777777778L-792.2222222222223,398.5777777777778L-765.5555555555555,398.5777777777778L-738.8888888888889,398.5777777777778L-712.2222222222222,398.5777777777778L-685.5555555555555,398.5777777777778L-658.8888888888889,398.5777777777778L-632.2222222222222,398.5777777777778L-605.5555555555555,398.5777777777778L-578.8888888888889,398.5777777777778L-552.2222222222222,398.5777777777778L-525.5555555555555,398.5777777777778L-498.8888888888889,398.5777777777778L-472.22222222222223,398.5777777777778L-445.55555555555554,398.5777777777778L-418.8888888888889,398.5777777777778L-392.22222222222223,398.5777777777778L-365.55555555555554,398.5777777777778L-338.88888888888886,398.5777777777778L-312.22222222222223,398.5777777777778L-285.55555555555554,398.5777777777778L-258.8888888888889,398.5777777777778L-232.22222222222223,398.5777777777778L-205.55555555555554,398.5777777777778L-178.88888888888889,398.5777777777778L-152.22222222222223,398.5777777777778L-125.55555555555556,398.5777777777778L-98.88888888888889,398.5777777777778L-72.22222222222221,398.5777777777778L-45.55555555555556,398.5777777777778L-18.88888888888889,398.5777777777778L7.777777777777778,398.5777777777778L34.44444444444444,398.5777777777778L61.111111111111114,398.5777777777778L87.77777777777777,56.5777777777778L114.44444444444444,56.5777777777778L141.11111111111111,56.5777777777778L167.77777777777777,56.5777777777778L194.44444444444443,56.5777777777778L221.11111111111111,56.5777777777778L247.77777777777777,56.5777777777778L274.44444444444446,56.5777777777778L301.1111111111111,56.5777777777778L327.77777777777777,56.5777777777778L354.44444444444446,56.5777777777778L381.1111111111111,56.5777777777778L407.77777777777777,56.5777777777778" stroke="#e45756" stroke-width="2" opacity="0.7"></path></g></g><path class="foreground" aria-hidden="true" d="" display="none"></path></g><g transform="translate(0,0)"><path class="background" aria-hidden="true" d="M0,0h400v400h-400Z"></path><g><g class="mark-line role-mark concat_1_marks" clip-path="url(#clip8)" role="graphics-object" aria-roledescription="line mark container"><path aria-label="Type: Deaths; Date: Mar 01; Country: Norway; Confirmed: 19; Recovered: 0; Deaths: 0; Count: 0" role="graphics-symbol" aria-roledescription="line mark" d="M-2097.777777777778,400L-2071.1111111111113,400L-2044.4444444444443,400L-2017.7777777777778,400L-1991.111111111111,400L-1964.4444444444446,400L-1937.7777777777776,400L-1911.111111111111,400L-1885.5555555555554,400L-1858.888888888889,400L-1832.2222222222222,400L-1805.5555555555557,400L-1778.8888888888887,400L-1752.2222222222222,399.8666666666667L-1725.5555555555557,399.8666666666667L-1698.8888888888887,399.8666666666667L-1672.2222222222222,399.8666666666667L-1645.5555555555557,399.7333333333333L-1618.888888888889,399.68888888888887L-1592.2222222222222,399.68888888888887L-1565.5555555555554,399.68888888888887L-1538.888888888889,399.68888888888887L-1512.2222222222222,399.5555555555556L-1485.5555555555557,399.4666666666667L-1458.888888888889,399.3777777777778L-1432.2222222222222,399.3777777777778L-1405.5555555555554,399.15555555555557L-1378.888888888889,398.97777777777776L-1352.2222222222222,398.8888888888889L-1325.5555555555557,398.5777777777778L-1298.888888888889,398.26666666666665L-1272.2222222222222,398.0444444444444L-1245.5555555555557,397.77777777777777L-1218.888888888889,397.3777777777778L-1192.2222222222222,397.2444444444444L-1165.5555555555554,396.8444444444445L-1138.888888888889,396.6222222222222L-1112.2222222222222,396.0444444444445L-1085.5555555555557,395.5111111111111L-1058.888888888889,395.2L-1032.2222222222222,394.97777777777776L-1005.5555555555555,394.7111111111111L-978.8888888888889,394.3111111111111L-952.2222222222222,394.0444444444445L-925.5555555555557,393.8222222222222L-898.8888888888889,393.3333333333333L-872.2222222222222,393.24444444444447L-845.5555555555555,392.84444444444443L-818.8888888888888,392.7111111111111L-792.2222222222223,392.6666666666667L-765.5555555555555,391.9555555555556L-738.8888888888889,391.9111111111111L-712.2222222222222,391.68888888888887L-685.5555555555555,391.3777777777778L-658.8888888888889,391.15555555555557L-632.2222222222222,391.06666666666666L-605.5555555555555,391.06666666666666L-578.8888888888889,390.8888888888889L-552.2222222222222,390.84444444444443L-525.5555555555555,390.8L-498.8888888888889,390.6666666666667L-472.22222222222223,390.6666666666667L-445.55555555555554,390.6222222222222L-418.8888888888889,390.6222222222222L-392.22222222222223,390.4888888888889L-365.55555555555554,390.44444444444446L-338.88888888888886,390.4L-312.22222222222223,390.35555555555555L-285.55555555555554,390.3111111111111L-258.8888888888889,390.26666666666665L-232.22222222222223,390.26666666666665L-205.55555555555554,390.0444444444445L-178.88888888888889,389.8666666666667L-152.22222222222223,389.8222222222222L-125.55555555555556,389.68888888888887L-98.88888888888889,389.68888888888887L-72.22222222222221,389.68888888888887L-45.55555555555556,389.68888888888887L-18.88888888888889,389.64444444444445L7.777777777777778,389.64444444444445L34.44444444444444,389.59999999999997L61.111111111111114,389.55555555555554L87.77777777777777,389.55555555555554L114.44444444444444,389.55555555555554L141.11111111111111,389.55555555555554L167.77777777777777,389.55555555555554L194.44444444444443,389.55555555555554L221.11111111111111,389.55555555555554L247.77777777777777,389.5111111111111L274.44444444444446,389.5111111111111L301.1111111111111,389.5111111111111L327.77777777777777,389.5111111111111L354.44444444444446,389.5111111111111L381.1111111111111,389.4666666666667L407.77777777777777,389.4666666666667" stroke="#f58518" stroke-width="2" opacity="0.7"></path></g></g><path class="foreground" aria-hidden="true" d="" display="none"></path></g><g transform="translate(0,0)"><path class="background" aria-hidden="true" d="M0,0h400v400h-400Z"></path><g><g class="mark-line role-mark concat_1_marks" clip-path="url(#clip9)" role="graphics-object" aria-roledescription="line mark container"><path aria-label="Type: Confirmed; Date: Mar 01; Country: Norway; Confirmed: 19; Recovered: 0; Deaths: 0; Count: 19" role="graphics-symbol" aria-roledescription="line mark" d="M-2097.777777777778,399.15555555555557L-2071.1111111111113,398.8888888888889L-2044.4444444444443,398.5777777777778L-2017.7777777777778,397.5111111111111L-1991.111111111111,396.1333333333333L-1964.4444444444446,395.2L-1937.7777777777776,393.4666666666667L-1911.111111111111,392.1777777777778L-1885.5555555555554,390.8888888888889L-1858.888888888889,382.22222222222223L-1832.2222222222222,373.4222222222222L-1805.5555555555557,368.8L-1778.8888888888887,355.73333333333335L-1752.2222222222222,351.55555555555554L-1725.5555555555557,345.73333333333335L-1698.8888888888887,340.7555555555556L-1672.2222222222222,334.97777777777776L-1645.5555555555557,331.1111111111111L-1618.888888888889,322.40000000000003L-1592.2222222222222,314.93333333333334L-1565.5555555555554,305.8666666666666L-1538.888888888889,294L-1512.2222222222222,283.51111111111106L-1485.5555555555557,272.75555555555553L-1458.888888888889,262.93333333333334L-1432.2222222222222,250.26666666666665L-1405.5555555555554,233.11111111111114L-1378.888888888889,221.55555555555554L-1352.2222222222222,209.60000000000002L-1325.5555555555557,202.44444444444446L-1298.888888888889,193.73333333333332L-1272.2222222222222,183.86666666666667L-1245.5555555555557,171.24444444444444L-1218.888888888889,161.33333333333331L-1192.2222222222222,153.33333333333331L-1165.5555555555554,147.2444444444444L-1138.888888888889,139.33333333333334L-1112.2222222222222,129.51111111111112L-1085.5555555555557,129.51111111111112L-1058.888888888889,123.95555555555555L-1032.2222222222222,119.37777777777777L-1005.5555555555555,115.15555555555554L-978.8888888888889,110.00000000000001L-952.2222222222222,106.53333333333333L-925.5555555555557,105.64444444444443L-898.8888888888889,100.44444444444443L-872.2222222222222,93.5111111111111L-845.5555555555555,91.68888888888888L-818.8888888888888,87.28888888888888L-792.2222222222223,85.42222222222225L-765.5555555555555,81.95555555555556L-738.8888888888889,80.39999999999998L-712.2222222222222,73.86666666666666L-685.5555555555555,71.06666666666666L-658.8888888888889,68.31111111111112L-632.2222222222222,66.71111111111112L-605.5555555555555,65.46666666666665L-578.8888888888889,62.26666666666665L-552.2222222222222,59.55555555555554L-525.5555555555555,57.33333333333333L-498.8888888888889,56.0888888888889L-472.22222222222223,54.088888888888896L-445.55555555555554,52.93333333333332L-418.8888888888889,51.244444444444426L-392.22222222222223,48.71111111111111L-365.55555555555554,46.444444444444464L-338.88888888888886,44.622222222222206L-312.22222222222223,42.93333333333331L-285.55555555555554,41.33333333333336L-258.8888888888889,40.04444444444446L-232.22222222222223,39.77777777777778L-205.55555555555554,38.577777777777776L-178.88888888888889,37.46666666666667L-152.22222222222223,36.66666666666667L-125.55555555555556,35.73333333333335L-98.88888888888889,34.711111111111094L-72.22222222222221,33.91111111111109L-45.55555555555556,33.37777777777777L-18.88888888888889,33.02222222222224L7.777777777777778,32.57777777777777L34.44444444444444,31.95555555555556L61.111111111111114,30.711111111111087L87.77777777777777,29.688888888888876L114.44444444444444,29.066666666666663L141.11111111111111,28.799999999999983L167.77777777777777,28.266666666666662L194.44444444444443,27.42222222222224L221.11111111111111,26.622222222222234L247.77777777777777,26.177777777777766L274.44444444444446,25.688888888888872L301.1111111111111,25.022222222222233L327.77777777777777,24.88888888888887L354.44444444444446,24.622222222222234L381.1111111111111,24.222222222222236L407.77777777777777,23.244444444444447" stroke="#4c78a8" stroke-width="2" opacity="0.7"></path></g></g><path class="foreground" aria-hidden="true" d="" display="none"></path></g></g><g class="mark-group role-title"><g transform="translate(200,-54)"><path class="background" aria-hidden="true" d="M0,0h0v0h0Z" pointer-events="none"></path><g><g class="mark-text role-title-text" role="graphics-symbol" aria-roledescription="title" aria-label="Title text 'Total [2020-06-03]'" pointer-events="none"><text text-anchor="middle" transform="translate(0,10)" font-family="Roboto Condensed" font-size="13px" font-weight="normal" fill="#000" opacity="1"><tspan>Total</tspan><tspan x="0" dy="15">[2020-06-03]</tspan></text></g></g><path class="foreground" aria-hidden="true" d="" pointer-events="none" display="none"></path></g></g></g><path class="foreground" aria-hidden="true" d="" display="none"></path></g></g><g class="mark-group role-legend" role="graphics-symbol" aria-roledescription="legend" aria-label="Symbol legend for stroke color with 3 values: Confirmed, Deaths, Recovered"><g transform="translate(883,0)"><path class="background" aria-hidden="true" d="M0,0h58v37h-58Z" pointer-events="none"></path><g><g class="mark-group role-legend-entry"><g transform="translate(0,0)"><path class="background" aria-hidden="true" d="M0,0h0v0h0Z" pointer-events="none"></path><g><g class="mark-group role-scope" role="graphics-object" aria-roledescription="group mark container"><g transform="translate(0,0)"><path class="background" aria-hidden="true" d="M0,0h58v11h-58Z" pointer-events="none" opacity="1"></path><g><g class="mark-symbol role-legend-symbol" pointer-events="none"><path transform="translate(6,6)" d="M-5,0L5,0" stroke="#4c78a8" stroke-width="1.5" opacity="0.2"></path></g><g class="mark-text role-legend-label" pointer-events="none"><text text-anchor="start" transform="translate(16,9)" font-family="Roboto Condensed" font-size="10px" fill="#000" opacity="1">Confirmed</text></g></g><path class="foreground" aria-hidden="true" d="" pointer-events="none" display="none"></path></g><g transform="translate(0,13)"><path class="background" aria-hidden="true" d="M0,0h58v11h-58Z" pointer-events="none" opacity="1"></path><g><g class="mark-symbol role-legend-symbol" pointer-events="none"><path transform="translate(6,6)" d="M-5,0L5,0" stroke="#f58518" stroke-width="1.5" opacity="0.2"></path></g><g class="mark-text role-legend-label" pointer-events="none"><text text-anchor="start" transform="translate(16,9)" font-family="Roboto Condensed" font-size="10px" fill="#000" opacity="1">Deaths</text></g></g><path class="foreground" aria-hidden="true" d="" pointer-events="none" display="none"></path></g><g transform="translate(0,26)"><path class="background" aria-hidden="true" d="M0,0h58v11h-58Z" pointer-events="none" opacity="1"></path><g><g class="mark-symbol role-legend-symbol" pointer-events="none"><path transform="translate(6,6)" d="M-5,0L5,0" stroke="#e45756" stroke-width="1.5" opacity="0.2"></path></g><g class="mark-text role-legend-label" pointer-events="none"><text text-anchor="start" transform="translate(16,9)" font-family="Roboto Condensed" font-size="10px" fill="#000" opacity="1">Recovered</text></g></g><path class="foreground" aria-hidden="true" d="" pointer-events="none" display="none"></path></g></g></g><path class="foreground" aria-hidden="true" d="" pointer-events="none" display="none"></path></g></g></g><path class="foreground" aria-hidden="true" d="" pointer-events="none" display="none"></path></g></g></g><path class="foreground" aria-hidden="true" d="" display="none"></path></g></g></g></svg>