<svg class="marks" width="996" height="491" viewBox="0 0 996 491" version="1.1" xmlns="http://www.w3.org/2000/svg" xmlns:xlink="http://www.w3.org/1999/xlink"><defs><clipPath id="clip1"><rect x="0" y="0" width="400" height="400"></rect></clipPath><clipPath id="clip2"><rect x="0" y="0" width="400" height="400"></rect></clipPath><clipPath id="clip3"><rect x="0" y="0" width="400" height="400"></rect></clipPath><clipPath id="clip4"><rect x="0" y="0" width="400" height="400"></rect></clipPath><clipPath id="clip5"><rect x="0" y="0" width="400" height="400"></rect></clipPath><clipPath id="clip6"><rect x="0" y="0" width="400" height="400"></rect></clipPath><clipPath id="clip7"><rect x="0" y="0" width="400" height="400"></rect></clipPath><clipPath id="clip8"><rect x="0" y="0" width="400" height="400"></rect></clipPath><clipPath id="clip9"><rect x="0" y="0" width="400" height="400"></rect></clipPath></defs><rect width="996" height="491" fill="white"></rect><g fill="none" stroke-miterlimit="10" transform="translate(50,59)"><g class="mark-group role-frame root" role="graphics-object" aria-roledescription="group mark container"><g transform="translate(0,0)"><path class="background" aria-hidden="true" d="M0,0h0v400h0Z"></path><g><g class="mark-group role-scope concat_0_group" role="graphics-object" aria-roledescription="group mark container"><g transform="translate(0,0)"><path class="background" aria-hidden="true" d="M0,0h400v400h-400Z" stroke="#ddd" stroke-width="0"></path><g><g class="mark-group role-axis" aria-hidden="true"><g transform="translate(0.5,0.5)"><path class="background" aria-hidden="true" d="M0,0h0v0h0Z" pointer-events="none"></path><g><g class="mark-rule role-axis-grid" pointer-events="none"><line transform="translate(0,400)" x2="400" y2="0" stroke="#ddd" stroke-width="1" opacity="1"></line><line transform="translate(0,350)" x2="400" y2="0" stroke="#ddd" stroke-width="1" opacity="1"></line><line transform="translate(0,300)" x2="400" y2="0" stroke="#ddd" stroke-width="1" opacity="1"></line><line transform="translate(0,250)" x2="400" y2="0" stroke="#ddd" stroke-width="1" opacity="1"></line><line transform="translate(0,200)" x2="400" y2="0" stroke="#ddd" stroke-width="1" opacity="1"></line><line transform="translate(0,150)" x2="400" y2="0" stroke="#ddd" stroke-width="1" opacity="1"></line><line transform="translate(0,100)" x2="400" y2="0" stroke="#ddd" stroke-width="1" opacity="1"></line><line transform="translate(0,50)" x2="400" y2="0" stroke="#ddd" stroke-width="1" opacity="1"></line><line transform="translate(0,0)" x2="400" y2="0" stroke="#ddd" stroke-width="1" opacity="1"></line></g></g><path class="foreground" aria-hidden="true" d="" pointer-events="none" display="none"></path></g></g><g class="mark-group role-axis" role="graphics-symbol" aria-roledescription="axis" aria-label="X-axis titled 'Date' for a time scale with values from May 21 to June 05"><g transform="translate(0.5,400.5)"><path class="background" aria-hidden="true" d="M0,0h0v0h0Z" pointer-events="none"></path><g><g class="mark-text role-axis-label" pointer-events="none"><text text-anchor="middle" transform="translate(34.44444444444444,10)" font-family="Roboto Condensed" font-size="10px" fill="#000" opacity="1">May 23</text><text text-anchor="middle" transform="translate(87.77777777777777,10)" font-family="Roboto Condensed" font-size="10px" fill="#000" opacity="0">May 25</text><text text-anchor="middle" transform="translate(141.11111111111111,10)" font-family="Roboto Condensed" font-size="10px" fill="#000" opacity="1">May 27</text><text text-anchor="middle" transform="translate(194.44444444444443,10)" font-family="Roboto Condensed" font-size="10px" fill="#000" opacity="0">May 29</text><text text-anchor="middle" transform="translate(247.77777777777777,10)" font-family="Roboto Condensed" font-size="10px" fill="#000" opacity="1">May 31</text><text text-anchor="middle" transform="translate(274.44444444444446,10)" font-family="Roboto Condensed" font-size="10px" fill="#000" opacity="0">Jun 01</text><text text-anchor="middle" transform="translate(327.77777777777777,10)" font-family="Roboto Condensed" font-size="10px" fill="#000" opacity="1">Jun 03</text><text text-anchor="middle" transform="translate(381.1111111111111,10)" font-family="Roboto Condensed" font-size="10px" fill="#000" opacity="0">Jun 05</text></g><g class="mark-rule role-axis-domain" pointer-events="none"><line transform="translate(0,0)" x2="400" y2="0" stroke="lightgray" stroke-width="1" opacity="1"></line></g><g class="mark-text role-axis-title" pointer-events="none"><text text-anchor="middle" transform="translate(200,25)" font-family="Roboto Condensed" font-size="11px" font-weight="normal" fill="#000" opacity="1">Date</text></g></g><path class="foreground" aria-hidden="true" d="" pointer-events="none" display="none"></path></g></g><g class="mark-group role-axis" role="graphics-symbol" aria-roledescription="axis" aria-label="Y-axis titled 'Count' for a linear scale with values from -200 to 1,400"><g transform="translate(0.5,0.5)"><path class="background" aria-hidden="true" d="M0,0h0v0h0Z" pointer-events="none"></path><g><g class="mark-text role-axis-label" pointer-events="none"><text text-anchor="end" transform="translate(-2,403)" font-family="Roboto Condensed" font-size="10px" fill="#000" opacity="1">-200</text><text text-anchor="end" transform="translate(-2,353)" font-family="Roboto Condensed" font-size="10px" fill="#000" opacity="1">0</text><text text-anchor="end" transform="translate(-2,303)" font-family="Roboto Condensed" font-size="10px" fill="#000" opacity="1">200</text><text text-anchor="end" transform="translate(-2,253)" font-family="Roboto Condensed" font-size="10px" fill="#000" opacity="1">400</text><text text-anchor="end" transform="translate(-2,203)" font-family="Roboto Condensed" font-size="10px" fill="#000" opacity="1">600</text><text text-anchor="end" transform="translate(-2,153)" font-family="Roboto Condensed" font-size="10px" fill="#000" opacity="1">800</text><text text-anchor="end" transform="translate(-2,103)" font-family="Roboto Condensed" font-size="10px" fill="#000" opacity="1">1,000</text><text text-anchor="end" transform="translate(-2,53)" font-family="Roboto Condensed" font-size="10px" fill="#000" opacity="1">1,200</text><text text-anchor="end" transform="translate(-2,3)" font-family="Roboto Condensed" font-size="10px" fill="#000" opacity="1">1,400</text></g><g class="mark-rule role-axis-domain" pointer-events="none"><line transform="translate(0,400)" x2="0" y2="-400" stroke="lightgray" stroke-width="1" opacity="1"></line></g><g class="mark-text role-axis-title" pointer-events="none"><text text-anchor="start" transform="translate(-45,-13)" font-family="Roboto Condensed" font-size="11px" font-weight="normal" fill="#000" opacity="1">Count</text></g></g><path class="foreground" aria-hidden="true" d="" pointer-events="none" display="none"></path></g></g><g class="mark-group role-scope concat_0_layer_0_pathgroup" role="graphics-object" aria-roledescription="group mark container"><g transform="translate(0,0)"><path class="background" aria-hidden="true" d="M0,0h400v400h-400Z"></path><g><g class="mark-line role-mark concat_0_layer_0_marks" clip-path="url(#clip1)" role="graphics-object" aria-roledescription="line mark container"><path aria-label="Type: Recovered; Date: Mar 01; Count: 0" role="graphics-symbol" aria-roledescription="line mark" d="M-2177.777777777778,350L-2151.1111111111113,350L-2124.4444444444443,350L-2097.777777777778,350L-2071.1111111111113,350L-2044.4444444444443,350L-2017.7777777777778,350L-1991.111111111111,350L-1965.5555555555554,350L-1938.888888888889,350L-1912.2222222222224,350L-1885.5555555555554,350L-1858.888888888889,350L-1832.2222222222222,350L-1805.5555555555557,347.75L-1778.8888888888887,350L-1752.2222222222222,350L-1725.5555555555557,350L-1698.8888888888887,350L-1672.2222222222222,350L-1645.5555555555557,350L-1618.888888888889,350L-1592.2222222222222,350L-1565.5555555555554,350L-1538.888888888889,350L-1512.2222222222222,350L-1485.5555555555557,350L-1458.888888888889,350L-1432.2222222222222,350L-1405.5555555555554,350L-1378.888888888889,350L-1352.2222222222222,350L-1325.5555555555557,277.5L-1298.888888888889,350L-1272.2222222222222,350L-1245.5555555555557,350L-1218.888888888889,350L-1192.2222222222222,350L-1165.5555555555554,350L-1138.888888888889,350L-1112.2222222222222,350L-1085.5555555555557,350L-1058.888888888889,350L-1032.2222222222222,350L-1005.5555555555555,350L-978.8888888888889,350L-952.2222222222222,0L-925.5555555555557,350L-898.8888888888889,350L-872.2222222222222,350L-845.5555555555555,275L-818.8888888888888,350L-792.2222222222223,350L-765.5555555555555,350L-738.8888888888889,225L-712.2222222222222,350L-685.5555555555555,350L-658.8888888888889,350L-632.2222222222222,275L-605.5555555555555,350L-578.8888888888889,300L-552.2222222222222,350L-525.5555555555555,350L-498.8888888888889,350L-472.22222222222223,225L-445.55555555555554,350L-418.8888888888889,350L-392.22222222222223,350L-365.55555555555554,225L-338.88888888888886,350L-312.22222222222223,350L-285.55555555555554,350L-258.8888888888889,275L-232.22222222222223,350L-205.55555555555554,350L-178.88888888888889,175L-152.22222222222223,350L-125.55555555555556,350L-98.88888888888889,350L-72.22222222222221,350L-45.55555555555556,400L-18.88888888888889,350L7.777777777777778,350L34.44444444444444,350L61.111111111111114,350L87.77777777777777,275L114.44444444444444,350L141.11111111111111,350L167.77777777777777,250L194.44444444444443,350L221.11111111111111,350L247.77777777777777,350L274.44444444444446,350L301.1111111111111,350L327.77777777777777,350L354.44444444444446,275L381.1111111111111,350L407.77777777777777,350" stroke="#e45756" stroke-width="2" opacity="0.2"></path></g></g><path class="foreground" aria-hidden="true" d="" display="none"></path></g><g transform="translate(0,0)"><path class="background" aria-hidden="true" d="M0,0h400v400h-400Z"></path><g><g class="mark-line role-mark concat_0_layer_0_marks" clip-path="url(#clip2)" role="graphics-object" aria-roledescription="line mark container"><path aria-label="Type: Deaths; Date: Mar 01; Count: 0" role="graphics-symbol" aria-roledescription="line mark" d="M-2177.777777777778,350L-2151.1111111111113,350L-2124.4444444444443,350L-2097.777777777778,350L-2071.1111111111113,350L-2044.4444444444443,350L-2017.7777777777778,350L-1991.111111111111,350L-1965.5555555555554,350L-1938.888888888889,350L-1912.2222222222224,350L-1885.5555555555554,350L-1858.888888888889,350L-1832.2222222222222,350L-1805.5555555555557,350L-1778.8888888888887,350L-1752.2222222222222,350L-1725.5555555555557,350L-1698.8888888888887,350L-1672.2222222222222,350L-1645.5555555555557,349.75L-1618.888888888889,350L-1592.2222222222222,350L-1565.5555555555554,350L-1538.888888888889,349.5L-1512.2222222222222,349.5L-1485.5555555555557,349.5L-1458.888888888889,349.5L-1432.2222222222222,349.5L-1405.5555555555554,349.5L-1378.888888888889,349L-1352.2222222222222,350L-1325.5555555555557,349.5L-1298.888888888889,349.75L-1272.2222222222222,348.75L-1245.5555555555557,349.25L-1218.888888888889,350.25L-1192.2222222222222,348.25L-1165.5555555555554,348.5L-1138.888888888889,349.5L-1112.2222222222222,348.5L-1085.5555555555557,349.75L-1058.888888888889,348.25L-1032.2222222222222,349.25L-1005.5555555555555,348.75L-978.8888888888889,348L-952.2222222222222,349.25L-925.5555555555557,348.25L-898.8888888888889,348L-872.2222222222222,349L-845.5555555555555,349L-818.8888888888888,339.25L-792.2222222222223,348L-765.5555555555555,344.25L-738.8888888888889,348.75L-712.2222222222222,347.75L-685.5555555555555,349L-658.8888888888889,349.25L-632.2222222222222,348.5L-605.5555555555555,348.25L-578.8888888888889,348.75L-552.2222222222222,348.25L-525.5555555555555,349.5L-498.8888888888889,347.5L-472.22222222222223,347.5L-445.55555555555554,348.5L-418.8888888888889,348.5L-392.22222222222223,349.25L-365.55555555555554,348.75L-338.88888888888886,348.75L-312.22222222222223,349.5L-285.55555555555554,349L-258.8888888888889,349L-232.22222222222223,347.75L-205.55555555555554,349.25L-178.88888888888889,348.5L-152.22222222222223,349L-125.55555555555556,349.75L-98.88888888888889,349.5L-72.22222222222221,349.75L-45.55555555555556,349.25L-18.88888888888889,349.5L7.777777777777778,350L34.44444444444444,350L61.111111111111114,349.75L87.77777777777777,349.75L114.44444444444444,349L141.11111111111111,349.75L167.77777777777777,350L194.44444444444443,349.75L221.11111111111111,349.5L247.77777777777777,349L274.44444444444446,350.5L301.1111111111111,349.5L327.77777777777777,349.75L354.44444444444446,349.75L381.1111111111111,350L407.77777777777777,350" stroke="#f58518" stroke-width="2" opacity="0.2"></path></g></g><path class="foreground" aria-hidden="true" d="" display="none"></path></g><g transform="translate(0,0)"><path class="background" aria-hidden="true" d="M0,0h400v400h-400Z"></path><g><g class="mark-line role-mark concat_0_layer_0_marks" clip-path="url(#clip3)" role="graphics-object" aria-roledescription="line mark container"><path aria-label="Type: Confirmed; Date: Mar 01; Count: 3" role="graphics-symbol" aria-roledescription="line mark" d="M-2177.777777777778,349.25L-2151.1111111111113,350L-2124.4444444444443,350L-2097.777777777778,350L-2071.1111111111113,348.5L-2044.4444444444443,349.25L-2017.7777777777778,350L-1991.111111111111,348L-1965.5555555555554,348.25L-1938.888888888889,347.5L-1912.2222222222224,345.25L-1885.5555555555554,350L-1858.888888888889,326L-1832.2222222222222,332.5L-1805.5555555555557,345.25L-1778.8888888888887,341.75L-1752.2222222222222,339L-1725.5555555555557,346.25L-1698.8888888888887,334L-1672.2222222222222,337.5L-1645.5555555555557,331.75L-1618.888888888889,324.25L-1592.2222222222222,331.5L-1565.5555555555554,327L-1538.888888888889,328L-1512.2222222222222,330.5L-1485.5555555555557,329.25L-1458.888888888889,318.5L-1432.2222222222222,331.75L-1405.5555555555554,322L-1378.888888888889,333.5L-1352.2222222222222,343L-1325.5555555555557,332L-1298.888888888889,325.75L-1272.2222222222222,283.25L-1245.5555555555557,338.75L-1218.888888888889,287.75L-1192.2222222222222,317L-1165.5555555555554,305.25L-1138.888888888889,320.5L-1112.2222222222222,309L-1085.5555555555557,316L-1058.888888888889,332.75L-1032.2222222222222,327.5L-1005.5555555555555,325.75L-978.8888888888889,331L-952.2222222222222,317L-925.5555555555557,320L-898.8888888888889,302L-872.2222222222222,324.5L-845.5555555555555,328.75L-818.8888888888888,313.5L-792.2222222222223,321.25L-765.5555555555555,311.25L-738.8888888888889,322.25L-712.2222222222222,330L-685.5555555555555,324.75L-658.8888888888889,320.25L-632.2222222222222,338.75L-605.5555555555555,308.5L-578.8888888888889,327.75L-552.2222222222222,336L-525.5555555555555,318.75L-498.8888888888889,330.5L-472.22222222222223,331.75L-445.55555555555554,328.75L-418.8888888888889,309.75L-392.22222222222223,325L-365.55555555555554,333.75L-338.88888888888886,314.5L-312.22222222222223,329.5L-285.55555555555554,344.5L-258.8888888888889,345.25L-232.22222222222223,337.25L-205.55555555555554,327.25L-178.88888888888889,329.25L-152.22222222222223,335.5L-125.55555555555556,334.75L-98.88888888888889,341.75L-72.22222222222221,345.25L-45.55555555555556,339L-18.88888888888889,337.5L7.777777777777778,339L34.44444444444444,342.25L61.111111111111114,347.25L87.77777777777777,345L114.44444444444444,342.75L141.11111111111111,334L167.77777777777777,337.25L194.44444444444443,341.75L221.11111111111111,337.5L247.77777777777777,341.75L274.44444444444446,343.5L301.1111111111111,349.5L327.77777777777777,344L354.44444444444446,350L381.1111111111111,342.5L407.77777777777777,344.25" stroke="#4c78a8" stroke-width="2" opacity="0.2"></path></g></g><path class="foreground" aria-hidden="true" d="" display="none"></path></g></g><g class="mark-group role-scope concat_0_layer_1_pathgroup" role="graphics-object" aria-roledescription="group mark container"><g transform="translate(0,0)"><path class="background" aria-hidden="true" d="M0,0h400v400h-400Z"></path><g><g class="mark-line role-mark concat_0_layer_1_marks" clip-path="url(#clip4)" role="graphics-object" aria-roledescription="line mark container"><path aria-label="Type: Recovered; Date: Mar 01; Count: 0" role="graphics-symbol" aria-roledescription="line mark" d="M-2017.7777777777778,350L-1991.111111111111,350L-1965.5555555555554,350L-1938.888888888889,350L-1912.2222222222224,350L-1885.5555555555554,350L-1858.888888888889,350L-1832.2222222222222,350L-1805.5555555555557,349.67857142857144L-1778.8888888888887,349.67857142857144L-1752.2222222222222,349.67857142857144L-1725.5555555555557,349.67857142857144L-1698.8888888888887,349.67857142857144L-1672.2222222222222,349.67857142857144L-1645.5555555555557,349.67857142857144L-1618.888888888889,350L-1592.2222222222222,350L-1565.5555555555554,350L-1538.888888888889,350L-1512.2222222222222,350L-1485.5555555555557,350L-1458.888888888889,350L-1432.2222222222222,350L-1405.5555555555554,350L-1378.888888888889,350L-1352.2222222222222,350L-1325.5555555555557,339.6428571428571L-1298.888888888889,339.6428571428571L-1272.2222222222222,339.6428571428571L-1245.5555555555557,339.6428571428571L-1218.888888888889,339.6428571428571L-1192.2222222222222,339.6428571428571L-1165.5555555555554,339.6428571428571L-1138.888888888889,350L-1112.2222222222222,350L-1085.5555555555557,350L-1058.888888888889,350L-1032.2222222222222,350L-1005.5555555555555,350L-978.8888888888889,350L-952.2222222222222,300L-925.5555555555557,300L-898.8888888888889,300L-872.2222222222222,300L-845.5555555555555,289.2857142857143L-818.8888888888888,289.2857142857143L-792.2222222222223,289.2857142857143L-765.5555555555555,339.2857142857143L-738.8888888888889,321.42857142857144L-712.2222222222222,321.42857142857144L-685.5555555555555,321.42857142857144L-658.8888888888889,332.1428571428571L-632.2222222222222,321.42857142857144L-605.5555555555555,321.42857142857144L-578.8888888888889,314.2857142857143L-552.2222222222222,332.1428571428571L-525.5555555555555,332.1428571428571L-498.8888888888889,332.1428571428571L-472.22222222222223,314.2857142857143L-445.55555555555554,325L-418.8888888888889,325L-392.22222222222223,332.1428571428571L-365.55555555555554,314.2857142857143L-338.88888888888886,314.2857142857143L-312.22222222222223,314.2857142857143L-285.55555555555554,332.1428571428571L-258.8888888888889,321.42857142857144L-232.22222222222223,321.42857142857144L-205.55555555555554,321.42857142857144L-178.88888888888889,314.2857142857143L-152.22222222222223,314.2857142857143L-125.55555555555556,314.2857142857143L-98.88888888888889,314.2857142857143L-72.22222222222221,325L-45.55555555555556,332.1428571428571L-18.88888888888889,332.1428571428571L7.777777777777778,357.14285714285717L34.44444444444444,357.14285714285717L61.111111111111114,357.14285714285717L87.77777777777777,346.42857142857144L114.44444444444444,346.42857142857144L141.11111111111111,339.2857142857143L167.77777777777777,325L194.44444444444443,325L221.11111111111111,325L247.77777777777777,325L274.44444444444446,335.7142857142857L301.1111111111111,335.7142857142857L327.77777777777777,335.7142857142857L354.44444444444446,339.2857142857143L381.1111111111111,339.2857142857143L407.77777777777777,339.2857142857143" stroke="#e45756" stroke-width="2" opacity="1"></path></g></g><path class="foreground" aria-hidden="true" d="" display="none"></path></g><g transform="translate(0,0)"><path class="background" aria-hidden="true" d="M0,0h400v400h-400Z"></path><g><g class="mark-line role-mark concat_0_layer_1_marks" clip-path="url(#clip5)" role="graphics-object" aria-roledescription="line mark container"><path aria-label="Type: Deaths; Date: Mar 01; Count: 0" role="graphics-symbol" aria-roledescription="line mark" d="M-2017.7777777777778,350L-1991.111111111111,350L-1965.5555555555554,350L-1938.888888888889,350L-1912.2222222222224,350L-1885.5555555555554,350L-1858.888888888889,350L-1832.2222222222222,350L-1805.5555555555557,350L-1778.8888888888887,350L-1752.2222222222222,350L-1725.5555555555557,350L-1698.8888888888887,350L-1672.2222222222222,350L-1645.5555555555557,349.9642857142857L-1618.888888888889,349.9642857142857L-1592.2222222222222,349.9642857142857L-1565.5555555555554,349.9642857142857L-1538.888888888889,349.8928571428571L-1512.2222222222222,349.8214285714286L-1485.5555555555557,349.75L-1458.888888888889,349.7142857142857L-1432.2222222222222,349.64285714285717L-1405.5555555555554,349.57142857142856L-1378.888888888889,349.42857142857144L-1352.2222222222222,349.5L-1325.5555555555557,349.5L-1298.888888888889,349.5357142857143L-1272.2222222222222,349.42857142857144L-1245.5555555555557,349.39285714285717L-1218.888888888889,349.5L-1192.2222222222222,349.39285714285717L-1165.5555555555554,349.17857142857144L-1138.888888888889,349.17857142857144L-1112.2222222222222,349L-1085.5555555555557,349.14285714285717L-1058.888888888889,349L-1032.2222222222222,348.85714285714283L-1005.5555555555555,348.92857142857144L-978.8888888888889,348.85714285714283L-952.2222222222222,348.82142857142856L-925.5555555555557,348.7857142857143L-898.8888888888889,348.5357142857143L-872.2222222222222,348.6428571428571L-845.5555555555555,348.60714285714283L-818.8888888888888,347.25L-792.2222222222223,347.25L-765.5555555555555,346.5357142857143L-738.8888888888889,346.60714285714283L-712.2222222222222,346.57142857142856L-685.5555555555555,346.57142857142856L-658.8888888888889,346.60714285714283L-632.2222222222222,347.9285714285714L-605.5555555555555,347.9642857142857L-578.8888888888889,348.60714285714283L-552.2222222222222,348.5357142857143L-525.5555555555555,348.7857142857143L-498.8888888888889,348.57142857142856L-472.22222222222223,348.32142857142856L-445.55555555555554,348.32142857142856L-418.8888888888889,348.35714285714283L-392.22222222222223,348.42857142857144L-365.55555555555554,348.5L-338.88888888888886,348.39285714285717L-312.22222222222223,348.67857142857144L-285.55555555555554,348.89285714285717L-258.8888888888889,348.9642857142857L-232.22222222222223,348.85714285714283L-205.55555555555554,348.85714285714283L-178.88888888888889,348.82142857142856L-152.22222222222223,348.85714285714283L-125.55555555555556,348.89285714285717L-98.88888888888889,348.9642857142857L-72.22222222222221,349.07142857142856L-45.55555555555556,349.2857142857143L-18.88888888888889,349.32142857142856L7.777777777777778,349.5357142857143L34.44444444444444,349.67857142857144L61.111111111111114,349.67857142857144L87.77777777777777,349.7142857142857L114.44444444444444,349.6071428571429L141.11111111111111,349.67857142857144L167.77777777777777,349.75L194.44444444444443,349.7142857142857L221.11111111111111,349.64285714285717L247.77777777777777,349.5357142857143L274.44444444444446,349.64285714285717L301.1111111111111,349.7142857142857L327.77777777777777,349.7142857142857L354.44444444444446,349.67857142857144L381.1111111111111,349.7142857142857L407.77777777777777,349.7857142857143" stroke="#f58518" stroke-width="2" opacity="1"></path></g></g><path class="foreground" aria-hidden="true" d="" display="none"></path></g><g transform="translate(0,0)"><path class="background" aria-hidden="true" d="M0,0h400v400h-400Z"></path><g><g class="mark-line role-mark concat_0_layer_1_marks" clip-path="url(#clip6)" role="graphics-object" aria-roledescription="line mark container"><path aria-label="Type: Confirmed; Date: Mar 01; Count: 0" role="graphics-symbol" aria-roledescription="line mark" d="M-2017.7777777777778,349.57142857142856L-1991.111111111111,349.39285714285717L-1965.5555555555554,349.14285714285717L-1938.888888888889,348.7857142857143L-1912.2222222222224,348.10714285714283L-1885.5555555555554,348.32142857142856L-1858.888888888889,345L-1832.2222222222222,342.5L-1805.5555555555557,342.10714285714283L-1778.8888888888887,341.17857142857144L-1752.2222222222222,339.9642857142857L-1725.5555555555557,340.10714285714283L-1698.8888888888887,337.82142857142856L-1672.2222222222222,339.4642857142857L-1645.5555555555557,339.3571428571429L-1618.888888888889,336.35714285714283L-1592.2222222222222,334.89285714285717L-1565.5555555555554,333.1785714285714L-1538.888888888889,330.57142857142856L-1512.2222222222222,330.07142857142856L-1485.5555555555557,328.89285714285717L-1458.888888888889,327L-1432.2222222222222,328.07142857142856L-1405.5555555555554,326.7142857142857L-1378.888888888889,327.6428571428571L-1352.2222222222222,329.7857142857143L-1325.5555555555557,330L-1298.888888888889,329.5L-1272.2222222222222,324.4642857142857L-1245.5555555555557,325.4642857142857L-1218.888888888889,320.57142857142856L-1192.2222222222222,318.2142857142857L-1165.5555555555554,312.82142857142856L-1138.888888888889,311.17857142857144L-1112.2222222222222,308.7857142857143L-1085.5555555555557,313.4642857142857L-1058.888888888889,312.6071428571429L-1032.2222222222222,318.2857142857143L-1005.5555555555555,319.5357142857143L-978.8888888888889,323.2142857142857L-952.2222222222222,322.7142857142857L-925.5555555555557,324.2857142857143L-898.8888888888889,322.2857142857143L-872.2222222222222,321.10714285714283L-845.5555555555555,321.2857142857143L-818.8888888888888,319.5357142857143L-792.2222222222223,318.14285714285717L-765.5555555555555,317.32142857142856L-738.8888888888889,317.64285714285717L-712.2222222222222,321.64285714285717L-685.5555555555555,321.67857142857144L-658.8888888888889,320.4642857142857L-632.2222222222222,324.07142857142856L-605.5555555555555,322.25L-578.8888888888889,324.6071428571429L-552.2222222222222,326.57142857142856L-525.5555555555555,324.9642857142857L-498.8888888888889,325.7857142857143L-472.22222222222223,327.42857142857144L-445.55555555555554,326L-418.8888888888889,326.17857142857144L-392.22222222222223,325.7857142857143L-365.55555555555554,325.4642857142857L-338.88888888888886,324.8571428571429L-312.22222222222223,324.7142857142857L-285.55555555555554,326.5357142857143L-258.8888888888889,328.89285714285717L-232.22222222222223,332.82142857142856L-205.55555555555554,333.14285714285717L-178.88888888888889,332.5L-152.22222222222223,335.5L-125.55555555555556,336.25L-98.88888888888889,335.85714285714283L-72.22222222222221,335.85714285714283L-45.55555555555556,336.10714285714283L-18.88888888888889,337.57142857142856L7.777777777777778,338.9642857142857L34.44444444444444,339.92857142857144L61.111111111111114,341.7142857142857L87.77777777777777,342.17857142857144L114.44444444444444,341.8214285714286L141.11111111111111,341.1071428571429L167.77777777777777,341.07142857142856L194.44444444444443,341.4642857142857L221.11111111111111,340.7857142857143L247.77777777777777,340L274.44444444444446,339.7857142857143L301.1111111111111,340.75L327.77777777777777,342.17857142857144L354.44444444444446,344L381.1111111111111,344.10714285714283L407.77777777777777,345.07142857142856" stroke="#4c78a8" stroke-width="2" opacity="1"></path></g></g><path class="foreground" aria-hidden="true" d="" display="none"></path></g></g><g class="mark-group role-title"><g transform="translate(200,-54)"><path class="background" aria-hidden="true" d="M0,0h0v0h0Z" pointer-events="none"></path><g><g class="mark-text role-title-text" role="graphics-symbol" aria-roledescription="title" aria-label="Title text '7-day average (light color: daily values) [2020-06-06]'" pointer-events="none"><text text-anchor="middle" transform="translate(0,10)" font-family="Roboto Condensed" font-size="13px" font-weight="normal" fill="#000" opacity="1"><tspan>7-day average (light color: daily values)</tspan><tspan x="0" dy="15">[2020-06-06]</tspan></text></g></g><path class="foreground" aria-hidden="true" d="" pointer-events="none" display="none"></path></g></g></g><path class="foreground" aria-hidden="true" d="" display="none"></path></g></g><g class="mark-group role-scope concat_1_group" role="graphics-object" aria-roledescription="group mark container"><g transform="translate(465,0)"><path class="background" aria-hidden="true" d="M0,0h400v400h-400Z" stroke="#ddd" stroke-width="0"></path><g><g class="mark-group role-axis" aria-hidden="true"><g transform="translate(0.5,0.5)"><path class="background" aria-hidden="true" d="M0,0h0v0h0Z" pointer-events="none"></path><g><g class="mark-rule role-axis-grid" pointer-events="none"><line transform="translate(0,400)" x2="400" y2="0" stroke="#ddd" stroke-width="1" opacity="1"></line><line transform="translate(0,371)" x2="400" y2="0" stroke="#ddd" stroke-width="1" opacity="1"></line><line transform="translate(0,343)" x2="400" y2="0" stroke="#ddd" stroke-width="1" opacity="1"></line><line transform="translate(0,314)" x2="400" y2="0" stroke="#ddd" stroke-width="1" opacity="1"></line><line transform="translate(0,286)" x2="400" y2="0" stroke="#ddd" stroke-width="1" opacity="1"></line><line transform="translate(0,257)" x2="400" y2="0" stroke="#ddd" stroke-width="1" opacity="1"></line><line transform="translate(0,229)" x2="400" y2="0" stroke="#ddd" stroke-width="1" opacity="1"></line><line transform="translate(0,200)" x2="400" y2="0" stroke="#ddd" stroke-width="1" opacity="1"></line><line transform="translate(0,171)" x2="400" y2="0" stroke="#ddd" stroke-width="1" opacity="1"></line><line transform="translate(0,143)" x2="400" y2="0" stroke="#ddd" stroke-width="1" opacity="1"></line><line transform="translate(0,114)" x2="400" y2="0" stroke="#ddd" stroke-width="1" opacity="1"></line><line transform="translate(0,86)" x2="400" y2="0" stroke="#ddd" stroke-width="1" opacity="1"></line><line transform="translate(0,57)" x2="400" y2="0" stroke="#ddd" stroke-width="1" opacity="1"></line><line transform="translate(0,29)" x2="400" y2="0" stroke="#ddd" stroke-width="1" opacity="1"></line><line transform="translate(0,0)" x2="400" y2="0" stroke="#ddd" stroke-width="1" opacity="1"></line></g></g><path class="foreground" aria-hidden="true" d="" pointer-events="none" display="none"></path></g></g><g class="mark-group role-axis" role="graphics-symbol" aria-roledescription="axis" aria-label="X-axis titled 'Date' for a time scale with values from May 21 to June 05"><g transform="translate(0.5,400.5)"><path class="background" aria-hidden="true" d="M0,0h0v0h0Z" pointer-events="none"></path><g><g class="mark-text role-axis-label" pointer-events="none"><text text-anchor="middle" transform="translate(34.44444444444444,10)" font-family="Roboto Condensed" font-size="10px" fill="#000" opacity="1">May 23</text><text text-anchor="middle" transform="translate(87.77777777777777,10)" font-family="Roboto Condensed" font-size="10px" fill="#000" opacity="0">May 25</text><text text-anchor="middle" transform="translate(141.11111111111111,10)" font-family="Roboto Condensed" font-size="10px" fill="#000" opacity="1">May 27</text><text text-anchor="middle" transform="translate(194.44444444444443,10)" font-family="Roboto Condensed" font-size="10px" fill="#000" opacity="0">May 29</text><text text-anchor="middle" transform="translate(247.77777777777777,10)" font-family="Roboto Condensed" font-size="10px" fill="#000" opacity="1">May 31</text><text text-anchor="middle" transform="translate(274.44444444444446,10)" font-family="Roboto Condensed" font-size="10px" fill="#000" opacity="0">Jun 01</text><text text-anchor="middle" transform="translate(327.77777777777777,10)" font-family="Roboto Condensed" font-size="10px" fill="#000" opacity="1">Jun 03</text><text text-anchor="middle" transform="translate(381.1111111111111,10)" font-family="Roboto Condensed" font-size="10px" fill="#000" opacity="0">Jun 05</text></g><g class="mark-rule role-axis-domain" pointer-events="none"><line transform="translate(0,0)" x2="400" y2="0" stroke="lightgray" stroke-width="1" opacity="1"></line></g><g class="mark-text role-axis-title" pointer-events="none"><text text-anchor="middle" transform="translate(200,25)" font-family="Roboto Condensed" font-size="11px" font-weight="normal" fill="#000" opacity="1">Date</text></g></g><path class="foreground" aria-hidden="true" d="" pointer-events="none" display="none"></path></g></g><g class="mark-group role-axis" role="graphics-symbol" aria-roledescription="axis" aria-label="Y-axis titled 'Count' for a linear scale with values from 0 to 7,000"><g transform="translate(0.5,0.5)"><path class="background" aria-hidden="true" d="M0,0h0v0h0Z" pointer-events="none"></path><g><g class="mark-text role-axis-label" pointer-events="none"><text text-anchor="end" transform="translate(-2,403)" font-family="Roboto Condensed" font-size="10px" fill="#000" opacity="1">0</text><text text-anchor="end" transform="translate(-2,374.42857142857144)" font-family="Roboto Condensed" font-size="10px" fill="#000" opacity="1">500</text><text text-anchor="end" transform="translate(-2,345.8571428571429)" font-family="Roboto Condensed" font-size="10px" fill="#000" opacity="1">1,000</text><text text-anchor="end" transform="translate(-2,317.2857142857143)" font-family="Roboto Condensed" font-size="10px" fill="#000" opacity="1">1,500</text><text text-anchor="end" transform="translate(-2,288.7142857142857)" font-family="Roboto Condensed" font-size="10px" fill="#000" opacity="1">2,000</text><text text-anchor="end" transform="translate(-2,260.1428571428571)" font-family="Roboto Condensed" font-size="10px" fill="#000" opacity="1">2,500</text><text text-anchor="end" transform="translate(-2,231.57142857142856)" font-family="Roboto Condensed" font-size="10px" fill="#000" opacity="1">3,000</text><text text-anchor="end" transform="translate(-2,203)" font-family="Roboto Condensed" font-size="10px" fill="#000" opacity="1">3,500</text><text text-anchor="end" transform="translate(-2,174.42857142857144)" font-family="Roboto Condensed" font-size="10px" fill="#000" opacity="1">4,000</text><text text-anchor="end" transform="translate(-2,145.85714285714283)" font-family="Roboto Condensed" font-size="10px" fill="#000" opacity="1">4,500</text><text text-anchor="end" transform="translate(-2,117.28571428571428)" font-family="Roboto Condensed" font-size="10px" fill="#000" opacity="1">5,000</text><text text-anchor="end" transform="translate(-2,88.71428571428572)" font-family="Roboto Condensed" font-size="10px" fill="#000" opacity="1">5,500</text><text text-anchor="end" transform="translate(-2,60.14285714285716)" font-family="Roboto Condensed" font-size="10px" fill="#000" opacity="1">6,000</text><text text-anchor="end" transform="translate(-2,31.57142857142856)" font-family="Roboto Condensed" font-size="10px" fill="#000" opacity="1">6,500</text><text text-anchor="end" transform="translate(-2,3)" font-family="Roboto Condensed" font-size="10px" fill="#000" opacity="1">7,000</text></g><g class="mark-rule role-axis-domain" pointer-events="none"><line transform="translate(0,400)" x2="0" y2="-400" stroke="lightgray" stroke-width="1" opacity="1"></line></g><g class="mark-text role-axis-title" pointer-events="none"><text text-anchor="start" transform="translate(-45,-13)" font-family="Roboto Condensed" font-size="11px" font-weight="normal" fill="#000" opacity="1">Count</text></g></g><path class="foreground" aria-hidden="true" d="" pointer-events="none" display="none"></path></g></g><g class="mark-group role-scope concat_1_pathgroup" role="graphics-object" aria-roledescription="group mark container"><g transform="translate(0,0)"><path class="background" aria-hidden="true" d="M0,0h400v400h-400Z"></path><g><g class="mark-line role-mark concat_1_marks" clip-path="url(#clip7)" role="graphics-object" aria-roledescription="line mark container"><path aria-label="Type: Recovered; Date: Mar 01; Country: Finland; Confirmed: 6; Recovered: 1; Deaths: 0; Count: 1" role="graphics-symbol" aria-roledescription="line mark" d="M-2177.777777777778,399.9428571428572L-2151.1111111111113,399.9428571428572L-2124.4444444444443,399.9428571428572L-2097.777777777778,399.9428571428572L-2071.1111111111113,399.9428571428572L-2044.4444444444443,399.9428571428572L-2017.7777777777778,399.9428571428572L-1991.111111111111,399.9428571428572L-1965.5555555555554,399.9428571428572L-1938.888888888889,399.9428571428572L-1912.2222222222224,399.9428571428572L-1885.5555555555554,399.9428571428572L-1858.888888888889,399.9428571428572L-1832.2222222222222,399.9428571428572L-1805.5555555555557,399.42857142857144L-1778.8888888888887,399.42857142857144L-1752.2222222222222,399.42857142857144L-1725.5555555555557,399.42857142857144L-1698.8888888888887,399.42857142857144L-1672.2222222222222,399.42857142857144L-1645.5555555555557,399.42857142857144L-1618.888888888889,399.42857142857144L-1592.2222222222222,399.42857142857144L-1565.5555555555554,399.42857142857144L-1538.888888888889,399.42857142857144L-1512.2222222222222,399.42857142857144L-1485.5555555555557,399.42857142857144L-1458.888888888889,399.42857142857144L-1432.2222222222222,399.42857142857144L-1405.5555555555554,399.42857142857144L-1378.888888888889,399.42857142857144L-1352.2222222222222,399.42857142857144L-1325.5555555555557,382.8571428571429L-1298.888888888889,382.8571428571429L-1272.2222222222222,382.8571428571429L-1245.5555555555557,382.8571428571429L-1218.888888888889,382.8571428571429L-1192.2222222222222,382.8571428571429L-1165.5555555555554,382.8571428571429L-1138.888888888889,382.8571428571429L-1112.2222222222222,382.8571428571429L-1085.5555555555557,382.8571428571429L-1058.888888888889,382.8571428571429L-1032.2222222222222,382.8571428571429L-1005.5555555555555,382.8571428571429L-978.8888888888889,382.8571428571429L-952.2222222222222,302.85714285714283L-925.5555555555557,302.85714285714283L-898.8888888888889,302.85714285714283L-872.2222222222222,302.85714285714283L-845.5555555555555,285.7142857142857L-818.8888888888888,285.7142857142857L-792.2222222222223,285.7142857142857L-765.5555555555555,285.7142857142857L-738.8888888888889,257.1428571428571L-712.2222222222222,257.1428571428571L-685.5555555555555,257.1428571428571L-658.8888888888889,257.1428571428571L-632.2222222222222,240L-605.5555555555555,240L-578.8888888888889,228.57142857142856L-552.2222222222222,228.57142857142856L-525.5555555555555,228.57142857142856L-498.8888888888889,228.57142857142856L-472.22222222222223,200L-445.55555555555554,200L-418.8888888888889,200L-392.22222222222223,200L-365.55555555555554,171.42857142857144L-338.88888888888886,171.42857142857144L-312.22222222222223,171.42857142857144L-285.55555555555554,171.42857142857144L-258.8888888888889,154.28571428571428L-232.22222222222223,154.28571428571428L-205.55555555555554,154.28571428571428L-178.88888888888889,114.28571428571428L-152.22222222222223,114.28571428571428L-125.55555555555556,114.28571428571428L-98.88888888888889,114.28571428571428L-72.22222222222221,114.28571428571428L-45.55555555555556,125.71428571428571L-18.88888888888889,125.71428571428571L7.777777777777778,125.71428571428571L34.44444444444444,125.71428571428571L61.111111111111114,125.71428571428571L87.77777777777777,108.57142857142858L114.44444444444444,108.57142857142858L141.11111111111111,108.57142857142858L167.77777777777777,85.71428571428572L194.44444444444443,85.71428571428572L221.11111111111111,85.71428571428572L247.77777777777777,85.71428571428572L274.44444444444446,85.71428571428572L301.1111111111111,85.71428571428572L327.77777777777777,85.71428571428572L354.44444444444446,68.57142857142856L381.1111111111111,68.57142857142856L407.77777777777777,68.57142857142856" stroke="#e45756" stroke-width="2" opacity="0.7"></path></g></g><path class="foreground" aria-hidden="true" d="" display="none"></path></g><g transform="translate(0,0)"><path class="background" aria-hidden="true" d="M0,0h400v400h-400Z"></path><g><g class="mark-line role-mark concat_1_marks" clip-path="url(#clip8)" role="graphics-object" aria-roledescription="line mark container"><path aria-label="Type: Deaths; Date: Mar 01; Country: Finland; Confirmed: 6; Recovered: 1; Deaths: 0; Count: 0" role="graphics-symbol" aria-roledescription="line mark" d="M-2177.777777777778,400L-2151.1111111111113,400L-2124.4444444444443,400L-2097.777777777778,400L-2071.1111111111113,400L-2044.4444444444443,400L-2017.7777777777778,400L-1991.111111111111,400L-1965.5555555555554,400L-1938.888888888889,400L-1912.2222222222224,400L-1885.5555555555554,400L-1858.888888888889,400L-1832.2222222222222,400L-1805.5555555555557,400L-1778.8888888888887,400L-1752.2222222222222,400L-1725.5555555555557,400L-1698.8888888888887,400L-1672.2222222222222,400L-1645.5555555555557,399.9428571428572L-1618.888888888889,399.9428571428572L-1592.2222222222222,399.9428571428572L-1565.5555555555554,399.9428571428572L-1538.888888888889,399.8285714285714L-1512.2222222222222,399.7142857142857L-1485.5555555555557,399.6L-1458.888888888889,399.48571428571427L-1432.2222222222222,399.37142857142857L-1405.5555555555554,399.25714285714287L-1378.888888888889,399.0285714285714L-1352.2222222222222,399.0285714285714L-1325.5555555555557,398.9142857142857L-1298.888888888889,398.85714285714283L-1272.2222222222222,398.57142857142856L-1245.5555555555557,398.4L-1218.888888888889,398.45714285714286L-1192.2222222222222,398.0571428571428L-1165.5555555555554,397.7142857142857L-1138.888888888889,397.6L-1112.2222222222222,397.25714285714287L-1085.5555555555557,397.2L-1058.888888888889,396.8L-1032.2222222222222,396.62857142857143L-1005.5555555555555,396.34285714285716L-978.8888888888889,395.8857142857143L-952.2222222222222,395.7142857142857L-925.5555555555557,395.31428571428575L-898.8888888888889,394.85714285714283L-872.2222222222222,394.62857142857143L-845.5555555555555,394.4L-818.8888888888888,391.9428571428571L-792.2222222222223,391.4857142857143L-765.5555555555555,390.1714285714286L-738.8888888888889,389.8857142857143L-712.2222222222222,389.37142857142857L-685.5555555555555,389.14285714285717L-658.8888888888889,388.9714285714286L-632.2222222222222,388.62857142857143L-605.5555555555555,388.2285714285714L-578.8888888888889,387.9428571428571L-552.2222222222222,387.54285714285714L-525.5555555555555,387.4285714285714L-498.8888888888889,386.8571428571429L-472.22222222222223,386.2857142857143L-445.55555555555554,385.9428571428571L-418.8888888888889,385.59999999999997L-392.22222222222223,385.4285714285714L-365.55555555555554,385.14285714285717L-338.88888888888886,384.8571428571429L-312.22222222222223,384.74285714285713L-285.55555555555554,384.51428571428573L-258.8888888888889,384.2857142857143L-232.22222222222223,383.77142857142854L-205.55555555555554,383.59999999999997L-178.88888888888889,383.25714285714287L-152.22222222222223,383.0285714285714L-125.55555555555556,382.9714285714286L-98.88888888888889,382.8571428571429L-72.22222222222221,382.8L-45.55555555555556,382.62857142857143L-18.88888888888889,382.51428571428573L7.777777777777778,382.51428571428573L34.44444444444444,382.51428571428573L61.111111111111114,382.45714285714286L87.77777777777777,382.4L114.44444444444444,382.1714285714286L141.11111111111111,382.1142857142857L167.77777777777777,382.1142857142857L194.44444444444443,382.0571428571429L221.11111111111111,381.9428571428571L247.77777777777777,381.7142857142857L274.44444444444446,381.8285714285714L301.1111111111111,381.7142857142857L327.77777777777777,381.65714285714284L354.44444444444446,381.59999999999997L381.1111111111111,381.59999999999997L407.77777777777777,381.59999999999997" stroke="#f58518" stroke-width="2" opacity="0.7"></path></g></g><path class="foreground" aria-hidden="true" d="" display="none"></path></g><g transform="translate(0,0)"><path class="background" aria-hidden="true" d="M0,0h400v400h-400Z"></path><g><g class="mark-line role-mark concat_1_marks" clip-path="url(#clip9)" role="graphics-object" aria-roledescription="line mark container"><path aria-label="Type: Confirmed; Date: Mar 01; Country: Finland; Confirmed: 6; Recovered: 1; Deaths: 0; Count: 6" role="graphics-symbol" aria-roledescription="line mark" d="M-2177.777777777778,399.65714285714284L-2151.1111111111113,399.65714285714284L-2124.4444444444443,399.65714285714284L-2097.777777777778,399.65714285714284L-2071.1111111111113,399.31428571428575L-2044.4444444444443,399.14285714285717L-2017.7777777777778,399.14285714285717L-1991.111111111111,398.68571428571425L-1965.5555555555554,398.2857142857143L-1938.888888888889,397.7142857142857L-1912.2222222222224,396.62857142857143L-1885.5555555555554,396.62857142857143L-1858.888888888889,391.14285714285717L-1832.2222222222222,387.14285714285717L-1805.5555555555557,386.0571428571429L-1778.8888888888887,384.1714285714286L-1752.2222222222222,381.65714285714284L-1725.5555555555557,380.79999999999995L-1698.8888888888887,377.1428571428571L-1672.2222222222222,374.2857142857143L-1645.5555555555557,370.1142857142857L-1618.888888888889,364.22857142857146L-1592.2222222222222,360L-1565.5555555555554,354.74285714285713L-1538.888888888889,349.7142857142857L-1512.2222222222222,345.25714285714287L-1485.5555555555557,340.51428571428573L-1458.888888888889,333.31428571428575L-1432.2222222222222,329.1428571428571L-1405.5555555555554,322.74285714285713L-1378.888888888889,318.97142857142853L-1352.2222222222222,317.37142857142857L-1325.5555555555557,313.25714285714287L-1298.888888888889,307.7142857142857L-1272.2222222222222,292.45714285714286L-1245.5555555555557,289.88571428571424L-1218.888888888889,275.65714285714284L-1192.2222222222222,268.1142857142857L-1165.5555555555554,257.8857142857143L-1138.888888888889,251.14285714285717L-1112.2222222222222,241.77142857142857L-1085.5555555555557,234L-1058.888888888889,230.05714285714288L-1032.2222222222222,224.9142857142857L-1005.5555555555555,219.3714285714286L-978.8888888888889,215.02857142857144L-952.2222222222222,207.48571428571427L-925.5555555555557,200.62857142857143L-898.8888888888889,189.65714285714284L-872.2222222222222,183.82857142857142L-845.5555555555555,178.97142857142856L-818.8888888888888,170.62857142857143L-792.2222222222223,164.05714285714285L-765.5555555555555,155.20000000000002L-738.8888888888889,148.85714285714283L-712.2222222222222,144.2857142857143L-685.5555555555555,138.51428571428573L-658.8888888888889,131.71428571428572L-632.2222222222222,129.14285714285714L-605.5555555555555,119.65714285714286L-578.8888888888889,114.57142857142858L-552.2222222222222,111.3714285714286L-525.5555555555555,104.22857142857143L-498.8888888888889,99.77142857142857L-472.22222222222223,95.6L-445.55555555555554,90.74285714285715L-418.8888888888889,81.54285714285714L-392.22222222222223,75.82857142857145L-365.55555555555554,72.11428571428571L-338.88888888888886,64.00000000000001L-312.22222222222223,59.314285714285695L-285.55555555555554,58.05714285714285L-258.8888888888889,56.97142857142858L-232.22222222222223,54.05714285714285L-205.55555555555554,48.85714285714285L-178.88888888888889,44.11428571428573L-152.22222222222223,40.79999999999999L-125.55555555555556,37.314285714285724L-98.88888888888889,35.42857142857141L-72.22222222222221,34.34285714285714L-45.55555555555556,31.82857142857145L-18.88888888888889,28.97142857142856L7.777777777777778,26.45714285714287L34.44444444444444,24.68571428571429L61.111111111111114,24.057142857142864L87.77777777777777,22.91428571428571L114.44444444444444,21.257142857142863L141.11111111111111,17.600000000000016L167.77777777777777,14.68571428571428L194.44444444444443,12.800000000000011L221.11111111111111,9.942857142857164L247.77777777777777,8.057142857142852L274.44444444444446,6.571428571428584L301.1111111111111,6.45714285714285L327.77777777777777,5.085714285714271L354.44444444444446,5.085714285714271L381.1111111111111,3.3714285714285808L407.77777777777777,2.0571428571428463" stroke="#4c78a8" stroke-width="2" opacity="0.7"></path></g></g><path class="foreground" aria-hidden="true" d="" display="none"></path></g></g><g class="mark-group role-title"><g transform="translate(200,-54)"><path class="background" aria-hidden="true" d="M0,0h0v0h0Z" pointer-events="none"></path><g><g class="mark-text role-title-text" role="graphics-symbol" aria-roledescription="title" aria-label="Title text 'Total [2020-06-06]'" pointer-events="none"><text text-anchor="middle" transform="translate(0,10)" font-family="Roboto Condensed" font-size="13px" font-weight="normal" fill="#000" opacity="1"><tspan>Total</tspan><tspan x="0" dy="15">[2020-06-06]</tspan></text></g></g><path class="foreground" aria-hidden="true" d="" pointer-events="none" display="none"></path></g></g></g><path class="foreground" aria-hidden="true" d="" display="none"></path></g></g><g class="mark-group role-legend" role="graphics-symbol" aria-roledescription="legend" aria-label="Symbol legend for stroke color with 3 values: Confirmed, Deaths, Recovered"><g transform="translate(883,0)"><path class="background" aria-hidden="true" d="M0,0h58v37h-58Z" pointer-events="none"></path><g><g class="mark-group role-legend-entry"><g transform="translate(0,0)"><path class="background" aria-hidden="true" d="M0,0h0v0h0Z" pointer-events="none"></path><g><g class="mark-group role-scope" role="graphics-object" aria-roledescription="group mark container"><g transform="translate(0,0)"><path class="background" aria-hidden="true" d="M0,0h58v11h-58Z" pointer-events="none" opacity="1"></path><g><g class="mark-symbol role-legend-symbol" pointer-events="none"><path transform="translate(6,6)" d="M-5,0L5,0" stroke="#4c78a8" stroke-width="1.5" opacity="0.2"></path></g><g class="mark-text role-legend-label" pointer-events="none"><text text-anchor="start" transform="translate(16,9)" font-family="Roboto Condensed" font-size="10px" fill="#000" opacity="1">Confirmed</text></g></g><path class="foreground" aria-hidden="true" d="" pointer-events="none" display="none"></path></g><g transform="translate(0,13)"><path class="background" aria-hidden="true" d="M0,0h58v11h-58Z" pointer-events="none" opacity="1"></path><g><g class="mark-symbol role-legend-symbol" pointer-events="none"><path transform="translate(6,6)" d="M-5,0L5,0" stroke="#f58518" stroke-width="1.5" opacity="0.2"></path></g><g class="mark-text role-legend-label" pointer-events="none"><text text-anchor="start" transform="translate(16,9)" font-family="Roboto Condensed" font-size="10px" fill="#000" opacity="1">Deaths</text></g></g><path class="foreground" aria-hidden="true" d="" pointer-events="none" display="none"></path></g><g transform="translate(0,26)"><path class="background" aria-hidden="true" d="M0,0h58v11h-58Z" pointer-events="none" opacity="1"></path><g><g class="mark-symbol role-legend-symbol" pointer-events="none"><path transform="translate(6,6)" d="M-5,0L5,0" stroke="#e45756" stroke-width="1.5" opacity="0.2"></path></g><g class="mark-text role-legend-label" pointer-events="none"><text text-anchor="start" transform="translate(16,9)" font-family="Roboto Condensed" font-size="10px" fill="#000" opacity="1">Recovered</text></g></g><path class="foreground" aria-hidden="true" d="" pointer-events="none" display="none"></path></g></g></g><path class="foreground" aria-hidden="true" d="" pointer-events="none" display="none"></path></g></g></g><path class="foreground" aria-hidden="true" d="" pointer-events="none" display="none"></path></g></g></g><path class="foreground" aria-hidden="true" d="" display="none"></path></g></g></g></svg>