<svg class="marks" width="996" height="491" viewBox="0 0 996 491" version="1.1" xmlns="http://www.w3.org/2000/svg" xmlns:xlink="http://www.w3.org/1999/xlink"><defs><clipPath id="clip1"><rect x="0" y="0" width="400" height="400"></rect></clipPath><clipPath id="clip2"><rect x="0" y="0" width="400" height="400"></rect></clipPath><clipPath id="clip3"><rect x="0" y="0" width="400" height="400"></rect></clipPath><clipPath id="clip4"><rect x="0" y="0" width="400" height="400"></rect></clipPath><clipPath id="clip5"><rect x="0" y="0" width="400" height="400"></rect></clipPath><clipPath id="clip6"><rect x="0" y="0" width="400" height="400"></rect></clipPath><clipPath id="clip7"><rect x="0" y="0" width="400" height="400"></rect></clipPath><clipPath id="clip8"><rect x="0" y="0" width="400" height="400"></rect></clipPath><clipPath id="clip9"><rect x="0" y="0" width="400" height="400"></rect></clipPath></defs><rect width="996" height="491" fill="white"></rect><g fill="none" stroke-miterlimit="10" transform="translate(50,59)"><g class="mark-group role-frame root" role="graphics-object" aria-roledescription="group mark container"><g transform="translate(0,0)"><path class="background" aria-hidden="true" d="M0,0h0v400h0Z"></path><g><g class="mark-group role-scope concat_0_group" role="graphics-object" aria-roledescription="group mark container"><g transform="translate(0,0)"><path class="background" aria-hidden="true" d="M0,0h400v400h-400Z" stroke="#ddd" stroke-width="0"></path><g><g class="mark-group role-axis" aria-hidden="true"><g transform="translate(0.5,0.5)"><path class="background" aria-hidden="true" d="M0,0h0v0h0Z" pointer-events="none"></path><g><g class="mark-rule role-axis-grid" pointer-events="none"><line transform="translate(0,400)" x2="400" y2="0" stroke="#ddd" stroke-width="1" opacity="1"></line><line transform="translate(0,367)" x2="400" y2="0" stroke="#ddd" stroke-width="1" opacity="1"></line><line transform="translate(0,333)" x2="400" y2="0" stroke="#ddd" stroke-width="1" opacity="1"></line><line transform="translate(0,300)" x2="400" y2="0" stroke="#ddd" stroke-width="1" opacity="1"></line><line transform="translate(0,267)" x2="400" y2="0" stroke="#ddd" stroke-width="1" opacity="1"></line><line transform="translate(0,233)" x2="400" y2="0" stroke="#ddd" stroke-width="1" opacity="1"></line><line transform="translate(0,200)" x2="400" y2="0" stroke="#ddd" stroke-width="1" opacity="1"></line><line transform="translate(0,167)" x2="400" y2="0" stroke="#ddd" stroke-width="1" opacity="1"></line><line transform="translate(0,133)" x2="400" y2="0" stroke="#ddd" stroke-width="1" opacity="1"></line><line transform="translate(0,100)" x2="400" y2="0" stroke="#ddd" stroke-width="1" opacity="1"></line><line transform="translate(0,67)" x2="400" y2="0" stroke="#ddd" stroke-width="1" opacity="1"></line><line transform="translate(0,33)" x2="400" y2="0" stroke="#ddd" stroke-width="1" opacity="1"></line><line transform="translate(0,0)" x2="400" y2="0" stroke="#ddd" stroke-width="1" opacity="1"></line></g></g><path class="foreground" aria-hidden="true" d="" pointer-events="none" display="none"></path></g></g><g class="mark-group role-axis" role="graphics-symbol" aria-roledescription="axis" aria-label="X-axis titled 'Date' for a time scale with values from May 21 to June 05"><g transform="translate(0.5,400.5)"><path class="background" aria-hidden="true" d="M0,0h0v0h0Z" pointer-events="none"></path><g><g class="mark-text role-axis-label" pointer-events="none"><text text-anchor="middle" transform="translate(34.44444444444444,10)" font-family="Roboto Condensed" font-size="10px" fill="#000" opacity="1">May 23</text><text text-anchor="middle" transform="translate(87.77777777777777,10)" font-family="Roboto Condensed" font-size="10px" fill="#000" opacity="0">May 25</text><text text-anchor="middle" transform="translate(141.11111111111111,10)" font-family="Roboto Condensed" font-size="10px" fill="#000" opacity="1">May 27</text><text text-anchor="middle" transform="translate(194.44444444444443,10)" font-family="Roboto Condensed" font-size="10px" fill="#000" opacity="0">May 29</text><text text-anchor="middle" transform="translate(247.77777777777777,10)" font-family="Roboto Condensed" font-size="10px" fill="#000" opacity="1">May 31</text><text text-anchor="middle" transform="translate(274.44444444444446,10)" font-family="Roboto Condensed" font-size="10px" fill="#000" opacity="0">Jun 01</text><text text-anchor="middle" transform="translate(327.77777777777777,10)" font-family="Roboto Condensed" font-size="10px" fill="#000" opacity="1">Jun 03</text><text text-anchor="middle" transform="translate(381.1111111111111,10)" font-family="Roboto Condensed" font-size="10px" fill="#000" opacity="0">Jun 05</text></g><g class="mark-rule role-axis-domain" pointer-events="none"><line transform="translate(0,0)" x2="400" y2="0" stroke="lightgray" stroke-width="1" opacity="1"></line></g><g class="mark-text role-axis-title" pointer-events="none"><text text-anchor="middle" transform="translate(200,25)" font-family="Roboto Condensed" font-size="11px" font-weight="normal" fill="#000" opacity="1">Date</text></g></g><path class="foreground" aria-hidden="true" d="" pointer-events="none" display="none"></path></g></g><g class="mark-group role-axis" role="graphics-symbol" aria-roledescription="axis" aria-label="Y-axis titled 'Count' for a linear scale with values from 0 to 2,400"><g transform="translate(0.5,0.5)"><path class="background" aria-hidden="true" d="M0,0h0v0h0Z" pointer-events="none"></path><g><g class="mark-text role-axis-label" pointer-events="none"><text text-anchor="end" transform="translate(-2,403)" font-family="Roboto Condensed" font-size="10px" fill="#000" opacity="1">0</text><text text-anchor="end" transform="translate(-2,369.66666666666663)" font-family="Roboto Condensed" font-size="10px" fill="#000" opacity="1">200</text><text text-anchor="end" transform="translate(-2,336.33333333333337)" font-family="Roboto Condensed" font-size="10px" fill="#000" opacity="1">400</text><text text-anchor="end" transform="translate(-2,303)" font-family="Roboto Condensed" font-size="10px" fill="#000" opacity="1">600</text><text text-anchor="end" transform="translate(-2,269.6666666666667)" font-family="Roboto Condensed" font-size="10px" fill="#000" opacity="1">800</text><text text-anchor="end" transform="translate(-2,236.33333333333331)" font-family="Roboto Condensed" font-size="10px" fill="#000" opacity="1">1,000</text><text text-anchor="end" transform="translate(-2,203)" font-family="Roboto Condensed" font-size="10px" fill="#000" opacity="1">1,200</text><text text-anchor="end" transform="translate(-2,169.66666666666666)" font-family="Roboto Condensed" font-size="10px" fill="#000" opacity="1">1,400</text><text text-anchor="end" transform="translate(-2,136.33333333333334)" font-family="Roboto Condensed" font-size="10px" fill="#000" opacity="1">1,600</text><text text-anchor="end" transform="translate(-2,103)" font-family="Roboto Condensed" font-size="10px" fill="#000" opacity="1">1,800</text><text text-anchor="end" transform="translate(-2,69.66666666666666)" font-family="Roboto Condensed" font-size="10px" fill="#000" opacity="1">2,000</text><text text-anchor="end" transform="translate(-2,36.33333333333335)" font-family="Roboto Condensed" font-size="10px" fill="#000" opacity="1">2,200</text><text text-anchor="end" transform="translate(-2,3)" font-family="Roboto Condensed" font-size="10px" fill="#000" opacity="1">2,400</text></g><g class="mark-rule role-axis-domain" pointer-events="none"><line transform="translate(0,400)" x2="0" y2="-400" stroke="lightgray" stroke-width="1" opacity="1"></line></g><g class="mark-text role-axis-title" pointer-events="none"><text text-anchor="start" transform="translate(-45,-13)" font-family="Roboto Condensed" font-size="11px" font-weight="normal" fill="#000" opacity="1">Count</text></g></g><path class="foreground" aria-hidden="true" d="" pointer-events="none" display="none"></path></g></g><g class="mark-group role-scope concat_0_layer_0_pathgroup" role="graphics-object" aria-roledescription="group mark container"><g transform="translate(0,0)"><path class="background" aria-hidden="true" d="M0,0h400v400h-400Z"></path><g><g class="mark-line role-mark concat_0_layer_0_marks" clip-path="url(#clip1)" role="graphics-object" aria-roledescription="line mark container"><path aria-label="Type: Recovered; Date: Mar 01; Count: 0" role="graphics-symbol" aria-roledescription="line mark" d="M-2177.777777777778,400L-2151.1111111111113,400L-2124.4444444444443,400L-2097.777777777778,400L-2071.1111111111113,400L-2044.4444444444443,400L-2017.7777777777778,400L-1991.111111111111,400L-1965.5555555555554,400L-1938.888888888889,400L-1912.2222222222224,400L-1885.5555555555554,400L-1858.888888888889,400L-1832.2222222222222,400L-1805.5555555555557,400L-1778.8888888888887,400L-1752.2222222222222,400L-1725.5555555555557,400L-1698.8888888888887,400L-1672.2222222222222,400L-1645.5555555555557,400L-1618.888888888889,400L-1592.2222222222222,400L-1565.5555555555554,400L-1538.888888888889,400L-1512.2222222222222,400L-1485.5555555555557,400L-1458.888888888889,400L-1432.2222222222222,400L-1405.5555555555554,400L-1378.888888888889,400L-1352.2222222222222,400L-1325.5555555555557,400L-1298.888888888889,400L-1272.2222222222222,400L-1245.5555555555557,400L-1218.888888888889,400L-1192.2222222222222,400L-1165.5555555555554,400L-1138.888888888889,400L-1112.2222222222222,400L-1085.5555555555557,400L-1058.888888888889,400L-1032.2222222222222,400L-1005.5555555555555,400L-978.8888888888889,400L-952.2222222222222,400L-925.5555555555557,400L-898.8888888888889,400L-872.2222222222222,400L-845.5555555555555,400L-818.8888888888888,400L-792.2222222222223,400L-765.5555555555555,400L-738.8888888888889,400L-712.2222222222222,400L-685.5555555555555,400L-658.8888888888889,400L-632.2222222222222,400L-605.5555555555555,400L-578.8888888888889,400L-552.2222222222222,400L-525.5555555555555,400L-498.8888888888889,400L-472.22222222222223,400L-445.55555555555554,400L-418.8888888888889,400L-392.22222222222223,400L-365.55555555555554,400L-338.88888888888886,400L-312.22222222222223,400L-285.55555555555554,400L-258.8888888888889,400L-232.22222222222223,400L-205.55555555555554,400L-178.88888888888889,400L-152.22222222222223,400L-125.55555555555556,400L-98.88888888888889,400L-72.22222222222221,400L-45.55555555555556,400L-18.88888888888889,400L7.777777777777778,400L34.44444444444444,400L61.111111111111114,400L87.77777777777777,400L114.44444444444444,400L141.11111111111111,400L167.77777777777777,400L194.44444444444443,400L221.11111111111111,400L247.77777777777777,400L274.44444444444446,400L301.1111111111111,400L327.77777777777777,400L354.44444444444446,400L381.1111111111111,400L407.77777777777777,400" stroke="#e45756" stroke-width="2" opacity="0.2"></path></g></g><path class="foreground" aria-hidden="true" d="" display="none"></path></g><g transform="translate(0,0)"><path class="background" aria-hidden="true" d="M0,0h400v400h-400Z"></path><g><g class="mark-line role-mark concat_0_layer_0_marks" clip-path="url(#clip2)" role="graphics-object" aria-roledescription="line mark container"><path aria-label="Type: Deaths; Date: Mar 01; Count: 0" role="graphics-symbol" aria-roledescription="line mark" d="M-2177.777777777778,400L-2151.1111111111113,400L-2124.4444444444443,400L-2097.777777777778,400L-2071.1111111111113,400L-2044.4444444444443,400L-2017.7777777777778,400L-1991.111111111111,400L-1965.5555555555554,400L-1938.888888888889,400L-1912.2222222222224,399.83333333333337L-1885.5555555555554,400L-1858.888888888889,400L-1832.2222222222222,399.83333333333337L-1805.5555555555557,399.83333333333337L-1778.8888888888887,399.5L-1752.2222222222222,399.83333333333337L-1725.5555555555557,399.5L-1698.8888888888887,399.83333333333337L-1672.2222222222222,399.1666666666667L-1645.5555555555557,399.3333333333333L-1618.888888888889,399.83333333333337L-1592.2222222222222,399.3333333333333L-1565.5555555555554,398.16666666666663L-1538.888888888889,395.66666666666663L-1512.2222222222222,397.5L-1485.5555555555557,395.3333333333333L-1458.888888888889,400L-1432.2222222222222,399.1666666666667L-1405.5555555555554,394L-1378.888888888889,394.3333333333333L-1352.2222222222222,390.1666666666667L-1325.5555555555557,388.5L-1298.888888888889,391.66666666666663L-1272.2222222222222,397.5L-1245.5555555555557,395.3333333333333L-1218.888888888889,387.33333333333337L-1192.2222222222222,381L-1165.5555555555554,384L-1138.888888888889,382.3333333333333L-1112.2222222222222,387.1666666666667L-1085.5555555555557,397.1666666666667L-1058.888888888889,398L-1032.2222222222222,396.6666666666667L-1005.5555555555555,381L-978.8888888888889,371.6666666666667L-952.2222222222222,378.3333333333333L-925.5555555555557,388.8333333333333L-898.8888888888889,381.5L-872.2222222222222,395.1666666666667L-845.5555555555555,393.3333333333333L-818.8888888888888,369.16666666666663L-792.2222222222223,371.3333333333333L-765.5555555555555,386L-738.8888888888889,378.1666666666667L-712.2222222222222,393.3333333333333L-685.5555555555555,399.6666666666667L-658.8888888888889,386.6666666666667L-632.2222222222222,386.5L-605.5555555555555,382.1666666666667L-578.8888888888889,379.33333333333337L-552.2222222222222,388.8333333333333L-525.5555555555555,397.3333333333333L-498.8888888888889,398.3333333333333L-472.22222222222223,385L-445.55555555555554,385.8333333333333L-418.8888888888889,385.5L-392.22222222222223,383.5L-365.55555555555554,377.5L-338.88888888888886,392.5L-312.22222222222223,399.1666666666667L-285.55555555555554,394.8333333333333L-258.8888888888889,390.5L-232.22222222222223,375.5L-205.55555555555554,388.5L-178.88888888888889,380.5L-152.22222222222223,395.3333333333333L-125.55555555555556,399.1666666666667L-98.88888888888889,396.8333333333333L-72.22222222222221,392.5L-45.55555555555556,385.33333333333337L-18.88888888888889,393.3333333333333L7.777777777777778,391L34.44444444444444,388.8333333333333L61.111111111111114,399L87.77777777777777,394.8333333333333L114.44444444444444,384L141.11111111111111,384.1666666666667L167.77777777777777,392.3333333333333L194.44444444444443,386L221.11111111111111,392.5L247.77777777777777,400L274.44444444444446,398.6666666666667L301.1111111111111,389.1666666666667L327.77777777777777,387.66666666666663L354.44444444444446,396.6666666666667L381.1111111111111,387.1666666666667L407.77777777777777,397.1666666666667" stroke="#f58518" stroke-width="2" opacity="0.2"></path></g></g><path class="foreground" aria-hidden="true" d="" display="none"></path></g><g transform="translate(0,0)"><path class="background" aria-hidden="true" d="M0,0h400v400h-400Z"></path><g><g class="mark-line role-mark concat_0_layer_0_marks" clip-path="url(#clip3)" role="graphics-object" aria-roledescription="line mark container"><path aria-label="Type: Confirmed; Date: Mar 01; Count: 2" role="graphics-symbol" aria-roledescription="line mark" d="M-2177.777777777778,399.6666666666667L-2151.1111111111113,399.83333333333337L-2124.4444444444443,399L-2097.777777777778,397.66666666666663L-2071.1111111111113,390.1666666666667L-2044.4444444444443,398.8333333333333L-2017.7777777777778,390L-1991.111111111111,393L-1965.5555555555554,392.5L-1938.888888888889,382.1666666666667L-1912.2222222222224,375.8333333333333L-1885.5555555555554,383.5L-1858.888888888889,364.1666666666667L-1832.2222222222222,375.5L-1805.5555555555557,389.83333333333337L-1778.8888888888887,386.5L-1752.2222222222222,385.5L-1725.5555555555557,385.16666666666663L-1698.8888888888887,373.3333333333333L-1672.2222222222222,366.66666666666663L-1645.5555555555557,379.33333333333337L-1618.888888888889,371.5L-1592.2222222222222,381.33333333333337L-1565.5555555555554,360L-1538.888888888889,360L-1512.2222222222222,347.66666666666663L-1485.5555555555557,361.8333333333333L-1458.888888888889,337L-1432.2222222222222,357.8333333333333L-1405.5555555555554,345.3333333333333L-1378.888888888889,332.1666666666667L-1352.2222222222222,314.66666666666663L-1325.5555555555557,296.5L-1298.888888888889,306.16666666666663L-1272.2222222222222,348L-1245.5555555555557,335.5L-1218.888888888889,337.3333333333333L-1192.2222222222222,318.83333333333337L-1165.5555555555554,279L-1138.888888888889,279.6666666666667L-1112.2222222222222,309.3333333333333L-1085.5555555555557,322.33333333333337L-1058.888888888889,344.6666666666667L-1032.2222222222222,322.5L-1005.5555555555555,317.1666666666667L-978.8888888888889,319.6666666666667L-952.2222222222222,297.83333333333337L-925.5555555555557,287.3333333333333L-898.8888888888889,299L-872.2222222222222,306.16666666666663L-845.5555555555555,334.6666666666667L-818.8888888888888,309.1666666666667L-792.2222222222223,286.3333333333333L-765.5555555555555,274.8333333333333L-738.8888888888889,264.66666666666663L-712.2222222222222,298.3333333333333L-685.5555555555555,322.83333333333337L-658.8888888888889,352.33333333333337L-632.2222222222222,284.1666666666667L-605.5555555555555,286.5L-578.8888888888889,268.33333333333337L-552.2222222222222,328.6666666666667L-525.5555555555555,306.33333333333337L-498.8888888888889,360.8333333333333L-472.22222222222223,332.6666666666667L-445.55555555555554,317.5L-418.8888888888889,283L-392.22222222222223,282.5L-365.55555555555554,293L-338.88888888888886,290.6666666666667L-312.22222222222223,333.16666666666663L-285.55555555555554,342L-258.8888888888889,299.6666666666667L-232.22222222222223,293.83333333333337L-205.55555555555554,287.8333333333333L-178.88888888888889,295.8333333333333L-152.22222222222223,321.6666666666667L-125.55555555555556,322.33333333333337L-98.88888888888889,361L-72.22222222222221,329.6666666666667L-45.55555555555556,279.3333333333333L-18.88888888888889,291.8333333333333L7.777777777777778,293.83333333333337L34.44444444444444,336.8333333333333L61.111111111111114,354.8333333333333L87.77777777777777,336L114.44444444444444,300.5L141.11111111111111,292L167.77777777777777,293.5L194.44444444444443,275.1666666666667L221.11111111111111,293.83333333333337L247.77777777777777,328.5L274.44444444444446,354.6666666666667L301.1111111111111,270.8333333333333L327.77777777777777,31.000000000000007L354.44444444444446,220.00000000000003L381.1111111111111,224.00000000000003L407.77777777777777,242" stroke="#4c78a8" stroke-width="2" opacity="0.2"></path></g></g><path class="foreground" aria-hidden="true" d="" display="none"></path></g></g><g class="mark-group role-scope concat_0_layer_1_pathgroup" role="graphics-object" aria-roledescription="group mark container"><g transform="translate(0,0)"><path class="background" aria-hidden="true" d="M0,0h400v400h-400Z"></path><g><g class="mark-line role-mark concat_0_layer_1_marks" clip-path="url(#clip4)" role="graphics-object" aria-roledescription="line mark container"><path aria-label="Type: Recovered; Date: Mar 01; Count: 0" role="graphics-symbol" aria-roledescription="line mark" d="M-2017.7777777777778,400L-1991.111111111111,400L-1965.5555555555554,400L-1938.888888888889,400L-1912.2222222222224,400L-1885.5555555555554,400L-1858.888888888889,400L-1832.2222222222222,400L-1805.5555555555557,400L-1778.8888888888887,400L-1752.2222222222222,400L-1725.5555555555557,400L-1698.8888888888887,400L-1672.2222222222222,400L-1645.5555555555557,400L-1618.888888888889,400L-1592.2222222222222,400L-1565.5555555555554,400L-1538.888888888889,400L-1512.2222222222222,400L-1485.5555555555557,400L-1458.888888888889,400L-1432.2222222222222,400L-1405.5555555555554,400L-1378.888888888889,400L-1352.2222222222222,400L-1325.5555555555557,400L-1298.888888888889,400L-1272.2222222222222,400L-1245.5555555555557,400L-1218.888888888889,400L-1192.2222222222222,400L-1165.5555555555554,400L-1138.888888888889,400L-1112.2222222222222,400L-1085.5555555555557,400L-1058.888888888889,400L-1032.2222222222222,400L-1005.5555555555555,400L-978.8888888888889,400L-952.2222222222222,400L-925.5555555555557,400L-898.8888888888889,400L-872.2222222222222,400L-845.5555555555555,400L-818.8888888888888,400L-792.2222222222223,400L-765.5555555555555,400L-738.8888888888889,400L-712.2222222222222,400L-685.5555555555555,400L-658.8888888888889,400L-632.2222222222222,400L-605.5555555555555,400L-578.8888888888889,400L-552.2222222222222,400L-525.5555555555555,400L-498.8888888888889,400L-472.22222222222223,400L-445.55555555555554,400L-418.8888888888889,400L-392.22222222222223,400L-365.55555555555554,400L-338.88888888888886,400L-312.22222222222223,400L-285.55555555555554,400L-258.8888888888889,400L-232.22222222222223,400L-205.55555555555554,400L-178.88888888888889,400L-152.22222222222223,400L-125.55555555555556,400L-98.88888888888889,400L-72.22222222222221,400L-45.55555555555556,400L-18.88888888888889,400L7.777777777777778,400L34.44444444444444,400L61.111111111111114,400L87.77777777777777,400L114.44444444444444,400L141.11111111111111,400L167.77777777777777,400L194.44444444444443,400L221.11111111111111,400L247.77777777777777,400L274.44444444444446,400L301.1111111111111,400L327.77777777777777,400L354.44444444444446,400L381.1111111111111,400L407.77777777777777,400" stroke="#e45756" stroke-width="2" opacity="1"></path></g></g><path class="foreground" aria-hidden="true" d="" display="none"></path></g><g transform="translate(0,0)"><path class="background" aria-hidden="true" d="M0,0h400v400h-400Z"></path><g><g class="mark-line role-mark concat_0_layer_1_marks" clip-path="url(#clip5)" role="graphics-object" aria-roledescription="line mark container"><path aria-label="Type: Deaths; Date: Mar 01; Count: 0" role="graphics-symbol" aria-roledescription="line mark" d="M-2017.7777777777778,400L-1991.111111111111,400L-1965.5555555555554,400L-1938.888888888889,400L-1912.2222222222224,399.9761904761905L-1885.5555555555554,399.9761904761905L-1858.888888888889,399.9761904761905L-1832.2222222222222,399.95238095238096L-1805.5555555555557,399.9285714285714L-1778.8888888888887,399.8571428571429L-1752.2222222222222,399.83333333333337L-1725.5555555555557,399.7857142857143L-1698.8888888888887,399.76190476190476L-1672.2222222222222,399.64285714285717L-1645.5555555555557,399.57142857142856L-1618.888888888889,399.57142857142856L-1592.2222222222222,399.54761904761904L-1565.5555555555554,399.3095238095238L-1538.888888888889,398.76190476190476L-1512.2222222222222,398.42857142857144L-1485.5555555555557,397.8809523809524L-1458.888888888889,397.9761904761905L-1432.2222222222222,397.8809523809524L-1405.5555555555554,397.11904761904765L-1378.888888888889,396.57142857142856L-1352.2222222222222,395.7857142857143L-1325.5555555555557,394.5L-1298.888888888889,393.9761904761905L-1272.2222222222222,393.61904761904765L-1245.5555555555557,393.07142857142856L-1218.888888888889,392.1190476190476L-1192.2222222222222,390.2142857142857L-1165.5555555555554,389.33333333333337L-1138.888888888889,388.45238095238096L-1112.2222222222222,387.80952380952385L-1085.5555555555557,387.76190476190476L-1058.888888888889,388.1428571428571L-1032.2222222222222,389.4761904761905L-1005.5555555555555,389.4761904761905L-978.8888888888889,387.7142857142857L-952.2222222222222,387.14285714285717L-925.5555555555557,387.3809523809524L-898.8888888888889,385.14285714285717L-872.2222222222222,384.73809523809524L-845.5555555555555,384.26190476190476L-818.8888888888888,382.57142857142856L-792.2222222222223,382.5238095238095L-765.5555555555555,383.6190476190476L-738.8888888888889,382.0952380952381L-712.2222222222222,383.7857142857143L-685.5555555555555,384.42857142857144L-658.8888888888889,383.4761904761905L-632.2222222222222,385.95238095238096L-605.5555555555555,387.5L-578.8888888888889,386.54761904761904L-552.2222222222222,388.07142857142856L-525.5555555555555,388.64285714285717L-498.8888888888889,388.45238095238096L-472.22222222222223,388.2142857142857L-445.55555555555554,388.1190476190476L-418.8888888888889,388.5952380952381L-392.22222222222223,389.19047619047615L-365.55555555555554,387.5714285714286L-338.88888888888886,386.8809523809524L-312.22222222222223,387L-285.55555555555554,388.4047619047619L-258.8888888888889,389.07142857142856L-232.22222222222223,387.6428571428571L-205.55555555555554,388.35714285714283L-178.88888888888889,388.7857142857143L-152.22222222222223,389.19047619047615L-125.55555555555556,389.19047619047615L-98.88888888888889,389.4761904761905L-72.22222222222221,389.76190476190476L-45.55555555555556,391.1666666666667L-18.88888888888889,391.85714285714283L7.777777777777778,393.3571428571429L34.44444444444444,392.42857142857144L61.111111111111114,392.4047619047619L87.77777777777777,392.1190476190476L114.44444444444444,390.9047619047619L141.11111111111111,390.73809523809524L167.77777777777777,390.5952380952381L194.44444444444443,389.88095238095235L221.11111111111111,390.4047619047619L247.77777777777777,390.54761904761904L274.44444444444446,391.0952380952381L301.1111111111111,391.83333333333337L327.77777777777777,392.3333333333333L354.44444444444446,392.95238095238096L381.1111111111111,393.11904761904765L407.77777777777777,393.7857142857143" stroke="#f58518" stroke-width="2" opacity="1"></path></g></g><path class="foreground" aria-hidden="true" d="" display="none"></path></g><g transform="translate(0,0)"><path class="background" aria-hidden="true" d="M0,0h400v400h-400Z"></path><g><g class="mark-line role-mark concat_0_layer_1_marks" clip-path="url(#clip6)" role="graphics-object" aria-roledescription="line mark container"><path aria-label="Type: Confirmed; Date: Mar 01; Count: 0" role="graphics-symbol" aria-roledescription="line mark" d="M-2017.7777777777778,396.45238095238096L-1991.111111111111,395.5L-1965.5555555555554,394.45238095238096L-1938.888888888889,392.0476190476191L-1912.2222222222224,388.92857142857144L-1885.5555555555554,387.9761904761905L-1858.888888888889,383.0238095238095L-1832.2222222222222,380.9523809523809L-1805.5555555555557,380.5L-1778.8888888888887,379.6428571428571L-1752.2222222222222,380.1190476190476L-1725.5555555555557,381.45238095238096L-1698.8888888888887,380L-1672.2222222222222,380.35714285714283L-1645.5555555555557,380.9047619047619L-1618.888888888889,378.2857142857143L-1592.2222222222222,377.54761904761904L-1565.5555555555554,373.9047619047619L-1538.888888888889,370.3095238095238L-1512.2222222222222,366.6428571428571L-1485.5555555555557,365.95238095238096L-1458.888888888889,359.9047619047619L-1432.2222222222222,357.95238095238096L-1405.5555555555554,352.8095238095238L-1378.888888888889,348.8333333333333L-1352.2222222222222,342.35714285714283L-1325.5555555555557,335.04761904761904L-1298.888888888889,327.09523809523813L-1272.2222222222222,328.6666666666667L-1245.5555555555557,325.4761904761905L-1218.888888888889,324.3333333333333L-1192.2222222222222,322.42857142857144L-1165.5555555555554,317.3333333333333L-1138.888888888889,314.9285714285714L-1112.2222222222222,315.38095238095235L-1085.5555555555557,311.7142857142857L-1058.888888888889,313.0238095238095L-1032.2222222222222,310.90476190476187L-1005.5555555555555,310.66666666666663L-978.8888888888889,316.4761904761905L-952.2222222222222,319.07142857142856L-925.5555555555557,315.92857142857144L-898.8888888888889,312.59523809523813L-872.2222222222222,307.0952380952381L-845.5555555555555,308.8333333333333L-818.8888888888888,307.6904761904762L-792.2222222222223,302.92857142857144L-765.5555555555555,299.64285714285717L-738.8888888888889,296.4047619047619L-712.2222222222222,296.3095238095238L-685.5555555555555,298.6904761904762L-658.8888888888889,301.2142857142857L-632.2222222222222,297.64285714285717L-605.5555555555555,297.66666666666663L-578.8888888888889,296.73809523809524L-552.2222222222222,305.8809523809524L-525.5555555555555,307.0238095238095L-498.8888888888889,312.45238095238096L-472.22222222222223,309.64285714285717L-445.55555555555554,314.4047619047619L-418.8888888888889,313.9047619047619L-392.22222222222223,315.92857142857144L-365.55555555555554,310.8333333333333L-338.88888888888886,308.5952380952381L-312.22222222222223,304.64285714285717L-285.55555555555554,305.9761904761905L-258.8888888888889,303.42857142857144L-232.22222222222223,304.9761904761905L-205.55555555555554,305.73809523809524L-178.88888888888889,306.1428571428571L-152.22222222222223,310.5714285714286L-125.55555555555556,309.0238095238095L-98.88888888888889,311.73809523809524L-72.22222222222221,316.0238095238095L-45.55555555555556,313.95238095238096L-18.88888888888889,314.5238095238095L7.777777777777778,314.23809523809524L34.44444444444444,316.4047619047619L61.111111111111114,321.04761904761904L87.77777777777777,317.4761904761905L114.44444444444444,313.3095238095238L141.11111111111111,315.1190476190476L167.77777777777777,315.35714285714283L194.44444444444443,312.6904761904762L221.11111111111111,306.5476190476191L247.77777777777777,302.7857142857143L274.44444444444446,305.45238095238096L301.1111111111111,301.2142857142857L327.77777777777777,263.92857142857144L354.44444444444446,253.42857142857142L381.1111111111111,246.11904761904762L407.77777777777777,238.7142857142857" stroke="#4c78a8" stroke-width="2" opacity="1"></path></g></g><path class="foreground" aria-hidden="true" d="" display="none"></path></g></g><g class="mark-group role-title"><g transform="translate(200,-54)"><path class="background" aria-hidden="true" d="M0,0h0v0h0Z" pointer-events="none"></path><g><g class="mark-text role-title-text" role="graphics-symbol" aria-roledescription="title" aria-label="Title text '7-day average (light color: daily values) [2020-06-06]'" pointer-events="none"><text text-anchor="middle" transform="translate(0,10)" font-family="Roboto Condensed" font-size="13px" font-weight="normal" fill="#000" opacity="1"><tspan>7-day average (light color: daily values)</tspan><tspan x="0" dy="15">[2020-06-06]</tspan></text></g></g><path class="foreground" aria-hidden="true" d="" pointer-events="none" display="none"></path></g></g></g><path class="foreground" aria-hidden="true" d="" display="none"></path></g></g><g class="mark-group role-scope concat_1_group" role="graphics-object" aria-roledescription="group mark container"><g transform="translate(465,0)"><path class="background" aria-hidden="true" d="M0,0h400v400h-400Z" stroke="#ddd" stroke-width="0"></path><g><g class="mark-group role-axis" aria-hidden="true"><g transform="translate(0.5,0.5)"><path class="background" aria-hidden="true" d="M0,0h0v0h0Z" pointer-events="none"></path><g><g class="mark-rule role-axis-grid" pointer-events="none"><line transform="translate(0,400)" x2="400" y2="0" stroke="#ddd" stroke-width="1" opacity="1"></line><line transform="translate(0,356)" x2="400" y2="0" stroke="#ddd" stroke-width="1" opacity="1"></line><line transform="translate(0,311)" x2="400" y2="0" stroke="#ddd" stroke-width="1" opacity="1"></line><line transform="translate(0,267)" x2="400" y2="0" stroke="#ddd" stroke-width="1" opacity="1"></line><line transform="translate(0,222)" x2="400" y2="0" stroke="#ddd" stroke-width="1" opacity="1"></line><line transform="translate(0,178)" x2="400" y2="0" stroke="#ddd" stroke-width="1" opacity="1"></line><line transform="translate(0,133)" x2="400" y2="0" stroke="#ddd" stroke-width="1" opacity="1"></line><line transform="translate(0,89)" x2="400" y2="0" stroke="#ddd" stroke-width="1" opacity="1"></line><line transform="translate(0,44)" x2="400" y2="0" stroke="#ddd" stroke-width="1" opacity="1"></line><line transform="translate(0,0)" x2="400" y2="0" stroke="#ddd" stroke-width="1" opacity="1"></line></g></g><path class="foreground" aria-hidden="true" d="" pointer-events="none" display="none"></path></g></g><g class="mark-group role-axis" role="graphics-symbol" aria-roledescription="axis" aria-label="X-axis titled 'Date' for a time scale with values from May 21 to June 05"><g transform="translate(0.5,400.5)"><path class="background" aria-hidden="true" d="M0,0h0v0h0Z" pointer-events="none"></path><g><g class="mark-text role-axis-label" pointer-events="none"><text text-anchor="middle" transform="translate(34.44444444444444,10)" font-family="Roboto Condensed" font-size="10px" fill="#000" opacity="1">May 23</text><text text-anchor="middle" transform="translate(87.77777777777777,10)" font-family="Roboto Condensed" font-size="10px" fill="#000" opacity="0">May 25</text><text text-anchor="middle" transform="translate(141.11111111111111,10)" font-family="Roboto Condensed" font-size="10px" fill="#000" opacity="1">May 27</text><text text-anchor="middle" transform="translate(194.44444444444443,10)" font-family="Roboto Condensed" font-size="10px" fill="#000" opacity="0">May 29</text><text text-anchor="middle" transform="translate(247.77777777777777,10)" font-family="Roboto Condensed" font-size="10px" fill="#000" opacity="1">May 31</text><text text-anchor="middle" transform="translate(274.44444444444446,10)" font-family="Roboto Condensed" font-size="10px" fill="#000" opacity="0">Jun 01</text><text text-anchor="middle" transform="translate(327.77777777777777,10)" font-family="Roboto Condensed" font-size="10px" fill="#000" opacity="1">Jun 03</text><text text-anchor="middle" transform="translate(381.1111111111111,10)" font-family="Roboto Condensed" font-size="10px" fill="#000" opacity="0">Jun 05</text></g><g class="mark-rule role-axis-domain" pointer-events="none"><line transform="translate(0,0)" x2="400" y2="0" stroke="lightgray" stroke-width="1" opacity="1"></line></g><g class="mark-text role-axis-title" pointer-events="none"><text text-anchor="middle" transform="translate(200,25)" font-family="Roboto Condensed" font-size="11px" font-weight="normal" fill="#000" opacity="1">Date</text></g></g><path class="foreground" aria-hidden="true" d="" pointer-events="none" display="none"></path></g></g><g class="mark-group role-axis" role="graphics-symbol" aria-roledescription="axis" aria-label="Y-axis titled 'Count' for a linear scale with values from 0 to 45,000"><g transform="translate(0.5,0.5)"><path class="background" aria-hidden="true" d="M0,0h0v0h0Z" pointer-events="none"></path><g><g class="mark-text role-axis-label" pointer-events="none"><text text-anchor="end" transform="translate(-2,403)" font-family="Roboto Condensed" font-size="10px" fill="#000" opacity="1">0</text><text text-anchor="end" transform="translate(-2,358.55555555555554)" font-family="Roboto Condensed" font-size="10px" fill="#000" opacity="1">5,000</text><text text-anchor="end" transform="translate(-2,314.11111111111114)" font-family="Roboto Condensed" font-size="10px" fill="#000" opacity="1">10,000</text><text text-anchor="end" transform="translate(-2,269.6666666666667)" font-family="Roboto Condensed" font-size="10px" fill="#000" opacity="1">15,000</text><text text-anchor="end" transform="translate(-2,225.22222222222223)" font-family="Roboto Condensed" font-size="10px" fill="#000" opacity="1">20,000</text><text text-anchor="end" transform="translate(-2,180.77777777777777)" font-family="Roboto Condensed" font-size="10px" fill="#000" opacity="1">25,000</text><text text-anchor="end" transform="translate(-2,136.33333333333334)" font-family="Roboto Condensed" font-size="10px" fill="#000" opacity="1">30,000</text><text text-anchor="end" transform="translate(-2,91.88888888888889)" font-family="Roboto Condensed" font-size="10px" fill="#000" opacity="1">35,000</text><text text-anchor="end" transform="translate(-2,47.444444444444464)" font-family="Roboto Condensed" font-size="10px" fill="#000" opacity="1">40,000</text><text text-anchor="end" transform="translate(-2,3)" font-family="Roboto Condensed" font-size="10px" fill="#000" opacity="1">45,000</text></g><g class="mark-rule role-axis-domain" pointer-events="none"><line transform="translate(0,400)" x2="0" y2="-400" stroke="lightgray" stroke-width="1" opacity="1"></line></g><g class="mark-text role-axis-title" pointer-events="none"><text text-anchor="start" transform="translate(-45,-13)" font-family="Roboto Condensed" font-size="11px" font-weight="normal" fill="#000" opacity="1">Count</text></g></g><path class="foreground" aria-hidden="true" d="" pointer-events="none" display="none"></path></g></g><g class="mark-group role-scope concat_1_pathgroup" role="graphics-object" aria-roledescription="group mark container"><g transform="translate(0,0)"><path class="background" aria-hidden="true" d="M0,0h400v400h-400Z"></path><g><g class="mark-line role-mark concat_1_marks" clip-path="url(#clip7)" role="graphics-object" aria-roledescription="line mark container"><path aria-label="Type: Recovered; Date: Mar 01; Country: Sweden; Confirmed: 14; Recovered: 0; Deaths: 0; Count: 0" role="graphics-symbol" aria-roledescription="line mark" d="M-2177.777777777778,400L-2151.1111111111113,400L-2124.4444444444443,400L-2097.777777777778,400L-2071.1111111111113,400L-2044.4444444444443,400L-2017.7777777777778,400L-1991.111111111111,400L-1965.5555555555554,400L-1938.888888888889,400L-1912.2222222222224,400L-1885.5555555555554,400L-1858.888888888889,400L-1832.2222222222222,400L-1805.5555555555557,400L-1778.8888888888887,400L-1752.2222222222222,400L-1725.5555555555557,400L-1698.8888888888887,400L-1672.2222222222222,400L-1645.5555555555557,400L-1618.888888888889,400L-1592.2222222222222,400L-1565.5555555555554,400L-1538.888888888889,400L-1512.2222222222222,400L-1485.5555555555557,400L-1458.888888888889,400L-1432.2222222222222,400L-1405.5555555555554,400L-1378.888888888889,400L-1352.2222222222222,400L-1325.5555555555557,400L-1298.888888888889,400L-1272.2222222222222,400L-1245.5555555555557,400L-1218.888888888889,400L-1192.2222222222222,400L-1165.5555555555554,400L-1138.888888888889,400L-1112.2222222222222,400L-1085.5555555555557,400L-1058.888888888889,400L-1032.2222222222222,400L-1005.5555555555555,400L-978.8888888888889,400L-952.2222222222222,400L-925.5555555555557,400L-898.8888888888889,400L-872.2222222222222,400L-845.5555555555555,400L-818.8888888888888,400L-792.2222222222223,400L-765.5555555555555,400L-738.8888888888889,400L-712.2222222222222,400L-685.5555555555555,400L-658.8888888888889,400L-632.2222222222222,400L-605.5555555555555,400L-578.8888888888889,400L-552.2222222222222,400L-525.5555555555555,400L-498.8888888888889,400L-472.22222222222223,400L-445.55555555555554,400L-418.8888888888889,400L-392.22222222222223,400L-365.55555555555554,400L-338.88888888888886,400L-312.22222222222223,400L-285.55555555555554,400L-258.8888888888889,400L-232.22222222222223,400L-205.55555555555554,400L-178.88888888888889,400L-152.22222222222223,400L-125.55555555555556,400L-98.88888888888889,400L-72.22222222222221,400L-45.55555555555556,400L-18.88888888888889,400L7.777777777777778,400L34.44444444444444,400L61.111111111111114,400L87.77777777777777,400L114.44444444444444,400L141.11111111111111,400L167.77777777777777,400L194.44444444444443,400L221.11111111111111,400L247.77777777777777,400L274.44444444444446,400L301.1111111111111,400L327.77777777777777,400L354.44444444444446,400L381.1111111111111,400L407.77777777777777,400" stroke="#e45756" stroke-width="2" opacity="0.7"></path></g></g><path class="foreground" aria-hidden="true" d="" display="none"></path></g><g transform="translate(0,0)"><path class="background" aria-hidden="true" d="M0,0h400v400h-400Z"></path><g><g class="mark-line role-mark concat_1_marks" clip-path="url(#clip8)" role="graphics-object" aria-roledescription="line mark container"><path aria-label="Type: Deaths; Date: Mar 01; Country: Sweden; Confirmed: 14; Recovered: 0; Deaths: 0; Count: 0" role="graphics-symbol" aria-roledescription="line mark" d="M-2177.777777777778,400L-2151.1111111111113,400L-2124.4444444444443,400L-2097.777777777778,400L-2071.1111111111113,400L-2044.4444444444443,400L-2017.7777777777778,400L-1991.111111111111,400L-1965.5555555555554,400L-1938.888888888889,400L-1912.2222222222224,399.9911111111111L-1885.5555555555554,399.9911111111111L-1858.888888888889,399.9911111111111L-1832.2222222222222,399.9822222222222L-1805.5555555555557,399.97333333333336L-1778.8888888888887,399.94666666666666L-1752.2222222222222,399.9377777777778L-1725.5555555555557,399.9111111111111L-1698.8888888888887,399.9022222222222L-1672.2222222222222,399.85777777777776L-1645.5555555555557,399.8222222222222L-1618.888888888889,399.81333333333333L-1592.2222222222222,399.77777777777777L-1565.5555555555554,399.68L-1538.888888888889,399.44888888888886L-1512.2222222222222,399.31555555555553L-1485.5555555555557,399.06666666666666L-1458.888888888889,399.06666666666666L-1432.2222222222222,399.02222222222224L-1405.5555555555554,398.7022222222222L-1378.888888888889,398.4L-1352.2222222222222,397.87555555555554L-1325.5555555555557,397.26222222222225L-1298.888888888889,396.81777777777774L-1272.2222222222222,396.68444444444447L-1245.5555555555557,396.43555555555554L-1218.888888888889,395.76L-1192.2222222222222,394.74666666666667L-1165.5555555555554,393.8933333333333L-1138.888888888889,392.9511111111111L-1112.2222222222222,392.26666666666665L-1085.5555555555557,392.11555555555555L-1058.888888888889,392.0088888888889L-1032.2222222222222,391.8311111111111L-1005.5555555555555,390.8177777777778L-978.8888888888889,389.3066666666667L-952.2222222222222,388.1511111111111L-925.5555555555557,387.55555555555554L-898.8888888888889,386.56888888888886L-872.2222222222222,386.3111111111111L-845.5555555555555,385.9555555555556L-818.8888888888888,384.3111111111111L-792.2222222222223,382.78222222222223L-765.5555555555555,382.03555555555556L-738.8888888888889,380.87111111111113L-712.2222222222222,380.5155555555555L-685.5555555555555,380.4977777777778L-658.8888888888889,379.7866666666667L-632.2222222222222,379.06666666666666L-605.5555555555555,378.11555555555555L-578.8888888888889,377.0133333333333L-552.2222222222222,376.41777777777776L-525.5555555555555,376.27555555555557L-498.8888888888889,376.18666666666667L-472.22222222222223,375.38666666666666L-445.55555555555554,374.63111111111107L-418.8888888888889,373.85777777777776L-392.22222222222223,372.97777777777776L-365.55555555555554,371.77777777777777L-338.88888888888886,371.37777777777774L-312.22222222222223,371.3333333333333L-285.55555555555554,371.0577777777778L-258.8888888888889,370.5511111111111L-232.22222222222223,369.24444444444447L-205.55555555555554,368.6311111111111L-178.88888888888889,367.5911111111111L-152.22222222222223,367.34222222222223L-125.55555555555556,367.29777777777775L-98.88888888888889,367.12888888888887L-72.22222222222221,366.7288888888889L-45.55555555555556,365.9466666666667L-18.88888888888889,365.5911111111111L7.777777777777778,365.11111111111114L34.44444444444444,364.5155555555556L61.111111111111114,364.4622222222222L87.77777777777777,364.18666666666667L114.44444444444444,363.3333333333333L141.11111111111111,362.4888888888889L167.77777777777777,362.08L194.44444444444443,361.3333333333333L221.11111111111111,360.93333333333334L247.77777777777777,360.93333333333334L274.44444444444446,360.8622222222222L301.1111111111111,360.28444444444443L327.77777777777777,359.62666666666667L354.44444444444446,359.44888888888886L381.1111111111111,358.76444444444445L407.77777777777777,358.61333333333334" stroke="#f58518" stroke-width="2" opacity="0.7"></path></g></g><path class="foreground" aria-hidden="true" d="" display="none"></path></g><g transform="translate(0,0)"><path class="background" aria-hidden="true" d="M0,0h400v400h-400Z"></path><g><g class="mark-line role-mark concat_1_marks" clip-path="url(#clip9)" role="graphics-object" aria-roledescription="line mark container"><path aria-label="Type: Confirmed; Date: Mar 01; Country: Sweden; Confirmed: 14; Recovered: 0; Deaths: 0; Count: 14" role="graphics-symbol" aria-roledescription="line mark" d="M-2177.777777777778,399.87555555555554L-2151.1111111111113,399.8666666666667L-2124.4444444444443,399.81333333333333L-2097.777777777778,399.68888888888887L-2071.1111111111113,399.1644444444444L-2044.4444444444443,399.1022222222222L-2017.7777777777778,398.56888888888886L-1991.111111111111,398.19555555555553L-1965.5555555555554,397.79555555555555L-1938.888888888889,396.8444444444445L-1912.2222222222224,395.55555555555554L-1885.5555555555554,394.67555555555555L-1858.888888888889,392.76444444444445L-1832.2222222222222,391.4577777777778L-1805.5555555555557,390.91555555555556L-1778.8888888888887,390.19555555555553L-1752.2222222222222,389.4222222222222L-1725.5555555555557,388.6311111111111L-1698.8888888888887,387.2088888888889L-1672.2222222222222,385.4311111111111L-1645.5555555555557,384.3288888888889L-1618.888888888889,382.8088888888889L-1592.2222222222222,381.81333333333333L-1565.5555555555554,379.68L-1538.888888888889,377.5466666666666L-1512.2222222222222,374.75555555555553L-1485.5555555555557,372.71999999999997L-1458.888888888889,369.36L-1432.2222222222222,367.11111111111114L-1405.5555555555554,364.1955555555556L-1378.888888888889,360.5777777777778L-1352.2222222222222,356.02666666666664L-1325.5555555555557,350.50666666666666L-1298.888888888889,345.50222222222226L-1272.2222222222222,342.7288888888889L-1245.5555555555557,339.2888888888889L-1218.888888888889,335.94666666666666L-1192.2222222222222,331.6177777777778L-1165.5555555555554,325.1644444444445L-1138.888888888889,318.74666666666667L-1112.2222222222222,313.9111111111111L-1085.5555555555557,309.7688888888889L-1058.888888888889,306.8177777777778L-1032.2222222222222,302.68444444444447L-1005.5555555555555,298.26666666666665L-978.8888888888889,293.9822222222222L-952.2222222222222,288.53333333333336L-925.5555555555557,282.52444444444444L-898.8888888888889,277.1377777777777L-872.2222222222222,272.1333333333333L-845.5555555555555,268.6488888888889L-818.8888888888888,263.80444444444447L-792.2222222222223,257.7422222222222L-765.5555555555555,251.06666666666663L-738.8888888888889,243.84888888888892L-712.2222222222222,238.4266666666667L-685.5555555555555,234.3111111111111L-658.8888888888889,231.7688888888889L-632.2222222222222,225.59111111111113L-605.5555555555555,219.5377777777778L-578.8888888888889,212.51555555555558L-552.2222222222222,208.7111111111111L-525.5555555555555,203.71555555555557L-498.8888888888889,201.62666666666667L-472.22222222222223,198.03555555555556L-445.55555555555554,193.63555555555556L-418.8888888888889,187.39555555555555L-392.22222222222223,181.1288888888889L-365.55555555555554,175.42222222222225L-338.88888888888886,169.5911111111111L-312.22222222222223,166.02666666666667L-285.55555555555554,162.93333333333334L-258.8888888888889,157.5822222222222L-232.22222222222223,151.92000000000002L-205.55555555555554,145.93777777777777L-178.88888888888889,140.38222222222223L-152.22222222222223,136.20444444444445L-125.55555555555556,132.0622222222222L-98.88888888888889,129.98222222222222L-72.22222222222221,126.23111111111109L-45.55555555555556,119.79555555555557L-18.88888888888889,114.02666666666667L7.777777777777778,108.36444444444444L34.44444444444444,104.99555555555555L61.111111111111114,102.58666666666664L87.77777777777777,99.17333333333333L114.44444444444444,93.86666666666667L141.11111111111111,88.10666666666668L167.77777777777777,82.42666666666665L194.44444444444443,75.76888888888891L221.11111111111111,70.10666666666667L247.77777777777777,66.29333333333332L274.44444444444446,63.87555555555555L301.1111111111111,56.98666666666665L327.77777777777777,37.306666666666686L354.44444444444446,27.706666666666678L381.1111111111111,18.31999999999998L407.77777777777777,9.893333333333354" stroke="#4c78a8" stroke-width="2" opacity="0.7"></path></g></g><path class="foreground" aria-hidden="true" d="" display="none"></path></g></g><g class="mark-group role-title"><g transform="translate(200,-54)"><path class="background" aria-hidden="true" d="M0,0h0v0h0Z" pointer-events="none"></path><g><g class="mark-text role-title-text" role="graphics-symbol" aria-roledescription="title" aria-label="Title text 'Total [2020-06-06]'" pointer-events="none"><text text-anchor="middle" transform="translate(0,10)" font-family="Roboto Condensed" font-size="13px" font-weight="normal" fill="#000" opacity="1"><tspan>Total</tspan><tspan x="0" dy="15">[2020-06-06]</tspan></text></g></g><path class="foreground" aria-hidden="true" d="" pointer-events="none" display="none"></path></g></g></g><path class="foreground" aria-hidden="true" d="" display="none"></path></g></g><g class="mark-group role-legend" role="graphics-symbol" aria-roledescription="legend" aria-label="Symbol legend for stroke color with 3 values: Confirmed, Deaths, Recovered"><g transform="translate(883,0)"><path class="background" aria-hidden="true" d="M0,0h58v37h-58Z" pointer-events="none"></path><g><g class="mark-group role-legend-entry"><g transform="translate(0,0)"><path class="background" aria-hidden="true" d="M0,0h0v0h0Z" pointer-events="none"></path><g><g class="mark-group role-scope" role="graphics-object" aria-roledescription="group mark container"><g transform="translate(0,0)"><path class="background" aria-hidden="true" d="M0,0h58v11h-58Z" pointer-events="none" opacity="1"></path><g><g class="mark-symbol role-legend-symbol" pointer-events="none"><path transform="translate(6,6)" d="M-5,0L5,0" stroke="#4c78a8" stroke-width="1.5" opacity="0.2"></path></g><g class="mark-text role-legend-label" pointer-events="none"><text text-anchor="start" transform="translate(16,9)" font-family="Roboto Condensed" font-size="10px" fill="#000" opacity="1">Confirmed</text></g></g><path class="foreground" aria-hidden="true" d="" pointer-events="none" display="none"></path></g><g transform="translate(0,13)"><path class="background" aria-hidden="true" d="M0,0h58v11h-58Z" pointer-events="none" opacity="1"></path><g><g class="mark-symbol role-legend-symbol" pointer-events="none"><path transform="translate(6,6)" d="M-5,0L5,0" stroke="#f58518" stroke-width="1.5" opacity="0.2"></path></g><g class="mark-text role-legend-label" pointer-events="none"><text text-anchor="start" transform="translate(16,9)" font-family="Roboto Condensed" font-size="10px" fill="#000" opacity="1">Deaths</text></g></g><path class="foreground" aria-hidden="true" d="" pointer-events="none" display="none"></path></g><g transform="translate(0,26)"><path class="background" aria-hidden="true" d="M0,0h58v11h-58Z" pointer-events="none" opacity="1"></path><g><g class="mark-symbol role-legend-symbol" pointer-events="none"><path transform="translate(6,6)" d="M-5,0L5,0" stroke="#e45756" stroke-width="1.5" opacity="0.2"></path></g><g class="mark-text role-legend-label" pointer-events="none"><text text-anchor="start" transform="translate(16,9)" font-family="Roboto Condensed" font-size="10px" fill="#000" opacity="1">Recovered</text></g></g><path class="foreground" aria-hidden="true" d="" pointer-events="none" display="none"></path></g></g></g><path class="foreground" aria-hidden="true" d="" pointer-events="none" display="none"></path></g></g></g><path class="foreground" aria-hidden="true" d="" pointer-events="none" display="none"></path></g></g></g><path class="foreground" aria-hidden="true" d="" display="none"></path></g></g></g></svg>