<svg class="marks" width="1008" height="476" viewBox="0 0 1008 476" version="1.1" xmlns="http://www.w3.org/2000/svg" xmlns:xlink="http://www.w3.org/1999/xlink"><defs><clipPath id="clip1"><rect x="0" y="0" width="400" height="400"></rect></clipPath><clipPath id="clip2"><rect x="0" y="0" width="400" height="400"></rect></clipPath><clipPath id="clip3"><rect x="0" y="0" width="400" height="400"></rect></clipPath><clipPath id="clip4"><rect x="0" y="0" width="400" height="400"></rect></clipPath><clipPath id="clip5"><rect x="0" y="0" width="400" height="400"></rect></clipPath><clipPath id="clip6"><rect x="0" y="0" width="400" height="400"></rect></clipPath><clipPath id="clip7"><rect x="0" y="0" width="400" height="400"></rect></clipPath><clipPath id="clip8"><rect x="0" y="0" width="400" height="400"></rect></clipPath><clipPath id="clip9"><rect x="0" y="0" width="400" height="400"></rect></clipPath></defs><rect width="1008" height="476" fill="white"></rect><g fill="none" stroke-miterlimit="10" transform="translate(50,44)"><g class="mark-group role-frame root" role="graphics-object" aria-roledescription="group mark container"><g transform="translate(0,0)"><path class="background" aria-hidden="true" d="M0,0h0v400h0Z"></path><g><g class="mark-group role-scope concat_0_group" role="graphics-object" aria-roledescription="group mark container"><g transform="translate(0,0)"><path class="background" aria-hidden="true" d="M0,0h400v400h-400Z" stroke="#ddd" stroke-width="0"></path><g><g class="mark-group role-axis" aria-hidden="true"><g transform="translate(0.5,0.5)"><path class="background" aria-hidden="true" d="M0,0h0v0h0Z" pointer-events="none"></path><g><g class="mark-rule role-axis-grid" pointer-events="none"><line transform="translate(0,400)" x2="400" y2="0" stroke="#ddd" stroke-width="1" opacity="1"></line><line transform="translate(0,371)" x2="400" y2="0" stroke="#ddd" stroke-width="1" opacity="1"></line><line transform="translate(0,343)" x2="400" y2="0" stroke="#ddd" stroke-width="1" opacity="1"></line><line transform="translate(0,314)" x2="400" y2="0" stroke="#ddd" stroke-width="1" opacity="1"></line><line transform="translate(0,286)" x2="400" y2="0" stroke="#ddd" stroke-width="1" opacity="1"></line><line transform="translate(0,257)" x2="400" y2="0" stroke="#ddd" stroke-width="1" opacity="1"></line><line transform="translate(0,229)" x2="400" y2="0" stroke="#ddd" stroke-width="1" opacity="1"></line><line transform="translate(0,200)" x2="400" y2="0" stroke="#ddd" stroke-width="1" opacity="1"></line><line transform="translate(0,171)" x2="400" y2="0" stroke="#ddd" stroke-width="1" opacity="1"></line><line transform="translate(0,143)" x2="400" y2="0" stroke="#ddd" stroke-width="1" opacity="1"></line><line transform="translate(0,114)" x2="400" y2="0" stroke="#ddd" stroke-width="1" opacity="1"></line><line transform="translate(0,86)" x2="400" y2="0" stroke="#ddd" stroke-width="1" opacity="1"></line><line transform="translate(0,57)" x2="400" y2="0" stroke="#ddd" stroke-width="1" opacity="1"></line><line transform="translate(0,29)" x2="400" y2="0" stroke="#ddd" stroke-width="1" opacity="1"></line><line transform="translate(0,0)" x2="400" y2="0" stroke="#ddd" stroke-width="1" opacity="1"></line></g></g><path class="foreground" aria-hidden="true" d="" pointer-events="none" display="none"></path></g></g><g class="mark-group role-axis" role="graphics-symbol" aria-roledescription="axis" aria-label="X-axis titled 'Date' for a time scale with values from May 01 to May 31"><g transform="translate(0.5,400.5)"><path class="background" aria-hidden="true" d="M0,0h0v0h0Z" pointer-events="none"></path><g><g class="mark-text role-axis-label" pointer-events="none"><text text-anchor="middle" transform="translate(17.22222222222222,10)" font-family="Roboto Condensed" font-size="10px" fill="#000" opacity="1">May 03</text><text text-anchor="middle" transform="translate(43.888888888888886,10)" font-family="Roboto Condensed" font-size="10px" fill="#000" opacity="0">May 05</text><text text-anchor="middle" transform="translate(70.55555555555556,10)" font-family="Roboto Condensed" font-size="10px" fill="#000" opacity="1">May 07</text><text text-anchor="middle" transform="translate(97.22222222222221,10)" font-family="Roboto Condensed" font-size="10px" fill="#000" opacity="0">May 09</text><text text-anchor="middle" transform="translate(123.88888888888889,10)" font-family="Roboto Condensed" font-size="10px" fill="#000" opacity="1">May 11</text><text text-anchor="middle" transform="translate(150.55555555555554,10)" font-family="Roboto Condensed" font-size="10px" fill="#000" opacity="0">May 13</text><text text-anchor="middle" transform="translate(177.22222222222223,10)" font-family="Roboto Condensed" font-size="10px" fill="#000" opacity="1">May 15</text><text text-anchor="middle" transform="translate(203.88888888888889,10)" font-family="Roboto Condensed" font-size="10px" fill="#000" opacity="0">May 17</text><text text-anchor="middle" transform="translate(230.55555555555554,10)" font-family="Roboto Condensed" font-size="10px" fill="#000" opacity="1">May 19</text><text text-anchor="middle" transform="translate(257.22222222222223,10)" font-family="Roboto Condensed" font-size="10px" fill="#000" opacity="0">May 21</text><text text-anchor="middle" transform="translate(283.8888888888889,10)" font-family="Roboto Condensed" font-size="10px" fill="#000" opacity="1">May 23</text><text text-anchor="middle" transform="translate(310.55555555555554,10)" font-family="Roboto Condensed" font-size="10px" fill="#000" opacity="0">May 25</text><text text-anchor="middle" transform="translate(337.22222222222223,10)" font-family="Roboto Condensed" font-size="10px" fill="#000" opacity="1">May 27</text><text text-anchor="middle" transform="translate(363.88888888888886,10)" font-family="Roboto Condensed" font-size="10px" fill="#000" opacity="0">May 29</text><text text-anchor="middle" transform="translate(390.55555555555554,10)" font-family="Roboto Condensed" font-size="10px" fill="#000" opacity="1">May 31</text></g><g class="mark-rule role-axis-domain" pointer-events="none"><line transform="translate(0,0)" x2="400" y2="0" stroke="lightgray" stroke-width="1" opacity="1"></line></g><g class="mark-text role-axis-title" pointer-events="none"><text text-anchor="middle" transform="translate(200,25)" font-family="Roboto Condensed" font-size="11px" font-weight="normal" fill="#000" opacity="1">Date</text></g></g><path class="foreground" aria-hidden="true" d="" pointer-events="none" display="none"></path></g></g><g class="mark-group role-axis" role="graphics-symbol" aria-roledescription="axis" aria-label="Y-axis titled 'Count' for a linear scale with values from -200 to 2,600"><g transform="translate(0.5,0.5)"><path class="background" aria-hidden="true" d="M0,0h0v0h0Z" pointer-events="none"></path><g><g class="mark-text role-axis-label" pointer-events="none"><text text-anchor="end" transform="translate(-2,403)" font-family="Roboto Condensed" font-size="10px" fill="#000" opacity="1">-200</text><text text-anchor="end" transform="translate(-2,374.42857142857144)" font-family="Roboto Condensed" font-size="10px" fill="#000" opacity="1">0</text><text text-anchor="end" transform="translate(-2,345.8571428571429)" font-family="Roboto Condensed" font-size="10px" fill="#000" opacity="1">200</text><text text-anchor="end" transform="translate(-2,317.2857142857143)" font-family="Roboto Condensed" font-size="10px" fill="#000" opacity="1">400</text><text text-anchor="end" transform="translate(-2,288.7142857142857)" font-family="Roboto Condensed" font-size="10px" fill="#000" opacity="1">600</text><text text-anchor="end" transform="translate(-2,260.1428571428571)" font-family="Roboto Condensed" font-size="10px" fill="#000" opacity="1">800</text><text text-anchor="end" transform="translate(-2,231.57142857142856)" font-family="Roboto Condensed" font-size="10px" fill="#000" opacity="1">1,000</text><text text-anchor="end" transform="translate(-2,203)" font-family="Roboto Condensed" font-size="10px" fill="#000" opacity="1">1,200</text><text text-anchor="end" transform="translate(-2,174.42857142857144)" font-family="Roboto Condensed" font-size="10px" fill="#000" opacity="1">1,400</text><text text-anchor="end" transform="translate(-2,145.85714285714283)" font-family="Roboto Condensed" font-size="10px" fill="#000" opacity="1">1,600</text><text text-anchor="end" transform="translate(-2,117.28571428571428)" font-family="Roboto Condensed" font-size="10px" fill="#000" opacity="1">1,800</text><text text-anchor="end" transform="translate(-2,88.71428571428572)" font-family="Roboto Condensed" font-size="10px" fill="#000" opacity="1">2,000</text><text text-anchor="end" transform="translate(-2,60.14285714285716)" font-family="Roboto Condensed" font-size="10px" fill="#000" opacity="1">2,200</text><text text-anchor="end" transform="translate(-2,31.57142857142856)" font-family="Roboto Condensed" font-size="10px" fill="#000" opacity="1">2,400</text><text text-anchor="end" transform="translate(-2,3)" font-family="Roboto Condensed" font-size="10px" fill="#000" opacity="1">2,600</text></g><g class="mark-rule role-axis-domain" pointer-events="none"><line transform="translate(0,400)" x2="0" y2="-400" stroke="lightgray" stroke-width="1" opacity="1"></line></g><g class="mark-text role-axis-title" pointer-events="none"><text text-anchor="start" transform="translate(-45,-13)" font-family="Roboto Condensed" font-size="11px" font-weight="normal" fill="#000" opacity="1">Count</text></g></g><path class="foreground" aria-hidden="true" d="" pointer-events="none" display="none"></path></g></g><g class="mark-group role-scope concat_0_layer_0_pathgroup" role="graphics-object" aria-roledescription="group mark container"><g transform="translate(0,0)"><path class="background" aria-hidden="true" d="M0,0h400v400h-400Z"></path><g><g class="mark-line role-mark concat_0_layer_0_marks" clip-path="url(#clip1)" role="graphics-object" aria-roledescription="line mark container"><path aria-label="Type: Recovered; Date: Mar 01; Count: 0" role="graphics-symbol" aria-roledescription="line mark" d="M-822.2222222222222,371.42857142857144L-808.8888888888889,371.42857142857144L-795.5555555555555,371.42857142857144L-782.2222222222222,371.42857142857144L-768.8888888888889,371.42857142857144L-755.5555555555555,371.42857142857144L-742.2222222222223,371.42857142857144L-728.8888888888889,371.42857142857144L-716.1111111111111,371.42857142857144L-702.7777777777777,371.42857142857144L-689.4444444444445,371.42857142857144L-676.1111111111111,371.42857142857144L-662.7777777777778,371.42857142857144L-649.4444444444445,371.42857142857144L-636.1111111111111,371.42857142857144L-622.7777777777778,371.42857142857144L-609.4444444444445,371.42857142857144L-596.1111111111111,367.1428571428571L-582.7777777777777,371.42857142857144L-569.4444444444445,375.7142857142857L-556.1111111111111,334L-542.7777777777778,371.42857142857144L-529.4444444444445,371.42857142857144L-516.1111111111111,343.14285714285717L-502.77777777777777,359.14285714285717L-489.44444444444446,353.14285714285717L-476.1111111111111,345.2857142857143L-462.7777777777778,342.1428571428571L-449.44444444444446,329.1428571428571L-436.1111111111111,347.42857142857144L-422.77777777777777,347.2857142857143L-409.4444444444444,309.14285714285717L-396.11111111111114,319.57142857142856L-382.77777777777777,317.57142857142856L-369.44444444444446,317.8571428571429L-356.1111111111111,299.42857142857144L-342.77777777777777,337.85714285714283L-329.44444444444446,347L-316.1111111111111,296.57142857142856L-302.77777777777777,302.4285714285714L-289.44444444444446,313.7142857142857L-276.1111111111111,311.7142857142857L-262.77777777777777,303.2857142857143L-249.44444444444446,336.57142857142856L-236.11111111111111,348.42857142857144L-222.77777777777777,337.2857142857143L-209.44444444444446,306.4285714285714L-196.11111111111111,314.4285714285714L-182.77777777777777,316.14285714285717L-169.44444444444443,313L-156.11111111111111,351.71428571428567L-142.77777777777777,356.1428571428571L-129.44444444444446,309.8571428571429L-116.11111111111111,319L-102.77777777777777,325.42857142857144L-89.44444444444444,329.2857142857143L-76.11111111111111,318.8571428571429L-62.77777777777778,358.14285714285717L-49.44444444444444,362.14285714285717L-36.11111111111111,322.8571428571429L-22.77777777777778,329.57142857142856L-9.444444444444445,326.2857142857143L3.888888888888889,325.85714285714283L17.22222222222222,357.42857142857144L30.555555555555557,361.57142857142856L43.888888888888886,362.4285714285714L57.22222222222222,330L70.55555555555556,335.85714285714283L83.88888888888889,339.85714285714283L97.22222222222221,341.4285714285714L110.55555555555556,338.42857142857144L123.88888888888889,363.57142857142856L137.22222222222223,366.4285714285714L150.55555555555554,342.1428571428571L163.88888888888889,346.57142857142856L177.22222222222223,344.28571428571433L190.55555555555554,348.7142857142857L203.88888888888889,347.14285714285717L217.2222222222222,367.57142857142856L230.55555555555554,367.1428571428571L243.8888888888889,348.57142857142856L257.22222222222223,351.2857142857143L270.55555555555554,352.1428571428571L283.8888888888889,366.85714285714283L297.22222222222223,354.7142857142857L310.55555555555554,367.85714285714283L323.8888888888889,368.14285714285717L337.22222222222223,350.7142857142857L350.55555555555554,356.1428571428571L363.88888888888886,355.71428571428567L377.22222222222223,359L390.55555555555554,354.57142857142856L403.88888888888886,366.85714285714283" stroke="#e45756" stroke-width="2" opacity="0.2"></path></g></g><path class="foreground" aria-hidden="true" d="" display="none"></path></g><g transform="translate(0,0)"><path class="background" aria-hidden="true" d="M0,0h400v400h-400Z"></path><g><g class="mark-line role-mark concat_0_layer_0_marks" clip-path="url(#clip2)" role="graphics-object" aria-roledescription="line mark container"><path aria-label="Type: Deaths; Date: Mar 01; Count: 0" role="graphics-symbol" aria-roledescription="line mark" d="M-822.2222222222222,371.42857142857144L-808.8888888888889,371.42857142857144L-795.5555555555555,371.42857142857144L-782.2222222222222,371.42857142857144L-768.8888888888889,371.42857142857144L-755.5555555555555,371.42857142857144L-742.2222222222223,371.42857142857144L-728.8888888888889,371.42857142857144L-716.1111111111111,371.42857142857144L-702.7777777777777,371.42857142857144L-689.4444444444445,371L-676.1111111111111,371.42857142857144L-662.7777777777778,371.42857142857144L-649.4444444444445,371.2857142857143L-636.1111111111111,371.42857142857144L-622.7777777777778,371.2857142857143L-609.4444444444445,370.7142857142857L-596.1111111111111,370.8571428571429L-582.7777777777777,370.42857142857144L-569.4444444444445,369.1428571428571L-556.1111111111111,367.1428571428571L-542.7777777777778,370.2857142857143L-529.4444444444445,369.57142857142856L-516.1111111111111,366.57142857142856L-502.77777777777777,363.42857142857144L-489.44444444444446,365.42857142857144L-476.1111111111111,361.57142857142856L-462.7777777777778,362.2857142857143L-449.44444444444446,360.2857142857143L-436.1111111111111,359.7142857142857L-422.77777777777777,344L-409.4444444444444,353.8571428571429L-396.11111111111114,345.2857142857143L-382.77777777777777,352.57142857142856L-369.44444444444446,351.42857142857144L-356.1111111111111,348L-342.77777777777777,345L-329.44444444444446,313.8571428571429L-316.1111111111111,342.1428571428571L-302.77777777777777,331L-289.44444444444446,300.57142857142856L-276.1111111111111,324.7142857142857L-262.77777777777777,335.14285714285717L-249.44444444444446,328.14285714285717L-236.11111111111111,335.14285714285717L-222.77777777777777,331L-209.44444444444446,311.85714285714283L-196.11111111111111,327.7142857142857L-182.77777777777777,330L-169.44444444444443,338.57142857142856L-156.11111111111111,350.7142857142857L-142.77777777777777,347.14285714285717L-129.44444444444446,333.7142857142857L-116.11111111111111,338.8571428571429L-102.77777777777777,344.42857142857144L-89.44444444444444,337.42857142857144L-76.11111111111111,346.1428571428571L-62.77777777777778,355.2857142857143L-49.44444444444444,353.7142857142857L-36.11111111111111,347.14285714285717L-22.77777777777778,358.14285714285717L-9.444444444444445,355.8571428571429L3.888888888888889,362.5714285714286L17.22222222222222,360.14285714285717L30.555555555555557,360L43.888888888888886,358.2857142857143L57.22222222222222,325.2857142857143L70.55555555555556,360.5714285714286L83.88888888888889,356.2857142857143L97.22222222222221,362.85714285714283L110.55555555555556,360.7142857142857L123.88888888888889,364.14285714285717L137.22222222222223,363.7142857142857L150.55555555555554,359.7142857142857L163.88888888888889,362.85714285714283L177.22222222222223,363.42857142857144L190.55555555555554,364.85714285714283L203.88888888888889,364.7142857142857L217.2222222222222,367.42857142857144L230.55555555555554,367.42857142857144L243.8888888888889,365.42857142857144L257.22222222222223,366.2857142857143L270.55555555555554,367.7142857142857L283.8888888888889,367.85714285714283L297.22222222222223,365.2857142857143L310.55555555555554,366.85714285714283L323.8888888888889,368.2857142857143L337.22222222222223,367.1428571428571L350.55555555555554,368L363.88888888888886,365.42857142857144L377.22222222222223,368.14285714285717L390.55555555555554,369.42857142857144L403.88888888888886,368.7142857142857" stroke="#f58518" stroke-width="2" opacity="0.2"></path></g></g><path class="foreground" aria-hidden="true" d="" display="none"></path></g><g transform="translate(0,0)"><path class="background" aria-hidden="true" d="M0,0h400v400h-400Z"></path><g><g class="mark-line role-mark concat_0_layer_0_marks" clip-path="url(#clip3)" role="graphics-object" aria-roledescription="line mark container"><path aria-label="Type: Confirmed; Date: Mar 01; Count: 1" role="graphics-symbol" aria-roledescription="line mark" d="M-822.2222222222222,371.2857142857143L-808.8888888888889,370.57142857142856L-795.5555555555555,370.7142857142857L-782.2222222222222,370L-768.8888888888889,367.57142857142856L-755.5555555555555,363L-742.2222222222223,362.85714285714283L-728.8888888888889,367L-716.1111111111111,365.85714285714283L-702.7777777777777,367.42857142857144L-689.4444444444445,364.7142857142857L-676.1111111111111,371.42857142857144L-662.7777777777778,336.42857142857144L-649.4444444444445,352.85714285714283L-636.1111111111111,343.2857142857143L-622.7777777777778,346.85714285714283L-609.4444444444445,345L-596.1111111111111,336.7142857142857L-582.7777777777777,327.28571428571433L-569.4444444444445,305.42857142857144L-556.1111111111111,291.7142857142857L-542.7777777777778,287.7142857142857L-529.4444444444445,322.5714285714286L-516.1111111111111,296.2857142857143L-502.77777777777777,276L-489.44444444444446,186L-476.1111111111111,221.57142857142858L-462.7777777777778,107.14285714285717L-449.44444444444446,128.28571428571428L-436.1111111111111,219.57142857142858L-422.77777777777777,246.28571428571428L-409.4444444444444,201.5714285714286L-396.11111111111114,173.71428571428572L-382.77777777777777,168.28571428571428L-369.44444444444446,134.14285714285717L-356.1111111111111,191.42857142857142L-342.77777777777777,211.00000000000003L-329.44444444444446,174.28571428571428L-316.1111111111111,198.71428571428572L-302.77777777777777,145.71428571428572L-289.44444444444446,130.85714285714286L-276.1111111111111,178.42857142857142L-262.77777777777777,138.7142857142857L-249.44444444444446,236.85714285714283L-236.11111111111111,295.7142857142857L-222.77777777777777,20.85714285714286L-209.44444444444446,194.85714285714283L-196.11111111111111,181.57142857142858L-182.77777777777777,222.14285714285717L-169.44444444444443,183.85714285714286L-156.11111111111111,159L-142.77777777777777,232.42857142857142L-129.44444444444446,238.14285714285717L-116.11111111111111,241.71428571428572L-102.77777777777777,157.7142857142857L-89.44444444444444,224.00000000000003L-76.11111111111111,255.85714285714286L-62.77777777777778,292.42857142857144L-49.44444444444444,279L-36.11111111111111,296.42857142857144L-22.77777777777778,277.1428571428571L-9.444444444444445,298.1428571428571L3.888888888888889,302.1428571428571L17.22222222222222,315.85714285714283L30.555555555555557,319.85714285714283L43.888888888888886,336.85714285714283L57.22222222222222,332.57142857142856L70.55555555555556,280.14285714285717L83.88888888888889,287L97.22222222222221,287.85714285714283L110.55555555555556,302.1428571428571L123.88888888888889,318.8571428571429L137.22222222222223,324.2857142857143L150.55555555555554,342.57142857142856L163.88888888888889,327.57142857142856L177.22222222222223,320.57142857142856L190.55555555555554,322.14285714285717L203.88888888888889,329.85714285714283L217.2222222222222,331.57142857142856L230.55555555555554,338.2857142857143L243.8888888888889,344L257.22222222222223,335.4285714285714L270.55555555555554,332L283.8888888888889,328.7142857142857L297.22222222222223,331.1428571428571L310.55555555555554,335.7142857142857L323.8888888888889,355.2857142857143L337.22222222222223,351.8571428571429L350.55555555555554,334.7142857142857L363.88888888888886,341.14285714285717L377.22222222222223,353.57142857142856L390.55555555555554,343.5714285714286L403.88888888888886,352" stroke="#4c78a8" stroke-width="2" opacity="0.2"></path></g></g><path class="foreground" aria-hidden="true" d="" display="none"></path></g></g><g class="mark-group role-scope concat_0_layer_1_pathgroup" role="graphics-object" aria-roledescription="group mark container"><g transform="translate(0,0)"><path class="background" aria-hidden="true" d="M0,0h400v400h-400Z"></path><g><g class="mark-line role-mark concat_0_layer_1_marks" clip-path="url(#clip4)" role="graphics-object" aria-roledescription="line mark container"><path aria-label="Type: Recovered; Date: Mar 01; Count: 0" role="graphics-symbol" aria-roledescription="line mark" d="M-742.2222222222223,371.42857142857144L-728.8888888888889,371.42857142857144L-716.1111111111111,371.42857142857144L-702.7777777777777,371.42857142857144L-689.4444444444445,371.42857142857144L-676.1111111111111,371.42857142857144L-662.7777777777778,371.42857142857144L-649.4444444444445,371.42857142857144L-636.1111111111111,371.42857142857144L-622.7777777777778,371.42857142857144L-609.4444444444445,371.42857142857144L-596.1111111111111,370.81632653061223L-582.7777777777777,370.81632653061223L-569.4444444444445,371.42857142857144L-556.1111111111111,366.08163265306126L-542.7777777777778,366.08163265306126L-529.4444444444445,366.08163265306126L-516.1111111111111,362.0408163265306L-502.77777777777777,360.8979591836735L-489.44444444444446,358.2857142857143L-476.1111111111111,353.9387755102041L-462.7777777777778,355.1020408163265L-449.44444444444446,349.0612244897959L-436.1111111111111,345.6326530612245L-422.77777777777777,346.2244897959184L-409.4444444444444,339.08163265306126L-396.11111111111114,334.2857142857143L-382.77777777777777,330.3265306122449L-369.44444444444446,326.8571428571429L-356.1111111111111,322.6122448979592L-342.77777777777777,321.2448979591837L-329.44444444444446,321.2040816326531L-316.1111111111111,319.40816326530614L-302.77777777777777,316.9591836734694L-289.44444444444446,316.40816326530614L-276.1111111111111,315.53061224489795L-262.77777777777777,316.0816326530612L-249.44444444444446,315.8979591836735L-236.11111111111111,316.10204081632656L-222.77777777777777,321.9183673469388L-209.44444444444446,322.48979591836735L-196.11111111111111,322.59183673469386L-182.77777777777777,323.2244897959184L-169.44444444444443,324.6122448979592L-156.11111111111111,326.7755102040816L-142.77777777777777,327.8775510204082L-129.44444444444446,323.9591836734694L-116.11111111111111,325.7551020408163L-102.77777777777777,327.3265306122449L-89.44444444444444,329.2040816326531L-76.11111111111111,330.0408163265306L-62.77777777777778,330.9591836734694L-49.44444444444444,331.8163265306123L-36.11111111111111,333.67346938775506L-22.77777777777778,335.18367346938777L-9.444444444444445,335.3061224489796L3.888888888888889,334.81632653061223L17.22222222222222,340.3265306122449L30.555555555555557,340.81632653061223L43.888888888888886,340.85714285714283L57.22222222222222,341.8775510204082L70.55555555555556,342.7755102040816L83.88888888888889,344.7142857142857L97.22222222222221,346.9387755102041L110.55555555555556,344.2244897959184L123.88888888888889,344.51020408163265L137.22222222222223,345.0816326530612L150.55555555555554,346.81632653061223L163.88888888888889,348.34693877551024L177.22222222222223,348.9795918367347L190.55555555555554,350.0204081632653L203.88888888888889,351.265306122449L217.2222222222222,351.83673469387753L230.55555555555554,351.9387755102041L243.8888888888889,352.85714285714283L257.22222222222223,353.53061224489795L270.55555555555554,354.6530612244898L283.8888888888889,357.2448979591837L297.22222222222223,358.32653061224494L310.55555555555554,358.3673469387755L323.8888888888889,358.51020408163265L337.22222222222223,358.8163265306123L350.55555555555554,359.51020408163265L363.88888888888886,360.0204081632653L377.22222222222223,358.8979591836735L390.55555555555554,358.8775510204082L403.88888888888886,358.73469387755097" stroke="#e45756" stroke-width="2" opacity="1"></path></g></g><path class="foreground" aria-hidden="true" d="" display="none"></path></g><g transform="translate(0,0)"><path class="background" aria-hidden="true" d="M0,0h400v400h-400Z"></path><g><g class="mark-line role-mark concat_0_layer_1_marks" clip-path="url(#clip5)" role="graphics-object" aria-roledescription="line mark container"><path aria-label="Type: Deaths; Date: Mar 01; Count: 0" role="graphics-symbol" aria-roledescription="line mark" d="M-742.2222222222223,371.42857142857144L-728.8888888888889,371.42857142857144L-716.1111111111111,371.42857142857144L-702.7777777777777,371.42857142857144L-689.4444444444445,371.36734693877554L-676.1111111111111,371.36734693877554L-662.7777777777778,371.36734693877554L-649.4444444444445,371.34693877551024L-636.1111111111111,371.34693877551024L-622.7777777777778,371.3265306122449L-609.4444444444445,371.2244897959184L-596.1111111111111,371.2040816326531L-582.7777777777777,371.0612244897959L-569.4444444444445,370.734693877551L-556.1111111111111,370.14285714285717L-542.7777777777778,369.9795918367347L-529.4444444444445,369.734693877551L-516.1111111111111,369.1428571428571L-502.77777777777777,368.08163265306126L-489.44444444444446,367.36734693877554L-476.1111111111111,366.2857142857143L-462.7777777777778,365.5918367346939L-449.44444444444446,364.16326530612247L-436.1111111111111,362.7551020408163L-422.77777777777777,359.53061224489795L-409.4444444444444,358.16326530612247L-396.11111111111114,355.2857142857143L-382.77777777777777,354L-369.44444444444446,352.44897959183675L-356.1111111111111,350.6938775510204L-342.77777777777777,348.59183673469386L-329.44444444444446,344.28571428571433L-316.1111111111111,342.61224489795916L-302.77777777777777,340.57142857142856L-289.44444444444446,333.14285714285717L-276.1111111111111,329.3265306122449L-262.77777777777777,327.48979591836735L-249.44444444444446,325.0816326530612L-236.11111111111111,328.12244897959187L-222.77777777777777,326.53061224489795L-209.44444444444446,323.7959183673469L-196.11111111111111,327.6734693877551L-182.77777777777777,328.42857142857144L-169.44444444444443,328.9183673469388L-156.11111111111111,332.1428571428571L-142.77777777777777,333.85714285714283L-129.44444444444446,334.2448979591837L-116.11111111111111,338.1020408163265L-102.77777777777777,340.48979591836735L-89.44444444444444,341.55102040816325L-76.11111111111111,342.63265306122446L-62.77777777777778,343.2857142857143L-49.44444444444444,344.2244897959184L-36.11111111111111,346.1428571428571L-22.77777777777778,348.8979591836735L-9.444444444444445,350.53061224489795L3.888888888888889,354.1224489795918L17.22222222222222,356.12244897959187L30.555555555555557,356.7959183673469L43.888888888888886,357.44897959183675L57.22222222222222,354.3265306122449L70.55555555555556,354.67346938775506L83.88888888888889,354.734693877551L97.22222222222221,354.7755102040816L110.55555555555556,354.85714285714283L123.88888888888889,355.44897959183675L137.22222222222223,356.2244897959184L150.55555555555554,361.1428571428571L163.88888888888889,361.46938775510205L177.22222222222223,362.48979591836735L190.55555555555554,362.7755102040816L203.88888888888889,363.3469387755102L217.2222222222222,363.81632653061223L230.55555555555554,364.3469387755102L243.8888888888889,365.16326530612247L257.22222222222223,365.6530612244898L270.55555555555554,366.265306122449L283.8888888888889,366.6938775510204L297.22222222222223,366.7755102040816L310.55555555555554,366.6938775510204L323.8888888888889,366.8163265306123L337.22222222222223,367.0612244897959L350.55555555555554,367.3061224489796L363.88888888888886,366.9795918367347L377.22222222222223,367.0204081632653L390.55555555555554,367.61224489795916L403.88888888888886,367.87755102040813" stroke="#f58518" stroke-width="2" opacity="1"></path></g></g><path class="foreground" aria-hidden="true" d="" display="none"></path></g><g transform="translate(0,0)"><path class="background" aria-hidden="true" d="M0,0h400v400h-400Z"></path><g><g class="mark-line role-mark concat_0_layer_1_marks" clip-path="url(#clip6)" role="graphics-object" aria-roledescription="line mark container"><path aria-label="Type: Confirmed; Date: Mar 01; Count: 0" role="graphics-symbol" aria-roledescription="line mark" d="M-742.2222222222223,368L-728.8888888888889,367.3877551020408L-716.1111111111111,366.7142857142857L-702.7777777777777,366.2448979591837L-689.4444444444445,365.48979591836735L-676.1111111111111,366.0408163265306L-662.7777777777778,362.2448979591837L-649.4444444444445,360.8163265306123L-636.1111111111111,357.42857142857144L-622.7777777777778,354.7142857142857L-609.4444444444445,351.51020408163265L-596.1111111111111,347.51020408163265L-582.7777777777777,341.2040816326531L-569.4444444444445,336.7755102040816L-556.1111111111111,328.0408163265306L-542.7777777777778,320.10204081632656L-529.4444444444445,316.6326530612245L-516.1111111111111,309.6734693877551L-502.77777777777777,301L-489.44444444444446,280.81632653061223L-476.1111111111111,268.8367346938776L-462.7777777777778,242.46938775510202L-449.44444444444446,219.6938775510204L-436.1111111111111,204.9795918367347L-422.77777777777777,197.83673469387756L-409.4444444444444,187.20408163265304L-396.11111111111114,185.44897959183672L-382.77777777777777,177.8367346938776L-369.44444444444446,181.6938775510204L-356.1111111111111,190.7142857142857L-342.77777777777777,189.48979591836732L-329.44444444444446,179.20408163265304L-316.1111111111111,178.79591836734696L-302.77777777777777,174.79591836734696L-289.44444444444446,169.44897959183672L-276.1111111111111,175.77551020408163L-262.77777777777777,168.2448979591837L-249.44444444444446,171.93877551020412L-236.11111111111111,189.28571428571428L-222.77777777777777,163.87755102040816L-209.44444444444446,170.89795918367346L-196.11111111111111,178.14285714285717L-182.77777777777777,184.38775510204084L-169.44444444444443,190.83673469387756L-156.11111111111111,179.71428571428572L-142.77777777777777,170.6734693877551L-129.44444444444446,201.7142857142857L-116.11111111111111,208.40816326530614L-102.77777777777777,204.99999999999997L-89.44444444444444,205.26530612244898L-76.11111111111111,215.5510204081633L-62.77777777777778,234.61224489795916L-49.44444444444444,241.265306122449L-36.11111111111111,249.59183673469389L-22.77777777777778,254.65306122448982L-9.444444444444445,274.7142857142857L3.888888888888889,285.87755102040813L17.22222222222222,294.44897959183675L30.555555555555557,298.3673469387755L43.888888888888886,306.6326530612245L57.22222222222222,311.7959183673469L70.55555555555556,312.2244897959184L83.88888888888889,310.6326530612245L97.22222222222221,308.59183673469386L110.55555555555556,306.6326530612245L123.88888888888889,306.48979591836735L137.22222222222223,304.6938775510204L150.55555555555554,306.12244897959187L163.88888888888889,312.89795918367344L177.22222222222223,317.6938775510204L190.55555555555554,322.59183673469386L203.88888888888889,326.5510204081633L217.2222222222222,328.36734693877554L230.55555555555554,330.36734693877554L243.8888888888889,330.57142857142856L257.22222222222223,331.6938775510204L270.55555555555554,333.32653061224494L283.8888888888889,334.265306122449L297.22222222222223,334.44897959183675L310.55555555555554,335.0408163265306L323.8888888888889,337.46938775510205L337.22222222222223,338.59183673469386L350.55555555555554,338.48979591836735L363.88888888888886,339.7959183673469L377.22222222222223,343.3469387755102L390.55555555555554,345.1224489795918L403.88888888888886,347.44897959183675" stroke="#4c78a8" stroke-width="2" opacity="1"></path></g></g><path class="foreground" aria-hidden="true" d="" display="none"></path></g></g><g class="mark-group role-title"><g transform="translate(200,-39)"><path class="background" aria-hidden="true" d="M0,0h0v0h0Z" pointer-events="none"></path><g><g class="mark-text role-title-text" role="graphics-symbol" aria-roledescription="title" aria-label="Title text '7-day average (Daily values in light color)'" pointer-events="none"><text text-anchor="middle" transform="translate(0,10)" font-family="Roboto Condensed" font-size="13px" font-weight="normal" fill="#000" opacity="1">7-day average (Daily values in light color)</text></g></g><path class="foreground" aria-hidden="true" d="" pointer-events="none" display="none"></path></g></g></g><path class="foreground" aria-hidden="true" d="" display="none"></path></g></g><g class="mark-group role-scope concat_1_group" role="graphics-object" aria-roledescription="group mark container"><g transform="translate(471,0)"><path class="background" aria-hidden="true" d="M0,0h400v400h-400Z" stroke="#ddd" stroke-width="0"></path><g><g class="mark-group role-axis" aria-hidden="true"><g transform="translate(0.5,0.5)"><path class="background" aria-hidden="true" d="M0,0h0v0h0Z" pointer-events="none"></path><g><g class="mark-rule role-axis-grid" pointer-events="none"><line transform="translate(0,400)" x2="400" y2="0" stroke="#ddd" stroke-width="1" opacity="1"></line><line transform="translate(0,367)" x2="400" y2="0" stroke="#ddd" stroke-width="1" opacity="1"></line><line transform="translate(0,333)" x2="400" y2="0" stroke="#ddd" stroke-width="1" opacity="1"></line><line transform="translate(0,300)" x2="400" y2="0" stroke="#ddd" stroke-width="1" opacity="1"></line><line transform="translate(0,267)" x2="400" y2="0" stroke="#ddd" stroke-width="1" opacity="1"></line><line transform="translate(0,233)" x2="400" y2="0" stroke="#ddd" stroke-width="1" opacity="1"></line><line transform="translate(0,200)" x2="400" y2="0" stroke="#ddd" stroke-width="1" opacity="1"></line><line transform="translate(0,167)" x2="400" y2="0" stroke="#ddd" stroke-width="1" opacity="1"></line><line transform="translate(0,133)" x2="400" y2="0" stroke="#ddd" stroke-width="1" opacity="1"></line><line transform="translate(0,100)" x2="400" y2="0" stroke="#ddd" stroke-width="1" opacity="1"></line><line transform="translate(0,67)" x2="400" y2="0" stroke="#ddd" stroke-width="1" opacity="1"></line><line transform="translate(0,33)" x2="400" y2="0" stroke="#ddd" stroke-width="1" opacity="1"></line><line transform="translate(0,0)" x2="400" y2="0" stroke="#ddd" stroke-width="1" opacity="1"></line></g></g><path class="foreground" aria-hidden="true" d="" pointer-events="none" display="none"></path></g></g><g class="mark-group role-axis" role="graphics-symbol" aria-roledescription="axis" aria-label="X-axis titled 'Date' for a time scale with values from May 01 to May 31"><g transform="translate(0.5,400.5)"><path class="background" aria-hidden="true" d="M0,0h0v0h0Z" pointer-events="none"></path><g><g class="mark-text role-axis-label" pointer-events="none"><text text-anchor="middle" transform="translate(17.22222222222222,10)" font-family="Roboto Condensed" font-size="10px" fill="#000" opacity="1">May 03</text><text text-anchor="middle" transform="translate(43.888888888888886,10)" font-family="Roboto Condensed" font-size="10px" fill="#000" opacity="0">May 05</text><text text-anchor="middle" transform="translate(70.55555555555556,10)" font-family="Roboto Condensed" font-size="10px" fill="#000" opacity="1">May 07</text><text text-anchor="middle" transform="translate(97.22222222222221,10)" font-family="Roboto Condensed" font-size="10px" fill="#000" opacity="0">May 09</text><text text-anchor="middle" transform="translate(123.88888888888889,10)" font-family="Roboto Condensed" font-size="10px" fill="#000" opacity="1">May 11</text><text text-anchor="middle" transform="translate(150.55555555555554,10)" font-family="Roboto Condensed" font-size="10px" fill="#000" opacity="0">May 13</text><text text-anchor="middle" transform="translate(177.22222222222223,10)" font-family="Roboto Condensed" font-size="10px" fill="#000" opacity="1">May 15</text><text text-anchor="middle" transform="translate(203.88888888888889,10)" font-family="Roboto Condensed" font-size="10px" fill="#000" opacity="0">May 17</text><text text-anchor="middle" transform="translate(230.55555555555554,10)" font-family="Roboto Condensed" font-size="10px" fill="#000" opacity="1">May 19</text><text text-anchor="middle" transform="translate(257.22222222222223,10)" font-family="Roboto Condensed" font-size="10px" fill="#000" opacity="0">May 21</text><text text-anchor="middle" transform="translate(283.8888888888889,10)" font-family="Roboto Condensed" font-size="10px" fill="#000" opacity="1">May 23</text><text text-anchor="middle" transform="translate(310.55555555555554,10)" font-family="Roboto Condensed" font-size="10px" fill="#000" opacity="0">May 25</text><text text-anchor="middle" transform="translate(337.22222222222223,10)" font-family="Roboto Condensed" font-size="10px" fill="#000" opacity="1">May 27</text><text text-anchor="middle" transform="translate(363.88888888888886,10)" font-family="Roboto Condensed" font-size="10px" fill="#000" opacity="0">May 29</text><text text-anchor="middle" transform="translate(390.55555555555554,10)" font-family="Roboto Condensed" font-size="10px" fill="#000" opacity="1">May 31</text></g><g class="mark-rule role-axis-domain" pointer-events="none"><line transform="translate(0,0)" x2="400" y2="0" stroke="lightgray" stroke-width="1" opacity="1"></line></g><g class="mark-text role-axis-title" pointer-events="none"><text text-anchor="middle" transform="translate(200,25)" font-family="Roboto Condensed" font-size="11px" font-weight="normal" fill="#000" opacity="1">Date</text></g></g><path class="foreground" aria-hidden="true" d="" pointer-events="none" display="none"></path></g></g><g class="mark-group role-axis" role="graphics-symbol" aria-roledescription="axis" aria-label="Y-axis titled 'Count' for a linear scale with values from 0 to 60,000"><g transform="translate(0.5,0.5)"><path class="background" aria-hidden="true" d="M0,0h0v0h0Z" pointer-events="none"></path><g><g class="mark-text role-axis-label" pointer-events="none"><text text-anchor="end" transform="translate(-2,403)" font-family="Roboto Condensed" font-size="10px" fill="#000" opacity="1">0</text><text text-anchor="end" transform="translate(-2,369.66666666666663)" font-family="Roboto Condensed" font-size="10px" fill="#000" opacity="1">5,000</text><text text-anchor="end" transform="translate(-2,336.33333333333337)" font-family="Roboto Condensed" font-size="10px" fill="#000" opacity="1">10,000</text><text text-anchor="end" transform="translate(-2,303)" font-family="Roboto Condensed" font-size="10px" fill="#000" opacity="1">15,000</text><text text-anchor="end" transform="translate(-2,269.6666666666667)" font-family="Roboto Condensed" font-size="10px" fill="#000" opacity="1">20,000</text><text text-anchor="end" transform="translate(-2,236.33333333333331)" font-family="Roboto Condensed" font-size="10px" fill="#000" opacity="1">25,000</text><text text-anchor="end" transform="translate(-2,203)" font-family="Roboto Condensed" font-size="10px" fill="#000" opacity="1">30,000</text><text text-anchor="end" transform="translate(-2,169.66666666666666)" font-family="Roboto Condensed" font-size="10px" fill="#000" opacity="1">35,000</text><text text-anchor="end" transform="translate(-2,136.33333333333334)" font-family="Roboto Condensed" font-size="10px" fill="#000" opacity="1">40,000</text><text text-anchor="end" transform="translate(-2,103)" font-family="Roboto Condensed" font-size="10px" fill="#000" opacity="1">45,000</text><text text-anchor="end" transform="translate(-2,69.66666666666666)" font-family="Roboto Condensed" font-size="10px" fill="#000" opacity="1">50,000</text><text text-anchor="end" transform="translate(-2,36.33333333333335)" font-family="Roboto Condensed" font-size="10px" fill="#000" opacity="1">55,000</text><text text-anchor="end" transform="translate(-2,3)" font-family="Roboto Condensed" font-size="10px" fill="#000" opacity="1">60,000</text></g><g class="mark-rule role-axis-domain" pointer-events="none"><line transform="translate(0,400)" x2="0" y2="-400" stroke="lightgray" stroke-width="1" opacity="1"></line></g><g class="mark-text role-axis-title" pointer-events="none"><text text-anchor="start" transform="translate(-45,-13)" font-family="Roboto Condensed" font-size="11px" font-weight="normal" fill="#000" opacity="1">Count</text></g></g><path class="foreground" aria-hidden="true" d="" pointer-events="none" display="none"></path></g></g><g class="mark-group role-scope concat_1_pathgroup" role="graphics-object" aria-roledescription="group mark container"><g transform="translate(0,0)"><path class="background" aria-hidden="true" d="M0,0h400v400h-400Z"></path><g><g class="mark-line role-mark concat_1_marks" clip-path="url(#clip7)" role="graphics-object" aria-roledescription="line mark container"><path aria-label="Type: Recovered; Date: Mar 01; Country: Belgium; Confirmed: 2; Recovered: 1; Deaths: 0; Count: 1" role="graphics-symbol" aria-roledescription="line mark" d="M-822.2222222222222,399.99333333333334L-808.8888888888889,399.99333333333334L-795.5555555555555,399.99333333333334L-782.2222222222222,399.99333333333334L-768.8888888888889,399.99333333333334L-755.5555555555555,399.99333333333334L-742.2222222222223,399.99333333333334L-728.8888888888889,399.99333333333334L-716.1111111111111,399.99333333333334L-702.7777777777777,399.99333333333334L-689.4444444444445,399.99333333333334L-676.1111111111111,399.99333333333334L-662.7777777777778,399.99333333333334L-649.4444444444445,399.99333333333334L-636.1111111111111,399.99333333333334L-622.7777777777778,399.99333333333334L-609.4444444444445,399.99333333333334L-596.1111111111111,399.7933333333333L-582.7777777777777,399.7933333333333L-569.4444444444445,399.99333333333334L-556.1111111111111,398.24666666666667L-542.7777777777778,398.24666666666667L-529.4444444444445,398.24666666666667L-516.1111111111111,396.9266666666667L-502.77777777777777,396.35333333333335L-489.44444444444446,395.5L-476.1111111111111,394.28000000000003L-462.7777777777778,392.9133333333333L-449.44444444444446,390.94L-436.1111111111111,389.82L-422.77777777777777,388.6933333333333L-409.4444444444444,385.7866666666667L-396.11111111111114,383.3666666666667L-382.77777777777777,380.8533333333333L-369.44444444444446,378.3533333333333L-356.1111111111111,374.99333333333334L-342.77777777777777,373.4266666666667L-329.44444444444446,372.28666666666663L-316.1111111111111,368.79333333333335L-302.77777777777777,365.5733333333333L-289.44444444444446,362.88L-276.1111111111111,360.0933333333333L-262.77777777777777,356.9133333333333L-249.44444444444446,355.28666666666663L-236.11111111111111,354.2133333333333L-222.77777777777777,352.62L-209.44444444444446,349.58666666666664L-196.11111111111111,346.9266666666667L-182.77777777777777,344.3466666666667L-169.44444444444443,341.62L-156.11111111111111,340.7L-142.77777777777777,339.9866666666667L-129.44444444444446,337.11333333333334L-116.11111111111111,334.6666666666667L-102.77777777777777,332.52000000000004L-89.44444444444444,330.55333333333334L-76.11111111111111,328.1L-62.77777777777778,327.48L-49.44444444444444,327.0466666666667L-36.11111111111111,324.78L-22.77777777777778,322.82666666666665L-9.444444444444445,320.72L3.888888888888889,318.5933333333333L17.22222222222222,317.94L30.555555555555557,317.47999999999996L43.888888888888886,317.06L57.22222222222222,315.12666666666667L70.55555555555556,313.4666666666667L83.88888888888889,311.99333333333334L97.22222222222221,310.5933333333333L110.55555555555556,309.0533333333333L123.88888888888889,308.68666666666667L137.22222222222223,308.4533333333333L150.55555555555554,307.08666666666664L163.88888888888889,305.9266666666667L177.22222222222223,304.65999999999997L190.55555555555554,303.6L203.88888888888889,302.46666666666664L217.2222222222222,302.2866666666667L230.55555555555554,302.08666666666664L243.8888888888889,301.02000000000004L257.22222222222223,300.08L270.55555555555554,299.18L283.8888888888889,298.96666666666664L297.22222222222223,298.18666666666667L310.55555555555554,298.02L323.8888888888889,297.8666666666666L337.22222222222223,296.90000000000003L350.55555555555554,296.18666666666667L363.88888888888886,295.4533333333333L377.22222222222223,294.87333333333333L390.55555555555554,294.08666666666664L403.88888888888886,293.87333333333333" stroke="#e45756" stroke-width="2" opacity="0.7"></path></g></g><path class="foreground" aria-hidden="true" d="" display="none"></path></g><g transform="translate(0,0)"><path class="background" aria-hidden="true" d="M0,0h400v400h-400Z"></path><g><g class="mark-line role-mark concat_1_marks" clip-path="url(#clip8)" role="graphics-object" aria-roledescription="line mark container"><path aria-label="Type: Deaths; Date: Mar 01; Country: Belgium; Confirmed: 2; Recovered: 1; Deaths: 0; Count: 0" role="graphics-symbol" aria-roledescription="line mark" d="M-822.2222222222222,400L-808.8888888888889,400L-795.5555555555555,400L-782.2222222222222,400L-768.8888888888889,400L-755.5555555555555,400L-742.2222222222223,400L-728.8888888888889,400L-716.1111111111111,400L-702.7777777777777,400L-689.4444444444445,399.98L-676.1111111111111,399.98L-662.7777777777778,399.98L-649.4444444444445,399.97333333333336L-636.1111111111111,399.97333333333336L-622.7777777777778,399.9666666666667L-609.4444444444445,399.93333333333334L-596.1111111111111,399.9066666666667L-582.7777777777777,399.86L-569.4444444444445,399.75333333333333L-556.1111111111111,399.55333333333334L-542.7777777777778,399.5L-529.4444444444445,399.41333333333336L-516.1111111111111,399.18666666666667L-502.77777777777777,398.81333333333333L-489.44444444444446,398.5333333333333L-476.1111111111111,398.0733333333333L-462.7777777777778,397.64666666666665L-449.44444444444446,397.12666666666667L-436.1111111111111,396.58000000000004L-422.77777777777777,395.3L-409.4444444444444,394.47999999999996L-396.11111111111114,393.26L-382.77777777777777,392.38L-369.44444444444446,391.44666666666666L-356.1111111111111,390.35333333333335L-342.77777777777777,389.12L-329.44444444444446,386.43333333333334L-316.1111111111111,385.06666666666666L-302.77777777777777,383.18L-289.44444444444446,379.87333333333333L-276.1111111111111,377.6933333333333L-262.77777777777777,376L-249.44444444444446,373.97999999999996L-236.11111111111111,372.28666666666663L-222.77777777777777,370.40000000000003L-209.44444444444446,367.62L-196.11111111111111,365.58000000000004L-182.77777777777777,363.64666666666665L-169.44444444444443,362.11333333333334L-156.11111111111111,361.1466666666667L-142.77777777777777,360.0133333333333L-129.44444444444446,358.25333333333333L-116.11111111111111,356.73333333333335L-102.77777777777777,355.47333333333336L-89.44444444444444,353.88666666666666L-76.11111111111111,352.7066666666667L-62.77777777777778,351.9533333333333L-49.44444444444444,351.12666666666667L-36.11111111111111,349.99333333333334L-22.77777777777778,349.37333333333333L-9.444444444444445,348.6466666666667L3.888888888888889,348.2333333333333L17.22222222222222,347.70666666666665L30.555555555555557,347.17333333333335L43.888888888888886,346.56L57.22222222222222,344.40666666666664L70.55555555555556,343.9L83.88888888888889,343.1933333333333L97.22222222222221,342.79333333333335L110.55555555555556,342.29333333333335L123.88888888888889,341.9533333333333L137.22222222222223,341.5933333333333L150.55555555555554,341.0466666666667L163.88888888888889,340.64666666666665L177.22222222222223,340.2733333333333L190.55555555555554,339.96666666666664L203.88888888888889,339.6533333333333L217.2222222222222,339.4666666666667L230.55555555555554,339.28000000000003L243.8888888888889,339L257.22222222222223,338.76L270.55555555555554,338.5866666666667L283.8888888888889,338.41999999999996L297.22222222222223,338.1333333333333L310.55555555555554,337.92L323.8888888888889,337.77333333333337L337.22222222222223,337.5733333333333L350.55555555555554,337.41333333333336L363.88888888888886,337.1333333333333L377.22222222222223,336.98L390.55555555555554,336.88666666666666L403.88888888888886,336.76" stroke="#f58518" stroke-width="2" opacity="0.7"></path></g></g><path class="foreground" aria-hidden="true" d="" display="none"></path></g><g transform="translate(0,0)"><path class="background" aria-hidden="true" d="M0,0h400v400h-400Z"></path><g><g class="mark-line role-mark concat_1_marks" clip-path="url(#clip9)" role="graphics-object" aria-roledescription="line mark container"><path aria-label="Type: Confirmed; Date: Mar 01; Country: Belgium; Confirmed: 2; Recovered: 1; Deaths: 0; Count: 2" role="graphics-symbol" aria-roledescription="line mark" d="M-822.2222222222222,399.9866666666667L-808.8888888888889,399.94666666666666L-795.5555555555555,399.91333333333336L-782.2222222222222,399.8466666666667L-768.8888888888889,399.6666666666667L-755.5555555555555,399.2733333333333L-742.2222222222223,398.87333333333333L-728.8888888888889,398.6666666666667L-716.1111111111111,398.40666666666664L-702.7777777777777,398.22L-689.4444444444445,397.9066666666667L-676.1111111111111,397.9066666666667L-662.7777777777778,396.27333333333337L-649.4444444444445,395.4066666666667L-636.1111111111111,394.0933333333333L-622.7777777777778,392.94666666666666L-609.4444444444445,391.7133333333333L-596.1111111111111,390.0933333333333L-582.7777777777777,388.0333333333333L-569.4444444444445,384.9533333333334L-556.1111111111111,381.2333333333333L-542.7777777777778,377.32666666666665L-529.4444444444445,375.0466666666667L-516.1111111111111,371.53999999999996L-502.77777777777777,367.08666666666664L-489.44444444444446,358.43333333333334L-476.1111111111111,351.44L-462.7777777777778,339.1066666666667L-449.44444444444446,327.76L-436.1111111111111,320.67333333333335L-422.77777777777777,314.83333333333337L-409.4444444444444,306.90666666666664L-396.11111111111114,297.68L-382.77777777777777,288.2L-369.44444444444446,277.12666666666667L-356.1111111111111,268.7266666666667L-342.77777777777777,261.24L-329.44444444444446,252.04L-316.1111111111111,243.98L-302.77777777777777,233.44666666666666L-289.44444444444446,222.22L-276.1111111111111,213.21333333333334L-262.77777777777777,202.35333333333335L-249.44444444444446,196.07333333333332L-236.11111111111111,192.53999999999996L-222.77777777777777,176.18L-209.44444444444446,167.93999999999997L-196.11111111111111,159.08L-182.77777777777777,152.11333333333332L-169.44444444444443,143.36L-156.11111111111111,133.44666666666666L-142.77777777777777,126.96000000000001L-129.44444444444446,120.73999999999998L-116.11111111111111,114.68666666666665L-102.77777777777777,104.71333333333335L-89.44444444444444,97.83333333333334L-76.11111111111111,92.43999999999998L-62.77777777777778,88.75333333333333L-49.44444444444444,84.43999999999998L-36.11111111111111,80.94000000000001L-22.77777777777778,76.54L-9.444444444444445,73.11999999999999L3.888888888888889,69.88666666666666L17.22222222222222,67.29333333333334L30.555555555555557,64.88666666666667L43.888888888888886,63.27333333333334L57.22222222222222,61.45999999999998L70.55555555555556,57.2L83.88888888888889,53.26L97.22222222222221,49.359999999999985L110.55555555555556,46.12666666666665L123.88888888888889,43.67333333333332L137.22222222222223,41.47333333333334L150.55555555555554,40.12666666666669L163.88888888888889,38.079999999999984L177.22222222222223,35.706666666666685L190.55555555555554,33.40666666666667L203.88888888888889,31.466666666666665L217.2222222222222,29.606666666666648L230.55555555555554,28.060000000000016L243.8888888888889,26.77999999999998L257.22222222222223,25.099999999999987L270.55555555555554,23.260000000000012L283.8888888888889,21.26666666666668L297.22222222222223,19.386666666666663L310.55555555555554,17.720000000000002L323.8888888888889,16.96666666666666L337.22222222222223,16.05333333333334L350.55555555555554,14.34000000000002L363.88888888888886,12.926666666666664L377.22222222222223,12.093333333333334L390.55555555555554,10.793333333333344L403.88888888888886,9.886666666666688" stroke="#4c78a8" stroke-width="2" opacity="0.7"></path></g></g><path class="foreground" aria-hidden="true" d="" display="none"></path></g></g><g class="mark-group role-title"><g transform="translate(200,-39)"><path class="background" aria-hidden="true" d="M0,0h0v0h0Z" pointer-events="none"></path><g><g class="mark-text role-title-text" role="graphics-symbol" aria-roledescription="title" aria-label="Title text 'Total'" pointer-events="none"><text text-anchor="middle" transform="translate(0,10)" font-family="Roboto Condensed" font-size="13px" font-weight="normal" fill="#000" opacity="1">Total</text></g></g><path class="foreground" aria-hidden="true" d="" pointer-events="none" display="none"></path></g></g></g><path class="foreground" aria-hidden="true" d="" display="none"></path></g></g><g class="mark-group role-legend" role="graphics-symbol" aria-roledescription="legend" aria-label="Symbol legend for stroke color with 3 values: Confirmed, Deaths, Recovered"><g transform="translate(895,0)"><path class="background" aria-hidden="true" d="M0,0h58v37h-58Z" pointer-events="none"></path><g><g class="mark-group role-legend-entry"><g transform="translate(0,0)"><path class="background" aria-hidden="true" d="M0,0h0v0h0Z" pointer-events="none"></path><g><g class="mark-group role-scope" role="graphics-object" aria-roledescription="group mark container"><g transform="translate(0,0)"><path class="background" aria-hidden="true" d="M0,0h58v11h-58Z" pointer-events="none" opacity="1"></path><g><g class="mark-symbol role-legend-symbol" pointer-events="none"><path transform="translate(6,6)" d="M-5,0L5,0" stroke="#4c78a8" stroke-width="1.5" opacity="0.2"></path></g><g class="mark-text role-legend-label" pointer-events="none"><text text-anchor="start" transform="translate(16,9)" font-family="Roboto Condensed" font-size="10px" fill="#000" opacity="1">Confirmed</text></g></g><path class="foreground" aria-hidden="true" d="" pointer-events="none" display="none"></path></g><g transform="translate(0,13)"><path class="background" aria-hidden="true" d="M0,0h58v11h-58Z" pointer-events="none" opacity="1"></path><g><g class="mark-symbol role-legend-symbol" pointer-events="none"><path transform="translate(6,6)" d="M-5,0L5,0" stroke="#f58518" stroke-width="1.5" opacity="0.2"></path></g><g class="mark-text role-legend-label" pointer-events="none"><text text-anchor="start" transform="translate(16,9)" font-family="Roboto Condensed" font-size="10px" fill="#000" opacity="1">Deaths</text></g></g><path class="foreground" aria-hidden="true" d="" pointer-events="none" display="none"></path></g><g transform="translate(0,26)"><path class="background" aria-hidden="true" d="M0,0h58v11h-58Z" pointer-events="none" opacity="1"></path><g><g class="mark-symbol role-legend-symbol" pointer-events="none"><path transform="translate(6,6)" d="M-5,0L5,0" stroke="#e45756" stroke-width="1.5" opacity="0.2"></path></g><g class="mark-text role-legend-label" pointer-events="none"><text text-anchor="start" transform="translate(16,9)" font-family="Roboto Condensed" font-size="10px" fill="#000" opacity="1">Recovered</text></g></g><path class="foreground" aria-hidden="true" d="" pointer-events="none" display="none"></path></g></g></g><path class="foreground" aria-hidden="true" d="" pointer-events="none" display="none"></path></g></g></g><path class="foreground" aria-hidden="true" d="" pointer-events="none" display="none"></path></g></g></g><path class="foreground" aria-hidden="true" d="" display="none"></path></g></g></g></svg>