<svg class="marks" width="1008" height="476" viewBox="0 0 1008 476" version="1.1" xmlns="http://www.w3.org/2000/svg" xmlns:xlink="http://www.w3.org/1999/xlink"><defs><clipPath id="clip1"><rect x="0" y="0" width="400" height="400"></rect></clipPath><clipPath id="clip2"><rect x="0" y="0" width="400" height="400"></rect></clipPath><clipPath id="clip3"><rect x="0" y="0" width="400" height="400"></rect></clipPath><clipPath id="clip4"><rect x="0" y="0" width="400" height="400"></rect></clipPath><clipPath id="clip5"><rect x="0" y="0" width="400" height="400"></rect></clipPath><clipPath id="clip6"><rect x="0" y="0" width="400" height="400"></rect></clipPath><clipPath id="clip7"><rect x="0" y="0" width="400" height="400"></rect></clipPath><clipPath id="clip8"><rect x="0" y="0" width="400" height="400"></rect></clipPath><clipPath id="clip9"><rect x="0" y="0" width="400" height="400"></rect></clipPath></defs><rect width="1008" height="476" fill="white"></rect><g fill="none" stroke-miterlimit="10" transform="translate(50,44)"><g class="mark-group role-frame root" role="graphics-object" aria-roledescription="group mark container"><g transform="translate(0,0)"><path class="background" aria-hidden="true" d="M0,0h0v400h0Z"></path><g><g class="mark-group role-scope concat_0_group" role="graphics-object" aria-roledescription="group mark container"><g transform="translate(0,0)"><path class="background" aria-hidden="true" d="M0,0h400v400h-400Z" stroke="#ddd" stroke-width="0"></path><g><g class="mark-group role-axis" aria-hidden="true"><g transform="translate(0.5,0.5)"><path class="background" aria-hidden="true" d="M0,0h0v0h0Z" pointer-events="none"></path><g><g class="mark-rule role-axis-grid" pointer-events="none"><line transform="translate(0,400)" x2="400" y2="0" stroke="#ddd" stroke-width="1" opacity="1"></line><line transform="translate(0,350)" x2="400" y2="0" stroke="#ddd" stroke-width="1" opacity="1"></line><line transform="translate(0,300)" x2="400" y2="0" stroke="#ddd" stroke-width="1" opacity="1"></line><line transform="translate(0,250)" x2="400" y2="0" stroke="#ddd" stroke-width="1" opacity="1"></line><line transform="translate(0,200)" x2="400" y2="0" stroke="#ddd" stroke-width="1" opacity="1"></line><line transform="translate(0,150)" x2="400" y2="0" stroke="#ddd" stroke-width="1" opacity="1"></line><line transform="translate(0,100)" x2="400" y2="0" stroke="#ddd" stroke-width="1" opacity="1"></line><line transform="translate(0,50)" x2="400" y2="0" stroke="#ddd" stroke-width="1" opacity="1"></line><line transform="translate(0,0)" x2="400" y2="0" stroke="#ddd" stroke-width="1" opacity="1"></line></g></g><path class="foreground" aria-hidden="true" d="" pointer-events="none" display="none"></path></g></g><g class="mark-group role-axis" role="graphics-symbol" aria-roledescription="axis" aria-label="X-axis titled 'Date' for a time scale with values from May 01 to May 31"><g transform="translate(0.5,400.5)"><path class="background" aria-hidden="true" d="M0,0h0v0h0Z" pointer-events="none"></path><g><g class="mark-text role-axis-label" pointer-events="none"><text text-anchor="middle" transform="translate(17.22222222222222,10)" font-family="Roboto Condensed" font-size="10px" fill="#000" opacity="1">May 03</text><text text-anchor="middle" transform="translate(43.888888888888886,10)" font-family="Roboto Condensed" font-size="10px" fill="#000" opacity="0">May 05</text><text text-anchor="middle" transform="translate(70.55555555555556,10)" font-family="Roboto Condensed" font-size="10px" fill="#000" opacity="1">May 07</text><text text-anchor="middle" transform="translate(97.22222222222221,10)" font-family="Roboto Condensed" font-size="10px" fill="#000" opacity="0">May 09</text><text text-anchor="middle" transform="translate(123.88888888888889,10)" font-family="Roboto Condensed" font-size="10px" fill="#000" opacity="1">May 11</text><text text-anchor="middle" transform="translate(150.55555555555554,10)" font-family="Roboto Condensed" font-size="10px" fill="#000" opacity="0">May 13</text><text text-anchor="middle" transform="translate(177.22222222222223,10)" font-family="Roboto Condensed" font-size="10px" fill="#000" opacity="1">May 15</text><text text-anchor="middle" transform="translate(203.88888888888889,10)" font-family="Roboto Condensed" font-size="10px" fill="#000" opacity="0">May 17</text><text text-anchor="middle" transform="translate(230.55555555555554,10)" font-family="Roboto Condensed" font-size="10px" fill="#000" opacity="1">May 19</text><text text-anchor="middle" transform="translate(257.22222222222223,10)" font-family="Roboto Condensed" font-size="10px" fill="#000" opacity="0">May 21</text><text text-anchor="middle" transform="translate(283.8888888888889,10)" font-family="Roboto Condensed" font-size="10px" fill="#000" opacity="1">May 23</text><text text-anchor="middle" transform="translate(310.55555555555554,10)" font-family="Roboto Condensed" font-size="10px" fill="#000" opacity="0">May 25</text><text text-anchor="middle" transform="translate(337.22222222222223,10)" font-family="Roboto Condensed" font-size="10px" fill="#000" opacity="1">May 27</text><text text-anchor="middle" transform="translate(363.88888888888886,10)" font-family="Roboto Condensed" font-size="10px" fill="#000" opacity="0">May 29</text><text text-anchor="middle" transform="translate(390.55555555555554,10)" font-family="Roboto Condensed" font-size="10px" fill="#000" opacity="1">May 31</text></g><g class="mark-rule role-axis-domain" pointer-events="none"><line transform="translate(0,0)" x2="400" y2="0" stroke="lightgray" stroke-width="1" opacity="1"></line></g><g class="mark-text role-axis-title" pointer-events="none"><text text-anchor="middle" transform="translate(200,25)" font-family="Roboto Condensed" font-size="11px" font-weight="normal" fill="#000" opacity="1">Date</text></g></g><path class="foreground" aria-hidden="true" d="" pointer-events="none" display="none"></path></g></g><g class="mark-group role-axis" role="graphics-symbol" aria-roledescription="axis" aria-label="Y-axis titled 'Count' for a linear scale with values from 0 to 8,000"><g transform="translate(0.5,0.5)"><path class="background" aria-hidden="true" d="M0,0h0v0h0Z" pointer-events="none"></path><g><g class="mark-text role-axis-label" pointer-events="none"><text text-anchor="end" transform="translate(-2,403)" font-family="Roboto Condensed" font-size="10px" fill="#000" opacity="1">0</text><text text-anchor="end" transform="translate(-2,353)" font-family="Roboto Condensed" font-size="10px" fill="#000" opacity="1">1,000</text><text text-anchor="end" transform="translate(-2,303)" font-family="Roboto Condensed" font-size="10px" fill="#000" opacity="1">2,000</text><text text-anchor="end" transform="translate(-2,253)" font-family="Roboto Condensed" font-size="10px" fill="#000" opacity="1">3,000</text><text text-anchor="end" transform="translate(-2,203)" font-family="Roboto Condensed" font-size="10px" fill="#000" opacity="1">4,000</text><text text-anchor="end" transform="translate(-2,153)" font-family="Roboto Condensed" font-size="10px" fill="#000" opacity="1">5,000</text><text text-anchor="end" transform="translate(-2,103)" font-family="Roboto Condensed" font-size="10px" fill="#000" opacity="1">6,000</text><text text-anchor="end" transform="translate(-2,53)" font-family="Roboto Condensed" font-size="10px" fill="#000" opacity="1">7,000</text><text text-anchor="end" transform="translate(-2,3)" font-family="Roboto Condensed" font-size="10px" fill="#000" opacity="1">8,000</text></g><g class="mark-rule role-axis-domain" pointer-events="none"><line transform="translate(0,400)" x2="0" y2="-400" stroke="lightgray" stroke-width="1" opacity="1"></line></g><g class="mark-text role-axis-title" pointer-events="none"><text text-anchor="start" transform="translate(-45,-13)" font-family="Roboto Condensed" font-size="11px" font-weight="normal" fill="#000" opacity="1">Count</text></g></g><path class="foreground" aria-hidden="true" d="" pointer-events="none" display="none"></path></g></g><g class="mark-group role-scope concat_0_layer_0_pathgroup" role="graphics-object" aria-roledescription="group mark container"><g transform="translate(0,0)"><path class="background" aria-hidden="true" d="M0,0h400v400h-400Z"></path><g><g class="mark-line role-mark concat_0_layer_0_marks" clip-path="url(#clip1)" role="graphics-object" aria-roledescription="line mark container"><path aria-label="Type: Recovered; Date: Mar 01; Count: 0" role="graphics-symbol" aria-roledescription="line mark" d="M-822.2222222222222,400L-808.8888888888889,400L-795.5555555555555,400L-782.2222222222222,400L-768.8888888888889,400L-755.5555555555555,400L-742.2222222222223,400L-728.8888888888889,400L-716.1111111111111,399.95L-702.7777777777777,400L-689.4444444444445,400L-676.1111111111111,400L-662.7777777777778,400L-649.4444444444445,400L-636.1111111111111,400L-622.7777777777778,400L-609.4444444444445,400L-596.1111111111111,400L-582.7777777777777,400L-569.4444444444445,400L-556.1111111111111,400L-542.7777777777778,400L-529.4444444444445,400L-516.1111111111111,399.75L-502.77777777777777,400L-489.44444444444446,400L-476.1111111111111,400L-462.7777777777778,399.95L-449.44444444444446,400L-436.1111111111111,399.75L-422.77777777777777,399.95L-409.4444444444444,400L-396.11111111111114,399.05L-382.77777777777777,400L-369.44444444444446,400L-356.1111111111111,400L-342.77777777777777,400L-329.44444444444446,400L-316.1111111111111,400L-302.77777777777777,400L-289.44444444444446,400L-276.1111111111111,400L-262.77777777777777,400L-249.44444444444446,400L-236.11111111111111,400L-222.77777777777777,400L-209.44444444444446,400L-196.11111111111111,400L-182.77777777777777,400L-169.44444444444443,400L-156.11111111111111,400L-142.77777777777777,400L-129.44444444444446,400L-116.11111111111111,400L-102.77777777777777,400L-89.44444444444444,400L-76.11111111111111,400L-62.77777777777778,400L-49.44444444444444,400L-36.11111111111111,400L-22.77777777777778,400L-9.444444444444445,400L3.888888888888889,400L17.22222222222222,400L30.555555555555557,400L43.888888888888886,400L57.22222222222222,400L70.55555555555556,400L83.88888888888889,400L97.22222222222221,400L110.55555555555556,400L123.88888888888889,400L137.22222222222223,400L150.55555555555554,400L163.88888888888889,400L177.22222222222223,400L190.55555555555554,400L203.88888888888889,400L217.2222222222222,400L230.55555555555554,400L243.8888888888889,400L257.22222222222223,400L270.55555555555554,15.249999999999986L283.8888888888889,400L297.22222222222223,400L310.55555555555554,400L323.8888888888889,400L337.22222222222223,400L350.55555555555554,400L363.88888888888886,400L377.22222222222223,400L390.55555555555554,400L403.88888888888886,400" stroke="#e45756" stroke-width="2" opacity="0.2"></path></g></g><path class="foreground" aria-hidden="true" d="" display="none"></path></g><g transform="translate(0,0)"><path class="background" aria-hidden="true" d="M0,0h400v400h-400Z"></path><g><g class="mark-line role-mark concat_0_layer_0_marks" clip-path="url(#clip2)" role="graphics-object" aria-roledescription="line mark container"><path aria-label="Type: Deaths; Date: Mar 01; Count: 0" role="graphics-symbol" aria-roledescription="line mark" d="M-822.2222222222222,400L-808.8888888888889,400L-795.5555555555555,400L-782.2222222222222,400L-768.8888888888889,400L-755.5555555555555,400L-742.2222222222223,400L-728.8888888888889,400L-716.1111111111111,400L-702.7777777777777,400L-689.4444444444445,400L-676.1111111111111,400L-662.7777777777778,400L-649.4444444444445,399.85L-636.1111111111111,400L-622.7777777777778,400L-609.4444444444445,400L-596.1111111111111,399.85L-582.7777777777777,399.95L-569.4444444444445,400L-556.1111111111111,400L-542.7777777777778,400L-529.4444444444445,399.85L-516.1111111111111,399.90000000000003L-502.77777777777777,399.90000000000003L-489.44444444444446,400L-476.1111111111111,399.75L-462.7777777777778,399.8L-449.44444444444446,399.90000000000003L-436.1111111111111,399.65000000000003L-422.77777777777777,399.65000000000003L-409.4444444444444,399.75L-396.11111111111114,399.7L-382.77777777777777,399.54999999999995L-369.44444444444446,399.85L-356.1111111111111,399.54999999999995L-342.77777777777777,399.75L-329.44444444444446,399.35L-316.1111111111111,399.40000000000003L-302.77777777777777,399.65000000000003L-289.44444444444446,399.75L-276.1111111111111,399.7L-262.77777777777777,399.54999999999995L-249.44444444444446,399.7L-236.11111111111111,399.75L-222.77777777777777,399.45L-209.44444444444446,399.90000000000003L-196.11111111111111,399.54999999999995L-182.77777777777777,399.85L-169.44444444444443,399.95L-156.11111111111111,399.2L-142.77777777777777,399.95L-129.44444444444446,399.75L-116.11111111111111,399.65000000000003L-102.77777777777777,399.75L-89.44444444444444,399.90000000000003L-76.11111111111111,400L-62.77777777777778,399.8L-49.44444444444444,399.95L-36.11111111111111,399.95L-22.77777777777778,399.85L-9.444444444444445,400L3.888888888888889,399.95L17.22222222222222,400L30.555555555555557,399.85L43.888888888888886,399.95L57.22222222222222,399.95L70.55555555555556,399.95L83.88888888888889,399.95L97.22222222222221,399.95L110.55555555555556,400L123.88888888888889,399.75L137.22222222222223,399.8L150.55555555555554,399.95L163.88888888888889,399.85L177.22222222222223,400L190.55555555555554,400L203.88888888888889,400L217.2222222222222,399.95L230.55555555555554,400L243.8888888888889,399.95L257.22222222222223,399.95L270.55555555555554,400L283.8888888888889,400L297.22222222222223,400L310.55555555555554,400L323.8888888888889,400L337.22222222222223,400L350.55555555555554,399.95L363.88888888888886,400L377.22222222222223,400L390.55555555555554,400L403.88888888888886,400" stroke="#f58518" stroke-width="2" opacity="0.2"></path></g></g><path class="foreground" aria-hidden="true" d="" display="none"></path></g><g transform="translate(0,0)"><path class="background" aria-hidden="true" d="M0,0h400v400h-400Z"></path><g><g class="mark-line role-mark concat_0_layer_0_marks" clip-path="url(#clip3)" role="graphics-object" aria-roledescription="line mark container"><path aria-label="Type: Confirmed; Date: Mar 01; Count: 4" role="graphics-symbol" aria-roledescription="line mark" d="M-822.2222222222222,399.8L-808.8888888888889,399.7L-795.5555555555555,399.65000000000003L-782.2222222222222,398.8L-768.8888888888889,398.45L-755.5555555555555,398.95L-742.2222222222223,398.05L-728.8888888888889,398.55L-716.1111111111111,398.55L-702.7777777777777,390.25L-689.4444444444445,390.09999999999997L-676.1111111111111,394.8L-662.7777777777778,385.3L-649.4444444444445,395.3L-636.1111111111111,393.45L-622.7777777777778,394.4L-609.4444444444445,393.5L-596.1111111111111,395.65000000000003L-582.7777777777777,390.2L-569.4444444444445,391.59999999999997L-556.1111111111111,389.8L-542.7777777777778,386.65L-529.4444444444445,388.2L-516.1111111111111,387.9L-502.77777777777777,388.95L-489.44444444444446,385.75L-476.1111111111111,380.7L-462.7777777777778,387L-449.44444444444446,386.55L-436.1111111111111,391.95000000000005L-422.77777777777777,390.2L-409.4444444444444,388.9L-396.11111111111114,385.8L-382.77777777777777,388.85L-369.44444444444446,391L-356.1111111111111,393.15L-342.77777777777777,391.1L-329.44444444444446,388.95L-316.1111111111111,400L-302.77777777777777,393.75L-289.44444444444446,394.85L-276.1111111111111,395.25L-262.77777777777777,394.20000000000005L-249.44444444444446,396.09999999999997L-236.11111111111111,399L-222.77777777777777,394.15L-209.44444444444446,392.2L-196.11111111111111,397.95L-182.77777777777777,395.05L-169.44444444444443,397.90000000000003L-156.11111111111111,396.09999999999997L-142.77777777777777,398.25L-129.44444444444446,392.65L-116.11111111111111,396.85L-102.77777777777777,396.9L-89.44444444444444,398.20000000000005L-76.11111111111111,398.6L-62.77777777777778,396.4L-49.44444444444444,396.95L-36.11111111111111,397.5L-22.77777777777778,398.6L-9.444444444444445,397.75L3.888888888888889,398.7L17.22222222222222,398.09999999999997L30.555555555555557,397.15L43.888888888888886,397.45L57.22222222222222,397.95L70.55555555555556,398.09999999999997L83.88888888888889,398.20000000000005L97.22222222222221,398.55L110.55555555555556,399.7L123.88888888888889,398.65L137.22222222222223,398.75L150.55555555555554,399.1L163.88888888888889,398.95L177.22222222222223,398.85L190.55555555555554,399.1L203.88888888888889,399.40000000000003L217.2222222222222,399.6L230.55555555555554,399.5L243.8888888888889,399.3L257.22222222222223,398.6L270.55555555555554,398.85L283.8888888888889,399.3L297.22222222222223,399.7L310.55555555555554,399.40000000000003L323.8888888888889,399.05L337.22222222222223,399.1L350.55555555555554,399.5L363.88888888888886,399.45L377.22222222222223,399.25L390.55555555555554,399.85L403.88888888888886,399.7" stroke="#4c78a8" stroke-width="2" opacity="0.2"></path></g></g><path class="foreground" aria-hidden="true" d="" display="none"></path></g></g><g class="mark-group role-scope concat_0_layer_1_pathgroup" role="graphics-object" aria-roledescription="group mark container"><g transform="translate(0,0)"><path class="background" aria-hidden="true" d="M0,0h400v400h-400Z"></path><g><g class="mark-line role-mark concat_0_layer_1_marks" clip-path="url(#clip4)" role="graphics-object" aria-roledescription="line mark container"><path aria-label="Type: Recovered; Date: Mar 01; Count: 0" role="graphics-symbol" aria-roledescription="line mark" d="M-742.2222222222223,400L-728.8888888888889,400L-716.1111111111111,399.99285714285713L-702.7777777777777,399.99285714285713L-689.4444444444445,399.99285714285713L-676.1111111111111,399.99285714285713L-662.7777777777778,399.99285714285713L-649.4444444444445,399.99285714285713L-636.1111111111111,399.99285714285713L-622.7777777777778,400L-609.4444444444445,400L-596.1111111111111,400L-582.7777777777777,400L-569.4444444444445,400L-556.1111111111111,400L-542.7777777777778,400L-529.4444444444445,400L-516.1111111111111,399.9642857142857L-502.77777777777777,399.9642857142857L-489.44444444444446,399.9642857142857L-476.1111111111111,399.9642857142857L-462.7777777777778,399.95714285714286L-449.44444444444446,399.95714285714286L-436.1111111111111,399.9214285714286L-422.77777777777777,399.95L-409.4444444444444,399.95L-396.11111111111114,399.81428571428575L-382.77777777777777,399.81428571428575L-369.44444444444446,399.82142857142856L-356.1111111111111,399.82142857142856L-342.77777777777777,399.8571428571429L-329.44444444444446,399.8642857142857L-316.1111111111111,399.8642857142857L-302.77777777777777,400L-289.44444444444446,400L-276.1111111111111,400L-262.77777777777777,400L-249.44444444444446,400L-236.11111111111111,400L-222.77777777777777,400L-209.44444444444446,400L-196.11111111111111,400L-182.77777777777777,400L-169.44444444444443,400L-156.11111111111111,400L-142.77777777777777,400L-129.44444444444446,400L-116.11111111111111,400L-102.77777777777777,400L-89.44444444444444,400L-76.11111111111111,400L-62.77777777777778,400L-49.44444444444444,400L-36.11111111111111,400L-22.77777777777778,400L-9.444444444444445,400L3.888888888888889,400L17.22222222222222,400L30.555555555555557,400L43.888888888888886,400L57.22222222222222,400L70.55555555555556,400L83.88888888888889,400L97.22222222222221,400L110.55555555555556,400L123.88888888888889,400L137.22222222222223,400L150.55555555555554,400L163.88888888888889,400L177.22222222222223,400L190.55555555555554,400L203.88888888888889,400L217.2222222222222,400L230.55555555555554,400L243.8888888888889,400L257.22222222222223,400L270.55555555555554,345.0357142857143L283.8888888888889,345.0357142857143L297.22222222222223,345.0357142857143L310.55555555555554,345.0357142857143L323.8888888888889,345.0357142857143L337.22222222222223,345.0357142857143L350.55555555555554,345.0357142857143L363.88888888888886,400L377.22222222222223,400L390.55555555555554,400L403.88888888888886,400" stroke="#e45756" stroke-width="2" opacity="1"></path></g></g><path class="foreground" aria-hidden="true" d="" display="none"></path></g><g transform="translate(0,0)"><path class="background" aria-hidden="true" d="M0,0h400v400h-400Z"></path><g><g class="mark-line role-mark concat_0_layer_1_marks" clip-path="url(#clip5)" role="graphics-object" aria-roledescription="line mark container"><path aria-label="Type: Deaths; Date: Mar 01; Count: 0" role="graphics-symbol" aria-roledescription="line mark" d="M-742.2222222222223,400L-728.8888888888889,400L-716.1111111111111,400L-702.7777777777777,400L-689.4444444444445,400L-676.1111111111111,400L-662.7777777777778,400L-649.4444444444445,399.9785714285714L-636.1111111111111,399.9785714285714L-622.7777777777778,399.9785714285714L-609.4444444444445,399.9785714285714L-596.1111111111111,399.95714285714286L-582.7777777777777,399.95L-569.4444444444445,399.95L-556.1111111111111,399.97142857142853L-542.7777777777778,399.97142857142853L-529.4444444444445,399.95L-516.1111111111111,399.9357142857143L-502.77777777777777,399.9428571428572L-489.44444444444446,399.95L-476.1111111111111,399.9142857142857L-462.7777777777778,399.88571428571424L-449.44444444444446,399.87142857142857L-436.1111111111111,399.8428571428571L-422.77777777777777,399.8071428571428L-409.4444444444444,399.7857142857143L-396.11111111111114,399.74285714285713L-382.77777777777777,399.7142857142857L-369.44444444444446,399.72142857142853L-356.1111111111111,399.6714285714286L-342.77777777777777,399.6857142857143L-329.44444444444446,399.64285714285717L-316.1111111111111,399.59285714285716L-302.77777777777777,399.5857142857143L-289.44444444444446,399.6142857142857L-276.1111111111111,399.59285714285716L-262.77777777777777,399.59285714285716L-249.44444444444446,399.5857142857143L-236.11111111111111,399.64285714285717L-222.77777777777777,399.65000000000003L-209.44444444444446,399.6857142857143L-196.11111111111111,399.65714285714284L-182.77777777777777,399.67857142857144L-169.44444444444443,399.7357142857143L-156.11111111111111,399.6642857142857L-142.77777777777777,399.6928571428572L-129.44444444444446,399.7357142857143L-116.11111111111111,399.7L-102.77777777777777,399.72857142857146L-89.44444444444444,399.7357142857143L-76.11111111111111,399.74285714285713L-62.77777777777778,399.8285714285714L-49.44444444444444,399.8285714285714L-36.11111111111111,399.8571428571429L-22.77777777777778,399.88571428571424L-9.444444444444445,399.9214285714286L3.888888888888889,399.9285714285714L17.22222222222222,399.9285714285714L30.555555555555557,399.9357142857143L43.888888888888886,399.9357142857143L57.22222222222222,399.9357142857143L70.55555555555556,399.95L83.88888888888889,399.9428571428572L97.22222222222221,399.9428571428572L110.55555555555556,399.9428571428572L123.88888888888889,399.9285714285714L137.22222222222223,399.90714285714284L150.55555555555554,399.90714285714284L163.88888888888889,399.8928571428571L177.22222222222223,399.90000000000003L190.55555555555554,399.90714285714284L203.88888888888889,399.90714285714284L217.2222222222222,399.9357142857143L230.55555555555554,399.9642857142857L243.8888888888889,399.9642857142857L257.22222222222223,399.9785714285714L270.55555555555554,399.9785714285714L283.8888888888889,399.9785714285714L297.22222222222223,399.9785714285714L310.55555555555554,399.9857142857143L323.8888888888889,399.9857142857143L337.22222222222223,399.99285714285713L350.55555555555554,399.99285714285713L363.88888888888886,399.99285714285713L377.22222222222223,399.99285714285713L390.55555555555554,399.99285714285713L403.88888888888886,399.99285714285713" stroke="#f58518" stroke-width="2" opacity="1"></path></g></g><path class="foreground" aria-hidden="true" d="" display="none"></path></g><g transform="translate(0,0)"><path class="background" aria-hidden="true" d="M0,0h400v400h-400Z"></path><g><g class="mark-line role-mark concat_0_layer_1_marks" clip-path="url(#clip6)" role="graphics-object" aria-roledescription="line mark container"><path aria-label="Type: Confirmed; Date: Mar 01; Count: 0" role="graphics-symbol" aria-roledescription="line mark" d="M-742.2222222222223,399.0571428571429L-728.8888888888889,398.87857142857143L-716.1111111111111,398.7142857142857L-702.7777777777777,397.37142857142857L-689.4444444444445,396.12857142857143L-676.1111111111111,395.6071428571429L-662.7777777777778,393.65714285714284L-649.4444444444445,393.26428571428573L-636.1111111111111,392.5357142857143L-622.7777777777778,391.9428571428571L-609.4444444444445,392.40714285714284L-596.1111111111111,393.2L-582.7777777777777,392.54285714285714L-569.4444444444445,393.4428571428572L-556.1111111111111,392.65714285714284L-542.7777777777778,391.68571428571425L-529.4444444444445,390.8L-516.1111111111111,390L-502.77777777777777,389.04285714285714L-489.44444444444446,388.40714285714284L-476.1111111111111,386.85L-462.7777777777778,386.45L-449.44444444444446,386.4357142857143L-436.1111111111111,386.9714285714286L-422.77777777777777,387.3L-409.4444444444444,387.29285714285714L-396.11111111111114,387.3L-382.77777777777777,388.4642857142857L-369.44444444444446,389.0357142857143L-356.1111111111111,389.9785714285714L-342.77777777777777,389.85714285714283L-329.44444444444446,389.67857142857144L-316.1111111111111,391.26428571428573L-302.77777777777777,392.4L-289.44444444444446,393.25714285714287L-276.1111111111111,393.86428571428576L-262.77777777777777,394.0142857142857L-249.44444444444446,394.7285714285714L-236.11111111111111,396.1642857142857L-222.77777777777777,395.3285714285714L-209.44444444444446,395.1071428571429L-196.11111111111111,395.54999999999995L-182.77777777777777,395.5214285714286L-169.44444444444443,396.05L-156.11111111111111,396.05L-142.77777777777777,395.9428571428572L-129.44444444444446,395.72857142857146L-116.11111111111111,396.3928571428571L-102.77777777777777,396.2428571428572L-89.44444444444444,396.6928571428571L-76.11111111111111,396.79285714285714L-62.77777777777778,396.8357142857143L-49.44444444444444,396.65L-36.11111111111111,397.34285714285716L-22.77777777777778,397.5928571428571L-9.444444444444445,397.7142857142857L3.888888888888889,397.7857142857143L17.22222222222222,397.7142857142857L30.555555555555557,397.8214285714286L43.888888888888886,397.8928571428571L57.22222222222222,397.95714285714286L70.55555555555556,397.88571428571424L83.88888888888889,397.95L97.22222222222221,397.9285714285714L110.55555555555556,398.1571428571429L123.88888888888889,398.37142857142857L137.22222222222223,398.5571428571429L150.55555555555554,398.7214285714286L163.88888888888889,398.84285714285716L177.22222222222223,398.9357142857143L190.55555555555554,399.01428571428573L203.88888888888889,398.9714285714286L217.2222222222222,399.10714285714283L230.55555555555554,399.2142857142857L243.8888888888889,399.24285714285713L257.22222222222223,399.1928571428571L270.55555555555554,399.1928571428571L283.8888888888889,399.2214285714286L297.22222222222223,399.26428571428573L310.55555555555554,399.23571428571427L323.8888888888889,399.1714285714286L337.22222222222223,399.14285714285717L350.55555555555554,399.2714285714286L363.88888888888886,399.3571428571429L377.22222222222223,399.35L390.55555555555554,399.37142857142857L403.88888888888886,399.4142857142857" stroke="#4c78a8" stroke-width="2" opacity="1"></path></g></g><path class="foreground" aria-hidden="true" d="" display="none"></path></g></g><g class="mark-group role-title"><g transform="translate(200,-39)"><path class="background" aria-hidden="true" d="M0,0h0v0h0Z" pointer-events="none"></path><g><g class="mark-text role-title-text" role="graphics-symbol" aria-roledescription="title" aria-label="Title text '7-day average (Daily values in light color)'" pointer-events="none"><text text-anchor="middle" transform="translate(0,10)" font-family="Roboto Condensed" font-size="13px" font-weight="normal" fill="#000" opacity="1">7-day average (Daily values in light color)</text></g></g><path class="foreground" aria-hidden="true" d="" pointer-events="none" display="none"></path></g></g></g><path class="foreground" aria-hidden="true" d="" display="none"></path></g></g><g class="mark-group role-scope concat_1_group" role="graphics-object" aria-roledescription="group mark container"><g transform="translate(471,0)"><path class="background" aria-hidden="true" d="M0,0h400v400h-400Z" stroke="#ddd" stroke-width="0"></path><g><g class="mark-group role-axis" aria-hidden="true"><g transform="translate(0.5,0.5)"><path class="background" aria-hidden="true" d="M0,0h0v0h0Z" pointer-events="none"></path><g><g class="mark-rule role-axis-grid" pointer-events="none"><line transform="translate(0,400)" x2="400" y2="0" stroke="#ddd" stroke-width="1" opacity="1"></line><line transform="translate(0,356)" x2="400" y2="0" stroke="#ddd" stroke-width="1" opacity="1"></line><line transform="translate(0,311)" x2="400" y2="0" stroke="#ddd" stroke-width="1" opacity="1"></line><line transform="translate(0,267)" x2="400" y2="0" stroke="#ddd" stroke-width="1" opacity="1"></line><line transform="translate(0,222)" x2="400" y2="0" stroke="#ddd" stroke-width="1" opacity="1"></line><line transform="translate(0,178)" x2="400" y2="0" stroke="#ddd" stroke-width="1" opacity="1"></line><line transform="translate(0,133)" x2="400" y2="0" stroke="#ddd" stroke-width="1" opacity="1"></line><line transform="translate(0,89)" x2="400" y2="0" stroke="#ddd" stroke-width="1" opacity="1"></line><line transform="translate(0,44)" x2="400" y2="0" stroke="#ddd" stroke-width="1" opacity="1"></line><line transform="translate(0,0)" x2="400" y2="0" stroke="#ddd" stroke-width="1" opacity="1"></line></g></g><path class="foreground" aria-hidden="true" d="" pointer-events="none" display="none"></path></g></g><g class="mark-group role-axis" role="graphics-symbol" aria-roledescription="axis" aria-label="X-axis titled 'Date' for a time scale with values from May 01 to May 31"><g transform="translate(0.5,400.5)"><path class="background" aria-hidden="true" d="M0,0h0v0h0Z" pointer-events="none"></path><g><g class="mark-text role-axis-label" pointer-events="none"><text text-anchor="middle" transform="translate(17.22222222222222,10)" font-family="Roboto Condensed" font-size="10px" fill="#000" opacity="1">May 03</text><text text-anchor="middle" transform="translate(43.888888888888886,10)" font-family="Roboto Condensed" font-size="10px" fill="#000" opacity="0">May 05</text><text text-anchor="middle" transform="translate(70.55555555555556,10)" font-family="Roboto Condensed" font-size="10px" fill="#000" opacity="1">May 07</text><text text-anchor="middle" transform="translate(97.22222222222221,10)" font-family="Roboto Condensed" font-size="10px" fill="#000" opacity="0">May 09</text><text text-anchor="middle" transform="translate(123.88888888888889,10)" font-family="Roboto Condensed" font-size="10px" fill="#000" opacity="1">May 11</text><text text-anchor="middle" transform="translate(150.55555555555554,10)" font-family="Roboto Condensed" font-size="10px" fill="#000" opacity="0">May 13</text><text text-anchor="middle" transform="translate(177.22222222222223,10)" font-family="Roboto Condensed" font-size="10px" fill="#000" opacity="1">May 15</text><text text-anchor="middle" transform="translate(203.88888888888889,10)" font-family="Roboto Condensed" font-size="10px" fill="#000" opacity="0">May 17</text><text text-anchor="middle" transform="translate(230.55555555555554,10)" font-family="Roboto Condensed" font-size="10px" fill="#000" opacity="1">May 19</text><text text-anchor="middle" transform="translate(257.22222222222223,10)" font-family="Roboto Condensed" font-size="10px" fill="#000" opacity="0">May 21</text><text text-anchor="middle" transform="translate(283.8888888888889,10)" font-family="Roboto Condensed" font-size="10px" fill="#000" opacity="1">May 23</text><text text-anchor="middle" transform="translate(310.55555555555554,10)" font-family="Roboto Condensed" font-size="10px" fill="#000" opacity="0">May 25</text><text text-anchor="middle" transform="translate(337.22222222222223,10)" font-family="Roboto Condensed" font-size="10px" fill="#000" opacity="1">May 27</text><text text-anchor="middle" transform="translate(363.88888888888886,10)" font-family="Roboto Condensed" font-size="10px" fill="#000" opacity="0">May 29</text><text text-anchor="middle" transform="translate(390.55555555555554,10)" font-family="Roboto Condensed" font-size="10px" fill="#000" opacity="1">May 31</text></g><g class="mark-rule role-axis-domain" pointer-events="none"><line transform="translate(0,0)" x2="400" y2="0" stroke="lightgray" stroke-width="1" opacity="1"></line></g><g class="mark-text role-axis-title" pointer-events="none"><text text-anchor="middle" transform="translate(200,25)" font-family="Roboto Condensed" font-size="11px" font-weight="normal" fill="#000" opacity="1">Date</text></g></g><path class="foreground" aria-hidden="true" d="" pointer-events="none" display="none"></path></g></g><g class="mark-group role-axis" role="graphics-symbol" aria-roledescription="axis" aria-label="Y-axis titled 'Count' for a linear scale with values from 0 to 9,000"><g transform="translate(0.5,0.5)"><path class="background" aria-hidden="true" d="M0,0h0v0h0Z" pointer-events="none"></path><g><g class="mark-text role-axis-label" pointer-events="none"><text text-anchor="end" transform="translate(-2,403)" font-family="Roboto Condensed" font-size="10px" fill="#000" opacity="1">0</text><text text-anchor="end" transform="translate(-2,358.55555555555554)" font-family="Roboto Condensed" font-size="10px" fill="#000" opacity="1">1,000</text><text text-anchor="end" transform="translate(-2,314.11111111111114)" font-family="Roboto Condensed" font-size="10px" fill="#000" opacity="1">2,000</text><text text-anchor="end" transform="translate(-2,269.6666666666667)" font-family="Roboto Condensed" font-size="10px" fill="#000" opacity="1">3,000</text><text text-anchor="end" transform="translate(-2,225.22222222222223)" font-family="Roboto Condensed" font-size="10px" fill="#000" opacity="1">4,000</text><text text-anchor="end" transform="translate(-2,180.77777777777777)" font-family="Roboto Condensed" font-size="10px" fill="#000" opacity="1">5,000</text><text text-anchor="end" transform="translate(-2,136.33333333333334)" font-family="Roboto Condensed" font-size="10px" fill="#000" opacity="1">6,000</text><text text-anchor="end" transform="translate(-2,91.88888888888889)" font-family="Roboto Condensed" font-size="10px" fill="#000" opacity="1">7,000</text><text text-anchor="end" transform="translate(-2,47.444444444444464)" font-family="Roboto Condensed" font-size="10px" fill="#000" opacity="1">8,000</text><text text-anchor="end" transform="translate(-2,3)" font-family="Roboto Condensed" font-size="10px" fill="#000" opacity="1">9,000</text></g><g class="mark-rule role-axis-domain" pointer-events="none"><line transform="translate(0,400)" x2="0" y2="-400" stroke="lightgray" stroke-width="1" opacity="1"></line></g><g class="mark-text role-axis-title" pointer-events="none"><text text-anchor="start" transform="translate(-45,-13)" font-family="Roboto Condensed" font-size="11px" font-weight="normal" fill="#000" opacity="1">Count</text></g></g><path class="foreground" aria-hidden="true" d="" pointer-events="none" display="none"></path></g></g><g class="mark-group role-scope concat_1_pathgroup" role="graphics-object" aria-roledescription="group mark container"><g transform="translate(0,0)"><path class="background" aria-hidden="true" d="M0,0h400v400h-400Z"></path><g><g class="mark-line role-mark concat_1_marks" clip-path="url(#clip7)" role="graphics-object" aria-roledescription="line mark container"><path aria-label="Type: Recovered; Date: Mar 01; Country: Norway; Confirmed: 19; Recovered: 0; Deaths: 0; Count: 0" role="graphics-symbol" aria-roledescription="line mark" d="M-822.2222222222222,400L-808.8888888888889,400L-795.5555555555555,400L-782.2222222222222,400L-768.8888888888889,400L-755.5555555555555,400L-742.2222222222223,400L-728.8888888888889,400L-716.1111111111111,399.9555555555556L-702.7777777777777,399.9555555555556L-689.4444444444445,399.9555555555556L-676.1111111111111,399.9555555555556L-662.7777777777778,399.9555555555556L-649.4444444444445,399.9555555555556L-636.1111111111111,399.9555555555556L-622.7777777777778,399.9555555555556L-609.4444444444445,399.9555555555556L-596.1111111111111,399.9555555555556L-582.7777777777777,399.9555555555556L-569.4444444444445,399.9555555555556L-556.1111111111111,399.9555555555556L-542.7777777777778,399.9555555555556L-529.4444444444445,399.9555555555556L-516.1111111111111,399.7333333333333L-502.77777777777777,399.7333333333333L-489.44444444444446,399.7333333333333L-476.1111111111111,399.7333333333333L-462.7777777777778,399.68888888888887L-449.44444444444446,399.68888888888887L-436.1111111111111,399.4666666666667L-422.77777777777777,399.4222222222222L-409.4444444444444,399.4222222222222L-396.11111111111114,398.5777777777778L-382.77777777777777,398.5777777777778L-369.44444444444446,398.5777777777778L-356.1111111111111,398.5777777777778L-342.77777777777777,398.5777777777778L-329.44444444444446,398.5777777777778L-316.1111111111111,398.5777777777778L-302.77777777777777,398.5777777777778L-289.44444444444446,398.5777777777778L-276.1111111111111,398.5777777777778L-262.77777777777777,398.5777777777778L-249.44444444444446,398.5777777777778L-236.11111111111111,398.5777777777778L-222.77777777777777,398.5777777777778L-209.44444444444446,398.5777777777778L-196.11111111111111,398.5777777777778L-182.77777777777777,398.5777777777778L-169.44444444444443,398.5777777777778L-156.11111111111111,398.5777777777778L-142.77777777777777,398.5777777777778L-129.44444444444446,398.5777777777778L-116.11111111111111,398.5777777777778L-102.77777777777777,398.5777777777778L-89.44444444444444,398.5777777777778L-76.11111111111111,398.5777777777778L-62.77777777777778,398.5777777777778L-49.44444444444444,398.5777777777778L-36.11111111111111,398.5777777777778L-22.77777777777778,398.5777777777778L-9.444444444444445,398.5777777777778L3.888888888888889,398.5777777777778L17.22222222222222,398.5777777777778L30.555555555555557,398.5777777777778L43.888888888888886,398.5777777777778L57.22222222222222,398.5777777777778L70.55555555555556,398.5777777777778L83.88888888888889,398.5777777777778L97.22222222222221,398.5777777777778L110.55555555555556,398.5777777777778L123.88888888888889,398.5777777777778L137.22222222222223,398.5777777777778L150.55555555555554,398.5777777777778L163.88888888888889,398.5777777777778L177.22222222222223,398.5777777777778L190.55555555555554,398.5777777777778L203.88888888888889,398.5777777777778L217.2222222222222,398.5777777777778L230.55555555555554,398.5777777777778L243.8888888888889,398.5777777777778L257.22222222222223,398.5777777777778L270.55555555555554,56.5777777777778L283.8888888888889,56.5777777777778L297.22222222222223,56.5777777777778L310.55555555555554,56.5777777777778L323.8888888888889,56.5777777777778L337.22222222222223,56.5777777777778L350.55555555555554,56.5777777777778L363.88888888888886,56.5777777777778L377.22222222222223,56.5777777777778L390.55555555555554,56.5777777777778L403.88888888888886,56.5777777777778" stroke="#e45756" stroke-width="2" opacity="0.7"></path></g></g><path class="foreground" aria-hidden="true" d="" display="none"></path></g><g transform="translate(0,0)"><path class="background" aria-hidden="true" d="M0,0h400v400h-400Z"></path><g><g class="mark-line role-mark concat_1_marks" clip-path="url(#clip8)" role="graphics-object" aria-roledescription="line mark container"><path aria-label="Type: Deaths; Date: Mar 01; Country: Norway; Confirmed: 19; Recovered: 0; Deaths: 0; Count: 0" role="graphics-symbol" aria-roledescription="line mark" d="M-822.2222222222222,400L-808.8888888888889,400L-795.5555555555555,400L-782.2222222222222,400L-768.8888888888889,400L-755.5555555555555,400L-742.2222222222223,400L-728.8888888888889,400L-716.1111111111111,400L-702.7777777777777,400L-689.4444444444445,400L-676.1111111111111,400L-662.7777777777778,400L-649.4444444444445,399.8666666666667L-636.1111111111111,399.8666666666667L-622.7777777777778,399.8666666666667L-609.4444444444445,399.8666666666667L-596.1111111111111,399.7333333333333L-582.7777777777777,399.68888888888887L-569.4444444444445,399.68888888888887L-556.1111111111111,399.68888888888887L-542.7777777777778,399.68888888888887L-529.4444444444445,399.5555555555556L-516.1111111111111,399.4666666666667L-502.77777777777777,399.3777777777778L-489.44444444444446,399.3777777777778L-476.1111111111111,399.15555555555557L-462.7777777777778,398.97777777777776L-449.44444444444446,398.8888888888889L-436.1111111111111,398.5777777777778L-422.77777777777777,398.26666666666665L-409.4444444444444,398.0444444444444L-396.11111111111114,397.77777777777777L-382.77777777777777,397.3777777777778L-369.44444444444446,397.2444444444444L-356.1111111111111,396.8444444444445L-342.77777777777777,396.6222222222222L-329.44444444444446,396.0444444444445L-316.1111111111111,395.5111111111111L-302.77777777777777,395.2L-289.44444444444446,394.97777777777776L-276.1111111111111,394.7111111111111L-262.77777777777777,394.3111111111111L-249.44444444444446,394.0444444444445L-236.11111111111111,393.8222222222222L-222.77777777777777,393.3333333333333L-209.44444444444446,393.24444444444447L-196.11111111111111,392.84444444444443L-182.77777777777777,392.7111111111111L-169.44444444444443,392.6666666666667L-156.11111111111111,391.9555555555556L-142.77777777777777,391.9111111111111L-129.44444444444446,391.68888888888887L-116.11111111111111,391.3777777777778L-102.77777777777777,391.15555555555557L-89.44444444444444,391.06666666666666L-76.11111111111111,391.06666666666666L-62.77777777777778,390.8888888888889L-49.44444444444444,390.84444444444443L-36.11111111111111,390.8L-22.77777777777778,390.6666666666667L-9.444444444444445,390.6666666666667L3.888888888888889,390.6222222222222L17.22222222222222,390.6222222222222L30.555555555555557,390.4888888888889L43.888888888888886,390.44444444444446L57.22222222222222,390.4L70.55555555555556,390.35555555555555L83.88888888888889,390.3111111111111L97.22222222222221,390.26666666666665L110.55555555555556,390.26666666666665L123.88888888888889,390.0444444444445L137.22222222222223,389.8666666666667L150.55555555555554,389.8222222222222L163.88888888888889,389.68888888888887L177.22222222222223,389.68888888888887L190.55555555555554,389.68888888888887L203.88888888888889,389.68888888888887L217.2222222222222,389.64444444444445L230.55555555555554,389.64444444444445L243.8888888888889,389.59999999999997L257.22222222222223,389.55555555555554L270.55555555555554,389.55555555555554L283.8888888888889,389.55555555555554L297.22222222222223,389.55555555555554L310.55555555555554,389.55555555555554L323.8888888888889,389.55555555555554L337.22222222222223,389.55555555555554L350.55555555555554,389.5111111111111L363.88888888888886,389.5111111111111L377.22222222222223,389.5111111111111L390.55555555555554,389.5111111111111L403.88888888888886,389.5111111111111" stroke="#f58518" stroke-width="2" opacity="0.7"></path></g></g><path class="foreground" aria-hidden="true" d="" display="none"></path></g><g transform="translate(0,0)"><path class="background" aria-hidden="true" d="M0,0h400v400h-400Z"></path><g><g class="mark-line role-mark concat_1_marks" clip-path="url(#clip9)" role="graphics-object" aria-roledescription="line mark container"><path aria-label="Type: Confirmed; Date: Mar 01; Country: Norway; Confirmed: 19; Recovered: 0; Deaths: 0; Count: 19" role="graphics-symbol" aria-roledescription="line mark" d="M-822.2222222222222,399.15555555555557L-808.8888888888889,398.8888888888889L-795.5555555555555,398.5777777777778L-782.2222222222222,397.5111111111111L-768.8888888888889,396.1333333333333L-755.5555555555555,395.2L-742.2222222222223,393.4666666666667L-728.8888888888889,392.1777777777778L-716.1111111111111,390.8888888888889L-702.7777777777777,382.22222222222223L-689.4444444444445,373.4222222222222L-676.1111111111111,368.8L-662.7777777777778,355.73333333333335L-649.4444444444445,351.55555555555554L-636.1111111111111,345.73333333333335L-622.7777777777778,340.7555555555556L-609.4444444444445,334.97777777777776L-596.1111111111111,331.1111111111111L-582.7777777777777,322.40000000000003L-569.4444444444445,314.93333333333334L-556.1111111111111,305.8666666666666L-542.7777777777778,294L-529.4444444444445,283.51111111111106L-516.1111111111111,272.75555555555553L-502.77777777777777,262.93333333333334L-489.44444444444446,250.26666666666665L-476.1111111111111,233.11111111111114L-462.7777777777778,221.55555555555554L-449.44444444444446,209.60000000000002L-436.1111111111111,202.44444444444446L-422.77777777777777,193.73333333333332L-409.4444444444444,183.86666666666667L-396.11111111111114,171.24444444444444L-382.77777777777777,161.33333333333331L-369.44444444444446,153.33333333333331L-356.1111111111111,147.2444444444444L-342.77777777777777,139.33333333333334L-329.44444444444446,129.51111111111112L-316.1111111111111,129.51111111111112L-302.77777777777777,123.95555555555555L-289.44444444444446,119.37777777777777L-276.1111111111111,115.15555555555554L-262.77777777777777,110.00000000000001L-249.44444444444446,106.53333333333333L-236.11111111111111,105.64444444444443L-222.77777777777777,100.44444444444443L-209.44444444444446,93.5111111111111L-196.11111111111111,91.68888888888888L-182.77777777777777,87.28888888888888L-169.44444444444443,85.42222222222225L-156.11111111111111,81.95555555555556L-142.77777777777777,80.39999999999998L-129.44444444444446,73.86666666666666L-116.11111111111111,71.06666666666666L-102.77777777777777,68.31111111111112L-89.44444444444444,66.71111111111112L-76.11111111111111,65.46666666666665L-62.77777777777778,62.26666666666665L-49.44444444444444,59.55555555555554L-36.11111111111111,57.33333333333333L-22.77777777777778,56.0888888888889L-9.444444444444445,54.088888888888896L3.888888888888889,52.93333333333332L17.22222222222222,51.244444444444426L30.555555555555557,48.71111111111111L43.888888888888886,46.444444444444464L57.22222222222222,44.622222222222206L70.55555555555556,42.93333333333331L83.88888888888889,41.33333333333336L97.22222222222221,40.04444444444446L110.55555555555556,39.77777777777778L123.88888888888889,38.577777777777776L137.22222222222223,37.46666666666667L150.55555555555554,36.66666666666667L163.88888888888889,35.73333333333335L177.22222222222223,34.711111111111094L190.55555555555554,33.91111111111109L203.88888888888889,33.37777777777777L217.2222222222222,33.02222222222224L230.55555555555554,32.57777777777777L243.8888888888889,31.95555555555556L257.22222222222223,30.711111111111087L270.55555555555554,29.688888888888876L283.8888888888889,29.066666666666663L297.22222222222223,28.799999999999983L310.55555555555554,28.266666666666662L323.8888888888889,27.42222222222224L337.22222222222223,26.622222222222234L350.55555555555554,26.177777777777766L363.88888888888886,25.688888888888872L377.22222222222223,25.022222222222233L390.55555555555554,24.88888888888887L403.88888888888886,24.622222222222234" stroke="#4c78a8" stroke-width="2" opacity="0.7"></path></g></g><path class="foreground" aria-hidden="true" d="" display="none"></path></g></g><g class="mark-group role-title"><g transform="translate(200,-39)"><path class="background" aria-hidden="true" d="M0,0h0v0h0Z" pointer-events="none"></path><g><g class="mark-text role-title-text" role="graphics-symbol" aria-roledescription="title" aria-label="Title text 'Total'" pointer-events="none"><text text-anchor="middle" transform="translate(0,10)" font-family="Roboto Condensed" font-size="13px" font-weight="normal" fill="#000" opacity="1">Total</text></g></g><path class="foreground" aria-hidden="true" d="" pointer-events="none" display="none"></path></g></g></g><path class="foreground" aria-hidden="true" d="" display="none"></path></g></g><g class="mark-group role-legend" role="graphics-symbol" aria-roledescription="legend" aria-label="Symbol legend for stroke color with 3 values: Confirmed, Deaths, Recovered"><g transform="translate(895,0)"><path class="background" aria-hidden="true" d="M0,0h58v37h-58Z" pointer-events="none"></path><g><g class="mark-group role-legend-entry"><g transform="translate(0,0)"><path class="background" aria-hidden="true" d="M0,0h0v0h0Z" pointer-events="none"></path><g><g class="mark-group role-scope" role="graphics-object" aria-roledescription="group mark container"><g transform="translate(0,0)"><path class="background" aria-hidden="true" d="M0,0h58v11h-58Z" pointer-events="none" opacity="1"></path><g><g class="mark-symbol role-legend-symbol" pointer-events="none"><path transform="translate(6,6)" d="M-5,0L5,0" stroke="#4c78a8" stroke-width="1.5" opacity="0.2"></path></g><g class="mark-text role-legend-label" pointer-events="none"><text text-anchor="start" transform="translate(16,9)" font-family="Roboto Condensed" font-size="10px" fill="#000" opacity="1">Confirmed</text></g></g><path class="foreground" aria-hidden="true" d="" pointer-events="none" display="none"></path></g><g transform="translate(0,13)"><path class="background" aria-hidden="true" d="M0,0h58v11h-58Z" pointer-events="none" opacity="1"></path><g><g class="mark-symbol role-legend-symbol" pointer-events="none"><path transform="translate(6,6)" d="M-5,0L5,0" stroke="#f58518" stroke-width="1.5" opacity="0.2"></path></g><g class="mark-text role-legend-label" pointer-events="none"><text text-anchor="start" transform="translate(16,9)" font-family="Roboto Condensed" font-size="10px" fill="#000" opacity="1">Deaths</text></g></g><path class="foreground" aria-hidden="true" d="" pointer-events="none" display="none"></path></g><g transform="translate(0,26)"><path class="background" aria-hidden="true" d="M0,0h58v11h-58Z" pointer-events="none" opacity="1"></path><g><g class="mark-symbol role-legend-symbol" pointer-events="none"><path transform="translate(6,6)" d="M-5,0L5,0" stroke="#e45756" stroke-width="1.5" opacity="0.2"></path></g><g class="mark-text role-legend-label" pointer-events="none"><text text-anchor="start" transform="translate(16,9)" font-family="Roboto Condensed" font-size="10px" fill="#000" opacity="1">Recovered</text></g></g><path class="foreground" aria-hidden="true" d="" pointer-events="none" display="none"></path></g></g></g><path class="foreground" aria-hidden="true" d="" pointer-events="none" display="none"></path></g></g></g><path class="foreground" aria-hidden="true" d="" pointer-events="none" display="none"></path></g></g></g><path class="foreground" aria-hidden="true" d="" display="none"></path></g></g></g></svg>