<svg class="marks" width="419.6666666666667" height="325.6666666666667" viewBox="0 0 419.6666666666667 325.6666666666667" version="1.1" xmlns="http://www.w3.org/2000/svg" xmlns:xlink="http://www.w3.org/1999/xlink"><defs><clipPath id="clip1"><rect x="0" y="0" width="266.6666666666667" height="266.6666666666667"></rect></clipPath><clipPath id="clip2"><rect x="0" y="0" width="266.6666666666667" height="266.6666666666667"></rect></clipPath><clipPath id="clip3"><rect x="0" y="0" width="266.6666666666667" height="266.6666666666667"></rect></clipPath><clipPath id="clip4"><rect x="0" y="0" width="266.6666666666667" height="266.6666666666667"></rect></clipPath><clipPath id="clip5"><rect x="0" y="0" width="266.6666666666667" height="266.6666666666667"></rect></clipPath><clipPath id="clip6"><rect x="0" y="0" width="266.6666666666667" height="266.6666666666667"></rect></clipPath><clipPath id="clip7"><rect x="0" y="0" width="266.6666666666667" height="266.6666666666667"></rect></clipPath><clipPath id="clip8"><rect x="0" y="0" width="266.6666666666667" height="266.6666666666667"></rect></clipPath><clipPath id="clip9"><rect x="0" y="0" width="266.6666666666667" height="266.6666666666667"></rect></clipPath><clipPath id="clip10"><rect x="0" y="0" width="266.6666666666667" height="266.6666666666667"></rect></clipPath></defs><rect width="419.6666666666667" height="325.6666666666667" fill="white"></rect><g fill="none" stroke-miterlimit="10" transform="translate(50,42)"><g class="mark-group role-frame root" role="graphics-object" aria-roledescription="group mark container"><g transform="translate(0,0)"><path class="background" aria-hidden="true" d="M0,0h266.6666666666667v266.6666666666667h-266.6666666666667Z" stroke="#ddd" stroke-width="0"></path><g><g class="mark-group role-axis" aria-hidden="true"><g transform="translate(0.5,0.5)"><path class="background" aria-hidden="true" d="M0,0h0v0h0Z" pointer-events="none"></path><g><g class="mark-rule role-axis-grid" pointer-events="none"><line transform="translate(0,267)" x2="266.6666666666667" y2="0" stroke="#ddd" stroke-width="1" opacity="1"></line><line transform="translate(0,240)" x2="266.6666666666667" y2="0" stroke="#ddd" stroke-width="1" opacity="1"></line><line transform="translate(0,213)" x2="266.6666666666667" y2="0" stroke="#ddd" stroke-width="1" opacity="1"></line><line transform="translate(0,187)" x2="266.6666666666667" y2="0" stroke="#ddd" stroke-width="1" opacity="1"></line><line transform="translate(0,160)" x2="266.6666666666667" y2="0" stroke="#ddd" stroke-width="1" opacity="1"></line><line transform="translate(0,133)" x2="266.6666666666667" y2="0" stroke="#ddd" stroke-width="1" opacity="1"></line><line transform="translate(0,107)" x2="266.6666666666667" y2="0" stroke="#ddd" stroke-width="1" opacity="1"></line><line transform="translate(0,80)" x2="266.6666666666667" y2="0" stroke="#ddd" stroke-width="1" opacity="1"></line><line transform="translate(0,53)" x2="266.6666666666667" y2="0" stroke="#ddd" stroke-width="1" opacity="1"></line><line transform="translate(0,27)" x2="266.6666666666667" y2="0" stroke="#ddd" stroke-width="1" opacity="1"></line><line transform="translate(0,0)" x2="266.6666666666667" y2="0" stroke="#ddd" stroke-width="1" opacity="1"></line></g></g><path class="foreground" aria-hidden="true" d="" pointer-events="none" display="none"></path></g></g><g class="mark-group role-axis" role="graphics-symbol" aria-roledescription="axis" aria-label="X-axis for a time scale with values from Monday, 18 May 2020, 5:00:00 PM to Tuesday, 02 June 2020, 5:00:00 PM"><g transform="translate(0.5,267.1666666666667)"><path class="background" aria-hidden="true" d="M0,0h0v0h0Z" pointer-events="none"></path><g><g class="mark-text role-axis-label" pointer-events="none"><text text-anchor="middle" transform="translate(5.185185185185186,10)" font-family="Roboto Condensed" font-size="10px" fill="#000" opacity="1">Tue 19</text><text text-anchor="middle" transform="translate(40.74074074074075,10)" font-family="Roboto Condensed" font-size="10px" fill="#000" opacity="0">Thu 21</text><text text-anchor="middle" transform="translate(76.29629629629629,10)" font-family="Roboto Condensed" font-size="10px" fill="#000" opacity="1">Sat 23</text><text text-anchor="middle" transform="translate(111.85185185185186,10)" font-family="Roboto Condensed" font-size="10px" fill="#000" opacity="0">Mon 25</text><text text-anchor="middle" transform="translate(147.40740740740742,10)" font-family="Roboto Condensed" font-size="10px" fill="#000" opacity="1">Wed 27</text><text text-anchor="middle" transform="translate(182.962962962963,10)" font-family="Roboto Condensed" font-size="10px" fill="#000" opacity="0">Fri 29</text><text text-anchor="middle" transform="translate(218.51851851851853,10)" font-family="Roboto Condensed" font-size="10px" fill="#000" opacity="1">May 31</text><text text-anchor="middle" transform="translate(236.2962962962963,10)" font-family="Roboto Condensed" font-size="10px" fill="#000" opacity="0">June</text></g><g class="mark-rule role-axis-domain" pointer-events="none"><line transform="translate(0,0)" x2="266.6666666666667" y2="0" stroke="lightgray" stroke-width="1" opacity="1"></line></g></g><path class="foreground" aria-hidden="true" d="" pointer-events="none" display="none"></path></g></g><g class="mark-group role-axis" role="graphics-symbol" aria-roledescription="axis" aria-label="Y-axis for a linear scale with values from 0 to 2,000,000"><g transform="translate(0.5,0.5)"><path class="background" aria-hidden="true" d="M0,0h0v0h0Z" pointer-events="none"></path><g><g class="mark-text role-axis-label" pointer-events="none"><text text-anchor="end" transform="translate(-2,269.6666666666667)" font-family="Roboto Condensed" font-size="10px" fill="#000" opacity="1">0</text><text text-anchor="end" transform="translate(-2,243.00000000000003)" font-family="Roboto Condensed" font-size="10px" fill="#000" opacity="1">200,000</text><text text-anchor="end" transform="translate(-2,216.33333333333337)" font-family="Roboto Condensed" font-size="10px" fill="#000" opacity="1">400,000</text><text text-anchor="end" transform="translate(-2,189.66666666666666)" font-family="Roboto Condensed" font-size="10px" fill="#000" opacity="1">600,000</text><text text-anchor="end" transform="translate(-2,163)" font-family="Roboto Condensed" font-size="10px" fill="#000" opacity="1">800,000</text><text text-anchor="end" transform="translate(-2,136.33333333333334)" font-family="Roboto Condensed" font-size="10px" fill="#000" opacity="1">1,000,000</text><text text-anchor="end" transform="translate(-2,109.66666666666669)" font-family="Roboto Condensed" font-size="10px" fill="#000" opacity="1">1,200,000</text><text text-anchor="end" transform="translate(-2,83.00000000000001)" font-family="Roboto Condensed" font-size="10px" fill="#000" opacity="1">1,400,000</text><text text-anchor="end" transform="translate(-2,56.33333333333333)" font-family="Roboto Condensed" font-size="10px" fill="#000" opacity="1">1,600,000</text><text text-anchor="end" transform="translate(-2,29.666666666666664)" font-family="Roboto Condensed" font-size="10px" fill="#000" opacity="1">1,800,000</text><text text-anchor="end" transform="translate(-2,3)" font-family="Roboto Condensed" font-size="10px" fill="#000" opacity="1">2,000,000</text></g><g class="mark-rule role-axis-domain" pointer-events="none"><line transform="translate(0,266.6666666666667)" x2="0" y2="-266.6666666666667" stroke="lightgray" stroke-width="1" opacity="1"></line></g></g><path class="foreground" aria-hidden="true" d="" pointer-events="none" display="none"></path></g></g><g class="mark-group role-scope pathgroup" role="graphics-object" aria-roledescription="group mark container"><g transform="translate(0,0)"><path class="background" aria-hidden="true" d="M0,0h266.6666666666667v266.6666666666667h-266.6666666666667Z"></path><g><g class="mark-line role-mark marks" clip-path="url(#clip1)" role="graphics-object" aria-roledescription="line mark container"><path aria-label="Country: Belgium; Date: Mar 01, 2020; Confirmed: 2; Recovered: 1; Deaths: 0; : 2" role="graphics-symbol" aria-roledescription="line mark" d="M-1398.5185185185187,266.6664L-1380.7407407407409,266.66560000000004L-1362.962962962963,266.66493333333335L-1345.1851851851852,266.66360000000003L-1327.4074074074076,266.66L-1309.6296296296298,266.6521333333334L-1291.851851851852,266.64413333333334L-1274.0740740740741,266.64000000000004L-1257.037037037037,266.6348L-1239.2592592592594,266.6310666666667L-1221.4814814814815,266.62480000000005L-1203.703703703704,266.62480000000005L-1185.9259259259259,266.5921333333334L-1168.1481481481483,266.57480000000004L-1150.3703703703704,266.54853333333335L-1132.5925925925926,266.5256L-1114.8148148148148,266.50093333333336L-1097.0370370370372,266.4685333333333L-1079.2592592592594,266.42733333333337L-1061.4814814814815,266.36573333333337L-1043.7037037037037,266.29133333333334L-1025.925925925926,266.21320000000003L-1008.1481481481482,266.1676L-990.3703703703704,266.09746666666666L-972.5925925925926,266.0084L-954.8148148148149,265.8353333333334L-937.0370370370371,265.6954666666667L-919.2592592592594,265.4488L-901.4814814814815,265.2218666666667L-883.7037037037038,265.0801333333333L-865.925925925926,264.96333333333337L-848.1481481481482,264.8048L-830.3703703703704,264.6202666666667L-812.5925925925926,264.4306666666667L-794.8148148148149,264.2092L-777.0370370370371,264.0412L-759.2592592592594,263.89146666666664L-741.4814814814815,263.7074666666667L-723.7037037037038,263.54626666666667L-705.925925925926,263.3356L-688.1481481481483,263.11106666666666L-670.3703703703704,262.9309333333333L-652.5925925925927,262.7137333333334L-634.8148148148149,262.58813333333336L-617.0370370370372,262.5174666666667L-599.2592592592594,262.1902666666667L-581.4814814814815,262.02546666666666L-563.7037037037038,261.8482666666667L-545.9259259259259,261.70893333333333L-528.1481481481482,261.53386666666665L-510.37037037037044,261.3356L-492.59259259259267,261.2058666666667L-474.81481481481484,261.0814666666667L-457.03703703703707,260.96040000000005L-439.2592592592593,260.76093333333336L-421.48148148148147,260.62333333333333L-403.7037037037037,260.5154666666667L-385.9259259259259,260.4417333333334L-368.14814814814815,260.3554666666667L-350.3703703703704,260.28546666666665L-332.5925925925926,260.1974666666667L-314.81481481481484,260.1290666666667L-297.03703703703707,260.06440000000003L-279.2592592592593,260.01253333333335L-261.48148148148147,259.9644L-243.70370370370372,259.93213333333335L-225.92592592592595,259.8958666666667L-208.14814814814815,259.8106666666667L-190.37037037037038,259.7318666666667L-172.5925925925926,259.65386666666666L-154.81481481481484,259.5892L-137.03703703703704,259.54013333333336L-119.25925925925927,259.4961333333334L-101.48148148148148,259.4692L-83.70370370370371,259.4282666666667L-65.92592592592594,259.3808L-48.14814814814815,259.33480000000003L-30.37037037037037,259.296L-12.592592592592593,259.2588L5.185185185185186,259.22786666666667L22.962962962962965,259.2022666666667L40.74074074074075,259.1686666666667L58.51851851851852,259.13186666666667L76.29629629629629,259.09200000000004L94.07407407407409,259.05440000000004L111.85185185185186,259.0210666666667L129.62962962962965,259.00600000000003L147.40740740740742,258.9877333333333L165.1851851851852,258.95346666666666L182.962962962963,258.9252L200.74074074074076,258.90853333333337L218.51851851851853,258.88253333333336L236.2962962962963,258.86440000000005L254.07407407407408,258.85133333333334L271.85185185185185,258.842" stroke="#4c78a8" stroke-width="2" opacity="1"></path></g></g><path class="foreground" aria-hidden="true" d="" display="none"></path></g><g transform="translate(0,0)"><path class="background" aria-hidden="true" d="M0,0h266.6666666666667v266.6666666666667h-266.6666666666667Z"></path><g><g class="mark-line role-mark marks" clip-path="url(#clip2)" role="graphics-object" aria-roledescription="line mark container"><path aria-label="Country: Brazil; Date: Mar 01, 2020; Confirmed: 2; Recovered: 0; Deaths: 0; : 2" role="graphics-symbol" aria-roledescription="line mark" d="M-1398.5185185185187,266.6664L-1380.7407407407409,266.6664L-1362.962962962963,266.6664L-1345.1851851851852,266.6661333333334L-1327.4074074074076,266.6661333333334L-1309.6296296296298,266.66493333333335L-1291.851851851852,266.66493333333335L-1274.0740740740741,266.66400000000004L-1257.037037037037,266.66333333333336L-1239.2592592592594,266.6625333333334L-1221.4814814814815,266.6616L-1203.703703703704,266.65973333333335L-1185.9259259259259,266.64653333333337L-1168.1481481481483,266.64653333333337L-1150.3703703703704,266.6450666666667L-1132.5925925925926,266.64000000000004L-1114.8148148148148,266.6238666666667L-1097.0370370370372,266.6170666666667L-1079.2592592592594,266.58386666666667L-1061.4814814814815,266.56093333333337L-1043.7037037037037,266.5305333333334L-1025.925925925926,266.46053333333333L-1008.1481481481482,266.41013333333336L-990.3703703703704,266.3670666666667L-972.5925925925926,266.32613333333336L-954.8148148148149,266.26866666666666L-937.0370370370371,266.2110666666667L-919.2592592592594,266.14613333333335L-901.4814814814815,266.0992L-883.7037037037038,266.0561333333333L-865.925925925926,265.9044L-848.1481481481482,265.7552L-830.3703703703704,265.59413333333333L-812.5925925925926,265.4592L-794.8148148148149,265.28533333333337L-777.0370370370371,265.18266666666665L-759.2592592592594,265.0452L-741.4814814814815,264.7954666666667L-723.7037037037038,264.5106666666667L-705.925925925926,264.25440000000003L-688.1481481481483,264.0482666666667L-670.3703703703704,263.9030666666667L-652.5925925925927,263.70773333333335L-634.8148148148149,263.54266666666666L-617.0370370370372,263.2984L-599.2592592592594,262.8906666666667L-581.4814814814815,262.61L-563.7037037037038,262.17573333333337L-545.9259259259259,261.7789333333333L-528.1481481481482,261.5128L-510.37037037037044,261.2342666666667L-492.59259259259267,260.9228L-474.81481481481484,260.56573333333336L-457.03703703703707,259.9952L-439.2592592592593,259.46093333333334L-421.48148148148147,258.75680000000006L-403.7037037037037,258.2533333333334L-385.9259259259259,257.6738666666667L-368.14814814814815,256.90200000000004L-350.3703703703704,256.04200000000003L-332.5925925925926,255.04173333333335L-314.81481481481484,254.3730666666667L-297.03703703703707,253.72000000000003L-279.2592592592593,253.0898666666667L-261.48148148148147,252.18400000000003L-243.70370370370372,251.27266666666668L-225.92592592592595,249.7852L-208.14814814814815,248.56360000000004L-190.37037037037038,247.0808L-172.5925925925926,245.85853333333336L-154.81481481481484,244.9734666666667L-137.03703703703704,244.05413333333334L-119.25925925925927,242.9048L-101.48148148148148,241.3150666666667L-83.70370370370371,239.578L-65.92592592592594,237.29453333333336L-48.14814814814815,235.53186666666667L-30.37037037037037,234.52266666666668L-12.592592592592593,232.6176L5.185185185185186,230.41533333333336L22.962962962962965,227.78946666666667L40.74074074074075,225.32173333333336L58.51851851851852,222.548L76.29629629629629,220.34693333333334L94.07407407407409,218.23853333333335L111.85185185185186,216.68026666666668L129.62962962962965,214.50373333333334L147.40740740740742,211.7572L165.1851851851852,208.23493333333334L182.962962962963,204.64453333333336L200.74074074074076,200.20800000000003L218.51851851851853,198.02013333333335L236.2962962962963,196.47373333333334L254.07407407407408,192.61560000000003L271.85185185185185,188.79786666666666" stroke="#f58518" stroke-width="2" opacity="1"></path></g></g><path class="foreground" aria-hidden="true" d="" display="none"></path></g><g transform="translate(0,0)"><path class="background" aria-hidden="true" d="M0,0h266.6666666666667v266.6666666666667h-266.6666666666667Z"></path><g><g class="mark-line role-mark marks" clip-path="url(#clip3)" role="graphics-object" aria-roledescription="line mark container"><path aria-label="Country: France; Date: Mar 01, 2020; Confirmed: 130; Recovered: 12; Deaths: 2; : 130" role="graphics-symbol" aria-roledescription="line mark" d="M-1398.5185185185187,266.64933333333335L-1380.7407407407409,266.6412L-1362.962962962963,266.6394666666667L-1345.1851851851852,266.6286666666667L-1327.4074074074076,266.6164L-1309.6296296296298,266.5796L-1291.851851851852,266.54013333333336L-1274.0740740740741,266.51653333333337L-1257.037037037037,266.5054666666667L-1239.2592592592594,266.4288L-1221.4814814814815,266.3625333333334L-1203.703703703704,266.3625333333334L-1185.9259259259259,266.17853333333335L-1168.1481481481483,266.0708L-1150.3703703703704,266.0668L-1132.5925925925926,265.7822666666667L-1114.8148148148148,265.6464L-1097.0370370370372,265.46093333333334L-1079.2592592592594,265.2172L-1061.4814814814815,264.9850666666667L-1043.7037037037037,264.7624L-1025.925925925926,264.53093333333334L-1008.1481481481482,264.0192L-990.3703703703704,263.6928L-972.5925925925926,263.3022666666667L-954.8148148148149,262.77933333333334L-937.0370370370371,262.2714666666667L-919.2592592592594,261.6566666666667L-901.4814814814815,261.31013333333334L-883.7037037037038,260.7266666666667L-865.925925925926,259.7162666666667L-848.1481481481482,259.0681333333334L-830.3703703703704,258.786L-812.5925925925926,258.0882666666667L-794.8148148148149,257.51933333333335L-777.0370370370371,257.2696L-759.2592592592594,256.74800000000005L-741.4814814814815,256.2444L-723.7037037037038,255.72693333333336L-705.925925925926,255.15546666666668L-688.1481481481483,254.57653333333334L-670.3703703703704,254.16133333333335L-652.5925925925927,250.5822666666667L-634.8148148148149,250.0936L-617.0370370370372,249.43240000000003L-599.2592592592594,249.0036L-581.4814814814815,247.34080000000003L-563.7037037037038,247.07693333333336L-545.9259259259259,247.07920000000001L-528.1481481481482,246.42560000000003L-510.37037037037044,246.10826666666668L-492.59259259259267,245.74386666666666L-474.81481481481484,246.03800000000004L-457.03703703703707,245.72986666666668L-439.2592592592593,245.51520000000002L-421.48148148148147,245.2944L-403.7037037037037,245.2204L-385.9259259259259,244.72146666666666L-368.14814814814815,244.31933333333336L-350.3703703703704,244.6542666666667L-332.5925925925926,244.56480000000002L-314.81481481481484,244.56480000000002L-297.03703703703707,244.40320000000003L-279.2592592592593,244.36373333333333L-261.48148148148147,244.28186666666667L-243.70370370370372,244.142L-225.92592592592595,243.67133333333334L-208.14814814814815,243.59466666666668L-190.37037037037038,243.42426666666668L-172.5925925925926,243.36560000000003L-154.81481481481484,243.32973333333334L-137.03703703703704,243.2694666666667L-119.25925925925927,243.1724L-101.48148148148148,243.20253333333335L-83.70370370370371,243.1050666666667L-65.92592592592594,243.02413333333334L-48.14814814814815,243.03906666666666L-30.37037037037037,243.03466666666668L-12.592592592592593,242.99280000000002L5.185185185185186,242.87626666666668L22.962962962962965,242.79080000000002L40.74074074074075,242.75920000000002L58.51851851851852,242.714L76.29629629629629,242.67146666666667L94.07407407407409,242.68546666666668L111.85185185185186,242.64453333333336L129.62962962962965,242.68173333333337L147.40740740740742,242.6608L165.1851851851852,242.2254666666667L182.962962962963,242.15786666666668L200.74074074074076,241.9178666666667L218.51851851851853,241.88653333333335L236.2962962962963,241.8730666666667L254.07407407407408,242.0026666666667L271.85185185185185,241.48853333333335" stroke="#e45756" stroke-width="2" opacity="1"></path></g></g><path class="foreground" aria-hidden="true" d="" display="none"></path></g><g transform="translate(0,0)"><path class="background" aria-hidden="true" d="M0,0h266.6666666666667v266.6666666666667h-266.6666666666667Z"></path><g><g class="mark-line role-mark marks" clip-path="url(#clip4)" role="graphics-object" aria-roledescription="line mark container"><path aria-label="Country: Germany; Date: Mar 01, 2020; Confirmed: 130; Recovered: 16; Deaths: 0; : 130" role="graphics-symbol" aria-roledescription="line mark" d="M-1398.5185185185187,266.64933333333335L-1380.7407407407409,266.64546666666666L-1362.962962962963,266.64053333333334L-1345.1851851851852,266.63173333333333L-1327.4074074074076,266.6024L-1309.6296296296298,266.57733333333334L-1291.851851851852,266.56013333333334L-1274.0740740740741,266.528L-1257.037037037037,266.50986666666665L-1239.2592592592594,266.4724L-1221.4814814814815,266.4122666666667L-1203.703703703704,266.38960000000003L-1185.9259259259259,266.1766666666667L-1168.1481481481483,266.05533333333335L-1150.3703703703704,265.894L-1132.5925925925926,265.6970666666667L-1114.8148148148148,265.43240000000003L-1097.0370370370372,265.0230666666667L-1079.2592592592594,264.624L-1061.4814814814815,264.02026666666666L-1043.7037037037037,263.7049333333334L-1025.925925925926,263.3502666666667L-1008.1481481481482,262.7925333333334L-990.3703703703704,262.2685333333334L-972.5925925925926,261.6902666666667L-954.8148148148149,260.80826666666667L-937.0370370370371,259.8838666666667L-919.2592592592594,258.974L-901.4814814814815,258.38733333333334L-883.7037037037038,257.7486666666667L-865.925925925926,257.09226666666666L-848.1481481481482,256.2837333333334L-830.3703703703704,255.3608L-812.5925925925926,254.51213333333337L-794.8148148148149,253.8544L-777.0370370370371,253.31693333333337L-759.2592592592594,252.88346666666666L-741.4814814814815,252.3116L-723.7037037037038,251.56053333333335L-705.925925925926,250.9092L-688.1481481481483,250.37720000000002L-670.3703703703704,250.01226666666668L-652.5925925925927,249.61946666666668L-634.8148148148149,249.32373333333337L-617.0370370370372,249.15213333333335L-599.2592592592594,248.69960000000003L-581.4814814814815,248.30693333333338L-563.7037037037038,247.81373333333335L-545.9259259259259,247.55440000000002L-528.1481481481482,247.30880000000002L-510.37037037037044,247.05800000000002L-492.59259259259267,246.89453333333336L-474.81481481481484,246.5802666666667L-457.03703703703707,246.24946666666668L-439.2592592592593,246.00013333333334L-421.48148148148147,245.7982666666667L-403.7037037037037,245.63066666666668L-385.9259259259259,245.49893333333335L-368.14814814814815,245.34506666666667L-350.3703703703704,245.12813333333338L-332.5925925925926,244.93213333333335L-314.81481481481484,244.78973333333334L-297.03703703703707,244.67106666666666L-279.2592592592593,244.57813333333334L-261.48148148148147,244.51306666666667L-243.70370370370372,244.3990666666667L-225.92592592592595,244.2450666666667L-208.14814814814815,244.07600000000002L-190.37037037037038,243.9216L-172.5925925925926,243.8234666666667L-154.81481481481484,243.74946666666668L-137.03703703703704,243.65653333333333L-119.25925925925927,243.57720000000003L-101.48148148148148,243.4536L-83.70370370370371,243.40293333333335L-65.92592592592594,243.3022666666667L-48.14814814814815,243.2330666666667L-30.37037037037037,243.1508L-12.592592592592593,243.12653333333336L5.185185185185186,242.96293333333335L22.962962962962965,242.8702666666667L40.74074074074075,242.7972L58.51851851851852,242.70533333333336L76.29629629629629,242.66853333333336L94.07407407407409,242.62293333333335L111.85185185185186,242.58666666666667L129.62962962962965,242.5066666666667L147.40740740740742,242.46346666666668L165.1851851851852,242.3738666666667L182.962962962963,242.27706666666668L200.74074074074076,242.24146666666667L218.51851851851853,242.21200000000002L236.2962962962963,242.18746666666667L254.07407407407408,242.14946666666668L271.85185185185185,242.11720000000003" stroke="#72b7b2" stroke-width="2" opacity="1"></path></g></g><path class="foreground" aria-hidden="true" d="" display="none"></path></g><g transform="translate(0,0)"><path class="background" aria-hidden="true" d="M0,0h266.6666666666667v266.6666666666667h-266.6666666666667Z"></path><g><g class="mark-line role-mark marks" clip-path="url(#clip5)" role="graphics-object" aria-roledescription="line mark container"><path aria-label="Country: Iran; Date: Mar 01, 2020; Confirmed: 978; Recovered: 175; Deaths: 54; : 978" role="graphics-symbol" aria-roledescription="line mark" d="M-1398.5185185185187,266.5362666666667L-1380.7407407407409,266.46653333333336L-1362.962962962963,266.3552L-1345.1851851851852,266.27706666666666L-1327.4074074074076,266.19826666666665L-1309.6296296296298,266.0337333333333L-1291.851851851852,265.8902666666667L-1274.0740740740741,265.7912L-1257.037037037037,265.7118666666667L-1239.2592592592594,265.5944L-1221.4814814814815,265.4666666666667L-1203.703703703704,265.3233333333333L-1185.9259259259259,265.1514666666667L-1168.1481481481483,264.9694666666667L-1150.3703703703704,264.80826666666667L-1132.5925925925926,264.66786666666667L-1114.8148148148148,264.5108L-1097.0370370370372,264.3518666666667L-1079.2592592592594,264.2124L-1061.4814814814815,264.0474666666667L-1043.7037037037037,263.9186666666667L-1025.925925925926,263.7816L-1008.1481481481482,263.5934666666667L-990.3703703703704,263.35853333333336L-972.5925925925926,263.06440000000003L-954.8148148148149,262.7458666666667L-937.0370370370371,262.3557333333334L-919.2592592592594,261.9456L-901.4814814814815,261.5588L-883.7037037037038,261.134L-865.925925925926,260.71933333333334L-848.1481481481482,260.32093333333336L-830.3703703703704,259.93760000000003L-812.5925925925926,259.5756L-794.8148148148149,259.23426666666666L-777.0370370370371,258.9032L-759.2592592592594,258.6L-741.4814814814815,258.3214666666667L-723.7037037037038,258.0552L-705.925925925926,257.83733333333333L-688.1481481481483,257.5744L-670.3703703703704,257.3294666666667L-652.5925925925927,257.10853333333336L-634.8148148148149,256.89293333333336L-617.0370370370372,256.68306666666666L-599.2592592592594,256.4814666666667L-581.4814814814815,256.26733333333334L-563.7037037037038,256.0674666666667L-545.9259259259259,255.8842666666667L-528.1481481481482,255.70520000000002L-510.37037037037044,255.5326666666667L-492.59259259259267,255.35973333333334L-474.81481481481484,255.20053333333337L-457.03703703703707,255.06320000000002L-439.2592592592593,254.90746666666666L-421.48148148148147,254.75626666666668L-403.7037037037037,254.60253333333335L-385.9259259259259,254.4704L-368.14814814814815,254.32213333333334L-350.3703703703704,254.17906666666667L-332.5925925925926,254.048L-314.81481481481484,253.9138666666667L-297.03703703703707,253.80693333333335L-279.2592592592593,253.67680000000001L-261.48148148148147,253.51373333333336L-243.70370370370372,253.33733333333336L-225.92592592592595,253.11333333333334L-208.14814814814815,252.91533333333336L-190.37037037037038,252.70786666666666L-172.5925925925926,252.50400000000002L-154.81481481481484,252.3196L-137.03703703703704,252.0952L-119.25925925925927,251.89773333333335L-101.48148148148148,251.63666666666668L-83.70370370370371,251.39560000000003L-65.92592592592594,251.11533333333335L-48.14814814814815,250.88106666666667L-30.37037037037037,250.6402666666667L-12.592592592592593,250.33440000000002L5.185185185185186,250.05293333333336L22.962962962962965,249.74013333333335L40.74074074074075,249.42120000000003L58.51851851851852,249.1130666666667L76.29629629629629,248.8638666666667L94.07407407407409,248.5732L111.85185185185186,248.30346666666668L129.62962962962965,248.06520000000003L147.40740740740742,247.78786666666667L165.1851851851852,247.48680000000004L182.962962962963,247.11093333333335L200.74074074074076,246.8066666666667L218.51851851851853,246.4712L236.2962962962963,246.074L254.07407407407408,245.65840000000003L271.85185185185185,245.24053333333336" stroke="#54a24b" stroke-width="2" opacity="1"></path></g></g><path class="foreground" aria-hidden="true" d="" display="none"></path></g><g transform="translate(0,0)"><path class="background" aria-hidden="true" d="M0,0h266.6666666666667v266.6666666666667h-266.6666666666667Z"></path><g><g class="mark-line role-mark marks" clip-path="url(#clip6)" role="graphics-object" aria-roledescription="line mark container"><path aria-label="Country: Italy; Date: Mar 01, 2020; Confirmed: 1694; Recovered: 83; Deaths: 34; : 1694" role="graphics-symbol" aria-roledescription="line mark" d="M-1398.5185185185187,266.4408L-1380.7407407407409,266.39520000000005L-1362.962962962963,266.3330666666667L-1345.1851851851852,266.25480000000005L-1327.4074074074076,266.1522666666667L-1309.6296296296298,266.04853333333335L-1291.851851851852,265.8822666666667L-1274.0740740740741,265.68333333333334L-1257.037037037037,265.44373333333334L-1239.2592592592594,265.31346666666667L-1221.4814814814815,265.00506666666666L-1203.703703703704,264.65160000000003L-1185.9259259259259,264.312L-1168.1481481481483,263.8457333333333L-1150.3703703703704,263.3670666666667L-1132.5925925925926,262.93600000000004L-1114.8148148148148,262.46586666666667L-1097.0370370370372,261.90493333333336L-1079.2592592592594,261.19533333333334L-1061.4814814814815,260.3972L-1043.7037037037037,259.52293333333336L-1025.925925925926,258.7816L-1008.1481481481482,258.1430666666667L-990.3703703703704,257.44320000000005L-972.5925925925926,256.74853333333334L-954.8148148148149,255.92146666666667L-937.0370370370371,255.13360000000003L-919.2592592592594,254.3370666666667L-901.4814814814815,253.6414666666667L-883.7037037037038,253.10146666666668L-865.925925925926,252.56106666666668L-848.1481481481482,251.92346666666668L-830.3703703703704,251.30106666666669L-812.5925925925926,250.68973333333335L-794.8148148148149,250.04906666666668L-777.0370370370371,249.4736L-759.2592592592594,248.99373333333335L-741.4814814814815,248.58853333333334L-723.7037037037038,248.0770666666667L-705.925925925926,247.51653333333334L-688.1481481481483,246.98973333333333L-670.3703703703704,246.36386666666667L-652.5925925925927,245.8182666666667L-634.8148148148149,245.3978666666667L-617.0370370370372,245.00160000000002L-599.2592592592594,244.64600000000002L-581.4814814814815,244.14120000000003L-563.7037037037038,243.6754666666667L-545.9259259259259,243.21000000000004L-528.1481481481482,242.80373333333335L-510.37037037037044,242.50293333333335L-492.59259259259267,242.1390666666667L-474.81481481481484,241.68973333333335L-457.03703703703707,241.33693333333335L-439.2592592592593,240.93413333333334L-421.48148148148147,240.61986666666667L-403.7037037037037,240.31L-385.9259259259259,240.07813333333334L-368.14814814814815,239.79933333333335L-350.3703703703704,239.5212L-332.5925925925926,239.27160000000003L-314.81481481481484,239.00960000000003L-297.03703703703707,238.75626666666668L-279.2592592592593,238.57106666666667L-261.48148148148147,238.4082666666667L-243.70370370370372,238.26493333333335L-225.92592592592595,238.07240000000004L-208.14814814814815,237.88560000000004L-190.37037037037038,237.7086666666667L-172.5925925925926,237.5642666666667L-154.81481481481484,237.45733333333337L-137.03703703703704,237.35813333333337L-119.25925925925927,237.1712L-101.48148148148148,237.05280000000002L-83.70370370370371,236.92053333333337L-65.92592592592594,236.81533333333334L-48.14814814814815,236.69866666666667L-30.37037037037037,236.60866666666666L-12.592592592592593,236.54853333333335L5.185185185185186,236.44013333333336L22.962962962962965,236.35146666666668L40.74074074074075,236.26586666666668L58.51851851851852,236.17893333333333L76.29629629629629,236.08973333333336L94.07407407407409,236.01893333333334L111.85185185185186,235.97893333333334L129.62962962962965,235.92600000000002L147.40740740740742,235.84813333333335L165.1851851851852,235.76906666666667L182.962962962963,235.7002666666667L200.74074074074076,235.64480000000003L218.51851851851853,235.6004L236.2962962962963,235.57373333333334L254.07407407407408,235.53133333333335L271.85185185185185,235.48853333333335" stroke="#eeca3b" stroke-width="2" opacity="1"></path></g></g><path class="foreground" aria-hidden="true" d="" display="none"></path></g><g transform="translate(0,0)"><path class="background" aria-hidden="true" d="M0,0h266.6666666666667v266.6666666666667h-266.6666666666667Z"></path><g><g class="mark-line role-mark marks" clip-path="url(#clip7)" role="graphics-object" aria-roledescription="line mark container"><path aria-label="Country: Mexico; Date: Mar 01, 2020; Confirmed: 5; Recovered: 0; Deaths: 0; : 5" role="graphics-symbol" aria-roledescription="line mark" d="M-1398.5185185185187,266.666L-1380.7407407407409,266.666L-1362.962962962963,266.666L-1345.1851851851852,266.666L-1327.4074074074076,266.666L-1309.6296296296298,266.6658666666667L-1291.851851851852,266.6658666666667L-1274.0740740740741,266.6657333333333L-1257.037037037037,266.6657333333333L-1239.2592592592594,266.6657333333333L-1221.4814814814815,266.66560000000004L-1203.703703703704,266.6650666666667L-1185.9259259259259,266.6632L-1168.1481481481483,266.6612L-1150.3703703703704,266.6596L-1132.5925925925926,266.6557333333334L-1114.8148148148148,266.6542666666667L-1097.0370370370372,266.65093333333334L-1079.2592592592594,266.64480000000003L-1061.4814814814815,266.63960000000003L-1043.7037037037037,266.63320000000004L-1025.925925925926,266.6245333333334L-1008.1481481481482,266.6177333333334L-990.3703703703704,266.6126666666667L-972.5925925925926,266.60333333333335L-954.8148148148149,266.58866666666665L-937.0370370370371,266.5710666666667L-919.2592592592594,266.5536L-901.4814814814815,266.53426666666667L-883.7037037037038,266.5208L-865.925925925926,266.5046666666667L-848.1481481481482,266.48293333333334L-830.3703703703704,266.4653333333334L-812.5925925925926,266.44160000000005L-794.8148148148149,266.4146666666667L-777.0370370370371,266.38093333333336L-759.2592592592594,266.3414666666667L-741.4814814814815,266.29533333333336L-723.7037037037038,266.2425333333333L-705.925925925926,266.2078666666667L-688.1481481481483,266.15413333333333L-670.3703703703704,266.1041333333334L-652.5925925925927,266.0452L-634.8148148148149,265.9981333333333L-617.0370370370372,265.94680000000005L-599.2592592592594,265.88706666666667L-581.4814814814815,265.82706666666667L-563.7037037037038,265.75L-545.9259259259259,265.6670666666667L-528.1481481481482,265.5652L-510.37037037037044,265.4970666666667L-492.59259259259267,265.3998666666667L-474.81481481481484,265.2608L-457.03703703703707,265.11560000000003L-439.2592592592593,264.9504L-421.48148148148147,264.8210666666667L-403.7037037037037,264.70973333333336L-385.9259259259259,264.59613333333334L-368.14814814814815,264.43306666666666L-350.3703703703704,264.2934666666667L-332.5925925925926,264.1034666666667L-314.81481481481484,263.9014666666667L-297.03703703703707,263.7216L-279.2592592592593,263.53720000000004L-261.48148148148147,263.346L-243.70370370370372,263.1966666666667L-225.92592592592595,262.98213333333337L-208.14814814814815,262.7178666666667L-190.37037037037038,262.4637333333333L-172.5925925925926,262.20533333333333L-154.81481481481484,261.9970666666667L-137.03703703703704,261.8230666666667L-119.25925925925927,261.5568L-101.48148148148148,261.30853333333334L-83.70370370370371,260.98733333333337L-65.92592592592594,260.66240000000005L-48.14814814814815,260.3808L-30.37037037037037,260.1041333333334L-12.592592592592593,259.78226666666666L5.185185185185186,259.42053333333337L22.962962962962965,259.12080000000003L40.74074074074075,258.7244L58.51851851851852,258.32973333333337L76.29629629629629,257.8858666666667L94.07407407407409,257.51733333333334L111.85185185185186,257.18600000000004L129.62962962962965,256.72533333333337L147.40740740740742,256.2636L165.1851851851852,255.81333333333336L182.962962962963,255.38306666666668L200.74074074074076,254.9984L218.51851851851853,254.57813333333334L236.2962962962963,254.2086666666667L254.07407407407408,253.6898666666667L271.85185185185185,253.16826666666668" stroke="#b279a2" stroke-width="2" opacity="1"></path></g></g><path class="foreground" aria-hidden="true" d="" display="none"></path></g><g transform="translate(0,0)"><path class="background" aria-hidden="true" d="M0,0h266.6666666666667v266.6666666666667h-266.6666666666667Z"></path><g><g class="mark-line role-mark marks" clip-path="url(#clip8)" role="graphics-object" aria-roledescription="line mark container"><path aria-label="Country: Spain; Date: Mar 01, 2020; Confirmed: 84; Recovered: 2; Deaths: 0; : 84" role="graphics-symbol" aria-roledescription="line mark" d="M-1398.5185185185187,266.6554666666667L-1380.7407407407409,266.6506666666667L-1362.962962962963,266.6446666666667L-1345.1851851851852,266.63706666666667L-1327.4074074074076,266.63213333333334L-1309.6296296296298,266.61333333333334L-1291.851851851852,266.6L-1274.0740740740741,266.5769333333334L-1257.037037037037,266.5236L-1239.2592592592594,266.4406666666667L-1221.4814814814815,266.36306666666667L-1203.703703703704,266.36306666666667L-1185.9259259259259,265.9690666666667L-1168.1481481481483,265.8145333333334L-1150.3703703703704,265.62693333333334L-1132.5925925925926,265.3410666666667L-1114.8148148148148,265.1002666666667L-1097.0370370370372,264.812L-1079.2592592592594,264.27160000000003L-1061.4814814814815,263.94533333333334L-1043.7037037037037,263.2834666666667L-1025.925925925926,262.83093333333335L-1008.1481481481482,261.9818666666667L-990.3703703703704,261.3486666666667L-972.5925925925926,260.0646666666667L-954.8148148148149,258.9618666666667L-937.0370370370371,257.90413333333333L-919.2592592592594,256.90200000000004L-901.4814814814815,255.98533333333336L-883.7037037037038,254.93920000000003L-865.925925925926,253.87693333333334L-848.1481481481482,252.7842666666667L-830.3703703703704,251.72466666666668L-812.5925925925926,250.77346666666668L-794.8148148148149,249.84426666666667L-777.0370370370371,249.1138666666667L-759.2592592592594,248.44333333333336L-741.4814814814815,247.74106666666668L-723.7037037037038,246.90400000000002L-705.925925925926,246.2370666666667L-688.1481481481483,245.56360000000004L-670.3703703703704,244.92973333333336L-652.5925925925927,244.42253333333335L-634.8148148148149,243.98680000000002L-617.0370370370372,243.6612L-599.2592592592594,242.98080000000002L-581.4814814814815,242.00693333333336L-563.7037037037038,241.2214666666667L-545.9259259259259,241.10320000000002L-528.1481481481482,240.17680000000001L-510.37037037037044,239.972L-492.59259259259267,239.44293333333334L-474.81481481481484,238.88146666666668L-457.03703703703707,238.2634666666667L-439.2592592592593,239.60133333333334L-421.48148148148147,239.21266666666668L-403.7037037037037,238.98213333333334L-385.9259259259259,238.73800000000003L-368.14814814814815,238.5636L-350.3703703703704,238.27773333333334L-332.5925925925926,238.2086666666667L-314.81481481481484,237.9712L-297.03703703703707,237.78906666666668L-279.2592592592593,237.67120000000003L-261.48148148148147,237.59853333333336L-243.70370370370372,237.4228L-225.92592592592595,237.29000000000002L-208.14814814814815,237.14040000000003L-190.37037037037038,236.9524L-172.5925925925926,236.85626666666667L-154.81481481481484,236.75333333333333L-137.03703703703704,236.34186666666668L-119.25925925925927,236.2626666666667L-101.48148148148148,236.17453333333336L-83.70370370370371,236.06133333333335L-65.92592592592594,235.97560000000001L-48.14814814814815,235.90693333333334L-30.37037037037037,235.90693333333334L-12.592592592592593,235.7858666666667L5.185185185185186,235.72840000000002L22.962962962962965,235.65933333333334L40.74074074074075,235.5950666666667L58.51851851851852,235.35680000000002L76.29629629629629,235.29466666666667L94.07407407407409,235.2304L111.85185185185186,235.28L129.62962962962965,235.16546666666667L147.40740740740742,235.16546666666667L165.1851851851852,234.9458666666667L182.962962962963,234.85813333333334L200.74074074074076,234.76960000000003L218.51851851851853,234.73613333333336L236.2962962962963,234.71493333333333L254.07407407407408,234.67573333333334L271.85185185185185,234.62320000000003" stroke="#ff9da6" stroke-width="2" opacity="1"></path></g></g><path class="foreground" aria-hidden="true" d="" display="none"></path></g><g transform="translate(0,0)"><path class="background" aria-hidden="true" d="M0,0h266.6666666666667v266.6666666666667h-266.6666666666667Z"></path><g><g class="mark-line role-mark marks" clip-path="url(#clip9)" role="graphics-object" aria-roledescription="line mark container"><path aria-label="Country: US; Date: Mar 01, 2020; Confirmed: 74; Recovered: 7; Deaths: 1; : 74" role="graphics-symbol" aria-roledescription="line mark" d="M-1398.5185185185187,266.65680000000003L-1380.7407407407409,266.65360000000004L-1362.962962962963,266.65093333333334L-1345.1851851851852,266.64680000000004L-1327.4074074074076,266.6374666666667L-1309.6296296296298,266.6310666666667L-1291.851851851852,266.6129333333334L-1274.0740740740741,266.5974666666667L-1257.037037037037,266.5882666666667L-1239.2592592592594,266.5384L-1221.4814814814815,266.49533333333335L-1203.703703703704,266.44440000000003L-1185.9259259259259,266.3758666666667L-1168.1481481481483,266.30280000000005L-1150.3703703703704,266.1952L-1132.5925925925926,266.0452L-1114.8148148148148,265.8084L-1097.0370370370372,265.6292L-1079.2592592592594,264.8336L-1061.4814814814815,264.09680000000003L-1043.7037037037037,263.25333333333333L-1025.925925925926,262.22933333333333L-1008.1481481481482,260.8184L-990.3703703703704,259.4766666666667L-972.5925925925926,257.8874666666667L-954.8148148148149,255.48853333333335L-937.0370370370371,253.07173333333336L-919.2592592592594,250.42853333333335L-901.4814814814815,247.87866666666667L-883.7037037037038,245.04706666666667L-865.925925925926,241.5770666666667L-848.1481481481482,238.18640000000002L-830.3703703703704,234.13226666666668L-812.5925925925926,229.89360000000002L-794.8148148148149,225.4630666666667L-777.0370370370371,221.75973333333334L-759.2592592592594,217.82440000000003L-741.4814814814815,213.71720000000002L-723.7037037037038,209.51280000000003L-705.925925925926,204.88973333333334L-688.1481481481483,200.42053333333334L-670.3703703703704,196.4298666666667L-652.5925925925927,192.62493333333336L-634.8148148148149,189.25013333333334L-617.0370370370372,185.644L-599.2592592592594,181.7768L-581.4814814814815,177.60253333333333L-563.7037037037038,173.3250666666667L-545.9259259259259,168.988L-528.1481481481482,165.49213333333336L-510.37037037037044,162.03893333333335L-492.59259259259267,158.418L-474.81481481481484,154.61986666666667L-457.03703703703707,150.77733333333333L-439.2592592592593,145.95226666666667L-421.48148148148147,141.5794666666667L-403.7037037037037,137.89533333333335L-385.9259259259259,134.90706666666668L-368.14814814814815,131.65573333333333L-350.3703703703704,128.01213333333334L-332.5925925925926,124.07680000000002L-314.81481481481484,119.53853333333333L-297.03703703703707,115.66146666666668L-279.2592592592593,112.26133333333334L-261.48148148148147,109.28333333333335L-243.70370370370372,106.08653333333335L-225.92592592592595,102.75586666666668L-208.14814814814815,99.06360000000001L-190.37037037037038,95.47613333333332L-172.5925925925926,92.06L-154.81481481481484,89.43199999999999L-137.03703703703704,86.94919999999999L-119.25925925925927,84.08320000000002L-101.48148148148148,81.2792L-83.70370370370371,77.63013333333333L-65.92592592592594,74.29013333333333L-48.14814814814815,70.95733333333335L-30.37037037037037,68.43239999999999L-12.592592592592593,65.55893333333334L5.185185185185186,62.85760000000001L22.962962962962965,59.752933333333345L40.74074074074075,56.380399999999995L58.51851851851852,53.2084L76.29629629629629,50.31840000000001L94.07407407407409,47.56720000000001L111.85185185185186,45.02640000000001L129.62962962962965,42.544933333333326L147.40740740740742,40.10986666666667L165.1851851851852,37.09959999999999L182.962962962963,33.864133333333335L200.74074074074076,30.64466666666667L218.51851851851853,27.977066666666655L236.2962962962963,25.197333333333326L254.07407407407408,22.42386666666668L271.85185185185185,19.797333333333327" stroke="#9d755d" stroke-width="2" opacity="1"></path></g></g><path class="foreground" aria-hidden="true" d="" display="none"></path></g><g transform="translate(0,0)"><path class="background" aria-hidden="true" d="M0,0h266.6666666666667v266.6666666666667h-266.6666666666667Z"></path><g><g class="mark-line role-mark marks" clip-path="url(#clip10)" role="graphics-object" aria-roledescription="line mark container"><path aria-label="Country: United Kingdom; Date: Mar 01, 2020; Confirmed: 36; Recovered: 8; Deaths: 0; : 36" role="graphics-symbol" aria-roledescription="line mark" d="M-1398.5185185185187,266.6618666666667L-1380.7407407407409,266.66133333333335L-1362.962962962963,266.6598666666667L-1345.1851851851852,266.6553333333334L-1327.4074074074076,266.65133333333335L-1309.6296296296298,266.64493333333337L-1291.851851851852,266.6392L-1274.0740740740741,266.63026666666667L-1257.037037037037,266.6238666666667L-1239.2592592592594,266.6157333333333L-1221.4814814814815,266.60586666666666L-1203.703703703704,266.60586666666666L-1185.9259259259259,266.5602666666667L-1168.1481481481483,266.5146666666667L-1150.3703703703704,266.5146666666667L-1132.5925925925926,266.46093333333334L-1114.8148148148148,266.4066666666667L-1097.0370370370372,266.3165333333333L-1079.2592592592594,266.3081333333334L-1061.4814814814815,266.1356L-1043.7037037037037,265.99760000000003L-1025.925925925926,265.9089333333333L-1008.1481481481482,265.78000000000003L-990.3703703703704,265.58973333333336L-972.5925925925926,265.39613333333335L-954.8148148148149,265.1122666666667L-937.0370370370371,264.7276L-919.2592592592594,264.38813333333337L-901.4814814814815,264.06373333333335L-883.7037037037038,263.71453333333335L-865.925925925926,263.31333333333333L-848.1481481481482,262.7368L-830.3703703703704,262.1709333333334L-812.5925925925926,261.5776L-794.8148148148149,261.0796L-777.0370370370371,260.2925333333333L-759.2592592592594,259.7856L-741.4814814814815,259.30106666666666L-723.7037037037038,258.56893333333335L-705.925925925926,257.98973333333333L-688.1481481481483,256.83226666666667L-670.3703703703704,256.13453333333337L-652.5925925925927,255.42946666666668L-634.8148148148149,254.85053333333335L-617.0370370370372,254.15026666666668L-599.2592592592594,253.53653333333335L-581.4814814814815,252.92093333333335L-563.7037037037038,252.17440000000002L-545.9259259259259,251.43773333333334L-528.1481481481482,250.65773333333337L-510.37037037037044,250.03426666666667L-492.59259259259267,249.46080000000003L-474.81481481481484,248.86733333333336L-457.03703703703707,248.2562666666667L-439.2592592592593,247.53813333333335L-421.48148148148147,246.88306666666668L-403.7037037037037,246.288L-385.9259259259259,245.71346666666668L-368.14814814814815,245.18066666666667L-350.3703703703704,244.6372L-332.5925925925926,243.83293333333333L-314.81481481481484,243.00613333333334L-297.03703703703707,242.36533333333333L-279.2592592592593,241.78680000000003L-261.48148148148147,241.25546666666668L-243.70370370370372,240.668L-225.92592592592595,239.85320000000002L-208.14814814814815,239.10466666666667L-190.37037037037038,238.4848L-172.5925925925926,237.96533333333335L-154.81481481481484,237.44226666666668L-137.03703703703704,236.92533333333336L-119.25925925925927,236.4716L-101.48148148148148,236.03933333333333L-83.70370370370371,235.5798666666667L-65.92592592592594,235.1052L-48.14814814814815,234.64520000000002L-30.37037037037037,234.174L-12.592592592592593,233.81253333333336L5.185185185185186,233.49093333333334L22.962962962962965,233.56093333333334L40.74074074074075,233.2122666666667L58.51851851851852,232.77400000000003L76.29629629629629,232.3794666666667L94.07407407407409,232.05880000000002L111.85185185185186,231.84213333333335L129.62962962962965,231.3030666666667L147.40740740740742,231.03466666666668L165.1851851851852,230.78306666666666L182.962962962963,230.50373333333334L200.74074074074076,230.28986666666668L218.51851851851853,230.03173333333336L236.2962962962963,229.82240000000002L254.07407407407408,229.60200000000003L271.85185185185185,229.35253333333333" stroke="#bab0ac" stroke-width="2" opacity="1"></path></g></g><path class="foreground" aria-hidden="true" d="" display="none"></path></g></g><g class="mark-group role-legend" role="graphics-symbol" aria-roledescription="legend" aria-label="Symbol legend for stroke color with 10 values: Belgium, Brazil, France, Germany, Iran, ending with United Kingdom"><g transform="translate(285,0)"><path class="background" aria-hidden="true" d="M0,0h79v128h-79Z" pointer-events="none"></path><g><g class="mark-group role-legend-entry"><g transform="translate(0,0)"><path class="background" aria-hidden="true" d="M0,0h0v0h0Z" pointer-events="none"></path><g><g class="mark-group role-scope Country_legend_entries" role="graphics-object" aria-roledescription="group mark container"><g transform="translate(0,0)"><path class="background" aria-hidden="true" d="M0,0h79v11h-79Z" opacity="1"></path><g><g class="mark-symbol role-legend-symbol Country_legend_symbols"><path transform="translate(6,6)" d="M-5,0L5,0" stroke="#4c78a8" stroke-width="1.5" opacity="1"></path></g><g class="mark-text role-legend-label Country_legend_labels"><text text-anchor="start" transform="translate(16,9)" font-family="Roboto Condensed" font-size="10px" fill="#000" opacity="1">Belgium</text></g></g><path class="foreground" aria-hidden="true" d="" display="none"></path></g><g transform="translate(0,13)"><path class="background" aria-hidden="true" d="M0,0h79v11h-79Z" opacity="1"></path><g><g class="mark-symbol role-legend-symbol Country_legend_symbols"><path transform="translate(6,6)" d="M-5,0L5,0" stroke="#f58518" stroke-width="1.5" opacity="1"></path></g><g class="mark-text role-legend-label Country_legend_labels"><text text-anchor="start" transform="translate(16,9)" font-family="Roboto Condensed" font-size="10px" fill="#000" opacity="1">Brazil</text></g></g><path class="foreground" aria-hidden="true" d="" display="none"></path></g><g transform="translate(0,26)"><path class="background" aria-hidden="true" d="M0,0h79v11h-79Z" opacity="1"></path><g><g class="mark-symbol role-legend-symbol Country_legend_symbols"><path transform="translate(6,6)" d="M-5,0L5,0" stroke="#e45756" stroke-width="1.5" opacity="1"></path></g><g class="mark-text role-legend-label Country_legend_labels"><text text-anchor="start" transform="translate(16,9)" font-family="Roboto Condensed" font-size="10px" fill="#000" opacity="1">France</text></g></g><path class="foreground" aria-hidden="true" d="" display="none"></path></g><g transform="translate(0,39)"><path class="background" aria-hidden="true" d="M0,0h79v11h-79Z" opacity="1"></path><g><g class="mark-symbol role-legend-symbol Country_legend_symbols"><path transform="translate(6,6)" d="M-5,0L5,0" stroke="#72b7b2" stroke-width="1.5" opacity="1"></path></g><g class="mark-text role-legend-label Country_legend_labels"><text text-anchor="start" transform="translate(16,9)" font-family="Roboto Condensed" font-size="10px" fill="#000" opacity="1">Germany</text></g></g><path class="foreground" aria-hidden="true" d="" display="none"></path></g><g transform="translate(0,52)"><path class="background" aria-hidden="true" d="M0,0h79v11h-79Z" opacity="1"></path><g><g class="mark-symbol role-legend-symbol Country_legend_symbols"><path transform="translate(6,6)" d="M-5,0L5,0" stroke="#54a24b" stroke-width="1.5" opacity="1"></path></g><g class="mark-text role-legend-label Country_legend_labels"><text text-anchor="start" transform="translate(16,9)" font-family="Roboto Condensed" font-size="10px" fill="#000" opacity="1">Iran</text></g></g><path class="foreground" aria-hidden="true" d="" display="none"></path></g><g transform="translate(0,65)"><path class="background" aria-hidden="true" d="M0,0h79v11h-79Z" opacity="1"></path><g><g class="mark-symbol role-legend-symbol Country_legend_symbols"><path transform="translate(6,6)" d="M-5,0L5,0" stroke="#eeca3b" stroke-width="1.5" opacity="1"></path></g><g class="mark-text role-legend-label Country_legend_labels"><text text-anchor="start" transform="translate(16,9)" font-family="Roboto Condensed" font-size="10px" fill="#000" opacity="1">Italy</text></g></g><path class="foreground" aria-hidden="true" d="" display="none"></path></g><g transform="translate(0,78)"><path class="background" aria-hidden="true" d="M0,0h79v11h-79Z" opacity="1"></path><g><g class="mark-symbol role-legend-symbol Country_legend_symbols"><path transform="translate(6,6)" d="M-5,0L5,0" stroke="#b279a2" stroke-width="1.5" opacity="1"></path></g><g class="mark-text role-legend-label Country_legend_labels"><text text-anchor="start" transform="translate(16,9)" font-family="Roboto Condensed" font-size="10px" fill="#000" opacity="1">Mexico</text></g></g><path class="foreground" aria-hidden="true" d="" display="none"></path></g><g transform="translate(0,91)"><path class="background" aria-hidden="true" d="M0,0h79v11h-79Z" opacity="1"></path><g><g class="mark-symbol role-legend-symbol Country_legend_symbols"><path transform="translate(6,6)" d="M-5,0L5,0" stroke="#ff9da6" stroke-width="1.5" opacity="1"></path></g><g class="mark-text role-legend-label Country_legend_labels"><text text-anchor="start" transform="translate(16,9)" font-family="Roboto Condensed" font-size="10px" fill="#000" opacity="1">Spain</text></g></g><path class="foreground" aria-hidden="true" d="" display="none"></path></g><g transform="translate(0,104)"><path class="background" aria-hidden="true" d="M0,0h79v11h-79Z" opacity="1"></path><g><g class="mark-symbol role-legend-symbol Country_legend_symbols"><path transform="translate(6,6)" d="M-5,0L5,0" stroke="#9d755d" stroke-width="1.5" opacity="1"></path></g><g class="mark-text role-legend-label Country_legend_labels"><text text-anchor="start" transform="translate(16,9)" font-family="Roboto Condensed" font-size="10px" fill="#000" opacity="1">US</text></g></g><path class="foreground" aria-hidden="true" d="" display="none"></path></g><g transform="translate(0,117)"><path class="background" aria-hidden="true" d="M0,0h79v11h-79Z" opacity="1"></path><g><g class="mark-symbol role-legend-symbol Country_legend_symbols"><path transform="translate(6,6)" d="M-5,0L5,0" stroke="#bab0ac" stroke-width="1.5" opacity="1"></path></g><g class="mark-text role-legend-label Country_legend_labels"><text text-anchor="start" transform="translate(16,9)" font-family="Roboto Condensed" font-size="10px" fill="#000" opacity="1">United Kingdom</text></g></g><path class="foreground" aria-hidden="true" d="" display="none"></path></g></g></g><path class="foreground" aria-hidden="true" d="" pointer-events="none" display="none"></path></g></g></g><path class="foreground" aria-hidden="true" d="" pointer-events="none" display="none"></path></g></g><g class="mark-group role-title"><g transform="translate(133.33333333333334,-37)"><path class="background" aria-hidden="true" d="M0,0h0v0h0Z" pointer-events="none"></path><g><g class="mark-text role-title-text" role="graphics-symbol" aria-roledescription="title" aria-label="Title text 'Confirmed (total) [2020-06-03]'" pointer-events="none"><text text-anchor="middle" transform="translate(0,10)" font-family="Roboto Condensed" font-size="13px" font-weight="normal" fill="#000" opacity="1"><tspan>Confirmed (total)</tspan><tspan x="0" dy="15">[2020-06-03]</tspan></text></g></g><path class="foreground" aria-hidden="true" d="" pointer-events="none" display="none"></path></g></g></g><path class="foreground" aria-hidden="true" d="" display="none"></path></g></g></g></svg>