<svg class="marks" width="419.6666666666667" height="325.6666666666667" viewBox="0 0 419.6666666666667 325.6666666666667" version="1.1" xmlns="http://www.w3.org/2000/svg" xmlns:xlink="http://www.w3.org/1999/xlink"><defs><clipPath id="clip1"><rect x="0" y="0" width="266.6666666666667" height="266.6666666666667"></rect></clipPath><clipPath id="clip2"><rect x="0" y="0" width="266.6666666666667" height="266.6666666666667"></rect></clipPath><clipPath id="clip3"><rect x="0" y="0" width="266.6666666666667" height="266.6666666666667"></rect></clipPath><clipPath id="clip4"><rect x="0" y="0" width="266.6666666666667" height="266.6666666666667"></rect></clipPath><clipPath id="clip5"><rect x="0" y="0" width="266.6666666666667" height="266.6666666666667"></rect></clipPath><clipPath id="clip6"><rect x="0" y="0" width="266.6666666666667" height="266.6666666666667"></rect></clipPath><clipPath id="clip7"><rect x="0" y="0" width="266.6666666666667" height="266.6666666666667"></rect></clipPath><clipPath id="clip8"><rect x="0" y="0" width="266.6666666666667" height="266.6666666666667"></rect></clipPath><clipPath id="clip9"><rect x="0" y="0" width="266.6666666666667" height="266.6666666666667"></rect></clipPath><clipPath id="clip10"><rect x="0" y="0" width="266.6666666666667" height="266.6666666666667"></rect></clipPath></defs><rect width="419.6666666666667" height="325.6666666666667" fill="white"></rect><g fill="none" stroke-miterlimit="10" transform="translate(50,42)"><g class="mark-group role-frame root" role="graphics-object" aria-roledescription="group mark container"><g transform="translate(0,0)"><path class="background" aria-hidden="true" d="M0,0h266.6666666666667v266.6666666666667h-266.6666666666667Z" stroke="#ddd" stroke-width="0"></path><g><g class="mark-group role-axis" aria-hidden="true"><g transform="translate(0.5,0.5)"><path class="background" aria-hidden="true" d="M0,0h0v0h0Z" pointer-events="none"></path><g><g class="mark-rule role-axis-grid" pointer-events="none"><line transform="translate(0,267)" x2="266.6666666666667" y2="0" stroke="#ddd" stroke-width="1" opacity="1"></line><line transform="translate(0,222)" x2="266.6666666666667" y2="0" stroke="#ddd" stroke-width="1" opacity="1"></line><line transform="translate(0,178)" x2="266.6666666666667" y2="0" stroke="#ddd" stroke-width="1" opacity="1"></line><line transform="translate(0,133)" x2="266.6666666666667" y2="0" stroke="#ddd" stroke-width="1" opacity="1"></line><line transform="translate(0,89)" x2="266.6666666666667" y2="0" stroke="#ddd" stroke-width="1" opacity="1"></line><line transform="translate(0,44)" x2="266.6666666666667" y2="0" stroke="#ddd" stroke-width="1" opacity="1"></line><line transform="translate(0,0)" x2="266.6666666666667" y2="0" stroke="#ddd" stroke-width="1" opacity="1"></line></g></g><path class="foreground" aria-hidden="true" d="" pointer-events="none" display="none"></path></g></g><g class="mark-group role-axis" role="graphics-symbol" aria-roledescription="axis" aria-label="X-axis for a time scale with values from Monday, 18 May 2020, 5:00:00 PM to Tuesday, 02 June 2020, 5:00:00 PM"><g transform="translate(0.5,267.1666666666667)"><path class="background" aria-hidden="true" d="M0,0h0v0h0Z" pointer-events="none"></path><g><g class="mark-text role-axis-label" pointer-events="none"><text text-anchor="middle" transform="translate(5.185185185185186,10)" font-family="Roboto Condensed" font-size="10px" fill="#000" opacity="1">Tue 19</text><text text-anchor="middle" transform="translate(40.74074074074075,10)" font-family="Roboto Condensed" font-size="10px" fill="#000" opacity="0">Thu 21</text><text text-anchor="middle" transform="translate(76.29629629629629,10)" font-family="Roboto Condensed" font-size="10px" fill="#000" opacity="1">Sat 23</text><text text-anchor="middle" transform="translate(111.85185185185186,10)" font-family="Roboto Condensed" font-size="10px" fill="#000" opacity="0">Mon 25</text><text text-anchor="middle" transform="translate(147.40740740740742,10)" font-family="Roboto Condensed" font-size="10px" fill="#000" opacity="1">Wed 27</text><text text-anchor="middle" transform="translate(182.962962962963,10)" font-family="Roboto Condensed" font-size="10px" fill="#000" opacity="0">Fri 29</text><text text-anchor="middle" transform="translate(218.51851851851853,10)" font-family="Roboto Condensed" font-size="10px" fill="#000" opacity="1">May 31</text><text text-anchor="middle" transform="translate(236.2962962962963,10)" font-family="Roboto Condensed" font-size="10px" fill="#000" opacity="0">June</text></g><g class="mark-rule role-axis-domain" pointer-events="none"><line transform="translate(0,0)" x2="266.6666666666667" y2="0" stroke="lightgray" stroke-width="1" opacity="1"></line></g></g><path class="foreground" aria-hidden="true" d="" pointer-events="none" display="none"></path></g></g><g class="mark-group role-axis" role="graphics-symbol" aria-roledescription="axis" aria-label="Y-axis for a linear scale with values from 0 to 30"><g transform="translate(0.5,0.5)"><path class="background" aria-hidden="true" d="M0,0h0v0h0Z" pointer-events="none"></path><g><g class="mark-text role-axis-label" pointer-events="none"><text text-anchor="end" transform="translate(-2,269.6666666666667)" font-family="Roboto Condensed" font-size="10px" fill="#000" opacity="1">0</text><text text-anchor="end" transform="translate(-2,225.22222222222226)" font-family="Roboto Condensed" font-size="10px" fill="#000" opacity="1">5</text><text text-anchor="end" transform="translate(-2,180.7777777777778)" font-family="Roboto Condensed" font-size="10px" fill="#000" opacity="1">10</text><text text-anchor="end" transform="translate(-2,136.33333333333334)" font-family="Roboto Condensed" font-size="10px" fill="#000" opacity="1">15</text><text text-anchor="end" transform="translate(-2,91.8888888888889)" font-family="Roboto Condensed" font-size="10px" fill="#000" opacity="1">20</text><text text-anchor="end" transform="translate(-2,47.444444444444436)" font-family="Roboto Condensed" font-size="10px" fill="#000" opacity="1">25</text><text text-anchor="end" transform="translate(-2,3)" font-family="Roboto Condensed" font-size="10px" fill="#000" opacity="1">30</text></g><g class="mark-rule role-axis-domain" pointer-events="none"><line transform="translate(0,266.6666666666667)" x2="0" y2="-266.6666666666667" stroke="lightgray" stroke-width="1" opacity="1"></line></g></g><path class="foreground" aria-hidden="true" d="" pointer-events="none" display="none"></path></g></g><g class="mark-group role-scope pathgroup" role="graphics-object" aria-roledescription="group mark container"><g transform="translate(0,0)"><path class="background" aria-hidden="true" d="M0,0h266.6666666666667v266.6666666666667h-266.6666666666667Z"></path><g><g class="mark-line role-mark marks" clip-path="url(#clip1)" role="graphics-object" aria-roledescription="line mark container"><path aria-label="Country: Belgium; Date: Mar 01, 2020; Confirmed: 0; Recovered: 0; Deaths: 0; : 0" role="graphics-symbol" aria-roledescription="line mark" d="M-1291.851851851852,266.6666666666667L-1274.0740740740741,266.6666666666667L-1257.037037037037,266.6666666666667L-1239.2592592592594,266.6666666666667L-1221.4814814814815,266.3334699106836L-1203.703703703704,266.3334699106836L-1185.9259259259259,266.3334699106836L-1168.1481481481483,266.22240432535597L-1150.3703703703704,266.22240432535597L-1132.5925925925926,266.11133874002826L-1114.8148148148148,265.55601081338983L-1097.0370370370372,265.4449452280621L-1079.2592592592594,264.66748613076834L-1061.4814814814815,262.89043676552535L-1043.7037037037037,259.6695347910225L-1025.925925925926,258.781010108401L-1008.1481481481482,257.4482230844688L-990.3703703703704,254.2273211099659L-972.5925925925926,248.4519106729263L-954.8148148148149,244.56461518645733L-937.0370370370371,238.67813916408997L-919.2592592592594,234.9019092629487L-901.4814814814815,227.12731829001072L-883.7037037037038,219.46379290240046L-865.925925925926,201.91543042062617L-848.1481481481482,194.47403620367126L-830.3703703703704,178.8137886724676L-812.5925925925926,171.81665679682345L-794.8148148148149,163.37567231191935L-777.0370370370371,153.82403197373839L-759.2592592592594,142.38427668498684L-741.4814814814815,118.94943818084526L-723.7037037037038,109.84206018397502L-705.925925925926,98.73550165120649L-688.1481481481483,58.307628591929024L-670.3703703703704,37.538364135651896L-652.5925925925927,27.542461456160204L-634.8148148148149,14.436722387493333L-617.0370370370372,30.98549460131842L-599.2592592592594,22.32237894575899L-581.4814814814815,7.439590511849185L-563.7037037037038,28.542051724109378L-545.9259259259259,32.65147838123372L-528.1481481481482,35.317052429098204L-510.37037037037044,52.86541491087246L-492.59259259259267,62.19492407839805L-474.81481481481484,64.30517019962409L-457.03703703703707,85.29656582655659L-439.2592592592593,98.29123930989577L-421.48148148148147,104.06664974693543L-403.7037037037037,109.95312576930272L-385.9259259259259,113.50722449978868L-368.14814814814815,118.6162414248622L-350.3703703703704,129.05640644566458L-332.5925925925926,144.05026046490212L-314.81481481481484,152.93550729111695L-297.03703703703707,172.4830503087896L-279.2592592592593,183.3674776709027L-261.48148148148147,187.03264198671633L-243.70370370370372,190.58674071720225L-225.92592592592595,173.5937061620664L-208.14814814814815,175.48182111263708L-190.37037037037038,175.81501786862015L-172.5925925925926,176.0371490392755L-154.81481481481484,176.48141138058622L-137.03703703703704,179.7023133550891L-119.25925925925927,183.92280559754113L-101.48148148148148,210.68961166151328L-83.70370370370371,212.46666102675624L-65.92592592592594,218.0199402931405L-48.14814814814815,219.5748584877281L-30.37037037037037,222.6846948769033L-12.592592592592593,225.23920333944008L5.185185185185186,228.12690855795987L22.962962962962965,232.5695319710673L40.74074074074075,235.23510601893173L58.51851851851852,238.5670735787623L76.29629629629629,240.8994508706437L94.07407407407409,241.34371321195442L111.85185185185186,240.8994508706437L129.62962962962965,241.5658443826098L147.40740740740742,242.89863140654202L165.1851851851852,244.23141843047426L182.962962962963,242.45436906523128L200.74074074074076,242.67650023588666L218.51851851851853,245.89740221038954L236.2962962962963,247.34125481964944L254.07407407407408,247.6744515756325L271.85185185185185,249.1183041848924" stroke="#4c78a8" stroke-width="2" opacity="1"></path></g></g><path class="foreground" aria-hidden="true" d="" display="none"></path></g><g transform="translate(0,0)"><path class="background" aria-hidden="true" d="M0,0h266.6666666666667v266.6666666666667h-266.6666666666667Z"></path><g><g class="mark-line role-mark marks" clip-path="url(#clip2)" role="graphics-object" aria-roledescription="line mark container"><path aria-label="Country: Brazil; Date: Mar 01, 2020; Confirmed: 0; Recovered: 0; Deaths: 0; : 0" role="graphics-symbol" aria-roledescription="line mark" d="M-1291.851851851852,266.6666666666667L-1274.0740740740741,266.6666666666667L-1257.037037037037,266.6666666666667L-1239.2592592592594,266.6666666666667L-1221.4814814814815,266.6666666666667L-1203.703703703704,266.6666666666667L-1185.9259259259259,266.6666666666667L-1168.1481481481483,266.6666666666667L-1150.3703703703704,266.6666666666667L-1132.5925925925926,266.6666666666667L-1114.8148148148148,266.6606044844291L-1097.0370370370372,266.6484801199538L-1079.2592592592594,266.6302935732409L-1061.4814814814815,266.59998266205275L-1043.7037037037037,266.5757339331022L-1025.925925925926,266.51511211072585L-1008.1481481481482,266.4605524705872L-990.3703703703704,266.39386846597324L-972.5925925925926,266.3271844613593L-954.8148148148149,266.2362517277948L-937.0370370370371,266.1756299054185L-919.2592592592594,266.084697171854L-901.4814814814815,265.9937644382895L-883.7037037037038,265.9088938869627L-865.925925925926,265.7270284198337L-848.1481481481482,265.56941168165525L-830.3703703703704,265.16930765397154L-812.5925925925926,265.0480640092189L-794.8148148148149,264.6418977992975L-777.0370370370371,264.5449028834954L-759.2592592592594,264.21148286042563L-741.4814814814815,263.7265082814151L-723.7037037037038,263.1566631510776L-705.925925925926,262.8717405859089L-688.1481481481483,262.4352634647994L-670.3703703703704,262.5504449273144L-652.5925925925927,262.19883835753177L-634.8148148148149,262.0351594371157L-617.0370370370372,261.5380604936298L-599.2592592592594,261.10764555475794L-581.4814814814815,260.7621011672129L-563.7037037037038,260.09526112107335L-545.9259259259259,259.210182514379L-528.1481481481482,259.15562287424035L-510.37037037037044,259.03437922948774L-492.59259259259267,259.33748834136935L-474.81481481481484,259.573913448637L-457.03703703703707,258.13717625831816L-439.2592592592593,257.1914758292475L-421.48148148148147,256.342770315979L-403.7037037037037,255.6092462652255L-385.9259259259259,254.44530727560013L-368.14814814814815,252.469035866132L-350.3703703703704,250.86255757315948L-332.5925925925926,250.45032918100048L-314.81481481481484,250.25027716715863L-297.03703703703707,250.27452589610917L-279.2592592592593,249.9047327796136L-261.48148148148147,249.91079496185122L-243.70370370370372,249.35913637822668L-225.92592592592595,248.02545628594757L-208.14814814814815,247.3646784220457L-190.37037037037038,244.81249970000252L-172.5925925925926,243.05446685108916L-154.81481481481484,241.98146059502827L-137.03703703703704,240.68415359617495L-119.25925925925927,239.24741640585611L-101.48148148148148,238.46539489720158L-83.70370370370371,237.5136322858933L-65.92592592592594,236.68917550157533L-48.14814814814815,236.31938238507976L-30.37037037037037,236.38606638969372L-12.592592592592593,235.14331903097914L5.185185185185186,233.19129635046156L22.962962962962965,232.6032646734112L40.74074074074075,230.00258849346702L58.51851851851852,229.772225568437L76.29629629629629,228.1657472754644L94.07407407407409,226.97149737465085L111.85185185185186,226.53502025354135L129.62962962962965,227.0866788371659L147.40740740740742,225.81362056726311L165.1851851851852,226.00761039886737L182.962962962963,225.26196198363857L200.74074074074076,225.31652162377728L218.51851851851853,226.36527915088766L236.2962962962963,227.480720682612L254.07407407407408,226.12885404362L271.85185185185185,224.5345001151227" stroke="#f58518" stroke-width="2" opacity="1"></path></g></g><path class="foreground" aria-hidden="true" d="" display="none"></path></g><g transform="translate(0,0)"><path class="background" aria-hidden="true" d="M0,0h266.6666666666667v266.6666666666667h-266.6666666666667Z"></path><g><g class="mark-line role-mark marks" clip-path="url(#clip3)" role="graphics-object" aria-roledescription="line mark container"><path aria-label="Country: France; Date: Mar 01, 2020; Confirmed: 0; Recovered: 0; Deaths: 0; : 0" role="graphics-symbol" aria-roledescription="line mark" d="M-1291.851851851852,266.4960326703585L-1274.0740740740741,266.34435800697344L-1257.037037037037,266.3633173398965L-1239.2592592592594,266.11684601189586L-1221.4814814814815,265.83245601804884L-1203.703703703704,265.87037468389514L-1185.9259259259259,265.3395133620474L-1168.1481481481483,265.14992003281606L-1150.3703703703704,265.30159469620116L-1132.5925925925926,264.2209127195826L-1114.8148148148148,264.4863433805064L-1097.0370370370372,264.7707333743534L-1079.2592592592594,262.96959674665584L-1061.4814814814815,259.63275415218453L-1043.7037037037037,257.7368208598713L-1025.925925925926,255.61337557248044L-1008.1481481481482,253.16762162539635L-990.3703703703704,248.61738172384455L-972.5925925925926,244.2377758186009L-954.8148148148149,239.11875592935513L-937.0370370370371,237.37449730042692L-919.2592592592594,233.4499153853385L-901.4814814814815,230.03723545917464L-883.7037037037038,225.63867022100789L-865.925925925926,220.7282029939166L-848.1481481481482,208.42359592680359L-830.3703703703704,196.68776884738455L-812.5925925925926,181.12215651749275L-794.8148148148149,167.20600615191347L-777.0370370370371,162.9211969112855L-759.2592592592594,155.0530737481855L-741.4814814814815,137.64840612474987L-723.7037037037038,144.0756199856918L-705.925925925926,137.30713813213347L-688.1481481481483,139.82872941091009L-670.3703703703704,147.75373057277952L-652.5925925925927,146.9384792570848L-634.8148148148149,151.8489464841761L-617.0370370370372,164.5896182085212L-599.2592592592594,147.62101524231755L-581.4814814814815,158.7691030011195L-563.7037037037038,163.07287157467056L-545.9259259259259,162.94015624420862L-528.1481481481482,166.16324284114117L-510.37037037037044,166.69410416298885L-492.59259259259267,170.86515740607803L-474.81481481481484,187.77688237351225L-457.03703703703707,192.27024427629465L-439.2592592592593,199.30415679077683L-421.48148148148147,204.480054678792L-403.7037037037037,207.30499528433876L-385.9259259259259,209.3715625729602L-368.14814814814815,212.3671371748151L-350.3703703703704,214.58537912682164L-332.5925925925926,218.8891477003727L-314.81481481481484,222.13119363022835L-297.03703703703707,225.97993821362425L-279.2592592592593,228.00858683639945L-261.48148148148147,230.53017811517608L-243.70370370370372,231.231673433332L-225.92592592592595,234.13245137057123L-208.14814814814815,236.2558966579621L-190.37037037037038,235.78191333488377L-172.5925925925926,237.4313752991963L-154.81481481481484,238.66373193919992L-137.03703703703704,239.44106458904835L-119.25925925925927,239.1187559293551L-101.48148148148148,242.7779071835197L-83.70370370370371,239.5169019207409L-65.92592592592594,242.15224919705634L-48.14814814814815,243.68795516383005L-30.37037037037037,234.03765470595562L-12.592592592592593,236.54028665180908L5.185185185185186,247.23335042045582L22.962962962962965,246.72144843153123L40.74074074074075,251.7646309890845L58.51851851851852,252.33341097677848L76.29629629629629,251.48024099523752L94.07407407407409,261.83203677126784L111.85185185185186,262.6093694211163L129.62962962962965,257.11116287340786L147.40740740740742,257.9074548561794L165.1851851851852,258.2487228487958L182.962962962963,258.6658281731047L200.74074074074076,258.40039751218086L218.51851851851853,258.43831617802715L236.2962962962963,259.6137948192614L254.07407407407408,258.96917749987483L271.85185185185185,258.6847875060279" stroke="#e45756" stroke-width="2" opacity="1"></path></g></g><path class="foreground" aria-hidden="true" d="" display="none"></path></g><g transform="translate(0,0)"><path class="background" aria-hidden="true" d="M0,0h266.6666666666667v266.6666666666667h-266.6666666666667Z"></path><g><g class="mark-line role-mark marks" clip-path="url(#clip4)" role="graphics-object" aria-roledescription="line mark container"><path aria-label="Country: Germany; Date: Mar 01, 2020; Confirmed: 0; Recovered: 0; Deaths: 0; : 0" role="graphics-symbol" aria-roledescription="line mark" d="M-1291.851851851852,266.6666666666667L-1274.0740740740741,266.6666666666667L-1257.037037037037,266.6360333081914L-1239.2592592592594,266.6360333081914L-1221.4814814814815,266.6207166289537L-1203.703703703704,266.6207166289537L-1185.9259259259259,266.55944991200306L-1168.1481481481483,266.52881655352775L-1150.3703703703704,266.49818319505243L-1132.5925925925926,266.4369164781018L-1114.8148148148148,266.3296997234382L-1097.0370370370372,266.2837496857252L-1079.2592592592594,266.0386828179227L-1061.4814814814815,265.7476659124072L-1043.7037037037037,265.5179157238423L-1025.925925925926,265.395382289941L-1008.1481481481482,265.04309866747485L-990.3703703703704,264.62954832805804L-972.5925925925926,263.9402977623634L-954.8148148148149,263.25104719666876L-937.0370370370371,262.4545798763105L-919.2592592592594,261.32114561272374L-901.4814814814815,259.94264448133447L-883.7037037037038,258.67136010460877L-865.925925925926,257.2009588977935L-848.1481481481482,255.7305576909783L-830.3703703703704,253.80065610703326L-812.5925925925926,252.376204937931L-794.8148148148149,251.1815039573936L-777.0370370370371,250.56883678788725L-759.2592592592594,248.82273535479416L-741.4814814814815,247.65866773273208L-723.7037037037038,244.77913203605223L-705.925925925926,243.6916478101784L-688.1481481481483,243.8141812440797L-670.3703703703704,246.87751709161145L-652.5925925925927,244.64128192291327L-634.8148148148149,245.46838260174684L-617.0370370370372,247.09195060093867L-599.2592592592594,244.38089837587307L-581.4814814814815,244.53406516824964L-563.7037037037038,242.38973007497742L-545.9259259259259,240.2760283401805L-528.1481481481482,242.71138033896827L-510.37037037037044,241.11844569825172L-492.59259259259267,240.03096147237795L-474.81481481481484,244.07456479111988L-457.03703703703707,243.33936418771225L-439.2592592592593,245.10078230004302L-421.48148148148147,244.94761550766646L-403.7037037037037,245.3764825263209L-385.9259259259259,247.3063841102659L-368.14814814814815,247.0460005632257L-350.3703703703704,248.47045173232797L-332.5925925925926,250.61478682560022L-314.81481481481484,251.71758773071164L-297.03703703703707,252.34557157945565L-279.2592592592593,253.0348221451503L-261.48148148148147,253.38710576761645L-243.70370370370372,256.2666414642963L-225.92592592592595,254.29078984263833L-208.14814814814815,254.88814033290703L-190.37037037037038,254.81155693671872L-172.5925925925926,255.3782740685121L-154.81481481481484,255.8990411625925L-137.03703703703704,256.43512493591055L-119.25925925925927,255.25574063461082L-101.48148148148148,257.69109263339857L-83.70370370370371,259.1308604817385L-65.92592592592594,260.73911180169273L-48.14814814814815,260.70847844321736L-30.37037037037037,260.64721172626673L-12.592592592592593,261.42836236738736L5.185185185185186,261.4130456881497L22.962962962962965,262.3320464424092L40.74074074074075,261.7806459898535L58.51851851851852,261.59684583900156L76.29629629629629,261.71937927290287L94.07407407407409,261.7500126313782L111.85185185185186,261.97976281994306L129.62962962962965,262.20951300850794L147.40740740740742,262.31672976317157L165.1851851851852,262.57711331021176L182.962962962963,262.4392631970728L200.74074074074076,262.54647995173644L218.51851851851853,262.7302801025883L236.2962962962963,262.8987635742026L254.07407407407408,263.74118093227383L271.85185185185185,264.001564479314" stroke="#72b7b2" stroke-width="2" opacity="1"></path></g></g><path class="foreground" aria-hidden="true" d="" display="none"></path></g><g transform="translate(0,0)"><path class="background" aria-hidden="true" d="M0,0h266.6666666666667v266.6666666666667h-266.6666666666667Z"></path><g><g class="mark-line role-mark marks" clip-path="url(#clip5)" role="graphics-object" aria-roledescription="line mark container"><path aria-label="Country: Iran; Date: Mar 01, 2020; Confirmed: 0; Recovered: 0; Deaths: 0; : 0" role="graphics-symbol" aria-roledescription="line mark" d="M-1291.851851851852,265.08325121941664L-1274.0740740740741,264.4933513469117L-1257.037037037037,264.01211724039456L-1239.2592592592594,263.34459896361267L-1221.4814814814815,262.5994622825538L-1203.703703703704,261.6680414312303L-1185.9259259259259,260.6124311330636L-1168.1481481481483,259.4326313880537L-1150.3703703703704,258.43911581330855L-1132.5925925925926,257.1040792597448L-1114.8148148148148,255.846661110458L-1097.0370370370372,254.542671918605L-1079.2592592592594,253.39391953530597L-1061.4814814814815,252.40040396056085L-1043.7037037037037,251.9967882583206L-1025.925925925926,251.74840936463434L-1008.1481481481482,251.77945672634513L-990.3703703703704,251.98126457746523L-972.5925925925926,252.0433593008868L-954.8148148148149,251.91916985404364L-937.0370370370371,251.9967882583206L-919.2592592592594,251.74840936463434L-901.4814814814815,251.84155144976668L-883.7037037037038,251.9967882583206L-865.925925925926,251.70183832206817L-848.1481481481482,251.77945672634513L-830.3703703703704,252.2917381945731L-812.5925925925926,252.446975003127L-794.8148148148149,252.15202506687456L-777.0370370370371,251.71736200292355L-759.2592592592594,251.42241206667111L-741.4814814814815,251.54660151351422L-723.7037037037038,251.8105040880559L-705.925925925926,251.91916985404364L-688.1481481481483,252.10545402430836L-670.3703703703704,252.61773549253633L-652.5925925925927,253.14554064161968L-634.8148148148149,253.5336326630045L-617.0370370370372,254.07696149294324L-599.2592592592594,254.49610087603884L-581.4814814814815,254.88419289742365L-563.7037037037038,255.3964743656516L-545.9259259259259,256.203705770132L-528.1481481481482,256.6694161957938L-510.37037037037044,256.97988981290166L-492.59259259259267,257.1351266214556L-474.81481481481484,257.1351266214556L-457.03703703703707,257.16617398316635L-439.2592592592593,257.1040792597448L-421.48148148148147,257.0575082171786L-403.7037037037037,257.47664760027425L-385.9259259259259,257.3990291959973L-368.14814814814815,257.66293177053893L-350.3703703703704,257.88026330251444L-332.5925925925926,258.1752132387669L-314.81481481481484,258.64092366442867L-297.03703703703707,258.811684153838L-279.2592592592593,259.0134920049581L-261.48148148148147,259.3550129837767L-243.70370370370372,259.47920243061986L-225.92592592592595,259.5102497923307L-208.14814814814815,259.5568208348969L-190.37037037037038,259.68101028174L-172.5925925925926,259.9449128562817L-154.81481481481484,259.8828181328601L-137.03703703703704,260.33300487766644L-119.25925925925927,260.5658600904974L-101.48148148148148,261.0005231544484L-83.70370370370371,260.9539521118822L-65.92592592592594,261.06261787786997L-48.14814814814815,261.26442572899003L-30.37037037037037,261.26442572899003L-12.592592592592593,260.8918573884606L5.185185185185186,260.6745258564851L22.962962962962965,260.4571943245096L40.74074074074075,260.53481272878656L58.51851851851852,260.4882416862204L76.29629629629629,260.115673345691L94.07407407407409,260.0070075797032L111.85185185185186,260.550336409642L129.62962962962965,260.62795481391896L147.40740740740742,260.75214426076207L165.1851851851852,260.79871530332827L182.962962962963,260.81423898418365L200.74074074074076,260.8452863458944L218.51851851851853,260.76766794161745L236.2962962962963,260.03805494141403L254.07407407407408,259.92938917542625L271.85185185185185,259.71205764345075" stroke="#54a24b" stroke-width="2" opacity="1"></path></g></g><path class="foreground" aria-hidden="true" d="" display="none"></path></g><g transform="translate(0,0)"><path class="background" aria-hidden="true" d="M0,0h266.6666666666667v266.6666666666667h-266.6666666666667Z"></path><g><g class="mark-line role-mark marks" clip-path="url(#clip6)" role="graphics-object" aria-roledescription="line mark container"><path aria-label="Country: Italy; Date: Mar 01, 2020; Confirmed: 0; Recovered: 0; Deaths: 0; : 0" role="graphics-symbol" aria-roledescription="line mark" d="M-1291.851851851852,262.37934337374014L-1274.0740740740741,259.6892581703352L-1257.037037037037,258.0289712088587L-1239.2592592592594,255.06567422698302L-1221.4814814814815,251.53493739751408L-1203.703703703704,248.42452638107716L-1185.9259259259259,244.2002519601054L-1168.1481481481483,241.27898755953285L-1150.3703703703704,236.34015925640668L-1132.5925925925926,231.04405401220325L-1114.8148148148148,227.3241705668699L-1097.0370370370372,221.46062547507324L-1079.2592592592594,216.45874829999227L-1061.4814814814815,208.53560672433875L-1043.7037037037037,195.54753910164942L-1025.925925925926,189.59992884724636L-1008.1481481481482,184.30382360304296L-990.3703703703704,175.93933992370583L-972.5925925925926,171.56795146817282L-954.8148148148149,165.5783086324666L-937.0370370370371,159.44155176219914L-919.2592592592594,157.42398785964548L-901.4814814814815,155.21727734122737L-883.7037037037038,150.7828400137396L-865.925925925926,148.80730869248913L-848.1481481481482,147.88259190381865L-830.3703703703704,146.87380995254182L-812.5925925925926,150.08930242223678L-794.8148148148149,154.46069087776976L-777.0370370370371,159.31545401828956L-759.2592592592594,163.01432117297128L-741.4814814814815,167.9111168947943L-723.7037037037038,171.79913066534047L-705.925925925926,174.95157426308054L-688.1481481481483,179.07076723079433L-670.3703703703704,180.37377725119356L-652.5925925925927,182.34930857244407L-634.8148148148149,183.82044891805614L-617.0370370370372,183.86248149935932L-599.2592592592594,183.1058950359017L-581.4814814814815,184.89227974128778L-563.7037037037038,184.78719828802977L-545.9259259259259,187.66643010729908L-528.1481481481482,187.62439752599587L-510.37037037037044,189.97822207897516L-492.59259259259267,191.40732984328403L-474.81481481481484,194.37062682515977L-457.03703703703707,195.6526205549074L-439.2592592592593,198.91014560590554L-421.48148148148147,200.3182370795628L-403.7037037037037,203.95405536228972L-385.9259259259259,206.49702653113346L-368.14814814814815,209.6915027101768L-350.3703703703704,212.08735984445926L-332.5925925925926,215.84927587109584L-314.81481481481484,219.02273575948755L-297.03703703703707,217.78277461104312L-279.2592592592593,219.59017560708077L-261.48148148148147,222.4904237170017L-243.70370370370372,225.5588021521354L-225.92592592592595,224.59205278216177L-208.14814814814815,224.82323197932936L-190.37037037037038,225.369655536271L-172.5925925925926,231.25421691871924L-154.81481481481484,231.44336353458365L-137.03703703703704,231.77962418500928L-119.25925925925927,233.1246667867117L-101.48148148148148,236.78150136009026L-83.70370370370371,237.03369684790948L-65.92592592592594,237.05471313856108L-48.14814814814815,237.9163810552767L-30.37037037037037,238.33670686830874L-12.592592592592593,240.01801012043677L5.185185185185186,240.2281730269528L22.962962962962965,240.94272690910722L40.74074074074075,243.1704537181769L58.51851851851852,245.5242782711562L76.29629629629629,246.23883215331065L94.07407407407409,248.2353797652127L111.85185185185186,248.38249379977393L129.62962962962965,250.1478622145084L147.40740740740742,251.07257900317882L165.1851851851852,252.87997999921652L182.962962962963,253.78368049723534L200.74074074074076,253.95181082244815L218.51851851851853,253.4264035561581L236.2962962962963,254.09892485700937L254.07407407407408,254.58229954199618L271.85185185185185,255.54904891196983" stroke="#eeca3b" stroke-width="2" opacity="1"></path></g></g><path class="foreground" aria-hidden="true" d="" display="none"></path></g><g transform="translate(0,0)"><path class="background" aria-hidden="true" d="M0,0h266.6666666666667v266.6666666666667h-266.6666666666667Z"></path><g><g class="mark-line role-mark marks" clip-path="url(#clip7)" role="graphics-object" aria-roledescription="line mark container"><path aria-label="Country: Mexico; Date: Mar 01, 2020; Confirmed: 0; Recovered: 0; Deaths: 0; : 0" role="graphics-symbol" aria-roledescription="line mark" d="M-1291.851851851852,266.6666666666667L-1274.0740740740741,266.6666666666667L-1257.037037037037,266.6666666666667L-1239.2592592592594,266.6666666666667L-1221.4814814814815,266.6666666666667L-1203.703703703704,266.6666666666667L-1185.9259259259259,266.6666666666667L-1168.1481481481483,266.6666666666667L-1150.3703703703704,266.6666666666667L-1132.5925925925926,266.6666666666667L-1114.8148148148148,266.6666666666667L-1097.0370370370372,266.6666666666667L-1079.2592592592594,266.6566037984497L-1061.4814814814815,266.64654093023273L-1043.7037037037037,266.64654093023273L-1025.925925925926,266.6364780620157L-1008.1481481481482,266.6264151937987L-990.3703703703704,266.6163523255818L-972.5925925925926,266.60628945736477L-954.8148148148149,266.5962265891478L-937.0370370370371,266.56603798449686L-919.2592592592594,266.5257865116289L-901.4814814814815,266.495597906978L-883.7037037037038,266.42515782945907L-865.925925925926,266.42515782945907L-848.1481481481482,266.3547177519402L-830.3703703703704,266.2440262015534L-812.5925925925926,266.1836489922515L-794.8148148148149,266.03270596899677L-777.0370370370371,265.92201441860993L-759.2592592592594,265.6905684496193L-741.4814814814815,265.5396254263646L-723.7037037037038,265.28805372093996L-705.925925925926,265.2176136434211L-688.1481481481483,264.92579046512856L-670.3703703703704,264.71447023257195L-652.5925925925927,264.6339672868361L-634.8148148148149,264.58365294575117L-617.0370370370372,264.0000065891661L-599.2592592592594,263.8993779069963L-581.4814814814815,263.7283091473076L-563.7037037037038,263.5169889147509L-545.9259259259259,262.872965348864L-528.1481481481482,262.7421480620432L-510.37037037037044,262.84277674421304L-492.59259259259267,262.12831310080725L-474.81481481481484,261.4239123256184L-457.03703703703707,260.8000144961655L-439.2592592592593,259.87423062020304L-421.48148148148147,260.07548798454263L-403.7037037037037,259.9748593023728L-385.9259259259259,259.40127581400475L-368.14814814814815,259.50190449617463L-350.3703703703704,258.99876108532544L-332.5925925925926,258.7170007752499L-314.81481481481484,259.1094526357123L-297.03703703703707,259.05913829462736L-279.2592592592593,258.5861834884291L-261.48148148148147,258.2440459690517L-243.70370370370372,257.2276962791364L-225.92592592592595,256.88555875975896L-208.14814814814815,255.57738589155116L-190.37037037037038,254.71197922489057L-172.5925925925926,253.66544093032434L-154.81481481481484,253.47424643420166L-137.03703703703704,253.5648122481545L-119.25925925925927,252.38745666676746L-101.48148148148148,251.4113584497201L-83.70370370370371,251.4113584497201L-65.92592592592594,250.49563744197462L-48.14814814814815,249.64029364353104L-30.37037037037037,249.43903627919138L-12.592592592592593,248.96608147299318L5.185185185185186,249.15727596911583L22.962962962962965,247.84910310090802L40.74074074074075,246.20885558153975L58.51851851851852,244.30697348852993L76.29629629629629,245.19250589162445L94.07407407407409,244.35728782961485L111.85185185185186,243.51200689938827L129.62962962962965,241.83150790715206L147.40740740740742,241.4390560466897L165.1851851851852,241.16735860483115L182.962962962963,242.25414837226535L200.74074074074076,240.50320930251027L218.51851851851853,241.1472328683972L236.2962962962963,241.16735860483115L254.07407407407408,241.47930751955764L271.85185185185185,235.14976341107518" stroke="#b279a2" stroke-width="2" opacity="1"></path></g></g><path class="foreground" aria-hidden="true" d="" display="none"></path></g><g transform="translate(0,0)"><path class="background" aria-hidden="true" d="M0,0h266.6666666666667v266.6666666666667h-266.6666666666667Z"></path><g><g class="mark-line role-mark marks" clip-path="url(#clip8)" role="graphics-object" aria-roledescription="line mark container"><path aria-label="Country: Spain; Date: Mar 01, 2020; Confirmed: 0; Recovered: 0; Deaths: 0; : 0" role="graphics-symbol" aria-roledescription="line mark" d="M-1291.851851851852,266.39531300038254L-1274.0740740740741,266.2053654339836L-1257.037037037037,265.9068764010711L-1239.2592592592594,265.7440642013006L-1221.4814814814815,265.25562760198915L-1203.703703703704,265.25562760198915L-1185.9259259259259,263.1933397382296L-1168.1481481481483,261.64662384041L-1150.3703703703704,259.2858469437379L-1132.5925925925926,258.1461615453445L-1114.8148148148148,253.15325408571618L-1097.0370370370372,251.22664305509878L-1079.2592592592594,245.63675752964534L-1061.4814814814815,241.9734830348094L-1043.7037037037037,234.6469340451374L-1025.925925925926,226.4249179567278L-1008.1481481481482,213.2371297753183L-990.3703703703704,204.93370758702343L-972.5925925925926,184.60931798234088L-954.8148148148149,170.74314563522097L-937.0370370370371,155.54734032330882L-919.2592592592594,141.65403260956052L-901.4814814814815,130.14863715911275L-883.7037037037038,120.00001004008568L-865.925925925926,113.18903301635363L-848.1481481481482,110.90966221956678L-830.3703703703704,104.31576812886202L-812.5925925925926,102.22634489847407L-794.8148148148149,104.80420472817347L-777.0370370370371,108.25039628998213L-759.2592592592594,114.03022938183447L-741.4814814814815,115.2241855134847L-723.7037037037038,120.00001004008566L-705.925925925926,128.3034322283805L-688.1481481481483,134.16467142011808L-670.3703703703704,140.24299354488298L-652.5925925925927,142.71231190806873L-634.8148148148149,146.86402300221616L-617.0370370370372,157.82671112009564L-599.2592592592594,160.40457094979504L-581.4814814814815,161.70706854795895L-563.7037037037038,160.26889411665297L-545.9259259259259,173.40241156480565L-528.1481481481482,178.63953732408967L-510.37037037037044,182.65557158509503L-492.59259259259267,179.12797392340116L-474.81481481481484,185.01634848176712L-457.03703703703707,189.54795470871235L-439.2592592592593,198.23127202980504L-421.48148148148147,189.08665347602934L-403.7037037037037,192.39716820469587L-385.9259259259259,194.24237313542807L-368.14814814814815,197.74283543049359L-350.3703703703704,197.25439883118213L-332.5925925925926,201.9216818912694L-314.81481481481484,211.88036144389758L-297.03703703703707,207.02313081741136L-279.2592592592593,210.3879162793348L-261.48148148148147,214.91952250628003L-243.70370370370372,218.0672250351761L-225.92592592592595,223.7385166605148L-208.14814814814815,225.23096182507757L-190.37037037037038,219.01696286717066L-172.5925925925926,229.27413145271137L-154.81481481481484,229.84397415190807L-137.03703703703704,230.95652418367308L-119.25925925925927,231.2007424833288L-101.48148148148148,232.8288644810337L-83.70370370370371,232.72032301452L-65.92592592592594,235.18964137770575L-48.14814814814815,237.22479387483685L-30.37037037037037,241.10515130270014L-12.592592592592593,240.4810378702466L5.185185185185186,243.384522099487L22.962962962962965,245.39253922998964L40.74074074074075,249.86987472367807L58.51851851851852,234.94542307805003L76.29629629629629,236.41073287598442L94.07407407407409,234.40271574548174L111.85185185185186,266.6666666666667L129.62962962962965,266.6666666666667L147.40740740740742,266.6666666666667L165.1851851851852,266.6666666666667L182.962962962963,266.6666666666667L200.74074074074076,266.6666666666667L218.51851851851853,266.6666666666667L236.2962962962963,258.71600424454124L254.07407407407408,266.39531300038254L271.85185185185185,266.36817763375416" stroke="#ff9da6" stroke-width="2" opacity="1"></path></g></g><path class="foreground" aria-hidden="true" d="" display="none"></path></g><g transform="translate(0,0)"><path class="background" aria-hidden="true" d="M0,0h266.6666666666667v266.6666666666667h-266.6666666666667Z"></path><g><g class="mark-line role-mark marks" clip-path="url(#clip9)" role="graphics-object" aria-roledescription="line mark container"><path aria-label="Country: US; Date: Mar 01, 2020; Confirmed: 0; Recovered: 0; Deaths: 0; : 0" role="graphics-symbol" aria-roledescription="line mark" d="M-1291.851851851852,266.6044743261111L-1274.0740740740741,266.5889262409721L-1257.037037037037,266.6044743261111L-1239.2592592592594,266.5850392196874L-1221.4814814814815,266.5694911345485L-1203.703703703704,266.5500560281249L-1185.9259259259259,266.5267339004165L-1168.1481481481483,266.4995247514234L-1150.3703703703704,266.4606545385762L-1132.5925925925926,266.36347900645796L-1114.8148148148148,266.25464241048564L-1097.0370370370372,266.16524092093687L-1079.2592592592594,265.82318304788095L-1061.4814814814815,265.50056028124857L-1043.7037037037037,265.181824535901L-1025.925925925926,264.67262474760173L-1008.1481481481482,264.000170065344L-990.3703703703704,263.2577489999611L-972.5925925925926,262.177157082807L-954.8148148148149,260.9644064419722L-937.0370370370371,259.2074728212756L-919.2592592592594,257.71874366922515L-901.4814814814815,255.6547353670351L-883.7037037037038,253.41192408574764L-865.925925925926,249.7348019503959L-848.1481481481482,246.48913917764887L-830.3703703703704,242.5204904459426L-812.5925925925926,239.4925008651403L-794.8148148148149,235.08073170697517L-777.0370370370371,231.8583910619365L-759.2592592592594,228.97033424738433L-741.4814814814815,224.59354828078173L-723.7037037037038,220.95918337956198L-705.925925925926,218.66195380028836L-688.1481481481483,215.7583489005973L-670.3703703703704,214.20742740799125L-652.5925925925927,213.37171783177493L-634.8148148148149,212.34165719132227L-617.0370370370372,211.9723901692732L-599.2592592592594,210.34372825097262L-581.4814814814815,210.0871848461806L-563.7037037037038,208.08536888454623L-545.9259259259259,206.7715556903085L-528.1481481481482,208.90941739690834L-510.37037037037044,209.0765593121516L-492.59259259259267,209.0454631418738L-474.81481481481484,209.71403080284682L-457.03703703703707,208.8277899499291L-439.2592592592593,211.9957122969816L-421.48148148148147,212.32610910618337L-403.7037037037037,212.49713804271138L-385.9259259259259,214.06360762045634L-368.14814814814815,215.08978123962424L-350.3703703703704,213.97809315219234L-332.5925925925926,215.07812017577007L-314.81481481481484,214.38623038708866L-297.03703703703707,217.63578018112042L-279.2592592592593,216.90890720087648L-261.48148148148147,217.28983528677975L-243.70370370370372,217.26651315907137L-225.92592592592595,218.12554486299604L-208.14814814814815,217.43365507431463L-190.37037037037038,219.1011872054625L-172.5925925925926,218.36654018264912L-154.81481481481484,220.62878657036023L-137.03703703703704,220.9552963582773L-119.25925925925927,222.77442231952952L-101.48148148148148,225.21547168633808L-83.70370370370371,226.8791167962012L-65.92592592592594,226.43599636974236L-48.14814814814815,227.9558216920706L-30.37037037037037,227.65652105314663L-12.592592592592593,229.0986059497803L5.185185185185186,229.48730807825302L22.962962962962965,230.4396282930111L40.74074074074075,232.44533127593024L58.51851851851852,233.82911085329306L76.29629629629629,234.2800053223214L94.07407407407409,234.96023404714862L111.85185185185186,236.06803511329582L129.62962962962965,239.4925008651403L147.40740740740742,239.54303214184176L165.1851851851852,239.79180150406427L182.962962962963,240.11442427069662L200.74074074074076,240.66249427184314L218.51851851851853,240.7713308678155L236.2962962962963,239.72960916350866L254.07407407407408,238.41579596927093L271.85185185185185,240.39817682448168" stroke="#9d755d" stroke-width="2" opacity="1"></path></g></g><path class="foreground" aria-hidden="true" d="" display="none"></path></g><g transform="translate(0,0)"><path class="background" aria-hidden="true" d="M0,0h266.6666666666667v266.6666666666667h-266.6666666666667Z"></path><g><g class="mark-line role-mark marks" clip-path="url(#clip10)" role="graphics-object" aria-roledescription="line mark container"><path aria-label="Country: United Kingdom; Date: Mar 01, 2020; Confirmed: 0; Recovered: 0; Deaths: 0; : 0" role="graphics-symbol" aria-roledescription="line mark" d="M-1291.851851851852,266.6284531638945L-1274.0740740740741,266.6284531638945L-1257.037037037037,266.60934641250844L-1239.2592592592594,266.53291940696414L-1221.4814814814815,266.53291940696414L-1203.703703703704,266.49470590419196L-1185.9259259259259,266.49470590419196L-1168.1481481481483,266.1698911306286L-1150.3703703703704,265.8832898598375L-1132.5925925925926,265.48204808072984L-1114.8148148148148,265.2527670640969L-1097.0370370370372,264.6031375169702L-1079.2592592592594,263.81976071014094L-1061.4814814814815,263.1510244116282L-1043.7037037037037,262.4249678589572L-1025.925925925926,262.0428328312356L-1008.1481481481482,261.04928175915956L-990.3703703703704,258.5080838248111L-972.5925925925926,255.6038576141271L-954.8148148148149,252.92891242007607L-937.0370370370371,248.19043807632855L-919.2592592592594,243.6430312464418L-901.4814814814815,240.2229227483337L-883.7037037037038,234.4908973325101L-865.925925925926,230.03902425955374L-848.1481481481482,220.79135658869163L-830.3703703703704,211.8302901886207L-812.5925925925926,203.61438709260685L-794.8148148148149,194.71064094669416L-777.0370370370371,186.4947378506803L-759.2592592592594,182.78802808178102L-741.4814814814815,170.25399917251337L-723.7037037037038,163.2991416679807L-705.925925925926,154.68199679285917L-688.1481481481483,146.31323968575666L-670.3703703703704,144.80380632625645L-652.5925925925927,144.00132276804115L-634.8148148148149,140.63853452409128L-617.0370370370372,140.5238940157748L-599.2592592592594,144.1923902819019L-581.4814814814815,145.60628988447175L-563.7037037037038,149.75245493525082L-545.9259259259259,144.4789915526931L-528.1481481481482,148.0710608132759L-510.37037037037044,151.60580981970048L-492.59259259259267,149.16014564228237L-474.81481481481484,149.25567939921277L-457.03703703703707,155.02591831780853L-439.2592592592593,153.68844572078305L-421.48148148148147,158.88548209779646L-403.7037037037037,160.3758087059106L-385.9259259259259,164.59840076223404L-368.14814814814815,169.62347637677271L-350.3703703703704,170.42595993498801L-332.5925925925926,171.4386177584502L-314.81481481481484,176.52101362714714L-297.03703703703707,180.7627124348566L-279.2592592592593,182.7689213303949L-261.48148148148147,183.72425889969884L-243.70370370370372,187.85131719909185L-225.92592592592595,190.64090290145936L-208.14814814814815,193.22031433857998L-190.37037037037038,195.37937724520688L-172.5925925925926,200.63373387637856L-154.81481481481484,201.53175119152425L-137.03703703703704,203.02207779963834L-119.25925925925927,204.28312339111955L-101.48148148148148,207.24466985596177L-83.70370370370371,209.36551925981652L-65.92592592592594,213.98935309524754L-48.14814814814815,211.65832942614594L-30.37037037037037,213.53079106198166L-12.592592592592593,214.4861286312856L5.185185185185186,216.05288224494404L22.962962962962965,218.55586667652037L40.74074074074075,220.27547430126745L58.51851851851852,220.90599709700803L76.29629629629629,224.45985285481868L94.07407407407409,225.4534039268948L111.85185185185186,226.19856723095185L129.62962962962965,234.05144205063024L147.40740740740742,233.11521123271237L165.1851851851852,232.3700479286553L182.962962962963,232.88593021607943L200.74074074074076,234.1660825589467L218.51851851851853,234.2616163158771L236.2962962962963,225.95017946293282L254.07407407407408,222.31989669957787L271.85185185185185,223.33255452304005" stroke="#bab0ac" stroke-width="2" opacity="1"></path></g></g><path class="foreground" aria-hidden="true" d="" display="none"></path></g></g><g class="mark-group role-legend" role="graphics-symbol" aria-roledescription="legend" aria-label="Symbol legend for stroke color with 10 values: Belgium, Brazil, France, Germany, Iran, ending with United Kingdom"><g transform="translate(285,0)"><path class="background" aria-hidden="true" d="M0,0h79v128h-79Z" pointer-events="none"></path><g><g class="mark-group role-legend-entry"><g transform="translate(0,0)"><path class="background" aria-hidden="true" d="M0,0h0v0h0Z" pointer-events="none"></path><g><g class="mark-group role-scope Country_legend_entries" role="graphics-object" aria-roledescription="group mark container"><g transform="translate(0,0)"><path class="background" aria-hidden="true" d="M0,0h79v11h-79Z" opacity="1"></path><g><g class="mark-symbol role-legend-symbol Country_legend_symbols"><path transform="translate(6,6)" d="M-5,0L5,0" stroke="#4c78a8" stroke-width="1.5" opacity="1"></path></g><g class="mark-text role-legend-label Country_legend_labels"><text text-anchor="start" transform="translate(16,9)" font-family="Roboto Condensed" font-size="10px" fill="#000" opacity="1">Belgium</text></g></g><path class="foreground" aria-hidden="true" d="" display="none"></path></g><g transform="translate(0,13)"><path class="background" aria-hidden="true" d="M0,0h79v11h-79Z" opacity="1"></path><g><g class="mark-symbol role-legend-symbol Country_legend_symbols"><path transform="translate(6,6)" d="M-5,0L5,0" stroke="#f58518" stroke-width="1.5" opacity="1"></path></g><g class="mark-text role-legend-label Country_legend_labels"><text text-anchor="start" transform="translate(16,9)" font-family="Roboto Condensed" font-size="10px" fill="#000" opacity="1">Brazil</text></g></g><path class="foreground" aria-hidden="true" d="" display="none"></path></g><g transform="translate(0,26)"><path class="background" aria-hidden="true" d="M0,0h79v11h-79Z" opacity="1"></path><g><g class="mark-symbol role-legend-symbol Country_legend_symbols"><path transform="translate(6,6)" d="M-5,0L5,0" stroke="#e45756" stroke-width="1.5" opacity="1"></path></g><g class="mark-text role-legend-label Country_legend_labels"><text text-anchor="start" transform="translate(16,9)" font-family="Roboto Condensed" font-size="10px" fill="#000" opacity="1">France</text></g></g><path class="foreground" aria-hidden="true" d="" display="none"></path></g><g transform="translate(0,39)"><path class="background" aria-hidden="true" d="M0,0h79v11h-79Z" opacity="1"></path><g><g class="mark-symbol role-legend-symbol Country_legend_symbols"><path transform="translate(6,6)" d="M-5,0L5,0" stroke="#72b7b2" stroke-width="1.5" opacity="1"></path></g><g class="mark-text role-legend-label Country_legend_labels"><text text-anchor="start" transform="translate(16,9)" font-family="Roboto Condensed" font-size="10px" fill="#000" opacity="1">Germany</text></g></g><path class="foreground" aria-hidden="true" d="" display="none"></path></g><g transform="translate(0,52)"><path class="background" aria-hidden="true" d="M0,0h79v11h-79Z" opacity="1"></path><g><g class="mark-symbol role-legend-symbol Country_legend_symbols"><path transform="translate(6,6)" d="M-5,0L5,0" stroke="#54a24b" stroke-width="1.5" opacity="1"></path></g><g class="mark-text role-legend-label Country_legend_labels"><text text-anchor="start" transform="translate(16,9)" font-family="Roboto Condensed" font-size="10px" fill="#000" opacity="1">Iran</text></g></g><path class="foreground" aria-hidden="true" d="" display="none"></path></g><g transform="translate(0,65)"><path class="background" aria-hidden="true" d="M0,0h79v11h-79Z" opacity="1"></path><g><g class="mark-symbol role-legend-symbol Country_legend_symbols"><path transform="translate(6,6)" d="M-5,0L5,0" stroke="#eeca3b" stroke-width="1.5" opacity="1"></path></g><g class="mark-text role-legend-label Country_legend_labels"><text text-anchor="start" transform="translate(16,9)" font-family="Roboto Condensed" font-size="10px" fill="#000" opacity="1">Italy</text></g></g><path class="foreground" aria-hidden="true" d="" display="none"></path></g><g transform="translate(0,78)"><path class="background" aria-hidden="true" d="M0,0h79v11h-79Z" opacity="1"></path><g><g class="mark-symbol role-legend-symbol Country_legend_symbols"><path transform="translate(6,6)" d="M-5,0L5,0" stroke="#b279a2" stroke-width="1.5" opacity="1"></path></g><g class="mark-text role-legend-label Country_legend_labels"><text text-anchor="start" transform="translate(16,9)" font-family="Roboto Condensed" font-size="10px" fill="#000" opacity="1">Mexico</text></g></g><path class="foreground" aria-hidden="true" d="" display="none"></path></g><g transform="translate(0,91)"><path class="background" aria-hidden="true" d="M0,0h79v11h-79Z" opacity="1"></path><g><g class="mark-symbol role-legend-symbol Country_legend_symbols"><path transform="translate(6,6)" d="M-5,0L5,0" stroke="#ff9da6" stroke-width="1.5" opacity="1"></path></g><g class="mark-text role-legend-label Country_legend_labels"><text text-anchor="start" transform="translate(16,9)" font-family="Roboto Condensed" font-size="10px" fill="#000" opacity="1">Spain</text></g></g><path class="foreground" aria-hidden="true" d="" display="none"></path></g><g transform="translate(0,104)"><path class="background" aria-hidden="true" d="M0,0h79v11h-79Z" opacity="1"></path><g><g class="mark-symbol role-legend-symbol Country_legend_symbols"><path transform="translate(6,6)" d="M-5,0L5,0" stroke="#9d755d" stroke-width="1.5" opacity="1"></path></g><g class="mark-text role-legend-label Country_legend_labels"><text text-anchor="start" transform="translate(16,9)" font-family="Roboto Condensed" font-size="10px" fill="#000" opacity="1">US</text></g></g><path class="foreground" aria-hidden="true" d="" display="none"></path></g><g transform="translate(0,117)"><path class="background" aria-hidden="true" d="M0,0h79v11h-79Z" opacity="1"></path><g><g class="mark-symbol role-legend-symbol Country_legend_symbols"><path transform="translate(6,6)" d="M-5,0L5,0" stroke="#bab0ac" stroke-width="1.5" opacity="1"></path></g><g class="mark-text role-legend-label Country_legend_labels"><text text-anchor="start" transform="translate(16,9)" font-family="Roboto Condensed" font-size="10px" fill="#000" opacity="1">United Kingdom</text></g></g><path class="foreground" aria-hidden="true" d="" display="none"></path></g></g></g><path class="foreground" aria-hidden="true" d="" pointer-events="none" display="none"></path></g></g></g><path class="foreground" aria-hidden="true" d="" pointer-events="none" display="none"></path></g></g><g class="mark-group role-title"><g transform="translate(133.33333333333334,-37)"><path class="background" aria-hidden="true" d="M0,0h0v0h0Z" pointer-events="none"></path><g><g class="mark-text role-title-text" role="graphics-symbol" aria-roledescription="title" aria-label="Title text 'Deaths/7-day average/million people
 [2020-06-03]'" pointer-events="none"><text text-anchor="middle" transform="translate(0,10)" font-family="Roboto Condensed" font-size="13px" font-weight="normal" fill="#000" opacity="1"><tspan>Deaths/7-day average/million people</tspan><tspan x="0" dy="15">[2020-06-03]</tspan></text></g></g><path class="foreground" aria-hidden="true" d="" pointer-events="none" display="none"></path></g></g></g><path class="foreground" aria-hidden="true" d="" display="none"></path></g></g></g></svg>