<svg class="marks" width="419.6666666666667" height="325.6666666666667" viewBox="0 0 419.6666666666667 325.6666666666667" version="1.1" xmlns="http://www.w3.org/2000/svg" xmlns:xlink="http://www.w3.org/1999/xlink"><defs><clipPath id="clip1"><rect x="0" y="0" width="266.6666666666667" height="266.6666666666667"></rect></clipPath><clipPath id="clip2"><rect x="0" y="0" width="266.6666666666667" height="266.6666666666667"></rect></clipPath><clipPath id="clip3"><rect x="0" y="0" width="266.6666666666667" height="266.6666666666667"></rect></clipPath><clipPath id="clip4"><rect x="0" y="0" width="266.6666666666667" height="266.6666666666667"></rect></clipPath><clipPath id="clip5"><rect x="0" y="0" width="266.6666666666667" height="266.6666666666667"></rect></clipPath><clipPath id="clip6"><rect x="0" y="0" width="266.6666666666667" height="266.6666666666667"></rect></clipPath><clipPath id="clip7"><rect x="0" y="0" width="266.6666666666667" height="266.6666666666667"></rect></clipPath><clipPath id="clip8"><rect x="0" y="0" width="266.6666666666667" height="266.6666666666667"></rect></clipPath><clipPath id="clip9"><rect x="0" y="0" width="266.6666666666667" height="266.6666666666667"></rect></clipPath><clipPath id="clip10"><rect x="0" y="0" width="266.6666666666667" height="266.6666666666667"></rect></clipPath></defs><rect width="419.6666666666667" height="325.6666666666667" fill="white"></rect><g fill="none" stroke-miterlimit="10" transform="translate(50,42)"><g class="mark-group role-frame root" role="graphics-object" aria-roledescription="group mark container"><g transform="translate(0,0)"><path class="background" aria-hidden="true" d="M0,0h266.6666666666667v266.6666666666667h-266.6666666666667Z" stroke="#ddd" stroke-width="0"></path><g><g class="mark-group role-axis" aria-hidden="true"><g transform="translate(0.5,0.5)"><path class="background" aria-hidden="true" d="M0,0h0v0h0Z" pointer-events="none"></path><g><g class="mark-rule role-axis-grid" pointer-events="none"><line transform="translate(0,267)" x2="266.6666666666667" y2="0" stroke="#ddd" stroke-width="1" opacity="1"></line><line transform="translate(0,213)" x2="266.6666666666667" y2="0" stroke="#ddd" stroke-width="1" opacity="1"></line><line transform="translate(0,160)" x2="266.6666666666667" y2="0" stroke="#ddd" stroke-width="1" opacity="1"></line><line transform="translate(0,107)" x2="266.6666666666667" y2="0" stroke="#ddd" stroke-width="1" opacity="1"></line><line transform="translate(0,53)" x2="266.6666666666667" y2="0" stroke="#ddd" stroke-width="1" opacity="1"></line><line transform="translate(0,0)" x2="266.6666666666667" y2="0" stroke="#ddd" stroke-width="1" opacity="1"></line></g></g><path class="foreground" aria-hidden="true" d="" pointer-events="none" display="none"></path></g></g><g class="mark-group role-axis" role="graphics-symbol" aria-roledescription="axis" aria-label="X-axis for a time scale with values from Monday, 18 May 2020, 5:00:00 PM to Tuesday, 02 June 2020, 5:00:00 PM"><g transform="translate(0.5,267.1666666666667)"><path class="background" aria-hidden="true" d="M0,0h0v0h0Z" pointer-events="none"></path><g><g class="mark-text role-axis-label" pointer-events="none"><text text-anchor="middle" transform="translate(5.185185185185186,10)" font-family="Roboto Condensed" font-size="10px" fill="#000" opacity="1">Tue 19</text><text text-anchor="middle" transform="translate(40.74074074074075,10)" font-family="Roboto Condensed" font-size="10px" fill="#000" opacity="0">Thu 21</text><text text-anchor="middle" transform="translate(76.29629629629629,10)" font-family="Roboto Condensed" font-size="10px" fill="#000" opacity="1">Sat 23</text><text text-anchor="middle" transform="translate(111.85185185185186,10)" font-family="Roboto Condensed" font-size="10px" fill="#000" opacity="0">Mon 25</text><text text-anchor="middle" transform="translate(147.40740740740742,10)" font-family="Roboto Condensed" font-size="10px" fill="#000" opacity="1">Wed 27</text><text text-anchor="middle" transform="translate(182.962962962963,10)" font-family="Roboto Condensed" font-size="10px" fill="#000" opacity="0">Fri 29</text><text text-anchor="middle" transform="translate(218.51851851851853,10)" font-family="Roboto Condensed" font-size="10px" fill="#000" opacity="1">May 31</text><text text-anchor="middle" transform="translate(236.2962962962963,10)" font-family="Roboto Condensed" font-size="10px" fill="#000" opacity="0">June</text></g><g class="mark-rule role-axis-domain" pointer-events="none"><line transform="translate(0,0)" x2="266.6666666666667" y2="0" stroke="lightgray" stroke-width="1" opacity="1"></line></g></g><path class="foreground" aria-hidden="true" d="" pointer-events="none" display="none"></path></g></g><g class="mark-group role-axis" role="graphics-symbol" aria-roledescription="axis" aria-label="Y-axis for a linear scale with values from 0 to 500,000"><g transform="translate(0.5,0.5)"><path class="background" aria-hidden="true" d="M0,0h0v0h0Z" pointer-events="none"></path><g><g class="mark-text role-axis-label" pointer-events="none"><text text-anchor="end" transform="translate(-2,269.6666666666667)" font-family="Roboto Condensed" font-size="10px" fill="#000" opacity="1">0</text><text text-anchor="end" transform="translate(-2,216.33333333333337)" font-family="Roboto Condensed" font-size="10px" fill="#000" opacity="1">100,000</text><text text-anchor="end" transform="translate(-2,163)" font-family="Roboto Condensed" font-size="10px" fill="#000" opacity="1">200,000</text><text text-anchor="end" transform="translate(-2,109.66666666666669)" font-family="Roboto Condensed" font-size="10px" fill="#000" opacity="1">300,000</text><text text-anchor="end" transform="translate(-2,56.33333333333333)" font-family="Roboto Condensed" font-size="10px" fill="#000" opacity="1">400,000</text><text text-anchor="end" transform="translate(-2,3)" font-family="Roboto Condensed" font-size="10px" fill="#000" opacity="1">500,000</text></g><g class="mark-rule role-axis-domain" pointer-events="none"><line transform="translate(0,266.6666666666667)" x2="0" y2="-266.6666666666667" stroke="lightgray" stroke-width="1" opacity="1"></line></g></g><path class="foreground" aria-hidden="true" d="" pointer-events="none" display="none"></path></g></g><g class="mark-group role-scope pathgroup" role="graphics-object" aria-roledescription="group mark container"><g transform="translate(0,0)"><path class="background" aria-hidden="true" d="M0,0h266.6666666666667v266.6666666666667h-266.6666666666667Z"></path><g><g class="mark-line role-mark marks" clip-path="url(#clip1)" role="graphics-object" aria-roledescription="line mark container"><path aria-label="Country: Belgium; Date: Mar 01, 2020; Confirmed: 2; Recovered: 1; Deaths: 0; : 1" role="graphics-symbol" aria-roledescription="line mark" d="M-1398.5185185185187,266.6661333333334L-1380.7407407407409,266.6661333333334L-1362.962962962963,266.6661333333334L-1345.1851851851852,266.6661333333334L-1327.4074074074076,266.6661333333334L-1309.6296296296298,266.6661333333334L-1291.851851851852,266.6661333333334L-1274.0740740740741,266.6661333333334L-1257.037037037037,266.6661333333334L-1239.2592592592594,266.6661333333334L-1221.4814814814815,266.6661333333334L-1203.703703703704,266.6661333333334L-1185.9259259259259,266.6661333333334L-1168.1481481481483,266.6661333333334L-1150.3703703703704,266.6661333333334L-1132.5925925925926,266.6661333333334L-1114.8148148148148,266.6661333333334L-1097.0370370370372,266.6501333333334L-1079.2592592592594,266.6501333333334L-1061.4814814814815,266.6661333333334L-1043.7037037037037,266.5264L-1025.925925925926,266.5264L-1008.1481481481482,266.5264L-990.3703703703704,266.42080000000004L-972.5925925925926,266.37493333333333L-954.8148148148149,266.3066666666667L-937.0370370370371,266.2090666666667L-919.2592592592594,266.09973333333335L-901.4814814814815,265.94186666666667L-883.7037037037038,265.8522666666667L-865.925925925926,265.76213333333334L-848.1481481481482,265.5296L-830.3703703703704,265.336L-812.5925925925926,265.1349333333334L-794.8148148148149,264.93493333333333L-777.0370370370371,264.66613333333333L-759.2592592592594,264.54080000000005L-741.4814814814815,264.44960000000003L-723.7037037037038,264.17013333333335L-705.925925925926,263.91253333333333L-688.1481481481483,263.6970666666667L-670.3703703703704,263.4741333333334L-652.5925925925927,263.21973333333335L-634.8148148148149,263.0896L-617.0370370370372,263.00373333333334L-599.2592592592594,262.8762666666667L-581.4814814814815,262.6336L-563.7037037037038,262.42080000000004L-545.9259259259259,262.2144L-528.1481481481482,261.99626666666666L-510.37037037037044,261.9226666666667L-492.59259259259267,261.86560000000003L-474.81481481481484,261.63573333333335L-457.03703703703707,261.44000000000005L-439.2592592592593,261.26826666666665L-421.48148148148147,261.1109333333333L-403.7037037037037,260.9146666666667L-385.9259259259259,260.8650666666667L-368.14814814814815,260.83040000000005L-350.3703703703704,260.64906666666667L-332.5925925925926,260.49280000000005L-314.81481481481484,260.3242666666667L-297.03703703703707,260.1541333333334L-279.2592592592593,260.1018666666667L-261.48148148148147,260.06506666666667L-243.70370370370372,260.0314666666667L-225.92592592592595,259.8768L-208.14814814814815,259.744L-190.37037037037038,259.6261333333333L-172.5925925925926,259.51413333333335L-154.81481481481484,259.39093333333335L-137.03703703703704,259.3616L-119.25925925925927,259.34293333333335L-101.48148148148148,259.2336L-83.70370370370371,259.1408L-65.92592592592594,259.03946666666667L-48.14814814814815,258.9546666666667L-30.37037037037037,258.86400000000003L-12.592592592592593,258.8496L5.185185185185186,258.8336L22.962962962962965,258.74826666666667L40.74074074074075,258.67306666666667L58.51851851851852,258.60106666666667L76.29629629629629,258.58400000000006L94.07407407407409,258.52160000000003L111.85185185185186,258.50826666666666L129.62962962962965,258.49600000000004L147.40740740740742,258.4186666666667L165.1851851851852,258.3616L182.962962962963,258.3029333333334L200.74074074074076,258.2565333333334L218.51851851851853,258.1936L236.2962962962963,258.17653333333334L254.07407407407408,258.16853333333336L271.85185185185185,258.15520000000004" stroke="#4c78a8" stroke-width="2" opacity="1"></path></g></g><path class="foreground" aria-hidden="true" d="" display="none"></path></g><g transform="translate(0,0)"><path class="background" aria-hidden="true" d="M0,0h266.6666666666667v266.6666666666667h-266.6666666666667Z"></path><g><g class="mark-line role-mark marks" clip-path="url(#clip2)" role="graphics-object" aria-roledescription="line mark container"><path aria-label="Country: Brazil; Date: Mar 01, 2020; Confirmed: 2; Recovered: 0; Deaths: 0; : 0" role="graphics-symbol" aria-roledescription="line mark" d="M-1398.5185185185187,266.6666666666667L-1380.7407407407409,266.6666666666667L-1362.962962962963,266.6666666666667L-1345.1851851851852,266.6666666666667L-1327.4074074074076,266.6666666666667L-1309.6296296296298,266.6666666666667L-1291.851851851852,266.6666666666667L-1274.0740740740741,266.6666666666667L-1257.037037037037,266.6666666666667L-1239.2592592592594,266.6666666666667L-1221.4814814814815,266.6666666666667L-1203.703703703704,266.6666666666667L-1185.9259259259259,266.6666666666667L-1168.1481481481483,266.6666666666667L-1150.3703703703704,266.6666666666667L-1132.5925925925926,266.6661333333334L-1114.8148148148148,266.66560000000004L-1097.0370370370372,266.66560000000004L-1079.2592592592594,266.66560000000004L-1061.4814814814815,266.66560000000004L-1043.7037037037037,266.66560000000004L-1025.925925925926,266.66560000000004L-1008.1481481481482,266.66560000000004L-990.3703703703704,266.66560000000004L-972.5925925925926,266.66560000000004L-954.8148148148149,266.6634666666667L-937.0370370370371,266.6634666666667L-919.2592592592594,266.6634666666667L-901.4814814814815,266.6634666666667L-883.7037037037038,266.60266666666666L-865.925925925926,266.5989333333334L-848.1481481481482,266.5989333333334L-830.3703703703704,266.5989333333334L-812.5925925925926,266.5989333333334L-794.8148148148149,266.5989333333334L-777.0370370370371,266.5989333333334L-759.2592592592594,266.5989333333334L-741.4814814814815,266.5989333333334L-723.7037037037038,266.5989333333334L-705.925925925926,266.5744L-688.1481481481483,266.5744L-670.3703703703704,266.5744L-652.5925925925927,266.5744L-634.8148148148149,266.5744L-617.0370370370372,265.04213333333337L-599.2592592592594,259.1861333333334L-581.4814814814815,259.1861333333334L-563.7037037037038,259.1861333333334L-545.9259259259259,259.1861333333334L-528.1481481481482,254.86400000000003L-510.37037037037044,254.86400000000003L-492.59259259259267,254.40480000000002L-474.81481481481484,253.16373333333334L-457.03703703703707,252.4944L-439.2592592592593,251.91733333333335L-421.48148148148147,251.11466666666666L-403.7037037037037,250.5856L-385.9259259259259,250.0576L-368.14814814814815,249.30986666666666L-350.3703703703704,248.46293333333335L-332.5925925925926,247.50133333333335L-314.81481481481484,246.37920000000003L-297.03703703703707,244.83360000000002L-279.2592592592593,243.73813333333334L-261.48148148148147,242.23200000000003L-243.70370370370372,240.9488L-225.92592592592595,239.26933333333335L-208.14814814814815,237.14666666666668L-190.37037037037038,235.04160000000002L-172.5925925925926,233.76800000000003L-154.81481481481484,232.02293333333336L-137.03703703703704,230.72853333333336L-119.25925925925927,227.94826666666668L-101.48148148148148,224.84053333333335L-83.70370370370371,224.2778666666667L-65.92592592592594,221.34933333333336L-48.14814814814815,218.84160000000003L-30.37037037037037,216.4682666666667L-12.592592592592593,213.08853333333334L5.185185185185186,209.70986666666667L22.962962962962965,204.43573333333336L40.74074074074075,199.48800000000003L58.51851851851852,194.43733333333336L76.29629629629629,190.62026666666668L94.07407407407409,186.71413333333334L111.85185185185186,184.62240000000003L129.62962962962965,182.08373333333336L147.40740740740742,177.7882666666667L165.1851851851852,171.94453333333337L182.962962962963,165.61280000000002L200.74074074074076,159.5242666666667L218.51851851851853,156.50400000000002L236.2962962962963,154.0906666666667L254.07407407407408,147.39306666666667L271.85185185185185,139.4042666666667" stroke="#f58518" stroke-width="2" opacity="1"></path></g></g><path class="foreground" aria-hidden="true" d="" display="none"></path></g><g transform="translate(0,0)"><path class="background" aria-hidden="true" d="M0,0h266.6666666666667v266.6666666666667h-266.6666666666667Z"></path><g><g class="mark-line role-mark marks" clip-path="url(#clip3)" role="graphics-object" aria-roledescription="line mark container"><path aria-label="Country: France; Date: Mar 01, 2020; Confirmed: 130; Recovered: 12; Deaths: 2; : 12" role="graphics-symbol" aria-roledescription="line mark" d="M-1398.5185185185187,266.6602666666667L-1380.7407407407409,266.6602666666667L-1362.962962962963,266.6602666666667L-1345.1851851851852,266.6602666666667L-1327.4074074074076,266.6602666666667L-1309.6296296296298,266.6602666666667L-1291.851851851852,266.6602666666667L-1274.0740740740741,266.6602666666667L-1257.037037037037,266.6602666666667L-1239.2592592592594,266.6602666666667L-1221.4814814814815,266.6602666666667L-1203.703703703704,266.6602666666667L-1185.9259259259259,266.6602666666667L-1168.1481481481483,266.6602666666667L-1150.3703703703704,266.6602666666667L-1132.5925925925926,266.6602666666667L-1114.8148148148148,266.6602666666667L-1097.0370370370372,266.6602666666667L-1079.2592592592594,266.6602666666667L-1061.4814814814815,266.6602666666667L-1043.7037037037037,266.6602666666667L-1025.925925925926,265.49333333333334L-1008.1481481481482,265.49333333333334L-990.3703703703704,264.9370666666667L-972.5925925925926,264.5866666666667L-954.8148148148149,264.02773333333334L-937.0370370370371,263.6266666666667L-919.2592592592594,263.6266666666667L-901.4814814814815,262.8256L-883.7037037037038,262.43893333333335L-865.925925925926,261.62986666666666L-848.1481481481482,260.83520000000004L-830.3703703703704,260.0384L-812.5925925925926,259.19573333333335L-794.8148148148149,258.43306666666666L-777.0370370370371,258.0357333333333L-759.2592592592594,257.4666666666667L-741.4814814814815,256.35360000000003L-723.7037037037038,255.33120000000002L-705.925925925926,254.29013333333336L-688.1481481481483,253.36960000000002L-670.3703703703704,252.5914666666667L-652.5925925925927,252.16746666666668L-634.8148148148149,251.88373333333334L-617.0370370370372,251.46026666666668L-599.2592592592594,250.43200000000002L-581.4814814814815,249.4416L-563.7037037037038,248.62186666666668L-545.9259259259259,247.7978666666667L-528.1481481481482,247.4810666666667L-510.37037037037044,247.04960000000003L-492.59259259259267,246.11040000000003L-474.81481481481484,245.33973333333333L-457.03703703703707,244.57920000000001L-439.2592592592593,243.88533333333334L-421.48148148148147,243.29813333333334L-403.7037037037037,243.13333333333335L-385.9259259259259,242.80906666666667L-368.14814814814815,242.13493333333335L-350.3703703703704,241.41973333333337L-332.5925925925926,240.76160000000002L-314.81481481481484,240.37333333333333L-297.03703703703707,240.13280000000003L-279.2592592592593,240.01440000000002L-261.48148148148147,239.76640000000003L-243.70370370370372,239.03840000000002L-225.92592592592595,238.38826666666668L-208.14814814814815,237.82613333333333L-190.37037037037038,237.45600000000002L-172.5925925925926,237.39413333333334L-154.81481481481484,237.3002666666667L-137.03703703703704,237.0298666666667L-119.25925925925927,236.47093333333333L-101.48148148148148,236.07040000000003L-83.70370370370371,235.57333333333335L-65.92592592592594,235.12373333333335L-48.14814814814815,235.12426666666667L-30.37037037037037,234.71626666666668L-12.592592592592593,234.44480000000001L5.185185185185186,234.00213333333335L22.962962962962965,233.75306666666668L40.74074074074075,233.4848L58.51851851851852,233.30293333333336L76.29629629629629,233.12373333333335L94.07407407407409,233.0874666666667L111.85185185185186,232.77760000000004L129.62962962962965,232.41493333333335L147.40740740740742,232.26506666666668L165.1851851851852,231.94773333333336L182.962962962963,231.68053333333333L200.74074074074076,231.4394666666667L218.51851851851853,231.40106666666668L236.2962962962963,231.40266666666668L254.07407407407408,231.208L271.85185185185185,230.91680000000002" stroke="#e45756" stroke-width="2" opacity="1"></path></g></g><path class="foreground" aria-hidden="true" d="" display="none"></path></g><g transform="translate(0,0)"><path class="background" aria-hidden="true" d="M0,0h266.6666666666667v266.6666666666667h-266.6666666666667Z"></path><g><g class="mark-line role-mark marks" clip-path="url(#clip4)" role="graphics-object" aria-roledescription="line mark container"><path aria-label="Country: Germany; Date: Mar 01, 2020; Confirmed: 130; Recovered: 16; Deaths: 0; : 16" role="graphics-symbol" aria-roledescription="line mark" d="M-1398.5185185185187,266.65813333333335L-1380.7407407407409,266.65813333333335L-1362.962962962963,266.65813333333335L-1345.1851851851852,266.65813333333335L-1327.4074074074076,266.65813333333335L-1309.6296296296298,266.6576L-1291.851851851852,266.65706666666665L-1274.0740740740741,266.65706666666665L-1257.037037037037,266.65706666666665L-1239.2592592592594,266.65706666666665L-1221.4814814814815,266.65333333333336L-1203.703703703704,266.65333333333336L-1185.9259259259259,266.64213333333333L-1168.1481481481483,266.64213333333333L-1150.3703703703704,266.64213333333333L-1132.5925925925926,266.63093333333336L-1114.8148148148148,266.63093333333336L-1097.0370370370372,266.61066666666665L-1079.2592592592594,266.6064L-1061.4814814814815,266.5706666666667L-1043.7037037037037,266.54240000000004L-1025.925925925926,266.5248L-1008.1481481481482,266.5248L-990.3703703703704,264.9370666666667L-972.5925925925926,264.77493333333337L-954.8148148148149,263.6410666666667L-937.0370370370371,263.11573333333337L-919.2592592592594,262.14346666666665L-901.4814814814815,261.75413333333336L-883.7037037037038,259.4666666666667L-865.925925925926,258.08000000000004L-848.1481481481482,256.6933333333333L-830.3703703703704,254.69866666666667L-812.5925925925926,253.56L-794.8148148148149,252.5866666666667L-777.0370370370371,251.36L-759.2592592592594,251.36L-741.4814814814815,247.42346666666666L-723.7037037037038,241.97333333333336L-705.925925925926,238.71626666666668L-688.1481481481483,237.91306666666668L-670.3703703703704,236.05333333333334L-652.5925925925927,234.50666666666666L-634.8148148148149,232.37333333333333L-617.0370370370372,230.29333333333335L-599.2592592592594,227.9466666666667L-581.4814814814815,225.60000000000002L-563.7037037037038,222.3392L-545.9259259259259,221.12L-528.1481481481482,219.73333333333338L-510.37037037037044,217.86666666666667L-492.59259259259267,215.89333333333335L-474.81481481481484,213.65333333333336L-457.03703703703707,211.57333333333335L-439.2592592592593,208.10666666666668L-421.48148148148147,208.10666666666668L-403.7037037037037,206.93333333333337L-385.9259259259259,205.60000000000002L-368.14814814814815,204.05333333333334L-350.3703703703704,202.45333333333335L-332.5925925925926,200.8L-314.81481481481484,198.98666666666668L-297.03703703703707,197.86666666666667L-279.2592592592593,197.01333333333335L-261.48148148148147,195.89333333333332L-243.70370370370372,194.61333333333334L-225.92592592592595,192.05333333333334L-208.14814814814815,191.09333333333336L-190.37037037037038,191.09333333333336L-172.5925925925926,190.24L-154.81481481481484,189.65333333333336L-137.03703703703704,189.0042666666667L-119.25925925925927,188.16000000000003L-101.48148148148148,187.36L-83.70370370370371,186.5066666666667L-65.92592592592594,185.81493333333336L-48.14814814814815,185.28L-30.37037037037037,184.52746666666667L-12.592592592592593,183.97813333333335L5.185185185185186,183.6368L22.962962962962965,182.95146666666668L40.74074074074075,182.35360000000003L58.51851851851852,181.83253333333334L76.29629629629629,181.48480000000004L94.07407407407409,181.18346666666667L111.85185185185186,180.69386666666668L129.62962962962965,180.2842666666667L147.40740740740742,179.82933333333335L165.1851851851852,179.54133333333334L182.962962962963,179.06933333333336L200.74074074074076,178.71573333333333L218.51851851851853,178.47893333333334L236.2962962962963,178.3296L254.07407407407408,177.80853333333334L271.85185185185185,177.35840000000005" stroke="#72b7b2" stroke-width="2" opacity="1"></path></g></g><path class="foreground" aria-hidden="true" d="" display="none"></path></g><g transform="translate(0,0)"><path class="background" aria-hidden="true" d="M0,0h266.6666666666667v266.6666666666667h-266.6666666666667Z"></path><g><g class="mark-line role-mark marks" clip-path="url(#clip5)" role="graphics-object" aria-roledescription="line mark container"><path aria-label="Country: Iran; Date: Mar 01, 2020; Confirmed: 978; Recovered: 175; Deaths: 54; : 175" role="graphics-symbol" aria-roledescription="line mark" d="M-1398.5185185185187,266.5733333333334L-1380.7407407407409,266.5114666666667L-1362.962962962963,266.5114666666667L-1345.1851851851852,266.3722666666667L-1327.4074074074076,266.27253333333334L-1309.6296296296298,266.17973333333333L-1291.851851851852,265.77653333333336L-1274.0740740740741,265.5285333333333L-1257.037037037037,265.3898666666667L-1239.2592592592594,265.2101333333334L-1221.4814814814815,265.0885333333334L-1203.703703703704,265.0885333333334L-1185.9259259259259,265.0885333333334L-1168.1481481481483,265.0885333333334L-1150.3703703703704,264.2186666666667L-1132.5925925925926,264.2186666666667L-1114.8148148148148,263.7925333333334L-1097.0370370370372,263.7925333333334L-1079.2592592592594,263.6213333333334L-1061.4814814814815,263.06933333333336L-1043.7037037037037,262.5946666666667L-1025.925925925926,262.4368L-1008.1481481481482,262.4368L-990.3703703703704,261.9130666666667L-972.5925925925926,261.53333333333336L-954.8148148148149,261.0896L-937.0370370370371,260.7290666666667L-919.2592592592594,260.4378666666667L-901.4814814814815,260.0581333333334L-883.7037037037038,259.2474666666667L-865.925925925926,258.85013333333336L-848.1481481481482,258.4144L-830.3703703703704,257.75413333333336L-812.5925925925926,257.10133333333334L-794.8148148148149,256.1408L-777.0370370370371,256.1408L-759.2592592592594,253.74080000000004L-741.4814814814815,252.2458666666667L-723.7037037037038,250.76693333333336L-705.925925925926,249.43520000000004L-688.1481481481483,247.752L-670.3703703703704,244.29493333333335L-652.5925925925927,243.25653333333335L-634.8148148148149,242.1424L-617.0370370370372,240.9978666666667L-599.2592592592594,240.03573333333335L-581.4814814814815,238.81120000000004L-563.7037037037038,237.83253333333334L-545.9259259259259,236.80693333333335L-528.1481481481482,236.25440000000003L-510.37037037037044,235.05440000000002L-492.59259259259267,234.15200000000002L-474.81481481481484,233.00640000000004L-457.03703703703707,232.08373333333336L-439.2592592592593,231.1472L-421.48148148148147,230.2970666666667L-403.7037037037037,229.5162666666667L-385.9259259259259,228.83573333333334L-368.14814814814815,228.03253333333333L-350.3703703703704,227.3114666666667L-332.5925925925926,226.61173333333332L-314.81481481481484,225.96373333333335L-297.03703703703707,225.41333333333333L-279.2592592592593,224.84160000000003L-261.48148148148147,224.33120000000002L-243.70370370370372,223.74666666666667L-225.92592592592595,223.1536L-208.14814814814815,222.53653333333335L-190.37037037037038,221.95360000000002L-172.5925925925926,221.2992L-154.81481481481484,220.72373333333337L-137.03703703703704,220.04160000000002L-119.25925925925927,219.54293333333334L-101.48148148148148,218.97173333333333L-83.70370370370371,218.37920000000003L-65.92592592592594,217.68746666666667L-48.14814814814815,216.9882666666667L-30.37037037037037,216.2858666666667L-12.592592592592593,215.64746666666667L5.185185185185186,214.84106666666668L22.962962962962965,213.9690666666667L40.74074074074075,213.03253333333336L58.51851851851852,212.11946666666665L76.29629629629629,211.16160000000002L94.07407407407409,210.23946666666666L111.85185185185186,209.21973333333335L129.62962962962965,208.3002666666667L147.40740740740742,207.3728L165.1851851851852,206.40640000000002L182.962962962963,205.37013333333334L200.74074074074076,204.35893333333334L218.51851851851853,203.28106666666667L236.2962962962963,202.1312L254.07407407407408,201.02560000000003L271.85185185185185,199.89013333333332" stroke="#54a24b" stroke-width="2" opacity="1"></path></g></g><path class="foreground" aria-hidden="true" d="" display="none"></path></g><g transform="translate(0,0)"><path class="background" aria-hidden="true" d="M0,0h266.6666666666667v266.6666666666667h-266.6666666666667Z"></path><g><g class="mark-line role-mark marks" clip-path="url(#clip6)" role="graphics-object" aria-roledescription="line mark container"><path aria-label="Country: Italy; Date: Mar 01, 2020; Confirmed: 1694; Recovered: 83; Deaths: 34; : 83" role="graphics-symbol" aria-roledescription="line mark" d="M-1398.5185185185187,266.6224L-1380.7407407407409,266.5872L-1362.962962962963,266.58133333333336L-1345.1851851851852,266.5194666666667L-1327.4074074074076,266.4458666666667L-1309.6296296296298,266.38773333333336L-1291.851851851852,266.3525333333333L-1274.0740740740741,266.33493333333337L-1257.037037037037,266.2805333333333L-1239.2592592592594,266.2805333333333L-1221.4814814814815,266.1093333333333L-1203.703703703704,266.1093333333333L-1185.9259259259259,265.8992L-1168.1481481481483,265.61813333333333L-1150.3703703703704,265.42133333333334L-1132.5925925925926,265.20053333333334L-1114.8148148148148,265.09813333333335L-1097.0370370370372,264.52000000000004L-1079.2592592592594,264.2986666666667L-1061.4814814814815,264.2986666666667L-1043.7037037037037,263.4282666666667L-1025.925925925926,262.92053333333337L-1008.1481481481482,262.92053333333337L-990.3703703703704,262.22613333333334L-972.5925925925926,261.6736L-954.8148148148149,261.1408L-937.0370370370371,260.82666666666665L-919.2592592592594,260.0618666666667L-901.4814814814815,259.7173333333334L-883.7037037037038,258.8693333333333L-865.925925925926,258.2778666666667L-848.1481481481482,257.6816L-830.3703703703704,256.9184L-812.5925925925926,256.1290666666667L-794.8148148148149,255.46880000000002L-777.0370370370371,255.032L-759.2592592592594,254.48693333333335L-741.4814814814815,253.6576L-723.7037037037038,252.53813333333335L-705.925925925926,251.4826666666667L-688.1481481481483,250.424L-670.3703703703704,249.3152L-652.5925925925927,248.4208L-634.8148148148149,247.76800000000003L-617.0370370370372,246.86400000000003L-599.2592592592594,246.35093333333333L-581.4814814814815,245.2458666666667L-563.7037037037038,243.87893333333335L-545.9259259259259,242.70560000000003L-528.1481481481482,241.57066666666668L-510.37037037037044,240.59893333333335L-492.59259259259267,239.1466666666667L-474.81481481481484,237.57706666666667L-457.03703703703707,235.95946666666669L-439.2592592592593,234.40106666666668L-421.48148148148147,233.00266666666667L-403.7037037037037,232.03840000000002L-385.9259259259259,231.13386666666668L-368.14814814814815,229.89813333333333L-350.3703703703704,228.6656L-332.5925925925926,226.1626666666667L-314.81481481481484,224.9338666666667L-297.03703703703707,224.04586666666668L-279.2592592592593,223.11786666666669L-261.48148148148147,222.46453333333335L-243.70370370370372,221.21013333333335L-225.92592592592595,216.936L-208.14814814814815,215.31946666666667L-190.37037037037038,213.85440000000003L-172.5925925925926,211.71680000000003L-154.81481481481484,210.5674666666667L-137.03703703703704,209.8202666666667L-119.25925925925927,208.51253333333335L-101.48148148148148,206.6448L-83.70370370370371,205.17973333333336L-65.92592592592594,202.55733333333333L-48.14814814814815,201.16800000000003L-30.37037037037037,199.90613333333334L-12.592592592592593,198.7594666666667L5.185185185185186,197.6528L22.962962962962965,196.11626666666666L40.74074074074075,194.90133333333333L58.51851851851852,193.74933333333334L76.29629629629629,192.6186666666667L94.07407407407409,191.74453333333332L111.85185185185186,190.94346666666667L129.62962962962965,189.51573333333334L147.40740740740742,188.2128L165.1851851851852,186.34453333333337L182.962962962963,185.1498666666667L200.74074074074076,183.6624L218.51851851851853,182.66293333333334L236.2962962962963,182.21066666666667L254.07407407407408,181.28426666666667L271.85185185185185,180.83306666666667" stroke="#eeca3b" stroke-width="2" opacity="1"></path></g></g><path class="foreground" aria-hidden="true" d="" display="none"></path></g><g transform="translate(0,0)"><path class="background" aria-hidden="true" d="M0,0h266.6666666666667v266.6666666666667h-266.6666666666667Z"></path><g><g class="mark-line role-mark marks" clip-path="url(#clip7)" role="graphics-object" aria-roledescription="line mark container"><path aria-label="Country: Mexico; Date: Mar 01, 2020; Confirmed: 5; Recovered: 0; Deaths: 0; : 0" role="graphics-symbol" aria-roledescription="line mark" d="M-1398.5185185185187,266.6666666666667L-1380.7407407407409,266.6666666666667L-1362.962962962963,266.6661333333334L-1345.1851851851852,266.6661333333334L-1327.4074074074076,266.6661333333334L-1309.6296296296298,266.6661333333334L-1291.851851851852,266.6661333333334L-1274.0740740740741,266.6661333333334L-1257.037037037037,266.6661333333334L-1239.2592592592594,266.66453333333334L-1221.4814814814815,266.66453333333334L-1203.703703703704,266.66453333333334L-1185.9259259259259,266.66453333333334L-1168.1481481481483,266.66453333333334L-1150.3703703703704,266.66453333333334L-1132.5925925925926,266.66453333333334L-1114.8148148148148,266.66453333333334L-1097.0370370370372,266.66453333333334L-1079.2592592592594,266.66453333333334L-1061.4814814814815,266.66453333333334L-1043.7037037037037,266.66453333333334L-1025.925925925926,266.66453333333334L-1008.1481481481482,266.66453333333334L-990.3703703703704,266.66453333333334L-972.5925925925926,266.66453333333334L-954.8148148148149,266.66453333333334L-937.0370370370371,266.66453333333334L-919.2592592592594,266.66453333333334L-901.4814814814815,266.66453333333334L-883.7037037037038,266.648L-865.925925925926,266.648L-848.1481481481482,266.648L-830.3703703703704,266.648L-812.5925925925926,266.3290666666667L-794.8148148148149,266.3290666666667L-777.0370370370371,266.3290666666667L-759.2592592592594,266.3290666666667L-741.4814814814815,266.3290666666667L-723.7037037037038,266.3290666666667L-705.925925925926,266.3290666666667L-688.1481481481483,266.3290666666667L-670.3703703703704,266.3290666666667L-652.5925925925927,265.7216L-634.8148148148149,265.68373333333335L-617.0370370370372,265.61920000000003L-599.2592592592594,265.53333333333336L-581.4814814814815,265.53333333333336L-563.7037037037038,265.53333333333336L-545.9259259259259,265.53333333333336L-528.1481481481482,265.2656L-510.37037037037044,265.2656L-492.59259259259267,265.2656L-474.81481481481484,265.2656L-457.03703703703707,265.2656L-439.2592592592593,265.2656L-421.48148148148147,262.8538666666667L-403.7037037037037,262.2112L-385.9259259259259,261.8208L-368.14814814814815,260.5744L-350.3703703703704,260.5744L-332.5925925925926,260.5744L-314.81481481481484,260.0656L-297.03703703703707,260.0656L-279.2592592592593,259.49493333333334L-261.48148148148147,259.49493333333334L-243.70370370370372,257.70133333333337L-225.92592592592595,257.1834666666667L-208.14814814814815,257.1834666666667L-190.37037037037038,255.83253333333334L-172.5925925925926,255.02720000000002L-154.81481481481484,255.02720000000002L-137.03703703703704,254.3466666666667L-119.25925925925927,252.8346666666667L-101.48148148148148,252.27200000000002L-83.70370370370371,251.48L-65.92592592592594,250.42613333333335L-48.14814814814815,249.68106666666668L-30.37037037037037,248.89120000000003L-12.592592592592593,247.7930666666667L5.185185185185186,246.76000000000002L22.962962962962965,246.17653333333337L40.74074074074075,245.25226666666669L58.51851851851852,244.16480000000004L76.29629629629629,242.97386666666668L94.07407407407409,241.61120000000003L111.85185185185186,240.29226666666668L129.62962962962965,239.0890666666667L147.40740740740742,237.95520000000002L165.1851851851852,236.77813333333336L182.962962962963,235.1984L200.74074074074076,234.00160000000002L218.51851851851853,232.65493333333336L236.2962962962963,230.95200000000003L254.07407407407408,229.46720000000002L271.85185185185185,227.90400000000002" stroke="#b279a2" stroke-width="2" opacity="1"></path></g></g><path class="foreground" aria-hidden="true" d="" display="none"></path></g><g transform="translate(0,0)"><path class="background" aria-hidden="true" d="M0,0h266.6666666666667v266.6666666666667h-266.6666666666667Z"></path><g><g class="mark-line role-mark marks" clip-path="url(#clip8)" role="graphics-object" aria-roledescription="line mark container"><path aria-label="Country: Spain; Date: Mar 01, 2020; Confirmed: 84; Recovered: 2; Deaths: 0; : 2" role="graphics-symbol" aria-roledescription="line mark" d="M-1398.5185185185187,266.66560000000004L-1380.7407407407409,266.66560000000004L-1362.962962962963,266.66560000000004L-1345.1851851851852,266.66560000000004L-1327.4074074074076,266.66560000000004L-1309.6296296296298,266.66560000000004L-1291.851851851852,266.6506666666667L-1274.0740740740741,266.6506666666667L-1257.037037037037,266.6496L-1239.2592592592594,266.6496L-1221.4814814814815,266.5690666666667L-1203.703703703704,266.5690666666667L-1185.9259259259259,266.56373333333335L-1168.1481481481483,266.39093333333335L-1150.3703703703704,266.39093333333335L-1132.5925925925926,266.384L-1114.8148148148148,266.1184L-1097.0370370370372,266.09013333333337L-1079.2592592592594,266.0762666666667L-1061.4814814814815,265.8197333333334L-1043.7037037037037,265.53333333333336L-1025.925925925926,265.29333333333335L-1008.1481481481482,265.29333333333335L-990.3703703703704,264.64320000000004L-972.5925925925926,263.8042666666667L-954.8148148148149,262.92533333333336L-937.0370370370371,261.67626666666666L-919.2592592592594,260.11466666666666L-901.4814814814815,258.8218666666667L-883.7037037037038,257.71733333333333L-865.925925925926,256.3952L-848.1481481481482,254.5882666666667L-830.3703703703704,252.40373333333335L-812.5925925925926,250.39306666666667L-794.8148148148149,248.41653333333335L-777.0370370370371,246.35733333333334L-759.2592592592594,245.10026666666667L-741.4814814814815,243.6224L-723.7037037037038,241.0554666666667L-705.925925925926,238.84533333333334L-688.1481481481483,236.97706666666667L-670.3703703703704,235.14186666666666L-652.5925925925927,233.3914666666667L-634.8148148148149,232.14560000000003L-617.0370370370372,230.66453333333334L-599.2592592592594,228.87840000000003L-581.4814814814815,226.77493333333334L-563.7037037037038,226.77493333333334L-545.9259259259259,226.77493333333334L-528.1481481481482,225.4096L-510.37037037037044,223.68693333333334L-492.59259259259267,222.65920000000003L-474.81481481481484,220.84533333333334L-457.03703703703707,219.0666666666667L-439.2592592592593,217.41066666666669L-421.48148148148147,215.6224L-403.7037037037037,214.2016L-385.9259259259259,212.86666666666667L-368.14814814814815,211.97440000000003L-350.3703703703704,208.5616L-332.5925925925926,206.9066666666667L-314.81481481481484,206.9066666666667L-297.03703703703707,204.1344L-279.2592592592593,203.25226666666669L-261.48148148148147,201.95040000000003L-243.70370370370372,200.8074666666667L-225.92592592592595,199.46560000000002L-208.14814814814815,198.1274666666667L-190.37037037037038,196.7210666666667L-172.5925925925926,195.22560000000004L-154.81481481481484,194.0448L-137.03703703703704,193.52586666666667L-119.25925925925927,192.544L-101.48148148148148,191.56106666666668L-83.70370370370371,190.20053333333334L-65.92592592592594,189.44906666666668L-48.14814814814815,188.56213333333338L-30.37037037037037,188.56213333333338L-12.592592592592593,186.46613333333335L5.185185185185186,186.46613333333335L22.962962962962965,186.46613333333335L40.74074074074075,186.46613333333335L58.51851851851852,186.46613333333335L76.29629629629629,186.46613333333335L94.07407407407409,186.46613333333335L111.85185185185186,186.46613333333335L129.62962962962965,186.46613333333335L147.40740740740742,186.46613333333335L165.1851851851852,186.46613333333335L182.962962962963,186.46613333333335L200.74074074074076,186.46613333333335L218.51851851851853,186.46613333333335L236.2962962962963,186.46613333333335L254.07407407407408,186.46613333333335L271.85185185185185,186.46613333333335" stroke="#ff9da6" stroke-width="2" opacity="1"></path></g></g><path class="foreground" aria-hidden="true" d="" display="none"></path></g><g transform="translate(0,0)"><path class="background" aria-hidden="true" d="M0,0h266.6666666666667v266.6666666666667h-266.6666666666667Z"></path><g><g class="mark-line role-mark marks" clip-path="url(#clip9)" role="graphics-object" aria-roledescription="line mark container"><path aria-label="Country: US; Date: Mar 01, 2020; Confirmed: 74; Recovered: 7; Deaths: 1; : 7" role="graphics-symbol" aria-roledescription="line mark" d="M-1398.5185185185187,266.66293333333334L-1380.7407407407409,266.66293333333334L-1362.962962962963,266.66293333333334L-1345.1851851851852,266.66293333333334L-1327.4074074074076,266.66293333333334L-1309.6296296296298,266.66293333333334L-1291.851851851852,266.66293333333334L-1274.0740740740741,266.66293333333334L-1257.037037037037,266.66293333333334L-1239.2592592592594,266.6624L-1221.4814814814815,266.6624L-1203.703703703704,266.6602666666667L-1185.9259259259259,266.6602666666667L-1168.1481481481483,266.6602666666667L-1150.3703703703704,266.6602666666667L-1132.5925925925926,266.6576L-1114.8148148148148,266.6576L-1097.0370370370372,266.61066666666665L-1079.2592592592594,266.60213333333337L-1061.4814814814815,266.5882666666667L-1043.7037037037037,266.57280000000003L-1025.925925925926,266.5717333333333L-1008.1481481481482,266.5717333333333L-990.3703703703704,266.48106666666666L-972.5925925925926,266.4741333333333L-954.8148148148149,266.3034666666667L-937.0370370370371,266.20320000000004L-919.2592592592594,266.09493333333336L-901.4814814814815,265.24533333333335L-883.7037037037038,263.65653333333336L-865.925925925926,262.92053333333337L-848.1481481481482,262.14720000000005L-830.3703703703704,261.8661333333334L-812.5925925925926,261.4896L-794.8148148148149,258.8522666666667L-777.0370370370371,257.36106666666666L-759.2592592592594,256.2234666666667L-741.4814814814815,255.05973333333336L-723.7037037037038,254.1018666666667L-705.925925925926,253.1146666666667L-688.1481481481483,251.31200000000004L-670.3703703703704,249.98933333333335L-652.5925925925927,249.07306666666668L-634.8148148148149,243.47626666666667L-617.0370370370372,241.19306666666668L-599.2592592592594,238.88213333333334L-581.4814814814815,237.49173333333334L-563.7037037037038,235.44266666666667L-545.9259259259259,232.08533333333335L-528.1481481481482,229.1536L-510.37037037037044,228.09120000000001L-492.59259259259267,226.55786666666668L-474.81481481481484,225.40480000000002L-457.03703703703707,223.89173333333335L-439.2592592592593,213.82453333333333L-421.48148148148147,213.13493333333335L-403.7037037037037,209.60640000000004L-385.9259259259259,207.24053333333336L-368.14814814814815,204.83413333333337L-350.3703703703704,202.28266666666667L-332.5925925925926,184.56160000000003L-314.81481481481484,179.192L-297.03703703703707,173.12959999999998L-279.2592592592593,170.58560000000003L-261.48148148148147,166.83733333333333L-243.70370370370372,165.44480000000001L-225.92592592592595,165.38133333333334L-208.14814814814815,162.64746666666667L-190.37037037037038,160.5370666666667L-172.5925925925926,153.3152L-154.81481481481484,151.37653333333336L-137.03703703703704,142.54240000000001L-119.25925925925927,143.84693333333334L-101.48148148148148,136.83733333333333L-83.70370370370371,135.24586666666667L-65.92592592592594,132.93493333333333L-48.14814814814815,123.53280000000001L-30.37037037037037,121.45866666666669L-12.592592592592593,115.63840000000002L5.185185185185186,112.32426666666669L22.962962962962965,109.70026666666666L40.74074074074075,107.5104L58.51851851851852,79.92800000000003L76.29629629629629,74.00586666666669L94.07407407407409,71.07413333333334L111.85185185185186,64.44959999999999L129.62962962962965,61.38559999999999L147.40740740740742,57.862399999999994L165.1851851851852,53.338133333333346L182.962962962963,49.895466666666685L200.74074074074076,44.554133333333326L218.51851851851853,29.46240000000001L236.2962962962963,22.2768L254.07407407407408,19.2704L271.85185185185185,11.062399999999991" stroke="#9d755d" stroke-width="2" opacity="1"></path></g></g><path class="foreground" aria-hidden="true" d="" display="none"></path></g><g transform="translate(0,0)"><path class="background" aria-hidden="true" d="M0,0h266.6666666666667v266.6666666666667h-266.6666666666667Z"></path><g><g class="mark-line role-mark marks" clip-path="url(#clip10)" role="graphics-object" aria-roledescription="line mark container"><path aria-label="Country: United Kingdom; Date: Mar 01, 2020; Confirmed: 36; Recovered: 8; Deaths: 0; : 8" role="graphics-symbol" aria-roledescription="line mark" d="M-1398.5185185185187,266.6624L-1380.7407407407409,266.6624L-1362.962962962963,266.6624L-1345.1851851851852,266.6624L-1327.4074074074076,266.6624L-1309.6296296296298,266.6624L-1291.851851851852,266.65706666666665L-1274.0740740740741,266.65706666666665L-1257.037037037037,266.65706666666665L-1239.2592592592594,266.65706666666665L-1221.4814814814815,266.65706666666665L-1203.703703703704,266.65706666666665L-1185.9259259259259,266.65706666666665L-1168.1481481481483,266.65706666666665L-1150.3703703703704,266.65706666666665L-1132.5925925925926,266.656L-1114.8148148148148,266.63893333333334L-1097.0370370370372,266.632L-1079.2592592592594,266.632L-1061.4814814814815,266.632L-1043.7037037037037,266.632L-1025.925925925926,266.632L-1008.1481481481482,266.632L-990.3703703703704,266.5946666666667L-972.5925925925926,266.5946666666667L-954.8148148148149,266.5946666666667L-937.0370370370371,266.5946666666667L-919.2592592592594,266.5946666666667L-901.4814814814815,266.5946666666667L-883.7037037037038,266.5946666666667L-865.925925925926,266.5946666666667L-848.1481481481482,266.5946666666667L-830.3703703703704,266.5946666666667L-812.5925925925926,266.5946666666667L-794.8148148148149,266.5946666666667L-777.0370370370371,266.5946666666667L-759.2592592592594,266.5946666666667L-741.4814814814815,266.5946666666667L-723.7037037037038,266.5946666666667L-705.925925925926,266.5946666666667L-688.1481481481483,266.4832L-670.3703703703704,266.4832L-652.5925925925927,266.4832L-634.8148148148149,266.6666666666667L-617.0370370370372,266.6666666666667L-599.2592592592594,266.6666666666667L-581.4814814814815,266.6666666666667L-563.7037037037038,266.6666666666667L-545.9259259259259,266.6666666666667L-528.1481481481482,266.6666666666667L-510.37037037037044,266.6666666666667L-492.59259259259267,266.6666666666667L-474.81481481481484,266.6666666666667L-457.03703703703707,266.6666666666667L-439.2592592592593,266.6666666666667L-421.48148148148147,266.6666666666667L-403.7037037037037,266.6666666666667L-385.9259259259259,266.6666666666667L-368.14814814814815,266.6666666666667L-350.3703703703704,266.6666666666667L-332.5925925925926,266.6666666666667L-314.81481481481484,266.6666666666667L-297.03703703703707,266.6666666666667L-279.2592592592593,266.6666666666667L-261.48148148148147,266.6666666666667L-243.70370370370372,266.6666666666667L-225.92592592592595,266.6666666666667L-208.14814814814815,266.6666666666667L-190.37037037037038,266.6666666666667L-172.5925925925926,266.6666666666667L-154.81481481481484,266.6666666666667L-137.03703703703704,266.6666666666667L-119.25925925925927,266.6666666666667L-101.48148148148148,266.6666666666667L-83.70370370370371,266.6666666666667L-65.92592592592594,266.6666666666667L-48.14814814814815,266.6666666666667L-30.37037037037037,266.6666666666667L-12.592592592592593,266.6666666666667L5.185185185185186,266.6666666666667L22.962962962962965,266.6666666666667L40.74074074074075,266.6666666666667L58.51851851851852,266.6666666666667L76.29629629629629,266.6666666666667L94.07407407407409,266.6666666666667L111.85185185185186,266.6666666666667L129.62962962962965,266.6666666666667L147.40740740740742,266.6666666666667L165.1851851851852,266.6666666666667L182.962962962963,266.6666666666667L200.74074074074076,266.6666666666667L218.51851851851853,266.6666666666667L236.2962962962963,266.6666666666667L254.07407407407408,266.6666666666667L271.85185185185185,266.6666666666667" stroke="#bab0ac" stroke-width="2" opacity="1"></path></g></g><path class="foreground" aria-hidden="true" d="" display="none"></path></g></g><g class="mark-group role-legend" role="graphics-symbol" aria-roledescription="legend" aria-label="Symbol legend for stroke color with 10 values: Belgium, Brazil, France, Germany, Iran, ending with United Kingdom"><g transform="translate(285,0)"><path class="background" aria-hidden="true" d="M0,0h79v128h-79Z" pointer-events="none"></path><g><g class="mark-group role-legend-entry"><g transform="translate(0,0)"><path class="background" aria-hidden="true" d="M0,0h0v0h0Z" pointer-events="none"></path><g><g class="mark-group role-scope Country_legend_entries" role="graphics-object" aria-roledescription="group mark container"><g transform="translate(0,0)"><path class="background" aria-hidden="true" d="M0,0h79v11h-79Z" opacity="1"></path><g><g class="mark-symbol role-legend-symbol Country_legend_symbols"><path transform="translate(6,6)" d="M-5,0L5,0" stroke="#4c78a8" stroke-width="1.5" opacity="1"></path></g><g class="mark-text role-legend-label Country_legend_labels"><text text-anchor="start" transform="translate(16,9)" font-family="Roboto Condensed" font-size="10px" fill="#000" opacity="1">Belgium</text></g></g><path class="foreground" aria-hidden="true" d="" display="none"></path></g><g transform="translate(0,13)"><path class="background" aria-hidden="true" d="M0,0h79v11h-79Z" opacity="1"></path><g><g class="mark-symbol role-legend-symbol Country_legend_symbols"><path transform="translate(6,6)" d="M-5,0L5,0" stroke="#f58518" stroke-width="1.5" opacity="1"></path></g><g class="mark-text role-legend-label Country_legend_labels"><text text-anchor="start" transform="translate(16,9)" font-family="Roboto Condensed" font-size="10px" fill="#000" opacity="1">Brazil</text></g></g><path class="foreground" aria-hidden="true" d="" display="none"></path></g><g transform="translate(0,26)"><path class="background" aria-hidden="true" d="M0,0h79v11h-79Z" opacity="1"></path><g><g class="mark-symbol role-legend-symbol Country_legend_symbols"><path transform="translate(6,6)" d="M-5,0L5,0" stroke="#e45756" stroke-width="1.5" opacity="1"></path></g><g class="mark-text role-legend-label Country_legend_labels"><text text-anchor="start" transform="translate(16,9)" font-family="Roboto Condensed" font-size="10px" fill="#000" opacity="1">France</text></g></g><path class="foreground" aria-hidden="true" d="" display="none"></path></g><g transform="translate(0,39)"><path class="background" aria-hidden="true" d="M0,0h79v11h-79Z" opacity="1"></path><g><g class="mark-symbol role-legend-symbol Country_legend_symbols"><path transform="translate(6,6)" d="M-5,0L5,0" stroke="#72b7b2" stroke-width="1.5" opacity="1"></path></g><g class="mark-text role-legend-label Country_legend_labels"><text text-anchor="start" transform="translate(16,9)" font-family="Roboto Condensed" font-size="10px" fill="#000" opacity="1">Germany</text></g></g><path class="foreground" aria-hidden="true" d="" display="none"></path></g><g transform="translate(0,52)"><path class="background" aria-hidden="true" d="M0,0h79v11h-79Z" opacity="1"></path><g><g class="mark-symbol role-legend-symbol Country_legend_symbols"><path transform="translate(6,6)" d="M-5,0L5,0" stroke="#54a24b" stroke-width="1.5" opacity="1"></path></g><g class="mark-text role-legend-label Country_legend_labels"><text text-anchor="start" transform="translate(16,9)" font-family="Roboto Condensed" font-size="10px" fill="#000" opacity="1">Iran</text></g></g><path class="foreground" aria-hidden="true" d="" display="none"></path></g><g transform="translate(0,65)"><path class="background" aria-hidden="true" d="M0,0h79v11h-79Z" opacity="1"></path><g><g class="mark-symbol role-legend-symbol Country_legend_symbols"><path transform="translate(6,6)" d="M-5,0L5,0" stroke="#eeca3b" stroke-width="1.5" opacity="1"></path></g><g class="mark-text role-legend-label Country_legend_labels"><text text-anchor="start" transform="translate(16,9)" font-family="Roboto Condensed" font-size="10px" fill="#000" opacity="1">Italy</text></g></g><path class="foreground" aria-hidden="true" d="" display="none"></path></g><g transform="translate(0,78)"><path class="background" aria-hidden="true" d="M0,0h79v11h-79Z" opacity="1"></path><g><g class="mark-symbol role-legend-symbol Country_legend_symbols"><path transform="translate(6,6)" d="M-5,0L5,0" stroke="#b279a2" stroke-width="1.5" opacity="1"></path></g><g class="mark-text role-legend-label Country_legend_labels"><text text-anchor="start" transform="translate(16,9)" font-family="Roboto Condensed" font-size="10px" fill="#000" opacity="1">Mexico</text></g></g><path class="foreground" aria-hidden="true" d="" display="none"></path></g><g transform="translate(0,91)"><path class="background" aria-hidden="true" d="M0,0h79v11h-79Z" opacity="1"></path><g><g class="mark-symbol role-legend-symbol Country_legend_symbols"><path transform="translate(6,6)" d="M-5,0L5,0" stroke="#ff9da6" stroke-width="1.5" opacity="1"></path></g><g class="mark-text role-legend-label Country_legend_labels"><text text-anchor="start" transform="translate(16,9)" font-family="Roboto Condensed" font-size="10px" fill="#000" opacity="1">Spain</text></g></g><path class="foreground" aria-hidden="true" d="" display="none"></path></g><g transform="translate(0,104)"><path class="background" aria-hidden="true" d="M0,0h79v11h-79Z" opacity="1"></path><g><g class="mark-symbol role-legend-symbol Country_legend_symbols"><path transform="translate(6,6)" d="M-5,0L5,0" stroke="#9d755d" stroke-width="1.5" opacity="1"></path></g><g class="mark-text role-legend-label Country_legend_labels"><text text-anchor="start" transform="translate(16,9)" font-family="Roboto Condensed" font-size="10px" fill="#000" opacity="1">US</text></g></g><path class="foreground" aria-hidden="true" d="" display="none"></path></g><g transform="translate(0,117)"><path class="background" aria-hidden="true" d="M0,0h79v11h-79Z" opacity="1"></path><g><g class="mark-symbol role-legend-symbol Country_legend_symbols"><path transform="translate(6,6)" d="M-5,0L5,0" stroke="#bab0ac" stroke-width="1.5" opacity="1"></path></g><g class="mark-text role-legend-label Country_legend_labels"><text text-anchor="start" transform="translate(16,9)" font-family="Roboto Condensed" font-size="10px" fill="#000" opacity="1">United Kingdom</text></g></g><path class="foreground" aria-hidden="true" d="" display="none"></path></g></g></g><path class="foreground" aria-hidden="true" d="" pointer-events="none" display="none"></path></g></g></g><path class="foreground" aria-hidden="true" d="" pointer-events="none" display="none"></path></g></g><g class="mark-group role-title"><g transform="translate(133.33333333333334,-37)"><path class="background" aria-hidden="true" d="M0,0h0v0h0Z" pointer-events="none"></path><g><g class="mark-text role-title-text" role="graphics-symbol" aria-roledescription="title" aria-label="Title text 'Recovered (total) [2020-06-03]'" pointer-events="none"><text text-anchor="middle" transform="translate(0,10)" font-family="Roboto Condensed" font-size="13px" font-weight="normal" fill="#000" opacity="1"><tspan>Recovered (total)</tspan><tspan x="0" dy="15">[2020-06-03]</tspan></text></g></g><path class="foreground" aria-hidden="true" d="" pointer-events="none" display="none"></path></g></g></g><path class="foreground" aria-hidden="true" d="" display="none"></path></g></g></g></svg>