<svg class="marks" width="996" height="491" viewBox="0 0 996 491" version="1.1" xmlns="http://www.w3.org/2000/svg" xmlns:xlink="http://www.w3.org/1999/xlink"><defs><clipPath id="clip1"><rect x="0" y="0" width="400" height="400"></rect></clipPath><clipPath id="clip2"><rect x="0" y="0" width="400" height="400"></rect></clipPath><clipPath id="clip3"><rect x="0" y="0" width="400" height="400"></rect></clipPath><clipPath id="clip4"><rect x="0" y="0" width="400" height="400"></rect></clipPath><clipPath id="clip5"><rect x="0" y="0" width="400" height="400"></rect></clipPath><clipPath id="clip6"><rect x="0" y="0" width="400" height="400"></rect></clipPath><clipPath id="clip7"><rect x="0" y="0" width="400" height="400"></rect></clipPath><clipPath id="clip8"><rect x="0" y="0" width="400" height="400"></rect></clipPath><clipPath id="clip9"><rect x="0" y="0" width="400" height="400"></rect></clipPath></defs><rect width="996" height="491" fill="white"></rect><g fill="none" stroke-miterlimit="10" transform="translate(50,59)"><g class="mark-group role-frame root" role="graphics-object" aria-roledescription="group mark container"><g transform="translate(0,0)"><path class="background" aria-hidden="true" d="M0,0h0v400h0Z"></path><g><g class="mark-group role-scope concat_0_group" role="graphics-object" aria-roledescription="group mark container"><g transform="translate(0,0)"><path class="background" aria-hidden="true" d="M0,0h400v400h-400Z" stroke="#ddd" stroke-width="0"></path><g><g class="mark-group role-axis" aria-hidden="true"><g transform="translate(0.5,0.5)"><path class="background" aria-hidden="true" d="M0,0h0v0h0Z" pointer-events="none"></path><g><g class="mark-rule role-axis-grid" pointer-events="none"><line transform="translate(0,400)" x2="400" y2="0" stroke="#ddd" stroke-width="1" opacity="1"></line><line transform="translate(0,356)" x2="400" y2="0" stroke="#ddd" stroke-width="1" opacity="1"></line><line transform="translate(0,311)" x2="400" y2="0" stroke="#ddd" stroke-width="1" opacity="1"></line><line transform="translate(0,267)" x2="400" y2="0" stroke="#ddd" stroke-width="1" opacity="1"></line><line transform="translate(0,222)" x2="400" y2="0" stroke="#ddd" stroke-width="1" opacity="1"></line><line transform="translate(0,178)" x2="400" y2="0" stroke="#ddd" stroke-width="1" opacity="1"></line><line transform="translate(0,133)" x2="400" y2="0" stroke="#ddd" stroke-width="1" opacity="1"></line><line transform="translate(0,89)" x2="400" y2="0" stroke="#ddd" stroke-width="1" opacity="1"></line><line transform="translate(0,44)" x2="400" y2="0" stroke="#ddd" stroke-width="1" opacity="1"></line><line transform="translate(0,0)" x2="400" y2="0" stroke="#ddd" stroke-width="1" opacity="1"></line></g></g><path class="foreground" aria-hidden="true" d="" pointer-events="none" display="none"></path></g></g><g class="mark-group role-axis" role="graphics-symbol" aria-roledescription="axis" aria-label="X-axis titled 'Date' for a time scale with values from May 18 to June 02"><g transform="translate(0.5,400.5)"><path class="background" aria-hidden="true" d="M0,0h0v0h0Z" pointer-events="none"></path><g><g class="mark-text role-axis-label" pointer-events="none"><text text-anchor="middle" transform="translate(7.777777777777778,10)" font-family="Roboto Condensed" font-size="10px" fill="#000" opacity="1">May 19</text><text text-anchor="middle" transform="translate(61.111111111111114,10)" font-family="Roboto Condensed" font-size="10px" fill="#000" opacity="0">May 21</text><text text-anchor="middle" transform="translate(114.44444444444444,10)" font-family="Roboto Condensed" font-size="10px" fill="#000" opacity="1">May 23</text><text text-anchor="middle" transform="translate(167.77777777777777,10)" font-family="Roboto Condensed" font-size="10px" fill="#000" opacity="0">May 25</text><text text-anchor="middle" transform="translate(221.11111111111111,10)" font-family="Roboto Condensed" font-size="10px" fill="#000" opacity="1">May 27</text><text text-anchor="middle" transform="translate(274.44444444444446,10)" font-family="Roboto Condensed" font-size="10px" fill="#000" opacity="0">May 29</text><text text-anchor="middle" transform="translate(327.77777777777777,10)" font-family="Roboto Condensed" font-size="10px" fill="#000" opacity="1">May 31</text><text text-anchor="middle" transform="translate(354.44444444444446,10)" font-family="Roboto Condensed" font-size="10px" fill="#000" opacity="0">Jun 01</text></g><g class="mark-rule role-axis-domain" pointer-events="none"><line transform="translate(0,0)" x2="400" y2="0" stroke="lightgray" stroke-width="1" opacity="1"></line></g><g class="mark-text role-axis-title" pointer-events="none"><text text-anchor="middle" transform="translate(200,25)" font-family="Roboto Condensed" font-size="11px" font-weight="normal" fill="#000" opacity="1">Date</text></g></g><path class="foreground" aria-hidden="true" d="" pointer-events="none" display="none"></path></g></g><g class="mark-group role-axis" role="graphics-symbol" aria-roledescription="axis" aria-label="Y-axis titled 'Count' for a linear scale with values from -5,000 to 4,000"><g transform="translate(0.5,0.5)"><path class="background" aria-hidden="true" d="M0,0h0v0h0Z" pointer-events="none"></path><g><g class="mark-text role-axis-label" pointer-events="none"><text text-anchor="end" transform="translate(-2,403)" font-family="Roboto Condensed" font-size="10px" fill="#000" opacity="1">-5,000</text><text text-anchor="end" transform="translate(-2,358.55555555555554)" font-family="Roboto Condensed" font-size="10px" fill="#000" opacity="1">-4,000</text><text text-anchor="end" transform="translate(-2,314.11111111111114)" font-family="Roboto Condensed" font-size="10px" fill="#000" opacity="1">-3,000</text><text text-anchor="end" transform="translate(-2,269.6666666666667)" font-family="Roboto Condensed" font-size="10px" fill="#000" opacity="1">-2,000</text><text text-anchor="end" transform="translate(-2,225.22222222222223)" font-family="Roboto Condensed" font-size="10px" fill="#000" opacity="1">-1,000</text><text text-anchor="end" transform="translate(-2,180.77777777777777)" font-family="Roboto Condensed" font-size="10px" fill="#000" opacity="1">0</text><text text-anchor="end" transform="translate(-2,136.33333333333334)" font-family="Roboto Condensed" font-size="10px" fill="#000" opacity="1">1,000</text><text text-anchor="end" transform="translate(-2,91.88888888888889)" font-family="Roboto Condensed" font-size="10px" fill="#000" opacity="1">2,000</text><text text-anchor="end" transform="translate(-2,47.444444444444464)" font-family="Roboto Condensed" font-size="10px" fill="#000" opacity="1">3,000</text><text text-anchor="end" transform="translate(-2,3)" font-family="Roboto Condensed" font-size="10px" fill="#000" opacity="1">4,000</text></g><g class="mark-rule role-axis-domain" pointer-events="none"><line transform="translate(0,400)" x2="0" y2="-400" stroke="lightgray" stroke-width="1" opacity="1"></line></g><g class="mark-text role-axis-title" pointer-events="none"><text text-anchor="start" transform="translate(-45,-13)" font-family="Roboto Condensed" font-size="11px" font-weight="normal" fill="#000" opacity="1">Count</text></g></g><path class="foreground" aria-hidden="true" d="" pointer-events="none" display="none"></path></g></g><g class="mark-group role-scope concat_0_layer_0_pathgroup" role="graphics-object" aria-roledescription="group mark container"><g transform="translate(0,0)"><path class="background" aria-hidden="true" d="M0,0h400v400h-400Z"></path><g><g class="mark-line role-mark concat_0_layer_0_marks" clip-path="url(#clip1)" role="graphics-object" aria-roledescription="line mark container"><path aria-label="Type: Recovered; Date: Mar 01; Count: 0" role="graphics-symbol" aria-roledescription="line mark" d="M-2097.777777777778,177.77777777777777L-2071.1111111111113,177.77777777777777L-2044.4444444444443,177.77777777777777L-2017.7777777777778,177.77777777777777L-1991.111111111111,177.77777777777777L-1964.4444444444446,177.77777777777777L-1937.7777777777776,177.77777777777777L-1911.111111111111,177.77777777777777L-1885.5555555555554,177.73333333333335L-1858.888888888889,177.77777777777777L-1832.2222222222222,177.77777777777777L-1805.5555555555557,177.77777777777777L-1778.8888888888887,177.77777777777777L-1752.2222222222222,177.77777777777777L-1725.5555555555557,177.77777777777777L-1698.8888888888887,177.77777777777777L-1672.2222222222222,177.77777777777777L-1645.5555555555557,177.77777777777777L-1618.888888888889,177.11111111111114L-1592.2222222222222,177.77777777777777L-1565.5555555555554,177.77777777777777L-1538.888888888889,177.77777777777777L-1512.2222222222222,177.77777777777777L-1485.5555555555557,177.77777777777777L-1458.888888888889,177.77777777777777L-1432.2222222222222,177.77777777777777L-1405.5555555555554,177.77777777777777L-1378.888888888889,177.77777777777777L-1352.2222222222222,177.77777777777777L-1325.5555555555557,177.77777777777777L-1298.888888888889,177.77777777777777L-1272.2222222222222,173.91111111111113L-1245.5555555555557,177.77777777777777L-1218.888888888889,173.24444444444444L-1192.2222222222222,177.77777777777777L-1165.5555555555554,177.77777777777777L-1138.888888888889,177.77777777777777L-1112.2222222222222,177.77777777777777L-1085.5555555555557,177.77777777777777L-1058.888888888889,177.77777777777777L-1032.2222222222222,169.95555555555555L-1005.5555555555555,177.77777777777777L-978.8888888888889,177.77777777777777L-952.2222222222222,177.77777777777777L-925.5555555555557,177.77777777777777L-898.8888888888889,177.77777777777777L-872.2222222222222,170.26666666666665L-845.5555555555555,177.77777777777777L-818.8888888888888,177.77777777777777L-792.2222222222223,177.77777777777777L-765.5555555555555,177.77777777777777L-738.8888888888889,177.77777777777777L-712.2222222222222,177.77777777777777L-685.5555555555555,177.77777777777777L-658.8888888888889,157.55555555555554L-632.2222222222222,177.77777777777777L-605.5555555555555,177.77777777777777L-578.8888888888889,177.77777777777777L-552.2222222222222,177.77777777777777L-525.5555555555555,177.77777777777777L-498.8888888888889,177.77777777777777L-472.22222222222223,177.77777777777777L-445.55555555555554,177.77777777777777L-418.8888888888889,177.77777777777777L-392.22222222222223,41.37777777777778L-365.55555555555554,177.77777777777777L-338.88888888888886,177.77777777777777L-312.22222222222223,137.9111111111111L-285.55555555555554,177.77777777777777L-258.8888888888889,177.77777777777777L-232.22222222222223,177.77777777777777L-205.55555555555554,177.77777777777777L-178.88888888888889,177.77777777777777L-152.22222222222223,177.77777777777777L-125.55555555555556,177.77777777777777L-98.88888888888889,177.77777777777777L-72.22222222222221,177.77777777777777L-45.55555555555556,177.77777777777777L-18.88888888888889,177.77777777777777L7.777777777777778,177.77777777777777L34.44444444444444,177.77777777777777L61.111111111111114,177.77777777777777L87.77777777777777,177.77777777777777L114.44444444444444,177.77777777777777L141.11111111111111,177.77777777777777L167.77777777777777,177.77777777777777L194.44444444444443,177.77777777777777L221.11111111111111,177.77777777777777L247.77777777777777,177.77777777777777L274.44444444444446,177.77777777777777L301.1111111111111,177.77777777777777L327.77777777777777,177.77777777777777L354.44444444444446,177.77777777777777L381.1111111111111,398.7111111111111L407.77777777777777,177.77777777777777" stroke="#e45756" stroke-width="2" opacity="0.2"></path></g></g><path class="foreground" aria-hidden="true" d="" display="none"></path></g><g transform="translate(0,0)"><path class="background" aria-hidden="true" d="M0,0h400v400h-400Z"></path><g><g class="mark-line role-mark concat_0_layer_0_marks" clip-path="url(#clip2)" role="graphics-object" aria-roledescription="line mark container"><path aria-label="Type: Deaths; Date: Mar 01; Count: 0" role="graphics-symbol" aria-roledescription="line mark" d="M-2097.777777777778,177.77777777777777L-2071.1111111111113,177.77777777777777L-2044.4444444444443,177.77777777777777L-2017.7777777777778,177.77777777777777L-1991.111111111111,177.77777777777777L-1964.4444444444446,177.77777777777777L-1937.7777777777776,177.77777777777777L-1911.111111111111,177.77777777777777L-1885.5555555555554,177.77777777777777L-1858.888888888889,177.77777777777777L-1832.2222222222222,177.73333333333335L-1805.5555555555557,177.77777777777777L-1778.8888888888887,177.77777777777777L-1752.2222222222222,177.73333333333335L-1725.5555555555557,177.73333333333335L-1698.8888888888887,177.64444444444445L-1672.2222222222222,177.73333333333335L-1645.5555555555557,177.64444444444445L-1618.888888888889,177.73333333333335L-1592.2222222222222,177.55555555555554L-1565.5555555555554,177.59999999999997L-1538.888888888889,177.73333333333335L-1512.2222222222222,177.59999999999997L-1485.5555555555557,177.28888888888886L-1458.888888888889,176.62222222222223L-1432.2222222222222,177.11111111111114L-1405.5555555555554,176.53333333333333L-1378.888888888889,177.77777777777777L-1352.2222222222222,177.55555555555554L-1325.5555555555557,176.17777777777778L-1298.888888888889,176.26666666666665L-1272.2222222222222,175.15555555555557L-1245.5555555555557,174.71111111111114L-1218.888888888889,175.55555555555554L-1192.2222222222222,177.11111111111114L-1165.5555555555554,176.53333333333333L-1138.888888888889,174.40000000000003L-1112.2222222222222,172.71111111111114L-1085.5555555555557,173.51111111111112L-1058.888888888889,173.06666666666666L-1032.2222222222222,174.35555555555555L-1005.5555555555555,177.02222222222224L-978.8888888888889,177.24444444444444L-952.2222222222222,176.88888888888889L-925.5555555555557,172.71111111111114L-898.8888888888889,170.22222222222223L-872.2222222222222,172.00000000000003L-845.5555555555555,174.8L-818.8888888888888,172.84444444444443L-792.2222222222223,176.48888888888888L-765.5555555555555,175.99999999999997L-738.8888888888889,169.55555555555554L-712.2222222222222,170.13333333333333L-685.5555555555555,174.04444444444445L-658.8888888888889,171.95555555555555L-632.2222222222222,175.99999999999997L-605.5555555555555,177.68888888888887L-578.8888888888889,174.22222222222223L-552.2222222222222,174.17777777777778L-525.5555555555555,173.02222222222224L-498.8888888888889,172.26666666666665L-472.22222222222223,174.8L-445.55555555555554,177.06666666666666L-418.8888888888889,177.33333333333334L-392.22222222222223,173.77777777777777L-365.55555555555554,174.00000000000003L-338.88888888888886,173.91111111111113L-312.22222222222223,173.37777777777777L-285.55555555555554,171.77777777777777L-258.8888888888889,175.77777777777777L-232.22222222222223,177.55555555555554L-205.55555555555554,176.39999999999998L-178.88888888888889,175.24444444444444L-152.22222222222223,171.24444444444444L-125.55555555555556,174.71111111111114L-98.88888888888889,172.57777777777775L-72.22222222222221,176.53333333333333L-45.55555555555556,177.55555555555554L-18.88888888888889,176.93333333333334L7.777777777777778,175.77777777777777L34.44444444444444,173.86666666666665L61.111111111111114,175.99999999999997L87.77777777777777,175.37777777777777L114.44444444444444,174.8L141.11111111111111,177.51111111111112L167.77777777777777,176.39999999999998L194.44444444444443,173.51111111111112L221.11111111111111,173.55555555555554L247.77777777777777,175.73333333333335L274.44444444444446,174.04444444444445L301.1111111111111,175.77777777777777L327.77777777777777,177.77777777777777L354.44444444444446,177.42222222222225L381.1111111111111,174.88888888888886L407.77777777777777,174.48888888888888" stroke="#f58518" stroke-width="2" opacity="0.2"></path></g></g><path class="foreground" aria-hidden="true" d="" display="none"></path></g><g transform="translate(0,0)"><path class="background" aria-hidden="true" d="M0,0h400v400h-400Z"></path><g><g class="mark-line role-mark concat_0_layer_0_marks" clip-path="url(#clip3)" role="graphics-object" aria-roledescription="line mark container"><path aria-label="Type: Confirmed; Date: Mar 01; Count: 2" role="graphics-symbol" aria-roledescription="line mark" d="M-2097.777777777778,177.68888888888887L-2071.1111111111113,177.73333333333335L-2044.4444444444443,177.51111111111112L-2017.7777777777778,177.15555555555557L-1991.111111111111,175.15555555555557L-1964.4444444444446,177.46666666666667L-1937.7777777777776,175.11111111111114L-1911.111111111111,175.91111111111113L-1885.5555555555554,175.77777777777777L-1858.888888888889,173.02222222222224L-1832.2222222222222,171.33333333333334L-1805.5555555555557,173.37777777777777L-1778.8888888888887,168.22222222222223L-1752.2222222222222,171.24444444444444L-1725.5555555555557,175.06666666666666L-1698.8888888888887,174.17777777777778L-1672.2222222222222,173.91111111111113L-1645.5555555555557,173.82222222222222L-1618.888888888889,170.66666666666666L-1592.2222222222222,168.8888888888889L-1565.5555555555554,172.26666666666665L-1538.888888888889,170.17777777777775L-1512.2222222222222,172.8L-1485.5555555555557,167.11111111111111L-1458.888888888889,167.11111111111111L-1432.2222222222222,163.82222222222222L-1405.5555555555554,167.60000000000002L-1378.888888888889,160.9777777777778L-1352.2222222222222,166.53333333333333L-1325.5555555555557,163.20000000000002L-1298.888888888889,159.6888888888889L-1272.2222222222222,155.0222222222222L-1245.5555555555557,150.17777777777778L-1218.888888888889,152.7555555555556L-1192.2222222222222,163.91111111111113L-1165.5555555555554,160.57777777777778L-1138.888888888889,161.06666666666663L-1112.2222222222222,156.13333333333333L-1085.5555555555557,145.5111111111111L-1058.888888888889,145.6888888888889L-1032.2222222222222,153.6L-1005.5555555555555,157.0666666666667L-978.8888888888889,163.0222222222222L-952.2222222222222,157.11111111111111L-925.5555555555557,155.6888888888889L-898.8888888888889,156.35555555555553L-872.2222222222222,150.53333333333333L-845.5555555555555,147.73333333333332L-818.8888888888888,150.84444444444443L-792.2222222222223,152.7555555555556L-765.5555555555555,160.35555555555555L-738.8888888888889,153.55555555555554L-712.2222222222222,147.46666666666667L-685.5555555555555,144.4L-658.8888888888889,141.6888888888889L-632.2222222222222,150.66666666666669L-605.5555555555555,157.20000000000002L-578.8888888888889,165.06666666666666L-552.2222222222222,146.88888888888889L-525.5555555555555,147.5111111111111L-498.8888888888889,142.66666666666669L-472.22222222222223,158.75555555555553L-445.55555555555554,152.8L-418.8888888888889,167.33333333333334L-392.22222222222223,159.82222222222222L-365.55555555555554,155.7777777777778L-338.88888888888886,146.57777777777778L-312.22222222222223,146.44444444444446L-285.55555555555554,149.2444444444444L-258.8888888888889,148.6222222222222L-232.22222222222223,159.95555555555555L-205.55555555555554,162.31111111111113L-178.88888888888889,151.0222222222222L-152.22222222222223,149.46666666666667L-125.55555555555556,147.86666666666667L-98.88888888888889,150L-72.22222222222221,156.8888888888889L-45.55555555555556,157.0666666666667L-18.88888888888889,167.37777777777777L7.777777777777778,159.0222222222222L34.44444444444444,145.6L61.111111111111114,148.9333333333333L87.77777777777777,149.46666666666667L114.44444444444444,160.93333333333334L141.11111111111111,165.73333333333332L167.77777777777777,160.7111111111111L194.44444444444443,151.2444444444444L221.11111111111111,148.9777777777778L247.77777777777777,149.3777777777778L274.44444444444446,144.48888888888888L301.1111111111111,149.46666666666667L327.77777777777777,158.7111111111111L354.44444444444446,165.6888888888889L381.1111111111111,143.33333333333331L407.77777777777777,79.37777777777777" stroke="#4c78a8" stroke-width="2" opacity="0.2"></path></g></g><path class="foreground" aria-hidden="true" d="" display="none"></path></g></g><g class="mark-group role-scope concat_0_layer_1_pathgroup" role="graphics-object" aria-roledescription="group mark container"><g transform="translate(0,0)"><path class="background" aria-hidden="true" d="M0,0h400v400h-400Z"></path><g><g class="mark-line role-mark concat_0_layer_1_marks" clip-path="url(#clip4)" role="graphics-object" aria-roledescription="line mark container"><path aria-label="Type: Recovered; Date: Mar 01; Count: 0" role="graphics-symbol" aria-roledescription="line mark" d="M-1937.7777777777776,177.77777777777777L-1911.111111111111,177.77777777777777L-1885.5555555555554,177.7714285714286L-1858.888888888889,177.7714285714286L-1832.2222222222222,177.7714285714286L-1805.5555555555557,177.7714285714286L-1778.8888888888887,177.7714285714286L-1752.2222222222222,177.7714285714286L-1725.5555555555557,177.7714285714286L-1698.8888888888887,177.77777777777777L-1672.2222222222222,177.77777777777777L-1645.5555555555557,177.77777777777777L-1618.888888888889,177.6825396825397L-1592.2222222222222,177.6825396825397L-1565.5555555555554,177.6825396825397L-1538.888888888889,177.6825396825397L-1512.2222222222222,177.6825396825397L-1485.5555555555557,177.6825396825397L-1458.888888888889,177.6825396825397L-1432.2222222222222,177.77777777777777L-1405.5555555555554,177.77777777777777L-1378.888888888889,177.77777777777777L-1352.2222222222222,177.77777777777777L-1325.5555555555557,177.77777777777777L-1298.888888888889,177.77777777777777L-1272.2222222222222,177.2253968253968L-1245.5555555555557,177.2253968253968L-1218.888888888889,176.57777777777775L-1192.2222222222222,176.57777777777775L-1165.5555555555554,176.57777777777775L-1138.888888888889,176.57777777777775L-1112.2222222222222,176.57777777777775L-1085.5555555555557,177.1301587301587L-1058.888888888889,177.1301587301587L-1032.2222222222222,176.66031746031746L-1005.5555555555555,176.66031746031746L-978.8888888888889,176.66031746031746L-952.2222222222222,176.66031746031746L-925.5555555555557,176.66031746031746L-898.8888888888889,176.66031746031746L-872.2222222222222,175.58730158730157L-845.5555555555555,176.7047619047619L-818.8888888888888,176.7047619047619L-792.2222222222223,176.7047619047619L-765.5555555555555,176.7047619047619L-738.8888888888889,176.7047619047619L-712.2222222222222,176.7047619047619L-685.5555555555555,177.77777777777777L-658.8888888888889,174.88888888888886L-632.2222222222222,174.88888888888886L-605.5555555555555,174.88888888888886L-578.8888888888889,174.88888888888886L-552.2222222222222,174.88888888888886L-525.5555555555555,174.88888888888886L-498.8888888888889,174.88888888888886L-472.22222222222223,177.77777777777777L-445.55555555555554,177.77777777777777L-418.8888888888889,177.77777777777777L-392.22222222222223,158.29206349206348L-365.55555555555554,158.29206349206348L-338.88888888888886,158.29206349206348L-312.22222222222223,152.5968253968254L-285.55555555555554,152.5968253968254L-258.8888888888889,152.5968253968254L-232.22222222222223,152.5968253968254L-205.55555555555554,172.0825396825397L-178.88888888888889,172.0825396825397L-152.22222222222223,172.0825396825397L-125.55555555555556,177.77777777777777L-98.88888888888889,177.77777777777777L-72.22222222222221,177.77777777777777L-45.55555555555556,177.77777777777777L-18.88888888888889,177.77777777777777L7.777777777777778,177.77777777777777L34.44444444444444,177.77777777777777L61.111111111111114,177.77777777777777L87.77777777777777,177.77777777777777L114.44444444444444,177.77777777777777L141.11111111111111,177.77777777777777L167.77777777777777,177.77777777777777L194.44444444444443,177.77777777777777L221.11111111111111,177.77777777777777L247.77777777777777,177.77777777777777L274.44444444444446,177.77777777777777L301.1111111111111,177.77777777777777L327.77777777777777,177.77777777777777L354.44444444444446,177.77777777777777L381.1111111111111,209.33968253968254L407.77777777777777,209.33968253968254" stroke="#e45756" stroke-width="2" opacity="1"></path></g></g><path class="foreground" aria-hidden="true" d="" display="none"></path></g><g transform="translate(0,0)"><path class="background" aria-hidden="true" d="M0,0h400v400h-400Z"></path><g><g class="mark-line role-mark concat_0_layer_1_marks" clip-path="url(#clip5)" role="graphics-object" aria-roledescription="line mark container"><path aria-label="Type: Deaths; Date: Mar 01; Count: 0" role="graphics-symbol" aria-roledescription="line mark" d="M-1937.7777777777776,177.77777777777777L-1911.111111111111,177.77777777777777L-1885.5555555555554,177.77777777777777L-1858.888888888889,177.77777777777777L-1832.2222222222222,177.7714285714286L-1805.5555555555557,177.7714285714286L-1778.8888888888887,177.7714285714286L-1752.2222222222222,177.76507936507934L-1725.5555555555557,177.75873015873015L-1698.8888888888887,177.73968253968252L-1672.2222222222222,177.73333333333335L-1645.5555555555557,177.72063492063492L-1618.888888888889,177.71428571428572L-1592.2222222222222,177.6825396825397L-1565.5555555555554,177.66349206349207L-1538.888888888889,177.66349206349207L-1512.2222222222222,177.65714285714287L-1485.5555555555557,177.59365079365082L-1458.888888888889,177.44761904761904L-1432.2222222222222,177.35873015873014L-1405.5555555555554,177.21269841269844L-1378.888888888889,177.23809523809524L-1352.2222222222222,177.21269841269844L-1325.5555555555557,177.00952380952378L-1298.888888888889,176.8634920634921L-1272.2222222222222,176.65396825396823L-1245.5555555555557,176.31111111111113L-1218.888888888889,176.1714285714286L-1192.2222222222222,176.07619047619045L-1165.5555555555554,175.93015873015872L-1138.888888888889,175.67619047619044L-1112.2222222222222,175.16825396825396L-1085.5555555555557,174.93333333333334L-1058.888888888889,174.69841269841265L-1032.2222222222222,174.52698412698413L-1005.5555555555555,174.5142857142857L-978.8888888888889,174.61587301587304L-952.2222222222222,174.9714285714286L-925.5555555555557,174.9714285714286L-898.8888888888889,174.50158730158734L-872.2222222222222,174.34920634920636L-845.5555555555555,174.41269841269843L-818.8888888888888,173.81587301587302L-792.2222222222223,173.7079365079365L-765.5555555555555,173.5809523809524L-738.8888888888889,173.13015873015877L-712.2222222222222,173.11746031746029L-685.5555555555555,173.40952380952382L-658.8888888888889,173.0031746031746L-632.2222222222222,173.45396825396824L-605.5555555555555,173.62539682539682L-578.8888888888889,173.3714285714286L-552.2222222222222,174.03174603174602L-525.5555555555555,174.44444444444446L-498.8888888888889,174.19047619047623L-472.22222222222223,174.5968253968254L-445.55555555555554,174.74920634920633L-418.8888888888889,174.69841269841265L-392.22222222222223,174.63492063492066L-365.55555555555554,174.60952380952378L-338.88888888888886,174.73650793650793L-312.22222222222223,174.89523809523808L-285.55555555555554,174.46349206349208L-258.8888888888889,174.27936507936508L-232.22222222222223,174.31111111111113L-205.55555555555554,174.68571428571428L-178.88888888888889,174.8634920634921L-152.22222222222223,174.4825396825397L-125.55555555555556,174.67301587301586L-98.88888888888889,174.78730158730156L-72.22222222222221,174.89523809523808L-45.55555555555556,174.89523809523808L-18.88888888888889,174.9714285714286L7.777777777777778,175.04761904761904L34.44444444444444,175.42222222222225L61.111111111111114,175.6063492063492L87.77777777777777,176.0063492063492L114.44444444444444,175.75873015873015L141.11111111111111,175.75238095238097L167.77777777777777,175.67619047619044L194.44444444444443,175.35238095238097L221.11111111111111,175.3079365079365L247.77777777777777,175.26984126984124L274.44444444444446,175.0793650793651L301.1111111111111,175.21904761904761L327.77777777777777,175.25714285714287L354.44444444444446,175.4031746031746L381.1111111111111,175.59999999999997L407.77777777777777,175.73333333333335" stroke="#f58518" stroke-width="2" opacity="1"></path></g></g><path class="foreground" aria-hidden="true" d="" display="none"></path></g><g transform="translate(0,0)"><path class="background" aria-hidden="true" d="M0,0h400v400h-400Z"></path><g><g class="mark-line role-mark concat_0_layer_1_marks" clip-path="url(#clip6)" role="graphics-object" aria-roledescription="line mark container"><path aria-label="Type: Confirmed; Date: Mar 01; Count: 0" role="graphics-symbol" aria-roledescription="line mark" d="M-1937.7777777777776,176.83174603174604L-1911.111111111111,176.57777777777775L-1885.5555555555554,176.29841269841268L-1858.888888888889,175.65714285714287L-1832.2222222222222,174.8253968253968L-1805.5555555555557,174.5714285714286L-1778.8888888888887,173.25079365079367L-1752.2222222222222,172.69841269841265L-1725.5555555555557,172.57777777777775L-1698.8888888888887,172.34920634920633L-1672.2222222222222,172.47619047619045L-1645.5555555555557,172.83174603174604L-1618.888888888889,172.44444444444446L-1592.2222222222222,172.53968253968256L-1565.5555555555554,172.68571428571428L-1538.888888888889,171.98730158730154L-1512.2222222222222,171.79047619047623L-1485.5555555555557,170.8190476190476L-1458.888888888889,169.8603174603175L-1432.2222222222222,168.8825396825397L-1405.5555555555554,168.6984126984127L-1378.888888888889,167.0857142857143L-1352.2222222222222,166.56507936507933L-1325.5555555555557,165.19365079365082L-1298.888888888889,164.13333333333333L-1272.2222222222222,162.40634920634918L-1245.5555555555557,160.45714285714286L-1218.888888888889,158.3365079365079L-1192.2222222222222,158.75555555555553L-1165.5555555555554,157.9047619047619L-1138.888888888889,157.6L-1112.2222222222222,157.0920634920635L-1085.5555555555557,155.73333333333332L-1058.888888888889,155.0920634920635L-1032.2222222222222,155.21269841269842L-1005.5555555555555,154.23492063492063L-978.8888888888889,154.58412698412695L-952.2222222222222,154.01904761904763L-925.5555555555557,153.95555555555552L-898.8888888888889,155.5047619047619L-872.2222222222222,156.19682539682543L-845.5555555555555,155.35873015873017L-818.8888888888888,154.46984126984125L-792.2222222222223,153.00317460317459L-765.5555555555555,153.4666666666667L-738.8888888888889,153.16190476190474L-712.2222222222222,151.89206349206347L-685.5555555555555,151.01587301587304L-658.8888888888889,150.15238095238095L-632.2222222222222,150.12698412698415L-605.5555555555555,150.76190476190473L-578.8888888888889,151.43492063492064L-552.2222222222222,150.48253968253968L-525.5555555555555,150.48888888888888L-498.8888888888889,150.24126984126985L-472.22222222222223,152.6793650793651L-445.55555555555554,152.98412698412696L-418.8888888888889,154.431746031746L-392.22222222222223,153.6825396825397L-365.55555555555554,154.95238095238096L-338.88888888888886,154.81904761904764L-312.22222222222223,155.35873015873017L-285.55555555555554,154L-258.8888888888889,153.4031746031746L-232.22222222222223,152.34920634920636L-205.55555555555554,152.7047619047619L-178.88888888888889,152.02539682539685L-152.22222222222223,152.43809523809526L-125.55555555555556,152.64126984126983L-98.88888888888889,152.74920634920636L-72.22222222222221,153.93015873015875L-45.55555555555556,153.51746031746032L-18.88888888888889,154.24126984126985L7.777777777777778,155.38412698412696L34.44444444444444,154.831746031746L61.111111111111114,154.98412698412696L87.77777777777777,154.90793650793654L114.44444444444444,155.48571428571427L141.11111111111111,156.72380952380954L167.77777777777777,155.77142857142857L194.44444444444443,154.6603174603175L221.11111111111111,155.1428571428571L247.77777777777777,155.20634920634922L274.44444444444446,154.49523809523805L301.1111111111111,152.8571428571429L327.77777777777777,151.85396825396822L354.44444444444446,152.56507936507933L381.1111111111111,151.43492063492064L407.77777777777777,141.49206349206347" stroke="#4c78a8" stroke-width="2" opacity="1"></path></g></g><path class="foreground" aria-hidden="true" d="" display="none"></path></g></g><g class="mark-group role-title"><g transform="translate(200,-54)"><path class="background" aria-hidden="true" d="M0,0h0v0h0Z" pointer-events="none"></path><g><g class="mark-text role-title-text" role="graphics-symbol" aria-roledescription="title" aria-label="Title text '7-day average (light color: daily values) [2020-06-03]'" pointer-events="none"><text text-anchor="middle" transform="translate(0,10)" font-family="Roboto Condensed" font-size="13px" font-weight="normal" fill="#000" opacity="1"><tspan>7-day average (light color: daily values)</tspan><tspan x="0" dy="15">[2020-06-03]</tspan></text></g></g><path class="foreground" aria-hidden="true" d="" pointer-events="none" display="none"></path></g></g></g><path class="foreground" aria-hidden="true" d="" display="none"></path></g></g><g class="mark-group role-scope concat_1_group" role="graphics-object" aria-roledescription="group mark container"><g transform="translate(465,0)"><path class="background" aria-hidden="true" d="M0,0h400v400h-400Z" stroke="#ddd" stroke-width="0"></path><g><g class="mark-group role-axis" aria-hidden="true"><g transform="translate(0.5,0.5)"><path class="background" aria-hidden="true" d="M0,0h0v0h0Z" pointer-events="none"></path><g><g class="mark-rule role-axis-grid" pointer-events="none"><line transform="translate(0,400)" x2="400" y2="0" stroke="#ddd" stroke-width="1" opacity="1"></line><line transform="translate(0,356)" x2="400" y2="0" stroke="#ddd" stroke-width="1" opacity="1"></line><line transform="translate(0,311)" x2="400" y2="0" stroke="#ddd" stroke-width="1" opacity="1"></line><line transform="translate(0,267)" x2="400" y2="0" stroke="#ddd" stroke-width="1" opacity="1"></line><line transform="translate(0,222)" x2="400" y2="0" stroke="#ddd" stroke-width="1" opacity="1"></line><line transform="translate(0,178)" x2="400" y2="0" stroke="#ddd" stroke-width="1" opacity="1"></line><line transform="translate(0,133)" x2="400" y2="0" stroke="#ddd" stroke-width="1" opacity="1"></line><line transform="translate(0,89)" x2="400" y2="0" stroke="#ddd" stroke-width="1" opacity="1"></line><line transform="translate(0,44)" x2="400" y2="0" stroke="#ddd" stroke-width="1" opacity="1"></line><line transform="translate(0,0)" x2="400" y2="0" stroke="#ddd" stroke-width="1" opacity="1"></line></g></g><path class="foreground" aria-hidden="true" d="" pointer-events="none" display="none"></path></g></g><g class="mark-group role-axis" role="graphics-symbol" aria-roledescription="axis" aria-label="X-axis titled 'Date' for a time scale with values from May 18 to June 02"><g transform="translate(0.5,400.5)"><path class="background" aria-hidden="true" d="M0,0h0v0h0Z" pointer-events="none"></path><g><g class="mark-text role-axis-label" pointer-events="none"><text text-anchor="middle" transform="translate(7.777777777777778,10)" font-family="Roboto Condensed" font-size="10px" fill="#000" opacity="1">May 19</text><text text-anchor="middle" transform="translate(61.111111111111114,10)" font-family="Roboto Condensed" font-size="10px" fill="#000" opacity="0">May 21</text><text text-anchor="middle" transform="translate(114.44444444444444,10)" font-family="Roboto Condensed" font-size="10px" fill="#000" opacity="1">May 23</text><text text-anchor="middle" transform="translate(167.77777777777777,10)" font-family="Roboto Condensed" font-size="10px" fill="#000" opacity="0">May 25</text><text text-anchor="middle" transform="translate(221.11111111111111,10)" font-family="Roboto Condensed" font-size="10px" fill="#000" opacity="1">May 27</text><text text-anchor="middle" transform="translate(274.44444444444446,10)" font-family="Roboto Condensed" font-size="10px" fill="#000" opacity="0">May 29</text><text text-anchor="middle" transform="translate(327.77777777777777,10)" font-family="Roboto Condensed" font-size="10px" fill="#000" opacity="1">May 31</text><text text-anchor="middle" transform="translate(354.44444444444446,10)" font-family="Roboto Condensed" font-size="10px" fill="#000" opacity="0">Jun 01</text></g><g class="mark-rule role-axis-domain" pointer-events="none"><line transform="translate(0,0)" x2="400" y2="0" stroke="lightgray" stroke-width="1" opacity="1"></line></g><g class="mark-text role-axis-title" pointer-events="none"><text text-anchor="middle" transform="translate(200,25)" font-family="Roboto Condensed" font-size="11px" font-weight="normal" fill="#000" opacity="1">Date</text></g></g><path class="foreground" aria-hidden="true" d="" pointer-events="none" display="none"></path></g></g><g class="mark-group role-axis" role="graphics-symbol" aria-roledescription="axis" aria-label="Y-axis titled 'Count' for a linear scale with values from 0 to 45,000"><g transform="translate(0.5,0.5)"><path class="background" aria-hidden="true" d="M0,0h0v0h0Z" pointer-events="none"></path><g><g class="mark-text role-axis-label" pointer-events="none"><text text-anchor="end" transform="translate(-2,403)" font-family="Roboto Condensed" font-size="10px" fill="#000" opacity="1">0</text><text text-anchor="end" transform="translate(-2,358.55555555555554)" font-family="Roboto Condensed" font-size="10px" fill="#000" opacity="1">5,000</text><text text-anchor="end" transform="translate(-2,314.11111111111114)" font-family="Roboto Condensed" font-size="10px" fill="#000" opacity="1">10,000</text><text text-anchor="end" transform="translate(-2,269.6666666666667)" font-family="Roboto Condensed" font-size="10px" fill="#000" opacity="1">15,000</text><text text-anchor="end" transform="translate(-2,225.22222222222223)" font-family="Roboto Condensed" font-size="10px" fill="#000" opacity="1">20,000</text><text text-anchor="end" transform="translate(-2,180.77777777777777)" font-family="Roboto Condensed" font-size="10px" fill="#000" opacity="1">25,000</text><text text-anchor="end" transform="translate(-2,136.33333333333334)" font-family="Roboto Condensed" font-size="10px" fill="#000" opacity="1">30,000</text><text text-anchor="end" transform="translate(-2,91.88888888888889)" font-family="Roboto Condensed" font-size="10px" fill="#000" opacity="1">35,000</text><text text-anchor="end" transform="translate(-2,47.444444444444464)" font-family="Roboto Condensed" font-size="10px" fill="#000" opacity="1">40,000</text><text text-anchor="end" transform="translate(-2,3)" font-family="Roboto Condensed" font-size="10px" fill="#000" opacity="1">45,000</text></g><g class="mark-rule role-axis-domain" pointer-events="none"><line transform="translate(0,400)" x2="0" y2="-400" stroke="lightgray" stroke-width="1" opacity="1"></line></g><g class="mark-text role-axis-title" pointer-events="none"><text text-anchor="start" transform="translate(-45,-13)" font-family="Roboto Condensed" font-size="11px" font-weight="normal" fill="#000" opacity="1">Count</text></g></g><path class="foreground" aria-hidden="true" d="" pointer-events="none" display="none"></path></g></g><g class="mark-group role-scope concat_1_pathgroup" role="graphics-object" aria-roledescription="group mark container"><g transform="translate(0,0)"><path class="background" aria-hidden="true" d="M0,0h400v400h-400Z"></path><g><g class="mark-line role-mark concat_1_marks" clip-path="url(#clip7)" role="graphics-object" aria-roledescription="line mark container"><path aria-label="Type: Recovered; Date: Mar 01; Country: Sweden; Confirmed: 14; Recovered: 0; Deaths: 0; Count: 0" role="graphics-symbol" aria-roledescription="line mark" d="M-2097.777777777778,400L-2071.1111111111113,400L-2044.4444444444443,400L-2017.7777777777778,400L-1991.111111111111,400L-1964.4444444444446,400L-1937.7777777777776,400L-1911.111111111111,400L-1885.5555555555554,399.9911111111111L-1858.888888888889,399.9911111111111L-1832.2222222222222,399.9911111111111L-1805.5555555555557,399.9911111111111L-1778.8888888888887,399.9911111111111L-1752.2222222222222,399.9911111111111L-1725.5555555555557,399.9911111111111L-1698.8888888888887,399.9911111111111L-1672.2222222222222,399.9911111111111L-1645.5555555555557,399.9911111111111L-1618.888888888889,399.85777777777776L-1592.2222222222222,399.85777777777776L-1565.5555555555554,399.85777777777776L-1538.888888888889,399.85777777777776L-1512.2222222222222,399.85777777777776L-1485.5555555555557,399.85777777777776L-1458.888888888889,399.85777777777776L-1432.2222222222222,399.85777777777776L-1405.5555555555554,399.85777777777776L-1378.888888888889,399.85777777777776L-1352.2222222222222,399.85777777777776L-1325.5555555555557,399.85777777777776L-1298.888888888889,399.85777777777776L-1272.2222222222222,399.08444444444444L-1245.5555555555557,399.08444444444444L-1218.888888888889,398.1777777777778L-1192.2222222222222,398.1777777777778L-1165.5555555555554,398.1777777777778L-1138.888888888889,398.1777777777778L-1112.2222222222222,398.1777777777778L-1085.5555555555557,398.1777777777778L-1058.888888888889,398.1777777777778L-1032.2222222222222,396.61333333333334L-1005.5555555555555,396.61333333333334L-978.8888888888889,396.61333333333334L-952.2222222222222,396.61333333333334L-925.5555555555557,396.61333333333334L-898.8888888888889,396.61333333333334L-872.2222222222222,395.1111111111111L-845.5555555555555,395.1111111111111L-818.8888888888888,395.1111111111111L-792.2222222222223,395.1111111111111L-765.5555555555555,395.1111111111111L-738.8888888888889,395.1111111111111L-712.2222222222222,395.1111111111111L-685.5555555555555,395.1111111111111L-658.8888888888889,391.06666666666666L-632.2222222222222,391.06666666666666L-605.5555555555555,391.06666666666666L-578.8888888888889,391.06666666666666L-552.2222222222222,391.06666666666666L-525.5555555555555,391.06666666666666L-498.8888888888889,391.06666666666666L-472.22222222222223,391.06666666666666L-445.55555555555554,391.06666666666666L-418.8888888888889,391.06666666666666L-392.22222222222223,363.78666666666663L-365.55555555555554,363.78666666666663L-338.88888888888886,363.78666666666663L-312.22222222222223,355.81333333333333L-285.55555555555554,355.81333333333333L-258.8888888888889,355.81333333333333L-232.22222222222223,355.81333333333333L-205.55555555555554,355.81333333333333L-178.88888888888889,355.81333333333333L-152.22222222222223,355.81333333333333L-125.55555555555556,355.81333333333333L-98.88888888888889,355.81333333333333L-72.22222222222221,355.81333333333333L-45.55555555555556,355.81333333333333L-18.88888888888889,355.81333333333333L7.777777777777778,355.81333333333333L34.44444444444444,355.81333333333333L61.111111111111114,355.81333333333333L87.77777777777777,355.81333333333333L114.44444444444444,355.81333333333333L141.11111111111111,355.81333333333333L167.77777777777777,355.81333333333333L194.44444444444443,355.81333333333333L221.11111111111111,355.81333333333333L247.77777777777777,355.81333333333333L274.44444444444446,355.81333333333333L301.1111111111111,355.81333333333333L327.77777777777777,355.81333333333333L354.44444444444446,355.81333333333333L381.1111111111111,400L407.77777777777777,400" stroke="#e45756" stroke-width="2" opacity="0.7"></path></g></g><path class="foreground" aria-hidden="true" d="" display="none"></path></g><g transform="translate(0,0)"><path class="background" aria-hidden="true" d="M0,0h400v400h-400Z"></path><g><g class="mark-line role-mark concat_1_marks" clip-path="url(#clip8)" role="graphics-object" aria-roledescription="line mark container"><path aria-label="Type: Deaths; Date: Mar 01; Country: Sweden; Confirmed: 14; Recovered: 0; Deaths: 0; Count: 0" role="graphics-symbol" aria-roledescription="line mark" d="M-2097.777777777778,400L-2071.1111111111113,400L-2044.4444444444443,400L-2017.7777777777778,400L-1991.111111111111,400L-1964.4444444444446,400L-1937.7777777777776,400L-1911.111111111111,400L-1885.5555555555554,400L-1858.888888888889,400L-1832.2222222222222,399.9911111111111L-1805.5555555555557,399.9911111111111L-1778.8888888888887,399.9911111111111L-1752.2222222222222,399.9822222222222L-1725.5555555555557,399.97333333333336L-1698.8888888888887,399.94666666666666L-1672.2222222222222,399.9377777777778L-1645.5555555555557,399.9111111111111L-1618.888888888889,399.9022222222222L-1592.2222222222222,399.85777777777776L-1565.5555555555554,399.8222222222222L-1538.888888888889,399.81333333333333L-1512.2222222222222,399.77777777777777L-1485.5555555555557,399.68L-1458.888888888889,399.44888888888886L-1432.2222222222222,399.31555555555553L-1405.5555555555554,399.06666666666666L-1378.888888888889,399.06666666666666L-1352.2222222222222,399.02222222222224L-1325.5555555555557,398.7022222222222L-1298.888888888889,398.4L-1272.2222222222222,397.87555555555554L-1245.5555555555557,397.26222222222225L-1218.888888888889,396.81777777777774L-1192.2222222222222,396.68444444444447L-1165.5555555555554,396.43555555555554L-1138.888888888889,395.76L-1112.2222222222222,394.74666666666667L-1085.5555555555557,393.8933333333333L-1058.888888888889,392.9511111111111L-1032.2222222222222,392.26666666666665L-1005.5555555555555,392.11555555555555L-978.8888888888889,392.0088888888889L-952.2222222222222,391.8311111111111L-925.5555555555557,390.8177777777778L-898.8888888888889,389.3066666666667L-872.2222222222222,388.1511111111111L-845.5555555555555,387.55555555555554L-818.8888888888888,386.56888888888886L-792.2222222222223,386.3111111111111L-765.5555555555555,385.9555555555556L-738.8888888888889,384.3111111111111L-712.2222222222222,382.78222222222223L-685.5555555555555,382.03555555555556L-658.8888888888889,380.87111111111113L-632.2222222222222,380.5155555555555L-605.5555555555555,380.4977777777778L-578.8888888888889,379.7866666666667L-552.2222222222222,379.06666666666666L-525.5555555555555,378.11555555555555L-498.8888888888889,377.0133333333333L-472.22222222222223,376.41777777777776L-445.55555555555554,376.27555555555557L-418.8888888888889,376.18666666666667L-392.22222222222223,375.38666666666666L-365.55555555555554,374.63111111111107L-338.88888888888886,373.85777777777776L-312.22222222222223,372.97777777777776L-285.55555555555554,371.77777777777777L-258.8888888888889,371.37777777777774L-232.22222222222223,371.3333333333333L-205.55555555555554,371.0577777777778L-178.88888888888889,370.5511111111111L-152.22222222222223,369.24444444444447L-125.55555555555556,368.6311111111111L-98.88888888888889,367.5911111111111L-72.22222222222221,367.34222222222223L-45.55555555555556,367.29777777777775L-18.88888888888889,367.12888888888887L7.777777777777778,366.7288888888889L34.44444444444444,365.9466666666667L61.111111111111114,365.5911111111111L87.77777777777777,365.11111111111114L114.44444444444444,364.5155555555556L141.11111111111111,364.4622222222222L167.77777777777777,364.18666666666667L194.44444444444443,363.3333333333333L221.11111111111111,362.4888888888889L247.77777777777777,362.08L274.44444444444446,361.3333333333333L301.1111111111111,360.93333333333334L327.77777777777777,360.93333333333334L354.44444444444446,360.8622222222222L381.1111111111111,360.28444444444443L407.77777777777777,359.62666666666667" stroke="#f58518" stroke-width="2" opacity="0.7"></path></g></g><path class="foreground" aria-hidden="true" d="" display="none"></path></g><g transform="translate(0,0)"><path class="background" aria-hidden="true" d="M0,0h400v400h-400Z"></path><g><g class="mark-line role-mark concat_1_marks" clip-path="url(#clip9)" role="graphics-object" aria-roledescription="line mark container"><path aria-label="Type: Confirmed; Date: Mar 01; Country: Sweden; Confirmed: 14; Recovered: 0; Deaths: 0; Count: 14" role="graphics-symbol" aria-roledescription="line mark" d="M-2097.777777777778,399.87555555555554L-2071.1111111111113,399.8666666666667L-2044.4444444444443,399.81333333333333L-2017.7777777777778,399.68888888888887L-1991.111111111111,399.1644444444444L-1964.4444444444446,399.1022222222222L-1937.7777777777776,398.56888888888886L-1911.111111111111,398.19555555555553L-1885.5555555555554,397.79555555555555L-1858.888888888889,396.8444444444445L-1832.2222222222222,395.55555555555554L-1805.5555555555557,394.67555555555555L-1778.8888888888887,392.76444444444445L-1752.2222222222222,391.4577777777778L-1725.5555555555557,390.91555555555556L-1698.8888888888887,390.19555555555553L-1672.2222222222222,389.4222222222222L-1645.5555555555557,388.6311111111111L-1618.888888888889,387.2088888888889L-1592.2222222222222,385.4311111111111L-1565.5555555555554,384.3288888888889L-1538.888888888889,382.8088888888889L-1512.2222222222222,381.81333333333333L-1485.5555555555557,379.68L-1458.888888888889,377.5466666666666L-1432.2222222222222,374.75555555555553L-1405.5555555555554,372.71999999999997L-1378.888888888889,369.36L-1352.2222222222222,367.11111111111114L-1325.5555555555557,364.1955555555556L-1298.888888888889,360.5777777777778L-1272.2222222222222,356.02666666666664L-1245.5555555555557,350.50666666666666L-1218.888888888889,345.50222222222226L-1192.2222222222222,342.7288888888889L-1165.5555555555554,339.2888888888889L-1138.888888888889,335.94666666666666L-1112.2222222222222,331.6177777777778L-1085.5555555555557,325.1644444444445L-1058.888888888889,318.74666666666667L-1032.2222222222222,313.9111111111111L-1005.5555555555555,309.7688888888889L-978.8888888888889,306.8177777777778L-952.2222222222222,302.68444444444447L-925.5555555555557,298.26666666666665L-898.8888888888889,293.9822222222222L-872.2222222222222,288.53333333333336L-845.5555555555555,282.52444444444444L-818.8888888888888,277.1377777777777L-792.2222222222223,272.1333333333333L-765.5555555555555,268.6488888888889L-738.8888888888889,263.80444444444447L-712.2222222222222,257.7422222222222L-685.5555555555555,251.06666666666663L-658.8888888888889,243.84888888888892L-632.2222222222222,238.4266666666667L-605.5555555555555,234.3111111111111L-578.8888888888889,231.7688888888889L-552.2222222222222,225.59111111111113L-525.5555555555555,219.5377777777778L-498.8888888888889,212.51555555555558L-472.22222222222223,208.7111111111111L-445.55555555555554,203.71555555555557L-418.8888888888889,201.62666666666667L-392.22222222222223,198.03555555555556L-365.55555555555554,193.63555555555556L-338.88888888888886,187.39555555555555L-312.22222222222223,181.1288888888889L-285.55555555555554,175.42222222222225L-258.8888888888889,169.5911111111111L-232.22222222222223,166.02666666666667L-205.55555555555554,162.93333333333334L-178.88888888888889,157.5822222222222L-152.22222222222223,151.92000000000002L-125.55555555555556,145.93777777777777L-98.88888888888889,140.38222222222223L-72.22222222222221,136.20444444444445L-45.55555555555556,132.0622222222222L-18.88888888888889,129.98222222222222L7.777777777777778,126.23111111111109L34.44444444444444,119.79555555555557L61.111111111111114,114.02666666666667L87.77777777777777,108.36444444444444L114.44444444444444,104.99555555555555L141.11111111111111,102.58666666666664L167.77777777777777,99.17333333333333L194.44444444444443,93.86666666666667L221.11111111111111,88.10666666666668L247.77777777777777,82.42666666666665L274.44444444444446,75.76888888888891L301.1111111111111,70.10666666666667L327.77777777777777,66.29333333333332L354.44444444444446,63.87555555555555L381.1111111111111,56.98666666666665L407.77777777777777,37.306666666666686" stroke="#4c78a8" stroke-width="2" opacity="0.7"></path></g></g><path class="foreground" aria-hidden="true" d="" display="none"></path></g></g><g class="mark-group role-title"><g transform="translate(200,-54)"><path class="background" aria-hidden="true" d="M0,0h0v0h0Z" pointer-events="none"></path><g><g class="mark-text role-title-text" role="graphics-symbol" aria-roledescription="title" aria-label="Title text 'Total [2020-06-03]'" pointer-events="none"><text text-anchor="middle" transform="translate(0,10)" font-family="Roboto Condensed" font-size="13px" font-weight="normal" fill="#000" opacity="1"><tspan>Total</tspan><tspan x="0" dy="15">[2020-06-03]</tspan></text></g></g><path class="foreground" aria-hidden="true" d="" pointer-events="none" display="none"></path></g></g></g><path class="foreground" aria-hidden="true" d="" display="none"></path></g></g><g class="mark-group role-legend" role="graphics-symbol" aria-roledescription="legend" aria-label="Symbol legend for stroke color with 3 values: Confirmed, Deaths, Recovered"><g transform="translate(883,0)"><path class="background" aria-hidden="true" d="M0,0h58v37h-58Z" pointer-events="none"></path><g><g class="mark-group role-legend-entry"><g transform="translate(0,0)"><path class="background" aria-hidden="true" d="M0,0h0v0h0Z" pointer-events="none"></path><g><g class="mark-group role-scope" role="graphics-object" aria-roledescription="group mark container"><g transform="translate(0,0)"><path class="background" aria-hidden="true" d="M0,0h58v11h-58Z" pointer-events="none" opacity="1"></path><g><g class="mark-symbol role-legend-symbol" pointer-events="none"><path transform="translate(6,6)" d="M-5,0L5,0" stroke="#4c78a8" stroke-width="1.5" opacity="0.2"></path></g><g class="mark-text role-legend-label" pointer-events="none"><text text-anchor="start" transform="translate(16,9)" font-family="Roboto Condensed" font-size="10px" fill="#000" opacity="1">Confirmed</text></g></g><path class="foreground" aria-hidden="true" d="" pointer-events="none" display="none"></path></g><g transform="translate(0,13)"><path class="background" aria-hidden="true" d="M0,0h58v11h-58Z" pointer-events="none" opacity="1"></path><g><g class="mark-symbol role-legend-symbol" pointer-events="none"><path transform="translate(6,6)" d="M-5,0L5,0" stroke="#f58518" stroke-width="1.5" opacity="0.2"></path></g><g class="mark-text role-legend-label" pointer-events="none"><text text-anchor="start" transform="translate(16,9)" font-family="Roboto Condensed" font-size="10px" fill="#000" opacity="1">Deaths</text></g></g><path class="foreground" aria-hidden="true" d="" pointer-events="none" display="none"></path></g><g transform="translate(0,26)"><path class="background" aria-hidden="true" d="M0,0h58v11h-58Z" pointer-events="none" opacity="1"></path><g><g class="mark-symbol role-legend-symbol" pointer-events="none"><path transform="translate(6,6)" d="M-5,0L5,0" stroke="#e45756" stroke-width="1.5" opacity="0.2"></path></g><g class="mark-text role-legend-label" pointer-events="none"><text text-anchor="start" transform="translate(16,9)" font-family="Roboto Condensed" font-size="10px" fill="#000" opacity="1">Recovered</text></g></g><path class="foreground" aria-hidden="true" d="" pointer-events="none" display="none"></path></g></g></g><path class="foreground" aria-hidden="true" d="" pointer-events="none" display="none"></path></g></g></g><path class="foreground" aria-hidden="true" d="" pointer-events="none" display="none"></path></g></g></g><path class="foreground" aria-hidden="true" d="" display="none"></path></g></g></g></svg>