<svg class="marks" width="996" height="491" viewBox="0 0 996 491" version="1.1" xmlns="http://www.w3.org/2000/svg" xmlns:xlink="http://www.w3.org/1999/xlink"><defs><clipPath id="clip1"><rect x="0" y="0" width="400" height="400"></rect></clipPath><clipPath id="clip2"><rect x="0" y="0" width="400" height="400"></rect></clipPath><clipPath id="clip3"><rect x="0" y="0" width="400" height="400"></rect></clipPath><clipPath id="clip4"><rect x="0" y="0" width="400" height="400"></rect></clipPath><clipPath id="clip5"><rect x="0" y="0" width="400" height="400"></rect></clipPath><clipPath id="clip6"><rect x="0" y="0" width="400" height="400"></rect></clipPath><clipPath id="clip7"><rect x="0" y="0" width="400" height="400"></rect></clipPath><clipPath id="clip8"><rect x="0" y="0" width="400" height="400"></rect></clipPath><clipPath id="clip9"><rect x="0" y="0" width="400" height="400"></rect></clipPath></defs><rect width="996" height="491" fill="white"></rect><g fill="none" stroke-miterlimit="10" transform="translate(50,59)"><g class="mark-group role-frame root" role="graphics-object" aria-roledescription="group mark container"><g transform="translate(0,0)"><path class="background" aria-hidden="true" d="M0,0h0v400h0Z"></path><g><g class="mark-group role-scope concat_0_group" role="graphics-object" aria-roledescription="group mark container"><g transform="translate(0,0)"><path class="background" aria-hidden="true" d="M0,0h400v400h-400Z" stroke="#ddd" stroke-width="0"></path><g><g class="mark-group role-axis" aria-hidden="true"><g transform="translate(0.5,0.5)"><path class="background" aria-hidden="true" d="M0,0h0v0h0Z" pointer-events="none"></path><g><g class="mark-rule role-axis-grid" pointer-events="none"><line transform="translate(0,400)" x2="400" y2="0" stroke="#ddd" stroke-width="1" opacity="1"></line><line transform="translate(0,364)" x2="400" y2="0" stroke="#ddd" stroke-width="1" opacity="1"></line><line transform="translate(0,327)" x2="400" y2="0" stroke="#ddd" stroke-width="1" opacity="1"></line><line transform="translate(0,291)" x2="400" y2="0" stroke="#ddd" stroke-width="1" opacity="1"></line><line transform="translate(0,255)" x2="400" y2="0" stroke="#ddd" stroke-width="1" opacity="1"></line><line transform="translate(0,218)" x2="400" y2="0" stroke="#ddd" stroke-width="1" opacity="1"></line><line transform="translate(0,182)" x2="400" y2="0" stroke="#ddd" stroke-width="1" opacity="1"></line><line transform="translate(0,145)" x2="400" y2="0" stroke="#ddd" stroke-width="1" opacity="1"></line><line transform="translate(0,109)" x2="400" y2="0" stroke="#ddd" stroke-width="1" opacity="1"></line><line transform="translate(0,73)" x2="400" y2="0" stroke="#ddd" stroke-width="1" opacity="1"></line><line transform="translate(0,36)" x2="400" y2="0" stroke="#ddd" stroke-width="1" opacity="1"></line><line transform="translate(0,0)" x2="400" y2="0" stroke="#ddd" stroke-width="1" opacity="1"></line></g></g><path class="foreground" aria-hidden="true" d="" pointer-events="none" display="none"></path></g></g><g class="mark-group role-axis" role="graphics-symbol" aria-roledescription="axis" aria-label="X-axis titled 'Date' for a time scale with values from June 07 to June 22"><g transform="translate(0.5,400.5)"><path class="background" aria-hidden="true" d="M0,0h0v0h0Z" pointer-events="none"></path><g><g class="mark-text role-axis-label" pointer-events="none"><text text-anchor="middle" transform="translate(34.44444444444444,10)" font-family="Roboto Condensed" font-size="10px" fill="#000" opacity="1">Jun 09</text><text text-anchor="middle" transform="translate(87.77777777777777,10)" font-family="Roboto Condensed" font-size="10px" fill="#000" opacity="1">Jun 11</text><text text-anchor="middle" transform="translate(141.11111111111111,10)" font-family="Roboto Condensed" font-size="10px" fill="#000" opacity="1">Jun 13</text><text text-anchor="middle" transform="translate(194.44444444444443,10)" font-family="Roboto Condensed" font-size="10px" fill="#000" opacity="1">Jun 15</text><text text-anchor="middle" transform="translate(247.77777777777777,10)" font-family="Roboto Condensed" font-size="10px" fill="#000" opacity="1">Jun 17</text><text text-anchor="middle" transform="translate(301.1111111111111,10)" font-family="Roboto Condensed" font-size="10px" fill="#000" opacity="1">Jun 19</text><text text-anchor="middle" transform="translate(354.44444444444446,10)" font-family="Roboto Condensed" font-size="10px" fill="#000" opacity="1">Jun 21</text></g><g class="mark-rule role-axis-domain" pointer-events="none"><line transform="translate(0,0)" x2="400" y2="0" stroke="lightgray" stroke-width="1" opacity="1"></line></g><g class="mark-text role-axis-title" pointer-events="none"><text text-anchor="middle" transform="translate(200,25)" font-family="Roboto Condensed" font-size="11px" font-weight="normal" fill="#000" opacity="1">Date</text></g></g><path class="foreground" aria-hidden="true" d="" pointer-events="none" display="none"></path></g></g><g class="mark-group role-axis" role="graphics-symbol" aria-roledescription="axis" aria-label="Y-axis titled 'Count' for a linear scale with values from -10 to 100"><g transform="translate(0.5,0.5)"><path class="background" aria-hidden="true" d="M0,0h0v0h0Z" pointer-events="none"></path><g><g class="mark-text role-axis-label" pointer-events="none"><text text-anchor="end" transform="translate(-2,403)" font-family="Roboto Condensed" font-size="10px" fill="#000" opacity="1">-10</text><text text-anchor="end" transform="translate(-2,366.6363636363636)" font-family="Roboto Condensed" font-size="10px" fill="#000" opacity="1">0</text><text text-anchor="end" transform="translate(-2,330.27272727272725)" font-family="Roboto Condensed" font-size="10px" fill="#000" opacity="1">10</text><text text-anchor="end" transform="translate(-2,293.90909090909093)" font-family="Roboto Condensed" font-size="10px" fill="#000" opacity="1">20</text><text text-anchor="end" transform="translate(-2,257.5454545454545)" font-family="Roboto Condensed" font-size="10px" fill="#000" opacity="1">30</text><text text-anchor="end" transform="translate(-2,221.18181818181816)" font-family="Roboto Condensed" font-size="10px" fill="#000" opacity="1">40</text><text text-anchor="end" transform="translate(-2,184.81818181818184)" font-family="Roboto Condensed" font-size="10px" fill="#000" opacity="1">50</text><text text-anchor="end" transform="translate(-2,148.45454545454547)" font-family="Roboto Condensed" font-size="10px" fill="#000" opacity="1">60</text><text text-anchor="end" transform="translate(-2,112.09090909090908)" font-family="Roboto Condensed" font-size="10px" fill="#000" opacity="1">70</text><text text-anchor="end" transform="translate(-2,75.7272727272727)" font-family="Roboto Condensed" font-size="10px" fill="#000" opacity="1">80</text><text text-anchor="end" transform="translate(-2,39.363636363636374)" font-family="Roboto Condensed" font-size="10px" fill="#000" opacity="1">90</text><text text-anchor="end" transform="translate(-2,3)" font-family="Roboto Condensed" font-size="10px" fill="#000" opacity="1">100</text></g><g class="mark-rule role-axis-domain" pointer-events="none"><line transform="translate(0,400)" x2="0" y2="-400" stroke="lightgray" stroke-width="1" opacity="1"></line></g><g class="mark-text role-axis-title" pointer-events="none"><text text-anchor="start" transform="translate(-45,-13)" font-family="Roboto Condensed" font-size="11px" font-weight="normal" fill="#000" opacity="1">Count</text></g></g><path class="foreground" aria-hidden="true" d="" pointer-events="none" display="none"></path></g></g><g class="mark-group role-scope concat_0_layer_0_pathgroup" role="graphics-object" aria-roledescription="group mark container"><g transform="translate(0,0)"><path class="background" aria-hidden="true" d="M0,0h400v400h-400Z"></path><g><g class="mark-line role-mark concat_0_layer_0_marks" clip-path="url(#clip1)" role="graphics-object" aria-roledescription="line mark container"><path aria-label="Type: Recovered; Date: Mar 01; Count: 0" role="graphics-symbol" aria-roledescription="line mark" d="M-2631.111111111111,363.6363636363636L-2604.4444444444443,363.6363636363636L-2577.777777777778,363.6363636363636L-2551.1111111111113,363.6363636363636L-2524.4444444444443,363.6363636363636L-2497.777777777778,363.6363636363636L-2471.1111111111113,363.6363636363636L-2444.4444444444443,363.6363636363636L-2418.888888888889,363.6363636363636L-2392.222222222222,360L-2365.5555555555557,363.6363636363636L-2338.888888888889,363.6363636363636L-2312.222222222222,363.6363636363636L-2285.5555555555557,363.6363636363636L-2258.8888888888887,338.1818181818182L-2232.222222222222,392.72727272727275L-2205.5555555555557,363.6363636363636L-2178.8888888888887,345.45454545454544L-2152.222222222222,363.6363636363636L-2125.5555555555557,363.6363636363636L-2098.8888888888887,301.8181818181818L-2072.222222222222,312.72727272727275L-2045.5555555555557,363.6363636363636L-2018.888888888889,309.09090909090907L-1992.2222222222222,345.45454545454544L-1965.5555555555554,269.09090909090907L-1938.888888888889,309.09090909090907L-1912.2222222222224,301.8181818181818L-1885.5555555555554,287.2727272727273L-1858.888888888889,283.6363636363636L-1832.2222222222222,214.54545454545456L-1805.5555555555557,265.45454545454544L-1778.8888888888887,149.09090909090907L-1752.2222222222222,272.72727272727275L-1725.5555555555557,47.272727272727266L-1698.8888888888887,247.27272727272725L-1672.2222222222222,247.27272727272725L-1645.5555555555557,3.6363636363636154L-1618.888888888889,94.54545454545453L-1592.2222222222222,163.63636363636363L-1565.5555555555554,134.54545454545453L-1538.888888888889,36.363636363636374L-1512.2222222222222,189.09090909090912L-1485.5555555555557,203.63636363636363L-1458.888888888889,160L-1432.2222222222222,43.636363636363654L-1405.5555555555554,120.00000000000001L-1378.888888888889,72.7272727272727L-1352.2222222222222,120.00000000000001L-1325.5555555555557,363.6363636363636L-1298.888888888889,105.45454545454547L-1272.2222222222222,163.63636363636363L-1245.5555555555557,200L-1218.888888888889,192.72727272727272L-1192.2222222222222,243.63636363636365L-1165.5555555555554,261.8181818181818L-1138.888888888889,225.4545454545455L-1112.2222222222222,305.4545454545455L-1085.5555555555557,320L-1058.888888888889,290.90909090909093L-1032.2222222222222,312.72727272727275L-1005.5555555555555,294.5454545454545L-978.8888888888889,301.8181818181818L-952.2222222222222,323.6363636363636L-925.5555555555557,341.8181818181818L-898.8888888888889,327.27272727272725L-872.2222222222222,301.8181818181818L-845.5555555555555,345.45454545454544L-818.8888888888888,327.27272727272725L-792.2222222222223,334.54545454545456L-765.5555555555555,363.6363636363636L-738.8888888888889,363.6363636363636L-712.2222222222222,352.72727272727275L-685.5555555555555,349.0909090909091L-658.8888888888889,363.6363636363636L-632.2222222222222,356.3636363636364L-605.5555555555555,349.0909090909091L-578.8888888888889,363.6363636363636L-552.2222222222222,363.6363636363636L-525.5555555555555,352.72727272727275L-498.8888888888889,363.6363636363636L-472.22222222222223,360L-445.55555555555554,360L-418.8888888888889,363.6363636363636L-392.22222222222223,363.6363636363636L-365.55555555555554,363.6363636363636L-338.88888888888886,360L-312.22222222222223,363.6363636363636L-285.55555555555554,363.6363636363636L-258.8888888888889,356.3636363636364L-232.22222222222223,363.6363636363636L-205.55555555555554,363.6363636363636L-178.88888888888889,363.6363636363636L-152.22222222222223,363.6363636363636L-125.55555555555556,363.6363636363636L-98.88888888888889,363.6363636363636L-72.22222222222221,363.6363636363636L-45.55555555555556,363.6363636363636L-18.88888888888889,363.6363636363636L7.777777777777778,363.6363636363636L34.44444444444444,363.6363636363636L61.111111111111114,363.6363636363636L87.77777777777777,363.6363636363636L114.44444444444444,363.6363636363636L141.11111111111111,363.6363636363636L167.77777777777777,356.3636363636364L194.44444444444443,363.6363636363636L221.11111111111111,363.6363636363636L247.77777777777777,360L274.44444444444446,349.0909090909091L301.1111111111111,363.6363636363636L327.77777777777777,349.0909090909091L354.44444444444446,363.6363636363636L381.1111111111111,363.6363636363636L407.77777777777777,360" stroke="#e45756" stroke-width="2" opacity="0.2"></path></g></g><path class="foreground" aria-hidden="true" d="" display="none"></path></g><g transform="translate(0,0)"><path class="background" aria-hidden="true" d="M0,0h400v400h-400Z"></path><g><g class="mark-line role-mark concat_0_layer_0_marks" clip-path="url(#clip2)" role="graphics-object" aria-roledescription="line mark container"><path aria-label="Type: Deaths; Date: Mar 01; Count: 0" role="graphics-symbol" aria-roledescription="line mark" d="M-2631.111111111111,363.6363636363636L-2604.4444444444443,363.6363636363636L-2577.777777777778,363.6363636363636L-2551.1111111111113,363.6363636363636L-2524.4444444444443,363.6363636363636L-2497.777777777778,363.6363636363636L-2471.1111111111113,363.6363636363636L-2444.4444444444443,363.6363636363636L-2418.888888888889,363.6363636363636L-2392.222222222222,363.6363636363636L-2365.5555555555557,363.6363636363636L-2338.888888888889,363.6363636363636L-2312.222222222222,363.6363636363636L-2285.5555555555557,363.6363636363636L-2258.8888888888887,345.45454545454544L-2232.222222222222,381.8181818181818L-2205.5555555555557,360L-2178.8888888888887,363.6363636363636L-2152.222222222222,363.6363636363636L-2125.5555555555557,367.2727272727273L-2098.8888888888887,360L-2072.222222222222,363.6363636363636L-2045.5555555555557,363.6363636363636L-2018.888888888889,360L-1992.2222222222222,363.6363636363636L-1965.5555555555554,363.6363636363636L-1938.888888888889,363.6363636363636L-1912.2222222222224,363.6363636363636L-1885.5555555555554,363.6363636363636L-1858.888888888889,363.6363636363636L-1832.2222222222222,363.6363636363636L-1805.5555555555557,363.6363636363636L-1778.8888888888887,356.3636363636364L-1752.2222222222222,363.6363636363636L-1725.5555555555557,363.6363636363636L-1698.8888888888887,363.6363636363636L-1672.2222222222222,356.3636363636364L-1645.5555555555557,363.6363636363636L-1618.888888888889,363.6363636363636L-1592.2222222222222,363.6363636363636L-1565.5555555555554,360L-1538.888888888889,360L-1512.2222222222222,363.6363636363636L-1485.5555555555557,363.6363636363636L-1458.888888888889,363.6363636363636L-1432.2222222222222,363.6363636363636L-1405.5555555555554,363.6363636363636L-1378.888888888889,360L-1352.2222222222222,363.6363636363636L-1325.5555555555557,363.6363636363636L-1298.888888888889,360L-1272.2222222222222,363.6363636363636L-1245.5555555555557,363.6363636363636L-1218.888888888889,363.6363636363636L-1192.2222222222222,363.6363636363636L-1165.5555555555554,363.6363636363636L-1138.888888888889,363.6363636363636L-1112.2222222222222,363.6363636363636L-1085.5555555555557,363.6363636363636L-1058.888888888889,363.6363636363636L-1032.2222222222222,363.6363636363636L-1005.5555555555555,363.6363636363636L-978.8888888888889,363.6363636363636L-952.2222222222222,363.6363636363636L-925.5555555555557,363.6363636363636L-898.8888888888889,363.6363636363636L-872.2222222222222,363.6363636363636L-845.5555555555555,363.6363636363636L-818.8888888888888,363.6363636363636L-792.2222222222223,363.6363636363636L-765.5555555555555,363.6363636363636L-738.8888888888889,363.6363636363636L-712.2222222222222,363.6363636363636L-685.5555555555555,363.6363636363636L-658.8888888888889,363.6363636363636L-632.2222222222222,363.6363636363636L-605.5555555555555,363.6363636363636L-578.8888888888889,363.6363636363636L-552.2222222222222,363.6363636363636L-525.5555555555555,363.6363636363636L-498.8888888888889,363.6363636363636L-472.22222222222223,363.6363636363636L-445.55555555555554,363.6363636363636L-418.8888888888889,363.6363636363636L-392.22222222222223,363.6363636363636L-365.55555555555554,363.6363636363636L-338.88888888888886,363.6363636363636L-312.22222222222223,363.6363636363636L-285.55555555555554,363.6363636363636L-258.8888888888889,363.6363636363636L-232.22222222222223,363.6363636363636L-205.55555555555554,363.6363636363636L-178.88888888888889,363.6363636363636L-152.22222222222223,363.6363636363636L-125.55555555555556,363.6363636363636L-98.88888888888889,363.6363636363636L-72.22222222222221,363.6363636363636L-45.55555555555556,363.6363636363636L-18.88888888888889,363.6363636363636L7.777777777777778,363.6363636363636L34.44444444444444,363.6363636363636L61.111111111111114,363.6363636363636L87.77777777777777,363.6363636363636L114.44444444444444,363.6363636363636L141.11111111111111,363.6363636363636L167.77777777777777,363.6363636363636L194.44444444444443,363.6363636363636L221.11111111111111,363.6363636363636L247.77777777777777,363.6363636363636L274.44444444444446,363.6363636363636L301.1111111111111,363.6363636363636L327.77777777777777,363.6363636363636L354.44444444444446,363.6363636363636L381.1111111111111,363.6363636363636L407.77777777777777,363.6363636363636" stroke="#f58518" stroke-width="2" opacity="0.2"></path></g></g><path class="foreground" aria-hidden="true" d="" display="none"></path></g><g transform="translate(0,0)"><path class="background" aria-hidden="true" d="M0,0h400v400h-400Z"></path><g><g class="mark-line role-mark concat_0_layer_0_marks" clip-path="url(#clip3)" role="graphics-object" aria-roledescription="line mark container"><path aria-label="Type: Confirmed; Date: Mar 01; Count: 2" role="graphics-symbol" aria-roledescription="line mark" d="M-2631.111111111111,356.3636363636364L-2604.4444444444443,352.72727272727275L-2577.777777777778,345.45454545454544L-2551.1111111111113,309.09090909090907L-2524.4444444444443,334.54545454545456L-2497.777777777778,330.90909090909093L-2471.1111111111113,338.1818181818182L-2444.4444444444443,363.6363636363636L-2418.888888888889,334.54545454545456L-2392.222222222222,323.6363636363636L-2365.5555555555557,305.4545454545455L-2338.888888888889,298.1818181818182L-2312.222222222222,250.90909090909088L-2285.5555555555557,283.6363636363636L-2258.8888888888887,309.09090909090907L-2232.222222222222,330.90909090909093L-2205.5555555555557,218.18181818181816L-2178.8888888888887,254.54545454545453L-2152.222222222222,72.7272727272727L-2125.5555555555557,76.36363636363637L-2098.8888888888887,130.9090909090909L-2072.222222222222,18.181818181818166L-2045.5555555555557,290.90909090909093L-2018.888888888889,145.45454545454547L-1992.2222222222222,39.99999999999999L-1965.5555555555554,127.2727272727273L-1938.888888888889,43.636363636363654L-1912.2222222222224,98.18181818181819L-1885.5555555555554,156.36363636363635L-1858.888888888889,123.63636363636363L-1832.2222222222222,185.45454545454544L-1805.5555555555557,54.54545454545454L-1778.8888888888887,3.6363636363636154L-1752.2222222222222,200L-1725.5555555555557,170.9090909090909L-1698.8888888888887,112.72727272727275L-1672.2222222222222,87.27272727272725L-1645.5555555555557,276.3636363636364L-1618.888888888889,254.54545454545453L-1592.2222222222222,247.27272727272725L-1565.5555555555554,265.45454545454544L-1538.888888888889,312.72727272727275L-1512.2222222222222,320L-1485.5555555555557,327.27272727272725L-1458.888888888889,330.90909090909093L-1432.2222222222222,338.1818181818182L-1405.5555555555554,320L-1378.888888888889,309.09090909090907L-1352.2222222222222,341.8181818181818L-1325.5555555555557,323.6363636363636L-1298.888888888889,356.3636363636364L-1272.2222222222222,345.45454545454544L-1245.5555555555557,338.1818181818182L-1218.888888888889,349.0909090909091L-1192.2222222222222,363.6363636363636L-1165.5555555555554,360L-1138.888888888889,356.3636363636364L-1112.2222222222222,363.6363636363636L-1085.5555555555557,352.72727272727275L-1058.888888888889,356.3636363636364L-1032.2222222222222,363.6363636363636L-1005.5555555555555,360L-978.8888888888889,363.6363636363636L-952.2222222222222,360L-925.5555555555557,363.6363636363636L-898.8888888888889,363.6363636363636L-872.2222222222222,363.6363636363636L-845.5555555555555,356.3636363636364L-818.8888888888888,363.6363636363636L-792.2222222222223,363.6363636363636L-765.5555555555555,363.6363636363636L-738.8888888888889,363.6363636363636L-712.2222222222222,363.6363636363636L-685.5555555555555,360L-658.8888888888889,363.6363636363636L-632.2222222222222,363.6363636363636L-605.5555555555555,363.6363636363636L-578.8888888888889,363.6363636363636L-552.2222222222222,363.6363636363636L-525.5555555555555,363.6363636363636L-498.8888888888889,360L-472.22222222222223,363.6363636363636L-445.55555555555554,363.6363636363636L-418.8888888888889,360L-392.22222222222223,363.6363636363636L-365.55555555555554,363.6363636363636L-338.88888888888886,363.6363636363636L-312.22222222222223,360L-285.55555555555554,363.6363636363636L-258.8888888888889,363.6363636363636L-232.22222222222223,360L-205.55555555555554,363.6363636363636L-178.88888888888889,363.6363636363636L-152.22222222222223,363.6363636363636L-125.55555555555556,363.6363636363636L-98.88888888888889,363.6363636363636L-72.22222222222221,363.6363636363636L-45.55555555555556,363.6363636363636L-18.88888888888889,360L7.777777777777778,363.6363636363636L34.44444444444444,363.6363636363636L61.111111111111114,363.6363636363636L87.77777777777777,363.6363636363636L114.44444444444444,363.6363636363636L141.11111111111111,360L167.77777777777777,356.3636363636364L194.44444444444443,363.6363636363636L221.11111111111111,356.3636363636364L247.77777777777777,352.72727272727275L274.44444444444446,360L301.1111111111111,352.72727272727275L327.77777777777777,352.72727272727275L354.44444444444446,360L381.1111111111111,363.6363636363636L407.77777777777777,360" stroke="#4c78a8" stroke-width="2" opacity="0.2"></path></g></g><path class="foreground" aria-hidden="true" d="" display="none"></path></g></g><g class="mark-group role-scope concat_0_layer_1_pathgroup" role="graphics-object" aria-roledescription="group mark container"><g transform="translate(0,0)"><path class="background" aria-hidden="true" d="M0,0h400v400h-400Z"></path><g><g class="mark-line role-mark concat_0_layer_1_marks" clip-path="url(#clip4)" role="graphics-object" aria-roledescription="line mark container"><path aria-label="Type: Recovered; Date: Mar 01; Count: 0" role="graphics-symbol" aria-roledescription="line mark" d="M-2471.1111111111113,363.6363636363636L-2444.4444444444443,363.6363636363636L-2418.888888888889,363.6363636363636L-2392.222222222222,363.1168831168831L-2365.5555555555557,363.1168831168831L-2338.888888888889,363.1168831168831L-2312.222222222222,363.1168831168831L-2285.5555555555557,363.1168831168831L-2258.8888888888887,359.4805194805195L-2232.222222222222,363.6363636363636L-2205.5555555555557,364.1558441558442L-2178.8888888888887,361.55844155844153L-2152.222222222222,361.55844155844153L-2125.5555555555557,361.55844155844153L-2098.8888888888887,352.72727272727275L-2072.222222222222,349.0909090909091L-2045.5555555555557,344.935064935065L-2018.888888888889,337.14285714285717L-1992.2222222222222,337.14285714285717L-1965.5555555555554,323.6363636363636L-1938.888888888889,315.84415584415586L-1912.2222222222224,315.84415584415586L-1885.5555555555554,312.2077922077922L-1858.888888888889,300.7792207792208L-1832.2222222222222,287.2727272727273L-1805.5555555555557,275.84415584415586L-1778.8888888888887,258.70129870129864L-1752.2222222222222,253.5064935064935L-1725.5555555555557,217.14285714285717L-1698.8888888888887,211.42857142857144L-1672.2222222222222,206.23376623376623L-1645.5555555555557,176.1038961038961L-1618.888888888889,151.68831168831173L-1592.2222222222222,153.76623376623374L-1565.5555555555554,134.02597402597402L-1538.888888888889,132.4675324675325L-1512.2222222222222,124.15584415584414L-1485.5555555555557,117.92207792207793L-1458.888888888889,140.25974025974025L-1432.2222222222222,132.98701298701297L-1405.5555555555554,126.75324675324676L-1378.888888888889,117.92207792207793L-1352.2222222222222,129.87012987012986L-1325.5555555555557,154.80519480519482L-1298.888888888889,140.7792207792208L-1272.2222222222222,141.2987012987013L-1245.5555555555557,163.63636363636363L-1218.888888888889,174.02597402597402L-1192.2222222222222,198.4415584415584L-1165.5555555555554,218.7012987012987L-1138.888888888889,198.96103896103895L-1112.2222222222222,227.5324675324675L-1085.5555555555557,249.8701298701299L-1058.888888888889,262.85714285714283L-1032.2222222222222,280L-1005.5555555555555,287.2727272727273L-978.8888888888889,292.987012987013L-952.2222222222222,307.012987012987L-925.5555555555557,312.2077922077922L-898.8888888888889,313.24675324675326L-872.2222222222222,314.8051948051948L-845.5555555555555,319.4805194805195L-818.8888888888888,324.1558441558442L-792.2222222222223,328.83116883116884L-765.5555555555555,334.54545454545456L-738.8888888888889,337.6623376623376L-712.2222222222222,341.2987012987013L-685.5555555555555,348.05194805194805L-658.8888888888889,350.64935064935065L-632.2222222222222,354.8051948051948L-605.5555555555555,356.8831168831169L-578.8888888888889,356.8831168831169L-552.2222222222222,356.8831168831169L-525.5555555555555,356.8831168831169L-498.8888888888889,358.961038961039L-472.22222222222223,358.4415584415584L-445.55555555555554,358.961038961039L-418.8888888888889,361.038961038961L-392.22222222222223,361.038961038961L-365.55555555555554,361.038961038961L-338.88888888888886,362.0779220779221L-312.22222222222223,362.0779220779221L-285.55555555555554,362.5974025974026L-258.8888888888889,362.0779220779221L-232.22222222222223,362.0779220779221L-205.55555555555554,362.0779220779221L-178.88888888888889,362.0779220779221L-152.22222222222223,362.5974025974026L-125.55555555555556,362.5974025974026L-98.88888888888889,362.5974025974026L-72.22222222222221,363.6363636363636L-45.55555555555556,363.6363636363636L-18.88888888888889,363.6363636363636L7.777777777777778,363.6363636363636L34.44444444444444,363.6363636363636L61.111111111111114,363.6363636363636L87.77777777777777,363.6363636363636L114.44444444444444,363.6363636363636L141.11111111111111,363.6363636363636L167.77777777777777,362.5974025974026L194.44444444444443,362.5974025974026L221.11111111111111,362.5974025974026L247.77777777777777,362.0779220779221L274.44444444444446,360L301.1111111111111,360L327.77777777777777,357.9220779220779L354.44444444444446,358.961038961039L381.1111111111111,358.961038961039L407.77777777777777,358.4415584415584" stroke="#e45756" stroke-width="2" opacity="1"></path></g></g><path class="foreground" aria-hidden="true" d="" display="none"></path></g><g transform="translate(0,0)"><path class="background" aria-hidden="true" d="M0,0h400v400h-400Z"></path><g><g class="mark-line role-mark concat_0_layer_1_marks" clip-path="url(#clip5)" role="graphics-object" aria-roledescription="line mark container"><path aria-label="Type: Deaths; Date: Mar 01; Count: 0" role="graphics-symbol" aria-roledescription="line mark" d="M-2471.1111111111113,363.6363636363636L-2444.4444444444443,363.6363636363636L-2418.888888888889,363.6363636363636L-2392.222222222222,363.6363636363636L-2365.5555555555557,363.6363636363636L-2338.888888888889,363.6363636363636L-2312.222222222222,363.6363636363636L-2285.5555555555557,363.6363636363636L-2258.8888888888887,361.038961038961L-2232.222222222222,363.6363636363636L-2205.5555555555557,363.1168831168831L-2178.8888888888887,363.1168831168831L-2152.222222222222,363.1168831168831L-2125.5555555555557,363.6363636363636L-2098.8888888888887,363.1168831168831L-2072.222222222222,365.7142857142857L-2045.5555555555557,363.1168831168831L-2018.888888888889,363.1168831168831L-1992.2222222222222,363.1168831168831L-1965.5555555555554,363.1168831168831L-1938.888888888889,362.5974025974026L-1912.2222222222224,363.1168831168831L-1885.5555555555554,363.1168831168831L-1858.888888888889,363.1168831168831L-1832.2222222222222,363.6363636363636L-1805.5555555555557,363.6363636363636L-1778.8888888888887,362.5974025974026L-1752.2222222222222,362.5974025974026L-1725.5555555555557,362.5974025974026L-1698.8888888888887,362.5974025974026L-1672.2222222222222,361.55844155844153L-1645.5555555555557,361.55844155844153L-1618.888888888889,361.55844155844153L-1592.2222222222222,362.5974025974026L-1565.5555555555554,362.0779220779221L-1538.888888888889,361.55844155844153L-1512.2222222222222,361.55844155844153L-1485.5555555555557,362.5974025974026L-1458.888888888889,362.5974025974026L-1432.2222222222222,362.5974025974026L-1405.5555555555554,362.5974025974026L-1378.888888888889,362.5974025974026L-1352.2222222222222,363.1168831168831L-1325.5555555555557,363.1168831168831L-1298.888888888889,362.5974025974026L-1272.2222222222222,362.5974025974026L-1245.5555555555557,362.5974025974026L-1218.888888888889,362.5974025974026L-1192.2222222222222,363.1168831168831L-1165.5555555555554,363.1168831168831L-1138.888888888889,363.1168831168831L-1112.2222222222222,363.6363636363636L-1085.5555555555557,363.6363636363636L-1058.888888888889,363.6363636363636L-1032.2222222222222,363.6363636363636L-1005.5555555555555,363.6363636363636L-978.8888888888889,363.6363636363636L-952.2222222222222,363.6363636363636L-925.5555555555557,363.6363636363636L-898.8888888888889,363.6363636363636L-872.2222222222222,363.6363636363636L-845.5555555555555,363.6363636363636L-818.8888888888888,363.6363636363636L-792.2222222222223,363.6363636363636L-765.5555555555555,363.6363636363636L-738.8888888888889,363.6363636363636L-712.2222222222222,363.6363636363636L-685.5555555555555,363.6363636363636L-658.8888888888889,363.6363636363636L-632.2222222222222,363.6363636363636L-605.5555555555555,363.6363636363636L-578.8888888888889,363.6363636363636L-552.2222222222222,363.6363636363636L-525.5555555555555,363.6363636363636L-498.8888888888889,363.6363636363636L-472.22222222222223,363.6363636363636L-445.55555555555554,363.6363636363636L-418.8888888888889,363.6363636363636L-392.22222222222223,363.6363636363636L-365.55555555555554,363.6363636363636L-338.88888888888886,363.6363636363636L-312.22222222222223,363.6363636363636L-285.55555555555554,363.6363636363636L-258.8888888888889,363.6363636363636L-232.22222222222223,363.6363636363636L-205.55555555555554,363.6363636363636L-178.88888888888889,363.6363636363636L-152.22222222222223,363.6363636363636L-125.55555555555556,363.6363636363636L-98.88888888888889,363.6363636363636L-72.22222222222221,363.6363636363636L-45.55555555555556,363.6363636363636L-18.88888888888889,363.6363636363636L7.777777777777778,363.6363636363636L34.44444444444444,363.6363636363636L61.111111111111114,363.6363636363636L87.77777777777777,363.6363636363636L114.44444444444444,363.6363636363636L141.11111111111111,363.6363636363636L167.77777777777777,363.6363636363636L194.44444444444443,363.6363636363636L221.11111111111111,363.6363636363636L247.77777777777777,363.6363636363636L274.44444444444446,363.6363636363636L301.1111111111111,363.6363636363636L327.77777777777777,363.6363636363636L354.44444444444446,363.6363636363636L381.1111111111111,363.6363636363636L407.77777777777777,363.6363636363636" stroke="#f58518" stroke-width="2" opacity="1"></path></g></g><path class="foreground" aria-hidden="true" d="" display="none"></path></g><g transform="translate(0,0)"><path class="background" aria-hidden="true" d="M0,0h400v400h-400Z"></path><g><g class="mark-line role-mark concat_0_layer_1_marks" clip-path="url(#clip6)" role="graphics-object" aria-roledescription="line mark container"><path aria-label="Type: Confirmed; Date: Mar 01; Count: 0" role="graphics-symbol" aria-roledescription="line mark" d="M-2471.1111111111113,338.1818181818182L-2444.4444444444443,339.2207792207792L-2418.888888888889,336.6233766233766L-2392.222222222222,333.5064935064935L-2365.5555555555557,332.987012987013L-2338.888888888889,327.7922077922078L-2312.222222222222,316.3636363636364L-2285.5555555555557,308.5714285714286L-2258.8888888888887,300.7792207792208L-2232.222222222222,300.2597402597403L-2205.5555555555557,285.19480519480516L-2178.8888888888887,277.9220779220779L-2152.222222222222,245.71428571428572L-2125.5555555555557,220.7792207792208L-2098.8888888888887,198.96103896103895L-2072.222222222222,157.4025974025974L-2045.5555555555557,151.68831168831173L-2018.888888888889,141.2987012987013L-1992.2222222222222,110.64935064935067L-1965.5555555555554,118.44155844155844L-1938.888888888889,113.76623376623378L-1912.2222222222224,109.09090909090908L-1885.5555555555554,128.83116883116884L-1858.888888888889,104.93506493506497L-1832.2222222222222,110.64935064935067L-1805.5555555555557,112.72727272727275L-1778.8888888888887,95.06493506493503L-1752.2222222222222,117.40259740259744L-1725.5555555555557,127.79220779220779L-1698.8888888888887,121.55844155844156L-1672.2222222222222,116.36363636363636L-1645.5555555555557,129.35064935064932L-1618.888888888889,157.92207792207793L-1592.2222222222222,192.72727272727272L-1565.5555555555554,202.07792207792207L-1538.888888888889,222.33766233766232L-1512.2222222222222,251.94805194805195L-1485.5555555555557,286.23376623376623L-1458.888888888889,294.02597402597405L-1432.2222222222222,305.97402597402595L-1405.5555555555554,316.3636363636364L-1378.888888888889,322.5974025974026L-1352.2222222222222,326.75324675324674L-1325.5555555555557,327.27272727272725L-1298.888888888889,331.4285714285714L-1272.2222222222222,333.5064935064935L-1245.5555555555557,333.5064935064935L-1218.888888888889,337.6623376623376L-1192.2222222222222,345.45454545454544L-1165.5555555555554,348.05194805194805L-1138.888888888889,352.72727272727275L-1112.2222222222222,353.76623376623377L-1085.5555555555557,354.8051948051948L-1058.888888888889,357.4025974025974L-1032.2222222222222,359.4805194805195L-1005.5555555555555,358.961038961039L-978.8888888888889,359.4805194805195L-952.2222222222222,360L-925.5555555555557,360L-898.8888888888889,361.55844155844153L-872.2222222222222,362.5974025974026L-845.5555555555555,361.55844155844153L-818.8888888888888,362.0779220779221L-792.2222222222223,362.0779220779221L-765.5555555555555,362.5974025974026L-738.8888888888889,362.5974025974026L-712.2222222222222,362.5974025974026L-685.5555555555555,362.0779220779221L-658.8888888888889,363.1168831168831L-632.2222222222222,363.1168831168831L-605.5555555555555,363.1168831168831L-578.8888888888889,363.1168831168831L-552.2222222222222,363.1168831168831L-525.5555555555555,363.1168831168831L-498.8888888888889,363.1168831168831L-472.22222222222223,363.1168831168831L-445.55555555555554,363.1168831168831L-418.8888888888889,362.5974025974026L-392.22222222222223,362.5974025974026L-365.55555555555554,362.5974025974026L-338.88888888888886,362.5974025974026L-312.22222222222223,362.5974025974026L-285.55555555555554,362.5974025974026L-258.8888888888889,362.5974025974026L-232.22222222222223,362.5974025974026L-205.55555555555554,362.5974025974026L-178.88888888888889,362.5974025974026L-152.22222222222223,362.5974025974026L-125.55555555555556,363.1168831168831L-98.88888888888889,363.1168831168831L-72.22222222222221,363.1168831168831L-45.55555555555556,363.6363636363636L-18.88888888888889,363.1168831168831L7.777777777777778,363.1168831168831L34.44444444444444,363.1168831168831L61.111111111111114,363.1168831168831L87.77777777777777,363.1168831168831L114.44444444444444,363.1168831168831L141.11111111111111,362.5974025974026L167.77777777777777,362.0779220779221L194.44444444444443,362.0779220779221L221.11111111111111,361.038961038961L247.77777777777777,359.4805194805195L274.44444444444446,358.961038961039L301.1111111111111,357.4025974025974L327.77777777777777,356.3636363636364L354.44444444444446,356.8831168831169L381.1111111111111,356.8831168831169L407.77777777777777,357.4025974025974" stroke="#4c78a8" stroke-width="2" opacity="1"></path></g></g><path class="foreground" aria-hidden="true" d="" display="none"></path></g></g><g class="mark-group role-title"><g transform="translate(200,-54)"><path class="background" aria-hidden="true" d="M0,0h0v0h0Z" pointer-events="none"></path><g><g class="mark-text role-title-text" role="graphics-symbol" aria-roledescription="title" aria-label="Title text '7-day average (light color: daily values) [2020-06-23]'" pointer-events="none"><text text-anchor="middle" transform="translate(0,10)" font-family="Roboto Condensed" font-size="13px" font-weight="normal" fill="#000" opacity="1"><tspan>7-day average (light color: daily values)</tspan><tspan x="0" dy="15">[2020-06-23]</tspan></text></g></g><path class="foreground" aria-hidden="true" d="" pointer-events="none" display="none"></path></g></g></g><path class="foreground" aria-hidden="true" d="" display="none"></path></g></g><g class="mark-group role-scope concat_1_group" role="graphics-object" aria-roledescription="group mark container"><g transform="translate(465,0)"><path class="background" aria-hidden="true" d="M0,0h400v400h-400Z" stroke="#ddd" stroke-width="0"></path><g><g class="mark-group role-axis" aria-hidden="true"><g transform="translate(0.5,0.5)"><path class="background" aria-hidden="true" d="M0,0h0v0h0Z" pointer-events="none"></path><g><g class="mark-rule role-axis-grid" pointer-events="none"><line transform="translate(0,400)" x2="400" y2="0" stroke="#ddd" stroke-width="1" opacity="1"></line><line transform="translate(0,360)" x2="400" y2="0" stroke="#ddd" stroke-width="1" opacity="1"></line><line transform="translate(0,320)" x2="400" y2="0" stroke="#ddd" stroke-width="1" opacity="1"></line><line transform="translate(0,280)" x2="400" y2="0" stroke="#ddd" stroke-width="1" opacity="1"></line><line transform="translate(0,240)" x2="400" y2="0" stroke="#ddd" stroke-width="1" opacity="1"></line><line transform="translate(0,200)" x2="400" y2="0" stroke="#ddd" stroke-width="1" opacity="1"></line><line transform="translate(0,160)" x2="400" y2="0" stroke="#ddd" stroke-width="1" opacity="1"></line><line transform="translate(0,120)" x2="400" y2="0" stroke="#ddd" stroke-width="1" opacity="1"></line><line transform="translate(0,80)" x2="400" y2="0" stroke="#ddd" stroke-width="1" opacity="1"></line><line transform="translate(0,40)" x2="400" y2="0" stroke="#ddd" stroke-width="1" opacity="1"></line><line transform="translate(0,0)" x2="400" y2="0" stroke="#ddd" stroke-width="1" opacity="1"></line></g></g><path class="foreground" aria-hidden="true" d="" pointer-events="none" display="none"></path></g></g><g class="mark-group role-axis" role="graphics-symbol" aria-roledescription="axis" aria-label="X-axis titled 'Date' for a time scale with values from June 07 to June 22"><g transform="translate(0.5,400.5)"><path class="background" aria-hidden="true" d="M0,0h0v0h0Z" pointer-events="none"></path><g><g class="mark-text role-axis-label" pointer-events="none"><text text-anchor="middle" transform="translate(34.44444444444444,10)" font-family="Roboto Condensed" font-size="10px" fill="#000" opacity="1">Jun 09</text><text text-anchor="middle" transform="translate(87.77777777777777,10)" font-family="Roboto Condensed" font-size="10px" fill="#000" opacity="1">Jun 11</text><text text-anchor="middle" transform="translate(141.11111111111111,10)" font-family="Roboto Condensed" font-size="10px" fill="#000" opacity="1">Jun 13</text><text text-anchor="middle" transform="translate(194.44444444444443,10)" font-family="Roboto Condensed" font-size="10px" fill="#000" opacity="1">Jun 15</text><text text-anchor="middle" transform="translate(247.77777777777777,10)" font-family="Roboto Condensed" font-size="10px" fill="#000" opacity="1">Jun 17</text><text text-anchor="middle" transform="translate(301.1111111111111,10)" font-family="Roboto Condensed" font-size="10px" fill="#000" opacity="1">Jun 19</text><text text-anchor="middle" transform="translate(354.44444444444446,10)" font-family="Roboto Condensed" font-size="10px" fill="#000" opacity="1">Jun 21</text></g><g class="mark-rule role-axis-domain" pointer-events="none"><line transform="translate(0,0)" x2="400" y2="0" stroke="lightgray" stroke-width="1" opacity="1"></line></g><g class="mark-text role-axis-title" pointer-events="none"><text text-anchor="middle" transform="translate(200,25)" font-family="Roboto Condensed" font-size="11px" font-weight="normal" fill="#000" opacity="1">Date</text></g></g><path class="foreground" aria-hidden="true" d="" pointer-events="none" display="none"></path></g></g><g class="mark-group role-axis" role="graphics-symbol" aria-roledescription="axis" aria-label="Y-axis titled 'Count' for a linear scale with values from 0 to 2,000"><g transform="translate(0.5,0.5)"><path class="background" aria-hidden="true" d="M0,0h0v0h0Z" pointer-events="none"></path><g><g class="mark-text role-axis-label" pointer-events="none"><text text-anchor="end" transform="translate(-2,403)" font-family="Roboto Condensed" font-size="10px" fill="#000" opacity="1">0</text><text text-anchor="end" transform="translate(-2,363)" font-family="Roboto Condensed" font-size="10px" fill="#000" opacity="1">200</text><text text-anchor="end" transform="translate(-2,323)" font-family="Roboto Condensed" font-size="10px" fill="#000" opacity="1">400</text><text text-anchor="end" transform="translate(-2,283)" font-family="Roboto Condensed" font-size="10px" fill="#000" opacity="1">600</text><text text-anchor="end" transform="translate(-2,243)" font-family="Roboto Condensed" font-size="10px" fill="#000" opacity="1">800</text><text text-anchor="end" transform="translate(-2,203)" font-family="Roboto Condensed" font-size="10px" fill="#000" opacity="1">1,000</text><text text-anchor="end" transform="translate(-2,163)" font-family="Roboto Condensed" font-size="10px" fill="#000" opacity="1">1,200</text><text text-anchor="end" transform="translate(-2,123.00000000000001)" font-family="Roboto Condensed" font-size="10px" fill="#000" opacity="1">1,400</text><text text-anchor="end" transform="translate(-2,82.99999999999999)" font-family="Roboto Condensed" font-size="10px" fill="#000" opacity="1">1,600</text><text text-anchor="end" transform="translate(-2,42.99999999999999)" font-family="Roboto Condensed" font-size="10px" fill="#000" opacity="1">1,800</text><text text-anchor="end" transform="translate(-2,3)" font-family="Roboto Condensed" font-size="10px" fill="#000" opacity="1">2,000</text></g><g class="mark-rule role-axis-domain" pointer-events="none"><line transform="translate(0,400)" x2="0" y2="-400" stroke="lightgray" stroke-width="1" opacity="1"></line></g><g class="mark-text role-axis-title" pointer-events="none"><text text-anchor="start" transform="translate(-45,-13)" font-family="Roboto Condensed" font-size="11px" font-weight="normal" fill="#000" opacity="1">Count</text></g></g><path class="foreground" aria-hidden="true" d="" pointer-events="none" display="none"></path></g></g><g class="mark-group role-scope concat_1_pathgroup" role="graphics-object" aria-roledescription="group mark container"><g transform="translate(0,0)"><path class="background" aria-hidden="true" d="M0,0h400v400h-400Z"></path><g><g class="mark-line role-mark concat_1_marks" clip-path="url(#clip7)" role="graphics-object" aria-roledescription="line mark container"><path aria-label="Type: Recovered; Date: Mar 01; Country: Iceland; Confirmed: 3; Recovered: 0; Deaths: 0; Count: 0" role="graphics-symbol" aria-roledescription="line mark" d="M-2631.111111111111,400L-2604.4444444444443,400L-2577.777777777778,400L-2551.1111111111113,400L-2524.4444444444443,400L-2497.777777777778,400L-2471.1111111111113,400L-2444.4444444444443,400L-2418.888888888889,400L-2392.222222222222,399.8L-2365.5555555555557,399.8L-2338.888888888889,399.8L-2312.222222222222,399.8L-2285.5555555555557,399.8L-2258.8888888888887,398.4L-2232.222222222222,400L-2205.5555555555557,400L-2178.8888888888887,399L-2152.222222222222,399L-2125.5555555555557,399L-2098.8888888888887,395.6L-2072.222222222222,392.8L-2045.5555555555557,392.8L-2018.888888888889,389.8L-1992.2222222222222,388.8L-1965.5555555555554,383.59999999999997L-1938.888888888889,380.6L-1912.2222222222224,377.2L-1885.5555555555554,373L-1858.888888888889,368.6L-1832.2222222222222,360.40000000000003L-1805.5555555555557,355L-1778.8888888888887,343.2L-1752.2222222222222,338.2L-1725.5555555555557,320.8L-1698.8888888888887,314.40000000000003L-1672.2222222222222,308L-1645.5555555555557,288.2L-1618.888888888889,273.4L-1592.2222222222222,262.40000000000003L-1565.5555555555554,249.8L-1538.888888888889,231.8L-1512.2222222222222,222.2L-1485.5555555555557,213.39999999999998L-1458.888888888889,202.20000000000002L-1432.2222222222222,184.60000000000002L-1405.5555555555554,171.20000000000002L-1378.888888888889,155.20000000000002L-1352.2222222222222,141.8L-1325.5555555555557,141.8L-1298.888888888889,127.59999999999998L-1272.2222222222222,116.6L-1245.5555555555557,107.60000000000001L-1218.888888888889,98.20000000000002L-1192.2222222222222,91.6L-1165.5555555555554,85.99999999999999L-1138.888888888889,78.39999999999998L-1112.2222222222222,75.19999999999997L-1085.5555555555557,72.80000000000003L-1058.888888888889,68.80000000000001L-1032.2222222222222,66.00000000000001L-1005.5555555555555,62.19999999999999L-978.8888888888889,58.80000000000001L-952.2222222222222,56.59999999999998L-925.5555555555557,55.399999999999984L-898.8888888888889,53.39999999999998L-872.2222222222222,50L-845.5555555555555,49.00000000000002L-818.8888888888888,47.00000000000002L-792.2222222222223,45.40000000000002L-765.5555555555555,45.40000000000002L-738.8888888888889,45.40000000000002L-712.2222222222222,44.8L-685.5555555555555,43.99999999999999L-658.8888888888889,43.99999999999999L-632.2222222222222,43.599999999999994L-605.5555555555555,42.8L-578.8888888888889,42.8L-552.2222222222222,42.8L-525.5555555555555,42.20000000000002L-498.8888888888889,42.20000000000002L-472.22222222222223,41.99999999999999L-445.55555555555554,41.80000000000001L-418.8888888888889,41.80000000000001L-392.22222222222223,41.80000000000001L-365.55555555555554,41.80000000000001L-338.88888888888886,41.599999999999994L-312.22222222222223,41.599999999999994L-285.55555555555554,41.599999999999994L-258.8888888888889,41.19999999999999L-232.22222222222223,41.19999999999999L-205.55555555555554,41.19999999999999L-178.88888888888889,41.19999999999999L-152.22222222222223,41.19999999999999L-125.55555555555556,41.19999999999999L-98.88888888888889,41.19999999999999L-72.22222222222221,41.19999999999999L-45.55555555555556,41.19999999999999L-18.88888888888889,41.19999999999999L7.777777777777778,41.19999999999999L34.44444444444444,41.19999999999999L61.111111111111114,41.19999999999999L87.77777777777777,41.19999999999999L114.44444444444444,41.19999999999999L141.11111111111111,41.19999999999999L167.77777777777777,40.79999999999999L194.44444444444443,40.79999999999999L221.11111111111111,40.79999999999999L247.77777777777777,40.600000000000016L274.44444444444446,39.80000000000001L301.1111111111111,39.80000000000001L327.77777777777777,39.000000000000014L354.44444444444446,39.000000000000014L381.1111111111111,39.000000000000014L407.77777777777777,38.79999999999999" stroke="#e45756" stroke-width="2" opacity="0.7"></path></g></g><path class="foreground" aria-hidden="true" d="" display="none"></path></g><g transform="translate(0,0)"><path class="background" aria-hidden="true" d="M0,0h400v400h-400Z"></path><g><g class="mark-line role-mark concat_1_marks" clip-path="url(#clip8)" role="graphics-object" aria-roledescription="line mark container"><path aria-label="Type: Deaths; Date: Mar 01; Country: Iceland; Confirmed: 3; Recovered: 0; Deaths: 0; Count: 0" role="graphics-symbol" aria-roledescription="line mark" d="M-2631.111111111111,400L-2604.4444444444443,400L-2577.777777777778,400L-2551.1111111111113,400L-2524.4444444444443,400L-2497.777777777778,400L-2471.1111111111113,400L-2444.4444444444443,400L-2418.888888888889,400L-2392.222222222222,400L-2365.5555555555557,400L-2338.888888888889,400L-2312.222222222222,400L-2285.5555555555557,400L-2258.8888888888887,399L-2232.222222222222,400L-2205.5555555555557,399.8L-2178.8888888888887,399.8L-2152.222222222222,399.8L-2125.5555555555557,400L-2098.8888888888887,399.8L-2072.222222222222,399.8L-2045.5555555555557,399.8L-2018.888888888889,399.6L-1992.2222222222222,399.6L-1965.5555555555554,399.6L-1938.888888888889,399.6L-1912.2222222222224,399.6L-1885.5555555555554,399.6L-1858.888888888889,399.6L-1832.2222222222222,399.6L-1805.5555555555557,399.6L-1778.8888888888887,399.2L-1752.2222222222222,399.2L-1725.5555555555557,399.2L-1698.8888888888887,399.2L-1672.2222222222222,398.8L-1645.5555555555557,398.8L-1618.888888888889,398.8L-1592.2222222222222,398.8L-1565.5555555555554,398.6L-1538.888888888889,398.4L-1512.2222222222222,398.4L-1485.5555555555557,398.4L-1458.888888888889,398.4L-1432.2222222222222,398.4L-1405.5555555555554,398.4L-1378.888888888889,398.20000000000005L-1352.2222222222222,398.20000000000005L-1325.5555555555557,398.20000000000005L-1298.888888888889,398L-1272.2222222222222,398L-1245.5555555555557,398L-1218.888888888889,398L-1192.2222222222222,398L-1165.5555555555554,398L-1138.888888888889,398L-1112.2222222222222,398L-1085.5555555555557,398L-1058.888888888889,398L-1032.2222222222222,398L-1005.5555555555555,398L-978.8888888888889,398L-952.2222222222222,398L-925.5555555555557,398L-898.8888888888889,398L-872.2222222222222,398L-845.5555555555555,398L-818.8888888888888,398L-792.2222222222223,398L-765.5555555555555,398L-738.8888888888889,398L-712.2222222222222,398L-685.5555555555555,398L-658.8888888888889,398L-632.2222222222222,398L-605.5555555555555,398L-578.8888888888889,398L-552.2222222222222,398L-525.5555555555555,398L-498.8888888888889,398L-472.22222222222223,398L-445.55555555555554,398L-418.8888888888889,398L-392.22222222222223,398L-365.55555555555554,398L-338.88888888888886,398L-312.22222222222223,398L-285.55555555555554,398L-258.8888888888889,398L-232.22222222222223,398L-205.55555555555554,398L-178.88888888888889,398L-152.22222222222223,398L-125.55555555555556,398L-98.88888888888889,398L-72.22222222222221,398L-45.55555555555556,398L-18.88888888888889,398L7.777777777777778,398L34.44444444444444,398L61.111111111111114,398L87.77777777777777,398L114.44444444444444,398L141.11111111111111,398L167.77777777777777,398L194.44444444444443,398L221.11111111111111,398L247.77777777777777,398L274.44444444444446,398L301.1111111111111,398L327.77777777777777,398L354.44444444444446,398L381.1111111111111,398L407.77777777777777,398" stroke="#f58518" stroke-width="2" opacity="0.7"></path></g></g><path class="foreground" aria-hidden="true" d="" display="none"></path></g><g transform="translate(0,0)"><path class="background" aria-hidden="true" d="M0,0h400v400h-400Z"></path><g><g class="mark-line role-mark concat_1_marks" clip-path="url(#clip9)" role="graphics-object" aria-roledescription="line mark container"><path aria-label="Type: Confirmed; Date: Mar 01; Country: Iceland; Confirmed: 3; Recovered: 0; Deaths: 0; Count: 3" role="graphics-symbol" aria-roledescription="line mark" d="M-2631.111111111111,399.40000000000003L-2604.4444444444443,398.8L-2577.777777777778,397.8L-2551.1111111111113,394.8L-2524.4444444444443,393.2L-2497.777777777778,391.40000000000003L-2471.1111111111113,390L-2444.4444444444443,390L-2418.888888888889,388.4L-2392.222222222222,386.2L-2365.5555555555557,383L-2338.888888888889,379.4L-2312.222222222222,373.20000000000005L-2285.5555555555557,368.8L-2258.8888888888887,365.8L-2232.222222222222,364L-2205.5555555555557,356L-2178.8888888888887,350L-2152.222222222222,334L-2125.5555555555557,318.2L-2098.8888888888887,305.40000000000003L-2072.222222222222,286.4L-2045.5555555555557,282.4L-2018.888888888889,270.4L-1992.2222222222222,252.59999999999997L-1965.5555555555554,239.6L-1938.888888888889,221.99999999999997L-1912.2222222222224,207.39999999999998L-1885.5555555555554,196L-1858.888888888889,182.79999999999998L-1832.2222222222222,173L-1805.5555555555557,156L-1778.8888888888887,136.20000000000002L-1752.2222222222222,127.19999999999997L-1725.5555555555557,116.6L-1698.8888888888887,102.8L-1672.2222222222222,87.6L-1645.5555555555557,82.79999999999998L-1618.888888888889,76.79999999999998L-1592.2222222222222,70.40000000000002L-1565.5555555555554,64.99999999999999L-1538.888888888889,62.19999999999999L-1512.2222222222222,59.79999999999998L-1485.5555555555557,57.79999999999998L-1458.888888888889,56.00000000000001L-1432.2222222222222,54.59999999999998L-1405.5555555555554,52.19999999999998L-1378.888888888889,49.2L-1352.2222222222222,48L-1325.5555555555557,45.80000000000002L-1298.888888888889,45.40000000000002L-1272.2222222222222,44.39999999999999L-1245.5555555555557,43.000000000000014L-1218.888888888889,42.20000000000002L-1192.2222222222222,42.20000000000002L-1165.5555555555554,41.99999999999999L-1138.888888888889,41.599999999999994L-1112.2222222222222,41.599999999999994L-1085.5555555555557,41.000000000000014L-1058.888888888889,40.600000000000016L-1032.2222222222222,40.600000000000016L-1005.5555555555555,40.39999999999999L-978.8888888888889,40.39999999999999L-952.2222222222222,40.20000000000002L-925.5555555555557,40.20000000000002L-898.8888888888889,40.20000000000002L-872.2222222222222,40.20000000000002L-845.5555555555555,39.80000000000001L-818.8888888888888,39.80000000000001L-792.2222222222223,39.80000000000001L-765.5555555555555,39.80000000000001L-738.8888888888889,39.80000000000001L-712.2222222222222,39.80000000000001L-685.5555555555555,39.599999999999994L-658.8888888888889,39.599999999999994L-632.2222222222222,39.599999999999994L-605.5555555555555,39.599999999999994L-578.8888888888889,39.599999999999994L-552.2222222222222,39.599999999999994L-525.5555555555555,39.599999999999994L-498.8888888888889,39.40000000000001L-472.22222222222223,39.40000000000001L-445.55555555555554,39.40000000000001L-418.8888888888889,39.19999999999999L-392.22222222222223,39.19999999999999L-365.55555555555554,39.19999999999999L-338.88888888888886,39.19999999999999L-312.22222222222223,39.000000000000014L-285.55555555555554,39.000000000000014L-258.8888888888889,39.000000000000014L-232.22222222222223,38.79999999999999L-205.55555555555554,38.79999999999999L-178.88888888888889,38.79999999999999L-152.22222222222223,38.79999999999999L-125.55555555555556,38.79999999999999L-98.88888888888889,38.79999999999999L-72.22222222222221,38.79999999999999L-45.55555555555556,38.79999999999999L-18.88888888888889,38.60000000000001L7.777777777777778,38.60000000000001L34.44444444444444,38.60000000000001L61.111111111111114,38.60000000000001L87.77777777777777,38.60000000000001L114.44444444444444,38.60000000000001L141.11111111111111,38.39999999999999L167.77777777777777,37.999999999999986L194.44444444444443,37.999999999999986L221.11111111111111,37.59999999999999L247.77777777777777,37.000000000000014L274.44444444444446,36.79999999999999L301.1111111111111,36.20000000000001L327.77777777777777,35.59999999999999L354.44444444444446,35.400000000000006L381.1111111111111,35.400000000000006L407.77777777777777,35.19999999999999" stroke="#4c78a8" stroke-width="2" opacity="0.7"></path></g></g><path class="foreground" aria-hidden="true" d="" display="none"></path></g></g><g class="mark-group role-title"><g transform="translate(200,-54)"><path class="background" aria-hidden="true" d="M0,0h0v0h0Z" pointer-events="none"></path><g><g class="mark-text role-title-text" role="graphics-symbol" aria-roledescription="title" aria-label="Title text 'Total [2020-06-23]'" pointer-events="none"><text text-anchor="middle" transform="translate(0,10)" font-family="Roboto Condensed" font-size="13px" font-weight="normal" fill="#000" opacity="1"><tspan>Total</tspan><tspan x="0" dy="15">[2020-06-23]</tspan></text></g></g><path class="foreground" aria-hidden="true" d="" pointer-events="none" display="none"></path></g></g></g><path class="foreground" aria-hidden="true" d="" display="none"></path></g></g><g class="mark-group role-legend" role="graphics-symbol" aria-roledescription="legend" aria-label="Symbol legend for stroke color with 3 values: Confirmed, Deaths, Recovered"><g transform="translate(883,0)"><path class="background" aria-hidden="true" d="M0,0h58v37h-58Z" pointer-events="none"></path><g><g class="mark-group role-legend-entry"><g transform="translate(0,0)"><path class="background" aria-hidden="true" d="M0,0h0v0h0Z" pointer-events="none"></path><g><g class="mark-group role-scope" role="graphics-object" aria-roledescription="group mark container"><g transform="translate(0,0)"><path class="background" aria-hidden="true" d="M0,0h58v11h-58Z" pointer-events="none" opacity="1"></path><g><g class="mark-symbol role-legend-symbol" pointer-events="none"><path transform="translate(6,6)" d="M-5,0L5,0" stroke="#4c78a8" stroke-width="1.5" opacity="0.2"></path></g><g class="mark-text role-legend-label" pointer-events="none"><text text-anchor="start" transform="translate(16,9)" font-family="Roboto Condensed" font-size="10px" fill="#000" opacity="1">Confirmed</text></g></g><path class="foreground" aria-hidden="true" d="" pointer-events="none" display="none"></path></g><g transform="translate(0,13)"><path class="background" aria-hidden="true" d="M0,0h58v11h-58Z" pointer-events="none" opacity="1"></path><g><g class="mark-symbol role-legend-symbol" pointer-events="none"><path transform="translate(6,6)" d="M-5,0L5,0" stroke="#f58518" stroke-width="1.5" opacity="0.2"></path></g><g class="mark-text role-legend-label" pointer-events="none"><text text-anchor="start" transform="translate(16,9)" font-family="Roboto Condensed" font-size="10px" fill="#000" opacity="1">Deaths</text></g></g><path class="foreground" aria-hidden="true" d="" pointer-events="none" display="none"></path></g><g transform="translate(0,26)"><path class="background" aria-hidden="true" d="M0,0h58v11h-58Z" pointer-events="none" opacity="1"></path><g><g class="mark-symbol role-legend-symbol" pointer-events="none"><path transform="translate(6,6)" d="M-5,0L5,0" stroke="#e45756" stroke-width="1.5" opacity="0.2"></path></g><g class="mark-text role-legend-label" pointer-events="none"><text text-anchor="start" transform="translate(16,9)" font-family="Roboto Condensed" font-size="10px" fill="#000" opacity="1">Recovered</text></g></g><path class="foreground" aria-hidden="true" d="" pointer-events="none" display="none"></path></g></g></g><path class="foreground" aria-hidden="true" d="" pointer-events="none" display="none"></path></g></g></g><path class="foreground" aria-hidden="true" d="" pointer-events="none" display="none"></path></g></g></g><path class="foreground" aria-hidden="true" d="" display="none"></path></g></g></g></svg>