<svg class="marks" width="996" height="491" viewBox="0 0 996 491" version="1.1" xmlns="http://www.w3.org/2000/svg" xmlns:xlink="http://www.w3.org/1999/xlink"><defs><clipPath id="clip1"><rect x="0" y="0" width="400" height="400"></rect></clipPath><clipPath id="clip2"><rect x="0" y="0" width="400" height="400"></rect></clipPath><clipPath id="clip3"><rect x="0" y="0" width="400" height="400"></rect></clipPath><clipPath id="clip4"><rect x="0" y="0" width="400" height="400"></rect></clipPath><clipPath id="clip5"><rect x="0" y="0" width="400" height="400"></rect></clipPath><clipPath id="clip6"><rect x="0" y="0" width="400" height="400"></rect></clipPath><clipPath id="clip7"><rect x="0" y="0" width="400" height="400"></rect></clipPath><clipPath id="clip8"><rect x="0" y="0" width="400" height="400"></rect></clipPath><clipPath id="clip9"><rect x="0" y="0" width="400" height="400"></rect></clipPath></defs><rect width="996" height="491" fill="white"></rect><g fill="none" stroke-miterlimit="10" transform="translate(50,59)"><g class="mark-group role-frame root" role="graphics-object" aria-roledescription="group mark container"><g transform="translate(0,0)"><path class="background" aria-hidden="true" d="M0,0h0v400h0Z"></path><g><g class="mark-group role-scope concat_0_group" role="graphics-object" aria-roledescription="group mark container"><g transform="translate(0,0)"><path class="background" aria-hidden="true" d="M0,0h400v400h-400Z" stroke="#ddd" stroke-width="0"></path><g><g class="mark-group role-axis" aria-hidden="true"><g transform="translate(0.5,0.5)"><path class="background" aria-hidden="true" d="M0,0h0v0h0Z" pointer-events="none"></path><g><g class="mark-rule role-axis-grid" pointer-events="none"><line transform="translate(0,400)" x2="400" y2="0" stroke="#ddd" stroke-width="1" opacity="1"></line><line transform="translate(0,360)" x2="400" y2="0" stroke="#ddd" stroke-width="1" opacity="1"></line><line transform="translate(0,320)" x2="400" y2="0" stroke="#ddd" stroke-width="1" opacity="1"></line><line transform="translate(0,280)" x2="400" y2="0" stroke="#ddd" stroke-width="1" opacity="1"></line><line transform="translate(0,240)" x2="400" y2="0" stroke="#ddd" stroke-width="1" opacity="1"></line><line transform="translate(0,200)" x2="400" y2="0" stroke="#ddd" stroke-width="1" opacity="1"></line><line transform="translate(0,160)" x2="400" y2="0" stroke="#ddd" stroke-width="1" opacity="1"></line><line transform="translate(0,120)" x2="400" y2="0" stroke="#ddd" stroke-width="1" opacity="1"></line><line transform="translate(0,80)" x2="400" y2="0" stroke="#ddd" stroke-width="1" opacity="1"></line><line transform="translate(0,40)" x2="400" y2="0" stroke="#ddd" stroke-width="1" opacity="1"></line><line transform="translate(0,0)" x2="400" y2="0" stroke="#ddd" stroke-width="1" opacity="1"></line></g></g><path class="foreground" aria-hidden="true" d="" pointer-events="none" display="none"></path></g></g><g class="mark-group role-axis" role="graphics-symbol" aria-roledescription="axis" aria-label="X-axis titled 'Date' for a time scale with values from May 28 to June 12"><g transform="translate(0.5,400.5)"><path class="background" aria-hidden="true" d="M0,0h0v0h0Z" pointer-events="none"></path><g><g class="mark-text role-axis-label" pointer-events="none"><text text-anchor="middle" transform="translate(7.777777777777778,10)" font-family="Roboto Condensed" font-size="10px" fill="#000" opacity="1">May 29</text><text text-anchor="middle" transform="translate(61.111111111111114,10)" font-family="Roboto Condensed" font-size="10px" fill="#000" opacity="0">May 31</text><text text-anchor="middle" transform="translate(87.77777777777777,10)" font-family="Roboto Condensed" font-size="10px" fill="#000" opacity="1">Jun 01</text><text text-anchor="middle" transform="translate(141.11111111111111,10)" font-family="Roboto Condensed" font-size="10px" fill="#000" opacity="0">Jun 03</text><text text-anchor="middle" transform="translate(194.44444444444443,10)" font-family="Roboto Condensed" font-size="10px" fill="#000" opacity="1">Jun 05</text><text text-anchor="middle" transform="translate(247.77777777777777,10)" font-family="Roboto Condensed" font-size="10px" fill="#000" opacity="0">Jun 07</text><text text-anchor="middle" transform="translate(301.1111111111111,10)" font-family="Roboto Condensed" font-size="10px" fill="#000" opacity="1">Jun 09</text><text text-anchor="middle" transform="translate(354.44444444444446,10)" font-family="Roboto Condensed" font-size="10px" fill="#000" opacity="0">Jun 11</text></g><g class="mark-rule role-axis-domain" pointer-events="none"><line transform="translate(0,0)" x2="400" y2="0" stroke="lightgray" stroke-width="1" opacity="1"></line></g><g class="mark-text role-axis-title" pointer-events="none"><text text-anchor="middle" transform="translate(200,25)" font-family="Roboto Condensed" font-size="11px" font-weight="normal" fill="#000" opacity="1">Date</text></g></g><path class="foreground" aria-hidden="true" d="" pointer-events="none" display="none"></path></g></g><g class="mark-group role-axis" role="graphics-symbol" aria-roledescription="axis" aria-label="Y-axis titled 'Count' for a linear scale with values from -100 to 900"><g transform="translate(0.5,0.5)"><path class="background" aria-hidden="true" d="M0,0h0v0h0Z" pointer-events="none"></path><g><g class="mark-text role-axis-label" pointer-events="none"><text text-anchor="end" transform="translate(-2,403)" font-family="Roboto Condensed" font-size="10px" fill="#000" opacity="1">-100</text><text text-anchor="end" transform="translate(-2,363)" font-family="Roboto Condensed" font-size="10px" fill="#000" opacity="1">0</text><text text-anchor="end" transform="translate(-2,323)" font-family="Roboto Condensed" font-size="10px" fill="#000" opacity="1">100</text><text text-anchor="end" transform="translate(-2,283)" font-family="Roboto Condensed" font-size="10px" fill="#000" opacity="1">200</text><text text-anchor="end" transform="translate(-2,243)" font-family="Roboto Condensed" font-size="10px" fill="#000" opacity="1">300</text><text text-anchor="end" transform="translate(-2,203)" font-family="Roboto Condensed" font-size="10px" fill="#000" opacity="1">400</text><text text-anchor="end" transform="translate(-2,163)" font-family="Roboto Condensed" font-size="10px" fill="#000" opacity="1">500</text><text text-anchor="end" transform="translate(-2,123.00000000000001)" font-family="Roboto Condensed" font-size="10px" fill="#000" opacity="1">600</text><text text-anchor="end" transform="translate(-2,82.99999999999999)" font-family="Roboto Condensed" font-size="10px" fill="#000" opacity="1">700</text><text text-anchor="end" transform="translate(-2,42.99999999999999)" font-family="Roboto Condensed" font-size="10px" fill="#000" opacity="1">800</text><text text-anchor="end" transform="translate(-2,3)" font-family="Roboto Condensed" font-size="10px" fill="#000" opacity="1">900</text></g><g class="mark-rule role-axis-domain" pointer-events="none"><line transform="translate(0,400)" x2="0" y2="-400" stroke="lightgray" stroke-width="1" opacity="1"></line></g><g class="mark-text role-axis-title" pointer-events="none"><text text-anchor="start" transform="translate(-45,-13)" font-family="Roboto Condensed" font-size="11px" font-weight="normal" fill="#000" opacity="1">Count</text></g></g><path class="foreground" aria-hidden="true" d="" pointer-events="none" display="none"></path></g></g><g class="mark-group role-scope concat_0_layer_0_pathgroup" role="graphics-object" aria-roledescription="group mark container"><g transform="translate(0,0)"><path class="background" aria-hidden="true" d="M0,0h400v400h-400Z"></path><g><g class="mark-line role-mark concat_0_layer_0_marks" clip-path="url(#clip1)" role="graphics-object" aria-roledescription="line mark container"><path aria-label="Type: Recovered; Date: Mar 01; Count: 0" role="graphics-symbol" aria-roledescription="line mark" d="M-2364.4444444444443,360L-2337.777777777778,360L-2311.111111111111,360L-2284.4444444444443,360L-2257.777777777778,360L-2231.111111111111,359.6L-2204.4444444444443,360L-2177.777777777778,360L-2152.222222222222,360L-2125.5555555555557,360L-2098.8888888888887,360L-2072.222222222222,360L-2045.5555555555557,360L-2018.888888888889,360L-1992.2222222222222,360L-1965.5555555555554,360L-1938.888888888889,360L-1912.2222222222224,360L-1885.5555555555554,360L-1858.888888888889,360L-1832.2222222222222,360L-1805.5555555555557,360L-1778.8888888888887,360L-1752.2222222222222,360L-1725.5555555555557,360L-1698.8888888888887,360L-1672.2222222222222,360L-1645.5555555555557,360L-1618.888888888889,360L-1592.2222222222222,360L-1565.5555555555554,360L-1538.888888888889,2.8000000000000025L-1512.2222222222222,282L-1485.5555555555557,318.40000000000003L-1458.888888888889,324L-1432.2222222222222,342.4L-1405.5555555555554,339.59999999999997L-1378.888888888889,314.8L-1352.2222222222222,308L-1325.5555555555557,314L-1298.888888888889,345.2L-1272.2222222222222,287.2L-1245.5555555555557,292.8L-1218.888888888889,315.2L-1192.2222222222222,248L-1165.5555555555554,266.8L-1138.888888888889,250L-1112.2222222222222,213.60000000000002L-1085.5555555555557,176.79999999999998L-1058.888888888889,242.4L-1032.2222222222222,291.59999999999997L-1005.5555555555555,204.8L-978.8888888888889,205.20000000000002L-952.2222222222222,241.2L-925.5555555555557,303.2L-898.8888888888889,302.8L-872.2222222222222,305.6L-845.5555555555555,298.4L-818.8888888888888,295.2L-792.2222222222223,262L-765.5555555555555,288L-738.8888888888889,286.8L-712.2222222222222,296L-685.5555555555555,320.8L-658.8888888888889,319.59999999999997L-632.2222222222222,276.79999999999995L-605.5555555555555,281.20000000000005L-578.8888888888889,272.79999999999995L-552.2222222222222,273.59999999999997L-525.5555555555555,293.6L-498.8888888888889,310.40000000000003L-472.22222222222223,315.6L-445.55555555555554,259.2L-418.8888888888889,326.79999999999995L-392.22222222222223,303.2L-365.55555555555554,298.4L-338.88888888888886,300.8L-312.22222222222223,312L-285.55555555555554,330.40000000000003L-258.8888888888889,314L-232.22222222222223,312L-205.55555555555554,317.2L-178.88888888888889,311.6L-152.22222222222223,331.20000000000005L-125.55555555555556,334.4L-98.88888888888889,334.4L-72.22222222222221,328L-45.55555555555556,335.2L-18.88888888888889,330.40000000000003L7.777777777777778,336L34.44444444444444,325.2L61.111111111111114,346L87.77777777777777,340L114.44444444444444,329.2L141.11111111111111,334.8L167.77777777777777,332.8L194.44444444444443,346.8L221.11111111111111,332.8L247.77777777777777,346.4L274.44444444444446,345.2L301.1111111111111,337.2L327.77777777777777,338L354.44444444444446,339.59999999999997L381.1111111111111,344.8L407.77777777777777,343.2" stroke="#e45756" stroke-width="2" opacity="0.2"></path></g></g><path class="foreground" aria-hidden="true" d="" display="none"></path></g><g transform="translate(0,0)"><path class="background" aria-hidden="true" d="M0,0h400v400h-400Z"></path><g><g class="mark-line role-mark concat_0_layer_0_marks" clip-path="url(#clip2)" role="graphics-object" aria-roledescription="line mark container"><path aria-label="Type: Deaths; Date: Mar 01; Count: 0" role="graphics-symbol" aria-roledescription="line mark" d="M-2364.4444444444443,360L-2337.777777777778,360L-2311.111111111111,360L-2284.4444444444443,360L-2257.777777777778,360L-2231.111111111111,360L-2204.4444444444443,360L-2177.777777777778,360L-2152.222222222222,360L-2125.5555555555557,360L-2098.8888888888887,360L-2072.222222222222,360L-2045.5555555555557,360L-2018.888888888889,359.6L-1992.2222222222222,359.6L-1965.5555555555554,359.6L-1938.888888888889,359.6L-1912.2222222222224,360L-1885.5555555555554,359.2L-1858.888888888889,358.8L-1832.2222222222222,358.40000000000003L-1805.5555555555557,360L-1778.8888888888887,355.6L-1752.2222222222222,356.8L-1725.5555555555557,359.2L-1698.8888888888887,357.2L-1672.2222222222222,355.6L-1645.5555555555557,354.8L-1618.888888888889,357.2L-1592.2222222222222,358L-1565.5555555555554,354.8L-1538.888888888889,354.4L-1512.2222222222222,352.4L-1485.5555555555557,353.6L-1458.888888888889,351.2L-1432.2222222222222,352.8L-1405.5555555555554,356.8L-1378.888888888889,353.6L-1352.2222222222222,354L-1325.5555555555557,352.4L-1298.888888888889,356L-1272.2222222222222,354.8L-1245.5555555555557,354.8L-1218.888888888889,355.2L-1192.2222222222222,354.4L-1165.5555555555554,356L-1138.888888888889,355.2L-1112.2222222222222,354L-1085.5555555555557,356L-1058.888888888889,356.4L-1032.2222222222222,356.4L-1005.5555555555555,357.6L-978.8888888888889,354.4L-952.2222222222222,356L-925.5555555555557,356.4L-898.8888888888889,354L-872.2222222222222,358.40000000000003L-845.5555555555555,358L-818.8888888888888,357.2L-792.2222222222223,356.4L-765.5555555555555,356.4L-738.8888888888889,356.8L-712.2222222222222,354L-685.5555555555555,356.4L-658.8888888888889,356.4L-632.2222222222222,356L-605.5555555555555,358.8L-578.8888888888889,356.8L-552.2222222222222,356.8L-525.5555555555555,358.40000000000003L-498.8888888888889,358.8L-472.22222222222223,358.40000000000003L-445.55555555555554,362.40000000000003L-418.8888888888889,357.6L-392.22222222222223,358.40000000000003L-365.55555555555554,360L-338.88888888888886,357.6L-312.22222222222223,358.40000000000003L-285.55555555555554,359.6L-258.8888888888889,358.8L-232.22222222222223,358.8L-205.55555555555554,357.2L-178.88888888888889,360L-152.22222222222223,360L-125.55555555555556,359.6L-98.88888888888889,359.6L-72.22222222222221,360L-45.55555555555556,359.2L-18.88888888888889,358.8L7.777777777777778,360L34.44444444444444,358.8L61.111111111111114,358.8L87.77777777777777,359.2L114.44444444444444,358.40000000000003L141.11111111111111,360L167.77777777777777,359.2L194.44444444444443,358.40000000000003L221.11111111111111,359.6L247.77777777777777,359.2L274.44444444444446,358.40000000000003L301.1111111111111,360L327.77777777777777,360L354.44444444444446,360L381.1111111111111,359.6L407.77777777777777,358.8" stroke="#f58518" stroke-width="2" opacity="0.2"></path></g></g><path class="foreground" aria-hidden="true" d="" display="none"></path></g><g transform="translate(0,0)"><path class="background" aria-hidden="true" d="M0,0h400v400h-400Z"></path><g><g class="mark-line role-mark concat_0_layer_0_marks" clip-path="url(#clip3)" role="graphics-object" aria-roledescription="line mark container"><path aria-label="Type: Confirmed; Date: Mar 01; Count: 1" role="graphics-symbol" aria-roledescription="line mark" d="M-2364.4444444444443,359.6L-2337.777777777778,360L-2311.111111111111,359.2L-2284.4444444444443,358.40000000000003L-2257.777777777778,360L-2231.111111111111,354.8L-2204.4444444444443,360L-2177.777777777778,355.2L-2152.222222222222,338L-2125.5555555555557,291.2L-2098.8888888888887,288L-2072.222222222222,290.8L-2045.5555555555557,285.59999999999997L-2018.888888888889,349.6L-1992.2222222222222,345.2L-1965.5555555555554,340L-1938.888888888889,334.8L-1912.2222222222224,328L-1885.5555555555554,322.40000000000003L-1858.888888888889,318.40000000000003L-1832.2222222222222,331.59999999999997L-1805.5555555555557,332.4L-1778.8888888888887,338L-1752.2222222222222,303.6L-1725.5555555555557,306.8L-1698.8888888888887,298.8L-1672.2222222222222,292.4L-1645.5555555555557,298L-1618.888888888889,282.4L-1592.2222222222222,287.2L-1565.5555555555554,246.8L-1538.888888888889,261.2L-1512.2222222222222,248.4L-1485.5555555555557,211.60000000000002L-1458.888888888889,232.00000000000003L-1432.2222222222222,243.2L-1405.5555555555554,235.20000000000005L-1378.888888888889,204L-1352.2222222222222,227.59999999999997L-1325.5555555555557,266.8L-1298.888888888889,286.4L-1272.2222222222222,289.2L-1245.5555555555557,288.8L-1218.888888888889,302.4L-1192.2222222222222,282.8L-1165.5555555555554,292L-1138.888888888889,280.79999999999995L-1112.2222222222222,282.4L-1085.5555555555557,292.4L-1058.888888888889,303.2L-1032.2222222222222,307.6L-1005.5555555555555,288L-978.8888888888889,273.20000000000005L-952.2222222222222,295.6L-925.5555555555557,305.2L-898.8888888888889,266L-872.2222222222222,308L-845.5555555555555,310.8L-818.8888888888888,298.8L-792.2222222222223,297.2L-765.5555555555555,300L-738.8888888888889,298.8L-712.2222222222222,321.6L-685.5555555555555,313.6L-658.8888888888889,301.2L-632.2222222222222,299.6L-605.5555555555555,313.2L-578.8888888888889,302L-552.2222222222222,306L-525.5555555555555,319.59999999999997L-498.8888888888889,316L-472.22222222222223,326.40000000000003L-445.55555555555554,328.8L-418.8888888888889,329.6L-392.22222222222223,341.59999999999997L-365.55555555555554,328.8L-338.88888888888886,333.2L-312.22222222222223,332.4L-285.55555555555554,343.6L-258.8888888888889,329.6L-232.22222222222223,330.79999999999995L-205.55555555555554,334L-178.88888888888889,340.8L-152.22222222222223,336.4L-125.55555555555556,331.59999999999997L-98.88888888888889,349.2L-72.22222222222221,343.6L-45.55555555555556,339.2L-18.88888888888889,347.2L7.777777777777778,327.59999999999997L34.44444444444444,344L61.111111111111114,345.6L87.77777777777777,348L114.44444444444444,346L141.11111111111111,345.2L167.77777777777777,344L194.44444444444443,334.4L221.11111111111111,340.4L247.77777777777777,350.4L274.44444444444446,354.4L301.1111111111111,344.4L327.77777777777777,354L354.44444444444446,352.4L381.1111111111111,334.4L407.77777777777777,344" stroke="#4c78a8" stroke-width="2" opacity="0.2"></path></g></g><path class="foreground" aria-hidden="true" d="" display="none"></path></g></g><g class="mark-group role-scope concat_0_layer_1_pathgroup" role="graphics-object" aria-roledescription="group mark container"><g transform="translate(0,0)"><path class="background" aria-hidden="true" d="M0,0h400v400h-400Z"></path><g><g class="mark-line role-mark concat_0_layer_1_marks" clip-path="url(#clip4)" role="graphics-object" aria-roledescription="line mark container"><path aria-label="Type: Recovered; Date: Mar 01; Count: 0" role="graphics-symbol" aria-roledescription="line mark" d="M-2204.4444444444443,359.9428571428572L-2177.777777777778,359.9428571428572L-2152.222222222222,359.9428571428572L-2125.5555555555557,359.9428571428572L-2098.8888888888887,359.9428571428572L-2072.222222222222,359.9428571428572L-2045.5555555555557,360L-2018.888888888889,360L-1992.2222222222222,360L-1965.5555555555554,360L-1938.888888888889,360L-1912.2222222222224,360L-1885.5555555555554,360L-1858.888888888889,360L-1832.2222222222222,360L-1805.5555555555557,360L-1778.8888888888887,360L-1752.2222222222222,360L-1725.5555555555557,360L-1698.8888888888887,360L-1672.2222222222222,360L-1645.5555555555557,360L-1618.888888888889,360L-1592.2222222222222,360L-1565.5555555555554,360L-1538.888888888889,308.9714285714286L-1512.2222222222222,297.8285714285715L-1485.5555555555557,291.8857142857143L-1458.888888888889,286.74285714285713L-1432.2222222222222,284.22857142857146L-1405.5555555555554,281.3142857142857L-1378.888888888889,274.85714285714283L-1352.2222222222222,318.45714285714286L-1325.5555555555557,323.02857142857147L-1298.888888888889,326.8571428571429L-1272.2222222222222,321.6L-1245.5555555555557,314.5142857142857L-1218.888888888889,311.0285714285714L-1192.2222222222222,301.4857142857143L-1165.5555555555554,295.6L-1138.888888888889,286.45714285714286L-1112.2222222222222,267.65714285714284L-1085.5555555555557,251.88571428571427L-1058.888888888889,244.68571428571425L-1032.2222222222222,241.3142857142857L-1005.5555555555555,235.14285714285714L-978.8888888888889,226.34285714285713L-952.2222222222222,225.0857142857143L-925.5555555555557,237.8857142857143L-898.8888888888889,255.88571428571427L-872.2222222222222,264.9142857142857L-845.5555555555555,265.8857142857143L-818.8888888888888,278.8L-792.2222222222223,286.9142857142857L-765.5555555555555,293.6L-738.8888888888889,291.2571428571428L-712.2222222222222,290.2857142857143L-685.5555555555555,292.45714285714286L-658.8888888888889,295.48571428571427L-632.2222222222222,292.85714285714283L-605.5555555555555,295.6L-578.8888888888889,293.42857142857144L-552.2222222222222,291.54285714285714L-525.5555555555555,291.2L-498.8888888888889,289.71428571428567L-472.22222222222223,289.14285714285717L-445.55555555555554,286.62857142857143L-418.8888888888889,293.14285714285717L-392.22222222222223,297.4857142857143L-365.55555555555554,301.0285714285714L-338.88888888888886,302.0571428571428L-312.22222222222223,302.28571428571433L-285.55555555555554,304.4L-258.8888888888889,312.22857142857146L-232.22222222222223,310.1142857142857L-205.55555555555554,312.1142857142857L-178.88888888888889,314L-152.22222222222223,318.34285714285716L-125.55555555555556,321.54285714285714L-98.88888888888889,322.1142857142857L-72.22222222222221,324.1142857142857L-45.55555555555556,327.4285714285714L-18.88888888888889,329.3142857142857L7.777777777777778,332.8L34.44444444444444,331.9428571428571L61.111111111111114,333.59999999999997L87.77777777777777,334.4L114.44444444444444,334.57142857142856L141.11111111111111,334.51428571428573L167.77777777777777,334.8571428571429L194.44444444444443,336.4L221.11111111111111,337.4857142857143L247.77777777777777,337.54285714285714L274.44444444444446,338.2857142857143L301.1111111111111,339.4285714285714L327.77777777777777,339.8857142857143L354.44444444444446,340.85714285714283L381.1111111111111,340.57142857142856L407.77777777777777,342.0571428571429" stroke="#e45756" stroke-width="2" opacity="1"></path></g></g><path class="foreground" aria-hidden="true" d="" display="none"></path></g><g transform="translate(0,0)"><path class="background" aria-hidden="true" d="M0,0h400v400h-400Z"></path><g><g class="mark-line role-mark concat_0_layer_1_marks" clip-path="url(#clip5)" role="graphics-object" aria-roledescription="line mark container"><path aria-label="Type: Deaths; Date: Mar 01; Count: 0" role="graphics-symbol" aria-roledescription="line mark" d="M-2204.4444444444443,360L-2177.777777777778,360L-2152.222222222222,360L-2125.5555555555557,360L-2098.8888888888887,360L-2072.222222222222,360L-2045.5555555555557,360L-2018.888888888889,359.9428571428572L-1992.2222222222222,359.8857142857143L-1965.5555555555554,359.8285714285714L-1938.888888888889,359.7714285714286L-1912.2222222222224,359.7714285714286L-1885.5555555555554,359.65714285714284L-1858.888888888889,359.48571428571427L-1832.2222222222222,359.31428571428575L-1805.5555555555557,359.37142857142857L-1778.8888888888887,358.8L-1752.2222222222222,358.40000000000003L-1725.5555555555557,358.2857142857143L-1698.8888888888887,358L-1672.2222222222222,357.54285714285714L-1645.5555555555557,357.0285714285714L-1618.888888888889,356.62857142857143L-1592.2222222222222,356.9714285714286L-1565.5555555555554,356.68571428571425L-1538.888888888889,356L-1512.2222222222222,355.31428571428575L-1485.5555555555557,355.0285714285714L-1458.888888888889,354.51428571428573L-1432.2222222222222,353.88571428571424L-1405.5555555555554,353.7142857142857L-1378.888888888889,353.54285714285714L-1352.2222222222222,353.48571428571427L-1325.5555555555557,353.48571428571427L-1298.888888888889,353.8285714285714L-1272.2222222222222,354.34285714285716L-1245.5555555555557,354.62857142857143L-1218.888888888889,354.4L-1192.2222222222222,354.51428571428573L-1165.5555555555554,354.8L-1138.888888888889,355.2L-1112.2222222222222,354.9142857142857L-1085.5555555555557,355.0857142857143L-1058.888888888889,355.31428571428575L-1032.2222222222222,355.48571428571427L-1005.5555555555555,355.9428571428572L-978.8888888888889,355.71428571428567L-952.2222222222222,355.8285714285714L-925.5555555555557,356.1714285714286L-898.8888888888889,355.88571428571424L-872.2222222222222,356.1714285714286L-845.5555555555555,356.4L-818.8888888888888,356.34285714285716L-792.2222222222223,356.62857142857143L-765.5555555555555,356.68571428571425L-738.8888888888889,356.74285714285713L-712.2222222222222,356.74285714285713L-685.5555555555555,356.45714285714286L-658.8888888888889,356.2285714285714L-632.2222222222222,356.0571428571428L-605.5555555555555,356.4L-578.8888888888889,356.45714285714286L-552.2222222222222,356.45714285714286L-525.5555555555555,357.0857142857143L-498.8888888888889,357.42857142857144L-472.22222222222223,357.7142857142857L-445.55555555555554,358.62857142857143L-418.8888888888889,358.45714285714286L-392.22222222222223,358.68571428571425L-365.55555555555554,359.14285714285717L-338.88888888888886,359.0285714285714L-312.22222222222223,358.9714285714286L-285.55555555555554,359.14285714285717L-258.8888888888889,358.62857142857143L-232.22222222222223,358.8L-205.55555555555554,358.62857142857143L-178.88888888888889,358.62857142857143L-152.22222222222223,358.9714285714286L-125.55555555555556,359.14285714285717L-98.88888888888889,359.14285714285717L-72.22222222222221,359.31428571428575L-45.55555555555556,359.37142857142857L-18.88888888888889,359.6L7.777777777777778,359.6L34.44444444444444,359.42857142857144L61.111111111111114,359.31428571428575L87.77777777777777,359.25714285714287L114.44444444444444,359.0285714285714L141.11111111111111,359.14285714285717L167.77777777777777,359.2L194.44444444444443,358.9714285714286L221.11111111111111,359.0857142857143L247.77777777777777,359.14285714285717L274.44444444444446,359.0285714285714L301.1111111111111,359.25714285714287L327.77777777777777,359.25714285714287L354.44444444444446,359.37142857142857L381.1111111111111,359.54285714285714L407.77777777777777,359.42857142857144" stroke="#f58518" stroke-width="2" opacity="1"></path></g></g><path class="foreground" aria-hidden="true" d="" display="none"></path></g><g transform="translate(0,0)"><path class="background" aria-hidden="true" d="M0,0h400v400h-400Z"></path><g><g class="mark-line role-mark concat_0_layer_1_marks" clip-path="url(#clip6)" role="graphics-object" aria-roledescription="line mark container"><path aria-label="Type: Confirmed; Date: Mar 01; Count: 0" role="graphics-symbol" aria-roledescription="line mark" d="M-2204.4444444444443,358.85714285714283L-2177.777777777778,358.22857142857146L-2152.222222222222,355.0857142857143L-2125.5555555555557,345.37142857142857L-2098.8888888888887,335.31428571428575L-2072.222222222222,325.42857142857144L-2045.5555555555557,315.54285714285714L-2018.888888888889,314.0571428571429L-1992.2222222222222,312.62857142857143L-1965.5555555555554,312.9142857142857L-1938.888888888889,319.1428571428571L-1912.2222222222224,324.8571428571429L-1885.5555555555554,329.37142857142857L-1858.888888888889,334.0571428571429L-1832.2222222222222,331.48571428571427L-1805.5555555555557,329.65714285714284L-1778.8888888888887,329.37142857142857L-1752.2222222222222,324.9142857142857L-1725.5555555555557,321.8857142857143L-1698.8888888888887,318.51428571428573L-1672.2222222222222,314.8L-1645.5555555555557,310L-1618.888888888889,302.85714285714283L-1592.2222222222222,295.6L-1565.5555555555554,287.4857142857143L-1538.888888888889,280.97142857142853L-1512.2222222222222,273.77142857142854L-1485.5555555555557,262.22857142857146L-1458.888888888889,252.8L-1432.2222222222222,247.2L-1405.5555555555554,239.77142857142857L-1378.888888888889,233.65714285714287L-1352.2222222222222,228.85714285714286L-1325.5555555555557,231.4857142857143L-1298.888888888889,242.17142857142858L-1272.2222222222222,250.34285714285716L-1245.5555555555557,256.85714285714283L-1218.888888888889,266.45714285714286L-1192.2222222222222,277.7142857142857L-1165.5555555555554,286.9142857142857L-1138.888888888889,288.91428571428565L-1112.2222222222222,288.34285714285716L-1085.5555555555557,288.8L-1058.888888888889,290.85714285714283L-1032.2222222222222,291.59999999999997L-1005.5555555555555,292.34285714285716L-978.8888888888889,289.65714285714284L-952.2222222222222,291.77142857142854L-925.5555555555557,295.0285714285714L-898.8888888888889,291.2571428571428L-872.2222222222222,291.9428571428571L-845.5555555555555,292.4L-818.8888888888888,293.9428571428572L-792.2222222222223,297.37142857142857L-765.5555555555555,298L-738.8888888888889,297.0857142857143L-712.2222222222222,305.0285714285714L-685.5555555555555,305.8285714285714L-658.8888888888889,304.45714285714286L-632.2222222222222,304.57142857142856L-605.5555555555555,306.85714285714283L-578.8888888888889,307.1428571428571L-552.2222222222222,308.1714285714286L-525.5555555555555,307.8857142857143L-498.8888888888889,308.22857142857146L-472.22222222222223,311.8285714285714L-445.55555555555554,316L-418.8888888888889,318.34285714285716L-392.22222222222223,324L-365.55555555555554,327.25714285714287L-338.88888888888886,329.2L-312.22222222222223,331.54285714285714L-285.55555555555554,334L-258.8888888888889,334.1142857142857L-232.22222222222223,334.2857142857143L-205.55555555555554,333.2L-178.88888888888889,334.9142857142857L-152.22222222222223,335.37142857142857L-125.55555555555556,335.2571428571428L-98.88888888888889,336.0571428571428L-72.22222222222221,338.0571428571429L-45.55555555555556,339.2571428571428L-18.88888888888889,341.14285714285717L7.777777777777778,339.2571428571428L34.44444444444444,340.34285714285716L61.111111111111114,342.34285714285716L87.77777777777777,342.1714285714286L114.44444444444444,342.51428571428573L141.11111111111111,343.37142857142857L167.77777777777777,342.9142857142857L194.44444444444443,343.88571428571424L221.11111111111111,343.37142857142857L247.77777777777777,344.0571428571428L274.44444444444446,344.9714285714286L301.1111111111111,344.74285714285713L327.77777777777777,346L354.44444444444446,347.2L381.1111111111111,347.2L407.77777777777777,347.71428571428567" stroke="#4c78a8" stroke-width="2" opacity="1"></path></g></g><path class="foreground" aria-hidden="true" d="" display="none"></path></g></g><g class="mark-group role-title"><g transform="translate(200,-54)"><path class="background" aria-hidden="true" d="M0,0h0v0h0Z" pointer-events="none"></path><g><g class="mark-text role-title-text" role="graphics-symbol" aria-roledescription="title" aria-label="Title text '7-day average (light color: daily values) [2020-06-13]'" pointer-events="none"><text text-anchor="middle" transform="translate(0,10)" font-family="Roboto Condensed" font-size="13px" font-weight="normal" fill="#000" opacity="1"><tspan>7-day average (light color: daily values)</tspan><tspan x="0" dy="15">[2020-06-13]</tspan></text></g></g><path class="foreground" aria-hidden="true" d="" pointer-events="none" display="none"></path></g></g></g><path class="foreground" aria-hidden="true" d="" display="none"></path></g></g><g class="mark-group role-scope concat_1_group" role="graphics-object" aria-roledescription="group mark container"><g transform="translate(465,0)"><path class="background" aria-hidden="true" d="M0,0h400v400h-400Z" stroke="#ddd" stroke-width="0"></path><g><g class="mark-group role-axis" aria-hidden="true"><g transform="translate(0.5,0.5)"><path class="background" aria-hidden="true" d="M0,0h0v0h0Z" pointer-events="none"></path><g><g class="mark-rule role-axis-grid" pointer-events="none"><line transform="translate(0,400)" x2="400" y2="0" stroke="#ddd" stroke-width="1" opacity="1"></line><line transform="translate(0,369)" x2="400" y2="0" stroke="#ddd" stroke-width="1" opacity="1"></line><line transform="translate(0,338)" x2="400" y2="0" stroke="#ddd" stroke-width="1" opacity="1"></line><line transform="translate(0,308)" x2="400" y2="0" stroke="#ddd" stroke-width="1" opacity="1"></line><line transform="translate(0,277)" x2="400" y2="0" stroke="#ddd" stroke-width="1" opacity="1"></line><line transform="translate(0,246)" x2="400" y2="0" stroke="#ddd" stroke-width="1" opacity="1"></line><line transform="translate(0,215)" x2="400" y2="0" stroke="#ddd" stroke-width="1" opacity="1"></line><line transform="translate(0,185)" x2="400" y2="0" stroke="#ddd" stroke-width="1" opacity="1"></line><line transform="translate(0,154)" x2="400" y2="0" stroke="#ddd" stroke-width="1" opacity="1"></line><line transform="translate(0,123)" x2="400" y2="0" stroke="#ddd" stroke-width="1" opacity="1"></line><line transform="translate(0,92)" x2="400" y2="0" stroke="#ddd" stroke-width="1" opacity="1"></line><line transform="translate(0,62)" x2="400" y2="0" stroke="#ddd" stroke-width="1" opacity="1"></line><line transform="translate(0,31)" x2="400" y2="0" stroke="#ddd" stroke-width="1" opacity="1"></line><line transform="translate(0,0)" x2="400" y2="0" stroke="#ddd" stroke-width="1" opacity="1"></line></g></g><path class="foreground" aria-hidden="true" d="" pointer-events="none" display="none"></path></g></g><g class="mark-group role-axis" role="graphics-symbol" aria-roledescription="axis" aria-label="X-axis titled 'Date' for a time scale with values from May 28 to June 12"><g transform="translate(0.5,400.5)"><path class="background" aria-hidden="true" d="M0,0h0v0h0Z" pointer-events="none"></path><g><g class="mark-text role-axis-label" pointer-events="none"><text text-anchor="middle" transform="translate(7.777777777777778,10)" font-family="Roboto Condensed" font-size="10px" fill="#000" opacity="1">May 29</text><text text-anchor="middle" transform="translate(61.111111111111114,10)" font-family="Roboto Condensed" font-size="10px" fill="#000" opacity="0">May 31</text><text text-anchor="middle" transform="translate(87.77777777777777,10)" font-family="Roboto Condensed" font-size="10px" fill="#000" opacity="1">Jun 01</text><text text-anchor="middle" transform="translate(141.11111111111111,10)" font-family="Roboto Condensed" font-size="10px" fill="#000" opacity="0">Jun 03</text><text text-anchor="middle" transform="translate(194.44444444444443,10)" font-family="Roboto Condensed" font-size="10px" fill="#000" opacity="1">Jun 05</text><text text-anchor="middle" transform="translate(247.77777777777777,10)" font-family="Roboto Condensed" font-size="10px" fill="#000" opacity="0">Jun 07</text><text text-anchor="middle" transform="translate(301.1111111111111,10)" font-family="Roboto Condensed" font-size="10px" fill="#000" opacity="1">Jun 09</text><text text-anchor="middle" transform="translate(354.44444444444446,10)" font-family="Roboto Condensed" font-size="10px" fill="#000" opacity="0">Jun 11</text></g><g class="mark-rule role-axis-domain" pointer-events="none"><line transform="translate(0,0)" x2="400" y2="0" stroke="lightgray" stroke-width="1" opacity="1"></line></g><g class="mark-text role-axis-title" pointer-events="none"><text text-anchor="middle" transform="translate(200,25)" font-family="Roboto Condensed" font-size="11px" font-weight="normal" fill="#000" opacity="1">Date</text></g></g><path class="foreground" aria-hidden="true" d="" pointer-events="none" display="none"></path></g></g><g class="mark-group role-axis" role="graphics-symbol" aria-roledescription="axis" aria-label="Y-axis titled 'Count' for a linear scale with values from 0 to 13,000"><g transform="translate(0.5,0.5)"><path class="background" aria-hidden="true" d="M0,0h0v0h0Z" pointer-events="none"></path><g><g class="mark-text role-axis-label" pointer-events="none"><text text-anchor="end" transform="translate(-2,403)" font-family="Roboto Condensed" font-size="10px" fill="#000" opacity="1">0</text><text text-anchor="end" transform="translate(-2,372.2307692307692)" font-family="Roboto Condensed" font-size="10px" fill="#000" opacity="1">1,000</text><text text-anchor="end" transform="translate(-2,341.46153846153845)" font-family="Roboto Condensed" font-size="10px" fill="#000" opacity="1">2,000</text><text text-anchor="end" transform="translate(-2,310.6923076923077)" font-family="Roboto Condensed" font-size="10px" fill="#000" opacity="1">3,000</text><text text-anchor="end" transform="translate(-2,279.9230769230769)" font-family="Roboto Condensed" font-size="10px" fill="#000" opacity="1">4,000</text><text text-anchor="end" transform="translate(-2,249.15384615384616)" font-family="Roboto Condensed" font-size="10px" fill="#000" opacity="1">5,000</text><text text-anchor="end" transform="translate(-2,218.3846153846154)" font-family="Roboto Condensed" font-size="10px" fill="#000" opacity="1">6,000</text><text text-anchor="end" transform="translate(-2,187.6153846153846)" font-family="Roboto Condensed" font-size="10px" fill="#000" opacity="1">7,000</text><text text-anchor="end" transform="translate(-2,156.84615384615384)" font-family="Roboto Condensed" font-size="10px" fill="#000" opacity="1">8,000</text><text text-anchor="end" transform="translate(-2,126.07692307692308)" font-family="Roboto Condensed" font-size="10px" fill="#000" opacity="1">9,000</text><text text-anchor="end" transform="translate(-2,95.30769230769229)" font-family="Roboto Condensed" font-size="10px" fill="#000" opacity="1">10,000</text><text text-anchor="end" transform="translate(-2,64.53846153846155)" font-family="Roboto Condensed" font-size="10px" fill="#000" opacity="1">11,000</text><text text-anchor="end" transform="translate(-2,33.769230769230745)" font-family="Roboto Condensed" font-size="10px" fill="#000" opacity="1">12,000</text><text text-anchor="end" transform="translate(-2,3)" font-family="Roboto Condensed" font-size="10px" fill="#000" opacity="1">13,000</text></g><g class="mark-rule role-axis-domain" pointer-events="none"><line transform="translate(0,400)" x2="0" y2="-400" stroke="lightgray" stroke-width="1" opacity="1"></line></g><g class="mark-text role-axis-title" pointer-events="none"><text text-anchor="start" transform="translate(-45,-13)" font-family="Roboto Condensed" font-size="11px" font-weight="normal" fill="#000" opacity="1">Count</text></g></g><path class="foreground" aria-hidden="true" d="" pointer-events="none" display="none"></path></g></g><g class="mark-group role-scope concat_1_pathgroup" role="graphics-object" aria-roledescription="group mark container"><g transform="translate(0,0)"><path class="background" aria-hidden="true" d="M0,0h400v400h-400Z"></path><g><g class="mark-line role-mark concat_1_marks" clip-path="url(#clip7)" role="graphics-object" aria-roledescription="line mark container"><path aria-label="Type: Recovered; Date: Mar 01; Country: Denmark; Confirmed: 4; Recovered: 0; Deaths: 0; Count: 0" role="graphics-symbol" aria-roledescription="line mark" d="M-2364.4444444444443,400L-2337.777777777778,400L-2311.111111111111,400L-2284.4444444444443,400L-2257.777777777778,400L-2231.111111111111,399.96923076923076L-2204.4444444444443,399.96923076923076L-2177.777777777778,399.96923076923076L-2152.222222222222,399.96923076923076L-2125.5555555555557,399.96923076923076L-2098.8888888888887,399.96923076923076L-2072.222222222222,399.96923076923076L-2045.5555555555557,399.96923076923076L-2018.888888888889,399.96923076923076L-1992.2222222222222,399.96923076923076L-1965.5555555555554,399.96923076923076L-1938.888888888889,399.96923076923076L-1912.2222222222224,399.96923076923076L-1885.5555555555554,399.96923076923076L-1858.888888888889,399.96923076923076L-1832.2222222222222,399.96923076923076L-1805.5555555555557,399.96923076923076L-1778.8888888888887,399.96923076923076L-1752.2222222222222,399.96923076923076L-1725.5555555555557,399.96923076923076L-1698.8888888888887,399.96923076923076L-1672.2222222222222,399.96923076923076L-1645.5555555555557,399.96923076923076L-1618.888888888889,399.96923076923076L-1592.2222222222222,399.96923076923076L-1565.5555555555554,399.96923076923076L-1538.888888888889,372.4923076923077L-1512.2222222222222,366.4923076923077L-1485.5555555555557,363.29230769230765L-1458.888888888889,360.5230769230769L-1432.2222222222222,359.16923076923075L-1405.5555555555554,357.6L-1378.888888888889,354.12307692307695L-1352.2222222222222,350.12307692307695L-1325.5555555555557,346.58461538461535L-1298.888888888889,345.4461538461539L-1272.2222222222222,339.84615384615387L-1245.5555555555557,334.67692307692306L-1218.888888888889,331.2307692307692L-1192.2222222222222,322.61538461538464L-1165.5555555555554,315.44615384615383L-1138.888888888889,306.9846153846154L-1112.2222222222222,295.7230769230769L-1085.5555555555557,281.6307692307692L-1058.888888888889,272.5846153846154L-1032.2222222222222,267.3230769230769L-1005.5555555555555,255.38461538461536L-978.8888888888889,243.47692307692307L-952.2222222222222,234.33846153846156L-925.5555555555557,229.96923076923076L-898.8888888888889,225.56923076923078L-872.2222222222222,221.3846153846154L-845.5555555555555,216.64615384615385L-818.8888888888888,211.66153846153844L-792.2222222222223,204.12307692307695L-765.5555555555555,198.5846153846154L-738.8888888888889,192.95384615384617L-712.2222222222222,188.03076923076924L-685.5555555555555,185.01538461538462L-658.8888888888889,181.90769230769232L-632.2222222222222,175.5076923076923L-605.5555555555555,169.44615384615383L-578.8888888888889,162.73846153846154L-552.2222222222222,156.0923076923077L-525.5555555555555,150.9846153846154L-498.8888888888889,147.16923076923075L-472.22222222222223,143.75384615384615L-445.55555555555554,136L-418.8888888888889,133.44615384615386L-392.22222222222223,129.0769230769231L-365.55555555555554,124.33846153846156L-338.88888888888886,119.78461538461538L-312.22222222222223,116.09230769230767L-285.55555555555554,113.8153846153846L-258.8888888888889,110.27692307692307L-232.22222222222223,106.58461538461536L-205.55555555555554,103.2923076923077L-178.88888888888889,99.56923076923077L-152.22222222222223,97.35384615384616L-125.55555555555556,95.3846153846154L-98.88888888888889,93.41538461538464L-72.22222222222221,90.95384615384616L-45.55555555555556,89.04615384615386L-18.88888888888889,86.76923076923076L7.777777777777778,84.92307692307692L34.44444444444444,82.24615384615386L61.111111111111114,81.16923076923075L87.77777777777777,79.63076923076922L114.44444444444444,77.26153846153845L141.11111111111111,75.32307692307691L167.77777777777777,73.23076923076921L194.44444444444443,72.21538461538461L221.11111111111111,70.12307692307691L247.77777777777777,69.07692307692308L274.44444444444446,67.93846153846155L301.1111111111111,66.18461538461537L327.77777777777777,64.49230769230768L354.44444444444446,62.923076923076906L381.1111111111111,61.75384615384614L407.77777777777777,60.46153846153848" stroke="#e45756" stroke-width="2" opacity="0.7"></path></g></g><path class="foreground" aria-hidden="true" d="" display="none"></path></g><g transform="translate(0,0)"><path class="background" aria-hidden="true" d="M0,0h400v400h-400Z"></path><g><g class="mark-line role-mark concat_1_marks" clip-path="url(#clip8)" role="graphics-object" aria-roledescription="line mark container"><path aria-label="Type: Deaths; Date: Mar 01; Country: Denmark; Confirmed: 4; Recovered: 0; Deaths: 0; Count: 0" role="graphics-symbol" aria-roledescription="line mark" d="M-2364.4444444444443,400L-2337.777777777778,400L-2311.111111111111,400L-2284.4444444444443,400L-2257.777777777778,400L-2231.111111111111,400L-2204.4444444444443,400L-2177.777777777778,400L-2152.222222222222,400L-2125.5555555555557,400L-2098.8888888888887,400L-2072.222222222222,400L-2045.5555555555557,400L-2018.888888888889,399.96923076923076L-1992.2222222222222,399.9384615384615L-1965.5555555555554,399.9076923076923L-1938.888888888889,399.87692307692305L-1912.2222222222224,399.87692307692305L-1885.5555555555554,399.8153846153846L-1858.888888888889,399.7230769230769L-1832.2222222222222,399.6L-1805.5555555555557,399.6L-1778.8888888888887,399.26153846153846L-1752.2222222222222,399.0153846153846L-1725.5555555555557,398.95384615384614L-1698.8888888888887,398.73846153846154L-1672.2222222222222,398.4L-1645.5555555555557,398L-1618.888888888889,397.7846153846154L-1592.2222222222222,397.63076923076926L-1565.5555555555554,397.2307692307692L-1538.888888888889,396.8L-1512.2222222222222,396.21538461538466L-1485.5555555555557,395.7230769230769L-1458.888888888889,395.0461538461538L-1432.2222222222222,394.4923076923077L-1405.5555555555554,394.24615384615385L-1378.888888888889,393.75384615384615L-1352.2222222222222,393.2923076923077L-1325.5555555555557,392.7076923076923L-1298.888888888889,392.4L-1272.2222222222222,392L-1245.5555555555557,391.59999999999997L-1218.888888888889,391.2307692307692L-1192.2222222222222,390.8L-1165.5555555555554,390.4923076923077L-1138.888888888889,390.12307692307695L-1112.2222222222222,389.66153846153844L-1085.5555555555557,389.3538461538462L-1058.888888888889,389.0769230769231L-1032.2222222222222,388.8L-1005.5555555555555,388.61538461538464L-978.8888888888889,388.18461538461537L-952.2222222222222,387.8769230769231L-925.5555555555557,387.59999999999997L-898.8888888888889,387.1384615384615L-872.2222222222222,387.0153846153846L-845.5555555555555,386.86153846153843L-818.8888888888888,386.6461538461539L-792.2222222222223,386.36923076923074L-765.5555555555555,386.0923076923077L-738.8888888888889,385.84615384615387L-712.2222222222222,385.3846153846154L-685.5555555555555,385.10769230769233L-658.8888888888889,384.8307692307692L-632.2222222222222,384.5230769230769L-605.5555555555555,384.4307692307692L-578.8888888888889,384.18461538461537L-552.2222222222222,383.9384615384615L-525.5555555555555,383.81538461538463L-498.8888888888889,383.7230769230769L-472.22222222222223,383.59999999999997L-445.55555555555554,383.7846153846154L-418.8888888888889,383.59999999999997L-392.22222222222223,383.4769230769231L-365.55555555555554,383.4769230769231L-338.88888888888886,383.2923076923077L-312.22222222222223,383.16923076923075L-285.55555555555554,383.1384615384615L-258.8888888888889,383.04615384615386L-232.22222222222223,382.95384615384614L-205.55555555555554,382.73846153846154L-178.88888888888889,382.73846153846154L-152.22222222222223,382.73846153846154L-125.55555555555556,382.70769230769235L-98.88888888888889,382.6769230769231L-72.22222222222221,382.6769230769231L-45.55555555555556,382.61538461538464L-18.88888888888889,382.5230769230769L7.777777777777778,382.5230769230769L34.44444444444444,382.4307692307692L61.111111111111114,382.3384615384615L87.77777777777777,382.2769230769231L114.44444444444444,382.15384615384613L141.11111111111111,382.15384615384613L167.77777777777777,382.0923076923077L194.44444444444443,381.96923076923076L221.11111111111111,381.9384615384616L247.77777777777777,381.8769230769231L274.44444444444446,381.75384615384615L301.1111111111111,381.75384615384615L327.77777777777777,381.75384615384615L354.44444444444446,381.75384615384615L381.1111111111111,381.7230769230769L407.77777777777777,381.6307692307692" stroke="#f58518" stroke-width="2" opacity="0.7"></path></g></g><path class="foreground" aria-hidden="true" d="" display="none"></path></g><g transform="translate(0,0)"><path class="background" aria-hidden="true" d="M0,0h400v400h-400Z"></path><g><g class="mark-line role-mark concat_1_marks" clip-path="url(#clip9)" role="graphics-object" aria-roledescription="line mark container"><path aria-label="Type: Confirmed; Date: Mar 01; Country: Denmark; Confirmed: 4; Recovered: 0; Deaths: 0; Count: 4" role="graphics-symbol" aria-roledescription="line mark" d="M-2364.4444444444443,399.87692307692305L-2337.777777777778,399.87692307692305L-2311.111111111111,399.8153846153846L-2284.4444444444443,399.6923076923077L-2257.777777777778,399.6923076923077L-2231.111111111111,399.2923076923077L-2204.4444444444443,399.2923076923077L-2177.777777777778,398.92307692307696L-2152.222222222222,397.2307692307692L-2125.5555555555557,391.9384615384615L-2098.8888888888887,386.4L-2072.222222222222,381.0769230769231L-2045.5555555555557,375.3538461538461L-2018.888888888889,374.55384615384617L-1992.2222222222222,373.4153846153846L-1965.5555555555554,371.8769230769231L-1938.888888888889,369.9384615384615L-1912.2222222222224,367.4769230769231L-1885.5555555555554,364.58461538461535L-1858.888888888889,361.38461538461536L-1832.2222222222222,359.2L-1805.5555555555557,357.0769230769231L-1778.8888888888887,355.38461538461536L-1752.2222222222222,351.04615384615386L-1725.5555555555557,346.95384615384614L-1698.8888888888887,342.24615384615385L-1672.2222222222222,337.04615384615386L-1645.5555555555557,332.2769230769231L-1618.888888888889,326.3076923076923L-1592.2222222222222,320.7076923076923L-1565.5555555555554,312L-1538.888888888889,304.4L-1512.2222222222222,295.8153846153846L-1485.5555555555557,284.40000000000003L-1458.888888888889,274.55384615384617L-1432.2222222222222,265.5692307692308L-1405.5555555555554,255.96923076923076L-1378.888888888889,243.96923076923076L-1352.2222222222222,233.7846153846154L-1325.5555555555557,226.6153846153846L-1298.888888888889,220.95384615384614L-1272.2222222222222,215.5076923076923L-1245.5555555555557,210.0307692307692L-1218.888888888889,205.6L-1192.2222222222222,199.66153846153847L-1165.5555555555554,194.43076923076922L-1138.888888888889,188.33846153846153L-1112.2222222222222,182.36923076923074L-1085.5555555555557,177.16923076923078L-1058.888888888889,172.8L-1032.2222222222222,168.76923076923077L-1005.5555555555555,163.23076923076925L-978.8888888888889,156.55384615384614L-952.2222222222222,151.6L-925.5555555555557,147.38461538461542L-898.8888888888889,140.15384615384616L-872.2222222222222,136.15384615384616L-845.5555555555555,132.36923076923074L-818.8888888888888,127.66153846153844L-792.2222222222223,122.8307692307692L-765.5555555555555,118.21538461538461L-738.8888888888889,113.50769230769231L-712.2222222222222,110.55384615384614L-685.5555555555555,106.98461538461537L-658.8888888888889,102.46153846153847L-632.2222222222222,97.81538461538463L-605.5555555555555,94.21538461538464L-578.8888888888889,89.75384615384615L-552.2222222222222,85.6L-525.5555555555555,82.49230769230769L-498.8888888888889,79.10769230769232L-472.22222222222223,76.52307692307691L-445.55555555555554,74.12307692307691L-418.8888888888889,71.78461538461538L-392.22222222222223,70.36923076923078L-365.55555555555554,67.96923076923078L-338.88888888888886,65.90769230769232L-312.22222222222223,63.78461538461537L-285.55555555555554,62.5230769230769L-258.8888888888889,60.18461538461537L-232.22222222222223,57.93846153846154L-205.55555555555554,55.93846153846154L-178.88888888888889,54.461538461538474L-152.22222222222223,52.64615384615383L-125.55555555555556,50.46153846153847L-98.88888888888889,49.63076923076923L-72.22222222222221,48.36923076923077L-45.55555555555556,46.76923076923076L-18.88888888888889,45.7846153846154L7.777777777777778,43.292307692307695L34.44444444444444,42.06153846153846L61.111111111111114,40.953846153846165L87.77777777777777,40.030769230769224L114.44444444444444,38.95384615384616L141.11111111111111,37.81538461538463L167.77777777777777,36.58461538461539L194.44444444444443,34.61538461538463L221.11111111111111,33.107692307692325L247.77777777777777,32.369230769230754L274.44444444444446,31.93846153846156L301.1111111111111,30.738461538461557L327.77777777777777,30.27692307692309L354.44444444444446,29.692307692307686L381.1111111111111,27.723076923076917L407.77777777777777,26.492307692307683" stroke="#4c78a8" stroke-width="2" opacity="0.7"></path></g></g><path class="foreground" aria-hidden="true" d="" display="none"></path></g></g><g class="mark-group role-title"><g transform="translate(200,-54)"><path class="background" aria-hidden="true" d="M0,0h0v0h0Z" pointer-events="none"></path><g><g class="mark-text role-title-text" role="graphics-symbol" aria-roledescription="title" aria-label="Title text 'Total [2020-06-13]'" pointer-events="none"><text text-anchor="middle" transform="translate(0,10)" font-family="Roboto Condensed" font-size="13px" font-weight="normal" fill="#000" opacity="1"><tspan>Total</tspan><tspan x="0" dy="15">[2020-06-13]</tspan></text></g></g><path class="foreground" aria-hidden="true" d="" pointer-events="none" display="none"></path></g></g></g><path class="foreground" aria-hidden="true" d="" display="none"></path></g></g><g class="mark-group role-legend" role="graphics-symbol" aria-roledescription="legend" aria-label="Symbol legend for stroke color with 3 values: Confirmed, Deaths, Recovered"><g transform="translate(883,0)"><path class="background" aria-hidden="true" d="M0,0h58v37h-58Z" pointer-events="none"></path><g><g class="mark-group role-legend-entry"><g transform="translate(0,0)"><path class="background" aria-hidden="true" d="M0,0h0v0h0Z" pointer-events="none"></path><g><g class="mark-group role-scope" role="graphics-object" aria-roledescription="group mark container"><g transform="translate(0,0)"><path class="background" aria-hidden="true" d="M0,0h58v11h-58Z" pointer-events="none" opacity="1"></path><g><g class="mark-symbol role-legend-symbol" pointer-events="none"><path transform="translate(6,6)" d="M-5,0L5,0" stroke="#4c78a8" stroke-width="1.5" opacity="0.2"></path></g><g class="mark-text role-legend-label" pointer-events="none"><text text-anchor="start" transform="translate(16,9)" font-family="Roboto Condensed" font-size="10px" fill="#000" opacity="1">Confirmed</text></g></g><path class="foreground" aria-hidden="true" d="" pointer-events="none" display="none"></path></g><g transform="translate(0,13)"><path class="background" aria-hidden="true" d="M0,0h58v11h-58Z" pointer-events="none" opacity="1"></path><g><g class="mark-symbol role-legend-symbol" pointer-events="none"><path transform="translate(6,6)" d="M-5,0L5,0" stroke="#f58518" stroke-width="1.5" opacity="0.2"></path></g><g class="mark-text role-legend-label" pointer-events="none"><text text-anchor="start" transform="translate(16,9)" font-family="Roboto Condensed" font-size="10px" fill="#000" opacity="1">Deaths</text></g></g><path class="foreground" aria-hidden="true" d="" pointer-events="none" display="none"></path></g><g transform="translate(0,26)"><path class="background" aria-hidden="true" d="M0,0h58v11h-58Z" pointer-events="none" opacity="1"></path><g><g class="mark-symbol role-legend-symbol" pointer-events="none"><path transform="translate(6,6)" d="M-5,0L5,0" stroke="#e45756" stroke-width="1.5" opacity="0.2"></path></g><g class="mark-text role-legend-label" pointer-events="none"><text text-anchor="start" transform="translate(16,9)" font-family="Roboto Condensed" font-size="10px" fill="#000" opacity="1">Recovered</text></g></g><path class="foreground" aria-hidden="true" d="" pointer-events="none" display="none"></path></g></g></g><path class="foreground" aria-hidden="true" d="" pointer-events="none" display="none"></path></g></g></g><path class="foreground" aria-hidden="true" d="" pointer-events="none" display="none"></path></g></g></g><path class="foreground" aria-hidden="true" d="" display="none"></path></g></g></g></svg>