<svg class="marks" width="996" height="491" viewBox="0 0 996 491" version="1.1" xmlns="http://www.w3.org/2000/svg" xmlns:xlink="http://www.w3.org/1999/xlink"><defs><clipPath id="clip1"><rect x="0" y="0" width="400" height="400"></rect></clipPath><clipPath id="clip2"><rect x="0" y="0" width="400" height="400"></rect></clipPath><clipPath id="clip3"><rect x="0" y="0" width="400" height="400"></rect></clipPath><clipPath id="clip4"><rect x="0" y="0" width="400" height="400"></rect></clipPath><clipPath id="clip5"><rect x="0" y="0" width="400" height="400"></rect></clipPath><clipPath id="clip6"><rect x="0" y="0" width="400" height="400"></rect></clipPath><clipPath id="clip7"><rect x="0" y="0" width="400" height="400"></rect></clipPath><clipPath id="clip8"><rect x="0" y="0" width="400" height="400"></rect></clipPath><clipPath id="clip9"><rect x="0" y="0" width="400" height="400"></rect></clipPath></defs><rect width="996" height="491" fill="white"></rect><g fill="none" stroke-miterlimit="10" transform="translate(50,59)"><g class="mark-group role-frame root" role="graphics-object" aria-roledescription="group mark container"><g transform="translate(0,0)"><path class="background" aria-hidden="true" d="M0,0h0v400h0Z"></path><g><g class="mark-group role-scope concat_0_group" role="graphics-object" aria-roledescription="group mark container"><g transform="translate(0,0)"><path class="background" aria-hidden="true" d="M0,0h400v400h-400Z" stroke="#ddd" stroke-width="0"></path><g><g class="mark-group role-axis" aria-hidden="true"><g transform="translate(0.5,0.5)"><path class="background" aria-hidden="true" d="M0,0h0v0h0Z" pointer-events="none"></path><g><g class="mark-rule role-axis-grid" pointer-events="none"><line transform="translate(0,400)" x2="400" y2="0" stroke="#ddd" stroke-width="1" opacity="1"></line><line transform="translate(0,367)" x2="400" y2="0" stroke="#ddd" stroke-width="1" opacity="1"></line><line transform="translate(0,333)" x2="400" y2="0" stroke="#ddd" stroke-width="1" opacity="1"></line><line transform="translate(0,300)" x2="400" y2="0" stroke="#ddd" stroke-width="1" opacity="1"></line><line transform="translate(0,267)" x2="400" y2="0" stroke="#ddd" stroke-width="1" opacity="1"></line><line transform="translate(0,233)" x2="400" y2="0" stroke="#ddd" stroke-width="1" opacity="1"></line><line transform="translate(0,200)" x2="400" y2="0" stroke="#ddd" stroke-width="1" opacity="1"></line><line transform="translate(0,167)" x2="400" y2="0" stroke="#ddd" stroke-width="1" opacity="1"></line><line transform="translate(0,133)" x2="400" y2="0" stroke="#ddd" stroke-width="1" opacity="1"></line><line transform="translate(0,100)" x2="400" y2="0" stroke="#ddd" stroke-width="1" opacity="1"></line><line transform="translate(0,67)" x2="400" y2="0" stroke="#ddd" stroke-width="1" opacity="1"></line><line transform="translate(0,33)" x2="400" y2="0" stroke="#ddd" stroke-width="1" opacity="1"></line><line transform="translate(0,0)" x2="400" y2="0" stroke="#ddd" stroke-width="1" opacity="1"></line></g></g><path class="foreground" aria-hidden="true" d="" pointer-events="none" display="none"></path></g></g><g class="mark-group role-axis" role="graphics-symbol" aria-roledescription="axis" aria-label="X-axis titled 'Date' for a time scale with values from May 28 to June 12"><g transform="translate(0.5,400.5)"><path class="background" aria-hidden="true" d="M0,0h0v0h0Z" pointer-events="none"></path><g><g class="mark-text role-axis-label" pointer-events="none"><text text-anchor="middle" transform="translate(7.777777777777778,10)" font-family="Roboto Condensed" font-size="10px" fill="#000" opacity="1">May 29</text><text text-anchor="middle" transform="translate(61.111111111111114,10)" font-family="Roboto Condensed" font-size="10px" fill="#000" opacity="0">May 31</text><text text-anchor="middle" transform="translate(87.77777777777777,10)" font-family="Roboto Condensed" font-size="10px" fill="#000" opacity="1">Jun 01</text><text text-anchor="middle" transform="translate(141.11111111111111,10)" font-family="Roboto Condensed" font-size="10px" fill="#000" opacity="0">Jun 03</text><text text-anchor="middle" transform="translate(194.44444444444443,10)" font-family="Roboto Condensed" font-size="10px" fill="#000" opacity="1">Jun 05</text><text text-anchor="middle" transform="translate(247.77777777777777,10)" font-family="Roboto Condensed" font-size="10px" fill="#000" opacity="0">Jun 07</text><text text-anchor="middle" transform="translate(301.1111111111111,10)" font-family="Roboto Condensed" font-size="10px" fill="#000" opacity="1">Jun 09</text><text text-anchor="middle" transform="translate(354.44444444444446,10)" font-family="Roboto Condensed" font-size="10px" fill="#000" opacity="0">Jun 11</text></g><g class="mark-rule role-axis-domain" pointer-events="none"><line transform="translate(0,0)" x2="400" y2="0" stroke="lightgray" stroke-width="1" opacity="1"></line></g><g class="mark-text role-axis-title" pointer-events="none"><text text-anchor="middle" transform="translate(200,25)" font-family="Roboto Condensed" font-size="11px" font-weight="normal" fill="#000" opacity="1">Date</text></g></g><path class="foreground" aria-hidden="true" d="" pointer-events="none" display="none"></path></g></g><g class="mark-group role-axis" role="graphics-symbol" aria-roledescription="axis" aria-label="Y-axis titled 'Count' for a linear scale with values from 0 to 2,400"><g transform="translate(0.5,0.5)"><path class="background" aria-hidden="true" d="M0,0h0v0h0Z" pointer-events="none"></path><g><g class="mark-text role-axis-label" pointer-events="none"><text text-anchor="end" transform="translate(-2,403)" font-family="Roboto Condensed" font-size="10px" fill="#000" opacity="1">0</text><text text-anchor="end" transform="translate(-2,369.66666666666663)" font-family="Roboto Condensed" font-size="10px" fill="#000" opacity="1">200</text><text text-anchor="end" transform="translate(-2,336.33333333333337)" font-family="Roboto Condensed" font-size="10px" fill="#000" opacity="1">400</text><text text-anchor="end" transform="translate(-2,303)" font-family="Roboto Condensed" font-size="10px" fill="#000" opacity="1">600</text><text text-anchor="end" transform="translate(-2,269.6666666666667)" font-family="Roboto Condensed" font-size="10px" fill="#000" opacity="1">800</text><text text-anchor="end" transform="translate(-2,236.33333333333331)" font-family="Roboto Condensed" font-size="10px" fill="#000" opacity="1">1,000</text><text text-anchor="end" transform="translate(-2,203)" font-family="Roboto Condensed" font-size="10px" fill="#000" opacity="1">1,200</text><text text-anchor="end" transform="translate(-2,169.66666666666666)" font-family="Roboto Condensed" font-size="10px" fill="#000" opacity="1">1,400</text><text text-anchor="end" transform="translate(-2,136.33333333333334)" font-family="Roboto Condensed" font-size="10px" fill="#000" opacity="1">1,600</text><text text-anchor="end" transform="translate(-2,103)" font-family="Roboto Condensed" font-size="10px" fill="#000" opacity="1">1,800</text><text text-anchor="end" transform="translate(-2,69.66666666666666)" font-family="Roboto Condensed" font-size="10px" fill="#000" opacity="1">2,000</text><text text-anchor="end" transform="translate(-2,36.33333333333335)" font-family="Roboto Condensed" font-size="10px" fill="#000" opacity="1">2,200</text><text text-anchor="end" transform="translate(-2,3)" font-family="Roboto Condensed" font-size="10px" fill="#000" opacity="1">2,400</text></g><g class="mark-rule role-axis-domain" pointer-events="none"><line transform="translate(0,400)" x2="0" y2="-400" stroke="lightgray" stroke-width="1" opacity="1"></line></g><g class="mark-text role-axis-title" pointer-events="none"><text text-anchor="start" transform="translate(-45,-13)" font-family="Roboto Condensed" font-size="11px" font-weight="normal" fill="#000" opacity="1">Count</text></g></g><path class="foreground" aria-hidden="true" d="" pointer-events="none" display="none"></path></g></g><g class="mark-group role-scope concat_0_layer_0_pathgroup" role="graphics-object" aria-roledescription="group mark container"><g transform="translate(0,0)"><path class="background" aria-hidden="true" d="M0,0h400v400h-400Z"></path><g><g class="mark-line role-mark concat_0_layer_0_marks" clip-path="url(#clip1)" role="graphics-object" aria-roledescription="line mark container"><path aria-label="Type: Recovered; Date: Mar 01; Count: 0" role="graphics-symbol" aria-roledescription="line mark" d="M-2364.4444444444443,400L-2337.777777777778,400L-2311.111111111111,400L-2284.4444444444443,400L-2257.777777777778,400L-2231.111111111111,400L-2204.4444444444443,400L-2177.777777777778,400L-2152.222222222222,400L-2125.5555555555557,400L-2098.8888888888887,400L-2072.222222222222,400L-2045.5555555555557,400L-2018.888888888889,400L-1992.2222222222222,400L-1965.5555555555554,400L-1938.888888888889,400L-1912.2222222222224,400L-1885.5555555555554,400L-1858.888888888889,400L-1832.2222222222222,400L-1805.5555555555557,400L-1778.8888888888887,400L-1752.2222222222222,400L-1725.5555555555557,400L-1698.8888888888887,400L-1672.2222222222222,400L-1645.5555555555557,400L-1618.888888888889,400L-1592.2222222222222,400L-1565.5555555555554,400L-1538.888888888889,400L-1512.2222222222222,400L-1485.5555555555557,400L-1458.888888888889,400L-1432.2222222222222,400L-1405.5555555555554,400L-1378.888888888889,400L-1352.2222222222222,400L-1325.5555555555557,400L-1298.888888888889,400L-1272.2222222222222,400L-1245.5555555555557,400L-1218.888888888889,400L-1192.2222222222222,400L-1165.5555555555554,400L-1138.888888888889,400L-1112.2222222222222,400L-1085.5555555555557,400L-1058.888888888889,400L-1032.2222222222222,400L-1005.5555555555555,400L-978.8888888888889,400L-952.2222222222222,400L-925.5555555555557,400L-898.8888888888889,400L-872.2222222222222,400L-845.5555555555555,400L-818.8888888888888,400L-792.2222222222223,400L-765.5555555555555,400L-738.8888888888889,400L-712.2222222222222,400L-685.5555555555555,400L-658.8888888888889,400L-632.2222222222222,400L-605.5555555555555,400L-578.8888888888889,400L-552.2222222222222,400L-525.5555555555555,400L-498.8888888888889,400L-472.22222222222223,400L-445.55555555555554,400L-418.8888888888889,400L-392.22222222222223,400L-365.55555555555554,400L-338.88888888888886,400L-312.22222222222223,400L-285.55555555555554,400L-258.8888888888889,400L-232.22222222222223,400L-205.55555555555554,400L-178.88888888888889,400L-152.22222222222223,400L-125.55555555555556,400L-98.88888888888889,400L-72.22222222222221,400L-45.55555555555556,400L-18.88888888888889,400L7.777777777777778,400L34.44444444444444,400L61.111111111111114,400L87.77777777777777,400L114.44444444444444,400L141.11111111111111,400L167.77777777777777,400L194.44444444444443,400L221.11111111111111,400L247.77777777777777,400L274.44444444444446,400L301.1111111111111,400L327.77777777777777,400L354.44444444444446,400L381.1111111111111,400L407.77777777777777,400" stroke="#e45756" stroke-width="2" opacity="0.2"></path></g></g><path class="foreground" aria-hidden="true" d="" display="none"></path></g><g transform="translate(0,0)"><path class="background" aria-hidden="true" d="M0,0h400v400h-400Z"></path><g><g class="mark-line role-mark concat_0_layer_0_marks" clip-path="url(#clip2)" role="graphics-object" aria-roledescription="line mark container"><path aria-label="Type: Deaths; Date: Mar 01; Count: 0" role="graphics-symbol" aria-roledescription="line mark" d="M-2364.4444444444443,400L-2337.777777777778,400L-2311.111111111111,400L-2284.4444444444443,400L-2257.777777777778,400L-2231.111111111111,400L-2204.4444444444443,400L-2177.777777777778,400L-2152.222222222222,400L-2125.5555555555557,400L-2098.8888888888887,399.83333333333337L-2072.222222222222,400L-2045.5555555555557,400L-2018.888888888889,399.83333333333337L-1992.2222222222222,399.83333333333337L-1965.5555555555554,399.5L-1938.888888888889,399.83333333333337L-1912.2222222222224,399.5L-1885.5555555555554,399.83333333333337L-1858.888888888889,399.1666666666667L-1832.2222222222222,399.3333333333333L-1805.5555555555557,399.83333333333337L-1778.8888888888887,399.3333333333333L-1752.2222222222222,398.16666666666663L-1725.5555555555557,395.66666666666663L-1698.8888888888887,397.5L-1672.2222222222222,395.3333333333333L-1645.5555555555557,400L-1618.888888888889,399.1666666666667L-1592.2222222222222,394L-1565.5555555555554,394.3333333333333L-1538.888888888889,390.1666666666667L-1512.2222222222222,388.5L-1485.5555555555557,391.66666666666663L-1458.888888888889,397.5L-1432.2222222222222,395.3333333333333L-1405.5555555555554,387.33333333333337L-1378.888888888889,381L-1352.2222222222222,384L-1325.5555555555557,382.3333333333333L-1298.888888888889,387.1666666666667L-1272.2222222222222,397.1666666666667L-1245.5555555555557,398L-1218.888888888889,396.6666666666667L-1192.2222222222222,381L-1165.5555555555554,371.6666666666667L-1138.888888888889,378.3333333333333L-1112.2222222222222,388.8333333333333L-1085.5555555555557,381.5L-1058.888888888889,395.1666666666667L-1032.2222222222222,393.3333333333333L-1005.5555555555555,369.16666666666663L-978.8888888888889,371.3333333333333L-952.2222222222222,386L-925.5555555555557,378.1666666666667L-898.8888888888889,393.3333333333333L-872.2222222222222,399.6666666666667L-845.5555555555555,386.6666666666667L-818.8888888888888,386.5L-792.2222222222223,382.1666666666667L-765.5555555555555,379.33333333333337L-738.8888888888889,388.8333333333333L-712.2222222222222,397.3333333333333L-685.5555555555555,398.3333333333333L-658.8888888888889,385L-632.2222222222222,385.8333333333333L-605.5555555555555,385.5L-578.8888888888889,383.5L-552.2222222222222,377.5L-525.5555555555555,392.5L-498.8888888888889,399.1666666666667L-472.22222222222223,394.8333333333333L-445.55555555555554,390.5L-418.8888888888889,375.5L-392.22222222222223,388.5L-365.55555555555554,380.5L-338.88888888888886,395.3333333333333L-312.22222222222223,399.1666666666667L-285.55555555555554,396.8333333333333L-258.8888888888889,392.5L-232.22222222222223,385.33333333333337L-205.55555555555554,393.3333333333333L-178.88888888888889,391L-152.22222222222223,388.8333333333333L-125.55555555555556,399L-98.88888888888889,394.8333333333333L-72.22222222222221,384L-45.55555555555556,384.1666666666667L-18.88888888888889,392.3333333333333L7.777777777777778,386L34.44444444444444,392.5L61.111111111111114,400L87.77777777777777,398.6666666666667L114.44444444444444,389.1666666666667L141.11111111111111,387.66666666666663L167.77777777777777,396.6666666666667L194.44444444444443,387.1666666666667L221.11111111111111,397.1666666666667L247.77777777777777,399.5L274.44444444444446,394.1666666666667L301.1111111111111,396.1666666666667L327.77777777777777,387L354.44444444444446,396.8333333333333L381.1111111111111,393.3333333333333L407.77777777777777,396.6666666666667" stroke="#f58518" stroke-width="2" opacity="0.2"></path></g></g><path class="foreground" aria-hidden="true" d="" display="none"></path></g><g transform="translate(0,0)"><path class="background" aria-hidden="true" d="M0,0h400v400h-400Z"></path><g><g class="mark-line role-mark concat_0_layer_0_marks" clip-path="url(#clip3)" role="graphics-object" aria-roledescription="line mark container"><path aria-label="Type: Confirmed; Date: Mar 01; Count: 2" role="graphics-symbol" aria-roledescription="line mark" d="M-2364.4444444444443,399.6666666666667L-2337.777777777778,399.83333333333337L-2311.111111111111,399L-2284.4444444444443,397.66666666666663L-2257.777777777778,390.1666666666667L-2231.111111111111,398.8333333333333L-2204.4444444444443,390L-2177.777777777778,393L-2152.222222222222,392.5L-2125.5555555555557,382.1666666666667L-2098.8888888888887,375.8333333333333L-2072.222222222222,383.5L-2045.5555555555557,364.1666666666667L-2018.888888888889,375.5L-1992.2222222222222,389.83333333333337L-1965.5555555555554,386.5L-1938.888888888889,385.5L-1912.2222222222224,385.16666666666663L-1885.5555555555554,373.3333333333333L-1858.888888888889,366.66666666666663L-1832.2222222222222,379.33333333333337L-1805.5555555555557,371.5L-1778.8888888888887,381.33333333333337L-1752.2222222222222,360L-1725.5555555555557,360L-1698.8888888888887,347.66666666666663L-1672.2222222222222,361.8333333333333L-1645.5555555555557,337L-1618.888888888889,357.8333333333333L-1592.2222222222222,345.3333333333333L-1565.5555555555554,332.1666666666667L-1538.888888888889,314.66666666666663L-1512.2222222222222,296.5L-1485.5555555555557,306.16666666666663L-1458.888888888889,348L-1432.2222222222222,335.5L-1405.5555555555554,337.3333333333333L-1378.888888888889,318.83333333333337L-1352.2222222222222,279L-1325.5555555555557,279.6666666666667L-1298.888888888889,309.3333333333333L-1272.2222222222222,322.33333333333337L-1245.5555555555557,344.6666666666667L-1218.888888888889,322.5L-1192.2222222222222,317.1666666666667L-1165.5555555555554,319.6666666666667L-1138.888888888889,297.83333333333337L-1112.2222222222222,287.3333333333333L-1085.5555555555557,299L-1058.888888888889,306.16666666666663L-1032.2222222222222,334.6666666666667L-1005.5555555555555,309.1666666666667L-978.8888888888889,286.3333333333333L-952.2222222222222,274.8333333333333L-925.5555555555557,264.66666666666663L-898.8888888888889,298.3333333333333L-872.2222222222222,322.83333333333337L-845.5555555555555,352.33333333333337L-818.8888888888888,284.1666666666667L-792.2222222222223,286.5L-765.5555555555555,268.33333333333337L-738.8888888888889,328.6666666666667L-712.2222222222222,306.33333333333337L-685.5555555555555,360.8333333333333L-658.8888888888889,332.6666666666667L-632.2222222222222,317.5L-605.5555555555555,283L-578.8888888888889,282.5L-552.2222222222222,293L-525.5555555555555,290.6666666666667L-498.8888888888889,333.16666666666663L-472.22222222222223,342L-445.55555555555554,299.6666666666667L-418.8888888888889,293.83333333333337L-392.22222222222223,287.8333333333333L-365.55555555555554,295.8333333333333L-338.88888888888886,321.6666666666667L-312.22222222222223,322.33333333333337L-285.55555555555554,361L-258.8888888888889,329.6666666666667L-232.22222222222223,279.3333333333333L-205.55555555555554,291.8333333333333L-178.88888888888889,293.83333333333337L-152.22222222222223,336.8333333333333L-125.55555555555556,354.8333333333333L-98.88888888888889,336L-72.22222222222221,300.5L-45.55555555555556,292L-18.88888888888889,293.5L7.777777777777778,275.1666666666667L34.44444444444444,293.83333333333337L61.111111111111114,328.5L87.77777777777777,354.6666666666667L114.44444444444444,270.8333333333333L141.11111111111111,31.000000000000007L167.77777777777777,220.00000000000003L194.44444444444443,224.00000000000003L221.11111111111111,242L247.77777777777777,259.5L274.44444444444446,332.8333333333333L301.1111111111111,268.1666666666667L327.77777777777777,251.66666666666666L354.44444444444446,154.33333333333334L381.1111111111111,167.33333333333334L407.77777777777777,192.16666666666669" stroke="#4c78a8" stroke-width="2" opacity="0.2"></path></g></g><path class="foreground" aria-hidden="true" d="" display="none"></path></g></g><g class="mark-group role-scope concat_0_layer_1_pathgroup" role="graphics-object" aria-roledescription="group mark container"><g transform="translate(0,0)"><path class="background" aria-hidden="true" d="M0,0h400v400h-400Z"></path><g><g class="mark-line role-mark concat_0_layer_1_marks" clip-path="url(#clip4)" role="graphics-object" aria-roledescription="line mark container"><path aria-label="Type: Recovered; Date: Mar 01; Count: 0" role="graphics-symbol" aria-roledescription="line mark" d="M-2204.4444444444443,400L-2177.777777777778,400L-2152.222222222222,400L-2125.5555555555557,400L-2098.8888888888887,400L-2072.222222222222,400L-2045.5555555555557,400L-2018.888888888889,400L-1992.2222222222222,400L-1965.5555555555554,400L-1938.888888888889,400L-1912.2222222222224,400L-1885.5555555555554,400L-1858.888888888889,400L-1832.2222222222222,400L-1805.5555555555557,400L-1778.8888888888887,400L-1752.2222222222222,400L-1725.5555555555557,400L-1698.8888888888887,400L-1672.2222222222222,400L-1645.5555555555557,400L-1618.888888888889,400L-1592.2222222222222,400L-1565.5555555555554,400L-1538.888888888889,400L-1512.2222222222222,400L-1485.5555555555557,400L-1458.888888888889,400L-1432.2222222222222,400L-1405.5555555555554,400L-1378.888888888889,400L-1352.2222222222222,400L-1325.5555555555557,400L-1298.888888888889,400L-1272.2222222222222,400L-1245.5555555555557,400L-1218.888888888889,400L-1192.2222222222222,400L-1165.5555555555554,400L-1138.888888888889,400L-1112.2222222222222,400L-1085.5555555555557,400L-1058.888888888889,400L-1032.2222222222222,400L-1005.5555555555555,400L-978.8888888888889,400L-952.2222222222222,400L-925.5555555555557,400L-898.8888888888889,400L-872.2222222222222,400L-845.5555555555555,400L-818.8888888888888,400L-792.2222222222223,400L-765.5555555555555,400L-738.8888888888889,400L-712.2222222222222,400L-685.5555555555555,400L-658.8888888888889,400L-632.2222222222222,400L-605.5555555555555,400L-578.8888888888889,400L-552.2222222222222,400L-525.5555555555555,400L-498.8888888888889,400L-472.22222222222223,400L-445.55555555555554,400L-418.8888888888889,400L-392.22222222222223,400L-365.55555555555554,400L-338.88888888888886,400L-312.22222222222223,400L-285.55555555555554,400L-258.8888888888889,400L-232.22222222222223,400L-205.55555555555554,400L-178.88888888888889,400L-152.22222222222223,400L-125.55555555555556,400L-98.88888888888889,400L-72.22222222222221,400L-45.55555555555556,400L-18.88888888888889,400L7.777777777777778,400L34.44444444444444,400L61.111111111111114,400L87.77777777777777,400L114.44444444444444,400L141.11111111111111,400L167.77777777777777,400L194.44444444444443,400L221.11111111111111,400L247.77777777777777,400L274.44444444444446,400L301.1111111111111,400L327.77777777777777,400L354.44444444444446,400L381.1111111111111,400L407.77777777777777,400" stroke="#e45756" stroke-width="2" opacity="1"></path></g></g><path class="foreground" aria-hidden="true" d="" display="none"></path></g><g transform="translate(0,0)"><path class="background" aria-hidden="true" d="M0,0h400v400h-400Z"></path><g><g class="mark-line role-mark concat_0_layer_1_marks" clip-path="url(#clip5)" role="graphics-object" aria-roledescription="line mark container"><path aria-label="Type: Deaths; Date: Mar 01; Count: 0" role="graphics-symbol" aria-roledescription="line mark" d="M-2204.4444444444443,400L-2177.777777777778,400L-2152.222222222222,400L-2125.5555555555557,400L-2098.8888888888887,399.9761904761905L-2072.222222222222,399.9761904761905L-2045.5555555555557,399.9761904761905L-2018.888888888889,399.95238095238096L-1992.2222222222222,399.9285714285714L-1965.5555555555554,399.8571428571429L-1938.888888888889,399.83333333333337L-1912.2222222222224,399.7857142857143L-1885.5555555555554,399.76190476190476L-1858.888888888889,399.64285714285717L-1832.2222222222222,399.57142857142856L-1805.5555555555557,399.57142857142856L-1778.8888888888887,399.54761904761904L-1752.2222222222222,399.3095238095238L-1725.5555555555557,398.76190476190476L-1698.8888888888887,398.42857142857144L-1672.2222222222222,397.8809523809524L-1645.5555555555557,397.9761904761905L-1618.888888888889,397.8809523809524L-1592.2222222222222,397.11904761904765L-1565.5555555555554,396.57142857142856L-1538.888888888889,395.7857142857143L-1512.2222222222222,394.5L-1485.5555555555557,393.9761904761905L-1458.888888888889,393.61904761904765L-1432.2222222222222,393.07142857142856L-1405.5555555555554,392.1190476190476L-1378.888888888889,390.2142857142857L-1352.2222222222222,389.33333333333337L-1325.5555555555557,388.45238095238096L-1298.888888888889,387.80952380952385L-1272.2222222222222,387.76190476190476L-1245.5555555555557,388.1428571428571L-1218.888888888889,389.4761904761905L-1192.2222222222222,389.4761904761905L-1165.5555555555554,387.7142857142857L-1138.888888888889,387.14285714285717L-1112.2222222222222,387.3809523809524L-1085.5555555555557,385.14285714285717L-1058.888888888889,384.73809523809524L-1032.2222222222222,384.26190476190476L-1005.5555555555555,382.57142857142856L-978.8888888888889,382.5238095238095L-952.2222222222222,383.6190476190476L-925.5555555555557,382.0952380952381L-898.8888888888889,383.7857142857143L-872.2222222222222,384.42857142857144L-845.5555555555555,383.4761904761905L-818.8888888888888,385.95238095238096L-792.2222222222223,387.5L-765.5555555555555,386.54761904761904L-738.8888888888889,388.07142857142856L-712.2222222222222,388.64285714285717L-685.5555555555555,388.45238095238096L-658.8888888888889,388.2142857142857L-632.2222222222222,388.1190476190476L-605.5555555555555,388.5952380952381L-578.8888888888889,389.19047619047615L-552.2222222222222,387.5714285714286L-525.5555555555555,386.8809523809524L-498.8888888888889,387L-472.22222222222223,388.4047619047619L-445.55555555555554,389.07142857142856L-418.8888888888889,387.6428571428571L-392.22222222222223,388.35714285714283L-365.55555555555554,388.7857142857143L-338.88888888888886,389.19047619047615L-312.22222222222223,389.19047619047615L-285.55555555555554,389.4761904761905L-258.8888888888889,389.76190476190476L-232.22222222222223,391.1666666666667L-205.55555555555554,391.85714285714283L-178.88888888888889,393.3571428571429L-152.22222222222223,392.42857142857144L-125.55555555555556,392.4047619047619L-98.88888888888889,392.1190476190476L-72.22222222222221,390.9047619047619L-45.55555555555556,390.73809523809524L-18.88888888888889,390.5952380952381L7.777777777777778,389.88095238095235L34.44444444444444,390.4047619047619L61.111111111111114,390.54761904761904L87.77777777777777,391.0952380952381L114.44444444444444,391.83333333333337L141.11111111111111,392.3333333333333L167.77777777777777,392.95238095238096L194.44444444444443,393.11904761904765L221.11111111111111,393.7857142857143L247.77777777777777,393.7142857142857L274.44444444444446,393.07142857142856L301.1111111111111,394.07142857142856L327.77777777777777,393.9761904761905L354.44444444444446,394L381.1111111111111,394.8809523809524L407.77777777777777,394.8095238095238" stroke="#f58518" stroke-width="2" opacity="1"></path></g></g><path class="foreground" aria-hidden="true" d="" display="none"></path></g><g transform="translate(0,0)"><path class="background" aria-hidden="true" d="M0,0h400v400h-400Z"></path><g><g class="mark-line role-mark concat_0_layer_1_marks" clip-path="url(#clip6)" role="graphics-object" aria-roledescription="line mark container"><path aria-label="Type: Confirmed; Date: Mar 01; Count: 0" role="graphics-symbol" aria-roledescription="line mark" d="M-2204.4444444444443,396.45238095238096L-2177.777777777778,395.5L-2152.222222222222,394.45238095238096L-2125.5555555555557,392.0476190476191L-2098.8888888888887,388.92857142857144L-2072.222222222222,387.9761904761905L-2045.5555555555557,383.0238095238095L-2018.888888888889,380.9523809523809L-1992.2222222222222,380.5L-1965.5555555555554,379.6428571428571L-1938.888888888889,380.1190476190476L-1912.2222222222224,381.45238095238096L-1885.5555555555554,380L-1858.888888888889,380.35714285714283L-1832.2222222222222,380.9047619047619L-1805.5555555555557,378.2857142857143L-1778.8888888888887,377.54761904761904L-1752.2222222222222,373.9047619047619L-1725.5555555555557,370.3095238095238L-1698.8888888888887,366.6428571428571L-1672.2222222222222,365.95238095238096L-1645.5555555555557,359.9047619047619L-1618.888888888889,357.95238095238096L-1592.2222222222222,352.8095238095238L-1565.5555555555554,348.8333333333333L-1538.888888888889,342.35714285714283L-1512.2222222222222,335.04761904761904L-1485.5555555555557,327.09523809523813L-1458.888888888889,328.6666666666667L-1432.2222222222222,325.4761904761905L-1405.5555555555554,324.3333333333333L-1378.888888888889,322.42857142857144L-1352.2222222222222,317.3333333333333L-1325.5555555555557,314.9285714285714L-1298.888888888889,315.38095238095235L-1272.2222222222222,311.7142857142857L-1245.5555555555557,313.0238095238095L-1218.888888888889,310.90476190476187L-1192.2222222222222,310.66666666666663L-1165.5555555555554,316.4761904761905L-1138.888888888889,319.07142857142856L-1112.2222222222222,315.92857142857144L-1085.5555555555557,312.59523809523813L-1058.888888888889,307.0952380952381L-1032.2222222222222,308.8333333333333L-1005.5555555555555,307.6904761904762L-978.8888888888889,302.92857142857144L-952.2222222222222,299.64285714285717L-925.5555555555557,296.4047619047619L-898.8888888888889,296.3095238095238L-872.2222222222222,298.6904761904762L-845.5555555555555,301.2142857142857L-818.8888888888888,297.64285714285717L-792.2222222222223,297.66666666666663L-765.5555555555555,296.73809523809524L-738.8888888888889,305.8809523809524L-712.2222222222222,307.0238095238095L-685.5555555555555,312.45238095238096L-658.8888888888889,309.64285714285717L-632.2222222222222,314.4047619047619L-605.5555555555555,313.9047619047619L-578.8888888888889,315.92857142857144L-552.2222222222222,310.8333333333333L-525.5555555555555,308.5952380952381L-498.8888888888889,304.64285714285717L-472.22222222222223,305.9761904761905L-445.55555555555554,303.42857142857144L-418.8888888888889,304.9761904761905L-392.22222222222223,305.73809523809524L-365.55555555555554,306.1428571428571L-338.88888888888886,310.5714285714286L-312.22222222222223,309.0238095238095L-285.55555555555554,311.73809523809524L-258.8888888888889,316.0238095238095L-232.22222222222223,313.95238095238096L-205.55555555555554,314.5238095238095L-178.88888888888889,314.23809523809524L-152.22222222222223,316.4047619047619L-125.55555555555556,321.04761904761904L-98.88888888888889,317.4761904761905L-72.22222222222221,313.3095238095238L-45.55555555555556,315.1190476190476L-18.88888888888889,315.35714285714283L7.777777777777778,312.6904761904762L34.44444444444444,306.5476190476191L61.111111111111114,302.7857142857143L87.77777777777777,305.45238095238096L114.44444444444444,301.2142857142857L141.11111111111111,263.92857142857144L167.77777777777777,253.42857142857142L194.44444444444443,246.11904761904762L221.11111111111111,238.7142857142857L247.77777777777777,228.85714285714283L274.44444444444446,225.73809523809524L301.1111111111111,225.35714285714286L327.77777777777777,256.88095238095235L354.44444444444446,247.5L381.1111111111111,239.4047619047619L407.77777777777777,232.2857142857143" stroke="#4c78a8" stroke-width="2" opacity="1"></path></g></g><path class="foreground" aria-hidden="true" d="" display="none"></path></g></g><g class="mark-group role-title"><g transform="translate(200,-54)"><path class="background" aria-hidden="true" d="M0,0h0v0h0Z" pointer-events="none"></path><g><g class="mark-text role-title-text" role="graphics-symbol" aria-roledescription="title" aria-label="Title text '7-day average (light color: daily values) [2020-06-13]'" pointer-events="none"><text text-anchor="middle" transform="translate(0,10)" font-family="Roboto Condensed" font-size="13px" font-weight="normal" fill="#000" opacity="1"><tspan>7-day average (light color: daily values)</tspan><tspan x="0" dy="15">[2020-06-13]</tspan></text></g></g><path class="foreground" aria-hidden="true" d="" pointer-events="none" display="none"></path></g></g></g><path class="foreground" aria-hidden="true" d="" display="none"></path></g></g><g class="mark-group role-scope concat_1_group" role="graphics-object" aria-roledescription="group mark container"><g transform="translate(465,0)"><path class="background" aria-hidden="true" d="M0,0h400v400h-400Z" stroke="#ddd" stroke-width="0"></path><g><g class="mark-group role-axis" aria-hidden="true"><g transform="translate(0.5,0.5)"><path class="background" aria-hidden="true" d="M0,0h0v0h0Z" pointer-events="none"></path><g><g class="mark-rule role-axis-grid" pointer-events="none"><line transform="translate(0,400)" x2="400" y2="0" stroke="#ddd" stroke-width="1" opacity="1"></line><line transform="translate(0,364)" x2="400" y2="0" stroke="#ddd" stroke-width="1" opacity="1"></line><line transform="translate(0,327)" x2="400" y2="0" stroke="#ddd" stroke-width="1" opacity="1"></line><line transform="translate(0,291)" x2="400" y2="0" stroke="#ddd" stroke-width="1" opacity="1"></line><line transform="translate(0,255)" x2="400" y2="0" stroke="#ddd" stroke-width="1" opacity="1"></line><line transform="translate(0,218)" x2="400" y2="0" stroke="#ddd" stroke-width="1" opacity="1"></line><line transform="translate(0,182)" x2="400" y2="0" stroke="#ddd" stroke-width="1" opacity="1"></line><line transform="translate(0,145)" x2="400" y2="0" stroke="#ddd" stroke-width="1" opacity="1"></line><line transform="translate(0,109)" x2="400" y2="0" stroke="#ddd" stroke-width="1" opacity="1"></line><line transform="translate(0,73)" x2="400" y2="0" stroke="#ddd" stroke-width="1" opacity="1"></line><line transform="translate(0,36)" x2="400" y2="0" stroke="#ddd" stroke-width="1" opacity="1"></line><line transform="translate(0,0)" x2="400" y2="0" stroke="#ddd" stroke-width="1" opacity="1"></line></g></g><path class="foreground" aria-hidden="true" d="" pointer-events="none" display="none"></path></g></g><g class="mark-group role-axis" role="graphics-symbol" aria-roledescription="axis" aria-label="X-axis titled 'Date' for a time scale with values from May 28 to June 12"><g transform="translate(0.5,400.5)"><path class="background" aria-hidden="true" d="M0,0h0v0h0Z" pointer-events="none"></path><g><g class="mark-text role-axis-label" pointer-events="none"><text text-anchor="middle" transform="translate(7.777777777777778,10)" font-family="Roboto Condensed" font-size="10px" fill="#000" opacity="1">May 29</text><text text-anchor="middle" transform="translate(61.111111111111114,10)" font-family="Roboto Condensed" font-size="10px" fill="#000" opacity="0">May 31</text><text text-anchor="middle" transform="translate(87.77777777777777,10)" font-family="Roboto Condensed" font-size="10px" fill="#000" opacity="1">Jun 01</text><text text-anchor="middle" transform="translate(141.11111111111111,10)" font-family="Roboto Condensed" font-size="10px" fill="#000" opacity="0">Jun 03</text><text text-anchor="middle" transform="translate(194.44444444444443,10)" font-family="Roboto Condensed" font-size="10px" fill="#000" opacity="1">Jun 05</text><text text-anchor="middle" transform="translate(247.77777777777777,10)" font-family="Roboto Condensed" font-size="10px" fill="#000" opacity="0">Jun 07</text><text text-anchor="middle" transform="translate(301.1111111111111,10)" font-family="Roboto Condensed" font-size="10px" fill="#000" opacity="1">Jun 09</text><text text-anchor="middle" transform="translate(354.44444444444446,10)" font-family="Roboto Condensed" font-size="10px" fill="#000" opacity="0">Jun 11</text></g><g class="mark-rule role-axis-domain" pointer-events="none"><line transform="translate(0,0)" x2="400" y2="0" stroke="lightgray" stroke-width="1" opacity="1"></line></g><g class="mark-text role-axis-title" pointer-events="none"><text text-anchor="middle" transform="translate(200,25)" font-family="Roboto Condensed" font-size="11px" font-weight="normal" fill="#000" opacity="1">Date</text></g></g><path class="foreground" aria-hidden="true" d="" pointer-events="none" display="none"></path></g></g><g class="mark-group role-axis" role="graphics-symbol" aria-roledescription="axis" aria-label="Y-axis titled 'Count' for a linear scale with values from 0 to 55,000"><g transform="translate(0.5,0.5)"><path class="background" aria-hidden="true" d="M0,0h0v0h0Z" pointer-events="none"></path><g><g class="mark-text role-axis-label" pointer-events="none"><text text-anchor="end" transform="translate(-2,403)" font-family="Roboto Condensed" font-size="10px" fill="#000" opacity="1">0</text><text text-anchor="end" transform="translate(-2,366.6363636363636)" font-family="Roboto Condensed" font-size="10px" fill="#000" opacity="1">5,000</text><text text-anchor="end" transform="translate(-2,330.27272727272725)" font-family="Roboto Condensed" font-size="10px" fill="#000" opacity="1">10,000</text><text text-anchor="end" transform="translate(-2,293.90909090909093)" font-family="Roboto Condensed" font-size="10px" fill="#000" opacity="1">15,000</text><text text-anchor="end" transform="translate(-2,257.5454545454545)" font-family="Roboto Condensed" font-size="10px" fill="#000" opacity="1">20,000</text><text text-anchor="end" transform="translate(-2,221.18181818181816)" font-family="Roboto Condensed" font-size="10px" fill="#000" opacity="1">25,000</text><text text-anchor="end" transform="translate(-2,184.81818181818184)" font-family="Roboto Condensed" font-size="10px" fill="#000" opacity="1">30,000</text><text text-anchor="end" transform="translate(-2,148.45454545454547)" font-family="Roboto Condensed" font-size="10px" fill="#000" opacity="1">35,000</text><text text-anchor="end" transform="translate(-2,112.09090909090908)" font-family="Roboto Condensed" font-size="10px" fill="#000" opacity="1">40,000</text><text text-anchor="end" transform="translate(-2,75.7272727272727)" font-family="Roboto Condensed" font-size="10px" fill="#000" opacity="1">45,000</text><text text-anchor="end" transform="translate(-2,39.363636363636374)" font-family="Roboto Condensed" font-size="10px" fill="#000" opacity="1">50,000</text><text text-anchor="end" transform="translate(-2,3)" font-family="Roboto Condensed" font-size="10px" fill="#000" opacity="1">55,000</text></g><g class="mark-rule role-axis-domain" pointer-events="none"><line transform="translate(0,400)" x2="0" y2="-400" stroke="lightgray" stroke-width="1" opacity="1"></line></g><g class="mark-text role-axis-title" pointer-events="none"><text text-anchor="start" transform="translate(-45,-13)" font-family="Roboto Condensed" font-size="11px" font-weight="normal" fill="#000" opacity="1">Count</text></g></g><path class="foreground" aria-hidden="true" d="" pointer-events="none" display="none"></path></g></g><g class="mark-group role-scope concat_1_pathgroup" role="graphics-object" aria-roledescription="group mark container"><g transform="translate(0,0)"><path class="background" aria-hidden="true" d="M0,0h400v400h-400Z"></path><g><g class="mark-line role-mark concat_1_marks" clip-path="url(#clip7)" role="graphics-object" aria-roledescription="line mark container"><path aria-label="Type: Recovered; Date: Mar 01; Country: Sweden; Confirmed: 14; Recovered: 0; Deaths: 0; Count: 0" role="graphics-symbol" aria-roledescription="line mark" d="M-2364.4444444444443,400L-2337.777777777778,400L-2311.111111111111,400L-2284.4444444444443,400L-2257.777777777778,400L-2231.111111111111,400L-2204.4444444444443,400L-2177.777777777778,400L-2152.222222222222,400L-2125.5555555555557,400L-2098.8888888888887,400L-2072.222222222222,400L-2045.5555555555557,400L-2018.888888888889,400L-1992.2222222222222,400L-1965.5555555555554,400L-1938.888888888889,400L-1912.2222222222224,400L-1885.5555555555554,400L-1858.888888888889,400L-1832.2222222222222,400L-1805.5555555555557,400L-1778.8888888888887,400L-1752.2222222222222,400L-1725.5555555555557,400L-1698.8888888888887,400L-1672.2222222222222,400L-1645.5555555555557,400L-1618.888888888889,400L-1592.2222222222222,400L-1565.5555555555554,400L-1538.888888888889,400L-1512.2222222222222,400L-1485.5555555555557,400L-1458.888888888889,400L-1432.2222222222222,400L-1405.5555555555554,400L-1378.888888888889,400L-1352.2222222222222,400L-1325.5555555555557,400L-1298.888888888889,400L-1272.2222222222222,400L-1245.5555555555557,400L-1218.888888888889,400L-1192.2222222222222,400L-1165.5555555555554,400L-1138.888888888889,400L-1112.2222222222222,400L-1085.5555555555557,400L-1058.888888888889,400L-1032.2222222222222,400L-1005.5555555555555,400L-978.8888888888889,400L-952.2222222222222,400L-925.5555555555557,400L-898.8888888888889,400L-872.2222222222222,400L-845.5555555555555,400L-818.8888888888888,400L-792.2222222222223,400L-765.5555555555555,400L-738.8888888888889,400L-712.2222222222222,400L-685.5555555555555,400L-658.8888888888889,400L-632.2222222222222,400L-605.5555555555555,400L-578.8888888888889,400L-552.2222222222222,400L-525.5555555555555,400L-498.8888888888889,400L-472.22222222222223,400L-445.55555555555554,400L-418.8888888888889,400L-392.22222222222223,400L-365.55555555555554,400L-338.88888888888886,400L-312.22222222222223,400L-285.55555555555554,400L-258.8888888888889,400L-232.22222222222223,400L-205.55555555555554,400L-178.88888888888889,400L-152.22222222222223,400L-125.55555555555556,400L-98.88888888888889,400L-72.22222222222221,400L-45.55555555555556,400L-18.88888888888889,400L7.777777777777778,400L34.44444444444444,400L61.111111111111114,400L87.77777777777777,400L114.44444444444444,400L141.11111111111111,400L167.77777777777777,400L194.44444444444443,400L221.11111111111111,400L247.77777777777777,400L274.44444444444446,400L301.1111111111111,400L327.77777777777777,400L354.44444444444446,400L381.1111111111111,400L407.77777777777777,400" stroke="#e45756" stroke-width="2" opacity="0.7"></path></g></g><path class="foreground" aria-hidden="true" d="" display="none"></path></g><g transform="translate(0,0)"><path class="background" aria-hidden="true" d="M0,0h400v400h-400Z"></path><g><g class="mark-line role-mark concat_1_marks" clip-path="url(#clip8)" role="graphics-object" aria-roledescription="line mark container"><path aria-label="Type: Deaths; Date: Mar 01; Country: Sweden; Confirmed: 14; Recovered: 0; Deaths: 0; Count: 0" role="graphics-symbol" aria-roledescription="line mark" d="M-2364.4444444444443,400L-2337.777777777778,400L-2311.111111111111,400L-2284.4444444444443,400L-2257.777777777778,400L-2231.111111111111,400L-2204.4444444444443,400L-2177.777777777778,400L-2152.222222222222,400L-2125.5555555555557,400L-2098.8888888888887,399.9927272727273L-2072.222222222222,399.9927272727273L-2045.5555555555557,399.9927272727273L-2018.888888888889,399.98545454545456L-1992.2222222222222,399.97818181818184L-1965.5555555555554,399.9563636363636L-1938.888888888889,399.9490909090909L-1912.2222222222224,399.92727272727274L-1885.5555555555554,399.92L-1858.888888888889,399.88363636363636L-1832.2222222222222,399.8545454545455L-1805.5555555555557,399.84727272727275L-1778.8888888888887,399.8181818181818L-1752.2222222222222,399.73818181818183L-1725.5555555555557,399.5490909090909L-1698.8888888888887,399.44L-1672.2222222222222,399.23636363636365L-1645.5555555555557,399.23636363636365L-1618.888888888889,399.2L-1592.2222222222222,398.9381818181818L-1565.5555555555554,398.6909090909091L-1538.888888888889,398.26181818181817L-1512.2222222222222,397.76L-1485.5555555555557,397.3963636363636L-1458.888888888889,397.2872727272727L-1432.2222222222222,397.08363636363634L-1405.5555555555554,396.53090909090906L-1378.888888888889,395.7018181818182L-1352.2222222222222,395.00363636363636L-1325.5555555555557,394.2327272727273L-1298.888888888889,393.6727272727273L-1272.2222222222222,393.54909090909086L-1245.5555555555557,393.46181818181816L-1218.888888888889,393.31636363636363L-1192.2222222222222,392.4872727272727L-1165.5555555555554,391.2509090909091L-1138.888888888889,390.30545454545455L-1112.2222222222222,389.8181818181818L-1085.5555555555557,389.0109090909091L-1058.888888888889,388.8L-1032.2222222222222,388.5090909090909L-1005.5555555555555,387.1636363636364L-978.8888888888889,385.9127272727273L-952.2222222222222,385.3018181818182L-925.5555555555557,384.34909090909093L-898.8888888888889,384.0581818181818L-872.2222222222222,384.0436363636364L-845.5555555555555,383.46181818181816L-818.8888888888888,382.8727272727273L-792.2222222222223,382.0945454545455L-765.5555555555555,381.19272727272727L-738.8888888888889,380.70545454545453L-712.2222222222222,380.5890909090909L-685.5555555555555,380.5163636363636L-658.8888888888889,379.8618181818182L-632.2222222222222,379.24363636363637L-605.5555555555555,378.6109090909091L-578.8888888888889,377.8909090909091L-552.2222222222222,376.9090909090909L-525.5555555555555,376.58181818181816L-498.8888888888889,376.54545454545456L-472.22222222222223,376.32L-445.55555555555554,375.9054545454545L-418.8888888888889,374.8363636363636L-392.22222222222223,374.33454545454543L-365.55555555555554,373.4836363636364L-338.88888888888886,373.28000000000003L-312.22222222222223,373.24363636363637L-285.55555555555554,373.10545454545456L-258.8888888888889,372.7781818181818L-232.22222222222223,372.1381818181818L-205.55555555555554,371.8472727272727L-178.88888888888889,371.45454545454544L-152.22222222222223,370.9672727272727L-125.55555555555556,370.9236363636363L-98.88888888888889,370.6981818181818L-72.22222222222221,370L-45.55555555555556,369.3090909090909L-18.88888888888889,368.9745454545454L7.777777777777778,368.3636363636364L34.44444444444444,368.0363636363636L61.111111111111114,368.0363636363636L87.77777777777777,367.9781818181818L114.44444444444444,367.50545454545454L141.11111111111111,366.9672727272727L167.77777777777777,366.8218181818182L194.44444444444443,366.26181818181817L221.11111111111111,366.1381818181818L247.77777777777777,366.11636363636364L274.44444444444446,365.8618181818182L301.1111111111111,365.69454545454545L327.77777777777777,365.1272727272727L354.44444444444446,364.9890909090909L381.1111111111111,364.6981818181818L407.77777777777777,364.5527272727273" stroke="#f58518" stroke-width="2" opacity="0.7"></path></g></g><path class="foreground" aria-hidden="true" d="" display="none"></path></g><g transform="translate(0,0)"><path class="background" aria-hidden="true" d="M0,0h400v400h-400Z"></path><g><g class="mark-line role-mark concat_1_marks" clip-path="url(#clip9)" role="graphics-object" aria-roledescription="line mark container"><path aria-label="Type: Confirmed; Date: Mar 01; Country: Sweden; Confirmed: 14; Recovered: 0; Deaths: 0; Count: 14" role="graphics-symbol" aria-roledescription="line mark" d="M-2364.4444444444443,399.8981818181818L-2337.777777777778,399.8909090909091L-2311.111111111111,399.84727272727275L-2284.4444444444443,399.74545454545455L-2257.777777777778,399.31636363636363L-2231.111111111111,399.26545454545453L-2204.4444444444443,398.8290909090909L-2177.777777777778,398.52363636363634L-2152.222222222222,398.1963636363636L-2125.5555555555557,397.4181818181818L-2098.8888888888887,396.3636363636364L-2072.222222222222,395.64363636363635L-2045.5555555555557,394.08L-2018.888888888889,393.0109090909091L-1992.2222222222222,392.5672727272727L-1965.5555555555554,391.97818181818184L-1938.888888888889,391.3454545454545L-1912.2222222222224,390.6981818181818L-1885.5555555555554,389.5345454545454L-1858.888888888889,388.08L-1832.2222222222222,387.1781818181818L-1805.5555555555557,385.93454545454546L-1778.8888888888887,385.12L-1752.2222222222222,383.37454545454545L-1725.5555555555557,381.6290909090909L-1698.8888888888887,379.3454545454546L-1672.2222222222222,377.68L-1645.5555555555557,374.9309090909091L-1618.888888888889,373.0909090909091L-1592.2222222222222,370.70545454545453L-1565.5555555555554,367.74545454545455L-1538.888888888889,364.02181818181816L-1512.2222222222222,359.50545454545454L-1485.5555555555557,355.4109090909091L-1458.888888888889,353.14181818181817L-1432.2222222222222,350.3272727272727L-1405.5555555555554,347.5927272727273L-1378.888888888889,344.0509090909091L-1352.2222222222222,338.7709090909091L-1325.5555555555557,333.52L-1298.888888888889,329.56363636363636L-1272.2222222222222,326.17454545454547L-1245.5555555555557,323.76L-1218.888888888889,320.3781818181818L-1192.2222222222222,316.76363636363635L-1165.5555555555554,313.2581818181818L-1138.888888888889,308.8L-1112.2222222222222,303.88363636363636L-1085.5555555555557,299.47636363636366L-1058.888888888889,295.3818181818182L-1032.2222222222222,292.53090909090906L-1005.5555555555555,288.56727272727267L-978.8888888888889,283.6072727272727L-952.2222222222222,278.1454545454546L-925.5555555555557,272.24L-898.8888888888889,267.8036363636363L-872.2222222222222,264.4363636363637L-845.5555555555555,262.35636363636365L-818.8888888888888,257.3018181818182L-792.2222222222223,252.3490909090909L-765.5555555555555,246.60363636363635L-738.8888888888889,243.4909090909091L-712.2222222222222,239.40363636363634L-685.5555555555555,237.69454545454548L-658.8888888888889,234.75636363636366L-632.2222222222222,231.1563636363636L-605.5555555555555,226.05090909090907L-578.8888888888889,220.92363636363635L-552.2222222222222,216.25454545454542L-525.5555555555555,211.48363636363635L-498.8888888888889,208.56727272727272L-472.22222222222223,206.0363636363636L-445.55555555555554,201.65818181818182L-418.8888888888889,197.02545454545452L-392.22222222222223,192.13090909090909L-365.55555555555554,187.58545454545455L-338.88888888888886,184.16727272727275L-312.22222222222223,180.77818181818182L-285.55555555555554,179.07636363636365L-258.8888888888889,176.00727272727275L-232.22222222222223,170.7418181818182L-205.55555555555554,166.0218181818182L-178.88888888888889,161.38909090909092L-152.22222222222223,158.63272727272727L-125.55555555555556,156.6618181818182L-98.88888888888889,153.86909090909091L-72.22222222222221,149.52727272727273L-45.55555555555556,144.81454545454545L-18.88888888888889,140.16727272727275L7.777777777777778,134.72L34.44444444444444,130.08727272727273L61.111111111111114,126.96727272727273L87.77777777777777,124.98909090909089L114.44444444444444,119.35272727272728L141.11111111111111,103.2509090909091L167.77777777777777,95.39636363636363L194.44444444444443,87.71636363636364L221.11111111111111,80.8218181818182L247.77777777777777,74.6909090909091L274.44444444444446,71.76L301.1111111111111,66.00727272727273L327.77777777777777,59.534545454545466L354.44444444444446,48.814545454545446L381.1111111111111,38.66181818181818L407.77777777777777,29.59272727272726" stroke="#4c78a8" stroke-width="2" opacity="0.7"></path></g></g><path class="foreground" aria-hidden="true" d="" display="none"></path></g></g><g class="mark-group role-title"><g transform="translate(200,-54)"><path class="background" aria-hidden="true" d="M0,0h0v0h0Z" pointer-events="none"></path><g><g class="mark-text role-title-text" role="graphics-symbol" aria-roledescription="title" aria-label="Title text 'Total [2020-06-13]'" pointer-events="none"><text text-anchor="middle" transform="translate(0,10)" font-family="Roboto Condensed" font-size="13px" font-weight="normal" fill="#000" opacity="1"><tspan>Total</tspan><tspan x="0" dy="15">[2020-06-13]</tspan></text></g></g><path class="foreground" aria-hidden="true" d="" pointer-events="none" display="none"></path></g></g></g><path class="foreground" aria-hidden="true" d="" display="none"></path></g></g><g class="mark-group role-legend" role="graphics-symbol" aria-roledescription="legend" aria-label="Symbol legend for stroke color with 3 values: Confirmed, Deaths, Recovered"><g transform="translate(883,0)"><path class="background" aria-hidden="true" d="M0,0h58v37h-58Z" pointer-events="none"></path><g><g class="mark-group role-legend-entry"><g transform="translate(0,0)"><path class="background" aria-hidden="true" d="M0,0h0v0h0Z" pointer-events="none"></path><g><g class="mark-group role-scope" role="graphics-object" aria-roledescription="group mark container"><g transform="translate(0,0)"><path class="background" aria-hidden="true" d="M0,0h58v11h-58Z" pointer-events="none" opacity="1"></path><g><g class="mark-symbol role-legend-symbol" pointer-events="none"><path transform="translate(6,6)" d="M-5,0L5,0" stroke="#4c78a8" stroke-width="1.5" opacity="0.2"></path></g><g class="mark-text role-legend-label" pointer-events="none"><text text-anchor="start" transform="translate(16,9)" font-family="Roboto Condensed" font-size="10px" fill="#000" opacity="1">Confirmed</text></g></g><path class="foreground" aria-hidden="true" d="" pointer-events="none" display="none"></path></g><g transform="translate(0,13)"><path class="background" aria-hidden="true" d="M0,0h58v11h-58Z" pointer-events="none" opacity="1"></path><g><g class="mark-symbol role-legend-symbol" pointer-events="none"><path transform="translate(6,6)" d="M-5,0L5,0" stroke="#f58518" stroke-width="1.5" opacity="0.2"></path></g><g class="mark-text role-legend-label" pointer-events="none"><text text-anchor="start" transform="translate(16,9)" font-family="Roboto Condensed" font-size="10px" fill="#000" opacity="1">Deaths</text></g></g><path class="foreground" aria-hidden="true" d="" pointer-events="none" display="none"></path></g><g transform="translate(0,26)"><path class="background" aria-hidden="true" d="M0,0h58v11h-58Z" pointer-events="none" opacity="1"></path><g><g class="mark-symbol role-legend-symbol" pointer-events="none"><path transform="translate(6,6)" d="M-5,0L5,0" stroke="#e45756" stroke-width="1.5" opacity="0.2"></path></g><g class="mark-text role-legend-label" pointer-events="none"><text text-anchor="start" transform="translate(16,9)" font-family="Roboto Condensed" font-size="10px" fill="#000" opacity="1">Recovered</text></g></g><path class="foreground" aria-hidden="true" d="" pointer-events="none" display="none"></path></g></g></g><path class="foreground" aria-hidden="true" d="" pointer-events="none" display="none"></path></g></g></g><path class="foreground" aria-hidden="true" d="" pointer-events="none" display="none"></path></g></g></g><path class="foreground" aria-hidden="true" d="" display="none"></path></g></g></g></svg>