<svg class="marks" width="996" height="491" viewBox="0 0 996 491" version="1.1" xmlns="http://www.w3.org/2000/svg" xmlns:xlink="http://www.w3.org/1999/xlink"><defs><clipPath id="clip1"><rect x="0" y="0" width="400" height="400"></rect></clipPath><clipPath id="clip2"><rect x="0" y="0" width="400" height="400"></rect></clipPath><clipPath id="clip3"><rect x="0" y="0" width="400" height="400"></rect></clipPath><clipPath id="clip4"><rect x="0" y="0" width="400" height="400"></rect></clipPath><clipPath id="clip5"><rect x="0" y="0" width="400" height="400"></rect></clipPath><clipPath id="clip6"><rect x="0" y="0" width="400" height="400"></rect></clipPath><clipPath id="clip7"><rect x="0" y="0" width="400" height="400"></rect></clipPath><clipPath id="clip8"><rect x="0" y="0" width="400" height="400"></rect></clipPath><clipPath id="clip9"><rect x="0" y="0" width="400" height="400"></rect></clipPath></defs><rect width="996" height="491" fill="white"></rect><g fill="none" stroke-miterlimit="10" transform="translate(50,59)"><g class="mark-group role-frame root" role="graphics-object" aria-roledescription="group mark container"><g transform="translate(0,0)"><path class="background" aria-hidden="true" d="M0,0h0v400h0Z"></path><g><g class="mark-group role-scope concat_0_group" role="graphics-object" aria-roledescription="group mark container"><g transform="translate(0,0)"><path class="background" aria-hidden="true" d="M0,0h400v400h-400Z" stroke="#ddd" stroke-width="0"></path><g><g class="mark-group role-axis" aria-hidden="true"><g transform="translate(0.5,0.5)"><path class="background" aria-hidden="true" d="M0,0h0v0h0Z" pointer-events="none"></path><g><g class="mark-rule role-axis-grid" pointer-events="none"><line transform="translate(0,400)" x2="400" y2="0" stroke="#ddd" stroke-width="1" opacity="1"></line><line transform="translate(0,364)" x2="400" y2="0" stroke="#ddd" stroke-width="1" opacity="1"></line><line transform="translate(0,327)" x2="400" y2="0" stroke="#ddd" stroke-width="1" opacity="1"></line><line transform="translate(0,291)" x2="400" y2="0" stroke="#ddd" stroke-width="1" opacity="1"></line><line transform="translate(0,255)" x2="400" y2="0" stroke="#ddd" stroke-width="1" opacity="1"></line><line transform="translate(0,218)" x2="400" y2="0" stroke="#ddd" stroke-width="1" opacity="1"></line><line transform="translate(0,182)" x2="400" y2="0" stroke="#ddd" stroke-width="1" opacity="1"></line><line transform="translate(0,145)" x2="400" y2="0" stroke="#ddd" stroke-width="1" opacity="1"></line><line transform="translate(0,109)" x2="400" y2="0" stroke="#ddd" stroke-width="1" opacity="1"></line><line transform="translate(0,73)" x2="400" y2="0" stroke="#ddd" stroke-width="1" opacity="1"></line><line transform="translate(0,36)" x2="400" y2="0" stroke="#ddd" stroke-width="1" opacity="1"></line><line transform="translate(0,0)" x2="400" y2="0" stroke="#ddd" stroke-width="1" opacity="1"></line></g></g><path class="foreground" aria-hidden="true" d="" pointer-events="none" display="none"></path></g></g><g class="mark-group role-axis" role="graphics-symbol" aria-roledescription="axis" aria-label="X-axis titled 'Date' for a time scale with values from May 24 to June 08"><g transform="translate(0.5,400.5)"><path class="background" aria-hidden="true" d="M0,0h0v0h0Z" pointer-events="none"></path><g><g class="mark-text role-axis-label" pointer-events="none"><text text-anchor="middle" transform="translate(7.777777777777778,10)" font-family="Roboto Condensed" font-size="10px" fill="#000" opacity="1">May 25</text><text text-anchor="middle" transform="translate(61.111111111111114,10)" font-family="Roboto Condensed" font-size="10px" fill="#000" opacity="0">May 27</text><text text-anchor="middle" transform="translate(114.44444444444444,10)" font-family="Roboto Condensed" font-size="10px" fill="#000" opacity="1">May 29</text><text text-anchor="middle" transform="translate(167.77777777777777,10)" font-family="Roboto Condensed" font-size="10px" fill="#000" opacity="0">May 31</text><text text-anchor="middle" transform="translate(194.44444444444443,10)" font-family="Roboto Condensed" font-size="10px" fill="#000" opacity="1">Jun 01</text><text text-anchor="middle" transform="translate(247.77777777777777,10)" font-family="Roboto Condensed" font-size="10px" fill="#000" opacity="0">Jun 03</text><text text-anchor="middle" transform="translate(301.1111111111111,10)" font-family="Roboto Condensed" font-size="10px" fill="#000" opacity="1">Jun 05</text><text text-anchor="middle" transform="translate(354.44444444444446,10)" font-family="Roboto Condensed" font-size="10px" fill="#000" opacity="0">Jun 07</text></g><g class="mark-rule role-axis-domain" pointer-events="none"><line transform="translate(0,0)" x2="400" y2="0" stroke="lightgray" stroke-width="1" opacity="1"></line></g><g class="mark-text role-axis-title" pointer-events="none"><text text-anchor="middle" transform="translate(200,25)" font-family="Roboto Condensed" font-size="11px" font-weight="normal" fill="#000" opacity="1">Date</text></g></g><path class="foreground" aria-hidden="true" d="" pointer-events="none" display="none"></path></g></g><g class="mark-group role-axis" role="graphics-symbol" aria-roledescription="axis" aria-label="Y-axis titled 'Count' for a linear scale with values from -10 to 100"><g transform="translate(0.5,0.5)"><path class="background" aria-hidden="true" d="M0,0h0v0h0Z" pointer-events="none"></path><g><g class="mark-text role-axis-label" pointer-events="none"><text text-anchor="end" transform="translate(-2,403)" font-family="Roboto Condensed" font-size="10px" fill="#000" opacity="1">-10</text><text text-anchor="end" transform="translate(-2,366.6363636363636)" font-family="Roboto Condensed" font-size="10px" fill="#000" opacity="1">0</text><text text-anchor="end" transform="translate(-2,330.27272727272725)" font-family="Roboto Condensed" font-size="10px" fill="#000" opacity="1">10</text><text text-anchor="end" transform="translate(-2,293.90909090909093)" font-family="Roboto Condensed" font-size="10px" fill="#000" opacity="1">20</text><text text-anchor="end" transform="translate(-2,257.5454545454545)" font-family="Roboto Condensed" font-size="10px" fill="#000" opacity="1">30</text><text text-anchor="end" transform="translate(-2,221.18181818181816)" font-family="Roboto Condensed" font-size="10px" fill="#000" opacity="1">40</text><text text-anchor="end" transform="translate(-2,184.81818181818184)" font-family="Roboto Condensed" font-size="10px" fill="#000" opacity="1">50</text><text text-anchor="end" transform="translate(-2,148.45454545454547)" font-family="Roboto Condensed" font-size="10px" fill="#000" opacity="1">60</text><text text-anchor="end" transform="translate(-2,112.09090909090908)" font-family="Roboto Condensed" font-size="10px" fill="#000" opacity="1">70</text><text text-anchor="end" transform="translate(-2,75.7272727272727)" font-family="Roboto Condensed" font-size="10px" fill="#000" opacity="1">80</text><text text-anchor="end" transform="translate(-2,39.363636363636374)" font-family="Roboto Condensed" font-size="10px" fill="#000" opacity="1">90</text><text text-anchor="end" transform="translate(-2,3)" font-family="Roboto Condensed" font-size="10px" fill="#000" opacity="1">100</text></g><g class="mark-rule role-axis-domain" pointer-events="none"><line transform="translate(0,400)" x2="0" y2="-400" stroke="lightgray" stroke-width="1" opacity="1"></line></g><g class="mark-text role-axis-title" pointer-events="none"><text text-anchor="start" transform="translate(-45,-13)" font-family="Roboto Condensed" font-size="11px" font-weight="normal" fill="#000" opacity="1">Count</text></g></g><path class="foreground" aria-hidden="true" d="" pointer-events="none" display="none"></path></g></g><g class="mark-group role-scope concat_0_layer_0_pathgroup" role="graphics-object" aria-roledescription="group mark container"><g transform="translate(0,0)"><path class="background" aria-hidden="true" d="M0,0h400v400h-400Z"></path><g><g class="mark-line role-mark concat_0_layer_0_marks" clip-path="url(#clip1)" role="graphics-object" aria-roledescription="line mark container"><path aria-label="Type: Recovered; Date: Mar 01; Count: 0" role="graphics-symbol" aria-roledescription="line mark" d="M-2257.777777777778,363.6363636363636L-2231.111111111111,363.6363636363636L-2204.4444444444443,363.6363636363636L-2177.777777777778,363.6363636363636L-2151.1111111111113,363.6363636363636L-2124.4444444444443,363.6363636363636L-2097.777777777778,363.6363636363636L-2071.1111111111113,363.6363636363636L-2045.5555555555557,363.6363636363636L-2018.888888888889,360L-1992.2222222222222,363.6363636363636L-1965.5555555555554,363.6363636363636L-1938.888888888889,363.6363636363636L-1912.2222222222224,363.6363636363636L-1885.5555555555554,338.1818181818182L-1858.888888888889,392.72727272727275L-1832.2222222222222,363.6363636363636L-1805.5555555555557,345.45454545454544L-1778.8888888888887,363.6363636363636L-1752.2222222222222,363.6363636363636L-1725.5555555555557,301.8181818181818L-1698.8888888888887,312.72727272727275L-1672.2222222222222,363.6363636363636L-1645.5555555555557,309.09090909090907L-1618.888888888889,345.45454545454544L-1592.2222222222222,269.09090909090907L-1565.5555555555554,309.09090909090907L-1538.888888888889,301.8181818181818L-1512.2222222222222,287.2727272727273L-1485.5555555555557,283.6363636363636L-1458.888888888889,214.54545454545456L-1432.2222222222222,265.45454545454544L-1405.5555555555554,149.09090909090907L-1378.888888888889,272.72727272727275L-1352.2222222222222,47.272727272727266L-1325.5555555555557,247.27272727272725L-1298.888888888889,247.27272727272725L-1272.2222222222222,3.6363636363636154L-1245.5555555555557,94.54545454545453L-1218.888888888889,163.63636363636363L-1192.2222222222222,134.54545454545453L-1165.5555555555554,36.363636363636374L-1138.888888888889,189.09090909090912L-1112.2222222222222,203.63636363636363L-1085.5555555555557,160L-1058.888888888889,43.636363636363654L-1032.2222222222222,120.00000000000001L-1005.5555555555555,72.7272727272727L-978.8888888888889,120.00000000000001L-952.2222222222222,363.6363636363636L-925.5555555555557,105.45454545454547L-898.8888888888889,163.63636363636363L-872.2222222222222,200L-845.5555555555555,192.72727272727272L-818.8888888888888,243.63636363636365L-792.2222222222223,261.8181818181818L-765.5555555555555,225.4545454545455L-738.8888888888889,305.4545454545455L-712.2222222222222,320L-685.5555555555555,290.90909090909093L-658.8888888888889,312.72727272727275L-632.2222222222222,294.5454545454545L-605.5555555555555,301.8181818181818L-578.8888888888889,323.6363636363636L-552.2222222222222,341.8181818181818L-525.5555555555555,327.27272727272725L-498.8888888888889,301.8181818181818L-472.22222222222223,345.45454545454544L-445.55555555555554,327.27272727272725L-418.8888888888889,334.54545454545456L-392.22222222222223,363.6363636363636L-365.55555555555554,363.6363636363636L-338.88888888888886,352.72727272727275L-312.22222222222223,349.0909090909091L-285.55555555555554,363.6363636363636L-258.8888888888889,356.3636363636364L-232.22222222222223,349.0909090909091L-205.55555555555554,363.6363636363636L-178.88888888888889,363.6363636363636L-152.22222222222223,352.72727272727275L-125.55555555555556,363.6363636363636L-98.88888888888889,360L-72.22222222222221,360L-45.55555555555556,363.6363636363636L-18.88888888888889,363.6363636363636L7.777777777777778,363.6363636363636L34.44444444444444,360L61.111111111111114,363.6363636363636L87.77777777777777,363.6363636363636L114.44444444444444,356.3636363636364L141.11111111111111,363.6363636363636L167.77777777777777,363.6363636363636L194.44444444444443,363.6363636363636L221.11111111111111,363.6363636363636L247.77777777777777,363.6363636363636L274.44444444444446,363.6363636363636L301.1111111111111,363.6363636363636L327.77777777777777,363.6363636363636L354.44444444444446,363.6363636363636L381.1111111111111,363.6363636363636L407.77777777777777,363.6363636363636" stroke="#e45756" stroke-width="2" opacity="0.2"></path></g></g><path class="foreground" aria-hidden="true" d="" display="none"></path></g><g transform="translate(0,0)"><path class="background" aria-hidden="true" d="M0,0h400v400h-400Z"></path><g><g class="mark-line role-mark concat_0_layer_0_marks" clip-path="url(#clip2)" role="graphics-object" aria-roledescription="line mark container"><path aria-label="Type: Deaths; Date: Mar 01; Count: 0" role="graphics-symbol" aria-roledescription="line mark" d="M-2257.777777777778,363.6363636363636L-2231.111111111111,363.6363636363636L-2204.4444444444443,363.6363636363636L-2177.777777777778,363.6363636363636L-2151.1111111111113,363.6363636363636L-2124.4444444444443,363.6363636363636L-2097.777777777778,363.6363636363636L-2071.1111111111113,363.6363636363636L-2045.5555555555557,363.6363636363636L-2018.888888888889,363.6363636363636L-1992.2222222222222,363.6363636363636L-1965.5555555555554,363.6363636363636L-1938.888888888889,363.6363636363636L-1912.2222222222224,363.6363636363636L-1885.5555555555554,345.45454545454544L-1858.888888888889,381.8181818181818L-1832.2222222222222,360L-1805.5555555555557,363.6363636363636L-1778.8888888888887,363.6363636363636L-1752.2222222222222,367.2727272727273L-1725.5555555555557,360L-1698.8888888888887,363.6363636363636L-1672.2222222222222,363.6363636363636L-1645.5555555555557,360L-1618.888888888889,363.6363636363636L-1592.2222222222222,363.6363636363636L-1565.5555555555554,363.6363636363636L-1538.888888888889,363.6363636363636L-1512.2222222222222,363.6363636363636L-1485.5555555555557,363.6363636363636L-1458.888888888889,363.6363636363636L-1432.2222222222222,363.6363636363636L-1405.5555555555554,356.3636363636364L-1378.888888888889,363.6363636363636L-1352.2222222222222,363.6363636363636L-1325.5555555555557,363.6363636363636L-1298.888888888889,356.3636363636364L-1272.2222222222222,363.6363636363636L-1245.5555555555557,363.6363636363636L-1218.888888888889,363.6363636363636L-1192.2222222222222,360L-1165.5555555555554,360L-1138.888888888889,363.6363636363636L-1112.2222222222222,363.6363636363636L-1085.5555555555557,363.6363636363636L-1058.888888888889,363.6363636363636L-1032.2222222222222,363.6363636363636L-1005.5555555555555,360L-978.8888888888889,363.6363636363636L-952.2222222222222,363.6363636363636L-925.5555555555557,360L-898.8888888888889,363.6363636363636L-872.2222222222222,363.6363636363636L-845.5555555555555,363.6363636363636L-818.8888888888888,363.6363636363636L-792.2222222222223,363.6363636363636L-765.5555555555555,363.6363636363636L-738.8888888888889,363.6363636363636L-712.2222222222222,363.6363636363636L-685.5555555555555,363.6363636363636L-658.8888888888889,363.6363636363636L-632.2222222222222,363.6363636363636L-605.5555555555555,363.6363636363636L-578.8888888888889,363.6363636363636L-552.2222222222222,363.6363636363636L-525.5555555555555,363.6363636363636L-498.8888888888889,363.6363636363636L-472.22222222222223,363.6363636363636L-445.55555555555554,363.6363636363636L-418.8888888888889,363.6363636363636L-392.22222222222223,363.6363636363636L-365.55555555555554,363.6363636363636L-338.88888888888886,363.6363636363636L-312.22222222222223,363.6363636363636L-285.55555555555554,363.6363636363636L-258.8888888888889,363.6363636363636L-232.22222222222223,363.6363636363636L-205.55555555555554,363.6363636363636L-178.88888888888889,363.6363636363636L-152.22222222222223,363.6363636363636L-125.55555555555556,363.6363636363636L-98.88888888888889,363.6363636363636L-72.22222222222221,363.6363636363636L-45.55555555555556,363.6363636363636L-18.88888888888889,363.6363636363636L7.777777777777778,363.6363636363636L34.44444444444444,363.6363636363636L61.111111111111114,363.6363636363636L87.77777777777777,363.6363636363636L114.44444444444444,363.6363636363636L141.11111111111111,363.6363636363636L167.77777777777777,363.6363636363636L194.44444444444443,363.6363636363636L221.11111111111111,363.6363636363636L247.77777777777777,363.6363636363636L274.44444444444446,363.6363636363636L301.1111111111111,363.6363636363636L327.77777777777777,363.6363636363636L354.44444444444446,363.6363636363636L381.1111111111111,363.6363636363636L407.77777777777777,363.6363636363636" stroke="#f58518" stroke-width="2" opacity="0.2"></path></g></g><path class="foreground" aria-hidden="true" d="" display="none"></path></g><g transform="translate(0,0)"><path class="background" aria-hidden="true" d="M0,0h400v400h-400Z"></path><g><g class="mark-line role-mark concat_0_layer_0_marks" clip-path="url(#clip3)" role="graphics-object" aria-roledescription="line mark container"><path aria-label="Type: Confirmed; Date: Mar 01; Count: 2" role="graphics-symbol" aria-roledescription="line mark" d="M-2257.777777777778,356.3636363636364L-2231.111111111111,352.72727272727275L-2204.4444444444443,345.45454545454544L-2177.777777777778,309.09090909090907L-2151.1111111111113,334.54545454545456L-2124.4444444444443,330.90909090909093L-2097.777777777778,338.1818181818182L-2071.1111111111113,363.6363636363636L-2045.5555555555557,334.54545454545456L-2018.888888888889,323.6363636363636L-1992.2222222222222,305.4545454545455L-1965.5555555555554,298.1818181818182L-1938.888888888889,250.90909090909088L-1912.2222222222224,283.6363636363636L-1885.5555555555554,309.09090909090907L-1858.888888888889,330.90909090909093L-1832.2222222222222,218.18181818181816L-1805.5555555555557,254.54545454545453L-1778.8888888888887,72.7272727272727L-1752.2222222222222,76.36363636363637L-1725.5555555555557,130.9090909090909L-1698.8888888888887,18.181818181818166L-1672.2222222222222,290.90909090909093L-1645.5555555555557,145.45454545454547L-1618.888888888889,39.99999999999999L-1592.2222222222222,127.2727272727273L-1565.5555555555554,43.636363636363654L-1538.888888888889,98.18181818181819L-1512.2222222222222,156.36363636363635L-1485.5555555555557,123.63636363636363L-1458.888888888889,185.45454545454544L-1432.2222222222222,54.54545454545454L-1405.5555555555554,3.6363636363636154L-1378.888888888889,200L-1352.2222222222222,170.9090909090909L-1325.5555555555557,112.72727272727275L-1298.888888888889,87.27272727272725L-1272.2222222222222,276.3636363636364L-1245.5555555555557,254.54545454545453L-1218.888888888889,247.27272727272725L-1192.2222222222222,265.45454545454544L-1165.5555555555554,312.72727272727275L-1138.888888888889,320L-1112.2222222222222,327.27272727272725L-1085.5555555555557,330.90909090909093L-1058.888888888889,338.1818181818182L-1032.2222222222222,320L-1005.5555555555555,309.09090909090907L-978.8888888888889,341.8181818181818L-952.2222222222222,323.6363636363636L-925.5555555555557,356.3636363636364L-898.8888888888889,345.45454545454544L-872.2222222222222,338.1818181818182L-845.5555555555555,349.0909090909091L-818.8888888888888,363.6363636363636L-792.2222222222223,360L-765.5555555555555,356.3636363636364L-738.8888888888889,363.6363636363636L-712.2222222222222,352.72727272727275L-685.5555555555555,356.3636363636364L-658.8888888888889,363.6363636363636L-632.2222222222222,360L-605.5555555555555,363.6363636363636L-578.8888888888889,360L-552.2222222222222,363.6363636363636L-525.5555555555555,363.6363636363636L-498.8888888888889,363.6363636363636L-472.22222222222223,356.3636363636364L-445.55555555555554,363.6363636363636L-418.8888888888889,363.6363636363636L-392.22222222222223,363.6363636363636L-365.55555555555554,363.6363636363636L-338.88888888888886,363.6363636363636L-312.22222222222223,360L-285.55555555555554,363.6363636363636L-258.8888888888889,363.6363636363636L-232.22222222222223,363.6363636363636L-205.55555555555554,363.6363636363636L-178.88888888888889,363.6363636363636L-152.22222222222223,363.6363636363636L-125.55555555555556,360L-98.88888888888889,363.6363636363636L-72.22222222222221,363.6363636363636L-45.55555555555556,360L-18.88888888888889,363.6363636363636L7.777777777777778,363.6363636363636L34.44444444444444,363.6363636363636L61.111111111111114,360L87.77777777777777,363.6363636363636L114.44444444444444,363.6363636363636L141.11111111111111,360L167.77777777777777,363.6363636363636L194.44444444444443,363.6363636363636L221.11111111111111,363.6363636363636L247.77777777777777,363.6363636363636L274.44444444444446,363.6363636363636L301.1111111111111,363.6363636363636L327.77777777777777,363.6363636363636L354.44444444444446,360L381.1111111111111,363.6363636363636L407.77777777777777,363.6363636363636" stroke="#4c78a8" stroke-width="2" opacity="0.2"></path></g></g><path class="foreground" aria-hidden="true" d="" display="none"></path></g></g><g class="mark-group role-scope concat_0_layer_1_pathgroup" role="graphics-object" aria-roledescription="group mark container"><g transform="translate(0,0)"><path class="background" aria-hidden="true" d="M0,0h400v400h-400Z"></path><g><g class="mark-line role-mark concat_0_layer_1_marks" clip-path="url(#clip4)" role="graphics-object" aria-roledescription="line mark container"><path aria-label="Type: Recovered; Date: Mar 01; Count: 0" role="graphics-symbol" aria-roledescription="line mark" d="M-2097.777777777778,363.6363636363636L-2071.1111111111113,363.6363636363636L-2045.5555555555557,363.6363636363636L-2018.888888888889,363.1168831168831L-1992.2222222222222,363.1168831168831L-1965.5555555555554,363.1168831168831L-1938.888888888889,363.1168831168831L-1912.2222222222224,363.1168831168831L-1885.5555555555554,359.4805194805195L-1858.888888888889,363.6363636363636L-1832.2222222222222,364.1558441558442L-1805.5555555555557,361.55844155844153L-1778.8888888888887,361.55844155844153L-1752.2222222222222,361.55844155844153L-1725.5555555555557,352.72727272727275L-1698.8888888888887,349.0909090909091L-1672.2222222222222,344.935064935065L-1645.5555555555557,337.14285714285717L-1618.888888888889,337.14285714285717L-1592.2222222222222,323.6363636363636L-1565.5555555555554,315.84415584415586L-1538.888888888889,315.84415584415586L-1512.2222222222222,312.2077922077922L-1485.5555555555557,300.7792207792208L-1458.888888888889,287.2727272727273L-1432.2222222222222,275.84415584415586L-1405.5555555555554,258.70129870129864L-1378.888888888889,253.5064935064935L-1352.2222222222222,217.14285714285717L-1325.5555555555557,211.42857142857144L-1298.888888888889,206.23376623376623L-1272.2222222222222,176.1038961038961L-1245.5555555555557,151.68831168831173L-1218.888888888889,153.76623376623374L-1192.2222222222222,134.02597402597402L-1165.5555555555554,132.4675324675325L-1138.888888888889,124.15584415584414L-1112.2222222222222,117.92207792207793L-1085.5555555555557,140.25974025974025L-1058.888888888889,132.98701298701297L-1032.2222222222222,126.75324675324676L-1005.5555555555555,117.92207792207793L-978.8888888888889,129.87012987012986L-952.2222222222222,154.80519480519482L-925.5555555555557,140.7792207792208L-898.8888888888889,141.2987012987013L-872.2222222222222,163.63636363636363L-845.5555555555555,174.02597402597402L-818.8888888888888,198.4415584415584L-792.2222222222223,218.7012987012987L-765.5555555555555,198.96103896103895L-738.8888888888889,227.5324675324675L-712.2222222222222,249.8701298701299L-685.5555555555555,262.85714285714283L-658.8888888888889,280L-632.2222222222222,287.2727272727273L-605.5555555555555,292.987012987013L-578.8888888888889,307.012987012987L-552.2222222222222,312.2077922077922L-525.5555555555555,313.24675324675326L-498.8888888888889,314.8051948051948L-472.22222222222223,319.4805194805195L-445.55555555555554,324.1558441558442L-418.8888888888889,328.83116883116884L-392.22222222222223,334.54545454545456L-365.55555555555554,337.6623376623376L-338.88888888888886,341.2987012987013L-312.22222222222223,348.05194805194805L-285.55555555555554,350.64935064935065L-258.8888888888889,354.8051948051948L-232.22222222222223,356.8831168831169L-205.55555555555554,356.8831168831169L-178.88888888888889,356.8831168831169L-152.22222222222223,356.8831168831169L-125.55555555555556,358.961038961039L-98.88888888888889,358.4415584415584L-72.22222222222221,358.961038961039L-45.55555555555556,361.038961038961L-18.88888888888889,361.038961038961L7.777777777777778,361.038961038961L34.44444444444444,362.0779220779221L61.111111111111114,362.0779220779221L87.77777777777777,362.5974025974026L114.44444444444444,362.0779220779221L141.11111111111111,362.0779220779221L167.77777777777777,362.0779220779221L194.44444444444443,362.0779220779221L221.11111111111111,362.5974025974026L247.77777777777777,362.5974025974026L274.44444444444446,362.5974025974026L301.1111111111111,363.6363636363636L327.77777777777777,363.6363636363636L354.44444444444446,363.6363636363636L381.1111111111111,363.6363636363636L407.77777777777777,363.6363636363636" stroke="#e45756" stroke-width="2" opacity="1"></path></g></g><path class="foreground" aria-hidden="true" d="" display="none"></path></g><g transform="translate(0,0)"><path class="background" aria-hidden="true" d="M0,0h400v400h-400Z"></path><g><g class="mark-line role-mark concat_0_layer_1_marks" clip-path="url(#clip5)" role="graphics-object" aria-roledescription="line mark container"><path aria-label="Type: Deaths; Date: Mar 01; Count: 0" role="graphics-symbol" aria-roledescription="line mark" d="M-2097.777777777778,363.6363636363636L-2071.1111111111113,363.6363636363636L-2045.5555555555557,363.6363636363636L-2018.888888888889,363.6363636363636L-1992.2222222222222,363.6363636363636L-1965.5555555555554,363.6363636363636L-1938.888888888889,363.6363636363636L-1912.2222222222224,363.6363636363636L-1885.5555555555554,361.038961038961L-1858.888888888889,363.6363636363636L-1832.2222222222222,363.1168831168831L-1805.5555555555557,363.1168831168831L-1778.8888888888887,363.1168831168831L-1752.2222222222222,363.6363636363636L-1725.5555555555557,363.1168831168831L-1698.8888888888887,365.7142857142857L-1672.2222222222222,363.1168831168831L-1645.5555555555557,363.1168831168831L-1618.888888888889,363.1168831168831L-1592.2222222222222,363.1168831168831L-1565.5555555555554,362.5974025974026L-1538.888888888889,363.1168831168831L-1512.2222222222222,363.1168831168831L-1485.5555555555557,363.1168831168831L-1458.888888888889,363.6363636363636L-1432.2222222222222,363.6363636363636L-1405.5555555555554,362.5974025974026L-1378.888888888889,362.5974025974026L-1352.2222222222222,362.5974025974026L-1325.5555555555557,362.5974025974026L-1298.888888888889,361.55844155844153L-1272.2222222222222,361.55844155844153L-1245.5555555555557,361.55844155844153L-1218.888888888889,362.5974025974026L-1192.2222222222222,362.0779220779221L-1165.5555555555554,361.55844155844153L-1138.888888888889,361.55844155844153L-1112.2222222222222,362.5974025974026L-1085.5555555555557,362.5974025974026L-1058.888888888889,362.5974025974026L-1032.2222222222222,362.5974025974026L-1005.5555555555555,362.5974025974026L-978.8888888888889,363.1168831168831L-952.2222222222222,363.1168831168831L-925.5555555555557,362.5974025974026L-898.8888888888889,362.5974025974026L-872.2222222222222,362.5974025974026L-845.5555555555555,362.5974025974026L-818.8888888888888,363.1168831168831L-792.2222222222223,363.1168831168831L-765.5555555555555,363.1168831168831L-738.8888888888889,363.6363636363636L-712.2222222222222,363.6363636363636L-685.5555555555555,363.6363636363636L-658.8888888888889,363.6363636363636L-632.2222222222222,363.6363636363636L-605.5555555555555,363.6363636363636L-578.8888888888889,363.6363636363636L-552.2222222222222,363.6363636363636L-525.5555555555555,363.6363636363636L-498.8888888888889,363.6363636363636L-472.22222222222223,363.6363636363636L-445.55555555555554,363.6363636363636L-418.8888888888889,363.6363636363636L-392.22222222222223,363.6363636363636L-365.55555555555554,363.6363636363636L-338.88888888888886,363.6363636363636L-312.22222222222223,363.6363636363636L-285.55555555555554,363.6363636363636L-258.8888888888889,363.6363636363636L-232.22222222222223,363.6363636363636L-205.55555555555554,363.6363636363636L-178.88888888888889,363.6363636363636L-152.22222222222223,363.6363636363636L-125.55555555555556,363.6363636363636L-98.88888888888889,363.6363636363636L-72.22222222222221,363.6363636363636L-45.55555555555556,363.6363636363636L-18.88888888888889,363.6363636363636L7.777777777777778,363.6363636363636L34.44444444444444,363.6363636363636L61.111111111111114,363.6363636363636L87.77777777777777,363.6363636363636L114.44444444444444,363.6363636363636L141.11111111111111,363.6363636363636L167.77777777777777,363.6363636363636L194.44444444444443,363.6363636363636L221.11111111111111,363.6363636363636L247.77777777777777,363.6363636363636L274.44444444444446,363.6363636363636L301.1111111111111,363.6363636363636L327.77777777777777,363.6363636363636L354.44444444444446,363.6363636363636L381.1111111111111,363.6363636363636L407.77777777777777,363.6363636363636" stroke="#f58518" stroke-width="2" opacity="1"></path></g></g><path class="foreground" aria-hidden="true" d="" display="none"></path></g><g transform="translate(0,0)"><path class="background" aria-hidden="true" d="M0,0h400v400h-400Z"></path><g><g class="mark-line role-mark concat_0_layer_1_marks" clip-path="url(#clip6)" role="graphics-object" aria-roledescription="line mark container"><path aria-label="Type: Confirmed; Date: Mar 01; Count: 0" role="graphics-symbol" aria-roledescription="line mark" d="M-2097.777777777778,338.1818181818182L-2071.1111111111113,339.2207792207792L-2045.5555555555557,336.6233766233766L-2018.888888888889,333.5064935064935L-1992.2222222222222,332.987012987013L-1965.5555555555554,327.7922077922078L-1938.888888888889,316.3636363636364L-1912.2222222222224,308.5714285714286L-1885.5555555555554,300.7792207792208L-1858.888888888889,300.2597402597403L-1832.2222222222222,285.19480519480516L-1805.5555555555557,277.9220779220779L-1778.8888888888887,245.71428571428572L-1752.2222222222222,220.7792207792208L-1725.5555555555557,198.96103896103895L-1698.8888888888887,157.4025974025974L-1672.2222222222222,151.68831168831173L-1645.5555555555557,141.2987012987013L-1618.888888888889,110.64935064935067L-1592.2222222222222,118.44155844155844L-1565.5555555555554,113.76623376623378L-1538.888888888889,109.09090909090908L-1512.2222222222222,128.83116883116884L-1485.5555555555557,104.93506493506497L-1458.888888888889,110.64935064935067L-1432.2222222222222,112.72727272727275L-1405.5555555555554,95.06493506493503L-1378.888888888889,117.40259740259744L-1352.2222222222222,127.79220779220779L-1325.5555555555557,121.55844155844156L-1298.888888888889,116.36363636363636L-1272.2222222222222,129.35064935064932L-1245.5555555555557,157.92207792207793L-1218.888888888889,192.72727272727272L-1192.2222222222222,202.07792207792207L-1165.5555555555554,222.33766233766232L-1138.888888888889,251.94805194805195L-1112.2222222222222,286.23376623376623L-1085.5555555555557,294.02597402597405L-1058.888888888889,305.97402597402595L-1032.2222222222222,316.3636363636364L-1005.5555555555555,322.5974025974026L-978.8888888888889,326.75324675324674L-952.2222222222222,327.27272727272725L-925.5555555555557,331.4285714285714L-898.8888888888889,333.5064935064935L-872.2222222222222,333.5064935064935L-845.5555555555555,337.6623376623376L-818.8888888888888,345.45454545454544L-792.2222222222223,348.05194805194805L-765.5555555555555,352.72727272727275L-738.8888888888889,353.76623376623377L-712.2222222222222,354.8051948051948L-685.5555555555555,357.4025974025974L-658.8888888888889,359.4805194805195L-632.2222222222222,358.961038961039L-605.5555555555555,359.4805194805195L-578.8888888888889,360L-552.2222222222222,360L-525.5555555555555,361.55844155844153L-498.8888888888889,362.5974025974026L-472.22222222222223,361.55844155844153L-445.55555555555554,362.0779220779221L-418.8888888888889,362.0779220779221L-392.22222222222223,362.5974025974026L-365.55555555555554,362.5974025974026L-338.88888888888886,362.5974025974026L-312.22222222222223,362.0779220779221L-285.55555555555554,363.1168831168831L-258.8888888888889,363.1168831168831L-232.22222222222223,363.1168831168831L-205.55555555555554,363.1168831168831L-178.88888888888889,363.1168831168831L-152.22222222222223,363.1168831168831L-125.55555555555556,363.1168831168831L-98.88888888888889,363.1168831168831L-72.22222222222221,363.1168831168831L-45.55555555555556,362.5974025974026L-18.88888888888889,362.5974025974026L7.777777777777778,362.5974025974026L34.44444444444444,362.5974025974026L61.111111111111114,362.5974025974026L87.77777777777777,362.5974025974026L114.44444444444444,362.5974025974026L141.11111111111111,362.5974025974026L167.77777777777777,362.5974025974026L194.44444444444443,362.5974025974026L221.11111111111111,362.5974025974026L247.77777777777777,363.1168831168831L274.44444444444446,363.1168831168831L301.1111111111111,363.1168831168831L327.77777777777777,363.6363636363636L354.44444444444446,363.1168831168831L381.1111111111111,363.1168831168831L407.77777777777777,363.1168831168831" stroke="#4c78a8" stroke-width="2" opacity="1"></path></g></g><path class="foreground" aria-hidden="true" d="" display="none"></path></g></g><g class="mark-group role-title"><g transform="translate(200,-54)"><path class="background" aria-hidden="true" d="M0,0h0v0h0Z" pointer-events="none"></path><g><g class="mark-text role-title-text" role="graphics-symbol" aria-roledescription="title" aria-label="Title text '7-day average (light color: daily values) [2020-06-09]'" pointer-events="none"><text text-anchor="middle" transform="translate(0,10)" font-family="Roboto Condensed" font-size="13px" font-weight="normal" fill="#000" opacity="1"><tspan>7-day average (light color: daily values)</tspan><tspan x="0" dy="15">[2020-06-09]</tspan></text></g></g><path class="foreground" aria-hidden="true" d="" pointer-events="none" display="none"></path></g></g></g><path class="foreground" aria-hidden="true" d="" display="none"></path></g></g><g class="mark-group role-scope concat_1_group" role="graphics-object" aria-roledescription="group mark container"><g transform="translate(465,0)"><path class="background" aria-hidden="true" d="M0,0h400v400h-400Z" stroke="#ddd" stroke-width="0"></path><g><g class="mark-group role-axis" aria-hidden="true"><g transform="translate(0.5,0.5)"><path class="background" aria-hidden="true" d="M0,0h0v0h0Z" pointer-events="none"></path><g><g class="mark-rule role-axis-grid" pointer-events="none"><line transform="translate(0,400)" x2="400" y2="0" stroke="#ddd" stroke-width="1" opacity="1"></line><line transform="translate(0,360)" x2="400" y2="0" stroke="#ddd" stroke-width="1" opacity="1"></line><line transform="translate(0,320)" x2="400" y2="0" stroke="#ddd" stroke-width="1" opacity="1"></line><line transform="translate(0,280)" x2="400" y2="0" stroke="#ddd" stroke-width="1" opacity="1"></line><line transform="translate(0,240)" x2="400" y2="0" stroke="#ddd" stroke-width="1" opacity="1"></line><line transform="translate(0,200)" x2="400" y2="0" stroke="#ddd" stroke-width="1" opacity="1"></line><line transform="translate(0,160)" x2="400" y2="0" stroke="#ddd" stroke-width="1" opacity="1"></line><line transform="translate(0,120)" x2="400" y2="0" stroke="#ddd" stroke-width="1" opacity="1"></line><line transform="translate(0,80)" x2="400" y2="0" stroke="#ddd" stroke-width="1" opacity="1"></line><line transform="translate(0,40)" x2="400" y2="0" stroke="#ddd" stroke-width="1" opacity="1"></line><line transform="translate(0,0)" x2="400" y2="0" stroke="#ddd" stroke-width="1" opacity="1"></line></g></g><path class="foreground" aria-hidden="true" d="" pointer-events="none" display="none"></path></g></g><g class="mark-group role-axis" role="graphics-symbol" aria-roledescription="axis" aria-label="X-axis titled 'Date' for a time scale with values from May 24 to June 08"><g transform="translate(0.5,400.5)"><path class="background" aria-hidden="true" d="M0,0h0v0h0Z" pointer-events="none"></path><g><g class="mark-text role-axis-label" pointer-events="none"><text text-anchor="middle" transform="translate(7.777777777777778,10)" font-family="Roboto Condensed" font-size="10px" fill="#000" opacity="1">May 25</text><text text-anchor="middle" transform="translate(61.111111111111114,10)" font-family="Roboto Condensed" font-size="10px" fill="#000" opacity="0">May 27</text><text text-anchor="middle" transform="translate(114.44444444444444,10)" font-family="Roboto Condensed" font-size="10px" fill="#000" opacity="1">May 29</text><text text-anchor="middle" transform="translate(167.77777777777777,10)" font-family="Roboto Condensed" font-size="10px" fill="#000" opacity="0">May 31</text><text text-anchor="middle" transform="translate(194.44444444444443,10)" font-family="Roboto Condensed" font-size="10px" fill="#000" opacity="1">Jun 01</text><text text-anchor="middle" transform="translate(247.77777777777777,10)" font-family="Roboto Condensed" font-size="10px" fill="#000" opacity="0">Jun 03</text><text text-anchor="middle" transform="translate(301.1111111111111,10)" font-family="Roboto Condensed" font-size="10px" fill="#000" opacity="1">Jun 05</text><text text-anchor="middle" transform="translate(354.44444444444446,10)" font-family="Roboto Condensed" font-size="10px" fill="#000" opacity="0">Jun 07</text></g><g class="mark-rule role-axis-domain" pointer-events="none"><line transform="translate(0,0)" x2="400" y2="0" stroke="lightgray" stroke-width="1" opacity="1"></line></g><g class="mark-text role-axis-title" pointer-events="none"><text text-anchor="middle" transform="translate(200,25)" font-family="Roboto Condensed" font-size="11px" font-weight="normal" fill="#000" opacity="1">Date</text></g></g><path class="foreground" aria-hidden="true" d="" pointer-events="none" display="none"></path></g></g><g class="mark-group role-axis" role="graphics-symbol" aria-roledescription="axis" aria-label="Y-axis titled 'Count' for a linear scale with values from 0 to 2,000"><g transform="translate(0.5,0.5)"><path class="background" aria-hidden="true" d="M0,0h0v0h0Z" pointer-events="none"></path><g><g class="mark-text role-axis-label" pointer-events="none"><text text-anchor="end" transform="translate(-2,403)" font-family="Roboto Condensed" font-size="10px" fill="#000" opacity="1">0</text><text text-anchor="end" transform="translate(-2,363)" font-family="Roboto Condensed" font-size="10px" fill="#000" opacity="1">200</text><text text-anchor="end" transform="translate(-2,323)" font-family="Roboto Condensed" font-size="10px" fill="#000" opacity="1">400</text><text text-anchor="end" transform="translate(-2,283)" font-family="Roboto Condensed" font-size="10px" fill="#000" opacity="1">600</text><text text-anchor="end" transform="translate(-2,243)" font-family="Roboto Condensed" font-size="10px" fill="#000" opacity="1">800</text><text text-anchor="end" transform="translate(-2,203)" font-family="Roboto Condensed" font-size="10px" fill="#000" opacity="1">1,000</text><text text-anchor="end" transform="translate(-2,163)" font-family="Roboto Condensed" font-size="10px" fill="#000" opacity="1">1,200</text><text text-anchor="end" transform="translate(-2,123.00000000000001)" font-family="Roboto Condensed" font-size="10px" fill="#000" opacity="1">1,400</text><text text-anchor="end" transform="translate(-2,82.99999999999999)" font-family="Roboto Condensed" font-size="10px" fill="#000" opacity="1">1,600</text><text text-anchor="end" transform="translate(-2,42.99999999999999)" font-family="Roboto Condensed" font-size="10px" fill="#000" opacity="1">1,800</text><text text-anchor="end" transform="translate(-2,3)" font-family="Roboto Condensed" font-size="10px" fill="#000" opacity="1">2,000</text></g><g class="mark-rule role-axis-domain" pointer-events="none"><line transform="translate(0,400)" x2="0" y2="-400" stroke="lightgray" stroke-width="1" opacity="1"></line></g><g class="mark-text role-axis-title" pointer-events="none"><text text-anchor="start" transform="translate(-45,-13)" font-family="Roboto Condensed" font-size="11px" font-weight="normal" fill="#000" opacity="1">Count</text></g></g><path class="foreground" aria-hidden="true" d="" pointer-events="none" display="none"></path></g></g><g class="mark-group role-scope concat_1_pathgroup" role="graphics-object" aria-roledescription="group mark container"><g transform="translate(0,0)"><path class="background" aria-hidden="true" d="M0,0h400v400h-400Z"></path><g><g class="mark-line role-mark concat_1_marks" clip-path="url(#clip7)" role="graphics-object" aria-roledescription="line mark container"><path aria-label="Type: Recovered; Date: Mar 01; Country: Iceland; Confirmed: 3; Recovered: 0; Deaths: 0; Count: 0" role="graphics-symbol" aria-roledescription="line mark" d="M-2257.777777777778,400L-2231.111111111111,400L-2204.4444444444443,400L-2177.777777777778,400L-2151.1111111111113,400L-2124.4444444444443,400L-2097.777777777778,400L-2071.1111111111113,400L-2045.5555555555557,400L-2018.888888888889,399.8L-1992.2222222222222,399.8L-1965.5555555555554,399.8L-1938.888888888889,399.8L-1912.2222222222224,399.8L-1885.5555555555554,398.4L-1858.888888888889,400L-1832.2222222222222,400L-1805.5555555555557,399L-1778.8888888888887,399L-1752.2222222222222,399L-1725.5555555555557,395.6L-1698.8888888888887,392.8L-1672.2222222222222,392.8L-1645.5555555555557,389.8L-1618.888888888889,388.8L-1592.2222222222222,383.59999999999997L-1565.5555555555554,380.6L-1538.888888888889,377.2L-1512.2222222222222,373L-1485.5555555555557,368.6L-1458.888888888889,360.40000000000003L-1432.2222222222222,355L-1405.5555555555554,343.2L-1378.888888888889,338.2L-1352.2222222222222,320.8L-1325.5555555555557,314.40000000000003L-1298.888888888889,308L-1272.2222222222222,288.2L-1245.5555555555557,273.4L-1218.888888888889,262.40000000000003L-1192.2222222222222,249.8L-1165.5555555555554,231.8L-1138.888888888889,222.2L-1112.2222222222222,213.39999999999998L-1085.5555555555557,202.20000000000002L-1058.888888888889,184.60000000000002L-1032.2222222222222,171.20000000000002L-1005.5555555555555,155.20000000000002L-978.8888888888889,141.8L-952.2222222222222,141.8L-925.5555555555557,127.59999999999998L-898.8888888888889,116.6L-872.2222222222222,107.60000000000001L-845.5555555555555,98.20000000000002L-818.8888888888888,91.6L-792.2222222222223,85.99999999999999L-765.5555555555555,78.39999999999998L-738.8888888888889,75.19999999999997L-712.2222222222222,72.80000000000003L-685.5555555555555,68.80000000000001L-658.8888888888889,66.00000000000001L-632.2222222222222,62.19999999999999L-605.5555555555555,58.80000000000001L-578.8888888888889,56.59999999999998L-552.2222222222222,55.399999999999984L-525.5555555555555,53.39999999999998L-498.8888888888889,50L-472.22222222222223,49.00000000000002L-445.55555555555554,47.00000000000002L-418.8888888888889,45.40000000000002L-392.22222222222223,45.40000000000002L-365.55555555555554,45.40000000000002L-338.88888888888886,44.8L-312.22222222222223,43.99999999999999L-285.55555555555554,43.99999999999999L-258.8888888888889,43.599999999999994L-232.22222222222223,42.8L-205.55555555555554,42.8L-178.88888888888889,42.8L-152.22222222222223,42.20000000000002L-125.55555555555556,42.20000000000002L-98.88888888888889,41.99999999999999L-72.22222222222221,41.80000000000001L-45.55555555555556,41.80000000000001L-18.88888888888889,41.80000000000001L7.777777777777778,41.80000000000001L34.44444444444444,41.599999999999994L61.111111111111114,41.599999999999994L87.77777777777777,41.599999999999994L114.44444444444444,41.19999999999999L141.11111111111111,41.19999999999999L167.77777777777777,41.19999999999999L194.44444444444443,41.19999999999999L221.11111111111111,41.19999999999999L247.77777777777777,41.19999999999999L274.44444444444446,41.19999999999999L301.1111111111111,41.19999999999999L327.77777777777777,41.19999999999999L354.44444444444446,41.19999999999999L381.1111111111111,41.19999999999999L407.77777777777777,41.19999999999999" stroke="#e45756" stroke-width="2" opacity="0.7"></path></g></g><path class="foreground" aria-hidden="true" d="" display="none"></path></g><g transform="translate(0,0)"><path class="background" aria-hidden="true" d="M0,0h400v400h-400Z"></path><g><g class="mark-line role-mark concat_1_marks" clip-path="url(#clip8)" role="graphics-object" aria-roledescription="line mark container"><path aria-label="Type: Deaths; Date: Mar 01; Country: Iceland; Confirmed: 3; Recovered: 0; Deaths: 0; Count: 0" role="graphics-symbol" aria-roledescription="line mark" d="M-2257.777777777778,400L-2231.111111111111,400L-2204.4444444444443,400L-2177.777777777778,400L-2151.1111111111113,400L-2124.4444444444443,400L-2097.777777777778,400L-2071.1111111111113,400L-2045.5555555555557,400L-2018.888888888889,400L-1992.2222222222222,400L-1965.5555555555554,400L-1938.888888888889,400L-1912.2222222222224,400L-1885.5555555555554,399L-1858.888888888889,400L-1832.2222222222222,399.8L-1805.5555555555557,399.8L-1778.8888888888887,399.8L-1752.2222222222222,400L-1725.5555555555557,399.8L-1698.8888888888887,399.8L-1672.2222222222222,399.8L-1645.5555555555557,399.6L-1618.888888888889,399.6L-1592.2222222222222,399.6L-1565.5555555555554,399.6L-1538.888888888889,399.6L-1512.2222222222222,399.6L-1485.5555555555557,399.6L-1458.888888888889,399.6L-1432.2222222222222,399.6L-1405.5555555555554,399.2L-1378.888888888889,399.2L-1352.2222222222222,399.2L-1325.5555555555557,399.2L-1298.888888888889,398.8L-1272.2222222222222,398.8L-1245.5555555555557,398.8L-1218.888888888889,398.8L-1192.2222222222222,398.6L-1165.5555555555554,398.4L-1138.888888888889,398.4L-1112.2222222222222,398.4L-1085.5555555555557,398.4L-1058.888888888889,398.4L-1032.2222222222222,398.4L-1005.5555555555555,398.20000000000005L-978.8888888888889,398.20000000000005L-952.2222222222222,398.20000000000005L-925.5555555555557,398L-898.8888888888889,398L-872.2222222222222,398L-845.5555555555555,398L-818.8888888888888,398L-792.2222222222223,398L-765.5555555555555,398L-738.8888888888889,398L-712.2222222222222,398L-685.5555555555555,398L-658.8888888888889,398L-632.2222222222222,398L-605.5555555555555,398L-578.8888888888889,398L-552.2222222222222,398L-525.5555555555555,398L-498.8888888888889,398L-472.22222222222223,398L-445.55555555555554,398L-418.8888888888889,398L-392.22222222222223,398L-365.55555555555554,398L-338.88888888888886,398L-312.22222222222223,398L-285.55555555555554,398L-258.8888888888889,398L-232.22222222222223,398L-205.55555555555554,398L-178.88888888888889,398L-152.22222222222223,398L-125.55555555555556,398L-98.88888888888889,398L-72.22222222222221,398L-45.55555555555556,398L-18.88888888888889,398L7.777777777777778,398L34.44444444444444,398L61.111111111111114,398L87.77777777777777,398L114.44444444444444,398L141.11111111111111,398L167.77777777777777,398L194.44444444444443,398L221.11111111111111,398L247.77777777777777,398L274.44444444444446,398L301.1111111111111,398L327.77777777777777,398L354.44444444444446,398L381.1111111111111,398L407.77777777777777,398" stroke="#f58518" stroke-width="2" opacity="0.7"></path></g></g><path class="foreground" aria-hidden="true" d="" display="none"></path></g><g transform="translate(0,0)"><path class="background" aria-hidden="true" d="M0,0h400v400h-400Z"></path><g><g class="mark-line role-mark concat_1_marks" clip-path="url(#clip9)" role="graphics-object" aria-roledescription="line mark container"><path aria-label="Type: Confirmed; Date: Mar 01; Country: Iceland; Confirmed: 3; Recovered: 0; Deaths: 0; Count: 3" role="graphics-symbol" aria-roledescription="line mark" d="M-2257.777777777778,399.40000000000003L-2231.111111111111,398.8L-2204.4444444444443,397.8L-2177.777777777778,394.8L-2151.1111111111113,393.2L-2124.4444444444443,391.40000000000003L-2097.777777777778,390L-2071.1111111111113,390L-2045.5555555555557,388.4L-2018.888888888889,386.2L-1992.2222222222222,383L-1965.5555555555554,379.4L-1938.888888888889,373.20000000000005L-1912.2222222222224,368.8L-1885.5555555555554,365.8L-1858.888888888889,364L-1832.2222222222222,356L-1805.5555555555557,350L-1778.8888888888887,334L-1752.2222222222222,318.2L-1725.5555555555557,305.40000000000003L-1698.8888888888887,286.4L-1672.2222222222222,282.4L-1645.5555555555557,270.4L-1618.888888888889,252.59999999999997L-1592.2222222222222,239.6L-1565.5555555555554,221.99999999999997L-1538.888888888889,207.39999999999998L-1512.2222222222222,196L-1485.5555555555557,182.79999999999998L-1458.888888888889,173L-1432.2222222222222,156L-1405.5555555555554,136.20000000000002L-1378.888888888889,127.19999999999997L-1352.2222222222222,116.6L-1325.5555555555557,102.8L-1298.888888888889,87.6L-1272.2222222222222,82.79999999999998L-1245.5555555555557,76.79999999999998L-1218.888888888889,70.40000000000002L-1192.2222222222222,64.99999999999999L-1165.5555555555554,62.19999999999999L-1138.888888888889,59.79999999999998L-1112.2222222222222,57.79999999999998L-1085.5555555555557,56.00000000000001L-1058.888888888889,54.59999999999998L-1032.2222222222222,52.19999999999998L-1005.5555555555555,49.2L-978.8888888888889,48L-952.2222222222222,45.80000000000002L-925.5555555555557,45.40000000000002L-898.8888888888889,44.39999999999999L-872.2222222222222,43.000000000000014L-845.5555555555555,42.20000000000002L-818.8888888888888,42.20000000000002L-792.2222222222223,41.99999999999999L-765.5555555555555,41.599999999999994L-738.8888888888889,41.599999999999994L-712.2222222222222,41.000000000000014L-685.5555555555555,40.600000000000016L-658.8888888888889,40.600000000000016L-632.2222222222222,40.39999999999999L-605.5555555555555,40.39999999999999L-578.8888888888889,40.20000000000002L-552.2222222222222,40.20000000000002L-525.5555555555555,40.20000000000002L-498.8888888888889,40.20000000000002L-472.22222222222223,39.80000000000001L-445.55555555555554,39.80000000000001L-418.8888888888889,39.80000000000001L-392.22222222222223,39.80000000000001L-365.55555555555554,39.80000000000001L-338.88888888888886,39.80000000000001L-312.22222222222223,39.599999999999994L-285.55555555555554,39.599999999999994L-258.8888888888889,39.599999999999994L-232.22222222222223,39.599999999999994L-205.55555555555554,39.599999999999994L-178.88888888888889,39.599999999999994L-152.22222222222223,39.599999999999994L-125.55555555555556,39.40000000000001L-98.88888888888889,39.40000000000001L-72.22222222222221,39.40000000000001L-45.55555555555556,39.19999999999999L-18.88888888888889,39.19999999999999L7.777777777777778,39.19999999999999L34.44444444444444,39.19999999999999L61.111111111111114,39.000000000000014L87.77777777777777,39.000000000000014L114.44444444444444,39.000000000000014L141.11111111111111,38.79999999999999L167.77777777777777,38.79999999999999L194.44444444444443,38.79999999999999L221.11111111111111,38.79999999999999L247.77777777777777,38.79999999999999L274.44444444444446,38.79999999999999L301.1111111111111,38.79999999999999L327.77777777777777,38.79999999999999L354.44444444444446,38.60000000000001L381.1111111111111,38.60000000000001L407.77777777777777,38.60000000000001" stroke="#4c78a8" stroke-width="2" opacity="0.7"></path></g></g><path class="foreground" aria-hidden="true" d="" display="none"></path></g></g><g class="mark-group role-title"><g transform="translate(200,-54)"><path class="background" aria-hidden="true" d="M0,0h0v0h0Z" pointer-events="none"></path><g><g class="mark-text role-title-text" role="graphics-symbol" aria-roledescription="title" aria-label="Title text 'Total [2020-06-09]'" pointer-events="none"><text text-anchor="middle" transform="translate(0,10)" font-family="Roboto Condensed" font-size="13px" font-weight="normal" fill="#000" opacity="1"><tspan>Total</tspan><tspan x="0" dy="15">[2020-06-09]</tspan></text></g></g><path class="foreground" aria-hidden="true" d="" pointer-events="none" display="none"></path></g></g></g><path class="foreground" aria-hidden="true" d="" display="none"></path></g></g><g class="mark-group role-legend" role="graphics-symbol" aria-roledescription="legend" aria-label="Symbol legend for stroke color with 3 values: Confirmed, Deaths, Recovered"><g transform="translate(883,0)"><path class="background" aria-hidden="true" d="M0,0h58v37h-58Z" pointer-events="none"></path><g><g class="mark-group role-legend-entry"><g transform="translate(0,0)"><path class="background" aria-hidden="true" d="M0,0h0v0h0Z" pointer-events="none"></path><g><g class="mark-group role-scope" role="graphics-object" aria-roledescription="group mark container"><g transform="translate(0,0)"><path class="background" aria-hidden="true" d="M0,0h58v11h-58Z" pointer-events="none" opacity="1"></path><g><g class="mark-symbol role-legend-symbol" pointer-events="none"><path transform="translate(6,6)" d="M-5,0L5,0" stroke="#4c78a8" stroke-width="1.5" opacity="0.2"></path></g><g class="mark-text role-legend-label" pointer-events="none"><text text-anchor="start" transform="translate(16,9)" font-family="Roboto Condensed" font-size="10px" fill="#000" opacity="1">Confirmed</text></g></g><path class="foreground" aria-hidden="true" d="" pointer-events="none" display="none"></path></g><g transform="translate(0,13)"><path class="background" aria-hidden="true" d="M0,0h58v11h-58Z" pointer-events="none" opacity="1"></path><g><g class="mark-symbol role-legend-symbol" pointer-events="none"><path transform="translate(6,6)" d="M-5,0L5,0" stroke="#f58518" stroke-width="1.5" opacity="0.2"></path></g><g class="mark-text role-legend-label" pointer-events="none"><text text-anchor="start" transform="translate(16,9)" font-family="Roboto Condensed" font-size="10px" fill="#000" opacity="1">Deaths</text></g></g><path class="foreground" aria-hidden="true" d="" pointer-events="none" display="none"></path></g><g transform="translate(0,26)"><path class="background" aria-hidden="true" d="M0,0h58v11h-58Z" pointer-events="none" opacity="1"></path><g><g class="mark-symbol role-legend-symbol" pointer-events="none"><path transform="translate(6,6)" d="M-5,0L5,0" stroke="#e45756" stroke-width="1.5" opacity="0.2"></path></g><g class="mark-text role-legend-label" pointer-events="none"><text text-anchor="start" transform="translate(16,9)" font-family="Roboto Condensed" font-size="10px" fill="#000" opacity="1">Recovered</text></g></g><path class="foreground" aria-hidden="true" d="" pointer-events="none" display="none"></path></g></g></g><path class="foreground" aria-hidden="true" d="" pointer-events="none" display="none"></path></g></g></g><path class="foreground" aria-hidden="true" d="" pointer-events="none" display="none"></path></g></g></g><path class="foreground" aria-hidden="true" d="" display="none"></path></g></g></g></svg>