<svg class="marks" width="996" height="491" viewBox="0 0 996 491" version="1.1" xmlns="http://www.w3.org/2000/svg" xmlns:xlink="http://www.w3.org/1999/xlink"><defs><clipPath id="clip1"><rect x="0" y="0" width="400" height="400"></rect></clipPath><clipPath id="clip2"><rect x="0" y="0" width="400" height="400"></rect></clipPath><clipPath id="clip3"><rect x="0" y="0" width="400" height="400"></rect></clipPath><clipPath id="clip4"><rect x="0" y="0" width="400" height="400"></rect></clipPath><clipPath id="clip5"><rect x="0" y="0" width="400" height="400"></rect></clipPath><clipPath id="clip6"><rect x="0" y="0" width="400" height="400"></rect></clipPath><clipPath id="clip7"><rect x="0" y="0" width="400" height="400"></rect></clipPath><clipPath id="clip8"><rect x="0" y="0" width="400" height="400"></rect></clipPath><clipPath id="clip9"><rect x="0" y="0" width="400" height="400"></rect></clipPath></defs><rect width="996" height="491" fill="white"></rect><g fill="none" stroke-miterlimit="10" transform="translate(50,59)"><g class="mark-group role-frame root" role="graphics-object" aria-roledescription="group mark container"><g transform="translate(0,0)"><path class="background" aria-hidden="true" d="M0,0h0v400h0Z"></path><g><g class="mark-group role-scope concat_0_group" role="graphics-object" aria-roledescription="group mark container"><g transform="translate(0,0)"><path class="background" aria-hidden="true" d="M0,0h400v400h-400Z" stroke="#ddd" stroke-width="0"></path><g><g class="mark-group role-axis" aria-hidden="true"><g transform="translate(0.5,0.5)"><path class="background" aria-hidden="true" d="M0,0h0v0h0Z" pointer-events="none"></path><g><g class="mark-rule role-axis-grid" pointer-events="none"><line transform="translate(0,400)" x2="400" y2="0" stroke="#ddd" stroke-width="1" opacity="1"></line><line transform="translate(0,367)" x2="400" y2="0" stroke="#ddd" stroke-width="1" opacity="1"></line><line transform="translate(0,333)" x2="400" y2="0" stroke="#ddd" stroke-width="1" opacity="1"></line><line transform="translate(0,300)" x2="400" y2="0" stroke="#ddd" stroke-width="1" opacity="1"></line><line transform="translate(0,267)" x2="400" y2="0" stroke="#ddd" stroke-width="1" opacity="1"></line><line transform="translate(0,233)" x2="400" y2="0" stroke="#ddd" stroke-width="1" opacity="1"></line><line transform="translate(0,200)" x2="400" y2="0" stroke="#ddd" stroke-width="1" opacity="1"></line><line transform="translate(0,167)" x2="400" y2="0" stroke="#ddd" stroke-width="1" opacity="1"></line><line transform="translate(0,133)" x2="400" y2="0" stroke="#ddd" stroke-width="1" opacity="1"></line><line transform="translate(0,100)" x2="400" y2="0" stroke="#ddd" stroke-width="1" opacity="1"></line><line transform="translate(0,67)" x2="400" y2="0" stroke="#ddd" stroke-width="1" opacity="1"></line><line transform="translate(0,33)" x2="400" y2="0" stroke="#ddd" stroke-width="1" opacity="1"></line><line transform="translate(0,0)" x2="400" y2="0" stroke="#ddd" stroke-width="1" opacity="1"></line></g></g><path class="foreground" aria-hidden="true" d="" pointer-events="none" display="none"></path></g></g><g class="mark-group role-axis" role="graphics-symbol" aria-roledescription="axis" aria-label="X-axis titled 'Date' for a time scale with values from May 24 to June 08"><g transform="translate(0.5,400.5)"><path class="background" aria-hidden="true" d="M0,0h0v0h0Z" pointer-events="none"></path><g><g class="mark-text role-axis-label" pointer-events="none"><text text-anchor="middle" transform="translate(7.777777777777778,10)" font-family="Roboto Condensed" font-size="10px" fill="#000" opacity="1">May 25</text><text text-anchor="middle" transform="translate(61.111111111111114,10)" font-family="Roboto Condensed" font-size="10px" fill="#000" opacity="0">May 27</text><text text-anchor="middle" transform="translate(114.44444444444444,10)" font-family="Roboto Condensed" font-size="10px" fill="#000" opacity="1">May 29</text><text text-anchor="middle" transform="translate(167.77777777777777,10)" font-family="Roboto Condensed" font-size="10px" fill="#000" opacity="0">May 31</text><text text-anchor="middle" transform="translate(194.44444444444443,10)" font-family="Roboto Condensed" font-size="10px" fill="#000" opacity="1">Jun 01</text><text text-anchor="middle" transform="translate(247.77777777777777,10)" font-family="Roboto Condensed" font-size="10px" fill="#000" opacity="0">Jun 03</text><text text-anchor="middle" transform="translate(301.1111111111111,10)" font-family="Roboto Condensed" font-size="10px" fill="#000" opacity="1">Jun 05</text><text text-anchor="middle" transform="translate(354.44444444444446,10)" font-family="Roboto Condensed" font-size="10px" fill="#000" opacity="0">Jun 07</text></g><g class="mark-rule role-axis-domain" pointer-events="none"><line transform="translate(0,0)" x2="400" y2="0" stroke="lightgray" stroke-width="1" opacity="1"></line></g><g class="mark-text role-axis-title" pointer-events="none"><text text-anchor="middle" transform="translate(200,25)" font-family="Roboto Condensed" font-size="11px" font-weight="normal" fill="#000" opacity="1">Date</text></g></g><path class="foreground" aria-hidden="true" d="" pointer-events="none" display="none"></path></g></g><g class="mark-group role-axis" role="graphics-symbol" aria-roledescription="axis" aria-label="Y-axis titled 'Count' for a linear scale with values from 0 to 2,400"><g transform="translate(0.5,0.5)"><path class="background" aria-hidden="true" d="M0,0h0v0h0Z" pointer-events="none"></path><g><g class="mark-text role-axis-label" pointer-events="none"><text text-anchor="end" transform="translate(-2,403)" font-family="Roboto Condensed" font-size="10px" fill="#000" opacity="1">0</text><text text-anchor="end" transform="translate(-2,369.66666666666663)" font-family="Roboto Condensed" font-size="10px" fill="#000" opacity="1">200</text><text text-anchor="end" transform="translate(-2,336.33333333333337)" font-family="Roboto Condensed" font-size="10px" fill="#000" opacity="1">400</text><text text-anchor="end" transform="translate(-2,303)" font-family="Roboto Condensed" font-size="10px" fill="#000" opacity="1">600</text><text text-anchor="end" transform="translate(-2,269.6666666666667)" font-family="Roboto Condensed" font-size="10px" fill="#000" opacity="1">800</text><text text-anchor="end" transform="translate(-2,236.33333333333331)" font-family="Roboto Condensed" font-size="10px" fill="#000" opacity="1">1,000</text><text text-anchor="end" transform="translate(-2,203)" font-family="Roboto Condensed" font-size="10px" fill="#000" opacity="1">1,200</text><text text-anchor="end" transform="translate(-2,169.66666666666666)" font-family="Roboto Condensed" font-size="10px" fill="#000" opacity="1">1,400</text><text text-anchor="end" transform="translate(-2,136.33333333333334)" font-family="Roboto Condensed" font-size="10px" fill="#000" opacity="1">1,600</text><text text-anchor="end" transform="translate(-2,103)" font-family="Roboto Condensed" font-size="10px" fill="#000" opacity="1">1,800</text><text text-anchor="end" transform="translate(-2,69.66666666666666)" font-family="Roboto Condensed" font-size="10px" fill="#000" opacity="1">2,000</text><text text-anchor="end" transform="translate(-2,36.33333333333335)" font-family="Roboto Condensed" font-size="10px" fill="#000" opacity="1">2,200</text><text text-anchor="end" transform="translate(-2,3)" font-family="Roboto Condensed" font-size="10px" fill="#000" opacity="1">2,400</text></g><g class="mark-rule role-axis-domain" pointer-events="none"><line transform="translate(0,400)" x2="0" y2="-400" stroke="lightgray" stroke-width="1" opacity="1"></line></g><g class="mark-text role-axis-title" pointer-events="none"><text text-anchor="start" transform="translate(-45,-13)" font-family="Roboto Condensed" font-size="11px" font-weight="normal" fill="#000" opacity="1">Count</text></g></g><path class="foreground" aria-hidden="true" d="" pointer-events="none" display="none"></path></g></g><g class="mark-group role-scope concat_0_layer_0_pathgroup" role="graphics-object" aria-roledescription="group mark container"><g transform="translate(0,0)"><path class="background" aria-hidden="true" d="M0,0h400v400h-400Z"></path><g><g class="mark-line role-mark concat_0_layer_0_marks" clip-path="url(#clip1)" role="graphics-object" aria-roledescription="line mark container"><path aria-label="Type: Recovered; Date: Mar 01; Count: 0" role="graphics-symbol" aria-roledescription="line mark" d="M-2257.777777777778,400L-2231.111111111111,400L-2204.4444444444443,400L-2177.777777777778,400L-2151.1111111111113,400L-2124.4444444444443,400L-2097.777777777778,400L-2071.1111111111113,400L-2045.5555555555557,400L-2018.888888888889,400L-1992.2222222222222,400L-1965.5555555555554,400L-1938.888888888889,400L-1912.2222222222224,400L-1885.5555555555554,400L-1858.888888888889,400L-1832.2222222222222,400L-1805.5555555555557,400L-1778.8888888888887,400L-1752.2222222222222,400L-1725.5555555555557,400L-1698.8888888888887,400L-1672.2222222222222,400L-1645.5555555555557,400L-1618.888888888889,400L-1592.2222222222222,400L-1565.5555555555554,400L-1538.888888888889,400L-1512.2222222222222,400L-1485.5555555555557,400L-1458.888888888889,400L-1432.2222222222222,400L-1405.5555555555554,400L-1378.888888888889,400L-1352.2222222222222,400L-1325.5555555555557,400L-1298.888888888889,400L-1272.2222222222222,400L-1245.5555555555557,400L-1218.888888888889,400L-1192.2222222222222,400L-1165.5555555555554,400L-1138.888888888889,400L-1112.2222222222222,400L-1085.5555555555557,400L-1058.888888888889,400L-1032.2222222222222,400L-1005.5555555555555,400L-978.8888888888889,400L-952.2222222222222,400L-925.5555555555557,400L-898.8888888888889,400L-872.2222222222222,400L-845.5555555555555,400L-818.8888888888888,400L-792.2222222222223,400L-765.5555555555555,400L-738.8888888888889,400L-712.2222222222222,400L-685.5555555555555,400L-658.8888888888889,400L-632.2222222222222,400L-605.5555555555555,400L-578.8888888888889,400L-552.2222222222222,400L-525.5555555555555,400L-498.8888888888889,400L-472.22222222222223,400L-445.55555555555554,400L-418.8888888888889,400L-392.22222222222223,400L-365.55555555555554,400L-338.88888888888886,400L-312.22222222222223,400L-285.55555555555554,400L-258.8888888888889,400L-232.22222222222223,400L-205.55555555555554,400L-178.88888888888889,400L-152.22222222222223,400L-125.55555555555556,400L-98.88888888888889,400L-72.22222222222221,400L-45.55555555555556,400L-18.88888888888889,400L7.777777777777778,400L34.44444444444444,400L61.111111111111114,400L87.77777777777777,400L114.44444444444444,400L141.11111111111111,400L167.77777777777777,400L194.44444444444443,400L221.11111111111111,400L247.77777777777777,400L274.44444444444446,400L301.1111111111111,400L327.77777777777777,400L354.44444444444446,400L381.1111111111111,400L407.77777777777777,400" stroke="#e45756" stroke-width="2" opacity="0.2"></path></g></g><path class="foreground" aria-hidden="true" d="" display="none"></path></g><g transform="translate(0,0)"><path class="background" aria-hidden="true" d="M0,0h400v400h-400Z"></path><g><g class="mark-line role-mark concat_0_layer_0_marks" clip-path="url(#clip2)" role="graphics-object" aria-roledescription="line mark container"><path aria-label="Type: Deaths; Date: Mar 01; Count: 0" role="graphics-symbol" aria-roledescription="line mark" d="M-2257.777777777778,400L-2231.111111111111,400L-2204.4444444444443,400L-2177.777777777778,400L-2151.1111111111113,400L-2124.4444444444443,400L-2097.777777777778,400L-2071.1111111111113,400L-2045.5555555555557,400L-2018.888888888889,400L-1992.2222222222222,399.83333333333337L-1965.5555555555554,400L-1938.888888888889,400L-1912.2222222222224,399.83333333333337L-1885.5555555555554,399.83333333333337L-1858.888888888889,399.5L-1832.2222222222222,399.83333333333337L-1805.5555555555557,399.5L-1778.8888888888887,399.83333333333337L-1752.2222222222222,399.1666666666667L-1725.5555555555557,399.3333333333333L-1698.8888888888887,399.83333333333337L-1672.2222222222222,399.3333333333333L-1645.5555555555557,398.16666666666663L-1618.888888888889,395.66666666666663L-1592.2222222222222,397.5L-1565.5555555555554,395.3333333333333L-1538.888888888889,400L-1512.2222222222222,399.1666666666667L-1485.5555555555557,394L-1458.888888888889,394.3333333333333L-1432.2222222222222,390.1666666666667L-1405.5555555555554,388.5L-1378.888888888889,391.66666666666663L-1352.2222222222222,397.5L-1325.5555555555557,395.3333333333333L-1298.888888888889,387.33333333333337L-1272.2222222222222,381L-1245.5555555555557,384L-1218.888888888889,382.3333333333333L-1192.2222222222222,387.1666666666667L-1165.5555555555554,397.1666666666667L-1138.888888888889,398L-1112.2222222222222,396.6666666666667L-1085.5555555555557,381L-1058.888888888889,371.6666666666667L-1032.2222222222222,378.3333333333333L-1005.5555555555555,388.8333333333333L-978.8888888888889,381.5L-952.2222222222222,395.1666666666667L-925.5555555555557,393.3333333333333L-898.8888888888889,369.16666666666663L-872.2222222222222,371.3333333333333L-845.5555555555555,386L-818.8888888888888,378.1666666666667L-792.2222222222223,393.3333333333333L-765.5555555555555,399.6666666666667L-738.8888888888889,386.6666666666667L-712.2222222222222,386.5L-685.5555555555555,382.1666666666667L-658.8888888888889,379.33333333333337L-632.2222222222222,388.8333333333333L-605.5555555555555,397.3333333333333L-578.8888888888889,398.3333333333333L-552.2222222222222,385L-525.5555555555555,385.8333333333333L-498.8888888888889,385.5L-472.22222222222223,383.5L-445.55555555555554,377.5L-418.8888888888889,392.5L-392.22222222222223,399.1666666666667L-365.55555555555554,394.8333333333333L-338.88888888888886,390.5L-312.22222222222223,375.5L-285.55555555555554,388.5L-258.8888888888889,380.5L-232.22222222222223,395.3333333333333L-205.55555555555554,399.1666666666667L-178.88888888888889,396.8333333333333L-152.22222222222223,392.5L-125.55555555555556,385.33333333333337L-98.88888888888889,393.3333333333333L-72.22222222222221,391L-45.55555555555556,388.8333333333333L-18.88888888888889,399L7.777777777777778,394.8333333333333L34.44444444444444,384L61.111111111111114,384.1666666666667L87.77777777777777,392.3333333333333L114.44444444444444,386L141.11111111111111,392.5L167.77777777777777,400L194.44444444444443,398.6666666666667L221.11111111111111,389.1666666666667L247.77777777777777,387.66666666666663L274.44444444444446,396.6666666666667L301.1111111111111,387.1666666666667L327.77777777777777,397.1666666666667L354.44444444444446,399.5L381.1111111111111,394.1666666666667L407.77777777777777,396.1666666666667" stroke="#f58518" stroke-width="2" opacity="0.2"></path></g></g><path class="foreground" aria-hidden="true" d="" display="none"></path></g><g transform="translate(0,0)"><path class="background" aria-hidden="true" d="M0,0h400v400h-400Z"></path><g><g class="mark-line role-mark concat_0_layer_0_marks" clip-path="url(#clip3)" role="graphics-object" aria-roledescription="line mark container"><path aria-label="Type: Confirmed; Date: Mar 01; Count: 2" role="graphics-symbol" aria-roledescription="line mark" d="M-2257.777777777778,399.6666666666667L-2231.111111111111,399.83333333333337L-2204.4444444444443,399L-2177.777777777778,397.66666666666663L-2151.1111111111113,390.1666666666667L-2124.4444444444443,398.8333333333333L-2097.777777777778,390L-2071.1111111111113,393L-2045.5555555555557,392.5L-2018.888888888889,382.1666666666667L-1992.2222222222222,375.8333333333333L-1965.5555555555554,383.5L-1938.888888888889,364.1666666666667L-1912.2222222222224,375.5L-1885.5555555555554,389.83333333333337L-1858.888888888889,386.5L-1832.2222222222222,385.5L-1805.5555555555557,385.16666666666663L-1778.8888888888887,373.3333333333333L-1752.2222222222222,366.66666666666663L-1725.5555555555557,379.33333333333337L-1698.8888888888887,371.5L-1672.2222222222222,381.33333333333337L-1645.5555555555557,360L-1618.888888888889,360L-1592.2222222222222,347.66666666666663L-1565.5555555555554,361.8333333333333L-1538.888888888889,337L-1512.2222222222222,357.8333333333333L-1485.5555555555557,345.3333333333333L-1458.888888888889,332.1666666666667L-1432.2222222222222,314.66666666666663L-1405.5555555555554,296.5L-1378.888888888889,306.16666666666663L-1352.2222222222222,348L-1325.5555555555557,335.5L-1298.888888888889,337.3333333333333L-1272.2222222222222,318.83333333333337L-1245.5555555555557,279L-1218.888888888889,279.6666666666667L-1192.2222222222222,309.3333333333333L-1165.5555555555554,322.33333333333337L-1138.888888888889,344.6666666666667L-1112.2222222222222,322.5L-1085.5555555555557,317.1666666666667L-1058.888888888889,319.6666666666667L-1032.2222222222222,297.83333333333337L-1005.5555555555555,287.3333333333333L-978.8888888888889,299L-952.2222222222222,306.16666666666663L-925.5555555555557,334.6666666666667L-898.8888888888889,309.1666666666667L-872.2222222222222,286.3333333333333L-845.5555555555555,274.8333333333333L-818.8888888888888,264.66666666666663L-792.2222222222223,298.3333333333333L-765.5555555555555,322.83333333333337L-738.8888888888889,352.33333333333337L-712.2222222222222,284.1666666666667L-685.5555555555555,286.5L-658.8888888888889,268.33333333333337L-632.2222222222222,328.6666666666667L-605.5555555555555,306.33333333333337L-578.8888888888889,360.8333333333333L-552.2222222222222,332.6666666666667L-525.5555555555555,317.5L-498.8888888888889,283L-472.22222222222223,282.5L-445.55555555555554,293L-418.8888888888889,290.6666666666667L-392.22222222222223,333.16666666666663L-365.55555555555554,342L-338.88888888888886,299.6666666666667L-312.22222222222223,293.83333333333337L-285.55555555555554,287.8333333333333L-258.8888888888889,295.8333333333333L-232.22222222222223,321.6666666666667L-205.55555555555554,322.33333333333337L-178.88888888888889,361L-152.22222222222223,329.6666666666667L-125.55555555555556,279.3333333333333L-98.88888888888889,291.8333333333333L-72.22222222222221,293.83333333333337L-45.55555555555556,336.8333333333333L-18.88888888888889,354.8333333333333L7.777777777777778,336L34.44444444444444,300.5L61.111111111111114,292L87.77777777777777,293.5L114.44444444444444,275.1666666666667L141.11111111111111,293.83333333333337L167.77777777777777,328.5L194.44444444444443,354.6666666666667L221.11111111111111,270.8333333333333L247.77777777777777,31.000000000000007L274.44444444444446,220.00000000000003L301.1111111111111,224.00000000000003L327.77777777777777,242L354.44444444444446,259.5L381.1111111111111,332.8333333333333L407.77777777777777,268.1666666666667" stroke="#4c78a8" stroke-width="2" opacity="0.2"></path></g></g><path class="foreground" aria-hidden="true" d="" display="none"></path></g></g><g class="mark-group role-scope concat_0_layer_1_pathgroup" role="graphics-object" aria-roledescription="group mark container"><g transform="translate(0,0)"><path class="background" aria-hidden="true" d="M0,0h400v400h-400Z"></path><g><g class="mark-line role-mark concat_0_layer_1_marks" clip-path="url(#clip4)" role="graphics-object" aria-roledescription="line mark container"><path aria-label="Type: Recovered; Date: Mar 01; Count: 0" role="graphics-symbol" aria-roledescription="line mark" d="M-2097.777777777778,400L-2071.1111111111113,400L-2045.5555555555557,400L-2018.888888888889,400L-1992.2222222222222,400L-1965.5555555555554,400L-1938.888888888889,400L-1912.2222222222224,400L-1885.5555555555554,400L-1858.888888888889,400L-1832.2222222222222,400L-1805.5555555555557,400L-1778.8888888888887,400L-1752.2222222222222,400L-1725.5555555555557,400L-1698.8888888888887,400L-1672.2222222222222,400L-1645.5555555555557,400L-1618.888888888889,400L-1592.2222222222222,400L-1565.5555555555554,400L-1538.888888888889,400L-1512.2222222222222,400L-1485.5555555555557,400L-1458.888888888889,400L-1432.2222222222222,400L-1405.5555555555554,400L-1378.888888888889,400L-1352.2222222222222,400L-1325.5555555555557,400L-1298.888888888889,400L-1272.2222222222222,400L-1245.5555555555557,400L-1218.888888888889,400L-1192.2222222222222,400L-1165.5555555555554,400L-1138.888888888889,400L-1112.2222222222222,400L-1085.5555555555557,400L-1058.888888888889,400L-1032.2222222222222,400L-1005.5555555555555,400L-978.8888888888889,400L-952.2222222222222,400L-925.5555555555557,400L-898.8888888888889,400L-872.2222222222222,400L-845.5555555555555,400L-818.8888888888888,400L-792.2222222222223,400L-765.5555555555555,400L-738.8888888888889,400L-712.2222222222222,400L-685.5555555555555,400L-658.8888888888889,400L-632.2222222222222,400L-605.5555555555555,400L-578.8888888888889,400L-552.2222222222222,400L-525.5555555555555,400L-498.8888888888889,400L-472.22222222222223,400L-445.55555555555554,400L-418.8888888888889,400L-392.22222222222223,400L-365.55555555555554,400L-338.88888888888886,400L-312.22222222222223,400L-285.55555555555554,400L-258.8888888888889,400L-232.22222222222223,400L-205.55555555555554,400L-178.88888888888889,400L-152.22222222222223,400L-125.55555555555556,400L-98.88888888888889,400L-72.22222222222221,400L-45.55555555555556,400L-18.88888888888889,400L7.777777777777778,400L34.44444444444444,400L61.111111111111114,400L87.77777777777777,400L114.44444444444444,400L141.11111111111111,400L167.77777777777777,400L194.44444444444443,400L221.11111111111111,400L247.77777777777777,400L274.44444444444446,400L301.1111111111111,400L327.77777777777777,400L354.44444444444446,400L381.1111111111111,400L407.77777777777777,400" stroke="#e45756" stroke-width="2" opacity="1"></path></g></g><path class="foreground" aria-hidden="true" d="" display="none"></path></g><g transform="translate(0,0)"><path class="background" aria-hidden="true" d="M0,0h400v400h-400Z"></path><g><g class="mark-line role-mark concat_0_layer_1_marks" clip-path="url(#clip5)" role="graphics-object" aria-roledescription="line mark container"><path aria-label="Type: Deaths; Date: Mar 01; Count: 0" role="graphics-symbol" aria-roledescription="line mark" d="M-2097.777777777778,400L-2071.1111111111113,400L-2045.5555555555557,400L-2018.888888888889,400L-1992.2222222222222,399.9761904761905L-1965.5555555555554,399.9761904761905L-1938.888888888889,399.9761904761905L-1912.2222222222224,399.95238095238096L-1885.5555555555554,399.9285714285714L-1858.888888888889,399.8571428571429L-1832.2222222222222,399.83333333333337L-1805.5555555555557,399.7857142857143L-1778.8888888888887,399.76190476190476L-1752.2222222222222,399.64285714285717L-1725.5555555555557,399.57142857142856L-1698.8888888888887,399.57142857142856L-1672.2222222222222,399.54761904761904L-1645.5555555555557,399.3095238095238L-1618.888888888889,398.76190476190476L-1592.2222222222222,398.42857142857144L-1565.5555555555554,397.8809523809524L-1538.888888888889,397.9761904761905L-1512.2222222222222,397.8809523809524L-1485.5555555555557,397.11904761904765L-1458.888888888889,396.57142857142856L-1432.2222222222222,395.7857142857143L-1405.5555555555554,394.5L-1378.888888888889,393.9761904761905L-1352.2222222222222,393.61904761904765L-1325.5555555555557,393.07142857142856L-1298.888888888889,392.1190476190476L-1272.2222222222222,390.2142857142857L-1245.5555555555557,389.33333333333337L-1218.888888888889,388.45238095238096L-1192.2222222222222,387.80952380952385L-1165.5555555555554,387.76190476190476L-1138.888888888889,388.1428571428571L-1112.2222222222222,389.4761904761905L-1085.5555555555557,389.4761904761905L-1058.888888888889,387.7142857142857L-1032.2222222222222,387.14285714285717L-1005.5555555555555,387.3809523809524L-978.8888888888889,385.14285714285717L-952.2222222222222,384.73809523809524L-925.5555555555557,384.26190476190476L-898.8888888888889,382.57142857142856L-872.2222222222222,382.5238095238095L-845.5555555555555,383.6190476190476L-818.8888888888888,382.0952380952381L-792.2222222222223,383.7857142857143L-765.5555555555555,384.42857142857144L-738.8888888888889,383.4761904761905L-712.2222222222222,385.95238095238096L-685.5555555555555,387.5L-658.8888888888889,386.54761904761904L-632.2222222222222,388.07142857142856L-605.5555555555555,388.64285714285717L-578.8888888888889,388.45238095238096L-552.2222222222222,388.2142857142857L-525.5555555555555,388.1190476190476L-498.8888888888889,388.5952380952381L-472.22222222222223,389.19047619047615L-445.55555555555554,387.5714285714286L-418.8888888888889,386.8809523809524L-392.22222222222223,387L-365.55555555555554,388.4047619047619L-338.88888888888886,389.07142857142856L-312.22222222222223,387.6428571428571L-285.55555555555554,388.35714285714283L-258.8888888888889,388.7857142857143L-232.22222222222223,389.19047619047615L-205.55555555555554,389.19047619047615L-178.88888888888889,389.4761904761905L-152.22222222222223,389.76190476190476L-125.55555555555556,391.1666666666667L-98.88888888888889,391.85714285714283L-72.22222222222221,393.3571428571429L-45.55555555555556,392.42857142857144L-18.88888888888889,392.4047619047619L7.777777777777778,392.1190476190476L34.44444444444444,390.9047619047619L61.111111111111114,390.73809523809524L87.77777777777777,390.5952380952381L114.44444444444444,389.88095238095235L141.11111111111111,390.4047619047619L167.77777777777777,390.54761904761904L194.44444444444443,391.0952380952381L221.11111111111111,391.83333333333337L247.77777777777777,392.3333333333333L274.44444444444446,392.95238095238096L301.1111111111111,393.11904761904765L327.77777777777777,393.7857142857143L354.44444444444446,393.7142857142857L381.1111111111111,393.07142857142856L407.77777777777777,394.07142857142856" stroke="#f58518" stroke-width="2" opacity="1"></path></g></g><path class="foreground" aria-hidden="true" d="" display="none"></path></g><g transform="translate(0,0)"><path class="background" aria-hidden="true" d="M0,0h400v400h-400Z"></path><g><g class="mark-line role-mark concat_0_layer_1_marks" clip-path="url(#clip6)" role="graphics-object" aria-roledescription="line mark container"><path aria-label="Type: Confirmed; Date: Mar 01; Count: 0" role="graphics-symbol" aria-roledescription="line mark" d="M-2097.777777777778,396.45238095238096L-2071.1111111111113,395.5L-2045.5555555555557,394.45238095238096L-2018.888888888889,392.0476190476191L-1992.2222222222222,388.92857142857144L-1965.5555555555554,387.9761904761905L-1938.888888888889,383.0238095238095L-1912.2222222222224,380.9523809523809L-1885.5555555555554,380.5L-1858.888888888889,379.6428571428571L-1832.2222222222222,380.1190476190476L-1805.5555555555557,381.45238095238096L-1778.8888888888887,380L-1752.2222222222222,380.35714285714283L-1725.5555555555557,380.9047619047619L-1698.8888888888887,378.2857142857143L-1672.2222222222222,377.54761904761904L-1645.5555555555557,373.9047619047619L-1618.888888888889,370.3095238095238L-1592.2222222222222,366.6428571428571L-1565.5555555555554,365.95238095238096L-1538.888888888889,359.9047619047619L-1512.2222222222222,357.95238095238096L-1485.5555555555557,352.8095238095238L-1458.888888888889,348.8333333333333L-1432.2222222222222,342.35714285714283L-1405.5555555555554,335.04761904761904L-1378.888888888889,327.09523809523813L-1352.2222222222222,328.6666666666667L-1325.5555555555557,325.4761904761905L-1298.888888888889,324.3333333333333L-1272.2222222222222,322.42857142857144L-1245.5555555555557,317.3333333333333L-1218.888888888889,314.9285714285714L-1192.2222222222222,315.38095238095235L-1165.5555555555554,311.7142857142857L-1138.888888888889,313.0238095238095L-1112.2222222222222,310.90476190476187L-1085.5555555555557,310.66666666666663L-1058.888888888889,316.4761904761905L-1032.2222222222222,319.07142857142856L-1005.5555555555555,315.92857142857144L-978.8888888888889,312.59523809523813L-952.2222222222222,307.0952380952381L-925.5555555555557,308.8333333333333L-898.8888888888889,307.6904761904762L-872.2222222222222,302.92857142857144L-845.5555555555555,299.64285714285717L-818.8888888888888,296.4047619047619L-792.2222222222223,296.3095238095238L-765.5555555555555,298.6904761904762L-738.8888888888889,301.2142857142857L-712.2222222222222,297.64285714285717L-685.5555555555555,297.66666666666663L-658.8888888888889,296.73809523809524L-632.2222222222222,305.8809523809524L-605.5555555555555,307.0238095238095L-578.8888888888889,312.45238095238096L-552.2222222222222,309.64285714285717L-525.5555555555555,314.4047619047619L-498.8888888888889,313.9047619047619L-472.22222222222223,315.92857142857144L-445.55555555555554,310.8333333333333L-418.8888888888889,308.5952380952381L-392.22222222222223,304.64285714285717L-365.55555555555554,305.9761904761905L-338.88888888888886,303.42857142857144L-312.22222222222223,304.9761904761905L-285.55555555555554,305.73809523809524L-258.8888888888889,306.1428571428571L-232.22222222222223,310.5714285714286L-205.55555555555554,309.0238095238095L-178.88888888888889,311.73809523809524L-152.22222222222223,316.0238095238095L-125.55555555555556,313.95238095238096L-98.88888888888889,314.5238095238095L-72.22222222222221,314.23809523809524L-45.55555555555556,316.4047619047619L-18.88888888888889,321.04761904761904L7.777777777777778,317.4761904761905L34.44444444444444,313.3095238095238L61.111111111111114,315.1190476190476L87.77777777777777,315.35714285714283L114.44444444444444,312.6904761904762L141.11111111111111,306.5476190476191L167.77777777777777,302.7857142857143L194.44444444444443,305.45238095238096L221.11111111111111,301.2142857142857L247.77777777777777,263.92857142857144L274.44444444444446,253.42857142857142L301.1111111111111,246.11904761904762L327.77777777777777,238.7142857142857L354.44444444444446,228.85714285714283L381.1111111111111,225.73809523809524L407.77777777777777,225.35714285714286" stroke="#4c78a8" stroke-width="2" opacity="1"></path></g></g><path class="foreground" aria-hidden="true" d="" display="none"></path></g></g><g class="mark-group role-title"><g transform="translate(200,-54)"><path class="background" aria-hidden="true" d="M0,0h0v0h0Z" pointer-events="none"></path><g><g class="mark-text role-title-text" role="graphics-symbol" aria-roledescription="title" aria-label="Title text '7-day average (light color: daily values) [2020-06-09]'" pointer-events="none"><text text-anchor="middle" transform="translate(0,10)" font-family="Roboto Condensed" font-size="13px" font-weight="normal" fill="#000" opacity="1"><tspan>7-day average (light color: daily values)</tspan><tspan x="0" dy="15">[2020-06-09]</tspan></text></g></g><path class="foreground" aria-hidden="true" d="" pointer-events="none" display="none"></path></g></g></g><path class="foreground" aria-hidden="true" d="" display="none"></path></g></g><g class="mark-group role-scope concat_1_group" role="graphics-object" aria-roledescription="group mark container"><g transform="translate(465,0)"><path class="background" aria-hidden="true" d="M0,0h400v400h-400Z" stroke="#ddd" stroke-width="0"></path><g><g class="mark-group role-axis" aria-hidden="true"><g transform="translate(0.5,0.5)"><path class="background" aria-hidden="true" d="M0,0h0v0h0Z" pointer-events="none"></path><g><g class="mark-rule role-axis-grid" pointer-events="none"><line transform="translate(0,400)" x2="400" y2="0" stroke="#ddd" stroke-width="1" opacity="1"></line><line transform="translate(0,360)" x2="400" y2="0" stroke="#ddd" stroke-width="1" opacity="1"></line><line transform="translate(0,320)" x2="400" y2="0" stroke="#ddd" stroke-width="1" opacity="1"></line><line transform="translate(0,280)" x2="400" y2="0" stroke="#ddd" stroke-width="1" opacity="1"></line><line transform="translate(0,240)" x2="400" y2="0" stroke="#ddd" stroke-width="1" opacity="1"></line><line transform="translate(0,200)" x2="400" y2="0" stroke="#ddd" stroke-width="1" opacity="1"></line><line transform="translate(0,160)" x2="400" y2="0" stroke="#ddd" stroke-width="1" opacity="1"></line><line transform="translate(0,120)" x2="400" y2="0" stroke="#ddd" stroke-width="1" opacity="1"></line><line transform="translate(0,80)" x2="400" y2="0" stroke="#ddd" stroke-width="1" opacity="1"></line><line transform="translate(0,40)" x2="400" y2="0" stroke="#ddd" stroke-width="1" opacity="1"></line><line transform="translate(0,0)" x2="400" y2="0" stroke="#ddd" stroke-width="1" opacity="1"></line></g></g><path class="foreground" aria-hidden="true" d="" pointer-events="none" display="none"></path></g></g><g class="mark-group role-axis" role="graphics-symbol" aria-roledescription="axis" aria-label="X-axis titled 'Date' for a time scale with values from May 24 to June 08"><g transform="translate(0.5,400.5)"><path class="background" aria-hidden="true" d="M0,0h0v0h0Z" pointer-events="none"></path><g><g class="mark-text role-axis-label" pointer-events="none"><text text-anchor="middle" transform="translate(7.777777777777778,10)" font-family="Roboto Condensed" font-size="10px" fill="#000" opacity="1">May 25</text><text text-anchor="middle" transform="translate(61.111111111111114,10)" font-family="Roboto Condensed" font-size="10px" fill="#000" opacity="0">May 27</text><text text-anchor="middle" transform="translate(114.44444444444444,10)" font-family="Roboto Condensed" font-size="10px" fill="#000" opacity="1">May 29</text><text text-anchor="middle" transform="translate(167.77777777777777,10)" font-family="Roboto Condensed" font-size="10px" fill="#000" opacity="0">May 31</text><text text-anchor="middle" transform="translate(194.44444444444443,10)" font-family="Roboto Condensed" font-size="10px" fill="#000" opacity="1">Jun 01</text><text text-anchor="middle" transform="translate(247.77777777777777,10)" font-family="Roboto Condensed" font-size="10px" fill="#000" opacity="0">Jun 03</text><text text-anchor="middle" transform="translate(301.1111111111111,10)" font-family="Roboto Condensed" font-size="10px" fill="#000" opacity="1">Jun 05</text><text text-anchor="middle" transform="translate(354.44444444444446,10)" font-family="Roboto Condensed" font-size="10px" fill="#000" opacity="0">Jun 07</text></g><g class="mark-rule role-axis-domain" pointer-events="none"><line transform="translate(0,0)" x2="400" y2="0" stroke="lightgray" stroke-width="1" opacity="1"></line></g><g class="mark-text role-axis-title" pointer-events="none"><text text-anchor="middle" transform="translate(200,25)" font-family="Roboto Condensed" font-size="11px" font-weight="normal" fill="#000" opacity="1">Date</text></g></g><path class="foreground" aria-hidden="true" d="" pointer-events="none" display="none"></path></g></g><g class="mark-group role-axis" role="graphics-symbol" aria-roledescription="axis" aria-label="Y-axis titled 'Count' for a linear scale with values from 0 to 50,000"><g transform="translate(0.5,0.5)"><path class="background" aria-hidden="true" d="M0,0h0v0h0Z" pointer-events="none"></path><g><g class="mark-text role-axis-label" pointer-events="none"><text text-anchor="end" transform="translate(-2,403)" font-family="Roboto Condensed" font-size="10px" fill="#000" opacity="1">0</text><text text-anchor="end" transform="translate(-2,363)" font-family="Roboto Condensed" font-size="10px" fill="#000" opacity="1">5,000</text><text text-anchor="end" transform="translate(-2,323)" font-family="Roboto Condensed" font-size="10px" fill="#000" opacity="1">10,000</text><text text-anchor="end" transform="translate(-2,283)" font-family="Roboto Condensed" font-size="10px" fill="#000" opacity="1">15,000</text><text text-anchor="end" transform="translate(-2,243)" font-family="Roboto Condensed" font-size="10px" fill="#000" opacity="1">20,000</text><text text-anchor="end" transform="translate(-2,203)" font-family="Roboto Condensed" font-size="10px" fill="#000" opacity="1">25,000</text><text text-anchor="end" transform="translate(-2,163)" font-family="Roboto Condensed" font-size="10px" fill="#000" opacity="1">30,000</text><text text-anchor="end" transform="translate(-2,123.00000000000001)" font-family="Roboto Condensed" font-size="10px" fill="#000" opacity="1">35,000</text><text text-anchor="end" transform="translate(-2,82.99999999999999)" font-family="Roboto Condensed" font-size="10px" fill="#000" opacity="1">40,000</text><text text-anchor="end" transform="translate(-2,42.99999999999999)" font-family="Roboto Condensed" font-size="10px" fill="#000" opacity="1">45,000</text><text text-anchor="end" transform="translate(-2,3)" font-family="Roboto Condensed" font-size="10px" fill="#000" opacity="1">50,000</text></g><g class="mark-rule role-axis-domain" pointer-events="none"><line transform="translate(0,400)" x2="0" y2="-400" stroke="lightgray" stroke-width="1" opacity="1"></line></g><g class="mark-text role-axis-title" pointer-events="none"><text text-anchor="start" transform="translate(-45,-13)" font-family="Roboto Condensed" font-size="11px" font-weight="normal" fill="#000" opacity="1">Count</text></g></g><path class="foreground" aria-hidden="true" d="" pointer-events="none" display="none"></path></g></g><g class="mark-group role-scope concat_1_pathgroup" role="graphics-object" aria-roledescription="group mark container"><g transform="translate(0,0)"><path class="background" aria-hidden="true" d="M0,0h400v400h-400Z"></path><g><g class="mark-line role-mark concat_1_marks" clip-path="url(#clip7)" role="graphics-object" aria-roledescription="line mark container"><path aria-label="Type: Recovered; Date: Mar 01; Country: Sweden; Confirmed: 14; Recovered: 0; Deaths: 0; Count: 0" role="graphics-symbol" aria-roledescription="line mark" d="M-2257.777777777778,400L-2231.111111111111,400L-2204.4444444444443,400L-2177.777777777778,400L-2151.1111111111113,400L-2124.4444444444443,400L-2097.777777777778,400L-2071.1111111111113,400L-2045.5555555555557,400L-2018.888888888889,400L-1992.2222222222222,400L-1965.5555555555554,400L-1938.888888888889,400L-1912.2222222222224,400L-1885.5555555555554,400L-1858.888888888889,400L-1832.2222222222222,400L-1805.5555555555557,400L-1778.8888888888887,400L-1752.2222222222222,400L-1725.5555555555557,400L-1698.8888888888887,400L-1672.2222222222222,400L-1645.5555555555557,400L-1618.888888888889,400L-1592.2222222222222,400L-1565.5555555555554,400L-1538.888888888889,400L-1512.2222222222222,400L-1485.5555555555557,400L-1458.888888888889,400L-1432.2222222222222,400L-1405.5555555555554,400L-1378.888888888889,400L-1352.2222222222222,400L-1325.5555555555557,400L-1298.888888888889,400L-1272.2222222222222,400L-1245.5555555555557,400L-1218.888888888889,400L-1192.2222222222222,400L-1165.5555555555554,400L-1138.888888888889,400L-1112.2222222222222,400L-1085.5555555555557,400L-1058.888888888889,400L-1032.2222222222222,400L-1005.5555555555555,400L-978.8888888888889,400L-952.2222222222222,400L-925.5555555555557,400L-898.8888888888889,400L-872.2222222222222,400L-845.5555555555555,400L-818.8888888888888,400L-792.2222222222223,400L-765.5555555555555,400L-738.8888888888889,400L-712.2222222222222,400L-685.5555555555555,400L-658.8888888888889,400L-632.2222222222222,400L-605.5555555555555,400L-578.8888888888889,400L-552.2222222222222,400L-525.5555555555555,400L-498.8888888888889,400L-472.22222222222223,400L-445.55555555555554,400L-418.8888888888889,400L-392.22222222222223,400L-365.55555555555554,400L-338.88888888888886,400L-312.22222222222223,400L-285.55555555555554,400L-258.8888888888889,400L-232.22222222222223,400L-205.55555555555554,400L-178.88888888888889,400L-152.22222222222223,400L-125.55555555555556,400L-98.88888888888889,400L-72.22222222222221,400L-45.55555555555556,400L-18.88888888888889,400L7.777777777777778,400L34.44444444444444,400L61.111111111111114,400L87.77777777777777,400L114.44444444444444,400L141.11111111111111,400L167.77777777777777,400L194.44444444444443,400L221.11111111111111,400L247.77777777777777,400L274.44444444444446,400L301.1111111111111,400L327.77777777777777,400L354.44444444444446,400L381.1111111111111,400L407.77777777777777,400" stroke="#e45756" stroke-width="2" opacity="0.7"></path></g></g><path class="foreground" aria-hidden="true" d="" display="none"></path></g><g transform="translate(0,0)"><path class="background" aria-hidden="true" d="M0,0h400v400h-400Z"></path><g><g class="mark-line role-mark concat_1_marks" clip-path="url(#clip8)" role="graphics-object" aria-roledescription="line mark container"><path aria-label="Type: Deaths; Date: Mar 01; Country: Sweden; Confirmed: 14; Recovered: 0; Deaths: 0; Count: 0" role="graphics-symbol" aria-roledescription="line mark" d="M-2257.777777777778,400L-2231.111111111111,400L-2204.4444444444443,400L-2177.777777777778,400L-2151.1111111111113,400L-2124.4444444444443,400L-2097.777777777778,400L-2071.1111111111113,400L-2045.5555555555557,400L-2018.888888888889,400L-1992.2222222222222,399.992L-1965.5555555555554,399.992L-1938.888888888889,399.992L-1912.2222222222224,399.984L-1885.5555555555554,399.976L-1858.888888888889,399.952L-1832.2222222222222,399.94399999999996L-1805.5555555555557,399.92L-1778.8888888888887,399.912L-1752.2222222222222,399.872L-1725.5555555555557,399.84000000000003L-1698.8888888888887,399.832L-1672.2222222222222,399.8L-1645.5555555555557,399.712L-1618.888888888889,399.504L-1592.2222222222222,399.384L-1565.5555555555554,399.16L-1538.888888888889,399.16L-1512.2222222222222,399.12L-1485.5555555555557,398.832L-1458.888888888889,398.56L-1432.2222222222222,398.088L-1405.5555555555554,397.536L-1378.888888888889,397.13599999999997L-1352.2222222222222,397.01599999999996L-1325.5555555555557,396.792L-1298.888888888889,396.184L-1272.2222222222222,395.272L-1245.5555555555557,394.504L-1218.888888888889,393.656L-1192.2222222222222,393.04L-1165.5555555555554,392.904L-1138.888888888889,392.808L-1112.2222222222222,392.648L-1085.5555555555557,391.736L-1058.888888888889,390.37600000000003L-1032.2222222222222,389.336L-1005.5555555555555,388.8L-978.8888888888889,387.912L-952.2222222222222,387.68L-925.5555555555557,387.36L-898.8888888888889,385.88L-872.2222222222222,384.504L-845.5555555555555,383.832L-818.8888888888888,382.784L-792.2222222222223,382.464L-765.5555555555555,382.448L-738.8888888888889,381.808L-712.2222222222222,381.15999999999997L-685.5555555555555,380.30400000000003L-658.8888888888889,379.312L-632.2222222222222,378.776L-605.5555555555555,378.648L-578.8888888888889,378.56800000000004L-552.2222222222222,377.848L-525.5555555555555,377.168L-498.8888888888889,376.472L-472.22222222222223,375.68L-445.55555555555554,374.6L-418.8888888888889,374.24L-392.22222222222223,374.2L-365.55555555555554,373.952L-338.88888888888886,373.496L-312.22222222222223,372.32L-285.55555555555554,371.76800000000003L-258.8888888888889,370.832L-232.22222222222223,370.608L-205.55555555555554,370.568L-178.88888888888889,370.416L-152.22222222222223,370.056L-125.55555555555556,369.352L-98.88888888888889,369.032L-72.22222222222221,368.6L-45.55555555555556,368.06399999999996L-18.88888888888889,368.01599999999996L7.777777777777778,367.76800000000003L34.44444444444444,367L61.111111111111114,366.24L87.77777777777777,365.872L114.44444444444444,365.2L141.11111111111111,364.84000000000003L167.77777777777777,364.84000000000003L194.44444444444443,364.776L221.11111111111111,364.25600000000003L247.77777777777777,363.664L274.44444444444446,363.504L301.1111111111111,362.88800000000003L327.77777777777777,362.752L354.44444444444446,362.728L381.1111111111111,362.44800000000004L407.77777777777777,362.264" stroke="#f58518" stroke-width="2" opacity="0.7"></path></g></g><path class="foreground" aria-hidden="true" d="" display="none"></path></g><g transform="translate(0,0)"><path class="background" aria-hidden="true" d="M0,0h400v400h-400Z"></path><g><g class="mark-line role-mark concat_1_marks" clip-path="url(#clip9)" role="graphics-object" aria-roledescription="line mark container"><path aria-label="Type: Confirmed; Date: Mar 01; Country: Sweden; Confirmed: 14; Recovered: 0; Deaths: 0; Count: 14" role="graphics-symbol" aria-roledescription="line mark" d="M-2257.777777777778,399.88800000000003L-2231.111111111111,399.88L-2204.4444444444443,399.832L-2177.777777777778,399.71999999999997L-2151.1111111111113,399.248L-2124.4444444444443,399.192L-2097.777777777778,398.712L-2071.1111111111113,398.37600000000003L-2045.5555555555557,398.016L-2018.888888888889,397.16L-1992.2222222222222,396L-1965.5555555555554,395.208L-1938.888888888889,393.488L-1912.2222222222224,392.312L-1885.5555555555554,391.824L-1858.888888888889,391.176L-1832.2222222222222,390.47999999999996L-1805.5555555555557,389.768L-1778.8888888888887,388.488L-1752.2222222222222,386.888L-1725.5555555555557,385.896L-1698.8888888888887,384.52799999999996L-1672.2222222222222,383.632L-1645.5555555555557,381.712L-1618.888888888889,379.792L-1592.2222222222222,377.28000000000003L-1565.5555555555554,375.448L-1538.888888888889,372.424L-1512.2222222222222,370.40000000000003L-1485.5555555555557,367.776L-1458.888888888889,364.52L-1432.2222222222222,360.424L-1405.5555555555554,355.456L-1378.888888888889,350.952L-1352.2222222222222,348.456L-1325.5555555555557,345.35999999999996L-1298.888888888889,342.352L-1272.2222222222222,338.456L-1245.5555555555557,332.648L-1218.888888888889,326.872L-1192.2222222222222,322.52L-1165.5555555555554,318.79200000000003L-1138.888888888889,316.136L-1112.2222222222222,312.416L-1085.5555555555557,308.44L-1058.888888888889,304.584L-1032.2222222222222,299.68L-1005.5555555555555,294.272L-978.8888888888889,289.424L-952.2222222222222,284.91999999999996L-925.5555555555557,281.784L-898.8888888888889,277.424L-872.2222222222222,271.968L-845.5555555555555,265.96000000000004L-818.8888888888888,259.464L-792.2222222222223,254.584L-765.5555555555555,250.88L-738.8888888888889,248.592L-712.2222222222222,243.032L-685.5555555555555,237.584L-658.8888888888889,231.264L-632.2222222222222,227.84L-605.5555555555555,223.344L-578.8888888888889,221.46400000000003L-552.2222222222222,218.23199999999997L-525.5555555555555,214.27199999999996L-498.8888888888889,208.656L-472.22222222222223,203.016L-445.55555555555554,197.88000000000002L-418.8888888888889,192.632L-392.22222222222223,189.42399999999998L-365.55555555555554,186.64000000000001L-338.88888888888886,181.82399999999998L-312.22222222222223,176.728L-285.55555555555554,171.344L-258.8888888888889,166.344L-232.22222222222223,162.584L-205.55555555555554,158.85600000000002L-178.88888888888889,156.984L-152.22222222222223,153.608L-125.55555555555556,147.816L-98.88888888888889,142.624L-72.22222222222221,137.52800000000002L-45.55555555555556,134.49599999999998L-18.88888888888889,132.328L7.777777777777778,129.256L34.44444444444444,124.48000000000002L61.111111111111114,119.29599999999998L87.77777777777777,114.18400000000003L114.44444444444444,108.19200000000002L141.11111111111111,103.09599999999999L167.77777777777777,99.66400000000002L194.44444444444443,97.48800000000001L221.11111111111111,91.288L247.77777777777777,73.576L274.44444444444446,64.93600000000002L301.1111111111111,56.48800000000001L327.77777777777777,48.90400000000001L354.44444444444446,42.16000000000002L381.1111111111111,38.93599999999999L407.77777777777777,32.60800000000002" stroke="#4c78a8" stroke-width="2" opacity="0.7"></path></g></g><path class="foreground" aria-hidden="true" d="" display="none"></path></g></g><g class="mark-group role-title"><g transform="translate(200,-54)"><path class="background" aria-hidden="true" d="M0,0h0v0h0Z" pointer-events="none"></path><g><g class="mark-text role-title-text" role="graphics-symbol" aria-roledescription="title" aria-label="Title text 'Total [2020-06-09]'" pointer-events="none"><text text-anchor="middle" transform="translate(0,10)" font-family="Roboto Condensed" font-size="13px" font-weight="normal" fill="#000" opacity="1"><tspan>Total</tspan><tspan x="0" dy="15">[2020-06-09]</tspan></text></g></g><path class="foreground" aria-hidden="true" d="" pointer-events="none" display="none"></path></g></g></g><path class="foreground" aria-hidden="true" d="" display="none"></path></g></g><g class="mark-group role-legend" role="graphics-symbol" aria-roledescription="legend" aria-label="Symbol legend for stroke color with 3 values: Confirmed, Deaths, Recovered"><g transform="translate(883,0)"><path class="background" aria-hidden="true" d="M0,0h58v37h-58Z" pointer-events="none"></path><g><g class="mark-group role-legend-entry"><g transform="translate(0,0)"><path class="background" aria-hidden="true" d="M0,0h0v0h0Z" pointer-events="none"></path><g><g class="mark-group role-scope" role="graphics-object" aria-roledescription="group mark container"><g transform="translate(0,0)"><path class="background" aria-hidden="true" d="M0,0h58v11h-58Z" pointer-events="none" opacity="1"></path><g><g class="mark-symbol role-legend-symbol" pointer-events="none"><path transform="translate(6,6)" d="M-5,0L5,0" stroke="#4c78a8" stroke-width="1.5" opacity="0.2"></path></g><g class="mark-text role-legend-label" pointer-events="none"><text text-anchor="start" transform="translate(16,9)" font-family="Roboto Condensed" font-size="10px" fill="#000" opacity="1">Confirmed</text></g></g><path class="foreground" aria-hidden="true" d="" pointer-events="none" display="none"></path></g><g transform="translate(0,13)"><path class="background" aria-hidden="true" d="M0,0h58v11h-58Z" pointer-events="none" opacity="1"></path><g><g class="mark-symbol role-legend-symbol" pointer-events="none"><path transform="translate(6,6)" d="M-5,0L5,0" stroke="#f58518" stroke-width="1.5" opacity="0.2"></path></g><g class="mark-text role-legend-label" pointer-events="none"><text text-anchor="start" transform="translate(16,9)" font-family="Roboto Condensed" font-size="10px" fill="#000" opacity="1">Deaths</text></g></g><path class="foreground" aria-hidden="true" d="" pointer-events="none" display="none"></path></g><g transform="translate(0,26)"><path class="background" aria-hidden="true" d="M0,0h58v11h-58Z" pointer-events="none" opacity="1"></path><g><g class="mark-symbol role-legend-symbol" pointer-events="none"><path transform="translate(6,6)" d="M-5,0L5,0" stroke="#e45756" stroke-width="1.5" opacity="0.2"></path></g><g class="mark-text role-legend-label" pointer-events="none"><text text-anchor="start" transform="translate(16,9)" font-family="Roboto Condensed" font-size="10px" fill="#000" opacity="1">Recovered</text></g></g><path class="foreground" aria-hidden="true" d="" pointer-events="none" display="none"></path></g></g></g><path class="foreground" aria-hidden="true" d="" pointer-events="none" display="none"></path></g></g></g><path class="foreground" aria-hidden="true" d="" pointer-events="none" display="none"></path></g></g></g><path class="foreground" aria-hidden="true" d="" display="none"></path></g></g></g></svg>