<svg class="marks" width="419.6666666666667" height="310.6666666666667" viewBox="0 0 419.6666666666667 310.6666666666667" version="1.1" xmlns="http://www.w3.org/2000/svg" xmlns:xlink="http://www.w3.org/1999/xlink"><defs><clipPath id="clip1"><rect x="0" y="0" width="266.6666666666667" height="266.6666666666667"></rect></clipPath><clipPath id="clip2"><rect x="0" y="0" width="266.6666666666667" height="266.6666666666667"></rect></clipPath><clipPath id="clip3"><rect x="0" y="0" width="266.6666666666667" height="266.6666666666667"></rect></clipPath><clipPath id="clip4"><rect x="0" y="0" width="266.6666666666667" height="266.6666666666667"></rect></clipPath><clipPath id="clip5"><rect x="0" y="0" width="266.6666666666667" height="266.6666666666667"></rect></clipPath><clipPath id="clip6"><rect x="0" y="0" width="266.6666666666667" height="266.6666666666667"></rect></clipPath><clipPath id="clip7"><rect x="0" y="0" width="266.6666666666667" height="266.6666666666667"></rect></clipPath><clipPath id="clip8"><rect x="0" y="0" width="266.6666666666667" height="266.6666666666667"></rect></clipPath><clipPath id="clip9"><rect x="0" y="0" width="266.6666666666667" height="266.6666666666667"></rect></clipPath><clipPath id="clip10"><rect x="0" y="0" width="266.6666666666667" height="266.6666666666667"></rect></clipPath></defs><rect width="419.6666666666667" height="310.6666666666667" fill="white"></rect><g fill="none" stroke-miterlimit="10" transform="translate(50,27)"><g class="mark-group role-frame root" role="graphics-object" aria-roledescription="group mark container"><g transform="translate(0,0)"><path class="background" aria-hidden="true" d="M0,0h266.6666666666667v266.6666666666667h-266.6666666666667Z" stroke="#ddd" stroke-width="0"></path><g><g class="mark-group role-axis" aria-hidden="true"><g transform="translate(0.5,0.5)"><path class="background" aria-hidden="true" d="M0,0h0v0h0Z" pointer-events="none"></path><g><g class="mark-rule role-axis-grid" pointer-events="none"><line transform="translate(0,267)" x2="266.6666666666667" y2="0" stroke="#ddd" stroke-width="1" opacity="1"></line><line transform="translate(0,237)" x2="266.6666666666667" y2="0" stroke="#ddd" stroke-width="1" opacity="1"></line><line transform="translate(0,207)" x2="266.6666666666667" y2="0" stroke="#ddd" stroke-width="1" opacity="1"></line><line transform="translate(0,178)" x2="266.6666666666667" y2="0" stroke="#ddd" stroke-width="1" opacity="1"></line><line transform="translate(0,148)" x2="266.6666666666667" y2="0" stroke="#ddd" stroke-width="1" opacity="1"></line><line transform="translate(0,119)" x2="266.6666666666667" y2="0" stroke="#ddd" stroke-width="1" opacity="1"></line><line transform="translate(0,89)" x2="266.6666666666667" y2="0" stroke="#ddd" stroke-width="1" opacity="1"></line><line transform="translate(0,59)" x2="266.6666666666667" y2="0" stroke="#ddd" stroke-width="1" opacity="1"></line><line transform="translate(0,30)" x2="266.6666666666667" y2="0" stroke="#ddd" stroke-width="1" opacity="1"></line><line transform="translate(0,0)" x2="266.6666666666667" y2="0" stroke="#ddd" stroke-width="1" opacity="1"></line></g></g><path class="foreground" aria-hidden="true" d="" pointer-events="none" display="none"></path></g></g><g class="mark-group role-axis" role="graphics-symbol" aria-roledescription="axis" aria-label="X-axis for a time scale with values from Friday, 24 April 2020, 5:00:00 PM to Sunday, 24 May 2020, 5:00:00 PM"><g transform="translate(0.5,267.1666666666667)"><path class="background" aria-hidden="true" d="M0,0h0v0h0Z" pointer-events="none"></path><g><g class="mark-text role-axis-label" pointer-events="none"><text text-anchor="middle" transform="translate(11.481481481481483,10)" font-family="Roboto Condensed" font-size="10px" fill="#000" opacity="1">Apr 26</text><text text-anchor="middle" transform="translate(73.70370370370371,10)" font-family="Roboto Condensed" font-size="10px" fill="#000" opacity="1">May 03</text><text text-anchor="middle" transform="translate(135.92592592592592,10)" font-family="Roboto Condensed" font-size="10px" fill="#000" opacity="1">May 10</text><text text-anchor="middle" transform="translate(198.14814814814818,10)" font-family="Roboto Condensed" font-size="10px" fill="#000" opacity="1">May 17</text><text text-anchor="middle" transform="translate(260.3703703703704,10)" font-family="Roboto Condensed" font-size="10px" fill="#000" opacity="1">May 24</text></g><g class="mark-rule role-axis-domain" pointer-events="none"><line transform="translate(0,0)" x2="266.6666666666667" y2="0" stroke="lightgray" stroke-width="1" opacity="1"></line></g></g><path class="foreground" aria-hidden="true" d="" pointer-events="none" display="none"></path></g></g><g class="mark-group role-axis" role="graphics-symbol" aria-roledescription="axis" aria-label="Y-axis for a linear scale with values from 0 to 1,800,000"><g transform="translate(0.5,0.5)"><path class="background" aria-hidden="true" d="M0,0h0v0h0Z" pointer-events="none"></path><g><g class="mark-text role-axis-label" pointer-events="none"><text text-anchor="end" transform="translate(-2,269.6666666666667)" font-family="Roboto Condensed" font-size="10px" fill="#000" opacity="1">0</text><text text-anchor="end" transform="translate(-2,240.03703703703704)" font-family="Roboto Condensed" font-size="10px" fill="#000" opacity="1">200,000</text><text text-anchor="end" transform="translate(-2,210.40740740740742)" font-family="Roboto Condensed" font-size="10px" fill="#000" opacity="1">400,000</text><text text-anchor="end" transform="translate(-2,180.7777777777778)" font-family="Roboto Condensed" font-size="10px" fill="#000" opacity="1">600,000</text><text text-anchor="end" transform="translate(-2,151.14814814814815)" font-family="Roboto Condensed" font-size="10px" fill="#000" opacity="1">800,000</text><text text-anchor="end" transform="translate(-2,121.51851851851852)" font-family="Roboto Condensed" font-size="10px" fill="#000" opacity="1">1,000,000</text><text text-anchor="end" transform="translate(-2,91.8888888888889)" font-family="Roboto Condensed" font-size="10px" fill="#000" opacity="1">1,200,000</text><text text-anchor="end" transform="translate(-2,62.25925925925926)" font-family="Roboto Condensed" font-size="10px" fill="#000" opacity="1">1,400,000</text><text text-anchor="end" transform="translate(-2,32.62962962962965)" font-family="Roboto Condensed" font-size="10px" fill="#000" opacity="1">1,600,000</text><text text-anchor="end" transform="translate(-2,3)" font-family="Roboto Condensed" font-size="10px" fill="#000" opacity="1">1,800,000</text></g><g class="mark-rule role-axis-domain" pointer-events="none"><line transform="translate(0,266.6666666666667)" x2="0" y2="-266.6666666666667" stroke="lightgray" stroke-width="1" opacity="1"></line></g></g><path class="foreground" aria-hidden="true" d="" pointer-events="none" display="none"></path></g></g><g class="mark-group role-scope pathgroup" role="graphics-object" aria-roledescription="group mark container"><g transform="translate(0,0)"><path class="background" aria-hidden="true" d="M0,0h266.6666666666667v266.6666666666667h-266.6666666666667Z"></path><g><g class="mark-line role-mark marks" clip-path="url(#clip1)" role="graphics-object" aria-roledescription="line mark container"><path aria-label="Country: Belgium; Date: Mar 01, 2020; Confirmed: 2; Recovered: 1; Deaths: 0; : 2" role="graphics-symbol" aria-roledescription="line mark" d="M-485.9259259259259,266.6663703703704L-477.03703703703707,266.6654814814815L-468.14814814814815,266.66474074074074L-459.2592592592593,266.6632592592593L-450.3703703703704,266.6592592592593L-441.48148148148147,266.65051851851854L-432.5925925925926,266.6416296296297L-423.7037037037037,266.6370370370371L-415.1851851851852,266.6312592592593L-406.2962962962963,266.62711111111116L-397.40740740740745,266.62014814814813L-388.51851851851853,266.62014814814813L-379.6296296296297,266.5838518518519L-370.74074074074076,266.56459259259265L-361.8518518518519,266.53540740740743L-352.962962962963,266.5099259259259L-344.07407407407413,266.48251851851853L-335.1851851851852,266.44651851851853L-326.29629629629636,266.4007407407408L-317.40740740740745,266.3322962962963L-308.5185185185186,266.2496296296296L-299.6296296296297,266.1628148148148L-290.74074074074076,266.11214814814815L-281.8518518518519,266.03422222222224L-272.96296296296293,265.9352592592593L-264.0740740740741,265.74296296296296L-255.18518518518522,265.5875555555556L-246.29629629629633,265.31348148148146L-237.40740740740742,265.0613333333333L-228.51851851851853,264.90385185185187L-219.62962962962965,264.7740740740741L-210.74074074074073,264.59792592592595L-201.85185185185185,264.3928888888889L-192.96296296296296,264.18222222222226L-184.07407407407408,263.93614814814816L-175.1851851851852,263.7494814814815L-166.2962962962963,263.5831111111111L-157.40740740740742,263.3786666666667L-148.51851851851853,263.19955555555555L-139.62962962962965,262.9654814814815L-130.74074074074073,262.716L-121.85185185185186,262.51585185185183L-112.96296296296298,262.27451851851856L-104.07407407407408,262.134962962963L-95.18518518518519,262.0564444444445L-86.2962962962963,261.69288888888894L-77.40740740740742,261.5097777777778L-68.51851851851852,261.3128888888889L-59.62962962962963,261.1580740740741L-50.74074074074074,260.96355555555556L-41.851851851851855,260.7432592592593L-32.96296296296297,260.59911111111114L-24.074074074074076,260.4608888888889L-15.185185185185185,260.3263703703704L-6.296296296296297,260.10474074074074L2.592592592592593,259.95185185185187L11.481481481481483,259.832L20.370370370370374,259.75007407407406L29.25925925925926,259.65422222222224L38.148148148148145,259.57644444444446L47.037037037037045,259.4786666666667L55.92592592592593,259.4026666666667L64.81481481481482,259.3308148148148L73.70370370370371,259.2731851851852L82.5925925925926,259.2197037037037L91.4814814814815,259.1838518518519L100.37037037037038,259.14355555555557L109.25925925925927,259.04888888888894L118.14814814814815,258.96133333333336L127.03703703703704,258.87466666666666L135.92592592592592,258.80281481481484L144.8148148148148,258.7482962962963L153.7037037037037,258.6994074074074L162.5925925925926,258.6694814814815L171.4814814814815,258.624L180.37037037037038,258.57125925925925L189.2592592592593,258.52014814814817L198.14814814814818,258.47703703703706L207.03703703703707,258.4357037037037L215.92592592592595,258.40133333333335L224.81481481481484,258.3728888888889L233.70370370370372,258.3355555555556L242.5925925925926,258.29466666666667L251.4814814814815,258.2503703703704L260.3703703703704,258.2085925925926L269.2592592592593,258.1715555555556" stroke="#4c78a8" stroke-width="2" opacity="1"></path></g></g><path class="foreground" aria-hidden="true" d="" display="none"></path></g><g transform="translate(0,0)"><path class="background" aria-hidden="true" d="M0,0h266.6666666666667v266.6666666666667h-266.6666666666667Z"></path><g><g class="mark-line role-mark marks" clip-path="url(#clip2)" role="graphics-object" aria-roledescription="line mark container"><path aria-label="Country: Brazil; Date: Mar 01, 2020; Confirmed: 2; Recovered: 0; Deaths: 0; : 2" role="graphics-symbol" aria-roledescription="line mark" d="M-485.9259259259259,266.6663703703704L-477.03703703703707,266.6663703703704L-468.14814814814815,266.6663703703704L-459.2592592592593,266.66607407407406L-450.3703703703704,266.66607407407406L-441.48148148148147,266.66474074074074L-432.5925925925926,266.66474074074074L-423.7037037037037,266.66370370370373L-415.1851851851852,266.662962962963L-406.2962962962963,266.6620740740741L-397.40740740740745,266.66103703703703L-388.51851851851853,266.658962962963L-379.6296296296297,266.6442962962963L-370.74074074074076,266.6442962962963L-361.8518518518519,266.6426666666667L-352.962962962963,266.6370370370371L-344.07407407407413,266.6191111111111L-335.1851851851852,266.6115555555556L-326.29629629629636,266.5746666666667L-317.40740740740745,266.5491851851852L-308.5185185185186,266.5154074074074L-299.6296296296297,266.43762962962967L-290.74074074074076,266.38162962962963L-281.8518518518519,266.3337777777778L-272.96296296296293,266.2882962962963L-264.0740740740741,266.2244444444445L-255.18518518518522,266.16044444444447L-246.29629629629633,266.08829629629633L-237.40740740740742,266.0361481481482L-228.51851851851853,265.9882962962963L-219.62962962962965,265.81970370370374L-210.74074074074073,265.65392592592593L-201.85185185185185,265.474962962963L-192.96296296296296,265.3250370370371L-184.07407407407408,265.1318518518519L-175.1851851851852,265.0177777777778L-166.2962962962963,264.86503703703704L-157.40740740740742,264.5875555555556L-148.51851851851853,264.2711111111111L-139.62962962962965,263.98637037037037L-130.74074074074073,263.75733333333335L-121.85185185185186,263.596L-112.96296296296298,263.378962962963L-104.07407407407408,263.1955555555556L-95.18518518518519,262.92414814814816L-86.2962962962963,262.4711111111111L-77.40740740740742,262.1592592592593L-68.51851851851852,261.67674074074074L-59.62962962962963,261.23585185185186L-50.74074074074074,260.9401481481482L-41.851851851851855,260.6306666666667L-32.96296296296297,260.2845925925926L-24.074074074074076,259.88785185185185L-15.185185185185185,259.25392592592596L-6.296296296296297,258.66029629629634L2.592592592592593,257.877925925926L11.481481481481483,257.31851851851854L20.370370370370374,256.67466666666667L29.25925925925926,255.81703703703707L38.148148148148145,254.8614814814815L47.037037037037045,253.7500740740741L55.92592592592593,253.00711111111113L64.81481481481482,252.2814814814815L73.70370370370371,251.58133333333336L82.5925925925926,250.57481481481483L91.4814814814815,249.56222222222223L100.37037037037038,247.90948148148152L109.25925925925927,246.55214814814818L118.14814814814815,244.90459259259262L127.03703703703704,243.54651851851852L135.92592592592592,242.56311111111114L144.8148148148148,241.54162962962965L153.7037037037037,240.2645925925926L162.5925925925926,238.49822222222224L171.4814814814815,236.56814814814817L180.37037037037038,234.030962962963L189.2592592592593,232.07244444444447L198.14814814814818,230.95111111111112L207.03703703703707,228.8343703703704L215.92592592592595,226.38740740740744L224.81481481481484,223.46977777777778L233.70370370370372,220.72785185185185L242.5925925925926,217.64592592592592L251.4814814814815,215.2002962962963L260.3703703703704,212.85762962962966L269.2592592592593,211.12622222222222" stroke="#f58518" stroke-width="2" opacity="1"></path></g></g><path class="foreground" aria-hidden="true" d="" display="none"></path></g><g transform="translate(0,0)"><path class="background" aria-hidden="true" d="M0,0h266.6666666666667v266.6666666666667h-266.6666666666667Z"></path><g><g class="mark-line role-mark marks" clip-path="url(#clip3)" role="graphics-object" aria-roledescription="line mark container"><path aria-label="Country: France; Date: Mar 01, 2020; Confirmed: 130; Recovered: 12; Deaths: 2; : 130" role="graphics-symbol" aria-roledescription="line mark" d="M-485.9259259259259,266.6474074074074L-477.03703703703707,266.63837037037035L-468.14814814814815,266.63644444444446L-459.2592592592593,266.62444444444446L-450.3703703703704,266.61081481481483L-441.48148148148147,266.56992592592593L-432.5925925925926,266.5260740740741L-423.7037037037037,266.4998518518519L-415.1851851851852,266.48755555555556L-406.2962962962963,266.40237037037036L-397.40740740740745,266.3287407407408L-388.51851851851853,266.3287407407408L-379.6296296296297,266.12429629629634L-370.74074074074076,266.00459259259264L-361.8518518518519,266.0001481481481L-352.962962962963,265.684L-344.07407407407413,265.53303703703705L-335.1851851851852,265.32696296296297L-326.29629629629636,265.05614814814817L-317.40740740740745,264.79822222222225L-308.5185185185186,264.5508148148148L-299.6296296296297,264.29362962962966L-290.74074074074076,263.72503703703705L-281.8518518518519,263.3623703703704L-272.96296296296293,262.92844444444444L-264.0740740740741,262.34740740740745L-255.18518518518522,261.78311111111117L-246.29629629629633,261.1L-237.40740740740742,260.714962962963L-228.51851851851853,260.06666666666666L-219.62962962962965,258.944L-210.74074074074073,258.22385185185186L-201.85185185185185,257.9103703703704L-192.96296296296296,257.13511111111114L-184.07407407407408,256.50296296296295L-175.1851851851852,256.2254814814815L-166.2962962962963,255.64592592592595L-157.40740740740742,255.08637037037036L-148.51851851851853,254.51140740740743L-139.62962962962965,253.87644444444445L-130.74074074074073,253.23318518518522L-121.85185185185186,252.7718518518519L-112.96296296296298,248.79511111111114L-104.07407407407408,248.25214814814817L-95.18518518518519,247.5174814814815L-86.2962962962963,247.04103703703706L-77.40740740740742,245.1934814814815L-68.51851851851852,244.9002962962963L-59.62962962962963,244.90281481481483L-50.74074074074074,244.1765925925926L-41.851851851851855,243.82400000000004L-32.96296296296297,243.41911111111114L-24.074074074074076,243.74592592592595L-15.185185185185185,243.40355555555558L-6.296296296296297,243.16503703703705L2.592592592592593,242.91970370370373L11.481481481481483,242.8374814814815L20.370370370370374,242.28311111111114L29.25925925925926,241.8362962962963L38.148148148148145,242.20844444444447L47.037037037037045,242.10903703703704L55.92592592592593,242.10903703703704L64.81481481481482,241.9294814814815L73.70370370370371,241.88562962962965L82.5925925925926,241.7946666666667L91.4814814814815,241.63925925925926L100.37037037037038,241.11629629629633L109.25925925925927,241.03111111111113L118.14814814814815,240.8417777777778L127.03703703703704,240.7765925925926L135.92592592592592,240.73674074074077L144.8148148148148,240.6697777777778L153.7037037037037,240.56192592592592L162.5925925925926,240.59540740740744L171.4814814814815,240.48711111111112L180.37037037037038,240.3971851851852L189.2592592592593,240.4137777777778L198.14814814814818,240.4088888888889L207.03703703703707,240.3623703703704L215.92592592592595,240.2328888888889L224.81481481481484,240.13792592592594L233.70370370370372,240.10281481481482L242.5925925925926,240.10281481481482L251.4814814814815,240.10281481481482L260.3703703703704,240.0208888888889L269.2592592592593,239.97540740740743" stroke="#e45756" stroke-width="2" opacity="1"></path></g></g><path class="foreground" aria-hidden="true" d="" display="none"></path></g><g transform="translate(0,0)"><path class="background" aria-hidden="true" d="M0,0h266.6666666666667v266.6666666666667h-266.6666666666667Z"></path><g><g class="mark-line role-mark marks" clip-path="url(#clip4)" role="graphics-object" aria-roledescription="line mark container"><path aria-label="Country: Germany; Date: Mar 01, 2020; Confirmed: 130; Recovered: 16; Deaths: 0; : 130" role="graphics-symbol" aria-roledescription="line mark" d="M-485.9259259259259,266.6474074074074L-477.03703703703707,266.6431111111111L-468.14814814814815,266.63762962962966L-459.2592592592593,266.62785185185186L-450.3703703703704,266.5952592592593L-441.48148148148147,266.5674074074074L-432.5925925925926,266.5482962962963L-423.7037037037037,266.5125925925926L-415.1851851851852,266.49244444444446L-406.2962962962963,266.45081481481486L-397.40740740740745,266.384L-388.51851851851853,266.3588148148148L-379.6296296296297,266.1222222222222L-370.74074074074076,265.98740740740743L-361.8518518518519,265.8081481481482L-352.962962962963,265.58933333333334L-344.07407407407413,265.29525925925924L-335.1851851851852,264.8404444444445L-326.29629629629636,264.397037037037L-317.40740740740745,263.72622222222225L-308.5185185185186,263.37585185185185L-299.6296296296297,262.9817777777778L-290.74074074074076,262.3620740740741L-281.8518518518519,261.77985185185184L-272.96296296296293,261.13733333333334L-264.0740740740741,260.1573333333333L-255.18518518518522,259.13022222222224L-246.29629629629633,258.11925925925925L-237.40740740740742,257.46740740740745L-228.51851851851853,256.7577777777778L-219.62962962962965,256.02844444444446L-210.74074074074073,255.1300740740741L-201.85185185185185,254.1045925925926L-192.96296296296296,253.16162962962963L-184.07407407407408,252.43081481481482L-175.1851851851852,251.83362962962963L-166.2962962962963,251.35200000000003L-157.40740740740742,250.7165925925926L-148.51851851851853,249.8820740740741L-139.62962962962965,249.1583703703704L-130.74074074074073,248.5672592592593L-121.85185185185186,248.16177777777781L-112.96296296296298,247.72533333333334L-104.07407407407408,247.39674074074077L-95.18518518518519,247.20607407407408L-86.2962962962963,246.70325925925928L-77.40740740740742,246.266962962963L-68.51851851851852,245.71896296296296L-59.62962962962963,245.43081481481482L-50.74074074074074,245.15792592592595L-41.851851851851855,244.87925925925927L-32.96296296296297,244.69762962962963L-24.074074074074076,244.34844444444448L-15.185185185185185,243.9808888888889L-6.296296296296297,243.70385185185185L2.592592592592593,243.47955555555558L11.481481481481483,243.29333333333335L20.370370370370374,243.14696296296296L29.25925925925926,242.976L38.148148148148145,242.73496296296298L47.037037037037045,242.5171851851852L55.92592592592593,242.35896296296298L64.81481481481482,242.22711111111113L73.70370370370371,242.12385185185187L82.5925925925926,242.05155555555558L91.4814814814815,241.92488888888892L100.37037037037038,241.7537777777778L109.25925925925927,241.56592592592594L118.14814814814815,241.39437037037038L127.03703703703704,241.28533333333334L135.92592592592592,241.20311111111113L144.8148148148148,241.09985185185187L153.7037037037037,241.01170370370372L162.5925925925926,240.87437037037037L171.4814814814815,240.8180740740741L180.37037037037038,240.70622222222224L189.2592592592593,240.62933333333336L198.14814814814818,240.53792592592595L207.03703703703707,240.510962962963L215.92592592592595,240.3291851851852L224.81481481481484,240.22622222222225L233.70370370370372,240.14503703703707L242.5925925925926,240.04296296296297L251.4814814814815,240.00207407407407L260.3703703703704,239.95140740740743L269.2592592592593,239.91111111111113" stroke="#72b7b2" stroke-width="2" opacity="1"></path></g></g><path class="foreground" aria-hidden="true" d="" display="none"></path></g><g transform="translate(0,0)"><path class="background" aria-hidden="true" d="M0,0h266.6666666666667v266.6666666666667h-266.6666666666667Z"></path><g><g class="mark-line role-mark marks" clip-path="url(#clip5)" role="graphics-object" aria-roledescription="line mark container"><path aria-label="Country: Iran; Date: Mar 01, 2020; Confirmed: 978; Recovered: 175; Deaths: 54; : 978" role="graphics-symbol" aria-roledescription="line mark" d="M-485.9259259259259,266.5217777777778L-477.03703703703707,266.44429629629633L-468.14814814814815,266.3205925925926L-459.2592592592593,266.2337777777778L-450.3703703703704,266.14622222222226L-441.48148148148147,265.96340740740743L-432.5925925925926,265.80400000000003L-423.7037037037037,265.69392592592595L-415.1851851851852,265.6057777777778L-406.2962962962963,265.4752592592593L-397.40740740740745,265.33333333333337L-388.51851851851853,265.1740740740741L-379.6296296296297,264.98311111111116L-370.74074074074076,264.7808888888889L-361.8518518518519,264.6017777777778L-352.962962962963,264.4457777777778L-344.07407407407413,264.2712592592593L-335.1851851851852,264.0946666666667L-326.29629629629636,263.9397037037037L-317.40740740740745,263.75644444444447L-308.5185185185186,263.61333333333334L-299.6296296296297,263.46103703703704L-290.74074074074076,263.252L-281.8518518518519,262.99096296296295L-272.96296296296293,262.6641481481482L-264.0740740740741,262.31022222222225L-255.18518518518522,261.8767407407408L-246.29629629629633,261.4210370370371L-237.40740740740742,260.99125925925927L-228.51851851851853,260.5192592592593L-219.62962962962965,260.05851851851855L-210.74074074074073,259.61585185185186L-201.85185185185185,259.18992592592593L-192.96296296296296,258.7877037037037L-184.07407407407408,258.40844444444446L-175.1851851851852,258.04059259259265L-166.2962962962963,257.7037037037037L-157.40740740740742,257.39422222222225L-148.51851851851853,257.0983703703704L-139.62962962962965,256.8562962962963L-130.74074074074073,256.5641481481482L-121.85185185185186,256.29200000000003L-112.96296296296298,256.04651851851855L-104.07407407407408,255.80696296296298L-95.18518518518519,255.57377777777782L-86.2962962962963,255.3497777777778L-77.40740740740742,255.11185185185187L-68.51851851851852,254.8897777777778L-59.62962962962963,254.68622222222223L-50.74074074074074,254.48725925925928L-41.851851851851855,254.29555555555558L-32.96296296296297,254.10340740740742L-24.074074074074076,253.92651851851852L-15.185185185185185,253.77392592592594L-6.296296296296297,253.6008888888889L2.592592592592593,253.4328888888889L11.481481481481483,253.2620740740741L20.370370370370374,253.1152592592593L29.25925925925926,252.95051851851852L38.148148148148145,252.79155555555556L47.037037037037045,252.64592592592592L55.92592592592593,252.49688888888892L64.81481481481482,252.3780740740741L73.70370370370371,252.2334814814815L82.5925925925926,252.0522962962963L91.4814814814815,251.8562962962963L100.37037037037038,251.6074074074074L109.25925925925927,251.38740740740744L118.14814814814815,251.15688888888891L127.03703703703704,250.93037037037038L135.92592592592592,250.7254814814815L144.8148148148148,250.47614814814818L153.7037037037037,250.25674074074075L162.5925925925926,249.96666666666667L171.4814814814815,249.69881481481485L180.37037037037038,249.38740740740744L189.2592592592593,249.12711111111113L198.14814814814818,248.85955555555557L207.03703703703707,248.51970370370373L215.92592592592595,248.206962962963L224.81481481481484,247.85940740740745L233.70370370370372,247.50503703703706L242.5925925925926,247.1626666666667L251.4814814814815,246.8857777777778L260.3703703703704,246.56281481481486L269.2592592592593,246.26311111111113" stroke="#54a24b" stroke-width="2" opacity="1"></path></g></g><path class="foreground" aria-hidden="true" d="" display="none"></path></g><g transform="translate(0,0)"><path class="background" aria-hidden="true" d="M0,0h266.6666666666667v266.6666666666667h-266.6666666666667Z"></path><g><g class="mark-line role-mark marks" clip-path="url(#clip6)" role="graphics-object" aria-roledescription="line mark container"><path aria-label="Country: Italy; Date: Mar 01, 2020; Confirmed: 1694; Recovered: 83; Deaths: 34; : 1694" role="graphics-symbol" aria-roledescription="line mark" d="M-485.9259259259259,266.41570370370374L-477.03703703703707,266.36503703703704L-468.14814814814815,266.296L-459.2592592592593,266.20903703703704L-450.3703703703704,266.0951111111111L-441.48148148148147,265.9798518518519L-432.5925925925926,265.7951111111111L-423.7037037037037,265.5740740740741L-415.1851851851852,265.30785185185186L-406.2962962962963,265.16311111111116L-397.40740740740745,264.8204444444445L-388.51851851851853,264.4277037037037L-379.6296296296297,264.0503703703704L-370.74074074074076,263.53229629629635L-361.8518518518519,263.00044444444444L-352.962962962963,262.5214814814815L-344.07407407407413,261.9991111111111L-335.1851851851852,261.3758518518519L-326.29629629629636,260.5874074074074L-317.40740740740745,259.7005925925926L-308.5185185185186,258.7291851851852L-299.6296296296297,257.9054814814815L-290.74074074074076,257.196L-281.8518518518519,256.4183703703704L-272.96296296296293,255.64651851851855L-264.0740740740741,254.72755555555557L-255.18518518518522,253.8521481481482L-246.29629629629633,252.9671111111111L-237.40740740740742,252.19422222222224L-228.51851851851853,251.59422222222224L-219.62962962962965,250.99377777777778L-210.74074074074073,250.28533333333337L-201.85185185185185,249.5937777777778L-192.96296296296296,248.91451851851852L-184.07407407407408,248.2026666666667L-175.1851851851852,247.56325925925927L-166.2962962962963,247.0300740740741L-157.40740740740742,246.57985185185188L-148.51851851851853,246.0115555555556L-139.62962962962965,245.38874074074076L-130.74074074074073,244.80340740740743L-121.85185185185186,244.10800000000003L-112.96296296296298,243.5017777777778L-104.07407407407408,243.03466666666668L-95.18518518518519,242.5943703703704L-86.2962962962963,242.19925925925926L-77.40740740740742,241.63837037037038L-68.51851851851852,241.1208888888889L-59.62962962962963,240.6037037037037L-50.74074074074074,240.1522962962963L-41.851851851851855,239.81807407407408L-32.96296296296297,239.41377777777777L-24.074074074074076,238.91451851851855L-15.185185185185185,238.52251851851855L-6.296296296296297,238.07496296296299L2.592592592592593,237.7257777777778L11.481481481481483,237.3814814814815L20.370370370370374,237.12385185185187L29.25925925925926,236.81407407407409L38.148148148148145,236.50503703703706L47.037037037037045,236.22770370370372L55.92592592592593,235.9365925925926L64.81481481481482,235.65511111111113L73.70370370370371,235.44933333333336L82.5925925925926,235.26844444444447L91.4814814814815,235.1091851851852L100.37037037037038,234.89525925925926L109.25925925925927,234.6877037037037L118.14814814814815,234.49111111111114L127.03703703703704,234.33066666666667L135.92592592592592,234.2118518518519L144.8148148148148,234.10162962962966L153.7037037037037,233.89392592592594L162.5925925925926,233.76237037037038L171.4814814814815,233.61540740740745L180.37037037037038,233.49851851851855L189.2592592592593,233.3688888888889L198.14814814814818,233.2688888888889L207.03703703703707,233.2020740740741L215.92592592592595,233.08162962962965L224.81481481481484,232.98311111111113L233.70370370370372,232.888L242.5925925925926,232.79140740740743L251.4814814814815,232.69229629629632L260.3703703703704,232.61362962962963L269.2592592592593,232.5691851851852" stroke="#eeca3b" stroke-width="2" opacity="1"></path></g></g><path class="foreground" aria-hidden="true" d="" display="none"></path></g><g transform="translate(0,0)"><path class="background" aria-hidden="true" d="M0,0h266.6666666666667v266.6666666666667h-266.6666666666667Z"></path><g><g class="mark-line role-mark marks" clip-path="url(#clip7)" role="graphics-object" aria-roledescription="line mark container"><path aria-label="Country: Mexico; Date: Mar 01, 2020; Confirmed: 5; Recovered: 0; Deaths: 0; : 5" role="graphics-symbol" aria-roledescription="line mark" d="M-485.9259259259259,266.66592592592593L-477.03703703703707,266.66592592592593L-468.14814814814815,266.66592592592593L-459.2592592592593,266.66592592592593L-450.3703703703704,266.66592592592593L-441.48148148148147,266.6657777777778L-432.5925925925926,266.6657777777778L-423.7037037037037,266.6656296296296L-415.1851851851852,266.6656296296296L-406.2962962962963,266.6656296296296L-397.40740740740745,266.6654814814815L-388.51851851851853,266.66488888888887L-379.6296296296297,266.66281481481485L-370.74074074074076,266.6605925925926L-361.8518518518519,266.65881481481483L-352.962962962963,266.65451851851856L-344.07407407407413,266.6528888888889L-335.1851851851852,266.6491851851852L-326.29629629629636,266.6423703703704L-317.40740740740745,266.63659259259265L-308.5185185185186,266.6294814814815L-299.6296296296297,266.6198518518519L-290.74074074074076,266.61229629629634L-281.8518518518519,266.6066666666667L-272.96296296296293,266.5962962962963L-264.0740740740741,266.58000000000004L-255.18518518518522,266.5604444444445L-246.29629629629633,266.5410370370371L-237.40740740740742,266.5195555555556L-228.51851851851853,266.5045925925926L-219.62962962962965,266.4866666666667L-210.74074074074073,266.46251851851855L-201.85185185185185,266.442962962963L-192.96296296296296,266.4165925925926L-184.07407407407408,266.3866666666667L-175.1851851851852,266.3491851851852L-166.2962962962963,266.30533333333335L-157.40740740740742,266.2540740740741L-148.51851851851853,266.1954074074074L-139.62962962962965,266.1568888888889L-130.74074074074073,266.0971851851852L-121.85185185185186,266.04162962962965L-112.96296296296298,265.9761481481482L-104.07407407407408,265.92385185185185L-95.18518518518519,265.86681481481486L-86.2962962962963,265.80044444444445L-77.40740740740742,265.7337777777778L-68.51851851851852,265.64814814814815L-59.62962962962963,265.55600000000004L-50.74074074074074,265.4428148148148L-41.851851851851855,265.3671111111111L-32.96296296296297,265.2591111111111L-24.074074074074076,265.1045925925926L-15.185185185185185,264.94325925925926L-6.296296296296297,264.75970370370374L2.592592592592593,264.61600000000004L11.481481481481483,264.49229629629633L20.370370370370374,264.3660740740741L29.25925925925926,264.1848888888889L38.148148148148145,264.0297777777778L47.037037037037045,263.8186666666667L55.92592592592593,263.59422222222224L64.81481481481482,263.3943703703704L73.70370370370371,263.1894814814815L82.5925925925926,262.97703703703706L91.4814814814815,262.81111111111113L100.37037037037038,262.57274074074076L109.25925925925927,262.27911111111115L118.14814814814815,261.99674074074073L127.03703703703704,261.70962962962966L135.92592592592592,261.47822222222226L144.8148148148148,261.28488888888893L153.7037037037037,260.98903703703706L162.5925925925926,260.7131851851852L171.4814814814815,260.3562962962963L180.37037037037038,259.9952592592593L189.2592592592593,259.6823703703704L198.14814814814818,259.37496296296297L207.03703703703707,259.01733333333334L215.92592592592595,258.6154074074074L224.81481481481484,258.28237037037036L233.70370370370372,257.841925925926L242.5925925925926,257.4034074074074L251.4814814814815,256.9102222222222L260.3703703703704,256.50074074074075L269.2592592592593,256.13259259259263" stroke="#b279a2" stroke-width="2" opacity="1"></path></g></g><path class="foreground" aria-hidden="true" d="" display="none"></path></g><g transform="translate(0,0)"><path class="background" aria-hidden="true" d="M0,0h266.6666666666667v266.6666666666667h-266.6666666666667Z"></path><g><g class="mark-line role-mark marks" clip-path="url(#clip8)" role="graphics-object" aria-roledescription="line mark container"><path aria-label="Country: Spain; Date: Mar 01, 2020; Confirmed: 84; Recovered: 2; Deaths: 0; : 84" role="graphics-symbol" aria-roledescription="line mark" d="M-485.9259259259259,266.65422222222224L-477.03703703703707,266.6488888888889L-468.14814814814815,266.64222222222224L-459.2592592592593,266.63377777777777L-450.3703703703704,266.6282962962963L-441.48148148148147,266.60740740740744L-432.5925925925926,266.5925925925926L-423.7037037037037,266.566962962963L-415.1851851851852,266.5077037037037L-406.2962962962963,266.4155555555556L-397.40740740740745,266.32933333333335L-388.51851851851853,266.32933333333335L-379.6296296296297,265.8915555555556L-370.74074074074076,265.7198518518519L-361.8518518518519,265.51140740740743L-352.962962962963,265.1937777777778L-344.07407407407413,264.92622222222224L-335.1851851851852,264.60592592592593L-326.29629629629636,264.0054814814815L-317.40740740740745,263.642962962963L-308.5185185185186,262.9075555555556L-299.6296296296297,262.40474074074075L-290.74074074074076,261.46133333333336L-281.8518518518519,260.7577777777778L-272.96296296296293,259.3311111111111L-264.0740740740741,258.1057777777778L-255.18518518518522,256.9305185185185L-246.29629629629633,255.81703703703707L-237.40740740740742,254.79851851851853L-228.51851851851853,253.63614814814815L-219.62962962962965,252.4558518518519L-210.74074074074073,251.2417777777778L-201.85185185185185,250.06444444444446L-192.96296296296296,249.0075555555556L-184.07407407407408,247.97511111111112L-175.1851851851852,247.16355555555558L-166.2962962962963,246.4185185185185L-157.40740740740742,245.63822222222223L-148.51851851851853,244.70814814814815L-139.62962962962965,243.96711111111114L-130.74074074074073,243.2188148148148L-121.85185185185186,242.5145185185185L-112.96296296296298,241.950962962963L-104.07407407407408,241.46681481481482L-95.18518518518519,241.10503703703705L-86.2962962962963,240.34903703703708L-77.40740740740742,239.266962962963L-68.51851851851852,238.39422222222223L-59.62962962962963,238.26281481481482L-50.74074074074074,237.2334814814815L-41.851851851851855,237.00592592592594L-32.96296296296297,236.41807407407407L-24.074074074074076,235.79422222222226L-15.185185185185185,235.10755555555556L-6.296296296296297,236.5940740740741L2.592592592592593,236.16222222222223L11.481481481481483,235.9060740740741L20.370370370370374,235.63481481481483L29.25925925925926,235.44103703703706L38.148148148148145,235.12340740740743L47.037037037037045,235.04666666666668L55.92592592592593,234.78281481481483L64.81481481481482,234.58044444444445L73.70370370370371,234.44948148148148L82.5925925925926,234.36874074074075L91.4814814814815,234.1734814814815L100.37037037037038,234.02592592592595L109.25925925925927,233.85970370370373L118.14814814814815,233.65081481481485L127.03703703703704,233.544L135.92592592592592,233.42962962962966L144.8148148148148,232.97244444444448L153.7037037037037,232.88444444444445L162.5925925925926,232.78651851851853L171.4814814814815,232.66074074074075L180.37037037037038,232.5654814814815L189.2592592592593,232.48918518518522L198.14814814814818,232.48918518518522L207.03703703703707,232.35466666666667L215.92592592592595,232.29081481481484L224.81481481481484,232.2140740740741L233.70370370370372,232.14266666666668L242.5925925925926,231.87792592592595L251.4814814814815,231.8088888888889L260.3703703703704,231.7374814814815L269.2592592592593,231.7925925925926" stroke="#ff9da6" stroke-width="2" opacity="1"></path></g></g><path class="foreground" aria-hidden="true" d="" display="none"></path></g><g transform="translate(0,0)"><path class="background" aria-hidden="true" d="M0,0h266.6666666666667v266.6666666666667h-266.6666666666667Z"></path><g><g class="mark-line role-mark marks" clip-path="url(#clip9)" role="graphics-object" aria-roledescription="line mark container"><path aria-label="Country: US; Date: Mar 01, 2020; Confirmed: 74; Recovered: 7; Deaths: 1; : 74" role="graphics-symbol" aria-roledescription="line mark" d="M-485.9259259259259,266.6557037037037L-477.03703703703707,266.65214814814817L-468.14814814814815,266.6491851851852L-459.2592592592593,266.64459259259263L-450.3703703703704,266.63422222222226L-441.48148148148147,266.62711111111116L-432.5925925925926,266.606962962963L-423.7037037037037,266.5897777777778L-415.1851851851852,266.57955555555554L-406.2962962962963,266.5241481481482L-397.40740740740745,266.4762962962963L-388.51851851851853,266.41970370370376L-379.6296296296297,266.34355555555555L-370.74074074074076,266.2623703703704L-361.8518518518519,266.1428148148148L-352.962962962963,265.9761481481482L-344.07407407407413,265.71303703703705L-335.1851851851852,265.51392592592595L-326.29629629629636,264.62992592592593L-317.40740740740745,263.81125925925926L-308.5185185185186,262.8740740740741L-299.6296296296297,261.7362962962963L-290.74074074074076,260.16859259259263L-281.8518518518519,258.6777777777778L-272.96296296296293,256.912L-264.0740740740741,254.2465185185185L-255.18518518518522,251.56118518518522L-246.29629629629633,248.6242962962963L-237.40740740740742,245.79111111111112L-228.51851851851853,242.64488888888891L-219.62962962962965,238.78933333333336L-210.74074074074073,235.02192592592593L-201.85185185185185,230.51733333333334L-192.96296296296296,225.8077037037037L-184.07407407407408,220.8848888888889L-175.1851851851852,216.77007407407407L-166.2962962962963,212.3974814814815L-157.40740740740742,207.83392592592594L-148.51851851851853,203.16237037037038L-139.62962962962965,198.02562962962963L-130.74074074074073,193.05985185185187L-121.85185185185186,188.62577777777778L-112.96296296296298,184.3980740740741L-104.07407407407408,180.6482962962963L-95.18518518518519,176.6414814814815L-86.2962962962963,172.34459259259262L-77.40740740740742,167.70651851851852L-68.51851851851852,162.9537777777778L-59.62962962962963,158.13481481481483L-50.74074074074074,154.25051851851853L-41.851851851851855,150.41362962962964L-32.96296296296297,146.39037037037036L-24.074074074074076,142.1702222222222L-15.185185185185185,137.90074074074076L-6.296296296296297,132.53955555555558L2.592592592592593,127.6808888888889L11.481481481481483,123.58740740740743L20.370370370370374,120.2671111111111L29.25925925925926,116.65451851851853L38.148148148148145,112.6060740740741L47.037037037037045,108.23348148148149L55.92592592592593,103.19096296296297L64.81481481481482,98.88311111111112L73.70370370370371,95.10518518518519L82.5925925925926,91.79629629629629L91.4814814814815,88.2442962962963L100.37037037037038,84.54355555555556L109.25925925925927,80.44103703703705L118.14814814814815,76.45496296296297L127.03703703703704,72.65925925925927L135.92592592592592,69.73925925925926L144.8148148148148,66.98059259259261L153.7037037037037,63.79614814814815L162.5925925925926,60.68059259259261L171.4814814814815,56.62607407407408L180.37037037037038,52.91496296296297L189.2592592592593,49.21185185185184L198.14814814814818,46.40637037037037L207.03703703703707,43.213629629629644L215.92592592592595,40.21214814814815L224.81481481481484,36.76251851851852L233.70370370370372,33.01525925925925L242.5925925925926,29.490814814814808L251.4814814814815,26.27970370370371L260.3703703703704,23.222814814814807L269.2592592592593,20.399703703703707" stroke="#9d755d" stroke-width="2" opacity="1"></path></g></g><path class="foreground" aria-hidden="true" d="" display="none"></path></g><g transform="translate(0,0)"><path class="background" aria-hidden="true" d="M0,0h266.6666666666667v266.6666666666667h-266.6666666666667Z"></path><g><g class="mark-line role-mark marks" clip-path="url(#clip10)" role="graphics-object" aria-roledescription="line mark container"><path aria-label="Country: United Kingdom; Date: Mar 01, 2020; Confirmed: 36; Recovered: 8; Deaths: 0; : 36" role="graphics-symbol" aria-roledescription="line mark" d="M-485.9259259259259,266.66133333333335L-477.03703703703707,266.6607407407408L-468.14814814814815,266.65911111111114L-459.2592592592593,266.6540740740741L-450.3703703703704,266.64962962962966L-441.48148148148147,266.6425185185185L-432.5925925925926,266.63614814814815L-423.7037037037037,266.6262222222222L-415.1851851851852,266.6191111111111L-406.2962962962963,266.61007407407413L-397.40740740740745,266.59911111111114L-388.51851851851853,266.59911111111114L-379.6296296296297,266.54844444444444L-370.74074074074076,266.4977777777778L-361.8518518518519,266.4977777777778L-352.962962962963,266.4380740740741L-344.07407407407413,266.3777777777778L-335.1851851851852,266.27762962962964L-326.29629629629636,266.2682962962963L-317.40740740740745,266.07659259259265L-308.5185185185186,265.9232592592593L-299.6296296296297,265.82474074074076L-290.74074074074076,265.6814814814815L-281.8518518518519,265.4700740740741L-272.96296296296293,265.25496296296296L-264.0740740740741,264.93955555555556L-255.18518518518522,264.5121481481482L-246.29629629629633,264.13496296296296L-237.40740740740742,263.77451851851856L-228.51851851851853,263.3865185185185L-219.62962962962965,262.94074074074075L-210.74074074074073,262.30014814814814L-201.85185185185185,261.6714074074074L-192.96296296296296,261.0121481481482L-184.07407407407408,260.45881481481484L-175.1851851851852,259.5842962962963L-166.2962962962963,259.02103703703705L-157.40740740740742,258.48266666666666L-148.51851851851853,257.6691851851852L-139.62962962962965,257.02562962962963L-130.74074074074073,255.73955555555557L-121.85185185185186,254.96429629629634L-112.96296296296298,254.18088888888892L-104.07407407407408,253.53762962962963L-95.18518518518519,252.75955555555555L-86.2962962962963,252.07762962962963L-77.40740740740742,251.39362962962966L-68.51851851851852,250.56414814814815L-59.62962962962963,249.74562962962963L-50.74074074074074,248.878962962963L-41.851851851851855,248.18622222222223L-32.96296296296297,247.54903703703704L-24.074074074074076,246.88962962962964L-15.185185185185185,246.21066666666667L-6.296296296296297,245.41274074074076L2.592592592592593,244.6848888888889L11.481481481481483,244.02370370370372L20.370370370370374,243.38533333333336L29.25925925925926,242.79333333333335L38.148148148148145,242.1894814814815L47.037037037037045,241.29585185185186L55.92592592592593,240.3771851851852L64.81481481481482,239.6651851851852L73.70370370370371,239.0223703703704L82.5925925925926,238.43200000000002L91.4814814814815,237.77925925925928L100.37037037037038,236.87392592592593L109.25925925925927,236.04222222222225L118.14814814814815,235.3534814814815L127.03703703703704,234.77629629629632L135.92592592592592,234.19511111111112L144.8148148148148,233.62074074074076L153.7037037037037,233.1165925925926L162.5925925925926,232.6362962962963L171.4814814814815,232.12577777777778L180.37037037037038,231.5983703703704L189.2592592592593,231.08725925925927L198.14814814814818,230.56370370370374L207.03703703703707,230.1620740740741L215.92592592592595,229.80474074074075L224.81481481481484,229.88251851851854L233.70370370370372,229.49511111111113L242.5925925925926,229.00814814814817L251.4814814814815,228.5697777777778L260.3703703703704,228.2134814814815L269.2592592592593,227.97274074074076" stroke="#bab0ac" stroke-width="2" opacity="1"></path></g></g><path class="foreground" aria-hidden="true" d="" display="none"></path></g></g><g class="mark-group role-legend" role="graphics-symbol" aria-roledescription="legend" aria-label="Symbol legend for stroke color with 10 values: Belgium, Brazil, France, Germany, Iran, ending with United Kingdom"><g transform="translate(285,0)"><path class="background" aria-hidden="true" d="M0,0h79v128h-79Z" pointer-events="none"></path><g><g class="mark-group role-legend-entry"><g transform="translate(0,0)"><path class="background" aria-hidden="true" d="M0,0h0v0h0Z" pointer-events="none"></path><g><g class="mark-group role-scope Country_legend_entries" role="graphics-object" aria-roledescription="group mark container"><g transform="translate(0,0)"><path class="background" aria-hidden="true" d="M0,0h79v11h-79Z" opacity="1"></path><g><g class="mark-symbol role-legend-symbol Country_legend_symbols"><path transform="translate(6,6)" d="M-5,0L5,0" stroke="#4c78a8" stroke-width="1.5" opacity="1"></path></g><g class="mark-text role-legend-label Country_legend_labels"><text text-anchor="start" transform="translate(16,9)" font-family="Roboto Condensed" font-size="10px" fill="#000" opacity="1">Belgium</text></g></g><path class="foreground" aria-hidden="true" d="" display="none"></path></g><g transform="translate(0,13)"><path class="background" aria-hidden="true" d="M0,0h79v11h-79Z" opacity="1"></path><g><g class="mark-symbol role-legend-symbol Country_legend_symbols"><path transform="translate(6,6)" d="M-5,0L5,0" stroke="#f58518" stroke-width="1.5" opacity="1"></path></g><g class="mark-text role-legend-label Country_legend_labels"><text text-anchor="start" transform="translate(16,9)" font-family="Roboto Condensed" font-size="10px" fill="#000" opacity="1">Brazil</text></g></g><path class="foreground" aria-hidden="true" d="" display="none"></path></g><g transform="translate(0,26)"><path class="background" aria-hidden="true" d="M0,0h79v11h-79Z" opacity="1"></path><g><g class="mark-symbol role-legend-symbol Country_legend_symbols"><path transform="translate(6,6)" d="M-5,0L5,0" stroke="#e45756" stroke-width="1.5" opacity="1"></path></g><g class="mark-text role-legend-label Country_legend_labels"><text text-anchor="start" transform="translate(16,9)" font-family="Roboto Condensed" font-size="10px" fill="#000" opacity="1">France</text></g></g><path class="foreground" aria-hidden="true" d="" display="none"></path></g><g transform="translate(0,39)"><path class="background" aria-hidden="true" d="M0,0h79v11h-79Z" opacity="1"></path><g><g class="mark-symbol role-legend-symbol Country_legend_symbols"><path transform="translate(6,6)" d="M-5,0L5,0" stroke="#72b7b2" stroke-width="1.5" opacity="1"></path></g><g class="mark-text role-legend-label Country_legend_labels"><text text-anchor="start" transform="translate(16,9)" font-family="Roboto Condensed" font-size="10px" fill="#000" opacity="1">Germany</text></g></g><path class="foreground" aria-hidden="true" d="" display="none"></path></g><g transform="translate(0,52)"><path class="background" aria-hidden="true" d="M0,0h79v11h-79Z" opacity="1"></path><g><g class="mark-symbol role-legend-symbol Country_legend_symbols"><path transform="translate(6,6)" d="M-5,0L5,0" stroke="#54a24b" stroke-width="1.5" opacity="1"></path></g><g class="mark-text role-legend-label Country_legend_labels"><text text-anchor="start" transform="translate(16,9)" font-family="Roboto Condensed" font-size="10px" fill="#000" opacity="1">Iran</text></g></g><path class="foreground" aria-hidden="true" d="" display="none"></path></g><g transform="translate(0,65)"><path class="background" aria-hidden="true" d="M0,0h79v11h-79Z" opacity="1"></path><g><g class="mark-symbol role-legend-symbol Country_legend_symbols"><path transform="translate(6,6)" d="M-5,0L5,0" stroke="#eeca3b" stroke-width="1.5" opacity="1"></path></g><g class="mark-text role-legend-label Country_legend_labels"><text text-anchor="start" transform="translate(16,9)" font-family="Roboto Condensed" font-size="10px" fill="#000" opacity="1">Italy</text></g></g><path class="foreground" aria-hidden="true" d="" display="none"></path></g><g transform="translate(0,78)"><path class="background" aria-hidden="true" d="M0,0h79v11h-79Z" opacity="1"></path><g><g class="mark-symbol role-legend-symbol Country_legend_symbols"><path transform="translate(6,6)" d="M-5,0L5,0" stroke="#b279a2" stroke-width="1.5" opacity="1"></path></g><g class="mark-text role-legend-label Country_legend_labels"><text text-anchor="start" transform="translate(16,9)" font-family="Roboto Condensed" font-size="10px" fill="#000" opacity="1">Mexico</text></g></g><path class="foreground" aria-hidden="true" d="" display="none"></path></g><g transform="translate(0,91)"><path class="background" aria-hidden="true" d="M0,0h79v11h-79Z" opacity="1"></path><g><g class="mark-symbol role-legend-symbol Country_legend_symbols"><path transform="translate(6,6)" d="M-5,0L5,0" stroke="#ff9da6" stroke-width="1.5" opacity="1"></path></g><g class="mark-text role-legend-label Country_legend_labels"><text text-anchor="start" transform="translate(16,9)" font-family="Roboto Condensed" font-size="10px" fill="#000" opacity="1">Spain</text></g></g><path class="foreground" aria-hidden="true" d="" display="none"></path></g><g transform="translate(0,104)"><path class="background" aria-hidden="true" d="M0,0h79v11h-79Z" opacity="1"></path><g><g class="mark-symbol role-legend-symbol Country_legend_symbols"><path transform="translate(6,6)" d="M-5,0L5,0" stroke="#9d755d" stroke-width="1.5" opacity="1"></path></g><g class="mark-text role-legend-label Country_legend_labels"><text text-anchor="start" transform="translate(16,9)" font-family="Roboto Condensed" font-size="10px" fill="#000" opacity="1">US</text></g></g><path class="foreground" aria-hidden="true" d="" display="none"></path></g><g transform="translate(0,117)"><path class="background" aria-hidden="true" d="M0,0h79v11h-79Z" opacity="1"></path><g><g class="mark-symbol role-legend-symbol Country_legend_symbols"><path transform="translate(6,6)" d="M-5,0L5,0" stroke="#bab0ac" stroke-width="1.5" opacity="1"></path></g><g class="mark-text role-legend-label Country_legend_labels"><text text-anchor="start" transform="translate(16,9)" font-family="Roboto Condensed" font-size="10px" fill="#000" opacity="1">United Kingdom</text></g></g><path class="foreground" aria-hidden="true" d="" display="none"></path></g></g></g><path class="foreground" aria-hidden="true" d="" pointer-events="none" display="none"></path></g></g></g><path class="foreground" aria-hidden="true" d="" pointer-events="none" display="none"></path></g></g><g class="mark-group role-title"><g transform="translate(133.33333333333334,-22)"><path class="background" aria-hidden="true" d="M0,0h0v0h0Z" pointer-events="none"></path><g><g class="mark-text role-title-text" role="graphics-symbol" aria-roledescription="title" aria-label="Title text 'Confirmed (total)'" pointer-events="none"><text text-anchor="middle" transform="translate(0,10)" font-family="Roboto Condensed" font-size="13px" font-weight="normal" fill="#000" opacity="1">Confirmed (total)</text></g></g><path class="foreground" aria-hidden="true" d="" pointer-events="none" display="none"></path></g></g></g><path class="foreground" aria-hidden="true" d="" display="none"></path></g></g></g></svg>