<svg class="marks" width="419.6666666666667" height="305.6666666666667" viewBox="0 0 419.6666666666667 305.6666666666667" version="1.1" xmlns="http://www.w3.org/2000/svg" xmlns:xlink="http://www.w3.org/1999/xlink"><defs><clipPath id="clip1"><rect x="0" y="0" width="266.6666666666667" height="266.6666666666667"></rect></clipPath><clipPath id="clip2"><rect x="0" y="0" width="266.6666666666667" height="266.6666666666667"></rect></clipPath><clipPath id="clip3"><rect x="0" y="0" width="266.6666666666667" height="266.6666666666667"></rect></clipPath><clipPath id="clip4"><rect x="0" y="0" width="266.6666666666667" height="266.6666666666667"></rect></clipPath><clipPath id="clip5"><rect x="0" y="0" width="266.6666666666667" height="266.6666666666667"></rect></clipPath><clipPath id="clip6"><rect x="0" y="0" width="266.6666666666667" height="266.6666666666667"></rect></clipPath><clipPath id="clip7"><rect x="0" y="0" width="266.6666666666667" height="266.6666666666667"></rect></clipPath><clipPath id="clip8"><rect x="0" y="0" width="266.6666666666667" height="266.6666666666667"></rect></clipPath><clipPath id="clip9"><rect x="0" y="0" width="266.6666666666667" height="266.6666666666667"></rect></clipPath><clipPath id="clip10"><rect x="0" y="0" width="266.6666666666667" height="266.6666666666667"></rect></clipPath></defs><rect width="419.6666666666667" height="305.6666666666667" fill="white"></rect><g fill="none" stroke-miterlimit="10" transform="translate(50,22)"><g class="mark-group role-frame root" role="graphics-object" aria-roledescription="group mark container"><g transform="translate(0,0)"><path class="background" aria-hidden="true" d="M0,0h266.6666666666667v266.6666666666667h-266.6666666666667Z" stroke="#ddd" stroke-width="0"></path><g><g class="mark-group role-axis" aria-hidden="true"><g transform="translate(0.5,0.5)"><path class="background" aria-hidden="true" d="M0,0h0v0h0Z" pointer-events="none"></path><g><g class="mark-rule role-axis-grid" pointer-events="none"><line transform="translate(0,267)" x2="266.6666666666667" y2="0" stroke="#ddd" stroke-width="1" opacity="1"></line><line transform="translate(0,211)" x2="266.6666666666667" y2="0" stroke="#ddd" stroke-width="1" opacity="1"></line><line transform="translate(0,156)" x2="266.6666666666667" y2="0" stroke="#ddd" stroke-width="1" opacity="1"></line><line transform="translate(0,100)" x2="266.6666666666667" y2="0" stroke="#ddd" stroke-width="1" opacity="1"></line><line transform="translate(0,44)" x2="266.6666666666667" y2="0" stroke="#ddd" stroke-width="1" opacity="1"></line></g></g><path class="foreground" aria-hidden="true" d="" pointer-events="none" display="none"></path></g></g><g class="mark-group role-axis" role="graphics-symbol" aria-roledescription="axis" aria-label="X-axis for a time scale with values from Wednesday, 22 April 2020, 5:00:00 PM to Friday, 22 May 2020, 5:00:00 PM"><g transform="translate(0.5,267.1666666666667)"><path class="background" aria-hidden="true" d="M0,0h0v0h0Z" pointer-events="none"></path><g><g class="mark-text role-axis-label" pointer-events="none"><text text-anchor="middle" transform="translate(29.25925925925926,10)" font-family="Roboto Condensed" font-size="10px" fill="#000" opacity="1">Apr 26</text><text text-anchor="middle" transform="translate(91.4814814814815,10)" font-family="Roboto Condensed" font-size="10px" fill="#000" opacity="1">May 03</text><text text-anchor="middle" transform="translate(153.7037037037037,10)" font-family="Roboto Condensed" font-size="10px" fill="#000" opacity="1">May 10</text><text text-anchor="middle" transform="translate(215.92592592592595,10)" font-family="Roboto Condensed" font-size="10px" fill="#000" opacity="1">May 17</text></g><g class="mark-rule role-axis-domain" pointer-events="none"><line transform="translate(0,0)" x2="266.6666666666667" y2="0" stroke="lightgray" stroke-width="1" opacity="1"></line></g></g><path class="foreground" aria-hidden="true" d="" pointer-events="none" display="none"></path></g></g><g class="mark-group role-axis" role="graphics-symbol" aria-roledescription="axis" aria-label="Y-axis for a linear scale with values from 0 to 2,400"><g transform="translate(0.5,0.5)"><path class="background" aria-hidden="true" d="M0,0h0v0h0Z" pointer-events="none"></path><g><g class="mark-text role-axis-label" pointer-events="none"><text text-anchor="end" transform="translate(-2,269.6666666666667)" font-family="Roboto Condensed" font-size="10px" fill="#000" opacity="1">0</text><text text-anchor="end" transform="translate(-2,214.11111111111111)" font-family="Roboto Condensed" font-size="10px" fill="#000" opacity="1">500</text><text text-anchor="end" transform="translate(-2,158.55555555555554)" font-family="Roboto Condensed" font-size="10px" fill="#000" opacity="1">1,000</text><text text-anchor="end" transform="translate(-2,103)" font-family="Roboto Condensed" font-size="10px" fill="#000" opacity="1">1,500</text><text text-anchor="end" transform="translate(-2,47.444444444444436)" font-family="Roboto Condensed" font-size="10px" fill="#000" opacity="1">2,000</text></g><g class="mark-rule role-axis-domain" pointer-events="none"><line transform="translate(0,266.6666666666667)" x2="0" y2="-266.6666666666667" stroke="lightgray" stroke-width="1" opacity="1"></line></g></g><path class="foreground" aria-hidden="true" d="" pointer-events="none" display="none"></path></g></g><g class="mark-group role-scope pathgroup" role="graphics-object" aria-roledescription="group mark container"><g transform="translate(0,0)"><path class="background" aria-hidden="true" d="M0,0h266.6666666666667v266.6666666666667h-266.6666666666667Z"></path><g><g class="mark-line role-mark marks" clip-path="url(#clip1)" role="graphics-object" aria-roledescription="line mark container"><path aria-label="Country: Belgium; Date: Mar 01, 2020; Confirmed: 0; Recovered: 0; Deaths: 0; : 0" role="graphics-symbol" aria-roledescription="line mark" d="M-414.81481481481484,266.6666666666667L-405.9259259259259,266.6666666666667L-397.40740740740745,266.6666666666667L-388.51851851851853,266.6666666666667L-379.6296296296297,266.61904761904765L-370.74074074074076,266.61904761904765L-361.8518518518519,266.61904761904765L-352.962962962963,266.60317460317464L-344.07407407407413,266.60317460317464L-335.1851851851852,266.5873015873016L-326.29629629629636,266.5079365079365L-317.40740740740745,266.4920634920635L-308.5185185185186,266.3809523809524L-299.6296296296297,266.12698412698415L-290.74074074074076,265.6666666666667L-281.8518518518519,265.5396825396826L-272.96296296296293,265.3492063492064L-264.0740740740741,264.8888888888889L-255.18518518518522,264.0634920634921L-246.29629629629633,263.5079365079365L-237.40740740740742,262.6666666666667L-228.51851851851853,262.12698412698415L-219.62962962962965,261.015873015873L-210.74074074074073,259.92063492063494L-201.85185185185185,257.41269841269843L-192.96296296296296,256.3492063492064L-184.07407407407408,254.11111111111111L-175.1851851851852,253.11111111111114L-166.2962962962963,251.90476190476193L-157.40740740740742,250.53968253968256L-148.51851851851853,248.90476190476193L-139.62962962962965,245.5555555555556L-130.74074074074073,244.25396825396828L-121.85185185185186,242.66666666666669L-112.96296296296298,236.88888888888889L-104.07407407407408,233.92063492063497L-95.18518518518519,232.4920634920635L-86.2962962962963,230.61904761904765L-77.40740740740742,232.98412698412702L-68.51851851851852,231.74603174603178L-59.62962962962963,229.61904761904765L-50.74074074074074,232.63492063492066L-41.851851851851855,233.22222222222223L-32.96296296296297,233.60317460317464L-24.074074074074076,236.11111111111111L-15.185185185185185,237.44444444444446L-6.296296296296297,237.74603174603175L2.592592592592593,240.74603174603175L11.481481481481483,242.60317460317464L20.370370370370374,243.42857142857144L29.25925925925926,244.2698412698413L38.148148148148145,244.7777777777778L47.037037037037045,245.50793650793653L55.92592592592593,247.00000000000003L64.81481481481482,249.14285714285717L73.70370370370371,250.41269841269843L82.5925925925926,253.20634920634924L91.4814814814815,254.7619047619048L100.37037037037038,255.2857142857143L109.25925925925927,255.7936507936508L118.14814814814815,253.3650793650794L127.03703703703704,253.63492063492063L135.92592592592592,253.6825396825397L144.8148148148148,253.71428571428572L153.7037037037037,253.7777777777778L162.5925925925926,254.23809523809527L171.4814814814815,254.84126984126988L180.37037037037038,258.6666666666667L189.2592592592593,258.92063492063494L198.14814814814818,259.7142857142857L207.03703703703707,259.93650793650795L215.92592592592595,260.3809523809524L224.81481481481484,260.74603174603175L233.70370370370372,261.1587301587302L242.5925925925926,261.7936507936508L251.4814814814815,262.1746031746032L260.3703703703704,262.6507936507937L269.2592592592593,262.984126984127" stroke="#4c78a8" stroke-width="2" opacity="1"></path></g></g><path class="foreground" aria-hidden="true" d="" display="none"></path></g><g transform="translate(0,0)"><path class="background" aria-hidden="true" d="M0,0h266.6666666666667v266.6666666666667h-266.6666666666667Z"></path><g><g class="mark-line role-mark marks" clip-path="url(#clip2)" role="graphics-object" aria-roledescription="line mark container"><path aria-label="Country: Brazil; Date: Mar 01, 2020; Confirmed: 0; Recovered: 0; Deaths: 0; : 0" role="graphics-symbol" aria-roledescription="line mark" d="M-414.81481481481484,266.6666666666667L-405.9259259259259,266.6666666666667L-397.40740740740745,266.6666666666667L-388.51851851851853,266.6666666666667L-379.6296296296297,266.6666666666667L-370.74074074074076,266.6666666666667L-361.8518518518519,266.6666666666667L-352.962962962963,266.6666666666667L-344.07407407407413,266.6666666666667L-335.1851851851852,266.6666666666667L-326.29629629629636,266.6507936507937L-317.40740740740745,266.61904761904765L-308.5185185185186,266.5714285714286L-299.6296296296297,266.4920634920635L-290.74074074074076,266.42857142857144L-281.8518518518519,266.26984126984127L-272.96296296296293,266.12698412698415L-264.0740740740741,265.95238095238096L-255.18518518518522,265.7777777777778L-246.29629629629633,265.5396825396826L-237.40740740740742,265.3809523809524L-228.51851851851853,265.14285714285717L-219.62962962962965,264.9047619047619L-210.74074074074073,264.6825396825397L-201.85185185185185,264.2063492063492L-192.96296296296296,263.7936507936508L-184.07407407407408,262.74603174603175L-175.1851851851852,262.42857142857144L-166.2962962962963,261.3650793650794L-157.40740740740742,261.11111111111114L-148.51851851851853,260.23809523809524L-139.62962962962965,258.968253968254L-130.74074074074073,257.4761904761905L-121.85185185185186,256.73015873015873L-112.96296296296298,255.5873015873016L-104.07407407407408,255.8888888888889L-95.18518518518519,254.96825396825398L-86.2962962962963,254.53968253968256L-77.40740740740742,253.23809523809524L-68.51851851851852,252.11111111111114L-59.62962962962963,251.20634920634922L-50.74074074074074,249.46031746031747L-41.851851851851855,247.14285714285717L-32.96296296296297,247.00000000000003L-24.074074074074076,246.6825396825397L-15.185185185185185,247.4761904761905L-6.296296296296297,248.09523809523813L2.592592592592593,244.33333333333334L11.481481481481483,241.85714285714286L20.370370370370374,239.63492063492066L29.25925925925926,237.71428571428575L38.148148148148145,234.66666666666669L47.037037037037045,229.4920634920635L55.92592592592593,225.2857142857143L64.81481481481482,224.20634920634922L73.70370370370371,223.6825396825397L82.5925925925926,223.74603174603175L91.4814814814815,222.7777777777778L100.37037037037038,222.7936507936508L109.25925925925927,221.34920634920638L118.14814814814815,217.85714285714286L127.03703703703704,216.12698412698413L135.92592592592592,209.44444444444446L144.8148148148148,204.84126984126988L153.7037037037037,202.03174603174605L162.5925925925926,198.63492063492063L171.4814814814815,194.8730158730159L180.37037037037038,192.82539682539684L189.2592592592593,190.33333333333334L198.14814814814818,188.1746031746032L207.03703703703707,187.20634920634924L215.92592592592595,187.3809523809524L224.81481481481484,184.12698412698413L233.70370370370372,179.015873015873L242.5925925925926,177.4761904761905L251.4814814814815,170.66666666666669L260.3703703703704,170.06349206349208L269.2592592592593,165.8571428571429" stroke="#f58518" stroke-width="2" opacity="1"></path></g></g><path class="foreground" aria-hidden="true" d="" display="none"></path></g><g transform="translate(0,0)"><path class="background" aria-hidden="true" d="M0,0h266.6666666666667v266.6666666666667h-266.6666666666667Z"></path><g><g class="mark-line role-mark marks" clip-path="url(#clip3)" role="graphics-object" aria-roledescription="line mark container"><path aria-label="Country: France; Date: Mar 01, 2020; Confirmed: 0; Recovered: 0; Deaths: 0; : 0" role="graphics-symbol" aria-roledescription="line mark" d="M-414.81481481481484,266.5238095238095L-405.9259259259259,266.3968253968254L-397.40740740740745,266.41269841269843L-388.51851851851853,266.2063492063492L-379.6296296296297,265.968253968254L-370.74074074074076,266.00000000000006L-361.8518518518519,265.5555555555556L-352.962962962963,265.3968253968254L-344.07407407407413,265.5238095238095L-335.1851851851852,264.61904761904765L-326.29629629629636,264.8412698412699L-317.40740740740745,265.0793650793651L-308.5185185185186,263.5714285714286L-299.6296296296297,260.77777777777777L-290.74074074074076,259.1904761904762L-281.8518518518519,257.41269841269843L-272.96296296296293,255.36507936507937L-264.0740740740741,251.55555555555557L-255.18518518518522,247.8888888888889L-246.29629629629633,243.60317460317464L-237.40740740740742,242.14285714285717L-228.51851851851853,238.85714285714286L-219.62962962962965,236.00000000000003L-210.74074074074073,232.31746031746033L-201.85185185185185,228.20634920634922L-192.96296296296296,217.90476190476193L-184.07407407407408,208.07936507936506L-175.1851851851852,195.04761904761907L-166.2962962962963,183.3968253968254L-157.40740740740742,179.80952380952385L-148.51851851851853,173.22222222222226L-139.62962962962965,158.65079365079367L-130.74074074074073,164.03174603174602L-121.85185185185186,158.36507936507937L-112.96296296296298,160.4761904761905L-104.07407407407408,167.11111111111114L-95.18518518518519,166.42857142857144L-86.2962962962963,170.5396825396826L-77.40740740740742,181.20634920634922L-68.51851851851852,167L-59.62962962962963,176.33333333333334L-50.74074074074074,179.93650793650795L-41.851851851851855,179.82539682539687L-32.96296296296297,182.52380952380955L-24.074074074074076,182.96825396825398L-15.185185185185185,186.46031746031747L-6.296296296296297,200.61904761904765L2.592592592592593,204.3809523809524L11.481481481481483,210.2698412698413L20.370370370370374,214.60317460317464L29.25925925925926,216.96825396825398L38.148148148148145,218.6984126984127L47.037037037037045,221.20634920634922L55.92592592592593,223.06349206349208L64.81481481481482,226.66666666666669L73.70370370370371,229.3809523809524L82.5925925925926,232.60317460317464L91.4814814814815,234.30158730158732L100.37037037037038,236.41269841269843L109.25925925925927,237.00000000000003L118.14814814814815,239.42857142857147L127.03703703703704,241.20634920634922L135.92592592592592,240.80952380952382L144.8148148148148,242.1904761904762L153.7037037037037,243.22222222222226L162.5925925925926,243.8730158730159L171.4814814814815,243.60317460317464L180.37037037037038,246.66666666666669L189.2592592592593,243.93650793650795L198.14814814814818,246.14285714285717L207.03703703703707,247.42857142857144L215.92592592592595,239.34920634920636L224.81481481481484,241.44444444444446L233.70370370370372,250.39682539682542L242.5925925925926,249.968253968254L251.4814814814815,254.1904761904762L260.3703703703704,255.84126984126985L269.2592592592593,255.80952380952382" stroke="#e45756" stroke-width="2" opacity="1"></path></g></g><path class="foreground" aria-hidden="true" d="" display="none"></path></g><g transform="translate(0,0)"><path class="background" aria-hidden="true" d="M0,0h266.6666666666667v266.6666666666667h-266.6666666666667Z"></path><g><g class="mark-line role-mark marks" clip-path="url(#clip4)" role="graphics-object" aria-roledescription="line mark container"><path aria-label="Country: Germany; Date: Mar 01, 2020; Confirmed: 0; Recovered: 0; Deaths: 0; : 0" role="graphics-symbol" aria-roledescription="line mark" d="M-414.81481481481484,266.6666666666667L-405.9259259259259,266.6666666666667L-397.40740740740745,266.63492063492066L-388.51851851851853,266.63492063492066L-379.6296296296297,266.61904761904765L-370.74074074074076,266.61904761904765L-361.8518518518519,266.5555555555556L-352.962962962963,266.5238095238095L-344.07407407407413,266.4920634920635L-335.1851851851852,266.42857142857144L-326.29629629629636,266.31746031746036L-317.40740740740745,266.26984126984127L-308.5185185185186,266.01587301587307L-299.6296296296297,265.7142857142857L-290.74074074074076,265.4761904761905L-281.8518518518519,265.3492063492064L-272.96296296296293,264.984126984127L-264.0740740740741,264.55555555555554L-255.18518518518522,263.8412698412699L-246.29629629629633,263.12698412698415L-237.40740740740742,262.3015873015873L-228.51851851851853,261.12698412698415L-219.62962962962965,259.6984126984127L-210.74074074074073,258.3809523809524L-201.85185185185185,256.8571428571429L-192.96296296296296,255.33333333333334L-184.07407407407408,253.33333333333334L-175.1851851851852,251.8571428571429L-166.2962962962963,250.61904761904765L-157.40740740740742,249.98412698412702L-148.51851851851853,248.1746031746032L-139.62962962962965,246.968253968254L-130.74074074074073,243.98412698412702L-121.85185185185186,242.85714285714286L-112.96296296296298,242.98412698412702L-104.07407407407408,246.15873015873018L-95.18518518518519,243.84126984126988L-86.2962962962963,244.6984126984127L-77.40740740740742,246.3809523809524L-68.51851851851852,243.57142857142858L-59.62962962962963,243.73015873015873L-50.74074074074074,241.50793650793653L-41.851851851851855,239.31746031746033L-32.96296296296297,241.84126984126985L-24.074074074074076,240.1904761904762L-15.185185185185185,239.06349206349208L-6.296296296296297,243.25396825396825L2.592592592592593,242.4920634920635L11.481481481481483,244.31746031746033L20.370370370370374,244.15873015873018L29.25925925925926,244.6031746031746L38.148148148148145,246.60317460317464L47.037037037037045,246.33333333333334L55.92592592592593,247.80952380952382L64.81481481481482,250.03174603174602L73.70370370370371,251.1746031746032L82.5925925925926,251.82539682539684L91.4814814814815,252.53968253968256L100.37037037037038,252.90476190476193L109.25925925925927,255.8888888888889L118.14814814814815,253.84126984126988L127.03703703703704,254.4603174603175L135.92592592592592,254.3809523809524L144.8148148148148,254.96825396825398L153.7037037037037,255.50793650793653L162.5925925925926,256.0634920634921L171.4814814814815,254.84126984126988L180.37037037037038,257.3650793650794L189.2592592592593,258.8571428571429L198.14814814814818,260.5238095238095L207.03703703703707,260.4920634920635L215.92592592592595,260.42857142857144L224.81481481481484,261.23809523809524L233.70370370370372,261.22222222222223L242.5925925925926,262.1746031746032L251.4814814814815,261.60317460317464L260.3703703703704,261.41269841269843L269.2592592592593,261.5396825396826" stroke="#72b7b2" stroke-width="2" opacity="1"></path></g></g><path class="foreground" aria-hidden="true" d="" display="none"></path></g><g transform="translate(0,0)"><path class="background" aria-hidden="true" d="M0,0h266.6666666666667v266.6666666666667h-266.6666666666667Z"></path><g><g class="mark-line role-mark marks" clip-path="url(#clip5)" role="graphics-object" aria-roledescription="line mark container"><path aria-label="Country: Iran; Date: Mar 01, 2020; Confirmed: 0; Recovered: 0; Deaths: 0; : 0" role="graphics-symbol" aria-roledescription="line mark" d="M-414.81481481481484,265.04761904761904L-405.9259259259259,264.44444444444446L-397.40740740740745,263.95238095238096L-388.51851851851853,263.2698412698413L-379.6296296296297,262.5079365079365L-370.74074074074076,261.5555555555556L-361.8518518518519,260.4761904761905L-352.962962962963,259.26984126984127L-344.07407407407413,258.25396825396825L-335.1851851851852,256.8888888888889L-326.29629629629636,255.6031746031746L-317.40740740740745,254.26984126984127L-308.5185185185186,253.0952380952381L-299.6296296296297,252.0793650793651L-290.74074074074076,251.66666666666669L-281.8518518518519,251.41269841269843L-272.96296296296293,251.44444444444446L-264.0740740740741,251.65079365079367L-255.18518518518522,251.71428571428575L-246.29629629629633,251.5873015873016L-237.40740740740742,251.66666666666669L-228.51851851851853,251.41269841269843L-219.62962962962965,251.50793650793653L-210.74074074074073,251.66666666666669L-201.85185185185185,251.36507936507937L-192.96296296296296,251.44444444444446L-184.07407407407408,251.96825396825398L-175.1851851851852,252.12698412698415L-166.2962962962963,251.82539682539684L-157.40740740740742,251.3809523809524L-148.51851851851853,251.07936507936512L-139.62962962962965,251.20634920634922L-130.74074074074073,251.4761904761905L-121.85185185185186,251.5873015873016L-112.96296296296298,251.7777777777778L-104.07407407407408,252.30158730158732L-95.18518518518519,252.84126984126985L-86.2962962962963,253.23809523809524L-77.40740740740742,253.7936507936508L-68.51851851851852,254.22222222222226L-59.62962962962963,254.61904761904765L-50.74074074074074,255.14285714285714L-41.851851851851855,255.96825396825398L-32.96296296296297,256.44444444444446L-24.074074074074076,256.76190476190476L-15.185185185185185,256.92063492063494L-6.296296296296297,256.92063492063494L2.592592592592593,256.95238095238096L11.481481481481483,256.8888888888889L20.370370370370374,256.8412698412699L29.25925925925926,257.26984126984127L38.148148148148145,257.1904761904762L47.037037037037045,257.46031746031747L55.92592592592593,257.6825396825397L64.81481481481482,257.984126984127L73.70370370370371,258.46031746031747L82.5925925925926,258.63492063492066L91.4814814814815,258.8412698412698L100.37037037037038,259.1904761904762L109.25925925925927,259.31746031746036L118.14814814814815,259.3492063492064L127.03703703703704,259.3968253968254L135.92592592592592,259.5238095238095L144.8148148148148,259.79365079365084L153.7037037037037,259.73015873015873L162.5925925925926,260.1904761904762L171.4814814814815,260.42857142857144L180.37037037037038,260.8730158730159L189.2592592592593,260.82539682539687L198.14814814814818,260.93650793650795L207.03703703703707,261.14285714285717L215.92592592592595,261.14285714285717L224.81481481481484,260.76190476190476L233.70370370370372,260.53968253968253L242.5925925925926,260.3174603174603L251.4814814814815,260.3968253968254L260.3703703703704,260.3492063492064L269.2592592592593,259.968253968254" stroke="#54a24b" stroke-width="2" opacity="1"></path></g></g><path class="foreground" aria-hidden="true" d="" display="none"></path></g><g transform="translate(0,0)"><path class="background" aria-hidden="true" d="M0,0h266.6666666666667v266.6666666666667h-266.6666666666667Z"></path><g><g class="mark-line role-mark marks" clip-path="url(#clip6)" role="graphics-object" aria-roledescription="line mark container"><path aria-label="Country: Italy; Date: Mar 01, 2020; Confirmed: 0; Recovered: 0; Deaths: 0; : 0" role="graphics-symbol" aria-roledescription="line mark" d="M-414.81481481481484,263.42857142857144L-405.9259259259259,261.3968253968254L-397.40740740740745,260.14285714285717L-388.51851851851853,257.9047619047619L-379.6296296296297,255.23809523809527L-370.74074074074076,252.8888888888889L-361.8518518518519,249.6984126984127L-352.962962962963,247.4920634920635L-344.07407407407413,243.7619047619048L-335.1851851851852,239.7619047619048L-326.29629629629636,236.95238095238096L-317.40740740740745,232.52380952380955L-308.5185185185186,228.74603174603178L-299.6296296296297,222.7619047619048L-290.74074074074076,212.95238095238096L-281.8518518518519,208.4603174603175L-272.96296296296293,204.46031746031744L-264.0740740740741,198.14285714285714L-255.18518518518522,194.84126984126985L-246.29629629629633,190.31746031746033L-237.40740740740742,185.6825396825397L-228.51851851851853,184.15873015873015L-219.62962962962965,182.49206349206352L-210.74074074074073,179.14285714285717L-201.85185185185185,177.65079365079367L-192.96296296296296,176.95238095238096L-184.07407407407408,176.1904761904762L-175.1851851851852,178.61904761904762L-166.2962962962963,181.92063492063494L-157.40740740740742,185.58730158730162L-148.51851851851853,188.38095238095238L-139.62962962962965,192.0793650793651L-130.74074074074073,195.015873015873L-121.85185185185186,197.39682539682542L-112.96296296296298,200.5079365079365L-104.07407407407408,201.4920634920635L-95.18518518518519,202.984126984127L-86.2962962962963,204.0952380952381L-77.40740740740742,204.12698412698413L-68.51851851851852,203.55555555555557L-59.62962962962963,204.9047619047619L-50.74074074074074,204.82539682539687L-41.851851851851855,207L-32.96296296296297,206.96825396825398L-24.074074074074076,208.74603174603175L-15.185185185185185,209.82539682539684L-6.296296296296297,212.0634920634921L2.592592592592593,213.03174603174605L11.481481481481483,215.4920634920635L20.370370370370374,216.55555555555554L29.25925925925926,219.30158730158732L38.148148148148145,221.22222222222223L47.037037037037045,223.63492063492066L55.92592592592593,225.44444444444446L64.81481481481482,228.2857142857143L73.70370370370371,230.6825396825397L82.5925925925926,229.74603174603175L91.4814814814815,231.11111111111114L100.37037037037038,233.30158730158732L109.25925925925927,235.61904761904762L118.14814814814815,234.8888888888889L127.03703703703704,235.06349206349208L135.92592592592592,235.47619047619048L144.8148148148148,239.92063492063494L153.7037037037037,240.0634920634921L162.5925925925926,240.31746031746033L171.4814814814815,241.33333333333337L180.37037037037038,244.0952380952381L189.2592592592593,244.2857142857143L198.14814814814818,244.30158730158735L207.03703703703707,244.95238095238096L215.92592592592595,245.2698412698413L224.81481481481484,246.53968253968256L233.70370370370372,246.6984126984127L242.5925925925926,247.23809523809527L251.4814814814815,248.92063492063494L260.3703703703704,250.6984126984127L269.2592592592593,251.23809523809527" stroke="#eeca3b" stroke-width="2" opacity="1"></path></g></g><path class="foreground" aria-hidden="true" d="" display="none"></path></g><g transform="translate(0,0)"><path class="background" aria-hidden="true" d="M0,0h266.6666666666667v266.6666666666667h-266.6666666666667Z"></path><g><g class="mark-line role-mark marks" clip-path="url(#clip7)" role="graphics-object" aria-roledescription="line mark container"><path aria-label="Country: Mexico; Date: Mar 01, 2020; Confirmed: 0; Recovered: 0; Deaths: 0; : 0" role="graphics-symbol" aria-roledescription="line mark" d="M-414.81481481481484,266.6666666666667L-405.9259259259259,266.6666666666667L-397.40740740740745,266.6666666666667L-388.51851851851853,266.6666666666667L-379.6296296296297,266.6666666666667L-370.74074074074076,266.6666666666667L-361.8518518518519,266.6666666666667L-352.962962962963,266.6666666666667L-344.07407407407413,266.6666666666667L-335.1851851851852,266.6666666666667L-326.29629629629636,266.6666666666667L-317.40740740740745,266.6666666666667L-308.5185185185186,266.6507936507937L-299.6296296296297,266.63492063492066L-290.74074074074076,266.63492063492066L-281.8518518518519,266.61904761904765L-272.96296296296293,266.60317460317464L-264.0740740740741,266.5873015873016L-255.18518518518522,266.5714285714286L-246.29629629629633,266.5555555555556L-237.40740740740742,266.5079365079365L-228.51851851851853,266.44444444444446L-219.62962962962965,266.3968253968254L-210.74074074074073,266.2857142857143L-201.85185185185185,266.2857142857143L-192.96296296296296,266.1746031746032L-184.07407407407408,266.00000000000006L-175.1851851851852,265.9047619047619L-166.2962962962963,265.6666666666667L-157.40740740740742,265.4920634920635L-148.51851851851853,265.12698412698415L-139.62962962962965,264.8888888888889L-130.74074074074073,264.4920634920635L-121.85185185185186,264.3809523809524L-112.96296296296298,263.92063492063494L-104.07407407407408,263.5873015873016L-95.18518518518519,263.46031746031747L-86.2962962962963,263.3809523809524L-77.40740740740742,262.46031746031747L-68.51851851851852,262.3015873015873L-59.62962962962963,262.031746031746L-50.74074074074074,261.6984126984127L-41.851851851851855,260.6825396825397L-32.96296296296297,260.4761904761905L-24.074074074074076,260.63492063492066L-15.185185185185185,259.5079365079365L-6.296296296296297,258.3968253968254L2.592592592592593,257.41269841269843L11.481481481481483,255.952380952381L20.370370370370374,256.2698412698413L29.25925925925926,256.11111111111114L38.148148148148145,255.20634920634922L47.037037037037045,255.36507936507937L55.92592592592593,254.57142857142858L64.81481481481482,254.12698412698413L73.70370370370371,254.74603174603175L82.5925925925926,254.66666666666669L91.4814814814815,253.92063492063494L100.37037037037038,253.3809523809524L109.25925925925927,251.7777777777778L118.14814814814815,251.23809523809527L127.03703703703704,249.17460317460322L135.92592592592592,247.80952380952382L144.8148148148148,246.15873015873018L153.7037037037037,245.85714285714286L162.5925925925926,246L171.4814814814815,244.14285714285717L180.37037037037038,242.60317460317464L189.2592592592593,242.60317460317464L198.14814814814818,241.15873015873018L207.03703703703707,239.80952380952382L215.92592592592595,239.4920634920635L224.81481481481484,238.74603174603178L233.70370370370372,239.04761904761907L242.5925925925926,236.984126984127L251.4814814814815,234.39682539682542L260.3703703703704,231.3968253968254L269.2592592592593,232.7936507936508" stroke="#b279a2" stroke-width="2" opacity="1"></path></g></g><path class="foreground" aria-hidden="true" d="" display="none"></path></g><g transform="translate(0,0)"><path class="background" aria-hidden="true" d="M0,0h266.6666666666667v266.6666666666667h-266.6666666666667Z"></path><g><g class="mark-line role-mark marks" clip-path="url(#clip8)" role="graphics-object" aria-roledescription="line mark container"><path aria-label="Country: Spain; Date: Mar 01, 2020; Confirmed: 0; Recovered: 0; Deaths: 0; : 0" role="graphics-symbol" aria-roledescription="line mark" d="M-414.81481481481484,266.5079365079365L-405.9259259259259,266.3968253968254L-397.40740740740745,266.22222222222223L-388.51851851851853,266.12698412698415L-379.6296296296297,265.8412698412699L-370.74074074074076,265.8412698412699L-361.8518518518519,264.63492063492066L-352.962962962963,263.73015873015873L-344.07407407407413,262.3492063492064L-335.1851851851852,261.6825396825397L-326.29629629629636,258.76190476190476L-317.40740740740745,257.63492063492066L-308.5185185185186,254.3650793650794L-299.6296296296297,252.22222222222223L-290.74074074074076,247.93650793650795L-281.8518518518519,243.12698412698413L-272.96296296296293,235.4126984126984L-264.0740740740741,230.55555555555557L-255.18518518518522,218.66666666666669L-246.29629629629633,210.55555555555557L-237.40740740740742,201.66666666666669L-228.51851851851853,193.53968253968256L-219.62962962962965,186.80952380952382L-210.74074074074073,180.8730158730159L-201.85185185185185,176.8888888888889L-192.96296296296296,175.55555555555557L-184.07407407407408,171.6984126984127L-175.1851851851852,170.47619047619048L-166.2962962962963,171.98412698412702L-157.40740740740742,174.00000000000003L-148.51851851851853,177.38095238095238L-139.62962962962965,178.0793650793651L-130.74074074074073,180.8730158730159L-121.85185185185186,185.73015873015873L-112.96296296296298,189.15873015873018L-104.07407407407408,192.71428571428575L-95.18518518518519,194.15873015873018L-86.2962962962963,196.58730158730162L-77.40740740740742,203L-68.51851851851852,204.5079365079365L-59.62962962962963,205.2698412698413L-50.74074074074074,204.42857142857144L-41.851851851851855,212.11111111111111L-32.96296296296297,215.1746031746032L-24.074074074074076,217.52380952380955L-15.185185185185185,215.4603174603175L-6.296296296296297,218.9047619047619L2.592592592592593,221.55555555555557L11.481481481481483,226.63492063492066L20.370370370370374,221.2857142857143L29.25925925925926,223.22222222222226L38.148148148148145,224.30158730158732L47.037037037037045,226.34920634920636L55.92592592592593,226.0634920634921L64.81481481481482,228.7936507936508L73.70370370370371,234.61904761904762L82.5925925925926,231.7777777777778L91.4814814814815,233.74603174603175L100.37037037037038,236.39682539682542L109.25925925925927,238.23809523809524L118.14814814814815,241.55555555555557L127.03703703703704,242.42857142857144L135.92592592592592,238.79365079365084L144.8148148148148,244.7936507936508L153.7037037037037,245.12698412698415L162.5925925925926,245.7777777777778L171.4814814814815,245.92063492063494L180.37037037037038,246.87301587301587L189.2592592592593,246.80952380952382L198.14814814814818,248.25396825396828L207.03703703703707,249.44444444444446L215.92592592592595,251.71428571428575L224.81481481481484,251.34920634920636L233.70370370370372,253.04761904761907L242.5925925925926,254.22222222222226L251.4814814814815,256.8412698412699L260.3703703703704,248.11111111111114L269.2592592592593,248.96825396825398" stroke="#ff9da6" stroke-width="2" opacity="1"></path></g></g><path class="foreground" aria-hidden="true" d="" display="none"></path></g><g transform="translate(0,0)"><path class="background" aria-hidden="true" d="M0,0h266.6666666666667v266.6666666666667h-266.6666666666667Z"></path><g><g class="mark-line role-mark marks" clip-path="url(#clip9)" role="graphics-object" aria-roledescription="line mark container"><path aria-label="Country: US; Date: Mar 01, 2020; Confirmed: 0; Recovered: 0; Deaths: 0; : 0" role="graphics-symbol" aria-roledescription="line mark" d="M-414.81481481481484,266.41269841269843L-405.9259259259259,266.3492063492064L-397.40740740740745,266.41269841269843L-388.51851851851853,266.33333333333337L-379.6296296296297,266.26984126984127L-370.74074074074076,266.1904761904762L-361.8518518518519,266.09523809523813L-352.962962962963,265.984126984127L-344.07407407407413,265.8253968253968L-335.1851851851852,265.42857142857144L-326.29629629629636,264.984126984127L-317.40740740740745,264.61904761904765L-308.5185185185186,263.22222222222223L-299.6296296296297,261.9047619047619L-290.74074074074076,260.60317460317464L-281.8518518518519,258.5238095238095L-272.96296296296293,255.7777777777778L-264.0740740740741,252.74603174603178L-255.18518518518522,248.33333333333334L-246.29629629629633,243.3809523809524L-237.40740740740742,236.20634920634922L-228.51851851851853,230.12698412698413L-219.62962962962965,221.6984126984127L-210.74074074074073,212.53968253968256L-201.85185185185185,197.52380952380952L-192.96296296296296,184.2698412698413L-184.07407407407408,168.06349206349208L-175.1851851851852,155.69841269841268L-166.2962962962963,137.68253968253967L-157.40740740740742,124.52380952380953L-148.51851851851853,112.73015873015873L-139.62962962962965,94.85714285714288L-130.74074074074073,80.01587301587303L-121.85185185185186,70.63492063492066L-112.96296296296298,58.77777777777779L-104.07407407407408,52.44444444444444L-95.18518518518519,49.03174603174602L-86.2962962962963,44.82539682539682L-77.40740740740742,43.31746031746032L-68.51851851851852,36.66666666666666L-59.62962962962963,35.61904761904762L-50.74074074074074,27.444444444444443L-41.851851851851855,22.079365079365086L-32.96296296296297,30.809523809523814L-24.074074074074076,31.492063492063508L-15.185185185185185,31.365079365079367L-6.296296296296297,34.09523809523808L2.592592592592593,30.47619047619046L11.481481481481483,43.41269841269841L20.370370370370374,44.76190476190475L29.25925925925926,45.460317460317455L38.148148148148145,51.857142857142875L47.037037037037045,56.04761904761905L55.92592592592593,51.507936507936535L64.81481481481482,55.99999999999999L73.70370370370371,53.1746031746032L82.5925925925926,66.44444444444444L91.4814814814815,63.47619047619047L100.37037037037038,65.03174603174602L109.25925925925927,64.93650793650794L118.14814814814815,68.44444444444446L127.03703703703704,65.61904761904763L135.92592592592592,72.42857142857143L144.8148148148148,69.42857142857143L153.7037037037037,78.66666666666669L162.5925925925926,80.00000000000001L171.4814814814815,87.42857142857143L180.37037037037038,97.3968253968254L189.2592592592593,104.19047619047622L198.14814814814818,102.38095238095238L207.03703703703707,108.58730158730158L215.92592592592595,107.36507936507935L224.81481481481484,113.25396825396824L233.70370370370372,114.84126984126985L242.5925925925926,118.73015873015876L251.4814814814815,126.92063492063491L260.3703703703704,132.55555555555557L269.2592592592593,134.39682539682542" stroke="#9d755d" stroke-width="2" opacity="1"></path></g></g><path class="foreground" aria-hidden="true" d="" display="none"></path></g><g transform="translate(0,0)"><path class="background" aria-hidden="true" d="M0,0h266.6666666666667v266.6666666666667h-266.6666666666667Z"></path><g><g class="mark-line role-mark marks" clip-path="url(#clip10)" role="graphics-object" aria-roledescription="line mark container"><path aria-label="Country: United Kingdom; Date: Mar 01, 2020; Confirmed: 0; Recovered: 0; Deaths: 0; : 0" role="graphics-symbol" aria-roledescription="line mark" d="M-414.81481481481484,266.63492063492066L-405.9259259259259,266.63492063492066L-397.40740740740745,266.61904761904765L-388.51851851851853,266.5555555555556L-379.6296296296297,266.5555555555556L-370.74074074074076,266.5238095238095L-361.8518518518519,266.5238095238095L-352.962962962963,266.25396825396825L-344.07407407407413,266.01587301587307L-335.1851851851852,265.6825396825397L-326.29629629629636,265.4920634920635L-317.40740740740745,264.95238095238096L-308.5185185185186,264.30158730158735L-299.6296296296297,263.74603174603175L-290.74074074074076,263.14285714285717L-281.8518518518519,262.82539682539687L-272.96296296296293,262.00000000000006L-264.0740740740741,259.8888888888889L-255.18518518518522,257.4761904761905L-246.29629629629633,255.25396825396828L-237.40740740740742,251.31746031746033L-228.51851851851853,247.53968253968256L-219.62962962962965,244.6984126984127L-210.74074074074073,239.93650793650795L-201.85185185185185,236.23809523809527L-192.96296296296296,228.55555555555557L-184.07407407407408,221.11111111111111L-175.1851851851852,214.2857142857143L-166.2962962962963,206.8888888888889L-157.40740740740742,200.06349206349208L-148.51851851851853,196.98412698412702L-139.62962962962965,186.57142857142858L-130.74074074074073,180.7936507936508L-121.85185185185186,173.63492063492063L-112.96296296296298,166.6825396825397L-104.07407407407408,165.42857142857144L-95.18518518518519,164.7619047619048L-86.2962962962963,161.96825396825398L-77.40740740740742,161.87301587301587L-68.51851851851852,164.92063492063494L-59.62962962962963,166.0952380952381L-50.74074074074074,169.53968253968253L-41.851851851851855,165.15873015873018L-32.96296296296297,168.14285714285717L-24.074074074074076,171.0793650793651L-15.185185185185185,169.04761904761907L-6.296296296296297,169.12698412698413L2.592592592592593,173.92063492063494L11.481481481481483,172.80952380952382L20.370370370370374,177.12698412698413L29.25925925925926,178.3650793650794L38.148148148148145,181.8730158730159L47.037037037037045,186.04761904761904L55.92592592592593,186.71428571428572L64.81481481481482,187.55555555555557L73.70370370370371,191.7777777777778L82.5925925925926,195.30158730158732L91.4814814814815,196.968253968254L100.37037037037038,197.7619047619048L109.25925925925927,201.1904761904762L118.14814814814815,203.5079365079365L127.03703703703704,205.65079365079367L135.92592592592592,207.44444444444446L144.8148148148148,211.80952380952382L153.7037037037037,212.55555555555557L162.5925925925926,213.7936507936508L171.4814814814815,214.84126984126985L180.37037037037038,217.30158730158732L189.2592592592593,219.06349206349208L198.14814814814818,222.90476190476193L207.03703703703707,220.968253968254L215.92592592592595,222.52380952380952L224.81481481481484,223.3174603174603L233.70370370370372,224.61904761904762L242.5925925925926,226.69841269841274L251.4814814814815,228.12698412698415L260.3703703703704,228.65079365079364L269.2592592592593,231.6031746031746" stroke="#bab0ac" stroke-width="2" opacity="1"></path></g></g><path class="foreground" aria-hidden="true" d="" display="none"></path></g></g><g class="mark-group role-legend" role="graphics-symbol" aria-roledescription="legend" aria-label="Symbol legend for stroke color with 10 values: Belgium, Brazil, France, Germany, Iran, ending with United Kingdom"><g transform="translate(285,0)"><path class="background" aria-hidden="true" d="M0,0h79v128h-79Z" pointer-events="none"></path><g><g class="mark-group role-legend-entry"><g transform="translate(0,0)"><path class="background" aria-hidden="true" d="M0,0h0v0h0Z" pointer-events="none"></path><g><g class="mark-group role-scope Country_legend_entries" role="graphics-object" aria-roledescription="group mark container"><g transform="translate(0,0)"><path class="background" aria-hidden="true" d="M0,0h79v11h-79Z" opacity="1"></path><g><g class="mark-symbol role-legend-symbol Country_legend_symbols"><path transform="translate(6,6)" d="M-5,0L5,0" stroke="#4c78a8" stroke-width="1.5" opacity="1"></path></g><g class="mark-text role-legend-label Country_legend_labels"><text text-anchor="start" transform="translate(16,9)" font-family="Roboto Condensed" font-size="10px" fill="#000" opacity="1">Belgium</text></g></g><path class="foreground" aria-hidden="true" d="" display="none"></path></g><g transform="translate(0,13)"><path class="background" aria-hidden="true" d="M0,0h79v11h-79Z" opacity="1"></path><g><g class="mark-symbol role-legend-symbol Country_legend_symbols"><path transform="translate(6,6)" d="M-5,0L5,0" stroke="#f58518" stroke-width="1.5" opacity="1"></path></g><g class="mark-text role-legend-label Country_legend_labels"><text text-anchor="start" transform="translate(16,9)" font-family="Roboto Condensed" font-size="10px" fill="#000" opacity="1">Brazil</text></g></g><path class="foreground" aria-hidden="true" d="" display="none"></path></g><g transform="translate(0,26)"><path class="background" aria-hidden="true" d="M0,0h79v11h-79Z" opacity="1"></path><g><g class="mark-symbol role-legend-symbol Country_legend_symbols"><path transform="translate(6,6)" d="M-5,0L5,0" stroke="#e45756" stroke-width="1.5" opacity="1"></path></g><g class="mark-text role-legend-label Country_legend_labels"><text text-anchor="start" transform="translate(16,9)" font-family="Roboto Condensed" font-size="10px" fill="#000" opacity="1">France</text></g></g><path class="foreground" aria-hidden="true" d="" display="none"></path></g><g transform="translate(0,39)"><path class="background" aria-hidden="true" d="M0,0h79v11h-79Z" opacity="1"></path><g><g class="mark-symbol role-legend-symbol Country_legend_symbols"><path transform="translate(6,6)" d="M-5,0L5,0" stroke="#72b7b2" stroke-width="1.5" opacity="1"></path></g><g class="mark-text role-legend-label Country_legend_labels"><text text-anchor="start" transform="translate(16,9)" font-family="Roboto Condensed" font-size="10px" fill="#000" opacity="1">Germany</text></g></g><path class="foreground" aria-hidden="true" d="" display="none"></path></g><g transform="translate(0,52)"><path class="background" aria-hidden="true" d="M0,0h79v11h-79Z" opacity="1"></path><g><g class="mark-symbol role-legend-symbol Country_legend_symbols"><path transform="translate(6,6)" d="M-5,0L5,0" stroke="#54a24b" stroke-width="1.5" opacity="1"></path></g><g class="mark-text role-legend-label Country_legend_labels"><text text-anchor="start" transform="translate(16,9)" font-family="Roboto Condensed" font-size="10px" fill="#000" opacity="1">Iran</text></g></g><path class="foreground" aria-hidden="true" d="" display="none"></path></g><g transform="translate(0,65)"><path class="background" aria-hidden="true" d="M0,0h79v11h-79Z" opacity="1"></path><g><g class="mark-symbol role-legend-symbol Country_legend_symbols"><path transform="translate(6,6)" d="M-5,0L5,0" stroke="#eeca3b" stroke-width="1.5" opacity="1"></path></g><g class="mark-text role-legend-label Country_legend_labels"><text text-anchor="start" transform="translate(16,9)" font-family="Roboto Condensed" font-size="10px" fill="#000" opacity="1">Italy</text></g></g><path class="foreground" aria-hidden="true" d="" display="none"></path></g><g transform="translate(0,78)"><path class="background" aria-hidden="true" d="M0,0h79v11h-79Z" opacity="1"></path><g><g class="mark-symbol role-legend-symbol Country_legend_symbols"><path transform="translate(6,6)" d="M-5,0L5,0" stroke="#b279a2" stroke-width="1.5" opacity="1"></path></g><g class="mark-text role-legend-label Country_legend_labels"><text text-anchor="start" transform="translate(16,9)" font-family="Roboto Condensed" font-size="10px" fill="#000" opacity="1">Mexico</text></g></g><path class="foreground" aria-hidden="true" d="" display="none"></path></g><g transform="translate(0,91)"><path class="background" aria-hidden="true" d="M0,0h79v11h-79Z" opacity="1"></path><g><g class="mark-symbol role-legend-symbol Country_legend_symbols"><path transform="translate(6,6)" d="M-5,0L5,0" stroke="#ff9da6" stroke-width="1.5" opacity="1"></path></g><g class="mark-text role-legend-label Country_legend_labels"><text text-anchor="start" transform="translate(16,9)" font-family="Roboto Condensed" font-size="10px" fill="#000" opacity="1">Spain</text></g></g><path class="foreground" aria-hidden="true" d="" display="none"></path></g><g transform="translate(0,104)"><path class="background" aria-hidden="true" d="M0,0h79v11h-79Z" opacity="1"></path><g><g class="mark-symbol role-legend-symbol Country_legend_symbols"><path transform="translate(6,6)" d="M-5,0L5,0" stroke="#9d755d" stroke-width="1.5" opacity="1"></path></g><g class="mark-text role-legend-label Country_legend_labels"><text text-anchor="start" transform="translate(16,9)" font-family="Roboto Condensed" font-size="10px" fill="#000" opacity="1">US</text></g></g><path class="foreground" aria-hidden="true" d="" display="none"></path></g><g transform="translate(0,117)"><path class="background" aria-hidden="true" d="M0,0h79v11h-79Z" opacity="1"></path><g><g class="mark-symbol role-legend-symbol Country_legend_symbols"><path transform="translate(6,6)" d="M-5,0L5,0" stroke="#bab0ac" stroke-width="1.5" opacity="1"></path></g><g class="mark-text role-legend-label Country_legend_labels"><text text-anchor="start" transform="translate(16,9)" font-family="Roboto Condensed" font-size="10px" fill="#000" opacity="1">United Kingdom</text></g></g><path class="foreground" aria-hidden="true" d="" display="none"></path></g></g></g><path class="foreground" aria-hidden="true" d="" pointer-events="none" display="none"></path></g></g></g><path class="foreground" aria-hidden="true" d="" pointer-events="none" display="none"></path></g></g><g class="mark-group role-title"><g transform="translate(133.33333333333334,-17)"><path class="background" aria-hidden="true" d="M0,0h0v0h0Z" pointer-events="none"></path><g><g class="mark-text role-title-text" role="graphics-symbol" aria-roledescription="title" aria-label="Title text 'Deaths/7-day average'" pointer-events="none"><text text-anchor="middle" transform="translate(0,10)" font-family="Roboto Condensed" font-size="13px" font-weight="normal" fill="#000" opacity="1">Deaths/7-day average</text></g></g><path class="foreground" aria-hidden="true" d="" pointer-events="none" display="none"></path></g></g></g><path class="foreground" aria-hidden="true" d="" display="none"></path></g></g></g></svg>