<svg class="marks" width="419.6666666666667" height="310.6666666666667" viewBox="0 0 419.6666666666667 310.6666666666667" version="1.1" xmlns="http://www.w3.org/2000/svg" xmlns:xlink="http://www.w3.org/1999/xlink"><defs><clipPath id="clip1"><rect x="0" y="0" width="266.6666666666667" height="266.6666666666667"></rect></clipPath><clipPath id="clip2"><rect x="0" y="0" width="266.6666666666667" height="266.6666666666667"></rect></clipPath><clipPath id="clip3"><rect x="0" y="0" width="266.6666666666667" height="266.6666666666667"></rect></clipPath><clipPath id="clip4"><rect x="0" y="0" width="266.6666666666667" height="266.6666666666667"></rect></clipPath><clipPath id="clip5"><rect x="0" y="0" width="266.6666666666667" height="266.6666666666667"></rect></clipPath><clipPath id="clip6"><rect x="0" y="0" width="266.6666666666667" height="266.6666666666667"></rect></clipPath><clipPath id="clip7"><rect x="0" y="0" width="266.6666666666667" height="266.6666666666667"></rect></clipPath><clipPath id="clip8"><rect x="0" y="0" width="266.6666666666667" height="266.6666666666667"></rect></clipPath><clipPath id="clip9"><rect x="0" y="0" width="266.6666666666667" height="266.6666666666667"></rect></clipPath><clipPath id="clip10"><rect x="0" y="0" width="266.6666666666667" height="266.6666666666667"></rect></clipPath></defs><rect width="419.6666666666667" height="310.6666666666667" fill="white"></rect><g fill="none" stroke-miterlimit="10" transform="translate(50,27)"><g class="mark-group role-frame root" role="graphics-object" aria-roledescription="group mark container"><g transform="translate(0,0)"><path class="background" aria-hidden="true" d="M0,0h266.6666666666667v266.6666666666667h-266.6666666666667Z" stroke="#ddd" stroke-width="0"></path><g><g class="mark-group role-axis" aria-hidden="true"><g transform="translate(0.5,0.5)"><path class="background" aria-hidden="true" d="M0,0h0v0h0Z" pointer-events="none"></path><g><g class="mark-rule role-axis-grid" pointer-events="none"><line transform="translate(0,267)" x2="266.6666666666667" y2="0" stroke="#ddd" stroke-width="1" opacity="1"></line><line transform="translate(0,213)" x2="266.6666666666667" y2="0" stroke="#ddd" stroke-width="1" opacity="1"></line><line transform="translate(0,160)" x2="266.6666666666667" y2="0" stroke="#ddd" stroke-width="1" opacity="1"></line><line transform="translate(0,107)" x2="266.6666666666667" y2="0" stroke="#ddd" stroke-width="1" opacity="1"></line><line transform="translate(0,53)" x2="266.6666666666667" y2="0" stroke="#ddd" stroke-width="1" opacity="1"></line><line transform="translate(0,0)" x2="266.6666666666667" y2="0" stroke="#ddd" stroke-width="1" opacity="1"></line></g></g><path class="foreground" aria-hidden="true" d="" pointer-events="none" display="none"></path></g></g><g class="mark-group role-axis" role="graphics-symbol" aria-roledescription="axis" aria-label="X-axis for a time scale with values from Wednesday, 22 April 2020, 5:00:00 PM to Friday, 22 May 2020, 5:00:00 PM"><g transform="translate(0.5,267.1666666666667)"><path class="background" aria-hidden="true" d="M0,0h0v0h0Z" pointer-events="none"></path><g><g class="mark-text role-axis-label" pointer-events="none"><text text-anchor="middle" transform="translate(29.25925925925926,10)" font-family="Roboto Condensed" font-size="10px" fill="#000" opacity="1">Apr 26</text><text text-anchor="middle" transform="translate(91.4814814814815,10)" font-family="Roboto Condensed" font-size="10px" fill="#000" opacity="1">May 03</text><text text-anchor="middle" transform="translate(153.7037037037037,10)" font-family="Roboto Condensed" font-size="10px" fill="#000" opacity="1">May 10</text><text text-anchor="middle" transform="translate(215.92592592592595,10)" font-family="Roboto Condensed" font-size="10px" fill="#000" opacity="1">May 17</text></g><g class="mark-rule role-axis-domain" pointer-events="none"><line transform="translate(0,0)" x2="266.6666666666667" y2="0" stroke="lightgray" stroke-width="1" opacity="1"></line></g></g><path class="foreground" aria-hidden="true" d="" pointer-events="none" display="none"></path></g></g><g class="mark-group role-axis" role="graphics-symbol" aria-roledescription="axis" aria-label="Y-axis for a linear scale with values from 0 to 100,000"><g transform="translate(0.5,0.5)"><path class="background" aria-hidden="true" d="M0,0h0v0h0Z" pointer-events="none"></path><g><g class="mark-text role-axis-label" pointer-events="none"><text text-anchor="end" transform="translate(-2,269.6666666666667)" font-family="Roboto Condensed" font-size="10px" fill="#000" opacity="1">0</text><text text-anchor="end" transform="translate(-2,216.33333333333337)" font-family="Roboto Condensed" font-size="10px" fill="#000" opacity="1">20,000</text><text text-anchor="end" transform="translate(-2,163)" font-family="Roboto Condensed" font-size="10px" fill="#000" opacity="1">40,000</text><text text-anchor="end" transform="translate(-2,109.66666666666669)" font-family="Roboto Condensed" font-size="10px" fill="#000" opacity="1">60,000</text><text text-anchor="end" transform="translate(-2,56.33333333333333)" font-family="Roboto Condensed" font-size="10px" fill="#000" opacity="1">80,000</text><text text-anchor="end" transform="translate(-2,3)" font-family="Roboto Condensed" font-size="10px" fill="#000" opacity="1">100,000</text></g><g class="mark-rule role-axis-domain" pointer-events="none"><line transform="translate(0,266.6666666666667)" x2="0" y2="-266.6666666666667" stroke="lightgray" stroke-width="1" opacity="1"></line></g></g><path class="foreground" aria-hidden="true" d="" pointer-events="none" display="none"></path></g></g><g class="mark-group role-scope pathgroup" role="graphics-object" aria-roledescription="group mark container"><g transform="translate(0,0)"><path class="background" aria-hidden="true" d="M0,0h266.6666666666667v266.6666666666667h-266.6666666666667Z"></path><g><g class="mark-line role-mark marks" clip-path="url(#clip1)" role="graphics-object" aria-roledescription="line mark container"><path aria-label="Country: Belgium; Date: Mar 01, 2020; Confirmed: 2; Recovered: 1; Deaths: 0; : 0" role="graphics-symbol" aria-roledescription="line mark" d="M-468.14814814814815,266.6666666666667L-459.2592592592593,266.6666666666667L-450.3703703703704,266.6666666666667L-441.48148148148147,266.6666666666667L-432.5925925925926,266.6666666666667L-423.7037037037037,266.6666666666667L-414.81481481481484,266.6666666666667L-405.9259259259259,266.6666666666667L-397.40740740740745,266.6666666666667L-388.51851851851853,266.6666666666667L-379.6296296296297,266.6586666666667L-370.74074074074076,266.6586666666667L-361.8518518518519,266.6586666666667L-352.962962962963,266.656L-344.07407407407413,266.656L-335.1851851851852,266.65333333333336L-326.29629629629636,266.64000000000004L-317.40740740740745,266.62933333333336L-308.5185185185186,266.61066666666665L-299.6296296296297,266.56800000000004L-290.74074074074076,266.48800000000006L-281.8518518518519,266.4666666666667L-272.96296296296293,266.432L-264.0740740740741,266.34133333333335L-255.18518518518522,266.192L-246.29629629629633,266.08000000000004L-237.40740740740742,265.896L-228.51851851851853,265.72533333333337L-219.62962962962965,265.51733333333334L-210.74074074074073,265.2986666666667L-201.85185185185185,264.7866666666667L-192.96296296296296,264.4586666666667L-184.07407407407408,263.9706666666667L-175.1851851851852,263.6186666666667L-166.2962962962963,263.24533333333335L-157.40740740740742,262.80800000000005L-148.51851851851853,262.3146666666667L-139.62962962962965,261.24L-130.74074074074073,260.6933333333334L-121.85185185185186,259.9386666666667L-112.96296296296298,258.616L-104.07407407407408,257.744L-95.18518518518519,257.06666666666666L-86.2962962962963,256.25866666666667L-77.40740740740742,255.58133333333336L-68.51851851851852,254.82666666666668L-59.62962962962963,253.7146666666667L-50.74074074074074,252.89866666666668L-41.851851851851855,252.12533333333337L-32.96296296296297,251.512L-24.074074074074076,251.12533333333334L-15.185185185185185,250.672L-6.296296296296297,249.96800000000002L2.592592592592593,249.36000000000004L11.481481481481483,248.85600000000002L20.370370370370374,248.22133333333338L29.25925925925926,247.74933333333334L38.148148148148145,247.44800000000004L47.037037037037045,247.11733333333336L55.92592592592593,246.66400000000002L64.81481481481482,246.41600000000003L73.70370370370371,246.12533333333334L82.5925925925926,245.96L91.4814814814815,245.74933333333337L100.37037037037038,245.53600000000003L109.25925925925927,245.29066666666668L118.14814814814815,244.42933333333335L127.03703703703704,244.2266666666667L135.92592592592592,243.94400000000002L144.8148148148148,243.78400000000002L153.7037037037037,243.58400000000003L162.5925925925926,243.44800000000004L171.4814814814815,243.30400000000003L180.37037037037038,243.08533333333335L189.2592592592593,242.92533333333336L198.14814814814818,242.776L207.03703703703707,242.65333333333336L215.92592592592595,242.528L224.81481481481484,242.45333333333335L233.70370370370372,242.37866666666667L242.5925925925926,242.26666666666668L251.4814814814815,242.17066666666668L260.3703703703704,242.10133333333334L269.2592592592593,242.0346666666667" stroke="#4c78a8" stroke-width="2" opacity="1"></path></g></g><path class="foreground" aria-hidden="true" d="" display="none"></path></g><g transform="translate(0,0)"><path class="background" aria-hidden="true" d="M0,0h266.6666666666667v266.6666666666667h-266.6666666666667Z"></path><g><g class="mark-line role-mark marks" clip-path="url(#clip2)" role="graphics-object" aria-roledescription="line mark container"><path aria-label="Country: Brazil; Date: Mar 01, 2020; Confirmed: 2; Recovered: 0; Deaths: 0; : 0" role="graphics-symbol" aria-roledescription="line mark" d="M-468.14814814814815,266.6666666666667L-459.2592592592593,266.6666666666667L-450.3703703703704,266.6666666666667L-441.48148148148147,266.6666666666667L-432.5925925925926,266.6666666666667L-423.7037037037037,266.6666666666667L-414.81481481481484,266.6666666666667L-405.9259259259259,266.6666666666667L-397.40740740740745,266.6666666666667L-388.51851851851853,266.6666666666667L-379.6296296296297,266.6666666666667L-370.74074074074076,266.6666666666667L-361.8518518518519,266.6666666666667L-352.962962962963,266.6666666666667L-344.07407407407413,266.6666666666667L-335.1851851851852,266.6666666666667L-326.29629629629636,266.66400000000004L-317.40740740740745,266.6586666666667L-308.5185185185186,266.6506666666667L-299.6296296296297,266.63733333333334L-290.74074074074076,266.62666666666667L-281.8518518518519,266.6L-272.96296296296293,266.576L-264.0740740740741,266.54400000000004L-255.18518518518522,266.50933333333336L-246.29629629629633,266.46133333333336L-237.40740740740742,266.42133333333334L-228.51851851851853,266.3706666666667L-219.62962962962965,266.30400000000003L-210.74074074074073,266.2426666666667L-201.85185185185185,266.1306666666667L-192.96296296296296,266.0266666666667L-184.07407407407408,265.80266666666665L-175.1851851851852,265.70933333333335L-166.2962962962963,265.48L-157.40740740740742,265.3706666666667L-148.51851851851853,265.16266666666667L-139.62962962962965,264.83733333333333L-130.74074074074073,264.48266666666666L-121.85185185185186,264.1333333333334L-112.96296296296298,263.848L-104.07407407407408,263.6693333333333L-95.18518518518519,263.4053333333334L-86.2962962962963,263.12533333333334L-77.40740740740742,262.58133333333336L-68.51851851851852,262.0373333333333L-59.62962962962963,261.536L-50.74074074074074,260.95733333333334L-41.851851851851855,260.38933333333335L-32.96296296296297,260.10133333333334L-24.074074074074076,259.76800000000003L-15.185185185185185,259.3573333333333L-6.296296296296297,258.9173333333334L2.592592592592593,257.78400000000005L11.481481481481483,256.7893333333334L20.370370370370374,255.848L29.25925925925926,255.23733333333334L38.148148148148145,254.39200000000002L47.037037037037045,253.112L55.92592592592593,251.96533333333335L64.81481481481482,250.6506666666667L73.70370370370371,249.56800000000004L82.5925925925926,248.63733333333337L91.4814814814815,247.86400000000003L100.37037037037038,247.02133333333336L109.25925925925927,245.49866666666668L118.14814814814815,243.76533333333336L127.03703703703704,242.16000000000003L135.92592592592592,239.9546666666667L144.8148148148148,238.2506666666667L153.7037037037037,237.00533333333337L162.5925925925926,235.592L171.4814814814815,233.43733333333336L180.37037037037038,231.36L189.2592592592593,229.336L198.14814814814818,226.76800000000003L207.03703703703707,224.90133333333335L215.92592592592595,223.68533333333335L224.81481481481484,221.72533333333334L233.70370370370372,218.71200000000005L242.5925925925926,216.376L251.4814814814815,213.208L260.3703703703704,210.53866666666667L269.2592592592593,207.96533333333338" stroke="#f58518" stroke-width="2" opacity="1"></path></g></g><path class="foreground" aria-hidden="true" d="" display="none"></path></g><g transform="translate(0,0)"><path class="background" aria-hidden="true" d="M0,0h266.6666666666667v266.6666666666667h-266.6666666666667Z"></path><g><g class="mark-line role-mark marks" clip-path="url(#clip3)" role="graphics-object" aria-roledescription="line mark container"><path aria-label="Country: France; Date: Mar 01, 2020; Confirmed: 130; Recovered: 12; Deaths: 2; : 2" role="graphics-symbol" aria-roledescription="line mark" d="M-468.14814814814815,266.66133333333335L-459.2592592592593,266.6586666666667L-450.3703703703704,266.656L-441.48148148148147,266.656L-432.5925925925926,266.6506666666667L-423.7037037037037,266.6426666666667L-414.81481481481484,266.63733333333334L-405.9259259259259,266.616L-397.40740740740745,266.616L-388.51851851851853,266.57866666666666L-379.6296296296297,266.5386666666667L-370.74074074074076,266.5386666666667L-361.8518518518519,266.456L-352.962962962963,266.42400000000004L-344.07407407407413,266.42400000000004L-335.1851851851852,266.272L-326.29629629629636,266.272L-317.40740740740745,266.272L-308.5185185185186,266.01866666666666L-299.6296296296297,265.4666666666667L-290.74074074074076,265.168L-281.8518518518519,264.8693333333334L-272.96296296296293,264.37333333333333L-264.0740740740741,263.73333333333335L-255.18518518518522,263.11733333333336L-246.29629629629633,262.144L-237.40740740740742,261.3466666666667L-228.51851851851853,260.496L-219.62962962962965,259.7173333333334L-210.74074074074073,258.60266666666666L-201.85185185185185,257.27200000000005L-192.96296296296296,254.92533333333336L-184.07407407407408,252.30133333333336L-175.1851851851852,249.31466666666668L-166.2962962962963,246.5066666666667L-157.40740740740742,245.12533333333337L-148.51851851851853,242.90400000000002L-139.62962962962965,239.12533333333334L-130.74074074074073,237.6826666666667L-121.85185185185186,234.10666666666668L-112.96296296296298,231.47466666666668L-104.07407407407408,229.78133333333335L-95.18518518518519,228.28533333333334L-86.2962962962963,226.75466666666668L-77.40740740740742,224.768L-68.51851851851852,220.9386666666667L-59.62962962962963,218.9306666666667L-50.74074074074074,216.90400000000002L-41.851851851851855,215.192L-32.96296296296297,214.14933333333335L-24.074074074074076,212.69333333333333L-15.185185185185185,211.29333333333335L-6.296296296296297,209.84266666666667L2.592592592592593,208.46666666666667L11.481481481481483,207.42933333333335L20.370370370370374,206.44533333333337L29.25925925925926,205.8L38.148148148148145,204.63466666666667L47.037037037037045,203.656L55.92592592592593,202.51733333333334L64.81481481481482,201.7466666666667L73.70370370370371,201.16533333333334L82.5925925925926,200.72266666666667L91.4814814814815,200.36266666666668L100.37037037037038,199.55200000000002L109.25925925925927,198.67200000000003L118.14814814814815,197.94133333333335L127.03703703703704,197.46933333333334L135.92592592592592,196.82133333333337L144.8148148148148,196.61066666666667L153.7037037037037,196.42400000000004L162.5925925925926,195.72266666666667L171.4814814814815,194.79733333333334L180.37037037037038,194.58133333333333L189.2592592592593,193.6506666666667L198.14814814814818,193.37333333333333L207.03703703703707,193.37866666666667L215.92592592592595,191.8346666666667L224.81481481481484,191.48533333333333L233.70370370370372,192.06400000000002L242.5925925925926,191.776L251.4814814814815,191.5546666666667L260.3703703703704,191.5546666666667L269.2592592592593,191.5546666666667" stroke="#e45756" stroke-width="2" opacity="1"></path></g></g><path class="foreground" aria-hidden="true" d="" display="none"></path></g><g transform="translate(0,0)"><path class="background" aria-hidden="true" d="M0,0h266.6666666666667v266.6666666666667h-266.6666666666667Z"></path><g><g class="mark-line role-mark marks" clip-path="url(#clip4)" role="graphics-object" aria-roledescription="line mark container"><path aria-label="Country: Germany; Date: Mar 01, 2020; Confirmed: 130; Recovered: 16; Deaths: 0; : 0" role="graphics-symbol" aria-roledescription="line mark" d="M-468.14814814814815,266.6666666666667L-459.2592592592593,266.6666666666667L-450.3703703703704,266.6666666666667L-441.48148148148147,266.6666666666667L-432.5925925925926,266.6666666666667L-423.7037037037037,266.6666666666667L-414.81481481481484,266.6666666666667L-405.9259259259259,266.6666666666667L-397.40740740740745,266.66133333333335L-388.51851851851853,266.66133333333335L-379.6296296296297,266.6586666666667L-370.74074074074076,266.6586666666667L-361.8518518518519,266.648L-352.962962962963,266.6426666666667L-344.07407407407413,266.63733333333334L-335.1851851851852,266.6213333333333L-326.29629629629636,266.60266666666666L-317.40740740740745,266.59200000000004L-308.5185185185186,266.5493333333334L-299.6296296296297,266.48800000000006L-290.74074074074076,266.4426666666667L-281.8518518518519,266.416L-272.96296296296293,266.3386666666667L-264.0740740740741,266.24800000000005L-255.18518518518522,266.11733333333336L-246.29629629629633,265.9546666666667L-237.40740740740742,265.7546666666667L-228.51851851851853,265.51200000000006L-219.62962962962965,265.24533333333335L-210.74074074074073,264.9466666666667L-201.85185185185185,264.6L-192.96296296296296,264.21333333333337L-184.07407407407408,263.7146666666667L-175.1851851851852,263.26666666666665L-166.2962962962963,262.81600000000003L-157.40740740740742,262.4426666666667L-148.51851851851853,261.84000000000003L-139.62962962962965,261.2906666666667L-130.74074074074073,260.4026666666667L-121.85185185185186,259.7146666666667L-112.96296296296298,259.288L-104.07407407407408,259.3706666666667L-95.18518518518519,258.608L-86.2962962962963,258.14933333333335L-77.40740740740742,257.8826666666667L-68.51851851851852,256.5226666666667L-59.62962962962963,255.86133333333336L-50.74074074074074,255.06133333333335L-41.851851851851855,254.776L-32.96296296296297,254.43733333333336L-24.074074074074076,253.70133333333337L-15.185185185185185,253.24533333333335L-6.296296296296297,252.58933333333334L2.592592592592593,251.80000000000004L11.481481481481483,251.3066666666667L20.370370370370374,250.9946666666667L29.25925925925926,250.73066666666668L38.148148148148145,250.3306666666667L47.037037037037045,249.82933333333335L55.92592592592593,249.42133333333334L64.81481481481482,249.00533333333334L73.70370370370371,248.70400000000004L82.5925925925926,248.50133333333335L91.4814814814815,248.35733333333337L100.37037037037038,248.01866666666666L109.25925925925927,248.01866666666666L118.14814814814815,247.26666666666668L127.03703703703704,246.9546666666667L135.92592592592592,246.64000000000004L144.8148148148148,246.536L153.7037037037037,246.4826666666667L162.5925925925926,246.23733333333337L171.4814814814815,246.032L180.37037037037038,245.70400000000004L189.2592592592593,245.64266666666668L198.14814814814818,245.60800000000003L207.03703703703707,245.49866666666668L215.92592592592595,245.4346666666667L224.81481481481484,245.32533333333333L233.70370370370372,245.11733333333333L242.5925925925926,244.94933333333336L251.4814814814815,244.792L260.3703703703704,244.72533333333334L269.2592592592593,244.63733333333337" stroke="#72b7b2" stroke-width="2" opacity="1"></path></g></g><path class="foreground" aria-hidden="true" d="" display="none"></path></g><g transform="translate(0,0)"><path class="background" aria-hidden="true" d="M0,0h266.6666666666667v266.6666666666667h-266.6666666666667Z"></path><g><g class="mark-line role-mark marks" clip-path="url(#clip5)" role="graphics-object" aria-roledescription="line mark container"><path aria-label="Country: Iran; Date: Mar 01, 2020; Confirmed: 978; Recovered: 175; Deaths: 54; : 54" role="graphics-symbol" aria-roledescription="line mark" d="M-468.14814814814815,266.5226666666667L-459.2592592592593,266.4906666666667L-450.3703703703704,266.46133333333336L-441.48148148148147,266.42133333333334L-432.5925925925926,266.3813333333334L-423.7037037037037,266.336L-414.81481481481484,266.28000000000003L-405.9259259259259,266.14933333333335L-397.40740740740745,266.0346666666667L-388.51851851851853,265.8906666666667L-379.6296296296297,265.72266666666667L-370.74074074074076,265.5226666666667L-361.8518518518519,265.296L-352.962962962963,265.0373333333334L-344.07407407407413,264.736L-335.1851851851852,264.392L-326.29629629629636,264.03200000000004L-317.40740740740745,263.64000000000004L-308.5185185185186,263.2426666666667L-299.6296296296297,262.8453333333334L-290.74074074074076,262.51733333333334L-281.8518518518519,262.17333333333335L-272.96296296296293,261.8346666666667L-264.0740740740741,261.50933333333336L-255.18518518518522,261.12800000000004L-246.29629629629633,260.70933333333335L-237.40740740740742,260.32533333333333L-228.51851851851853,259.9546666666667L-219.62962962962965,259.62666666666667L-210.74074074074073,259.3146666666667L-201.85185185185185,258.9386666666667L-192.96296296296296,258.5706666666667L-184.07407407407408,258.24L-175.1851851851852,257.8826666666667L-166.2962962962963,257.46133333333336L-157.40740740740742,257.0586666666667L-148.51851851851853,256.696L-139.62962962962965,256.34133333333335L-130.74074074074073,256.01866666666666L-121.85185185185186,255.70666666666668L-112.96296296296298,255.38133333333334L-104.07407407407408,255.04800000000003L-95.18518518518519,254.73600000000002L-86.2962962962963,254.44000000000003L-77.40740740740742,254.1786666666667L-68.51851851851852,253.92800000000003L-59.62962962962963,253.68266666666668L-50.74074074074074,253.44533333333337L-41.851851851851855,253.2506666666667L-32.96296296296297,253.0186666666667L-24.074074074074076,252.77600000000004L-15.185185185185185,252.54133333333337L-6.296296296296297,252.29066666666668L2.592592592592593,252.05066666666667L11.481481481481483,251.80266666666668L20.370370370370374,251.60000000000002L29.25925925925926,251.44L38.148148148148145,251.18400000000003L47.037037037037045,250.9946666666667L55.92592592592593,250.78133333333335L64.81481481481482,250.592L73.70370370370371,250.424L82.5925925925926,250.2506666666667L91.4814814814815,250.12533333333334L100.37037037037038,249.92800000000003L109.25925925925927,249.76000000000002L118.14814814814815,249.55200000000002L127.03703703703704,249.37066666666666L135.92592592592592,249.22400000000002L144.8148148148148,249.096L153.7037037037037,248.96L162.5925925925926,248.84000000000003L171.4814814814815,248.71200000000002L180.37037037037038,248.57866666666666L189.2592592592593,248.38933333333333L198.14814814814818,248.26133333333337L207.03703703703707,248.168L215.92592592592595,248.03200000000004L224.81481481481484,247.848L233.70370370370372,247.68266666666668L242.5925925925926,247.512L251.4814814814815,247.33600000000004L260.3703703703704,247.20000000000002L269.2592592592593,247.04266666666666" stroke="#54a24b" stroke-width="2" opacity="1"></path></g></g><path class="foreground" aria-hidden="true" d="" display="none"></path></g><g transform="translate(0,0)"><path class="background" aria-hidden="true" d="M0,0h266.6666666666667v266.6666666666667h-266.6666666666667Z"></path><g><g class="mark-line role-mark marks" clip-path="url(#clip6)" role="graphics-object" aria-roledescription="line mark container"><path aria-label="Country: Italy; Date: Mar 01, 2020; Confirmed: 1694; Recovered: 83; Deaths: 34; : 34" role="graphics-symbol" aria-roledescription="line mark" d="M-468.14814814814815,266.576L-459.2592592592593,266.528L-450.3703703703704,266.456L-441.48148148148147,266.3813333333334L-432.5925925925926,266.272L-423.7037037037037,266.14133333333336L-414.81481481481484,266.04533333333336L-405.9259259259259,265.6906666666667L-397.40740740740745,265.432L-388.51851851851853,264.984L-379.6296296296297,264.46133333333336L-370.74074074074076,263.95733333333334L-361.8518518518519,263.2906666666667L-352.962962962963,262.824L-344.07407407407413,261.8426666666667L-335.1851851851852,260.91200000000003L-326.29629629629636,259.992L-317.40740740740745,258.72533333333337L-308.5185185185186,257.5866666666667L-299.6296296296297,255.91466666666668L-290.74074074074076,253.8L-281.8518518518519,252.06400000000002L-272.96296296296293,250.46133333333336L-264.0740740740741,248.48000000000002L-255.18518518518522,246.65866666666668L-246.29629629629633,244.76000000000002L-237.40740740740742,242.30933333333337L-228.51851851851853,239.93866666666668L-219.62962962962965,237.92266666666666L-210.74074074074073,235.75733333333335L-201.85185185185185,233.52533333333338L-192.96296296296296,231.58666666666667L-184.07407407407408,229.56000000000003L-175.1851851851852,227.51733333333334L-166.2962962962963,225.70133333333337L-157.40740740740742,224.30133333333333L-148.51851851851853,222.60533333333336L-139.62962962962965,220.99466666666666L-130.74074074074073,219.54933333333335L-121.85185185185186,217.9226666666667L-112.96296296296298,216.40266666666668L-104.07407407407408,214.75200000000004L-95.18518518518519,213.6026666666667L-86.2962962962963,212.09333333333336L-77.40740740740742,210.488L-68.51851851851852,208.9466666666667L-59.62962962962963,207.54666666666668L-50.74074074074074,206.01333333333335L-41.851851851851855,204.728L-32.96296296296297,203.57333333333335L-24.074074074074076,202.36266666666668L-15.185185185185185,200.93866666666668L-6.296296296296297,199.77333333333334L2.592592592592593,198.536L11.481481481481483,197.41600000000003L20.370370370370374,196.3093333333333L29.25925925925926,195.616L38.148148148148145,194.728L47.037037037037045,193.70933333333335L55.92592592592593,192.84799999999998L64.81481481481482,192.08800000000002L73.70370370370371,191.3706666666667L82.5925925925926,190.10666666666668L91.4814814814815,189.64266666666668L100.37037037037038,189.12266666666667L109.25925925925927,188.49333333333334L118.14814814814815,187.50933333333336L127.03703703703704,186.77866666666668L135.92592592592592,186.13066666666668L144.8148148148148,185.61333333333337L153.7037037037037,185.17333333333335L162.5925925925926,184.696L171.4814814814815,184.23733333333334L180.37037037037038,183.71733333333336L189.2592592592593,183.0186666666667L198.14814814814818,182.37333333333333L207.03703703703707,181.96533333333332L215.92592592592595,181.57866666666666L224.81481481481484,181.31466666666665L233.70370370370372,180.88266666666667L242.5925925925926,180.45333333333338L251.4814814814815,180.03733333333338L260.3703703703704,179.6906666666667L269.2592592592593,179.37333333333333" stroke="#eeca3b" stroke-width="2" opacity="1"></path></g></g><path class="foreground" aria-hidden="true" d="" display="none"></path></g><g transform="translate(0,0)"><path class="background" aria-hidden="true" d="M0,0h266.6666666666667v266.6666666666667h-266.6666666666667Z"></path><g><g class="mark-line role-mark marks" clip-path="url(#clip7)" role="graphics-object" aria-roledescription="line mark container"><path aria-label="Country: Mexico; Date: Mar 01, 2020; Confirmed: 5; Recovered: 0; Deaths: 0; : 0" role="graphics-symbol" aria-roledescription="line mark" d="M-468.14814814814815,266.6666666666667L-459.2592592592593,266.6666666666667L-450.3703703703704,266.6666666666667L-441.48148148148147,266.6666666666667L-432.5925925925926,266.6666666666667L-423.7037037037037,266.6666666666667L-414.81481481481484,266.6666666666667L-405.9259259259259,266.6666666666667L-397.40740740740745,266.6666666666667L-388.51851851851853,266.6666666666667L-379.6296296296297,266.6666666666667L-370.74074074074076,266.6666666666667L-361.8518518518519,266.6666666666667L-352.962962962963,266.6666666666667L-344.07407407407413,266.6666666666667L-335.1851851851852,266.6666666666667L-326.29629629629636,266.6666666666667L-317.40740740740745,266.6666666666667L-308.5185185185186,266.66400000000004L-299.6296296296297,266.66133333333335L-290.74074074074076,266.66133333333335L-281.8518518518519,266.6586666666667L-272.96296296296293,266.656L-264.0740740740741,266.65333333333336L-255.18518518518522,266.6506666666667L-246.29629629629633,266.6453333333334L-237.40740740740742,266.6346666666667L-228.51851851851853,266.624L-219.62962962962965,266.61333333333334L-210.74074074074073,266.59200000000004L-201.85185185185185,266.58933333333334L-192.96296296296296,266.56800000000004L-184.07407407407408,266.53333333333336L-175.1851851851852,266.50666666666666L-166.2962962962963,266.456L-157.40740740740742,266.416L-148.51851851851853,266.33333333333337L-139.62962962962965,266.29066666666665L-130.74074074074073,266.2026666666667L-121.85185185185186,266.14933333333335L-112.96296296296298,266.04533333333336L-104.07407407407408,265.9386666666667L-95.18518518518519,265.87733333333335L-86.2962962962963,265.78133333333335L-77.40740740740742,265.584L-68.51851851851852,265.46933333333334L-59.62962962962963,265.3706666666667L-50.74074074074074,265.21066666666667L-41.851851851851855,264.93333333333334L-32.96296296296297,264.83733333333333L-24.074074074074076,264.76800000000003L-15.185185185185185,264.3813333333334L-6.296296296296297,264.08L2.592592592592593,263.81600000000003L11.481481481481483,263.41066666666666L20.370370370370374,263.18666666666667L29.25925925925926,263.064L38.148148148148145,262.8426666666667L47.037037037037045,262.4826666666667L55.92592592592593,262.048L64.81481481481482,261.70933333333335L73.70370370370371,261.408L82.5925925925926,261.1706666666667L91.4814814814815,260.92266666666666L100.37037037037038,260.6106666666667L109.25925925925927,259.98133333333334L118.14814814814815,259.456L127.03703703703704,258.77066666666667L135.92592592592592,258.24L144.8148148148148,257.72533333333337L153.7037037037037,257.4266666666667L162.5925925925926,257.13866666666667L171.4814814814815,256.19733333333335L180.37037037037038,255.41333333333336L189.2592592592593,254.72800000000004L198.14814814814818,253.9546666666667L207.03703703703707,253.21333333333337L215.92592592592595,252.86133333333336L224.81481481481484,252.448L233.70370370370372,251.55733333333333L242.5925925925926,250.4266666666667L251.4814814814815,249.30666666666667L260.3703703703704,248.02933333333334L269.2592592592593,247.52266666666668" stroke="#b279a2" stroke-width="2" opacity="1"></path></g></g><path class="foreground" aria-hidden="true" d="" display="none"></path></g><g transform="translate(0,0)"><path class="background" aria-hidden="true" d="M0,0h266.6666666666667v266.6666666666667h-266.6666666666667Z"></path><g><g class="mark-line role-mark marks" clip-path="url(#clip8)" role="graphics-object" aria-roledescription="line mark container"><path aria-label="Country: Spain; Date: Mar 01, 2020; Confirmed: 84; Recovered: 2; Deaths: 0; : 0" role="graphics-symbol" aria-roledescription="line mark" d="M-468.14814814814815,266.6666666666667L-459.2592592592593,266.6666666666667L-450.3703703703704,266.66400000000004L-441.48148148148147,266.66133333333335L-432.5925925925926,266.6586666666667L-423.7037037037037,266.65333333333336L-414.81481481481484,266.64000000000004L-405.9259259259259,266.6213333333333L-397.40740740740745,266.59200000000004L-388.51851851851853,266.5733333333334L-379.6296296296297,266.5226666666667L-370.74074074074076,266.52L-361.8518518518519,266.312L-352.962962962963,266.1466666666667L-344.07407407407413,265.896L-335.1851851851852,265.7546666666667L-326.29629629629636,265.24533333333335L-317.40740740740745,265.00533333333334L-308.5185185185186,264.4533333333334L-299.6296296296297,263.88533333333334L-290.74074074074076,263L-281.8518518518519,261.9413333333334L-272.96296296296293,260.504L-264.0740740740741,259.1786666666667L-255.18518518518522,256.9413333333334L-246.29629629629633,255.0266666666667L-237.40740740740742,252.96533333333335L-228.51851851851853,250.7146666666667L-219.62962962962965,248.52533333333335L-210.74074074074073,246.0906666666667L-201.85185185185185,244.096L-192.96296296296296,241.63466666666667L-184.07407407407408,239.072L-175.1851851851852,236.80533333333335L-166.2962962962963,234.80800000000002L-157.40740740740742,232.95733333333334L-148.51851851851853,231.09066666666666L-139.62962962962965,229.21333333333337L-130.74074074074073,227.22133333333335L-121.85185185185186,225.47466666666668L-112.96296296296298,223.78400000000002L-104.07407407407408,222.38400000000001L-95.18518518518519,220.77600000000004L-86.2962962962963,219.31733333333335L-77.40740740740742,218.51733333333334L-68.51851851851852,216.77866666666668L-59.62962962962963,215.16000000000003L-50.74074074074074,213.32800000000003L-41.851851851851855,213.21866666666668L-32.96296296296297,212.12533333333334L-24.074074074074076,211.06133333333335L-15.185185185185185,209.91466666666668L-6.296296296296297,208.75466666666668L2.592592592592593,207.58133333333333L11.481481481481483,206.6026666666667L20.370370370370374,205.59466666666668L29.25925925925926,204.82666666666668L38.148148148148145,203.94400000000002L47.037037037037045,203.14133333333336L55.92592592592593,201.93333333333334L64.81481481481482,201.21866666666668L73.70370370370371,201.21866666666668L82.5925925925926,199.73333333333335L91.4814814814815,199.29600000000002L100.37037037037038,198.85866666666666L109.25925925925927,198.36533333333335L118.14814814814815,197.7146666666667L127.03703703703704,197.1466666666667L135.92592592592592,196.536L144.8148148148148,196.05866666666668L153.7037037037037,195.67733333333334L162.5925925925926,195.34933333333333L171.4814814814815,194.88000000000002L180.37037037037038,194.38933333333335L189.2592592592593,193.8106666666667L198.14814814814818,193.44266666666667L207.03703703703707,193.16533333333334L215.92592592592595,193.16533333333334L224.81481481481484,192.776L233.70370370370372,192.592L242.5925925925926,192.29866666666666L251.4814814814815,192.16000000000003L260.3703703703704,190.32533333333336L269.2592592592593,190.192" stroke="#ff9da6" stroke-width="2" opacity="1"></path></g></g><path class="foreground" aria-hidden="true" d="" display="none"></path></g><g transform="translate(0,0)"><path class="background" aria-hidden="true" d="M0,0h266.6666666666667v266.6666666666667h-266.6666666666667Z"></path><g><g class="mark-line role-mark marks" clip-path="url(#clip9)" role="graphics-object" aria-roledescription="line mark container"><path aria-label="Country: US; Date: Mar 01, 2020; Confirmed: 74; Recovered: 7; Deaths: 1; : 1" role="graphics-symbol" aria-roledescription="line mark" d="M-468.14814814814815,266.66400000000004L-459.2592592592593,266.6506666666667L-450.3703703703704,266.648L-441.48148148148147,266.63733333333334L-432.5925925925926,266.6346666666667L-423.7037037037037,266.62933333333336L-414.81481481481484,266.6213333333333L-405.9259259259259,266.61066666666665L-397.40740740740745,266.608L-388.51851851851853,266.59200000000004L-379.6296296296297,266.5706666666667L-370.74074074074076,266.5546666666667L-361.8518518518519,266.53333333333336L-352.962962962963,266.50666666666666L-344.07407407407413,266.46933333333334L-335.1851851851852,266.40000000000003L-326.29629629629636,266.30933333333337L-317.40740740740745,266.2266666666667L-308.5185185185186,265.976L-299.6296296296297,265.73333333333335L-290.74074074074076,265.488L-281.8518518518519,265.10133333333334L-272.96296296296293,264.5706666666667L-264.0740740740741,263.9706666666667L-255.18518518518522,263.1466666666667L-246.29629629629633,262.064L-237.40740740740742,260.61600000000004L-228.51851851851853,259.34933333333333L-219.62962962962965,257.5466666666667L-210.74074074074073,255.47733333333335L-201.85185185185185,252.35466666666667L-192.96296296296296,249.30400000000003L-184.07407407407408,245.49866666666668L-175.1851851851852,241.97333333333336L-166.2962962962963,237.68L-157.40740740740742,233.66666666666669L-148.51851851851853,229.61599999999999L-139.62962962962965,223.49066666666667L-130.74074074074073,217.9466666666667L-121.85185185185186,212.56533333333337L-112.96296296296298,207.048L-104.07407407407408,201.6906666666667L-95.18518518518519,197.104L-86.2962962962963,192.3466666666667L-77.40740740740742,185.96800000000002L-68.51851851851852,179.30666666666667L-59.62962962962963,173.7493333333333L-50.74074074074074,166.8586666666667L-41.851851851851855,160.6L-32.96296296296297,157.48000000000002L-24.074074074074076,152.83733333333333L-15.185185185185185,146.43733333333333L-6.296296296296297,140.23466666666667L2.592592592592593,134.06933333333333L11.481481481481483,129.352L20.370370370370374,123.32000000000002L29.25925925925926,120.31733333333334L38.148148148148145,116.74933333333335L47.037037037037045,111.05333333333334L55.92592592592593,104.088L64.81481481481482,98.67733333333335L73.70370370370371,93.48533333333336L82.5925925925926,89.68266666666668L91.4814814814815,86.18133333333334L100.37037037037038,82.87466666666666L109.25925925925927,77.16266666666665L118.14814814814815,70.78666666666666L127.03703703703704,64.90133333333335L135.92592592592592,60.853333333333325L144.8148148148148,56.54666666666666L153.7037037037037,54.597333333333346L162.5925925925926,51.51466666666668L171.4814814814815,47.05066666666668L180.37037037037038,42.34933333333334L189.2592592592593,37.60533333333335L198.14814814814818,33.253333333333345L207.03703703703707,29.989333333333338L215.92592592592595,27.834666666666678L224.81481481481484,25.741333333333337L233.70370370370372,21.544000000000008L242.5925925925926,17.495999999999988L251.4814814814815,14.128000000000009L260.3703703703704,10.722666666666658L269.2592592592593,7.767999999999998" stroke="#9d755d" stroke-width="2" opacity="1"></path></g></g><path class="foreground" aria-hidden="true" d="" display="none"></path></g><g transform="translate(0,0)"><path class="background" aria-hidden="true" d="M0,0h266.6666666666667v266.6666666666667h-266.6666666666667Z"></path><g><g class="mark-line role-mark marks" clip-path="url(#clip10)" role="graphics-object" aria-roledescription="line mark container"><path aria-label="Country: United Kingdom; Date: Mar 01, 2020; Confirmed: 36; Recovered: 8; Deaths: 0; : 0" role="graphics-symbol" aria-roledescription="line mark" d="M-468.14814814814815,266.6666666666667L-459.2592592592593,266.6666666666667L-450.3703703703704,266.6666666666667L-441.48148148148147,266.6666666666667L-432.5925925925926,266.6666666666667L-423.7037037037037,266.66400000000004L-414.81481481481484,266.66133333333335L-405.9259259259259,266.66133333333335L-397.40740740740745,266.6586666666667L-388.51851851851853,266.648L-379.6296296296297,266.648L-370.74074074074076,266.6426666666667L-361.8518518518519,266.64000000000004L-352.962962962963,266.59200000000004L-344.07407407407413,266.552L-335.1851851851852,266.49333333333334L-326.29629629629636,266.4506666666667L-317.40740740740745,266.36L-308.5185185185186,266.24533333333335L-299.6296296296297,266.14933333333335L-290.74074074074076,266.00000000000006L-281.8518518518519,265.9066666666667L-272.96296296296293,265.70933333333335L-264.0740740740741,265.312L-255.18518518518522,264.81600000000003L-246.29629629629633,264.32800000000003L-237.40740740740742,263.5706666666667L-228.51851851851853,262.7866666666667L-219.62962962962965,262.216L-210.74074074074073,261.2186666666667L-201.85185185185185,260.20000000000005L-192.96296296296296,258.41333333333336L-184.07407407407408,256.67466666666667L-175.1851851851852,254.77066666666667L-166.2962962962963,252.74400000000003L-157.40740740740742,251.0266666666667L-148.51851851851853,249.51200000000003L-139.62962962962965,246.744L-130.74074074074073,243.9866666666667L-121.85185185185186,241.04533333333336L-112.96296296296298,237.97333333333333L-104.07407407407408,235.73600000000002L-95.18518518518519,233.90666666666667L-86.2962962962963,231.9226666666667L-77.40740740740742,229.13866666666667L-68.51851851851852,226.89333333333335L-59.62962962962963,224.14933333333335L-50.74074074074074,221.656L-41.851851851851855,218.68266666666668L-32.96296296296297,217.3546666666667L-24.074074074074076,215.86400000000003L-15.185185185185185,212.7386666666667L-6.296296296296297,210.5066666666667L2.592592592592593,208.568L11.481481481481483,205.888L20.370370370370374,203.64L29.25925925925926,202.52L38.148148148148145,201.61866666666668L47.037037037037045,199.19466666666668L55.92592592592593,197.0746666666667L64.81481481481482,195.27733333333336L73.70370370370371,193.30666666666667L82.5925925925926,191.6506666666667L91.4814814814815,190.8106666666667L100.37037037037038,190.0426666666667L109.25925925925927,188.19466666666668L118.14814814814815,186.464L127.03703703703704,185.0266666666667L135.92592592592592,183.35733333333332L144.8148148148148,182.4346666666667L153.7037037037037,181.72L162.5925925925926,181.16000000000003L171.4814814814815,179.48800000000003L180.37037037037038,178.17066666666668L189.2592592592593,177.02933333333334L198.14814814814818,176.00533333333337L207.03703703703707,174.75733333333335L215.92592592592595,174.304L224.81481481481484,173.87733333333333L233.70370370370372,172.424L242.5925925925926,171.45600000000002L251.4814814814815,170.5546666666667L260.3703703703704,169.61866666666668L269.2592592592593,168.86666666666667" stroke="#bab0ac" stroke-width="2" opacity="1"></path></g></g><path class="foreground" aria-hidden="true" d="" display="none"></path></g></g><g class="mark-group role-legend" role="graphics-symbol" aria-roledescription="legend" aria-label="Symbol legend for stroke color with 10 values: Belgium, Brazil, France, Germany, Iran, ending with United Kingdom"><g transform="translate(285,0)"><path class="background" aria-hidden="true" d="M0,0h79v128h-79Z" pointer-events="none"></path><g><g class="mark-group role-legend-entry"><g transform="translate(0,0)"><path class="background" aria-hidden="true" d="M0,0h0v0h0Z" pointer-events="none"></path><g><g class="mark-group role-scope Country_legend_entries" role="graphics-object" aria-roledescription="group mark container"><g transform="translate(0,0)"><path class="background" aria-hidden="true" d="M0,0h79v11h-79Z" opacity="1"></path><g><g class="mark-symbol role-legend-symbol Country_legend_symbols"><path transform="translate(6,6)" d="M-5,0L5,0" stroke="#4c78a8" stroke-width="1.5" opacity="1"></path></g><g class="mark-text role-legend-label Country_legend_labels"><text text-anchor="start" transform="translate(16,9)" font-family="Roboto Condensed" font-size="10px" fill="#000" opacity="1">Belgium</text></g></g><path class="foreground" aria-hidden="true" d="" display="none"></path></g><g transform="translate(0,13)"><path class="background" aria-hidden="true" d="M0,0h79v11h-79Z" opacity="1"></path><g><g class="mark-symbol role-legend-symbol Country_legend_symbols"><path transform="translate(6,6)" d="M-5,0L5,0" stroke="#f58518" stroke-width="1.5" opacity="1"></path></g><g class="mark-text role-legend-label Country_legend_labels"><text text-anchor="start" transform="translate(16,9)" font-family="Roboto Condensed" font-size="10px" fill="#000" opacity="1">Brazil</text></g></g><path class="foreground" aria-hidden="true" d="" display="none"></path></g><g transform="translate(0,26)"><path class="background" aria-hidden="true" d="M0,0h79v11h-79Z" opacity="1"></path><g><g class="mark-symbol role-legend-symbol Country_legend_symbols"><path transform="translate(6,6)" d="M-5,0L5,0" stroke="#e45756" stroke-width="1.5" opacity="1"></path></g><g class="mark-text role-legend-label Country_legend_labels"><text text-anchor="start" transform="translate(16,9)" font-family="Roboto Condensed" font-size="10px" fill="#000" opacity="1">France</text></g></g><path class="foreground" aria-hidden="true" d="" display="none"></path></g><g transform="translate(0,39)"><path class="background" aria-hidden="true" d="M0,0h79v11h-79Z" opacity="1"></path><g><g class="mark-symbol role-legend-symbol Country_legend_symbols"><path transform="translate(6,6)" d="M-5,0L5,0" stroke="#72b7b2" stroke-width="1.5" opacity="1"></path></g><g class="mark-text role-legend-label Country_legend_labels"><text text-anchor="start" transform="translate(16,9)" font-family="Roboto Condensed" font-size="10px" fill="#000" opacity="1">Germany</text></g></g><path class="foreground" aria-hidden="true" d="" display="none"></path></g><g transform="translate(0,52)"><path class="background" aria-hidden="true" d="M0,0h79v11h-79Z" opacity="1"></path><g><g class="mark-symbol role-legend-symbol Country_legend_symbols"><path transform="translate(6,6)" d="M-5,0L5,0" stroke="#54a24b" stroke-width="1.5" opacity="1"></path></g><g class="mark-text role-legend-label Country_legend_labels"><text text-anchor="start" transform="translate(16,9)" font-family="Roboto Condensed" font-size="10px" fill="#000" opacity="1">Iran</text></g></g><path class="foreground" aria-hidden="true" d="" display="none"></path></g><g transform="translate(0,65)"><path class="background" aria-hidden="true" d="M0,0h79v11h-79Z" opacity="1"></path><g><g class="mark-symbol role-legend-symbol Country_legend_symbols"><path transform="translate(6,6)" d="M-5,0L5,0" stroke="#eeca3b" stroke-width="1.5" opacity="1"></path></g><g class="mark-text role-legend-label Country_legend_labels"><text text-anchor="start" transform="translate(16,9)" font-family="Roboto Condensed" font-size="10px" fill="#000" opacity="1">Italy</text></g></g><path class="foreground" aria-hidden="true" d="" display="none"></path></g><g transform="translate(0,78)"><path class="background" aria-hidden="true" d="M0,0h79v11h-79Z" opacity="1"></path><g><g class="mark-symbol role-legend-symbol Country_legend_symbols"><path transform="translate(6,6)" d="M-5,0L5,0" stroke="#b279a2" stroke-width="1.5" opacity="1"></path></g><g class="mark-text role-legend-label Country_legend_labels"><text text-anchor="start" transform="translate(16,9)" font-family="Roboto Condensed" font-size="10px" fill="#000" opacity="1">Mexico</text></g></g><path class="foreground" aria-hidden="true" d="" display="none"></path></g><g transform="translate(0,91)"><path class="background" aria-hidden="true" d="M0,0h79v11h-79Z" opacity="1"></path><g><g class="mark-symbol role-legend-symbol Country_legend_symbols"><path transform="translate(6,6)" d="M-5,0L5,0" stroke="#ff9da6" stroke-width="1.5" opacity="1"></path></g><g class="mark-text role-legend-label Country_legend_labels"><text text-anchor="start" transform="translate(16,9)" font-family="Roboto Condensed" font-size="10px" fill="#000" opacity="1">Spain</text></g></g><path class="foreground" aria-hidden="true" d="" display="none"></path></g><g transform="translate(0,104)"><path class="background" aria-hidden="true" d="M0,0h79v11h-79Z" opacity="1"></path><g><g class="mark-symbol role-legend-symbol Country_legend_symbols"><path transform="translate(6,6)" d="M-5,0L5,0" stroke="#9d755d" stroke-width="1.5" opacity="1"></path></g><g class="mark-text role-legend-label Country_legend_labels"><text text-anchor="start" transform="translate(16,9)" font-family="Roboto Condensed" font-size="10px" fill="#000" opacity="1">US</text></g></g><path class="foreground" aria-hidden="true" d="" display="none"></path></g><g transform="translate(0,117)"><path class="background" aria-hidden="true" d="M0,0h79v11h-79Z" opacity="1"></path><g><g class="mark-symbol role-legend-symbol Country_legend_symbols"><path transform="translate(6,6)" d="M-5,0L5,0" stroke="#bab0ac" stroke-width="1.5" opacity="1"></path></g><g class="mark-text role-legend-label Country_legend_labels"><text text-anchor="start" transform="translate(16,9)" font-family="Roboto Condensed" font-size="10px" fill="#000" opacity="1">United Kingdom</text></g></g><path class="foreground" aria-hidden="true" d="" display="none"></path></g></g></g><path class="foreground" aria-hidden="true" d="" pointer-events="none" display="none"></path></g></g></g><path class="foreground" aria-hidden="true" d="" pointer-events="none" display="none"></path></g></g><g class="mark-group role-title"><g transform="translate(133.33333333333334,-22)"><path class="background" aria-hidden="true" d="M0,0h0v0h0Z" pointer-events="none"></path><g><g class="mark-text role-title-text" role="graphics-symbol" aria-roledescription="title" aria-label="Title text 'Deaths (total)'" pointer-events="none"><text text-anchor="middle" transform="translate(0,10)" font-family="Roboto Condensed" font-size="13px" font-weight="normal" fill="#000" opacity="1">Deaths (total)</text></g></g><path class="foreground" aria-hidden="true" d="" pointer-events="none" display="none"></path></g></g></g><path class="foreground" aria-hidden="true" d="" display="none"></path></g></g></g></svg>