<svg class="marks" width="419.6666666666667" height="310.6666666666667" viewBox="0 0 419.6666666666667 310.6666666666667" version="1.1" xmlns="http://www.w3.org/2000/svg" xmlns:xlink="http://www.w3.org/1999/xlink"><defs><clipPath id="clip1"><rect x="0" y="0" width="266.6666666666667" height="266.6666666666667"></rect></clipPath><clipPath id="clip2"><rect x="0" y="0" width="266.6666666666667" height="266.6666666666667"></rect></clipPath><clipPath id="clip3"><rect x="0" y="0" width="266.6666666666667" height="266.6666666666667"></rect></clipPath><clipPath id="clip4"><rect x="0" y="0" width="266.6666666666667" height="266.6666666666667"></rect></clipPath><clipPath id="clip5"><rect x="0" y="0" width="266.6666666666667" height="266.6666666666667"></rect></clipPath><clipPath id="clip6"><rect x="0" y="0" width="266.6666666666667" height="266.6666666666667"></rect></clipPath><clipPath id="clip7"><rect x="0" y="0" width="266.6666666666667" height="266.6666666666667"></rect></clipPath><clipPath id="clip8"><rect x="0" y="0" width="266.6666666666667" height="266.6666666666667"></rect></clipPath><clipPath id="clip9"><rect x="0" y="0" width="266.6666666666667" height="266.6666666666667"></rect></clipPath><clipPath id="clip10"><rect x="0" y="0" width="266.6666666666667" height="266.6666666666667"></rect></clipPath></defs><rect width="419.6666666666667" height="310.6666666666667" fill="white"></rect><g fill="none" stroke-miterlimit="10" transform="translate(50,27)"><g class="mark-group role-frame root" role="graphics-object" aria-roledescription="group mark container"><g transform="translate(0,0)"><path class="background" aria-hidden="true" d="M0,0h266.6666666666667v266.6666666666667h-266.6666666666667Z" stroke="#ddd" stroke-width="0"></path><g><g class="mark-group role-axis" aria-hidden="true"><g transform="translate(0.5,0.5)"><path class="background" aria-hidden="true" d="M0,0h0v0h0Z" pointer-events="none"></path><g><g class="mark-rule role-axis-grid" pointer-events="none"><line transform="translate(0,267)" x2="266.6666666666667" y2="0" stroke="#ddd" stroke-width="1" opacity="1"></line><line transform="translate(0,237)" x2="266.6666666666667" y2="0" stroke="#ddd" stroke-width="1" opacity="1"></line><line transform="translate(0,207)" x2="266.6666666666667" y2="0" stroke="#ddd" stroke-width="1" opacity="1"></line><line transform="translate(0,178)" x2="266.6666666666667" y2="0" stroke="#ddd" stroke-width="1" opacity="1"></line><line transform="translate(0,148)" x2="266.6666666666667" y2="0" stroke="#ddd" stroke-width="1" opacity="1"></line><line transform="translate(0,119)" x2="266.6666666666667" y2="0" stroke="#ddd" stroke-width="1" opacity="1"></line><line transform="translate(0,89)" x2="266.6666666666667" y2="0" stroke="#ddd" stroke-width="1" opacity="1"></line><line transform="translate(0,59)" x2="266.6666666666667" y2="0" stroke="#ddd" stroke-width="1" opacity="1"></line><line transform="translate(0,30)" x2="266.6666666666667" y2="0" stroke="#ddd" stroke-width="1" opacity="1"></line><line transform="translate(0,0)" x2="266.6666666666667" y2="0" stroke="#ddd" stroke-width="1" opacity="1"></line></g></g><path class="foreground" aria-hidden="true" d="" pointer-events="none" display="none"></path></g></g><g class="mark-group role-axis" role="graphics-symbol" aria-roledescription="axis" aria-label="X-axis for a time scale with values from Wednesday, 22 April 2020, 5:00:00 PM to Friday, 22 May 2020, 5:00:00 PM"><g transform="translate(0.5,267.1666666666667)"><path class="background" aria-hidden="true" d="M0,0h0v0h0Z" pointer-events="none"></path><g><g class="mark-text role-axis-label" pointer-events="none"><text text-anchor="middle" transform="translate(29.25925925925926,10)" font-family="Roboto Condensed" font-size="10px" fill="#000" opacity="1">Apr 26</text><text text-anchor="middle" transform="translate(91.4814814814815,10)" font-family="Roboto Condensed" font-size="10px" fill="#000" opacity="1">May 03</text><text text-anchor="middle" transform="translate(153.7037037037037,10)" font-family="Roboto Condensed" font-size="10px" fill="#000" opacity="1">May 10</text><text text-anchor="middle" transform="translate(215.92592592592595,10)" font-family="Roboto Condensed" font-size="10px" fill="#000" opacity="1">May 17</text></g><g class="mark-rule role-axis-domain" pointer-events="none"><line transform="translate(0,0)" x2="266.6666666666667" y2="0" stroke="lightgray" stroke-width="1" opacity="1"></line></g></g><path class="foreground" aria-hidden="true" d="" pointer-events="none" display="none"></path></g></g><g class="mark-group role-axis" role="graphics-symbol" aria-roledescription="axis" aria-label="Y-axis for a linear scale with values from 0 to 900"><g transform="translate(0.5,0.5)"><path class="background" aria-hidden="true" d="M0,0h0v0h0Z" pointer-events="none"></path><g><g class="mark-text role-axis-label" pointer-events="none"><text text-anchor="end" transform="translate(-2,269.6666666666667)" font-family="Roboto Condensed" font-size="10px" fill="#000" opacity="1">0</text><text text-anchor="end" transform="translate(-2,240.03703703703704)" font-family="Roboto Condensed" font-size="10px" fill="#000" opacity="1">100</text><text text-anchor="end" transform="translate(-2,210.40740740740742)" font-family="Roboto Condensed" font-size="10px" fill="#000" opacity="1">200</text><text text-anchor="end" transform="translate(-2,180.7777777777778)" font-family="Roboto Condensed" font-size="10px" fill="#000" opacity="1">300</text><text text-anchor="end" transform="translate(-2,151.14814814814815)" font-family="Roboto Condensed" font-size="10px" fill="#000" opacity="1">400</text><text text-anchor="end" transform="translate(-2,121.51851851851852)" font-family="Roboto Condensed" font-size="10px" fill="#000" opacity="1">500</text><text text-anchor="end" transform="translate(-2,91.8888888888889)" font-family="Roboto Condensed" font-size="10px" fill="#000" opacity="1">600</text><text text-anchor="end" transform="translate(-2,62.25925925925926)" font-family="Roboto Condensed" font-size="10px" fill="#000" opacity="1">700</text><text text-anchor="end" transform="translate(-2,32.62962962962965)" font-family="Roboto Condensed" font-size="10px" fill="#000" opacity="1">800</text><text text-anchor="end" transform="translate(-2,3)" font-family="Roboto Condensed" font-size="10px" fill="#000" opacity="1">900</text></g><g class="mark-rule role-axis-domain" pointer-events="none"><line transform="translate(0,266.6666666666667)" x2="0" y2="-266.6666666666667" stroke="lightgray" stroke-width="1" opacity="1"></line></g></g><path class="foreground" aria-hidden="true" d="" pointer-events="none" display="none"></path></g></g><g class="mark-group role-scope pathgroup" role="graphics-object" aria-roledescription="group mark container"><g transform="translate(0,0)"><path class="background" aria-hidden="true" d="M0,0h266.6666666666667v266.6666666666667h-266.6666666666667Z"></path><g><g class="mark-line role-mark marks" clip-path="url(#clip1)" role="graphics-object" aria-roledescription="line mark container"><path aria-label="Country: Belgium; Date: Mar 01, 2020; Confirmed: 0.174928296891; Recovered: 0.0874641484456; Deaths: 0; : 0" role="graphics-symbol" aria-roledescription="line mark" d="M-468.14814814814815,266.6666666666667L-459.2592592592593,266.6666666666667L-450.3703703703704,266.6666666666667L-441.48148148148147,266.6666666666667L-432.5925925925926,266.6666666666667L-423.7037037037037,266.6666666666667L-414.81481481481484,266.6666666666667L-405.9259259259259,266.6666666666667L-397.40740740740745,266.6666666666667L-388.51851851851853,266.6666666666667L-379.6296296296297,266.5889207569373L-370.74074074074076,266.5889207569373L-361.8518518518519,266.5889207569373L-352.962962962963,266.5630054536942L-344.07407407407413,266.5630054536942L-335.1851851851852,266.53709015045104L-326.29629629629636,266.40751363423544L-317.40740740740745,266.3038524212629L-308.5185185185186,266.12244529856105L-299.6296296296297,265.707800446671L-290.74074074074076,264.9303413493772L-281.8518518518519,264.72301892343216L-272.96296296296293,264.3861199812716L-264.0740740740741,263.50499967100524L-255.18518518518522,262.05374268939016L-246.29629629629633,260.9652999531788L-237.40740740740742,259.1771440294031L-228.51851851851853,257.518564621843L-219.62962962962965,255.49717096887912L-210.74074074074073,253.37211610294275L-201.85185185185185,248.39637788026243L-192.96296296296296,245.2087955813579L-184.07407407407408,240.46629508786572L-175.1851851851852,237.04547505977303L-166.2962962962963,233.4173326057353L-157.40740740740742,229.16722287386253L-148.51851851851853,224.3728917738841L-139.62962962962965,213.9290245669041L-130.74074074074073,208.61638740206317L-121.85185185185186,201.28235658425837L-112.96296296296298,188.42836617566755L-104.07407407407408,179.95406201516516L-95.18518518518519,173.37157499141102L-86.2962962962963,165.51923810874368L-77.40740740740742,158.9367510849895L-68.51851851851852,151.6027202671847L-59.62962962962963,140.79603881480094L-50.74074074074074,132.86595602240422L-41.851851851851855,125.35051808189749L-32.96296296296297,119.38999833597839L-24.074074074074076,115.63227936572503L-15.185185185185185,111.22667781439351L-6.296296296296297,104.38503775820809L2.592592592592593,98.47634861877523L11.481481481481483,93.57835630582431L20.370370370370374,87.41051413396022L29.25925925925926,82.82350545992679L38.148148148148145,79.89507619345349L47.037037037037045,76.68157859130582L55.92592592592593,72.27597703997428L64.81481481481482,69.86585383836349L73.70370370370371,67.04108578486273L82.5925925925926,65.43433698378885L91.4814814814815,63.387028027581884L100.37037037037038,61.313803768131756L109.25925925925927,58.92959586976412L118.14814814814815,50.558952922234205L127.03703703703704,48.58938987575658L135.92592592592592,45.84236773198519L144.8148148148148,44.2874495373976L153.7037037037037,42.34380179416307L162.5925925925926,41.02212132876364L171.4814814814815,39.622694953634806L180.37037037037038,37.49764008769843L189.2592592592593,35.94272189311084L198.14814814814818,34.491464911495754L207.03703703703707,33.29936096231195L215.92592592592595,32.08134170988497L224.81481481481484,31.355713219077423L233.70370370370372,30.63008472826988L242.5925925925926,29.54164199205858L251.4814814814815,28.60869107530603L260.3703703703704,27.93489319098471L269.2592592592593,27.28701060990654" stroke="#4c78a8" stroke-width="2" opacity="1"></path></g></g><path class="foreground" aria-hidden="true" d="" display="none"></path></g><g transform="translate(0,0)"><path class="background" aria-hidden="true" d="M0,0h266.6666666666667v266.6666666666667h-266.6666666666667Z"></path><g><g class="mark-line role-mark marks" clip-path="url(#clip2)" role="graphics-object" aria-roledescription="line mark container"><path aria-label="Country: Brazil; Date: Mar 01, 2020; Confirmed: 0.00954793702427; Recovered: 0; Deaths: 0; : 0" role="graphics-symbol" aria-roledescription="line mark" d="M-468.14814814814815,266.6666666666667L-459.2592592592593,266.6666666666667L-450.3703703703704,266.6666666666667L-441.48148148148147,266.6666666666667L-432.5925925925926,266.6666666666667L-423.7037037037037,266.6666666666667L-414.81481481481484,266.6666666666667L-405.9259259259259,266.6666666666667L-397.40740740740745,266.6666666666667L-388.51851851851853,266.6666666666667L-379.6296296296297,266.6666666666667L-370.74074074074076,266.6666666666667L-361.8518518518519,266.6666666666667L-352.962962962963,266.6666666666667L-344.07407407407413,266.6666666666667L-335.1851851851852,266.6666666666667L-326.29629629629636,266.66525215747794L-317.40740740740745,266.6624231391003L-308.5185185185186,266.65817961153397L-299.6296296296297,266.6511070655901L-290.74074074074076,266.645449028835L-281.8518518518519,266.6313039369472L-272.96296296296293,266.61857335424816L-264.0740740740741,266.6015992439828L-255.18518518518522,266.58321062452865L-246.29629629629633,266.55774945913055L-237.40740740740742,266.53653182129887L-228.51851851851853,266.509656146712L-219.62962962962965,266.47429341699245L-210.74074074074073,266.44175970565055L-201.85185185185185,266.38235031972175L-192.96296296296296,266.3271844613593L-184.07407407407408,266.2083656895017L-175.1851851851852,266.15885786789437L-166.2962962962963,266.0372100776592L-157.40740740740742,265.9792152009192L-148.51851851851853,265.86888348419427L-139.62962962962965,265.69631336316303L-130.74074074074073,265.50818364105515L-121.85185185185186,265.3228829373249L-112.96296296296298,265.17153045412533L-104.07407407407408,265.076758338477L-95.18518518518519,264.9367219287877L-86.2962962962963,264.7881984639657L-77.40740740740742,264.49963858945443L-68.51851851851852,264.21107871494314L-59.62962962962963,263.94515098745234L-50.74074074074074,263.63820249348686L-41.851851851851855,263.33691203627654L-32.96296296296297,263.18414504388824L-24.074074074074076,263.00733139529063L-15.185185185185185,262.78949698021836L-6.296296296296297,262.5561029640695L2.592592592592593,261.9549365588377L11.481481481481483,261.42732463142244L20.370370370370374,260.9280028877828L29.25925925925926,260.604080283552L38.148148148148145,260.1556808707084L47.037037037037045,259.4767164600936L55.92592592592593,258.86847750891786L64.81481481481482,258.17112447884887L73.70370370370371,257.59683374820384L82.5925925925926,257.10317004131934L91.4814814814815,256.6929623765729L100.37037037037038,256.2459774729181L109.25925925925927,255.43829272612427L118.14814814814815,254.51886175341673L127.03703703703704,253.66732722177065L135.92592592592592,252.4975281226489L144.8148148148148,251.5936567510179L153.7037037037037,250.93308095985728L162.5925925925926,250.1833910898034L171.4814814814815,249.04046766526847L180.37037037037038,247.9385650072082L189.2592592592593,246.86495253292352L198.14814814814818,245.50278018412757L207.03703703703707,244.51262375198098L215.92592592592595,243.8676075618969L224.81481481481484,242.82794330814298L233.70370370370372,241.2295479248206L242.5925925925926,239.99043787544858L251.4814814814815,238.31000095917693L260.3703703703704,236.8940772612073L269.2592592592593,235.52907589403378" stroke="#f58518" stroke-width="2" opacity="1"></path></g></g><path class="foreground" aria-hidden="true" d="" display="none"></path></g><g transform="translate(0,0)"><path class="background" aria-hidden="true" d="M0,0h266.6666666666667v266.6666666666667h-266.6666666666667Z"></path><g><g class="mark-line role-mark marks" clip-path="url(#clip3)" role="graphics-object" aria-roledescription="line mark container"><path aria-label="Country: France; Date: Mar 01, 2020; Confirmed: 1.94096170801; Recovered: 0.179165696124; Deaths: 0.0298609493539; : 0.0298609493539" role="graphics-symbol" aria-roledescription="line mark" d="M-468.14814814814815,266.6578189779692L-459.2592592592593,266.6533951336205L-450.3703703703704,266.64897128927174L-441.48148148148147,266.64897128927174L-432.5925925925926,266.6401236005743L-423.7037037037037,266.6268520675281L-414.81481481481484,266.6180043788307L-405.9259259259259,266.5826136240408L-397.40740740740745,266.5826136240408L-388.51851851851853,266.52067980315854L-379.6296296296297,266.4543221379276L-370.74074074074076,266.4543221379276L-361.8518518518519,266.3171829631169L-352.962962962963,266.2640968309322L-344.07407407407413,266.2640968309322L-335.1851851851852,266.0119377030545L-326.29629629629636,266.0119377030545L-317.40740740740745,266.0119377030545L-308.5185185185186,265.5916724899251L-299.6296296296297,264.67593670973775L-290.74074074074076,264.1804661426799L-281.8518518518519,263.68499557562205L-272.96296296296293,262.8621605267581L-264.0740740740741,261.80043788306267L-255.18518518518522,260.77852983850585L-246.29629629629633,259.16382665121904L-237.40740740740742,257.8410971909485L-228.51851851851853,256.42989084370333L-219.62962962962965,255.1381282938739L-210.74074074074073,253.28896135610438L-201.85185185185185,251.08146302608765L-192.96296296296296,247.18847999920442L-184.07407407407408,242.83541716005323L-175.1851851851852,237.88071148947458L-166.2962962962963,233.2224033902609L-157.40740740740742,230.9308520176183L-148.51851851851853,227.24578967512542L-139.62962962962965,220.97720223297372L-130.74074074074073,218.58390244031028L-121.85185185185186,212.65152716866214L-112.96296296296298,208.28519279646468L-104.07407407407408,205.47605163502055L-95.18518518518519,202.9942749553825L-86.2962962962963,200.45498829921098L-77.40740740740742,197.15922425940644L-68.51851851851852,190.80658377462885L-59.62962962962963,187.47542898003445L-50.74074074074074,184.11330727499896L-41.851851851851855,181.2731992031137L-32.96296296296297,179.54347606275988L-24.074074074074076,177.12805704835282L-15.185185185185185,174.80553876526906L-6.296296296296297,172.39896743955944L2.592592592592593,170.1162637556143L11.481481481481483,168.395388303958L20.370370370370374,166.76298973927626L29.25925925925926,165.69241940688337L38.148148148148145,163.75919942648795L47.037037037037045,162.13564855050373L55.92592592592593,160.2466670135956L64.81481481481482,158.9681759968124L73.70370370370371,158.00377792878902L82.5925925925926,157.2694197668997L91.4814814814815,156.67220077982105L100.37037037037038,155.32735209780682L109.25925925925927,153.86748346272563L118.14814814814815,152.65535011117333L127.03703703703704,151.87232966144796L135.92592592592592,150.79733548470637L144.8148148148148,150.44785178115663L153.7037037037037,150.13818267674546L162.5925925925926,148.97471161302923L171.4814814814815,147.4396376240196L180.37037037037038,147.0813062317724L189.2592592592593,145.5373845540653L198.14814814814818,145.0773047417973L207.03703703703707,145.08615243049474L215.92592592592595,142.52474655257956L224.81481481481484,141.9452229428958L233.70370370370372,142.9051971665704L242.5925925925926,142.42742197690745L251.4814814814815,142.0602428959628L260.3703703703704,142.0602428959628L269.2592592592593,142.0602428959628" stroke="#e45756" stroke-width="2" opacity="1"></path></g></g><path class="foreground" aria-hidden="true" d="" display="none"></path></g><g transform="translate(0,0)"><path class="background" aria-hidden="true" d="M0,0h266.6666666666667v266.6666666666667h-266.6666666666667Z"></path><g><g class="mark-line role-mark marks" clip-path="url(#clip4)" role="graphics-object" aria-roledescription="line mark container"><path aria-label="Country: Germany; Date: Mar 01, 2020; Confirmed: 1.56804503696; Recovered: 0.192990158395; Deaths: 0; : 0" role="graphics-symbol" aria-roledescription="line mark" d="M-468.14814814814815,266.6666666666667L-459.2592592592593,266.6666666666667L-450.3703703703704,266.6666666666667L-441.48148148148147,266.6666666666667L-432.5925925925926,266.6666666666667L-423.7037037037037,266.6666666666667L-414.81481481481484,266.6666666666667L-405.9259259259259,266.6666666666667L-397.40740740740745,266.6595188830225L-388.51851851851853,266.6595188830225L-379.6296296296297,266.65594499120033L-370.74074074074076,266.65594499120033L-361.8518518518519,266.6416494239119L-352.962962962963,266.6345016402676L-344.07407407407413,266.62735385662336L-335.1851851851852,266.60591050569064L-326.29629629629636,266.58089326293583L-317.40740740740745,266.5665976956473L-308.5185185185186,266.5094154264934L-299.6296296296297,266.4272159145846L-290.74074074074076,266.3664597536086L-281.8518518518519,266.33072083538735L-272.96296296296293,266.2270779725459L-264.0740740740741,266.1055656505938L-255.18518518518522,265.9304449513099L-246.29629629629633,265.71243755016053L-237.40740740740742,265.4443956635015L-228.51851851851853,265.1191715076885L-219.62962962962965,264.7617823254765L-210.74074074074073,264.36150644139906L-201.85185185185185,263.8969005045234L-192.96296296296296,263.37868619031593L-184.07407407407408,262.7103684195794L-175.1851851851852,262.10995459346316L-166.2962962962963,261.50596687552485L-157.40740740740742,261.00562202042795L-148.51851851851853,260.19792246862875L-139.62962962962965,259.46170075327194L-130.74074074074073,258.2715947765059L-121.85185185185186,257.3495306863988L-112.96296296296298,256.77770799485955L-104.07407407407408,256.8884986413453L-95.18518518518519,255.86636558021885L-86.2962962962963,255.25165618681413L-77.40740740740742,254.89426700460209L-68.51851851851852,253.0715821753207L-59.62962962962963,252.18525700343486L-50.74074074074074,251.11308945679872L-41.851851851851855,250.73068303183183L-32.96296296296297,250.27679877042254L-24.074074074074076,249.29040462751732L-15.185185185185185,248.67926912593475L-6.296296296296297,247.80009173769312L2.592592592592593,246.74221975834547L11.481481481481483,246.08104977125322L20.370370370370374,245.6629044280651L29.25925925925926,245.3090891376752L38.148148148148145,244.77300536435715L47.037037037037045,244.1011137017985L55.92592592592593,243.55430825301409L64.81481481481482,242.9967811287633L73.70370370370371,242.5929313528637L82.5925925925926,242.32131557438257L91.4814814814815,242.12832541598803L100.37037037037038,241.67444115457877L109.25925925925927,241.67444115457877L118.14814814814815,240.6666036607408L127.03703703703704,240.24845831755272L135.92592592592592,239.82673908254253L144.8148148148148,239.6873573014798L153.7037037037037,239.6158794650374L162.5925925925926,239.28708141740233L171.4814814814815,239.01189174709904L180.37037037037038,238.57230305297827L189.2592592592593,238.4901035410695L198.14814814814818,238.44364294738193L207.03703703703707,238.297113382675L215.92592592592595,238.2113399789441L224.81481481481484,238.06481041423714L233.70370370370372,237.78604685211175L242.5925925925926,237.56089166731817L251.4814814814815,237.35003204981308L260.3703703703704,237.26068475426007L269.2592592592593,237.1427463241301" stroke="#72b7b2" stroke-width="2" opacity="1"></path></g></g><path class="foreground" aria-hidden="true" d="" display="none"></path></g><g transform="translate(0,0)"><path class="background" aria-hidden="true" d="M0,0h266.6666666666667v266.6666666666667h-266.6666666666667Z"></path><g><g class="mark-line role-mark marks" clip-path="url(#clip5)" role="graphics-object" aria-roledescription="line mark container"><path aria-label="Country: Iran; Date: Mar 01, 2020; Confirmed: 11.9559509028; Recovered: 2.13935726788; Deaths: 0.660144528376; : 0.660144528376" role="graphics-symbol" aria-roledescription="line mark" d="M-468.14814814814815,266.4710682878887L-459.2592592592593,266.42760198149364L-450.3703703703704,266.38775786729815L-441.48148148148147,266.33342498430426L-432.5925925925926,266.27909210131037L-423.7037037037037,266.21751483391733L-414.81481481481484,266.1414487977259L-405.9259259259259,265.96396137994594L-397.40740740740745,265.8082071153635L-388.51851851851853,265.6126087365855L-379.6296296296297,265.38441062801127L-370.74074074074076,265.1127462130419L-361.8518518518519,264.8048598760766L-352.962962962963,264.4535072327162L-344.07407407407413,264.04419951416236L-335.1851851851852,263.576936720415L-326.29629629629636,263.08794077347017L-317.40740740740745,262.5554785201302L-308.5185185185186,262.01577188239105L-299.6296296296297,261.4760652446519L-290.74074074074076,261.0305356041021L-281.8518518518519,260.5632728103548L-272.96296296296293,260.10325440100667L-264.0740740740741,259.6613469526565L-255.18518518518522,259.1433734681149L-246.29629629629633,258.574689292779L-237.40740740740742,258.0530936160378L-228.51851851851853,257.5496089002946L-219.62962962962965,257.1040792597448L-210.74074074074073,256.68028277239256L-201.85185185185185,256.1695536722502L-192.96296296296296,255.66969114870653L-184.07407407407408,255.22053931595715L-175.1851851851852,254.7351655612119L-166.2962962962963,254.1628591936764L-157.40740740740742,253.61590817153805L-148.51851851851853,253.1232900323936L-139.62962962962965,252.64153846984792L-130.74074074074073,252.20325321369734L-121.85185185185186,251.77945672634513L-112.96296296296298,251.33754927799495L-104.07407407407408,250.884775253046L-95.18518518518519,250.46097876569377L-86.2962962962963,250.05891543153908L-77.40740740740742,249.70394059597913L-68.51851851851852,249.3634545292175L-59.62962962962963,249.03021284685508L-50.74074074074074,248.70783774109142L-41.851851851851855,248.44341771052123L-32.96296296296297,248.12828698915678L-24.074074074074076,247.79866749899392L-15.185185185185185,247.47991458542987L-6.296296296296297,247.13942851866824L2.592592592592593,246.813431220705L11.481481481481483,246.47656734614299L20.370370370370374,246.20128073897405L29.25925925925926,245.98394920699852L38.148148148148145,245.63621875583775L47.037037037037045,245.37904310966672L55.92592592592593,245.0892677336994L64.81481481481482,244.8320920875284L73.70370370370371,244.60389397895412L82.5925925925926,244.36845148598067L91.4814814814815,244.19820845259986L100.37037037037038,243.9301662298301L109.25925925925927,243.7019681212558L118.14814814814815,243.41943712968765L127.03703703703704,243.17312806011543L135.92592592592592,242.97390748913787L144.8148148148148,242.8000422635575L153.7037037037037,242.61531046137833L162.5925925925926,242.45231181239672L171.4814814814815,242.2784465868163L180.37037037037038,242.09733697683671L189.2592592592593,241.84016133066572L198.14814814814818,241.66629610508534L207.03703703703707,241.5395193780996L215.92592592592595,241.35478757592043L224.81481481481484,241.1048563141486L233.70370370370372,240.88028039777393L242.5925925925926,240.64846009700005L251.4814814814815,240.40939541182703L260.3703703703704,240.22466360964788L269.2592592592593,240.01095426987195" stroke="#54a24b" stroke-width="2" opacity="1"></path></g></g><path class="foreground" aria-hidden="true" d="" display="none"></path></g><g transform="translate(0,0)"><path class="background" aria-hidden="true" d="M0,0h266.6666666666667v266.6666666666667h-266.6666666666667Z"></path><g><g class="mark-line role-mark marks" clip-path="url(#clip6)" role="graphics-object" aria-roledescription="line mark container"><path aria-label="Country: Italy; Date: Mar 01, 2020; Confirmed: 28.0362571365; Recovered: 1.37367729772; Deaths: 0.562711182197; : 0.562711182197" role="graphics-symbol" aria-roledescription="line mark" d="M-468.14814814814815,266.49993742749734L-459.2592592592593,266.4116690067606L-450.3703703703704,266.2792663756555L-441.48148148148147,266.1419599433984L-432.5925925925926,265.94090409616473L-423.7037037037037,265.70061783971477L-414.81481481481484,265.52408099824135L-405.9259259259259,264.87187544501995L-397.40740740740745,264.3962067332721L-388.51851851851853,263.57236813972935L-379.6296296296297,262.61122311392944L-370.74074074074076,261.68440469619384L-361.8518518518519,260.4584544081838L-352.962962962963,259.60028920657675L-344.07407407407413,257.795690382626L-335.1851851851852,256.08426378056396L-326.29629629629636,254.39245238311005L-317.40740740740745,252.063146835891L-308.5185185185186,249.96922374396982L-299.6296296296297,246.8945404216406L-290.74074074074076,243.00582610807274L-281.8518518518519,239.81345155809456L-272.96296296296293,236.8662670657184L-264.0740740740741,233.22274280975253L-255.18518518518522,229.87344662290906L-246.29629629629633,226.38194020265647L-237.40740740740742,221.87534694393153L-228.51851851851853,217.51586771976778L-219.62962962962965,213.8085940488254L-210.74074074074073,209.82670751336875L-201.85185185185185,205.7222259491111L-192.96296296296296,202.1571625115779L-184.07407407407408,198.43027363602732L-175.1851851851852,194.67396195356454L-166.2962962962963,191.33447336902515L-157.40740740740742,188.75997776420408L-148.51851851851853,185.64116023150652L-139.62962962962965,182.67926433567422L-130.74074074074073,180.02140411126845L-121.85185185185186,177.03008540852392L-112.96296296296298,174.23491875186102L-104.07407407407408,171.1994658387481L-95.18518518518519,169.0859275422188L-86.2962962962963,166.31037609016403L-77.40740740740742,163.35828779663584L-68.51851851851852,160.5238907307566L-59.62962962962963,157.94939512593552L-50.74074074074074,155.1297094635124L-41.851851851851855,152.76607730822903L-32.96296296296297,150.64273140939562L-24.074074074074076,148.41640568636936L-15.185185185185185,145.79777587117988L-6.296296296296297,143.65481476773834L2.592592592592593,141.37945103319166L11.481481481481483,139.3198545493348L20.370370370370374,137.28477707123812L29.25925925925926,136.00978877170766L38.148148148148145,134.3768229880783L47.037037037037045,132.50357094799892L55.92592592592593,130.91964317588995L64.81481481481482,129.52205984755847L73.70370370370371,128.20293733765968L82.5925925925926,125.87853559159261L91.4814814814815,125.02527419113763L100.37037037037038,124.06903296648977L109.25925925925927,122.91173589460831L118.14814814814815,121.10223326950545L127.03703703703704,119.75859175384643L135.92592592592592,118.56696807390067L144.8148148148148,117.6156306504049L153.7037037037037,116.80650346031824L162.5925925925926,115.92872305410305L171.4814814814815,115.08526925595214L180.37037037037038,114.1290280313043L189.2592592592593,112.84423212946979L198.14814814814818,111.65751225067605L207.03703703703707,110.9072306744139L215.92592592592595,110.19617950736806L224.81481481481484,109.71070319331608L233.70370370370372,108.91628740668557L242.5925925925926,108.12677542120711L251.4814814814815,107.36178244148883L260.3703703703704,106.7242882917236L269.2592592592593,106.14073595463084" stroke="#eeca3b" stroke-width="2" opacity="1"></path></g></g><path class="foreground" aria-hidden="true" d="" display="none"></path></g><g transform="translate(0,0)"><path class="background" aria-hidden="true" d="M0,0h266.6666666666667v266.6666666666667h-266.6666666666667Z"></path><g><g class="mark-line role-mark marks" clip-path="url(#clip7)" role="graphics-object" aria-roledescription="line mark container"><path aria-label="Country: Mexico; Date: Mar 01, 2020; Confirmed: 0.0396225436044; Recovered: 0; Deaths: 0; : 0" role="graphics-symbol" aria-roledescription="line mark" d="M-468.14814814814815,266.6666666666667L-459.2592592592593,266.6666666666667L-450.3703703703704,266.6666666666667L-441.48148148148147,266.6666666666667L-432.5925925925926,266.6666666666667L-423.7037037037037,266.6666666666667L-414.81481481481484,266.6666666666667L-405.9259259259259,266.6666666666667L-397.40740740740745,266.6666666666667L-388.51851851851853,266.6666666666667L-379.6296296296297,266.6666666666667L-370.74074074074076,266.6666666666667L-361.8518518518519,266.6666666666667L-352.962962962963,266.6666666666667L-344.07407407407413,266.6666666666667L-335.1851851851852,266.6666666666667L-326.29629629629636,266.6666666666667L-317.40740740740745,266.6666666666667L-308.5185185185186,266.6643186640827L-299.6296296296297,266.66197066149874L-290.74074074074076,266.66197066149874L-281.8518518518519,266.6596226589148L-272.96296296296293,266.65727465633086L-264.0740740740741,266.6549266537469L-255.18518518518522,266.6525786511629L-246.29629629629633,266.64788264599497L-237.40740740740742,266.63849063565914L-228.51851851851853,266.62909862532325L-219.62962962962965,266.6197066149874L-210.74074074074073,266.6009225943157L-201.85185185185185,266.5985745917318L-192.96296296296296,266.5797905710601L-184.07407407407408,266.54926653746855L-175.1851851851852,266.5257865116289L-166.2962962962963,266.48117446253366L-157.40740740740742,266.4459544237742L-148.51851851851853,266.37316634367136L-139.62962962962965,266.3355983023279L-130.74074074074073,266.25811421705714L-121.85185185185186,266.21115416537793L-112.96296296296298,266.1195820646034L-104.07407407407408,266.02566196124485L-95.18518518518519,265.9716579018137L-86.2962962962963,265.88712980879103L-77.40740740740742,265.7133776175778L-68.51851851851852,265.6124135064674L-59.62962962962963,265.52553741086075L-50.74074074074074,265.384657255823L-41.851851851851855,265.1404649870909L-32.96296296296297,265.0559368940682L-24.074074074074076,264.9948888268852L-15.185185185185185,264.6544284522106L-6.296296296296297,264.3891041602228L2.592592592592593,264.15665190441047L11.481481481481483,263.7997555116482L20.370370370370374,263.6025232945953L29.25925925925926,263.494515175733L38.148148148148145,263.2996309612641L47.037037037037045,262.9826506124291L55.92592592592593,262.5999261912432L64.81481481481482,262.3017298630799L73.70370370370371,262.03640557109213L82.5925925925926,261.82743334111944L91.4814814814815,261.6090691008109L100.37037037037038,261.33435279848726L109.25925925925927,260.78022418867204L118.14814814814815,260.3176676796314L127.03703703703704,259.71423101555297L135.92592592592592,259.24697850134436L144.8148148148148,258.7938140026396L153.7037037037037,258.5308377132357L162.5925925925926,258.27725343416773L171.4814814814815,257.4484085220289L180.37037037037038,256.7580957623439L189.2592592592593,256.1546590982654L198.14814814814818,255.47373834891624L207.03703703703707,254.8209936305746L215.92592592592595,254.5110572894915L224.81481481481484,254.14711688897728L233.70370370370372,253.3628840259337L242.5925925925926,252.3673309303335L251.4814814814815,251.38116984506914L260.3703703703704,250.25647660735098L269.2592592592593,249.81035611639805" stroke="#b279a2" stroke-width="2" opacity="1"></path></g></g><path class="foreground" aria-hidden="true" d="" display="none"></path></g><g transform="translate(0,0)"><path class="background" aria-hidden="true" d="M0,0h266.6666666666667v266.6666666666667h-266.6666666666667Z"></path><g><g class="mark-line role-mark marks" clip-path="url(#clip8)" role="graphics-object" aria-roledescription="line mark container"><path aria-label="Country: Spain; Date: Mar 01, 2020; Confirmed: 1.79500450247; Recovered: 0.0427382024398; Deaths: 0; : 0" role="graphics-symbol" aria-roledescription="line mark" d="M-468.14814814814815,266.6666666666667L-459.2592592592593,266.6666666666667L-450.3703703703704,266.66033508112L-441.48148148148147,266.6540034955734L-432.5925925925926,266.64767191002676L-423.7037037037037,266.6350087389335L-414.81481481481484,266.6033508112004L-405.9259259259259,266.55902971237396L-397.40740740740745,266.489382271361L-388.51851851851853,266.4450611725346L-379.6296296296297,266.3247610471487L-370.74074074074076,266.318429461602L-361.8518518518519,265.8245657889649L-352.962962962963,265.4320074850738L-344.07407407407413,264.83683844369057L-335.1851851851852,264.5012644097192L-326.29629629629636,263.29193157031284L-317.40740740740745,262.72208887111617L-308.5185185185186,261.4114506629637L-299.6296296296297,260.0628229415315L-290.74074074074076,257.96073654005033L-281.8518518518519,255.44709707803818L-272.96296296296293,252.0343724684046L-264.0740740740741,248.88757445172945L-255.18518518518522,243.57537417810678L-246.29629629629633,239.0292957556264L-237.40740740740742,234.13498012808137L-228.51851851851853,228.79112192672557L-219.62962962962965,223.59289019294226L-210.74074074074073,217.812152588869L-201.85185185185185,213.0761265999897L-192.96296296296296,207.23207314045013L-184.07407407407408,201.14741943013865L-175.1851851851852,195.76557171550309L-166.2962962962963,191.02321414107712L-157.40740740740742,186.62909377171584L-148.51851851851853,182.19698388907483L-139.62962962962965,177.73954766424723L-130.74074074074073,173.00985326091455L-121.85185185185186,168.8626647278719L-112.96296296296298,164.8484394913084L-104.07407407407408,161.5243570793276L-95.18518518518519,157.70641099470967L-86.2962962962963,154.24303370070302L-77.40740740740742,152.343558036714L-68.51851851851852,148.2153642603112L-59.62962962962963,144.37209183350672L-50.74074074074074,140.02229256297187L-41.851851851851855,139.76269755556004L-32.96296296296297,137.16674748144172L-24.074074074074076,134.64044484833627L-15.185185185185185,131.91786306328535L-6.296296296296297,129.1636233505013L2.592592592592593,126.37772570998403L11.481481481481483,124.0540338143708L20.370370370370374,121.66069447774466L29.25925925925926,119.83719784031516L38.148148148148145,117.74144302438063L47.037037037037045,115.83563577484497L55.92592592592593,112.96742752222154L64.81481481481482,111.27056259572467L73.70370370370371,111.27056259572467L82.5925925925926,107.74386944625174L91.4814814814815,106.70548941660441L100.37037037037038,105.66710938695708L109.25925925925927,104.49576606083049L118.14814814814815,102.95085918745274L127.03703703703704,101.60223146602057L135.92592592592592,100.15229837584225L144.8148148148148,99.01894456299549L153.7037037037037,98.11352782982738L162.5925925925926,97.33474280759187L171.4814814814815,96.22038375138497L180.37037037037038,95.05537201080504L189.2592592592593,93.68141794718629L198.14814814814818,92.80765914175137L207.03703703703707,92.14917424490184L215.92592592592595,92.14917424490184L224.81481481481484,91.22476275509388L233.70370370370372,90.78788335237637L242.5925925925926,90.09140894224706L251.4814814814815,89.7621664938223L260.3703703703704,85.40603563774079L269.2592592592593,85.08945636040932" stroke="#ff9da6" stroke-width="2" opacity="1"></path></g></g><path class="foreground" aria-hidden="true" d="" display="none"></path></g><g transform="translate(0,0)"><path class="background" aria-hidden="true" d="M0,0h266.6666666666667v266.6666666666667h-266.6666666666667Z"></path><g><g class="mark-line role-mark marks" clip-path="url(#clip9)" role="graphics-object" aria-roledescription="line mark container"><path aria-label="Country: US; Date: Mar 01, 2020; Confirmed: 0.226516165367; Recovered: 0.0214272048321; Deaths: 0.00306102926172; : 0.00306102926172" role="graphics-symbol" aria-roledescription="line mark" d="M-468.14814814814815,266.66575969503356L-459.2592592592593,266.66122483686803L-450.3703703703704,266.66031786523496L-441.48148148148147,266.65668997870256L-432.5925925925926,266.65578300706943L-423.7037037037037,266.65396906380323L-414.81481481481484,266.65124814890396L-405.9259259259259,266.6476202623715L-397.40740740740745,266.64671329073843L-388.51851851851853,266.64127146093983L-379.6296296296297,266.634015687875L-370.74074074074076,266.6285738580763L-361.8518518518519,266.6213180850115L-352.962962962963,266.6122483686805L-344.07407407407413,266.59955076581707L-335.1851851851852,266.57596950335636L-326.29629629629636,266.54513246783085L-317.40740740740745,266.5170163472047L-308.5185185185186,266.431761013693L-299.6296296296297,266.34922659508067L-290.74074074074076,266.2657852048352L-281.8518518518519,266.13427431803524L-272.96296296296293,265.9537869630477L-264.0740740740741,265.7497183455996L-255.18518518518522,265.46946411097076L-246.29629629629633,265.101233627931L-237.40740740740742,264.6087480311561L-228.51851851851853,264.1779365054321L-219.62962962962965,263.5648236814545L-210.74074074074073,262.8610136941667L-201.85185185185185,261.79894991180305L-192.96296296296296,260.76137436353326L-184.07407407407408,259.46712584309535L-175.1851851851852,258.2681093441332L-166.2962962962963,256.80788501483744L-157.40740740740742,255.44289270701748L-148.51851851851853,254.0652027963341L-139.62962962962965,251.9818889550966L-130.74074074074073,250.09629492987554L-121.85185185185186,248.26602617427375L-112.96296296296298,246.38950186538372L-104.07407407407408,244.56739585447986L-95.18518518518519,243.00740464554275L-86.2962962962963,241.38936725208708L-77.40740740740742,239.21989110570476L-68.51851851851852,236.95427596621357L-59.62962962962963,235.064147082827L-50.74074074074074,232.72053238288893L-41.851851851851855,230.59186995999627L-32.96296296296297,229.5307131492658L-24.074074074074076,227.95167553603355L-15.185185185185185,225.77494361658643L-6.296296296296297,223.66532759798892L2.592592592592593,221.56840918225487L11.481481481481483,219.96397636329573L20.370370370370374,217.9124065292168L29.25925925925926,216.8911564703429L38.148148148148145,215.67762842525113L47.037037037037045,213.74033701694322L55.92592592592593,211.37132711127825L64.81481481481482,209.53108166771233L73.70370370370371,207.76520789806088L82.5925925925926,206.47186634925603L91.4814814814815,205.28101259499186L100.37037037037038,204.15636776994415L109.25925925925927,202.21363453183764L118.14814814814815,200.04506535708842L127.03703703703704,198.04337896283022L135.92592592592592,196.6665960237799L144.8148148148148,195.20183683631862L153.7037037037037,194.53884057252034L162.5925925925926,193.4903813646533L171.4814814814815,191.97211085083896L180.37037037037038,190.37311986167842L189.2592592592593,188.75961732638825L198.14814814814818,187.27943962116422L207.03703703703707,186.1693063422462L215.92592592592595,185.436473262699L224.81481481481484,184.72450053071316L233.70370370370372,183.2969271802091L242.5925925925926,181.9201442411588L251.4814814814815,180.77463906854976L260.3703703703704,179.61643629307727L269.2592592592593,178.61151172359916" stroke="#9d755d" stroke-width="2" opacity="1"></path></g></g><path class="foreground" aria-hidden="true" d="" display="none"></path></g><g transform="translate(0,0)"><path class="background" aria-hidden="true" d="M0,0h266.6666666666667v266.6666666666667h-266.6666666666667Z"></path><g><g class="mark-line role-mark marks" clip-path="url(#clip10)" role="graphics-object" aria-roledescription="line mark container"><path aria-label="Country: United Kingdom; Date: Mar 01, 2020; Confirmed: 0.541676401795; Recovered: 0.120372533732; Deaths: 0; : 0" role="graphics-symbol" aria-roledescription="line mark" d="M-468.14814814814815,266.6666666666667L-459.2592592592593,266.6666666666667L-450.3703703703704,266.6666666666667L-441.48148148148147,266.6666666666667L-432.5925925925926,266.6666666666667L-423.7037037037037,266.6622084246766L-414.81481481481484,266.6577501826865L-405.9259259259259,266.6577501826865L-397.40740740740745,266.6532919406964L-388.51851851851853,266.6354589727361L-379.6296296296297,266.6354589727361L-370.74074074074076,266.62654248875594L-361.8518518518519,266.62208424676584L-352.962962962963,266.5418358909443L-344.07407407407413,266.474962261093L-335.1851851851852,266.37688093731117L-326.29629629629636,266.3055490654698L-317.40740740740745,266.15396883780693L-308.5185185185186,265.96226443223327L-299.6296296296297,265.8017677205902L-290.74074074074076,265.5521061691454L-281.8518518518519,265.39606769949245L-272.96296296296293,265.06615779222614L-264.0740740740741,264.40187973570346L-255.18518518518522,263.57264672554766L-246.29629629629633,262.7567884413621L-237.40740740740742,261.49064771617793L-228.51851851851853,260.17992457109295L-219.62962962962965,259.22586078521476L-210.74074074074073,257.55847828092294L-201.85185185185185,255.85542984071046L-192.96296296296296,252.8684077073535L-184.07407407407408,249.96163392981805L-175.1851851851852,246.77844914889732L-166.2962962962963,243.3901852364327L-157.40740740740742,240.51907739481794L-148.51851851851853,237.98679594444965L-139.62962962962965,233.35914075874138L-130.74074074074073,228.74931854099341L-121.85185185185186,223.83187762592962L-112.96296296296298,218.69598285335167L-104.07407407407408,214.95551782367033L-95.18518518518519,211.897163818472L-86.2962962962963,208.5802317778487L-77.40740740740742,203.92582714019994L-68.51851851851852,200.17198738454834L-59.62962962962963,195.58445637675084L-50.74074074074074,191.4160001160213L-41.851851851851855,186.4450602970765L-32.96296296296297,184.22485578601413L-24.074074074074076,181.73269851355664L-15.185185185185185,176.50763890117693L-6.296296296296297,172.77609035547576L2.592592592592593,169.53494842868395L11.481481481481483,165.05441522864845L20.370370370370374,161.29611723100678L29.25925925925926,159.42365559517106L38.148148148148145,157.9167698025223L47.037037037037045,153.864227833535L55.92592592592593,150.31992545141745L64.81481481481482,147.3150703501001L73.70370370370371,144.02042951942727L82.5925925925926,141.25186124358447L91.4814814814815,139.84751501670766L100.37037037037038,138.5635413235632L109.25925925925927,135.47397962443424L118.14814814814815,132.58058057286902L127.03703703703704,130.17758814021323L135.92592592592592,127.38672865441998L144.8148148148148,125.84417692585056L153.7037037037037,124.64936807250777L162.5925925925926,123.71313725458991L171.4814814814815,120.91781952680661L180.37037037037038,118.71544798370459L189.2592592592593,116.80732041194817L198.14814814814818,115.09535548775553L207.03703703703707,113.00889823639571L215.92592592592595,112.25099709808126L224.81481481481484,111.53767837966765L233.70370370370372,109.10793649507133L242.5925925925926,107.48959465267045L251.4814814814815,105.98270886002173L260.3703703703704,104.41786592150186L269.2592592592593,103.16064168029786" stroke="#bab0ac" stroke-width="2" opacity="1"></path></g></g><path class="foreground" aria-hidden="true" d="" display="none"></path></g></g><g class="mark-group role-legend" role="graphics-symbol" aria-roledescription="legend" aria-label="Symbol legend for stroke color with 10 values: Belgium, Brazil, France, Germany, Iran, ending with United Kingdom"><g transform="translate(285,0)"><path class="background" aria-hidden="true" d="M0,0h79v128h-79Z" pointer-events="none"></path><g><g class="mark-group role-legend-entry"><g transform="translate(0,0)"><path class="background" aria-hidden="true" d="M0,0h0v0h0Z" pointer-events="none"></path><g><g class="mark-group role-scope Country_legend_entries" role="graphics-object" aria-roledescription="group mark container"><g transform="translate(0,0)"><path class="background" aria-hidden="true" d="M0,0h79v11h-79Z" opacity="1"></path><g><g class="mark-symbol role-legend-symbol Country_legend_symbols"><path transform="translate(6,6)" d="M-5,0L5,0" stroke="#4c78a8" stroke-width="1.5" opacity="1"></path></g><g class="mark-text role-legend-label Country_legend_labels"><text text-anchor="start" transform="translate(16,9)" font-family="Roboto Condensed" font-size="10px" fill="#000" opacity="1">Belgium</text></g></g><path class="foreground" aria-hidden="true" d="" display="none"></path></g><g transform="translate(0,13)"><path class="background" aria-hidden="true" d="M0,0h79v11h-79Z" opacity="1"></path><g><g class="mark-symbol role-legend-symbol Country_legend_symbols"><path transform="translate(6,6)" d="M-5,0L5,0" stroke="#f58518" stroke-width="1.5" opacity="1"></path></g><g class="mark-text role-legend-label Country_legend_labels"><text text-anchor="start" transform="translate(16,9)" font-family="Roboto Condensed" font-size="10px" fill="#000" opacity="1">Brazil</text></g></g><path class="foreground" aria-hidden="true" d="" display="none"></path></g><g transform="translate(0,26)"><path class="background" aria-hidden="true" d="M0,0h79v11h-79Z" opacity="1"></path><g><g class="mark-symbol role-legend-symbol Country_legend_symbols"><path transform="translate(6,6)" d="M-5,0L5,0" stroke="#e45756" stroke-width="1.5" opacity="1"></path></g><g class="mark-text role-legend-label Country_legend_labels"><text text-anchor="start" transform="translate(16,9)" font-family="Roboto Condensed" font-size="10px" fill="#000" opacity="1">France</text></g></g><path class="foreground" aria-hidden="true" d="" display="none"></path></g><g transform="translate(0,39)"><path class="background" aria-hidden="true" d="M0,0h79v11h-79Z" opacity="1"></path><g><g class="mark-symbol role-legend-symbol Country_legend_symbols"><path transform="translate(6,6)" d="M-5,0L5,0" stroke="#72b7b2" stroke-width="1.5" opacity="1"></path></g><g class="mark-text role-legend-label Country_legend_labels"><text text-anchor="start" transform="translate(16,9)" font-family="Roboto Condensed" font-size="10px" fill="#000" opacity="1">Germany</text></g></g><path class="foreground" aria-hidden="true" d="" display="none"></path></g><g transform="translate(0,52)"><path class="background" aria-hidden="true" d="M0,0h79v11h-79Z" opacity="1"></path><g><g class="mark-symbol role-legend-symbol Country_legend_symbols"><path transform="translate(6,6)" d="M-5,0L5,0" stroke="#54a24b" stroke-width="1.5" opacity="1"></path></g><g class="mark-text role-legend-label Country_legend_labels"><text text-anchor="start" transform="translate(16,9)" font-family="Roboto Condensed" font-size="10px" fill="#000" opacity="1">Iran</text></g></g><path class="foreground" aria-hidden="true" d="" display="none"></path></g><g transform="translate(0,65)"><path class="background" aria-hidden="true" d="M0,0h79v11h-79Z" opacity="1"></path><g><g class="mark-symbol role-legend-symbol Country_legend_symbols"><path transform="translate(6,6)" d="M-5,0L5,0" stroke="#eeca3b" stroke-width="1.5" opacity="1"></path></g><g class="mark-text role-legend-label Country_legend_labels"><text text-anchor="start" transform="translate(16,9)" font-family="Roboto Condensed" font-size="10px" fill="#000" opacity="1">Italy</text></g></g><path class="foreground" aria-hidden="true" d="" display="none"></path></g><g transform="translate(0,78)"><path class="background" aria-hidden="true" d="M0,0h79v11h-79Z" opacity="1"></path><g><g class="mark-symbol role-legend-symbol Country_legend_symbols"><path transform="translate(6,6)" d="M-5,0L5,0" stroke="#b279a2" stroke-width="1.5" opacity="1"></path></g><g class="mark-text role-legend-label Country_legend_labels"><text text-anchor="start" transform="translate(16,9)" font-family="Roboto Condensed" font-size="10px" fill="#000" opacity="1">Mexico</text></g></g><path class="foreground" aria-hidden="true" d="" display="none"></path></g><g transform="translate(0,91)"><path class="background" aria-hidden="true" d="M0,0h79v11h-79Z" opacity="1"></path><g><g class="mark-symbol role-legend-symbol Country_legend_symbols"><path transform="translate(6,6)" d="M-5,0L5,0" stroke="#ff9da6" stroke-width="1.5" opacity="1"></path></g><g class="mark-text role-legend-label Country_legend_labels"><text text-anchor="start" transform="translate(16,9)" font-family="Roboto Condensed" font-size="10px" fill="#000" opacity="1">Spain</text></g></g><path class="foreground" aria-hidden="true" d="" display="none"></path></g><g transform="translate(0,104)"><path class="background" aria-hidden="true" d="M0,0h79v11h-79Z" opacity="1"></path><g><g class="mark-symbol role-legend-symbol Country_legend_symbols"><path transform="translate(6,6)" d="M-5,0L5,0" stroke="#9d755d" stroke-width="1.5" opacity="1"></path></g><g class="mark-text role-legend-label Country_legend_labels"><text text-anchor="start" transform="translate(16,9)" font-family="Roboto Condensed" font-size="10px" fill="#000" opacity="1">US</text></g></g><path class="foreground" aria-hidden="true" d="" display="none"></path></g><g transform="translate(0,117)"><path class="background" aria-hidden="true" d="M0,0h79v11h-79Z" opacity="1"></path><g><g class="mark-symbol role-legend-symbol Country_legend_symbols"><path transform="translate(6,6)" d="M-5,0L5,0" stroke="#bab0ac" stroke-width="1.5" opacity="1"></path></g><g class="mark-text role-legend-label Country_legend_labels"><text text-anchor="start" transform="translate(16,9)" font-family="Roboto Condensed" font-size="10px" fill="#000" opacity="1">United Kingdom</text></g></g><path class="foreground" aria-hidden="true" d="" display="none"></path></g></g></g><path class="foreground" aria-hidden="true" d="" pointer-events="none" display="none"></path></g></g></g><path class="foreground" aria-hidden="true" d="" pointer-events="none" display="none"></path></g></g><g class="mark-group role-title"><g transform="translate(133.33333333333334,-22)"><path class="background" aria-hidden="true" d="M0,0h0v0h0Z" pointer-events="none"></path><g><g class="mark-text role-title-text" role="graphics-symbol" aria-roledescription="title" aria-label="Title text 'Deaths (total)/million people'" pointer-events="none"><text text-anchor="middle" transform="translate(0,10)" font-family="Roboto Condensed" font-size="13px" font-weight="normal" fill="#000" opacity="1">Deaths (total)/million people</text></g></g><path class="foreground" aria-hidden="true" d="" pointer-events="none" display="none"></path></g></g></g><path class="foreground" aria-hidden="true" d="" display="none"></path></g></g></g></svg>