<svg class="marks" width="419.6666666666667" height="310.6666666666667" viewBox="0 0 419.6666666666667 310.6666666666667" version="1.1" xmlns="http://www.w3.org/2000/svg" xmlns:xlink="http://www.w3.org/1999/xlink"><defs><clipPath id="clip1"><rect x="0" y="0" width="266.6666666666667" height="266.6666666666667"></rect></clipPath><clipPath id="clip2"><rect x="0" y="0" width="266.6666666666667" height="266.6666666666667"></rect></clipPath><clipPath id="clip3"><rect x="0" y="0" width="266.6666666666667" height="266.6666666666667"></rect></clipPath><clipPath id="clip4"><rect x="0" y="0" width="266.6666666666667" height="266.6666666666667"></rect></clipPath><clipPath id="clip5"><rect x="0" y="0" width="266.6666666666667" height="266.6666666666667"></rect></clipPath><clipPath id="clip6"><rect x="0" y="0" width="266.6666666666667" height="266.6666666666667"></rect></clipPath><clipPath id="clip7"><rect x="0" y="0" width="266.6666666666667" height="266.6666666666667"></rect></clipPath><clipPath id="clip8"><rect x="0" y="0" width="266.6666666666667" height="266.6666666666667"></rect></clipPath><clipPath id="clip9"><rect x="0" y="0" width="266.6666666666667" height="266.6666666666667"></rect></clipPath><clipPath id="clip10"><rect x="0" y="0" width="266.6666666666667" height="266.6666666666667"></rect></clipPath></defs><rect width="419.6666666666667" height="310.6666666666667" fill="white"></rect><g fill="none" stroke-miterlimit="10" transform="translate(50,27)"><g class="mark-group role-frame root" role="graphics-object" aria-roledescription="group mark container"><g transform="translate(0,0)"><path class="background" aria-hidden="true" d="M0,0h266.6666666666667v266.6666666666667h-266.6666666666667Z" stroke="#ddd" stroke-width="0"></path><g><g class="mark-group role-axis" aria-hidden="true"><g transform="translate(0.5,0.5)"><path class="background" aria-hidden="true" d="M0,0h0v0h0Z" pointer-events="none"></path><g><g class="mark-rule role-axis-grid" pointer-events="none"><line transform="translate(0,267)" x2="266.6666666666667" y2="0" stroke="#ddd" stroke-width="1" opacity="1"></line><line transform="translate(0,237)" x2="266.6666666666667" y2="0" stroke="#ddd" stroke-width="1" opacity="1"></line><line transform="translate(0,207)" x2="266.6666666666667" y2="0" stroke="#ddd" stroke-width="1" opacity="1"></line><line transform="translate(0,178)" x2="266.6666666666667" y2="0" stroke="#ddd" stroke-width="1" opacity="1"></line><line transform="translate(0,148)" x2="266.6666666666667" y2="0" stroke="#ddd" stroke-width="1" opacity="1"></line><line transform="translate(0,119)" x2="266.6666666666667" y2="0" stroke="#ddd" stroke-width="1" opacity="1"></line><line transform="translate(0,89)" x2="266.6666666666667" y2="0" stroke="#ddd" stroke-width="1" opacity="1"></line><line transform="translate(0,59)" x2="266.6666666666667" y2="0" stroke="#ddd" stroke-width="1" opacity="1"></line><line transform="translate(0,30)" x2="266.6666666666667" y2="0" stroke="#ddd" stroke-width="1" opacity="1"></line><line transform="translate(0,0)" x2="266.6666666666667" y2="0" stroke="#ddd" stroke-width="1" opacity="1"></line></g></g><path class="foreground" aria-hidden="true" d="" pointer-events="none" display="none"></path></g></g><g class="mark-group role-axis" role="graphics-symbol" aria-roledescription="axis" aria-label="X-axis for a time scale with values from Wednesday, 22 April 2020, 5:00:00 PM to Friday, 22 May 2020, 5:00:00 PM"><g transform="translate(0.5,267.1666666666667)"><path class="background" aria-hidden="true" d="M0,0h0v0h0Z" pointer-events="none"></path><g><g class="mark-text role-axis-label" pointer-events="none"><text text-anchor="middle" transform="translate(29.25925925925926,10)" font-family="Roboto Condensed" font-size="10px" fill="#000" opacity="1">Apr 26</text><text text-anchor="middle" transform="translate(91.4814814814815,10)" font-family="Roboto Condensed" font-size="10px" fill="#000" opacity="1">May 03</text><text text-anchor="middle" transform="translate(153.7037037037037,10)" font-family="Roboto Condensed" font-size="10px" fill="#000" opacity="1">May 10</text><text text-anchor="middle" transform="translate(215.92592592592595,10)" font-family="Roboto Condensed" font-size="10px" fill="#000" opacity="1">May 17</text></g><g class="mark-rule role-axis-domain" pointer-events="none"><line transform="translate(0,0)" x2="266.6666666666667" y2="0" stroke="lightgray" stroke-width="1" opacity="1"></line></g></g><path class="foreground" aria-hidden="true" d="" pointer-events="none" display="none"></path></g></g><g class="mark-group role-axis" role="graphics-symbol" aria-roledescription="axis" aria-label="Y-axis for a linear scale with values from -2,000 to 16,000"><g transform="translate(0.5,0.5)"><path class="background" aria-hidden="true" d="M0,0h0v0h0Z" pointer-events="none"></path><g><g class="mark-text role-axis-label" pointer-events="none"><text text-anchor="end" transform="translate(-2,269.6666666666667)" font-family="Roboto Condensed" font-size="10px" fill="#000" opacity="1">-2,000</text><text text-anchor="end" transform="translate(-2,240.03703703703704)" font-family="Roboto Condensed" font-size="10px" fill="#000" opacity="1">0</text><text text-anchor="end" transform="translate(-2,210.40740740740742)" font-family="Roboto Condensed" font-size="10px" fill="#000" opacity="1">2,000</text><text text-anchor="end" transform="translate(-2,180.7777777777778)" font-family="Roboto Condensed" font-size="10px" fill="#000" opacity="1">4,000</text><text text-anchor="end" transform="translate(-2,151.14814814814815)" font-family="Roboto Condensed" font-size="10px" fill="#000" opacity="1">6,000</text><text text-anchor="end" transform="translate(-2,121.51851851851852)" font-family="Roboto Condensed" font-size="10px" fill="#000" opacity="1">8,000</text><text text-anchor="end" transform="translate(-2,91.8888888888889)" font-family="Roboto Condensed" font-size="10px" fill="#000" opacity="1">10,000</text><text text-anchor="end" transform="translate(-2,62.25925925925926)" font-family="Roboto Condensed" font-size="10px" fill="#000" opacity="1">12,000</text><text text-anchor="end" transform="translate(-2,32.62962962962965)" font-family="Roboto Condensed" font-size="10px" fill="#000" opacity="1">14,000</text><text text-anchor="end" transform="translate(-2,3)" font-family="Roboto Condensed" font-size="10px" fill="#000" opacity="1">16,000</text></g><g class="mark-rule role-axis-domain" pointer-events="none"><line transform="translate(0,266.6666666666667)" x2="0" y2="-266.6666666666667" stroke="lightgray" stroke-width="1" opacity="1"></line></g></g><path class="foreground" aria-hidden="true" d="" pointer-events="none" display="none"></path></g></g><g class="mark-group role-scope pathgroup" role="graphics-object" aria-roledescription="group mark container"><g transform="translate(0,0)"><path class="background" aria-hidden="true" d="M0,0h266.6666666666667v266.6666666666667h-266.6666666666667Z"></path><g><g class="mark-line role-mark marks" clip-path="url(#clip1)" role="graphics-object" aria-roledescription="line mark container"><path aria-label="Country: Belgium; Date: Mar 01, 2020; Confirmed: 0; Recovered: 0; Deaths: 0; : 0" role="graphics-symbol" aria-roledescription="line mark" d="M-414.81481481481484,237.03703703703704L-405.9259259259259,237.03703703703704L-397.40740740740745,237.03703703703704L-388.51851851851853,237.03703703703704L-379.6296296296297,237.03703703703704L-370.74074074074076,237.03703703703704L-361.8518518518519,237.03703703703704L-352.962962962963,237.03703703703704L-344.07407407407413,237.03703703703704L-335.1851851851852,237.03703703703704L-326.29629629629636,237.03703703703704L-317.40740740740745,236.973544973545L-308.5185185185186,236.973544973545L-299.6296296296297,237.03703703703704L-290.74074074074076,236.4825396825397L-281.8518518518519,236.4825396825397L-272.96296296296293,236.4825396825397L-264.0740740740741,236.06349206349208L-255.18518518518522,235.94497354497355L-246.29629629629633,235.6740740740741L-237.40740740740742,235.22328042328044L-228.51851851851853,235.34391534391534L-219.62962962962965,234.71746031746034L-210.74074074074073,234.36190476190478L-201.85185185185185,234.42328042328043L-192.96296296296296,233.6825396825397L-184.07407407407408,233.18518518518522L-175.1851851851852,232.7746031746032L-166.2962962962963,232.41481481481483L-157.40740740740742,231.9746031746032L-148.51851851851853,231.83280423280425L-139.62962962962965,231.82857142857145L-130.74074074074073,231.64232804232807L-121.85185185185186,231.38835978835982L-112.96296296296298,231.33121693121697L-104.07407407407408,231.24021164021164L-95.18518518518519,231.29735449735452L-86.2962962962963,231.2783068783069L-77.40740740740742,231.29947089947092L-68.51851851851852,231.90264550264553L-59.62962962962963,231.96190476190478L-50.74074074074074,231.9724867724868L-41.851851851851855,232.03809523809525L-32.96296296296297,232.1820105820106L-24.074074074074076,232.40634920634923L-15.185185185185185,232.52063492063493L-6.296296296296297,232.11428571428573L2.592592592592593,232.3005291005291L11.481481481481483,232.46349206349208L20.370370370370374,232.6582010582011L29.25925925925926,232.74497354497356L38.148148148148145,232.84021164021163L47.037037037037045,232.92910052910054L55.92592592592593,233.12169312169314L64.81481481481482,233.2783068783069L73.70370370370371,233.29100529100532L82.5925925925926,233.24021164021167L91.4814814814815,233.81164021164022L100.37037037037038,233.86243386243387L109.25925925925927,233.86666666666667L118.14814814814815,233.9724867724868L127.03703703703704,234.06560846560848L135.92592592592592,234.2666666666667L144.8148148148148,234.4973544973545L153.7037037037037,234.21587301587303L162.5925925925926,234.24550264550265L171.4814814814815,234.30476190476193L180.37037037037038,234.48465608465608L189.2592592592593,234.64338624338626L198.14814814814818,234.7089947089947L207.03703703703707,234.81693121693124L215.92592592592595,234.94603174603176L224.81481481481484,235.005291005291L233.70370370370372,235.015873015873L242.5925925925926,235.11111111111114L251.4814814814815,235.1809523809524L260.3703703703704,235.29735449735452L269.2592592592593,235.56613756613757" stroke="#4c78a8" stroke-width="2" opacity="1"></path></g></g><path class="foreground" aria-hidden="true" d="" display="none"></path></g><g transform="translate(0,0)"><path class="background" aria-hidden="true" d="M0,0h266.6666666666667v266.6666666666667h-266.6666666666667Z"></path><g><g class="mark-line role-mark marks" clip-path="url(#clip2)" role="graphics-object" aria-roledescription="line mark container"><path aria-label="Country: Brazil; Date: Mar 01, 2020; Confirmed: 0; Recovered: 0; Deaths: 0; : 0" role="graphics-symbol" aria-roledescription="line mark" d="M-414.81481481481484,237.03703703703704L-405.9259259259259,237.03703703703704L-397.40740740740745,237.03703703703704L-388.51851851851853,237.03703703703704L-379.6296296296297,237.03703703703704L-370.74074074074076,237.03703703703704L-361.8518518518519,237.03703703703704L-352.962962962963,237.03703703703704L-344.07407407407413,237.03703703703704L-335.1851851851852,237.03492063492067L-326.29629629629636,237.03280423280424L-317.40740740740745,237.03280423280424L-308.5185185185186,237.03280423280424L-299.6296296296297,237.03280423280424L-290.74074074074076,237.03280423280424L-281.8518518518519,237.03280423280424L-272.96296296296293,237.03492063492067L-264.0740740740741,237.03703703703704L-255.18518518518522,237.03703703703704L-246.29629629629633,237.02857142857144L-237.40740740740742,237.02857142857144L-228.51851851851853,237.02857142857144L-219.62962962962965,237.02857142857144L-210.74074074074073,236.7873015873016L-201.85185185185185,236.7724867724868L-192.96296296296296,236.7724867724868L-184.07407407407408,236.78095238095239L-175.1851851851852,236.78095238095239L-166.2962962962963,236.78095238095239L-157.40740740740742,236.78095238095239L-148.51851851851853,237.02222222222224L-139.62962962962965,237.03703703703704L-130.74074074074073,237.03703703703704L-121.85185185185186,236.93968253968254L-112.96296296296298,236.93968253968254L-104.07407407407408,236.93968253968254L-95.18518518518519,236.93968253968254L-86.2962962962963,236.93968253968254L-77.40740740740742,230.8592592592593L-68.51851851851852,207.62116402116405L-59.62962962962963,207.71851851851852L-50.74074074074074,207.71851851851852L-41.851851851851855,207.71851851851852L-32.96296296296297,190.56719576719578L-24.074074074074076,190.56719576719578L-15.185185185185185,194.82539682539684L-6.296296296296297,213.13862433862437L2.592592592592593,210.48253968253968L11.481481481481483,208.1925925925926L20.370370370370374,205.0074074074074L29.25925925925926,220.05925925925928L38.148148148148145,217.96402116402115L47.037037037037045,216.81904761904764L55.92592592592593,218.3830687830688L64.81481481481482,217.2232804232804L73.70370370370371,215.06031746031746L82.5925925925926,212.11216931216933L91.4814814814815,209.86455026455027L100.37037037037038,205.9830687830688L109.25925925925927,203.85820105820105L118.14814814814815,200.55449735449739L127.03703703703704,195.94708994708995L135.92592592592592,192.04656084656085L144.8148148148148,193.12592592592594L153.7037037037037,190.5481481481482L162.5925925925926,191.38835978835982L171.4814814814815,185.44761904761907L180.37037037037038,179.7798941798942L189.2592592592593,185.97037037037038L198.14814814814818,182.7026455026455L207.03703703703707,177.80529100529102L215.92592592592595,175.31216931216932L224.81481481481484,167.03703703703704L233.70370370370372,164.66243386243386L242.5925925925926,156.06560846560848L251.4814814814815,138.6645502645503L260.3703703703704,130.24338624338628L269.2592592592593,125.04761904761907" stroke="#f58518" stroke-width="2" opacity="1"></path></g></g><path class="foreground" aria-hidden="true" d="" display="none"></path></g><g transform="translate(0,0)"><path class="background" aria-hidden="true" d="M0,0h266.6666666666667v266.6666666666667h-266.6666666666667Z"></path><g><g class="mark-line role-mark marks" clip-path="url(#clip3)" role="graphics-object" aria-roledescription="line mark container"><path aria-label="Country: France; Date: Mar 01, 2020; Confirmed: 0; Recovered: 0; Deaths: 0; : 0" role="graphics-symbol" aria-roledescription="line mark" d="M-414.81481481481484,237.03703703703704L-405.9259259259259,237.03703703703704L-397.40740740740745,237.03703703703704L-388.51851851851853,237.03703703703704L-379.6296296296297,237.03703703703704L-370.74074074074076,237.03703703703704L-361.8518518518519,237.03703703703704L-352.962962962963,237.03703703703704L-344.07407407407413,237.03703703703704L-335.1851851851852,237.03703703703704L-326.29629629629636,237.03703703703704L-317.40740740740745,237.03703703703704L-308.5185185185186,237.03703703703704L-299.6296296296297,237.03703703703704L-290.74074074074076,237.03703703703704L-281.8518518518519,232.40634920634923L-272.96296296296293,232.40634920634923L-264.0740740740741,230.19894179894183L-255.18518518518522,228.80846560846564L-246.29629629629633,226.5904761904762L-237.40740740740742,224.9989417989418L-228.51851851851853,224.9989417989418L-219.62962962962965,226.45079365079366L-210.74074074074073,224.91640211640214L-201.85185185185185,223.91322751322753L-192.96296296296296,222.15026455026455L-184.07407407407408,221.20634920634922L-175.1851851851852,219.45396825396824L-166.2962962962963,216.42751322751326L-157.40740740740742,218.02962962962962L-148.51851851851853,217.30582010582012L-139.62962962962965,216.09947089947093L-130.74074074074073,215.19576719576722L-121.85185185185186,214.22645502645506L-112.96296296296298,213.91746031746035L-104.07407407407408,213.85608465608468L-95.18518518518519,213.75026455026457L-86.2962962962963,214.8825396825397L-77.40740740740742,217.61904761904762L-68.51851851851852,217.59576719576722L-59.62962962962963,217.79682539682543L-50.74074074074074,218.1968253968254L-41.851851851851855,218.01481481481483L-32.96296296296297,218.44021164021166L-24.074074074074076,217.85396825396825L-15.185185185185185,215.80740740740742L-6.296296296296297,216.82962962962964L2.592592592592593,217.74179894179898L11.481481481481483,218.24126984126985L20.370370370370374,219.1809523809524L29.25925925925926,219.784126984127L38.148148148148145,220.2095238095238L47.037037037037045,221.26137566137567L55.92592592592593,221.48148148148147L64.81481481481482,221.8878306878307L73.70370370370371,223.10052910052912L82.5925925925926,224.47619047619048L91.4814814814815,224.6603174603175L100.37037037037038,224.96296296296296L109.25925925925927,224.74920634920636L118.14814814814815,225.0074074074074L127.03703703703704,225.3883597883598L135.92592592592592,225.46031746031747L144.8148148148148,226.1693121693122L153.7037037037037,226.26666666666668L162.5925925925926,226.1777777777778L171.4814814814815,226.84867724867726L180.37037037037038,227.83915343915345L189.2592592592593,228.0973544973545L198.14814814814818,227.7820105820106L207.03703703703707,228.02962962962965L215.92592592592595,226.78306878306879L224.81481481481484,226.77883597883599L233.70370370370372,227.24021164021167L242.5925925925926,227.84126984126985L251.4814814814815,228.74920634920636L260.3703703703704,230.53333333333336L269.2592592592593,230.53121693121693" stroke="#e45756" stroke-width="2" opacity="1"></path></g></g><path class="foreground" aria-hidden="true" d="" display="none"></path></g><g transform="translate(0,0)"><path class="background" aria-hidden="true" d="M0,0h266.6666666666667v266.6666666666667h-266.6666666666667Z"></path><g><g class="mark-line role-mark marks" clip-path="url(#clip4)" role="graphics-object" aria-roledescription="line mark container"><path aria-label="Country: Germany; Date: Mar 01, 2020; Confirmed: 0; Recovered: 0; Deaths: 0; : 0" role="graphics-symbol" aria-roledescription="line mark" d="M-414.81481481481484,237.03280423280424L-405.9259259259259,237.03280423280424L-397.40740740740745,237.03280423280424L-388.51851851851853,237.03280423280424L-379.6296296296297,237.01798941798944L-370.74074074074076,237.01798941798944L-361.8518518518519,236.97566137566142L-352.962962962963,236.97777777777782L-344.07407407407413,236.97777777777782L-335.1851851851852,236.93333333333334L-326.29629629629636,236.93333333333334L-317.40740740740745,236.8677248677249L-308.5185185185186,236.85079365079366L-299.6296296296297,236.7534391534392L-290.74074074074076,236.64126984126986L-281.8518518518519,236.57142857142858L-272.96296296296293,236.61587301587304L-264.0740740740741,230.31534391534393L-255.18518518518522,229.75238095238097L-246.29629629629633,225.2698412698413L-237.40740740740742,223.32698412698414L-228.51851851851853,219.5809523809524L-219.62962962962965,218.10582010582013L-210.74074074074073,209.02857142857144L-201.85185185185185,209.82645502645502L-192.96296296296296,204.9671957671958L-184.07407407407408,201.55132275132277L-175.1851851851852,199.11746031746034L-166.2962962962963,199.11322751322754L-157.40740740740742,195.7904761904762L-148.51851851851853,204.86772486772486L-139.62962962962965,194.74920634920636L-130.74074074074073,178.62433862433866L-121.85185185185186,173.61481481481482L-112.96296296296298,174.94603174603174L-104.07407407407408,171.42857142857142L-95.18518518518519,170.15873015873015L-86.2962962962963,161.69312169312173L-77.40740740740742,169.06031746031746L-68.51851851851852,181.3756613756614L-59.62962962962963,184.98835978835982L-50.74074074074074,175.23597883597884L-41.851851851851855,177.7777777777778L-32.96296296296297,178.41269841269843L-24.074074074074076,179.4708994708995L-15.185185185185185,179.89417989417993L-6.296296296296297,180.31746031746033L2.592592592592593,181.3756613756614L11.481481481481483,180.55873015873019L20.370370370370374,185.3968253968254L29.25925925925926,186.24338624338625L38.148148148148145,188.35978835978835L47.037037037037045,190.05291005291005L55.92592592592593,192.5925925925926L64.81481481481482,194.28571428571428L73.70370370370371,200.84656084656086L82.5925925925926,196.40211640211643L91.4814814814815,197.6719576719577L100.37037037037038,198.51851851851853L109.25925925925927,199.5767195767196L118.14814814814815,195.76719576719577L127.03703703703704,198.51851851851853L135.92592592592592,205.71428571428575L144.8148148148148,206.7724867724868L153.7037037037037,207.83068783068785L162.5925925925926,209.69947089947092L171.4814814814815,211.42857142857147L180.37037037037038,218.41269841269843L189.2592592592593,218.83597883597884L198.14814814814818,216.0910052910053L207.03703703703707,217.35449735449737L215.92592592592595,216.69629629629634L224.81481481481484,217.09206349206352L233.70370370370372,219.0878306878307L242.5925925925926,219.54285714285717L251.4814814814815,220.55661375661379L260.3703703703704,221.23386243386244L269.2592592592593,221.97671957671957" stroke="#72b7b2" stroke-width="2" opacity="1"></path></g></g><path class="foreground" aria-hidden="true" d="" display="none"></path></g><g transform="translate(0,0)"><path class="background" aria-hidden="true" d="M0,0h266.6666666666667v266.6666666666667h-266.6666666666667Z"></path><g><g class="mark-line role-mark marks" clip-path="url(#clip5)" role="graphics-object" aria-roledescription="line mark container"><path aria-label="Country: Iran; Date: Mar 01, 2020; Confirmed: 0; Recovered: 0; Deaths: 0; : 0" role="graphics-symbol" aria-roledescription="line mark" d="M-414.81481481481484,233.76507936507937L-405.9259259259259,232.8910052910053L-397.40740740740745,232.5862433862434L-388.51851851851853,231.8730158730159L-379.6296296296297,231.94285714285715L-370.74074074074076,232.33862433862433L-361.8518518518519,232.70687830687834L-352.962962962963,234.30687830687833L-344.07407407407413,231.83915343915345L-335.1851851851852,232.389417989418L-326.29629629629636,231.41164021164022L-317.40740740740745,231.8941798941799L-308.5185185185186,231.21481481481484L-299.6296296296297,229.02433862433864L-290.74074074074076,227.14074074074074L-281.8518518518519,229.96613756613758L-272.96296296296293,229.96613756613758L-264.0740740740741,229.57883597883597L-255.18518518518522,228.0719576719577L-246.29629629629633,226.99047619047622L-237.40740740740742,227.75026455026457L-228.51851851851853,228.47830687830688L-219.62962962962965,227.59788359788362L-210.74074074074073,224.38095238095238L-201.85185185185185,224.88253968253971L-192.96296296296296,224.6603174603175L-184.07407407407408,223.80105820105823L-175.1851851851852,222.64126984126986L-166.2962962962963,219.9851851851852L-157.40740740740742,221.49206349206352L-148.51851851851853,215.18518518518522L-139.62962962962965,210.82962962962966L-130.74074074074073,206.68994708994708L-121.85185185185186,204.02539682539685L-112.96296296296298,199.93650793650798L-104.07407407407408,190.02962962962962L-95.18518518518519,185.90899470899473L-86.2962962962963,191.01164021164024L-77.40740740740742,192.4021164021164L-68.51851851851852,194.45291005291006L-59.62962962962963,194.8783068783069L-50.74074074074074,197.67407407407407L-41.851851851851855,207.32275132275132L-32.96296296296297,209.25079365079367L-24.074074074074076,208.91005291005294L-15.185185185185185,209.87089947089947L-6.296296296296297,209.14285714285714L2.592592592592593,210.34074074074076L11.481481481481483,210.50793650793653L20.370370370370374,211.20423280423284L29.25925925925926,210.2984126984127L38.148148148148145,212.35978835978838L47.037037037037045,212.75343915343916L55.92592592592593,214.43809523809526L64.81481481481482,215.32275132275134L73.70370370370371,216.46772486772488L82.5925925925926,217.6571428571429L91.4814814814815,218.4867724867725L100.37037037037038,219.16190476190476L109.25925925925927,220.02962962962965L118.14814814814815,220.53756613756613L127.03703703703704,220.8656084656085L135.92592592592592,221.12380952380954L144.8148148148148,220.71111111111114L153.7037037037037,220.6962962962963L162.5925925925926,220.01481481481483L171.4814814814815,220.35555555555558L180.37037037037038,220.44232804232806L189.2592592592593,220.53968253968256L198.14814814814818,220.1079365079365L207.03703703703707,219.93015873015875L215.92592592592595,219.42645502645505L224.81481481481484,219.60000000000002L233.70370370370372,218.378835978836L242.5925925925926,217.1851851851852L251.4814814814815,215.82010582010585L260.3703703703704,214.94179894179894L269.2592592592593,213.91534391534395" stroke="#54a24b" stroke-width="2" opacity="1"></path></g></g><path class="foreground" aria-hidden="true" d="" display="none"></path></g><g transform="translate(0,0)"><path class="background" aria-hidden="true" d="M0,0h266.6666666666667v266.6666666666667h-266.6666666666667Z"></path><g><g class="mark-line role-mark marks" clip-path="url(#clip6)" role="graphics-object" aria-roledescription="line mark container"><path aria-label="Country: Italy; Date: Mar 01, 2020; Confirmed: 0; Recovered: 0; Deaths: 0; : 0" role="graphics-symbol" aria-roledescription="line mark" d="M-414.81481481481484,235.8878306878307L-405.9259259259259,235.89629629629633L-397.40740740740745,235.82010582010582L-388.51851851851853,235.84338624338628L-379.6296296296297,235.40952380952382L-370.74074074074076,235.7015873015873L-361.8518518518519,235.09841269841272L-352.962962962963,234.12275132275133L-344.07407407407413,233.41164021164025L-335.1851851851852,232.75132275132276L-326.29629629629636,232.34497354497358L-317.40740740740745,230.73015873015876L-308.5185185185186,229.85185185185185L-299.6296296296297,230.6857142857143L-290.74074074074076,228.34708994708998L-281.8518518518519,227.11322751322754L-272.96296296296293,227.989417989418L-264.0740740740741,225.64021164021167L-255.18518518518522,225.74179894179898L-246.29629629629633,224.50582010582013L-237.40740740740742,223.25925925925927L-228.51851851851853,223.6783068783069L-219.62962962962965,224.32592592592593L-210.74074074074073,220.96084656084656L-201.85185185185185,221.3693121693122L-192.96296296296296,221.19576719576722L-184.07407407407408,220.2814814814815L-175.1851851851852,218.3957671957672L-166.2962962962963,218.81058201058204L-157.40740740740742,218.44444444444443L-148.51851851851853,219.64656084656087L-139.62962962962965,218.70264550264554L-130.74074074074073,216.62645502645506L-121.85185185185186,215.4666666666667L-112.96296296296298,214.39788359788363L-104.07407407407408,212.61798941798943L-95.18518518518519,210.8021164021164L-86.2962962962963,210.37460317460318L-77.40740740740742,210.0783068783069L-68.51851851851852,212.48465608465608L-59.62962962962963,212.2878306878307L-50.74074074074074,211.06455026455026L-41.851851851851855,210.8084656084656L-32.96296296296297,209.85396825396828L-24.074074074074076,208.5883597883598L-15.185185185185185,206.41269841269843L-6.296296296296297,202.22010582010586L2.592592592592593,200.18624338624338L11.481481481481483,199.42645502645505L20.370370370370374,198.53333333333333L29.25925925925926,199.21058201058202L38.148148148148145,199.4772486772487L47.037037037037045,200.33650793650796L55.92592592592593,201.6740740740741L64.81481481481482,198.16084656084658L73.70370370370371,199.4687830687831L82.5925925925926,201.49417989417992L91.4814814814815,201.63809523809525L100.37037037037038,202.63492063492066L109.25925925925927,202.56084656084658L118.14814814814815,190.4910052910053L127.03703703703704,194.00846560846563L135.92592592592592,193.0708994708995L144.8148148148148,188.11216931216933L153.7037037037037,187.23386243386244L162.5925925925926,186.86137566137566L171.4814814814815,186.64973544973546L180.37037037037038,196.19894179894183L189.2592592592593,196.8L198.14814814814818,192.2074074074074L207.03703703703707,195.1767195767196L215.92592592592595,194.7301587301587L224.81481481481484,193.14497354497357L233.70370370370372,193.94285714285715L242.5925925925926,195.25714285714287L251.4814814814815,196.24973544973545L260.3703703703704,202.0846560846561L269.2592592592593,203.11111111111114" stroke="#eeca3b" stroke-width="2" opacity="1"></path></g></g><path class="foreground" aria-hidden="true" d="" display="none"></path></g><g transform="translate(0,0)"><path class="background" aria-hidden="true" d="M0,0h266.6666666666667v266.6666666666667h-266.6666666666667Z"></path><g><g class="mark-line role-mark marks" clip-path="url(#clip7)" role="graphics-object" aria-roledescription="line mark container"><path aria-label="Country: Mexico; Date: Mar 01, 2020; Confirmed: 0; Recovered: 0; Deaths: 0; : 0" role="graphics-symbol" aria-roledescription="line mark" d="M-414.81481481481484,237.03492063492067L-405.9259259259259,237.03492063492067L-397.40740740740745,237.03492063492067L-388.51851851851853,237.03068783068787L-379.6296296296297,237.03068783068787L-370.74074074074076,237.03068783068787L-361.8518518518519,237.03068783068787L-352.962962962963,237.03068783068787L-344.07407407407413,237.03068783068787L-335.1851851851852,237.03068783068787L-326.29629629629636,237.03703703703704L-317.40740740740745,237.03703703703704L-308.5185185185186,237.03703703703704L-299.6296296296297,237.03703703703704L-290.74074074074076,237.03703703703704L-281.8518518518519,237.03703703703704L-272.96296296296293,237.03703703703704L-264.0740740740741,237.03703703703704L-255.18518518518522,237.03703703703704L-246.29629629629633,237.03703703703704L-237.40740740740742,237.03703703703704L-228.51851851851853,237.03703703703704L-219.62962962962965,237.03703703703704L-210.74074074074073,236.9714285714286L-201.85185185185185,236.9714285714286L-192.96296296296296,236.9714285714286L-184.07407407407408,236.9714285714286L-175.1851851851852,235.70582010582012L-166.2962962962963,235.70582010582012L-157.40740740740742,235.70582010582012L-148.51851851851853,235.77142857142857L-139.62962962962965,235.77142857142857L-130.74074074074073,235.77142857142857L-121.85185185185186,235.77142857142857L-112.96296296296298,237.03703703703704L-104.07407407407408,237.03703703703704L-95.18518518518519,234.62645502645506L-86.2962962962963,234.4761904761905L-77.40740740740742,234.22010582010583L-68.51851851851852,233.8793650793651L-59.62962962962963,233.8793650793651L-50.74074074074074,233.8793650793651L-41.851851851851855,233.8793650793651L-32.96296296296297,235.22751322751324L-24.074074074074076,235.3777777777778L-15.185185185185185,235.63386243386245L-6.296296296296297,235.97460317460317L2.592592592592593,235.97460317460317L11.481481481481483,235.97460317460317L20.370370370370374,226.4042328042328L29.25925925925926,224.91640211640214L38.148148148148145,223.36719576719577L47.037037037037045,218.42116402116403L55.92592592592593,218.42116402116403L64.81481481481482,218.42116402116403L73.70370370370371,216.4021164021164L82.5925925925926,225.97248677248677L91.4814814814815,226.25820105820108L100.37037037037038,227.80740740740742L109.25925925925927,225.63597883597888L118.14814814814815,223.5809523809524L127.03703703703704,223.5809523809524L135.92592592592592,220.23915343915345L144.8148148148148,217.04338624338627L153.7037037037037,219.30793650793652L162.5925925925926,216.6074074074074L171.4814814814815,217.72486772486775L180.37037037037038,217.54708994708997L189.2592592592593,214.40423280423283L198.14814814814818,215.5830687830688L207.03703703703707,215.82222222222225L215.92592592592595,212.6878306878307L224.81481481481484,211.03068783068784L233.70370370370372,212.93121693121694L242.5925925925926,212.84867724867726L251.4814814814815,212.32380952380956L260.3703703703704,212.1904761904762L269.2592592592593,210.42116402116403" stroke="#b279a2" stroke-width="2" opacity="1"></path></g></g><path class="foreground" aria-hidden="true" d="" display="none"></path></g><g transform="translate(0,0)"><path class="background" aria-hidden="true" d="M0,0h266.6666666666667v266.6666666666667h-266.6666666666667Z"></path><g><g class="mark-line role-mark marks" clip-path="url(#clip8)" role="graphics-object" aria-roledescription="line mark container"><path aria-label="Country: Spain; Date: Mar 01, 2020; Confirmed: 0; Recovered: 0; Deaths: 0; : 0" role="graphics-symbol" aria-roledescription="line mark" d="M-414.81481481481484,236.97777777777782L-405.9259259259259,236.97777777777782L-397.40740740740745,236.973544973545L-388.51851851851853,236.973544973545L-379.6296296296297,236.6539682539683L-370.74074074074076,236.6539682539683L-361.8518518518519,236.63280423280426L-352.962962962963,236.00634920634923L-344.07407407407413,236.00634920634923L-335.1851851851852,235.9830687830688L-326.29629629629636,234.92910052910054L-317.40740740740745,235.13650793650794L-308.5185185185186,235.0814814814815L-299.6296296296297,234.0846560846561L-290.74074074074076,233.63386243386245L-281.8518518518519,232.68148148148148L-272.96296296296293,232.70899470899474L-264.0740740740741,231.1830687830688L-255.18518518518522,227.96613756613758L-246.29629629629633,224.53333333333333L-237.40740740740742,220.594708994709L-228.51851851851853,215.53439153439155L-219.62962962962965,211.35661375661377L-210.74074074074073,206.973544973545L-201.85185185185185,204.30687830687833L-192.96296296296296,200.46560846560848L-184.07407407407408,195.28465608465612L-175.1851851851852,192.2624338624339L-166.2962962962963,190.61587301587304L-157.40740740740742,187.57460317460317L-148.51851851851853,186.9693121693122L-139.62962962962965,186.35132275132278L-130.74074074074073,183.33544973544974L-121.85185185185186,183.2338624338624L-112.96296296296298,183.79894179894183L-104.07407407407408,184.35978835978838L-95.18518518518519,185.5851851851852L-86.2962962962963,185.62962962962965L-77.40740740740742,185.61693121693122L-68.51851851851852,188.71534391534394L-59.62962962962963,189.13862433862434L-50.74074074074074,196.552380952381L-41.851851851851855,203.83492063492065L-32.96296296296297,205.36296296296297L-24.074074074074076,203.47089947089947L-15.185185185185185,205.2698412698413L-6.296296296296297,205.15978835978837L2.592592592592593,206.44867724867726L11.481481481481483,199.87724867724867L20.370370370370374,192.7809523809524L29.25925925925926,192.56084656084658L38.148148148148145,194.09947089947093L47.037037037037045,194.63703703703703L55.92592592592593,188.2920634920635L64.81481481481482,188.7830687830688L73.70370370370371,195.35449735449737L82.5925925925926,191.44973544973544L91.4814814814815,193.5873015873016L100.37037037037038,193.71851851851852L109.25925925925927,192.72380952380954L118.14814814814815,200.94179894179894L127.03703703703704,202.19894179894183L135.92592592592592,196.61798941798943L144.8148148148148,201.6846560846561L153.7037037037037,200.49947089947094L162.5925925925926,203.60634920634922L171.4814814814815,204.24550264550265L180.37037037037038,205.6698412698413L189.2592592592593,205.5809523809524L198.14814814814818,208.17989417989418L207.03703703703707,210.594708994709L215.92592592592595,215.2804232804233L224.81481481481484,209.02222222222224L233.70370370370372,212.91851851851854L242.5925925925926,216.81904761904764L251.4814814814815,222.21798941798943L260.3703703703704,225.20000000000002L269.2592592592593,228.7195767195767" stroke="#ff9da6" stroke-width="2" opacity="1"></path></g></g><path class="foreground" aria-hidden="true" d="" display="none"></path></g><g transform="translate(0,0)"><path class="background" aria-hidden="true" d="M0,0h266.6666666666667v266.6666666666667h-266.6666666666667Z"></path><g><g class="mark-line role-mark marks" clip-path="url(#clip9)" role="graphics-object" aria-roledescription="line mark container"><path aria-label="Country: US; Date: Mar 01, 2020; Confirmed: 0; Recovered: 0; Deaths: 0; : 0" role="graphics-symbol" aria-roledescription="line mark" d="M-414.81481481481484,237.03703703703704L-405.9259259259259,237.03703703703704L-397.40740740740745,237.03703703703704L-388.51851851851853,237.03492063492067L-379.6296296296297,237.03492063492067L-370.74074074074076,237.02645502645507L-361.8518518518519,237.02645502645507L-352.962962962963,237.02645502645507L-344.07407407407413,237.02645502645507L-335.1851851851852,237.01587301587304L-326.29629629629636,237.01798941798944L-317.40740740740745,236.83174603174604L-308.5185185185186,236.80634920634924L-299.6296296296297,236.75132275132276L-290.74074074074076,236.6899470899471L-281.8518518518519,236.6857142857143L-272.96296296296293,236.6962962962963L-264.0740740740741,236.33650793650796L-255.18518518518522,236.49523809523814L-246.29629629629633,235.85185185185188L-237.40740740740742,235.50899470899472L-228.51851851851853,235.14074074074077L-219.62962962962965,231.77354497354497L-210.74074074074073,225.4687830687831L-201.85185185185185,222.90793650793654L-192.96296296296296,219.86666666666667L-184.07407407407408,219.42857142857144L-175.1851851851852,218.33227513227516L-166.2962962962963,208.2962962962963L-157.40740740740742,205.75026455026457L-148.51851851851853,207.54074074074077L-139.62962962962965,205.84338624338625L-130.74074074074073,205.11111111111111L-121.85185185185186,202.30899470899473L-112.96296296296298,196.64973544973546L-104.07407407407408,201.86666666666667L-95.18518518518519,204.14814814814815L-86.2962962962963,186.45291005291008L-77.40740740740742,182.01058201058203L-68.51851851851852,176.64126984126986L-59.62962962962963,175.04126984126987L-50.74074074074074,174.06349206349208L-41.851851851851855,165.989417989418L-32.96296296296297,157.9915343915344L-24.074074074074076,175.9851851851852L-15.185185185185185,178.96084656084656L-6.296296296296297,183.55555555555557L2.592592592592593,183.0687830687831L11.481481481481483,151.25079365079367L20.370370370370374,161.83703703703702L29.25925925925926,159.46878306878307L38.148148148148145,154.29629629629633L47.037037037037045,150.83174603174604L55.92592592592593,145.28253968253966L64.81481481481482,80.96507936507936L73.70370370370371,99.60634920634921L82.5925925925926,78.28571428571429L91.4814814814815,82.19259259259259L100.37037037037038,76.70687830687832L109.25925925925927,80.73015873015873L118.14814814814815,90.60317460317462L127.03703703703704,150.07619047619048L135.92592592592592,163.0095238095238L144.8148148148148,158.4084656084656L153.7037037037037,160.810582010582L162.5925925925926,140.62857142857143L171.4814814814815,151.33121693121694L180.37037037037038,123.76719576719576L189.2592592592593,128.3005291005291L198.14814814814818,127.5047619047619L207.03703703703707,118.85291005291003L215.92592592592595,118.31534391534392L224.81481481481484,130.27513227513228L233.70370370370372,111.94708994708994L242.5925925925926,129.35026455026457L251.4814814814815,126.9756613756614L260.3703703703704,26.692063492063504L269.2592592592593,40.50158730158732" stroke="#9d755d" stroke-width="2" opacity="1"></path></g></g><path class="foreground" aria-hidden="true" d="" display="none"></path></g><g transform="translate(0,0)"><path class="background" aria-hidden="true" d="M0,0h266.6666666666667v266.6666666666667h-266.6666666666667Z"></path><g><g class="mark-line role-mark marks" clip-path="url(#clip10)" role="graphics-object" aria-roledescription="line mark container"><path aria-label="Country: United Kingdom; Date: Mar 01, 2020; Confirmed: 0; Recovered: 0; Deaths: 0; : 0" role="graphics-symbol" aria-roledescription="line mark" d="M-414.81481481481484,237.01587301587304L-405.9259259259259,237.01587301587304L-397.40740740740745,237.01587301587304L-388.51851851851853,237.01587301587304L-379.6296296296297,237.01587301587304L-370.74074074074076,237.01587301587304L-361.8518518518519,237.01587301587304L-352.962962962963,237.03703703703704L-344.07407407407413,237.03703703703704L-335.1851851851852,237.03280423280424L-326.29629629629636,236.9650793650794L-317.40740740740745,236.93756613756614L-308.5185185185186,236.93756613756614L-299.6296296296297,236.93756613756614L-290.74074074074076,236.93756613756614L-281.8518518518519,236.93756613756614L-272.96296296296293,236.94179894179896L-264.0740740740741,236.8613756613757L-255.18518518518522,236.88888888888889L-246.29629629629633,236.88888888888889L-237.40740740740742,236.88888888888889L-228.51851851851853,236.88888888888889L-219.62962962962965,236.88888888888889L-210.74074074074073,236.88888888888889L-201.85185185185185,237.03703703703704L-192.96296296296296,237.03703703703704L-184.07407407407408,237.03703703703704L-175.1851851851852,237.03703703703704L-166.2962962962963,237.03703703703704L-157.40740740740742,237.03703703703704L-148.51851851851853,237.03703703703704L-139.62962962962965,237.03703703703704L-130.74074074074073,237.03703703703704L-121.85185185185186,237.03703703703704L-112.96296296296298,236.594708994709L-104.07407407407408,236.594708994709L-95.18518518518519,236.594708994709L-86.2962962962963,237.32275132275134L-77.40740740740742,237.32275132275134L-68.51851851851852,237.32275132275134L-59.62962962962963,237.32275132275134L-50.74074074074074,237.7650793650794L-41.851851851851855,237.7650793650794L-32.96296296296297,237.7650793650794L-24.074074074074076,237.03703703703704L-15.185185185185185,237.03703703703704L-6.296296296296297,237.03703703703704L2.592592592592593,237.03703703703704L11.481481481481483,237.03703703703704L20.370370370370374,237.03703703703704L29.25925925925926,237.03703703703704L38.148148148148145,237.03703703703704L47.037037037037045,237.03703703703704L55.92592592592593,237.03703703703704L64.81481481481482,237.03703703703704L73.70370370370371,237.03703703703704L82.5925925925926,237.03703703703704L91.4814814814815,237.03703703703704L100.37037037037038,237.03703703703704L109.25925925925927,237.03703703703704L118.14814814814815,237.03703703703704L127.03703703703704,237.03703703703704L135.92592592592592,237.03703703703704L144.8148148148148,237.03703703703704L153.7037037037037,237.03703703703704L162.5925925925926,237.03703703703704L171.4814814814815,237.03703703703704L180.37037037037038,237.03703703703704L189.2592592592593,237.03703703703704L198.14814814814818,237.03703703703704L207.03703703703707,237.03703703703704L215.92592592592595,237.03703703703704L224.81481481481484,237.03703703703704L233.70370370370372,237.03703703703704L242.5925925925926,237.03703703703704L251.4814814814815,237.03703703703704L260.3703703703704,237.03703703703704L269.2592592592593,237.03703703703704" stroke="#bab0ac" stroke-width="2" opacity="1"></path></g></g><path class="foreground" aria-hidden="true" d="" display="none"></path></g></g><g class="mark-group role-legend" role="graphics-symbol" aria-roledescription="legend" aria-label="Symbol legend for stroke color with 10 values: Belgium, Brazil, France, Germany, Iran, ending with United Kingdom"><g transform="translate(285,0)"><path class="background" aria-hidden="true" d="M0,0h79v128h-79Z" pointer-events="none"></path><g><g class="mark-group role-legend-entry"><g transform="translate(0,0)"><path class="background" aria-hidden="true" d="M0,0h0v0h0Z" pointer-events="none"></path><g><g class="mark-group role-scope Country_legend_entries" role="graphics-object" aria-roledescription="group mark container"><g transform="translate(0,0)"><path class="background" aria-hidden="true" d="M0,0h79v11h-79Z" opacity="1"></path><g><g class="mark-symbol role-legend-symbol Country_legend_symbols"><path transform="translate(6,6)" d="M-5,0L5,0" stroke="#4c78a8" stroke-width="1.5" opacity="1"></path></g><g class="mark-text role-legend-label Country_legend_labels"><text text-anchor="start" transform="translate(16,9)" font-family="Roboto Condensed" font-size="10px" fill="#000" opacity="1">Belgium</text></g></g><path class="foreground" aria-hidden="true" d="" display="none"></path></g><g transform="translate(0,13)"><path class="background" aria-hidden="true" d="M0,0h79v11h-79Z" opacity="1"></path><g><g class="mark-symbol role-legend-symbol Country_legend_symbols"><path transform="translate(6,6)" d="M-5,0L5,0" stroke="#f58518" stroke-width="1.5" opacity="1"></path></g><g class="mark-text role-legend-label Country_legend_labels"><text text-anchor="start" transform="translate(16,9)" font-family="Roboto Condensed" font-size="10px" fill="#000" opacity="1">Brazil</text></g></g><path class="foreground" aria-hidden="true" d="" display="none"></path></g><g transform="translate(0,26)"><path class="background" aria-hidden="true" d="M0,0h79v11h-79Z" opacity="1"></path><g><g class="mark-symbol role-legend-symbol Country_legend_symbols"><path transform="translate(6,6)" d="M-5,0L5,0" stroke="#e45756" stroke-width="1.5" opacity="1"></path></g><g class="mark-text role-legend-label Country_legend_labels"><text text-anchor="start" transform="translate(16,9)" font-family="Roboto Condensed" font-size="10px" fill="#000" opacity="1">France</text></g></g><path class="foreground" aria-hidden="true" d="" display="none"></path></g><g transform="translate(0,39)"><path class="background" aria-hidden="true" d="M0,0h79v11h-79Z" opacity="1"></path><g><g class="mark-symbol role-legend-symbol Country_legend_symbols"><path transform="translate(6,6)" d="M-5,0L5,0" stroke="#72b7b2" stroke-width="1.5" opacity="1"></path></g><g class="mark-text role-legend-label Country_legend_labels"><text text-anchor="start" transform="translate(16,9)" font-family="Roboto Condensed" font-size="10px" fill="#000" opacity="1">Germany</text></g></g><path class="foreground" aria-hidden="true" d="" display="none"></path></g><g transform="translate(0,52)"><path class="background" aria-hidden="true" d="M0,0h79v11h-79Z" opacity="1"></path><g><g class="mark-symbol role-legend-symbol Country_legend_symbols"><path transform="translate(6,6)" d="M-5,0L5,0" stroke="#54a24b" stroke-width="1.5" opacity="1"></path></g><g class="mark-text role-legend-label Country_legend_labels"><text text-anchor="start" transform="translate(16,9)" font-family="Roboto Condensed" font-size="10px" fill="#000" opacity="1">Iran</text></g></g><path class="foreground" aria-hidden="true" d="" display="none"></path></g><g transform="translate(0,65)"><path class="background" aria-hidden="true" d="M0,0h79v11h-79Z" opacity="1"></path><g><g class="mark-symbol role-legend-symbol Country_legend_symbols"><path transform="translate(6,6)" d="M-5,0L5,0" stroke="#eeca3b" stroke-width="1.5" opacity="1"></path></g><g class="mark-text role-legend-label Country_legend_labels"><text text-anchor="start" transform="translate(16,9)" font-family="Roboto Condensed" font-size="10px" fill="#000" opacity="1">Italy</text></g></g><path class="foreground" aria-hidden="true" d="" display="none"></path></g><g transform="translate(0,78)"><path class="background" aria-hidden="true" d="M0,0h79v11h-79Z" opacity="1"></path><g><g class="mark-symbol role-legend-symbol Country_legend_symbols"><path transform="translate(6,6)" d="M-5,0L5,0" stroke="#b279a2" stroke-width="1.5" opacity="1"></path></g><g class="mark-text role-legend-label Country_legend_labels"><text text-anchor="start" transform="translate(16,9)" font-family="Roboto Condensed" font-size="10px" fill="#000" opacity="1">Mexico</text></g></g><path class="foreground" aria-hidden="true" d="" display="none"></path></g><g transform="translate(0,91)"><path class="background" aria-hidden="true" d="M0,0h79v11h-79Z" opacity="1"></path><g><g class="mark-symbol role-legend-symbol Country_legend_symbols"><path transform="translate(6,6)" d="M-5,0L5,0" stroke="#ff9da6" stroke-width="1.5" opacity="1"></path></g><g class="mark-text role-legend-label Country_legend_labels"><text text-anchor="start" transform="translate(16,9)" font-family="Roboto Condensed" font-size="10px" fill="#000" opacity="1">Spain</text></g></g><path class="foreground" aria-hidden="true" d="" display="none"></path></g><g transform="translate(0,104)"><path class="background" aria-hidden="true" d="M0,0h79v11h-79Z" opacity="1"></path><g><g class="mark-symbol role-legend-symbol Country_legend_symbols"><path transform="translate(6,6)" d="M-5,0L5,0" stroke="#9d755d" stroke-width="1.5" opacity="1"></path></g><g class="mark-text role-legend-label Country_legend_labels"><text text-anchor="start" transform="translate(16,9)" font-family="Roboto Condensed" font-size="10px" fill="#000" opacity="1">US</text></g></g><path class="foreground" aria-hidden="true" d="" display="none"></path></g><g transform="translate(0,117)"><path class="background" aria-hidden="true" d="M0,0h79v11h-79Z" opacity="1"></path><g><g class="mark-symbol role-legend-symbol Country_legend_symbols"><path transform="translate(6,6)" d="M-5,0L5,0" stroke="#bab0ac" stroke-width="1.5" opacity="1"></path></g><g class="mark-text role-legend-label Country_legend_labels"><text text-anchor="start" transform="translate(16,9)" font-family="Roboto Condensed" font-size="10px" fill="#000" opacity="1">United Kingdom</text></g></g><path class="foreground" aria-hidden="true" d="" display="none"></path></g></g></g><path class="foreground" aria-hidden="true" d="" pointer-events="none" display="none"></path></g></g></g><path class="foreground" aria-hidden="true" d="" pointer-events="none" display="none"></path></g></g><g class="mark-group role-title"><g transform="translate(133.33333333333334,-22)"><path class="background" aria-hidden="true" d="M0,0h0v0h0Z" pointer-events="none"></path><g><g class="mark-text role-title-text" role="graphics-symbol" aria-roledescription="title" aria-label="Title text 'Recovered/7-day average'" pointer-events="none"><text text-anchor="middle" transform="translate(0,10)" font-family="Roboto Condensed" font-size="13px" font-weight="normal" fill="#000" opacity="1">Recovered/7-day average</text></g></g><path class="foreground" aria-hidden="true" d="" pointer-events="none" display="none"></path></g></g></g><path class="foreground" aria-hidden="true" d="" display="none"></path></g></g></g></svg>