<svg class="marks" width="419.6666666666667" height="310.6666666666667" viewBox="0 0 419.6666666666667 310.6666666666667" version="1.1" xmlns="http://www.w3.org/2000/svg" xmlns:xlink="http://www.w3.org/1999/xlink"><defs><clipPath id="clip1"><rect x="0" y="0" width="266.6666666666667" height="266.6666666666667"></rect></clipPath><clipPath id="clip2"><rect x="0" y="0" width="266.6666666666667" height="266.6666666666667"></rect></clipPath><clipPath id="clip3"><rect x="0" y="0" width="266.6666666666667" height="266.6666666666667"></rect></clipPath><clipPath id="clip4"><rect x="0" y="0" width="266.6666666666667" height="266.6666666666667"></rect></clipPath><clipPath id="clip5"><rect x="0" y="0" width="266.6666666666667" height="266.6666666666667"></rect></clipPath><clipPath id="clip6"><rect x="0" y="0" width="266.6666666666667" height="266.6666666666667"></rect></clipPath><clipPath id="clip7"><rect x="0" y="0" width="266.6666666666667" height="266.6666666666667"></rect></clipPath><clipPath id="clip8"><rect x="0" y="0" width="266.6666666666667" height="266.6666666666667"></rect></clipPath><clipPath id="clip9"><rect x="0" y="0" width="266.6666666666667" height="266.6666666666667"></rect></clipPath><clipPath id="clip10"><rect x="0" y="0" width="266.6666666666667" height="266.6666666666667"></rect></clipPath></defs><rect width="419.6666666666667" height="310.6666666666667" fill="white"></rect><g fill="none" stroke-miterlimit="10" transform="translate(50,27)"><g class="mark-group role-frame root" role="graphics-object" aria-roledescription="group mark container"><g transform="translate(0,0)"><path class="background" aria-hidden="true" d="M0,0h266.6666666666667v266.6666666666667h-266.6666666666667Z" stroke="#ddd" stroke-width="0"></path><g><g class="mark-group role-axis" aria-hidden="true"><g transform="translate(0.5,0.5)"><path class="background" aria-hidden="true" d="M0,0h0v0h0Z" pointer-events="none"></path><g><g class="mark-rule role-axis-grid" pointer-events="none"><line transform="translate(0,267)" x2="266.6666666666667" y2="0" stroke="#ddd" stroke-width="1" opacity="1"></line><line transform="translate(0,233)" x2="266.6666666666667" y2="0" stroke="#ddd" stroke-width="1" opacity="1"></line><line transform="translate(0,200)" x2="266.6666666666667" y2="0" stroke="#ddd" stroke-width="1" opacity="1"></line><line transform="translate(0,167)" x2="266.6666666666667" y2="0" stroke="#ddd" stroke-width="1" opacity="1"></line><line transform="translate(0,133)" x2="266.6666666666667" y2="0" stroke="#ddd" stroke-width="1" opacity="1"></line><line transform="translate(0,100)" x2="266.6666666666667" y2="0" stroke="#ddd" stroke-width="1" opacity="1"></line><line transform="translate(0,67)" x2="266.6666666666667" y2="0" stroke="#ddd" stroke-width="1" opacity="1"></line><line transform="translate(0,33)" x2="266.6666666666667" y2="0" stroke="#ddd" stroke-width="1" opacity="1"></line><line transform="translate(0,0)" x2="266.6666666666667" y2="0" stroke="#ddd" stroke-width="1" opacity="1"></line></g></g><path class="foreground" aria-hidden="true" d="" pointer-events="none" display="none"></path></g></g><g class="mark-group role-axis" role="graphics-symbol" aria-roledescription="axis" aria-label="X-axis for a time scale with values from Wednesday, 22 April 2020, 5:00:00 PM to Friday, 22 May 2020, 5:00:00 PM"><g transform="translate(0.5,267.1666666666667)"><path class="background" aria-hidden="true" d="M0,0h0v0h0Z" pointer-events="none"></path><g><g class="mark-text role-axis-label" pointer-events="none"><text text-anchor="middle" transform="translate(29.25925925925926,10)" font-family="Roboto Condensed" font-size="10px" fill="#000" opacity="1">Apr 26</text><text text-anchor="middle" transform="translate(91.4814814814815,10)" font-family="Roboto Condensed" font-size="10px" fill="#000" opacity="1">May 03</text><text text-anchor="middle" transform="translate(153.7037037037037,10)" font-family="Roboto Condensed" font-size="10px" fill="#000" opacity="1">May 10</text><text text-anchor="middle" transform="translate(215.92592592592595,10)" font-family="Roboto Condensed" font-size="10px" fill="#000" opacity="1">May 17</text></g><g class="mark-rule role-axis-domain" pointer-events="none"><line transform="translate(0,0)" x2="266.6666666666667" y2="0" stroke="lightgray" stroke-width="1" opacity="1"></line></g></g><path class="foreground" aria-hidden="true" d="" pointer-events="none" display="none"></path></g></g><g class="mark-group role-axis" role="graphics-symbol" aria-roledescription="axis" aria-label="Y-axis for a linear scale with values from 0 to 400,000"><g transform="translate(0.5,0.5)"><path class="background" aria-hidden="true" d="M0,0h0v0h0Z" pointer-events="none"></path><g><g class="mark-text role-axis-label" pointer-events="none"><text text-anchor="end" transform="translate(-2,269.6666666666667)" font-family="Roboto Condensed" font-size="10px" fill="#000" opacity="1">0</text><text text-anchor="end" transform="translate(-2,236.33333333333334)" font-family="Roboto Condensed" font-size="10px" fill="#000" opacity="1">50,000</text><text text-anchor="end" transform="translate(-2,203)" font-family="Roboto Condensed" font-size="10px" fill="#000" opacity="1">100,000</text><text text-anchor="end" transform="translate(-2,169.66666666666669)" font-family="Roboto Condensed" font-size="10px" fill="#000" opacity="1">150,000</text><text text-anchor="end" transform="translate(-2,136.33333333333334)" font-family="Roboto Condensed" font-size="10px" fill="#000" opacity="1">200,000</text><text text-anchor="end" transform="translate(-2,103)" font-family="Roboto Condensed" font-size="10px" fill="#000" opacity="1">250,000</text><text text-anchor="end" transform="translate(-2,69.66666666666667)" font-family="Roboto Condensed" font-size="10px" fill="#000" opacity="1">300,000</text><text text-anchor="end" transform="translate(-2,36.333333333333336)" font-family="Roboto Condensed" font-size="10px" fill="#000" opacity="1">350,000</text><text text-anchor="end" transform="translate(-2,3)" font-family="Roboto Condensed" font-size="10px" fill="#000" opacity="1">400,000</text></g><g class="mark-rule role-axis-domain" pointer-events="none"><line transform="translate(0,266.6666666666667)" x2="0" y2="-266.6666666666667" stroke="lightgray" stroke-width="1" opacity="1"></line></g></g><path class="foreground" aria-hidden="true" d="" pointer-events="none" display="none"></path></g></g><g class="mark-group role-scope pathgroup" role="graphics-object" aria-roledescription="group mark container"><g transform="translate(0,0)"><path class="background" aria-hidden="true" d="M0,0h266.6666666666667v266.6666666666667h-266.6666666666667Z"></path><g><g class="mark-line role-mark marks" clip-path="url(#clip1)" role="graphics-object" aria-roledescription="line mark container"><path aria-label="Country: Belgium; Date: Mar 01, 2020; Confirmed: 2; Recovered: 1; Deaths: 0; : 1" role="graphics-symbol" aria-roledescription="line mark" d="M-468.14814814814815,266.666L-459.2592592592593,266.666L-450.3703703703704,266.666L-441.48148148148147,266.666L-432.5925925925926,266.666L-423.7037037037037,266.666L-414.81481481481484,266.666L-405.9259259259259,266.666L-397.40740740740745,266.666L-388.51851851851853,266.666L-379.6296296296297,266.666L-370.74074074074076,266.666L-361.8518518518519,266.666L-352.962962962963,266.666L-344.07407407407413,266.666L-335.1851851851852,266.666L-326.29629629629636,266.666L-317.40740740740745,266.646L-308.5185185185186,266.646L-299.6296296296297,266.666L-290.74074074074076,266.49133333333333L-281.8518518518519,266.49133333333333L-272.96296296296293,266.49133333333333L-264.0740740740741,266.3593333333333L-255.18518518518522,266.302L-246.29629629629633,266.2166666666667L-237.40740740740742,266.0946666666667L-228.51851851851853,265.958L-219.62962962962965,265.7606666666667L-210.74074074074073,265.64866666666666L-201.85185185185185,265.536L-192.96296296296296,265.24533333333335L-184.07407407407408,265.00333333333333L-175.1851851851852,264.752L-166.2962962962963,264.502L-157.40740740740742,264.166L-148.51851851851853,264.00933333333336L-139.62962962962965,263.8953333333333L-130.74074074074073,263.54600000000005L-121.85185185185186,263.22400000000005L-112.96296296296298,262.9546666666667L-104.07407407407408,262.67600000000004L-95.18518518518519,262.358L-86.2962962962963,262.19533333333334L-77.40740740740742,262.088L-68.51851851851852,261.9286666666667L-59.62962962962963,261.62533333333334L-50.74074074074074,261.3593333333333L-41.851851851851855,261.10133333333334L-32.96296296296297,260.82866666666666L-24.074074074074076,260.7366666666667L-15.185185185185185,260.66533333333336L-6.296296296296297,260.37800000000004L2.592592592592593,260.1333333333334L11.481481481481483,259.9186666666667L20.370370370370374,259.72200000000004L29.25925925925926,259.4766666666667L38.148148148148145,259.4146666666667L47.037037037037045,259.3713333333333L55.92592592592593,259.1446666666667L64.81481481481482,258.94933333333336L73.70370370370371,258.7386666666667L82.5925925925926,258.526L91.4814814814815,258.46066666666667L100.37037037037038,258.4146666666667L109.25925925925927,258.3726666666667L118.14814814814815,258.1793333333334L127.03703703703704,258.0133333333334L135.92592592592592,257.866L144.8148148148148,257.726L153.7037037037037,257.572L162.5925925925926,257.53533333333337L171.4814814814815,257.512L180.37037037037038,257.37533333333334L189.2592592592593,257.25933333333336L198.14814814814818,257.1326666666667L207.03703703703707,257.0266666666667L215.92592592592595,256.91333333333336L224.81481481481484,256.8953333333333L233.70370370370372,256.87533333333334L242.5925925925926,256.76866666666666L251.4814814814815,256.67466666666667L260.3703703703704,256.5846666666667L269.2592592592593,256.5633333333334" stroke="#4c78a8" stroke-width="2" opacity="1"></path></g></g><path class="foreground" aria-hidden="true" d="" display="none"></path></g><g transform="translate(0,0)"><path class="background" aria-hidden="true" d="M0,0h266.6666666666667v266.6666666666667h-266.6666666666667Z"></path><g><g class="mark-line role-mark marks" clip-path="url(#clip2)" role="graphics-object" aria-roledescription="line mark container"><path aria-label="Country: Brazil; Date: Mar 01, 2020; Confirmed: 2; Recovered: 0; Deaths: 0; : 0" role="graphics-symbol" aria-roledescription="line mark" d="M-468.14814814814815,266.6666666666667L-459.2592592592593,266.6666666666667L-450.3703703703704,266.6666666666667L-441.48148148148147,266.6666666666667L-432.5925925925926,266.6666666666667L-423.7037037037037,266.6666666666667L-414.81481481481484,266.6666666666667L-405.9259259259259,266.6666666666667L-397.40740740740745,266.6666666666667L-388.51851851851853,266.6666666666667L-379.6296296296297,266.6666666666667L-370.74074074074076,266.6666666666667L-361.8518518518519,266.6666666666667L-352.962962962963,266.6666666666667L-344.07407407407413,266.6666666666667L-335.1851851851852,266.666L-326.29629629629636,266.66533333333336L-317.40740740740745,266.66533333333336L-308.5185185185186,266.66533333333336L-299.6296296296297,266.66533333333336L-290.74074074074076,266.66533333333336L-281.8518518518519,266.66533333333336L-272.96296296296293,266.66533333333336L-264.0740740740741,266.66533333333336L-255.18518518518522,266.66533333333336L-246.29629629629633,266.66266666666667L-237.40740740740742,266.66266666666667L-228.51851851851853,266.66266666666667L-219.62962962962965,266.66266666666667L-210.74074074074073,266.5866666666667L-201.85185185185185,266.58200000000005L-192.96296296296296,266.58200000000005L-184.07407407407408,266.58200000000005L-175.1851851851852,266.58200000000005L-166.2962962962963,266.58200000000005L-157.40740740740742,266.58200000000005L-148.51851851851853,266.58200000000005L-139.62962962962965,266.58200000000005L-130.74074074074073,266.58200000000005L-121.85185185185186,266.5513333333334L-112.96296296296298,266.5513333333334L-104.07407407407408,266.5513333333334L-95.18518518518519,266.5513333333334L-86.2962962962963,266.5513333333334L-77.40740740740742,264.636L-68.51851851851852,257.31600000000003L-59.62962962962963,257.31600000000003L-50.74074074074074,257.31600000000003L-41.851851851851855,257.31600000000003L-32.96296296296297,251.91333333333336L-24.074074074074076,251.91333333333336L-15.185185185185185,251.33933333333337L-6.296296296296297,249.788L2.592592592592593,248.95133333333334L11.481481481481483,248.23000000000002L20.370370370370374,247.2266666666667L29.25925925925926,246.56533333333334L38.148148148148145,245.90533333333335L47.037037037037045,244.9706666666667L55.92592592592593,243.912L64.81481481481482,242.71L73.70370370370371,241.30733333333333L82.5925925925926,239.37533333333334L91.4814814814815,238.00600000000003L100.37037037037038,236.12333333333336L109.25925925925927,234.51933333333332L118.14814814814815,232.42000000000002L127.03703703703704,229.76666666666668L135.92592592592592,227.13533333333334L144.8148148148148,225.54333333333335L153.7037037037037,223.36200000000002L162.5925925925926,221.744L171.4814814814815,218.26866666666666L180.37037037037038,214.38400000000001L189.2592592592593,213.6806666666667L198.14814814814818,210.02L207.03703703703707,206.88533333333334L215.92592592592595,203.9186666666667L224.81481481481484,199.694L233.70370370370372,195.47066666666666L242.5925925925926,188.87800000000001L251.4814814814815,182.69333333333336L260.3703703703704,176.38L269.2592592592593,171.6086666666667" stroke="#f58518" stroke-width="2" opacity="1"></path></g></g><path class="foreground" aria-hidden="true" d="" display="none"></path></g><g transform="translate(0,0)"><path class="background" aria-hidden="true" d="M0,0h266.6666666666667v266.6666666666667h-266.6666666666667Z"></path><g><g class="mark-line role-mark marks" clip-path="url(#clip3)" role="graphics-object" aria-roledescription="line mark container"><path aria-label="Country: France; Date: Mar 01, 2020; Confirmed: 130; Recovered: 12; Deaths: 2; : 12" role="graphics-symbol" aria-roledescription="line mark" d="M-468.14814814814815,266.6586666666667L-459.2592592592593,266.6586666666667L-450.3703703703704,266.6586666666667L-441.48148148148147,266.6586666666667L-432.5925925925926,266.6586666666667L-423.7037037037037,266.6586666666667L-414.81481481481484,266.6586666666667L-405.9259259259259,266.6586666666667L-397.40740740740745,266.6586666666667L-388.51851851851853,266.6586666666667L-379.6296296296297,266.6586666666667L-370.74074074074076,266.6586666666667L-361.8518518518519,266.6586666666667L-352.962962962963,266.6586666666667L-344.07407407407413,266.6586666666667L-335.1851851851852,266.6586666666667L-326.29629629629636,266.6586666666667L-317.40740740740745,266.6586666666667L-308.5185185185186,266.6586666666667L-299.6296296296297,266.6586666666667L-290.74074074074076,266.6586666666667L-281.8518518518519,265.20000000000005L-272.96296296296293,265.20000000000005L-264.0740740740741,264.50466666666665L-255.18518518518522,264.06666666666666L-246.29629629629633,263.368L-237.40740740740742,262.8666666666667L-228.51851851851853,262.8666666666667L-219.62962962962965,261.86533333333335L-210.74074074074073,261.382L-201.85185185185185,260.3706666666667L-192.96296296296296,259.37733333333335L-184.07407407407408,258.3813333333333L-175.1851851851852,257.32800000000003L-166.2962962962963,256.37466666666666L-157.40740740740742,255.87800000000001L-148.51851851851853,255.16666666666669L-139.62962962962965,253.77533333333335L-130.74074074074073,252.49733333333333L-121.85185185185186,251.196L-112.96296296296298,250.04533333333336L-104.07407407407408,249.0726666666667L-95.18518518518519,248.54266666666666L-86.2962962962963,248.18800000000002L-77.40740740740742,247.65866666666668L-68.51851851851852,246.37333333333333L-59.62962962962963,245.13533333333336L-50.74074074074074,244.11066666666667L-41.851851851851855,243.08066666666667L-32.96296296296297,242.6846666666667L-24.074074074074076,242.14533333333335L-15.185185185185185,240.97133333333335L-6.296296296296297,240.008L2.592592592592593,239.05733333333333L11.481481481481483,238.19L20.370370370370374,237.45600000000002L29.25925925925926,237.25L38.148148148148145,236.84466666666668L47.037037037037045,236.002L55.92592592592593,235.108L64.81481481481482,234.28533333333334L73.70370370370371,233.8L82.5925925925926,233.49933333333334L91.4814814814815,233.35133333333334L100.37037037037038,233.04133333333334L109.25925925925927,232.13133333333334L118.14814814814815,231.3186666666667L127.03703703703704,230.616L135.92592592592592,230.15333333333336L144.8148148148148,230.07600000000002L153.7037037037037,229.9586666666667L162.5925925925926,229.62066666666666L171.4814814814815,228.92200000000003L180.37037037037038,228.42133333333337L189.2592592592593,227.8L198.14814814814818,227.23800000000003L207.03703703703707,227.2386666666667L215.92592592592595,226.72866666666667L224.81481481481484,226.38933333333333L233.70370370370372,225.836L242.5925925925926,225.5246666666667L251.4814814814815,225.18933333333334L260.3703703703704,225.18933333333334L269.2592592592593,225.18933333333334" stroke="#e45756" stroke-width="2" opacity="1"></path></g></g><path class="foreground" aria-hidden="true" d="" display="none"></path></g><g transform="translate(0,0)"><path class="background" aria-hidden="true" d="M0,0h266.6666666666667v266.6666666666667h-266.6666666666667Z"></path><g><g class="mark-line role-mark marks" clip-path="url(#clip4)" role="graphics-object" aria-roledescription="line mark container"><path aria-label="Country: Germany; Date: Mar 01, 2020; Confirmed: 130; Recovered: 16; Deaths: 0; : 16" role="graphics-symbol" aria-roledescription="line mark" d="M-468.14814814814815,266.656L-459.2592592592593,266.656L-450.3703703703704,266.656L-441.48148148148147,266.656L-432.5925925925926,266.656L-423.7037037037037,266.6553333333334L-414.81481481481484,266.6546666666667L-405.9259259259259,266.6546666666667L-397.40740740740745,266.6546666666667L-388.51851851851853,266.6546666666667L-379.6296296296297,266.65000000000003L-370.74074074074076,266.65000000000003L-361.8518518518519,266.636L-352.962962962963,266.636L-344.07407407407413,266.636L-335.1851851851852,266.622L-326.29629629629636,266.622L-317.40740740740745,266.5966666666667L-308.5185185185186,266.59133333333335L-299.6296296296297,266.5466666666667L-290.74074074074076,266.51133333333337L-281.8518518518519,266.4893333333333L-272.96296296296293,266.4893333333333L-264.0740740740741,264.50466666666665L-255.18518518518522,264.302L-246.29629629629633,262.8846666666667L-237.40740740740742,262.228L-228.51851851851853,261.0126666666667L-219.62962962962965,260.526L-210.74074074074073,257.6666666666667L-201.85185185185185,255.93333333333334L-192.96296296296296,254.20000000000002L-184.07407407407408,251.70666666666668L-175.1851851851852,250.28333333333333L-166.2962962962963,249.06666666666666L-157.40740740740742,247.53333333333336L-148.51851851851853,247.53333333333336L-139.62962962962965,242.61266666666668L-130.74074074074073,235.8L-121.85185185185186,231.72866666666667L-112.96296296296298,230.72466666666668L-104.07407407407408,228.40000000000003L-95.18518518518519,226.4666666666667L-86.2962962962963,223.80000000000004L-77.40740740740742,221.20000000000002L-68.51851851851852,218.26666666666668L-59.62962962962963,215.33333333333334L-50.74074074074074,211.25733333333335L-41.851851851851855,209.73333333333335L-32.96296296296297,208.00000000000003L-24.074074074074076,205.66666666666669L-15.185185185185185,203.20000000000002L-6.296296296296297,200.40000000000003L2.592592592592593,197.8L11.481481481481483,193.4666666666667L20.370370370370374,193.4666666666667L29.25925925925926,192L38.148148148148145,190.33333333333334L47.037037037037045,188.4L55.92592592592593,186.40000000000003L64.81481481481482,184.33333333333331L73.70370370370371,182.06666666666666L82.5925925925926,180.66666666666669L91.4814814814815,179.60000000000002L100.37037037037038,178.20000000000002L109.25925925925927,176.60000000000002L118.14814814814815,173.4L127.03703703703704,172.20000000000002L135.92592592592592,172.20000000000002L144.8148148148148,171.13333333333335L153.7037037037037,170.4L162.5925925925926,169.58866666666665L171.4814814814815,168.53333333333336L180.37037037037038,167.53333333333333L189.2592592592593,166.46666666666667L198.14814814814818,165.602L207.03703703703707,164.93333333333337L215.92592592592595,163.99266666666665L224.81481481481484,163.30599999999998L233.70370370370372,162.87933333333334L242.5925925925926,162.02266666666668L251.4814814814815,161.27533333333335L260.3703703703704,160.624L269.2592592592593,160.18933333333337" stroke="#72b7b2" stroke-width="2" opacity="1"></path></g></g><path class="foreground" aria-hidden="true" d="" display="none"></path></g><g transform="translate(0,0)"><path class="background" aria-hidden="true" d="M0,0h266.6666666666667v266.6666666666667h-266.6666666666667Z"></path><g><g class="mark-line role-mark marks" clip-path="url(#clip5)" role="graphics-object" aria-roledescription="line mark container"><path aria-label="Country: Iran; Date: Mar 01, 2020; Confirmed: 978; Recovered: 175; Deaths: 54; : 175" role="graphics-symbol" aria-roledescription="line mark" d="M-468.14814814814815,266.55L-459.2592592592593,266.47266666666667L-450.3703703703704,266.47266666666667L-441.48148148148147,266.2986666666667L-432.5925925925926,266.17400000000004L-423.7037037037037,266.05800000000005L-414.81481481481484,265.55400000000003L-405.9259259259259,265.244L-397.40740740740745,265.0706666666667L-388.51851851851853,264.846L-379.6296296296297,264.694L-370.74074074074076,264.694L-361.8518518518519,264.694L-352.962962962963,264.694L-344.07407407407413,263.6066666666667L-335.1851851851852,263.6066666666667L-326.29629629629636,263.074L-317.40740740740745,263.074L-308.5185185185186,262.86L-299.6296296296297,262.17L-290.74074074074076,261.57666666666665L-281.8518518518519,261.37933333333336L-272.96296296296293,261.37933333333336L-264.0740740740741,260.7246666666667L-255.18518518518522,260.25L-246.29629629629633,259.69533333333334L-237.40740740740742,259.24466666666666L-228.51851851851853,258.8806666666667L-219.62962962962965,258.406L-210.74074074074073,257.3926666666667L-201.85185185185185,256.896L-192.96296296296296,256.35133333333334L-184.07407407407408,255.526L-175.1851851851852,254.71000000000004L-166.2962962962963,253.50933333333333L-157.40740740740742,253.50933333333333L-148.51851851851853,250.50933333333333L-139.62962962962965,248.6406666666667L-130.74074074074073,246.79200000000003L-121.85185185185186,245.12733333333335L-112.96296296296298,243.02333333333337L-104.07407407407408,238.70200000000003L-95.18518518518519,237.404L-86.2962962962963,236.01133333333334L-77.40740740740742,234.58066666666667L-68.51851851851852,233.37800000000001L-59.62962962962963,231.84733333333335L-50.74074074074074,230.62400000000002L-41.851851851851855,229.342L-32.96296296296297,228.65133333333335L-24.074074074074076,227.15133333333335L-15.185185185185185,226.02333333333334L-6.296296296296297,224.59133333333335L2.592592592592593,223.43800000000002L11.481481481481483,222.26733333333337L20.370370370370374,221.2046666666667L29.25925925925926,220.2286666666667L38.148148148148145,219.37800000000001L47.037037037037045,218.37400000000002L55.92592592592593,217.4726666666667L64.81481481481482,216.598L73.70370370370371,215.788L82.5925925925926,215.10000000000002L91.4814814814815,214.38533333333336L100.37037037037038,213.74733333333336L109.25925925925927,213.01666666666668L118.14814814814815,212.27533333333335L127.03703703703704,211.504L135.92592592592592,210.77533333333335L144.8148148148148,209.95733333333337L153.7037037037037,209.23800000000003L162.5925925925926,208.38533333333334L171.4814814814815,207.76200000000003L180.37037037037038,207.048L189.2592592592593,206.30733333333333L198.14814814814818,205.4426666666667L207.03703703703707,204.56866666666667L215.92592592592595,203.69066666666666L224.81481481481484,202.89266666666668L233.70370370370372,201.88466666666667L242.5925925925926,200.79466666666667L251.4814814814815,199.624L260.3703703703704,198.4826666666667L269.2592592592593,197.2853333333333" stroke="#54a24b" stroke-width="2" opacity="1"></path></g></g><path class="foreground" aria-hidden="true" d="" display="none"></path></g><g transform="translate(0,0)"><path class="background" aria-hidden="true" d="M0,0h266.6666666666667v266.6666666666667h-266.6666666666667Z"></path><g><g class="mark-line role-mark marks" clip-path="url(#clip6)" role="graphics-object" aria-roledescription="line mark container"><path aria-label="Country: Italy; Date: Mar 01, 2020; Confirmed: 1694; Recovered: 83; Deaths: 34; : 83" role="graphics-symbol" aria-roledescription="line mark" d="M-468.14814814814815,266.61133333333333L-459.2592592592593,266.56733333333335L-450.3703703703704,266.56L-441.48148148148147,266.4826666666667L-432.5925925925926,266.3906666666667L-423.7037037037037,266.31800000000004L-414.81481481481484,266.274L-405.9259259259259,266.252L-397.40740740740745,266.184L-388.51851851851853,266.184L-379.6296296296297,265.97L-370.74074074074076,265.97L-361.8518518518519,265.70733333333334L-352.962962962963,265.356L-344.07407407407413,265.11L-335.1851851851852,264.83400000000006L-326.29629629629636,264.706L-317.40740740740745,263.98333333333335L-308.5185185185186,263.7066666666667L-299.6296296296297,263.7066666666667L-290.74074074074076,262.6186666666667L-281.8518518518519,261.98400000000004L-272.96296296296293,261.98400000000004L-264.0740740740741,261.116L-255.18518518518522,260.42533333333336L-246.29629629629633,259.75933333333336L-237.40740740740742,259.3666666666667L-228.51851851851853,258.4106666666667L-219.62962962962965,257.98L-210.74074074074073,256.92L-201.85185185185185,256.1806666666667L-192.96296296296296,255.43533333333335L-184.07407407407408,254.48133333333334L-175.1851851851852,253.4946666666667L-166.2962962962963,252.66933333333336L-157.40740740740742,252.12333333333333L-148.51851851851853,251.442L-139.62962962962965,250.40533333333335L-130.74074074074073,249.00600000000003L-121.85185185185186,247.6866666666667L-112.96296296296298,246.36333333333337L-104.07407407407408,244.97733333333335L-95.18518518518519,243.85933333333335L-86.2962962962963,243.04333333333335L-77.40740740740742,241.91333333333333L-68.51851851851852,241.27200000000002L-59.62962962962963,239.89066666666668L-50.74074074074074,238.18200000000002L-41.851851851851855,236.71533333333335L-32.96296296296297,235.29666666666668L-24.074074074074076,234.082L-15.185185185185185,232.26666666666668L-6.296296296296297,230.3046666666667L2.592592592592593,228.2826666666667L11.481481481481483,226.3346666666667L20.370370370370374,224.5866666666667L29.25925925925926,223.38133333333334L38.148148148148145,222.25066666666666L47.037037037037045,220.70600000000002L55.92592592592593,219.16533333333334L64.81481481481482,216.03666666666666L73.70370370370371,214.50066666666666L82.5925925925926,213.39066666666668L91.4814814814815,212.2306666666667L100.37037037037038,211.41400000000002L109.25925925925927,209.846L118.14814814814815,204.50333333333333L127.03703703703704,202.4826666666667L135.92592592592592,200.65133333333335L144.8148148148148,197.97933333333333L153.7037037037037,196.5426666666667L162.5925925925926,195.60866666666666L171.4814814814815,193.974L180.37037037037038,191.63933333333335L189.2592592592593,189.80800000000002L198.14814814814818,186.53000000000003L207.03703703703707,184.79333333333335L215.92592592592595,183.216L224.81481481481484,181.78266666666667L233.70370370370372,180.39933333333335L242.5925925925926,178.47866666666667L251.4814814814815,176.96L260.3703703703704,175.52L269.2592592592593,174.10666666666668" stroke="#eeca3b" stroke-width="2" opacity="1"></path></g></g><path class="foreground" aria-hidden="true" d="" display="none"></path></g><g transform="translate(0,0)"><path class="background" aria-hidden="true" d="M0,0h266.6666666666667v266.6666666666667h-266.6666666666667Z"></path><g><g class="mark-line role-mark marks" clip-path="url(#clip7)" role="graphics-object" aria-roledescription="line mark container"><path aria-label="Country: Mexico; Date: Mar 01, 2020; Confirmed: 5; Recovered: 0; Deaths: 0; : 0" role="graphics-symbol" aria-roledescription="line mark" d="M-468.14814814814815,266.6666666666667L-459.2592592592593,266.6666666666667L-450.3703703703704,266.666L-441.48148148148147,266.666L-432.5925925925926,266.666L-423.7037037037037,266.666L-414.81481481481484,266.666L-405.9259259259259,266.666L-397.40740740740745,266.666L-388.51851851851853,266.66400000000004L-379.6296296296297,266.66400000000004L-370.74074074074076,266.66400000000004L-361.8518518518519,266.66400000000004L-352.962962962963,266.66400000000004L-344.07407407407413,266.66400000000004L-335.1851851851852,266.66400000000004L-326.29629629629636,266.66400000000004L-317.40740740740745,266.66400000000004L-308.5185185185186,266.66400000000004L-299.6296296296297,266.66400000000004L-290.74074074074076,266.66400000000004L-281.8518518518519,266.66400000000004L-272.96296296296293,266.66400000000004L-264.0740740740741,266.66400000000004L-255.18518518518522,266.66400000000004L-246.29629629629633,266.66400000000004L-237.40740740740742,266.66400000000004L-228.51851851851853,266.66400000000004L-219.62962962962965,266.66400000000004L-210.74074074074073,266.6433333333334L-201.85185185185185,266.6433333333334L-192.96296296296296,266.6433333333334L-184.07407407407408,266.6433333333334L-175.1851851851852,266.24466666666666L-166.2962962962963,266.24466666666666L-157.40740740740742,266.24466666666666L-148.51851851851853,266.24466666666666L-139.62962962962965,266.24466666666666L-130.74074074074073,266.24466666666666L-121.85185185185186,266.24466666666666L-112.96296296296298,266.24466666666666L-104.07407407407408,266.24466666666666L-95.18518518518519,265.48533333333336L-86.2962962962963,265.43800000000005L-77.40740740740742,265.3573333333334L-68.51851851851852,265.25L-59.62962962962963,265.25L-50.74074074074074,265.25L-41.851851851851855,265.25L-32.96296296296297,264.91533333333336L-24.074074074074076,264.91533333333336L-15.185185185185185,264.91533333333336L-6.296296296296297,264.91533333333336L2.592592592592593,264.91533333333336L11.481481481481483,264.91533333333336L20.370370370370374,261.9006666666667L29.25925925925926,261.0973333333333L38.148148148148145,260.6093333333333L47.037037037037045,259.05133333333333L55.92592592592593,259.05133333333333L64.81481481481482,259.05133333333333L73.70370370370371,258.41533333333336L82.5925925925926,258.41533333333336L91.4814814814815,257.70200000000006L100.37037037037038,257.70200000000006L109.25925925925927,255.46000000000004L118.14814814814815,254.81266666666667L127.03703703703704,254.81266666666667L135.92592592592592,253.12400000000002L144.8148148148148,252.11733333333336L153.7037037037037,252.11733333333336L162.5925925925926,251.26666666666668L171.4814814814815,249.3766666666667L180.37037037037038,248.67333333333337L189.2592592592593,247.68333333333337L198.14814814814818,246.366L207.03703703703707,245.4346666666667L215.92592592592595,244.44733333333335L224.81481481481484,243.07466666666667L233.70370370370372,241.78333333333333L242.5925925925926,241.05400000000003L251.4814814814815,239.89866666666668L260.3703703703704,238.53933333333336L269.2592592592593,237.05066666666667" stroke="#b279a2" stroke-width="2" opacity="1"></path></g></g><path class="foreground" aria-hidden="true" d="" display="none"></path></g><g transform="translate(0,0)"><path class="background" aria-hidden="true" d="M0,0h266.6666666666667v266.6666666666667h-266.6666666666667Z"></path><g><g class="mark-line role-mark marks" clip-path="url(#clip8)" role="graphics-object" aria-roledescription="line mark container"><path aria-label="Country: Spain; Date: Mar 01, 2020; Confirmed: 84; Recovered: 2; Deaths: 0; : 2" role="graphics-symbol" aria-roledescription="line mark" d="M-468.14814814814815,266.66533333333336L-459.2592592592593,266.66533333333336L-450.3703703703704,266.66533333333336L-441.48148148148147,266.66533333333336L-432.5925925925926,266.66533333333336L-423.7037037037037,266.66533333333336L-414.81481481481484,266.64666666666665L-405.9259259259259,266.64666666666665L-397.40740740740745,266.6453333333334L-388.51851851851853,266.6453333333334L-379.6296296296297,266.54466666666667L-370.74074074074076,266.54466666666667L-361.8518518518519,266.538L-352.962962962963,266.322L-344.07407407407413,266.322L-335.1851851851852,266.31333333333333L-326.29629629629636,265.98133333333334L-317.40740740740745,265.946L-308.5185185185186,265.9286666666667L-299.6296296296297,265.608L-290.74074074074076,265.25L-281.8518518518519,264.95000000000005L-272.96296296296293,264.95000000000005L-264.0740740740741,264.13733333333334L-255.18518518518522,263.0886666666667L-246.29629629629633,261.99L-237.40740740740742,260.4286666666667L-228.51851851851853,258.4766666666667L-219.62962962962965,256.8606666666667L-210.74074074074073,255.48000000000002L-201.85185185185185,253.82733333333334L-192.96296296296296,251.5686666666667L-184.07407407407408,248.83800000000002L-175.1851851851852,246.32466666666667L-166.2962962962963,243.854L-157.40740740740742,241.28000000000003L-148.51851851851853,239.7086666666667L-139.62962962962965,237.86133333333336L-130.74074074074073,234.65266666666668L-121.85185185185186,231.89000000000001L-112.96296296296298,229.5546666666667L-104.07407407407408,227.26066666666668L-95.18518518518519,225.0726666666667L-86.2962962962963,223.51533333333336L-77.40740740740742,221.66400000000002L-68.51851851851852,219.43133333333336L-59.62962962962963,216.80200000000002L-50.74074074074074,216.80200000000002L-41.851851851851855,216.80200000000002L-32.96296296296297,215.09533333333334L-24.074074074074076,212.942L-15.185185185185185,211.65733333333333L-6.296296296296297,209.39000000000001L2.592592592592593,207.16666666666669L11.481481481481483,205.09666666666666L20.370370370370374,202.86133333333336L29.25925925925926,201.08533333333335L38.148148148148145,199.41666666666669L47.037037037037045,198.30133333333336L55.92592592592593,194.03533333333334L64.81481481481482,191.9666666666667L73.70370370370371,191.9666666666667L82.5925925925926,188.50133333333332L91.4814814814815,187.39866666666666L100.37037037037038,185.77133333333336L109.25925925925927,184.34266666666667L118.14814814814815,182.66533333333336L127.03703703703704,180.99266666666668L135.92592592592592,179.23466666666667L144.8148148148148,177.36533333333333L153.7037037037037,175.88933333333333L162.5925925925926,175.2406666666667L171.4814814814815,174.01333333333335L180.37037037037038,172.78466666666668L189.2592592592593,171.084L198.14814814814818,170.1446666666667L207.03703703703707,169.03600000000003L215.92592592592595,169.03600000000003L224.81481481481484,166.41600000000003L233.70370370370372,166.41600000000003L242.5925925925926,166.41600000000003L251.4814814814815,166.41600000000003L260.3703703703704,166.41600000000003L269.2592592592593,166.41600000000003" stroke="#ff9da6" stroke-width="2" opacity="1"></path></g></g><path class="foreground" aria-hidden="true" d="" display="none"></path></g><g transform="translate(0,0)"><path class="background" aria-hidden="true" d="M0,0h266.6666666666667v266.6666666666667h-266.6666666666667Z"></path><g><g class="mark-line role-mark marks" clip-path="url(#clip9)" role="graphics-object" aria-roledescription="line mark container"><path aria-label="Country: US; Date: Mar 01, 2020; Confirmed: 74; Recovered: 7; Deaths: 1; : 7" role="graphics-symbol" aria-roledescription="line mark" d="M-468.14814814814815,266.66200000000003L-459.2592592592593,266.66200000000003L-450.3703703703704,266.66200000000003L-441.48148148148147,266.66200000000003L-432.5925925925926,266.66200000000003L-423.7037037037037,266.66200000000003L-414.81481481481484,266.66200000000003L-405.9259259259259,266.66200000000003L-397.40740740740745,266.66200000000003L-388.51851851851853,266.66133333333335L-379.6296296296297,266.66133333333335L-370.74074074074076,266.6586666666667L-361.8518518518519,266.6586666666667L-352.962962962963,266.6586666666667L-344.07407407407413,266.6586666666667L-335.1851851851852,266.6553333333334L-326.29629629629636,266.6553333333334L-317.40740740740745,266.5966666666667L-308.5185185185186,266.586L-299.6296296296297,266.5686666666667L-290.74074074074076,266.5493333333334L-281.8518518518519,266.548L-272.96296296296293,266.548L-264.0740740740741,266.43466666666666L-255.18518518518522,266.426L-246.29629629629633,266.2126666666667L-237.40740740740742,266.08733333333333L-228.51851851851853,265.952L-219.62962962962965,264.89L-210.74074074074073,262.90400000000005L-201.85185185185185,261.98400000000004L-192.96296296296296,261.01733333333334L-184.07407407407408,260.666L-175.1851851851852,260.19533333333334L-166.2962962962963,256.89866666666666L-157.40740740740742,255.03466666666668L-148.51851851851853,253.61266666666668L-139.62962962962965,252.15800000000004L-130.74074074074073,250.96066666666667L-121.85185185185186,249.72666666666666L-112.96296296296298,247.47333333333336L-104.07407407407408,245.82000000000002L-95.18518518518519,244.67466666666667L-86.2962962962963,237.67866666666666L-77.40740740740742,234.82466666666667L-68.51851851851852,231.936L-59.62962962962963,230.19800000000004L-50.74074074074074,227.63666666666668L-41.851851851851855,223.44L-32.96296296296297,219.77533333333335L-24.074074074074076,218.44733333333335L-15.185185185185185,216.5306666666667L-6.296296296296297,215.08933333333334L2.592592592592593,213.198L11.481481481481483,200.614L20.370370370370374,199.752L29.25925925925926,195.34133333333335L38.148148148148145,192.38400000000004L47.037037037037045,189.376L55.92592592592593,186.18666666666667L64.81481481481482,164.03533333333337L73.70370370370371,157.32333333333332L82.5925925925926,149.74533333333332L91.4814814814815,146.56533333333334L100.37037037037038,141.88000000000002L109.25925925925927,140.13933333333335L118.14814814814815,140.06000000000003L127.03703703703704,136.64266666666668L135.92592592592592,134.00466666666665L144.8148148148148,124.97733333333335L153.7037037037037,122.554L162.5925925925926,111.51133333333335L171.4814814814815,113.14200000000001L180.37037037037038,104.38000000000001L189.2592592592593,102.39066666666668L198.14814814814818,99.502L207.03703703703707,87.74933333333334L215.92592592592595,85.15666666666668L224.81481481481484,77.88133333333333L233.70370370370372,73.73866666666667L242.5925925925926,70.45866666666667L251.4814814814815,67.72133333333335L260.3703703703704,33.24333333333334L269.2592592592593,25.84066666666667" stroke="#9d755d" stroke-width="2" opacity="1"></path></g></g><path class="foreground" aria-hidden="true" d="" display="none"></path></g><g transform="translate(0,0)"><path class="background" aria-hidden="true" d="M0,0h266.6666666666667v266.6666666666667h-266.6666666666667Z"></path><g><g class="mark-line role-mark marks" clip-path="url(#clip10)" role="graphics-object" aria-roledescription="line mark container"><path aria-label="Country: United Kingdom; Date: Mar 01, 2020; Confirmed: 36; Recovered: 8; Deaths: 0; : 8" role="graphics-symbol" aria-roledescription="line mark" d="M-468.14814814814815,266.66133333333335L-459.2592592592593,266.66133333333335L-450.3703703703704,266.66133333333335L-441.48148148148147,266.66133333333335L-432.5925925925926,266.66133333333335L-423.7037037037037,266.66133333333335L-414.81481481481484,266.6546666666667L-405.9259259259259,266.6546666666667L-397.40740740740745,266.6546666666667L-388.51851851851853,266.6546666666667L-379.6296296296297,266.6546666666667L-370.74074074074076,266.6546666666667L-361.8518518518519,266.6546666666667L-352.962962962963,266.6546666666667L-344.07407407407413,266.6546666666667L-335.1851851851852,266.65333333333336L-326.29629629629636,266.632L-317.40740740740745,266.6233333333334L-308.5185185185186,266.6233333333334L-299.6296296296297,266.6233333333334L-290.74074074074076,266.6233333333334L-281.8518518518519,266.6233333333334L-272.96296296296293,266.6233333333334L-264.0740740740741,266.5766666666667L-255.18518518518522,266.5766666666667L-246.29629629629633,266.5766666666667L-237.40740740740742,266.5766666666667L-228.51851851851853,266.5766666666667L-219.62962962962965,266.5766666666667L-210.74074074074073,266.5766666666667L-201.85185185185185,266.5766666666667L-192.96296296296296,266.5766666666667L-184.07407407407408,266.5766666666667L-175.1851851851852,266.5766666666667L-166.2962962962963,266.5766666666667L-157.40740740740742,266.5766666666667L-148.51851851851853,266.5766666666667L-139.62962962962965,266.5766666666667L-130.74074074074073,266.5766666666667L-121.85185185185186,266.5766666666667L-112.96296296296298,266.43733333333336L-104.07407407407408,266.43733333333336L-95.18518518518519,266.43733333333336L-86.2962962962963,266.6666666666667L-77.40740740740742,266.6666666666667L-68.51851851851852,266.6666666666667L-59.62962962962963,266.6666666666667L-50.74074074074074,266.6666666666667L-41.851851851851855,266.6666666666667L-32.96296296296297,266.6666666666667L-24.074074074074076,266.6666666666667L-15.185185185185185,266.6666666666667L-6.296296296296297,266.6666666666667L2.592592592592593,266.6666666666667L11.481481481481483,266.6666666666667L20.370370370370374,266.6666666666667L29.25925925925926,266.6666666666667L38.148148148148145,266.6666666666667L47.037037037037045,266.6666666666667L55.92592592592593,266.6666666666667L64.81481481481482,266.6666666666667L73.70370370370371,266.6666666666667L82.5925925925926,266.6666666666667L91.4814814814815,266.6666666666667L100.37037037037038,266.6666666666667L109.25925925925927,266.6666666666667L118.14814814814815,266.6666666666667L127.03703703703704,266.6666666666667L135.92592592592592,266.6666666666667L144.8148148148148,266.6666666666667L153.7037037037037,266.6666666666667L162.5925925925926,266.6666666666667L171.4814814814815,266.6666666666667L180.37037037037038,266.6666666666667L189.2592592592593,266.6666666666667L198.14814814814818,266.6666666666667L207.03703703703707,266.6666666666667L215.92592592592595,266.6666666666667L224.81481481481484,266.6666666666667L233.70370370370372,266.6666666666667L242.5925925925926,266.6666666666667L251.4814814814815,266.6666666666667L260.3703703703704,266.6666666666667L269.2592592592593,266.6666666666667" stroke="#bab0ac" stroke-width="2" opacity="1"></path></g></g><path class="foreground" aria-hidden="true" d="" display="none"></path></g></g><g class="mark-group role-legend" role="graphics-symbol" aria-roledescription="legend" aria-label="Symbol legend for stroke color with 10 values: Belgium, Brazil, France, Germany, Iran, ending with United Kingdom"><g transform="translate(285,0)"><path class="background" aria-hidden="true" d="M0,0h79v128h-79Z" pointer-events="none"></path><g><g class="mark-group role-legend-entry"><g transform="translate(0,0)"><path class="background" aria-hidden="true" d="M0,0h0v0h0Z" pointer-events="none"></path><g><g class="mark-group role-scope Country_legend_entries" role="graphics-object" aria-roledescription="group mark container"><g transform="translate(0,0)"><path class="background" aria-hidden="true" d="M0,0h79v11h-79Z" opacity="1"></path><g><g class="mark-symbol role-legend-symbol Country_legend_symbols"><path transform="translate(6,6)" d="M-5,0L5,0" stroke="#4c78a8" stroke-width="1.5" opacity="1"></path></g><g class="mark-text role-legend-label Country_legend_labels"><text text-anchor="start" transform="translate(16,9)" font-family="Roboto Condensed" font-size="10px" fill="#000" opacity="1">Belgium</text></g></g><path class="foreground" aria-hidden="true" d="" display="none"></path></g><g transform="translate(0,13)"><path class="background" aria-hidden="true" d="M0,0h79v11h-79Z" opacity="1"></path><g><g class="mark-symbol role-legend-symbol Country_legend_symbols"><path transform="translate(6,6)" d="M-5,0L5,0" stroke="#f58518" stroke-width="1.5" opacity="1"></path></g><g class="mark-text role-legend-label Country_legend_labels"><text text-anchor="start" transform="translate(16,9)" font-family="Roboto Condensed" font-size="10px" fill="#000" opacity="1">Brazil</text></g></g><path class="foreground" aria-hidden="true" d="" display="none"></path></g><g transform="translate(0,26)"><path class="background" aria-hidden="true" d="M0,0h79v11h-79Z" opacity="1"></path><g><g class="mark-symbol role-legend-symbol Country_legend_symbols"><path transform="translate(6,6)" d="M-5,0L5,0" stroke="#e45756" stroke-width="1.5" opacity="1"></path></g><g class="mark-text role-legend-label Country_legend_labels"><text text-anchor="start" transform="translate(16,9)" font-family="Roboto Condensed" font-size="10px" fill="#000" opacity="1">France</text></g></g><path class="foreground" aria-hidden="true" d="" display="none"></path></g><g transform="translate(0,39)"><path class="background" aria-hidden="true" d="M0,0h79v11h-79Z" opacity="1"></path><g><g class="mark-symbol role-legend-symbol Country_legend_symbols"><path transform="translate(6,6)" d="M-5,0L5,0" stroke="#72b7b2" stroke-width="1.5" opacity="1"></path></g><g class="mark-text role-legend-label Country_legend_labels"><text text-anchor="start" transform="translate(16,9)" font-family="Roboto Condensed" font-size="10px" fill="#000" opacity="1">Germany</text></g></g><path class="foreground" aria-hidden="true" d="" display="none"></path></g><g transform="translate(0,52)"><path class="background" aria-hidden="true" d="M0,0h79v11h-79Z" opacity="1"></path><g><g class="mark-symbol role-legend-symbol Country_legend_symbols"><path transform="translate(6,6)" d="M-5,0L5,0" stroke="#54a24b" stroke-width="1.5" opacity="1"></path></g><g class="mark-text role-legend-label Country_legend_labels"><text text-anchor="start" transform="translate(16,9)" font-family="Roboto Condensed" font-size="10px" fill="#000" opacity="1">Iran</text></g></g><path class="foreground" aria-hidden="true" d="" display="none"></path></g><g transform="translate(0,65)"><path class="background" aria-hidden="true" d="M0,0h79v11h-79Z" opacity="1"></path><g><g class="mark-symbol role-legend-symbol Country_legend_symbols"><path transform="translate(6,6)" d="M-5,0L5,0" stroke="#eeca3b" stroke-width="1.5" opacity="1"></path></g><g class="mark-text role-legend-label Country_legend_labels"><text text-anchor="start" transform="translate(16,9)" font-family="Roboto Condensed" font-size="10px" fill="#000" opacity="1">Italy</text></g></g><path class="foreground" aria-hidden="true" d="" display="none"></path></g><g transform="translate(0,78)"><path class="background" aria-hidden="true" d="M0,0h79v11h-79Z" opacity="1"></path><g><g class="mark-symbol role-legend-symbol Country_legend_symbols"><path transform="translate(6,6)" d="M-5,0L5,0" stroke="#b279a2" stroke-width="1.5" opacity="1"></path></g><g class="mark-text role-legend-label Country_legend_labels"><text text-anchor="start" transform="translate(16,9)" font-family="Roboto Condensed" font-size="10px" fill="#000" opacity="1">Mexico</text></g></g><path class="foreground" aria-hidden="true" d="" display="none"></path></g><g transform="translate(0,91)"><path class="background" aria-hidden="true" d="M0,0h79v11h-79Z" opacity="1"></path><g><g class="mark-symbol role-legend-symbol Country_legend_symbols"><path transform="translate(6,6)" d="M-5,0L5,0" stroke="#ff9da6" stroke-width="1.5" opacity="1"></path></g><g class="mark-text role-legend-label Country_legend_labels"><text text-anchor="start" transform="translate(16,9)" font-family="Roboto Condensed" font-size="10px" fill="#000" opacity="1">Spain</text></g></g><path class="foreground" aria-hidden="true" d="" display="none"></path></g><g transform="translate(0,104)"><path class="background" aria-hidden="true" d="M0,0h79v11h-79Z" opacity="1"></path><g><g class="mark-symbol role-legend-symbol Country_legend_symbols"><path transform="translate(6,6)" d="M-5,0L5,0" stroke="#9d755d" stroke-width="1.5" opacity="1"></path></g><g class="mark-text role-legend-label Country_legend_labels"><text text-anchor="start" transform="translate(16,9)" font-family="Roboto Condensed" font-size="10px" fill="#000" opacity="1">US</text></g></g><path class="foreground" aria-hidden="true" d="" display="none"></path></g><g transform="translate(0,117)"><path class="background" aria-hidden="true" d="M0,0h79v11h-79Z" opacity="1"></path><g><g class="mark-symbol role-legend-symbol Country_legend_symbols"><path transform="translate(6,6)" d="M-5,0L5,0" stroke="#bab0ac" stroke-width="1.5" opacity="1"></path></g><g class="mark-text role-legend-label Country_legend_labels"><text text-anchor="start" transform="translate(16,9)" font-family="Roboto Condensed" font-size="10px" fill="#000" opacity="1">United Kingdom</text></g></g><path class="foreground" aria-hidden="true" d="" display="none"></path></g></g></g><path class="foreground" aria-hidden="true" d="" pointer-events="none" display="none"></path></g></g></g><path class="foreground" aria-hidden="true" d="" pointer-events="none" display="none"></path></g></g><g class="mark-group role-title"><g transform="translate(133.33333333333334,-22)"><path class="background" aria-hidden="true" d="M0,0h0v0h0Z" pointer-events="none"></path><g><g class="mark-text role-title-text" role="graphics-symbol" aria-roledescription="title" aria-label="Title text 'Recovered (total)'" pointer-events="none"><text text-anchor="middle" transform="translate(0,10)" font-family="Roboto Condensed" font-size="13px" font-weight="normal" fill="#000" opacity="1">Recovered (total)</text></g></g><path class="foreground" aria-hidden="true" d="" pointer-events="none" display="none"></path></g></g></g><path class="foreground" aria-hidden="true" d="" display="none"></path></g></g></g></svg>