<svg class="marks" width="419.6666666666667" height="310.6666666666667" viewBox="0 0 419.6666666666667 310.6666666666667" version="1.1" xmlns="http://www.w3.org/2000/svg" xmlns:xlink="http://www.w3.org/1999/xlink"><defs><clipPath id="clip1"><rect x="0" y="0" width="266.6666666666667" height="266.6666666666667"></rect></clipPath><clipPath id="clip2"><rect x="0" y="0" width="266.6666666666667" height="266.6666666666667"></rect></clipPath><clipPath id="clip3"><rect x="0" y="0" width="266.6666666666667" height="266.6666666666667"></rect></clipPath><clipPath id="clip4"><rect x="0" y="0" width="266.6666666666667" height="266.6666666666667"></rect></clipPath><clipPath id="clip5"><rect x="0" y="0" width="266.6666666666667" height="266.6666666666667"></rect></clipPath><clipPath id="clip6"><rect x="0" y="0" width="266.6666666666667" height="266.6666666666667"></rect></clipPath><clipPath id="clip7"><rect x="0" y="0" width="266.6666666666667" height="266.6666666666667"></rect></clipPath><clipPath id="clip8"><rect x="0" y="0" width="266.6666666666667" height="266.6666666666667"></rect></clipPath><clipPath id="clip9"><rect x="0" y="0" width="266.6666666666667" height="266.6666666666667"></rect></clipPath><clipPath id="clip10"><rect x="0" y="0" width="266.6666666666667" height="266.6666666666667"></rect></clipPath></defs><rect width="419.6666666666667" height="310.6666666666667" fill="white"></rect><g fill="none" stroke-miterlimit="10" transform="translate(50,27)"><g class="mark-group role-frame root" role="graphics-object" aria-roledescription="group mark container"><g transform="translate(0,0)"><path class="background" aria-hidden="true" d="M0,0h266.6666666666667v266.6666666666667h-266.6666666666667Z" stroke="#ddd" stroke-width="0"></path><g><g class="mark-group role-axis" aria-hidden="true"><g transform="translate(0.5,0.5)"><path class="background" aria-hidden="true" d="M0,0h0v0h0Z" pointer-events="none"></path><g><g class="mark-rule role-axis-grid" pointer-events="none"><line transform="translate(0,267)" x2="266.6666666666667" y2="0" stroke="#ddd" stroke-width="1" opacity="1"></line><line transform="translate(0,233)" x2="266.6666666666667" y2="0" stroke="#ddd" stroke-width="1" opacity="1"></line><line transform="translate(0,200)" x2="266.6666666666667" y2="0" stroke="#ddd" stroke-width="1" opacity="1"></line><line transform="translate(0,167)" x2="266.6666666666667" y2="0" stroke="#ddd" stroke-width="1" opacity="1"></line><line transform="translate(0,133)" x2="266.6666666666667" y2="0" stroke="#ddd" stroke-width="1" opacity="1"></line><line transform="translate(0,100)" x2="266.6666666666667" y2="0" stroke="#ddd" stroke-width="1" opacity="1"></line><line transform="translate(0,67)" x2="266.6666666666667" y2="0" stroke="#ddd" stroke-width="1" opacity="1"></line><line transform="translate(0,33)" x2="266.6666666666667" y2="0" stroke="#ddd" stroke-width="1" opacity="1"></line><line transform="translate(0,0)" x2="266.6666666666667" y2="0" stroke="#ddd" stroke-width="1" opacity="1"></line></g></g><path class="foreground" aria-hidden="true" d="" pointer-events="none" display="none"></path></g></g><g class="mark-group role-axis" role="graphics-symbol" aria-roledescription="axis" aria-label="X-axis for a time scale with values from Friday, 24 April 2020, 5:00:00 PM to Sunday, 24 May 2020, 5:00:00 PM"><g transform="translate(0.5,267.1666666666667)"><path class="background" aria-hidden="true" d="M0,0h0v0h0Z" pointer-events="none"></path><g><g class="mark-text role-axis-label" pointer-events="none"><text text-anchor="middle" transform="translate(11.481481481481483,10)" font-family="Roboto Condensed" font-size="10px" fill="#000" opacity="1">Apr 26</text><text text-anchor="middle" transform="translate(73.70370370370371,10)" font-family="Roboto Condensed" font-size="10px" fill="#000" opacity="1">May 03</text><text text-anchor="middle" transform="translate(135.92592592592592,10)" font-family="Roboto Condensed" font-size="10px" fill="#000" opacity="1">May 10</text><text text-anchor="middle" transform="translate(198.14814814814818,10)" font-family="Roboto Condensed" font-size="10px" fill="#000" opacity="1">May 17</text><text text-anchor="middle" transform="translate(260.3703703703704,10)" font-family="Roboto Condensed" font-size="10px" fill="#000" opacity="1">May 24</text></g><g class="mark-rule role-axis-domain" pointer-events="none"><line transform="translate(0,0)" x2="266.6666666666667" y2="0" stroke="lightgray" stroke-width="1" opacity="1"></line></g></g><path class="foreground" aria-hidden="true" d="" pointer-events="none" display="none"></path></g></g><g class="mark-group role-axis" role="graphics-symbol" aria-roledescription="axis" aria-label="Y-axis for a linear scale with values from 0 to 400,000"><g transform="translate(0.5,0.5)"><path class="background" aria-hidden="true" d="M0,0h0v0h0Z" pointer-events="none"></path><g><g class="mark-text role-axis-label" pointer-events="none"><text text-anchor="end" transform="translate(-2,269.6666666666667)" font-family="Roboto Condensed" font-size="10px" fill="#000" opacity="1">0</text><text text-anchor="end" transform="translate(-2,236.33333333333334)" font-family="Roboto Condensed" font-size="10px" fill="#000" opacity="1">50,000</text><text text-anchor="end" transform="translate(-2,203)" font-family="Roboto Condensed" font-size="10px" fill="#000" opacity="1">100,000</text><text text-anchor="end" transform="translate(-2,169.66666666666669)" font-family="Roboto Condensed" font-size="10px" fill="#000" opacity="1">150,000</text><text text-anchor="end" transform="translate(-2,136.33333333333334)" font-family="Roboto Condensed" font-size="10px" fill="#000" opacity="1">200,000</text><text text-anchor="end" transform="translate(-2,103)" font-family="Roboto Condensed" font-size="10px" fill="#000" opacity="1">250,000</text><text text-anchor="end" transform="translate(-2,69.66666666666667)" font-family="Roboto Condensed" font-size="10px" fill="#000" opacity="1">300,000</text><text text-anchor="end" transform="translate(-2,36.333333333333336)" font-family="Roboto Condensed" font-size="10px" fill="#000" opacity="1">350,000</text><text text-anchor="end" transform="translate(-2,3)" font-family="Roboto Condensed" font-size="10px" fill="#000" opacity="1">400,000</text></g><g class="mark-rule role-axis-domain" pointer-events="none"><line transform="translate(0,266.6666666666667)" x2="0" y2="-266.6666666666667" stroke="lightgray" stroke-width="1" opacity="1"></line></g></g><path class="foreground" aria-hidden="true" d="" pointer-events="none" display="none"></path></g></g><g class="mark-group role-scope pathgroup" role="graphics-object" aria-roledescription="group mark container"><g transform="translate(0,0)"><path class="background" aria-hidden="true" d="M0,0h266.6666666666667v266.6666666666667h-266.6666666666667Z"></path><g><g class="mark-line role-mark marks" clip-path="url(#clip1)" role="graphics-object" aria-roledescription="line mark container"><path aria-label="Country: Belgium; Date: Mar 01, 2020; Confirmed: 2; Recovered: 1; Deaths: 0; : 1" role="graphics-symbol" aria-roledescription="line mark" d="M-485.9259259259259,266.666L-477.03703703703707,266.666L-468.14814814814815,266.666L-459.2592592592593,266.666L-450.3703703703704,266.666L-441.48148148148147,266.666L-432.5925925925926,266.666L-423.7037037037037,266.666L-415.1851851851852,266.666L-406.2962962962963,266.666L-397.40740740740745,266.666L-388.51851851851853,266.666L-379.6296296296297,266.666L-370.74074074074076,266.666L-361.8518518518519,266.666L-352.962962962963,266.666L-344.07407407407413,266.666L-335.1851851851852,266.646L-326.29629629629636,266.646L-317.40740740740745,266.666L-308.5185185185186,266.49133333333333L-299.6296296296297,266.49133333333333L-290.74074074074076,266.49133333333333L-281.8518518518519,266.3593333333333L-272.96296296296293,266.302L-264.0740740740741,266.2166666666667L-255.18518518518522,266.0946666666667L-246.29629629629633,265.958L-237.40740740740742,265.7606666666667L-228.51851851851853,265.64866666666666L-219.62962962962965,265.536L-210.74074074074073,265.24533333333335L-201.85185185185185,265.00333333333333L-192.96296296296296,264.752L-184.07407407407408,264.502L-175.1851851851852,264.166L-166.2962962962963,264.00933333333336L-157.40740740740742,263.8953333333333L-148.51851851851853,263.54600000000005L-139.62962962962965,263.22400000000005L-130.74074074074073,262.9546666666667L-121.85185185185186,262.67600000000004L-112.96296296296298,262.358L-104.07407407407408,262.19533333333334L-95.18518518518519,262.088L-86.2962962962963,261.9286666666667L-77.40740740740742,261.62533333333334L-68.51851851851852,261.3593333333333L-59.62962962962963,261.10133333333334L-50.74074074074074,260.82866666666666L-41.851851851851855,260.7366666666667L-32.96296296296297,260.66533333333336L-24.074074074074076,260.37800000000004L-15.185185185185185,260.1333333333334L-6.296296296296297,259.9186666666667L2.592592592592593,259.72200000000004L11.481481481481483,259.4766666666667L20.370370370370374,259.4146666666667L29.25925925925926,259.3713333333333L38.148148148148145,259.1446666666667L47.037037037037045,258.94933333333336L55.92592592592593,258.7386666666667L64.81481481481482,258.526L73.70370370370371,258.46066666666667L82.5925925925926,258.4146666666667L91.4814814814815,258.3726666666667L100.37037037037038,258.1793333333334L109.25925925925927,258.0133333333334L118.14814814814815,257.866L127.03703703703704,257.726L135.92592592592592,257.572L144.8148148148148,257.53533333333337L153.7037037037037,257.512L162.5925925925926,257.37533333333334L171.4814814814815,257.25933333333336L180.37037037037038,257.1326666666667L189.2592592592593,257.0266666666667L198.14814814814818,256.91333333333336L207.03703703703707,256.8953333333333L215.92592592592595,256.87533333333334L224.81481481481484,256.76866666666666L233.70370370370372,256.67466666666667L242.5925925925926,256.5846666666667L251.4814814814815,256.5633333333334L260.3703703703704,256.48533333333336L269.2592592592593,256.4686666666667" stroke="#4c78a8" stroke-width="2" opacity="1"></path></g></g><path class="foreground" aria-hidden="true" d="" display="none"></path></g><g transform="translate(0,0)"><path class="background" aria-hidden="true" d="M0,0h266.6666666666667v266.6666666666667h-266.6666666666667Z"></path><g><g class="mark-line role-mark marks" clip-path="url(#clip2)" role="graphics-object" aria-roledescription="line mark container"><path aria-label="Country: Brazil; Date: Mar 01, 2020; Confirmed: 2; Recovered: 0; Deaths: 0; : 0" role="graphics-symbol" aria-roledescription="line mark" d="M-485.9259259259259,266.6666666666667L-477.03703703703707,266.6666666666667L-468.14814814814815,266.6666666666667L-459.2592592592593,266.6666666666667L-450.3703703703704,266.6666666666667L-441.48148148148147,266.6666666666667L-432.5925925925926,266.6666666666667L-423.7037037037037,266.6666666666667L-415.1851851851852,266.6666666666667L-406.2962962962963,266.6666666666667L-397.40740740740745,266.6666666666667L-388.51851851851853,266.6666666666667L-379.6296296296297,266.6666666666667L-370.74074074074076,266.6666666666667L-361.8518518518519,266.6666666666667L-352.962962962963,266.666L-344.07407407407413,266.66533333333336L-335.1851851851852,266.66533333333336L-326.29629629629636,266.66533333333336L-317.40740740740745,266.66533333333336L-308.5185185185186,266.66533333333336L-299.6296296296297,266.66533333333336L-290.74074074074076,266.66533333333336L-281.8518518518519,266.66533333333336L-272.96296296296293,266.66533333333336L-264.0740740740741,266.66266666666667L-255.18518518518522,266.66266666666667L-246.29629629629633,266.66266666666667L-237.40740740740742,266.66266666666667L-228.51851851851853,266.5866666666667L-219.62962962962965,266.58200000000005L-210.74074074074073,266.58200000000005L-201.85185185185185,266.58200000000005L-192.96296296296296,266.58200000000005L-184.07407407407408,266.58200000000005L-175.1851851851852,266.58200000000005L-166.2962962962963,266.58200000000005L-157.40740740740742,266.58200000000005L-148.51851851851853,266.58200000000005L-139.62962962962965,266.5513333333334L-130.74074074074073,266.5513333333334L-121.85185185185186,266.5513333333334L-112.96296296296298,266.5513333333334L-104.07407407407408,266.5513333333334L-95.18518518518519,264.636L-86.2962962962963,257.31600000000003L-77.40740740740742,257.31600000000003L-68.51851851851852,257.31600000000003L-59.62962962962963,257.31600000000003L-50.74074074074074,251.91333333333336L-41.851851851851855,251.91333333333336L-32.96296296296297,251.33933333333337L-24.074074074074076,249.788L-15.185185185185185,248.95133333333334L-6.296296296296297,248.23000000000002L2.592592592592593,247.2266666666667L11.481481481481483,246.56533333333334L20.370370370370374,245.90533333333335L29.25925925925926,244.9706666666667L38.148148148148145,243.912L47.037037037037045,242.71L55.92592592592593,241.30733333333333L64.81481481481482,239.37533333333334L73.70370370370371,238.00600000000003L82.5925925925926,236.12333333333336L91.4814814814815,234.51933333333332L100.37037037037038,232.42000000000002L109.25925925925927,229.76666666666668L118.14814814814815,227.13533333333334L127.03703703703704,225.54333333333335L135.92592592592592,223.36200000000002L144.8148148148148,221.744L153.7037037037037,218.26866666666666L162.5925925925926,214.38400000000001L171.4814814814815,213.6806666666667L180.37037037037038,210.02L189.2592592592593,206.88533333333334L198.14814814814818,203.9186666666667L207.03703703703707,199.694L215.92592592592595,195.47066666666666L224.81481481481484,188.87800000000001L233.70370370370372,182.69333333333336L242.5925925925926,176.38L251.4814814814815,171.6086666666667L260.3703703703704,166.72600000000003L269.2592592592593,164.11133333333333" stroke="#f58518" stroke-width="2" opacity="1"></path></g></g><path class="foreground" aria-hidden="true" d="" display="none"></path></g><g transform="translate(0,0)"><path class="background" aria-hidden="true" d="M0,0h266.6666666666667v266.6666666666667h-266.6666666666667Z"></path><g><g class="mark-line role-mark marks" clip-path="url(#clip3)" role="graphics-object" aria-roledescription="line mark container"><path aria-label="Country: France; Date: Mar 01, 2020; Confirmed: 130; Recovered: 12; Deaths: 2; : 12" role="graphics-symbol" aria-roledescription="line mark" d="M-485.9259259259259,266.6586666666667L-477.03703703703707,266.6586666666667L-468.14814814814815,266.6586666666667L-459.2592592592593,266.6586666666667L-450.3703703703704,266.6586666666667L-441.48148148148147,266.6586666666667L-432.5925925925926,266.6586666666667L-423.7037037037037,266.6586666666667L-415.1851851851852,266.6586666666667L-406.2962962962963,266.6586666666667L-397.40740740740745,266.6586666666667L-388.51851851851853,266.6586666666667L-379.6296296296297,266.6586666666667L-370.74074074074076,266.6586666666667L-361.8518518518519,266.6586666666667L-352.962962962963,266.6586666666667L-344.07407407407413,266.6586666666667L-335.1851851851852,266.6586666666667L-326.29629629629636,266.6586666666667L-317.40740740740745,266.6586666666667L-308.5185185185186,266.6586666666667L-299.6296296296297,265.20000000000005L-290.74074074074076,265.20000000000005L-281.8518518518519,264.50466666666665L-272.96296296296293,264.06666666666666L-264.0740740740741,263.368L-255.18518518518522,262.8666666666667L-246.29629629629633,262.8666666666667L-237.40740740740742,261.86533333333335L-228.51851851851853,261.382L-219.62962962962965,260.3706666666667L-210.74074074074073,259.37733333333335L-201.85185185185185,258.3813333333333L-192.96296296296296,257.32800000000003L-184.07407407407408,256.37466666666666L-175.1851851851852,255.87800000000001L-166.2962962962963,255.16666666666669L-157.40740740740742,253.77533333333335L-148.51851851851853,252.49733333333333L-139.62962962962965,251.196L-130.74074074074073,250.04533333333336L-121.85185185185186,249.0726666666667L-112.96296296296298,248.54266666666666L-104.07407407407408,248.18800000000002L-95.18518518518519,247.65866666666668L-86.2962962962963,246.37333333333333L-77.40740740740742,245.13533333333336L-68.51851851851852,244.11066666666667L-59.62962962962963,243.08066666666667L-50.74074074074074,242.6846666666667L-41.851851851851855,242.14533333333335L-32.96296296296297,240.97133333333335L-24.074074074074076,240.008L-15.185185185185185,239.05733333333333L-6.296296296296297,238.19L2.592592592592593,237.45600000000002L11.481481481481483,237.25L20.370370370370374,236.84466666666668L29.25925925925926,236.002L38.148148148148145,235.108L47.037037037037045,234.28533333333334L55.92592592592593,233.8L64.81481481481482,233.49933333333334L73.70370370370371,233.35133333333334L82.5925925925926,233.04133333333334L91.4814814814815,232.13133333333334L100.37037037037038,231.3186666666667L109.25925925925927,230.616L118.14814814814815,230.15333333333336L127.03703703703704,230.07600000000002L135.92592592592592,229.9586666666667L144.8148148148148,229.62066666666666L153.7037037037037,228.92200000000003L162.5925925925926,228.42133333333337L171.4814814814815,227.8L180.37037037037038,227.23800000000003L189.2592592592593,227.2386666666667L198.14814814814818,226.72866666666667L207.03703703703707,226.38933333333333L215.92592592592595,225.836L224.81481481481484,225.5246666666667L233.70370370370372,225.18933333333334L242.5925925925926,225.18933333333334L251.4814814814815,225.18933333333334L260.3703703703704,224.6926666666667L269.2592592592593,224.30533333333335" stroke="#e45756" stroke-width="2" opacity="1"></path></g></g><path class="foreground" aria-hidden="true" d="" display="none"></path></g><g transform="translate(0,0)"><path class="background" aria-hidden="true" d="M0,0h266.6666666666667v266.6666666666667h-266.6666666666667Z"></path><g><g class="mark-line role-mark marks" clip-path="url(#clip4)" role="graphics-object" aria-roledescription="line mark container"><path aria-label="Country: Germany; Date: Mar 01, 2020; Confirmed: 130; Recovered: 16; Deaths: 0; : 16" role="graphics-symbol" aria-roledescription="line mark" d="M-485.9259259259259,266.656L-477.03703703703707,266.656L-468.14814814814815,266.656L-459.2592592592593,266.656L-450.3703703703704,266.656L-441.48148148148147,266.6553333333334L-432.5925925925926,266.6546666666667L-423.7037037037037,266.6546666666667L-415.1851851851852,266.6546666666667L-406.2962962962963,266.6546666666667L-397.40740740740745,266.65000000000003L-388.51851851851853,266.65000000000003L-379.6296296296297,266.636L-370.74074074074076,266.636L-361.8518518518519,266.636L-352.962962962963,266.622L-344.07407407407413,266.622L-335.1851851851852,266.5966666666667L-326.29629629629636,266.59133333333335L-317.40740740740745,266.5466666666667L-308.5185185185186,266.51133333333337L-299.6296296296297,266.4893333333333L-290.74074074074076,266.4893333333333L-281.8518518518519,264.50466666666665L-272.96296296296293,264.302L-264.0740740740741,262.8846666666667L-255.18518518518522,262.228L-246.29629629629633,261.0126666666667L-237.40740740740742,260.526L-228.51851851851853,257.6666666666667L-219.62962962962965,255.93333333333334L-210.74074074074073,254.20000000000002L-201.85185185185185,251.70666666666668L-192.96296296296296,250.28333333333333L-184.07407407407408,249.06666666666666L-175.1851851851852,247.53333333333336L-166.2962962962963,247.53333333333336L-157.40740740740742,242.61266666666668L-148.51851851851853,235.8L-139.62962962962965,231.72866666666667L-130.74074074074073,230.72466666666668L-121.85185185185186,228.40000000000003L-112.96296296296298,226.4666666666667L-104.07407407407408,223.80000000000004L-95.18518518518519,221.20000000000002L-86.2962962962963,218.26666666666668L-77.40740740740742,215.33333333333334L-68.51851851851852,211.25733333333335L-59.62962962962963,209.73333333333335L-50.74074074074074,208.00000000000003L-41.851851851851855,205.66666666666669L-32.96296296296297,203.20000000000002L-24.074074074074076,200.40000000000003L-15.185185185185185,197.8L-6.296296296296297,193.4666666666667L2.592592592592593,193.4666666666667L11.481481481481483,192L20.370370370370374,190.33333333333334L29.25925925925926,188.4L38.148148148148145,186.40000000000003L47.037037037037045,184.33333333333331L55.92592592592593,182.06666666666666L64.81481481481482,180.66666666666669L73.70370370370371,179.60000000000002L82.5925925925926,178.20000000000002L91.4814814814815,176.60000000000002L100.37037037037038,173.4L109.25925925925927,172.20000000000002L118.14814814814815,172.20000000000002L127.03703703703704,171.13333333333335L135.92592592592592,170.4L144.8148148148148,169.58866666666665L153.7037037037037,168.53333333333336L162.5925925925926,167.53333333333333L171.4814814814815,166.46666666666667L180.37037037037038,165.602L189.2592592592593,164.93333333333337L198.14814814814818,163.99266666666665L207.03703703703707,163.30599999999998L215.92592592592595,162.87933333333334L224.81481481481484,162.02266666666668L233.70370370370372,161.27533333333335L242.5925925925926,160.624L251.4814814814815,160.18933333333337L260.3703703703704,159.8126666666667L269.2592592592593,159.20066666666668" stroke="#72b7b2" stroke-width="2" opacity="1"></path></g></g><path class="foreground" aria-hidden="true" d="" display="none"></path></g><g transform="translate(0,0)"><path class="background" aria-hidden="true" d="M0,0h266.6666666666667v266.6666666666667h-266.6666666666667Z"></path><g><g class="mark-line role-mark marks" clip-path="url(#clip5)" role="graphics-object" aria-roledescription="line mark container"><path aria-label="Country: Iran; Date: Mar 01, 2020; Confirmed: 978; Recovered: 175; Deaths: 54; : 175" role="graphics-symbol" aria-roledescription="line mark" d="M-485.9259259259259,266.55L-477.03703703703707,266.47266666666667L-468.14814814814815,266.47266666666667L-459.2592592592593,266.2986666666667L-450.3703703703704,266.17400000000004L-441.48148148148147,266.05800000000005L-432.5925925925926,265.55400000000003L-423.7037037037037,265.244L-415.1851851851852,265.0706666666667L-406.2962962962963,264.846L-397.40740740740745,264.694L-388.51851851851853,264.694L-379.6296296296297,264.694L-370.74074074074076,264.694L-361.8518518518519,263.6066666666667L-352.962962962963,263.6066666666667L-344.07407407407413,263.074L-335.1851851851852,263.074L-326.29629629629636,262.86L-317.40740740740745,262.17L-308.5185185185186,261.57666666666665L-299.6296296296297,261.37933333333336L-290.74074074074076,261.37933333333336L-281.8518518518519,260.7246666666667L-272.96296296296293,260.25L-264.0740740740741,259.69533333333334L-255.18518518518522,259.24466666666666L-246.29629629629633,258.8806666666667L-237.40740740740742,258.406L-228.51851851851853,257.3926666666667L-219.62962962962965,256.896L-210.74074074074073,256.35133333333334L-201.85185185185185,255.526L-192.96296296296296,254.71000000000004L-184.07407407407408,253.50933333333333L-175.1851851851852,253.50933333333333L-166.2962962962963,250.50933333333333L-157.40740740740742,248.6406666666667L-148.51851851851853,246.79200000000003L-139.62962962962965,245.12733333333335L-130.74074074074073,243.02333333333337L-121.85185185185186,238.70200000000003L-112.96296296296298,237.404L-104.07407407407408,236.01133333333334L-95.18518518518519,234.58066666666667L-86.2962962962963,233.37800000000001L-77.40740740740742,231.84733333333335L-68.51851851851852,230.62400000000002L-59.62962962962963,229.342L-50.74074074074074,228.65133333333335L-41.851851851851855,227.15133333333335L-32.96296296296297,226.02333333333334L-24.074074074074076,224.59133333333335L-15.185185185185185,223.43800000000002L-6.296296296296297,222.26733333333337L2.592592592592593,221.2046666666667L11.481481481481483,220.2286666666667L20.370370370370374,219.37800000000001L29.25925925925926,218.37400000000002L38.148148148148145,217.4726666666667L47.037037037037045,216.598L55.92592592592593,215.788L64.81481481481482,215.10000000000002L73.70370370370371,214.38533333333336L82.5925925925926,213.74733333333336L91.4814814814815,213.01666666666668L100.37037037037038,212.27533333333335L109.25925925925927,211.504L118.14814814814815,210.77533333333335L127.03703703703704,209.95733333333337L135.92592592592592,209.23800000000003L144.8148148148148,208.38533333333334L153.7037037037037,207.76200000000003L162.5925925925926,207.048L171.4814814814815,206.30733333333333L180.37037037037038,205.4426666666667L189.2592592592593,204.56866666666667L198.14814814814818,203.69066666666666L207.03703703703707,202.89266666666668L215.92592592592595,201.88466666666667L224.81481481481484,200.79466666666667L233.70370370370372,199.624L242.5925925925926,198.4826666666667L251.4814814814815,197.2853333333333L260.3703703703704,196.1326666666667L269.2592592592593,194.85800000000003" stroke="#54a24b" stroke-width="2" opacity="1"></path></g></g><path class="foreground" aria-hidden="true" d="" display="none"></path></g><g transform="translate(0,0)"><path class="background" aria-hidden="true" d="M0,0h266.6666666666667v266.6666666666667h-266.6666666666667Z"></path><g><g class="mark-line role-mark marks" clip-path="url(#clip6)" role="graphics-object" aria-roledescription="line mark container"><path aria-label="Country: Italy; Date: Mar 01, 2020; Confirmed: 1694; Recovered: 83; Deaths: 34; : 83" role="graphics-symbol" aria-roledescription="line mark" d="M-485.9259259259259,266.61133333333333L-477.03703703703707,266.56733333333335L-468.14814814814815,266.56L-459.2592592592593,266.4826666666667L-450.3703703703704,266.3906666666667L-441.48148148148147,266.31800000000004L-432.5925925925926,266.274L-423.7037037037037,266.252L-415.1851851851852,266.184L-406.2962962962963,266.184L-397.40740740740745,265.97L-388.51851851851853,265.97L-379.6296296296297,265.70733333333334L-370.74074074074076,265.356L-361.8518518518519,265.11L-352.962962962963,264.83400000000006L-344.07407407407413,264.706L-335.1851851851852,263.98333333333335L-326.29629629629636,263.7066666666667L-317.40740740740745,263.7066666666667L-308.5185185185186,262.6186666666667L-299.6296296296297,261.98400000000004L-290.74074074074076,261.98400000000004L-281.8518518518519,261.116L-272.96296296296293,260.42533333333336L-264.0740740740741,259.75933333333336L-255.18518518518522,259.3666666666667L-246.29629629629633,258.4106666666667L-237.40740740740742,257.98L-228.51851851851853,256.92L-219.62962962962965,256.1806666666667L-210.74074074074073,255.43533333333335L-201.85185185185185,254.48133333333334L-192.96296296296296,253.4946666666667L-184.07407407407408,252.66933333333336L-175.1851851851852,252.12333333333333L-166.2962962962963,251.442L-157.40740740740742,250.40533333333335L-148.51851851851853,249.00600000000003L-139.62962962962965,247.6866666666667L-130.74074074074073,246.36333333333337L-121.85185185185186,244.97733333333335L-112.96296296296298,243.85933333333335L-104.07407407407408,243.04333333333335L-95.18518518518519,241.91333333333333L-86.2962962962963,241.27200000000002L-77.40740740740742,239.89066666666668L-68.51851851851852,238.18200000000002L-59.62962962962963,236.71533333333335L-50.74074074074074,235.29666666666668L-41.851851851851855,234.082L-32.96296296296297,232.26666666666668L-24.074074074074076,230.3046666666667L-15.185185185185185,228.2826666666667L-6.296296296296297,226.3346666666667L2.592592592592593,224.5866666666667L11.481481481481483,223.38133333333334L20.370370370370374,222.25066666666666L29.25925925925926,220.70600000000002L38.148148148148145,219.16533333333334L47.037037037037045,216.03666666666666L55.92592592592593,214.50066666666666L64.81481481481482,213.39066666666668L73.70370370370371,212.2306666666667L82.5925925925926,211.41400000000002L91.4814814814815,209.846L100.37037037037038,204.50333333333333L109.25925925925927,202.4826666666667L118.14814814814815,200.65133333333335L127.03703703703704,197.97933333333333L135.92592592592592,196.5426666666667L144.8148148148148,195.60866666666666L153.7037037037037,193.974L162.5925925925926,191.63933333333335L171.4814814814815,189.80800000000002L180.37037037037038,186.53000000000003L189.2592592592593,184.79333333333335L198.14814814814818,183.216L207.03703703703707,181.78266666666667L215.92592592592595,180.39933333333335L224.81481481481484,178.47866666666667L233.70370370370372,176.96L242.5925925925926,175.52L251.4814814814815,174.10666666666668L260.3703703703704,173.014L269.2592592592593,172.0126666666667" stroke="#eeca3b" stroke-width="2" opacity="1"></path></g></g><path class="foreground" aria-hidden="true" d="" display="none"></path></g><g transform="translate(0,0)"><path class="background" aria-hidden="true" d="M0,0h266.6666666666667v266.6666666666667h-266.6666666666667Z"></path><g><g class="mark-line role-mark marks" clip-path="url(#clip7)" role="graphics-object" aria-roledescription="line mark container"><path aria-label="Country: Mexico; Date: Mar 01, 2020; Confirmed: 5; Recovered: 0; Deaths: 0; : 0" role="graphics-symbol" aria-roledescription="line mark" d="M-485.9259259259259,266.6666666666667L-477.03703703703707,266.6666666666667L-468.14814814814815,266.666L-459.2592592592593,266.666L-450.3703703703704,266.666L-441.48148148148147,266.666L-432.5925925925926,266.666L-423.7037037037037,266.666L-415.1851851851852,266.666L-406.2962962962963,266.66400000000004L-397.40740740740745,266.66400000000004L-388.51851851851853,266.66400000000004L-379.6296296296297,266.66400000000004L-370.74074074074076,266.66400000000004L-361.8518518518519,266.66400000000004L-352.962962962963,266.66400000000004L-344.07407407407413,266.66400000000004L-335.1851851851852,266.66400000000004L-326.29629629629636,266.66400000000004L-317.40740740740745,266.66400000000004L-308.5185185185186,266.66400000000004L-299.6296296296297,266.66400000000004L-290.74074074074076,266.66400000000004L-281.8518518518519,266.66400000000004L-272.96296296296293,266.66400000000004L-264.0740740740741,266.66400000000004L-255.18518518518522,266.66400000000004L-246.29629629629633,266.66400000000004L-237.40740740740742,266.66400000000004L-228.51851851851853,266.6433333333334L-219.62962962962965,266.6433333333334L-210.74074074074073,266.6433333333334L-201.85185185185185,266.6433333333334L-192.96296296296296,266.24466666666666L-184.07407407407408,266.24466666666666L-175.1851851851852,266.24466666666666L-166.2962962962963,266.24466666666666L-157.40740740740742,266.24466666666666L-148.51851851851853,266.24466666666666L-139.62962962962965,266.24466666666666L-130.74074074074073,266.24466666666666L-121.85185185185186,266.24466666666666L-112.96296296296298,265.48533333333336L-104.07407407407408,265.43800000000005L-95.18518518518519,265.3573333333334L-86.2962962962963,265.25L-77.40740740740742,265.25L-68.51851851851852,265.25L-59.62962962962963,265.25L-50.74074074074074,264.91533333333336L-41.851851851851855,264.91533333333336L-32.96296296296297,264.91533333333336L-24.074074074074076,264.91533333333336L-15.185185185185185,264.91533333333336L-6.296296296296297,264.91533333333336L2.592592592592593,261.9006666666667L11.481481481481483,261.0973333333333L20.370370370370374,260.6093333333333L29.25925925925926,259.05133333333333L38.148148148148145,259.05133333333333L47.037037037037045,259.05133333333333L55.92592592592593,258.41533333333336L64.81481481481482,258.41533333333336L73.70370370370371,257.70200000000006L82.5925925925926,257.70200000000006L91.4814814814815,255.46000000000004L100.37037037037038,254.81266666666667L109.25925925925927,254.81266666666667L118.14814814814815,253.12400000000002L127.03703703703704,252.11733333333336L135.92592592592592,252.11733333333336L144.8148148148148,251.26666666666668L153.7037037037037,249.3766666666667L162.5925925925926,248.67333333333337L171.4814814814815,247.68333333333337L180.37037037037038,246.366L189.2592592592593,245.4346666666667L198.14814814814818,244.44733333333335L207.03703703703707,243.07466666666667L215.92592592592595,241.78333333333333L224.81481481481484,241.05400000000003L233.70370370370372,239.89866666666668L242.5925925925926,238.53933333333336L251.4814814814815,237.05066666666667L260.3703703703704,235.34733333333335L269.2592592592593,233.69866666666667" stroke="#b279a2" stroke-width="2" opacity="1"></path></g></g><path class="foreground" aria-hidden="true" d="" display="none"></path></g><g transform="translate(0,0)"><path class="background" aria-hidden="true" d="M0,0h266.6666666666667v266.6666666666667h-266.6666666666667Z"></path><g><g class="mark-line role-mark marks" clip-path="url(#clip8)" role="graphics-object" aria-roledescription="line mark container"><path aria-label="Country: Spain; Date: Mar 01, 2020; Confirmed: 84; Recovered: 2; Deaths: 0; : 2" role="graphics-symbol" aria-roledescription="line mark" d="M-485.9259259259259,266.66533333333336L-477.03703703703707,266.66533333333336L-468.14814814814815,266.66533333333336L-459.2592592592593,266.66533333333336L-450.3703703703704,266.66533333333336L-441.48148148148147,266.66533333333336L-432.5925925925926,266.64666666666665L-423.7037037037037,266.64666666666665L-415.1851851851852,266.6453333333334L-406.2962962962963,266.6453333333334L-397.40740740740745,266.54466666666667L-388.51851851851853,266.54466666666667L-379.6296296296297,266.538L-370.74074074074076,266.322L-361.8518518518519,266.322L-352.962962962963,266.31333333333333L-344.07407407407413,265.98133333333334L-335.1851851851852,265.946L-326.29629629629636,265.9286666666667L-317.40740740740745,265.608L-308.5185185185186,265.25L-299.6296296296297,264.95000000000005L-290.74074074074076,264.95000000000005L-281.8518518518519,264.13733333333334L-272.96296296296293,263.0886666666667L-264.0740740740741,261.99L-255.18518518518522,260.4286666666667L-246.29629629629633,258.4766666666667L-237.40740740740742,256.8606666666667L-228.51851851851853,255.48000000000002L-219.62962962962965,253.82733333333334L-210.74074074074073,251.5686666666667L-201.85185185185185,248.83800000000002L-192.96296296296296,246.32466666666667L-184.07407407407408,243.854L-175.1851851851852,241.28000000000003L-166.2962962962963,239.7086666666667L-157.40740740740742,237.86133333333336L-148.51851851851853,234.65266666666668L-139.62962962962965,231.89000000000001L-130.74074074074073,229.5546666666667L-121.85185185185186,227.26066666666668L-112.96296296296298,225.0726666666667L-104.07407407407408,223.51533333333336L-95.18518518518519,221.66400000000002L-86.2962962962963,219.43133333333336L-77.40740740740742,216.80200000000002L-68.51851851851852,216.80200000000002L-59.62962962962963,216.80200000000002L-50.74074074074074,215.09533333333334L-41.851851851851855,212.942L-32.96296296296297,211.65733333333333L-24.074074074074076,209.39000000000001L-15.185185185185185,207.16666666666669L-6.296296296296297,205.09666666666666L2.592592592592593,202.86133333333336L11.481481481481483,201.08533333333335L20.370370370370374,199.41666666666669L29.25925925925926,198.30133333333336L38.148148148148145,194.03533333333334L47.037037037037045,191.9666666666667L55.92592592592593,191.9666666666667L64.81481481481482,188.50133333333332L73.70370370370371,187.39866666666666L82.5925925925926,185.77133333333336L91.4814814814815,184.34266666666667L100.37037037037038,182.66533333333336L109.25925925925927,180.99266666666668L118.14814814814815,179.23466666666667L127.03703703703704,177.36533333333333L135.92592592592592,175.88933333333333L144.8148148148148,175.2406666666667L153.7037037037037,174.01333333333335L162.5925925925926,172.78466666666668L171.4814814814815,171.084L180.37037037037038,170.1446666666667L189.2592592592593,169.03600000000003L198.14814814814818,169.03600000000003L207.03703703703707,166.41600000000003L215.92592592592595,166.41600000000003L224.81481481481484,166.41600000000003L233.70370370370372,166.41600000000003L242.5925925925926,166.41600000000003L251.4814814814815,166.41600000000003L260.3703703703704,166.41600000000003L269.2592592592593,166.41600000000003" stroke="#ff9da6" stroke-width="2" opacity="1"></path></g></g><path class="foreground" aria-hidden="true" d="" display="none"></path></g><g transform="translate(0,0)"><path class="background" aria-hidden="true" d="M0,0h266.6666666666667v266.6666666666667h-266.6666666666667Z"></path><g><g class="mark-line role-mark marks" clip-path="url(#clip9)" role="graphics-object" aria-roledescription="line mark container"><path aria-label="Country: US; Date: Mar 01, 2020; Confirmed: 74; Recovered: 7; Deaths: 1; : 7" role="graphics-symbol" aria-roledescription="line mark" d="M-485.9259259259259,266.66200000000003L-477.03703703703707,266.66200000000003L-468.14814814814815,266.66200000000003L-459.2592592592593,266.66200000000003L-450.3703703703704,266.66200000000003L-441.48148148148147,266.66200000000003L-432.5925925925926,266.66200000000003L-423.7037037037037,266.66200000000003L-415.1851851851852,266.66200000000003L-406.2962962962963,266.66133333333335L-397.40740740740745,266.66133333333335L-388.51851851851853,266.6586666666667L-379.6296296296297,266.6586666666667L-370.74074074074076,266.6586666666667L-361.8518518518519,266.6586666666667L-352.962962962963,266.6553333333334L-344.07407407407413,266.6553333333334L-335.1851851851852,266.5966666666667L-326.29629629629636,266.586L-317.40740740740745,266.5686666666667L-308.5185185185186,266.5493333333334L-299.6296296296297,266.548L-290.74074074074076,266.548L-281.8518518518519,266.43466666666666L-272.96296296296293,266.426L-264.0740740740741,266.2126666666667L-255.18518518518522,266.08733333333333L-246.29629629629633,265.952L-237.40740740740742,264.89L-228.51851851851853,262.90400000000005L-219.62962962962965,261.98400000000004L-210.74074074074073,261.01733333333334L-201.85185185185185,260.666L-192.96296296296296,260.19533333333334L-184.07407407407408,256.89866666666666L-175.1851851851852,255.03466666666668L-166.2962962962963,253.61266666666668L-157.40740740740742,252.15800000000004L-148.51851851851853,250.96066666666667L-139.62962962962965,249.72666666666666L-130.74074074074073,247.47333333333336L-121.85185185185186,245.82000000000002L-112.96296296296298,244.67466666666667L-104.07407407407408,237.67866666666666L-95.18518518518519,234.82466666666667L-86.2962962962963,231.936L-77.40740740740742,230.19800000000004L-68.51851851851852,227.63666666666668L-59.62962962962963,223.44L-50.74074074074074,219.77533333333335L-41.851851851851855,218.44733333333335L-32.96296296296297,216.5306666666667L-24.074074074074076,215.08933333333334L-15.185185185185185,213.198L-6.296296296296297,200.614L2.592592592592593,199.752L11.481481481481483,195.34133333333335L20.370370370370374,192.38400000000004L29.25925925925926,189.376L38.148148148148145,186.18666666666667L47.037037037037045,164.03533333333337L55.92592592592593,157.32333333333332L64.81481481481482,149.74533333333332L73.70370370370371,146.56533333333334L82.5925925925926,141.88000000000002L91.4814814814815,140.13933333333335L100.37037037037038,140.06000000000003L109.25925925925927,136.64266666666668L118.14814814814815,134.00466666666665L127.03703703703704,124.97733333333335L135.92592592592592,122.554L144.8148148148148,111.51133333333335L153.7037037037037,113.14200000000001L162.5925925925926,104.38000000000001L171.4814814814815,102.39066666666668L180.37037037037038,99.502L189.2592592592593,87.74933333333334L198.14814814814818,85.15666666666668L207.03703703703707,77.88133333333333L215.92592592592595,73.73866666666667L224.81481481481484,70.45866666666667L233.70370370370372,67.72133333333335L242.5925925925926,33.24333333333334L251.4814814814815,25.84066666666667L260.3703703703704,22.176000000000005L269.2592592592593,13.895333333333328" stroke="#9d755d" stroke-width="2" opacity="1"></path></g></g><path class="foreground" aria-hidden="true" d="" display="none"></path></g><g transform="translate(0,0)"><path class="background" aria-hidden="true" d="M0,0h266.6666666666667v266.6666666666667h-266.6666666666667Z"></path><g><g class="mark-line role-mark marks" clip-path="url(#clip10)" role="graphics-object" aria-roledescription="line mark container"><path aria-label="Country: United Kingdom; Date: Mar 01, 2020; Confirmed: 36; Recovered: 8; Deaths: 0; : 8" role="graphics-symbol" aria-roledescription="line mark" d="M-485.9259259259259,266.66133333333335L-477.03703703703707,266.66133333333335L-468.14814814814815,266.66133333333335L-459.2592592592593,266.66133333333335L-450.3703703703704,266.66133333333335L-441.48148148148147,266.66133333333335L-432.5925925925926,266.6546666666667L-423.7037037037037,266.6546666666667L-415.1851851851852,266.6546666666667L-406.2962962962963,266.6546666666667L-397.40740740740745,266.6546666666667L-388.51851851851853,266.6546666666667L-379.6296296296297,266.6546666666667L-370.74074074074076,266.6546666666667L-361.8518518518519,266.6546666666667L-352.962962962963,266.65333333333336L-344.07407407407413,266.632L-335.1851851851852,266.6233333333334L-326.29629629629636,266.6233333333334L-317.40740740740745,266.6233333333334L-308.5185185185186,266.6233333333334L-299.6296296296297,266.6233333333334L-290.74074074074076,266.6233333333334L-281.8518518518519,266.5766666666667L-272.96296296296293,266.5766666666667L-264.0740740740741,266.5766666666667L-255.18518518518522,266.5766666666667L-246.29629629629633,266.5766666666667L-237.40740740740742,266.5766666666667L-228.51851851851853,266.5766666666667L-219.62962962962965,266.5766666666667L-210.74074074074073,266.5766666666667L-201.85185185185185,266.5766666666667L-192.96296296296296,266.5766666666667L-184.07407407407408,266.5766666666667L-175.1851851851852,266.5766666666667L-166.2962962962963,266.5766666666667L-157.40740740740742,266.5766666666667L-148.51851851851853,266.5766666666667L-139.62962962962965,266.5766666666667L-130.74074074074073,266.43733333333336L-121.85185185185186,266.43733333333336L-112.96296296296298,266.43733333333336L-104.07407407407408,266.6666666666667L-95.18518518518519,266.6666666666667L-86.2962962962963,266.6666666666667L-77.40740740740742,266.6666666666667L-68.51851851851852,266.6666666666667L-59.62962962962963,266.6666666666667L-50.74074074074074,266.6666666666667L-41.851851851851855,266.6666666666667L-32.96296296296297,266.6666666666667L-24.074074074074076,266.6666666666667L-15.185185185185185,266.6666666666667L-6.296296296296297,266.6666666666667L2.592592592592593,266.6666666666667L11.481481481481483,266.6666666666667L20.370370370370374,266.6666666666667L29.25925925925926,266.6666666666667L38.148148148148145,266.6666666666667L47.037037037037045,266.6666666666667L55.92592592592593,266.6666666666667L64.81481481481482,266.6666666666667L73.70370370370371,266.6666666666667L82.5925925925926,266.6666666666667L91.4814814814815,266.6666666666667L100.37037037037038,266.6666666666667L109.25925925925927,266.6666666666667L118.14814814814815,266.6666666666667L127.03703703703704,266.6666666666667L135.92592592592592,266.6666666666667L144.8148148148148,266.6666666666667L153.7037037037037,266.6666666666667L162.5925925925926,266.6666666666667L171.4814814814815,266.6666666666667L180.37037037037038,266.6666666666667L189.2592592592593,266.6666666666667L198.14814814814818,266.6666666666667L207.03703703703707,266.6666666666667L215.92592592592595,266.6666666666667L224.81481481481484,266.6666666666667L233.70370370370372,266.6666666666667L242.5925925925926,266.6666666666667L251.4814814814815,266.6666666666667L260.3703703703704,266.6666666666667L269.2592592592593,266.6666666666667" stroke="#bab0ac" stroke-width="2" opacity="1"></path></g></g><path class="foreground" aria-hidden="true" d="" display="none"></path></g></g><g class="mark-group role-legend" role="graphics-symbol" aria-roledescription="legend" aria-label="Symbol legend for stroke color with 10 values: Belgium, Brazil, France, Germany, Iran, ending with United Kingdom"><g transform="translate(285,0)"><path class="background" aria-hidden="true" d="M0,0h79v128h-79Z" pointer-events="none"></path><g><g class="mark-group role-legend-entry"><g transform="translate(0,0)"><path class="background" aria-hidden="true" d="M0,0h0v0h0Z" pointer-events="none"></path><g><g class="mark-group role-scope Country_legend_entries" role="graphics-object" aria-roledescription="group mark container"><g transform="translate(0,0)"><path class="background" aria-hidden="true" d="M0,0h79v11h-79Z" opacity="1"></path><g><g class="mark-symbol role-legend-symbol Country_legend_symbols"><path transform="translate(6,6)" d="M-5,0L5,0" stroke="#4c78a8" stroke-width="1.5" opacity="1"></path></g><g class="mark-text role-legend-label Country_legend_labels"><text text-anchor="start" transform="translate(16,9)" font-family="Roboto Condensed" font-size="10px" fill="#000" opacity="1">Belgium</text></g></g><path class="foreground" aria-hidden="true" d="" display="none"></path></g><g transform="translate(0,13)"><path class="background" aria-hidden="true" d="M0,0h79v11h-79Z" opacity="1"></path><g><g class="mark-symbol role-legend-symbol Country_legend_symbols"><path transform="translate(6,6)" d="M-5,0L5,0" stroke="#f58518" stroke-width="1.5" opacity="1"></path></g><g class="mark-text role-legend-label Country_legend_labels"><text text-anchor="start" transform="translate(16,9)" font-family="Roboto Condensed" font-size="10px" fill="#000" opacity="1">Brazil</text></g></g><path class="foreground" aria-hidden="true" d="" display="none"></path></g><g transform="translate(0,26)"><path class="background" aria-hidden="true" d="M0,0h79v11h-79Z" opacity="1"></path><g><g class="mark-symbol role-legend-symbol Country_legend_symbols"><path transform="translate(6,6)" d="M-5,0L5,0" stroke="#e45756" stroke-width="1.5" opacity="1"></path></g><g class="mark-text role-legend-label Country_legend_labels"><text text-anchor="start" transform="translate(16,9)" font-family="Roboto Condensed" font-size="10px" fill="#000" opacity="1">France</text></g></g><path class="foreground" aria-hidden="true" d="" display="none"></path></g><g transform="translate(0,39)"><path class="background" aria-hidden="true" d="M0,0h79v11h-79Z" opacity="1"></path><g><g class="mark-symbol role-legend-symbol Country_legend_symbols"><path transform="translate(6,6)" d="M-5,0L5,0" stroke="#72b7b2" stroke-width="1.5" opacity="1"></path></g><g class="mark-text role-legend-label Country_legend_labels"><text text-anchor="start" transform="translate(16,9)" font-family="Roboto Condensed" font-size="10px" fill="#000" opacity="1">Germany</text></g></g><path class="foreground" aria-hidden="true" d="" display="none"></path></g><g transform="translate(0,52)"><path class="background" aria-hidden="true" d="M0,0h79v11h-79Z" opacity="1"></path><g><g class="mark-symbol role-legend-symbol Country_legend_symbols"><path transform="translate(6,6)" d="M-5,0L5,0" stroke="#54a24b" stroke-width="1.5" opacity="1"></path></g><g class="mark-text role-legend-label Country_legend_labels"><text text-anchor="start" transform="translate(16,9)" font-family="Roboto Condensed" font-size="10px" fill="#000" opacity="1">Iran</text></g></g><path class="foreground" aria-hidden="true" d="" display="none"></path></g><g transform="translate(0,65)"><path class="background" aria-hidden="true" d="M0,0h79v11h-79Z" opacity="1"></path><g><g class="mark-symbol role-legend-symbol Country_legend_symbols"><path transform="translate(6,6)" d="M-5,0L5,0" stroke="#eeca3b" stroke-width="1.5" opacity="1"></path></g><g class="mark-text role-legend-label Country_legend_labels"><text text-anchor="start" transform="translate(16,9)" font-family="Roboto Condensed" font-size="10px" fill="#000" opacity="1">Italy</text></g></g><path class="foreground" aria-hidden="true" d="" display="none"></path></g><g transform="translate(0,78)"><path class="background" aria-hidden="true" d="M0,0h79v11h-79Z" opacity="1"></path><g><g class="mark-symbol role-legend-symbol Country_legend_symbols"><path transform="translate(6,6)" d="M-5,0L5,0" stroke="#b279a2" stroke-width="1.5" opacity="1"></path></g><g class="mark-text role-legend-label Country_legend_labels"><text text-anchor="start" transform="translate(16,9)" font-family="Roboto Condensed" font-size="10px" fill="#000" opacity="1">Mexico</text></g></g><path class="foreground" aria-hidden="true" d="" display="none"></path></g><g transform="translate(0,91)"><path class="background" aria-hidden="true" d="M0,0h79v11h-79Z" opacity="1"></path><g><g class="mark-symbol role-legend-symbol Country_legend_symbols"><path transform="translate(6,6)" d="M-5,0L5,0" stroke="#ff9da6" stroke-width="1.5" opacity="1"></path></g><g class="mark-text role-legend-label Country_legend_labels"><text text-anchor="start" transform="translate(16,9)" font-family="Roboto Condensed" font-size="10px" fill="#000" opacity="1">Spain</text></g></g><path class="foreground" aria-hidden="true" d="" display="none"></path></g><g transform="translate(0,104)"><path class="background" aria-hidden="true" d="M0,0h79v11h-79Z" opacity="1"></path><g><g class="mark-symbol role-legend-symbol Country_legend_symbols"><path transform="translate(6,6)" d="M-5,0L5,0" stroke="#9d755d" stroke-width="1.5" opacity="1"></path></g><g class="mark-text role-legend-label Country_legend_labels"><text text-anchor="start" transform="translate(16,9)" font-family="Roboto Condensed" font-size="10px" fill="#000" opacity="1">US</text></g></g><path class="foreground" aria-hidden="true" d="" display="none"></path></g><g transform="translate(0,117)"><path class="background" aria-hidden="true" d="M0,0h79v11h-79Z" opacity="1"></path><g><g class="mark-symbol role-legend-symbol Country_legend_symbols"><path transform="translate(6,6)" d="M-5,0L5,0" stroke="#bab0ac" stroke-width="1.5" opacity="1"></path></g><g class="mark-text role-legend-label Country_legend_labels"><text text-anchor="start" transform="translate(16,9)" font-family="Roboto Condensed" font-size="10px" fill="#000" opacity="1">United Kingdom</text></g></g><path class="foreground" aria-hidden="true" d="" display="none"></path></g></g></g><path class="foreground" aria-hidden="true" d="" pointer-events="none" display="none"></path></g></g></g><path class="foreground" aria-hidden="true" d="" pointer-events="none" display="none"></path></g></g><g class="mark-group role-title"><g transform="translate(133.33333333333334,-22)"><path class="background" aria-hidden="true" d="M0,0h0v0h0Z" pointer-events="none"></path><g><g class="mark-text role-title-text" role="graphics-symbol" aria-roledescription="title" aria-label="Title text 'Recovered (total)'" pointer-events="none"><text text-anchor="middle" transform="translate(0,10)" font-family="Roboto Condensed" font-size="13px" font-weight="normal" fill="#000" opacity="1">Recovered (total)</text></g></g><path class="foreground" aria-hidden="true" d="" pointer-events="none" display="none"></path></g></g></g><path class="foreground" aria-hidden="true" d="" display="none"></path></g></g></g></svg>