<svg class="marks" width="996" height="491" viewBox="0 0 996 491" version="1.1" xmlns="http://www.w3.org/2000/svg" xmlns:xlink="http://www.w3.org/1999/xlink"><defs><clipPath id="clip1"><rect x="0" y="0" width="400" height="400"></rect></clipPath><clipPath id="clip2"><rect x="0" y="0" width="400" height="400"></rect></clipPath><clipPath id="clip3"><rect x="0" y="0" width="400" height="400"></rect></clipPath><clipPath id="clip4"><rect x="0" y="0" width="400" height="400"></rect></clipPath><clipPath id="clip5"><rect x="0" y="0" width="400" height="400"></rect></clipPath><clipPath id="clip6"><rect x="0" y="0" width="400" height="400"></rect></clipPath><clipPath id="clip7"><rect x="0" y="0" width="400" height="400"></rect></clipPath><clipPath id="clip8"><rect x="0" y="0" width="400" height="400"></rect></clipPath><clipPath id="clip9"><rect x="0" y="0" width="400" height="400"></rect></clipPath></defs><rect width="996" height="491" fill="white"></rect><g fill="none" stroke-miterlimit="10" transform="translate(50,59)"><g class="mark-group role-frame root" role="graphics-object" aria-roledescription="group mark container"><g transform="translate(0,0)"><path class="background" aria-hidden="true" d="M0,0h0v400h0Z"></path><g><g class="mark-group role-scope concat_0_group" role="graphics-object" aria-roledescription="group mark container"><g transform="translate(0,0)"><path class="background" aria-hidden="true" d="M0,0h400v400h-400Z" stroke="#ddd" stroke-width="0"></path><g><g class="mark-group role-axis" aria-hidden="true"><g transform="translate(0.5,0.5)"><path class="background" aria-hidden="true" d="M0,0h0v0h0Z" pointer-events="none"></path><g><g class="mark-rule role-axis-grid" pointer-events="none"><line transform="translate(0,400)" x2="400" y2="0" stroke="#ddd" stroke-width="1" opacity="1"></line><line transform="translate(0,360)" x2="400" y2="0" stroke="#ddd" stroke-width="1" opacity="1"></line><line transform="translate(0,320)" x2="400" y2="0" stroke="#ddd" stroke-width="1" opacity="1"></line><line transform="translate(0,280)" x2="400" y2="0" stroke="#ddd" stroke-width="1" opacity="1"></line><line transform="translate(0,240)" x2="400" y2="0" stroke="#ddd" stroke-width="1" opacity="1"></line><line transform="translate(0,200)" x2="400" y2="0" stroke="#ddd" stroke-width="1" opacity="1"></line><line transform="translate(0,160)" x2="400" y2="0" stroke="#ddd" stroke-width="1" opacity="1"></line><line transform="translate(0,120)" x2="400" y2="0" stroke="#ddd" stroke-width="1" opacity="1"></line><line transform="translate(0,80)" x2="400" y2="0" stroke="#ddd" stroke-width="1" opacity="1"></line><line transform="translate(0,40)" x2="400" y2="0" stroke="#ddd" stroke-width="1" opacity="1"></line><line transform="translate(0,0)" x2="400" y2="0" stroke="#ddd" stroke-width="1" opacity="1"></line></g></g><path class="foreground" aria-hidden="true" d="" pointer-events="none" display="none"></path></g></g><g class="mark-group role-axis" role="graphics-symbol" aria-roledescription="axis" aria-label="X-axis titled 'Date' for a time scale with values from June 28 to July 13"><g transform="translate(0.5,400.5)"><path class="background" aria-hidden="true" d="M0,0h0v0h0Z" pointer-events="none"></path><g><g class="mark-text role-axis-label" pointer-events="none"><text text-anchor="middle" transform="translate(7.777777777777778,10)" font-family="Roboto Condensed" font-size="10px" fill="#000" opacity="1">Jun 29</text><text text-anchor="middle" transform="translate(61.111111111111114,10)" font-family="Roboto Condensed" font-size="10px" fill="#000" opacity="1">Jul 01</text><text text-anchor="middle" transform="translate(114.44444444444444,10)" font-family="Roboto Condensed" font-size="10px" fill="#000" opacity="1">Jul 03</text><text text-anchor="middle" transform="translate(167.77777777777777,10)" font-family="Roboto Condensed" font-size="10px" fill="#000" opacity="1">Jul 05</text><text text-anchor="middle" transform="translate(221.11111111111111,10)" font-family="Roboto Condensed" font-size="10px" fill="#000" opacity="1">Jul 07</text><text text-anchor="middle" transform="translate(274.44444444444446,10)" font-family="Roboto Condensed" font-size="10px" fill="#000" opacity="1">Jul 09</text><text text-anchor="middle" transform="translate(327.77777777777777,10)" font-family="Roboto Condensed" font-size="10px" fill="#000" opacity="1">Jul 11</text><text text-anchor="middle" transform="translate(381.1111111111111,10)" font-family="Roboto Condensed" font-size="10px" fill="#000" opacity="1">Jul 13</text></g><g class="mark-rule role-axis-domain" pointer-events="none"><line transform="translate(0,0)" x2="400" y2="0" stroke="lightgray" stroke-width="1" opacity="1"></line></g><g class="mark-text role-axis-title" pointer-events="none"><text text-anchor="middle" transform="translate(200,25)" font-family="Roboto Condensed" font-size="11px" font-weight="normal" fill="#000" opacity="1">Date</text></g></g><path class="foreground" aria-hidden="true" d="" pointer-events="none" display="none"></path></g></g><g class="mark-group role-axis" role="graphics-symbol" aria-roledescription="axis" aria-label="Y-axis titled 'Count' for a linear scale with values from -100 to 900"><g transform="translate(0.5,0.5)"><path class="background" aria-hidden="true" d="M0,0h0v0h0Z" pointer-events="none"></path><g><g class="mark-text role-axis-label" pointer-events="none"><text text-anchor="end" transform="translate(-2,403)" font-family="Roboto Condensed" font-size="10px" fill="#000" opacity="1">-100</text><text text-anchor="end" transform="translate(-2,363)" font-family="Roboto Condensed" font-size="10px" fill="#000" opacity="1">0</text><text text-anchor="end" transform="translate(-2,323)" font-family="Roboto Condensed" font-size="10px" fill="#000" opacity="1">100</text><text text-anchor="end" transform="translate(-2,283)" font-family="Roboto Condensed" font-size="10px" fill="#000" opacity="1">200</text><text text-anchor="end" transform="translate(-2,243)" font-family="Roboto Condensed" font-size="10px" fill="#000" opacity="1">300</text><text text-anchor="end" transform="translate(-2,203)" font-family="Roboto Condensed" font-size="10px" fill="#000" opacity="1">400</text><text text-anchor="end" transform="translate(-2,163)" font-family="Roboto Condensed" font-size="10px" fill="#000" opacity="1">500</text><text text-anchor="end" transform="translate(-2,123.00000000000001)" font-family="Roboto Condensed" font-size="10px" fill="#000" opacity="1">600</text><text text-anchor="end" transform="translate(-2,82.99999999999999)" font-family="Roboto Condensed" font-size="10px" fill="#000" opacity="1">700</text><text text-anchor="end" transform="translate(-2,42.99999999999999)" font-family="Roboto Condensed" font-size="10px" fill="#000" opacity="1">800</text><text text-anchor="end" transform="translate(-2,3)" font-family="Roboto Condensed" font-size="10px" fill="#000" opacity="1">900</text></g><g class="mark-rule role-axis-domain" pointer-events="none"><line transform="translate(0,400)" x2="0" y2="-400" stroke="lightgray" stroke-width="1" opacity="1"></line></g><g class="mark-text role-axis-title" pointer-events="none"><text text-anchor="start" transform="translate(-45,-13)" font-family="Roboto Condensed" font-size="11px" font-weight="normal" fill="#000" opacity="1">Count</text></g></g><path class="foreground" aria-hidden="true" d="" pointer-events="none" display="none"></path></g></g><g class="mark-group role-scope concat_0_layer_0_pathgroup" role="graphics-object" aria-roledescription="group mark container"><g transform="translate(0,0)"><path class="background" aria-hidden="true" d="M0,0h400v400h-400Z"></path><g><g class="mark-line role-mark concat_0_layer_0_marks" clip-path="url(#clip1)" role="graphics-object" aria-roledescription="line mark container"><path aria-label="Type: Recovered; Date: Mar 01; Count: 0" role="graphics-symbol" aria-roledescription="line mark" d="M-3191.1111111111113,360L-3164.4444444444443,360L-3137.777777777778,360L-3111.111111111111,360L-3084.4444444444443,360L-3057.777777777778,359.6L-3031.111111111111,360L-3004.4444444444443,360L-2978.8888888888887,360L-2952.222222222222,360L-2925.5555555555557,360L-2898.8888888888887,360L-2872.222222222222,360L-2845.5555555555557,360L-2818.888888888889,360L-2792.222222222222,360L-2765.5555555555557,360L-2738.888888888889,360L-2712.222222222222,360L-2685.5555555555557,360L-2658.8888888888887,360L-2632.222222222222,360L-2605.5555555555557,360L-2578.8888888888887,360L-2552.222222222222,360L-2525.5555555555557,360L-2498.8888888888887,360L-2472.222222222222,360L-2445.5555555555557,360L-2418.888888888889,360L-2392.222222222222,360L-2365.5555555555557,2.8000000000000025L-2338.888888888889,282L-2312.222222222222,318.40000000000003L-2285.5555555555557,324L-2258.8888888888887,342.4L-2232.222222222222,339.59999999999997L-2205.5555555555557,314.8L-2178.8888888888887,308L-2152.222222222222,314L-2125.5555555555557,345.2L-2098.8888888888887,287.2L-2072.222222222222,292.8L-2045.5555555555557,315.2L-2018.888888888889,248L-1992.2222222222222,266.8L-1965.5555555555554,250L-1938.888888888889,213.60000000000002L-1912.2222222222224,176.79999999999998L-1885.5555555555554,242.4L-1858.888888888889,291.59999999999997L-1832.2222222222222,204.8L-1805.5555555555557,205.20000000000002L-1778.8888888888887,241.2L-1752.2222222222222,303.2L-1725.5555555555557,302.8L-1698.8888888888887,305.6L-1672.2222222222222,298.4L-1645.5555555555557,295.2L-1618.888888888889,262L-1592.2222222222222,288L-1565.5555555555554,286.8L-1538.888888888889,296L-1512.2222222222222,320.8L-1485.5555555555557,319.59999999999997L-1458.888888888889,276.79999999999995L-1432.2222222222222,281.20000000000005L-1405.5555555555554,272.79999999999995L-1378.888888888889,273.59999999999997L-1352.2222222222222,293.6L-1325.5555555555557,310.40000000000003L-1298.888888888889,315.6L-1272.2222222222222,259.2L-1245.5555555555557,326.79999999999995L-1218.888888888889,303.2L-1192.2222222222222,298.4L-1165.5555555555554,300.8L-1138.888888888889,312L-1112.2222222222222,330.40000000000003L-1085.5555555555557,314L-1058.888888888889,312L-1032.2222222222222,317.2L-1005.5555555555555,311.6L-978.8888888888889,331.20000000000005L-952.2222222222222,334.4L-925.5555555555557,334.4L-898.8888888888889,328L-872.2222222222222,335.2L-845.5555555555555,330.40000000000003L-818.8888888888888,336L-792.2222222222223,325.2L-765.5555555555555,346L-738.8888888888889,340L-712.2222222222222,329.2L-685.5555555555555,334.8L-658.8888888888889,332.8L-632.2222222222222,346.8L-605.5555555555555,332.8L-578.8888888888889,346.4L-552.2222222222222,345.2L-525.5555555555555,337.2L-498.8888888888889,338L-472.22222222222223,339.59999999999997L-445.55555555555554,344.8L-418.8888888888889,343.2L-392.22222222222223,346.8L-365.55555555555554,351.2L-338.88888888888886,346L-312.22222222222223,336L-285.55555555555554,337.2L-258.8888888888889,344L-232.22222222222223,360L-205.55555555555554,360L-178.88888888888889,334L-152.22222222222223,341.59999999999997L-125.55555555555556,348.4L-98.88888888888889,344.8L-72.22222222222221,340.8L-45.55555555555556,360L-18.88888888888889,360L7.777777777777778,318.40000000000003L34.44444444444444,345.2L61.111111111111114,342.4L87.77777777777777,329.6L114.44444444444444,340.8L141.11111111111111,360L167.77777777777777,360L194.44444444444443,312.8L221.11111111111111,340.8L247.77777777777777,352.8L274.44444444444446,342.4L301.1111111111111,347.2L327.77777777777777,360L354.44444444444446,360L381.1111111111111,338.8L407.77777777777777,348" stroke="#e45756" stroke-width="2" opacity="0.2"></path></g></g><path class="foreground" aria-hidden="true" d="" display="none"></path></g><g transform="translate(0,0)"><path class="background" aria-hidden="true" d="M0,0h400v400h-400Z"></path><g><g class="mark-line role-mark concat_0_layer_0_marks" clip-path="url(#clip2)" role="graphics-object" aria-roledescription="line mark container"><path aria-label="Type: Deaths; Date: Mar 01; Count: 0" role="graphics-symbol" aria-roledescription="line mark" d="M-3191.1111111111113,360L-3164.4444444444443,360L-3137.777777777778,360L-3111.111111111111,360L-3084.4444444444443,360L-3057.777777777778,360L-3031.111111111111,360L-3004.4444444444443,360L-2978.8888888888887,360L-2952.222222222222,360L-2925.5555555555557,360L-2898.8888888888887,360L-2872.222222222222,360L-2845.5555555555557,359.6L-2818.888888888889,359.6L-2792.222222222222,359.6L-2765.5555555555557,359.6L-2738.888888888889,360L-2712.222222222222,359.2L-2685.5555555555557,358.8L-2658.8888888888887,358.40000000000003L-2632.222222222222,360L-2605.5555555555557,355.6L-2578.8888888888887,356.8L-2552.222222222222,359.2L-2525.5555555555557,357.2L-2498.8888888888887,355.6L-2472.222222222222,354.8L-2445.5555555555557,357.2L-2418.888888888889,358L-2392.222222222222,354.8L-2365.5555555555557,354.4L-2338.888888888889,352.4L-2312.222222222222,353.6L-2285.5555555555557,351.2L-2258.8888888888887,352.8L-2232.222222222222,356.8L-2205.5555555555557,353.6L-2178.8888888888887,354L-2152.222222222222,352.4L-2125.5555555555557,356L-2098.8888888888887,354.8L-2072.222222222222,354.8L-2045.5555555555557,355.2L-2018.888888888889,354.4L-1992.2222222222222,356L-1965.5555555555554,355.2L-1938.888888888889,354L-1912.2222222222224,356L-1885.5555555555554,356.4L-1858.888888888889,356.4L-1832.2222222222222,357.6L-1805.5555555555557,354.4L-1778.8888888888887,356L-1752.2222222222222,356.4L-1725.5555555555557,354L-1698.8888888888887,358.40000000000003L-1672.2222222222222,358L-1645.5555555555557,357.2L-1618.888888888889,356.4L-1592.2222222222222,356.4L-1565.5555555555554,356.8L-1538.888888888889,354L-1512.2222222222222,356.4L-1485.5555555555557,356.4L-1458.888888888889,356L-1432.2222222222222,358.8L-1405.5555555555554,356.8L-1378.888888888889,356.8L-1352.2222222222222,358.40000000000003L-1325.5555555555557,358.8L-1298.888888888889,358.40000000000003L-1272.2222222222222,362.40000000000003L-1245.5555555555557,357.6L-1218.888888888889,358.40000000000003L-1192.2222222222222,360L-1165.5555555555554,357.6L-1138.888888888889,358.40000000000003L-1112.2222222222222,359.6L-1085.5555555555557,358.8L-1058.888888888889,358.8L-1032.2222222222222,357.2L-1005.5555555555555,360L-978.8888888888889,360L-952.2222222222222,359.6L-925.5555555555557,359.6L-898.8888888888889,360L-872.2222222222222,359.2L-845.5555555555555,358.8L-818.8888888888888,360L-792.2222222222223,358.8L-765.5555555555555,358.8L-738.8888888888889,359.2L-712.2222222222222,358.40000000000003L-685.5555555555555,360L-658.8888888888889,359.2L-632.2222222222222,358.40000000000003L-605.5555555555555,359.6L-578.8888888888889,359.2L-552.2222222222222,358.40000000000003L-525.5555555555555,360L-498.8888888888889,360L-472.22222222222223,360L-445.55555555555554,359.6L-418.8888888888889,358.8L-392.22222222222223,360L-365.55555555555554,359.6L-338.88888888888886,360L-312.22222222222223,360L-285.55555555555554,359.2L-258.8888888888889,360L-232.22222222222223,360L-205.55555555555554,360L-178.88888888888889,359.2L-152.22222222222223,359.6L-125.55555555555556,360L-98.88888888888889,360L-72.22222222222221,359.6L-45.55555555555556,360L-18.88888888888889,360L7.777777777777778,359.6L34.44444444444444,360L61.111111111111114,359.6L87.77777777777777,360L114.44444444444444,360L141.11111111111111,360L167.77777777777777,360L194.44444444444443,359.6L221.11111111111111,359.2L247.77777777777777,360L274.44444444444446,360L301.1111111111111,360L327.77777777777777,360L354.44444444444446,360L381.1111111111111,359.6L407.77777777777777,360" stroke="#f58518" stroke-width="2" opacity="0.2"></path></g></g><path class="foreground" aria-hidden="true" d="" display="none"></path></g><g transform="translate(0,0)"><path class="background" aria-hidden="true" d="M0,0h400v400h-400Z"></path><g><g class="mark-line role-mark concat_0_layer_0_marks" clip-path="url(#clip3)" role="graphics-object" aria-roledescription="line mark container"><path aria-label="Type: Confirmed; Date: Mar 01; Count: 1" role="graphics-symbol" aria-roledescription="line mark" d="M-3191.1111111111113,359.6L-3164.4444444444443,360L-3137.777777777778,359.2L-3111.111111111111,358.40000000000003L-3084.4444444444443,360L-3057.777777777778,354.8L-3031.111111111111,360L-3004.4444444444443,355.2L-2978.8888888888887,338L-2952.222222222222,291.2L-2925.5555555555557,288L-2898.8888888888887,290.8L-2872.222222222222,285.59999999999997L-2845.5555555555557,349.6L-2818.888888888889,345.2L-2792.222222222222,340L-2765.5555555555557,334.8L-2738.888888888889,328L-2712.222222222222,322.40000000000003L-2685.5555555555557,318.40000000000003L-2658.8888888888887,331.59999999999997L-2632.222222222222,332.4L-2605.5555555555557,338L-2578.8888888888887,303.6L-2552.222222222222,306.8L-2525.5555555555557,298.8L-2498.8888888888887,292.4L-2472.222222222222,298L-2445.5555555555557,282.4L-2418.888888888889,287.2L-2392.222222222222,246.8L-2365.5555555555557,261.2L-2338.888888888889,248.4L-2312.222222222222,211.60000000000002L-2285.5555555555557,232.00000000000003L-2258.8888888888887,243.2L-2232.222222222222,235.20000000000005L-2205.5555555555557,204L-2178.8888888888887,227.59999999999997L-2152.222222222222,266.8L-2125.5555555555557,286.4L-2098.8888888888887,289.2L-2072.222222222222,288.8L-2045.5555555555557,302.4L-2018.888888888889,282.8L-1992.2222222222222,292L-1965.5555555555554,280.79999999999995L-1938.888888888889,282.4L-1912.2222222222224,292.4L-1885.5555555555554,303.2L-1858.888888888889,307.6L-1832.2222222222222,288L-1805.5555555555557,273.20000000000005L-1778.8888888888887,295.6L-1752.2222222222222,305.2L-1725.5555555555557,266L-1698.8888888888887,308L-1672.2222222222222,310.8L-1645.5555555555557,298.8L-1618.888888888889,297.2L-1592.2222222222222,300L-1565.5555555555554,298.8L-1538.888888888889,321.6L-1512.2222222222222,313.6L-1485.5555555555557,301.2L-1458.888888888889,299.6L-1432.2222222222222,313.2L-1405.5555555555554,302L-1378.888888888889,306L-1352.2222222222222,319.59999999999997L-1325.5555555555557,316L-1298.888888888889,326.40000000000003L-1272.2222222222222,328.8L-1245.5555555555557,329.6L-1218.888888888889,341.59999999999997L-1192.2222222222222,328.8L-1165.5555555555554,333.2L-1138.888888888889,332.4L-1112.2222222222222,343.6L-1085.5555555555557,329.6L-1058.888888888889,330.79999999999995L-1032.2222222222222,334L-1005.5555555555555,340.8L-978.8888888888889,336.4L-952.2222222222222,331.59999999999997L-925.5555555555557,349.2L-898.8888888888889,343.6L-872.2222222222222,339.2L-845.5555555555555,347.2L-818.8888888888888,327.59999999999997L-792.2222222222223,344L-765.5555555555555,345.6L-738.8888888888889,348L-712.2222222222222,346L-685.5555555555555,345.2L-658.8888888888889,344L-632.2222222222222,334.4L-605.5555555555555,340.4L-578.8888888888889,350.4L-552.2222222222222,354.4L-525.5555555555555,344.4L-498.8888888888889,354L-472.22222222222223,352.4L-445.55555555555554,334.4L-418.8888888888889,344L-392.22222222222223,338.4L-365.55555555555554,350.4L-338.88888888888886,346.8L-312.22222222222223,342.4L-285.55555555555554,340L-258.8888888888889,341.2L-232.22222222222223,360L-205.55555555555554,360L-178.88888888888889,305.6L-152.22222222222223,346.4L-125.55555555555556,338.4L-98.88888888888889,351.6L-72.22222222222221,344.4L-45.55555555555556,360L-18.88888888888889,360L7.777777777777778,329.6L34.44444444444444,353.2L61.111111111111114,349.6L87.77777777777777,351.6L114.44444444444444,353.2L141.11111111111111,360L167.77777777777777,360L194.44444444444443,341.59999999999997L221.11111111111111,356L247.77777777777777,355.2L274.44444444444446,353.6L301.1111111111111,348L327.77777777777777,360L354.44444444444446,360L381.1111111111111,323.59999999999997L407.77777777777777,350.4" stroke="#4c78a8" stroke-width="2" opacity="0.2"></path></g></g><path class="foreground" aria-hidden="true" d="" display="none"></path></g></g><g class="mark-group role-scope concat_0_layer_1_pathgroup" role="graphics-object" aria-roledescription="group mark container"><g transform="translate(0,0)"><path class="background" aria-hidden="true" d="M0,0h400v400h-400Z"></path><g><g class="mark-line role-mark concat_0_layer_1_marks" clip-path="url(#clip4)" role="graphics-object" aria-roledescription="line mark container"><path aria-label="Type: Recovered; Date: Mar 01; Count: 0" role="graphics-symbol" aria-roledescription="line mark" d="M-3031.111111111111,359.9428571428572L-3004.4444444444443,359.9428571428572L-2978.8888888888887,359.9428571428572L-2952.222222222222,359.9428571428572L-2925.5555555555557,359.9428571428572L-2898.8888888888887,359.9428571428572L-2872.222222222222,360L-2845.5555555555557,360L-2818.888888888889,360L-2792.222222222222,360L-2765.5555555555557,360L-2738.888888888889,360L-2712.222222222222,360L-2685.5555555555557,360L-2658.8888888888887,360L-2632.222222222222,360L-2605.5555555555557,360L-2578.8888888888887,360L-2552.222222222222,360L-2525.5555555555557,360L-2498.8888888888887,360L-2472.222222222222,360L-2445.5555555555557,360L-2418.888888888889,360L-2392.222222222222,360L-2365.5555555555557,308.9714285714286L-2338.888888888889,297.8285714285715L-2312.222222222222,291.8857142857143L-2285.5555555555557,286.74285714285713L-2258.8888888888887,284.22857142857146L-2232.222222222222,281.3142857142857L-2205.5555555555557,274.85714285714283L-2178.8888888888887,318.45714285714286L-2152.222222222222,323.02857142857147L-2125.5555555555557,326.8571428571429L-2098.8888888888887,321.6L-2072.222222222222,314.5142857142857L-2045.5555555555557,311.0285714285714L-2018.888888888889,301.4857142857143L-1992.2222222222222,295.6L-1965.5555555555554,286.45714285714286L-1938.888888888889,267.65714285714284L-1912.2222222222224,251.88571428571427L-1885.5555555555554,244.68571428571425L-1858.888888888889,241.3142857142857L-1832.2222222222222,235.14285714285714L-1805.5555555555557,226.34285714285713L-1778.8888888888887,225.0857142857143L-1752.2222222222222,237.8857142857143L-1725.5555555555557,255.88571428571427L-1698.8888888888887,264.9142857142857L-1672.2222222222222,265.8857142857143L-1645.5555555555557,278.8L-1618.888888888889,286.9142857142857L-1592.2222222222222,293.6L-1565.5555555555554,291.2571428571428L-1538.888888888889,290.2857142857143L-1512.2222222222222,292.45714285714286L-1485.5555555555557,295.48571428571427L-1458.888888888889,292.85714285714283L-1432.2222222222222,295.6L-1405.5555555555554,293.42857142857144L-1378.888888888889,291.54285714285714L-1352.2222222222222,291.2L-1325.5555555555557,289.71428571428567L-1298.888888888889,289.14285714285717L-1272.2222222222222,286.62857142857143L-1245.5555555555557,293.14285714285717L-1218.888888888889,297.4857142857143L-1192.2222222222222,301.0285714285714L-1165.5555555555554,302.0571428571428L-1138.888888888889,302.28571428571433L-1112.2222222222222,304.4L-1085.5555555555557,312.22857142857146L-1058.888888888889,310.1142857142857L-1032.2222222222222,312.1142857142857L-1005.5555555555555,314L-978.8888888888889,318.34285714285716L-952.2222222222222,321.54285714285714L-925.5555555555557,322.1142857142857L-898.8888888888889,324.1142857142857L-872.2222222222222,327.4285714285714L-845.5555555555555,329.3142857142857L-818.8888888888888,332.8L-792.2222222222223,331.9428571428571L-765.5555555555555,333.59999999999997L-738.8888888888889,334.4L-712.2222222222222,334.57142857142856L-685.5555555555555,334.51428571428573L-658.8888888888889,334.8571428571429L-632.2222222222222,336.4L-605.5555555555555,337.4857142857143L-578.8888888888889,337.54285714285714L-552.2222222222222,338.2857142857143L-525.5555555555555,339.4285714285714L-498.8888888888889,339.8857142857143L-472.22222222222223,340.85714285714283L-445.55555555555554,340.57142857142856L-418.8888888888889,342.0571428571429L-392.22222222222223,342.1142857142857L-365.55555555555554,342.9714285714286L-338.88888888888886,344.2285714285714L-312.22222222222223,343.9428571428572L-285.55555555555554,343.6L-258.8888888888889,343.4857142857143L-232.22222222222223,345.8857142857143L-205.55555555555554,347.7714285714286L-178.88888888888889,345.3142857142857L-152.22222222222223,344.68571428571425L-125.55555555555556,346.45714285714286L-98.88888888888889,347.54285714285714L-72.22222222222221,347.0857142857143L-45.55555555555556,347.0857142857143L-18.88888888888889,347.0857142857143L7.777777777777778,344.85714285714283L34.44444444444444,345.37142857142857L61.111111111111114,344.5142857142857L87.77777777777777,342.34285714285716L114.44444444444444,342.34285714285716L141.11111111111111,342.34285714285716L167.77777777777777,342.34285714285716L194.44444444444443,341.54285714285714L221.11111111111111,340.9142857142857L247.77777777777777,342.4L274.44444444444446,344.2285714285714L301.1111111111111,345.14285714285717L327.77777777777777,345.14285714285717L354.44444444444446,345.14285714285717L381.1111111111111,348.85714285714283L407.77777777777777,349.8857142857143" stroke="#e45756" stroke-width="2" opacity="1"></path></g></g><path class="foreground" aria-hidden="true" d="" display="none"></path></g><g transform="translate(0,0)"><path class="background" aria-hidden="true" d="M0,0h400v400h-400Z"></path><g><g class="mark-line role-mark concat_0_layer_1_marks" clip-path="url(#clip5)" role="graphics-object" aria-roledescription="line mark container"><path aria-label="Type: Deaths; Date: Mar 01; Count: 0" role="graphics-symbol" aria-roledescription="line mark" d="M-3031.111111111111,360L-3004.4444444444443,360L-2978.8888888888887,360L-2952.222222222222,360L-2925.5555555555557,360L-2898.8888888888887,360L-2872.222222222222,360L-2845.5555555555557,359.9428571428572L-2818.888888888889,359.8857142857143L-2792.222222222222,359.8285714285714L-2765.5555555555557,359.7714285714286L-2738.888888888889,359.7714285714286L-2712.222222222222,359.65714285714284L-2685.5555555555557,359.48571428571427L-2658.8888888888887,359.31428571428575L-2632.222222222222,359.37142857142857L-2605.5555555555557,358.8L-2578.8888888888887,358.40000000000003L-2552.222222222222,358.2857142857143L-2525.5555555555557,358L-2498.8888888888887,357.54285714285714L-2472.222222222222,357.0285714285714L-2445.5555555555557,356.62857142857143L-2418.888888888889,356.9714285714286L-2392.222222222222,356.68571428571425L-2365.5555555555557,356L-2338.888888888889,355.31428571428575L-2312.222222222222,355.0285714285714L-2285.5555555555557,354.51428571428573L-2258.8888888888887,353.88571428571424L-2232.222222222222,353.7142857142857L-2205.5555555555557,353.54285714285714L-2178.8888888888887,353.48571428571427L-2152.222222222222,353.48571428571427L-2125.5555555555557,353.8285714285714L-2098.8888888888887,354.34285714285716L-2072.222222222222,354.62857142857143L-2045.5555555555557,354.4L-2018.888888888889,354.51428571428573L-1992.2222222222222,354.8L-1965.5555555555554,355.2L-1938.888888888889,354.9142857142857L-1912.2222222222224,355.0857142857143L-1885.5555555555554,355.31428571428575L-1858.888888888889,355.48571428571427L-1832.2222222222222,355.9428571428572L-1805.5555555555557,355.71428571428567L-1778.8888888888887,355.8285714285714L-1752.2222222222222,356.1714285714286L-1725.5555555555557,355.88571428571424L-1698.8888888888887,356.1714285714286L-1672.2222222222222,356.4L-1645.5555555555557,356.34285714285716L-1618.888888888889,356.62857142857143L-1592.2222222222222,356.68571428571425L-1565.5555555555554,356.74285714285713L-1538.888888888889,356.74285714285713L-1512.2222222222222,356.45714285714286L-1485.5555555555557,356.2285714285714L-1458.888888888889,356.0571428571428L-1432.2222222222222,356.4L-1405.5555555555554,356.45714285714286L-1378.888888888889,356.45714285714286L-1352.2222222222222,357.0857142857143L-1325.5555555555557,357.42857142857144L-1298.888888888889,357.7142857142857L-1272.2222222222222,358.62857142857143L-1245.5555555555557,358.45714285714286L-1218.888888888889,358.68571428571425L-1192.2222222222222,359.14285714285717L-1165.5555555555554,359.0285714285714L-1138.888888888889,358.9714285714286L-1112.2222222222222,359.14285714285717L-1085.5555555555557,358.62857142857143L-1058.888888888889,358.8L-1032.2222222222222,358.62857142857143L-1005.5555555555555,358.62857142857143L-978.8888888888889,358.9714285714286L-952.2222222222222,359.14285714285717L-925.5555555555557,359.14285714285717L-898.8888888888889,359.31428571428575L-872.2222222222222,359.37142857142857L-845.5555555555555,359.6L-818.8888888888888,359.6L-792.2222222222223,359.42857142857144L-765.5555555555555,359.31428571428575L-738.8888888888889,359.25714285714287L-712.2222222222222,359.0285714285714L-685.5555555555555,359.14285714285717L-658.8888888888889,359.2L-632.2222222222222,358.9714285714286L-605.5555555555555,359.0857142857143L-578.8888888888889,359.14285714285717L-552.2222222222222,359.0285714285714L-525.5555555555555,359.25714285714287L-498.8888888888889,359.25714285714287L-472.22222222222223,359.37142857142857L-445.55555555555554,359.54285714285714L-418.8888888888889,359.42857142857144L-392.22222222222223,359.54285714285714L-365.55555555555554,359.7142857142857L-338.88888888888886,359.7142857142857L-312.22222222222223,359.7142857142857L-285.55555555555554,359.6L-258.8888888888889,359.65714285714284L-232.22222222222223,359.8285714285714L-205.55555555555554,359.8285714285714L-178.88888888888889,359.7714285714286L-152.22222222222223,359.7142857142857L-125.55555555555556,359.7142857142857L-98.88888888888889,359.8285714285714L-72.22222222222221,359.7714285714286L-45.55555555555556,359.7714285714286L-18.88888888888889,359.7714285714286L7.777777777777778,359.8285714285714L34.44444444444444,359.8857142857143L61.111111111111114,359.8285714285714L87.77777777777777,359.8285714285714L114.44444444444444,359.8857142857143L141.11111111111111,359.8857142857143L167.77777777777777,359.8857142857143L194.44444444444443,359.8857142857143L221.11111111111111,359.7714285714286L247.77777777777777,359.8285714285714L274.44444444444446,359.8285714285714L301.1111111111111,359.8285714285714L327.77777777777777,359.8285714285714L354.44444444444446,359.8285714285714L381.1111111111111,359.8285714285714L407.77777777777777,359.9428571428572" stroke="#f58518" stroke-width="2" opacity="1"></path></g></g><path class="foreground" aria-hidden="true" d="" display="none"></path></g><g transform="translate(0,0)"><path class="background" aria-hidden="true" d="M0,0h400v400h-400Z"></path><g><g class="mark-line role-mark concat_0_layer_1_marks" clip-path="url(#clip6)" role="graphics-object" aria-roledescription="line mark container"><path aria-label="Type: Confirmed; Date: Mar 01; Count: 0" role="graphics-symbol" aria-roledescription="line mark" d="M-3031.111111111111,358.85714285714283L-3004.4444444444443,358.22857142857146L-2978.8888888888887,355.0857142857143L-2952.222222222222,345.37142857142857L-2925.5555555555557,335.31428571428575L-2898.8888888888887,325.42857142857144L-2872.222222222222,315.54285714285714L-2845.5555555555557,314.0571428571429L-2818.888888888889,312.62857142857143L-2792.222222222222,312.9142857142857L-2765.5555555555557,319.1428571428571L-2738.888888888889,324.8571428571429L-2712.222222222222,329.37142857142857L-2685.5555555555557,334.0571428571429L-2658.8888888888887,331.48571428571427L-2632.222222222222,329.65714285714284L-2605.5555555555557,329.37142857142857L-2578.8888888888887,324.9142857142857L-2552.222222222222,321.8857142857143L-2525.5555555555557,318.51428571428573L-2498.8888888888887,314.8L-2472.222222222222,310L-2445.5555555555557,302.85714285714283L-2418.888888888889,295.6L-2392.222222222222,287.4857142857143L-2365.5555555555557,280.97142857142853L-2338.888888888889,273.77142857142854L-2312.222222222222,262.22857142857146L-2285.5555555555557,252.8L-2258.8888888888887,247.2L-2232.222222222222,239.77142857142857L-2205.5555555555557,233.65714285714287L-2178.8888888888887,228.85714285714286L-2152.222222222222,231.4857142857143L-2125.5555555555557,242.17142857142858L-2098.8888888888887,250.34285714285716L-2072.222222222222,256.85714285714283L-2045.5555555555557,266.45714285714286L-2018.888888888889,277.7142857142857L-1992.2222222222222,286.9142857142857L-1965.5555555555554,288.91428571428565L-1938.888888888889,288.34285714285716L-1912.2222222222224,288.8L-1885.5555555555554,290.85714285714283L-1858.888888888889,291.59999999999997L-1832.2222222222222,292.34285714285716L-1805.5555555555557,289.65714285714284L-1778.8888888888887,291.77142857142854L-1752.2222222222222,295.0285714285714L-1725.5555555555557,291.2571428571428L-1698.8888888888887,291.9428571428571L-1672.2222222222222,292.4L-1645.5555555555557,293.9428571428572L-1618.888888888889,297.37142857142857L-1592.2222222222222,298L-1565.5555555555554,297.0857142857143L-1538.888888888889,305.0285714285714L-1512.2222222222222,305.8285714285714L-1485.5555555555557,304.45714285714286L-1458.888888888889,304.57142857142856L-1432.2222222222222,306.85714285714283L-1405.5555555555554,307.1428571428571L-1378.888888888889,308.1714285714286L-1352.2222222222222,307.8857142857143L-1325.5555555555557,308.22857142857146L-1298.888888888889,311.8285714285714L-1272.2222222222222,316L-1245.5555555555557,318.34285714285716L-1218.888888888889,324L-1192.2222222222222,327.25714285714287L-1165.5555555555554,329.2L-1138.888888888889,331.54285714285714L-1112.2222222222222,334L-1085.5555555555557,334.1142857142857L-1058.888888888889,334.2857142857143L-1032.2222222222222,333.2L-1005.5555555555555,334.9142857142857L-978.8888888888889,335.37142857142857L-952.2222222222222,335.2571428571428L-925.5555555555557,336.0571428571428L-898.8888888888889,338.0571428571429L-872.2222222222222,339.2571428571428L-845.5555555555555,341.14285714285717L-818.8888888888888,339.2571428571428L-792.2222222222223,340.34285714285716L-765.5555555555555,342.34285714285716L-738.8888888888889,342.1714285714286L-712.2222222222222,342.51428571428573L-685.5555555555555,343.37142857142857L-658.8888888888889,342.9142857142857L-632.2222222222222,343.88571428571424L-605.5555555555555,343.37142857142857L-578.8888888888889,344.0571428571428L-552.2222222222222,344.9714285714286L-525.5555555555555,344.74285714285713L-498.8888888888889,346L-472.22222222222223,347.2L-445.55555555555554,347.2L-418.8888888888889,347.71428571428567L-392.22222222222223,346L-365.55555555555554,345.42857142857144L-338.88888888888886,345.7714285714286L-312.22222222222223,344.11428571428576L-285.55555555555554,342.34285714285716L-258.8888888888889,343.31428571428575L-232.22222222222223,345.6L-205.55555555555554,348.68571428571425L-178.88888888888889,342.2857142857143L-152.22222222222223,342.2285714285714L-125.55555555555556,341.65714285714284L-98.88888888888889,343.31428571428575L-72.22222222222221,343.7714285714286L-45.55555555555556,343.7714285714286L-18.88888888888889,343.7714285714286L7.777777777777778,347.2L34.44444444444444,348.1714285714286L61.111111111111114,349.7714285714286L87.77777777777777,349.7714285714286L114.44444444444444,351.0285714285714L141.11111111111111,351.0285714285714L167.77777777777777,351.0285714285714L194.44444444444443,352.74285714285713L221.11111111111111,353.14285714285717L247.77777777777777,353.9428571428572L274.44444444444446,354.2285714285714L301.1111111111111,353.48571428571427L327.77777777777777,353.48571428571427L354.44444444444446,353.48571428571427L381.1111111111111,350.9142857142857L407.77777777777777,350.1142857142857" stroke="#4c78a8" stroke-width="2" opacity="1"></path></g></g><path class="foreground" aria-hidden="true" d="" display="none"></path></g></g><g class="mark-group role-title"><g transform="translate(200,-54)"><path class="background" aria-hidden="true" d="M0,0h0v0h0Z" pointer-events="none"></path><g><g class="mark-text role-title-text" role="graphics-symbol" aria-roledescription="title" aria-label="Title text '7-day average (light color: daily values) [2020-07-14]'" pointer-events="none"><text text-anchor="middle" transform="translate(0,10)" font-family="Roboto Condensed" font-size="13px" font-weight="normal" fill="#000" opacity="1"><tspan>7-day average (light color: daily values)</tspan><tspan x="0" dy="15">[2020-07-14]</tspan></text></g></g><path class="foreground" aria-hidden="true" d="" pointer-events="none" display="none"></path></g></g></g><path class="foreground" aria-hidden="true" d="" display="none"></path></g></g><g class="mark-group role-scope concat_1_group" role="graphics-object" aria-roledescription="group mark container"><g transform="translate(465,0)"><path class="background" aria-hidden="true" d="M0,0h400v400h-400Z" stroke="#ddd" stroke-width="0"></path><g><g class="mark-group role-axis" aria-hidden="true"><g transform="translate(0.5,0.5)"><path class="background" aria-hidden="true" d="M0,0h0v0h0Z" pointer-events="none"></path><g><g class="mark-rule role-axis-grid" pointer-events="none"><line transform="translate(0,400)" x2="400" y2="0" stroke="#ddd" stroke-width="1" opacity="1"></line><line transform="translate(0,371)" x2="400" y2="0" stroke="#ddd" stroke-width="1" opacity="1"></line><line transform="translate(0,343)" x2="400" y2="0" stroke="#ddd" stroke-width="1" opacity="1"></line><line transform="translate(0,314)" x2="400" y2="0" stroke="#ddd" stroke-width="1" opacity="1"></line><line transform="translate(0,286)" x2="400" y2="0" stroke="#ddd" stroke-width="1" opacity="1"></line><line transform="translate(0,257)" x2="400" y2="0" stroke="#ddd" stroke-width="1" opacity="1"></line><line transform="translate(0,229)" x2="400" y2="0" stroke="#ddd" stroke-width="1" opacity="1"></line><line transform="translate(0,200)" x2="400" y2="0" stroke="#ddd" stroke-width="1" opacity="1"></line><line transform="translate(0,171)" x2="400" y2="0" stroke="#ddd" stroke-width="1" opacity="1"></line><line transform="translate(0,143)" x2="400" y2="0" stroke="#ddd" stroke-width="1" opacity="1"></line><line transform="translate(0,114)" x2="400" y2="0" stroke="#ddd" stroke-width="1" opacity="1"></line><line transform="translate(0,86)" x2="400" y2="0" stroke="#ddd" stroke-width="1" opacity="1"></line><line transform="translate(0,57)" x2="400" y2="0" stroke="#ddd" stroke-width="1" opacity="1"></line><line transform="translate(0,29)" x2="400" y2="0" stroke="#ddd" stroke-width="1" opacity="1"></line><line transform="translate(0,0)" x2="400" y2="0" stroke="#ddd" stroke-width="1" opacity="1"></line></g></g><path class="foreground" aria-hidden="true" d="" pointer-events="none" display="none"></path></g></g><g class="mark-group role-axis" role="graphics-symbol" aria-roledescription="axis" aria-label="X-axis titled 'Date' for a time scale with values from June 28 to July 13"><g transform="translate(0.5,400.5)"><path class="background" aria-hidden="true" d="M0,0h0v0h0Z" pointer-events="none"></path><g><g class="mark-text role-axis-label" pointer-events="none"><text text-anchor="middle" transform="translate(7.777777777777778,10)" font-family="Roboto Condensed" font-size="10px" fill="#000" opacity="1">Jun 29</text><text text-anchor="middle" transform="translate(61.111111111111114,10)" font-family="Roboto Condensed" font-size="10px" fill="#000" opacity="1">Jul 01</text><text text-anchor="middle" transform="translate(114.44444444444444,10)" font-family="Roboto Condensed" font-size="10px" fill="#000" opacity="1">Jul 03</text><text text-anchor="middle" transform="translate(167.77777777777777,10)" font-family="Roboto Condensed" font-size="10px" fill="#000" opacity="1">Jul 05</text><text text-anchor="middle" transform="translate(221.11111111111111,10)" font-family="Roboto Condensed" font-size="10px" fill="#000" opacity="1">Jul 07</text><text text-anchor="middle" transform="translate(274.44444444444446,10)" font-family="Roboto Condensed" font-size="10px" fill="#000" opacity="1">Jul 09</text><text text-anchor="middle" transform="translate(327.77777777777777,10)" font-family="Roboto Condensed" font-size="10px" fill="#000" opacity="1">Jul 11</text><text text-anchor="middle" transform="translate(381.1111111111111,10)" font-family="Roboto Condensed" font-size="10px" fill="#000" opacity="1">Jul 13</text></g><g class="mark-rule role-axis-domain" pointer-events="none"><line transform="translate(0,0)" x2="400" y2="0" stroke="lightgray" stroke-width="1" opacity="1"></line></g><g class="mark-text role-axis-title" pointer-events="none"><text text-anchor="middle" transform="translate(200,25)" font-family="Roboto Condensed" font-size="11px" font-weight="normal" fill="#000" opacity="1">Date</text></g></g><path class="foreground" aria-hidden="true" d="" pointer-events="none" display="none"></path></g></g><g class="mark-group role-axis" role="graphics-symbol" aria-roledescription="axis" aria-label="Y-axis titled 'Count' for a linear scale with values from 0 to 14,000"><g transform="translate(0.5,0.5)"><path class="background" aria-hidden="true" d="M0,0h0v0h0Z" pointer-events="none"></path><g><g class="mark-text role-axis-label" pointer-events="none"><text text-anchor="end" transform="translate(-2,403)" font-family="Roboto Condensed" font-size="10px" fill="#000" opacity="1">0</text><text text-anchor="end" transform="translate(-2,374.42857142857144)" font-family="Roboto Condensed" font-size="10px" fill="#000" opacity="1">1,000</text><text text-anchor="end" transform="translate(-2,345.8571428571429)" font-family="Roboto Condensed" font-size="10px" fill="#000" opacity="1">2,000</text><text text-anchor="end" transform="translate(-2,317.2857142857143)" font-family="Roboto Condensed" font-size="10px" fill="#000" opacity="1">3,000</text><text text-anchor="end" transform="translate(-2,288.7142857142857)" font-family="Roboto Condensed" font-size="10px" fill="#000" opacity="1">4,000</text><text text-anchor="end" transform="translate(-2,260.1428571428571)" font-family="Roboto Condensed" font-size="10px" fill="#000" opacity="1">5,000</text><text text-anchor="end" transform="translate(-2,231.57142857142856)" font-family="Roboto Condensed" font-size="10px" fill="#000" opacity="1">6,000</text><text text-anchor="end" transform="translate(-2,203)" font-family="Roboto Condensed" font-size="10px" fill="#000" opacity="1">7,000</text><text text-anchor="end" transform="translate(-2,174.42857142857144)" font-family="Roboto Condensed" font-size="10px" fill="#000" opacity="1">8,000</text><text text-anchor="end" transform="translate(-2,145.85714285714283)" font-family="Roboto Condensed" font-size="10px" fill="#000" opacity="1">9,000</text><text text-anchor="end" transform="translate(-2,117.28571428571428)" font-family="Roboto Condensed" font-size="10px" fill="#000" opacity="1">10,000</text><text text-anchor="end" transform="translate(-2,88.71428571428572)" font-family="Roboto Condensed" font-size="10px" fill="#000" opacity="1">11,000</text><text text-anchor="end" transform="translate(-2,60.14285714285716)" font-family="Roboto Condensed" font-size="10px" fill="#000" opacity="1">12,000</text><text text-anchor="end" transform="translate(-2,31.57142857142856)" font-family="Roboto Condensed" font-size="10px" fill="#000" opacity="1">13,000</text><text text-anchor="end" transform="translate(-2,3)" font-family="Roboto Condensed" font-size="10px" fill="#000" opacity="1">14,000</text></g><g class="mark-rule role-axis-domain" pointer-events="none"><line transform="translate(0,400)" x2="0" y2="-400" stroke="lightgray" stroke-width="1" opacity="1"></line></g><g class="mark-text role-axis-title" pointer-events="none"><text text-anchor="start" transform="translate(-45,-13)" font-family="Roboto Condensed" font-size="11px" font-weight="normal" fill="#000" opacity="1">Count</text></g></g><path class="foreground" aria-hidden="true" d="" pointer-events="none" display="none"></path></g></g><g class="mark-group role-scope concat_1_pathgroup" role="graphics-object" aria-roledescription="group mark container"><g transform="translate(0,0)"><path class="background" aria-hidden="true" d="M0,0h400v400h-400Z"></path><g><g class="mark-line role-mark concat_1_marks" clip-path="url(#clip7)" role="graphics-object" aria-roledescription="line mark container"><path aria-label="Type: Recovered; Date: Mar 01; Country: Denmark; Confirmed: 4; Recovered: 0; Deaths: 0; Count: 0" role="graphics-symbol" aria-roledescription="line mark" d="M-3191.1111111111113,400L-3164.4444444444443,400L-3137.777777777778,400L-3111.111111111111,400L-3084.4444444444443,400L-3057.777777777778,399.97142857142853L-3031.111111111111,399.97142857142853L-3004.4444444444443,399.97142857142853L-2978.8888888888887,399.97142857142853L-2952.222222222222,399.97142857142853L-2925.5555555555557,399.97142857142853L-2898.8888888888887,399.97142857142853L-2872.222222222222,399.97142857142853L-2845.5555555555557,399.97142857142853L-2818.888888888889,399.97142857142853L-2792.222222222222,399.97142857142853L-2765.5555555555557,399.97142857142853L-2738.888888888889,399.97142857142853L-2712.222222222222,399.97142857142853L-2685.5555555555557,399.97142857142853L-2658.8888888888887,399.97142857142853L-2632.222222222222,399.97142857142853L-2605.5555555555557,399.97142857142853L-2578.8888888888887,399.97142857142853L-2552.222222222222,399.97142857142853L-2525.5555555555557,399.97142857142853L-2498.8888888888887,399.97142857142853L-2472.222222222222,399.97142857142853L-2445.5555555555557,399.97142857142853L-2418.888888888889,399.97142857142853L-2392.222222222222,399.97142857142853L-2365.5555555555557,374.45714285714286L-2338.888888888889,368.88571428571424L-2312.222222222222,365.9142857142857L-2285.5555555555557,363.34285714285716L-2258.8888888888887,362.0857142857143L-2232.222222222222,360.62857142857143L-2205.5555555555557,357.4L-2178.8888888888887,353.6857142857143L-2152.222222222222,350.4L-2125.5555555555557,349.34285714285716L-2098.8888888888887,344.1428571428571L-2072.222222222222,339.3428571428571L-2045.5555555555557,336.1428571428571L-2018.888888888889,328.14285714285717L-1992.2222222222222,321.48571428571427L-1965.5555555555554,313.62857142857143L-1938.888888888889,303.1714285714286L-1912.2222222222224,290.0857142857143L-1885.5555555555554,281.68571428571425L-1858.888888888889,276.79999999999995L-1832.2222222222222,265.7142857142857L-1805.5555555555557,254.65714285714282L-1778.8888888888887,246.17142857142858L-1752.2222222222222,242.11428571428567L-1725.5555555555557,238.02857142857144L-1698.8888888888887,234.14285714285717L-1672.2222222222222,229.7428571428571L-1645.5555555555557,225.1142857142857L-1618.888888888889,218.1142857142857L-1592.2222222222222,212.9714285714286L-1565.5555555555554,207.74285714285713L-1538.888888888889,203.1714285714286L-1512.2222222222222,200.37142857142857L-1485.5555555555557,197.48571428571427L-1458.888888888889,191.54285714285714L-1432.2222222222222,185.9142857142857L-1405.5555555555554,179.68571428571428L-1378.888888888889,173.51428571428573L-1352.2222222222222,168.77142857142857L-1325.5555555555557,165.2285714285714L-1298.888888888889,162.05714285714285L-1272.2222222222222,154.85714285714286L-1245.5555555555557,152.4857142857143L-1218.888888888889,148.42857142857144L-1192.2222222222222,144.02857142857144L-1165.5555555555554,139.8L-1138.888888888889,136.3714285714286L-1112.2222222222222,134.25714285714287L-1085.5555555555557,130.97142857142856L-1058.888888888889,127.54285714285713L-1032.2222222222222,124.48571428571427L-1005.5555555555555,121.02857142857144L-978.8888888888889,118.97142857142855L-952.2222222222222,117.14285714285712L-925.5555555555557,115.3142857142857L-898.8888888888889,113.02857142857144L-872.2222222222222,111.25714285714285L-845.5555555555555,109.14285714285717L-818.8888888888888,107.42857142857143L-792.2222222222223,104.94285714285714L-765.5555555555555,103.94285714285716L-738.8888888888889,102.51428571428573L-712.2222222222222,100.31428571428572L-685.5555555555555,98.51428571428573L-658.8888888888889,96.57142857142857L-632.2222222222222,95.62857142857143L-605.5555555555555,93.68571428571428L-578.8888888888889,92.71428571428571L-552.2222222222222,91.65714285714284L-525.5555555555555,90.02857142857144L-498.8888888888889,88.45714285714288L-472.22222222222223,87.00000000000001L-445.55555555555554,85.9142857142857L-418.8888888888889,84.7142857142857L-392.22222222222223,83.77142857142856L-365.55555555555554,83.14285714285714L-338.88888888888886,82.14285714285717L-312.22222222222223,80.42857142857143L-285.55555555555554,78.79999999999998L-258.8888888888889,77.65714285714287L-232.22222222222223,77.65714285714287L-205.55555555555554,77.65714285714287L-178.88888888888889,75.8L-152.22222222222223,74.48571428571427L-125.55555555555556,73.65714285714287L-98.88888888888889,72.57142857142856L-72.22222222222221,71.20000000000002L-45.55555555555556,71.20000000000002L-18.88888888888889,71.20000000000002L7.777777777777778,68.22857142857144L34.44444444444444,67.17142857142858L61.111111111111114,65.91428571428573L87.77777777777777,63.74285714285715L114.44444444444444,62.37142857142857L141.11111111111111,62.37142857142857L167.77777777777777,62.37142857142857L194.44444444444443,58.999999999999986L221.11111111111111,57.628571428571405L247.77777777777777,57.114285714285714L274.44444444444446,55.857142857142875L301.1111111111111,54.942857142857136L327.77777777777777,54.942857142857136L354.44444444444446,54.942857142857136L381.1111111111111,53.42857142857142L407.77777777777777,52.571428571428584" stroke="#e45756" stroke-width="2" opacity="0.7"></path></g></g><path class="foreground" aria-hidden="true" d="" display="none"></path></g><g transform="translate(0,0)"><path class="background" aria-hidden="true" d="M0,0h400v400h-400Z"></path><g><g class="mark-line role-mark concat_1_marks" clip-path="url(#clip8)" role="graphics-object" aria-roledescription="line mark container"><path aria-label="Type: Deaths; Date: Mar 01; Country: Denmark; Confirmed: 4; Recovered: 0; Deaths: 0; Count: 0" role="graphics-symbol" aria-roledescription="line mark" d="M-3191.1111111111113,400L-3164.4444444444443,400L-3137.777777777778,400L-3111.111111111111,400L-3084.4444444444443,400L-3057.777777777778,400L-3031.111111111111,400L-3004.4444444444443,400L-2978.8888888888887,400L-2952.222222222222,400L-2925.5555555555557,400L-2898.8888888888887,400L-2872.222222222222,400L-2845.5555555555557,399.97142857142853L-2818.888888888889,399.9428571428572L-2792.222222222222,399.9142857142857L-2765.5555555555557,399.88571428571424L-2738.888888888889,399.88571428571424L-2712.222222222222,399.8285714285714L-2685.5555555555557,399.74285714285713L-2658.8888888888887,399.62857142857143L-2632.222222222222,399.62857142857143L-2605.5555555555557,399.31428571428575L-2578.8888888888887,399.0857142857143L-2552.222222222222,399.0285714285714L-2525.5555555555557,398.8285714285714L-2498.8888888888887,398.51428571428573L-2472.222222222222,398.1428571428571L-2445.5555555555557,397.9428571428572L-2418.888888888889,397.8L-2392.222222222222,397.42857142857144L-2365.5555555555557,397.0285714285714L-2338.888888888889,396.48571428571427L-2312.222222222222,396.02857142857147L-2285.5555555555557,395.40000000000003L-2258.8888888888887,394.8857142857143L-2232.222222222222,394.65714285714284L-2205.5555555555557,394.20000000000005L-2178.8888888888887,393.7714285714286L-2152.222222222222,393.22857142857146L-2125.5555555555557,392.9428571428571L-2098.8888888888887,392.57142857142856L-2072.222222222222,392.2L-2045.5555555555557,391.85714285714283L-2018.888888888889,391.45714285714286L-1992.2222222222222,391.1714285714286L-1965.5555555555554,390.8285714285714L-1938.888888888889,390.4L-1912.2222222222224,390.1142857142857L-1885.5555555555554,389.85714285714283L-1858.888888888889,389.59999999999997L-1832.2222222222222,389.4285714285714L-1805.5555555555557,389.0285714285714L-1778.8888888888887,388.74285714285713L-1752.2222222222222,388.48571428571427L-1725.5555555555557,388.0571428571429L-1698.8888888888887,387.9428571428571L-1672.2222222222222,387.8L-1645.5555555555557,387.59999999999997L-1618.888888888889,387.3428571428571L-1592.2222222222222,387.0857142857143L-1565.5555555555554,386.8571428571429L-1538.888888888889,386.42857142857144L-1512.2222222222222,386.1714285714286L-1485.5555555555557,385.9142857142857L-1458.888888888889,385.62857142857143L-1432.2222222222222,385.54285714285714L-1405.5555555555554,385.31428571428575L-1378.888888888889,385.0857142857143L-1352.2222222222222,384.9714285714286L-1325.5555555555557,384.8857142857143L-1298.888888888889,384.7714285714286L-1272.2222222222222,384.9428571428572L-1245.5555555555557,384.7714285714286L-1218.888888888889,384.65714285714284L-1192.2222222222222,384.65714285714284L-1165.5555555555554,384.48571428571427L-1138.888888888889,384.37142857142857L-1112.2222222222222,384.34285714285716L-1085.5555555555557,384.25714285714287L-1058.888888888889,384.1714285714286L-1032.2222222222222,383.9714285714286L-1005.5555555555555,383.9714285714286L-978.8888888888889,383.9714285714286L-952.2222222222222,383.9428571428571L-925.5555555555557,383.9142857142857L-898.8888888888889,383.9142857142857L-872.2222222222222,383.85714285714283L-845.5555555555555,383.77142857142854L-818.8888888888888,383.77142857142854L-792.2222222222223,383.68571428571425L-765.5555555555555,383.59999999999997L-738.8888888888889,383.54285714285714L-712.2222222222222,383.42857142857144L-685.5555555555555,383.42857142857144L-658.8888888888889,383.37142857142857L-632.2222222222222,383.25714285714287L-605.5555555555555,383.22857142857146L-578.8888888888889,383.1714285714286L-552.2222222222222,383.0571428571429L-525.5555555555555,383.0571428571429L-498.8888888888889,383.0571428571429L-472.22222222222223,383.0571428571429L-445.55555555555554,383.0285714285714L-418.8888888888889,382.9428571428572L-392.22222222222223,382.9428571428572L-365.55555555555554,382.9142857142857L-338.88888888888886,382.9142857142857L-312.22222222222223,382.9142857142857L-285.55555555555554,382.8571428571429L-258.8888888888889,382.8571428571429L-232.22222222222223,382.8571428571429L-205.55555555555554,382.8571428571429L-178.88888888888889,382.8L-152.22222222222223,382.7714285714286L-125.55555555555556,382.7714285714286L-98.88888888888889,382.7714285714286L-72.22222222222221,382.74285714285713L-45.55555555555556,382.74285714285713L-18.88888888888889,382.74285714285713L7.777777777777778,382.7142857142857L34.44444444444444,382.7142857142857L61.111111111111114,382.6857142857143L87.77777777777777,382.6857142857143L114.44444444444444,382.6857142857143L141.11111111111111,382.6857142857143L167.77777777777777,382.6857142857143L194.44444444444443,382.65714285714284L221.11111111111111,382.6L247.77777777777777,382.6L274.44444444444446,382.6L301.1111111111111,382.6L327.77777777777777,382.6L354.44444444444446,382.6L381.1111111111111,382.57142857142856L407.77777777777777,382.57142857142856" stroke="#f58518" stroke-width="2" opacity="0.7"></path></g></g><path class="foreground" aria-hidden="true" d="" display="none"></path></g><g transform="translate(0,0)"><path class="background" aria-hidden="true" d="M0,0h400v400h-400Z"></path><g><g class="mark-line role-mark concat_1_marks" clip-path="url(#clip9)" role="graphics-object" aria-roledescription="line mark container"><path aria-label="Type: Confirmed; Date: Mar 01; Country: Denmark; Confirmed: 4; Recovered: 0; Deaths: 0; Count: 4" role="graphics-symbol" aria-roledescription="line mark" d="M-3191.1111111111113,399.88571428571424L-3164.4444444444443,399.88571428571424L-3137.777777777778,399.8285714285714L-3111.111111111111,399.7142857142857L-3084.4444444444443,399.7142857142857L-3057.777777777778,399.34285714285716L-3031.111111111111,399.34285714285716L-3004.4444444444443,399L-2978.8888888888887,397.42857142857144L-2952.222222222222,392.51428571428573L-2925.5555555555557,387.37142857142857L-2898.8888888888887,382.42857142857144L-2872.222222222222,377.11428571428576L-2845.5555555555557,376.37142857142857L-2818.888888888889,375.3142857142857L-2792.222222222222,373.8857142857143L-2765.5555555555557,372.0857142857143L-2738.888888888889,369.8L-2712.222222222222,367.1142857142857L-2685.5555555555557,364.14285714285717L-2658.8888888888887,362.1142857142857L-2632.222222222222,360.14285714285717L-2605.5555555555557,358.5714285714286L-2578.8888888888887,354.54285714285714L-2552.222222222222,350.74285714285713L-2525.5555555555557,346.37142857142857L-2498.8888888888887,341.54285714285714L-2472.222222222222,337.1142857142857L-2445.5555555555557,331.57142857142856L-2418.888888888889,326.37142857142857L-2392.222222222222,318.2857142857143L-2365.5555555555557,311.2285714285714L-2338.888888888889,303.25714285714287L-2312.222222222222,292.65714285714284L-2285.5555555555557,283.51428571428573L-2258.8888888888887,275.1714285714286L-2232.222222222222,266.25714285714287L-2205.5555555555557,255.11428571428573L-2178.8888888888887,245.65714285714284L-2152.222222222222,238.99999999999997L-2125.5555555555557,233.74285714285713L-2098.8888888888887,228.68571428571428L-2072.222222222222,223.59999999999997L-2045.5555555555557,219.4857142857143L-2018.888888888889,213.97142857142856L-1992.2222222222222,209.11428571428573L-1965.5555555555554,203.45714285714286L-1938.888888888889,197.9142857142857L-1912.2222222222224,193.08571428571432L-1885.5555555555554,189.0285714285714L-1858.888888888889,185.28571428571428L-1832.2222222222222,180.14285714285717L-1805.5555555555557,173.94285714285712L-1778.8888888888887,169.34285714285716L-1752.2222222222222,165.42857142857144L-1725.5555555555557,158.71428571428572L-1698.8888888888887,154.99999999999997L-1672.2222222222222,151.48571428571427L-1645.5555555555557,147.1142857142857L-1618.888888888889,142.6285714285714L-1592.2222222222222,138.34285714285716L-1565.5555555555554,133.9714285714286L-1538.888888888889,131.22857142857143L-1512.2222222222222,127.91428571428574L-1485.5555555555557,123.71428571428571L-1458.888888888889,119.39999999999999L-1432.2222222222222,116.05714285714286L-1405.5555555555554,111.91428571428573L-1378.888888888889,108.05714285714285L-1352.2222222222222,105.17142857142856L-1325.5555555555557,102.02857142857144L-1298.888888888889,99.62857142857145L-1272.2222222222222,97.40000000000002L-1245.5555555555557,95.22857142857144L-1218.888888888889,93.91428571428571L-1192.2222222222222,91.68571428571428L-1165.5555555555554,89.77142857142857L-1138.888888888889,87.80000000000001L-1112.2222222222222,86.6285714285714L-1085.5555555555557,84.45714285714287L-1058.888888888889,82.37142857142858L-1032.2222222222222,80.51428571428572L-1005.5555555555555,79.14285714285714L-978.8888888888889,77.45714285714284L-952.2222222222222,75.42857142857144L-925.5555555555557,74.65714285714284L-898.8888888888889,73.4857142857143L-872.2222222222222,72.00000000000001L-845.5555555555555,71.08571428571429L-818.8888888888888,68.77142857142857L-792.2222222222223,67.62857142857142L-765.5555555555555,66.6L-738.8888888888889,65.74285714285715L-712.2222222222222,64.74285714285712L-685.5555555555555,63.6857142857143L-658.8888888888889,62.542857142857144L-632.2222222222222,60.71428571428572L-605.5555555555555,59.314285714285695L-578.8888888888889,58.62857142857143L-552.2222222222222,58.22857142857143L-525.5555555555555,57.114285714285714L-498.8888888888889,56.68571428571427L-472.22222222222223,56.14285714285714L-445.55555555555554,54.31428571428572L-418.8888888888889,53.17142857142856L-392.22222222222223,51.62857142857145L-365.55555555555554,50.942857142857136L-338.88888888888886,50L-312.22222222222223,48.742857142857154L-285.55555555555554,47.31428571428573L-258.8888888888889,45.971428571428554L-232.22222222222223,45.971428571428554L-205.55555555555554,45.971428571428554L-178.88888888888889,42.08571428571428L-152.22222222222223,41.1142857142857L-125.55555555555556,39.57142857142859L-98.88888888888889,38.97142857142857L-72.22222222222221,37.857142857142854L-45.55555555555556,37.857142857142854L-18.88888888888889,37.857142857142854L7.777777777777778,35.685714285714276L34.44444444444444,35.19999999999999L61.111111111111114,34.45714285714288L87.77777777777777,33.857142857142854L114.44444444444444,33.37142857142857L141.11111111111111,33.37142857142857L167.77777777777777,33.37142857142857L194.44444444444443,32.05714285714287L221.11111111111111,31.77142857142856L247.77777777777777,31.428571428571452L274.44444444444446,30.97142857142856L301.1111111111111,30.114285714285714L327.77777777777777,30.114285714285714L354.44444444444446,30.114285714285714L381.1111111111111,27.514285714285734L407.77777777777777,26.828571428571422" stroke="#4c78a8" stroke-width="2" opacity="0.7"></path></g></g><path class="foreground" aria-hidden="true" d="" display="none"></path></g></g><g class="mark-group role-title"><g transform="translate(200,-54)"><path class="background" aria-hidden="true" d="M0,0h0v0h0Z" pointer-events="none"></path><g><g class="mark-text role-title-text" role="graphics-symbol" aria-roledescription="title" aria-label="Title text 'Total [2020-07-14]'" pointer-events="none"><text text-anchor="middle" transform="translate(0,10)" font-family="Roboto Condensed" font-size="13px" font-weight="normal" fill="#000" opacity="1"><tspan>Total</tspan><tspan x="0" dy="15">[2020-07-14]</tspan></text></g></g><path class="foreground" aria-hidden="true" d="" pointer-events="none" display="none"></path></g></g></g><path class="foreground" aria-hidden="true" d="" display="none"></path></g></g><g class="mark-group role-legend" role="graphics-symbol" aria-roledescription="legend" aria-label="Symbol legend for stroke color with 3 values: Confirmed, Deaths, Recovered"><g transform="translate(883,0)"><path class="background" aria-hidden="true" d="M0,0h58v37h-58Z" pointer-events="none"></path><g><g class="mark-group role-legend-entry"><g transform="translate(0,0)"><path class="background" aria-hidden="true" d="M0,0h0v0h0Z" pointer-events="none"></path><g><g class="mark-group role-scope" role="graphics-object" aria-roledescription="group mark container"><g transform="translate(0,0)"><path class="background" aria-hidden="true" d="M0,0h58v11h-58Z" pointer-events="none" opacity="1"></path><g><g class="mark-symbol role-legend-symbol" pointer-events="none"><path transform="translate(6,6)" d="M-5,0L5,0" stroke="#4c78a8" stroke-width="1.5" opacity="0.2"></path></g><g class="mark-text role-legend-label" pointer-events="none"><text text-anchor="start" transform="translate(16,9)" font-family="Roboto Condensed" font-size="10px" fill="#000" opacity="1">Confirmed</text></g></g><path class="foreground" aria-hidden="true" d="" pointer-events="none" display="none"></path></g><g transform="translate(0,13)"><path class="background" aria-hidden="true" d="M0,0h58v11h-58Z" pointer-events="none" opacity="1"></path><g><g class="mark-symbol role-legend-symbol" pointer-events="none"><path transform="translate(6,6)" d="M-5,0L5,0" stroke="#f58518" stroke-width="1.5" opacity="0.2"></path></g><g class="mark-text role-legend-label" pointer-events="none"><text text-anchor="start" transform="translate(16,9)" font-family="Roboto Condensed" font-size="10px" fill="#000" opacity="1">Deaths</text></g></g><path class="foreground" aria-hidden="true" d="" pointer-events="none" display="none"></path></g><g transform="translate(0,26)"><path class="background" aria-hidden="true" d="M0,0h58v11h-58Z" pointer-events="none" opacity="1"></path><g><g class="mark-symbol role-legend-symbol" pointer-events="none"><path transform="translate(6,6)" d="M-5,0L5,0" stroke="#e45756" stroke-width="1.5" opacity="0.2"></path></g><g class="mark-text role-legend-label" pointer-events="none"><text text-anchor="start" transform="translate(16,9)" font-family="Roboto Condensed" font-size="10px" fill="#000" opacity="1">Recovered</text></g></g><path class="foreground" aria-hidden="true" d="" pointer-events="none" display="none"></path></g></g></g><path class="foreground" aria-hidden="true" d="" pointer-events="none" display="none"></path></g></g></g><path class="foreground" aria-hidden="true" d="" pointer-events="none" display="none"></path></g></g></g><path class="foreground" aria-hidden="true" d="" display="none"></path></g></g></g></svg>