<svg class="marks" width="950" height="344" viewBox="0 0 950 344" version="1.1" xmlns="http://www.w3.org/2000/svg" xmlns:xlink="http://www.w3.org/1999/xlink"><rect width="950" height="344" style="fill: white;"></rect><defs><clipPath id="clip1"><rect x="0" y="0" width="400" height="300"></rect></clipPath><clipPath id="clip2"><rect x="0" y="0" width="400" height="300"></rect></clipPath><clipPath id="clip3"><rect x="0" y="0" width="400" height="300"></rect></clipPath><clipPath id="clip4"><rect x="0" y="0" width="400" height="300"></rect></clipPath><clipPath id="clip5"><rect x="0" y="0" width="400" height="300"></rect></clipPath><clipPath id="clip6"><rect x="0" y="0" width="400" height="300"></rect></clipPath><clipPath id="clip7"><rect x="0" y="0" width="400" height="300"></rect></clipPath><clipPath id="clip8"><rect x="0" y="0" width="400" height="300"></rect></clipPath><clipPath id="clip9"><rect x="0" y="0" width="400" height="300"></rect></clipPath></defs><g transform="translate(22,27)"><g class="mark-group role-frame root"><g transform="translate(0,0)"><path class="background" d="M0,0h0v0h0Z" style="fill: none;"></path><g><g class="mark-group role-scope concat_0_group"><g transform="translate(0,0)"><path class="background" d="M0,0h400v300h-400Z" style="fill: none; stroke: #ddd; stroke-width: 0;"></path><g><g class="mark-group role-axis"><g transform="translate(0.5,0.5)"><path class="background" d="M0,0h0v0h0Z" style="pointer-events: none; fill: none;"></path><g><g class="mark-rule role-axis-grid" style="pointer-events: none;"><line transform="translate(0,300)" x2="400" y2="0" style="fill: none; stroke: #ddd; stroke-width: 1; opacity: 1;"></line><line transform="translate(0,250)" x2="400" y2="0" style="fill: none; stroke: #ddd; stroke-width: 1; opacity: 1;"></line><line transform="translate(0,200)" x2="400" y2="0" style="fill: none; stroke: #ddd; stroke-width: 1; opacity: 1;"></line><line transform="translate(0,150)" x2="400" y2="0" style="fill: none; stroke: #ddd; stroke-width: 1; opacity: 1;"></line><line transform="translate(0,100)" x2="400" y2="0" style="fill: none; stroke: #ddd; stroke-width: 1; opacity: 1;"></line><line transform="translate(0,50)" x2="400" y2="0" style="fill: none; stroke: #ddd; stroke-width: 1; opacity: 1;"></line><line transform="translate(0,0)" x2="400" y2="0" style="fill: none; stroke: #ddd; stroke-width: 1; opacity: 1;"></line></g></g><path class="foreground" d="" style="pointer-events: none; display: none; fill: none;"></path></g></g><g class="mark-group role-axis"><g transform="translate(0.5,300.5)"><path class="background" d="M0,0h0v0h0Z" style="pointer-events: none; fill: none;"></path><g><g class="mark-text role-axis-label" style="pointer-events: none;"><text text-anchor="start" transform="translate(0,10)" style="font-family: Roboto Condensed; font-size: 10px; fill: #000; opacity: 1;">Apr 11</text><text text-anchor="middle" transform="translate(26.666666666666668,10)" style="font-family: Roboto Condensed; font-size: 10px; fill: #000; opacity: 0;">Apr 13</text><text text-anchor="middle" transform="translate(53.333333333333336,10)" style="font-family: Roboto Condensed; font-size: 10px; fill: #000; opacity: 1;">Apr 15</text><text text-anchor="middle" transform="translate(80,10)" style="font-family: Roboto Condensed; font-size: 10px; fill: #000; opacity: 0;">Apr 17</text><text text-anchor="middle" transform="translate(106.66666666666667,10)" style="font-family: Roboto Condensed; font-size: 10px; fill: #000; opacity: 1;">Apr 19</text><text text-anchor="middle" transform="translate(133.33333333333331,10)" style="font-family: Roboto Condensed; font-size: 10px; fill: #000; opacity: 0;">Apr 21</text><text text-anchor="middle" transform="translate(160,10)" style="font-family: Roboto Condensed; font-size: 10px; fill: #000; opacity: 1;">Apr 23</text><text text-anchor="middle" transform="translate(186.66666666666666,10)" style="font-family: Roboto Condensed; font-size: 10px; fill: #000; opacity: 0;">Apr 25</text><text text-anchor="middle" transform="translate(213.33333333333334,10)" style="font-family: Roboto Condensed; font-size: 10px; fill: #000; opacity: 1;">Apr 27</text><text text-anchor="middle" transform="translate(240,10)" style="font-family: Roboto Condensed; font-size: 10px; fill: #000; opacity: 0;">Apr 29</text><text text-anchor="middle" transform="translate(266.66666666666663,10)" style="font-family: Roboto Condensed; font-size: 10px; fill: #000; opacity: 1;">May 01</text><text text-anchor="middle" transform="translate(293.3333333333333,10)" style="font-family: Roboto Condensed; font-size: 10px; fill: #000; opacity: 0;">May 03</text><text text-anchor="middle" transform="translate(320,10)" style="font-family: Roboto Condensed; font-size: 10px; fill: #000; opacity: 1;">May 05</text><text text-anchor="middle" transform="translate(346.6666666666667,10)" style="font-family: Roboto Condensed; font-size: 10px; fill: #000; opacity: 0;">May 07</text><text text-anchor="middle" transform="translate(373.3333333333333,10)" style="font-family: Roboto Condensed; font-size: 10px; fill: #000; opacity: 1;">May 09</text><text text-anchor="end" transform="translate(400,10)" style="font-family: Roboto Condensed; font-size: 10px; fill: #000; opacity: 0;">May 11</text></g><g class="mark-rule role-axis-domain" style="pointer-events: none;"><line transform="translate(0,0)" x2="400" y2="0" style="fill: none; stroke: lightgray; stroke-width: 1; opacity: 1;"></line></g></g><path class="foreground" d="" style="pointer-events: none; display: none; fill: none;"></path></g></g><g class="mark-group role-axis"><g transform="translate(0.5,0.5)"><path class="background" d="M0,0h0v0h0Z" style="pointer-events: none; fill: none;"></path><g><g class="mark-text role-axis-label" style="pointer-events: none;"><text text-anchor="end" transform="translate(-2,303)" style="font-family: Roboto Condensed; font-size: 10px; fill: #000; opacity: 1;">-20</text><text text-anchor="end" transform="translate(-2,253)" style="font-family: Roboto Condensed; font-size: 10px; fill: #000; opacity: 1;">0</text><text text-anchor="end" transform="translate(-2,203.00000000000003)" style="font-family: Roboto Condensed; font-size: 10px; fill: #000; opacity: 1;">20</text><text text-anchor="end" transform="translate(-2,153)" style="font-family: Roboto Condensed; font-size: 10px; fill: #000; opacity: 1;">40</text><text text-anchor="end" transform="translate(-2,103.00000000000001)" style="font-family: Roboto Condensed; font-size: 10px; fill: #000; opacity: 1;">60</text><text text-anchor="end" transform="translate(-2,52.999999999999986)" style="font-family: Roboto Condensed; font-size: 10px; fill: #000; opacity: 1;">80</text><text text-anchor="end" transform="translate(-2,3)" style="font-family: Roboto Condensed; font-size: 10px; fill: #000; opacity: 1;">100</text></g><g class="mark-rule role-axis-domain" style="pointer-events: none;"><line transform="translate(0,300)" x2="0" y2="-300" style="fill: none; stroke: lightgray; stroke-width: 1; opacity: 1;"></line></g></g><path class="foreground" d="" style="pointer-events: none; display: none; fill: none;"></path></g></g><g class="mark-group role-scope concat_0_layer_0_pathgroup"><g transform="translate(0,0)"><path class="background" d="M0,0h400v300h-400Z" style="fill: none;"></path><g><g class="mark-line role-mark concat_0_layer_0_marks" clip-path="url(#clip1)"><path d="M-466.6666666666667,250L-453.3333333333333,250L-440.00000000000006,250L-426.6666666666667,249.64285714285717L-413.33333333333337,249.64285714285717L-400,249.64285714285717L-386.6666666666667,249.64285714285717L-373.3333333333333,249.64285714285717L-360,247.14285714285714L-346.6666666666667,250L-333.33333333333337,250.35714285714286L-320,248.57142857142856L-306.6666666666667,248.57142857142856L-293.3333333333333,248.57142857142856L-280,242.5L-266.66666666666663,251.07142857142858L-253.33333333333331,231.7857142857143L-240,231.7857142857143L-226.66666666666666,231.7857142857143L-213.33333333333334,222.5L-200,217.14285714285717L-186.66666666666666,217.14285714285717L-173.33333333333334,203.57142857142858L-160,212.14285714285717L-146.66666666666666,197.5L-133.33333333333331,189.64285714285714L-120,177.85714285714283L-106.66666666666667,174.28571428571428L-93.33333333333333,149.28571428571428L-80,145.35714285714286L-66.66666666666666,141.78571428571428L-53.333333333333336,121.07142857142857L-40,104.28571428571432L-26.666666666666668,105.71428571428571L-13.333333333333334,92.14285714285715L0,91.07142857142858L13.333333333333334,85.35714285714285L26.666666666666668,81.07142857142858L40,96.42857142857142L53.333333333333336,91.42857142857143L66.66666666666666,87.14285714285717L80,81.07142857142858L93.33333333333333,89.28571428571426L106.66666666666667,106.42857142857142L120,96.7857142857143L133.33333333333331,97.14285714285717L146.66666666666666,112.5L160,119.64285714285715L173.33333333333334,136.42857142857142L186.66666666666666,150.35714285714286L200,136.7857142857143L213.33333333333334,156.42857142857142L226.66666666666666,171.78571428571428L240,180.7142857142857L253.33333333333331,192.49999999999997L266.66666666666663,197.5L280,201.42857142857144L293.3333333333333,211.07142857142856L306.6666666666667,214.64285714285714L320,215.35714285714283L333.33333333333337,216.42857142857142L346.6666666666667,219.64285714285717L360,222.85714285714286L373.3333333333333,226.07142857142856L386.6666666666667,229.99999999999997L400,232.14285714285714" style="fill: none; stroke: #e45756; stroke-width: 2; opacity: 1;"></path></g></g><path class="foreground" d="" style="display: none; fill: none;"></path></g><g transform="translate(0,0)"><path class="background" d="M0,0h400v300h-400Z" style="fill: none;"></path><g><g class="mark-line role-mark concat_0_layer_0_marks" clip-path="url(#clip2)"><path d="M-466.6666666666667,250L-453.3333333333333,250L-440.00000000000006,250L-426.6666666666667,250L-413.33333333333337,250L-400,250L-386.6666666666667,250L-373.3333333333333,250L-360,248.2142857142857L-346.6666666666667,250L-333.33333333333337,249.64285714285717L-320,249.64285714285717L-306.6666666666667,249.64285714285717L-293.3333333333333,250L-280,249.64285714285717L-266.66666666666663,251.42857142857144L-253.33333333333331,249.64285714285717L-240,249.64285714285717L-226.66666666666666,249.64285714285717L-213.33333333333334,249.64285714285717L-200,249.2857142857143L-186.66666666666666,249.64285714285717L-173.33333333333334,249.64285714285717L-160,249.64285714285717L-146.66666666666666,250L-133.33333333333331,250L-120,249.2857142857143L-106.66666666666667,249.2857142857143L-93.33333333333333,249.2857142857143L-80,249.2857142857143L-66.66666666666666,248.57142857142856L-53.333333333333336,248.57142857142856L-40,248.57142857142856L-26.666666666666668,249.2857142857143L-13.333333333333334,248.92857142857144L0,248.57142857142856L13.333333333333334,248.57142857142856L26.666666666666668,249.2857142857143L40,249.2857142857143L53.333333333333336,249.2857142857143L66.66666666666666,249.2857142857143L80,249.2857142857143L93.33333333333333,249.64285714285717L106.66666666666667,249.64285714285717L120,249.2857142857143L133.33333333333331,249.2857142857143L146.66666666666666,249.2857142857143L160,249.2857142857143L173.33333333333334,249.64285714285717L186.66666666666666,249.64285714285717L200,249.64285714285717L213.33333333333334,250L226.66666666666666,250L240,250L253.33333333333331,250L266.66666666666663,250L280,250L293.3333333333333,250L306.6666666666667,250L320,250L333.33333333333337,250L346.6666666666667,250L360,250L373.3333333333333,250L386.6666666666667,250L400,250" style="fill: none; stroke: #f58518; stroke-width: 2; opacity: 1;"></path></g></g><path class="foreground" d="" style="display: none; fill: none;"></path></g><g transform="translate(0,0)"><path class="background" d="M0,0h400v300h-400Z" style="fill: none;"></path><g><g class="mark-line role-mark concat_0_layer_0_marks" clip-path="url(#clip3)"><path d="M-466.6666666666667,232.5L-453.3333333333333,233.21428571428572L-440.00000000000006,231.42857142857142L-426.6666666666667,229.28571428571428L-413.33333333333337,228.92857142857142L-400,225.35714285714286L-386.6666666666667,217.5L-373.3333333333333,212.14285714285717L-360,206.78571428571428L-346.6666666666667,206.42857142857142L-333.33333333333337,196.07142857142858L-320,191.07142857142856L-306.6666666666667,168.92857142857142L-293.3333333333333,151.78571428571428L-280,136.7857142857143L-266.66666666666663,108.2142857142857L-253.33333333333331,104.28571428571432L-240,97.14285714285717L-226.66666666666666,76.07142857142857L-213.33333333333334,81.42857142857144L-200,78.21428571428574L-186.66666666666666,75L-173.33333333333334,88.57142857142858L-160,72.14285714285715L-146.66666666666666,76.07142857142857L-133.33333333333331,77.49999999999999L-120,65.35714285714286L-106.66666666666667,80.71428571428572L-93.33333333333333,87.85714285714285L-80,83.57142857142857L-66.66666666666666,80.00000000000001L-53.333333333333336,88.92857142857142L-40,108.57142857142858L-26.666666666666668,132.5L-13.333333333333334,138.92857142857144L0,152.85714285714283L13.333333333333334,173.2142857142857L26.666666666666668,196.78571428571428L40,202.14285714285717L53.333333333333336,210.35714285714283L66.66666666666666,217.5L80,221.7857142857143L93.33333333333333,224.64285714285714L106.66666666666667,225L120,227.85714285714283L133.33333333333331,229.28571428571428L146.66666666666666,229.28571428571428L160,232.14285714285714L173.33333333333334,237.5L186.66666666666666,239.2857142857143L200,242.5L213.33333333333334,243.21428571428572L226.66666666666666,243.92857142857142L240,245.7142857142857L253.33333333333331,247.14285714285714L266.66666666666663,246.78571428571428L280,247.14285714285714L293.3333333333333,247.5L306.6666666666667,247.5L320,248.57142857142856L333.33333333333337,249.2857142857143L346.6666666666667,248.57142857142856L360,248.92857142857144L373.3333333333333,248.92857142857144L386.6666666666667,249.2857142857143L400,249.2857142857143" style="fill: none; stroke: #4c78a8; stroke-width: 2; opacity: 1;"></path></g></g><path class="foreground" d="" style="display: none; fill: none;"></path></g></g><g class="mark-group role-scope concat_0_layer_1_pathgroup"><g transform="translate(0,0)"><path class="background" d="M0,0h400v300h-400Z" style="fill: none;"></path><g><g class="mark-line role-mark concat_0_layer_1_marks" clip-path="url(#clip4)"><path d="M-546.6666666666666,250L-533.3333333333333,250L-520,250L-506.66666666666663,250L-493.33333333333337,250L-480,250L-466.6666666666667,250L-453.3333333333333,250L-440.00000000000006,250L-426.6666666666667,247.5L-413.33333333333337,250L-400,250L-386.6666666666667,250L-373.3333333333333,250L-360,232.5L-346.6666666666667,270L-333.33333333333337,250L-320,237.5L-306.6666666666667,250L-293.3333333333333,250L-280,207.5L-266.66666666666663,292.5L-253.33333333333331,135L-240,250L-226.66666666666666,237.5L-213.33333333333334,185L-200,212.49999999999997L-186.66666666666666,207.5L-173.33333333333334,197.5L-160,195L-146.66666666666666,147.5L-133.33333333333331,182.50000000000003L-120,102.5L-106.66666666666667,187.5L-93.33333333333333,32.499999999999986L-80,170L-66.66666666666666,170L-53.333333333333336,2.499999999999991L-40,65L-26.666666666666668,112.5L-13.333333333333334,92.5L0,25.00000000000001L13.333333333333334,130L26.666666666666668,140L40,110.00000000000001L53.333333333333336,29.999999999999993L66.66666666666666,82.5L80,49.999999999999986L93.33333333333333,82.5L106.66666666666667,250L120,72.50000000000001L133.33333333333331,112.5L146.66666666666666,137.5L160,132.5L173.33333333333334,167.5L186.66666666666666,180L200,154.99999999999997L213.33333333333334,210L226.66666666666666,220.00000000000003L240,200.00000000000003L253.33333333333331,215L266.66666666666663,202.5L280,207.5L293.3333333333333,222.5L306.6666666666667,235L320,225L333.33333333333337,207.5L346.6666666666667,237.5L360,225L373.3333333333333,229.99999999999997L386.6666666666667,250L400,250" style="fill: none; stroke: #e45756; stroke-width: 2; opacity: 0.2;"></path></g></g><path class="foreground" d="" style="display: none; fill: none;"></path></g><g transform="translate(0,0)"><path class="background" d="M0,0h400v300h-400Z" style="fill: none;"></path><g><g class="mark-line role-mark concat_0_layer_1_marks" clip-path="url(#clip5)"><path d="M-546.6666666666666,250L-533.3333333333333,250L-520,250L-506.66666666666663,250L-493.33333333333337,250L-480,250L-466.6666666666667,250L-453.3333333333333,250L-440.00000000000006,250L-426.6666666666667,250L-413.33333333333337,250L-400,250L-386.6666666666667,250L-373.3333333333333,250L-360,237.5L-346.6666666666667,262.5L-333.33333333333337,247.5L-320,250L-306.6666666666667,250L-293.3333333333333,252.5L-280,247.5L-266.66666666666663,250L-253.33333333333331,250L-240,247.5L-226.66666666666666,250L-213.33333333333334,250L-200,250L-186.66666666666666,250L-173.33333333333334,250L-160,250L-146.66666666666666,250L-133.33333333333331,250L-120,245L-106.66666666666667,250L-93.33333333333333,250L-80,250L-66.66666666666666,245L-53.333333333333336,250L-40,250L-26.666666666666668,250L-13.333333333333334,247.5L0,247.5L13.333333333333334,250L26.666666666666668,250L40,250L53.333333333333336,250L66.66666666666666,250L80,247.5L93.33333333333333,250L106.66666666666667,250L120,247.5L133.33333333333331,250L146.66666666666666,250L160,250L173.33333333333334,250L186.66666666666666,250L200,250L213.33333333333334,250L226.66666666666666,250L240,250L253.33333333333331,250L266.66666666666663,250L280,250L293.3333333333333,250L306.6666666666667,250L320,250L333.33333333333337,250L346.6666666666667,250L360,250L373.3333333333333,250L386.6666666666667,250L400,250" style="fill: none; stroke: #f58518; stroke-width: 2; opacity: 0.2;"></path></g></g><path class="foreground" d="" style="display: none; fill: none;"></path></g><g transform="translate(0,0)"><path class="background" d="M0,0h400v300h-400Z" style="fill: none;"></path><g><g class="mark-line role-mark concat_0_layer_1_marks" clip-path="url(#clip6)"><path d="M-546.6666666666666,245L-533.3333333333333,242.5L-520,237.5L-506.66666666666663,212.49999999999997L-493.33333333333337,229.99999999999997L-480,227.5L-466.6666666666667,232.5L-453.3333333333333,250L-440.00000000000006,229.99999999999997L-426.6666666666667,222.5L-413.33333333333337,210L-400,205L-386.6666666666667,172.5L-373.3333333333333,195L-360,212.49999999999997L-346.6666666666667,227.5L-333.33333333333337,150L-320,174.99999999999997L-306.6666666666667,49.999999999999986L-293.3333333333333,52.500000000000014L-280,90.00000000000001L-266.66666666666663,12.49999999999999L-253.33333333333331,200.00000000000003L-240,100.00000000000001L-226.66666666666666,27.500000000000004L-213.33333333333334,87.49999999999999L-200,29.999999999999993L-186.66666666666666,67.5L-173.33333333333334,107.49999999999999L-160,85L-146.66666666666666,127.50000000000001L-133.33333333333331,37.5L-120,2.499999999999991L-106.66666666666667,137.5L-93.33333333333333,117.50000000000001L-80,77.49999999999999L-66.66666666666666,59.999999999999986L-53.333333333333336,190L-40,174.99999999999997L-26.666666666666668,170L-13.333333333333334,182.50000000000003L0,215L13.333333333333334,220.00000000000003L26.666666666666668,225L40,227.5L53.333333333333336,232.5L66.66666666666666,220.00000000000003L80,212.49999999999997L93.33333333333333,235L106.66666666666667,222.5L120,245L133.33333333333331,237.5L146.66666666666666,232.5L160,240L173.33333333333334,250L186.66666666666666,247.5L200,245L213.33333333333334,250L226.66666666666666,242.5L240,245L253.33333333333331,250L266.66666666666663,247.5L280,250L293.3333333333333,247.5L306.6666666666667,250L320,250L333.33333333333337,250L346.6666666666667,245L360,250L373.3333333333333,250L386.6666666666667,250L400,250" style="fill: none; stroke: #4c78a8; stroke-width: 2; opacity: 0.2;"></path></g></g><path class="foreground" d="" style="display: none; fill: none;"></path></g></g><g class="mark-group role-title"><g transform="translate(200,-22)"><path class="background" d="M0,0h0v0h0Z" style="pointer-events: none; fill: none;"></path><g><g class="mark-text role-title-text" style="pointer-events: none;"><text text-anchor="middle" transform="translate(0,10)" style="font-family: Roboto Condensed; font-size: 13px; font-weight: normal; fill: #000; opacity: 1;">7-day average (Daily values in light color)</text></g></g><path class="foreground" d="" style="pointer-events: none; display: none; fill: none;"></path></g></g></g><path class="foreground" d="" style="display: none; fill: none;"></path></g></g><g class="mark-group role-scope concat_1_group"><g transform="translate(445,0)"><path class="background" d="M0,0h400v300h-400Z" style="fill: none; stroke: #ddd; stroke-width: 0;"></path><g><g class="mark-group role-axis"><g transform="translate(0.5,0.5)"><path class="background" d="M0,0h0v0h0Z" style="pointer-events: none; fill: none;"></path><g><g class="mark-rule role-axis-grid" style="pointer-events: none;"><line transform="translate(0,300)" x2="400" y2="0" style="fill: none; stroke: #ddd; stroke-width: 1; opacity: 1;"></line><line transform="translate(0,270)" x2="400" y2="0" style="fill: none; stroke: #ddd; stroke-width: 1; opacity: 1;"></line><line transform="translate(0,240)" x2="400" y2="0" style="fill: none; stroke: #ddd; stroke-width: 1; opacity: 1;"></line><line transform="translate(0,210)" x2="400" y2="0" style="fill: none; stroke: #ddd; stroke-width: 1; opacity: 1;"></line><line transform="translate(0,180)" x2="400" y2="0" style="fill: none; stroke: #ddd; stroke-width: 1; opacity: 1;"></line><line transform="translate(0,150)" x2="400" y2="0" style="fill: none; stroke: #ddd; stroke-width: 1; opacity: 1;"></line><line transform="translate(0,120)" x2="400" y2="0" style="fill: none; stroke: #ddd; stroke-width: 1; opacity: 1;"></line><line transform="translate(0,90)" x2="400" y2="0" style="fill: none; stroke: #ddd; stroke-width: 1; opacity: 1;"></line><line transform="translate(0,60)" x2="400" y2="0" style="fill: none; stroke: #ddd; stroke-width: 1; opacity: 1;"></line><line transform="translate(0,30)" x2="400" y2="0" style="fill: none; stroke: #ddd; stroke-width: 1; opacity: 1;"></line><line transform="translate(0,0)" x2="400" y2="0" style="fill: none; stroke: #ddd; stroke-width: 1; opacity: 1;"></line></g></g><path class="foreground" d="" style="pointer-events: none; display: none; fill: none;"></path></g></g><g class="mark-group role-axis"><g transform="translate(0.5,300.5)"><path class="background" d="M0,0h0v0h0Z" style="pointer-events: none; fill: none;"></path><g><g class="mark-text role-axis-label" style="pointer-events: none;"><text text-anchor="start" transform="translate(0,10)" style="font-family: Roboto Condensed; font-size: 10px; fill: #000; opacity: 1;">Apr 11</text><text text-anchor="middle" transform="translate(26.666666666666668,10)" style="font-family: Roboto Condensed; font-size: 10px; fill: #000; opacity: 0;">Apr 13</text><text text-anchor="middle" transform="translate(53.333333333333336,10)" style="font-family: Roboto Condensed; font-size: 10px; fill: #000; opacity: 1;">Apr 15</text><text text-anchor="middle" transform="translate(80,10)" style="font-family: Roboto Condensed; font-size: 10px; fill: #000; opacity: 0;">Apr 17</text><text text-anchor="middle" transform="translate(106.66666666666667,10)" style="font-family: Roboto Condensed; font-size: 10px; fill: #000; opacity: 1;">Apr 19</text><text text-anchor="middle" transform="translate(133.33333333333331,10)" style="font-family: Roboto Condensed; font-size: 10px; fill: #000; opacity: 0;">Apr 21</text><text text-anchor="middle" transform="translate(160,10)" style="font-family: Roboto Condensed; font-size: 10px; fill: #000; opacity: 1;">Apr 23</text><text text-anchor="middle" transform="translate(186.66666666666666,10)" style="font-family: Roboto Condensed; font-size: 10px; fill: #000; opacity: 0;">Apr 25</text><text text-anchor="middle" transform="translate(213.33333333333334,10)" style="font-family: Roboto Condensed; font-size: 10px; fill: #000; opacity: 1;">Apr 27</text><text text-anchor="middle" transform="translate(240,10)" style="font-family: Roboto Condensed; font-size: 10px; fill: #000; opacity: 0;">Apr 29</text><text text-anchor="middle" transform="translate(266.66666666666663,10)" style="font-family: Roboto Condensed; font-size: 10px; fill: #000; opacity: 1;">May 01</text><text text-anchor="middle" transform="translate(293.3333333333333,10)" style="font-family: Roboto Condensed; font-size: 10px; fill: #000; opacity: 0;">May 03</text><text text-anchor="middle" transform="translate(320,10)" style="font-family: Roboto Condensed; font-size: 10px; fill: #000; opacity: 1;">May 05</text><text text-anchor="middle" transform="translate(346.6666666666667,10)" style="font-family: Roboto Condensed; font-size: 10px; fill: #000; opacity: 0;">May 07</text><text text-anchor="middle" transform="translate(373.3333333333333,10)" style="font-family: Roboto Condensed; font-size: 10px; fill: #000; opacity: 1;">May 09</text><text text-anchor="end" transform="translate(400,10)" style="font-family: Roboto Condensed; font-size: 10px; fill: #000; opacity: 0;">May 11</text></g><g class="mark-rule role-axis-domain" style="pointer-events: none;"><line transform="translate(0,0)" x2="400" y2="0" style="fill: none; stroke: lightgray; stroke-width: 1; opacity: 1;"></line></g></g><path class="foreground" d="" style="pointer-events: none; display: none; fill: none;"></path></g></g><g class="mark-group role-axis"><g transform="translate(0.5,0.5)"><path class="background" d="M0,0h0v0h0Z" style="pointer-events: none; fill: none;"></path><g><g class="mark-text role-axis-label" style="pointer-events: none;"><text text-anchor="end" transform="translate(-2,303)" style="font-family: Roboto Condensed; font-size: 10px; fill: #000; opacity: 1;">0</text><text text-anchor="end" transform="translate(-2,273)" style="font-family: Roboto Condensed; font-size: 10px; fill: #000; opacity: 1;">200</text><text text-anchor="end" transform="translate(-2,243)" style="font-family: Roboto Condensed; font-size: 10px; fill: #000; opacity: 1;">400</text><text text-anchor="end" transform="translate(-2,213)" style="font-family: Roboto Condensed; font-size: 10px; fill: #000; opacity: 1;">600</text><text text-anchor="end" transform="translate(-2,183)" style="font-family: Roboto Condensed; font-size: 10px; fill: #000; opacity: 1;">800</text><text text-anchor="end" transform="translate(-2,153)" style="font-family: Roboto Condensed; font-size: 10px; fill: #000; opacity: 1;">1,000</text><text text-anchor="end" transform="translate(-2,123)" style="font-family: Roboto Condensed; font-size: 10px; fill: #000; opacity: 1;">1,200</text><text text-anchor="end" transform="translate(-2,93.00000000000001)" style="font-family: Roboto Condensed; font-size: 10px; fill: #000; opacity: 1;">1,400</text><text text-anchor="end" transform="translate(-2,62.999999999999986)" style="font-family: Roboto Condensed; font-size: 10px; fill: #000; opacity: 1;">1,600</text><text text-anchor="end" transform="translate(-2,32.99999999999999)" style="font-family: Roboto Condensed; font-size: 10px; fill: #000; opacity: 1;">1,800</text><text text-anchor="end" transform="translate(-2,3)" style="font-family: Roboto Condensed; font-size: 10px; fill: #000; opacity: 1;">2,000</text></g><g class="mark-rule role-axis-domain" style="pointer-events: none;"><line transform="translate(0,300)" x2="0" y2="-300" style="fill: none; stroke: lightgray; stroke-width: 1; opacity: 1;"></line></g></g><path class="foreground" d="" style="pointer-events: none; display: none; fill: none;"></path></g></g><g class="mark-group role-scope concat_1_pathgroup"><g transform="translate(0,0)"><path class="background" d="M0,0h400v300h-400Z" style="fill: none;"></path><g><g class="mark-line role-mark concat_1_marks" clip-path="url(#clip7)"><path d="M-573.3333333333334,300L-560,300L-546.6666666666666,300L-533.3333333333333,300L-520,300L-506.66666666666663,300L-493.33333333333337,300L-480,300L-466.6666666666667,300L-453.3333333333333,300L-440.00000000000006,300L-426.6666666666667,299.85L-413.33333333333337,299.85L-400,299.85L-386.6666666666667,299.85L-373.3333333333333,299.85L-360,298.8L-346.6666666666667,300L-333.33333333333337,300L-320,299.25L-306.6666666666667,299.25L-293.3333333333333,299.25L-280,296.7L-266.66666666666663,299.25L-253.33333333333331,292.35L-240,292.35L-226.66666666666666,291.59999999999997L-213.33333333333334,287.7L-200,285.45L-186.66666666666666,282.9L-173.33333333333334,279.75L-160,276.45L-146.66666666666666,270.3L-133.33333333333331,266.25L-120,257.4L-106.66666666666667,253.65L-93.33333333333333,240.60000000000002L-80,235.8L-66.66666666666666,231L-53.333333333333336,216.14999999999998L-40,205.05L-26.666666666666668,196.8L-13.333333333333334,187.35000000000002L0,173.85L13.333333333333334,166.65L26.666666666666668,160.04999999999998L40,151.65L53.333333333333336,138.45000000000002L66.66666666666666,128.4L80,116.4L93.33333333333333,106.35000000000001L106.66666666666667,106.35000000000001L120,95.69999999999999L133.33333333333331,87.44999999999999L146.66666666666666,80.7L160,73.65000000000002L173.33333333333334,68.69999999999999L186.66666666666666,64.49999999999999L200,58.79999999999998L213.33333333333334,56.399999999999984L226.66666666666666,54.600000000000016L240,51.600000000000016L253.33333333333331,49.500000000000014L266.66666666666663,46.64999999999999L280,44.10000000000001L293.3333333333333,42.44999999999999L306.6666666666667,41.54999999999999L320,40.04999999999998L333.33333333333337,37.5L346.6666666666667,36.750000000000014L360,35.250000000000014L373.3333333333333,34.05000000000001L386.6666666666667,34.05000000000001L400,34.05000000000001" style="fill: none; stroke: #e45756; stroke-width: 2; opacity: 0.7;"></path></g></g><path class="foreground" d="" style="display: none; fill: none;"></path></g><g transform="translate(0,0)"><path class="background" d="M0,0h400v300h-400Z" style="fill: none;"></path><g><g class="mark-line role-mark concat_1_marks" clip-path="url(#clip8)"><path d="M-573.3333333333334,300L-560,300L-546.6666666666666,300L-533.3333333333333,300L-520,300L-506.66666666666663,300L-493.33333333333337,300L-480,300L-466.6666666666667,300L-453.3333333333333,300L-440.00000000000006,300L-426.6666666666667,300L-413.33333333333337,300L-400,300L-386.6666666666667,300L-373.3333333333333,300L-360,299.25L-346.6666666666667,300L-333.33333333333337,299.85L-320,299.85L-306.6666666666667,299.85L-293.3333333333333,300L-280,299.85L-266.66666666666663,299.85L-253.33333333333331,299.85L-240,299.7L-226.66666666666666,299.7L-213.33333333333334,299.7L-200,299.7L-186.66666666666666,299.7L-173.33333333333334,299.7L-160,299.7L-146.66666666666666,299.7L-133.33333333333331,299.7L-120,299.4L-106.66666666666667,299.4L-93.33333333333333,299.4L-80,299.4L-66.66666666666666,299.1L-53.333333333333336,299.1L-40,299.1L-26.666666666666668,299.1L-13.333333333333334,298.95L0,298.8L13.333333333333334,298.8L26.666666666666668,298.8L40,298.8L53.333333333333336,298.8L66.66666666666666,298.8L80,298.65000000000003L93.33333333333333,298.65000000000003L106.66666666666667,298.65000000000003L120,298.5L133.33333333333331,298.5L146.66666666666666,298.5L160,298.5L173.33333333333334,298.5L186.66666666666666,298.5L200,298.5L213.33333333333334,298.5L226.66666666666666,298.5L240,298.5L253.33333333333331,298.5L266.66666666666663,298.5L280,298.5L293.3333333333333,298.5L306.6666666666667,298.5L320,298.5L333.33333333333337,298.5L346.6666666666667,298.5L360,298.5L373.3333333333333,298.5L386.6666666666667,298.5L400,298.5" style="fill: none; stroke: #f58518; stroke-width: 2; opacity: 0.7;"></path></g></g><path class="foreground" d="" style="display: none; fill: none;"></path></g><g transform="translate(0,0)"><path class="background" d="M0,0h400v300h-400Z" style="fill: none;"></path><g><g class="mark-line role-mark concat_1_marks" clip-path="url(#clip9)"><path d="M-573.3333333333334,299.85L-560,299.85L-546.6666666666666,299.55L-533.3333333333333,299.1L-520,298.35L-506.66666666666663,296.1L-493.33333333333337,294.9L-480,293.55L-466.6666666666667,292.5L-453.3333333333333,292.5L-440.00000000000006,291.3L-426.6666666666667,289.65000000000003L-413.33333333333337,287.25L-400,284.55L-386.6666666666667,279.90000000000003L-373.3333333333333,276.6L-360,274.34999999999997L-346.6666666666667,273L-333.33333333333337,267L-320,262.5L-306.6666666666667,250.5L-293.3333333333333,238.65L-280,229.05L-266.66666666666663,214.79999999999998L-253.33333333333331,211.79999999999998L-240,202.79999999999998L-226.66666666666666,189.45L-213.33333333333334,179.7L-200,166.49999999999997L-186.66666666666666,155.54999999999998L-173.33333333333334,147L-160,137.1L-146.66666666666666,129.75L-133.33333333333331,117L-120,102.15L-106.66666666666667,95.39999999999999L-93.33333333333333,87.44999999999999L-80,77.10000000000001L-66.66666666666666,65.69999999999999L-53.333333333333336,62.09999999999999L-40,57.59999999999999L-26.666666666666668,52.80000000000001L-13.333333333333334,48.74999999999999L0,46.64999999999999L13.333333333333334,44.84999999999999L26.666666666666668,43.34999999999999L40,42.00000000000001L53.333333333333336,40.94999999999999L66.66666666666666,39.149999999999984L80,36.9L93.33333333333333,36L106.66666666666667,34.350000000000016L120,34.05000000000001L133.33333333333331,33.3L146.66666666666666,32.250000000000014L160,31.650000000000013L173.33333333333334,31.650000000000013L186.66666666666666,31.499999999999993L200,31.199999999999996L213.33333333333334,31.199999999999996L226.66666666666666,30.75000000000001L240,30.45000000000001L253.33333333333331,30.45000000000001L266.66666666666663,30.299999999999994L280,30.299999999999994L293.3333333333333,30.15000000000001L306.6666666666667,30.15000000000001L320,30.15000000000001L333.33333333333337,30.15000000000001L346.6666666666667,29.85000000000001L360,29.85000000000001L373.3333333333333,29.85000000000001L386.6666666666667,29.85000000000001L400,29.85000000000001" style="fill: none; stroke: #4c78a8; stroke-width: 2; opacity: 0.7;"></path></g></g><path class="foreground" d="" style="display: none; fill: none;"></path></g></g><g class="mark-group role-title"><g transform="translate(200,-22)"><path class="background" d="M0,0h0v0h0Z" style="pointer-events: none; fill: none;"></path><g><g class="mark-text role-title-text" style="pointer-events: none;"><text text-anchor="middle" transform="translate(0,10)" style="font-family: Roboto Condensed; font-size: 13px; font-weight: normal; fill: #000; opacity: 1;">Total</text></g></g><path class="foreground" d="" style="pointer-events: none; display: none; fill: none;"></path></g></g></g><path class="foreground" d="" style="display: none; fill: none;"></path></g></g><g class="mark-group role-legend"><g transform="translate(863,0)"><path class="background" d="M0,0h60v37h-60Z" style="pointer-events: none; fill: none;"></path><g><g class="mark-group role-legend-entry"><g transform="translate(0,0)"><path class="background" d="M0,0h0v0h0Z" style="pointer-events: none; fill: none;"></path><g><g class="mark-group role-scope"><g transform="translate(0,0)"><path class="background" d="M0,0h59.3251953125v11h-59.3251953125Z" style="pointer-events: none; fill: none; opacity: 1;"></path><g><g class="mark-symbol role-legend-symbol" style="pointer-events: none;"><path transform="translate(6,6)" d="M-5,0L5,0" style="fill: none; stroke: #4c78a8; stroke-width: 1.5; opacity: 1;"></path></g><g class="mark-text role-legend-label" style="pointer-events: none;"><text text-anchor="start" transform="translate(16,9)" style="font-family: Roboto Condensed; font-size: 10px; fill: #000; opacity: 1;">Confirmed</text></g></g><path class="foreground" d="" style="pointer-events: none; display: none; fill: none;"></path></g><g transform="translate(0,13)"><path class="background" d="M0,0h59.3251953125v11h-59.3251953125Z" style="pointer-events: none; fill: none; opacity: 1;"></path><g><g class="mark-symbol role-legend-symbol" style="pointer-events: none;"><path transform="translate(6,6)" d="M-5,0L5,0" style="fill: none; stroke: #f58518; stroke-width: 1.5; opacity: 1;"></path></g><g class="mark-text role-legend-label" style="pointer-events: none;"><text text-anchor="start" transform="translate(16,9)" style="font-family: Roboto Condensed; font-size: 10px; fill: #000; opacity: 1;">Deaths</text></g></g><path class="foreground" d="" style="pointer-events: none; display: none; fill: none;"></path></g><g transform="translate(0,26)"><path class="background" d="M0,0h59.3251953125v11h-59.3251953125Z" style="pointer-events: none; fill: none; opacity: 1;"></path><g><g class="mark-symbol role-legend-symbol" style="pointer-events: none;"><path transform="translate(6,6)" d="M-5,0L5,0" style="fill: none; stroke: #e45756; stroke-width: 1.5; opacity: 1;"></path></g><g class="mark-text role-legend-label" style="pointer-events: none;"><text text-anchor="start" transform="translate(16,9)" style="font-family: Roboto Condensed; font-size: 10px; fill: #000; opacity: 1;">Recovered</text></g></g><path class="foreground" d="" style="pointer-events: none; display: none; fill: none;"></path></g></g></g><path class="foreground" d="" style="pointer-events: none; display: none; fill: none;"></path></g></g></g><path class="foreground" d="" style="pointer-events: none; display: none; fill: none;"></path></g></g></g><path class="foreground" d="" style="display: none; fill: none;"></path></g></g></g></svg>