<svg class="marks" width="995" height="311" viewBox="0 0 995 311" version="1.1" xmlns="http://www.w3.org/2000/svg" xmlns:xlink="http://www.w3.org/1999/xlink"><rect width="995" height="311" style="fill: white;"></rect><defs><clipPath id="clip1"><rect x="0" y="0" width="266.6666666666667" height="266.6666666666667"></rect></clipPath><clipPath id="clip2"><rect x="0" y="0" width="266.6666666666667" height="266.6666666666667"></rect></clipPath><clipPath id="clip3"><rect x="0" y="0" width="266.6666666666667" height="266.6666666666667"></rect></clipPath><clipPath id="clip4"><rect x="0" y="0" width="266.6666666666667" height="266.6666666666667"></rect></clipPath><clipPath id="clip5"><rect x="0" y="0" width="266.6666666666667" height="266.6666666666667"></rect></clipPath><clipPath id="clip6"><rect x="0" y="0" width="266.6666666666667" height="266.6666666666667"></rect></clipPath><clipPath id="clip7"><rect x="0" y="0" width="266.6666666666667" height="266.6666666666667"></rect></clipPath><clipPath id="clip8"><rect x="0" y="0" width="266.6666666666667" height="266.6666666666667"></rect></clipPath><clipPath id="clip9"><rect x="0" y="0" width="266.6666666666667" height="266.6666666666667"></rect></clipPath><clipPath id="clip10"><rect x="0" y="0" width="266.6666666666667" height="266.6666666666667"></rect></clipPath><clipPath id="clip11"><rect x="0" y="0" width="266.6666666666667" height="266.6666666666667"></rect></clipPath><clipPath id="clip12"><rect x="0" y="0" width="266.6666666666667" height="266.6666666666667"></rect></clipPath><clipPath id="clip13"><rect x="0" y="0" width="266.6666666666667" height="266.6666666666667"></rect></clipPath><clipPath id="clip14"><rect x="0" y="0" width="266.6666666666667" height="266.6666666666667"></rect></clipPath><clipPath id="clip15"><rect x="0" y="0" width="266.6666666666667" height="266.6666666666667"></rect></clipPath></defs><g transform="translate(22,27)"><g class="mark-group role-frame root"><g transform="translate(0,0)"><path class="background" d="M0,0h0v0h0Z" style="fill: none;"></path><g><g class="mark-group role-scope concat_0_group"><g transform="translate(0,0)"><path class="background" d="M0,0h0v0h0Z" style="fill: none;"></path><g><g class="mark-group role-scope concat_0_concat_0_group"><g transform="translate(0,0)"><path class="background" d="M0,0h266.6666666666667v266.6666666666667h-266.6666666666667Z" style="fill: none; stroke: #ddd; stroke-width: 0;"></path><g><g class="mark-group role-axis"><g transform="translate(0.5,0.5)"><path class="background" d="M0,0h0v0h0Z" style="pointer-events: none; fill: none;"></path><g><g class="mark-rule role-axis-grid" style="pointer-events: none;"><line transform="translate(0,267)" x2="266.6666666666667" y2="0" style="fill: none; stroke: #ddd; stroke-width: 1; opacity: 1;"></line><line transform="translate(0,226)" x2="266.6666666666667" y2="0" style="fill: none; stroke: #ddd; stroke-width: 1; opacity: 1;"></line><line transform="translate(0,185)" x2="266.6666666666667" y2="0" style="fill: none; stroke: #ddd; stroke-width: 1; opacity: 1;"></line><line transform="translate(0,144)" x2="266.6666666666667" y2="0" style="fill: none; stroke: #ddd; stroke-width: 1; opacity: 1;"></line><line transform="translate(0,103)" x2="266.6666666666667" y2="0" style="fill: none; stroke: #ddd; stroke-width: 1; opacity: 1;"></line><line transform="translate(0,62)" x2="266.6666666666667" y2="0" style="fill: none; stroke: #ddd; stroke-width: 1; opacity: 1;"></line><line transform="translate(0,21)" x2="266.6666666666667" y2="0" style="fill: none; stroke: #ddd; stroke-width: 1; opacity: 1;"></line></g></g><path class="foreground" d="" style="pointer-events: none; display: none; fill: none;"></path></g></g><g class="mark-group role-axis"><g transform="translate(0.5,267.1666666666667)"><path class="background" d="M0,0h0v0h0Z" style="pointer-events: none; fill: none;"></path><g><g class="mark-text role-axis-label" style="pointer-events: none;"><text text-anchor="middle" transform="translate(8.88888888888889,10)" style="font-family: Roboto Condensed; font-size: 10px; fill: #000; opacity: 1;">Apr 12</text><text text-anchor="middle" transform="translate(71.11111111111111,10)" style="font-family: Roboto Condensed; font-size: 10px; fill: #000; opacity: 1;">Apr 19</text><text text-anchor="middle" transform="translate(133.33333333333334,10)" style="font-family: Roboto Condensed; font-size: 10px; fill: #000; opacity: 1;">Apr 26</text><text text-anchor="middle" transform="translate(195.55555555555554,10)" style="font-family: Roboto Condensed; font-size: 10px; fill: #000; opacity: 1;">May 03</text><text text-anchor="middle" transform="translate(257.77777777777777,10)" style="font-family: Roboto Condensed; font-size: 10px; fill: #000; opacity: 1;">May 10</text></g><g class="mark-rule role-axis-domain" style="pointer-events: none;"><line transform="translate(0,0)" x2="266.6666666666667" y2="0" style="fill: none; stroke: lightgray; stroke-width: 1; opacity: 1;"></line></g></g><path class="foreground" d="" style="pointer-events: none; display: none; fill: none;"></path></g></g><g class="mark-group role-axis"><g transform="translate(0.5,0.5)"><path class="background" d="M0,0h0v0h0Z" style="pointer-events: none; fill: none;"></path><g><g class="mark-text role-axis-label" style="pointer-events: none;"><text text-anchor="end" transform="translate(-2,269.6666666666667)" style="font-family: Roboto Condensed; font-size: 10px; fill: #000; opacity: 1;">0</text><text text-anchor="end" transform="translate(-2,228.64102564102566)" style="font-family: Roboto Condensed; font-size: 10px; fill: #000; opacity: 1;">100</text><text text-anchor="end" transform="translate(-2,187.6153846153846)" style="font-family: Roboto Condensed; font-size: 10px; fill: #000; opacity: 1;">200</text><text text-anchor="end" transform="translate(-2,146.5897435897436)" style="font-family: Roboto Condensed; font-size: 10px; fill: #000; opacity: 1;">300</text><text text-anchor="end" transform="translate(-2,105.56410256410257)" style="font-family: Roboto Condensed; font-size: 10px; fill: #000; opacity: 1;">400</text><text text-anchor="end" transform="translate(-2,64.53846153846153)" style="font-family: Roboto Condensed; font-size: 10px; fill: #000; opacity: 1;">500</text><text text-anchor="end" transform="translate(-2,23.5128205128205)" style="font-family: Roboto Condensed; font-size: 10px; fill: #000; opacity: 1;">600</text></g><g class="mark-rule role-axis-domain" style="pointer-events: none;"><line transform="translate(0,266.6666666666667)" x2="0" y2="-266.6666666666667" style="fill: none; stroke: lightgray; stroke-width: 1; opacity: 1;"></line></g></g><path class="foreground" d="" style="pointer-events: none; display: none; fill: none;"></path></g></g><g class="mark-group role-scope concat_0_concat_0_pathgroup"><g transform="translate(0,0)"><path class="background" d="M0,0h266.6666666666667v266.6666666666667h-266.6666666666667Z" style="fill: none;"></path><g><g class="mark-line role-mark concat_0_concat_0_marks" clip-path="url(#clip1)"><path d="M-364.44444444444446,266.6666666666667L-355.55555555555554,266.6666666666667L-346.6666666666667,266.6666666666667L-337.77777777777777,266.6666666666667L-328.8888888888889,266.6666666666667L-320,266.6666666666667L-311.11111111111114,265.4945054945055L-302.22222222222223,264.8498168498169L-293.33333333333337,261.62637362637366L-284.44444444444446,251.66300366300368L-275.5555555555556,241.23076923076925L-266.6666666666667,231.09157509157512L-257.77777777777777,220.8937728937729L-248.8888888888889,219.01831501831504L-240.00000000000003,217.43589743589746L-231.11111111111114,217.31868131868134L-222.22222222222226,222.00732600732601L-213.33333333333337,227.34065934065936L-204.44444444444449,231.03296703296704L-195.55555555555554,235.42857142857144L-186.66666666666666,232.43956043956047L-177.77777777777777,229.2161172161172L-168.88888888888889,229.1575091575092L-160,225.99267399267399L-151.11111111111111,222.8864468864469L-142.22222222222223,219.8974358974359L-133.33333333333334,216.0879120879121L-124.44444444444446,211.22344322344324L-115.55555555555557,205.12820512820514L-106.66666666666669,197.33333333333334L-97.77777777777777,189.24542124542128L-88.88888888888889,182.97435897435898L-80,175.82417582417585L-71.11111111111111,164.33699633699632L-62.22222222222223,155.13553113553118L-53.33333333333334,149.62637362637366L-44.44444444444444,142.41758241758245L-35.55555555555556,136.14652014652015L-26.66666666666667,131.45787545787547L-17.77777777777778,134.3882783882784L-8.88888888888889,145.4652014652015L0,154.02197802197804L8.88888888888889,160.70329670329673L17.77777777777778,170.66666666666669L26.66666666666667,182.27106227106228L35.55555555555556,191.7069597069597L44.44444444444444,193.75824175824175L53.33333333333334,193.17216117216117L62.22222222222223,193.64102564102566L71.11111111111111,195.6923076923077L80,196.45421245421247L88.88888888888889,197.21611721611723L97.77777777777777,194.46153846153848L106.66666666666669,196.51282051282053L115.55555555555557,199.85347985347985L124.44444444444446,195.985347985348L133.33333333333334,196.74725274725276L142.22222222222223,197.21611721611723L151.11111111111111,198.7985347985348L160,202.3150183150183L168.88888888888889,203.0769230769231L177.77777777777777,202.13919413919416L186.66666666666666,210.2857142857143L195.55555555555554,211.10622710622712L204.44444444444449,209.69963369963372L213.33333333333337,209.81684981684984L222.22222222222226,212.1611721611722L231.11111111111114,212.4542124542125L240.00000000000003,213.50915750915752L248.8888888888889,213.21611721611723L257.77777777777777,213.56776556776558L266.6666666666667,217.26007326007326" style="fill: none; stroke: #4c78a8; stroke-width: 2; opacity: 1;"></path></g></g><path class="foreground" d="" style="display: none; fill: none;"></path></g><g transform="translate(0,0)"><path class="background" d="M0,0h266.6666666666667v266.6666666666667h-266.6666666666667Z" style="fill: none;"></path><g><g class="mark-line role-mark concat_0_concat_0_marks" clip-path="url(#clip2)"><path d="M-364.44444444444446,266.6666666666667L-355.55555555555554,266.6666666666667L-346.6666666666667,266.6666666666667L-337.77777777777777,266.6666666666667L-328.8888888888889,266.6666666666667L-320,266.6666666666667L-311.11111111111114,265.96336996337L-302.22222222222223,265.6703296703297L-293.33333333333337,265.2600732600733L-284.44444444444446,264.6739926739927L-275.5555555555556,263.5604395604396L-266.6666666666667,263.91208791208794L-257.77777777777777,258.46153846153845L-248.8888888888889,254.35897435897436L-240.00000000000003,253.71428571428572L-231.11111111111114,252.1904761904762L-222.22222222222226,250.19780219780222L-213.33333333333337,250.43223443223445L-204.44444444444449,246.6813186813187L-195.55555555555554,249.3772893772894L-186.66666666666666,249.2014652014652L-177.77777777777777,244.2783882783883L-168.88888888888889,241.87545787545787L-160,239.06227106227107L-151.11111111111111,234.78388278388283L-142.22222222222223,233.96336996336996L-133.33333333333334,232.02930402930403L-124.44444444444446,228.92307692307696L-115.55555555555557,230.68131868131871L-106.66666666666669,228.45421245421247L-97.77777777777777,229.97802197802199L-88.88888888888889,233.49450549450552L-80,233.84615384615387L-71.11111111111111,233.02564102564105L-62.22222222222223,224.7619047619048L-53.33333333333334,226.40293040293042L-44.44444444444444,218.3736263736264L-35.55555555555556,214.50549450549454L-26.66666666666667,205.65567765567766L-17.77777777777778,202.95970695970698L-8.88888888888889,199.03296703296704L0,206.71062271062272L8.88888888888889,205.3040293040293L17.77777777777778,214.62271062271063L26.66666666666667,216.67399267399267L35.55555555555556,222.71062271062274L44.44444444444444,221.8901098901099L53.33333333333334,224.4688644688645L62.22222222222223,221.1868131868132L71.11111111111111,219.25274725274727L80,219.54578754578756L88.88888888888889,216.67399267399267L97.77777777777777,214.3882783882784L106.66666666666669,213.04029304029308L115.55555555555557,213.56776556776558L124.44444444444446,220.13186813186815L133.33333333333334,220.1904761904762L142.22222222222223,218.19780219780222L151.11111111111111,224.11721611721615L160,221.12820512820514L168.88888888888889,224.99633699633702L177.77777777777777,228.21978021978023L186.66666666666666,225.5824175824176L195.55555555555554,226.93040293040295L204.44444444444449,229.62637362637363L213.33333333333337,227.2820512820513L222.22222222222226,227.5750915750916L231.11111111111114,226.93040293040295L240.00000000000003,226.40293040293042L248.8888888888889,225.4065934065934L257.77777777777777,225.1721611721612L266.6666666666667,228.16117216117217" style="fill: none; stroke: #f58518; stroke-width: 2; opacity: 1;"></path></g></g><path class="foreground" d="" style="display: none; fill: none;"></path></g><g transform="translate(0,0)"><path class="background" d="M0,0h266.6666666666667v266.6666666666667h-266.6666666666667Z" style="fill: none;"></path><g><g class="mark-line role-mark concat_0_concat_0_marks" clip-path="url(#clip3)"><path d="M-364.44444444444446,266.6666666666667L-355.55555555555554,266.6666666666667L-346.6666666666667,266.6666666666667L-337.77777777777777,266.6666666666667L-328.8888888888889,266.6666666666667L-320,266.6666666666667L-311.11111111111114,263.7948717948718L-302.22222222222223,263.91208791208794L-293.33333333333337,263.61904761904765L-284.44444444444446,263.2673992673993L-275.5555555555556,263.20879120879124L-266.6666666666667,262.62271062271066L-257.77777777777777,261.33333333333337L-248.8888888888889,260.4542124542125L-240.00000000000003,259.5750915750916L-231.11111111111114,259.51648351648356L-222.22222222222226,257.81684981684987L-213.33333333333337,256.996336996337L-204.44444444444449,253.36263736263737L-195.55555555555554,250.54945054945057L-186.66666666666666,248.0879120879121L-177.77777777777777,243.39926739926742L-168.88888888888889,242.75457875457877L-160,241.58241758241758L-151.11111111111111,238.12454212454213L-142.22222222222223,239.003663003663L-133.33333333333334,238.4761904761905L-124.44444444444446,237.94871794871796L-115.55555555555557,240.17582417582418L-106.66666666666669,237.4798534798535L-97.77777777777777,238.12454212454213L-88.88888888888889,238.35897435897436L-80,236.36630036630038L-71.11111111111111,238.88644688644692L-62.22222222222223,240.0586080586081L-53.33333333333334,239.3553113553114L-44.44444444444444,238.7692307692308L-35.55555555555556,240.23443223443226L-26.66666666666667,243.45787545787547L-17.77777777777778,247.38461538461542L-8.88888888888889,248.43956043956047L0,250.72527472527474L8.88888888888889,254.06593406593407L17.77777777777778,257.9340659340659L26.66666666666667,258.8131868131868L35.55555555555556,260.1611721611722L44.44444444444444,261.33333333333337L53.33333333333334,262.0366300366301L62.22222222222223,262.50549450549454L71.11111111111111,262.5641025641026L80,263.03296703296706L88.88888888888889,263.2673992673993L97.77777777777777,263.2673992673993L106.66666666666669,263.73626373626377L115.55555555555557,264.61538461538464L124.44444444444446,264.90842490842493L133.33333333333334,265.43589743589746L142.22222222222223,265.5531135531136L151.11111111111111,265.6703296703297L160,265.96336996337L168.88888888888889,266.1978021978022L177.77777777777777,266.13919413919416L186.66666666666666,266.1978021978022L195.55555555555554,266.2564102564103L204.44444444444449,266.2564102564103L213.33333333333337,266.43223443223445L222.22222222222226,266.54945054945057L231.11111111111114,266.43223443223445L240.00000000000003,266.4908424908425L248.8888888888889,266.4908424908425L257.77777777777777,266.54945054945057L266.6666666666667,266.54945054945057" style="fill: none; stroke: #e45756; stroke-width: 2; opacity: 1;"></path></g></g><path class="foreground" d="" style="display: none; fill: none;"></path></g><g transform="translate(0,0)"><path class="background" d="M0,0h266.6666666666667v266.6666666666667h-266.6666666666667Z" style="fill: none;"></path><g><g class="mark-line role-mark concat_0_concat_0_marks" clip-path="url(#clip4)"><path d="M-364.44444444444446,266.6666666666667L-355.55555555555554,266.6666666666667L-346.6666666666667,266.6666666666667L-337.77777777777777,266.6666666666667L-328.8888888888889,266.6666666666667L-320,266.6666666666667L-311.11111111111114,258.930402930403L-302.22222222222223,257.46520146520146L-293.33333333333337,256.1172161172161L-284.44444444444446,245.0989010989011L-275.5555555555556,234.90109890109892L-266.6666666666667,230.62271062271066L-257.77777777777777,214.62271062271063L-248.8888888888889,211.39926739926742L-240.00000000000003,205.42124542124546L-231.11111111111114,200.55677655677655L-222.22222222222226,204.36630036630038L-213.33333333333337,210.8717948717949L-204.44444444444449,205.4798534798535L-195.55555555555554,212.86446886446888L-186.66666666666666,206.41758241758242L-177.77777777777777,205.5970695970696L-168.88888888888889,191.1794871794872L-160,184.6153846153846L-151.11111111111111,176.76190476190476L-142.22222222222223,171.54578754578756L-133.33333333333334,158.76923076923077L-124.44444444444446,155.4871794871795L-115.55555555555557,148.2197802197802L-106.66666666666669,159.76556776556777L-97.77777777777777,162.46153846153848L-88.88888888888889,162.4029304029304L-80,162.46153846153848L-71.11111111111111,172.014652014652L-62.22222222222223,176.70329670329673L-53.33333333333334,184.43956043956044L-44.44444444444444,183.44322344322345L-35.55555555555556,181.97802197802199L-26.66666666666667,194.989010989011L-17.77777777777778,204.30769230769232L-8.88888888888889,211.34065934065933L0,216.32234432234432L8.88888888888889,217.55311355311355L17.77777777777778,223.41391941391942L26.66666666666667,235.1941391941392L35.55555555555556,228.33699633699632L44.44444444444444,226.52014652014654L53.33333333333334,230.15384615384616L62.22222222222223,229.91941391941393L71.11111111111111,234.25641025641025L80,234.25641025641025L88.88888888888889,233.37728937728937L97.77777777777777,231.61904761904762L106.66666666666669,237.06959706959708L115.55555555555557,235.83882783882785L124.44444444444446,239.53113553113553L133.33333333333334,240.35164835164838L142.22222222222223,240.7032967032967L151.11111111111111,239.1794871794872L160,244.86446886446888L168.88888888888889,246.91575091575092L177.77777777777777,247.91208791208794L186.66666666666666,248.49816849816852L195.55555555555554,247.91208791208794L204.44444444444449,248.79120879120882L213.33333333333337,249.3772893772894L222.22222222222226,249.90476190476193L231.11111111111114,249.31868131868134L240.00000000000003,249.84615384615387L248.8888888888889,249.6703296703297L257.77777777777777,251.5457875457876L266.6666666666667,253.30402930402934" style="fill: none; stroke: #72b7b2; stroke-width: 2; opacity: 1;"></path></g></g><path class="foreground" d="" style="display: none; fill: none;"></path></g><g transform="translate(0,0)"><path class="background" d="M0,0h266.6666666666667v266.6666666666667h-266.6666666666667Z" style="fill: none;"></path><g><g class="mark-line role-mark concat_0_concat_0_marks" clip-path="url(#clip5)"><path d="M-364.44444444444446,266.6666666666667L-355.55555555555554,266.6666666666667L-346.6666666666667,266.6666666666667L-337.77777777777777,266.6666666666667L-328.8888888888889,266.6666666666667L-320,266.6666666666667L-311.11111111111114,257.9340659340659L-302.22222222222223,255.58974358974362L-293.33333333333337,253.01098901098905L-284.44444444444446,247.09157509157512L-275.5555555555556,239.41391941391944L-266.6666666666667,237.06959706959708L-257.77777777777777,224.87912087912088L-248.8888888888889,219.7802197802198L-240.00000000000003,218.66666666666669L-231.11111111111114,216.55677655677658L-222.22222222222226,217.72893772893775L-213.33333333333337,221.01098901098902L-204.44444444444449,217.43589743589746L-195.55555555555554,218.31501831501834L-186.66666666666666,219.66300366300368L-177.77777777777777,213.3919413919414L-168.88888888888889,211.39926739926742L-160,202.43223443223445L-151.11111111111111,193.5824175824176L-142.22222222222223,184.55677655677658L-133.33333333333334,182.85714285714286L-124.44444444444446,167.97069597069597L-115.55555555555557,162.98901098901098L-106.66666666666669,150.50549450549454L-97.77777777777777,140.71794871794873L-88.88888888888889,124.77655677655679L-80,106.78388278388279L-71.11111111111111,87.20879120879121L-62.22222222222223,91.0769230769231L-53.33333333333334,83.22344322344323L-44.44444444444444,80.41025641025641L-35.55555555555556,75.72161172161171L-26.66666666666667,63.179487179487175L-17.77777777777778,57.260073260073256L-8.88888888888889,58.37362637362637L0,49.34798534798537L8.88888888888889,52.571428571428555L17.77777777777778,47.35531135531138L26.66666666666667,46.76923076923077L35.55555555555556,61.06959706959705L44.44444444444444,67.45787545787549L53.33333333333334,59.72161172161173L62.22222222222223,51.51648351648352L71.11111111111111,37.97802197802198L80,42.25641025641025L88.88888888888889,39.44322344322344L97.77777777777777,27.721611721611726L106.66666666666669,19.633699633699653L115.55555555555557,11.663003663003657L124.44444444444446,11.428571428571448L133.33333333333334,17.28937728937729L142.22222222222223,23.501831501831532L151.11111111111111,14.710622710622713L160,14.769230769230765L168.88888888888889,12.483516483516482L177.77777777777777,34.98901098901101L186.66666666666666,37.80219780219779L195.55555555555554,51.16483516483515L204.44444444444449,44.24908424908427L213.33333333333337,55.970695970695985L222.22222222222226,54.739926739926766L231.11111111111114,59.72161172161173L240.00000000000003,47.17948717948719L248.8888888888889,41.670329670329664L257.77777777777777,31.94139194139195L266.6666666666667,35.22344322344324" style="fill: none; stroke: #54a24b; stroke-width: 2; opacity: 1;"></path></g></g><path class="foreground" d="" style="display: none; fill: none;"></path></g></g><g class="mark-group role-title"><g transform="translate(133.33333333333334,-17)"><path class="background" d="M0,0h0v0h0Z" style="pointer-events: none; fill: none;"></path><g><g class="mark-text role-title-text" style="pointer-events: none;"><text text-anchor="middle" transform="translate(0,10)" style="font-family: Roboto Condensed; font-size: 13px; font-weight: normal; fill: #000; opacity: 1;">Confirmed/7-day average</text></g></g><path class="foreground" d="" style="pointer-events: none; display: none; fill: none;"></path></g></g></g><path class="foreground" d="" style="display: none; fill: none;"></path></g></g><g class="mark-group role-scope concat_0_concat_1_group"><g transform="translate(311,0)"><path class="background" d="M0,0h266.6666666666667v266.6666666666667h-266.6666666666667Z" style="fill: none; stroke: #ddd; stroke-width: 0;"></path><g><g class="mark-group role-axis"><g transform="translate(0.5,0.5)"><path class="background" d="M0,0h0v0h0Z" style="pointer-events: none; fill: none;"></path><g><g class="mark-rule role-axis-grid" style="pointer-events: none;"><line transform="translate(0,267)" x2="266.6666666666667" y2="0" style="fill: none; stroke: #ddd; stroke-width: 1; opacity: 1;"></line><line transform="translate(0,218)" x2="266.6666666666667" y2="0" style="fill: none; stroke: #ddd; stroke-width: 1; opacity: 1;"></line><line transform="translate(0,170)" x2="266.6666666666667" y2="0" style="fill: none; stroke: #ddd; stroke-width: 1; opacity: 1;"></line><line transform="translate(0,121)" x2="266.6666666666667" y2="0" style="fill: none; stroke: #ddd; stroke-width: 1; opacity: 1;"></line><line transform="translate(0,73)" x2="266.6666666666667" y2="0" style="fill: none; stroke: #ddd; stroke-width: 1; opacity: 1;"></line><line transform="translate(0,24)" x2="266.6666666666667" y2="0" style="fill: none; stroke: #ddd; stroke-width: 1; opacity: 1;"></line></g></g><path class="foreground" d="" style="pointer-events: none; display: none; fill: none;"></path></g></g><g class="mark-group role-axis"><g transform="translate(0.5,267.1666666666667)"><path class="background" d="M0,0h0v0h0Z" style="pointer-events: none; fill: none;"></path><g><g class="mark-text role-axis-label" style="pointer-events: none;"><text text-anchor="middle" transform="translate(8.88888888888889,10)" style="font-family: Roboto Condensed; font-size: 10px; fill: #000; opacity: 1;">Apr 12</text><text text-anchor="middle" transform="translate(71.11111111111111,10)" style="font-family: Roboto Condensed; font-size: 10px; fill: #000; opacity: 1;">Apr 19</text><text text-anchor="middle" transform="translate(133.33333333333334,10)" style="font-family: Roboto Condensed; font-size: 10px; fill: #000; opacity: 1;">Apr 26</text><text text-anchor="middle" transform="translate(195.55555555555554,10)" style="font-family: Roboto Condensed; font-size: 10px; fill: #000; opacity: 1;">May 03</text><text text-anchor="middle" transform="translate(257.77777777777777,10)" style="font-family: Roboto Condensed; font-size: 10px; fill: #000; opacity: 1;">May 10</text></g><g class="mark-rule role-axis-domain" style="pointer-events: none;"><line transform="translate(0,0)" x2="266.6666666666667" y2="0" style="fill: none; stroke: lightgray; stroke-width: 1; opacity: 1;"></line></g></g><path class="foreground" d="" style="pointer-events: none; display: none; fill: none;"></path></g></g><g class="mark-group role-axis"><g transform="translate(0.5,0.5)"><path class="background" d="M0,0h0v0h0Z" style="pointer-events: none; fill: none;"></path><g><g class="mark-text role-axis-label" style="pointer-events: none;"><text text-anchor="end" transform="translate(-2,269.6666666666667)" style="font-family: Roboto Condensed; font-size: 10px; fill: #000; opacity: 1;">0</text><text text-anchor="end" transform="translate(-2,221.1818181818182)" style="font-family: Roboto Condensed; font-size: 10px; fill: #000; opacity: 1;">20</text><text text-anchor="end" transform="translate(-2,172.69696969696972)" style="font-family: Roboto Condensed; font-size: 10px; fill: #000; opacity: 1;">40</text><text text-anchor="end" transform="translate(-2,124.21212121212123)" style="font-family: Roboto Condensed; font-size: 10px; fill: #000; opacity: 1;">60</text><text text-anchor="end" transform="translate(-2,75.72727272727273)" style="font-family: Roboto Condensed; font-size: 10px; fill: #000; opacity: 1;">80</text><text text-anchor="end" transform="translate(-2,27.242424242424253)" style="font-family: Roboto Condensed; font-size: 10px; fill: #000; opacity: 1;">100</text></g><g class="mark-rule role-axis-domain" style="pointer-events: none;"><line transform="translate(0,266.6666666666667)" x2="0" y2="-266.6666666666667" style="fill: none; stroke: lightgray; stroke-width: 1; opacity: 1;"></line></g></g><path class="foreground" d="" style="pointer-events: none; display: none; fill: none;"></path></g></g><g class="mark-group role-scope concat_0_concat_1_pathgroup"><g transform="translate(0,0)"><path class="background" d="M0,0h266.6666666666667v266.6666666666667h-266.6666666666667Z" style="fill: none;"></path><g><g class="mark-line role-mark concat_0_concat_1_marks" clip-path="url(#clip6)"><path d="M-364.44444444444446,266.6666666666667L-355.55555555555554,266.6666666666667L-346.6666666666667,266.6666666666667L-337.77777777777777,266.6666666666667L-328.8888888888889,266.6666666666667L-320,266.6666666666667L-311.11111111111114,266.6666666666667L-302.22222222222223,266.6666666666667L-293.33333333333337,266.6666666666667L-284.44444444444446,266.6666666666667L-275.5555555555556,266.6666666666667L-266.6666666666667,266.6666666666667L-257.77777777777777,266.6666666666667L-248.8888888888889,266.32034632034635L-240.00000000000003,265.974025974026L-231.11111111111114,265.62770562770567L-222.22222222222226,265.2813852813853L-213.33333333333337,265.2813852813853L-204.44444444444449,264.5887445887446L-195.55555555555554,263.54978354978357L-186.66666666666666,262.51082251082255L-177.77777777777777,262.8571428571429L-168.88888888888889,259.39393939393943L-160,256.969696969697L-151.11111111111111,256.2770562770563L-142.22222222222223,254.54545454545456L-133.33333333333334,251.7748917748918L-124.44444444444446,248.65800865800867L-115.55555555555557,246.23376623376626L-106.66666666666669,248.31168831168833L-97.77777777777777,246.5800865800866L-88.88888888888889,242.42424242424244L-80,238.26839826839827L-71.11111111111111,236.53679653679657L-62.22222222222223,233.41991341991343L-53.33333333333334,229.61038961038963L-44.44444444444444,228.5714285714286L-35.55555555555556,227.53246753246756L-26.66666666666667,227.18614718614722L-17.77777777777778,227.18614718614722L-8.88888888888889,229.26406926406926L0,232.3809523809524L8.88888888888889,234.1125541125541L17.77777777777778,232.72727272727275L26.66666666666667,233.41991341991343L35.55555555555556,235.15151515151518L44.44444444444444,237.5757575757576L53.33333333333334,235.84415584415586L62.22222222222223,236.88311688311688L71.11111111111111,238.26839826839827L80,239.30735930735932L88.88888888888889,242.0779220779221L97.77777777777777,240.6926406926407L106.66666666666669,241.38528138528142L115.55555555555557,243.46320346320348L124.44444444444446,241.73160173160173L133.33333333333334,243.46320346320348L142.22222222222223,244.84848484848487L151.11111111111111,244.5021645021645L160,246.23376623376626L168.88888888888889,246.5800865800866L177.77777777777777,246.92640692640694L186.66666666666666,246.92640692640694L195.55555555555554,245.1948051948052L204.44444444444449,243.80952380952382L213.33333333333337,242.7705627705628L222.22222222222226,244.84848484848487L231.11111111111114,245.1948051948052L240.00000000000003,245.1948051948052L248.8888888888889,249.00432900432904L257.77777777777777,251.0822510822511L266.6666666666667,252.81385281385283" style="fill: none; stroke: #4c78a8; stroke-width: 2; opacity: 1;"></path></g></g><path class="foreground" d="" style="display: none; fill: none;"></path></g><g transform="translate(0,0)"><path class="background" d="M0,0h266.6666666666667v266.6666666666667h-266.6666666666667Z" style="fill: none;"></path><g><g class="mark-line role-mark concat_0_concat_1_marks" clip-path="url(#clip7)"><path d="M-364.44444444444446,266.6666666666667L-355.55555555555554,266.6666666666667L-346.6666666666667,266.6666666666667L-337.77777777777777,266.6666666666667L-328.8888888888889,266.6666666666667L-320,266.6666666666667L-311.11111111111114,266.6666666666667L-302.22222222222223,266.6666666666667L-293.33333333333337,266.6666666666667L-284.44444444444446,266.6666666666667L-275.5555555555556,266.6666666666667L-266.6666666666667,266.6666666666667L-257.77777777777777,266.6666666666667L-248.8888888888889,266.6666666666667L-240.00000000000003,266.6666666666667L-231.11111111111114,266.6666666666667L-222.22222222222226,266.6666666666667L-213.33333333333337,266.6666666666667L-204.44444444444449,266.6666666666667L-195.55555555555554,266.6666666666667L-186.66666666666666,266.32034632034635L-177.77777777777777,266.32034632034635L-168.88888888888889,266.32034632034635L-160,266.32034632034635L-151.11111111111111,265.62770562770567L-142.22222222222223,264.935064935065L-133.33333333333334,264.24242424242425L-124.44444444444446,263.8961038961039L-115.55555555555557,263.20346320346323L-106.66666666666669,262.51082251082255L-97.77777777777777,261.12554112554113L-88.88888888888889,261.8181818181818L-80,261.8181818181818L-71.11111111111111,262.1645021645022L-62.22222222222223,261.12554112554113L-53.33333333333334,260.7792207792208L-44.44444444444444,261.8181818181818L-35.55555555555556,260.7792207792208L-26.66666666666667,258.70129870129875L-17.77777777777778,258.70129870129875L-8.88888888888889,256.969696969697L0,258.35497835497836L8.88888888888889,256.969696969697L17.77777777777778,255.5844155844156L26.66666666666667,256.2770562770563L35.55555555555556,255.5844155844156L44.44444444444444,255.23809523809527L53.33333333333334,254.8917748917749L62.22222222222223,252.4675324675325L71.11111111111111,253.5064935064935L80,253.1601731601732L88.88888888888889,240.00000000000003L97.77777777777777,240.00000000000003L106.66666666666669,233.0735930735931L115.55555555555557,233.7662337662338L124.44444444444446,233.41991341991343L133.33333333333334,233.41991341991343L142.22222222222223,233.7662337662338L151.11111111111111,246.5800865800866L160,246.92640692640694L168.88888888888889,253.1601731601732L177.77777777777777,252.4675324675325L186.66666666666666,254.8917748917749L195.55555555555554,252.81385281385283L204.44444444444449,250.38961038961043L213.33333333333337,250.38961038961043L222.22222222222226,250.73593073593074L231.11111111111114,251.42857142857144L240.00000000000003,252.12121212121212L248.8888888888889,251.0822510822511L257.77777777777777,253.85281385281388L266.6666666666667,255.93073593073595" style="fill: none; stroke: #f58518; stroke-width: 2; opacity: 1;"></path></g></g><path class="foreground" d="" style="display: none; fill: none;"></path></g><g transform="translate(0,0)"><path class="background" d="M0,0h266.6666666666667v266.6666666666667h-266.6666666666667Z" style="fill: none;"></path><g><g class="mark-line role-mark concat_0_concat_1_marks" clip-path="url(#clip8)"><path d="M-364.44444444444446,266.6666666666667L-355.55555555555554,266.6666666666667L-346.6666666666667,266.6666666666667L-337.77777777777777,266.6666666666667L-328.8888888888889,266.6666666666667L-320,266.6666666666667L-311.11111111111114,266.6666666666667L-302.22222222222223,266.6666666666667L-293.33333333333337,266.6666666666667L-284.44444444444446,266.6666666666667L-275.5555555555556,266.6666666666667L-266.6666666666667,266.6666666666667L-257.77777777777777,266.6666666666667L-248.8888888888889,266.6666666666667L-240.00000000000003,264.935064935065L-231.11111111111114,266.6666666666667L-222.22222222222226,266.32034632034635L-213.33333333333337,266.32034632034635L-204.44444444444449,266.32034632034635L-195.55555555555554,266.6666666666667L-186.66666666666666,266.32034632034635L-177.77777777777777,266.6666666666667L-168.88888888888889,266.32034632034635L-160,266.32034632034635L-151.11111111111111,266.32034632034635L-142.22222222222223,266.32034632034635L-133.33333333333334,265.974025974026L-124.44444444444446,266.32034632034635L-115.55555555555557,266.32034632034635L-106.66666666666669,266.32034632034635L-97.77777777777777,266.6666666666667L-88.88888888888889,266.6666666666667L-80,265.974025974026L-71.11111111111111,265.974025974026L-62.22222222222223,265.974025974026L-53.33333333333334,265.974025974026L-44.44444444444444,265.2813852813853L-35.55555555555556,265.2813852813853L-26.66666666666667,265.2813852813853L-17.77777777777778,265.974025974026L-8.88888888888889,265.62770562770567L0,265.2813852813853L8.88888888888889,265.2813852813853L17.77777777777778,265.974025974026L26.66666666666667,265.974025974026L35.55555555555556,265.974025974026L44.44444444444444,265.974025974026L53.33333333333334,265.974025974026L62.22222222222223,266.32034632034635L71.11111111111111,266.32034632034635L80,265.974025974026L88.88888888888889,265.974025974026L97.77777777777777,265.974025974026L106.66666666666669,265.974025974026L115.55555555555557,266.32034632034635L124.44444444444446,266.32034632034635L133.33333333333334,266.32034632034635L142.22222222222223,266.6666666666667L151.11111111111111,266.6666666666667L160,266.6666666666667L168.88888888888889,266.6666666666667L177.77777777777777,266.6666666666667L186.66666666666666,266.6666666666667L195.55555555555554,266.6666666666667L204.44444444444449,266.6666666666667L213.33333333333337,266.6666666666667L222.22222222222226,266.6666666666667L231.11111111111114,266.6666666666667L240.00000000000003,266.6666666666667L248.8888888888889,266.6666666666667L257.77777777777777,266.6666666666667L266.6666666666667,266.6666666666667" style="fill: none; stroke: #e45756; stroke-width: 2; opacity: 1;"></path></g></g><path class="foreground" d="" style="display: none; fill: none;"></path></g><g transform="translate(0,0)"><path class="background" d="M0,0h266.6666666666667v266.6666666666667h-266.6666666666667Z" style="fill: none;"></path><g><g class="mark-line role-mark concat_0_concat_1_marks" clip-path="url(#clip9)"><path d="M-364.44444444444446,266.6666666666667L-355.55555555555554,266.6666666666667L-346.6666666666667,266.6666666666667L-337.77777777777777,266.6666666666667L-328.8888888888889,266.6666666666667L-320,266.6666666666667L-311.11111111111114,266.6666666666667L-302.22222222222223,266.6666666666667L-293.33333333333337,266.6666666666667L-284.44444444444446,266.6666666666667L-275.5555555555556,266.6666666666667L-266.6666666666667,266.6666666666667L-257.77777777777777,266.6666666666667L-248.8888888888889,265.62770562770567L-240.00000000000003,265.62770562770567L-231.11111111111114,265.62770562770567L-222.22222222222226,265.62770562770567L-213.33333333333337,264.5887445887446L-204.44444444444449,264.24242424242425L-195.55555555555554,264.24242424242425L-186.66666666666666,265.2813852813853L-177.77777777777777,265.2813852813853L-168.88888888888889,264.24242424242425L-160,263.54978354978357L-151.11111111111111,263.8961038961039L-142.22222222222223,264.24242424242425L-133.33333333333334,262.51082251082255L-124.44444444444446,261.12554112554113L-115.55555555555557,260.43290043290045L-106.66666666666669,259.04761904761904L-97.77777777777777,257.31601731601734L-88.88888888888889,256.2770562770563L-80,254.19913419913422L-71.11111111111111,252.81385281385283L-62.22222222222223,253.1601731601732L-53.33333333333334,250.73593073593074L-44.44444444444444,251.42857142857144L-35.55555555555556,249.35064935064935L-26.66666666666667,246.92640692640694L-17.77777777777778,246.5800865800866L-8.88888888888889,247.965367965368L0,246.92640692640694L8.88888888888889,246.92640692640694L17.77777777777778,246.5800865800866L26.66666666666667,249.35064935064935L35.55555555555556,249.69696969696972L44.44444444444444,251.42857142857144L53.33333333333334,250.04329004329006L62.22222222222223,251.0822510822511L71.11111111111111,253.85281385281388L80,250.38961038961043L88.88888888888889,251.7748917748918L97.77777777777777,253.85281385281388L106.66666666666669,252.12121212121212L115.55555555555557,253.5064935064935L124.44444444444446,253.85281385281388L133.33333333333334,254.19913419913422L142.22222222222223,258.35497835497836L151.11111111111111,258.35497835497836L160,259.7402597402598L168.88888888888889,261.12554112554113L177.77777777777777,262.8571428571429L186.66666666666666,263.20346320346323L195.55555555555554,263.20346320346323L204.44444444444449,263.54978354978357L213.33333333333337,263.54978354978357L222.22222222222226,263.54978354978357L231.11111111111114,264.24242424242425L240.00000000000003,263.8961038961039L248.8888888888889,263.8961038961039L257.77777777777777,263.8961038961039L266.6666666666667,263.20346320346323" style="fill: none; stroke: #72b7b2; stroke-width: 2; opacity: 1;"></path></g></g><path class="foreground" d="" style="display: none; fill: none;"></path></g><g transform="translate(0,0)"><path class="background" d="M0,0h266.6666666666667v266.6666666666667h-266.6666666666667Z" style="fill: none;"></path><g><g class="mark-line role-mark concat_0_concat_1_marks" clip-path="url(#clip10)"><path d="M-364.44444444444446,266.6666666666667L-355.55555555555554,266.6666666666667L-346.6666666666667,266.6666666666667L-337.77777777777777,266.6666666666667L-328.8888888888889,266.6666666666667L-320,266.6666666666667L-311.11111111111114,266.6666666666667L-302.22222222222223,266.6666666666667L-293.33333333333337,266.6666666666667L-284.44444444444446,266.6666666666667L-275.5555555555556,266.32034632034635L-266.6666666666667,266.32034632034635L-257.77777777777777,266.32034632034635L-248.8888888888889,265.974025974026L-240.00000000000003,265.62770562770567L-231.11111111111114,264.5887445887446L-222.22222222222226,264.24242424242425L-213.33333333333337,263.54978354978357L-204.44444444444449,263.20346320346323L-195.55555555555554,261.47186147186153L-186.66666666666666,260.43290043290045L-177.77777777777777,260.43290043290045L-168.88888888888889,260.0865800865801L-160,256.62337662337666L-151.11111111111111,248.65800865800867L-142.22222222222223,243.80952380952382L-133.33333333333334,235.84415584415586L-124.44444444444446,237.22943722943725L-115.55555555555557,235.84415584415586L-106.66666666666669,224.7619047619048L-97.77777777777777,216.7965367965368L-88.88888888888889,205.36796536796538L-80,186.66666666666666L-71.11111111111111,179.04761904761904L-62.22222222222223,173.85281385281385L-53.33333333333334,165.88744588744592L-44.44444444444444,152.03463203463204L-35.55555555555556,124.32900432900433L-26.66666666666667,111.51515151515153L-17.77777777777778,98.7012987012987L-8.88888888888889,89.35064935064936L0,88.65800865800867L8.88888888888889,94.1991341991342L17.77777777777778,113.59307359307358L26.66666666666667,113.59307359307358L35.55555555555556,87.965367965368L44.44444444444444,79.65367965367966L53.33333333333334,83.11688311688314L62.22222222222223,50.56277056277058L71.11111111111111,44.67532467532468L80,37.74891774891775L88.88888888888889,13.160173160173166L97.77777777777777,12.467532467532472L106.66666666666669,28.39826839826838L115.55555555555557,6.233766233766236L124.44444444444446,30.82251082251082L133.33333333333334,40.17316017316016L142.22222222222223,26.32034632034633L151.11111111111111,62.33766233766233L160,84.84848484848487L168.88888888888889,70.995670995671L177.77777777777777,93.16017316017319L186.66666666666666,101.4718614718615L195.55555555555554,98.7012987012987L204.44444444444449,95.23809523809526L213.33333333333337,93.85281385281385L222.22222222222226,100.77922077922078L231.11111111111114,109.43722943722942L240.00000000000003,85.88744588744589L248.8888888888889,75.84415584415586L257.77777777777777,77.57575757575758L266.6666666666667,98.00865800865803" style="fill: none; stroke: #54a24b; stroke-width: 2; opacity: 1;"></path></g></g><path class="foreground" d="" style="display: none; fill: none;"></path></g></g><g class="mark-group role-title"><g transform="translate(133.33333333333334,-17)"><path class="background" d="M0,0h0v0h0Z" style="pointer-events: none; fill: none;"></path><g><g class="mark-text role-title-text" style="pointer-events: none;"><text text-anchor="middle" transform="translate(0,10)" style="font-family: Roboto Condensed; font-size: 13px; font-weight: normal; fill: #000; opacity: 1;">Deaths/7-day average</text></g></g><path class="foreground" d="" style="pointer-events: none; display: none; fill: none;"></path></g></g></g><path class="foreground" d="" style="display: none; fill: none;"></path></g></g><g class="mark-group role-scope concat_0_concat_2_group"><g transform="translate(622,0)"><path class="background" d="M0,0h266.6666666666667v266.6666666666667h-266.6666666666667Z" style="fill: none; stroke: #ddd; stroke-width: 0;"></path><g><g class="mark-group role-axis"><g transform="translate(0.5,0.5)"><path class="background" d="M0,0h0v0h0Z" style="pointer-events: none; fill: none;"></path><g><g class="mark-rule role-axis-grid" style="pointer-events: none;"><line transform="translate(0,267)" x2="266.6666666666667" y2="0" style="fill: none; stroke: #ddd; stroke-width: 1; opacity: 1;"></line><line transform="translate(0,222)" x2="266.6666666666667" y2="0" style="fill: none; stroke: #ddd; stroke-width: 1; opacity: 1;"></line><line transform="translate(0,178)" x2="266.6666666666667" y2="0" style="fill: none; stroke: #ddd; stroke-width: 1; opacity: 1;"></line><line transform="translate(0,133)" x2="266.6666666666667" y2="0" style="fill: none; stroke: #ddd; stroke-width: 1; opacity: 1;"></line><line transform="translate(0,89)" x2="266.6666666666667" y2="0" style="fill: none; stroke: #ddd; stroke-width: 1; opacity: 1;"></line><line transform="translate(0,44)" x2="266.6666666666667" y2="0" style="fill: none; stroke: #ddd; stroke-width: 1; opacity: 1;"></line><line transform="translate(0,0)" x2="266.6666666666667" y2="0" style="fill: none; stroke: #ddd; stroke-width: 1; opacity: 1;"></line></g></g><path class="foreground" d="" style="pointer-events: none; display: none; fill: none;"></path></g></g><g class="mark-group role-axis"><g transform="translate(0.5,267.1666666666667)"><path class="background" d="M0,0h0v0h0Z" style="pointer-events: none; fill: none;"></path><g><g class="mark-text role-axis-label" style="pointer-events: none;"><text text-anchor="middle" transform="translate(8.88888888888889,10)" style="font-family: Roboto Condensed; font-size: 10px; fill: #000; opacity: 1;">Apr 12</text><text text-anchor="middle" transform="translate(71.11111111111111,10)" style="font-family: Roboto Condensed; font-size: 10px; fill: #000; opacity: 1;">Apr 19</text><text text-anchor="middle" transform="translate(133.33333333333334,10)" style="font-family: Roboto Condensed; font-size: 10px; fill: #000; opacity: 1;">Apr 26</text><text text-anchor="middle" transform="translate(195.55555555555554,10)" style="font-family: Roboto Condensed; font-size: 10px; fill: #000; opacity: 1;">May 03</text><text text-anchor="middle" transform="translate(257.77777777777777,10)" style="font-family: Roboto Condensed; font-size: 10px; fill: #000; opacity: 1;">May 10</text></g><g class="mark-rule role-axis-domain" style="pointer-events: none;"><line transform="translate(0,0)" x2="266.6666666666667" y2="0" style="fill: none; stroke: lightgray; stroke-width: 1; opacity: 1;"></line></g></g><path class="foreground" d="" style="pointer-events: none; display: none; fill: none;"></path></g></g><g class="mark-group role-axis"><g transform="translate(0.5,0.5)"><path class="background" d="M0,0h0v0h0Z" style="pointer-events: none; fill: none;"></path><g><g class="mark-text role-axis-label" style="pointer-events: none;"><text text-anchor="end" transform="translate(-2,269.6666666666667)" style="font-family: Roboto Condensed; font-size: 10px; fill: #000; opacity: 1;">0</text><text text-anchor="end" transform="translate(-2,225.22222222222226)" style="font-family: Roboto Condensed; font-size: 10px; fill: #000; opacity: 1;">100</text><text text-anchor="end" transform="translate(-2,180.7777777777778)" style="font-family: Roboto Condensed; font-size: 10px; fill: #000; opacity: 1;">200</text><text text-anchor="end" transform="translate(-2,136.33333333333334)" style="font-family: Roboto Condensed; font-size: 10px; fill: #000; opacity: 1;">300</text><text text-anchor="end" transform="translate(-2,91.8888888888889)" style="font-family: Roboto Condensed; font-size: 10px; fill: #000; opacity: 1;">400</text><text text-anchor="end" transform="translate(-2,47.444444444444436)" style="font-family: Roboto Condensed; font-size: 10px; fill: #000; opacity: 1;">500</text><text text-anchor="end" transform="translate(-2,3)" style="font-family: Roboto Condensed; font-size: 10px; fill: #000; opacity: 1;">600</text></g><g class="mark-rule role-axis-domain" style="pointer-events: none;"><line transform="translate(0,266.6666666666667)" x2="0" y2="-266.6666666666667" style="fill: none; stroke: lightgray; stroke-width: 1; opacity: 1;"></line></g></g><path class="foreground" d="" style="pointer-events: none; display: none; fill: none;"></path></g></g><g class="mark-group role-scope concat_0_concat_2_pathgroup"><g transform="translate(0,0)"><path class="background" d="M0,0h266.6666666666667v266.6666666666667h-266.6666666666667Z" style="fill: none;"></path><g><g class="mark-line role-mark concat_0_concat_2_marks" clip-path="url(#clip11)"><path d="M-364.44444444444446,266.6666666666667L-355.55555555555554,266.6666666666667L-346.6666666666667,266.6666666666667L-337.77777777777777,266.6666666666667L-328.8888888888889,266.6666666666667L-320,266.6666666666667L-311.11111111111114,266.60317460317464L-302.22222222222223,266.60317460317464L-293.33333333333337,266.60317460317464L-284.44444444444446,266.60317460317464L-275.5555555555556,266.60317460317464L-266.6666666666667,266.60317460317464L-257.77777777777777,266.6666666666667L-248.8888888888889,266.6666666666667L-240.00000000000003,266.6666666666667L-231.11111111111114,266.6666666666667L-222.22222222222226,266.6666666666667L-213.33333333333337,266.6666666666667L-204.44444444444449,266.6666666666667L-195.55555555555554,266.6666666666667L-186.66666666666666,266.6666666666667L-177.77777777777777,266.4761904761905L-168.88888888888889,265.2063492063492L-160,264.44444444444446L-151.11111111111111,264.12698412698415L-142.22222222222223,263.55555555555554L-133.33333333333334,263.11111111111114L-124.44444444444446,263.11111111111114L-115.55555555555557,262.2857142857143L-106.66666666666669,263.55555555555554L-97.77777777777777,264.0634920634921L-88.88888888888889,207.61904761904765L-80,195.42857142857144L-71.11111111111111,188.57142857142856L-62.22222222222223,182.73015873015873L-53.33333333333334,180.57142857142856L-44.44444444444444,176.76190476190476L-35.55555555555556,168.63492063492063L-26.66666666666667,216.38095238095238L-17.77777777777778,221.52380952380955L-8.88888888888889,225.90476190476193L0,220.1904761904762L8.88888888888889,211.93650793650795L17.77777777777778,208.63492063492066L26.66666666666667,198.8571428571429L35.55555555555556,192.8888888888889L44.44444444444444,182.85714285714286L53.33333333333334,162.41269841269843L62.22222222222223,144.7619047619048L71.11111111111111,137.33333333333334L80,133.5873015873016L88.88888888888889,126.98412698412699L97.77777777777777,117.39682539682542L106.66666666666669,116.1904761904762L115.55555555555557,130.53968253968256L124.44444444444446,150.66666666666666L133.33333333333334,160.88888888888889L142.22222222222223,161.96825396825398L151.11111111111111,176.25396825396828L160,185.26984126984127L168.88888888888889,192.5079365079365L177.77777777777777,189.90476190476193L186.66666666666666,188.82539682539684L195.55555555555554,191.1746031746032L204.44444444444449,194.53968253968253L213.33333333333337,191.80952380952382L222.22222222222226,194.85714285714286L231.11111111111114,192.63492063492063L240.00000000000003,190.41269841269843L248.8888888888889,190.03174603174608L257.77777777777777,188.44444444444446L266.6666666666667,187.80952380952382" style="fill: none; stroke: #4c78a8; stroke-width: 2; opacity: 1;"></path></g></g><path class="foreground" d="" style="display: none; fill: none;"></path></g><g transform="translate(0,0)"><path class="background" d="M0,0h266.6666666666667v266.6666666666667h-266.6666666666667Z" style="fill: none;"></path><g><g class="mark-line role-mark concat_0_concat_2_marks" clip-path="url(#clip12)"><path d="M-364.44444444444446,266.6666666666667L-355.55555555555554,266.6666666666667L-346.6666666666667,266.6666666666667L-337.77777777777777,266.6666666666667L-328.8888888888889,266.6666666666667L-320,266.6666666666667L-311.11111111111114,266.6666666666667L-302.22222222222223,266.6666666666667L-293.33333333333337,266.6666666666667L-284.44444444444446,266.6666666666667L-275.5555555555556,266.6666666666667L-266.6666666666667,266.6666666666667L-257.77777777777777,266.6666666666667L-248.8888888888889,266.6666666666667L-240.00000000000003,266.09523809523813L-231.11111111111114,266.09523809523813L-222.22222222222226,266.09523809523813L-213.33333333333337,266.09523809523813L-204.44444444444449,266.09523809523813L-195.55555555555554,266.09523809523813L-186.66666666666666,266.09523809523813L-177.77777777777777,266.6666666666667L-168.88888888888889,266.6666666666667L-160,266.6666666666667L-151.11111111111111,266.6666666666667L-142.22222222222223,266.6666666666667L-133.33333333333334,266.6666666666667L-124.44444444444446,266.6666666666667L-115.55555555555557,266.6666666666667L-106.66666666666669,266.6666666666667L-97.77777777777777,266.6666666666667L-88.88888888888889,266.6666666666667L-80,248.25396825396828L-71.11111111111111,248.25396825396828L-62.22222222222223,248.25396825396828L-53.33333333333334,248.25396825396828L-44.44444444444444,248.25396825396828L-35.55555555555556,248.25396825396828L-26.66666666666667,248.25396825396828L-17.77777777777778,266.6666666666667L-8.88888888888889,266.6666666666667L0,266.6666666666667L8.88888888888889,266.6666666666667L17.77777777777778,266.6666666666667L26.66666666666667,266.6666666666667L35.55555555555556,266.6666666666667L44.44444444444444,177.7777777777778L53.33333333333334,177.7777777777778L62.22222222222223,177.7777777777778L71.11111111111111,177.7777777777778L80,158.73015873015873L88.88888888888889,158.73015873015873L97.77777777777777,158.73015873015873L106.66666666666669,247.61904761904765L115.55555555555557,215.8730158730159L124.44444444444446,215.8730158730159L133.33333333333334,215.8730158730159L142.22222222222223,234.92063492063494L151.11111111111111,215.8730158730159L160,215.8730158730159L168.88888888888889,203.1746031746032L177.77777777777777,234.92063492063494L186.66666666666666,234.92063492063494L195.55555555555554,234.92063492063494L204.44444444444449,203.1746031746032L213.33333333333337,222.22222222222226L222.22222222222226,222.22222222222226L231.11111111111114,234.92063492063494L240.00000000000003,203.1746031746032L248.8888888888889,203.1746031746032L257.77777777777777,203.1746031746032L266.6666666666667,234.92063492063494" style="fill: none; stroke: #f58518; stroke-width: 2; opacity: 1;"></path></g></g><path class="foreground" d="" style="display: none; fill: none;"></path></g><g transform="translate(0,0)"><path class="background" d="M0,0h266.6666666666667v266.6666666666667h-266.6666666666667Z" style="fill: none;"></path><g><g class="mark-line role-mark concat_0_concat_2_marks" clip-path="url(#clip13)"><path d="M-364.44444444444446,266.6666666666667L-355.55555555555554,266.6666666666667L-346.6666666666667,266.6666666666667L-337.77777777777777,266.6666666666667L-328.8888888888889,266.6666666666667L-320,266.6666666666667L-311.11111111111114,266.6666666666667L-302.22222222222223,266.6666666666667L-293.33333333333337,266.6666666666667L-284.44444444444446,266.60317460317464L-275.5555555555556,266.60317460317464L-266.6666666666667,266.60317460317464L-257.77777777777777,266.60317460317464L-248.8888888888889,266.60317460317464L-240.00000000000003,266.1587301587302L-231.11111111111114,266.6666666666667L-222.22222222222226,266.6666666666667L-213.33333333333337,266.41269841269843L-204.44444444444449,266.41269841269843L-195.55555555555554,266.41269841269843L-186.66666666666666,265.33333333333337L-177.77777777777777,266.6666666666667L-168.88888888888889,263.42857142857144L-160,263.42857142857144L-151.11111111111111,263.42857142857144L-142.22222222222223,261.7777777777778L-133.33333333333334,260.82539682539687L-124.44444444444446,260.82539682539687L-115.55555555555557,258.41269841269843L-106.66666666666669,259.93650793650795L-97.77777777777777,257.33333333333337L-88.88888888888889,255.93650793650798L-80,253.84126984126988L-71.11111111111111,253.20634920634924L-62.22222222222223,248.76190476190476L-53.33333333333334,248.06349206349208L-44.44444444444444,247.42857142857144L-35.55555555555556,243.74603174603175L-26.66666666666667,240.76190476190476L-17.77777777777778,241.01587301587304L-8.88888888888889,238.6031746031746L0,238.41269841269843L8.88888888888889,237.39682539682542L17.77777777777778,236.63492063492066L26.66666666666667,239.3650793650794L35.55555555555556,238.47619047619048L44.44444444444444,237.71428571428575L53.33333333333334,236.63492063492066L62.22222222222223,238.0952380952381L71.11111111111111,241.14285714285714L80,239.42857142857147L88.88888888888889,239.4920634920635L97.77777777777777,242.22222222222223L106.66666666666669,243.4920634920635L115.55555555555557,246.47619047619048L124.44444444444446,248.952380952381L133.33333333333334,246.53968253968256L142.22222222222223,250.03174603174602L151.11111111111111,252.7619047619048L160,254.34920634920636L168.88888888888889,256.44444444444446L177.77777777777777,257.33333333333337L186.66666666666666,258.031746031746L195.55555555555554,259.74603174603175L204.44444444444449,260.3809523809524L213.33333333333337,260.50793650793656L222.22222222222226,260.6984126984127L231.11111111111114,261.26984126984127L240.00000000000003,261.8412698412699L248.8888888888889,262.41269841269843L257.77777777777777,263.11111111111114L266.6666666666667,263.4920634920635" style="fill: none; stroke: #e45756; stroke-width: 2; opacity: 1;"></path></g></g><path class="foreground" d="" style="display: none; fill: none;"></path></g><g transform="translate(0,0)"><path class="background" d="M0,0h266.6666666666667v266.6666666666667h-266.6666666666667Z" style="fill: none;"></path><g><g class="mark-line role-mark concat_0_concat_2_marks" clip-path="url(#clip14)"><path d="M-364.44444444444446,266.6666666666667L-355.55555555555554,266.6666666666667L-346.6666666666667,266.6666666666667L-337.77777777777777,266.6666666666667L-328.8888888888889,266.6666666666667L-320,266.6666666666667L-311.11111111111114,266.6666666666667L-302.22222222222223,266.6666666666667L-293.33333333333337,266.60317460317464L-284.44444444444446,266.60317460317464L-275.5555555555556,266.60317460317464L-266.6666666666667,266.60317460317464L-257.77777777777777,266.60317460317464L-248.8888888888889,266.60317460317464L-240.00000000000003,266.60317460317464L-231.11111111111114,266.6666666666667L-222.22222222222226,266.6666666666667L-213.33333333333337,266.6666666666667L-204.44444444444449,266.6666666666667L-195.55555555555554,266.6666666666667L-186.66666666666666,266.6666666666667L-177.77777777777777,266.3492063492064L-168.88888888888889,266.3492063492064L-160,266.3492063492064L-151.11111111111111,266.3492063492064L-142.22222222222223,266.3492063492064L-133.33333333333334,266.3492063492064L-124.44444444444446,266.2857142857143L-115.55555555555557,266.60317460317464L-106.66666666666669,266.2857142857143L-97.77777777777777,266.22222222222223L-88.88888888888889,266.22222222222223L-80,265.015873015873L-71.11111111111111,265.015873015873L-62.22222222222223,265.0793650793651L-53.33333333333334,265.0793650793651L-44.44444444444444,265.3968253968254L-35.55555555555556,265.46031746031747L-26.66666666666667,265.46031746031747L-17.77777777777778,266.6666666666667L-8.88888888888889,266.6666666666667L0,266.6666666666667L8.88888888888889,266.6666666666667L17.77777777777778,266.6666666666667L26.66666666666667,266.6666666666667L35.55555555555556,266.6666666666667L44.44444444444444,266.6666666666667L53.33333333333334,266.6666666666667L62.22222222222223,266.6666666666667L71.11111111111111,266.6666666666667L80,266.6666666666667L88.88888888888889,266.6666666666667L97.77777777777777,266.6666666666667L106.66666666666669,266.6666666666667L115.55555555555557,266.6666666666667L124.44444444444446,266.6666666666667L133.33333333333334,266.6666666666667L142.22222222222223,266.6666666666667L151.11111111111111,266.6666666666667L160,266.6666666666667L168.88888888888889,266.6666666666667L177.77777777777777,266.6666666666667L186.66666666666666,266.6666666666667L195.55555555555554,266.6666666666667L204.44444444444449,266.6666666666667L213.33333333333337,266.6666666666667L222.22222222222226,266.6666666666667L231.11111111111114,266.6666666666667L240.00000000000003,266.6666666666667L248.8888888888889,266.6666666666667L257.77777777777777,266.6666666666667L266.6666666666667,266.6666666666667" style="fill: none; stroke: #72b7b2; stroke-width: 2; opacity: 1;"></path></g></g><path class="foreground" d="" style="display: none; fill: none;"></path></g><g transform="translate(0,0)"><path class="background" d="M0,0h266.6666666666667v266.6666666666667h-266.6666666666667Z" style="fill: none;"></path><g><g class="mark-line role-mark concat_0_concat_2_marks" clip-path="url(#clip15)"><path d="M-364.44444444444446,266.6666666666667L-355.55555555555554,266.6666666666667L-346.6666666666667,266.6666666666667L-337.77777777777777,266.6666666666667L-328.8888888888889,266.6666666666667L-320,266.6666666666667L-311.11111111111114,266.6666666666667L-302.22222222222223,266.6666666666667L-293.33333333333337,266.60317460317464L-284.44444444444446,266.60317460317464L-275.5555555555556,266.60317460317464L-266.6666666666667,266.60317460317464L-257.77777777777777,266.60317460317464L-248.8888888888889,266.60317460317464L-240.00000000000003,266.60317460317464L-231.11111111111114,266.6666666666667L-222.22222222222226,266.6666666666667L-213.33333333333337,266.6666666666667L-204.44444444444449,265.7142857142857L-195.55555555555554,265.7142857142857L-186.66666666666666,265.7142857142857L-177.77777777777777,265.7142857142857L-168.88888888888889,265.7142857142857L-160,265.7142857142857L-151.11111111111111,265.7142857142857L-142.22222222222223,266.6666666666667L-133.33333333333334,266.6666666666667L-124.44444444444446,266.6666666666667L-115.55555555555557,266.6666666666667L-106.66666666666669,266.6666666666667L-97.77777777777777,266.6666666666667L-88.88888888888889,261.14285714285717L-80,261.14285714285717L-71.11111111111111,254.66666666666669L-62.22222222222223,254.66666666666669L-53.33333333333334,254.66666666666669L-44.44444444444444,254.66666666666669L-35.55555555555556,254.66666666666669L-26.66666666666667,260.1904761904762L-17.77777777777778,260.1904761904762L-8.88888888888889,255.49206349206352L0,255.49206349206352L8.88888888888889,255.49206349206352L17.77777777777778,255.49206349206352L26.66666666666667,255.49206349206352L35.55555555555556,255.49206349206352L44.44444444444444,244.76190476190476L53.33333333333334,255.93650793650798L62.22222222222223,255.93650793650798L71.11111111111111,255.93650793650798L80,255.93650793650798L88.88888888888889,255.93650793650798L97.77777777777777,255.93650793650798L106.66666666666669,266.6666666666667L115.55555555555557,237.77777777777777L124.44444444444446,237.77777777777777L133.33333333333334,237.77777777777777L142.22222222222223,237.77777777777777L151.11111111111111,237.77777777777777L160,237.77777777777777L168.88888888888889,237.77777777777777L177.77777777777777,266.6666666666667L186.66666666666666,266.6666666666667L195.55555555555554,266.6666666666667L204.44444444444449,71.8095238095238L213.33333333333337,71.8095238095238L222.22222222222226,71.8095238095238L231.11111111111114,14.85714285714286L240.00000000000003,14.85714285714286L248.8888888888889,14.85714285714286L257.77777777777777,14.85714285714286L266.6666666666667,209.71428571428575" style="fill: none; stroke: #54a24b; stroke-width: 2; opacity: 1;"></path></g></g><path class="foreground" d="" style="display: none; fill: none;"></path></g></g><g class="mark-group role-title"><g transform="translate(133.33333333333334,-22)"><path class="background" d="M0,0h0v0h0Z" style="pointer-events: none; fill: none;"></path><g><g class="mark-text role-title-text" style="pointer-events: none;"><text text-anchor="middle" transform="translate(0,10)" style="font-family: Roboto Condensed; font-size: 13px; font-weight: normal; fill: #000; opacity: 1;">Recovered/7-day average</text></g></g><path class="foreground" d="" style="pointer-events: none; display: none; fill: none;"></path></g></g></g><path class="foreground" d="" style="display: none; fill: none;"></path></g></g></g><path class="foreground" d="" style="display: none; fill: none;"></path></g></g><g class="mark-group role-legend"><g transform="translate(914,0)"><path class="background" d="M0,0h54v63h-54Z" style="pointer-events: none; fill: none;"></path><g><g class="mark-group role-legend-entry"><g transform="translate(0,0)"><path class="background" d="M0,0h0v0h0Z" style="pointer-events: none; fill: none;"></path><g><g class="mark-group role-scope"><g transform="translate(0,0)"><path class="background" d="M0,0h53.20703125v11h-53.20703125Z" style="pointer-events: none; fill: none; opacity: 1;"></path><g><g class="mark-symbol role-legend-symbol" style="pointer-events: none;"><path transform="translate(6,6)" d="M-5,0L5,0" style="fill: none; stroke: #4c78a8; stroke-width: 1.5; opacity: 1;"></path></g><g class="mark-text role-legend-label" style="pointer-events: none;"><text text-anchor="start" transform="translate(16,9)" style="font-family: Roboto Condensed; font-size: 10px; fill: #000; opacity: 1;">Denmark</text></g></g><path class="foreground" d="" style="pointer-events: none; display: none; fill: none;"></path></g><g transform="translate(0,13)"><path class="background" d="M0,0h53.20703125v11h-53.20703125Z" style="pointer-events: none; fill: none; opacity: 1;"></path><g><g class="mark-symbol role-legend-symbol" style="pointer-events: none;"><path transform="translate(6,6)" d="M-5,0L5,0" style="fill: none; stroke: #f58518; stroke-width: 1.5; opacity: 1;"></path></g><g class="mark-text role-legend-label" style="pointer-events: none;"><text text-anchor="start" transform="translate(16,9)" style="font-family: Roboto Condensed; font-size: 10px; fill: #000; opacity: 1;">Finland</text></g></g><path class="foreground" d="" style="pointer-events: none; display: none; fill: none;"></path></g><g transform="translate(0,26)"><path class="background" d="M0,0h53.20703125v11h-53.20703125Z" style="pointer-events: none; fill: none; opacity: 1;"></path><g><g class="mark-symbol role-legend-symbol" style="pointer-events: none;"><path transform="translate(6,6)" d="M-5,0L5,0" style="fill: none; stroke: #e45756; stroke-width: 1.5; opacity: 1;"></path></g><g class="mark-text role-legend-label" style="pointer-events: none;"><text text-anchor="start" transform="translate(16,9)" style="font-family: Roboto Condensed; font-size: 10px; fill: #000; opacity: 1;">Iceland</text></g></g><path class="foreground" d="" style="pointer-events: none; display: none; fill: none;"></path></g><g transform="translate(0,39)"><path class="background" d="M0,0h53.20703125v11h-53.20703125Z" style="pointer-events: none; fill: none; opacity: 1;"></path><g><g class="mark-symbol role-legend-symbol" style="pointer-events: none;"><path transform="translate(6,6)" d="M-5,0L5,0" style="fill: none; stroke: #72b7b2; stroke-width: 1.5; opacity: 1;"></path></g><g class="mark-text role-legend-label" style="pointer-events: none;"><text text-anchor="start" transform="translate(16,9)" style="font-family: Roboto Condensed; font-size: 10px; fill: #000; opacity: 1;">Norway</text></g></g><path class="foreground" d="" style="pointer-events: none; display: none; fill: none;"></path></g><g transform="translate(0,52)"><path class="background" d="M0,0h53.20703125v11h-53.20703125Z" style="pointer-events: none; fill: none; opacity: 1;"></path><g><g class="mark-symbol role-legend-symbol" style="pointer-events: none;"><path transform="translate(6,6)" d="M-5,0L5,0" style="fill: none; stroke: #54a24b; stroke-width: 1.5; opacity: 1;"></path></g><g class="mark-text role-legend-label" style="pointer-events: none;"><text text-anchor="start" transform="translate(16,9)" style="font-family: Roboto Condensed; font-size: 10px; fill: #000; opacity: 1;">Sweden</text></g></g><path class="foreground" d="" style="pointer-events: none; display: none; fill: none;"></path></g></g></g><path class="foreground" d="" style="pointer-events: none; display: none; fill: none;"></path></g></g></g><path class="foreground" d="" style="pointer-events: none; display: none; fill: none;"></path></g></g></g><path class="foreground" d="" style="display: none; fill: none;"></path></g></g></g></svg>