<svg class="marks" width="996" height="491" viewBox="0 0 996 491" version="1.1" xmlns="http://www.w3.org/2000/svg" xmlns:xlink="http://www.w3.org/1999/xlink"><defs><clipPath id="clip1"><rect x="0" y="0" width="400" height="400"></rect></clipPath><clipPath id="clip2"><rect x="0" y="0" width="400" height="400"></rect></clipPath><clipPath id="clip3"><rect x="0" y="0" width="400" height="400"></rect></clipPath><clipPath id="clip4"><rect x="0" y="0" width="400" height="400"></rect></clipPath><clipPath id="clip5"><rect x="0" y="0" width="400" height="400"></rect></clipPath><clipPath id="clip6"><rect x="0" y="0" width="400" height="400"></rect></clipPath><clipPath id="clip7"><rect x="0" y="0" width="400" height="400"></rect></clipPath><clipPath id="clip8"><rect x="0" y="0" width="400" height="400"></rect></clipPath><clipPath id="clip9"><rect x="0" y="0" width="400" height="400"></rect></clipPath></defs><rect width="996" height="491" fill="white"></rect><g fill="none" stroke-miterlimit="10" transform="translate(50,59)"><g class="mark-group role-frame root" role="graphics-object" aria-roledescription="group mark container"><g transform="translate(0,0)"><path class="background" aria-hidden="true" d="M0,0h0v400h0Z"></path><g><g class="mark-group role-scope concat_0_group" role="graphics-object" aria-roledescription="group mark container"><g transform="translate(0,0)"><path class="background" aria-hidden="true" d="M0,0h400v400h-400Z" stroke="#ddd" stroke-width="0"></path><g><g class="mark-group role-axis" aria-hidden="true"><g transform="translate(0.5,0.5)"><path class="background" aria-hidden="true" d="M0,0h0v0h0Z" pointer-events="none"></path><g><g class="mark-rule role-axis-grid" pointer-events="none"><line transform="translate(0,400)" x2="400" y2="0" stroke="#ddd" stroke-width="1" opacity="1"></line><line transform="translate(0,350)" x2="400" y2="0" stroke="#ddd" stroke-width="1" opacity="1"></line><line transform="translate(0,300)" x2="400" y2="0" stroke="#ddd" stroke-width="1" opacity="1"></line><line transform="translate(0,250)" x2="400" y2="0" stroke="#ddd" stroke-width="1" opacity="1"></line><line transform="translate(0,200)" x2="400" y2="0" stroke="#ddd" stroke-width="1" opacity="1"></line><line transform="translate(0,150)" x2="400" y2="0" stroke="#ddd" stroke-width="1" opacity="1"></line><line transform="translate(0,100)" x2="400" y2="0" stroke="#ddd" stroke-width="1" opacity="1"></line><line transform="translate(0,50)" x2="400" y2="0" stroke="#ddd" stroke-width="1" opacity="1"></line><line transform="translate(0,0)" x2="400" y2="0" stroke="#ddd" stroke-width="1" opacity="1"></line></g></g><path class="foreground" aria-hidden="true" d="" pointer-events="none" display="none"></path></g></g><g class="mark-group role-axis" role="graphics-symbol" aria-roledescription="axis" aria-label="X-axis titled 'Date' for a time scale with values from August 02 to August 17"><g transform="translate(0.5,400.5)"><path class="background" aria-hidden="true" d="M0,0h0v0h0Z" pointer-events="none"></path><g><g class="mark-text role-axis-label" pointer-events="none"><text text-anchor="middle" transform="translate(7.777777777777778,10)" font-family="Roboto Condensed" font-size="10px" fill="#000" opacity="1">Aug 03</text><text text-anchor="middle" transform="translate(61.111111111111114,10)" font-family="Roboto Condensed" font-size="10px" fill="#000" opacity="1">Aug 05</text><text text-anchor="middle" transform="translate(114.44444444444444,10)" font-family="Roboto Condensed" font-size="10px" fill="#000" opacity="1">Aug 07</text><text text-anchor="middle" transform="translate(167.77777777777777,10)" font-family="Roboto Condensed" font-size="10px" fill="#000" opacity="1">Aug 09</text><text text-anchor="middle" transform="translate(221.11111111111111,10)" font-family="Roboto Condensed" font-size="10px" fill="#000" opacity="1">Aug 11</text><text text-anchor="middle" transform="translate(274.44444444444446,10)" font-family="Roboto Condensed" font-size="10px" fill="#000" opacity="1">Aug 13</text><text text-anchor="middle" transform="translate(327.77777777777777,10)" font-family="Roboto Condensed" font-size="10px" fill="#000" opacity="1">Aug 15</text><text text-anchor="middle" transform="translate(381.1111111111111,10)" font-family="Roboto Condensed" font-size="10px" fill="#000" opacity="1">Aug 17</text></g><g class="mark-rule role-axis-domain" pointer-events="none"><line transform="translate(0,0)" x2="400" y2="0" stroke="lightgray" stroke-width="1" opacity="1"></line></g><g class="mark-text role-axis-title" pointer-events="none"><text text-anchor="middle" transform="translate(200,25)" font-family="Roboto Condensed" font-size="11px" font-weight="normal" fill="#000" opacity="1">Date</text></g></g><path class="foreground" aria-hidden="true" d="" pointer-events="none" display="none"></path></g></g><g class="mark-group role-axis" role="graphics-symbol" aria-roledescription="axis" aria-label="Y-axis titled 'Count' for a linear scale with values from 0 to 8,000"><g transform="translate(0.5,0.5)"><path class="background" aria-hidden="true" d="M0,0h0v0h0Z" pointer-events="none"></path><g><g class="mark-text role-axis-label" pointer-events="none"><text text-anchor="end" transform="translate(-2,403)" font-family="Roboto Condensed" font-size="10px" fill="#000" opacity="1">0</text><text text-anchor="end" transform="translate(-2,353)" font-family="Roboto Condensed" font-size="10px" fill="#000" opacity="1">1,000</text><text text-anchor="end" transform="translate(-2,303)" font-family="Roboto Condensed" font-size="10px" fill="#000" opacity="1">2,000</text><text text-anchor="end" transform="translate(-2,253)" font-family="Roboto Condensed" font-size="10px" fill="#000" opacity="1">3,000</text><text text-anchor="end" transform="translate(-2,203)" font-family="Roboto Condensed" font-size="10px" fill="#000" opacity="1">4,000</text><text text-anchor="end" transform="translate(-2,153)" font-family="Roboto Condensed" font-size="10px" fill="#000" opacity="1">5,000</text><text text-anchor="end" transform="translate(-2,103)" font-family="Roboto Condensed" font-size="10px" fill="#000" opacity="1">6,000</text><text text-anchor="end" transform="translate(-2,53)" font-family="Roboto Condensed" font-size="10px" fill="#000" opacity="1">7,000</text><text text-anchor="end" transform="translate(-2,3)" font-family="Roboto Condensed" font-size="10px" fill="#000" opacity="1">8,000</text></g><g class="mark-rule role-axis-domain" pointer-events="none"><line transform="translate(0,400)" x2="0" y2="-400" stroke="lightgray" stroke-width="1" opacity="1"></line></g><g class="mark-text role-axis-title" pointer-events="none"><text text-anchor="start" transform="translate(-45,-13)" font-family="Roboto Condensed" font-size="11px" font-weight="normal" fill="#000" opacity="1">Count</text></g></g><path class="foreground" aria-hidden="true" d="" pointer-events="none" display="none"></path></g></g><g class="mark-group role-scope concat_0_layer_0_pathgroup" role="graphics-object" aria-roledescription="group mark container"><g transform="translate(0,0)"><path class="background" aria-hidden="true" d="M0,0h400v400h-400Z"></path><g><g class="mark-line role-mark concat_0_layer_0_marks" clip-path="url(#clip1)" role="graphics-object" aria-roledescription="line mark container"><path aria-label="Type: Recovered; Date: Mar 01; Count: 0" role="graphics-symbol" aria-roledescription="line mark" d="M-4124.444444444444,400L-4097.777777777777,400L-4071.111111111111,400L-4044.4444444444443,400L-4017.777777777778,400L-3991.1111111111113,400L-3964.4444444444443,400L-3937.777777777778,400L-3912.222222222222,399.95L-3885.5555555555557,400L-3858.8888888888887,400L-3832.222222222222,400L-3805.5555555555557,400L-3778.888888888889,400L-3752.2222222222226,400L-3725.555555555555,400L-3698.8888888888887,400L-3672.222222222222,400L-3645.5555555555557,400L-3618.888888888889,400L-3592.2222222222226,400L-3565.5555555555557,400L-3538.8888888888887,400L-3512.222222222222,399.75L-3485.5555555555557,400L-3458.8888888888887,400L-3432.222222222222,400L-3405.5555555555557,399.95L-3378.888888888889,400L-3352.2222222222226,399.75L-3325.555555555555,399.95L-3298.8888888888887,400L-3272.222222222222,399.05L-3245.5555555555557,400L-3218.888888888889,400L-3192.222222222222,400L-3165.5555555555557,400L-3138.888888888889,400L-3112.222222222222,400L-3085.5555555555557,400L-3058.8888888888887,400L-3032.222222222222,400L-3005.5555555555557,400L-2978.8888888888887,400L-2952.222222222222,400L-2925.5555555555557,400L-2898.8888888888887,400L-2872.222222222222,400L-2845.5555555555557,400L-2818.888888888889,400L-2792.222222222222,400L-2765.5555555555557,400L-2738.888888888889,400L-2712.222222222222,400L-2685.5555555555557,400L-2658.8888888888887,400L-2632.222222222222,400L-2605.5555555555557,400L-2578.8888888888887,400L-2552.222222222222,400L-2525.5555555555557,400L-2498.8888888888887,400L-2472.222222222222,400L-2445.5555555555557,400L-2418.888888888889,400L-2392.222222222222,400L-2365.5555555555557,400L-2338.888888888889,400L-2312.222222222222,400L-2285.5555555555557,400L-2258.8888888888887,400L-2232.222222222222,400L-2205.5555555555557,400L-2178.8888888888887,400L-2152.222222222222,400L-2125.5555555555557,400L-2098.8888888888887,400L-2072.222222222222,400L-2045.5555555555557,400L-2018.888888888889,400L-1992.2222222222222,400L-1965.5555555555554,400L-1938.888888888889,15.249999999999986L-1912.2222222222224,400L-1885.5555555555554,400L-1858.888888888889,400L-1832.2222222222222,400L-1805.5555555555557,400L-1778.8888888888887,400L-1752.2222222222222,400L-1725.5555555555557,400L-1698.8888888888887,400L-1672.2222222222222,400L-1645.5555555555557,400L-1618.888888888889,400L-1592.2222222222222,379.45000000000005L-1565.5555555555554,400L-1538.888888888889,400L-1512.2222222222222,400L-1485.5555555555557,400L-1458.888888888889,400L-1432.2222222222222,400L-1405.5555555555554,400L-1378.888888888889,400L-1352.2222222222222,400L-1325.5555555555557,400L-1298.888888888889,400L-1272.2222222222222,400L-1245.5555555555557,400L-1218.888888888889,400L-1192.2222222222222,400L-1165.5555555555554,400L-1138.888888888889,400L-1112.2222222222222,400L-1085.5555555555557,400L-1058.888888888889,400L-1032.2222222222222,400L-1005.5555555555555,400L-978.8888888888889,400L-952.2222222222222,400L-925.5555555555557,400L-898.8888888888889,400L-872.2222222222222,400L-845.5555555555555,400L-818.8888888888888,400L-792.2222222222223,400L-765.5555555555555,400L-738.8888888888889,400L-712.2222222222222,400L-685.5555555555555,400L-658.8888888888889,400L-632.2222222222222,400L-605.5555555555555,400L-578.8888888888889,400L-552.2222222222222,400L-525.5555555555555,400L-498.8888888888889,400L-472.22222222222223,400L-445.55555555555554,400L-418.8888888888889,400L-392.22222222222223,400L-365.55555555555554,400L-338.88888888888886,400L-312.22222222222223,400L-285.55555555555554,373.20000000000005L-258.8888888888889,400L-232.22222222222223,400L-205.55555555555554,396.09999999999997L-178.88888888888889,400L-152.22222222222223,400L-125.55555555555556,400L-98.88888888888889,400L-72.22222222222221,400L-45.55555555555556,400L-18.88888888888889,400L7.777777777777778,400L34.44444444444444,400L61.111111111111114,400L87.77777777777777,394.75L114.44444444444444,400L141.11111111111111,400L167.77777777777777,400L194.44444444444443,400L221.11111111111111,400L247.77777777777777,400L274.44444444444446,400L301.1111111111111,400L327.77777777777777,400L354.44444444444446,400L381.1111111111111,400L407.77777777777777,400" stroke="#e45756" stroke-width="2" opacity="0.2"></path></g></g><path class="foreground" aria-hidden="true" d="" display="none"></path></g><g transform="translate(0,0)"><path class="background" aria-hidden="true" d="M0,0h400v400h-400Z"></path><g><g class="mark-line role-mark concat_0_layer_0_marks" clip-path="url(#clip2)" role="graphics-object" aria-roledescription="line mark container"><path aria-label="Type: Deaths; Date: Mar 01; Count: 0" role="graphics-symbol" aria-roledescription="line mark" d="M-4124.444444444444,400L-4097.777777777777,400L-4071.111111111111,400L-4044.4444444444443,400L-4017.777777777778,400L-3991.1111111111113,400L-3964.4444444444443,400L-3937.777777777778,400L-3912.222222222222,400L-3885.5555555555557,400L-3858.8888888888887,400L-3832.222222222222,400L-3805.5555555555557,400L-3778.888888888889,399.85L-3752.2222222222226,400L-3725.555555555555,400L-3698.8888888888887,400L-3672.222222222222,399.85L-3645.5555555555557,399.95L-3618.888888888889,400L-3592.2222222222226,400L-3565.5555555555557,400L-3538.8888888888887,399.85L-3512.222222222222,399.90000000000003L-3485.5555555555557,399.90000000000003L-3458.8888888888887,400L-3432.222222222222,399.75L-3405.5555555555557,399.8L-3378.888888888889,399.90000000000003L-3352.2222222222226,399.65000000000003L-3325.555555555555,399.65000000000003L-3298.8888888888887,399.75L-3272.222222222222,399.7L-3245.5555555555557,399.54999999999995L-3218.888888888889,399.85L-3192.222222222222,399.54999999999995L-3165.5555555555557,399.75L-3138.888888888889,399.35L-3112.222222222222,399.40000000000003L-3085.5555555555557,399.65000000000003L-3058.8888888888887,399.75L-3032.222222222222,399.7L-3005.5555555555557,399.54999999999995L-2978.8888888888887,399.7L-2952.222222222222,399.75L-2925.5555555555557,399.45L-2898.8888888888887,399.90000000000003L-2872.222222222222,399.54999999999995L-2845.5555555555557,399.85L-2818.888888888889,399.95L-2792.222222222222,399.2L-2765.5555555555557,399.95L-2738.888888888889,399.75L-2712.222222222222,399.65000000000003L-2685.5555555555557,399.75L-2658.8888888888887,399.90000000000003L-2632.222222222222,400L-2605.5555555555557,399.8L-2578.8888888888887,399.95L-2552.222222222222,399.95L-2525.5555555555557,399.85L-2498.8888888888887,400L-2472.222222222222,399.95L-2445.5555555555557,400L-2418.888888888889,399.85L-2392.222222222222,399.95L-2365.5555555555557,399.95L-2338.888888888889,399.95L-2312.222222222222,399.95L-2285.5555555555557,399.95L-2258.8888888888887,400L-2232.222222222222,399.75L-2205.5555555555557,399.8L-2178.8888888888887,399.95L-2152.222222222222,399.85L-2125.5555555555557,400L-2098.8888888888887,400L-2072.222222222222,400L-2045.5555555555557,399.95L-2018.888888888889,400L-1992.2222222222222,399.95L-1965.5555555555554,399.95L-1938.888888888889,400L-1912.2222222222224,400L-1885.5555555555554,400L-1858.888888888889,400L-1832.2222222222222,400L-1805.5555555555557,400L-1778.8888888888887,399.95L-1752.2222222222222,400L-1725.5555555555557,400L-1698.8888888888887,400L-1672.2222222222222,400L-1645.5555555555557,399.95L-1618.888888888889,400L-1592.2222222222222,399.95L-1565.5555555555554,400L-1538.888888888889,400L-1512.2222222222222,400L-1485.5555555555557,399.95L-1458.888888888889,400L-1432.2222222222222,400L-1405.5555555555554,399.85L-1378.888888888889,400L-1352.2222222222222,400L-1325.5555555555557,400L-1298.888888888889,400L-1272.2222222222222,400L-1245.5555555555557,399.95L-1218.888888888889,399.95L-1192.2222222222222,400L-1165.5555555555554,400L-1138.888888888889,400L-1112.2222222222222,399.8L-1085.5555555555557,400L-1058.888888888889,399.95L-1032.2222222222222,400L-1005.5555555555555,400L-978.8888888888889,400L-952.2222222222222,400L-925.5555555555557,400L-898.8888888888889,399.95L-872.2222222222222,399.95L-845.5555555555555,400L-818.8888888888888,400L-792.2222222222223,400L-765.5555555555555,400L-738.8888888888889,400L-712.2222222222222,400L-685.5555555555555,400L-658.8888888888889,399.95L-632.2222222222222,400L-605.5555555555555,400L-578.8888888888889,400L-552.2222222222222,399.95L-525.5555555555555,400L-498.8888888888889,400L-472.22222222222223,399.95L-445.55555555555554,399.95L-418.8888888888889,400L-392.22222222222223,400L-365.55555555555554,400L-338.88888888888886,400L-312.22222222222223,400L-285.55555555555554,400L-258.8888888888889,400L-232.22222222222223,400L-205.55555555555554,400L-178.88888888888889,400L-152.22222222222223,400L-125.55555555555556,400L-98.88888888888889,400L-72.22222222222221,400L-45.55555555555556,400L-18.88888888888889,400L7.777777777777778,399.95L34.44444444444444,400L61.111111111111114,400L87.77777777777777,400L114.44444444444444,400L141.11111111111111,400L167.77777777777777,400L194.44444444444443,400L221.11111111111111,400L247.77777777777777,400L274.44444444444446,399.95L301.1111111111111,399.8L327.77777777777777,400L354.44444444444446,400L381.1111111111111,400L407.77777777777777,399.95" stroke="#f58518" stroke-width="2" opacity="0.2"></path></g></g><path class="foreground" aria-hidden="true" d="" display="none"></path></g><g transform="translate(0,0)"><path class="background" aria-hidden="true" d="M0,0h400v400h-400Z"></path><g><g class="mark-line role-mark concat_0_layer_0_marks" clip-path="url(#clip3)" role="graphics-object" aria-roledescription="line mark container"><path aria-label="Type: Confirmed; Date: Mar 01; Count: 4" role="graphics-symbol" aria-roledescription="line mark" d="M-4124.444444444444,399.8L-4097.777777777777,399.7L-4071.111111111111,399.65000000000003L-4044.4444444444443,398.8L-4017.777777777778,398.45L-3991.1111111111113,398.95L-3964.4444444444443,398.05L-3937.777777777778,398.55L-3912.222222222222,398.55L-3885.5555555555557,390.25L-3858.8888888888887,390.09999999999997L-3832.222222222222,394.8L-3805.5555555555557,385.3L-3778.888888888889,395.3L-3752.2222222222226,393.45L-3725.555555555555,394.4L-3698.8888888888887,393.5L-3672.222222222222,395.65000000000003L-3645.5555555555557,390.2L-3618.888888888889,391.59999999999997L-3592.2222222222226,389.8L-3565.5555555555557,386.65L-3538.8888888888887,388.2L-3512.222222222222,387.9L-3485.5555555555557,388.95L-3458.8888888888887,385.75L-3432.222222222222,380.7L-3405.5555555555557,387L-3378.888888888889,386.55L-3352.2222222222226,391.95000000000005L-3325.555555555555,390.2L-3298.8888888888887,388.9L-3272.222222222222,385.8L-3245.5555555555557,388.85L-3218.888888888889,391L-3192.222222222222,393.15L-3165.5555555555557,391.1L-3138.888888888889,388.95L-3112.222222222222,400L-3085.5555555555557,393.75L-3058.8888888888887,394.85L-3032.222222222222,395.25L-3005.5555555555557,394.20000000000005L-2978.8888888888887,396.09999999999997L-2952.222222222222,399L-2925.5555555555557,394.15L-2898.8888888888887,392.2L-2872.222222222222,397.95L-2845.5555555555557,395.05L-2818.888888888889,397.90000000000003L-2792.222222222222,396.09999999999997L-2765.5555555555557,398.25L-2738.888888888889,392.65L-2712.222222222222,396.85L-2685.5555555555557,396.9L-2658.8888888888887,398.20000000000005L-2632.222222222222,398.6L-2605.5555555555557,396.4L-2578.8888888888887,396.95L-2552.222222222222,397.5L-2525.5555555555557,398.6L-2498.8888888888887,397.75L-2472.222222222222,398.7L-2445.5555555555557,398.09999999999997L-2418.888888888889,397.15L-2392.222222222222,397.45L-2365.5555555555557,397.95L-2338.888888888889,398.09999999999997L-2312.222222222222,398.20000000000005L-2285.5555555555557,398.55L-2258.8888888888887,399.7L-2232.222222222222,398.65L-2205.5555555555557,398.75L-2178.8888888888887,399.1L-2152.222222222222,398.95L-2125.5555555555557,398.85L-2098.8888888888887,399.1L-2072.222222222222,399.40000000000003L-2045.5555555555557,399.6L-2018.888888888889,399.5L-1992.2222222222222,399.3L-1965.5555555555554,398.6L-1938.888888888889,398.85L-1912.2222222222224,399.3L-1885.5555555555554,399.7L-1858.888888888889,399.40000000000003L-1832.2222222222222,399.05L-1805.5555555555557,399.1L-1778.8888888888887,399.5L-1752.2222222222222,399.45L-1725.5555555555557,399.25L-1698.8888888888887,399.85L-1672.2222222222222,399.7L-1645.5555555555557,399.54999999999995L-1618.888888888889,398.9L-1592.2222222222222,398.65L-1565.5555555555554,399.1L-1538.888888888889,399.54999999999995L-1512.2222222222222,399.2L-1485.5555555555557,399.3L-1458.888888888889,399.25L-1432.2222222222222,399.1L-1405.5555555555554,399.3L-1378.888888888889,399.40000000000003L-1352.2222222222222,399.6L-1325.5555555555557,399.85L-1298.888888888889,399.2L-1272.2222222222222,399.35L-1245.5555555555557,398.4L-1218.888888888889,399.2L-1192.2222222222222,399.1L-1165.5555555555554,399.2L-1138.888888888889,399.85L-1112.2222222222222,399.7L-1085.5555555555557,398.95L-1058.888888888889,399.2L-1032.2222222222222,400L-1005.5555555555555,397.8L-978.8888888888889,399.3L-952.2222222222222,399.54999999999995L-925.5555555555557,399.65000000000003L-898.8888888888889,399.15L-872.2222222222222,399.15L-845.5555555555555,399.7L-818.8888888888888,399.05L-792.2222222222223,399.75L-765.5555555555555,399.8L-738.8888888888889,399.7L-712.2222222222222,399.45L-685.5555555555555,399.85L-658.8888888888889,399.25L-632.2222222222222,399.54999999999995L-605.5555555555555,399.85L-578.8888888888889,399.8L-552.2222222222222,399.85L-525.5555555555555,399.15L-498.8888888888889,399.5L-472.22222222222223,399.8L-445.55555555555554,399.5L-418.8888888888889,399.85L-392.22222222222223,400L-365.55555555555554,399.7L-338.88888888888886,399.05L-312.22222222222223,399.7L-285.55555555555554,398.7L-258.8888888888889,399.65000000000003L-232.22222222222223,399.05L-205.55555555555554,399.7L-178.88888888888889,399.25L-152.22222222222223,399.1L-125.55555555555556,398.9L-98.88888888888889,398.20000000000005L-72.22222222222221,398.4L-45.55555555555556,399.35L-18.88888888888889,399.25L7.777777777777778,396.7L34.44444444444444,398.6L61.111111111111114,397.65000000000003L87.77777777777777,397.05L114.44444444444444,395.84999999999997L141.11111111111111,397.6L167.77777777777777,398.05L194.44444444444443,397.7L221.11111111111111,396.65L247.77777777777777,398.4L274.44444444444446,396.6L301.1111111111111,397.15L327.77777777777777,397.15L354.44444444444446,398L381.1111111111111,397.25L407.77777777777777,397.45" stroke="#4c78a8" stroke-width="2" opacity="0.2"></path></g></g><path class="foreground" aria-hidden="true" d="" display="none"></path></g></g><g class="mark-group role-scope concat_0_layer_1_pathgroup" role="graphics-object" aria-roledescription="group mark container"><g transform="translate(0,0)"><path class="background" aria-hidden="true" d="M0,0h400v400h-400Z"></path><g><g class="mark-line role-mark concat_0_layer_1_marks" clip-path="url(#clip4)" role="graphics-object" aria-roledescription="line mark container"><path aria-label="Type: Recovered; Date: Mar 01; Count: 0" role="graphics-symbol" aria-roledescription="line mark" d="M-3964.4444444444443,400L-3937.777777777778,400L-3912.222222222222,399.99285714285713L-3885.5555555555557,399.99285714285713L-3858.8888888888887,399.99285714285713L-3832.222222222222,399.99285714285713L-3805.5555555555557,399.99285714285713L-3778.888888888889,399.99285714285713L-3752.2222222222226,399.99285714285713L-3725.555555555555,400L-3698.8888888888887,400L-3672.222222222222,400L-3645.5555555555557,400L-3618.888888888889,400L-3592.2222222222226,400L-3565.5555555555557,400L-3538.8888888888887,400L-3512.222222222222,399.9642857142857L-3485.5555555555557,399.9642857142857L-3458.8888888888887,399.9642857142857L-3432.222222222222,399.9642857142857L-3405.5555555555557,399.95714285714286L-3378.888888888889,399.95714285714286L-3352.2222222222226,399.9214285714286L-3325.555555555555,399.95L-3298.8888888888887,399.95L-3272.222222222222,399.81428571428575L-3245.5555555555557,399.81428571428575L-3218.888888888889,399.82142857142856L-3192.222222222222,399.82142857142856L-3165.5555555555557,399.8571428571429L-3138.888888888889,399.8642857142857L-3112.222222222222,399.8642857142857L-3085.5555555555557,400L-3058.8888888888887,400L-3032.222222222222,400L-3005.5555555555557,400L-2978.8888888888887,400L-2952.222222222222,400L-2925.5555555555557,400L-2898.8888888888887,400L-2872.222222222222,400L-2845.5555555555557,400L-2818.888888888889,400L-2792.222222222222,400L-2765.5555555555557,400L-2738.888888888889,400L-2712.222222222222,400L-2685.5555555555557,400L-2658.8888888888887,400L-2632.222222222222,400L-2605.5555555555557,400L-2578.8888888888887,400L-2552.222222222222,400L-2525.5555555555557,400L-2498.8888888888887,400L-2472.222222222222,400L-2445.5555555555557,400L-2418.888888888889,400L-2392.222222222222,400L-2365.5555555555557,400L-2338.888888888889,400L-2312.222222222222,400L-2285.5555555555557,400L-2258.8888888888887,400L-2232.222222222222,400L-2205.5555555555557,400L-2178.8888888888887,400L-2152.222222222222,400L-2125.5555555555557,400L-2098.8888888888887,400L-2072.222222222222,400L-2045.5555555555557,400L-2018.888888888889,400L-1992.2222222222222,400L-1965.5555555555554,400L-1938.888888888889,345.0357142857143L-1912.2222222222224,345.0357142857143L-1885.5555555555554,345.0357142857143L-1858.888888888889,345.0357142857143L-1832.2222222222222,345.0357142857143L-1805.5555555555557,345.0357142857143L-1778.8888888888887,345.0357142857143L-1752.2222222222222,400L-1725.5555555555557,400L-1698.8888888888887,400L-1672.2222222222222,400L-1645.5555555555557,400L-1618.888888888889,400L-1592.2222222222222,397.06428571428575L-1565.5555555555554,397.06428571428575L-1538.888888888889,397.06428571428575L-1512.2222222222222,397.06428571428575L-1485.5555555555557,397.06428571428575L-1458.888888888889,397.06428571428575L-1432.2222222222222,397.06428571428575L-1405.5555555555554,400L-1378.888888888889,400L-1352.2222222222222,400L-1325.5555555555557,400L-1298.888888888889,400L-1272.2222222222222,400L-1245.5555555555557,400L-1218.888888888889,400L-1192.2222222222222,400L-1165.5555555555554,400L-1138.888888888889,400L-1112.2222222222222,400L-1085.5555555555557,400L-1058.888888888889,400L-1032.2222222222222,400L-1005.5555555555555,400L-978.8888888888889,400L-952.2222222222222,400L-925.5555555555557,400L-898.8888888888889,400L-872.2222222222222,400L-845.5555555555555,400L-818.8888888888888,400L-792.2222222222223,400L-765.5555555555555,400L-738.8888888888889,400L-712.2222222222222,400L-685.5555555555555,400L-658.8888888888889,400L-632.2222222222222,400L-605.5555555555555,400L-578.8888888888889,400L-552.2222222222222,400L-525.5555555555555,400L-498.8888888888889,400L-472.22222222222223,400L-445.55555555555554,400L-418.8888888888889,400L-392.22222222222223,400L-365.55555555555554,400L-338.88888888888886,400L-312.22222222222223,400L-285.55555555555554,396.1714285714286L-258.8888888888889,396.1714285714286L-232.22222222222223,396.1714285714286L-205.55555555555554,395.6142857142857L-178.88888888888889,395.6142857142857L-152.22222222222223,395.6142857142857L-125.55555555555556,395.6142857142857L-98.88888888888889,399.4428571428571L-72.22222222222221,399.4428571428571L-45.55555555555556,399.4428571428571L-18.88888888888889,400L7.777777777777778,400L34.44444444444444,400L61.111111111111114,400L87.77777777777777,399.25L114.44444444444444,399.25L141.11111111111111,399.25L167.77777777777777,399.25L194.44444444444443,399.25L221.11111111111111,399.25L247.77777777777777,399.25L274.44444444444446,400L301.1111111111111,400L327.77777777777777,400L354.44444444444446,400L381.1111111111111,400L407.77777777777777,400" stroke="#e45756" stroke-width="2" opacity="1"></path></g></g><path class="foreground" aria-hidden="true" d="" display="none"></path></g><g transform="translate(0,0)"><path class="background" aria-hidden="true" d="M0,0h400v400h-400Z"></path><g><g class="mark-line role-mark concat_0_layer_1_marks" clip-path="url(#clip5)" role="graphics-object" aria-roledescription="line mark container"><path aria-label="Type: Deaths; Date: Mar 01; Count: 0" role="graphics-symbol" aria-roledescription="line mark" d="M-3964.4444444444443,400L-3937.777777777778,400L-3912.222222222222,400L-3885.5555555555557,400L-3858.8888888888887,400L-3832.222222222222,400L-3805.5555555555557,400L-3778.888888888889,399.9785714285714L-3752.2222222222226,399.9785714285714L-3725.555555555555,399.9785714285714L-3698.8888888888887,399.9785714285714L-3672.222222222222,399.95714285714286L-3645.5555555555557,399.95L-3618.888888888889,399.95L-3592.2222222222226,399.97142857142853L-3565.5555555555557,399.97142857142853L-3538.8888888888887,399.95L-3512.222222222222,399.9357142857143L-3485.5555555555557,399.9428571428572L-3458.8888888888887,399.95L-3432.222222222222,399.9142857142857L-3405.5555555555557,399.88571428571424L-3378.888888888889,399.87142857142857L-3352.2222222222226,399.8428571428571L-3325.555555555555,399.8071428571428L-3298.8888888888887,399.7857142857143L-3272.222222222222,399.74285714285713L-3245.5555555555557,399.7142857142857L-3218.888888888889,399.72142857142853L-3192.222222222222,399.6714285714286L-3165.5555555555557,399.6857142857143L-3138.888888888889,399.64285714285717L-3112.222222222222,399.59285714285716L-3085.5555555555557,399.5857142857143L-3058.8888888888887,399.6142857142857L-3032.222222222222,399.59285714285716L-3005.5555555555557,399.59285714285716L-2978.8888888888887,399.5857142857143L-2952.222222222222,399.64285714285717L-2925.5555555555557,399.65000000000003L-2898.8888888888887,399.6857142857143L-2872.222222222222,399.65714285714284L-2845.5555555555557,399.67857142857144L-2818.888888888889,399.7357142857143L-2792.222222222222,399.6642857142857L-2765.5555555555557,399.6928571428572L-2738.888888888889,399.7357142857143L-2712.222222222222,399.7L-2685.5555555555557,399.72857142857146L-2658.8888888888887,399.7357142857143L-2632.222222222222,399.74285714285713L-2605.5555555555557,399.8285714285714L-2578.8888888888887,399.8285714285714L-2552.222222222222,399.8571428571429L-2525.5555555555557,399.88571428571424L-2498.8888888888887,399.9214285714286L-2472.222222222222,399.9285714285714L-2445.5555555555557,399.9285714285714L-2418.888888888889,399.9357142857143L-2392.222222222222,399.9357142857143L-2365.5555555555557,399.9357142857143L-2338.888888888889,399.95L-2312.222222222222,399.9428571428572L-2285.5555555555557,399.9428571428572L-2258.8888888888887,399.9428571428572L-2232.222222222222,399.9285714285714L-2205.5555555555557,399.90714285714284L-2178.8888888888887,399.90714285714284L-2152.222222222222,399.8928571428571L-2125.5555555555557,399.90000000000003L-2098.8888888888887,399.90714285714284L-2072.222222222222,399.90714285714284L-2045.5555555555557,399.9357142857143L-2018.888888888889,399.9642857142857L-1992.2222222222222,399.9642857142857L-1965.5555555555554,399.9785714285714L-1938.888888888889,399.9785714285714L-1912.2222222222224,399.9785714285714L-1885.5555555555554,399.9785714285714L-1858.888888888889,399.9857142857143L-1832.2222222222222,399.9857142857143L-1805.5555555555557,399.99285714285713L-1778.8888888888887,399.99285714285713L-1752.2222222222222,399.99285714285713L-1725.5555555555557,399.99285714285713L-1698.8888888888887,399.99285714285713L-1672.2222222222222,399.99285714285713L-1645.5555555555557,399.9857142857143L-1618.888888888889,399.9857142857143L-1592.2222222222222,399.9857142857143L-1565.5555555555554,399.9857142857143L-1538.888888888889,399.9857142857143L-1512.2222222222222,399.9857142857143L-1485.5555555555557,399.9785714285714L-1458.888888888889,399.9857142857143L-1432.2222222222222,399.9857142857143L-1405.5555555555554,399.97142857142853L-1378.888888888889,399.97142857142853L-1352.2222222222222,399.97142857142853L-1325.5555555555557,399.97142857142853L-1298.888888888889,399.9785714285714L-1272.2222222222222,399.9785714285714L-1245.5555555555557,399.97142857142853L-1218.888888888889,399.9857142857143L-1192.2222222222222,399.9857142857143L-1165.5555555555554,399.9857142857143L-1138.888888888889,399.9857142857143L-1112.2222222222222,399.95714285714286L-1085.5555555555557,399.95714285714286L-1058.888888888889,399.95714285714286L-1032.2222222222222,399.9642857142857L-1005.5555555555555,399.9642857142857L-978.8888888888889,399.9642857142857L-952.2222222222222,399.9642857142857L-925.5555555555557,399.99285714285713L-898.8888888888889,399.9857142857143L-872.2222222222222,399.9857142857143L-845.5555555555555,399.9857142857143L-818.8888888888888,399.9857142857143L-792.2222222222223,399.9857142857143L-765.5555555555555,399.9857142857143L-738.8888888888889,399.9857142857143L-712.2222222222222,399.99285714285713L-685.5555555555555,400L-658.8888888888889,399.99285714285713L-632.2222222222222,399.99285714285713L-605.5555555555555,399.99285714285713L-578.8888888888889,399.99285714285713L-552.2222222222222,399.9857142857143L-525.5555555555555,399.9857142857143L-498.8888888888889,399.9857142857143L-472.22222222222223,399.9857142857143L-445.55555555555554,399.9785714285714L-418.8888888888889,399.9785714285714L-392.22222222222223,399.9785714285714L-365.55555555555554,399.9857142857143L-338.88888888888886,399.9857142857143L-312.22222222222223,399.9857142857143L-285.55555555555554,399.99285714285713L-258.8888888888889,400L-232.22222222222223,400L-205.55555555555554,400L-178.88888888888889,400L-152.22222222222223,400L-125.55555555555556,400L-98.88888888888889,400L-72.22222222222221,400L-45.55555555555556,400L-18.88888888888889,400L7.777777777777778,399.99285714285713L34.44444444444444,399.99285714285713L61.111111111111114,399.99285714285713L87.77777777777777,399.99285714285713L114.44444444444444,399.99285714285713L141.11111111111111,399.99285714285713L167.77777777777777,399.99285714285713L194.44444444444443,400L221.11111111111111,400L247.77777777777777,400L274.44444444444446,399.99285714285713L301.1111111111111,399.9642857142857L327.77777777777777,399.9642857142857L354.44444444444446,399.9642857142857L381.1111111111111,399.9642857142857L407.77777777777777,399.95714285714286" stroke="#f58518" stroke-width="2" opacity="1"></path></g></g><path class="foreground" aria-hidden="true" d="" display="none"></path></g><g transform="translate(0,0)"><path class="background" aria-hidden="true" d="M0,0h400v400h-400Z"></path><g><g class="mark-line role-mark concat_0_layer_1_marks" clip-path="url(#clip6)" role="graphics-object" aria-roledescription="line mark container"><path aria-label="Type: Confirmed; Date: Mar 01; Count: 0" role="graphics-symbol" aria-roledescription="line mark" d="M-3964.4444444444443,399.0571428571429L-3937.777777777778,398.87857142857143L-3912.222222222222,398.7142857142857L-3885.5555555555557,397.37142857142857L-3858.8888888888887,396.12857142857143L-3832.222222222222,395.6071428571429L-3805.5555555555557,393.65714285714284L-3778.888888888889,393.26428571428573L-3752.2222222222226,392.5357142857143L-3725.555555555555,391.9428571428571L-3698.8888888888887,392.40714285714284L-3672.222222222222,393.2L-3645.5555555555557,392.54285714285714L-3618.888888888889,393.4428571428572L-3592.2222222222226,392.65714285714284L-3565.5555555555557,391.68571428571425L-3538.8888888888887,390.8L-3512.222222222222,390L-3485.5555555555557,389.04285714285714L-3458.8888888888887,388.40714285714284L-3432.222222222222,386.85L-3405.5555555555557,386.45L-3378.888888888889,386.4357142857143L-3352.2222222222226,386.9714285714286L-3325.555555555555,387.3L-3298.8888888888887,387.29285714285714L-3272.222222222222,387.3L-3245.5555555555557,388.4642857142857L-3218.888888888889,389.0357142857143L-3192.222222222222,389.9785714285714L-3165.5555555555557,389.85714285714283L-3138.888888888889,389.67857142857144L-3112.222222222222,391.26428571428573L-3085.5555555555557,392.4L-3058.8888888888887,393.25714285714287L-3032.222222222222,393.86428571428576L-3005.5555555555557,394.0142857142857L-2978.8888888888887,394.7285714285714L-2952.222222222222,396.1642857142857L-2925.5555555555557,395.3285714285714L-2898.8888888888887,395.1071428571429L-2872.222222222222,395.54999999999995L-2845.5555555555557,395.5214285714286L-2818.888888888889,396.05L-2792.222222222222,396.05L-2765.5555555555557,395.9428571428572L-2738.888888888889,395.72857142857146L-2712.222222222222,396.3928571428571L-2685.5555555555557,396.2428571428572L-2658.8888888888887,396.6928571428571L-2632.222222222222,396.79285714285714L-2605.5555555555557,396.8357142857143L-2578.8888888888887,396.65L-2552.222222222222,397.34285714285716L-2525.5555555555557,397.5928571428571L-2498.8888888888887,397.7142857142857L-2472.222222222222,397.7857142857143L-2445.5555555555557,397.7142857142857L-2418.888888888889,397.8214285714286L-2392.222222222222,397.8928571428571L-2365.5555555555557,397.95714285714286L-2338.888888888889,397.88571428571424L-2312.222222222222,397.95L-2285.5555555555557,397.9285714285714L-2258.8888888888887,398.1571428571429L-2232.222222222222,398.37142857142857L-2205.5555555555557,398.5571428571429L-2178.8888888888887,398.7214285714286L-2152.222222222222,398.84285714285716L-2125.5555555555557,398.9357142857143L-2098.8888888888887,399.01428571428573L-2072.222222222222,398.9714285714286L-2045.5555555555557,399.10714285714283L-2018.888888888889,399.2142857142857L-1992.2222222222222,399.24285714285713L-1965.5555555555554,399.1928571428571L-1938.888888888889,399.1928571428571L-1912.2222222222224,399.2214285714286L-1885.5555555555554,399.26428571428573L-1858.888888888889,399.23571428571427L-1832.2222222222222,399.1714285714286L-1805.5555555555557,399.14285714285717L-1778.8888888888887,399.2714285714286L-1752.2222222222222,399.3571428571429L-1725.5555555555557,399.35L-1698.8888888888887,399.37142857142857L-1672.2222222222222,399.4142857142857L-1645.5555555555557,399.48571428571427L-1618.888888888889,399.45714285714286L-1592.2222222222222,399.3357142857143L-1565.5555555555554,399.2857142857143L-1538.888888888889,399.3285714285714L-1512.2222222222222,399.23571428571427L-1485.5555555555557,399.17857142857144L-1458.888888888889,399.1357142857143L-1432.2222222222222,399.1642857142857L-1405.5555555555554,399.25714285714287L-1378.888888888889,399.3L-1352.2222222222222,399.3071428571429L-1325.5555555555557,399.40000000000003L-1298.888888888889,399.3857142857143L-1272.2222222222222,399.40000000000003L-1245.5555555555557,399.3L-1218.888888888889,399.2857142857143L-1192.2222222222222,399.24285714285713L-1165.5555555555554,399.1857142857143L-1138.888888888889,399.1857142857143L-1112.2222222222222,399.25714285714287L-1085.5555555555557,399.2L-1058.888888888889,399.31428571428575L-1032.2222222222222,399.42857142857144L-1005.5555555555555,399.24285714285713L-978.8888888888889,399.25714285714287L-952.2222222222222,399.2142857142857L-925.5555555555557,399.20714285714286L-898.8888888888889,399.23571428571427L-872.2222222222222,399.22857142857146L-845.5555555555555,399.1857142857143L-818.8888888888888,399.3642857142857L-792.2222222222223,399.42857142857144L-765.5555555555555,399.46428571428567L-738.8888888888889,399.4714285714286L-712.2222222222222,399.51428571428573L-685.5555555555555,399.6142857142857L-658.8888888888889,399.54999999999995L-632.2222222222222,399.62142857142857L-605.5555555555555,399.63571428571424L-578.8888888888889,399.63571428571424L-552.2222222222222,399.65714285714284L-525.5555555555555,399.6142857142857L-498.8888888888889,399.56428571428575L-472.22222222222223,399.64285714285717L-445.55555555555554,399.63571428571424L-418.8888888888889,399.63571428571424L-392.22222222222223,399.6642857142857L-365.55555555555554,399.64285714285717L-338.88888888888886,399.62857142857143L-312.22222222222223,399.65714285714284L-285.55555555555554,399.5L-258.8888888888889,399.5214285714286L-232.22222222222223,399.40714285714284L-205.55555555555554,399.3642857142857L-178.88888888888889,399.3L-152.22222222222223,399.3071428571429L-125.55555555555556,399.1928571428571L-98.88888888888889,399.12142857142857L-72.22222222222221,398.9428571428571L-45.55555555555556,398.98571428571427L-18.88888888888889,398.9214285714286L7.777777777777778,398.5571428571429L34.44444444444444,398.48571428571427L61.111111111111114,398.3071428571428L87.77777777777777,398.1428571428571L114.44444444444444,397.77857142857147L141.11111111111111,397.5285714285714L167.77777777777777,397.3571428571429L194.44444444444443,397.5L221.11111111111111,397.2214285714286L247.77777777777777,397.3285714285714L274.44444444444446,397.26428571428573L301.1111111111111,397.45L327.77777777777777,397.3857142857143L354.44444444444446,397.37857142857143L381.1111111111111,397.31428571428575L407.77777777777777,397.42857142857144" stroke="#4c78a8" stroke-width="2" opacity="1"></path></g></g><path class="foreground" aria-hidden="true" d="" display="none"></path></g></g><g class="mark-group role-title"><g transform="translate(200,-54)"><path class="background" aria-hidden="true" d="M0,0h0v0h0Z" pointer-events="none"></path><g><g class="mark-text role-title-text" role="graphics-symbol" aria-roledescription="title" aria-label="Title text '7-day average (light color: daily values) [2020-08-18]'" pointer-events="none"><text text-anchor="middle" transform="translate(0,10)" font-family="Roboto Condensed" font-size="13px" font-weight="normal" fill="#000" opacity="1"><tspan>7-day average (light color: daily values)</tspan><tspan x="0" dy="15">[2020-08-18]</tspan></text></g></g><path class="foreground" aria-hidden="true" d="" pointer-events="none" display="none"></path></g></g></g><path class="foreground" aria-hidden="true" d="" display="none"></path></g></g><g class="mark-group role-scope concat_1_group" role="graphics-object" aria-roledescription="group mark container"><g transform="translate(465,0)"><path class="background" aria-hidden="true" d="M0,0h400v400h-400Z" stroke="#ddd" stroke-width="0"></path><g><g class="mark-group role-axis" aria-hidden="true"><g transform="translate(0.5,0.5)"><path class="background" aria-hidden="true" d="M0,0h0v0h0Z" pointer-events="none"></path><g><g class="mark-rule role-axis-grid" pointer-events="none"><line transform="translate(0,400)" x2="400" y2="0" stroke="#ddd" stroke-width="1" opacity="1"></line><line transform="translate(0,364)" x2="400" y2="0" stroke="#ddd" stroke-width="1" opacity="1"></line><line transform="translate(0,327)" x2="400" y2="0" stroke="#ddd" stroke-width="1" opacity="1"></line><line transform="translate(0,291)" x2="400" y2="0" stroke="#ddd" stroke-width="1" opacity="1"></line><line transform="translate(0,255)" x2="400" y2="0" stroke="#ddd" stroke-width="1" opacity="1"></line><line transform="translate(0,218)" x2="400" y2="0" stroke="#ddd" stroke-width="1" opacity="1"></line><line transform="translate(0,182)" x2="400" y2="0" stroke="#ddd" stroke-width="1" opacity="1"></line><line transform="translate(0,145)" x2="400" y2="0" stroke="#ddd" stroke-width="1" opacity="1"></line><line transform="translate(0,109)" x2="400" y2="0" stroke="#ddd" stroke-width="1" opacity="1"></line><line transform="translate(0,73)" x2="400" y2="0" stroke="#ddd" stroke-width="1" opacity="1"></line><line transform="translate(0,36)" x2="400" y2="0" stroke="#ddd" stroke-width="1" opacity="1"></line><line transform="translate(0,0)" x2="400" y2="0" stroke="#ddd" stroke-width="1" opacity="1"></line></g></g><path class="foreground" aria-hidden="true" d="" pointer-events="none" display="none"></path></g></g><g class="mark-group role-axis" role="graphics-symbol" aria-roledescription="axis" aria-label="X-axis titled 'Date' for a time scale with values from August 02 to August 17"><g transform="translate(0.5,400.5)"><path class="background" aria-hidden="true" d="M0,0h0v0h0Z" pointer-events="none"></path><g><g class="mark-text role-axis-label" pointer-events="none"><text text-anchor="middle" transform="translate(7.777777777777778,10)" font-family="Roboto Condensed" font-size="10px" fill="#000" opacity="1">Aug 03</text><text text-anchor="middle" transform="translate(61.111111111111114,10)" font-family="Roboto Condensed" font-size="10px" fill="#000" opacity="1">Aug 05</text><text text-anchor="middle" transform="translate(114.44444444444444,10)" font-family="Roboto Condensed" font-size="10px" fill="#000" opacity="1">Aug 07</text><text text-anchor="middle" transform="translate(167.77777777777777,10)" font-family="Roboto Condensed" font-size="10px" fill="#000" opacity="1">Aug 09</text><text text-anchor="middle" transform="translate(221.11111111111111,10)" font-family="Roboto Condensed" font-size="10px" fill="#000" opacity="1">Aug 11</text><text text-anchor="middle" transform="translate(274.44444444444446,10)" font-family="Roboto Condensed" font-size="10px" fill="#000" opacity="1">Aug 13</text><text text-anchor="middle" transform="translate(327.77777777777777,10)" font-family="Roboto Condensed" font-size="10px" fill="#000" opacity="1">Aug 15</text><text text-anchor="middle" transform="translate(381.1111111111111,10)" font-family="Roboto Condensed" font-size="10px" fill="#000" opacity="1">Aug 17</text></g><g class="mark-rule role-axis-domain" pointer-events="none"><line transform="translate(0,0)" x2="400" y2="0" stroke="lightgray" stroke-width="1" opacity="1"></line></g><g class="mark-text role-axis-title" pointer-events="none"><text text-anchor="middle" transform="translate(200,25)" font-family="Roboto Condensed" font-size="11px" font-weight="normal" fill="#000" opacity="1">Date</text></g></g><path class="foreground" aria-hidden="true" d="" pointer-events="none" display="none"></path></g></g><g class="mark-group role-axis" role="graphics-symbol" aria-roledescription="axis" aria-label="Y-axis titled 'Count' for a linear scale with values from 0 to 11,000"><g transform="translate(0.5,0.5)"><path class="background" aria-hidden="true" d="M0,0h0v0h0Z" pointer-events="none"></path><g><g class="mark-text role-axis-label" pointer-events="none"><text text-anchor="end" transform="translate(-2,403)" font-family="Roboto Condensed" font-size="10px" fill="#000" opacity="1">0</text><text text-anchor="end" transform="translate(-2,366.6363636363636)" font-family="Roboto Condensed" font-size="10px" fill="#000" opacity="1">1,000</text><text text-anchor="end" transform="translate(-2,330.27272727272725)" font-family="Roboto Condensed" font-size="10px" fill="#000" opacity="1">2,000</text><text text-anchor="end" transform="translate(-2,293.90909090909093)" font-family="Roboto Condensed" font-size="10px" fill="#000" opacity="1">3,000</text><text text-anchor="end" transform="translate(-2,257.5454545454545)" font-family="Roboto Condensed" font-size="10px" fill="#000" opacity="1">4,000</text><text text-anchor="end" transform="translate(-2,221.18181818181816)" font-family="Roboto Condensed" font-size="10px" fill="#000" opacity="1">5,000</text><text text-anchor="end" transform="translate(-2,184.81818181818184)" font-family="Roboto Condensed" font-size="10px" fill="#000" opacity="1">6,000</text><text text-anchor="end" transform="translate(-2,148.45454545454547)" font-family="Roboto Condensed" font-size="10px" fill="#000" opacity="1">7,000</text><text text-anchor="end" transform="translate(-2,112.09090909090908)" font-family="Roboto Condensed" font-size="10px" fill="#000" opacity="1">8,000</text><text text-anchor="end" transform="translate(-2,75.7272727272727)" font-family="Roboto Condensed" font-size="10px" fill="#000" opacity="1">9,000</text><text text-anchor="end" transform="translate(-2,39.363636363636374)" font-family="Roboto Condensed" font-size="10px" fill="#000" opacity="1">10,000</text><text text-anchor="end" transform="translate(-2,3)" font-family="Roboto Condensed" font-size="10px" fill="#000" opacity="1">11,000</text></g><g class="mark-rule role-axis-domain" pointer-events="none"><line transform="translate(0,400)" x2="0" y2="-400" stroke="lightgray" stroke-width="1" opacity="1"></line></g><g class="mark-text role-axis-title" pointer-events="none"><text text-anchor="start" transform="translate(-45,-13)" font-family="Roboto Condensed" font-size="11px" font-weight="normal" fill="#000" opacity="1">Count</text></g></g><path class="foreground" aria-hidden="true" d="" pointer-events="none" display="none"></path></g></g><g class="mark-group role-scope concat_1_pathgroup" role="graphics-object" aria-roledescription="group mark container"><g transform="translate(0,0)"><path class="background" aria-hidden="true" d="M0,0h400v400h-400Z"></path><g><g class="mark-line role-mark concat_1_marks" clip-path="url(#clip7)" role="graphics-object" aria-roledescription="line mark container"><path aria-label="Type: Recovered; Date: Mar 01; Country: Norway; Confirmed: 19; Recovered: 0; Deaths: 0; Count: 0" role="graphics-symbol" aria-roledescription="line mark" d="M-4124.444444444444,400L-4097.777777777777,400L-4071.111111111111,400L-4044.4444444444443,400L-4017.777777777778,400L-3991.1111111111113,400L-3964.4444444444443,400L-3937.777777777778,400L-3912.222222222222,399.96363636363634L-3885.5555555555557,399.96363636363634L-3858.8888888888887,399.96363636363634L-3832.222222222222,399.96363636363634L-3805.5555555555557,399.96363636363634L-3778.888888888889,399.96363636363634L-3752.2222222222226,399.96363636363634L-3725.555555555555,399.96363636363634L-3698.8888888888887,399.96363636363634L-3672.222222222222,399.96363636363634L-3645.5555555555557,399.96363636363634L-3618.888888888889,399.96363636363634L-3592.2222222222226,399.96363636363634L-3565.5555555555557,399.96363636363634L-3538.8888888888887,399.96363636363634L-3512.222222222222,399.7818181818182L-3485.5555555555557,399.7818181818182L-3458.8888888888887,399.7818181818182L-3432.222222222222,399.7818181818182L-3405.5555555555557,399.74545454545455L-3378.888888888889,399.74545454545455L-3352.2222222222226,399.56363636363636L-3325.555555555555,399.5272727272727L-3298.8888888888887,399.5272727272727L-3272.222222222222,398.83636363636367L-3245.5555555555557,398.83636363636367L-3218.888888888889,398.83636363636367L-3192.222222222222,398.83636363636367L-3165.5555555555557,398.83636363636367L-3138.888888888889,398.83636363636367L-3112.222222222222,398.83636363636367L-3085.5555555555557,398.83636363636367L-3058.8888888888887,398.83636363636367L-3032.222222222222,398.83636363636367L-3005.5555555555557,398.83636363636367L-2978.8888888888887,398.83636363636367L-2952.222222222222,398.83636363636367L-2925.5555555555557,398.83636363636367L-2898.8888888888887,398.83636363636367L-2872.222222222222,398.83636363636367L-2845.5555555555557,398.83636363636367L-2818.888888888889,398.83636363636367L-2792.222222222222,398.83636363636367L-2765.5555555555557,398.83636363636367L-2738.888888888889,398.83636363636367L-2712.222222222222,398.83636363636367L-2685.5555555555557,398.83636363636367L-2658.8888888888887,398.83636363636367L-2632.222222222222,398.83636363636367L-2605.5555555555557,398.83636363636367L-2578.8888888888887,398.83636363636367L-2552.222222222222,398.83636363636367L-2525.5555555555557,398.83636363636367L-2498.8888888888887,398.83636363636367L-2472.222222222222,398.83636363636367L-2445.5555555555557,398.83636363636367L-2418.888888888889,398.83636363636367L-2392.222222222222,398.83636363636367L-2365.5555555555557,398.83636363636367L-2338.888888888889,398.83636363636367L-2312.222222222222,398.83636363636367L-2285.5555555555557,398.83636363636367L-2258.8888888888887,398.83636363636367L-2232.222222222222,398.83636363636367L-2205.5555555555557,398.83636363636367L-2178.8888888888887,398.83636363636367L-2152.222222222222,398.83636363636367L-2125.5555555555557,398.83636363636367L-2098.8888888888887,398.83636363636367L-2072.222222222222,398.83636363636367L-2045.5555555555557,398.83636363636367L-2018.888888888889,398.83636363636367L-1992.2222222222222,398.83636363636367L-1965.5555555555554,398.83636363636367L-1938.888888888889,119.01818181818183L-1912.2222222222224,119.01818181818183L-1885.5555555555554,119.01818181818183L-1858.888888888889,119.01818181818183L-1832.2222222222222,119.01818181818183L-1805.5555555555557,119.01818181818183L-1778.8888888888887,119.01818181818183L-1752.2222222222222,119.01818181818183L-1725.5555555555557,119.01818181818183L-1698.8888888888887,119.01818181818183L-1672.2222222222222,119.01818181818183L-1645.5555555555557,119.01818181818183L-1618.888888888889,119.01818181818183L-1592.2222222222222,104.07272727272728L-1565.5555555555554,104.07272727272728L-1538.888888888889,104.07272727272728L-1512.2222222222222,104.07272727272728L-1485.5555555555557,104.07272727272728L-1458.888888888889,104.07272727272728L-1432.2222222222222,104.07272727272728L-1405.5555555555554,104.07272727272728L-1378.888888888889,104.07272727272728L-1352.2222222222222,104.07272727272728L-1325.5555555555557,104.07272727272728L-1298.888888888889,104.07272727272728L-1272.2222222222222,104.07272727272728L-1245.5555555555557,104.07272727272728L-1218.888888888889,104.07272727272728L-1192.2222222222222,104.07272727272728L-1165.5555555555554,104.07272727272728L-1138.888888888889,104.07272727272728L-1112.2222222222222,104.07272727272728L-1085.5555555555557,104.07272727272728L-1058.888888888889,104.07272727272728L-1032.2222222222222,104.07272727272728L-1005.5555555555555,104.07272727272728L-978.8888888888889,104.07272727272728L-952.2222222222222,104.07272727272728L-925.5555555555557,104.07272727272728L-898.8888888888889,104.07272727272728L-872.2222222222222,104.07272727272728L-845.5555555555555,104.07272727272728L-818.8888888888888,104.07272727272728L-792.2222222222223,104.07272727272728L-765.5555555555555,104.07272727272728L-738.8888888888889,104.07272727272728L-712.2222222222222,104.07272727272728L-685.5555555555555,104.07272727272728L-658.8888888888889,104.07272727272728L-632.2222222222222,104.07272727272728L-605.5555555555555,104.07272727272728L-578.8888888888889,104.07272727272728L-552.2222222222222,104.07272727272728L-525.5555555555555,104.07272727272728L-498.8888888888889,104.07272727272728L-472.22222222222223,104.07272727272728L-445.55555555555554,104.07272727272728L-418.8888888888889,104.07272727272728L-392.22222222222223,104.07272727272728L-365.55555555555554,104.07272727272728L-338.88888888888886,104.07272727272728L-312.22222222222223,104.07272727272728L-285.55555555555554,84.58181818181818L-258.8888888888889,84.58181818181818L-232.22222222222223,84.58181818181818L-205.55555555555554,81.74545454545456L-178.88888888888889,81.74545454545456L-152.22222222222223,81.74545454545456L-125.55555555555556,81.74545454545456L-98.88888888888889,81.74545454545456L-72.22222222222221,81.74545454545456L-45.55555555555556,81.74545454545456L-18.88888888888889,81.74545454545456L7.777777777777778,81.74545454545456L34.44444444444444,81.74545454545456L61.111111111111114,81.74545454545456L87.77777777777777,77.92727272727271L114.44444444444444,77.92727272727271L141.11111111111111,77.92727272727271L167.77777777777777,77.92727272727271L194.44444444444443,77.92727272727271L221.11111111111111,77.92727272727271L247.77777777777777,77.92727272727271L274.44444444444446,77.92727272727271L301.1111111111111,77.92727272727271L327.77777777777777,77.92727272727271L354.44444444444446,77.92727272727271L381.1111111111111,77.92727272727271L407.77777777777777,77.92727272727271" stroke="#e45756" stroke-width="2" opacity="0.7"></path></g></g><path class="foreground" aria-hidden="true" d="" display="none"></path></g><g transform="translate(0,0)"><path class="background" aria-hidden="true" d="M0,0h400v400h-400Z"></path><g><g class="mark-line role-mark concat_1_marks" clip-path="url(#clip8)" role="graphics-object" aria-roledescription="line mark container"><path aria-label="Type: Deaths; Date: Mar 01; Country: Norway; Confirmed: 19; Recovered: 0; Deaths: 0; Count: 0" role="graphics-symbol" aria-roledescription="line mark" d="M-4124.444444444444,400L-4097.777777777777,400L-4071.111111111111,400L-4044.4444444444443,400L-4017.777777777778,400L-3991.1111111111113,400L-3964.4444444444443,400L-3937.777777777778,400L-3912.222222222222,400L-3885.5555555555557,400L-3858.8888888888887,400L-3832.222222222222,400L-3805.5555555555557,400L-3778.888888888889,399.8909090909091L-3752.2222222222226,399.8909090909091L-3725.555555555555,399.8909090909091L-3698.8888888888887,399.8909090909091L-3672.222222222222,399.7818181818182L-3645.5555555555557,399.74545454545455L-3618.888888888889,399.74545454545455L-3592.2222222222226,399.74545454545455L-3565.5555555555557,399.74545454545455L-3538.8888888888887,399.6363636363637L-3512.222222222222,399.56363636363636L-3485.5555555555557,399.4909090909091L-3458.8888888888887,399.4909090909091L-3432.222222222222,399.3090909090909L-3405.5555555555557,399.16363636363633L-3378.888888888889,399.09090909090907L-3352.2222222222226,398.83636363636367L-3325.555555555555,398.5818181818182L-3298.8888888888887,398.4L-3272.222222222222,398.1818181818182L-3245.5555555555557,397.8545454545455L-3218.888888888889,397.74545454545455L-3192.222222222222,397.4181818181818L-3165.5555555555557,397.23636363636365L-3138.888888888889,396.7636363636364L-3112.222222222222,396.3272727272727L-3085.5555555555557,396.07272727272726L-3058.8888888888887,395.8909090909091L-3032.222222222222,395.6727272727273L-3005.5555555555557,395.3454545454545L-2978.8888888888887,395.1272727272727L-2952.222222222222,394.94545454545454L-2925.5555555555557,394.5454545454545L-2898.8888888888887,394.47272727272724L-2872.222222222222,394.1454545454545L-2845.5555555555557,394.03636363636366L-2818.888888888889,394L-2792.222222222222,393.4181818181818L-2765.5555555555557,393.3818181818182L-2738.888888888889,393.2L-2712.222222222222,392.94545454545454L-2685.5555555555557,392.7636363636364L-2658.8888888888887,392.6909090909091L-2632.222222222222,392.6909090909091L-2605.5555555555557,392.5454545454545L-2578.8888888888887,392.5090909090909L-2552.222222222222,392.47272727272724L-2525.5555555555557,392.3636363636364L-2498.8888888888887,392.3636363636364L-2472.222222222222,392.3272727272727L-2445.5555555555557,392.3272727272727L-2418.888888888889,392.2181818181818L-2392.222222222222,392.1818181818182L-2365.5555555555557,392.1454545454545L-2338.888888888889,392.1090909090909L-2312.222222222222,392.07272727272726L-2285.5555555555557,392.03636363636366L-2258.8888888888887,392.03636363636366L-2232.222222222222,391.8545454545455L-2205.5555555555557,391.70909090909095L-2178.8888888888887,391.6727272727273L-2152.222222222222,391.56363636363636L-2125.5555555555557,391.56363636363636L-2098.8888888888887,391.56363636363636L-2072.222222222222,391.56363636363636L-2045.5555555555557,391.5272727272727L-2018.888888888889,391.5272727272727L-1992.2222222222222,391.4909090909091L-1965.5555555555554,391.45454545454544L-1938.888888888889,391.45454545454544L-1912.2222222222224,391.45454545454544L-1885.5555555555554,391.45454545454544L-1858.888888888889,391.45454545454544L-1832.2222222222222,391.45454545454544L-1805.5555555555557,391.45454545454544L-1778.8888888888887,391.4181818181818L-1752.2222222222222,391.4181818181818L-1725.5555555555557,391.4181818181818L-1698.8888888888887,391.4181818181818L-1672.2222222222222,391.4181818181818L-1645.5555555555557,391.3818181818182L-1618.888888888889,391.3818181818182L-1592.2222222222222,391.3454545454545L-1565.5555555555554,391.3454545454545L-1538.888888888889,391.3454545454545L-1512.2222222222222,391.3454545454545L-1485.5555555555557,391.3090909090909L-1458.888888888889,391.3090909090909L-1432.2222222222222,391.3090909090909L-1405.5555555555554,391.2L-1378.888888888889,391.2L-1352.2222222222222,391.2L-1325.5555555555557,391.2L-1298.888888888889,391.2L-1272.2222222222222,391.2L-1245.5555555555557,391.1636363636364L-1218.888888888889,391.1272727272727L-1192.2222222222222,391.1272727272727L-1165.5555555555554,391.1272727272727L-1138.888888888889,391.1272727272727L-1112.2222222222222,390.9818181818182L-1085.5555555555557,390.9818181818182L-1058.888888888889,390.94545454545454L-1032.2222222222222,390.94545454545454L-1005.5555555555555,390.94545454545454L-978.8888888888889,390.94545454545454L-952.2222222222222,390.94545454545454L-925.5555555555557,390.94545454545454L-898.8888888888889,390.90909090909093L-872.2222222222222,390.8727272727273L-845.5555555555555,390.8727272727273L-818.8888888888888,390.8727272727273L-792.2222222222223,390.8727272727273L-765.5555555555555,390.8727272727273L-738.8888888888889,390.8727272727273L-712.2222222222222,390.8727272727273L-685.5555555555555,390.8727272727273L-658.8888888888889,390.83636363636367L-632.2222222222222,390.83636363636367L-605.5555555555555,390.83636363636367L-578.8888888888889,390.83636363636367L-552.2222222222222,390.8L-525.5555555555555,390.8L-498.8888888888889,390.8L-472.22222222222223,390.76363636363635L-445.55555555555554,390.72727272727275L-418.8888888888889,390.72727272727275L-392.22222222222223,390.72727272727275L-365.55555555555554,390.72727272727275L-338.88888888888886,390.72727272727275L-312.22222222222223,390.72727272727275L-285.55555555555554,390.72727272727275L-258.8888888888889,390.72727272727275L-232.22222222222223,390.72727272727275L-205.55555555555554,390.72727272727275L-178.88888888888889,390.72727272727275L-152.22222222222223,390.72727272727275L-125.55555555555556,390.72727272727275L-98.88888888888889,390.72727272727275L-72.22222222222221,390.72727272727275L-45.55555555555556,390.72727272727275L-18.88888888888889,390.72727272727275L7.777777777777778,390.6909090909091L34.44444444444444,390.6909090909091L61.111111111111114,390.6909090909091L87.77777777777777,390.6909090909091L114.44444444444444,390.6909090909091L141.11111111111111,390.6909090909091L167.77777777777777,390.6909090909091L194.44444444444443,390.6909090909091L221.11111111111111,390.6909090909091L247.77777777777777,390.6909090909091L274.44444444444446,390.6545454545454L301.1111111111111,390.5090909090909L327.77777777777777,390.5090909090909L354.44444444444446,390.5090909090909L381.1111111111111,390.5090909090909L407.77777777777777,390.47272727272724" stroke="#f58518" stroke-width="2" opacity="0.7"></path></g></g><path class="foreground" aria-hidden="true" d="" display="none"></path></g><g transform="translate(0,0)"><path class="background" aria-hidden="true" d="M0,0h400v400h-400Z"></path><g><g class="mark-line role-mark concat_1_marks" clip-path="url(#clip9)" role="graphics-object" aria-roledescription="line mark container"><path aria-label="Type: Confirmed; Date: Mar 01; Country: Norway; Confirmed: 19; Recovered: 0; Deaths: 0; Count: 19" role="graphics-symbol" aria-roledescription="line mark" d="M-4124.444444444444,399.3090909090909L-4097.777777777777,399.09090909090907L-4071.111111111111,398.83636363636367L-4044.4444444444443,397.96363636363634L-4017.777777777778,396.83636363636367L-3991.1111111111113,396.07272727272726L-3964.4444444444443,394.6545454545455L-3937.777777777778,393.6L-3912.222222222222,392.5454545454545L-3885.5555555555557,385.45454545454544L-3858.8888888888887,378.25454545454545L-3832.222222222222,374.4727272727273L-3805.5555555555557,363.7818181818182L-3778.888888888889,360.3636363636364L-3752.2222222222226,355.6L-3725.555555555555,351.52727272727276L-3698.8888888888887,346.8L-3672.222222222222,343.6363636363636L-3645.5555555555557,336.5090909090909L-3618.888888888889,330.40000000000003L-3592.2222222222226,322.9818181818182L-3565.5555555555557,313.27272727272725L-3538.8888888888887,304.6909090909091L-3512.222222222222,295.89090909090913L-3485.5555555555557,287.8545454545455L-3458.8888888888887,277.4909090909091L-3432.222222222222,263.4545454545455L-3405.5555555555557,254L-3378.888888888889,244.2181818181818L-3352.2222222222226,238.36363636363637L-3325.555555555555,231.23636363636365L-3298.8888888888887,223.16363636363636L-3272.222222222222,212.83636363636367L-3245.5555555555557,204.72727272727275L-3218.888888888889,198.1818181818182L-3192.222222222222,193.2L-3165.5555555555557,186.72727272727272L-3138.888888888889,178.6909090909091L-3112.222222222222,178.6909090909091L-3085.5555555555557,174.14545454545456L-3058.8888888888887,170.4L-3032.222222222222,166.94545454545454L-3005.5555555555557,162.72727272727275L-2978.8888888888887,159.89090909090908L-2952.222222222222,159.16363636363636L-2925.5555555555557,154.90909090909093L-2898.8888888888887,149.23636363636365L-2872.222222222222,147.74545454545455L-2845.5555555555557,144.14545454545453L-2818.888888888889,142.6181818181818L-2792.222222222222,139.78181818181818L-2765.5555555555557,138.5090909090909L-2738.888888888889,133.16363636363639L-2712.222222222222,130.87272727272725L-2685.5555555555557,128.61818181818182L-2658.8888888888887,127.30909090909091L-2632.222222222222,126.2909090909091L-2605.5555555555557,123.67272727272729L-2578.8888888888887,121.45454545454544L-2552.222222222222,119.63636363636363L-2525.5555555555557,118.61818181818182L-2498.8888888888887,116.98181818181817L-2472.222222222222,116.03636363636363L-2445.5555555555557,114.65454545454547L-2418.888888888889,112.58181818181816L-2392.222222222222,110.72727272727275L-2365.5555555555557,109.23636363636362L-2338.888888888889,107.85454545454547L-2312.222222222222,106.54545454545455L-2285.5555555555557,105.49090909090908L-2258.8888888888887,105.27272727272728L-2232.222222222222,104.29090909090908L-2205.5555555555557,103.3818181818182L-2178.8888888888887,102.72727272727273L-2152.222222222222,101.96363636363634L-2125.5555555555557,101.12727272727273L-2098.8888888888887,100.47272727272727L-2072.222222222222,100.03636363636366L-2045.5555555555557,99.74545454545454L-2018.888888888889,99.38181818181819L-1992.2222222222222,98.87272727272727L-1965.5555555555554,97.85454545454546L-1938.888888888889,97.0181818181818L-1912.2222222222224,96.50909090909093L-1885.5555555555554,96.29090909090907L-1858.888888888889,95.85454545454546L-1832.2222222222222,95.16363636363639L-1805.5555555555557,94.50909090909092L-1778.8888888888887,94.14545454545453L-1752.2222222222222,93.74545454545454L-1725.5555555555557,93.19999999999999L-1698.8888888888887,93.09090909090911L-1672.2222222222222,92.87272727272726L-1645.5555555555557,92.54545454545453L-1618.888888888889,91.74545454545454L-1592.2222222222222,90.76363636363638L-1565.5555555555554,90.10909090909092L-1538.888888888889,89.78181818181818L-1512.2222222222222,89.19999999999999L-1485.5555555555557,88.69090909090912L-1458.888888888889,88.14545454545453L-1432.2222222222222,87.49090909090911L-1405.5555555555554,86.98181818181818L-1378.888888888889,86.54545454545453L-1352.2222222222222,86.25454545454545L-1325.5555555555557,86.14545454545453L-1298.888888888889,85.56363636363638L-1272.2222222222222,85.09090909090911L-1245.5555555555557,83.92727272727272L-1218.888888888889,83.34545454545457L-1192.2222222222222,82.6909090909091L-1165.5555555555554,82.10909090909091L-1138.888888888889,81.99999999999999L-1112.2222222222222,81.78181818181818L-1085.5555555555557,81.01818181818183L-1058.888888888889,80.43636363636364L-1032.2222222222222,80.43636363636364L-1005.5555555555555,78.83636363636364L-978.8888888888889,78.32727272727271L-952.2222222222222,77.99999999999999L-925.5555555555557,77.74545454545456L-898.8888888888889,77.12727272727271L-872.2222222222222,76.5090909090909L-845.5555555555555,76.2909090909091L-818.8888888888888,75.59999999999998L-792.2222222222223,75.41818181818184L-765.5555555555555,75.2727272727273L-738.8888888888889,75.05454545454543L-712.2222222222222,74.65454545454544L-685.5555555555555,74.54545454545456L-658.8888888888889,74.00000000000003L-632.2222222222222,73.67272727272729L-605.5555555555555,73.56363636363636L-578.8888888888889,73.41818181818182L-552.2222222222222,73.3090909090909L-525.5555555555555,72.69090909090909L-498.8888888888889,72.32727272727271L-472.22222222222223,72.18181818181817L-445.55555555555554,71.81818181818183L-418.8888888888889,71.7090909090909L-392.22222222222223,71.7090909090909L-365.55555555555554,71.4909090909091L-338.88888888888886,70.80000000000001L-312.22222222222223,70.58181818181816L-285.55555555555554,69.63636363636363L-258.8888888888889,69.38181818181816L-232.22222222222223,68.69090909090909L-205.55555555555554,68.47272727272728L-178.88888888888889,67.92727272727275L-152.22222222222223,67.27272727272728L-125.55555555555556,66.47272727272728L-98.88888888888889,65.16363636363636L-72.22222222222221,64.00000000000001L-45.55555555555556,63.527272727272745L-18.88888888888889,62.98181818181816L7.777777777777778,60.58181818181821L34.44444444444444,59.56363636363635L61.111111111111114,57.85454545454547L87.77777777777777,55.70909090909093L114.44444444444444,52.690909090909074L141.11111111111111,50.94545454545454L167.77777777777777,49.52727272727273L194.44444444444443,47.85454545454546L221.11111111111111,45.4181818181818L247.77777777777777,44.25454545454546L274.44444444444446,41.78181818181819L301.1111111111111,39.70909090909092L327.77777777777777,37.63636363636365L354.44444444444446,36.18181818181818L381.1111111111111,34.18181818181818L407.77777777777777,32.327272727272714" stroke="#4c78a8" stroke-width="2" opacity="0.7"></path></g></g><path class="foreground" aria-hidden="true" d="" display="none"></path></g></g><g class="mark-group role-title"><g transform="translate(200,-54)"><path class="background" aria-hidden="true" d="M0,0h0v0h0Z" pointer-events="none"></path><g><g class="mark-text role-title-text" role="graphics-symbol" aria-roledescription="title" aria-label="Title text 'Total [2020-08-18]'" pointer-events="none"><text text-anchor="middle" transform="translate(0,10)" font-family="Roboto Condensed" font-size="13px" font-weight="normal" fill="#000" opacity="1"><tspan>Total</tspan><tspan x="0" dy="15">[2020-08-18]</tspan></text></g></g><path class="foreground" aria-hidden="true" d="" pointer-events="none" display="none"></path></g></g></g><path class="foreground" aria-hidden="true" d="" display="none"></path></g></g><g class="mark-group role-legend" role="graphics-symbol" aria-roledescription="legend" aria-label="Symbol legend for stroke color with 3 values: Confirmed, Deaths, Recovered"><g transform="translate(883,0)"><path class="background" aria-hidden="true" d="M0,0h58v37h-58Z" pointer-events="none"></path><g><g class="mark-group role-legend-entry"><g transform="translate(0,0)"><path class="background" aria-hidden="true" d="M0,0h0v0h0Z" pointer-events="none"></path><g><g class="mark-group role-scope" role="graphics-object" aria-roledescription="group mark container"><g transform="translate(0,0)"><path class="background" aria-hidden="true" d="M0,0h58v11h-58Z" pointer-events="none" opacity="1"></path><g><g class="mark-symbol role-legend-symbol" pointer-events="none"><path transform="translate(6,6)" d="M-5,0L5,0" stroke="#4c78a8" stroke-width="1.5" opacity="0.2"></path></g><g class="mark-text role-legend-label" pointer-events="none"><text text-anchor="start" transform="translate(16,9)" font-family="Roboto Condensed" font-size="10px" fill="#000" opacity="1">Confirmed</text></g></g><path class="foreground" aria-hidden="true" d="" pointer-events="none" display="none"></path></g><g transform="translate(0,13)"><path class="background" aria-hidden="true" d="M0,0h58v11h-58Z" pointer-events="none" opacity="1"></path><g><g class="mark-symbol role-legend-symbol" pointer-events="none"><path transform="translate(6,6)" d="M-5,0L5,0" stroke="#f58518" stroke-width="1.5" opacity="0.2"></path></g><g class="mark-text role-legend-label" pointer-events="none"><text text-anchor="start" transform="translate(16,9)" font-family="Roboto Condensed" font-size="10px" fill="#000" opacity="1">Deaths</text></g></g><path class="foreground" aria-hidden="true" d="" pointer-events="none" display="none"></path></g><g transform="translate(0,26)"><path class="background" aria-hidden="true" d="M0,0h58v11h-58Z" pointer-events="none" opacity="1"></path><g><g class="mark-symbol role-legend-symbol" pointer-events="none"><path transform="translate(6,6)" d="M-5,0L5,0" stroke="#e45756" stroke-width="1.5" opacity="0.2"></path></g><g class="mark-text role-legend-label" pointer-events="none"><text text-anchor="start" transform="translate(16,9)" font-family="Roboto Condensed" font-size="10px" fill="#000" opacity="1">Recovered</text></g></g><path class="foreground" aria-hidden="true" d="" pointer-events="none" display="none"></path></g></g></g><path class="foreground" aria-hidden="true" d="" pointer-events="none" display="none"></path></g></g></g><path class="foreground" aria-hidden="true" d="" pointer-events="none" display="none"></path></g></g></g><path class="foreground" aria-hidden="true" d="" display="none"></path></g></g></g></svg>