<svg class="marks" width="996" height="491" viewBox="0 0 996 491" version="1.1" xmlns="http://www.w3.org/2000/svg" xmlns:xlink="http://www.w3.org/1999/xlink"><defs><clipPath id="clip1"><rect x="0" y="0" width="400" height="400"></rect></clipPath><clipPath id="clip2"><rect x="0" y="0" width="400" height="400"></rect></clipPath><clipPath id="clip3"><rect x="0" y="0" width="400" height="400"></rect></clipPath><clipPath id="clip4"><rect x="0" y="0" width="400" height="400"></rect></clipPath><clipPath id="clip5"><rect x="0" y="0" width="400" height="400"></rect></clipPath><clipPath id="clip6"><rect x="0" y="0" width="400" height="400"></rect></clipPath><clipPath id="clip7"><rect x="0" y="0" width="400" height="400"></rect></clipPath><clipPath id="clip8"><rect x="0" y="0" width="400" height="400"></rect></clipPath><clipPath id="clip9"><rect x="0" y="0" width="400" height="400"></rect></clipPath></defs><rect width="996" height="491" fill="white"></rect><g fill="none" stroke-miterlimit="10" transform="translate(50,59)"><g class="mark-group role-frame root" role="graphics-object" aria-roledescription="group mark container"><g transform="translate(0,0)"><path class="background" aria-hidden="true" d="M0,0h0v400h0Z"></path><g><g class="mark-group role-scope concat_0_group" role="graphics-object" aria-roledescription="group mark container"><g transform="translate(0,0)"><path class="background" aria-hidden="true" d="M0,0h400v400h-400Z" stroke="#ddd" stroke-width="0"></path><g><g class="mark-group role-axis" aria-hidden="true"><g transform="translate(0.5,0.5)"><path class="background" aria-hidden="true" d="M0,0h0v0h0Z" pointer-events="none"></path><g><g class="mark-rule role-axis-grid" pointer-events="none"><line transform="translate(0,400)" x2="400" y2="0" stroke="#ddd" stroke-width="1" opacity="1"></line><line transform="translate(0,350)" x2="400" y2="0" stroke="#ddd" stroke-width="1" opacity="1"></line><line transform="translate(0,300)" x2="400" y2="0" stroke="#ddd" stroke-width="1" opacity="1"></line><line transform="translate(0,250)" x2="400" y2="0" stroke="#ddd" stroke-width="1" opacity="1"></line><line transform="translate(0,200)" x2="400" y2="0" stroke="#ddd" stroke-width="1" opacity="1"></line><line transform="translate(0,150)" x2="400" y2="0" stroke="#ddd" stroke-width="1" opacity="1"></line><line transform="translate(0,100)" x2="400" y2="0" stroke="#ddd" stroke-width="1" opacity="1"></line><line transform="translate(0,50)" x2="400" y2="0" stroke="#ddd" stroke-width="1" opacity="1"></line><line transform="translate(0,0)" x2="400" y2="0" stroke="#ddd" stroke-width="1" opacity="1"></line></g></g><path class="foreground" aria-hidden="true" d="" pointer-events="none" display="none"></path></g></g><g class="mark-group role-axis" role="graphics-symbol" aria-roledescription="axis" aria-label="X-axis titled 'Date' for a time scale with values from June 28 to July 13"><g transform="translate(0.5,400.5)"><path class="background" aria-hidden="true" d="M0,0h0v0h0Z" pointer-events="none"></path><g><g class="mark-text role-axis-label" pointer-events="none"><text text-anchor="middle" transform="translate(7.777777777777778,10)" font-family="Roboto Condensed" font-size="10px" fill="#000" opacity="1">Jun 29</text><text text-anchor="middle" transform="translate(61.111111111111114,10)" font-family="Roboto Condensed" font-size="10px" fill="#000" opacity="1">Jul 01</text><text text-anchor="middle" transform="translate(114.44444444444444,10)" font-family="Roboto Condensed" font-size="10px" fill="#000" opacity="1">Jul 03</text><text text-anchor="middle" transform="translate(167.77777777777777,10)" font-family="Roboto Condensed" font-size="10px" fill="#000" opacity="1">Jul 05</text><text text-anchor="middle" transform="translate(221.11111111111111,10)" font-family="Roboto Condensed" font-size="10px" fill="#000" opacity="1">Jul 07</text><text text-anchor="middle" transform="translate(274.44444444444446,10)" font-family="Roboto Condensed" font-size="10px" fill="#000" opacity="1">Jul 09</text><text text-anchor="middle" transform="translate(327.77777777777777,10)" font-family="Roboto Condensed" font-size="10px" fill="#000" opacity="1">Jul 11</text><text text-anchor="middle" transform="translate(381.1111111111111,10)" font-family="Roboto Condensed" font-size="10px" fill="#000" opacity="1">Jul 13</text></g><g class="mark-rule role-axis-domain" pointer-events="none"><line transform="translate(0,0)" x2="400" y2="0" stroke="lightgray" stroke-width="1" opacity="1"></line></g><g class="mark-text role-axis-title" pointer-events="none"><text text-anchor="middle" transform="translate(200,25)" font-family="Roboto Condensed" font-size="11px" font-weight="normal" fill="#000" opacity="1">Date</text></g></g><path class="foreground" aria-hidden="true" d="" pointer-events="none" display="none"></path></g></g><g class="mark-group role-axis" role="graphics-symbol" aria-roledescription="axis" aria-label="Y-axis titled 'Count' for a linear scale with values from -200 to 1,400"><g transform="translate(0.5,0.5)"><path class="background" aria-hidden="true" d="M0,0h0v0h0Z" pointer-events="none"></path><g><g class="mark-text role-axis-label" pointer-events="none"><text text-anchor="end" transform="translate(-2,403)" font-family="Roboto Condensed" font-size="10px" fill="#000" opacity="1">-200</text><text text-anchor="end" transform="translate(-2,353)" font-family="Roboto Condensed" font-size="10px" fill="#000" opacity="1">0</text><text text-anchor="end" transform="translate(-2,303)" font-family="Roboto Condensed" font-size="10px" fill="#000" opacity="1">200</text><text text-anchor="end" transform="translate(-2,253)" font-family="Roboto Condensed" font-size="10px" fill="#000" opacity="1">400</text><text text-anchor="end" transform="translate(-2,203)" font-family="Roboto Condensed" font-size="10px" fill="#000" opacity="1">600</text><text text-anchor="end" transform="translate(-2,153)" font-family="Roboto Condensed" font-size="10px" fill="#000" opacity="1">800</text><text text-anchor="end" transform="translate(-2,103)" font-family="Roboto Condensed" font-size="10px" fill="#000" opacity="1">1,000</text><text text-anchor="end" transform="translate(-2,53)" font-family="Roboto Condensed" font-size="10px" fill="#000" opacity="1">1,200</text><text text-anchor="end" transform="translate(-2,3)" font-family="Roboto Condensed" font-size="10px" fill="#000" opacity="1">1,400</text></g><g class="mark-rule role-axis-domain" pointer-events="none"><line transform="translate(0,400)" x2="0" y2="-400" stroke="lightgray" stroke-width="1" opacity="1"></line></g><g class="mark-text role-axis-title" pointer-events="none"><text text-anchor="start" transform="translate(-45,-13)" font-family="Roboto Condensed" font-size="11px" font-weight="normal" fill="#000" opacity="1">Count</text></g></g><path class="foreground" aria-hidden="true" d="" pointer-events="none" display="none"></path></g></g><g class="mark-group role-scope concat_0_layer_0_pathgroup" role="graphics-object" aria-roledescription="group mark container"><g transform="translate(0,0)"><path class="background" aria-hidden="true" d="M0,0h400v400h-400Z"></path><g><g class="mark-line role-mark concat_0_layer_0_marks" clip-path="url(#clip1)" role="graphics-object" aria-roledescription="line mark container"><path aria-label="Type: Recovered; Date: Mar 01; Count: 0" role="graphics-symbol" aria-roledescription="line mark" d="M-3191.1111111111113,350L-3164.4444444444443,350L-3137.777777777778,350L-3111.111111111111,350L-3084.4444444444443,350L-3057.777777777778,350L-3031.111111111111,350L-3004.4444444444443,350L-2978.8888888888887,350L-2952.222222222222,350L-2925.5555555555557,350L-2898.8888888888887,350L-2872.222222222222,350L-2845.5555555555557,350L-2818.888888888889,347.75L-2792.222222222222,350L-2765.5555555555557,350L-2738.888888888889,350L-2712.222222222222,350L-2685.5555555555557,350L-2658.8888888888887,350L-2632.222222222222,350L-2605.5555555555557,350L-2578.8888888888887,350L-2552.222222222222,350L-2525.5555555555557,350L-2498.8888888888887,350L-2472.222222222222,350L-2445.5555555555557,350L-2418.888888888889,350L-2392.222222222222,350L-2365.5555555555557,350L-2338.888888888889,277.5L-2312.222222222222,350L-2285.5555555555557,350L-2258.8888888888887,350L-2232.222222222222,350L-2205.5555555555557,350L-2178.8888888888887,350L-2152.222222222222,350L-2125.5555555555557,350L-2098.8888888888887,350L-2072.222222222222,350L-2045.5555555555557,350L-2018.888888888889,350L-1992.2222222222222,350L-1965.5555555555554,0L-1938.888888888889,350L-1912.2222222222224,350L-1885.5555555555554,350L-1858.888888888889,275L-1832.2222222222222,350L-1805.5555555555557,350L-1778.8888888888887,350L-1752.2222222222222,225L-1725.5555555555557,350L-1698.8888888888887,350L-1672.2222222222222,350L-1645.5555555555557,275L-1618.888888888889,350L-1592.2222222222222,300L-1565.5555555555554,350L-1538.888888888889,350L-1512.2222222222222,350L-1485.5555555555557,225L-1458.888888888889,350L-1432.2222222222222,350L-1405.5555555555554,350L-1378.888888888889,225L-1352.2222222222222,350L-1325.5555555555557,350L-1298.888888888889,350L-1272.2222222222222,275L-1245.5555555555557,350L-1218.888888888889,350L-1192.2222222222222,175L-1165.5555555555554,350L-1138.888888888889,350L-1112.2222222222222,350L-1085.5555555555557,350L-1058.888888888889,400L-1032.2222222222222,350L-1005.5555555555555,350L-978.8888888888889,350L-952.2222222222222,350L-925.5555555555557,275L-898.8888888888889,350L-872.2222222222222,350L-845.5555555555555,250L-818.8888888888888,350L-792.2222222222223,350L-765.5555555555555,350L-738.8888888888889,350L-712.2222222222222,350L-685.5555555555555,350L-658.8888888888889,275L-632.2222222222222,350L-605.5555555555555,350L-578.8888888888889,350L-552.2222222222222,350L-525.5555555555555,350L-498.8888888888889,350L-472.22222222222223,250L-445.55555555555554,350L-418.8888888888889,350L-392.22222222222223,350L-365.55555555555554,350L-338.88888888888886,350L-312.22222222222223,350L-285.55555555555554,350L-258.8888888888889,350L-232.22222222222223,350L-205.55555555555554,350L-178.88888888888889,300L-152.22222222222223,350L-125.55555555555556,300L-98.88888888888889,350L-72.22222222222221,350L-45.55555555555556,350L-18.88888888888889,350L7.777777777777778,350L34.44444444444444,350L61.111111111111114,325L87.77777777777777,350L114.44444444444444,350L141.11111111111111,350L167.77777777777777,350L194.44444444444443,350L221.11111111111111,350L247.77777777777777,325L274.44444444444446,350L301.1111111111111,350L327.77777777777777,350L354.44444444444446,350L381.1111111111111,350L407.77777777777777,350" stroke="#e45756" stroke-width="2" opacity="0.2"></path></g></g><path class="foreground" aria-hidden="true" d="" display="none"></path></g><g transform="translate(0,0)"><path class="background" aria-hidden="true" d="M0,0h400v400h-400Z"></path><g><g class="mark-line role-mark concat_0_layer_0_marks" clip-path="url(#clip2)" role="graphics-object" aria-roledescription="line mark container"><path aria-label="Type: Deaths; Date: Mar 01; Count: 0" role="graphics-symbol" aria-roledescription="line mark" d="M-3191.1111111111113,350L-3164.4444444444443,350L-3137.777777777778,350L-3111.111111111111,350L-3084.4444444444443,350L-3057.777777777778,350L-3031.111111111111,350L-3004.4444444444443,350L-2978.8888888888887,350L-2952.222222222222,350L-2925.5555555555557,350L-2898.8888888888887,350L-2872.222222222222,350L-2845.5555555555557,350L-2818.888888888889,350L-2792.222222222222,350L-2765.5555555555557,350L-2738.888888888889,350L-2712.222222222222,350L-2685.5555555555557,350L-2658.8888888888887,349.75L-2632.222222222222,350L-2605.5555555555557,350L-2578.8888888888887,350L-2552.222222222222,349.5L-2525.5555555555557,349.5L-2498.8888888888887,349.5L-2472.222222222222,349.5L-2445.5555555555557,349.5L-2418.888888888889,349.5L-2392.222222222222,349L-2365.5555555555557,350L-2338.888888888889,349.5L-2312.222222222222,349.75L-2285.5555555555557,348.75L-2258.8888888888887,349.25L-2232.222222222222,350.25L-2205.5555555555557,348.25L-2178.8888888888887,348.5L-2152.222222222222,349.5L-2125.5555555555557,348.5L-2098.8888888888887,349.75L-2072.222222222222,348.25L-2045.5555555555557,349.25L-2018.888888888889,348.75L-1992.2222222222222,348L-1965.5555555555554,349.25L-1938.888888888889,348.25L-1912.2222222222224,348L-1885.5555555555554,349L-1858.888888888889,349L-1832.2222222222222,339.25L-1805.5555555555557,348L-1778.8888888888887,344.25L-1752.2222222222222,348.75L-1725.5555555555557,347.75L-1698.8888888888887,349L-1672.2222222222222,349.25L-1645.5555555555557,348.5L-1618.888888888889,348.25L-1592.2222222222222,348.75L-1565.5555555555554,348.25L-1538.888888888889,349.5L-1512.2222222222222,347.5L-1485.5555555555557,347.5L-1458.888888888889,348.5L-1432.2222222222222,348.5L-1405.5555555555554,349.25L-1378.888888888889,348.75L-1352.2222222222222,348.75L-1325.5555555555557,349.5L-1298.888888888889,349L-1272.2222222222222,349L-1245.5555555555557,347.75L-1218.888888888889,349.25L-1192.2222222222222,348.5L-1165.5555555555554,349L-1138.888888888889,349.75L-1112.2222222222222,349.5L-1085.5555555555557,349.75L-1058.888888888889,349.25L-1032.2222222222222,349.5L-1005.5555555555555,350L-978.8888888888889,350L-952.2222222222222,349.75L-925.5555555555557,349.75L-898.8888888888889,349L-872.2222222222222,349.75L-845.5555555555555,350L-818.8888888888888,349.75L-792.2222222222223,349.5L-765.5555555555555,349L-738.8888888888889,350.5L-712.2222222222222,349.5L-685.5555555555555,349.75L-658.8888888888889,349.75L-632.2222222222222,350L-605.5555555555555,350L-578.8888888888889,349.75L-552.2222222222222,350L-525.5555555555555,349.75L-498.8888888888889,350L-472.22222222222223,349.75L-445.55555555555554,350L-418.8888888888889,350L-392.22222222222223,349.75L-365.55555555555554,350L-338.88888888888886,350L-312.22222222222223,350L-285.55555555555554,350L-258.8888888888889,350L-232.22222222222223,350L-205.55555555555554,350L-178.88888888888889,349.75L-152.22222222222223,350L-125.55555555555556,350L-98.88888888888889,350L-72.22222222222221,349.75L-45.55555555555556,350L-18.88888888888889,350L7.777777777777778,350L34.44444444444444,350L61.111111111111114,350L87.77777777777777,350L114.44444444444444,349.75L141.11111111111111,350L167.77777777777777,350L194.44444444444443,350L221.11111111111111,350L247.77777777777777,350L274.44444444444446,350L301.1111111111111,350L327.77777777777777,350L354.44444444444446,350L381.1111111111111,350L407.77777777777777,350" stroke="#f58518" stroke-width="2" opacity="0.2"></path></g></g><path class="foreground" aria-hidden="true" d="" display="none"></path></g><g transform="translate(0,0)"><path class="background" aria-hidden="true" d="M0,0h400v400h-400Z"></path><g><g class="mark-line role-mark concat_0_layer_0_marks" clip-path="url(#clip3)" role="graphics-object" aria-roledescription="line mark container"><path aria-label="Type: Confirmed; Date: Mar 01; Count: 3" role="graphics-symbol" aria-roledescription="line mark" d="M-3191.1111111111113,349.25L-3164.4444444444443,350L-3137.777777777778,350L-3111.111111111111,350L-3084.4444444444443,348.5L-3057.777777777778,349.25L-3031.111111111111,350L-3004.4444444444443,348L-2978.8888888888887,348.25L-2952.222222222222,347.5L-2925.5555555555557,345.25L-2898.8888888888887,350L-2872.222222222222,326L-2845.5555555555557,332.5L-2818.888888888889,345.25L-2792.222222222222,341.75L-2765.5555555555557,339L-2738.888888888889,346.25L-2712.222222222222,334L-2685.5555555555557,337.5L-2658.8888888888887,331.75L-2632.222222222222,324.25L-2605.5555555555557,331.5L-2578.8888888888887,327L-2552.222222222222,328L-2525.5555555555557,330.5L-2498.8888888888887,329.25L-2472.222222222222,318.5L-2445.5555555555557,331.75L-2418.888888888889,322L-2392.222222222222,333.5L-2365.5555555555557,343L-2338.888888888889,332L-2312.222222222222,325.75L-2285.5555555555557,283.25L-2258.8888888888887,338.75L-2232.222222222222,287.75L-2205.5555555555557,317L-2178.8888888888887,305.25L-2152.222222222222,320.5L-2125.5555555555557,309L-2098.8888888888887,316L-2072.222222222222,332.75L-2045.5555555555557,327.5L-2018.888888888889,325.75L-1992.2222222222222,331L-1965.5555555555554,317L-1938.888888888889,320L-1912.2222222222224,302L-1885.5555555555554,324.5L-1858.888888888889,328.75L-1832.2222222222222,313.5L-1805.5555555555557,321.25L-1778.8888888888887,311.25L-1752.2222222222222,322.25L-1725.5555555555557,330L-1698.8888888888887,324.75L-1672.2222222222222,320.25L-1645.5555555555557,338.75L-1618.888888888889,308.5L-1592.2222222222222,327.75L-1565.5555555555554,336L-1538.888888888889,318.75L-1512.2222222222222,330.5L-1485.5555555555557,331.75L-1458.888888888889,328.75L-1432.2222222222222,309.75L-1405.5555555555554,325L-1378.888888888889,333.75L-1352.2222222222222,314.5L-1325.5555555555557,329.5L-1298.888888888889,344.5L-1272.2222222222222,345.25L-1245.5555555555557,337.25L-1218.888888888889,327.25L-1192.2222222222222,329.25L-1165.5555555555554,335.5L-1138.888888888889,334.75L-1112.2222222222222,341.75L-1085.5555555555557,345.25L-1058.888888888889,339L-1032.2222222222222,337.5L-1005.5555555555555,339L-978.8888888888889,342.25L-952.2222222222222,347.25L-925.5555555555557,345L-898.8888888888889,342.75L-872.2222222222222,334L-845.5555555555555,337.25L-818.8888888888888,341.75L-792.2222222222223,337.5L-765.5555555555555,341.75L-738.8888888888889,343.5L-712.2222222222222,349.5L-685.5555555555555,344L-658.8888888888889,350L-632.2222222222222,342.5L-605.5555555555555,344.25L-578.8888888888889,345.75L-552.2222222222222,345L-525.5555555555555,344L-498.8888888888889,346.25L-472.22222222222223,344L-445.55555555555554,347.75L-418.8888888888889,346.5L-392.22222222222223,345.75L-365.55555555555554,349L-338.88888888888886,349L-312.22222222222223,348.75L-285.55555555555554,349.5L-258.8888888888889,346.5L-232.22222222222223,347.75L-205.55555555555554,349.75L-178.88888888888889,349.75L-152.22222222222223,347.25L-125.55555555555556,347L-98.88888888888889,348.75L-72.22222222222221,345.25L-45.55555555555556,348.25L-18.88888888888889,350L7.777777777777778,347.25L34.44444444444444,348.75L61.111111111111114,344.5L87.77777777777777,348.75L114.44444444444444,349.75L141.11111111111111,348.5L167.77777777777777,348.75L194.44444444444443,349L221.11111111111111,348.75L247.77777777777777,349.25L274.44444444444446,348L301.1111111111111,348.5L327.77777777777777,347L354.44444444444446,349.25L381.1111111111111,349.75L407.77777777777777,348.5" stroke="#4c78a8" stroke-width="2" opacity="0.2"></path></g></g><path class="foreground" aria-hidden="true" d="" display="none"></path></g></g><g class="mark-group role-scope concat_0_layer_1_pathgroup" role="graphics-object" aria-roledescription="group mark container"><g transform="translate(0,0)"><path class="background" aria-hidden="true" d="M0,0h400v400h-400Z"></path><g><g class="mark-line role-mark concat_0_layer_1_marks" clip-path="url(#clip4)" role="graphics-object" aria-roledescription="line mark container"><path aria-label="Type: Recovered; Date: Mar 01; Count: 0" role="graphics-symbol" aria-roledescription="line mark" d="M-3031.111111111111,350L-3004.4444444444443,350L-2978.8888888888887,350L-2952.222222222222,350L-2925.5555555555557,350L-2898.8888888888887,350L-2872.222222222222,350L-2845.5555555555557,350L-2818.888888888889,349.67857142857144L-2792.222222222222,349.67857142857144L-2765.5555555555557,349.67857142857144L-2738.888888888889,349.67857142857144L-2712.222222222222,349.67857142857144L-2685.5555555555557,349.67857142857144L-2658.8888888888887,349.67857142857144L-2632.222222222222,350L-2605.5555555555557,350L-2578.8888888888887,350L-2552.222222222222,350L-2525.5555555555557,350L-2498.8888888888887,350L-2472.222222222222,350L-2445.5555555555557,350L-2418.888888888889,350L-2392.222222222222,350L-2365.5555555555557,350L-2338.888888888889,339.6428571428571L-2312.222222222222,339.6428571428571L-2285.5555555555557,339.6428571428571L-2258.8888888888887,339.6428571428571L-2232.222222222222,339.6428571428571L-2205.5555555555557,339.6428571428571L-2178.8888888888887,339.6428571428571L-2152.222222222222,350L-2125.5555555555557,350L-2098.8888888888887,350L-2072.222222222222,350L-2045.5555555555557,350L-2018.888888888889,350L-1992.2222222222222,350L-1965.5555555555554,300L-1938.888888888889,300L-1912.2222222222224,300L-1885.5555555555554,300L-1858.888888888889,289.2857142857143L-1832.2222222222222,289.2857142857143L-1805.5555555555557,289.2857142857143L-1778.8888888888887,339.2857142857143L-1752.2222222222222,321.42857142857144L-1725.5555555555557,321.42857142857144L-1698.8888888888887,321.42857142857144L-1672.2222222222222,332.1428571428571L-1645.5555555555557,321.42857142857144L-1618.888888888889,321.42857142857144L-1592.2222222222222,314.2857142857143L-1565.5555555555554,332.1428571428571L-1538.888888888889,332.1428571428571L-1512.2222222222222,332.1428571428571L-1485.5555555555557,314.2857142857143L-1458.888888888889,325L-1432.2222222222222,325L-1405.5555555555554,332.1428571428571L-1378.888888888889,314.2857142857143L-1352.2222222222222,314.2857142857143L-1325.5555555555557,314.2857142857143L-1298.888888888889,332.1428571428571L-1272.2222222222222,321.42857142857144L-1245.5555555555557,321.42857142857144L-1218.888888888889,321.42857142857144L-1192.2222222222222,314.2857142857143L-1165.5555555555554,314.2857142857143L-1138.888888888889,314.2857142857143L-1112.2222222222222,314.2857142857143L-1085.5555555555557,325L-1058.888888888889,332.1428571428571L-1032.2222222222222,332.1428571428571L-1005.5555555555555,357.14285714285717L-978.8888888888889,357.14285714285717L-952.2222222222222,357.14285714285717L-925.5555555555557,346.42857142857144L-898.8888888888889,346.42857142857144L-872.2222222222222,339.2857142857143L-845.5555555555555,325L-818.8888888888888,325L-792.2222222222223,325L-765.5555555555555,325L-738.8888888888889,335.7142857142857L-712.2222222222222,335.7142857142857L-685.5555555555555,335.7142857142857L-658.8888888888889,339.2857142857143L-632.2222222222222,339.2857142857143L-605.5555555555555,339.2857142857143L-578.8888888888889,339.2857142857143L-552.2222222222222,339.2857142857143L-525.5555555555555,339.2857142857143L-498.8888888888889,339.2857142857143L-472.22222222222223,335.7142857142857L-445.55555555555554,335.7142857142857L-418.8888888888889,335.7142857142857L-392.22222222222223,335.7142857142857L-365.55555555555554,335.7142857142857L-338.88888888888886,335.7142857142857L-312.22222222222223,335.7142857142857L-285.55555555555554,350L-258.8888888888889,350L-232.22222222222223,350L-205.55555555555554,350L-178.88888888888889,342.85714285714283L-152.22222222222223,342.85714285714283L-125.55555555555556,335.7142857142857L-98.88888888888889,335.7142857142857L-72.22222222222221,335.7142857142857L-45.55555555555556,335.7142857142857L-18.88888888888889,335.7142857142857L7.777777777777778,342.85714285714283L34.44444444444444,342.85714285714283L61.111111111111114,346.42857142857144L87.77777777777777,346.42857142857144L114.44444444444444,346.42857142857144L141.11111111111111,346.42857142857144L167.77777777777777,346.42857142857144L194.44444444444443,346.42857142857144L221.11111111111111,346.42857142857144L247.77777777777777,346.42857142857144L274.44444444444446,346.42857142857144L301.1111111111111,346.42857142857144L327.77777777777777,346.42857142857144L354.44444444444446,346.42857142857144L381.1111111111111,346.42857142857144L407.77777777777777,346.42857142857144" stroke="#e45756" stroke-width="2" opacity="1"></path></g></g><path class="foreground" aria-hidden="true" d="" display="none"></path></g><g transform="translate(0,0)"><path class="background" aria-hidden="true" d="M0,0h400v400h-400Z"></path><g><g class="mark-line role-mark concat_0_layer_1_marks" clip-path="url(#clip5)" role="graphics-object" aria-roledescription="line mark container"><path aria-label="Type: Deaths; Date: Mar 01; Count: 0" role="graphics-symbol" aria-roledescription="line mark" d="M-3031.111111111111,350L-3004.4444444444443,350L-2978.8888888888887,350L-2952.222222222222,350L-2925.5555555555557,350L-2898.8888888888887,350L-2872.222222222222,350L-2845.5555555555557,350L-2818.888888888889,350L-2792.222222222222,350L-2765.5555555555557,350L-2738.888888888889,350L-2712.222222222222,350L-2685.5555555555557,350L-2658.8888888888887,349.9642857142857L-2632.222222222222,349.9642857142857L-2605.5555555555557,349.9642857142857L-2578.8888888888887,349.9642857142857L-2552.222222222222,349.8928571428571L-2525.5555555555557,349.8214285714286L-2498.8888888888887,349.75L-2472.222222222222,349.7142857142857L-2445.5555555555557,349.64285714285717L-2418.888888888889,349.57142857142856L-2392.222222222222,349.42857142857144L-2365.5555555555557,349.5L-2338.888888888889,349.5L-2312.222222222222,349.5357142857143L-2285.5555555555557,349.42857142857144L-2258.8888888888887,349.39285714285717L-2232.222222222222,349.5L-2205.5555555555557,349.39285714285717L-2178.8888888888887,349.17857142857144L-2152.222222222222,349.17857142857144L-2125.5555555555557,349L-2098.8888888888887,349.14285714285717L-2072.222222222222,349L-2045.5555555555557,348.85714285714283L-2018.888888888889,348.92857142857144L-1992.2222222222222,348.85714285714283L-1965.5555555555554,348.82142857142856L-1938.888888888889,348.7857142857143L-1912.2222222222224,348.5357142857143L-1885.5555555555554,348.6428571428571L-1858.888888888889,348.60714285714283L-1832.2222222222222,347.25L-1805.5555555555557,347.25L-1778.8888888888887,346.5357142857143L-1752.2222222222222,346.60714285714283L-1725.5555555555557,346.57142857142856L-1698.8888888888887,346.57142857142856L-1672.2222222222222,346.60714285714283L-1645.5555555555557,347.9285714285714L-1618.888888888889,347.9642857142857L-1592.2222222222222,348.60714285714283L-1565.5555555555554,348.5357142857143L-1538.888888888889,348.7857142857143L-1512.2222222222222,348.57142857142856L-1485.5555555555557,348.32142857142856L-1458.888888888889,348.32142857142856L-1432.2222222222222,348.35714285714283L-1405.5555555555554,348.42857142857144L-1378.888888888889,348.5L-1352.2222222222222,348.39285714285717L-1325.5555555555557,348.67857142857144L-1298.888888888889,348.89285714285717L-1272.2222222222222,348.9642857142857L-1245.5555555555557,348.85714285714283L-1218.888888888889,348.85714285714283L-1192.2222222222222,348.82142857142856L-1165.5555555555554,348.85714285714283L-1138.888888888889,348.89285714285717L-1112.2222222222222,348.9642857142857L-1085.5555555555557,349.07142857142856L-1058.888888888889,349.2857142857143L-1032.2222222222222,349.32142857142856L-1005.5555555555555,349.5357142857143L-978.8888888888889,349.67857142857144L-952.2222222222222,349.67857142857144L-925.5555555555557,349.7142857142857L-898.8888888888889,349.6071428571429L-872.2222222222222,349.67857142857144L-845.5555555555555,349.75L-818.8888888888888,349.7142857142857L-792.2222222222223,349.64285714285717L-765.5555555555555,349.5357142857143L-738.8888888888889,349.64285714285717L-712.2222222222222,349.7142857142857L-685.5555555555555,349.7142857142857L-658.8888888888889,349.67857142857144L-632.2222222222222,349.7142857142857L-605.5555555555555,349.7857142857143L-578.8888888888889,349.8928571428571L-552.2222222222222,349.8214285714286L-525.5555555555555,349.8571428571429L-498.8888888888889,349.8928571428571L-472.22222222222223,349.8928571428571L-445.55555555555554,349.8928571428571L-418.8888888888889,349.8928571428571L-392.22222222222223,349.8928571428571L-365.55555555555554,349.8928571428571L-338.88888888888886,349.92857142857144L-312.22222222222223,349.92857142857144L-285.55555555555554,349.9642857142857L-258.8888888888889,349.9642857142857L-232.22222222222223,349.9642857142857L-205.55555555555554,350L-178.88888888888889,349.9642857142857L-152.22222222222223,349.9642857142857L-125.55555555555556,349.9642857142857L-98.88888888888889,349.9642857142857L-72.22222222222221,349.92857142857144L-45.55555555555556,349.92857142857144L-18.88888888888889,349.92857142857144L7.777777777777778,349.9642857142857L34.44444444444444,349.9642857142857L61.111111111111114,349.9642857142857L87.77777777777777,349.9642857142857L114.44444444444444,349.9642857142857L141.11111111111111,349.9642857142857L167.77777777777777,349.9642857142857L194.44444444444443,349.9642857142857L221.11111111111111,349.9642857142857L247.77777777777777,349.9642857142857L274.44444444444446,349.9642857142857L301.1111111111111,350L327.77777777777777,350L354.44444444444446,350L381.1111111111111,350L407.77777777777777,350" stroke="#f58518" stroke-width="2" opacity="1"></path></g></g><path class="foreground" aria-hidden="true" d="" display="none"></path></g><g transform="translate(0,0)"><path class="background" aria-hidden="true" d="M0,0h400v400h-400Z"></path><g><g class="mark-line role-mark concat_0_layer_1_marks" clip-path="url(#clip6)" role="graphics-object" aria-roledescription="line mark container"><path aria-label="Type: Confirmed; Date: Mar 01; Count: 0" role="graphics-symbol" aria-roledescription="line mark" d="M-3031.111111111111,349.57142857142856L-3004.4444444444443,349.39285714285717L-2978.8888888888887,349.14285714285717L-2952.222222222222,348.7857142857143L-2925.5555555555557,348.10714285714283L-2898.8888888888887,348.32142857142856L-2872.222222222222,345L-2845.5555555555557,342.5L-2818.888888888889,342.10714285714283L-2792.222222222222,341.17857142857144L-2765.5555555555557,339.9642857142857L-2738.888888888889,340.10714285714283L-2712.222222222222,337.82142857142856L-2685.5555555555557,339.4642857142857L-2658.8888888888887,339.3571428571429L-2632.222222222222,336.35714285714283L-2605.5555555555557,334.89285714285717L-2578.8888888888887,333.1785714285714L-2552.222222222222,330.57142857142856L-2525.5555555555557,330.07142857142856L-2498.8888888888887,328.89285714285717L-2472.222222222222,327L-2445.5555555555557,328.07142857142856L-2418.888888888889,326.7142857142857L-2392.222222222222,327.6428571428571L-2365.5555555555557,329.7857142857143L-2338.888888888889,330L-2312.222222222222,329.5L-2285.5555555555557,324.4642857142857L-2258.8888888888887,325.4642857142857L-2232.222222222222,320.57142857142856L-2205.5555555555557,318.2142857142857L-2178.8888888888887,312.82142857142856L-2152.222222222222,311.17857142857144L-2125.5555555555557,308.7857142857143L-2098.8888888888887,313.4642857142857L-2072.222222222222,312.6071428571429L-2045.5555555555557,318.2857142857143L-2018.888888888889,319.5357142857143L-1992.2222222222222,323.2142857142857L-1965.5555555555554,322.7142857142857L-1938.888888888889,324.2857142857143L-1912.2222222222224,322.2857142857143L-1885.5555555555554,321.10714285714283L-1858.888888888889,321.2857142857143L-1832.2222222222222,319.5357142857143L-1805.5555555555557,318.14285714285717L-1778.8888888888887,317.32142857142856L-1752.2222222222222,317.64285714285717L-1725.5555555555557,321.64285714285717L-1698.8888888888887,321.67857142857144L-1672.2222222222222,320.4642857142857L-1645.5555555555557,324.07142857142856L-1618.888888888889,322.25L-1592.2222222222222,324.6071428571429L-1565.5555555555554,326.57142857142856L-1538.888888888889,324.9642857142857L-1512.2222222222222,325.7857142857143L-1485.5555555555557,327.42857142857144L-1458.888888888889,326L-1432.2222222222222,326.17857142857144L-1405.5555555555554,325.7857142857143L-1378.888888888889,325.4642857142857L-1352.2222222222222,324.8571428571429L-1325.5555555555557,324.7142857142857L-1298.888888888889,326.5357142857143L-1272.2222222222222,328.89285714285717L-1245.5555555555557,332.82142857142856L-1218.888888888889,333.14285714285717L-1192.2222222222222,332.5L-1165.5555555555554,335.5L-1138.888888888889,336.25L-1112.2222222222222,335.85714285714283L-1085.5555555555557,335.85714285714283L-1058.888888888889,336.10714285714283L-1032.2222222222222,337.57142857142856L-1005.5555555555555,338.9642857142857L-978.8888888888889,339.92857142857144L-952.2222222222222,341.7142857142857L-925.5555555555557,342.17857142857144L-898.8888888888889,341.8214285714286L-872.2222222222222,341.1071428571429L-845.5555555555555,341.07142857142856L-818.8888888888888,341.4642857142857L-792.2222222222223,340.7857142857143L-765.5555555555555,340L-738.8888888888889,339.7857142857143L-712.2222222222222,340.75L-685.5555555555555,342.17857142857144L-658.8888888888889,344L-632.2222222222222,344.10714285714283L-605.5555555555555,345.07142857142856L-578.8888888888889,345.64285714285717L-552.2222222222222,345.8571428571429L-525.5555555555555,345.07142857142856L-498.8888888888889,345.39285714285717L-472.22222222222223,344.5357142857143L-445.55555555555554,345.2857142857143L-418.8888888888889,345.6071428571429L-392.22222222222223,345.6071428571429L-365.55555555555554,346.17857142857144L-338.88888888888886,346.89285714285717L-312.22222222222223,347.25L-285.55555555555554,348.0357142857143L-258.8888888888889,347.8571428571429L-232.22222222222223,348.0357142857143L-205.55555555555554,348.60714285714283L-178.88888888888889,348.7142857142857L-152.22222222222223,348.4642857142857L-125.55555555555556,348.2142857142857L-98.88888888888889,348.10714285714283L-72.22222222222221,347.9285714285714L-45.55555555555556,348L-18.88888888888889,348.0357142857143L7.777777777777778,347.6785714285714L34.44444444444444,347.8928571428571L61.111111111111114,347.5357142857143L87.77777777777777,347.5357142857143L114.44444444444444,348.17857142857144L141.11111111111111,348.2142857142857L167.77777777777777,348.0357142857143L194.44444444444443,348.28571428571433L221.11111111111111,348.28571428571433L247.77777777777777,348.9642857142857L274.44444444444446,348.85714285714283L301.1111111111111,348.67857142857144L327.77777777777777,348.4642857142857L354.44444444444446,348.5357142857143L381.1111111111111,348.6428571428571L407.77777777777777,348.60714285714283" stroke="#4c78a8" stroke-width="2" opacity="1"></path></g></g><path class="foreground" aria-hidden="true" d="" display="none"></path></g></g><g class="mark-group role-title"><g transform="translate(200,-54)"><path class="background" aria-hidden="true" d="M0,0h0v0h0Z" pointer-events="none"></path><g><g class="mark-text role-title-text" role="graphics-symbol" aria-roledescription="title" aria-label="Title text '7-day average (light color: daily values) [2020-07-14]'" pointer-events="none"><text text-anchor="middle" transform="translate(0,10)" font-family="Roboto Condensed" font-size="13px" font-weight="normal" fill="#000" opacity="1"><tspan>7-day average (light color: daily values)</tspan><tspan x="0" dy="15">[2020-07-14]</tspan></text></g></g><path class="foreground" aria-hidden="true" d="" pointer-events="none" display="none"></path></g></g></g><path class="foreground" aria-hidden="true" d="" display="none"></path></g></g><g class="mark-group role-scope concat_1_group" role="graphics-object" aria-roledescription="group mark container"><g transform="translate(465,0)"><path class="background" aria-hidden="true" d="M0,0h400v400h-400Z" stroke="#ddd" stroke-width="0"></path><g><g class="mark-group role-axis" aria-hidden="true"><g transform="translate(0.5,0.5)"><path class="background" aria-hidden="true" d="M0,0h0v0h0Z" pointer-events="none"></path><g><g class="mark-rule role-axis-grid" pointer-events="none"><line transform="translate(0,400)" x2="400" y2="0" stroke="#ddd" stroke-width="1" opacity="1"></line><line transform="translate(0,350)" x2="400" y2="0" stroke="#ddd" stroke-width="1" opacity="1"></line><line transform="translate(0,300)" x2="400" y2="0" stroke="#ddd" stroke-width="1" opacity="1"></line><line transform="translate(0,250)" x2="400" y2="0" stroke="#ddd" stroke-width="1" opacity="1"></line><line transform="translate(0,200)" x2="400" y2="0" stroke="#ddd" stroke-width="1" opacity="1"></line><line transform="translate(0,150)" x2="400" y2="0" stroke="#ddd" stroke-width="1" opacity="1"></line><line transform="translate(0,100)" x2="400" y2="0" stroke="#ddd" stroke-width="1" opacity="1"></line><line transform="translate(0,50)" x2="400" y2="0" stroke="#ddd" stroke-width="1" opacity="1"></line><line transform="translate(0,0)" x2="400" y2="0" stroke="#ddd" stroke-width="1" opacity="1"></line></g></g><path class="foreground" aria-hidden="true" d="" pointer-events="none" display="none"></path></g></g><g class="mark-group role-axis" role="graphics-symbol" aria-roledescription="axis" aria-label="X-axis titled 'Date' for a time scale with values from June 28 to July 13"><g transform="translate(0.5,400.5)"><path class="background" aria-hidden="true" d="M0,0h0v0h0Z" pointer-events="none"></path><g><g class="mark-text role-axis-label" pointer-events="none"><text text-anchor="middle" transform="translate(7.777777777777778,10)" font-family="Roboto Condensed" font-size="10px" fill="#000" opacity="1">Jun 29</text><text text-anchor="middle" transform="translate(61.111111111111114,10)" font-family="Roboto Condensed" font-size="10px" fill="#000" opacity="1">Jul 01</text><text text-anchor="middle" transform="translate(114.44444444444444,10)" font-family="Roboto Condensed" font-size="10px" fill="#000" opacity="1">Jul 03</text><text text-anchor="middle" transform="translate(167.77777777777777,10)" font-family="Roboto Condensed" font-size="10px" fill="#000" opacity="1">Jul 05</text><text text-anchor="middle" transform="translate(221.11111111111111,10)" font-family="Roboto Condensed" font-size="10px" fill="#000" opacity="1">Jul 07</text><text text-anchor="middle" transform="translate(274.44444444444446,10)" font-family="Roboto Condensed" font-size="10px" fill="#000" opacity="1">Jul 09</text><text text-anchor="middle" transform="translate(327.77777777777777,10)" font-family="Roboto Condensed" font-size="10px" fill="#000" opacity="1">Jul 11</text><text text-anchor="middle" transform="translate(381.1111111111111,10)" font-family="Roboto Condensed" font-size="10px" fill="#000" opacity="1">Jul 13</text></g><g class="mark-rule role-axis-domain" pointer-events="none"><line transform="translate(0,0)" x2="400" y2="0" stroke="lightgray" stroke-width="1" opacity="1"></line></g><g class="mark-text role-axis-title" pointer-events="none"><text text-anchor="middle" transform="translate(200,25)" font-family="Roboto Condensed" font-size="11px" font-weight="normal" fill="#000" opacity="1">Date</text></g></g><path class="foreground" aria-hidden="true" d="" pointer-events="none" display="none"></path></g></g><g class="mark-group role-axis" role="graphics-symbol" aria-roledescription="axis" aria-label="Y-axis titled 'Count' for a linear scale with values from 0 to 8,000"><g transform="translate(0.5,0.5)"><path class="background" aria-hidden="true" d="M0,0h0v0h0Z" pointer-events="none"></path><g><g class="mark-text role-axis-label" pointer-events="none"><text text-anchor="end" transform="translate(-2,403)" font-family="Roboto Condensed" font-size="10px" fill="#000" opacity="1">0</text><text text-anchor="end" transform="translate(-2,353)" font-family="Roboto Condensed" font-size="10px" fill="#000" opacity="1">1,000</text><text text-anchor="end" transform="translate(-2,303)" font-family="Roboto Condensed" font-size="10px" fill="#000" opacity="1">2,000</text><text text-anchor="end" transform="translate(-2,253)" font-family="Roboto Condensed" font-size="10px" fill="#000" opacity="1">3,000</text><text text-anchor="end" transform="translate(-2,203)" font-family="Roboto Condensed" font-size="10px" fill="#000" opacity="1">4,000</text><text text-anchor="end" transform="translate(-2,153)" font-family="Roboto Condensed" font-size="10px" fill="#000" opacity="1">5,000</text><text text-anchor="end" transform="translate(-2,103)" font-family="Roboto Condensed" font-size="10px" fill="#000" opacity="1">6,000</text><text text-anchor="end" transform="translate(-2,53)" font-family="Roboto Condensed" font-size="10px" fill="#000" opacity="1">7,000</text><text text-anchor="end" transform="translate(-2,3)" font-family="Roboto Condensed" font-size="10px" fill="#000" opacity="1">8,000</text></g><g class="mark-rule role-axis-domain" pointer-events="none"><line transform="translate(0,400)" x2="0" y2="-400" stroke="lightgray" stroke-width="1" opacity="1"></line></g><g class="mark-text role-axis-title" pointer-events="none"><text text-anchor="start" transform="translate(-45,-13)" font-family="Roboto Condensed" font-size="11px" font-weight="normal" fill="#000" opacity="1">Count</text></g></g><path class="foreground" aria-hidden="true" d="" pointer-events="none" display="none"></path></g></g><g class="mark-group role-scope concat_1_pathgroup" role="graphics-object" aria-roledescription="group mark container"><g transform="translate(0,0)"><path class="background" aria-hidden="true" d="M0,0h400v400h-400Z"></path><g><g class="mark-line role-mark concat_1_marks" clip-path="url(#clip7)" role="graphics-object" aria-roledescription="line mark container"><path aria-label="Type: Recovered; Date: Mar 01; Country: Finland; Confirmed: 6; Recovered: 1; Deaths: 0; Count: 1" role="graphics-symbol" aria-roledescription="line mark" d="M-3191.1111111111113,399.95L-3164.4444444444443,399.95L-3137.777777777778,399.95L-3111.111111111111,399.95L-3084.4444444444443,399.95L-3057.777777777778,399.95L-3031.111111111111,399.95L-3004.4444444444443,399.95L-2978.8888888888887,399.95L-2952.222222222222,399.95L-2925.5555555555557,399.95L-2898.8888888888887,399.95L-2872.222222222222,399.95L-2845.5555555555557,399.95L-2818.888888888889,399.5L-2792.222222222222,399.5L-2765.5555555555557,399.5L-2738.888888888889,399.5L-2712.222222222222,399.5L-2685.5555555555557,399.5L-2658.8888888888887,399.5L-2632.222222222222,399.5L-2605.5555555555557,399.5L-2578.8888888888887,399.5L-2552.222222222222,399.5L-2525.5555555555557,399.5L-2498.8888888888887,399.5L-2472.222222222222,399.5L-2445.5555555555557,399.5L-2418.888888888889,399.5L-2392.222222222222,399.5L-2365.5555555555557,399.5L-2338.888888888889,385L-2312.222222222222,385L-2285.5555555555557,385L-2258.8888888888887,385L-2232.222222222222,385L-2205.5555555555557,385L-2178.8888888888887,385L-2152.222222222222,385L-2125.5555555555557,385L-2098.8888888888887,385L-2072.222222222222,385L-2045.5555555555557,385L-2018.888888888889,385L-1992.2222222222222,385L-1965.5555555555554,315L-1938.888888888889,315L-1912.2222222222224,315L-1885.5555555555554,315L-1858.888888888889,300L-1832.2222222222222,300L-1805.5555555555557,300L-1778.8888888888887,300L-1752.2222222222222,275L-1725.5555555555557,275L-1698.8888888888887,275L-1672.2222222222222,275L-1645.5555555555557,260L-1618.888888888889,260L-1592.2222222222222,250L-1565.5555555555554,250L-1538.888888888889,250L-1512.2222222222222,250L-1485.5555555555557,225L-1458.888888888889,225L-1432.2222222222222,225L-1405.5555555555554,225L-1378.888888888889,200L-1352.2222222222222,200L-1325.5555555555557,200L-1298.888888888889,200L-1272.2222222222222,185L-1245.5555555555557,185L-1218.888888888889,185L-1192.2222222222222,150L-1165.5555555555554,150L-1138.888888888889,150L-1112.2222222222222,150L-1085.5555555555557,150L-1058.888888888889,160L-1032.2222222222222,160L-1005.5555555555555,160L-978.8888888888889,160L-952.2222222222222,160L-925.5555555555557,145.00000000000003L-898.8888888888889,145.00000000000003L-872.2222222222222,145.00000000000003L-845.5555555555555,125L-818.8888888888888,125L-792.2222222222223,125L-765.5555555555555,125L-738.8888888888889,125L-712.2222222222222,125L-685.5555555555555,125L-658.8888888888889,110.00000000000001L-632.2222222222222,110.00000000000001L-605.5555555555555,110.00000000000001L-578.8888888888889,110.00000000000001L-552.2222222222222,110.00000000000001L-525.5555555555555,110.00000000000001L-498.8888888888889,110.00000000000001L-472.22222222222223,89.99999999999999L-445.55555555555554,89.99999999999999L-418.8888888888889,89.99999999999999L-392.22222222222223,89.99999999999999L-365.55555555555554,89.99999999999999L-338.88888888888886,89.99999999999999L-312.22222222222223,89.99999999999999L-285.55555555555554,89.99999999999999L-258.8888888888889,89.99999999999999L-232.22222222222223,89.99999999999999L-205.55555555555554,89.99999999999999L-178.88888888888889,79.99999999999999L-152.22222222222223,79.99999999999999L-125.55555555555556,70.00000000000001L-98.88888888888889,70.00000000000001L-72.22222222222221,70.00000000000001L-45.55555555555556,70.00000000000001L-18.88888888888889,70.00000000000001L7.777777777777778,70.00000000000001L34.44444444444444,70.00000000000001L61.111111111111114,64.99999999999999L87.77777777777777,64.99999999999999L114.44444444444444,64.99999999999999L141.11111111111111,64.99999999999999L167.77777777777777,64.99999999999999L194.44444444444443,64.99999999999999L221.11111111111111,64.99999999999999L247.77777777777777,60.00000000000001L274.44444444444446,60.00000000000001L301.1111111111111,60.00000000000001L327.77777777777777,60.00000000000001L354.44444444444446,60.00000000000001L381.1111111111111,60.00000000000001L407.77777777777777,60.00000000000001" stroke="#e45756" stroke-width="2" opacity="0.7"></path></g></g><path class="foreground" aria-hidden="true" d="" display="none"></path></g><g transform="translate(0,0)"><path class="background" aria-hidden="true" d="M0,0h400v400h-400Z"></path><g><g class="mark-line role-mark concat_1_marks" clip-path="url(#clip8)" role="graphics-object" aria-roledescription="line mark container"><path aria-label="Type: Deaths; Date: Mar 01; Country: Finland; Confirmed: 6; Recovered: 1; Deaths: 0; Count: 0" role="graphics-symbol" aria-roledescription="line mark" d="M-3191.1111111111113,400L-3164.4444444444443,400L-3137.777777777778,400L-3111.111111111111,400L-3084.4444444444443,400L-3057.777777777778,400L-3031.111111111111,400L-3004.4444444444443,400L-2978.8888888888887,400L-2952.222222222222,400L-2925.5555555555557,400L-2898.8888888888887,400L-2872.222222222222,400L-2845.5555555555557,400L-2818.888888888889,400L-2792.222222222222,400L-2765.5555555555557,400L-2738.888888888889,400L-2712.222222222222,400L-2685.5555555555557,400L-2658.8888888888887,399.95L-2632.222222222222,399.95L-2605.5555555555557,399.95L-2578.8888888888887,399.95L-2552.222222222222,399.85L-2525.5555555555557,399.75L-2498.8888888888887,399.65000000000003L-2472.222222222222,399.54999999999995L-2445.5555555555557,399.45L-2418.888888888889,399.35L-2392.222222222222,399.15L-2365.5555555555557,399.15L-2338.888888888889,399.05L-2312.222222222222,399L-2285.5555555555557,398.75L-2258.8888888888887,398.6L-2232.222222222222,398.65L-2205.5555555555557,398.3L-2178.8888888888887,398L-2152.222222222222,397.90000000000003L-2125.5555555555557,397.6L-2098.8888888888887,397.54999999999995L-2072.222222222222,397.2L-2045.5555555555557,397.05L-2018.888888888889,396.8L-1992.2222222222222,396.4L-1965.5555555555554,396.25L-1938.888888888889,395.90000000000003L-1912.2222222222224,395.5L-1885.5555555555554,395.3L-1858.888888888889,395.1L-1832.2222222222222,392.95L-1805.5555555555557,392.55L-1778.8888888888887,391.40000000000003L-1752.2222222222222,391.15000000000003L-1725.5555555555557,390.7L-1698.8888888888887,390.5L-1672.2222222222222,390.35L-1645.5555555555557,390.05L-1618.888888888889,389.7L-1592.2222222222222,389.45L-1565.5555555555554,389.1L-1538.888888888889,389L-1512.2222222222222,388.5L-1485.5555555555557,388L-1458.888888888889,387.7L-1432.2222222222222,387.40000000000003L-1405.5555555555554,387.25L-1378.888888888889,387L-1352.2222222222222,386.75L-1325.5555555555557,386.65L-1298.888888888889,386.45L-1272.2222222222222,386.25L-1245.5555555555557,385.8L-1218.888888888889,385.65L-1192.2222222222222,385.34999999999997L-1165.5555555555554,385.15000000000003L-1138.888888888889,385.1L-1112.2222222222222,385L-1085.5555555555557,384.95L-1058.888888888889,384.8L-1032.2222222222222,384.7L-1005.5555555555555,384.7L-978.8888888888889,384.7L-952.2222222222222,384.65L-925.5555555555557,384.6L-898.8888888888889,384.4L-872.2222222222222,384.35L-845.5555555555555,384.35L-818.8888888888888,384.3L-792.2222222222223,384.2L-765.5555555555555,384L-738.8888888888889,384.1L-712.2222222222222,384L-685.5555555555555,383.95L-658.8888888888889,383.9L-632.2222222222222,383.9L-605.5555555555555,383.9L-578.8888888888889,383.84999999999997L-552.2222222222222,383.84999999999997L-525.5555555555555,383.8L-498.8888888888889,383.8L-472.22222222222223,383.75L-445.55555555555554,383.75L-418.8888888888889,383.75L-392.22222222222223,383.70000000000005L-365.55555555555554,383.70000000000005L-338.88888888888886,383.70000000000005L-312.22222222222223,383.70000000000005L-285.55555555555554,383.70000000000005L-258.8888888888889,383.70000000000005L-232.22222222222223,383.70000000000005L-205.55555555555554,383.70000000000005L-178.88888888888889,383.65L-152.22222222222223,383.65L-125.55555555555556,383.65L-98.88888888888889,383.65L-72.22222222222221,383.59999999999997L-45.55555555555556,383.59999999999997L-18.88888888888889,383.59999999999997L7.777777777777778,383.59999999999997L34.44444444444444,383.59999999999997L61.111111111111114,383.59999999999997L87.77777777777777,383.59999999999997L114.44444444444444,383.55L141.11111111111111,383.55L167.77777777777777,383.55L194.44444444444443,383.55L221.11111111111111,383.55L247.77777777777777,383.55L274.44444444444446,383.55L301.1111111111111,383.55L327.77777777777777,383.55L354.44444444444446,383.55L381.1111111111111,383.55L407.77777777777777,383.55" stroke="#f58518" stroke-width="2" opacity="0.7"></path></g></g><path class="foreground" aria-hidden="true" d="" display="none"></path></g><g transform="translate(0,0)"><path class="background" aria-hidden="true" d="M0,0h400v400h-400Z"></path><g><g class="mark-line role-mark concat_1_marks" clip-path="url(#clip9)" role="graphics-object" aria-roledescription="line mark container"><path aria-label="Type: Confirmed; Date: Mar 01; Country: Finland; Confirmed: 6; Recovered: 1; Deaths: 0; Count: 6" role="graphics-symbol" aria-roledescription="line mark" d="M-3191.1111111111113,399.7L-3164.4444444444443,399.7L-3137.777777777778,399.7L-3111.111111111111,399.7L-3084.4444444444443,399.40000000000003L-3057.777777777778,399.25L-3031.111111111111,399.25L-3004.4444444444443,398.85L-2978.8888888888887,398.5L-2952.222222222222,398L-2925.5555555555557,397.05L-2898.8888888888887,397.05L-2872.222222222222,392.25L-2845.5555555555557,388.75L-2818.888888888889,387.8L-2792.222222222222,386.15L-2765.5555555555557,383.95L-2738.888888888889,383.2L-2712.222222222222,380L-2685.5555555555557,377.5L-2658.8888888888887,373.85L-2632.222222222222,368.7L-2605.5555555555557,365L-2578.8888888888887,360.40000000000003L-2552.222222222222,356L-2525.5555555555557,352.09999999999997L-2498.8888888888887,347.95L-2472.222222222222,341.65000000000003L-2445.5555555555557,338L-2418.888888888889,332.4L-2392.222222222222,329.09999999999997L-2365.5555555555557,327.7L-2338.888888888889,324.1L-2312.222222222222,319.25L-2285.5555555555557,305.90000000000003L-2258.8888888888887,303.65000000000003L-2232.222222222222,291.2L-2205.5555555555557,284.6L-2178.8888888888887,275.65L-2152.222222222222,269.75L-2125.5555555555557,261.55L-2098.8888888888887,254.75000000000003L-2072.222222222222,251.29999999999998L-2045.5555555555557,246.8L-2018.888888888889,241.95000000000002L-1992.2222222222222,238.15L-1965.5555555555554,231.55L-1938.888888888889,225.55L-1912.2222222222224,215.95L-1885.5555555555554,210.85000000000002L-1858.888888888889,206.6L-1832.2222222222222,199.29999999999998L-1805.5555555555557,193.55L-1778.8888888888887,185.8L-1752.2222222222222,180.25000000000003L-1725.5555555555557,176.25000000000003L-1698.8888888888887,171.20000000000002L-1672.2222222222222,165.25L-1645.5555555555557,163L-1618.888888888889,154.70000000000002L-1592.2222222222222,150.25L-1565.5555555555554,147.45L-1538.888888888889,141.2L-1512.2222222222222,137.3L-1485.5555555555557,133.65L-1458.888888888889,129.4L-1432.2222222222222,121.34999999999998L-1405.5555555555554,116.35L-1378.888888888889,113.09999999999998L-1352.2222222222222,106L-1325.5555555555557,101.9L-1298.888888888889,100.8L-1272.2222222222222,99.85L-1245.5555555555557,97.29999999999998L-1218.888888888889,92.75000000000003L-1192.2222222222222,88.60000000000001L-1165.5555555555554,85.70000000000002L-1138.888888888889,82.64999999999998L-1112.2222222222222,81L-1085.5555555555557,80.05L-1058.888888888889,77.85000000000002L-1032.2222222222222,75.34999999999998L-1005.5555555555555,73.15L-978.8888888888889,71.60000000000002L-952.2222222222222,71.05000000000001L-925.5555555555557,70.04999999999998L-898.8888888888889,68.6L-872.2222222222222,65.39999999999999L-845.5555555555555,62.84999999999998L-818.8888888888888,61.20000000000001L-792.2222222222223,58.70000000000002L-765.5555555555555,57.05L-738.8888888888889,55.750000000000014L-712.2222222222222,55.65000000000002L-685.5555555555555,54.45000000000002L-658.8888888888889,54.45000000000002L-632.2222222222222,52.95000000000001L-605.5555555555555,51.79999999999998L-578.8888888888889,50.95L-552.2222222222222,49.94999999999998L-525.5555555555555,48.749999999999986L-498.8888888888889,48L-472.22222222222223,46.8L-445.55555555555554,46.34999999999998L-418.8888888888889,45.65000000000001L-392.22222222222223,44.8L-365.55555555555554,44.600000000000016L-338.88888888888886,44.39999999999999L-312.22222222222223,44.15L-285.55555555555554,44.05000000000001L-258.8888888888889,43.35L-232.22222222222223,42.899999999999984L-205.55555555555554,42.85000000000001L-178.88888888888889,42.8L-152.22222222222223,42.249999999999986L-125.55555555555556,41.650000000000006L-98.88888888888889,41.40000000000001L-72.22222222222221,40.45000000000001L-45.55555555555556,40.09999999999998L-18.88888888888889,40.09999999999998L7.777777777777778,39.55000000000002L34.44444444444444,39.29999999999998L61.111111111111114,38.20000000000001L87.77777777777777,37.95000000000002L114.44444444444444,37.9L141.11111111111111,37.59999999999999L167.77777777777777,37.349999999999994L194.44444444444443,37.15000000000002L221.11111111111111,36.90000000000002L247.77777777777777,36.750000000000014L274.44444444444446,36.350000000000016L301.1111111111111,36.050000000000004L327.77777777777777,35.44999999999998L354.44444444444446,35.30000000000002L381.1111111111111,35.25L407.77777777777777,34.94999999999999" stroke="#4c78a8" stroke-width="2" opacity="0.7"></path></g></g><path class="foreground" aria-hidden="true" d="" display="none"></path></g></g><g class="mark-group role-title"><g transform="translate(200,-54)"><path class="background" aria-hidden="true" d="M0,0h0v0h0Z" pointer-events="none"></path><g><g class="mark-text role-title-text" role="graphics-symbol" aria-roledescription="title" aria-label="Title text 'Total [2020-07-14]'" pointer-events="none"><text text-anchor="middle" transform="translate(0,10)" font-family="Roboto Condensed" font-size="13px" font-weight="normal" fill="#000" opacity="1"><tspan>Total</tspan><tspan x="0" dy="15">[2020-07-14]</tspan></text></g></g><path class="foreground" aria-hidden="true" d="" pointer-events="none" display="none"></path></g></g></g><path class="foreground" aria-hidden="true" d="" display="none"></path></g></g><g class="mark-group role-legend" role="graphics-symbol" aria-roledescription="legend" aria-label="Symbol legend for stroke color with 3 values: Confirmed, Deaths, Recovered"><g transform="translate(883,0)"><path class="background" aria-hidden="true" d="M0,0h58v37h-58Z" pointer-events="none"></path><g><g class="mark-group role-legend-entry"><g transform="translate(0,0)"><path class="background" aria-hidden="true" d="M0,0h0v0h0Z" pointer-events="none"></path><g><g class="mark-group role-scope" role="graphics-object" aria-roledescription="group mark container"><g transform="translate(0,0)"><path class="background" aria-hidden="true" d="M0,0h58v11h-58Z" pointer-events="none" opacity="1"></path><g><g class="mark-symbol role-legend-symbol" pointer-events="none"><path transform="translate(6,6)" d="M-5,0L5,0" stroke="#4c78a8" stroke-width="1.5" opacity="0.2"></path></g><g class="mark-text role-legend-label" pointer-events="none"><text text-anchor="start" transform="translate(16,9)" font-family="Roboto Condensed" font-size="10px" fill="#000" opacity="1">Confirmed</text></g></g><path class="foreground" aria-hidden="true" d="" pointer-events="none" display="none"></path></g><g transform="translate(0,13)"><path class="background" aria-hidden="true" d="M0,0h58v11h-58Z" pointer-events="none" opacity="1"></path><g><g class="mark-symbol role-legend-symbol" pointer-events="none"><path transform="translate(6,6)" d="M-5,0L5,0" stroke="#f58518" stroke-width="1.5" opacity="0.2"></path></g><g class="mark-text role-legend-label" pointer-events="none"><text text-anchor="start" transform="translate(16,9)" font-family="Roboto Condensed" font-size="10px" fill="#000" opacity="1">Deaths</text></g></g><path class="foreground" aria-hidden="true" d="" pointer-events="none" display="none"></path></g><g transform="translate(0,26)"><path class="background" aria-hidden="true" d="M0,0h58v11h-58Z" pointer-events="none" opacity="1"></path><g><g class="mark-symbol role-legend-symbol" pointer-events="none"><path transform="translate(6,6)" d="M-5,0L5,0" stroke="#e45756" stroke-width="1.5" opacity="0.2"></path></g><g class="mark-text role-legend-label" pointer-events="none"><text text-anchor="start" transform="translate(16,9)" font-family="Roboto Condensed" font-size="10px" fill="#000" opacity="1">Recovered</text></g></g><path class="foreground" aria-hidden="true" d="" pointer-events="none" display="none"></path></g></g></g><path class="foreground" aria-hidden="true" d="" pointer-events="none" display="none"></path></g></g></g><path class="foreground" aria-hidden="true" d="" pointer-events="none" display="none"></path></g></g></g><path class="foreground" aria-hidden="true" d="" display="none"></path></g></g></g></svg>