<svg class="marks" width="996" height="491" viewBox="0 0 996 491" version="1.1" xmlns="http://www.w3.org/2000/svg" xmlns:xlink="http://www.w3.org/1999/xlink"><rect width="996" height="491" style="fill: white;"></rect><defs><clipPath id="clip1"><rect x="0" y="0" width="400" height="400"></rect></clipPath><clipPath id="clip2"><rect x="0" y="0" width="400" height="400"></rect></clipPath><clipPath id="clip3"><rect x="0" y="0" width="400" height="400"></rect></clipPath><clipPath id="clip4"><rect x="0" y="0" width="400" height="400"></rect></clipPath><clipPath id="clip5"><rect x="0" y="0" width="400" height="400"></rect></clipPath><clipPath id="clip6"><rect x="0" y="0" width="400" height="400"></rect></clipPath><clipPath id="clip7"><rect x="0" y="0" width="400" height="400"></rect></clipPath><clipPath id="clip8"><rect x="0" y="0" width="400" height="400"></rect></clipPath><clipPath id="clip9"><rect x="0" y="0" width="400" height="400"></rect></clipPath></defs><g transform="translate(50,59)"><g class="mark-group role-frame root"><g transform="translate(0,0)"><path class="background" d="M0,0h0v0h0Z" style="fill: none;"></path><g><g class="mark-group role-scope concat_0_group"><g transform="translate(0,0)"><path class="background" d="M0,0h400v400h-400Z" style="fill: none; stroke: #ddd; stroke-width: 0;"></path><g><g class="mark-group role-axis"><g transform="translate(0.5,0.5)"><path class="background" d="M0,0h0v0h0Z" style="pointer-events: none; fill: none;"></path><g><g class="mark-rule role-axis-grid" style="pointer-events: none;"><line transform="translate(0,400)" x2="400" y2="0" style="fill: none; stroke: #ddd; stroke-width: 1; opacity: 1;"></line><line transform="translate(0,350)" x2="400" y2="0" style="fill: none; stroke: #ddd; stroke-width: 1; opacity: 1;"></line><line transform="translate(0,300)" x2="400" y2="0" style="fill: none; stroke: #ddd; stroke-width: 1; opacity: 1;"></line><line transform="translate(0,250)" x2="400" y2="0" style="fill: none; stroke: #ddd; stroke-width: 1; opacity: 1;"></line><line transform="translate(0,200)" x2="400" y2="0" style="fill: none; stroke: #ddd; stroke-width: 1; opacity: 1;"></line><line transform="translate(0,150)" x2="400" y2="0" style="fill: none; stroke: #ddd; stroke-width: 1; opacity: 1;"></line><line transform="translate(0,100)" x2="400" y2="0" style="fill: none; stroke: #ddd; stroke-width: 1; opacity: 1;"></line><line transform="translate(0,50)" x2="400" y2="0" style="fill: none; stroke: #ddd; stroke-width: 1; opacity: 1;"></line><line transform="translate(0,0)" x2="400" y2="0" style="fill: none; stroke: #ddd; stroke-width: 1; opacity: 1;"></line></g></g><path class="foreground" d="" style="pointer-events: none; display: none; fill: none;"></path></g></g><g class="mark-group role-axis"><g transform="translate(0.5,400.5)"><path class="background" d="M0,0h0v0h0Z" style="pointer-events: none; fill: none;"></path><g><g class="mark-text role-axis-label" style="pointer-events: none;"><text text-anchor="middle" transform="translate(35.55555555555556,10)" style="font-family: Roboto Condensed; font-size: 10px; fill: #000; opacity: 1;">Dec 09</text><text text-anchor="middle" transform="translate(88.88888888888889,10)" style="font-family: Roboto Condensed; font-size: 10px; fill: #000; opacity: 1;">Dec 11</text><text text-anchor="middle" transform="translate(142.22222222222223,10)" style="font-family: Roboto Condensed; font-size: 10px; fill: #000; opacity: 1;">Dec 13</text><text text-anchor="middle" transform="translate(195.55555555555554,10)" style="font-family: Roboto Condensed; font-size: 10px; fill: #000; opacity: 1;">Dec 15</text><text text-anchor="middle" transform="translate(248.88888888888889,10)" style="font-family: Roboto Condensed; font-size: 10px; fill: #000; opacity: 1;">Dec 17</text><text text-anchor="middle" transform="translate(302.22222222222223,10)" style="font-family: Roboto Condensed; font-size: 10px; fill: #000; opacity: 1;">Dec 19</text><text text-anchor="middle" transform="translate(355.55555555555554,10)" style="font-family: Roboto Condensed; font-size: 10px; fill: #000; opacity: 1;">Dec 21</text></g><g class="mark-rule role-axis-domain" style="pointer-events: none;"><line transform="translate(0,0)" x2="400" y2="0" style="fill: none; stroke: lightgray; stroke-width: 1; opacity: 1;"></line></g><g class="mark-text role-axis-title" style="pointer-events: none;"><text text-anchor="middle" transform="translate(200,25)" style="font-family: Roboto Condensed; font-size: 11px; font-weight: normal; fill: #000; opacity: 1;">Date</text></g></g><path class="foreground" d="" style="pointer-events: none; display: none; fill: none;"></path></g></g><g class="mark-group role-axis"><g transform="translate(0.5,0.5)"><path class="background" d="M0,0h0v0h0Z" style="pointer-events: none; fill: none;"></path><g><g class="mark-text role-axis-label" style="pointer-events: none;"><text text-anchor="end" transform="translate(-2,403)" style="font-family: Roboto Condensed; font-size: 10px; fill: #000; opacity: 1;">0</text><text text-anchor="end" transform="translate(-2,353)" style="font-family: Roboto Condensed; font-size: 10px; fill: #000; opacity: 1;">1,000</text><text text-anchor="end" transform="translate(-2,303)" style="font-family: Roboto Condensed; font-size: 10px; fill: #000; opacity: 1;">2,000</text><text text-anchor="end" transform="translate(-2,253)" style="font-family: Roboto Condensed; font-size: 10px; fill: #000; opacity: 1;">3,000</text><text text-anchor="end" transform="translate(-2,203)" style="font-family: Roboto Condensed; font-size: 10px; fill: #000; opacity: 1;">4,000</text><text text-anchor="end" transform="translate(-2,153)" style="font-family: Roboto Condensed; font-size: 10px; fill: #000; opacity: 1;">5,000</text><text text-anchor="end" transform="translate(-2,103)" style="font-family: Roboto Condensed; font-size: 10px; fill: #000; opacity: 1;">6,000</text><text text-anchor="end" transform="translate(-2,53)" style="font-family: Roboto Condensed; font-size: 10px; fill: #000; opacity: 1;">7,000</text><text text-anchor="end" transform="translate(-2,3)" style="font-family: Roboto Condensed; font-size: 10px; fill: #000; opacity: 1;">8,000</text></g><g class="mark-rule role-axis-domain" style="pointer-events: none;"><line transform="translate(0,400)" x2="0" y2="-400" style="fill: none; stroke: lightgray; stroke-width: 1; opacity: 1;"></line></g><g class="mark-text role-axis-title" style="pointer-events: none;"><text text-anchor="start" transform="translate(-45,-13)" style="font-family: Roboto Condensed; font-size: 11px; font-weight: normal; fill: #000; opacity: 1;">Count</text></g></g><path class="foreground" d="" style="pointer-events: none; display: none; fill: none;"></path></g></g><g class="mark-group role-scope concat_0_layer_0_pathgroup"><g transform="translate(0,0)"><path class="background" d="M0,0h400v400h-400Z" style="fill: none;"></path><g><g class="mark-line role-mark concat_0_layer_0_marks" clip-path="url(#clip1)"><path d="M-7511.111111111111,400L-7484.444444444445,400L-7457.777777777778,400L-7431.111111111111,400L-7404.444444444445,400L-7377.777777777777,400L-7351.11111111111,400L-7324.444444444444,400L-7298.88888888889,399.95L-7272.222222222223,400L-7245.555555555555,400L-7218.888888888889,400L-7192.222222222222,400L-7165.555555555555,400L-7138.888888888889,400L-7112.222222222222,400L-7085.555555555556,400L-7058.888888888889,400L-7032.222222222223,400L-7005.555555555556,400L-6978.888888888889,400L-6952.222222222223,400L-6925.555555555556,400L-6898.88888888889,399.75L-6872.222222222223,400L-6845.555555555555,400L-6818.888888888889,400L-6792.222222222222,399.95L-6765.555555555555,400L-6738.888888888889,399.75L-6712.222222222222,399.95L-6685.555555555556,400L-6658.888888888889,399.05L-6632.222222222223,400L-6605.555555555556,400L-6578.888888888889,400L-6552.222222222223,400L-6525.555555555556,400L-6498.88888888889,400L-6472.222222222223,400L-6445.555555555555,400L-6418.888888888889,400L-6392.222222222223,400L-6365.555555555556,400L-6338.888888888889,400L-6312.222222222222,400L-6285.555555555556,400L-6258.888888888889,400L-6232.222222222223,400L-6205.555555555556,400L-6178.888888888889,400L-6152.222222222223,400L-6125.555555555556,400L-6098.888888888889,400L-6072.222222222222,400L-6045.555555555556,400L-6018.888888888889,400L-5992.222222222223,400L-5965.555555555556,400L-5938.888888888889,400L-5912.222222222222,400L-5885.555555555556,400L-5858.888888888889,400L-5832.222222222223,400L-5805.555555555556,400L-5778.888888888889,400L-5752.222222222223,400L-5725.555555555556,400L-5698.888888888889,400L-5672.222222222222,400L-5645.555555555556,400L-5618.888888888889,400L-5592.222222222223,400L-5565.555555555556,400L-5538.888888888889,400L-5512.222222222222,400L-5485.555555555556,400L-5458.888888888889,400L-5432.222222222223,400L-5405.555555555556,400L-5378.888888888889,400L-5352.222222222223,400L-5325.555555555556,15.249999999999986L-5298.888888888889,400L-5272.222222222222,400L-5245.555555555556,400L-5218.888888888889,400L-5192.222222222223,400L-5165.555555555556,400L-5138.888888888889,400L-5112.222222222222,400L-5085.555555555556,400L-5058.888888888889,400L-5032.222222222223,400L-5005.555555555556,400L-4978.888888888889,379.45000000000005L-4952.222222222223,400L-4925.555555555556,400L-4898.888888888889,400L-4872.222222222222,400L-4845.555555555556,400L-4818.888888888889,400L-4792.222222222223,400L-4765.555555555556,400L-4738.888888888889,400L-4712.222222222222,400L-4685.555555555556,400L-4658.888888888889,400L-4632.222222222223,400L-4605.555555555556,400L-4578.888888888889,400L-4552.222222222223,400L-4525.555555555556,400L-4498.888888888889,400L-4472.222222222222,400L-4445.555555555556,400L-4418.888888888889,400L-4392.222222222223,400L-4365.555555555556,400L-4338.888888888889,400L-4312.222222222222,400L-4285.555555555556,400L-4258.888888888889,400L-4232.222222222223,400L-4205.555555555556,400L-4178.888888888889,400L-4152.222222222223,400L-4125.555555555556,400L-4098.888888888889,400L-4072.222222222222,400L-4045.5555555555557,400L-4018.888888888889,400L-3992.2222222222226,400L-3965.5555555555557,400L-3938.8888888888887,400L-3912.222222222222,400L-3885.5555555555557,400L-3858.8888888888887,400L-3832.222222222222,400L-3805.5555555555557,400L-3778.888888888889,400L-3752.2222222222226,400L-3725.555555555555,400L-3698.8888888888887,400L-3672.222222222222,373.20000000000005L-3645.5555555555557,400L-3618.888888888889,400L-3592.2222222222226,396.09999999999997L-3565.5555555555557,400L-3538.8888888888887,400L-3512.222222222222,400L-3485.5555555555557,400L-3458.8888888888887,400L-3432.222222222222,400L-3405.5555555555557,400L-3378.888888888889,400L-3352.2222222222226,400L-3325.555555555555,400L-3298.8888888888887,394.75L-3272.222222222222,400L-3245.5555555555557,400L-3218.888888888889,400L-3192.222222222222,400L-3165.5555555555557,400L-3138.888888888889,400L-3112.222222222222,400L-3085.5555555555557,400L-3058.8888888888887,400L-3032.222222222222,400L-3005.5555555555557,400L-2978.8888888888887,400L-2952.222222222222,400L-2925.5555555555557,385.34999999999997L-2898.8888888888887,400L-2872.222222222222,400L-2845.5555555555557,400L-2818.888888888889,400L-2792.222222222222,400L-2765.5555555555557,400L-2738.888888888889,390.09999999999997L-2712.222222222222,400L-2685.5555555555557,400L-2658.8888888888887,400L-2632.222222222222,400L-2605.5555555555557,400L-2578.8888888888887,400L-2552.222222222222,400L-2525.5555555555557,400L-2498.8888888888887,400L-2472.222222222222,400L-2445.5555555555557,400L-2418.888888888889,400L-2392.222222222222,400L-2365.5555555555557,400L-2338.888888888889,348.85L-2312.222222222222,400L-2285.5555555555557,400L-2258.8888888888887,400L-2232.222222222222,400L-2205.5555555555557,400L-2178.8888888888887,400L-2152.222222222222,400L-2125.5555555555557,400L-2098.8888888888887,400L-2072.222222222222,400L-2045.5555555555557,400L-2018.888888888889,400L-1992.2222222222222,400L-1965.5555555555554,400L-1938.888888888889,359.05L-1912.2222222222224,400L-1885.5555555555554,400L-1858.888888888889,400L-1832.2222222222222,400L-1805.5555555555557,400L-1778.8888888888887,400L-1752.2222222222222,400L-1725.5555555555557,400L-1698.8888888888887,400L-1672.2222222222222,400L-1645.5555555555557,366.35L-1618.888888888889,400L-1592.2222222222222,400L-1565.5555555555554,400L-1538.888888888889,400L-1512.2222222222222,400L-1485.5555555555557,400L-1458.888888888889,400L-1432.2222222222222,400L-1405.5555555555554,400L-1378.888888888889,400L-1352.2222222222222,400L-1325.5555555555557,400L-1298.888888888889,400L-1272.2222222222222,400L-1245.5555555555557,400L-1218.888888888889,400L-1192.2222222222222,400L-1165.5555555555554,400L-1138.888888888889,400L-1112.2222222222222,400L-1085.5555555555557,400L-1058.888888888889,400L-1032.2222222222222,400L-1005.5555555555555,400L-978.8888888888889,400L-951.1111111111111,400L-924.4444444444443,400L-897.7777777777778,400L-871.1111111111111,400L-844.4444444444445,400L-817.7777777777777,400L-791.1111111111111,400L-764.4444444444445,400L-737.7777777777778,400L-711.1111111111111,400L-684.4444444444445,400L-657.7777777777777,400L-631.1111111111111,400L-604.4444444444445,400L-577.7777777777777,93.25000000000001L-551.1111111111111,400L-524.4444444444445,400L-497.77777777777777,400L-471.11111111111114,400L-444.44444444444446,400L-417.7777777777778,400L-391.1111111111111,400L-364.44444444444446,400L-337.77777777777777,400L-311.11111111111114,400L-284.44444444444446,400L-257.77777777777777,400L-231.1111111111111,400L-204.44444444444443,400L-177.77777777777777,400L-151.11111111111111,400L-124.44444444444444,400L-97.77777777777777,400L-71.11111111111111,400L-44.44444444444444,400L-17.77777777777778,400L8.88888888888889,400L35.55555555555556,400L62.22222222222222,400L88.88888888888889,400L115.55555555555554,400L142.22222222222223,400L168.88888888888889,400L195.55555555555554,400L222.22222222222223,400L248.88888888888889,400L275.55555555555554,400L302.22222222222223,400L328.88888888888886,400L355.55555555555554,400L382.22222222222223,400L408.88888888888886,400" style="fill: none; stroke: #e45756; stroke-width: 2; opacity: 0.2;"></path></g></g><path class="foreground" d="" style="display: none; fill: none;"></path></g><g transform="translate(0,0)"><path class="background" d="M0,0h400v400h-400Z" style="fill: none;"></path><g><g class="mark-line role-mark concat_0_layer_0_marks" clip-path="url(#clip2)"><path d="M-7511.111111111111,400L-7484.444444444445,400L-7457.777777777778,400L-7431.111111111111,400L-7404.444444444445,400L-7377.777777777777,400L-7351.11111111111,400L-7324.444444444444,400L-7298.88888888889,400L-7272.222222222223,400L-7245.555555555555,400L-7218.888888888889,400L-7192.222222222222,400L-7165.555555555555,399.85L-7138.888888888889,400L-7112.222222222222,400L-7085.555555555556,400L-7058.888888888889,399.85L-7032.222222222223,399.95L-7005.555555555556,400L-6978.888888888889,400L-6952.222222222223,400L-6925.555555555556,399.85L-6898.88888888889,399.90000000000003L-6872.222222222223,399.90000000000003L-6845.555555555555,400L-6818.888888888889,399.75L-6792.222222222222,399.8L-6765.555555555555,399.90000000000003L-6738.888888888889,399.65000000000003L-6712.222222222222,399.65000000000003L-6685.555555555556,399.75L-6658.888888888889,399.7L-6632.222222222223,399.54999999999995L-6605.555555555556,399.85L-6578.888888888889,399.54999999999995L-6552.222222222223,399.75L-6525.555555555556,399.35L-6498.88888888889,399.40000000000003L-6472.222222222223,399.65000000000003L-6445.555555555555,399.75L-6418.888888888889,399.7L-6392.222222222223,399.54999999999995L-6365.555555555556,399.7L-6338.888888888889,399.75L-6312.222222222222,399.45L-6285.555555555556,399.90000000000003L-6258.888888888889,399.54999999999995L-6232.222222222223,399.85L-6205.555555555556,399.95L-6178.888888888889,399.2L-6152.222222222223,399.95L-6125.555555555556,399.75L-6098.888888888889,399.65000000000003L-6072.222222222222,399.75L-6045.555555555556,399.90000000000003L-6018.888888888889,400L-5992.222222222223,399.8L-5965.555555555556,399.95L-5938.888888888889,399.95L-5912.222222222222,399.85L-5885.555555555556,400L-5858.888888888889,399.95L-5832.222222222223,400L-5805.555555555556,399.85L-5778.888888888889,399.95L-5752.222222222223,399.95L-5725.555555555556,399.95L-5698.888888888889,399.95L-5672.222222222222,399.95L-5645.555555555556,400L-5618.888888888889,399.75L-5592.222222222223,399.8L-5565.555555555556,399.95L-5538.888888888889,399.85L-5512.222222222222,400L-5485.555555555556,400L-5458.888888888889,400L-5432.222222222223,399.95L-5405.555555555556,400L-5378.888888888889,399.95L-5352.222222222223,399.95L-5325.555555555556,400L-5298.888888888889,400L-5272.222222222222,400L-5245.555555555556,400L-5218.888888888889,400L-5192.222222222223,400L-5165.555555555556,399.95L-5138.888888888889,400L-5112.222222222222,400L-5085.555555555556,400L-5058.888888888889,400L-5032.222222222223,399.95L-5005.555555555556,400L-4978.888888888889,399.95L-4952.222222222223,400L-4925.555555555556,400L-4898.888888888889,400L-4872.222222222222,399.95L-4845.555555555556,400L-4818.888888888889,400L-4792.222222222223,399.85L-4765.555555555556,400L-4738.888888888889,400L-4712.222222222222,400L-4685.555555555556,400L-4658.888888888889,400L-4632.222222222223,399.95L-4605.555555555556,399.95L-4578.888888888889,400L-4552.222222222223,400L-4525.555555555556,400L-4498.888888888889,399.8L-4472.222222222222,400L-4445.555555555556,399.95L-4418.888888888889,400L-4392.222222222223,400L-4365.555555555556,400L-4338.888888888889,400L-4312.222222222222,400L-4285.555555555556,399.95L-4258.888888888889,399.95L-4232.222222222223,400L-4205.555555555556,400L-4178.888888888889,400L-4152.222222222223,400L-4125.555555555556,400L-4098.888888888889,400L-4072.222222222222,400L-4045.5555555555557,399.95L-4018.888888888889,400L-3992.2222222222226,400L-3965.5555555555557,400L-3938.8888888888887,399.95L-3912.222222222222,400L-3885.5555555555557,400L-3858.8888888888887,399.95L-3832.222222222222,399.95L-3805.5555555555557,400L-3778.888888888889,400L-3752.2222222222226,400L-3725.555555555555,400L-3698.8888888888887,400L-3672.222222222222,400L-3645.5555555555557,400L-3618.888888888889,400L-3592.2222222222226,400L-3565.5555555555557,400L-3538.8888888888887,400L-3512.222222222222,400L-3485.5555555555557,400L-3458.8888888888887,400L-3432.222222222222,400L-3405.5555555555557,400L-3378.888888888889,399.95L-3352.2222222222226,400L-3325.555555555555,400L-3298.8888888888887,400L-3272.222222222222,400L-3245.5555555555557,400L-3218.888888888889,400L-3192.222222222222,400L-3165.5555555555557,400L-3138.888888888889,400L-3112.222222222222,399.95L-3085.5555555555557,399.8L-3058.8888888888887,400L-3032.222222222222,400L-3005.5555555555557,400L-2978.8888888888887,399.95L-2952.222222222222,400L-2925.5555555555557,399.90000000000003L-2898.8888888888887,400L-2872.222222222222,400L-2845.5555555555557,400L-2818.888888888889,400L-2792.222222222222,400L-2765.5555555555557,400L-2738.888888888889,400L-2712.222222222222,400L-2685.5555555555557,400L-2658.8888888888887,400L-2632.222222222222,400L-2605.5555555555557,400L-2578.8888888888887,400L-2552.222222222222,400L-2525.5555555555557,400L-2498.8888888888887,400L-2472.222222222222,400L-2445.5555555555557,400L-2418.888888888889,400L-2392.222222222222,400L-2365.5555555555557,399.95L-2338.888888888889,400L-2312.222222222222,400L-2285.5555555555557,400L-2258.8888888888887,400L-2232.222222222222,400L-2205.5555555555557,400L-2178.8888888888887,399.95L-2152.222222222222,399.95L-2125.5555555555557,400L-2098.8888888888887,400L-2072.222222222222,400L-2045.5555555555557,400L-2018.888888888889,400L-1992.2222222222222,399.85L-1965.5555555555554,400L-1938.888888888889,400L-1912.2222222222224,400L-1885.5555555555554,399.8L-1858.888888888889,400L-1832.2222222222222,400L-1805.5555555555557,400L-1778.8888888888887,399.95L-1752.2222222222222,400L-1725.5555555555557,400L-1698.8888888888887,400L-1672.2222222222222,400L-1645.5555555555557,400L-1618.888888888889,400L-1592.2222222222222,400L-1565.5555555555554,400L-1538.888888888889,400L-1512.2222222222222,399.95L-1485.5555555555557,399.95L-1458.888888888889,400L-1432.2222222222222,399.95L-1405.5555555555554,400L-1378.888888888889,400L-1352.2222222222222,400L-1325.5555555555557,400L-1298.888888888889,400L-1272.2222222222222,399.95L-1245.5555555555557,400L-1218.888888888889,400L-1192.2222222222222,400L-1165.5555555555554,400L-1138.888888888889,400L-1112.2222222222222,399.95L-1085.5555555555557,400L-1058.888888888889,399.95L-1032.2222222222222,399.95L-1005.5555555555555,400L-978.8888888888889,400L-951.1111111111111,400L-924.4444444444443,400L-897.7777777777778,400L-871.1111111111111,399.90000000000003L-844.4444444444445,399.95L-817.7777777777777,400L-791.1111111111111,400L-764.4444444444445,400L-737.7777777777778,400L-711.1111111111111,400L-684.4444444444445,399.7L-657.7777777777777,399.85L-631.1111111111111,400L-604.4444444444445,400L-577.7777777777777,400L-551.1111111111111,399.8L-524.4444444444445,399.90000000000003L-497.77777777777777,399.75L-471.11111111111114,399.95L-444.44444444444446,400L-417.7777777777778,400L-391.1111111111111,399.75L-364.44444444444446,399.85L-337.77777777777777,399.90000000000003L-311.11111111111114,400L-284.44444444444446,399.40000000000003L-257.77777777777777,400L-231.1111111111111,400L-204.44444444444443,399.8L-177.77777777777777,399.90000000000003L-151.11111111111111,399.15L-124.44444444444444,399.90000000000003L-97.77777777777777,399.95L-71.11111111111111,400L-44.44444444444444,400L-17.77777777777778,399.75L8.88888888888889,399.90000000000003L35.55555555555556,400L62.22222222222222,398.95L88.88888888888889,399.75L115.55555555555554,400L142.22222222222223,400L168.88888888888889,399.7L195.55555555555554,399.90000000000003L222.22222222222223,399.65000000000003L248.88888888888889,399.90000000000003L275.55555555555554,400L302.22222222222223,400L328.88888888888886,400L355.55555555555554,399.95L382.22222222222223,400L408.88888888888886,399.2" style="fill: none; stroke: #f58518; stroke-width: 2; opacity: 0.2;"></path></g></g><path class="foreground" d="" style="display: none; fill: none;"></path></g><g transform="translate(0,0)"><path class="background" d="M0,0h400v400h-400Z" style="fill: none;"></path><g><g class="mark-line role-mark concat_0_layer_0_marks" clip-path="url(#clip3)"><path d="M-7511.111111111111,399.8L-7484.444444444445,399.7L-7457.777777777778,399.65000000000003L-7431.111111111111,398.8L-7404.444444444445,398.45L-7377.777777777777,398.95L-7351.11111111111,398.05L-7324.444444444444,398.55L-7298.88888888889,398.55L-7272.222222222223,390.25L-7245.555555555555,390.09999999999997L-7218.888888888889,394.8L-7192.222222222222,385.3L-7165.555555555555,395.3L-7138.888888888889,393.45L-7112.222222222222,394.4L-7085.555555555556,393.5L-7058.888888888889,395.65000000000003L-7032.222222222223,390.2L-7005.555555555556,391.59999999999997L-6978.888888888889,389.8L-6952.222222222223,386.65L-6925.555555555556,388.2L-6898.88888888889,387.9L-6872.222222222223,388.95L-6845.555555555555,385.75L-6818.888888888889,380.7L-6792.222222222222,387L-6765.555555555555,386.55L-6738.888888888889,391.95000000000005L-6712.222222222222,390.2L-6685.555555555556,388.9L-6658.888888888889,385.8L-6632.222222222223,388.85L-6605.555555555556,391L-6578.888888888889,393.15L-6552.222222222223,391.1L-6525.555555555556,388.95L-6498.88888888889,400L-6472.222222222223,393.75L-6445.555555555555,394.85L-6418.888888888889,395.25L-6392.222222222223,394.20000000000005L-6365.555555555556,396.09999999999997L-6338.888888888889,399L-6312.222222222222,394.15L-6285.555555555556,392.2L-6258.888888888889,397.95L-6232.222222222223,395.05L-6205.555555555556,397.90000000000003L-6178.888888888889,396.09999999999997L-6152.222222222223,398.25L-6125.555555555556,392.65L-6098.888888888889,396.85L-6072.222222222222,396.9L-6045.555555555556,398.20000000000005L-6018.888888888889,398.6L-5992.222222222223,396.4L-5965.555555555556,396.95L-5938.888888888889,397.5L-5912.222222222222,398.6L-5885.555555555556,397.75L-5858.888888888889,398.7L-5832.222222222223,398.09999999999997L-5805.555555555556,397.15L-5778.888888888889,397.45L-5752.222222222223,397.95L-5725.555555555556,398.09999999999997L-5698.888888888889,398.20000000000005L-5672.222222222222,398.55L-5645.555555555556,399.7L-5618.888888888889,398.65L-5592.222222222223,398.75L-5565.555555555556,399.1L-5538.888888888889,398.95L-5512.222222222222,398.85L-5485.555555555556,399.1L-5458.888888888889,399.40000000000003L-5432.222222222223,399.6L-5405.555555555556,399.5L-5378.888888888889,399.3L-5352.222222222223,398.6L-5325.555555555556,398.85L-5298.888888888889,399.3L-5272.222222222222,399.7L-5245.555555555556,399.40000000000003L-5218.888888888889,399.05L-5192.222222222223,399.1L-5165.555555555556,399.5L-5138.888888888889,399.45L-5112.222222222222,399.25L-5085.555555555556,399.85L-5058.888888888889,399.7L-5032.222222222223,399.54999999999995L-5005.555555555556,398.9L-4978.888888888889,398.65L-4952.222222222223,399.1L-4925.555555555556,399.54999999999995L-4898.888888888889,399.2L-4872.222222222222,399.3L-4845.555555555556,399.25L-4818.888888888889,399.1L-4792.222222222223,399.3L-4765.555555555556,399.40000000000003L-4738.888888888889,399.6L-4712.222222222222,399.85L-4685.555555555556,399.2L-4658.888888888889,399.35L-4632.222222222223,398.4L-4605.555555555556,399.2L-4578.888888888889,399.1L-4552.222222222223,399.2L-4525.555555555556,399.85L-4498.888888888889,399.7L-4472.222222222222,398.95L-4445.555555555556,399.2L-4418.888888888889,400L-4392.222222222223,397.8L-4365.555555555556,399.3L-4338.888888888889,399.54999999999995L-4312.222222222222,399.65000000000003L-4285.555555555556,399.15L-4258.888888888889,399.15L-4232.222222222223,399.7L-4205.555555555556,399.05L-4178.888888888889,399.75L-4152.222222222223,399.8L-4125.555555555556,399.7L-4098.888888888889,399.45L-4072.222222222222,399.85L-4045.5555555555557,399.25L-4018.888888888889,399.54999999999995L-3992.2222222222226,399.85L-3965.5555555555557,399.8L-3938.8888888888887,399.85L-3912.222222222222,399.15L-3885.5555555555557,399.5L-3858.8888888888887,399.8L-3832.222222222222,399.5L-3805.5555555555557,399.85L-3778.888888888889,400L-3752.2222222222226,399.7L-3725.555555555555,399.05L-3698.8888888888887,399.7L-3672.222222222222,398.7L-3645.5555555555557,399.65000000000003L-3618.888888888889,399.05L-3592.2222222222226,399.7L-3565.5555555555557,399.25L-3538.8888888888887,399.1L-3512.222222222222,398.9L-3485.5555555555557,398.20000000000005L-3458.8888888888887,398.4L-3432.222222222222,399.35L-3405.5555555555557,399.25L-3378.888888888889,396.7L-3352.2222222222226,398.6L-3325.555555555555,397.65000000000003L-3298.8888888888887,397.05L-3272.222222222222,395.84999999999997L-3245.5555555555557,397.6L-3218.888888888889,398.05L-3192.222222222222,397.7L-3165.5555555555557,396.65L-3138.888888888889,398.4L-3112.222222222222,396.6L-3085.5555555555557,397.15L-3058.8888888888887,397.15L-3032.222222222222,398L-3005.5555555555557,397.25L-2978.8888888888887,397.45L-2952.222222222222,397.45L-2925.5555555555557,398.25L-2898.8888888888887,396.09999999999997L-2872.222222222222,398.8L-2845.5555555555557,398.8L-2818.888888888889,396.4L-2792.222222222222,397.05L-2765.5555555555557,397.5L-2738.888888888889,398.09999999999997L-2712.222222222222,398L-2685.5555555555557,398.55L-2658.8888888888887,398.4L-2632.222222222222,393.05L-2605.5555555555557,395.54999999999995L-2578.8888888888887,391.84999999999997L-2552.222222222222,395.7L-2525.5555555555557,394.45L-2498.8888888888887,396.75L-2472.222222222222,395.40000000000003L-2445.5555555555557,393.35L-2418.888888888889,394.9L-2392.222222222222,393.84999999999997L-2365.5555555555557,393.95L-2338.888888888889,393.2L-2312.222222222222,396.20000000000005L-2285.5555555555557,396.25L-2258.8888888888887,393.9L-2232.222222222222,394.15L-2205.5555555555557,394.75L-2178.8888888888887,392.7L-2152.222222222222,393.75L-2125.5555555555557,395.54999999999995L-2098.8888888888887,398.05L-2072.222222222222,394.6L-2045.5555555555557,392.6L-2018.888888888889,393.8L-1992.2222222222222,393.55L-1965.5555555555554,393.05L-1938.888888888889,395.90000000000003L-1912.2222222222224,396.45L-1885.5555555555554,395.5L-1858.888888888889,393.65000000000003L-1832.2222222222222,394.4L-1805.5555555555557,393.9L-1778.8888888888887,393.25L-1752.2222222222222,396.09999999999997L-1725.5555555555557,395.25L-1698.8888888888887,392.6L-1672.2222222222222,391.05L-1645.5555555555557,388.55L-1618.888888888889,389.59999999999997L-1592.2222222222222,391.65000000000003L-1565.5555555555554,396.09999999999997L-1538.888888888889,397.1L-1512.2222222222222,394.25L-1485.5555555555557,392.3L-1458.888888888889,392L-1432.2222222222222,390.8L-1405.5555555555554,393.25L-1378.888888888889,395.15L-1352.2222222222222,395.6L-1325.5555555555557,392.7L-1298.888888888889,391.55L-1272.2222222222222,390.4L-1245.5555555555557,386.5L-1218.888888888889,385.1L-1192.2222222222222,389.15000000000003L-1165.5555555555554,392L-1138.888888888889,378.35L-1112.2222222222222,383.8L-1085.5555555555557,379.84999999999997L-1058.888888888889,375.25L-1032.2222222222222,375.09999999999997L-1005.5555555555555,386.55L-978.8888888888889,384.8L-951.1111111111111,364.8L-924.4444444444443,369.15L-897.7777777777778,368.9L-871.1111111111111,367.45L-844.4444444444445,369.7L-817.7777777777777,379.59999999999997L-791.1111111111111,375.55L-764.4444444444445,370.35L-737.7777777777778,371.9L-711.1111111111111,368.8L-684.4444444444445,364.15000000000003L-657.7777777777777,365.6L-631.1111111111111,374.1L-604.4444444444445,400L-577.7777777777777,400L-551.1111111111111,316L-524.4444444444445,367.2L-497.77777777777777,366.45L-471.11111111111114,371.34999999999997L-444.44444444444446,383.1L-417.7777777777778,379.34999999999997L-391.1111111111111,379.09999999999997L-364.44444444444446,373.3L-337.77777777777777,372.45L-311.11111111111114,376L-284.44444444444446,377.75L-257.77777777777777,382.35L-231.1111111111111,385.9L-204.44444444444443,383.9L-177.77777777777777,377.95L-151.11111111111111,381.1L-124.44444444444444,379.9L-97.77777777777777,378.5L-71.11111111111111,386.4L-44.44444444444444,387.5L-17.77777777777778,381L8.88888888888889,377L35.55555555555556,381.9L62.22222222222222,375.09999999999997L88.88888888888889,379.2L115.55555555555554,381.8L142.22222222222223,390L168.88888888888889,383.45L195.55555555555554,374.1L222.22222222222223,377L248.88888888888889,376.79999999999995L275.55555555555554,378.45L302.22222222222223,381.25L328.88888888888886,383.84999999999997L355.55555555555554,378.45L382.22222222222223,370.2L408.88888888888886,373.85" style="fill: none; stroke: #4c78a8; stroke-width: 2; opacity: 0.2;"></path></g></g><path class="foreground" d="" style="display: none; fill: none;"></path></g></g><g class="mark-group role-scope concat_0_layer_1_pathgroup"><g transform="translate(0,0)"><path class="background" d="M0,0h400v400h-400Z" style="fill: none;"></path><g><g class="mark-line role-mark concat_0_layer_1_marks" clip-path="url(#clip4)"><path d="M-7351.11111111111,400L-7324.444444444444,400L-7298.88888888889,399.99285714285713L-7272.222222222223,399.99285714285713L-7245.555555555555,399.99285714285713L-7218.888888888889,399.99285714285713L-7192.222222222222,399.99285714285713L-7165.555555555555,399.99285714285713L-7138.888888888889,399.99285714285713L-7112.222222222222,400L-7085.555555555556,400L-7058.888888888889,400L-7032.222222222223,400L-7005.555555555556,400L-6978.888888888889,400L-6952.222222222223,400L-6925.555555555556,400L-6898.88888888889,399.9642857142857L-6872.222222222223,399.9642857142857L-6845.555555555555,399.9642857142857L-6818.888888888889,399.9642857142857L-6792.222222222222,399.95714285714286L-6765.555555555555,399.95714285714286L-6738.888888888889,399.9214285714286L-6712.222222222222,399.95L-6685.555555555556,399.95L-6658.888888888889,399.81428571428575L-6632.222222222223,399.81428571428575L-6605.555555555556,399.82142857142856L-6578.888888888889,399.82142857142856L-6552.222222222223,399.8571428571429L-6525.555555555556,399.8642857142857L-6498.88888888889,399.8642857142857L-6472.222222222223,400L-6445.555555555555,400L-6418.888888888889,400L-6392.222222222223,400L-6365.555555555556,400L-6338.888888888889,400L-6312.222222222222,400L-6285.555555555556,400L-6258.888888888889,400L-6232.222222222223,400L-6205.555555555556,400L-6178.888888888889,400L-6152.222222222223,400L-6125.555555555556,400L-6098.888888888889,400L-6072.222222222222,400L-6045.555555555556,400L-6018.888888888889,400L-5992.222222222223,400L-5965.555555555556,400L-5938.888888888889,400L-5912.222222222222,400L-5885.555555555556,400L-5858.888888888889,400L-5832.222222222223,400L-5805.555555555556,400L-5778.888888888889,400L-5752.222222222223,400L-5725.555555555556,400L-5698.888888888889,400L-5672.222222222222,400L-5645.555555555556,400L-5618.888888888889,400L-5592.222222222223,400L-5565.555555555556,400L-5538.888888888889,400L-5512.222222222222,400L-5485.555555555556,400L-5458.888888888889,400L-5432.222222222223,400L-5405.555555555556,400L-5378.888888888889,400L-5352.222222222223,400L-5325.555555555556,345.0357142857143L-5298.888888888889,345.0357142857143L-5272.222222222222,345.0357142857143L-5245.555555555556,345.0357142857143L-5218.888888888889,345.0357142857143L-5192.222222222223,345.0357142857143L-5165.555555555556,345.0357142857143L-5138.888888888889,400L-5112.222222222222,400L-5085.555555555556,400L-5058.888888888889,400L-5032.222222222223,400L-5005.555555555556,400L-4978.888888888889,397.06428571428575L-4952.222222222223,397.06428571428575L-4925.555555555556,397.06428571428575L-4898.888888888889,397.06428571428575L-4872.222222222222,397.06428571428575L-4845.555555555556,397.06428571428575L-4818.888888888889,397.06428571428575L-4792.222222222223,400L-4765.555555555556,400L-4738.888888888889,400L-4712.222222222222,400L-4685.555555555556,400L-4658.888888888889,400L-4632.222222222223,400L-4605.555555555556,400L-4578.888888888889,400L-4552.222222222223,400L-4525.555555555556,400L-4498.888888888889,400L-4472.222222222222,400L-4445.555555555556,400L-4418.888888888889,400L-4392.222222222223,400L-4365.555555555556,400L-4338.888888888889,400L-4312.222222222222,400L-4285.555555555556,400L-4258.888888888889,400L-4232.222222222223,400L-4205.555555555556,400L-4178.888888888889,400L-4152.222222222223,400L-4125.555555555556,400L-4098.888888888889,400L-4072.222222222222,400L-4045.5555555555557,400L-4018.888888888889,400L-3992.2222222222226,400L-3965.5555555555557,400L-3938.8888888888887,400L-3912.222222222222,400L-3885.5555555555557,400L-3858.8888888888887,400L-3832.222222222222,400L-3805.5555555555557,400L-3778.888888888889,400L-3752.2222222222226,400L-3725.555555555555,400L-3698.8888888888887,400L-3672.222222222222,396.1714285714286L-3645.5555555555557,396.1714285714286L-3618.888888888889,396.1714285714286L-3592.2222222222226,395.6142857142857L-3565.5555555555557,395.6142857142857L-3538.8888888888887,395.6142857142857L-3512.222222222222,395.6142857142857L-3485.5555555555557,399.4428571428571L-3458.8888888888887,399.4428571428571L-3432.222222222222,399.4428571428571L-3405.5555555555557,400L-3378.888888888889,400L-3352.2222222222226,400L-3325.555555555555,400L-3298.8888888888887,399.25L-3272.222222222222,399.25L-3245.5555555555557,399.25L-3218.888888888889,399.25L-3192.222222222222,399.25L-3165.5555555555557,399.25L-3138.888888888889,399.25L-3112.222222222222,400L-3085.5555555555557,400L-3058.8888888888887,400L-3032.222222222222,400L-3005.5555555555557,400L-2978.8888888888887,400L-2952.222222222222,400L-2925.5555555555557,397.90714285714284L-2898.8888888888887,397.90714285714284L-2872.222222222222,397.90714285714284L-2845.5555555555557,397.90714285714284L-2818.888888888889,397.90714285714284L-2792.222222222222,397.90714285714284L-2765.5555555555557,397.90714285714284L-2738.888888888889,398.5857142857143L-2712.222222222222,398.5857142857143L-2685.5555555555557,398.5857142857143L-2658.8888888888887,398.5857142857143L-2632.222222222222,398.5857142857143L-2605.5555555555557,398.5857142857143L-2578.8888888888887,398.5857142857143L-2552.222222222222,400L-2525.5555555555557,400L-2498.8888888888887,400L-2472.222222222222,400L-2445.5555555555557,400L-2418.888888888889,400L-2392.222222222222,400L-2365.5555555555557,400L-2338.888888888889,392.6928571428571L-2312.222222222222,392.6928571428571L-2285.5555555555557,392.6928571428571L-2258.8888888888887,392.6928571428571L-2232.222222222222,392.6928571428571L-2205.5555555555557,392.6928571428571L-2178.8888888888887,392.6928571428571L-2152.222222222222,400L-2125.5555555555557,400L-2098.8888888888887,400L-2072.222222222222,400L-2045.5555555555557,400L-2018.888888888889,400L-1992.2222222222222,400L-1965.5555555555554,400L-1938.888888888889,394.15L-1912.2222222222224,394.15L-1885.5555555555554,394.15L-1858.888888888889,394.15L-1832.2222222222222,394.15L-1805.5555555555557,394.15L-1778.8888888888887,394.15L-1752.2222222222222,400L-1725.5555555555557,400L-1698.8888888888887,400L-1672.2222222222222,400L-1645.5555555555557,395.1928571428571L-1618.888888888889,395.1928571428571L-1592.2222222222222,395.1928571428571L-1565.5555555555554,395.1928571428571L-1538.888888888889,395.1928571428571L-1512.2222222222222,395.1928571428571L-1485.5555555555557,395.1928571428571L-1458.888888888889,400L-1432.2222222222222,400L-1405.5555555555554,400L-1378.888888888889,400L-1352.2222222222222,400L-1325.5555555555557,400L-1298.888888888889,400L-1272.2222222222222,400L-1245.5555555555557,400L-1218.888888888889,400L-1192.2222222222222,400L-1165.5555555555554,400L-1138.888888888889,400L-1112.2222222222222,400L-1085.5555555555557,400L-1058.888888888889,400L-1032.2222222222222,400L-1005.5555555555555,400L-978.8888888888889,400L-951.1111111111111,400L-924.4444444444443,400L-897.7777777777778,400L-871.1111111111111,400L-844.4444444444445,400L-817.7777777777777,400L-791.1111111111111,400L-764.4444444444445,400L-737.7777777777778,400L-711.1111111111111,400L-684.4444444444445,400L-657.7777777777777,400L-631.1111111111111,400L-604.4444444444445,400L-577.7777777777777,356.1785714285714L-551.1111111111111,356.1785714285714L-524.4444444444445,356.1785714285714L-497.77777777777777,356.1785714285714L-471.11111111111114,356.1785714285714L-444.44444444444446,356.1785714285714L-417.7777777777778,356.1785714285714L-391.1111111111111,400L-364.44444444444446,400L-337.77777777777777,400L-311.11111111111114,400L-284.44444444444446,400L-257.77777777777777,400L-231.1111111111111,400L-204.44444444444443,400L-177.77777777777777,400L-151.11111111111111,400L-124.44444444444444,400L-97.77777777777777,400L-71.11111111111111,400L-44.44444444444444,400L-17.77777777777778,400L8.88888888888889,400L35.55555555555556,400L62.22222222222222,400L88.88888888888889,400L115.55555555555554,400L142.22222222222223,400L168.88888888888889,400L195.55555555555554,400L222.22222222222223,400L248.88888888888889,400L275.55555555555554,400L302.22222222222223,400L328.88888888888886,400L355.55555555555554,400L382.22222222222223,400L408.88888888888886,400" style="fill: none; stroke: #e45756; stroke-width: 2; opacity: 1;"></path></g></g><path class="foreground" d="" style="display: none; fill: none;"></path></g><g transform="translate(0,0)"><path class="background" d="M0,0h400v400h-400Z" style="fill: none;"></path><g><g class="mark-line role-mark concat_0_layer_1_marks" clip-path="url(#clip5)"><path d="M-7351.11111111111,400L-7324.444444444444,400L-7298.88888888889,400L-7272.222222222223,400L-7245.555555555555,400L-7218.888888888889,400L-7192.222222222222,400L-7165.555555555555,399.9785714285714L-7138.888888888889,399.9785714285714L-7112.222222222222,399.9785714285714L-7085.555555555556,399.9785714285714L-7058.888888888889,399.95714285714286L-7032.222222222223,399.95L-7005.555555555556,399.95L-6978.888888888889,399.97142857142853L-6952.222222222223,399.97142857142853L-6925.555555555556,399.95L-6898.88888888889,399.9357142857143L-6872.222222222223,399.9428571428572L-6845.555555555555,399.95L-6818.888888888889,399.9142857142857L-6792.222222222222,399.88571428571424L-6765.555555555555,399.87142857142857L-6738.888888888889,399.8428571428571L-6712.222222222222,399.8071428571428L-6685.555555555556,399.7857142857143L-6658.888888888889,399.74285714285713L-6632.222222222223,399.7142857142857L-6605.555555555556,399.72142857142853L-6578.888888888889,399.6714285714286L-6552.222222222223,399.6857142857143L-6525.555555555556,399.64285714285717L-6498.88888888889,399.59285714285716L-6472.222222222223,399.5857142857143L-6445.555555555555,399.6142857142857L-6418.888888888889,399.59285714285716L-6392.222222222223,399.59285714285716L-6365.555555555556,399.5857142857143L-6338.888888888889,399.64285714285717L-6312.222222222222,399.65000000000003L-6285.555555555556,399.6857142857143L-6258.888888888889,399.65714285714284L-6232.222222222223,399.67857142857144L-6205.555555555556,399.7357142857143L-6178.888888888889,399.6642857142857L-6152.222222222223,399.6928571428572L-6125.555555555556,399.7357142857143L-6098.888888888889,399.7L-6072.222222222222,399.72857142857146L-6045.555555555556,399.7357142857143L-6018.888888888889,399.74285714285713L-5992.222222222223,399.8285714285714L-5965.555555555556,399.8285714285714L-5938.888888888889,399.8571428571429L-5912.222222222222,399.88571428571424L-5885.555555555556,399.9214285714286L-5858.888888888889,399.9285714285714L-5832.222222222223,399.9285714285714L-5805.555555555556,399.9357142857143L-5778.888888888889,399.9357142857143L-5752.222222222223,399.9357142857143L-5725.555555555556,399.95L-5698.888888888889,399.9428571428572L-5672.222222222222,399.9428571428572L-5645.555555555556,399.9428571428572L-5618.888888888889,399.9285714285714L-5592.222222222223,399.90714285714284L-5565.555555555556,399.90714285714284L-5538.888888888889,399.8928571428571L-5512.222222222222,399.90000000000003L-5485.555555555556,399.90714285714284L-5458.888888888889,399.90714285714284L-5432.222222222223,399.9357142857143L-5405.555555555556,399.9642857142857L-5378.888888888889,399.9642857142857L-5352.222222222223,399.9785714285714L-5325.555555555556,399.9785714285714L-5298.888888888889,399.9785714285714L-5272.222222222222,399.9785714285714L-5245.555555555556,399.9857142857143L-5218.888888888889,399.9857142857143L-5192.222222222223,399.99285714285713L-5165.555555555556,399.99285714285713L-5138.888888888889,399.99285714285713L-5112.222222222222,399.99285714285713L-5085.555555555556,399.99285714285713L-5058.888888888889,399.99285714285713L-5032.222222222223,399.9857142857143L-5005.555555555556,399.9857142857143L-4978.888888888889,399.9857142857143L-4952.222222222223,399.9857142857143L-4925.555555555556,399.9857142857143L-4898.888888888889,399.9857142857143L-4872.222222222222,399.9785714285714L-4845.555555555556,399.9857142857143L-4818.888888888889,399.9857142857143L-4792.222222222223,399.97142857142853L-4765.555555555556,399.97142857142853L-4738.888888888889,399.97142857142853L-4712.222222222222,399.97142857142853L-4685.555555555556,399.9785714285714L-4658.888888888889,399.9785714285714L-4632.222222222223,399.97142857142853L-4605.555555555556,399.9857142857143L-4578.888888888889,399.9857142857143L-4552.222222222223,399.9857142857143L-4525.555555555556,399.9857142857143L-4498.888888888889,399.95714285714286L-4472.222222222222,399.95714285714286L-4445.555555555556,399.95714285714286L-4418.888888888889,399.9642857142857L-4392.222222222223,399.9642857142857L-4365.555555555556,399.9642857142857L-4338.888888888889,399.9642857142857L-4312.222222222222,399.99285714285713L-4285.555555555556,399.9857142857143L-4258.888888888889,399.9857142857143L-4232.222222222223,399.9857142857143L-4205.555555555556,399.9857142857143L-4178.888888888889,399.9857142857143L-4152.222222222223,399.9857142857143L-4125.555555555556,399.9857142857143L-4098.888888888889,399.99285714285713L-4072.222222222222,400L-4045.5555555555557,399.99285714285713L-4018.888888888889,399.99285714285713L-3992.2222222222226,399.99285714285713L-3965.5555555555557,399.99285714285713L-3938.8888888888887,399.9857142857143L-3912.222222222222,399.9857142857143L-3885.5555555555557,399.9857142857143L-3858.8888888888887,399.9857142857143L-3832.222222222222,399.9785714285714L-3805.5555555555557,399.9785714285714L-3778.888888888889,399.9785714285714L-3752.2222222222226,399.9857142857143L-3725.555555555555,399.9857142857143L-3698.8888888888887,399.9857142857143L-3672.222222222222,399.99285714285713L-3645.5555555555557,400L-3618.888888888889,400L-3592.2222222222226,400L-3565.5555555555557,400L-3538.8888888888887,400L-3512.222222222222,400L-3485.5555555555557,400L-3458.8888888888887,400L-3432.222222222222,400L-3405.5555555555557,400L-3378.888888888889,399.99285714285713L-3352.2222222222226,399.99285714285713L-3325.555555555555,399.99285714285713L-3298.8888888888887,399.99285714285713L-3272.222222222222,399.99285714285713L-3245.5555555555557,399.99285714285713L-3218.888888888889,399.99285714285713L-3192.222222222222,400L-3165.5555555555557,400L-3138.888888888889,400L-3112.222222222222,399.99285714285713L-3085.5555555555557,399.9642857142857L-3058.8888888888887,399.9642857142857L-3032.222222222222,399.9642857142857L-3005.5555555555557,399.9642857142857L-2978.8888888888887,399.95714285714286L-2952.222222222222,399.95714285714286L-2925.5555555555557,399.95L-2898.8888888888887,399.9785714285714L-2872.222222222222,399.9785714285714L-2845.5555555555557,399.9785714285714L-2818.888888888889,399.9785714285714L-2792.222222222222,399.9857142857143L-2765.5555555555557,399.9857142857143L-2738.888888888889,400L-2712.222222222222,400L-2685.5555555555557,400L-2658.8888888888887,400L-2632.222222222222,400L-2605.5555555555557,400L-2578.8888888888887,400L-2552.222222222222,400L-2525.5555555555557,400L-2498.8888888888887,400L-2472.222222222222,400L-2445.5555555555557,400L-2418.888888888889,400L-2392.222222222222,400L-2365.5555555555557,399.99285714285713L-2338.888888888889,399.99285714285713L-2312.222222222222,399.99285714285713L-2285.5555555555557,399.99285714285713L-2258.8888888888887,399.99285714285713L-2232.222222222222,399.99285714285713L-2205.5555555555557,399.99285714285713L-2178.8888888888887,399.99285714285713L-2152.222222222222,399.9857142857143L-2125.5555555555557,399.9857142857143L-2098.8888888888887,399.9857142857143L-2072.222222222222,399.9857142857143L-2045.5555555555557,399.9857142857143L-2018.888888888889,399.9857142857143L-1992.2222222222222,399.97142857142853L-1965.5555555555554,399.9785714285714L-1938.888888888889,399.9785714285714L-1912.2222222222224,399.9785714285714L-1885.5555555555554,399.95L-1858.888888888889,399.95L-1832.2222222222222,399.95L-1805.5555555555557,399.97142857142853L-1778.8888888888887,399.9642857142857L-1752.2222222222222,399.9642857142857L-1725.5555555555557,399.9642857142857L-1698.8888888888887,399.99285714285713L-1672.2222222222222,399.99285714285713L-1645.5555555555557,399.99285714285713L-1618.888888888889,399.99285714285713L-1592.2222222222222,400L-1565.5555555555554,400L-1538.888888888889,400L-1512.2222222222222,399.99285714285713L-1485.5555555555557,399.9857142857143L-1458.888888888889,399.9857142857143L-1432.2222222222222,399.9785714285714L-1405.5555555555554,399.9785714285714L-1378.888888888889,399.9785714285714L-1352.2222222222222,399.9785714285714L-1325.5555555555557,399.9857142857143L-1298.888888888889,399.99285714285713L-1272.2222222222222,399.9857142857143L-1245.5555555555557,399.99285714285713L-1218.888888888889,399.99285714285713L-1192.2222222222222,399.99285714285713L-1165.5555555555554,399.99285714285713L-1138.888888888889,399.99285714285713L-1112.2222222222222,399.9857142857143L-1085.5555555555557,399.99285714285713L-1058.888888888889,399.9857142857143L-1032.2222222222222,399.9785714285714L-1005.5555555555555,399.9785714285714L-978.8888888888889,399.9785714285714L-951.1111111111111,399.9785714285714L-924.4444444444443,399.9857142857143L-897.7777777777778,399.9857142857143L-871.1111111111111,399.9785714285714L-844.4444444444445,399.9785714285714L-817.7777777777777,399.9785714285714L-791.1111111111111,399.9785714285714L-764.4444444444445,399.9785714285714L-737.7777777777778,399.9785714285714L-711.1111111111111,399.9785714285714L-684.4444444444445,399.95L-657.7777777777777,399.9357142857143L-631.1111111111111,399.9357142857143L-604.4444444444445,399.9357142857143L-577.7777777777777,399.9357142857143L-551.1111111111111,399.90714285714284L-524.4444444444445,399.8928571428571L-497.77777777777777,399.90000000000003L-471.11111111111114,399.9142857142857L-444.44444444444446,399.9142857142857L-417.7777777777778,399.9142857142857L-391.1111111111111,399.87857142857143L-364.44444444444446,399.88571428571424L-337.77777777777777,399.88571428571424L-311.11111111111114,399.9214285714286L-284.44444444444446,399.8428571428571L-257.77777777777777,399.8428571428571L-231.1111111111111,399.8428571428571L-204.44444444444443,399.85L-177.77777777777777,399.8571428571429L-151.11111111111111,399.75L-124.44444444444444,399.7357142857143L-97.77777777777777,399.81428571428575L-71.11111111111111,399.81428571428575L-44.44444444444444,399.81428571428575L-17.77777777777778,399.8071428571428L8.88888888888889,399.8071428571428L35.55555555555556,399.9285714285714L62.22222222222222,399.79285714285714L88.88888888888889,399.76428571428573L115.55555555555554,399.76428571428573L142.22222222222223,399.76428571428573L168.88888888888889,399.75714285714287L195.55555555555554,399.75714285714287L222.22222222222223,399.70714285714286L248.88888888888889,399.8428571428571L275.55555555555554,399.87857142857143L302.22222222222223,399.87857142857143L328.88888888888886,399.87857142857143L355.55555555555554,399.9142857142857L382.22222222222223,399.9285714285714L408.88888888888886,399.8642857142857" style="fill: none; stroke: #f58518; stroke-width: 2; opacity: 1;"></path></g></g><path class="foreground" d="" style="display: none; fill: none;"></path></g><g transform="translate(0,0)"><path class="background" d="M0,0h400v400h-400Z" style="fill: none;"></path><g><g class="mark-line role-mark concat_0_layer_1_marks" clip-path="url(#clip6)"><path d="M-7351.11111111111,399.0571428571429L-7324.444444444444,398.87857142857143L-7298.88888888889,398.7142857142857L-7272.222222222223,397.37142857142857L-7245.555555555555,396.12857142857143L-7218.888888888889,395.6071428571429L-7192.222222222222,393.65714285714284L-7165.555555555555,393.26428571428573L-7138.888888888889,392.5357142857143L-7112.222222222222,391.9428571428571L-7085.555555555556,392.40714285714284L-7058.888888888889,393.2L-7032.222222222223,392.54285714285714L-7005.555555555556,393.4428571428572L-6978.888888888889,392.65714285714284L-6952.222222222223,391.68571428571425L-6925.555555555556,390.8L-6898.88888888889,390L-6872.222222222223,389.04285714285714L-6845.555555555555,388.40714285714284L-6818.888888888889,386.85L-6792.222222222222,386.45L-6765.555555555555,386.4357142857143L-6738.888888888889,386.9714285714286L-6712.222222222222,387.3L-6685.555555555556,387.29285714285714L-6658.888888888889,387.3L-6632.222222222223,388.4642857142857L-6605.555555555556,389.0357142857143L-6578.888888888889,389.9785714285714L-6552.222222222223,389.85714285714283L-6525.555555555556,389.67857142857144L-6498.88888888889,391.26428571428573L-6472.222222222223,392.4L-6445.555555555555,393.25714285714287L-6418.888888888889,393.86428571428576L-6392.222222222223,394.0142857142857L-6365.555555555556,394.7285714285714L-6338.888888888889,396.1642857142857L-6312.222222222222,395.3285714285714L-6285.555555555556,395.1071428571429L-6258.888888888889,395.54999999999995L-6232.222222222223,395.5214285714286L-6205.555555555556,396.05L-6178.888888888889,396.05L-6152.222222222223,395.9428571428572L-6125.555555555556,395.72857142857146L-6098.888888888889,396.3928571428571L-6072.222222222222,396.2428571428572L-6045.555555555556,396.6928571428571L-6018.888888888889,396.79285714285714L-5992.222222222223,396.8357142857143L-5965.555555555556,396.65L-5938.888888888889,397.34285714285716L-5912.222222222222,397.5928571428571L-5885.555555555556,397.7142857142857L-5858.888888888889,397.7857142857143L-5832.222222222223,397.7142857142857L-5805.555555555556,397.8214285714286L-5778.888888888889,397.8928571428571L-5752.222222222223,397.95714285714286L-5725.555555555556,397.88571428571424L-5698.888888888889,397.95L-5672.222222222222,397.9285714285714L-5645.555555555556,398.1571428571429L-5618.888888888889,398.37142857142857L-5592.222222222223,398.5571428571429L-5565.555555555556,398.7214285714286L-5538.888888888889,398.84285714285716L-5512.222222222222,398.9357142857143L-5485.555555555556,399.01428571428573L-5458.888888888889,398.9714285714286L-5432.222222222223,399.10714285714283L-5405.555555555556,399.2142857142857L-5378.888888888889,399.24285714285713L-5352.222222222223,399.1928571428571L-5325.555555555556,399.1928571428571L-5298.888888888889,399.2214285714286L-5272.222222222222,399.26428571428573L-5245.555555555556,399.23571428571427L-5218.888888888889,399.1714285714286L-5192.222222222223,399.14285714285717L-5165.555555555556,399.2714285714286L-5138.888888888889,399.3571428571429L-5112.222222222222,399.35L-5085.555555555556,399.37142857142857L-5058.888888888889,399.4142857142857L-5032.222222222223,399.48571428571427L-5005.555555555556,399.45714285714286L-4978.888888888889,399.3357142857143L-4952.222222222223,399.2857142857143L-4925.555555555556,399.3285714285714L-4898.888888888889,399.23571428571427L-4872.222222222222,399.17857142857144L-4845.555555555556,399.1357142857143L-4818.888888888889,399.1642857142857L-4792.222222222223,399.25714285714287L-4765.555555555556,399.3L-4738.888888888889,399.3071428571429L-4712.222222222222,399.40000000000003L-4685.555555555556,399.3857142857143L-4658.888888888889,399.40000000000003L-4632.222222222223,399.3L-4605.555555555556,399.2857142857143L-4578.888888888889,399.24285714285713L-4552.222222222223,399.1857142857143L-4525.555555555556,399.1857142857143L-4498.888888888889,399.25714285714287L-4472.222222222222,399.2L-4445.555555555556,399.31428571428575L-4418.888888888889,399.42857142857144L-4392.222222222223,399.24285714285713L-4365.555555555556,399.25714285714287L-4338.888888888889,399.2142857142857L-4312.222222222222,399.20714285714286L-4285.555555555556,399.23571428571427L-4258.888888888889,399.22857142857146L-4232.222222222223,399.1857142857143L-4205.555555555556,399.3642857142857L-4178.888888888889,399.42857142857144L-4152.222222222223,399.46428571428567L-4125.555555555556,399.4714285714286L-4098.888888888889,399.51428571428573L-4072.222222222222,399.6142857142857L-4045.5555555555557,399.54999999999995L-4018.888888888889,399.62142857142857L-3992.2222222222226,399.63571428571424L-3965.5555555555557,399.63571428571424L-3938.8888888888887,399.65714285714284L-3912.222222222222,399.6142857142857L-3885.5555555555557,399.56428571428575L-3858.8888888888887,399.64285714285717L-3832.222222222222,399.63571428571424L-3805.5555555555557,399.63571428571424L-3778.888888888889,399.6642857142857L-3752.2222222222226,399.64285714285717L-3725.555555555555,399.62857142857143L-3698.8888888888887,399.65714285714284L-3672.222222222222,399.5L-3645.5555555555557,399.5214285714286L-3618.888888888889,399.40714285714284L-3592.2222222222226,399.3642857142857L-3565.5555555555557,399.3L-3538.8888888888887,399.3071428571429L-3512.222222222222,399.1928571428571L-3485.5555555555557,399.12142857142857L-3458.8888888888887,398.9428571428571L-3432.222222222222,398.98571428571427L-3405.5555555555557,398.9214285714286L-3378.888888888889,398.5571428571429L-3352.2222222222226,398.48571428571427L-3325.555555555555,398.3071428571428L-3298.8888888888887,398.1428571428571L-3272.222222222222,397.77857142857147L-3245.5555555555557,397.5285714285714L-3218.888888888889,397.3571428571429L-3192.222222222222,397.5L-3165.5555555555557,397.2214285714286L-3138.888888888889,397.3285714285714L-3112.222222222222,397.26428571428573L-3085.5555555555557,397.45L-3058.8888888888887,397.3857142857143L-3032.222222222222,397.37857142857143L-3005.5555555555557,397.31428571428575L-2978.8888888888887,397.42857142857144L-2952.222222222222,397.29285714285714L-2925.5555555555557,397.5285714285714L-2898.8888888888887,397.37857142857143L-2872.222222222222,397.6142857142857L-2845.5555555555557,397.72857142857146L-2818.888888888889,397.6071428571429L-2792.222222222222,397.54999999999995L-2765.5555555555557,397.5571428571429L-2738.888888888889,397.5357142857143L-2712.222222222222,397.8071428571428L-2685.5555555555557,397.7714285714286L-2658.8888888888887,397.7142857142857L-2632.222222222222,397.23571428571427L-2605.5555555555557,397.0214285714286L-2578.8888888888887,396.2142857142857L-2552.222222222222,395.87142857142857L-2525.5555555555557,395.3642857142857L-2498.8888888888887,395.1071428571429L-2472.222222222222,394.67857142857144L-2445.5555555555557,394.7214285714286L-2418.888888888889,394.62857142857143L-2392.222222222222,394.9142857142857L-2365.5555555555557,394.6642857142857L-2338.888888888889,394.48571428571427L-2312.222222222222,394.40714285714284L-2285.5555555555557,394.5285714285714L-2258.8888888888887,394.60714285714283L-2232.222222222222,394.5L-2205.5555555555557,394.62857142857143L-2178.8888888888887,394.45L-2152.222222222222,394.5285714285714L-2125.5555555555557,394.43571428571425L-2098.8888888888887,394.6928571428571L-2072.222222222222,394.79285714285714L-2045.5555555555557,394.57142857142856L-2018.888888888889,394.43571428571425L-1992.2222222222222,394.5571428571429L-1965.5555555555554,394.45714285714286L-1938.888888888889,394.50714285714287L-1912.2222222222224,394.2785714285714L-1885.5555555555554,394.40714285714284L-1858.888888888889,394.5571428571429L-1832.2222222222222,394.64285714285717L-1805.5555555555557,394.6928571428571L-1778.8888888888887,394.7214285714286L-1752.2222222222222,394.75L-1725.5555555555557,394.5785714285714L-1698.8888888888887,394.1642857142857L-1672.2222222222222,393.79285714285714L-1645.5555555555557,392.95714285714286L-1618.888888888889,392.34285714285716L-1592.2222222222222,392.1142857142857L-1565.5555555555554,392.1142857142857L-1538.888888888889,392.37857142857143L-1512.2222222222222,392.6142857142857L-1485.5555555555557,392.79285714285714L-1458.888888888889,393.2857142857143L-1432.2222222222222,393.45714285714286L-1405.5555555555554,393.6857142857143L-1378.888888888889,393.55L-1352.2222222222222,393.3357142857143L-1325.5555555555557,393.1142857142857L-1298.888888888889,393.00714285714287L-1272.2222222222222,392.7785714285714L-1245.5555555555557,392.1642857142857L-1218.888888888889,391L-1192.2222222222222,390.1428571428571L-1165.5555555555554,389.62857142857143L-1138.888888888889,387.5785714285714L-1112.2222222222222,386.4714285714286L-1085.5555555555557,384.9642857142857L-1058.888888888889,383.3571428571429L-1032.2222222222222,381.92857142857144L-1005.5555555555555,381.5571428571428L-978.8888888888889,380.5285714285714L-951.1111111111111,378.59285714285716L-924.4444444444443,376.5L-897.7777777777778,374.9357142857143L-871.1111111111111,373.82142857142856L-844.4444444444445,373.05L-817.7777777777777,372.0571428571429L-791.1111111111111,370.7357142857143L-764.4444444444445,371.5285714285714L-737.7777777777778,371.9214285714286L-711.1111111111111,371.90714285714284L-684.4444444444445,371.43571428571425L-657.7777777777777,370.84999999999997L-631.1111111111111,370.06428571428575L-604.4444444444445,373.5571428571428L-577.7777777777777,377.79285714285714L-551.1111111111111,369.8071428571429L-524.4444444444445,369.5785714285714L-497.77777777777777,369.90714285714284L-471.11111111111114,370.72857142857146L-444.44444444444446,372.01428571428573L-417.7777777777778,369.0642857142857L-391.1111111111111,366.0785714285714L-364.44444444444446,374.26428571428573L-337.77777777777777,375.0142857142857L-311.11111111111114,376.37857142857143L-284.44444444444446,377.29285714285714L-257.77777777777777,377.18571428571425L-231.1111111111111,378.12142857142857L-204.44444444444443,378.8071428571429L-177.77777777777777,379.4714285714286L-151.11111111111111,380.70714285714286L-124.44444444444444,381.2642857142857L-97.77777777777777,381.37142857142857L-71.11111111111111,381.95L-44.44444444444444,382.17857142857144L-17.77777777777778,381.76428571428573L8.88888888888889,381.62857142857143L35.55555555555556,381.74285714285713L62.22222222222222,381.0571428571428L88.88888888888889,381.15714285714284L115.55555555555554,380.5L142.22222222222223,380.8571428571429L168.88888888888889,381.20714285714286L195.55555555555554,380.79285714285714L222.22222222222223,380.09285714285716L248.88888888888889,380.3357142857143L275.55555555555554,380.22857142857146L302.22222222222223,380.15L328.88888888888886,379.27142857142854L355.55555555555554,378.5571428571429L382.22222222222223,378L408.88888888888886,377.55" style="fill: none; stroke: #4c78a8; stroke-width: 2; opacity: 1;"></path></g></g><path class="foreground" d="" style="display: none; fill: none;"></path></g></g><g class="mark-group role-title"><g transform="translate(200,-54)"><path class="background" d="M0,0h0v0h0Z" style="pointer-events: none; fill: none;"></path><g><g class="mark-text role-title-text" style="pointer-events: none;"><text text-anchor="middle" transform="translate(0,10)" style="font-family: Roboto Condensed; font-size: 13px; font-weight: normal; fill: #000; opacity: 1;"><tspan>7-day average (light color: daily values)</tspan><tspan x="0" dy="15">[2020-12-23]</tspan></text></g></g><path class="foreground" d="" style="pointer-events: none; display: none; fill: none;"></path></g></g></g><path class="foreground" d="" style="display: none; fill: none;"></path></g></g><g class="mark-group role-scope concat_1_group"><g transform="translate(465,0)"><path class="background" d="M0,0h400v400h-400Z" style="fill: none; stroke: #ddd; stroke-width: 0;"></path><g><g class="mark-group role-axis"><g transform="translate(0.5,0.5)"><path class="background" d="M0,0h0v0h0Z" style="pointer-events: none; fill: none;"></path><g><g class="mark-rule role-axis-grid" style="pointer-events: none;"><line transform="translate(0,400)" x2="400" y2="0" style="fill: none; stroke: #ddd; stroke-width: 1; opacity: 1;"></line><line transform="translate(0,360)" x2="400" y2="0" style="fill: none; stroke: #ddd; stroke-width: 1; opacity: 1;"></line><line transform="translate(0,320)" x2="400" y2="0" style="fill: none; stroke: #ddd; stroke-width: 1; opacity: 1;"></line><line transform="translate(0,280)" x2="400" y2="0" style="fill: none; stroke: #ddd; stroke-width: 1; opacity: 1;"></line><line transform="translate(0,240)" x2="400" y2="0" style="fill: none; stroke: #ddd; stroke-width: 1; opacity: 1;"></line><line transform="translate(0,200)" x2="400" y2="0" style="fill: none; stroke: #ddd; stroke-width: 1; opacity: 1;"></line><line transform="translate(0,160)" x2="400" y2="0" style="fill: none; stroke: #ddd; stroke-width: 1; opacity: 1;"></line><line transform="translate(0,120)" x2="400" y2="0" style="fill: none; stroke: #ddd; stroke-width: 1; opacity: 1;"></line><line transform="translate(0,80)" x2="400" y2="0" style="fill: none; stroke: #ddd; stroke-width: 1; opacity: 1;"></line><line transform="translate(0,40)" x2="400" y2="0" style="fill: none; stroke: #ddd; stroke-width: 1; opacity: 1;"></line><line transform="translate(0,0)" x2="400" y2="0" style="fill: none; stroke: #ddd; stroke-width: 1; opacity: 1;"></line></g></g><path class="foreground" d="" style="pointer-events: none; display: none; fill: none;"></path></g></g><g class="mark-group role-axis"><g transform="translate(0.5,400.5)"><path class="background" d="M0,0h0v0h0Z" style="pointer-events: none; fill: none;"></path><g><g class="mark-text role-axis-label" style="pointer-events: none;"><text text-anchor="middle" transform="translate(35.55555555555556,10)" style="font-family: Roboto Condensed; font-size: 10px; fill: #000; opacity: 1;">Dec 09</text><text text-anchor="middle" transform="translate(88.88888888888889,10)" style="font-family: Roboto Condensed; font-size: 10px; fill: #000; opacity: 1;">Dec 11</text><text text-anchor="middle" transform="translate(142.22222222222223,10)" style="font-family: Roboto Condensed; font-size: 10px; fill: #000; opacity: 1;">Dec 13</text><text text-anchor="middle" transform="translate(195.55555555555554,10)" style="font-family: Roboto Condensed; font-size: 10px; fill: #000; opacity: 1;">Dec 15</text><text text-anchor="middle" transform="translate(248.88888888888889,10)" style="font-family: Roboto Condensed; font-size: 10px; fill: #000; opacity: 1;">Dec 17</text><text text-anchor="middle" transform="translate(302.22222222222223,10)" style="font-family: Roboto Condensed; font-size: 10px; fill: #000; opacity: 1;">Dec 19</text><text text-anchor="middle" transform="translate(355.55555555555554,10)" style="font-family: Roboto Condensed; font-size: 10px; fill: #000; opacity: 1;">Dec 21</text></g><g class="mark-rule role-axis-domain" style="pointer-events: none;"><line transform="translate(0,0)" x2="400" y2="0" style="fill: none; stroke: lightgray; stroke-width: 1; opacity: 1;"></line></g><g class="mark-text role-axis-title" style="pointer-events: none;"><text text-anchor="middle" transform="translate(200,25)" style="font-family: Roboto Condensed; font-size: 11px; font-weight: normal; fill: #000; opacity: 1;">Date</text></g></g><path class="foreground" d="" style="pointer-events: none; display: none; fill: none;"></path></g></g><g class="mark-group role-axis"><g transform="translate(0.5,0.5)"><path class="background" d="M0,0h0v0h0Z" style="pointer-events: none; fill: none;"></path><g><g class="mark-text role-axis-label" style="pointer-events: none;"><text text-anchor="end" transform="translate(-2,403)" style="font-family: Roboto Condensed; font-size: 10px; fill: #000; opacity: 1;">0</text><text text-anchor="end" transform="translate(-2,363)" style="font-family: Roboto Condensed; font-size: 10px; fill: #000; opacity: 1;">5,000</text><text text-anchor="end" transform="translate(-2,323)" style="font-family: Roboto Condensed; font-size: 10px; fill: #000; opacity: 1;">10,000</text><text text-anchor="end" transform="translate(-2,283)" style="font-family: Roboto Condensed; font-size: 10px; fill: #000; opacity: 1;">15,000</text><text text-anchor="end" transform="translate(-2,243)" style="font-family: Roboto Condensed; font-size: 10px; fill: #000; opacity: 1;">20,000</text><text text-anchor="end" transform="translate(-2,203)" style="font-family: Roboto Condensed; font-size: 10px; fill: #000; opacity: 1;">25,000</text><text text-anchor="end" transform="translate(-2,163)" style="font-family: Roboto Condensed; font-size: 10px; fill: #000; opacity: 1;">30,000</text><text text-anchor="end" transform="translate(-2,123.00000000000001)" style="font-family: Roboto Condensed; font-size: 10px; fill: #000; opacity: 1;">35,000</text><text text-anchor="end" transform="translate(-2,82.99999999999999)" style="font-family: Roboto Condensed; font-size: 10px; fill: #000; opacity: 1;">40,000</text><text text-anchor="end" transform="translate(-2,42.99999999999999)" style="font-family: Roboto Condensed; font-size: 10px; fill: #000; opacity: 1;">45,000</text><text text-anchor="end" transform="translate(-2,3)" style="font-family: Roboto Condensed; font-size: 10px; fill: #000; opacity: 1;">50,000</text></g><g class="mark-rule role-axis-domain" style="pointer-events: none;"><line transform="translate(0,400)" x2="0" y2="-400" style="fill: none; stroke: lightgray; stroke-width: 1; opacity: 1;"></line></g><g class="mark-text role-axis-title" style="pointer-events: none;"><text text-anchor="start" transform="translate(-45,-13)" style="font-family: Roboto Condensed; font-size: 11px; font-weight: normal; fill: #000; opacity: 1;">Count</text></g></g><path class="foreground" d="" style="pointer-events: none; display: none; fill: none;"></path></g></g><g class="mark-group role-scope concat_1_pathgroup"><g transform="translate(0,0)"><path class="background" d="M0,0h400v400h-400Z" style="fill: none;"></path><g><g class="mark-line role-mark concat_1_marks" clip-path="url(#clip7)"><path d="M-7511.111111111111,400L-7484.444444444445,400L-7457.777777777778,400L-7431.111111111111,400L-7404.444444444445,400L-7377.777777777777,400L-7351.11111111111,400L-7324.444444444444,400L-7298.88888888889,399.992L-7272.222222222223,399.992L-7245.555555555555,399.992L-7218.888888888889,399.992L-7192.222222222222,399.992L-7165.555555555555,399.992L-7138.888888888889,399.992L-7112.222222222222,399.992L-7085.555555555556,399.992L-7058.888888888889,399.992L-7032.222222222223,399.992L-7005.555555555556,399.992L-6978.888888888889,399.992L-6952.222222222223,399.992L-6925.555555555556,399.992L-6898.88888888889,399.952L-6872.222222222223,399.952L-6845.555555555555,399.952L-6818.888888888889,399.952L-6792.222222222222,399.94399999999996L-6765.555555555555,399.94399999999996L-6738.888888888889,399.904L-6712.222222222222,399.89599999999996L-6685.555555555556,399.89599999999996L-6658.888888888889,399.744L-6632.222222222223,399.744L-6605.555555555556,399.744L-6578.888888888889,399.744L-6552.222222222223,399.744L-6525.555555555556,399.744L-6498.88888888889,399.744L-6472.222222222223,399.744L-6445.555555555555,399.744L-6418.888888888889,399.744L-6392.222222222223,399.744L-6365.555555555556,399.744L-6338.888888888889,399.744L-6312.222222222222,399.744L-6285.555555555556,399.744L-6258.888888888889,399.744L-6232.222222222223,399.744L-6205.555555555556,399.744L-6178.888888888889,399.744L-6152.222222222223,399.744L-6125.555555555556,399.744L-6098.888888888889,399.744L-6072.222222222222,399.744L-6045.555555555556,399.744L-6018.888888888889,399.744L-5992.222222222223,399.744L-5965.555555555556,399.744L-5938.888888888889,399.744L-5912.222222222222,399.744L-5885.555555555556,399.744L-5858.888888888889,399.744L-5832.222222222223,399.744L-5805.555555555556,399.744L-5778.888888888889,399.744L-5752.222222222223,399.744L-5725.555555555556,399.744L-5698.888888888889,399.744L-5672.222222222222,399.744L-5645.555555555556,399.744L-5618.888888888889,399.744L-5592.222222222223,399.744L-5565.555555555556,399.744L-5538.888888888889,399.744L-5512.222222222222,399.744L-5485.555555555556,399.744L-5458.888888888889,399.744L-5432.222222222223,399.744L-5405.555555555556,399.744L-5378.888888888889,399.744L-5352.222222222223,399.744L-5325.555555555556,338.18399999999997L-5298.888888888889,338.18399999999997L-5272.222222222222,338.18399999999997L-5245.555555555556,338.18399999999997L-5218.888888888889,338.18399999999997L-5192.222222222223,338.18399999999997L-5165.555555555556,338.18399999999997L-5138.888888888889,338.18399999999997L-5112.222222222222,338.18399999999997L-5085.555555555556,338.18399999999997L-5058.888888888889,338.18399999999997L-5032.222222222223,338.18399999999997L-5005.555555555556,338.18399999999997L-4978.888888888889,334.896L-4952.222222222223,334.896L-4925.555555555556,334.896L-4898.888888888889,334.896L-4872.222222222222,334.896L-4845.555555555556,334.896L-4818.888888888889,334.896L-4792.222222222223,334.896L-4765.555555555556,334.896L-4738.888888888889,334.896L-4712.222222222222,334.896L-4685.555555555556,334.896L-4658.888888888889,334.896L-4632.222222222223,334.896L-4605.555555555556,334.896L-4578.888888888889,334.896L-4552.222222222223,334.896L-4525.555555555556,334.896L-4498.888888888889,334.896L-4472.222222222222,334.896L-4445.555555555556,334.896L-4418.888888888889,334.896L-4392.222222222223,334.896L-4365.555555555556,334.896L-4338.888888888889,334.896L-4312.222222222222,334.896L-4285.555555555556,334.896L-4258.888888888889,334.896L-4232.222222222223,334.896L-4205.555555555556,334.896L-4178.888888888889,334.896L-4152.222222222223,334.896L-4125.555555555556,334.896L-4098.888888888889,334.896L-4072.222222222222,334.896L-4045.5555555555557,334.896L-4018.888888888889,334.896L-3992.2222222222226,334.896L-3965.5555555555557,334.896L-3938.8888888888887,334.896L-3912.222222222222,334.896L-3885.5555555555557,334.896L-3858.8888888888887,334.896L-3832.222222222222,334.896L-3805.5555555555557,334.896L-3778.888888888889,334.896L-3752.2222222222226,334.896L-3725.555555555555,334.896L-3698.8888888888887,334.896L-3672.222222222222,330.608L-3645.5555555555557,330.608L-3618.888888888889,330.608L-3592.2222222222226,329.98400000000004L-3565.5555555555557,329.98400000000004L-3538.8888888888887,329.98400000000004L-3512.222222222222,329.98400000000004L-3485.5555555555557,329.98400000000004L-3458.8888888888887,329.98400000000004L-3432.222222222222,329.98400000000004L-3405.5555555555557,329.98400000000004L-3378.888888888889,329.98400000000004L-3352.2222222222226,329.98400000000004L-3325.555555555555,329.98400000000004L-3298.8888888888887,329.144L-3272.222222222222,329.144L-3245.5555555555557,329.144L-3218.888888888889,329.144L-3192.222222222222,329.144L-3165.5555555555557,329.144L-3138.888888888889,329.144L-3112.222222222222,329.144L-3085.5555555555557,329.144L-3058.8888888888887,329.144L-3032.222222222222,329.144L-3005.5555555555557,329.144L-2978.8888888888887,329.144L-2952.222222222222,329.144L-2925.5555555555557,326.79999999999995L-2898.8888888888887,326.79999999999995L-2872.222222222222,326.79999999999995L-2845.5555555555557,326.79999999999995L-2818.888888888889,326.79999999999995L-2792.222222222222,326.79999999999995L-2765.5555555555557,326.79999999999995L-2738.888888888889,325.216L-2712.222222222222,325.216L-2685.5555555555557,325.216L-2658.8888888888887,325.216L-2632.222222222222,325.216L-2605.5555555555557,325.216L-2578.8888888888887,325.216L-2552.222222222222,325.216L-2525.5555555555557,325.216L-2498.8888888888887,325.216L-2472.222222222222,325.216L-2445.5555555555557,325.216L-2418.888888888889,325.216L-2392.222222222222,325.216L-2365.5555555555557,325.216L-2338.888888888889,317.03200000000004L-2312.222222222222,317.03200000000004L-2285.5555555555557,317.03200000000004L-2258.8888888888887,317.03200000000004L-2232.222222222222,317.03200000000004L-2205.5555555555557,317.03200000000004L-2178.8888888888887,317.03200000000004L-2152.222222222222,317.03200000000004L-2125.5555555555557,317.03200000000004L-2098.8888888888887,317.03200000000004L-2072.222222222222,317.03200000000004L-2045.5555555555557,317.03200000000004L-2018.888888888889,317.03200000000004L-1992.2222222222222,317.03200000000004L-1965.5555555555554,317.03200000000004L-1938.888888888889,310.48L-1912.2222222222224,310.48L-1885.5555555555554,310.48L-1858.888888888889,310.48L-1832.2222222222222,310.48L-1805.5555555555557,310.48L-1778.8888888888887,310.48L-1752.2222222222222,310.48L-1725.5555555555557,310.48L-1698.8888888888887,310.48L-1672.2222222222222,310.48L-1645.5555555555557,305.096L-1618.888888888889,305.096L-1592.2222222222222,305.096L-1565.5555555555554,305.096L-1538.888888888889,305.096L-1512.2222222222222,305.096L-1485.5555555555557,305.096L-1458.888888888889,305.096L-1432.2222222222222,305.096L-1405.5555555555554,305.096L-1378.888888888889,305.096L-1352.2222222222222,305.096L-1325.5555555555557,305.096L-1298.888888888889,305.096L-1272.2222222222222,305.096L-1245.5555555555557,305.096L-1218.888888888889,305.096L-1192.2222222222222,305.096L-1165.5555555555554,305.096L-1138.888888888889,305.096L-1112.2222222222222,305.096L-1085.5555555555557,305.096L-1058.888888888889,305.096L-1032.2222222222222,305.096L-1005.5555555555555,305.096L-978.8888888888889,305.096L-951.1111111111111,305.096L-924.4444444444443,305.096L-897.7777777777778,305.096L-871.1111111111111,305.096L-844.4444444444445,305.096L-817.7777777777777,305.096L-791.1111111111111,305.096L-764.4444444444445,305.096L-737.7777777777778,305.096L-711.1111111111111,305.096L-684.4444444444445,305.096L-657.7777777777777,305.096L-631.1111111111111,305.096L-604.4444444444445,305.096L-577.7777777777777,256.01599999999996L-551.1111111111111,256.01599999999996L-524.4444444444445,256.01599999999996L-497.77777777777777,256.01599999999996L-471.11111111111114,256.01599999999996L-444.44444444444446,256.01599999999996L-417.7777777777778,256.01599999999996L-391.1111111111111,256.01599999999996L-364.44444444444446,256.01599999999996L-337.77777777777777,256.01599999999996L-311.11111111111114,256.01599999999996L-284.44444444444446,256.01599999999996L-257.77777777777777,256.01599999999996L-231.1111111111111,256.01599999999996L-204.44444444444443,256.01599999999996L-177.77777777777777,256.01599999999996L-151.11111111111111,256.01599999999996L-124.44444444444444,256.01599999999996L-97.77777777777777,256.01599999999996L-71.11111111111111,256.01599999999996L-44.44444444444444,256.01599999999996L-17.77777777777778,256.01599999999996L8.88888888888889,256.01599999999996L35.55555555555556,256.01599999999996L62.22222222222222,256.01599999999996L88.88888888888889,256.01599999999996L115.55555555555554,256.01599999999996L142.22222222222223,256.01599999999996L168.88888888888889,256.01599999999996L195.55555555555554,256.01599999999996L222.22222222222223,256.01599999999996L248.88888888888889,256.01599999999996L275.55555555555554,256.01599999999996L302.22222222222223,256.01599999999996L328.88888888888886,256.01599999999996L355.55555555555554,256.01599999999996L382.22222222222223,256.01599999999996L408.88888888888886,256.01599999999996" style="fill: none; stroke: #e45756; stroke-width: 2; opacity: 0.7;"></path></g></g><path class="foreground" d="" style="display: none; fill: none;"></path></g><g transform="translate(0,0)"><path class="background" d="M0,0h400v400h-400Z" style="fill: none;"></path><g><g class="mark-line role-mark concat_1_marks" clip-path="url(#clip8)"><path d="M-7511.111111111111,400L-7484.444444444445,400L-7457.777777777778,400L-7431.111111111111,400L-7404.444444444445,400L-7377.777777777777,400L-7351.11111111111,400L-7324.444444444444,400L-7298.88888888889,400L-7272.222222222223,400L-7245.555555555555,400L-7218.888888888889,400L-7192.222222222222,400L-7165.555555555555,399.976L-7138.888888888889,399.976L-7112.222222222222,399.976L-7085.555555555556,399.976L-7058.888888888889,399.952L-7032.222222222223,399.94399999999996L-7005.555555555556,399.94399999999996L-6978.888888888889,399.94399999999996L-6952.222222222223,399.94399999999996L-6925.555555555556,399.92L-6898.88888888889,399.904L-6872.222222222223,399.88800000000003L-6845.555555555555,399.88800000000003L-6818.888888888889,399.84799999999996L-6792.222222222222,399.816L-6765.555555555555,399.8L-6738.888888888889,399.744L-6712.222222222222,399.688L-6685.555555555556,399.648L-6658.888888888889,399.6L-6632.222222222223,399.528L-6605.555555555556,399.504L-6578.888888888889,399.432L-6552.222222222223,399.392L-6525.555555555556,399.288L-6498.88888888889,399.192L-6472.222222222223,399.13599999999997L-6445.555555555555,399.096L-6418.888888888889,399.048L-6392.222222222223,398.976L-6365.555555555556,398.928L-6338.888888888889,398.888L-6312.222222222222,398.8L-6285.555555555556,398.784L-6258.888888888889,398.712L-6232.222222222223,398.68800000000005L-6205.555555555556,398.68L-6178.888888888889,398.552L-6152.222222222223,398.544L-6125.555555555556,398.504L-6098.888888888889,398.448L-6072.222222222222,398.408L-6045.555555555556,398.392L-6018.888888888889,398.392L-5992.222222222223,398.36L-5965.555555555556,398.352L-5938.888888888889,398.344L-5912.222222222222,398.32L-5885.555555555556,398.32L-5858.888888888889,398.312L-5832.222222222223,398.312L-5805.555555555556,398.288L-5778.888888888889,398.28000000000003L-5752.222222222223,398.272L-5725.555555555556,398.264L-5698.888888888889,398.256L-5672.222222222222,398.248L-5645.555555555556,398.248L-5618.888888888889,398.20799999999997L-5592.222222222223,398.176L-5565.555555555556,398.168L-5538.888888888889,398.144L-5512.222222222222,398.144L-5485.555555555556,398.144L-5458.888888888889,398.144L-5432.222222222223,398.136L-5405.555555555556,398.136L-5378.888888888889,398.128L-5352.222222222223,398.12L-5325.555555555556,398.12L-5298.888888888889,398.12L-5272.222222222222,398.12L-5245.555555555556,398.12L-5218.888888888889,398.12L-5192.222222222223,398.12L-5165.555555555556,398.112L-5138.888888888889,398.112L-5112.222222222222,398.112L-5085.555555555556,398.112L-5058.888888888889,398.112L-5032.222222222223,398.10400000000004L-5005.555555555556,398.10400000000004L-4978.888888888889,398.096L-4952.222222222223,398.096L-4925.555555555556,398.096L-4898.888888888889,398.096L-4872.222222222222,398.088L-4845.555555555556,398.088L-4818.888888888889,398.088L-4792.222222222223,398.064L-4765.555555555556,398.064L-4738.888888888889,398.064L-4712.222222222222,398.064L-4685.555555555556,398.064L-4658.888888888889,398.064L-4632.222222222223,398.056L-4605.555555555556,398.048L-4578.888888888889,398.048L-4552.222222222223,398.048L-4525.555555555556,398.048L-4498.888888888889,398.016L-4472.222222222222,398.016L-4445.555555555556,398.008L-4418.888888888889,398.008L-4392.222222222223,398.008L-4365.555555555556,398.008L-4338.888888888889,398.008L-4312.222222222222,398.008L-4285.555555555556,398L-4258.888888888889,397.99199999999996L-4232.222222222223,397.99199999999996L-4205.555555555556,397.99199999999996L-4178.888888888889,397.99199999999996L-4152.222222222223,397.99199999999996L-4125.555555555556,397.99199999999996L-4098.888888888889,397.99199999999996L-4072.222222222222,397.99199999999996L-4045.5555555555557,397.984L-4018.888888888889,397.984L-3992.2222222222226,397.984L-3965.5555555555557,397.984L-3938.8888888888887,397.976L-3912.222222222222,397.976L-3885.5555555555557,397.976L-3858.8888888888887,397.968L-3832.222222222222,397.96L-3805.5555555555557,397.96L-3778.888888888889,397.96L-3752.2222222222226,397.96L-3725.555555555555,397.96L-3698.8888888888887,397.96L-3672.222222222222,397.96L-3645.5555555555557,397.96L-3618.888888888889,397.96L-3592.2222222222226,397.96L-3565.5555555555557,397.96L-3538.8888888888887,397.96L-3512.222222222222,397.96L-3485.5555555555557,397.96L-3458.8888888888887,397.96L-3432.222222222222,397.96L-3405.5555555555557,397.96L-3378.888888888889,397.952L-3352.2222222222226,397.952L-3325.555555555555,397.952L-3298.8888888888887,397.952L-3272.222222222222,397.952L-3245.5555555555557,397.952L-3218.888888888889,397.952L-3192.222222222222,397.952L-3165.5555555555557,397.952L-3138.888888888889,397.952L-3112.222222222222,397.94399999999996L-3085.5555555555557,397.912L-3058.8888888888887,397.912L-3032.222222222222,397.912L-3005.5555555555557,397.912L-2978.8888888888887,397.904L-2952.222222222222,397.904L-2925.5555555555557,397.88800000000003L-2898.8888888888887,397.88800000000003L-2872.222222222222,397.88800000000003L-2845.5555555555557,397.88800000000003L-2818.888888888889,397.88800000000003L-2792.222222222222,397.88800000000003L-2765.5555555555557,397.88800000000003L-2738.888888888889,397.88800000000003L-2712.222222222222,397.88800000000003L-2685.5555555555557,397.88800000000003L-2658.8888888888887,397.88800000000003L-2632.222222222222,397.88800000000003L-2605.5555555555557,397.88800000000003L-2578.8888888888887,397.88800000000003L-2552.222222222222,397.88800000000003L-2525.5555555555557,397.88800000000003L-2498.8888888888887,397.88800000000003L-2472.222222222222,397.88800000000003L-2445.5555555555557,397.88800000000003L-2418.888888888889,397.88800000000003L-2392.222222222222,397.88800000000003L-2365.5555555555557,397.88L-2338.888888888889,397.88L-2312.222222222222,397.88L-2285.5555555555557,397.88L-2258.8888888888887,397.88L-2232.222222222222,397.88L-2205.5555555555557,397.88L-2178.8888888888887,397.872L-2152.222222222222,397.864L-2125.5555555555557,397.864L-2098.8888888888887,397.864L-2072.222222222222,397.864L-2045.5555555555557,397.864L-2018.888888888889,397.864L-1992.2222222222222,397.84000000000003L-1965.5555555555554,397.84000000000003L-1938.888888888889,397.84000000000003L-1912.2222222222224,397.84000000000003L-1885.5555555555554,397.808L-1858.888888888889,397.808L-1832.2222222222222,397.808L-1805.5555555555557,397.808L-1778.8888888888887,397.8L-1752.2222222222222,397.8L-1725.5555555555557,397.8L-1698.8888888888887,397.8L-1672.2222222222222,397.8L-1645.5555555555557,397.8L-1618.888888888889,397.8L-1592.2222222222222,397.8L-1565.5555555555554,397.8L-1538.888888888889,397.8L-1512.2222222222222,397.79200000000003L-1485.5555555555557,397.784L-1458.888888888889,397.784L-1432.2222222222222,397.776L-1405.5555555555554,397.776L-1378.888888888889,397.776L-1352.2222222222222,397.776L-1325.5555555555557,397.776L-1298.888888888889,397.776L-1272.2222222222222,397.768L-1245.5555555555557,397.768L-1218.888888888889,397.768L-1192.2222222222222,397.768L-1165.5555555555554,397.768L-1138.888888888889,397.768L-1112.2222222222222,397.76L-1085.5555555555557,397.76L-1058.888888888889,397.752L-1032.2222222222222,397.744L-1005.5555555555555,397.744L-978.8888888888889,397.744L-951.1111111111111,397.744L-924.4444444444443,397.744L-897.7777777777778,397.744L-871.1111111111111,397.728L-844.4444444444445,397.71999999999997L-817.7777777777777,397.71999999999997L-791.1111111111111,397.71999999999997L-764.4444444444445,397.71999999999997L-737.7777777777778,397.71999999999997L-711.1111111111111,397.71999999999997L-684.4444444444445,397.67199999999997L-657.7777777777777,397.648L-631.1111111111111,397.648L-604.4444444444445,397.648L-577.7777777777777,397.648L-551.1111111111111,397.616L-524.4444444444445,397.6L-497.77777777777777,397.56L-471.11111111111114,397.552L-444.44444444444446,397.552L-417.7777777777778,397.552L-391.1111111111111,397.512L-364.44444444444446,397.488L-337.77777777777777,397.472L-311.11111111111114,397.472L-284.44444444444446,397.376L-257.77777777777777,397.376L-231.1111111111111,397.376L-204.44444444444443,397.344L-177.77777777777777,397.328L-151.11111111111111,397.192L-124.44444444444444,397.17600000000004L-97.77777777777777,397.168L-71.11111111111111,397.168L-44.44444444444444,397.168L-17.77777777777778,397.12800000000004L8.88888888888889,397.112L35.55555555555556,397.112L62.22222222222222,396.944L88.88888888888889,396.904L115.55555555555554,396.904L142.22222222222223,396.904L168.88888888888889,396.856L195.55555555555554,396.84L222.22222222222223,396.784L248.88888888888889,396.76800000000003L275.55555555555554,396.76800000000003L302.22222222222223,396.76800000000003L328.88888888888886,396.76800000000003L355.55555555555554,396.76L382.22222222222223,396.76L408.88888888888886,396.632" style="fill: none; stroke: #f58518; stroke-width: 2; opacity: 0.7;"></path></g></g><path class="foreground" d="" style="display: none; fill: none;"></path></g><g transform="translate(0,0)"><path class="background" d="M0,0h400v400h-400Z" style="fill: none;"></path><g><g class="mark-line role-mark concat_1_marks" clip-path="url(#clip9)"><path d="M-7511.111111111111,399.84799999999996L-7484.444444444445,399.8L-7457.777777777778,399.744L-7431.111111111111,399.552L-7404.444444444445,399.30400000000003L-7377.777777777777,399.13599999999997L-7351.11111111111,398.82399999999996L-7324.444444444444,398.592L-7298.88888888889,398.36L-7272.222222222223,396.8L-7245.555555555555,395.216L-7218.888888888889,394.38399999999996L-7192.222222222222,392.032L-7165.555555555555,391.28L-7138.888888888889,390.232L-7112.222222222222,389.336L-7085.555555555556,388.296L-7058.888888888889,387.59999999999997L-7032.222222222223,386.03200000000004L-7005.555555555556,384.688L-6978.888888888889,383.05600000000004L-6952.222222222223,380.92L-6925.555555555556,379.032L-6898.88888888889,377.096L-6872.222222222223,375.32800000000003L-6845.555555555555,373.048L-6818.888888888889,369.96000000000004L-6792.222222222222,367.88L-6765.555555555555,365.728L-6738.888888888889,364.44L-6712.222222222222,362.872L-6685.555555555556,361.096L-6658.888888888889,358.824L-6632.222222222223,357.04L-6605.555555555556,355.6L-6578.888888888889,354.504L-6552.222222222223,353.08000000000004L-6525.555555555556,351.31199999999995L-6498.88888888889,351.31199999999995L-6472.222222222223,350.312L-6445.555555555555,349.488L-6418.888888888889,348.728L-6392.222222222223,347.79999999999995L-6365.555555555556,347.176L-6338.888888888889,347.01599999999996L-6312.222222222222,346.08L-6285.555555555556,344.832L-6258.888888888889,344.504L-6232.222222222223,343.712L-6205.555555555556,343.376L-6178.888888888889,342.752L-6152.222222222223,342.472L-6125.555555555556,341.296L-6098.888888888889,340.792L-6072.222222222222,340.29600000000005L-6045.555555555556,340.008L-6018.888888888889,339.784L-5992.222222222223,339.20799999999997L-5965.555555555556,338.72L-5938.888888888889,338.32L-5912.222222222222,338.096L-5885.555555555556,337.736L-5858.888888888889,337.528L-5832.222222222223,337.224L-5805.555555555556,336.76800000000003L-5778.888888888889,336.36L-5752.222222222223,336.032L-5725.555555555556,335.728L-5698.888888888889,335.44L-5672.222222222222,335.20799999999997L-5645.555555555556,335.15999999999997L-5618.888888888889,334.944L-5592.222222222223,334.74399999999997L-5565.555555555556,334.6L-5538.888888888889,334.43199999999996L-5512.222222222222,334.248L-5485.555555555556,334.104L-5458.888888888889,334.008L-5432.222222222223,333.94399999999996L-5405.555555555556,333.864L-5378.888888888889,333.752L-5352.222222222223,333.528L-5325.555555555556,333.344L-5298.888888888889,333.232L-5272.222222222222,333.184L-5245.555555555556,333.088L-5218.888888888889,332.936L-5192.222222222223,332.792L-5165.555555555556,332.712L-5138.888888888889,332.62399999999997L-5112.222222222222,332.504L-5085.555555555556,332.47999999999996L-5058.888888888889,332.432L-5032.222222222223,332.36L-5005.555555555556,332.18399999999997L-4978.888888888889,331.968L-4952.222222222223,331.824L-4925.555555555556,331.752L-4898.888888888889,331.624L-4872.222222222222,331.512L-4845.555555555556,331.392L-4818.888888888889,331.248L-4792.222222222223,331.136L-4765.555555555556,331.04L-4738.888888888889,330.976L-4712.222222222222,330.952L-4685.555555555556,330.824L-4658.888888888889,330.71999999999997L-4632.222222222223,330.464L-4605.555555555556,330.336L-4578.888888888889,330.192L-4552.222222222223,330.064L-4525.555555555556,330.03999999999996L-4498.888888888889,329.992L-4472.222222222222,329.82399999999996L-4445.555555555556,329.69599999999997L-4418.888888888889,329.69599999999997L-4392.222222222223,329.344L-4365.555555555556,329.232L-4338.888888888889,329.15999999999997L-4312.222222222222,329.104L-4285.555555555556,328.968L-4258.888888888889,328.832L-4232.222222222223,328.784L-4205.555555555556,328.632L-4178.888888888889,328.592L-4152.222222222223,328.56L-4125.555555555556,328.512L-4098.888888888889,328.424L-4072.222222222222,328.4L-4045.5555555555557,328.28L-4018.888888888889,328.208L-3992.2222222222226,328.18399999999997L-3965.5555555555557,328.152L-3938.8888888888887,328.128L-3912.222222222222,327.99199999999996L-3885.5555555555557,327.912L-3858.8888888888887,327.88L-3832.222222222222,327.8L-3805.5555555555557,327.77599999999995L-3778.888888888889,327.77599999999995L-3752.2222222222226,327.728L-3725.555555555555,327.576L-3698.8888888888887,327.528L-3672.222222222222,327.32L-3645.5555555555557,327.264L-3618.888888888889,327.11199999999997L-3592.2222222222226,327.064L-3565.5555555555557,326.944L-3538.8888888888887,326.79999999999995L-3512.222222222222,326.62399999999997L-3485.5555555555557,326.336L-3458.8888888888887,326.08000000000004L-3432.222222222222,325.976L-3405.5555555555557,325.856L-3378.888888888889,325.32800000000003L-3352.2222222222226,325.10400000000004L-3325.555555555555,324.728L-3298.8888888888887,324.25600000000003L-3272.222222222222,323.592L-3245.5555555555557,323.20799999999997L-3218.888888888889,322.89599999999996L-3192.222222222222,322.528L-3165.5555555555557,321.992L-3138.888888888889,321.73600000000005L-3112.222222222222,321.192L-3085.5555555555557,320.736L-3058.8888888888887,320.28L-3032.222222222222,319.96000000000004L-3005.5555555555557,319.52L-2978.8888888888887,319.11199999999997L-2952.222222222222,318.704L-2925.5555555555557,318.424L-2898.8888888888887,317.8L-2872.222222222222,317.608L-2845.5555555555557,317.416L-2818.888888888889,316.84000000000003L-2792.222222222222,316.36800000000005L-2765.5555555555557,315.96799999999996L-2738.888888888889,315.664L-2712.222222222222,315.344L-2685.5555555555557,315.112L-2658.8888888888887,314.856L-2632.222222222222,313.74399999999997L-2605.5555555555557,313.03200000000004L-2578.8888888888887,311.728L-2552.222222222222,311.04L-2525.5555555555557,310.152L-2498.8888888888887,309.632L-2472.222222222222,308.896L-2445.5555555555557,307.832L-2418.888888888889,307.016L-2392.222222222222,306.032L-2365.5555555555557,305.064L-2338.888888888889,303.976L-2312.222222222222,303.368L-2285.5555555555557,302.76800000000003L-2258.8888888888887,301.79200000000003L-2232.222222222222,300.856L-2205.5555555555557,300.016L-2178.8888888888887,298.848L-2152.222222222222,297.848L-2125.5555555555557,297.13599999999997L-2098.8888888888887,296.82399999999996L-2072.222222222222,295.96L-2045.5555555555557,294.77599999999995L-2018.888888888889,293.784L-1992.2222222222222,292.752L-1965.5555555555554,291.64000000000004L-1938.888888888889,290.984L-1912.2222222222224,290.416L-1885.5555555555554,289.696L-1858.888888888889,288.68L-1832.2222222222222,287.784L-1805.5555555555557,286.808L-1778.8888888888887,285.728L-1752.2222222222222,285.10400000000004L-1725.5555555555557,284.344L-1698.8888888888887,283.15999999999997L-1672.2222222222222,281.728L-1645.5555555555557,279.896L-1618.888888888889,278.23199999999997L-1592.2222222222222,276.89599999999996L-1565.5555555555554,276.272L-1538.888888888889,275.808L-1512.2222222222222,274.888L-1485.5555555555557,273.656L-1458.888888888889,272.376L-1432.2222222222222,270.904L-1405.5555555555554,269.824L-1378.888888888889,269.048L-1352.2222222222222,268.344L-1325.5555555555557,267.176L-1298.888888888889,265.824L-1272.2222222222222,264.288L-1245.5555555555557,262.128L-1218.888888888889,259.74399999999997L-1192.2222222222222,258.008L-1165.5555555555554,256.728L-1138.888888888889,253.26399999999998L-1112.2222222222222,250.672L-1085.5555555555557,247.44799999999998L-1058.888888888889,243.48799999999997L-1032.2222222222222,239.504L-1005.5555555555555,237.352L-978.8888888888889,234.91999999999996L-951.1111111111111,229.288L-924.4444444444443,224.35200000000003L-897.7777777777778,219.376L-871.1111111111111,214.168L-844.4444444444445,209.32L-817.7777777777777,206.05599999999998L-791.1111111111111,202.144L-764.4444444444445,197.40000000000003L-737.7777777777778,192.904L-711.1111111111111,187.91199999999998L-684.4444444444445,182.176L-657.7777777777777,176.672L-631.1111111111111,172.52800000000002L-604.4444444444445,172.52800000000002L-577.7777777777777,172.52800000000002L-551.1111111111111,159.088L-524.4444444444445,153.84000000000003L-497.77777777777777,148.47199999999998L-471.11111111111114,143.888L-444.44444444444446,141.18400000000003L-417.7777777777778,137.88L-391.1111111111111,134.536L-364.44444444444446,130.26399999999998L-337.77777777777777,125.85600000000001L-311.11111111111114,122.01599999999999L-284.44444444444446,118.45599999999999L-257.77777777777777,115.632L-231.1111111111111,113.376L-204.44444444444443,110.80000000000001L-177.77777777777777,107.27199999999999L-151.11111111111111,104.24799999999999L-124.44444444444444,101.03200000000001L-97.77777777777777,97.59199999999998L-71.11111111111111,95.416L-44.44444444444444,93.41599999999998L-17.77777777777778,90.376L8.88888888888889,86.69600000000001L35.55555555555556,83.80000000000001L62.22222222222222,79.81600000000002L88.88888888888889,76.48799999999997L115.55555555555554,73.576L142.22222222222223,71.976L168.88888888888889,69.32800000000002L195.55555555555554,65.184L222.22222222222223,61.504000000000005L248.88888888888889,57.79200000000002L275.55555555555554,54.343999999999994L302.22222222222223,51.34400000000001L328.88888888888886,48.760000000000005L355.55555555555554,45.31200000000002L382.22222222222223,40.544000000000004L408.88888888888886,36.35999999999999" style="fill: none; stroke: #4c78a8; stroke-width: 2; opacity: 0.7;"></path></g></g><path class="foreground" d="" style="display: none; fill: none;"></path></g></g><g class="mark-group role-title"><g transform="translate(200,-54)"><path class="background" d="M0,0h0v0h0Z" style="pointer-events: none; fill: none;"></path><g><g class="mark-text role-title-text" style="pointer-events: none;"><text text-anchor="middle" transform="translate(0,10)" style="font-family: Roboto Condensed; font-size: 13px; font-weight: normal; fill: #000; opacity: 1;"><tspan>Total</tspan><tspan x="0" dy="15">[2020-12-23]</tspan></text></g></g><path class="foreground" d="" style="pointer-events: none; display: none; fill: none;"></path></g></g></g><path class="foreground" d="" style="display: none; fill: none;"></path></g></g><g class="mark-group role-legend"><g transform="translate(883,0)"><path class="background" d="M0,0h58v37h-58Z" style="pointer-events: none; fill: none;"></path><g><g class="mark-group role-legend-entry"><g transform="translate(0,0)"><path class="background" d="M0,0h0v0h0Z" style="pointer-events: none; fill: none;"></path><g><g class="mark-group role-scope"><g transform="translate(0,0)"><path class="background" d="M0,0h57.044921875v11h-57.044921875Z" style="pointer-events: none; fill: none; opacity: 1;"></path><g><g class="mark-symbol role-legend-symbol" style="pointer-events: none;"><path transform="translate(6,6)" d="M-5,0L5,0" style="fill: none; stroke: #4c78a8; stroke-width: 1.5; opacity: 0.2;"></path></g><g class="mark-text role-legend-label" style="pointer-events: none;"><text text-anchor="start" transform="translate(16,9)" style="font-family: Roboto Condensed; font-size: 10px; fill: #000; opacity: 1;">Confirmed</text></g></g><path class="foreground" d="" style="pointer-events: none; display: none; fill: none;"></path></g><g transform="translate(0,13)"><path class="background" d="M0,0h57.044921875v11h-57.044921875Z" style="pointer-events: none; fill: none; opacity: 1;"></path><g><g class="mark-symbol role-legend-symbol" style="pointer-events: none;"><path transform="translate(6,6)" d="M-5,0L5,0" style="fill: none; stroke: #f58518; stroke-width: 1.5; opacity: 0.2;"></path></g><g class="mark-text role-legend-label" style="pointer-events: none;"><text text-anchor="start" transform="translate(16,9)" style="font-family: Roboto Condensed; font-size: 10px; fill: #000; opacity: 1;">Deaths</text></g></g><path class="foreground" d="" style="pointer-events: none; display: none; fill: none;"></path></g><g transform="translate(0,26)"><path class="background" d="M0,0h57.044921875v11h-57.044921875Z" style="pointer-events: none; fill: none; opacity: 1;"></path><g><g class="mark-symbol role-legend-symbol" style="pointer-events: none;"><path transform="translate(6,6)" d="M-5,0L5,0" style="fill: none; stroke: #e45756; stroke-width: 1.5; opacity: 0.2;"></path></g><g class="mark-text role-legend-label" style="pointer-events: none;"><text text-anchor="start" transform="translate(16,9)" style="font-family: Roboto Condensed; font-size: 10px; fill: #000; opacity: 1;">Recovered</text></g></g><path class="foreground" d="" style="pointer-events: none; display: none; fill: none;"></path></g></g></g><path class="foreground" d="" style="pointer-events: none; display: none; fill: none;"></path></g></g></g><path class="foreground" d="" style="pointer-events: none; display: none; fill: none;"></path></g></g></g><path class="foreground" d="" style="display: none; fill: none;"></path></g></g></g></svg>