<svg class="marks" width="996" height="491" viewBox="0 0 996 491" version="1.1" xmlns="http://www.w3.org/2000/svg" xmlns:xlink="http://www.w3.org/1999/xlink"><defs><clipPath id="clip1"><rect x="0" y="0" width="400" height="400"></rect></clipPath><clipPath id="clip2"><rect x="0" y="0" width="400" height="400"></rect></clipPath><clipPath id="clip3"><rect x="0" y="0" width="400" height="400"></rect></clipPath><clipPath id="clip4"><rect x="0" y="0" width="400" height="400"></rect></clipPath><clipPath id="clip5"><rect x="0" y="0" width="400" height="400"></rect></clipPath><clipPath id="clip6"><rect x="0" y="0" width="400" height="400"></rect></clipPath><clipPath id="clip7"><rect x="0" y="0" width="400" height="400"></rect></clipPath><clipPath id="clip8"><rect x="0" y="0" width="400" height="400"></rect></clipPath><clipPath id="clip9"><rect x="0" y="0" width="400" height="400"></rect></clipPath></defs><rect width="996" height="491" fill="white"></rect><g fill="none" stroke-miterlimit="10" transform="translate(50,59)"><g class="mark-group role-frame root" role="graphics-object" aria-roledescription="group mark container"><g transform="translate(0,0)"><path class="background" aria-hidden="true" d="M0,0h0v400h0Z"></path><g><g class="mark-group role-scope concat_0_group" role="graphics-object" aria-roledescription="group mark container"><g transform="translate(0,0)"><path class="background" aria-hidden="true" d="M0,0h400v400h-400Z" stroke="#ddd" stroke-width="0"></path><g><g class="mark-group role-axis" aria-hidden="true"><g transform="translate(0.5,0.5)"><path class="background" aria-hidden="true" d="M0,0h0v0h0Z" pointer-events="none"></path><g><g class="mark-rule role-axis-grid" pointer-events="none"><line transform="translate(0,400)" x2="400" y2="0" stroke="#ddd" stroke-width="1" opacity="1"></line><line transform="translate(0,350)" x2="400" y2="0" stroke="#ddd" stroke-width="1" opacity="1"></line><line transform="translate(0,300)" x2="400" y2="0" stroke="#ddd" stroke-width="1" opacity="1"></line><line transform="translate(0,250)" x2="400" y2="0" stroke="#ddd" stroke-width="1" opacity="1"></line><line transform="translate(0,200)" x2="400" y2="0" stroke="#ddd" stroke-width="1" opacity="1"></line><line transform="translate(0,150)" x2="400" y2="0" stroke="#ddd" stroke-width="1" opacity="1"></line><line transform="translate(0,100)" x2="400" y2="0" stroke="#ddd" stroke-width="1" opacity="1"></line><line transform="translate(0,50)" x2="400" y2="0" stroke="#ddd" stroke-width="1" opacity="1"></line><line transform="translate(0,0)" x2="400" y2="0" stroke="#ddd" stroke-width="1" opacity="1"></line></g></g><path class="foreground" aria-hidden="true" d="" pointer-events="none" display="none"></path></g></g><g class="mark-group role-axis" role="graphics-symbol" aria-roledescription="axis" aria-label="X-axis titled 'Date' for a time scale with values from June 05 to June 20"><g transform="translate(0.5,400.5)"><path class="background" aria-hidden="true" d="M0,0h0v0h0Z" pointer-events="none"></path><g><g class="mark-text role-axis-label" pointer-events="none"><text text-anchor="middle" transform="translate(34.44444444444444,10)" font-family="Roboto Condensed" font-size="10px" fill="#000" opacity="1">Jun 07</text><text text-anchor="middle" transform="translate(87.77777777777777,10)" font-family="Roboto Condensed" font-size="10px" fill="#000" opacity="1">Jun 09</text><text text-anchor="middle" transform="translate(141.11111111111111,10)" font-family="Roboto Condensed" font-size="10px" fill="#000" opacity="1">Jun 11</text><text text-anchor="middle" transform="translate(194.44444444444443,10)" font-family="Roboto Condensed" font-size="10px" fill="#000" opacity="1">Jun 13</text><text text-anchor="middle" transform="translate(247.77777777777777,10)" font-family="Roboto Condensed" font-size="10px" fill="#000" opacity="1">Jun 15</text><text text-anchor="middle" transform="translate(301.1111111111111,10)" font-family="Roboto Condensed" font-size="10px" fill="#000" opacity="1">Jun 17</text><text text-anchor="middle" transform="translate(354.44444444444446,10)" font-family="Roboto Condensed" font-size="10px" fill="#000" opacity="1">Jun 19</text></g><g class="mark-rule role-axis-domain" pointer-events="none"><line transform="translate(0,0)" x2="400" y2="0" stroke="lightgray" stroke-width="1" opacity="1"></line></g><g class="mark-text role-axis-title" pointer-events="none"><text text-anchor="middle" transform="translate(200,25)" font-family="Roboto Condensed" font-size="11px" font-weight="normal" fill="#000" opacity="1">Date</text></g></g><path class="foreground" aria-hidden="true" d="" pointer-events="none" display="none"></path></g></g><g class="mark-group role-axis" role="graphics-symbol" aria-roledescription="axis" aria-label="Y-axis titled 'Count' for a linear scale with values from 0 to 8,000"><g transform="translate(0.5,0.5)"><path class="background" aria-hidden="true" d="M0,0h0v0h0Z" pointer-events="none"></path><g><g class="mark-text role-axis-label" pointer-events="none"><text text-anchor="end" transform="translate(-2,403)" font-family="Roboto Condensed" font-size="10px" fill="#000" opacity="1">0</text><text text-anchor="end" transform="translate(-2,353)" font-family="Roboto Condensed" font-size="10px" fill="#000" opacity="1">1,000</text><text text-anchor="end" transform="translate(-2,303)" font-family="Roboto Condensed" font-size="10px" fill="#000" opacity="1">2,000</text><text text-anchor="end" transform="translate(-2,253)" font-family="Roboto Condensed" font-size="10px" fill="#000" opacity="1">3,000</text><text text-anchor="end" transform="translate(-2,203)" font-family="Roboto Condensed" font-size="10px" fill="#000" opacity="1">4,000</text><text text-anchor="end" transform="translate(-2,153)" font-family="Roboto Condensed" font-size="10px" fill="#000" opacity="1">5,000</text><text text-anchor="end" transform="translate(-2,103)" font-family="Roboto Condensed" font-size="10px" fill="#000" opacity="1">6,000</text><text text-anchor="end" transform="translate(-2,53)" font-family="Roboto Condensed" font-size="10px" fill="#000" opacity="1">7,000</text><text text-anchor="end" transform="translate(-2,3)" font-family="Roboto Condensed" font-size="10px" fill="#000" opacity="1">8,000</text></g><g class="mark-rule role-axis-domain" pointer-events="none"><line transform="translate(0,400)" x2="0" y2="-400" stroke="lightgray" stroke-width="1" opacity="1"></line></g><g class="mark-text role-axis-title" pointer-events="none"><text text-anchor="start" transform="translate(-45,-13)" font-family="Roboto Condensed" font-size="11px" font-weight="normal" fill="#000" opacity="1">Count</text></g></g><path class="foreground" aria-hidden="true" d="" pointer-events="none" display="none"></path></g></g><g class="mark-group role-scope concat_0_layer_0_pathgroup" role="graphics-object" aria-roledescription="group mark container"><g transform="translate(0,0)"><path class="background" aria-hidden="true" d="M0,0h400v400h-400Z"></path><g><g class="mark-line role-mark concat_0_layer_0_marks" clip-path="url(#clip1)" role="graphics-object" aria-roledescription="line mark container"><path aria-label="Type: Recovered; Date: Mar 01; Count: 0" role="graphics-symbol" aria-roledescription="line mark" d="M-2577.777777777778,400L-2551.1111111111113,400L-2524.4444444444443,400L-2497.777777777778,400L-2471.1111111111113,400L-2444.4444444444443,400L-2417.777777777778,400L-2391.1111111111113,400L-2365.5555555555557,399.95L-2338.888888888889,400L-2312.222222222222,400L-2285.5555555555557,400L-2258.8888888888887,400L-2232.222222222222,400L-2205.5555555555557,400L-2178.8888888888887,400L-2152.222222222222,400L-2125.5555555555557,400L-2098.8888888888887,400L-2072.222222222222,400L-2045.5555555555557,400L-2018.888888888889,400L-1992.2222222222222,400L-1965.5555555555554,399.75L-1938.888888888889,400L-1912.2222222222224,400L-1885.5555555555554,400L-1858.888888888889,399.95L-1832.2222222222222,400L-1805.5555555555557,399.75L-1778.8888888888887,399.95L-1752.2222222222222,400L-1725.5555555555557,399.05L-1698.8888888888887,400L-1672.2222222222222,400L-1645.5555555555557,400L-1618.888888888889,400L-1592.2222222222222,400L-1565.5555555555554,400L-1538.888888888889,400L-1512.2222222222222,400L-1485.5555555555557,400L-1458.888888888889,400L-1432.2222222222222,400L-1405.5555555555554,400L-1378.888888888889,400L-1352.2222222222222,400L-1325.5555555555557,400L-1298.888888888889,400L-1272.2222222222222,400L-1245.5555555555557,400L-1218.888888888889,400L-1192.2222222222222,400L-1165.5555555555554,400L-1138.888888888889,400L-1112.2222222222222,400L-1085.5555555555557,400L-1058.888888888889,400L-1032.2222222222222,400L-1005.5555555555555,400L-978.8888888888889,400L-952.2222222222222,400L-925.5555555555557,400L-898.8888888888889,400L-872.2222222222222,400L-845.5555555555555,400L-818.8888888888888,400L-792.2222222222223,400L-765.5555555555555,400L-738.8888888888889,400L-712.2222222222222,400L-685.5555555555555,400L-658.8888888888889,400L-632.2222222222222,400L-605.5555555555555,400L-578.8888888888889,400L-552.2222222222222,400L-525.5555555555555,400L-498.8888888888889,400L-472.22222222222223,400L-445.55555555555554,400L-418.8888888888889,400L-392.22222222222223,15.249999999999986L-365.55555555555554,400L-338.88888888888886,400L-312.22222222222223,400L-285.55555555555554,400L-258.8888888888889,400L-232.22222222222223,400L-205.55555555555554,400L-178.88888888888889,400L-152.22222222222223,400L-125.55555555555556,400L-98.88888888888889,400L-72.22222222222221,400L-45.55555555555556,379.45000000000005L-18.88888888888889,400L7.777777777777778,400L34.44444444444444,400L61.111111111111114,400L87.77777777777777,400L114.44444444444444,400L141.11111111111111,400L167.77777777777777,400L194.44444444444443,400L221.11111111111111,400L247.77777777777777,400L274.44444444444446,400L301.1111111111111,400L327.77777777777777,400L354.44444444444446,400L381.1111111111111,400L407.77777777777777,400" stroke="#e45756" stroke-width="2" opacity="0.2"></path></g></g><path class="foreground" aria-hidden="true" d="" display="none"></path></g><g transform="translate(0,0)"><path class="background" aria-hidden="true" d="M0,0h400v400h-400Z"></path><g><g class="mark-line role-mark concat_0_layer_0_marks" clip-path="url(#clip2)" role="graphics-object" aria-roledescription="line mark container"><path aria-label="Type: Deaths; Date: Mar 01; Count: 0" role="graphics-symbol" aria-roledescription="line mark" d="M-2577.777777777778,400L-2551.1111111111113,400L-2524.4444444444443,400L-2497.777777777778,400L-2471.1111111111113,400L-2444.4444444444443,400L-2417.777777777778,400L-2391.1111111111113,400L-2365.5555555555557,400L-2338.888888888889,400L-2312.222222222222,400L-2285.5555555555557,400L-2258.8888888888887,400L-2232.222222222222,399.85L-2205.5555555555557,400L-2178.8888888888887,400L-2152.222222222222,400L-2125.5555555555557,399.85L-2098.8888888888887,399.95L-2072.222222222222,400L-2045.5555555555557,400L-2018.888888888889,400L-1992.2222222222222,399.85L-1965.5555555555554,399.90000000000003L-1938.888888888889,399.90000000000003L-1912.2222222222224,400L-1885.5555555555554,399.75L-1858.888888888889,399.8L-1832.2222222222222,399.90000000000003L-1805.5555555555557,399.65000000000003L-1778.8888888888887,399.65000000000003L-1752.2222222222222,399.75L-1725.5555555555557,399.7L-1698.8888888888887,399.54999999999995L-1672.2222222222222,399.85L-1645.5555555555557,399.54999999999995L-1618.888888888889,399.75L-1592.2222222222222,399.35L-1565.5555555555554,399.40000000000003L-1538.888888888889,399.65000000000003L-1512.2222222222222,399.75L-1485.5555555555557,399.7L-1458.888888888889,399.54999999999995L-1432.2222222222222,399.7L-1405.5555555555554,399.75L-1378.888888888889,399.45L-1352.2222222222222,399.90000000000003L-1325.5555555555557,399.54999999999995L-1298.888888888889,399.85L-1272.2222222222222,399.95L-1245.5555555555557,399.2L-1218.888888888889,399.95L-1192.2222222222222,399.75L-1165.5555555555554,399.65000000000003L-1138.888888888889,399.75L-1112.2222222222222,399.90000000000003L-1085.5555555555557,400L-1058.888888888889,399.8L-1032.2222222222222,399.95L-1005.5555555555555,399.95L-978.8888888888889,399.85L-952.2222222222222,400L-925.5555555555557,399.95L-898.8888888888889,400L-872.2222222222222,399.85L-845.5555555555555,399.95L-818.8888888888888,399.95L-792.2222222222223,399.95L-765.5555555555555,399.95L-738.8888888888889,399.95L-712.2222222222222,400L-685.5555555555555,399.75L-658.8888888888889,399.8L-632.2222222222222,399.95L-605.5555555555555,399.85L-578.8888888888889,400L-552.2222222222222,400L-525.5555555555555,400L-498.8888888888889,399.95L-472.22222222222223,400L-445.55555555555554,399.95L-418.8888888888889,399.95L-392.22222222222223,400L-365.55555555555554,400L-338.88888888888886,400L-312.22222222222223,400L-285.55555555555554,400L-258.8888888888889,400L-232.22222222222223,399.95L-205.55555555555554,400L-178.88888888888889,400L-152.22222222222223,400L-125.55555555555556,400L-98.88888888888889,399.95L-72.22222222222221,400L-45.55555555555556,399.95L-18.88888888888889,400L7.777777777777778,400L34.44444444444444,400L61.111111111111114,399.95L87.77777777777777,400L114.44444444444444,400L141.11111111111111,399.85L167.77777777777777,400L194.44444444444443,400L221.11111111111111,400L247.77777777777777,400L274.44444444444446,400L301.1111111111111,399.95L327.77777777777777,399.95L354.44444444444446,400L381.1111111111111,400L407.77777777777777,400" stroke="#f58518" stroke-width="2" opacity="0.2"></path></g></g><path class="foreground" aria-hidden="true" d="" display="none"></path></g><g transform="translate(0,0)"><path class="background" aria-hidden="true" d="M0,0h400v400h-400Z"></path><g><g class="mark-line role-mark concat_0_layer_0_marks" clip-path="url(#clip3)" role="graphics-object" aria-roledescription="line mark container"><path aria-label="Type: Confirmed; Date: Mar 01; Count: 4" role="graphics-symbol" aria-roledescription="line mark" d="M-2577.777777777778,399.8L-2551.1111111111113,399.7L-2524.4444444444443,399.65000000000003L-2497.777777777778,398.8L-2471.1111111111113,398.45L-2444.4444444444443,398.95L-2417.777777777778,398.05L-2391.1111111111113,398.55L-2365.5555555555557,398.55L-2338.888888888889,390.25L-2312.222222222222,390.09999999999997L-2285.5555555555557,394.8L-2258.8888888888887,385.3L-2232.222222222222,395.3L-2205.5555555555557,393.45L-2178.8888888888887,394.4L-2152.222222222222,393.5L-2125.5555555555557,395.65000000000003L-2098.8888888888887,390.2L-2072.222222222222,391.59999999999997L-2045.5555555555557,389.8L-2018.888888888889,386.65L-1992.2222222222222,388.2L-1965.5555555555554,387.9L-1938.888888888889,388.95L-1912.2222222222224,385.75L-1885.5555555555554,380.7L-1858.888888888889,387L-1832.2222222222222,386.55L-1805.5555555555557,391.95000000000005L-1778.8888888888887,390.2L-1752.2222222222222,388.9L-1725.5555555555557,385.8L-1698.8888888888887,388.85L-1672.2222222222222,391L-1645.5555555555557,393.15L-1618.888888888889,391.1L-1592.2222222222222,388.95L-1565.5555555555554,400L-1538.888888888889,393.75L-1512.2222222222222,394.85L-1485.5555555555557,395.25L-1458.888888888889,394.20000000000005L-1432.2222222222222,396.09999999999997L-1405.5555555555554,399L-1378.888888888889,394.15L-1352.2222222222222,392.2L-1325.5555555555557,397.95L-1298.888888888889,395.05L-1272.2222222222222,397.90000000000003L-1245.5555555555557,396.09999999999997L-1218.888888888889,398.25L-1192.2222222222222,392.65L-1165.5555555555554,396.85L-1138.888888888889,396.9L-1112.2222222222222,398.20000000000005L-1085.5555555555557,398.6L-1058.888888888889,396.4L-1032.2222222222222,396.95L-1005.5555555555555,397.5L-978.8888888888889,398.6L-952.2222222222222,397.75L-925.5555555555557,398.7L-898.8888888888889,398.09999999999997L-872.2222222222222,397.15L-845.5555555555555,397.45L-818.8888888888888,397.95L-792.2222222222223,398.09999999999997L-765.5555555555555,398.20000000000005L-738.8888888888889,398.55L-712.2222222222222,399.7L-685.5555555555555,398.65L-658.8888888888889,398.75L-632.2222222222222,399.1L-605.5555555555555,398.95L-578.8888888888889,398.85L-552.2222222222222,399.1L-525.5555555555555,399.40000000000003L-498.8888888888889,399.6L-472.22222222222223,399.5L-445.55555555555554,399.3L-418.8888888888889,398.6L-392.22222222222223,398.85L-365.55555555555554,399.3L-338.88888888888886,399.7L-312.22222222222223,399.40000000000003L-285.55555555555554,399.05L-258.8888888888889,399.1L-232.22222222222223,399.5L-205.55555555555554,399.45L-178.88888888888889,399.25L-152.22222222222223,399.85L-125.55555555555556,399.7L-98.88888888888889,399.54999999999995L-72.22222222222221,398.9L-45.55555555555556,398.65L-18.88888888888889,399.1L7.777777777777778,399.54999999999995L34.44444444444444,399.2L61.111111111111114,399.3L87.77777777777777,399.25L114.44444444444444,399.1L141.11111111111111,399.3L167.77777777777777,399.40000000000003L194.44444444444443,399.6L221.11111111111111,399.85L247.77777777777777,399.2L274.44444444444446,399.35L301.1111111111111,398.4L327.77777777777777,399.2L354.44444444444446,399.1L381.1111111111111,399.2L407.77777777777777,399.85" stroke="#4c78a8" stroke-width="2" opacity="0.2"></path></g></g><path class="foreground" aria-hidden="true" d="" display="none"></path></g></g><g class="mark-group role-scope concat_0_layer_1_pathgroup" role="graphics-object" aria-roledescription="group mark container"><g transform="translate(0,0)"><path class="background" aria-hidden="true" d="M0,0h400v400h-400Z"></path><g><g class="mark-line role-mark concat_0_layer_1_marks" clip-path="url(#clip4)" role="graphics-object" aria-roledescription="line mark container"><path aria-label="Type: Recovered; Date: Mar 01; Count: 0" role="graphics-symbol" aria-roledescription="line mark" d="M-2417.777777777778,400L-2391.1111111111113,400L-2365.5555555555557,399.99285714285713L-2338.888888888889,399.99285714285713L-2312.222222222222,399.99285714285713L-2285.5555555555557,399.99285714285713L-2258.8888888888887,399.99285714285713L-2232.222222222222,399.99285714285713L-2205.5555555555557,399.99285714285713L-2178.8888888888887,400L-2152.222222222222,400L-2125.5555555555557,400L-2098.8888888888887,400L-2072.222222222222,400L-2045.5555555555557,400L-2018.888888888889,400L-1992.2222222222222,400L-1965.5555555555554,399.9642857142857L-1938.888888888889,399.9642857142857L-1912.2222222222224,399.9642857142857L-1885.5555555555554,399.9642857142857L-1858.888888888889,399.95714285714286L-1832.2222222222222,399.95714285714286L-1805.5555555555557,399.9214285714286L-1778.8888888888887,399.95L-1752.2222222222222,399.95L-1725.5555555555557,399.81428571428575L-1698.8888888888887,399.81428571428575L-1672.2222222222222,399.82142857142856L-1645.5555555555557,399.82142857142856L-1618.888888888889,399.8571428571429L-1592.2222222222222,399.8642857142857L-1565.5555555555554,399.8642857142857L-1538.888888888889,400L-1512.2222222222222,400L-1485.5555555555557,400L-1458.888888888889,400L-1432.2222222222222,400L-1405.5555555555554,400L-1378.888888888889,400L-1352.2222222222222,400L-1325.5555555555557,400L-1298.888888888889,400L-1272.2222222222222,400L-1245.5555555555557,400L-1218.888888888889,400L-1192.2222222222222,400L-1165.5555555555554,400L-1138.888888888889,400L-1112.2222222222222,400L-1085.5555555555557,400L-1058.888888888889,400L-1032.2222222222222,400L-1005.5555555555555,400L-978.8888888888889,400L-952.2222222222222,400L-925.5555555555557,400L-898.8888888888889,400L-872.2222222222222,400L-845.5555555555555,400L-818.8888888888888,400L-792.2222222222223,400L-765.5555555555555,400L-738.8888888888889,400L-712.2222222222222,400L-685.5555555555555,400L-658.8888888888889,400L-632.2222222222222,400L-605.5555555555555,400L-578.8888888888889,400L-552.2222222222222,400L-525.5555555555555,400L-498.8888888888889,400L-472.22222222222223,400L-445.55555555555554,400L-418.8888888888889,400L-392.22222222222223,345.0357142857143L-365.55555555555554,345.0357142857143L-338.88888888888886,345.0357142857143L-312.22222222222223,345.0357142857143L-285.55555555555554,345.0357142857143L-258.8888888888889,345.0357142857143L-232.22222222222223,345.0357142857143L-205.55555555555554,400L-178.88888888888889,400L-152.22222222222223,400L-125.55555555555556,400L-98.88888888888889,400L-72.22222222222221,400L-45.55555555555556,397.06428571428575L-18.88888888888889,397.06428571428575L7.777777777777778,397.06428571428575L34.44444444444444,397.06428571428575L61.111111111111114,397.06428571428575L87.77777777777777,397.06428571428575L114.44444444444444,397.06428571428575L141.11111111111111,400L167.77777777777777,400L194.44444444444443,400L221.11111111111111,400L247.77777777777777,400L274.44444444444446,400L301.1111111111111,400L327.77777777777777,400L354.44444444444446,400L381.1111111111111,400L407.77777777777777,400" stroke="#e45756" stroke-width="2" opacity="1"></path></g></g><path class="foreground" aria-hidden="true" d="" display="none"></path></g><g transform="translate(0,0)"><path class="background" aria-hidden="true" d="M0,0h400v400h-400Z"></path><g><g class="mark-line role-mark concat_0_layer_1_marks" clip-path="url(#clip5)" role="graphics-object" aria-roledescription="line mark container"><path aria-label="Type: Deaths; Date: Mar 01; Count: 0" role="graphics-symbol" aria-roledescription="line mark" d="M-2417.777777777778,400L-2391.1111111111113,400L-2365.5555555555557,400L-2338.888888888889,400L-2312.222222222222,400L-2285.5555555555557,400L-2258.8888888888887,400L-2232.222222222222,399.9785714285714L-2205.5555555555557,399.9785714285714L-2178.8888888888887,399.9785714285714L-2152.222222222222,399.9785714285714L-2125.5555555555557,399.95714285714286L-2098.8888888888887,399.95L-2072.222222222222,399.95L-2045.5555555555557,399.97142857142853L-2018.888888888889,399.97142857142853L-1992.2222222222222,399.95L-1965.5555555555554,399.9357142857143L-1938.888888888889,399.9428571428572L-1912.2222222222224,399.95L-1885.5555555555554,399.9142857142857L-1858.888888888889,399.88571428571424L-1832.2222222222222,399.87142857142857L-1805.5555555555557,399.8428571428571L-1778.8888888888887,399.8071428571428L-1752.2222222222222,399.7857142857143L-1725.5555555555557,399.74285714285713L-1698.8888888888887,399.7142857142857L-1672.2222222222222,399.72142857142853L-1645.5555555555557,399.6714285714286L-1618.888888888889,399.6857142857143L-1592.2222222222222,399.64285714285717L-1565.5555555555554,399.59285714285716L-1538.888888888889,399.5857142857143L-1512.2222222222222,399.6142857142857L-1485.5555555555557,399.59285714285716L-1458.888888888889,399.59285714285716L-1432.2222222222222,399.5857142857143L-1405.5555555555554,399.64285714285717L-1378.888888888889,399.65000000000003L-1352.2222222222222,399.6857142857143L-1325.5555555555557,399.65714285714284L-1298.888888888889,399.67857142857144L-1272.2222222222222,399.7357142857143L-1245.5555555555557,399.6642857142857L-1218.888888888889,399.6928571428572L-1192.2222222222222,399.7357142857143L-1165.5555555555554,399.7L-1138.888888888889,399.72857142857146L-1112.2222222222222,399.7357142857143L-1085.5555555555557,399.74285714285713L-1058.888888888889,399.8285714285714L-1032.2222222222222,399.8285714285714L-1005.5555555555555,399.8571428571429L-978.8888888888889,399.88571428571424L-952.2222222222222,399.9214285714286L-925.5555555555557,399.9285714285714L-898.8888888888889,399.9285714285714L-872.2222222222222,399.9357142857143L-845.5555555555555,399.9357142857143L-818.8888888888888,399.9357142857143L-792.2222222222223,399.95L-765.5555555555555,399.9428571428572L-738.8888888888889,399.9428571428572L-712.2222222222222,399.9428571428572L-685.5555555555555,399.9285714285714L-658.8888888888889,399.90714285714284L-632.2222222222222,399.90714285714284L-605.5555555555555,399.8928571428571L-578.8888888888889,399.90000000000003L-552.2222222222222,399.90714285714284L-525.5555555555555,399.90714285714284L-498.8888888888889,399.9357142857143L-472.22222222222223,399.9642857142857L-445.55555555555554,399.9642857142857L-418.8888888888889,399.9785714285714L-392.22222222222223,399.9785714285714L-365.55555555555554,399.9785714285714L-338.88888888888886,399.9785714285714L-312.22222222222223,399.9857142857143L-285.55555555555554,399.9857142857143L-258.8888888888889,399.99285714285713L-232.22222222222223,399.99285714285713L-205.55555555555554,399.99285714285713L-178.88888888888889,399.99285714285713L-152.22222222222223,399.99285714285713L-125.55555555555556,399.99285714285713L-98.88888888888889,399.9857142857143L-72.22222222222221,399.9857142857143L-45.55555555555556,399.9857142857143L-18.88888888888889,399.9857142857143L7.777777777777778,399.9857142857143L34.44444444444444,399.9857142857143L61.111111111111114,399.9785714285714L87.77777777777777,399.9857142857143L114.44444444444444,399.9857142857143L141.11111111111111,399.97142857142853L167.77777777777777,399.97142857142853L194.44444444444443,399.97142857142853L221.11111111111111,399.97142857142853L247.77777777777777,399.9785714285714L274.44444444444446,399.9785714285714L301.1111111111111,399.97142857142853L327.77777777777777,399.9857142857143L354.44444444444446,399.9857142857143L381.1111111111111,399.9857142857143L407.77777777777777,399.9857142857143" stroke="#f58518" stroke-width="2" opacity="1"></path></g></g><path class="foreground" aria-hidden="true" d="" display="none"></path></g><g transform="translate(0,0)"><path class="background" aria-hidden="true" d="M0,0h400v400h-400Z"></path><g><g class="mark-line role-mark concat_0_layer_1_marks" clip-path="url(#clip6)" role="graphics-object" aria-roledescription="line mark container"><path aria-label="Type: Confirmed; Date: Mar 01; Count: 0" role="graphics-symbol" aria-roledescription="line mark" d="M-2417.777777777778,399.0571428571429L-2391.1111111111113,398.87857142857143L-2365.5555555555557,398.7142857142857L-2338.888888888889,397.37142857142857L-2312.222222222222,396.12857142857143L-2285.5555555555557,395.6071428571429L-2258.8888888888887,393.65714285714284L-2232.222222222222,393.26428571428573L-2205.5555555555557,392.5357142857143L-2178.8888888888887,391.9428571428571L-2152.222222222222,392.40714285714284L-2125.5555555555557,393.2L-2098.8888888888887,392.54285714285714L-2072.222222222222,393.4428571428572L-2045.5555555555557,392.65714285714284L-2018.888888888889,391.68571428571425L-1992.2222222222222,390.8L-1965.5555555555554,390L-1938.888888888889,389.04285714285714L-1912.2222222222224,388.40714285714284L-1885.5555555555554,386.85L-1858.888888888889,386.45L-1832.2222222222222,386.4357142857143L-1805.5555555555557,386.9714285714286L-1778.8888888888887,387.3L-1752.2222222222222,387.29285714285714L-1725.5555555555557,387.3L-1698.8888888888887,388.4642857142857L-1672.2222222222222,389.0357142857143L-1645.5555555555557,389.9785714285714L-1618.888888888889,389.85714285714283L-1592.2222222222222,389.67857142857144L-1565.5555555555554,391.26428571428573L-1538.888888888889,392.4L-1512.2222222222222,393.25714285714287L-1485.5555555555557,393.86428571428576L-1458.888888888889,394.0142857142857L-1432.2222222222222,394.7285714285714L-1405.5555555555554,396.1642857142857L-1378.888888888889,395.3285714285714L-1352.2222222222222,395.1071428571429L-1325.5555555555557,395.54999999999995L-1298.888888888889,395.5214285714286L-1272.2222222222222,396.05L-1245.5555555555557,396.05L-1218.888888888889,395.9428571428572L-1192.2222222222222,395.72857142857146L-1165.5555555555554,396.3928571428571L-1138.888888888889,396.2428571428572L-1112.2222222222222,396.6928571428571L-1085.5555555555557,396.79285714285714L-1058.888888888889,396.8357142857143L-1032.2222222222222,396.65L-1005.5555555555555,397.34285714285716L-978.8888888888889,397.5928571428571L-952.2222222222222,397.7142857142857L-925.5555555555557,397.7857142857143L-898.8888888888889,397.7142857142857L-872.2222222222222,397.8214285714286L-845.5555555555555,397.8928571428571L-818.8888888888888,397.95714285714286L-792.2222222222223,397.88571428571424L-765.5555555555555,397.95L-738.8888888888889,397.9285714285714L-712.2222222222222,398.1571428571429L-685.5555555555555,398.37142857142857L-658.8888888888889,398.5571428571429L-632.2222222222222,398.7214285714286L-605.5555555555555,398.84285714285716L-578.8888888888889,398.9357142857143L-552.2222222222222,399.01428571428573L-525.5555555555555,398.9714285714286L-498.8888888888889,399.10714285714283L-472.22222222222223,399.2142857142857L-445.55555555555554,399.24285714285713L-418.8888888888889,399.1928571428571L-392.22222222222223,399.1928571428571L-365.55555555555554,399.2214285714286L-338.88888888888886,399.26428571428573L-312.22222222222223,399.23571428571427L-285.55555555555554,399.1714285714286L-258.8888888888889,399.14285714285717L-232.22222222222223,399.2714285714286L-205.55555555555554,399.3571428571429L-178.88888888888889,399.35L-152.22222222222223,399.37142857142857L-125.55555555555556,399.4142857142857L-98.88888888888889,399.48571428571427L-72.22222222222221,399.45714285714286L-45.55555555555556,399.3357142857143L-18.88888888888889,399.2857142857143L7.777777777777778,399.3285714285714L34.44444444444444,399.23571428571427L61.111111111111114,399.17857142857144L87.77777777777777,399.1357142857143L114.44444444444444,399.1642857142857L141.11111111111111,399.25714285714287L167.77777777777777,399.3L194.44444444444443,399.3071428571429L221.11111111111111,399.40000000000003L247.77777777777777,399.3857142857143L274.44444444444446,399.40000000000003L301.1111111111111,399.3L327.77777777777777,399.2857142857143L354.44444444444446,399.24285714285713L381.1111111111111,399.1857142857143L407.77777777777777,399.1857142857143" stroke="#4c78a8" stroke-width="2" opacity="1"></path></g></g><path class="foreground" aria-hidden="true" d="" display="none"></path></g></g><g class="mark-group role-title"><g transform="translate(200,-54)"><path class="background" aria-hidden="true" d="M0,0h0v0h0Z" pointer-events="none"></path><g><g class="mark-text role-title-text" role="graphics-symbol" aria-roledescription="title" aria-label="Title text '7-day average (light color: daily values) [2020-06-21]'" pointer-events="none"><text text-anchor="middle" transform="translate(0,10)" font-family="Roboto Condensed" font-size="13px" font-weight="normal" fill="#000" opacity="1"><tspan>7-day average (light color: daily values)</tspan><tspan x="0" dy="15">[2020-06-21]</tspan></text></g></g><path class="foreground" aria-hidden="true" d="" pointer-events="none" display="none"></path></g></g></g><path class="foreground" aria-hidden="true" d="" display="none"></path></g></g><g class="mark-group role-scope concat_1_group" role="graphics-object" aria-roledescription="group mark container"><g transform="translate(465,0)"><path class="background" aria-hidden="true" d="M0,0h400v400h-400Z" stroke="#ddd" stroke-width="0"></path><g><g class="mark-group role-axis" aria-hidden="true"><g transform="translate(0.5,0.5)"><path class="background" aria-hidden="true" d="M0,0h0v0h0Z" pointer-events="none"></path><g><g class="mark-rule role-axis-grid" pointer-events="none"><line transform="translate(0,400)" x2="400" y2="0" stroke="#ddd" stroke-width="1" opacity="1"></line><line transform="translate(0,356)" x2="400" y2="0" stroke="#ddd" stroke-width="1" opacity="1"></line><line transform="translate(0,311)" x2="400" y2="0" stroke="#ddd" stroke-width="1" opacity="1"></line><line transform="translate(0,267)" x2="400" y2="0" stroke="#ddd" stroke-width="1" opacity="1"></line><line transform="translate(0,222)" x2="400" y2="0" stroke="#ddd" stroke-width="1" opacity="1"></line><line transform="translate(0,178)" x2="400" y2="0" stroke="#ddd" stroke-width="1" opacity="1"></line><line transform="translate(0,133)" x2="400" y2="0" stroke="#ddd" stroke-width="1" opacity="1"></line><line transform="translate(0,89)" x2="400" y2="0" stroke="#ddd" stroke-width="1" opacity="1"></line><line transform="translate(0,44)" x2="400" y2="0" stroke="#ddd" stroke-width="1" opacity="1"></line><line transform="translate(0,0)" x2="400" y2="0" stroke="#ddd" stroke-width="1" opacity="1"></line></g></g><path class="foreground" aria-hidden="true" d="" pointer-events="none" display="none"></path></g></g><g class="mark-group role-axis" role="graphics-symbol" aria-roledescription="axis" aria-label="X-axis titled 'Date' for a time scale with values from June 05 to June 20"><g transform="translate(0.5,400.5)"><path class="background" aria-hidden="true" d="M0,0h0v0h0Z" pointer-events="none"></path><g><g class="mark-text role-axis-label" pointer-events="none"><text text-anchor="middle" transform="translate(34.44444444444444,10)" font-family="Roboto Condensed" font-size="10px" fill="#000" opacity="1">Jun 07</text><text text-anchor="middle" transform="translate(87.77777777777777,10)" font-family="Roboto Condensed" font-size="10px" fill="#000" opacity="1">Jun 09</text><text text-anchor="middle" transform="translate(141.11111111111111,10)" font-family="Roboto Condensed" font-size="10px" fill="#000" opacity="1">Jun 11</text><text text-anchor="middle" transform="translate(194.44444444444443,10)" font-family="Roboto Condensed" font-size="10px" fill="#000" opacity="1">Jun 13</text><text text-anchor="middle" transform="translate(247.77777777777777,10)" font-family="Roboto Condensed" font-size="10px" fill="#000" opacity="1">Jun 15</text><text text-anchor="middle" transform="translate(301.1111111111111,10)" font-family="Roboto Condensed" font-size="10px" fill="#000" opacity="1">Jun 17</text><text text-anchor="middle" transform="translate(354.44444444444446,10)" font-family="Roboto Condensed" font-size="10px" fill="#000" opacity="1">Jun 19</text></g><g class="mark-rule role-axis-domain" pointer-events="none"><line transform="translate(0,0)" x2="400" y2="0" stroke="lightgray" stroke-width="1" opacity="1"></line></g><g class="mark-text role-axis-title" pointer-events="none"><text text-anchor="middle" transform="translate(200,25)" font-family="Roboto Condensed" font-size="11px" font-weight="normal" fill="#000" opacity="1">Date</text></g></g><path class="foreground" aria-hidden="true" d="" pointer-events="none" display="none"></path></g></g><g class="mark-group role-axis" role="graphics-symbol" aria-roledescription="axis" aria-label="Y-axis titled 'Count' for a linear scale with values from 0 to 9,000"><g transform="translate(0.5,0.5)"><path class="background" aria-hidden="true" d="M0,0h0v0h0Z" pointer-events="none"></path><g><g class="mark-text role-axis-label" pointer-events="none"><text text-anchor="end" transform="translate(-2,403)" font-family="Roboto Condensed" font-size="10px" fill="#000" opacity="1">0</text><text text-anchor="end" transform="translate(-2,358.55555555555554)" font-family="Roboto Condensed" font-size="10px" fill="#000" opacity="1">1,000</text><text text-anchor="end" transform="translate(-2,314.11111111111114)" font-family="Roboto Condensed" font-size="10px" fill="#000" opacity="1">2,000</text><text text-anchor="end" transform="translate(-2,269.6666666666667)" font-family="Roboto Condensed" font-size="10px" fill="#000" opacity="1">3,000</text><text text-anchor="end" transform="translate(-2,225.22222222222223)" font-family="Roboto Condensed" font-size="10px" fill="#000" opacity="1">4,000</text><text text-anchor="end" transform="translate(-2,180.77777777777777)" font-family="Roboto Condensed" font-size="10px" fill="#000" opacity="1">5,000</text><text text-anchor="end" transform="translate(-2,136.33333333333334)" font-family="Roboto Condensed" font-size="10px" fill="#000" opacity="1">6,000</text><text text-anchor="end" transform="translate(-2,91.88888888888889)" font-family="Roboto Condensed" font-size="10px" fill="#000" opacity="1">7,000</text><text text-anchor="end" transform="translate(-2,47.444444444444464)" font-family="Roboto Condensed" font-size="10px" fill="#000" opacity="1">8,000</text><text text-anchor="end" transform="translate(-2,3)" font-family="Roboto Condensed" font-size="10px" fill="#000" opacity="1">9,000</text></g><g class="mark-rule role-axis-domain" pointer-events="none"><line transform="translate(0,400)" x2="0" y2="-400" stroke="lightgray" stroke-width="1" opacity="1"></line></g><g class="mark-text role-axis-title" pointer-events="none"><text text-anchor="start" transform="translate(-45,-13)" font-family="Roboto Condensed" font-size="11px" font-weight="normal" fill="#000" opacity="1">Count</text></g></g><path class="foreground" aria-hidden="true" d="" pointer-events="none" display="none"></path></g></g><g class="mark-group role-scope concat_1_pathgroup" role="graphics-object" aria-roledescription="group mark container"><g transform="translate(0,0)"><path class="background" aria-hidden="true" d="M0,0h400v400h-400Z"></path><g><g class="mark-line role-mark concat_1_marks" clip-path="url(#clip7)" role="graphics-object" aria-roledescription="line mark container"><path aria-label="Type: Recovered; Date: Mar 01; Country: Norway; Confirmed: 19; Recovered: 0; Deaths: 0; Count: 0" role="graphics-symbol" aria-roledescription="line mark" d="M-2577.777777777778,400L-2551.1111111111113,400L-2524.4444444444443,400L-2497.777777777778,400L-2471.1111111111113,400L-2444.4444444444443,400L-2417.777777777778,400L-2391.1111111111113,400L-2365.5555555555557,399.9555555555556L-2338.888888888889,399.9555555555556L-2312.222222222222,399.9555555555556L-2285.5555555555557,399.9555555555556L-2258.8888888888887,399.9555555555556L-2232.222222222222,399.9555555555556L-2205.5555555555557,399.9555555555556L-2178.8888888888887,399.9555555555556L-2152.222222222222,399.9555555555556L-2125.5555555555557,399.9555555555556L-2098.8888888888887,399.9555555555556L-2072.222222222222,399.9555555555556L-2045.5555555555557,399.9555555555556L-2018.888888888889,399.9555555555556L-1992.2222222222222,399.9555555555556L-1965.5555555555554,399.7333333333333L-1938.888888888889,399.7333333333333L-1912.2222222222224,399.7333333333333L-1885.5555555555554,399.7333333333333L-1858.888888888889,399.68888888888887L-1832.2222222222222,399.68888888888887L-1805.5555555555557,399.4666666666667L-1778.8888888888887,399.4222222222222L-1752.2222222222222,399.4222222222222L-1725.5555555555557,398.5777777777778L-1698.8888888888887,398.5777777777778L-1672.2222222222222,398.5777777777778L-1645.5555555555557,398.5777777777778L-1618.888888888889,398.5777777777778L-1592.2222222222222,398.5777777777778L-1565.5555555555554,398.5777777777778L-1538.888888888889,398.5777777777778L-1512.2222222222222,398.5777777777778L-1485.5555555555557,398.5777777777778L-1458.888888888889,398.5777777777778L-1432.2222222222222,398.5777777777778L-1405.5555555555554,398.5777777777778L-1378.888888888889,398.5777777777778L-1352.2222222222222,398.5777777777778L-1325.5555555555557,398.5777777777778L-1298.888888888889,398.5777777777778L-1272.2222222222222,398.5777777777778L-1245.5555555555557,398.5777777777778L-1218.888888888889,398.5777777777778L-1192.2222222222222,398.5777777777778L-1165.5555555555554,398.5777777777778L-1138.888888888889,398.5777777777778L-1112.2222222222222,398.5777777777778L-1085.5555555555557,398.5777777777778L-1058.888888888889,398.5777777777778L-1032.2222222222222,398.5777777777778L-1005.5555555555555,398.5777777777778L-978.8888888888889,398.5777777777778L-952.2222222222222,398.5777777777778L-925.5555555555557,398.5777777777778L-898.8888888888889,398.5777777777778L-872.2222222222222,398.5777777777778L-845.5555555555555,398.5777777777778L-818.8888888888888,398.5777777777778L-792.2222222222223,398.5777777777778L-765.5555555555555,398.5777777777778L-738.8888888888889,398.5777777777778L-712.2222222222222,398.5777777777778L-685.5555555555555,398.5777777777778L-658.8888888888889,398.5777777777778L-632.2222222222222,398.5777777777778L-605.5555555555555,398.5777777777778L-578.8888888888889,398.5777777777778L-552.2222222222222,398.5777777777778L-525.5555555555555,398.5777777777778L-498.8888888888889,398.5777777777778L-472.22222222222223,398.5777777777778L-445.55555555555554,398.5777777777778L-418.8888888888889,398.5777777777778L-392.22222222222223,56.5777777777778L-365.55555555555554,56.5777777777778L-338.88888888888886,56.5777777777778L-312.22222222222223,56.5777777777778L-285.55555555555554,56.5777777777778L-258.8888888888889,56.5777777777778L-232.22222222222223,56.5777777777778L-205.55555555555554,56.5777777777778L-178.88888888888889,56.5777777777778L-152.22222222222223,56.5777777777778L-125.55555555555556,56.5777777777778L-98.88888888888889,56.5777777777778L-72.22222222222221,56.5777777777778L-45.55555555555556,38.311111111111096L-18.88888888888889,38.311111111111096L7.777777777777778,38.311111111111096L34.44444444444444,38.311111111111096L61.111111111111114,38.311111111111096L87.77777777777777,38.311111111111096L114.44444444444444,38.311111111111096L141.11111111111111,38.311111111111096L167.77777777777777,38.311111111111096L194.44444444444443,38.311111111111096L221.11111111111111,38.311111111111096L247.77777777777777,38.311111111111096L274.44444444444446,38.311111111111096L301.1111111111111,38.311111111111096L327.77777777777777,38.311111111111096L354.44444444444446,38.311111111111096L381.1111111111111,38.311111111111096L407.77777777777777,38.311111111111096" stroke="#e45756" stroke-width="2" opacity="0.7"></path></g></g><path class="foreground" aria-hidden="true" d="" display="none"></path></g><g transform="translate(0,0)"><path class="background" aria-hidden="true" d="M0,0h400v400h-400Z"></path><g><g class="mark-line role-mark concat_1_marks" clip-path="url(#clip8)" role="graphics-object" aria-roledescription="line mark container"><path aria-label="Type: Deaths; Date: Mar 01; Country: Norway; Confirmed: 19; Recovered: 0; Deaths: 0; Count: 0" role="graphics-symbol" aria-roledescription="line mark" d="M-2577.777777777778,400L-2551.1111111111113,400L-2524.4444444444443,400L-2497.777777777778,400L-2471.1111111111113,400L-2444.4444444444443,400L-2417.777777777778,400L-2391.1111111111113,400L-2365.5555555555557,400L-2338.888888888889,400L-2312.222222222222,400L-2285.5555555555557,400L-2258.8888888888887,400L-2232.222222222222,399.8666666666667L-2205.5555555555557,399.8666666666667L-2178.8888888888887,399.8666666666667L-2152.222222222222,399.8666666666667L-2125.5555555555557,399.7333333333333L-2098.8888888888887,399.68888888888887L-2072.222222222222,399.68888888888887L-2045.5555555555557,399.68888888888887L-2018.888888888889,399.68888888888887L-1992.2222222222222,399.5555555555556L-1965.5555555555554,399.4666666666667L-1938.888888888889,399.3777777777778L-1912.2222222222224,399.3777777777778L-1885.5555555555554,399.15555555555557L-1858.888888888889,398.97777777777776L-1832.2222222222222,398.8888888888889L-1805.5555555555557,398.5777777777778L-1778.8888888888887,398.26666666666665L-1752.2222222222222,398.0444444444444L-1725.5555555555557,397.77777777777777L-1698.8888888888887,397.3777777777778L-1672.2222222222222,397.2444444444444L-1645.5555555555557,396.8444444444445L-1618.888888888889,396.6222222222222L-1592.2222222222222,396.0444444444445L-1565.5555555555554,395.5111111111111L-1538.888888888889,395.2L-1512.2222222222222,394.97777777777776L-1485.5555555555557,394.7111111111111L-1458.888888888889,394.3111111111111L-1432.2222222222222,394.0444444444445L-1405.5555555555554,393.8222222222222L-1378.888888888889,393.3333333333333L-1352.2222222222222,393.24444444444447L-1325.5555555555557,392.84444444444443L-1298.888888888889,392.7111111111111L-1272.2222222222222,392.6666666666667L-1245.5555555555557,391.9555555555556L-1218.888888888889,391.9111111111111L-1192.2222222222222,391.68888888888887L-1165.5555555555554,391.3777777777778L-1138.888888888889,391.15555555555557L-1112.2222222222222,391.06666666666666L-1085.5555555555557,391.06666666666666L-1058.888888888889,390.8888888888889L-1032.2222222222222,390.84444444444443L-1005.5555555555555,390.8L-978.8888888888889,390.6666666666667L-952.2222222222222,390.6666666666667L-925.5555555555557,390.6222222222222L-898.8888888888889,390.6222222222222L-872.2222222222222,390.4888888888889L-845.5555555555555,390.44444444444446L-818.8888888888888,390.4L-792.2222222222223,390.35555555555555L-765.5555555555555,390.3111111111111L-738.8888888888889,390.26666666666665L-712.2222222222222,390.26666666666665L-685.5555555555555,390.0444444444445L-658.8888888888889,389.8666666666667L-632.2222222222222,389.8222222222222L-605.5555555555555,389.68888888888887L-578.8888888888889,389.68888888888887L-552.2222222222222,389.68888888888887L-525.5555555555555,389.68888888888887L-498.8888888888889,389.64444444444445L-472.22222222222223,389.64444444444445L-445.55555555555554,389.59999999999997L-418.8888888888889,389.55555555555554L-392.22222222222223,389.55555555555554L-365.55555555555554,389.55555555555554L-338.88888888888886,389.55555555555554L-312.22222222222223,389.55555555555554L-285.55555555555554,389.55555555555554L-258.8888888888889,389.55555555555554L-232.22222222222223,389.5111111111111L-205.55555555555554,389.5111111111111L-178.88888888888889,389.5111111111111L-152.22222222222223,389.5111111111111L-125.55555555555556,389.5111111111111L-98.88888888888889,389.4666666666667L-72.22222222222221,389.4666666666667L-45.55555555555556,389.4222222222222L-18.88888888888889,389.4222222222222L7.777777777777778,389.4222222222222L34.44444444444444,389.4222222222222L61.111111111111114,389.3777777777778L87.77777777777777,389.3777777777778L114.44444444444444,389.3777777777778L141.11111111111111,389.24444444444447L167.77777777777777,389.24444444444447L194.44444444444443,389.24444444444447L221.11111111111111,389.24444444444447L247.77777777777777,389.24444444444447L274.44444444444446,389.24444444444447L301.1111111111111,389.2L327.77777777777777,389.15555555555557L354.44444444444446,389.15555555555557L381.1111111111111,389.15555555555557L407.77777777777777,389.15555555555557" stroke="#f58518" stroke-width="2" opacity="0.7"></path></g></g><path class="foreground" aria-hidden="true" d="" display="none"></path></g><g transform="translate(0,0)"><path class="background" aria-hidden="true" d="M0,0h400v400h-400Z"></path><g><g class="mark-line role-mark concat_1_marks" clip-path="url(#clip9)" role="graphics-object" aria-roledescription="line mark container"><path aria-label="Type: Confirmed; Date: Mar 01; Country: Norway; Confirmed: 19; Recovered: 0; Deaths: 0; Count: 19" role="graphics-symbol" aria-roledescription="line mark" d="M-2577.777777777778,399.15555555555557L-2551.1111111111113,398.8888888888889L-2524.4444444444443,398.5777777777778L-2497.777777777778,397.5111111111111L-2471.1111111111113,396.1333333333333L-2444.4444444444443,395.2L-2417.777777777778,393.4666666666667L-2391.1111111111113,392.1777777777778L-2365.5555555555557,390.8888888888889L-2338.888888888889,382.22222222222223L-2312.222222222222,373.4222222222222L-2285.5555555555557,368.8L-2258.8888888888887,355.73333333333335L-2232.222222222222,351.55555555555554L-2205.5555555555557,345.73333333333335L-2178.8888888888887,340.7555555555556L-2152.222222222222,334.97777777777776L-2125.5555555555557,331.1111111111111L-2098.8888888888887,322.40000000000003L-2072.222222222222,314.93333333333334L-2045.5555555555557,305.8666666666666L-2018.888888888889,294L-1992.2222222222222,283.51111111111106L-1965.5555555555554,272.75555555555553L-1938.888888888889,262.93333333333334L-1912.2222222222224,250.26666666666665L-1885.5555555555554,233.11111111111114L-1858.888888888889,221.55555555555554L-1832.2222222222222,209.60000000000002L-1805.5555555555557,202.44444444444446L-1778.8888888888887,193.73333333333332L-1752.2222222222222,183.86666666666667L-1725.5555555555557,171.24444444444444L-1698.8888888888887,161.33333333333331L-1672.2222222222222,153.33333333333331L-1645.5555555555557,147.2444444444444L-1618.888888888889,139.33333333333334L-1592.2222222222222,129.51111111111112L-1565.5555555555554,129.51111111111112L-1538.888888888889,123.95555555555555L-1512.2222222222222,119.37777777777777L-1485.5555555555557,115.15555555555554L-1458.888888888889,110.00000000000001L-1432.2222222222222,106.53333333333333L-1405.5555555555554,105.64444444444443L-1378.888888888889,100.44444444444443L-1352.2222222222222,93.5111111111111L-1325.5555555555557,91.68888888888888L-1298.888888888889,87.28888888888888L-1272.2222222222222,85.42222222222225L-1245.5555555555557,81.95555555555556L-1218.888888888889,80.39999999999998L-1192.2222222222222,73.86666666666666L-1165.5555555555554,71.06666666666666L-1138.888888888889,68.31111111111112L-1112.2222222222222,66.71111111111112L-1085.5555555555557,65.46666666666665L-1058.888888888889,62.26666666666665L-1032.2222222222222,59.55555555555554L-1005.5555555555555,57.33333333333333L-978.8888888888889,56.0888888888889L-952.2222222222222,54.088888888888896L-925.5555555555557,52.93333333333332L-898.8888888888889,51.244444444444426L-872.2222222222222,48.71111111111111L-845.5555555555555,46.444444444444464L-818.8888888888888,44.622222222222206L-792.2222222222223,42.93333333333331L-765.5555555555555,41.33333333333336L-738.8888888888889,40.04444444444446L-712.2222222222222,39.77777777777778L-685.5555555555555,38.577777777777776L-658.8888888888889,37.46666666666667L-632.2222222222222,36.66666666666667L-605.5555555555555,35.73333333333335L-578.8888888888889,34.711111111111094L-552.2222222222222,33.91111111111109L-525.5555555555555,33.37777777777777L-498.8888888888889,33.02222222222224L-472.22222222222223,32.57777777777777L-445.55555555555554,31.95555555555556L-418.8888888888889,30.711111111111087L-392.22222222222223,29.688888888888876L-365.55555555555554,29.066666666666663L-338.88888888888886,28.799999999999983L-312.22222222222223,28.266666666666662L-285.55555555555554,27.42222222222224L-258.8888888888889,26.622222222222234L-232.22222222222223,26.177777777777766L-205.55555555555554,25.688888888888872L-178.88888888888889,25.022222222222233L-152.22222222222223,24.88888888888887L-125.55555555555556,24.622222222222234L-98.88888888888889,24.222222222222236L-72.22222222222221,23.244444444444447L-45.55555555555556,22.044444444444444L-18.88888888888889,21.244444444444444L7.777777777777778,20.84444444444444L34.44444444444444,20.133333333333336L61.111111111111114,19.511111111111124L87.77777777777777,18.84444444444444L114.44444444444444,18.04444444444444L141.11111111111111,17.422222222222228L167.77777777777777,16.888888888888907L194.44444444444443,16.53333333333333L221.11111111111111,16.400000000000013L247.77777777777777,15.688888888888908L274.44444444444446,15.11111111111112L301.1111111111111,13.688888888888906L327.77777777777777,12.9777777777778L354.44444444444446,12.177777777777798L381.1111111111111,11.466666666666647L407.77777777777777,11.333333333333329" stroke="#4c78a8" stroke-width="2" opacity="0.7"></path></g></g><path class="foreground" aria-hidden="true" d="" display="none"></path></g></g><g class="mark-group role-title"><g transform="translate(200,-54)"><path class="background" aria-hidden="true" d="M0,0h0v0h0Z" pointer-events="none"></path><g><g class="mark-text role-title-text" role="graphics-symbol" aria-roledescription="title" aria-label="Title text 'Total [2020-06-21]'" pointer-events="none"><text text-anchor="middle" transform="translate(0,10)" font-family="Roboto Condensed" font-size="13px" font-weight="normal" fill="#000" opacity="1"><tspan>Total</tspan><tspan x="0" dy="15">[2020-06-21]</tspan></text></g></g><path class="foreground" aria-hidden="true" d="" pointer-events="none" display="none"></path></g></g></g><path class="foreground" aria-hidden="true" d="" display="none"></path></g></g><g class="mark-group role-legend" role="graphics-symbol" aria-roledescription="legend" aria-label="Symbol legend for stroke color with 3 values: Confirmed, Deaths, Recovered"><g transform="translate(883,0)"><path class="background" aria-hidden="true" d="M0,0h58v37h-58Z" pointer-events="none"></path><g><g class="mark-group role-legend-entry"><g transform="translate(0,0)"><path class="background" aria-hidden="true" d="M0,0h0v0h0Z" pointer-events="none"></path><g><g class="mark-group role-scope" role="graphics-object" aria-roledescription="group mark container"><g transform="translate(0,0)"><path class="background" aria-hidden="true" d="M0,0h58v11h-58Z" pointer-events="none" opacity="1"></path><g><g class="mark-symbol role-legend-symbol" pointer-events="none"><path transform="translate(6,6)" d="M-5,0L5,0" stroke="#4c78a8" stroke-width="1.5" opacity="0.2"></path></g><g class="mark-text role-legend-label" pointer-events="none"><text text-anchor="start" transform="translate(16,9)" font-family="Roboto Condensed" font-size="10px" fill="#000" opacity="1">Confirmed</text></g></g><path class="foreground" aria-hidden="true" d="" pointer-events="none" display="none"></path></g><g transform="translate(0,13)"><path class="background" aria-hidden="true" d="M0,0h58v11h-58Z" pointer-events="none" opacity="1"></path><g><g class="mark-symbol role-legend-symbol" pointer-events="none"><path transform="translate(6,6)" d="M-5,0L5,0" stroke="#f58518" stroke-width="1.5" opacity="0.2"></path></g><g class="mark-text role-legend-label" pointer-events="none"><text text-anchor="start" transform="translate(16,9)" font-family="Roboto Condensed" font-size="10px" fill="#000" opacity="1">Deaths</text></g></g><path class="foreground" aria-hidden="true" d="" pointer-events="none" display="none"></path></g><g transform="translate(0,26)"><path class="background" aria-hidden="true" d="M0,0h58v11h-58Z" pointer-events="none" opacity="1"></path><g><g class="mark-symbol role-legend-symbol" pointer-events="none"><path transform="translate(6,6)" d="M-5,0L5,0" stroke="#e45756" stroke-width="1.5" opacity="0.2"></path></g><g class="mark-text role-legend-label" pointer-events="none"><text text-anchor="start" transform="translate(16,9)" font-family="Roboto Condensed" font-size="10px" fill="#000" opacity="1">Recovered</text></g></g><path class="foreground" aria-hidden="true" d="" pointer-events="none" display="none"></path></g></g></g><path class="foreground" aria-hidden="true" d="" pointer-events="none" display="none"></path></g></g></g><path class="foreground" aria-hidden="true" d="" pointer-events="none" display="none"></path></g></g></g><path class="foreground" aria-hidden="true" d="" display="none"></path></g></g></g></svg>