<svg class="marks" width="419.6666666666667" height="305.6666666666667" viewBox="0 0 419.6666666666667 305.6666666666667" version="1.1" xmlns="http://www.w3.org/2000/svg" xmlns:xlink="http://www.w3.org/1999/xlink"><defs><clipPath id="clip1"><rect x="0" y="0" width="266.6666666666667" height="266.6666666666667"></rect></clipPath><clipPath id="clip2"><rect x="0" y="0" width="266.6666666666667" height="266.6666666666667"></rect></clipPath><clipPath id="clip3"><rect x="0" y="0" width="266.6666666666667" height="266.6666666666667"></rect></clipPath><clipPath id="clip4"><rect x="0" y="0" width="266.6666666666667" height="266.6666666666667"></rect></clipPath><clipPath id="clip5"><rect x="0" y="0" width="266.6666666666667" height="266.6666666666667"></rect></clipPath><clipPath id="clip6"><rect x="0" y="0" width="266.6666666666667" height="266.6666666666667"></rect></clipPath><clipPath id="clip7"><rect x="0" y="0" width="266.6666666666667" height="266.6666666666667"></rect></clipPath><clipPath id="clip8"><rect x="0" y="0" width="266.6666666666667" height="266.6666666666667"></rect></clipPath><clipPath id="clip9"><rect x="0" y="0" width="266.6666666666667" height="266.6666666666667"></rect></clipPath><clipPath id="clip10"><rect x="0" y="0" width="266.6666666666667" height="266.6666666666667"></rect></clipPath></defs><rect width="419.6666666666667" height="305.6666666666667" fill="white"></rect><g fill="none" stroke-miterlimit="10" transform="translate(50,22)"><g class="mark-group role-frame root" role="graphics-object" aria-roledescription="group mark container"><g transform="translate(0,0)"><path class="background" aria-hidden="true" d="M0,0h266.6666666666667v266.6666666666667h-266.6666666666667Z" stroke="#ddd" stroke-width="0"></path><g><g class="mark-group role-axis" aria-hidden="true"><g transform="translate(0.5,0.5)"><path class="background" aria-hidden="true" d="M0,0h0v0h0Z" pointer-events="none"></path><g><g class="mark-rule role-axis-grid" pointer-events="none"><line transform="translate(0,267)" x2="266.6666666666667" y2="0" stroke="#ddd" stroke-width="1" opacity="1"></line><line transform="translate(0,218)" x2="266.6666666666667" y2="0" stroke="#ddd" stroke-width="1" opacity="1"></line><line transform="translate(0,170)" x2="266.6666666666667" y2="0" stroke="#ddd" stroke-width="1" opacity="1"></line><line transform="translate(0,121)" x2="266.6666666666667" y2="0" stroke="#ddd" stroke-width="1" opacity="1"></line><line transform="translate(0,73)" x2="266.6666666666667" y2="0" stroke="#ddd" stroke-width="1" opacity="1"></line><line transform="translate(0,24)" x2="266.6666666666667" y2="0" stroke="#ddd" stroke-width="1" opacity="1"></line></g></g><path class="foreground" aria-hidden="true" d="" pointer-events="none" display="none"></path></g></g><g class="mark-group role-axis" role="graphics-symbol" aria-roledescription="axis" aria-label="X-axis for a time scale with values from Tuesday, 28 April 2020, 5:00:00 PM to Thursday, 28 May 2020, 5:00:00 PM"><g transform="translate(0.5,267.1666666666667)"><path class="background" aria-hidden="true" d="M0,0h0v0h0Z" pointer-events="none"></path><g><g class="mark-text role-axis-label" pointer-events="none"><text text-anchor="middle" transform="translate(38.148148148148145,10)" font-family="Roboto Condensed" font-size="10px" fill="#000" opacity="1">May 03</text><text text-anchor="middle" transform="translate(100.37037037037038,10)" font-family="Roboto Condensed" font-size="10px" fill="#000" opacity="1">May 10</text><text text-anchor="middle" transform="translate(162.5925925925926,10)" font-family="Roboto Condensed" font-size="10px" fill="#000" opacity="1">May 17</text><text text-anchor="middle" transform="translate(224.81481481481484,10)" font-family="Roboto Condensed" font-size="10px" fill="#000" opacity="1">May 24</text></g><g class="mark-rule role-axis-domain" pointer-events="none"><line transform="translate(0,0)" x2="266.6666666666667" y2="0" stroke="lightgray" stroke-width="1" opacity="1"></line></g></g><path class="foreground" aria-hidden="true" d="" pointer-events="none" display="none"></path></g></g><g class="mark-group role-axis" role="graphics-symbol" aria-roledescription="axis" aria-label="Y-axis for a linear scale with values from 0 to 110,000"><g transform="translate(0.5,0.5)"><path class="background" aria-hidden="true" d="M0,0h0v0h0Z" pointer-events="none"></path><g><g class="mark-text role-axis-label" pointer-events="none"><text text-anchor="end" transform="translate(-2,269.6666666666667)" font-family="Roboto Condensed" font-size="10px" fill="#000" opacity="1">0</text><text text-anchor="end" transform="translate(-2,221.1818181818182)" font-family="Roboto Condensed" font-size="10px" fill="#000" opacity="1">20,000</text><text text-anchor="end" transform="translate(-2,172.69696969696972)" font-family="Roboto Condensed" font-size="10px" fill="#000" opacity="1">40,000</text><text text-anchor="end" transform="translate(-2,124.21212121212123)" font-family="Roboto Condensed" font-size="10px" fill="#000" opacity="1">60,000</text><text text-anchor="end" transform="translate(-2,75.72727272727273)" font-family="Roboto Condensed" font-size="10px" fill="#000" opacity="1">80,000</text><text text-anchor="end" transform="translate(-2,27.242424242424253)" font-family="Roboto Condensed" font-size="10px" fill="#000" opacity="1">100,000</text></g><g class="mark-rule role-axis-domain" pointer-events="none"><line transform="translate(0,266.6666666666667)" x2="0" y2="-266.6666666666667" stroke="lightgray" stroke-width="1" opacity="1"></line></g></g><path class="foreground" aria-hidden="true" d="" pointer-events="none" display="none"></path></g></g><g class="mark-group role-scope pathgroup" role="graphics-object" aria-roledescription="group mark container"><g transform="translate(0,0)"><path class="background" aria-hidden="true" d="M0,0h266.6666666666667v266.6666666666667h-266.6666666666667Z"></path><g><g class="mark-line role-mark marks" clip-path="url(#clip1)" role="graphics-object" aria-roledescription="line mark container"><path aria-label="Country: Belgium; Date: Mar 01, 2020; Confirmed: 2; Recovered: 1; Deaths: 0; : 0" role="graphics-symbol" aria-roledescription="line mark" d="M-521.4814814814815,266.6666666666667L-512.5925925925926,266.6666666666667L-503.70370370370375,266.6666666666667L-494.8148148148149,266.6666666666667L-485.9259259259259,266.6666666666667L-477.03703703703707,266.6666666666667L-468.14814814814815,266.6666666666667L-459.2592592592593,266.6666666666667L-450.74074074074076,266.6666666666667L-441.8518518518519,266.6666666666667L-432.962962962963,266.65939393939396L-424.0740740740741,266.65939393939396L-415.1851851851852,266.65939393939396L-406.2962962962963,266.6569696969697L-397.40740740740745,266.6569696969697L-388.51851851851853,266.6545454545455L-379.6296296296297,266.6424242424242L-370.74074074074076,266.63272727272727L-361.8518518518519,266.6157575757576L-352.962962962963,266.5769696969697L-344.07407407407413,266.5042424242424L-335.1851851851852,266.4848484848485L-326.29629629629636,266.4533333333333L-317.40740740740745,266.3709090909091L-308.5185185185186,266.23515151515153L-299.6296296296297,266.1333333333333L-290.74074074074076,265.96606060606064L-281.8518518518519,265.8109090909091L-272.96296296296293,265.6218181818182L-264.0740740740741,265.4230303030303L-255.18518518518522,264.9575757575758L-246.29629629629633,264.65939393939396L-237.40740740740742,264.2157575757576L-228.51851851851853,263.8957575757576L-219.62962962962965,263.55636363636364L-210.74074074074073,263.1587878787879L-201.85185185185185,262.71030303030307L-192.96296296296296,261.73333333333335L-184.07407407407408,261.23636363636365L-175.1851851851852,260.55030303030304L-166.2962962962963,259.3478787878788L-157.40740740740742,258.5551515151515L-148.51851851851853,257.93939393939394L-139.62962962962965,257.2048484848485L-130.74074074074073,256.58909090909094L-121.85185185185186,255.9030303030303L-112.96296296296298,254.89212121212122L-104.07407407407408,254.15030303030304L-95.18518518518519,253.44727272727272L-86.2962962962963,252.88969696969698L-77.40740740740742,252.53818181818184L-68.51851851851852,252.1260606060606L-59.62962962962963,251.48606060606062L-50.74074074074074,250.93333333333337L-41.851851851851855,250.47515151515154L-32.96296296296297,249.89818181818185L-24.074074074074076,249.46909090909094L-15.185185185185185,249.19515151515154L-6.296296296296297,248.89454545454547L2.592592592592593,248.48242424242426L11.481481481481483,248.2569696969697L20.370370370370374,247.99272727272728L29.25925925925926,247.84242424242424L38.148148148148145,247.65090909090912L47.037037037037045,247.4569696969697L55.92592592592593,247.2339393939394L64.81481481481482,246.4509090909091L73.70370370370371,246.26666666666668L82.5925925925926,246.009696969697L91.4814814814815,245.86424242424243L100.37037037037038,245.68242424242425L109.25925925925927,245.55878787878788L118.14814814814815,245.4278787878788L127.03703703703704,245.22909090909093L135.92592592592592,245.0836363636364L144.8148148148148,244.94787878787878L153.7037037037037,244.83636363636364L162.5925925925926,244.72242424242427L171.4814814814815,244.65454545454546L180.37037037037038,244.5866666666667L189.2592592592593,244.48484848484853L198.14814814814818,244.3975757575758L207.03703703703707,244.33454545454546L215.92592592592595,244.2739393939394L224.81481481481484,244.169696969697L233.70370370370372,244.09212121212124L242.5925925925926,244.03878787878787L251.4814814814815,243.96606060606064L260.3703703703704,243.90787878787881L269.2592592592593,243.8060606060606" stroke="#4c78a8" stroke-width="2" opacity="1"></path></g></g><path class="foreground" aria-hidden="true" d="" display="none"></path></g><g transform="translate(0,0)"><path class="background" aria-hidden="true" d="M0,0h266.6666666666667v266.6666666666667h-266.6666666666667Z"></path><g><g class="mark-line role-mark marks" clip-path="url(#clip2)" role="graphics-object" aria-roledescription="line mark container"><path aria-label="Country: Brazil; Date: Mar 01, 2020; Confirmed: 2; Recovered: 0; Deaths: 0; : 0" role="graphics-symbol" aria-roledescription="line mark" d="M-521.4814814814815,266.6666666666667L-512.5925925925926,266.6666666666667L-503.70370370370375,266.6666666666667L-494.8148148148149,266.6666666666667L-485.9259259259259,266.6666666666667L-477.03703703703707,266.6666666666667L-468.14814814814815,266.6666666666667L-459.2592592592593,266.6666666666667L-450.74074074074076,266.6666666666667L-441.8518518518519,266.6666666666667L-432.962962962963,266.6666666666667L-424.0740740740741,266.6666666666667L-415.1851851851852,266.6666666666667L-406.2962962962963,266.6666666666667L-397.40740740740745,266.6666666666667L-388.51851851851853,266.6666666666667L-379.6296296296297,266.66424242424245L-370.74074074074076,266.65939393939396L-361.8518518518519,266.65212121212124L-352.962962962963,266.64000000000004L-344.07407407407413,266.6303030303031L-335.1851851851852,266.6060606060606L-326.29629629629636,266.58424242424246L-317.40740740740745,266.5551515151515L-308.5185185185186,266.5236363636364L-299.6296296296297,266.48L-290.74074074074076,266.44363636363636L-281.8518518518519,266.39757575757574L-272.96296296296293,266.33696969696973L-264.0740740740741,266.28121212121215L-255.18518518518522,266.17939393939395L-246.29629629629633,266.0848484848485L-237.40740740740742,265.8812121212121L-228.51851851851853,265.79636363636365L-219.62962962962965,265.5878787878788L-210.74074074074073,265.48848484848486L-201.85185185185185,265.29939393939395L-192.96296296296296,265.0036363636364L-184.07407407407408,264.6812121212121L-175.1851851851852,264.3636363636364L-166.2962962962963,264.10424242424244L-157.40740740740742,263.94181818181823L-148.51851851851853,263.7018181818182L-139.62962962962965,263.4472727272728L-130.74074074074073,262.9527272727273L-121.85185185185186,262.4581818181818L-112.96296296296298,262.00242424242424L-104.07407407407408,261.47636363636366L-95.18518518518519,260.96000000000004L-86.2962962962963,260.69818181818187L-77.40740740740742,260.39515151515155L-68.51851851851852,260.0218181818182L-59.62962962962963,259.6218181818182L-50.74074074074074,258.5915151515152L-41.851851851851855,257.6872727272727L-32.96296296296297,256.83151515151513L-24.074074074074076,256.27636363636367L-15.185185185185185,255.5078787878788L-6.296296296296297,254.34424242424245L2.592592592592593,253.3018181818182L11.481481481481483,252.10666666666668L20.370370370370374,251.12242424242427L29.25925925925926,250.27636363636364L38.148148148148145,249.57333333333335L47.037037037037045,248.80727272727273L55.92592592592593,247.42303030303034L64.81481481481482,245.84727272727275L73.70370370370371,244.3878787878788L82.5925925925926,242.38303030303032L91.4814814814815,240.83393939393943L100.37037037037038,239.7018181818182L109.25925925925927,238.41696969696972L118.14814814814815,236.45818181818186L127.03703703703704,234.569696969697L135.92592592592592,232.729696969697L144.8148148148148,230.39515151515153L153.7037037037037,228.69818181818184L162.5925925925926,227.5927272727273L171.4814814814815,225.81090909090912L180.37037037037038,223.07151515151517L189.2592592592593,220.9478787878788L198.14814814814818,218.06787878787878L207.03703703703707,215.64121212121216L215.92592592592595,213.3018181818182L224.81481481481484,211.71878787878788L233.70370370370372,209.76242424242426L242.5925925925926,207.2436363636364L251.4814814814815,204.61090909090908L260.3703703703704,201.80848484848488L269.2592592592593,199.08363636363637" stroke="#f58518" stroke-width="2" opacity="1"></path></g></g><path class="foreground" aria-hidden="true" d="" display="none"></path></g><g transform="translate(0,0)"><path class="background" aria-hidden="true" d="M0,0h266.6666666666667v266.6666666666667h-266.6666666666667Z"></path><g><g class="mark-line role-mark marks" clip-path="url(#clip3)" role="graphics-object" aria-roledescription="line mark container"><path aria-label="Country: France; Date: Mar 01, 2020; Confirmed: 130; Recovered: 12; Deaths: 2; : 2" role="graphics-symbol" aria-roledescription="line mark" d="M-521.4814814814815,266.6618181818182L-512.5925925925926,266.65939393939396L-503.70370370370375,266.6569696969697L-494.8148148148149,266.6569696969697L-485.9259259259259,266.65212121212124L-477.03703703703707,266.6448484848485L-468.14814814814815,266.64000000000004L-459.2592592592593,266.62060606060606L-450.74074074074076,266.62060606060606L-441.8518518518519,266.5866666666667L-432.962962962963,266.55030303030304L-424.0740740740741,266.55030303030304L-415.1851851851852,266.47515151515154L-406.2962962962963,266.44606060606066L-397.40740740740745,266.44606060606066L-388.51851851851853,266.3078787878788L-379.6296296296297,266.3078787878788L-370.74074074074076,266.3078787878788L-361.8518518518519,266.07757575757574L-352.962962962963,265.57575757575756L-344.07407407407413,265.30424242424243L-335.1851851851852,265.0327272727273L-326.29629629629636,264.5818181818182L-317.40740740740745,264L-308.5185185185186,263.44L-299.6296296296297,262.5551515151515L-290.74074074074076,261.83030303030307L-281.8518518518519,261.0569696969697L-272.96296296296293,260.34909090909093L-264.0740740740741,259.3357575757576L-255.18518518518522,258.12606060606066L-246.29629629629633,255.9927272727273L-237.40740740740742,253.60727272727274L-228.51851851851853,250.89212121212122L-219.62962962962965,248.33939393939394L-210.74074074074073,247.08363636363637L-201.85185185185185,245.06424242424245L-192.96296296296296,241.6290909090909L-184.07407407407408,240.31757575757575L-175.1851851851852,237.0666666666667L-166.2962962962963,234.67393939393943L-157.40740740740742,233.13454545454545L-148.51851851851853,231.7745454545455L-139.62962962962965,230.38303030303032L-130.74074074074073,228.5769696969697L-121.85185185185186,225.0957575757576L-112.96296296296298,223.27030303030304L-104.07407407407408,221.4278787878788L-95.18518518518519,219.87151515151515L-86.2962962962963,218.92363636363638L-77.40740740740742,217.60000000000002L-68.51851851851852,216.32727272727274L-59.62962962962963,215.00848484848487L-50.74074074074074,213.75757575757578L-41.851851851851855,212.81454545454548L-32.96296296296297,211.92000000000002L-24.074074074074076,211.33333333333334L-15.185185185185185,210.2739393939394L-6.296296296296297,209.38424242424242L2.592592592592593,208.34909090909093L11.481481481481483,207.64848484848486L20.370370370370374,207.12L29.25925925925926,206.71757575757576L38.148148148148145,206.39030303030304L47.037037037037045,205.65333333333334L55.92592592592593,204.85333333333335L64.81481481481482,204.1890909090909L73.70370370370371,203.76000000000002L82.5925925925926,203.1709090909091L91.4814814814815,202.97939393939396L100.37037037037038,202.809696969697L109.25925925925927,202.17212121212123L118.14814814814815,201.3309090909091L127.03703703703704,201.13454545454547L135.92592592592592,200.28848484848487L144.8148148148148,200.03636363636363L153.7037037037037,200.04121212121214L162.5925925925926,198.63757575757575L171.4814814814815,198.32000000000002L180.37037037037038,198.8460606060606L189.2592592592593,198.58424242424243L198.14814814814818,198.38303030303032L207.03703703703707,198.20363636363638L215.92592592592595,198.09939393939396L224.81481481481484,198.01939393939395L233.70370370370372,197.80121212121213L242.5925925925926,197.62424242424242L251.4814814814815,197.46424242424243L260.3703703703704,197.30666666666667L269.2592592592593,197.18060606060607" stroke="#e45756" stroke-width="2" opacity="1"></path></g></g><path class="foreground" aria-hidden="true" d="" display="none"></path></g><g transform="translate(0,0)"><path class="background" aria-hidden="true" d="M0,0h266.6666666666667v266.6666666666667h-266.6666666666667Z"></path><g><g class="mark-line role-mark marks" clip-path="url(#clip4)" role="graphics-object" aria-roledescription="line mark container"><path aria-label="Country: Germany; Date: Mar 01, 2020; Confirmed: 130; Recovered: 16; Deaths: 0; : 0" role="graphics-symbol" aria-roledescription="line mark" d="M-521.4814814814815,266.6666666666667L-512.5925925925926,266.6666666666667L-503.70370370370375,266.6666666666667L-494.8148148148149,266.6666666666667L-485.9259259259259,266.6666666666667L-477.03703703703707,266.6666666666667L-468.14814814814815,266.6666666666667L-459.2592592592593,266.6666666666667L-450.74074074074076,266.6618181818182L-441.8518518518519,266.6618181818182L-432.962962962963,266.65939393939396L-424.0740740740741,266.65939393939396L-415.1851851851852,266.649696969697L-406.2962962962963,266.6448484848485L-397.40740740740745,266.64000000000004L-388.51851851851853,266.6254545454546L-379.6296296296297,266.60848484848486L-370.74074074074076,266.5987878787879L-361.8518518518519,266.56L-352.962962962963,266.5042424242424L-344.07407407407413,266.46303030303034L-335.1851851851852,266.4387878787879L-326.29629629629636,266.36848484848485L-317.40740740740745,266.28606060606063L-308.5185185185186,266.16727272727275L-299.6296296296297,266.019393939394L-290.74074074074076,265.8375757575758L-281.8518518518519,265.6169696969697L-272.96296296296293,265.37454545454545L-264.0740740740741,265.1030303030303L-255.18518518518522,264.7878787878788L-246.29629629629633,264.43636363636364L-237.40740740740742,263.9830303030303L-228.51851851851853,263.5757575757576L-219.62962962962965,263.1660606060606L-210.74074074074073,262.8266666666667L-201.85185185185185,262.2787878787879L-192.96296296296296,261.77939393939397L-184.07407407407408,260.97212121212124L-175.1851851851852,260.3466666666667L-166.2962962962963,259.9587878787879L-157.40740740740742,260.0339393939394L-148.51851851851853,259.3406060606061L-139.62962962962965,258.9236363636364L-130.74074074074073,258.6812121212121L-121.85185185185186,257.44484848484854L-112.96296296296298,256.8436363636364L-104.07407407407408,256.11636363636364L-95.18518518518519,255.8569696969697L-86.2962962962963,255.54909090909092L-77.40740740740742,254.88000000000002L-68.51851851851852,254.46545454545455L-59.62962962962963,253.86909090909094L-50.74074074074074,253.15151515151518L-41.851851851851855,252.70303030303032L-32.96296296296297,252.41939393939396L-24.074074074074076,252.17939393939395L-15.185185185185185,251.81575757575757L-6.296296296296297,251.36L2.592592592592593,250.98909090909092L11.481481481481483,250.6109090909091L20.370370370370374,250.3369696969697L29.25925925925926,250.1527272727273L38.148148148148145,250.0218181818182L47.037037037037045,249.71393939393943L55.92592592592593,249.71393939393943L64.81481481481482,249.03030303030303L73.70370370370371,248.74666666666667L82.5925925925926,248.46060606060607L91.4814814814815,248.3660606060606L100.37037037037038,248.31757575757578L109.25925925925927,248.09454545454545L118.14814814814815,247.90787878787881L127.03703703703704,247.60969696969698L135.92592592592592,247.5539393939394L144.8148148148148,247.52242424242425L153.7037037037037,247.42303030303034L162.5925925925926,247.3648484848485L171.4814814814815,247.26545454545456L180.37037037037038,247.07636363636365L189.2592592592593,246.92363636363638L198.14814814814818,246.7806060606061L207.03703703703707,246.72000000000003L215.92592592592595,246.64000000000004L224.81481481481484,246.58666666666667L233.70370370370372,246.52363636363637L242.5925925925926,246.37090909090912L251.4814814814815,246.23515151515153L260.3703703703704,246.13333333333335L269.2592592592593,246.0509090909091" stroke="#72b7b2" stroke-width="2" opacity="1"></path></g></g><path class="foreground" aria-hidden="true" d="" display="none"></path></g><g transform="translate(0,0)"><path class="background" aria-hidden="true" d="M0,0h266.6666666666667v266.6666666666667h-266.6666666666667Z"></path><g><g class="mark-line role-mark marks" clip-path="url(#clip5)" role="graphics-object" aria-roledescription="line mark container"><path aria-label="Country: Iran; Date: Mar 01, 2020; Confirmed: 978; Recovered: 175; Deaths: 54; : 54" role="graphics-symbol" aria-roledescription="line mark" d="M-521.4814814814815,266.5357575757576L-512.5925925925926,266.50666666666666L-503.70370370370375,266.48L-494.8148148148149,266.44363636363636L-485.9259259259259,266.40727272727275L-477.03703703703707,266.3660606060606L-468.14814814814815,266.31515151515157L-459.2592592592593,266.1963636363636L-450.74074074074076,266.09212121212124L-441.8518518518519,265.96121212121216L-432.962962962963,265.80848484848485L-424.0740740740741,265.62666666666667L-415.1851851851852,265.4206060606061L-406.2962962962963,265.18545454545455L-397.40740740740745,264.9115151515152L-388.51851851851853,264.5987878787879L-379.6296296296297,264.2715151515152L-370.74074074074076,263.91515151515154L-361.8518518518519,263.5539393939394L-352.962962962963,263.19272727272727L-344.07407407407413,262.8945454545455L-335.1851851851852,262.5818181818182L-326.29629629629636,262.27393939393943L-317.40740740740745,261.97818181818184L-308.5185185185186,261.63151515151515L-299.6296296296297,261.2509090909091L-290.74074074074076,260.9018181818182L-281.8518518518519,260.5648484848485L-272.96296296296293,260.26666666666665L-264.0740740740741,259.9830303030303L-255.18518518518522,259.64121212121216L-246.29629629629633,259.3066666666667L-237.40740740740742,259.0060606060606L-228.51851851851853,258.6812121212121L-219.62962962962965,258.29818181818183L-210.74074074074073,257.9321212121212L-201.85185185185185,257.60242424242426L-192.96296296296296,257.28000000000003L-184.07407407407408,256.9866666666667L-175.1851851851852,256.70303030303035L-166.2962962962963,256.40727272727275L-157.40740740740742,256.10424242424244L-148.51851851851853,255.82060606060608L-139.62962962962965,255.5515151515152L-130.74074074074073,255.3139393939394L-121.85185185185186,255.0860606060606L-112.96296296296298,254.8630303030303L-104.07407407407408,254.64727272727274L-95.18518518518519,254.47030303030303L-86.2962962962963,254.25939393939396L-77.40740740740742,254.0387878787879L-68.51851851851852,253.82545454545456L-59.62962962962963,253.59757575757578L-50.74074074074074,253.37939393939396L-41.851851851851855,253.1539393939394L-32.96296296296297,252.96969696969697L-24.074074074074076,252.82424242424244L-15.185185185185185,252.59151515151518L-6.296296296296297,252.41939393939396L2.592592592592593,252.22545454545457L11.481481481481483,252.05333333333337L20.370370370370374,251.9006060606061L29.25925925925926,251.74303030303034L38.148148148148145,251.62909090909093L47.037037037037045,251.449696969697L55.92592592592593,251.29696969696974L64.81481481481482,251.1078787878788L73.70370370370371,250.94303030303033L82.5925925925926,250.80969696969697L91.4814814814815,250.69333333333336L100.37037037037038,250.569696969697L109.25925925925927,250.46060606060607L118.14814814814815,250.34424242424245L127.03703703703704,250.22303030303033L135.92592592592592,250.05090909090913L144.8148148148148,249.93454545454546L153.7037037037037,249.849696969697L162.5925925925926,249.7260606060606L171.4814814814815,249.55878787878788L180.37037037037038,249.40848484848487L189.2592592592593,249.25333333333333L198.14814814814818,249.09333333333336L207.03703703703707,248.96969696969697L215.92592592592595,248.82666666666668L224.81481481481484,248.68606060606064L233.70370370370372,248.60363636363638L242.5925925925926,248.46545454545455L251.4814814814815,248.32969696969698L260.3703703703704,248.1769696969697L269.2592592592593,248.05575757575758" stroke="#54a24b" stroke-width="2" opacity="1"></path></g></g><path class="foreground" aria-hidden="true" d="" display="none"></path></g><g transform="translate(0,0)"><path class="background" aria-hidden="true" d="M0,0h266.6666666666667v266.6666666666667h-266.6666666666667Z"></path><g><g class="mark-line role-mark marks" clip-path="url(#clip6)" role="graphics-object" aria-roledescription="line mark container"><path aria-label="Country: Italy; Date: Mar 01, 2020; Confirmed: 1694; Recovered: 83; Deaths: 34; : 34" role="graphics-symbol" aria-roledescription="line mark" d="M-521.4814814814815,266.58424242424246L-512.5925925925926,266.5406060606061L-503.70370370370375,266.47515151515154L-494.8148148148149,266.40727272727275L-485.9259259259259,266.3078787878788L-477.03703703703707,266.1890909090909L-468.14814814814815,266.1018181818182L-459.2592592592593,265.77939393939397L-450.74074074074076,265.54424242424244L-441.8518518518519,265.1369696969697L-432.962962962963,264.6618181818182L-424.0740740740741,264.2036363636364L-415.1851851851852,263.5975757575758L-406.2962962962963,263.17333333333335L-397.40740740740745,262.28121212121215L-388.51851851851853,261.4351515151515L-379.6296296296297,260.5987878787879L-370.74074074074076,259.4472727272728L-361.8518518518519,258.41212121212124L-352.962962962963,256.8921212121212L-344.07407407407413,254.969696969697L-335.1851851851852,253.39151515151516L-326.29629629629636,251.93454545454546L-317.40740740740745,250.13333333333333L-308.5185185185186,248.47757575757578L-299.6296296296297,246.75151515151518L-290.74074074074076,244.5236363636364L-281.8518518518519,242.36848484848485L-272.96296296296293,240.53575757575757L-264.0740740740741,238.56727272727275L-255.18518518518522,236.53818181818184L-246.29629629629633,234.7757575757576L-237.40740740740742,232.93333333333334L-228.51851851851853,231.07636363636365L-219.62962962962965,229.42545454545456L-210.74074074074073,228.15272727272728L-201.85185185185185,226.6109090909091L-192.96296296296296,225.1466666666667L-184.07407407407408,223.83272727272728L-175.1851851851852,222.3539393939394L-166.2962962962963,220.97212121212124L-157.40740740740742,219.47151515151518L-148.51851851851853,218.42666666666668L-139.62962962962965,217.0545454545455L-130.74074074074073,215.59515151515154L-121.85185185185186,214.1939393939394L-112.96296296296298,212.92121212121214L-104.07407407407408,211.52727272727273L-95.18518518518519,210.3587878787879L-86.2962962962963,209.3090909090909L-77.40740740740742,208.2084848484849L-68.51851851851852,206.9139393939394L-59.62962962962963,205.85454545454547L-50.74074074074074,204.729696969697L-41.851851851851855,203.71151515151516L-32.96296296296297,202.70545454545456L-24.074074074074076,202.07515151515153L-15.185185185185185,201.2678787878788L-6.296296296296297,200.34181818181818L2.592592592592593,199.55878787878788L11.481481481481483,198.8678787878788L20.370370370370374,198.21575757575758L29.25925925925926,197.0666666666667L38.148148148148145,196.64484848484847L47.037037037037045,196.1721212121212L55.92592592592593,195.60000000000002L64.81481481481482,194.70545454545456L73.70370370370371,194.04121212121214L82.5925925925926,193.45212121212123L91.4814814814815,192.9818181818182L100.37037037037038,192.58181818181822L109.25925925925927,192.1478787878788L118.14814814814815,191.73090909090908L127.03703703703704,191.2581818181818L135.92592592592592,190.62303030303033L144.8148148148148,190.03636363636366L153.7037037037037,189.66545454545454L162.5925925925926,189.31393939393942L171.4814814814815,189.0739393939394L180.37037037037038,188.68121212121213L189.2592592592593,188.2909090909091L198.14814814814818,187.9127272727273L207.03703703703707,187.59757575757578L215.92592592592595,187.30909090909094L224.81481481481484,187.18787878787882L233.70370370370372,186.9648484848485L242.5925925925926,186.7757575757576L251.4814814814815,186.49212121212122L260.3703703703704,186.32242424242426L269.2592592592593,186.1115151515152" stroke="#eeca3b" stroke-width="2" opacity="1"></path></g></g><path class="foreground" aria-hidden="true" d="" display="none"></path></g><g transform="translate(0,0)"><path class="background" aria-hidden="true" d="M0,0h266.6666666666667v266.6666666666667h-266.6666666666667Z"></path><g><g class="mark-line role-mark marks" clip-path="url(#clip7)" role="graphics-object" aria-roledescription="line mark container"><path aria-label="Country: Mexico; Date: Mar 01, 2020; Confirmed: 5; Recovered: 0; Deaths: 0; : 0" role="graphics-symbol" aria-roledescription="line mark" d="M-521.4814814814815,266.6666666666667L-512.5925925925926,266.6666666666667L-503.70370370370375,266.6666666666667L-494.8148148148149,266.6666666666667L-485.9259259259259,266.6666666666667L-477.03703703703707,266.6666666666667L-468.14814814814815,266.6666666666667L-459.2592592592593,266.6666666666667L-450.74074074074076,266.6666666666667L-441.8518518518519,266.6666666666667L-432.962962962963,266.6666666666667L-424.0740740740741,266.6666666666667L-415.1851851851852,266.6666666666667L-406.2962962962963,266.6666666666667L-397.40740740740745,266.6666666666667L-388.51851851851853,266.6666666666667L-379.6296296296297,266.6666666666667L-370.74074074074076,266.6666666666667L-361.8518518518519,266.66424242424245L-352.962962962963,266.6618181818182L-344.07407407407413,266.6618181818182L-335.1851851851852,266.65939393939396L-326.29629629629636,266.6569696969697L-317.40740740740745,266.6545454545455L-308.5185185185186,266.65212121212124L-299.6296296296297,266.64727272727276L-290.74074074074076,266.63757575757575L-281.8518518518519,266.6278787878788L-272.96296296296293,266.6181818181818L-264.0740740740741,266.5987878787879L-255.18518518518522,266.59636363636366L-246.29629629629633,266.5769696969697L-237.40740740740742,266.54545454545456L-228.51851851851853,266.52121212121216L-219.62962962962965,266.47515151515154L-210.74074074074073,266.4387878787879L-201.85185185185185,266.3636363636364L-192.96296296296296,266.32484848484853L-184.07407407407408,266.2448484848485L-175.1851851851852,266.1963636363636L-166.2962962962963,266.1018181818182L-157.40740740740742,266.00484848484854L-148.51851851851853,265.94909090909096L-139.62962962962965,265.8618181818182L-130.74074074074073,265.68242424242425L-121.85185185185186,265.57818181818186L-112.96296296296298,265.48848484848486L-104.07407407407408,265.34303030303033L-95.18518518518519,265.0909090909091L-86.2962962962963,265.0036363636364L-77.40740740740742,264.94060606060606L-68.51851851851852,264.58909090909094L-59.62962962962963,264.3151515151515L-50.74074074074074,264.0751515151515L-41.851851851851855,263.7066666666667L-32.96296296296297,263.5030303030303L-24.074074074074076,263.3915151515152L-15.185185185185185,263.190303030303L-6.296296296296297,262.8630303030303L2.592592592592593,262.4678787878788L11.481481481481483,262.16L20.370370370370374,261.88606060606065L29.25925925925926,261.67030303030305L38.148148148148145,261.44484848484854L47.037037037037045,261.16121212121215L55.92592592592593,260.58909090909094L64.81481481481482,260.11151515151516L73.70370370370371,259.48848484848486L82.5925925925926,259.0060606060606L91.4814814814815,258.53818181818184L100.37037037037038,258.2666666666667L109.25925925925927,258.0048484848485L118.14814814814815,257.14909090909094L127.03703703703704,256.43636363636364L135.92592592592592,255.81333333333336L144.8148148148148,255.11030303030304L153.7037037037037,254.43636363636367L162.5925925925926,254.11636363636367L171.4814814814815,253.7406060606061L180.37037037037038,252.9309090909091L189.2592592592593,251.9030303030303L198.14814814814818,250.8848484848485L207.03703703703707,249.7236363636364L215.92592592592595,249.26303030303035L224.81481481481484,248.7418181818182L233.70370370370372,248.16242424242427L242.5925925925926,246.9478787878788L251.4814814814815,245.82545454545456L260.3703703703704,244.7418181818182L269.2592592592593,243.84242424242427" stroke="#b279a2" stroke-width="2" opacity="1"></path></g></g><path class="foreground" aria-hidden="true" d="" display="none"></path></g><g transform="translate(0,0)"><path class="background" aria-hidden="true" d="M0,0h266.6666666666667v266.6666666666667h-266.6666666666667Z"></path><g><g class="mark-line role-mark marks" clip-path="url(#clip8)" role="graphics-object" aria-roledescription="line mark container"><path aria-label="Country: Spain; Date: Mar 01, 2020; Confirmed: 84; Recovered: 2; Deaths: 0; : 0" role="graphics-symbol" aria-roledescription="line mark" d="M-521.4814814814815,266.6666666666667L-512.5925925925926,266.6666666666667L-503.70370370370375,266.66424242424245L-494.8148148148149,266.6618181818182L-485.9259259259259,266.65939393939396L-477.03703703703707,266.6545454545455L-468.14814814814815,266.6424242424242L-459.2592592592593,266.6254545454546L-450.74074074074076,266.5987878787879L-441.8518518518519,266.5818181818182L-432.962962962963,266.5357575757576L-424.0740740740741,266.53333333333336L-415.1851851851852,266.34424242424245L-406.2962962962963,266.1939393939394L-397.40740740740745,265.96606060606064L-388.51851851851853,265.8375757575758L-379.6296296296297,265.37454545454545L-370.74074074074076,265.15636363636366L-361.8518518518519,264.6545454545455L-352.962962962963,264.13818181818186L-344.07407407407413,263.33333333333337L-335.1851851851852,262.3709090909091L-326.29629629629636,261.0642424242425L-317.40740740740745,259.85939393939395L-308.5185185185186,257.8254545454546L-299.6296296296297,256.0848484848485L-290.74074074074076,254.2109090909091L-281.8518518518519,252.1648484848485L-272.96296296296293,250.17454545454547L-264.0740740740741,247.96121212121216L-255.18518518518522,246.1478787878788L-246.29629629629633,243.91030303030306L-237.40740740740742,241.58060606060607L-228.51851851851853,239.52L-219.62962962962965,237.70424242424244L-210.74074074074073,236.0218181818182L-201.85185185185185,234.3248484848485L-192.96296296296296,232.61818181818182L-184.07407407407408,230.80727272727273L-175.1851851851852,229.21939393939397L-166.2962962962963,227.68242424242428L-157.40740740740742,226.40969696969697L-148.51851851851853,224.9478787878788L-139.62962962962965,223.6218181818182L-130.74074074074073,222.89454545454547L-121.85185185185186,221.31393939393942L-112.96296296296298,219.84242424242424L-104.07407407407408,218.17696969696973L-95.18518518518519,218.07757575757577L-86.2962962962963,217.08363636363637L-77.40740740740742,216.11636363636364L-68.51851851851852,215.0739393939394L-59.62962962962963,214.01939393939395L-50.74074074074074,212.95272727272726L-41.851851851851855,212.0630303030303L-32.96296296296297,211.1466666666667L-24.074074074074076,210.44848484848487L-15.185185185185185,209.64606060606062L-6.296296296296297,208.91636363636363L2.592592592592593,207.81818181818184L11.481481481481483,207.16848484848487L20.370370370370374,207.16848484848487L29.25925925925926,205.81818181818184L38.148148148148145,205.42060606060608L47.037037037037045,205.0230303030303L55.92592592592593,204.57454545454547L64.81481481481482,203.98303030303032L73.70370370370371,203.4666666666667L82.5925925925926,202.91151515151518L91.4814814814815,202.47757575757578L100.37037037037038,202.1309090909091L109.25925925925927,201.83272727272728L118.14814814814815,201.40606060606063L127.03703703703704,200.96000000000004L135.92592592592592,200.4339393939394L144.8148148148148,200.09939393939396L153.7037037037037,199.84727272727275L162.5925925925926,199.84727272727275L171.4814814814815,199.49333333333334L180.37037037037038,199.32606060606062L189.2592592592593,199.05939393939397L198.14814814814818,198.93333333333334L207.03703703703707,197.26545454545453L215.92592592592595,197.14424242424244L224.81481481481484,196.96484848484852L233.70370370370372,201.61454545454546L242.5925925925926,200.92848484848486L251.4814814814815,200.92848484848486L260.3703703703704,200.92363636363638L269.2592592592593,200.9187878787879" stroke="#ff9da6" stroke-width="2" opacity="1"></path></g></g><path class="foreground" aria-hidden="true" d="" display="none"></path></g><g transform="translate(0,0)"><path class="background" aria-hidden="true" d="M0,0h266.6666666666667v266.6666666666667h-266.6666666666667Z"></path><g><g class="mark-line role-mark marks" clip-path="url(#clip9)" role="graphics-object" aria-roledescription="line mark container"><path aria-label="Country: US; Date: Mar 01, 2020; Confirmed: 74; Recovered: 7; Deaths: 1; : 1" role="graphics-symbol" aria-roledescription="line mark" d="M-521.4814814814815,266.66424242424245L-512.5925925925926,266.65212121212124L-503.70370370370375,266.649696969697L-494.8148148148149,266.64000000000004L-485.9259259259259,266.63757575757575L-477.03703703703707,266.63272727272727L-468.14814814814815,266.6254545454546L-459.2592592592593,266.6157575757576L-450.74074074074076,266.61333333333334L-441.8518518518519,266.5987878787879L-432.962962962963,266.579393939394L-424.0740740740741,266.56484848484854L-415.1851851851852,266.54545454545456L-406.2962962962963,266.52121212121216L-397.40740740740745,266.48727272727274L-388.51851851851853,266.42424242424244L-379.6296296296297,266.3418181818182L-370.74074074074076,266.2666666666667L-361.8518518518519,266.0387878787879L-352.962962962963,265.8181818181818L-344.07407407407413,265.59515151515154L-335.1851851851852,265.24363636363637L-326.29629629629636,264.7612121212121L-317.40740740740745,264.2157575757576L-308.5185185185186,263.4666666666667L-299.6296296296297,262.48242424242426L-290.74074074074076,261.1660606060606L-281.8518518518519,260.0145454545455L-272.96296296296293,258.3757575757576L-264.0740740740741,256.49454545454546L-255.18518518518522,253.65575757575758L-246.29629629629633,250.88242424242426L-237.40740740740742,247.42303030303034L-228.51851851851853,244.21818181818185L-219.62962962962965,240.31515151515154L-210.74074074074073,236.66666666666669L-201.85185185185185,232.98424242424244L-192.96296296296296,227.41575757575757L-184.07407407407408,222.3757575757576L-175.1851851851852,217.48363636363638L-166.2962962962963,212.46787878787882L-157.40740740740742,207.59757575757578L-148.51851851851853,203.4278787878788L-139.62962962962965,199.10303030303032L-130.74074074074073,193.30424242424243L-121.85185185185186,187.24848484848488L-112.96296296296298,182.19636363636366L-104.07407407407408,175.93212121212122L-95.18518518518519,170.24242424242425L-86.2962962962963,167.4060606060606L-77.40740740740742,163.18545454545458L-68.51851851851852,157.36727272727273L-59.62962962962963,151.72848484848487L-50.74074074074074,146.1236363636364L-41.851851851851855,141.83515151515152L-32.96296296296297,136.35151515151514L-24.074074074074076,133.62181818181818L-15.185185185185185,130.37818181818182L-6.296296296296297,125.20000000000002L2.592592592592593,118.86787878787878L11.481481481481483,113.9490909090909L20.370370370370374,109.22909090909091L29.25925925925926,105.77212121212122L38.148148148148145,102.58909090909091L47.037037037037045,99.58303030303033L55.92592592592593,94.39030303030304L64.81481481481482,88.5939393939394L73.70370370370371,83.24363636363636L82.5925925925926,79.56363636363638L91.4814814814815,75.64848484848484L100.37037037037038,73.87636363636364L109.25925925925927,71.0739393939394L118.14814814814815,67.01575757575759L127.03703703703704,62.741818181818175L135.92592592592592,58.42909090909092L144.8148148148148,54.472727272727276L153.7037037037037,51.50545454545454L162.5925925925926,49.54666666666666L171.4814814814815,47.64363636363637L180.37037037037038,43.82787878787878L189.2592592592593,40.1478787878788L198.14814814814818,37.0860606060606L207.03703703703707,33.99272727272728L215.92592592592595,31.306666666666654L224.81481481481484,29.7721212121212L233.70370370370372,28.559999999999995L242.5925925925926,26.880000000000003L251.4814814814815,23.23151515151517L260.3703703703704,20.324848484848495L269.2592592592593,17.432727272727266" stroke="#9d755d" stroke-width="2" opacity="1"></path></g></g><path class="foreground" aria-hidden="true" d="" display="none"></path></g><g transform="translate(0,0)"><path class="background" aria-hidden="true" d="M0,0h266.6666666666667v266.6666666666667h-266.6666666666667Z"></path><g><g class="mark-line role-mark marks" clip-path="url(#clip10)" role="graphics-object" aria-roledescription="line mark container"><path aria-label="Country: United Kingdom; Date: Mar 01, 2020; Confirmed: 36; Recovered: 8; Deaths: 0; : 0" role="graphics-symbol" aria-roledescription="line mark" d="M-521.4814814814815,266.6666666666667L-512.5925925925926,266.6666666666667L-503.70370370370375,266.6666666666667L-494.8148148148149,266.6666666666667L-485.9259259259259,266.6666666666667L-477.03703703703707,266.66424242424245L-468.14814814814815,266.6618181818182L-459.2592592592593,266.6618181818182L-450.74074074074076,266.65939393939396L-441.8518518518519,266.649696969697L-432.962962962963,266.649696969697L-424.0740740740741,266.6448484848485L-415.1851851851852,266.6424242424242L-406.2962962962963,266.5987878787879L-397.40740740740745,266.56242424242424L-388.51851851851853,266.5090909090909L-379.6296296296297,266.47030303030306L-370.74074074074076,266.3878787878788L-361.8518518518519,266.2836363636364L-352.962962962963,266.1963636363636L-344.07407407407413,266.06060606060606L-335.1851851851852,265.9757575757576L-326.29629629629636,265.79636363636365L-317.40740740740745,265.4351515151515L-308.5185185185186,264.98424242424244L-299.6296296296297,264.5406060606061L-290.74074074074076,263.85212121212123L-281.8518518518519,263.1393939393939L-272.96296296296293,262.62060606060606L-264.0740740740741,261.7139393939394L-255.18518518518522,260.7878787878788L-246.29629629629633,259.1636363636364L-237.40740740740742,257.5830303030303L-228.51851851851853,255.8521212121212L-219.62962962962965,254.009696969697L-210.74074074074073,252.44848484848487L-201.85185185185185,251.07151515151517L-192.96296296296296,248.55515151515155L-184.07407407407408,246.04848484848486L-175.1851851851852,243.37454545454548L-166.2962962962963,240.5818181818182L-157.40740740740742,238.5478787878788L-148.51851851851853,236.8848484848485L-139.62962962962965,235.08121212121213L-130.74074074074073,232.55030303030304L-121.85185185185186,230.50909090909093L-112.96296296296298,228.0145454545455L-104.07407407407408,225.7478787878788L-95.18518518518519,223.0448484848485L-86.2962962962963,221.8375757575758L-77.40740740740742,220.48242424242426L-68.51851851851852,217.64121212121213L-59.62962962962963,215.61212121212122L-50.74074074074074,213.849696969697L-41.851851851851855,211.41333333333333L-32.96296296296297,209.36969696969697L-24.074074074074076,208.35151515151517L-15.185185185185185,207.53212121212124L-6.296296296296297,205.32848484848486L2.592592592592593,203.40121212121213L11.481481481481483,201.76727272727274L20.370370370370374,199.97575757575757L29.25925925925926,198.47030303030303L38.148148148148145,197.7066666666667L47.037037037037045,197.00848484848487L55.92592592592593,195.32848484848486L64.81481481481482,193.75515151515154L73.70370370370371,192.44848484848487L82.5925925925926,190.93090909090913L91.4814814814815,190.09212121212124L100.37037037037038,189.44242424242427L109.25925925925927,188.93333333333337L118.14814814814815,187.41333333333336L127.03703703703704,186.2157575757576L135.92592592592592,185.17818181818183L144.8148148148148,184.24727272727273L153.7037037037037,183.1127272727273L162.5925925925926,182.7006060606061L171.4814814814815,182.31272727272727L180.37037037037038,180.99151515151516L189.2592592592593,180.11151515151516L198.14814814814818,179.29212121212123L207.03703703703707,178.44121212121212L215.92592592592595,177.75757575757575L224.81481481481484,177.47151515151518L233.70370370370372,177.17818181818183L242.5925925925926,176.85333333333335L251.4814814814815,175.85454545454547L260.3703703703704,174.94060606060606L269.2592592592593,174.15515151515154" stroke="#bab0ac" stroke-width="2" opacity="1"></path></g></g><path class="foreground" aria-hidden="true" d="" display="none"></path></g></g><g class="mark-group role-legend" role="graphics-symbol" aria-roledescription="legend" aria-label="Symbol legend for stroke color with 10 values: Belgium, Brazil, France, Germany, Iran, ending with United Kingdom"><g transform="translate(285,0)"><path class="background" aria-hidden="true" d="M0,0h79v128h-79Z" pointer-events="none"></path><g><g class="mark-group role-legend-entry"><g transform="translate(0,0)"><path class="background" aria-hidden="true" d="M0,0h0v0h0Z" pointer-events="none"></path><g><g class="mark-group role-scope Country_legend_entries" role="graphics-object" aria-roledescription="group mark container"><g transform="translate(0,0)"><path class="background" aria-hidden="true" d="M0,0h79v11h-79Z" opacity="1"></path><g><g class="mark-symbol role-legend-symbol Country_legend_symbols"><path transform="translate(6,6)" d="M-5,0L5,0" stroke="#4c78a8" stroke-width="1.5" opacity="1"></path></g><g class="mark-text role-legend-label Country_legend_labels"><text text-anchor="start" transform="translate(16,9)" font-family="Roboto Condensed" font-size="10px" fill="#000" opacity="1">Belgium</text></g></g><path class="foreground" aria-hidden="true" d="" display="none"></path></g><g transform="translate(0,13)"><path class="background" aria-hidden="true" d="M0,0h79v11h-79Z" opacity="1"></path><g><g class="mark-symbol role-legend-symbol Country_legend_symbols"><path transform="translate(6,6)" d="M-5,0L5,0" stroke="#f58518" stroke-width="1.5" opacity="1"></path></g><g class="mark-text role-legend-label Country_legend_labels"><text text-anchor="start" transform="translate(16,9)" font-family="Roboto Condensed" font-size="10px" fill="#000" opacity="1">Brazil</text></g></g><path class="foreground" aria-hidden="true" d="" display="none"></path></g><g transform="translate(0,26)"><path class="background" aria-hidden="true" d="M0,0h79v11h-79Z" opacity="1"></path><g><g class="mark-symbol role-legend-symbol Country_legend_symbols"><path transform="translate(6,6)" d="M-5,0L5,0" stroke="#e45756" stroke-width="1.5" opacity="1"></path></g><g class="mark-text role-legend-label Country_legend_labels"><text text-anchor="start" transform="translate(16,9)" font-family="Roboto Condensed" font-size="10px" fill="#000" opacity="1">France</text></g></g><path class="foreground" aria-hidden="true" d="" display="none"></path></g><g transform="translate(0,39)"><path class="background" aria-hidden="true" d="M0,0h79v11h-79Z" opacity="1"></path><g><g class="mark-symbol role-legend-symbol Country_legend_symbols"><path transform="translate(6,6)" d="M-5,0L5,0" stroke="#72b7b2" stroke-width="1.5" opacity="1"></path></g><g class="mark-text role-legend-label Country_legend_labels"><text text-anchor="start" transform="translate(16,9)" font-family="Roboto Condensed" font-size="10px" fill="#000" opacity="1">Germany</text></g></g><path class="foreground" aria-hidden="true" d="" display="none"></path></g><g transform="translate(0,52)"><path class="background" aria-hidden="true" d="M0,0h79v11h-79Z" opacity="1"></path><g><g class="mark-symbol role-legend-symbol Country_legend_symbols"><path transform="translate(6,6)" d="M-5,0L5,0" stroke="#54a24b" stroke-width="1.5" opacity="1"></path></g><g class="mark-text role-legend-label Country_legend_labels"><text text-anchor="start" transform="translate(16,9)" font-family="Roboto Condensed" font-size="10px" fill="#000" opacity="1">Iran</text></g></g><path class="foreground" aria-hidden="true" d="" display="none"></path></g><g transform="translate(0,65)"><path class="background" aria-hidden="true" d="M0,0h79v11h-79Z" opacity="1"></path><g><g class="mark-symbol role-legend-symbol Country_legend_symbols"><path transform="translate(6,6)" d="M-5,0L5,0" stroke="#eeca3b" stroke-width="1.5" opacity="1"></path></g><g class="mark-text role-legend-label Country_legend_labels"><text text-anchor="start" transform="translate(16,9)" font-family="Roboto Condensed" font-size="10px" fill="#000" opacity="1">Italy</text></g></g><path class="foreground" aria-hidden="true" d="" display="none"></path></g><g transform="translate(0,78)"><path class="background" aria-hidden="true" d="M0,0h79v11h-79Z" opacity="1"></path><g><g class="mark-symbol role-legend-symbol Country_legend_symbols"><path transform="translate(6,6)" d="M-5,0L5,0" stroke="#b279a2" stroke-width="1.5" opacity="1"></path></g><g class="mark-text role-legend-label Country_legend_labels"><text text-anchor="start" transform="translate(16,9)" font-family="Roboto Condensed" font-size="10px" fill="#000" opacity="1">Mexico</text></g></g><path class="foreground" aria-hidden="true" d="" display="none"></path></g><g transform="translate(0,91)"><path class="background" aria-hidden="true" d="M0,0h79v11h-79Z" opacity="1"></path><g><g class="mark-symbol role-legend-symbol Country_legend_symbols"><path transform="translate(6,6)" d="M-5,0L5,0" stroke="#ff9da6" stroke-width="1.5" opacity="1"></path></g><g class="mark-text role-legend-label Country_legend_labels"><text text-anchor="start" transform="translate(16,9)" font-family="Roboto Condensed" font-size="10px" fill="#000" opacity="1">Spain</text></g></g><path class="foreground" aria-hidden="true" d="" display="none"></path></g><g transform="translate(0,104)"><path class="background" aria-hidden="true" d="M0,0h79v11h-79Z" opacity="1"></path><g><g class="mark-symbol role-legend-symbol Country_legend_symbols"><path transform="translate(6,6)" d="M-5,0L5,0" stroke="#9d755d" stroke-width="1.5" opacity="1"></path></g><g class="mark-text role-legend-label Country_legend_labels"><text text-anchor="start" transform="translate(16,9)" font-family="Roboto Condensed" font-size="10px" fill="#000" opacity="1">US</text></g></g><path class="foreground" aria-hidden="true" d="" display="none"></path></g><g transform="translate(0,117)"><path class="background" aria-hidden="true" d="M0,0h79v11h-79Z" opacity="1"></path><g><g class="mark-symbol role-legend-symbol Country_legend_symbols"><path transform="translate(6,6)" d="M-5,0L5,0" stroke="#bab0ac" stroke-width="1.5" opacity="1"></path></g><g class="mark-text role-legend-label Country_legend_labels"><text text-anchor="start" transform="translate(16,9)" font-family="Roboto Condensed" font-size="10px" fill="#000" opacity="1">United Kingdom</text></g></g><path class="foreground" aria-hidden="true" d="" display="none"></path></g></g></g><path class="foreground" aria-hidden="true" d="" pointer-events="none" display="none"></path></g></g></g><path class="foreground" aria-hidden="true" d="" pointer-events="none" display="none"></path></g></g><g class="mark-group role-title"><g transform="translate(133.33333333333334,-17)"><path class="background" aria-hidden="true" d="M0,0h0v0h0Z" pointer-events="none"></path><g><g class="mark-text role-title-text" role="graphics-symbol" aria-roledescription="title" aria-label="Title text 'Deaths (total)'" pointer-events="none"><text text-anchor="middle" transform="translate(0,10)" font-family="Roboto Condensed" font-size="13px" font-weight="normal" fill="#000" opacity="1">Deaths (total)</text></g></g><path class="foreground" aria-hidden="true" d="" pointer-events="none" display="none"></path></g></g></g><path class="foreground" aria-hidden="true" d="" display="none"></path></g></g></g></svg>