<svg class="marks" width="600" height="276" viewBox="0 0 600 276" version="1.1" xmlns="http://www.w3.org/2000/svg" xmlns:xlink="http://www.w3.org/1999/xlink"><defs><clipPath id="clip1"><rect x="0" y="0" width="200" height="200"></rect></clipPath><clipPath id="clip2"><rect x="0" y="0" width="200" height="200"></rect></clipPath><clipPath id="clip3"><rect x="0" y="0" width="200" height="200"></rect></clipPath><clipPath id="clip4"><rect x="0" y="0" width="200" height="200"></rect></clipPath><clipPath id="clip5"><rect x="0" y="0" width="200" height="200"></rect></clipPath><clipPath id="clip6"><rect x="0" y="0" width="200" height="200"></rect></clipPath><clipPath id="clip7"><rect x="0" y="0" width="200" height="200"></rect></clipPath><clipPath id="clip8"><rect x="0" y="0" width="200" height="200"></rect></clipPath><clipPath id="clip9"><rect x="0" y="0" width="200" height="200"></rect></clipPath></defs><rect width="600" height="276" fill="white"></rect><g fill="none" stroke-miterlimit="10" transform="translate(50,44)"><g class="mark-group role-frame root" role="graphics-object" aria-roledescription="group mark container"><g transform="translate(0,0)"><path class="background" aria-hidden="true" d="M0,0h0v200h0Z"></path><g><g class="mark-group role-scope concat_0_group" role="graphics-object" aria-roledescription="group mark container"><g transform="translate(0,0)"><path class="background" aria-hidden="true" d="M0,0h200v200h-200Z" stroke="#ddd" stroke-width="0"></path><g><g class="mark-group role-axis" aria-hidden="true"><g transform="translate(0.5,0.5)"><path class="background" aria-hidden="true" d="M0,0h0v0h0Z" pointer-events="none"></path><g><g class="mark-rule role-axis-grid" pointer-events="none"><line transform="translate(0,180)" x2="200" y2="0" stroke="#ddd" stroke-width="1" opacity="1"></line><line transform="translate(0,140)" x2="200" y2="0" stroke="#ddd" stroke-width="1" opacity="1"></line><line transform="translate(0,100)" x2="200" y2="0" stroke="#ddd" stroke-width="1" opacity="1"></line><line transform="translate(0,60)" x2="200" y2="0" stroke="#ddd" stroke-width="1" opacity="1"></line><line transform="translate(0,20)" x2="200" y2="0" stroke="#ddd" stroke-width="1" opacity="1"></line></g></g><path class="foreground" aria-hidden="true" d="" pointer-events="none" display="none"></path></g></g><g class="mark-group role-axis" role="graphics-symbol" aria-roledescription="axis" aria-label="X-axis titled 'Date' for a time scale with values from April 28 to May 28"><g transform="translate(0.5,200.5)"><path class="background" aria-hidden="true" d="M0,0h0v0h0Z" pointer-events="none"></path><g><g class="mark-text role-axis-label" pointer-events="none"><text text-anchor="middle" transform="translate(28.61111111111111,10)" font-family="Roboto Condensed" font-size="10px" fill="#000" opacity="1">May 03</text><text text-anchor="middle" transform="translate(75.27777777777777,10)" font-family="Roboto Condensed" font-size="10px" fill="#000" opacity="1">May 10</text><text text-anchor="middle" transform="translate(121.94444444444446,10)" font-family="Roboto Condensed" font-size="10px" fill="#000" opacity="1">May 17</text><text text-anchor="middle" transform="translate(168.61111111111111,10)" font-family="Roboto Condensed" font-size="10px" fill="#000" opacity="1">May 24</text></g><g class="mark-rule role-axis-domain" pointer-events="none"><line transform="translate(0,0)" x2="200" y2="0" stroke="lightgray" stroke-width="1" opacity="1"></line></g><g class="mark-text role-axis-title" pointer-events="none"><text text-anchor="middle" transform="translate(100,25)" font-family="Roboto Condensed" font-size="11px" font-weight="normal" fill="#000" opacity="1">Date</text></g></g><path class="foreground" aria-hidden="true" d="" pointer-events="none" display="none"></path></g></g><g class="mark-group role-axis" role="graphics-symbol" aria-roledescription="axis" aria-label="Y-axis titled 'Count' for a linear scale with values from -100 to 900"><g transform="translate(0.5,0.5)"><path class="background" aria-hidden="true" d="M0,0h0v0h0Z" pointer-events="none"></path><g><g class="mark-text role-axis-label" pointer-events="none"><text text-anchor="end" transform="translate(-2,183)" font-family="Roboto Condensed" font-size="10px" fill="#000" opacity="1">0</text><text text-anchor="end" transform="translate(-2,143)" font-family="Roboto Condensed" font-size="10px" fill="#000" opacity="1">200</text><text text-anchor="end" transform="translate(-2,103)" font-family="Roboto Condensed" font-size="10px" fill="#000" opacity="1">400</text><text text-anchor="end" transform="translate(-2,63.00000000000001)" font-family="Roboto Condensed" font-size="10px" fill="#000" opacity="1">600</text><text text-anchor="end" transform="translate(-2,22.999999999999996)" font-family="Roboto Condensed" font-size="10px" fill="#000" opacity="1">800</text></g><g class="mark-rule role-axis-domain" pointer-events="none"><line transform="translate(0,200)" x2="0" y2="-200" stroke="lightgray" stroke-width="1" opacity="1"></line></g><g class="mark-text role-axis-title" pointer-events="none"><text text-anchor="start" transform="translate(-45,-13)" font-family="Roboto Condensed" font-size="11px" font-weight="normal" fill="#000" opacity="1">Count</text></g></g><path class="foreground" aria-hidden="true" d="" pointer-events="none" display="none"></path></g></g><g class="mark-group role-scope concat_0_layer_0_pathgroup" role="graphics-object" aria-roledescription="group mark container"><g transform="translate(0,0)"><path class="background" aria-hidden="true" d="M0,0h200v200h-200Z"></path><g><g class="mark-line role-mark concat_0_layer_0_marks" clip-path="url(#clip1)" role="graphics-object" aria-roledescription="line mark container"><path aria-label="Type: Recovered; Date: Mar 01; Count: 0" role="graphics-symbol" aria-roledescription="line mark" d="M-391.1111111111111,180L-384.44444444444446,180L-377.77777777777777,180L-371.11111111111114,180L-364.44444444444446,180L-357.77777777777777,179.8L-351.1111111111111,180L-344.44444444444446,180L-338.05555555555554,180L-331.3888888888889,180L-324.72222222222223,180L-318.05555555555554,180L-311.3888888888889,180L-304.72222222222223,180L-298.05555555555554,180L-291.38888888888886,180L-284.72222222222223,180L-278.05555555555554,180L-271.3888888888889,180L-264.72222222222223,180L-258.05555555555554,180L-251.38888888888889,180L-244.72222222222223,180L-238.05555555555554,180L-231.3888888888889,180L-224.72222222222223,180L-218.05555555555554,180L-211.38888888888889,180L-204.7222222222222,180L-198.05555555555557,180L-191.38888888888889,180L-184.72222222222223,1.4000000000000012L-178.05555555555554,141L-171.38888888888889,159.20000000000002L-164.72222222222223,162L-158.05555555555554,171.2L-151.38888888888889,169.79999999999998L-144.72222222222223,157.4L-138.05555555555554,154L-131.38888888888889,157L-124.72222222222223,172.6L-118.05555555555556,143.6L-111.38888888888889,146.4L-104.72222222222223,157.6L-98.05555555555556,124L-91.38888888888889,133.4L-84.72222222222221,125L-78.05555555555556,106.80000000000001L-71.38888888888889,88.39999999999999L-64.72222222222223,121.2L-58.05555555555556,145.79999999999998L-51.388888888888886,102.4L-44.72222222222222,102.60000000000001L-38.05555555555556,120.6L-31.38888888888889,151.6L-24.72222222222222,151.4L-18.055555555555554,152.8L-11.38888888888889,149.2L-4.722222222222222,147.6L1.9444444444444444,131L8.61111111111111,144L15.277777777777779,143.4L21.944444444444443,148L28.61111111111111,160.4L35.27777777777778,159.79999999999998L41.94444444444444,138.39999999999998L48.61111111111111,140.60000000000002L55.27777777777778,136.39999999999998L61.94444444444444,136.79999999999998L68.61111111111111,146.8L75.27777777777777,155.20000000000002L81.94444444444444,157.8L88.61111111111111,129.6L95.27777777777777,163.39999999999998L101.94444444444444,151.6L108.6111111111111,149.2L115.27777777777777,150.4L121.94444444444446,156L128.61111111111111,165.20000000000002L135.27777777777777,157L141.94444444444446,156L148.61111111111111,158.6L155.27777777777777,155.8L161.94444444444446,165.60000000000002L168.61111111111111,167.2L175.27777777777777,167.2L181.94444444444443,164L188.61111111111111,167.6L195.27777777777777,165.20000000000002L201.94444444444443,168" stroke="#e45756" stroke-width="2" opacity="0.2"></path></g></g><path class="foreground" aria-hidden="true" d="" display="none"></path></g><g transform="translate(0,0)"><path class="background" aria-hidden="true" d="M0,0h200v200h-200Z"></path><g><g class="mark-line role-mark concat_0_layer_0_marks" clip-path="url(#clip2)" role="graphics-object" aria-roledescription="line mark container"><path aria-label="Type: Deaths; Date: Mar 01; Count: 0" role="graphics-symbol" aria-roledescription="line mark" d="M-391.1111111111111,180L-384.44444444444446,180L-377.77777777777777,180L-371.11111111111114,180L-364.44444444444446,180L-357.77777777777777,180L-351.1111111111111,180L-344.44444444444446,180L-338.05555555555554,180L-331.3888888888889,180L-324.72222222222223,180L-318.05555555555554,180L-311.3888888888889,180L-304.72222222222223,179.8L-298.05555555555554,179.8L-291.38888888888886,179.8L-284.72222222222223,179.8L-278.05555555555554,180L-271.3888888888889,179.6L-264.72222222222223,179.4L-258.05555555555554,179.20000000000002L-251.38888888888889,180L-244.72222222222223,177.8L-238.05555555555554,178.4L-231.3888888888889,179.6L-224.72222222222223,178.6L-218.05555555555554,177.8L-211.38888888888889,177.4L-204.7222222222222,178.6L-198.05555555555557,179L-191.38888888888889,177.4L-184.72222222222223,177.2L-178.05555555555554,176.2L-171.38888888888889,176.8L-164.72222222222223,175.6L-158.05555555555554,176.4L-151.38888888888889,178.4L-144.72222222222223,176.8L-138.05555555555554,177L-131.38888888888889,176.2L-124.72222222222223,178L-118.05555555555556,177.4L-111.38888888888889,177.4L-104.72222222222223,177.6L-98.05555555555556,177.2L-91.38888888888889,178L-84.72222222222221,177.6L-78.05555555555556,177L-71.38888888888889,178L-64.72222222222223,178.2L-58.05555555555556,178.2L-51.388888888888886,178.8L-44.72222222222222,177.2L-38.05555555555556,178L-31.38888888888889,178.2L-24.72222222222222,177L-18.055555555555554,179.20000000000002L-11.38888888888889,179L-4.722222222222222,178.6L1.9444444444444444,178.2L8.61111111111111,178.2L15.277777777777779,178.4L21.944444444444443,177L28.61111111111111,178.2L35.27777777777778,178.2L41.94444444444444,178L48.61111111111111,179.4L55.27777777777778,178.4L61.94444444444444,178.4L68.61111111111111,179.20000000000002L75.27777777777777,179.4L81.94444444444444,179.20000000000002L88.61111111111111,181.20000000000002L95.27777777777777,178.8L101.94444444444444,179.20000000000002L108.6111111111111,180L115.27777777777777,178.8L121.94444444444446,179.20000000000002L128.61111111111111,179.8L135.27777777777777,179.4L141.94444444444446,179.4L148.61111111111111,178.6L155.27777777777777,180L161.94444444444446,180L168.61111111111111,179.8L175.27777777777777,179.8L181.94444444444443,180L188.61111111111111,179.6L195.27777777777777,179.4L201.94444444444443,180" stroke="#f58518" stroke-width="2" opacity="0.2"></path></g></g><path class="foreground" aria-hidden="true" d="" display="none"></path></g><g transform="translate(0,0)"><path class="background" aria-hidden="true" d="M0,0h200v200h-200Z"></path><g><g class="mark-line role-mark concat_0_layer_0_marks" clip-path="url(#clip3)" role="graphics-object" aria-roledescription="line mark container"><path aria-label="Type: Confirmed; Date: Mar 01; Count: 1" role="graphics-symbol" aria-roledescription="line mark" d="M-391.1111111111111,179.8L-384.44444444444446,180L-377.77777777777777,179.6L-371.11111111111114,179.20000000000002L-364.44444444444446,180L-357.77777777777777,177.4L-351.1111111111111,180L-344.44444444444446,177.6L-338.05555555555554,169L-331.3888888888889,145.6L-324.72222222222223,144L-318.05555555555554,145.4L-311.3888888888889,142.79999999999998L-304.72222222222223,174.8L-298.05555555555554,172.6L-291.38888888888886,170L-284.72222222222223,167.4L-278.05555555555554,164L-271.3888888888889,161.20000000000002L-264.72222222222223,159.20000000000002L-258.05555555555554,165.79999999999998L-251.38888888888889,166.2L-244.72222222222223,169L-238.05555555555554,151.8L-231.3888888888889,153.4L-224.72222222222223,149.4L-218.05555555555554,146.2L-211.38888888888889,149L-204.7222222222222,141.2L-198.05555555555557,143.6L-191.38888888888889,123.4L-184.72222222222223,130.6L-178.05555555555554,124.2L-171.38888888888889,105.80000000000001L-164.72222222222223,116.00000000000001L-158.05555555555554,121.6L-151.38888888888889,117.60000000000002L-144.72222222222223,102L-138.05555555555554,113.79999999999998L-131.38888888888889,133.4L-124.72222222222223,143.2L-118.05555555555556,144.6L-111.38888888888889,144.4L-104.72222222222223,151.2L-98.05555555555556,141.4L-91.38888888888889,146L-84.72222222222221,140.39999999999998L-78.05555555555556,141.2L-71.38888888888889,146.2L-64.72222222222223,151.6L-58.05555555555556,153.8L-51.388888888888886,144L-44.72222222222222,136.60000000000002L-38.05555555555556,147.8L-31.38888888888889,152.6L-24.72222222222222,133L-18.055555555555554,154L-11.38888888888889,155.4L-4.722222222222222,149.4L1.9444444444444444,148.6L8.61111111111111,150L15.277777777777779,149.4L21.944444444444443,160.8L28.61111111111111,156.8L35.27777777777778,150.6L41.94444444444444,149.8L48.61111111111111,156.6L55.27777777777778,151L61.94444444444444,153L68.61111111111111,159.79999999999998L75.27777777777777,158L81.94444444444444,163.20000000000002L88.61111111111111,164.4L95.27777777777777,164.8L101.94444444444444,170.79999999999998L108.6111111111111,164.4L115.27777777777777,166.6L121.94444444444446,166.2L128.61111111111111,171.8L135.27777777777777,164.8L141.94444444444446,165.39999999999998L148.61111111111111,167L155.27777777777777,170.4L161.94444444444446,168.2L168.61111111111111,165.79999999999998L175.27777777777777,174.6L181.94444444444443,171.8L188.61111111111111,169.6L195.27777777777777,173.6L201.94444444444443,163.79999999999998" stroke="#4c78a8" stroke-width="2" opacity="0.2"></path></g></g><path class="foreground" aria-hidden="true" d="" display="none"></path></g></g><g class="mark-group role-scope concat_0_layer_1_pathgroup" role="graphics-object" aria-roledescription="group mark container"><g transform="translate(0,0)"><path class="background" aria-hidden="true" d="M0,0h200v200h-200Z"></path><g><g class="mark-line role-mark concat_0_layer_1_marks" clip-path="url(#clip4)" role="graphics-object" aria-roledescription="line mark container"><path aria-label="Type: Recovered; Date: Mar 01; Count: 0" role="graphics-symbol" aria-roledescription="line mark" d="M-351.1111111111111,179.9714285714286L-344.44444444444446,179.9714285714286L-338.05555555555554,179.9714285714286L-331.3888888888889,179.9714285714286L-324.72222222222223,179.9714285714286L-318.05555555555554,179.9714285714286L-311.3888888888889,180L-304.72222222222223,180L-298.05555555555554,180L-291.38888888888886,180L-284.72222222222223,180L-278.05555555555554,180L-271.3888888888889,180L-264.72222222222223,180L-258.05555555555554,180L-251.38888888888889,180L-244.72222222222223,180L-238.05555555555554,180L-231.3888888888889,180L-224.72222222222223,180L-218.05555555555554,180L-211.38888888888889,180L-204.7222222222222,180L-198.05555555555557,180L-191.38888888888889,180L-184.72222222222223,154.4857142857143L-178.05555555555554,148.91428571428574L-171.38888888888889,145.94285714285715L-164.72222222222223,143.37142857142857L-158.05555555555554,142.11428571428573L-151.38888888888889,140.65714285714284L-144.72222222222223,137.42857142857142L-138.05555555555554,159.22857142857143L-131.38888888888889,161.51428571428573L-124.72222222222223,163.42857142857144L-118.05555555555556,160.8L-111.38888888888889,157.25714285714284L-104.72222222222223,155.5142857142857L-98.05555555555556,150.74285714285716L-91.38888888888889,147.8L-84.72222222222221,143.22857142857143L-78.05555555555556,133.82857142857142L-71.38888888888889,125.94285714285714L-64.72222222222223,122.34285714285713L-58.05555555555556,120.65714285714284L-51.388888888888886,117.57142857142857L-44.72222222222222,113.17142857142856L-38.05555555555556,112.54285714285714L-31.38888888888889,118.94285714285715L-24.72222222222222,127.94285714285714L-18.055555555555554,132.45714285714286L-11.38888888888889,132.94285714285715L-4.722222222222222,139.4L1.9444444444444444,143.45714285714286L8.61111111111111,146.8L15.277777777777779,145.6285714285714L21.944444444444443,145.14285714285714L28.61111111111111,146.22857142857143L35.27777777777778,147.74285714285713L41.94444444444444,146.42857142857142L48.61111111111111,147.8L55.27777777777778,146.71428571428572L61.94444444444444,145.77142857142857L68.61111111111111,145.6L75.27777777777777,144.85714285714283L81.94444444444444,144.57142857142858L88.61111111111111,143.31428571428572L95.27777777777777,146.57142857142858L101.94444444444444,148.74285714285716L108.6111111111111,150.5142857142857L115.27777777777777,151.0285714285714L121.94444444444446,151.14285714285717L128.61111111111111,152.2L135.27777777777777,156.11428571428573L141.94444444444446,155.05714285714285L148.61111111111111,156.05714285714285L155.27777777777777,157L161.94444444444446,159.17142857142858L168.61111111111111,160.77142857142857L175.27777777777777,161.05714285714285L181.94444444444443,162.05714285714285L188.61111111111111,163.7142857142857L195.27777777777777,164.65714285714284L201.94444444444443,166.4" stroke="#e45756" stroke-width="2" opacity="1"></path></g></g><path class="foreground" aria-hidden="true" d="" display="none"></path></g><g transform="translate(0,0)"><path class="background" aria-hidden="true" d="M0,0h200v200h-200Z"></path><g><g class="mark-line role-mark concat_0_layer_1_marks" clip-path="url(#clip5)" role="graphics-object" aria-roledescription="line mark container"><path aria-label="Type: Deaths; Date: Mar 01; Count: 0" role="graphics-symbol" aria-roledescription="line mark" d="M-351.1111111111111,180L-344.44444444444446,180L-338.05555555555554,180L-331.3888888888889,180L-324.72222222222223,180L-318.05555555555554,180L-311.3888888888889,180L-304.72222222222223,179.9714285714286L-298.05555555555554,179.94285714285715L-291.38888888888886,179.9142857142857L-284.72222222222223,179.8857142857143L-278.05555555555554,179.8857142857143L-271.3888888888889,179.82857142857142L-264.72222222222223,179.74285714285713L-258.05555555555554,179.65714285714287L-251.38888888888889,179.68571428571428L-244.72222222222223,179.4L-238.05555555555554,179.20000000000002L-231.3888888888889,179.14285714285714L-224.72222222222223,179L-218.05555555555554,178.77142857142857L-211.38888888888889,178.5142857142857L-204.7222222222222,178.31428571428572L-198.05555555555557,178.4857142857143L-191.38888888888889,178.34285714285713L-184.72222222222223,178L-178.05555555555554,177.65714285714287L-171.38888888888889,177.5142857142857L-164.72222222222223,177.25714285714287L-158.05555555555554,176.94285714285712L-151.38888888888889,176.85714285714286L-144.72222222222223,176.77142857142857L-138.05555555555554,176.74285714285713L-131.38888888888889,176.74285714285713L-124.72222222222223,176.9142857142857L-118.05555555555556,177.17142857142858L-111.38888888888889,177.31428571428572L-104.72222222222223,177.2L-98.05555555555556,177.25714285714287L-91.38888888888889,177.4L-84.72222222222221,177.6L-78.05555555555556,177.45714285714286L-71.38888888888889,177.54285714285714L-64.72222222222223,177.65714285714287L-58.05555555555556,177.74285714285713L-51.388888888888886,177.9714285714286L-44.72222222222222,177.85714285714283L-38.05555555555556,177.9142857142857L-31.38888888888889,178.0857142857143L-24.72222222222222,177.94285714285712L-18.055555555555554,178.0857142857143L-11.38888888888889,178.2L-4.722222222222222,178.17142857142858L1.9444444444444444,178.31428571428572L8.61111111111111,178.34285714285713L15.277777777777779,178.37142857142857L21.944444444444443,178.37142857142857L28.61111111111111,178.22857142857143L35.27777777777778,178.1142857142857L41.94444444444444,178.0285714285714L48.61111111111111,178.2L55.27777777777778,178.22857142857143L61.94444444444444,178.22857142857143L68.61111111111111,178.54285714285714L75.27777777777777,178.71428571428572L81.94444444444444,178.85714285714286L88.61111111111111,179.31428571428572L95.27777777777777,179.22857142857143L101.94444444444444,179.34285714285713L108.6111111111111,179.57142857142858L115.27777777777777,179.5142857142857L121.94444444444446,179.4857142857143L128.61111111111111,179.57142857142858L135.27777777777777,179.31428571428572L141.94444444444446,179.4L148.61111111111111,179.31428571428572L155.27777777777777,179.31428571428572L161.94444444444446,179.4857142857143L168.61111111111111,179.57142857142858L175.27777777777777,179.57142857142858L181.94444444444443,179.65714285714287L188.61111111111111,179.68571428571428L195.27777777777777,179.8L201.94444444444443,179.8" stroke="#f58518" stroke-width="2" opacity="1"></path></g></g><path class="foreground" aria-hidden="true" d="" display="none"></path></g><g transform="translate(0,0)"><path class="background" aria-hidden="true" d="M0,0h200v200h-200Z"></path><g><g class="mark-line role-mark concat_0_layer_1_marks" clip-path="url(#clip6)" role="graphics-object" aria-roledescription="line mark container"><path aria-label="Type: Confirmed; Date: Mar 01; Count: 0" role="graphics-symbol" aria-roledescription="line mark" d="M-351.1111111111111,179.42857142857142L-344.44444444444446,179.11428571428573L-338.05555555555554,177.54285714285714L-331.3888888888889,172.68571428571428L-324.72222222222223,167.65714285714287L-318.05555555555554,162.71428571428572L-311.3888888888889,157.77142857142857L-304.72222222222223,157.02857142857144L-298.05555555555554,156.31428571428572L-291.38888888888886,156.45714285714286L-284.72222222222223,159.57142857142856L-278.05555555555554,162.42857142857144L-271.3888888888889,164.68571428571428L-264.72222222222223,167.02857142857144L-258.05555555555554,165.74285714285713L-251.38888888888889,164.82857142857142L-244.72222222222223,164.68571428571428L-238.05555555555554,162.45714285714286L-231.3888888888889,160.94285714285715L-224.72222222222223,159.25714285714287L-218.05555555555554,157.4L-211.38888888888889,155L-204.7222222222222,151.42857142857142L-198.05555555555557,147.8L-191.38888888888889,143.74285714285716L-184.72222222222223,140.48571428571427L-178.05555555555554,136.88571428571427L-171.38888888888889,131.11428571428573L-164.72222222222223,126.4L-158.05555555555554,123.6L-151.38888888888889,119.88571428571429L-144.72222222222223,116.82857142857144L-138.05555555555554,114.42857142857143L-131.38888888888889,115.74285714285715L-124.72222222222223,121.08571428571429L-118.05555555555556,125.17142857142858L-111.38888888888889,128.42857142857142L-104.72222222222223,133.22857142857143L-98.05555555555556,138.85714285714286L-91.38888888888889,143.45714285714286L-84.72222222222221,144.45714285714283L-78.05555555555556,144.17142857142858L-71.38888888888889,144.4L-64.72222222222223,145.42857142857142L-58.05555555555556,145.79999999999998L-51.388888888888886,146.17142857142858L-44.72222222222222,144.82857142857142L-38.05555555555556,145.88571428571427L-31.38888888888889,147.5142857142857L-24.72222222222222,145.6285714285714L-18.055555555555554,145.97142857142856L-11.38888888888889,146.2L-4.722222222222222,146.9714285714286L1.9444444444444444,148.68571428571428L8.61111111111111,149L15.277777777777779,148.54285714285714L21.944444444444443,152.5142857142857L28.61111111111111,152.9142857142857L35.27777777777778,152.22857142857143L41.94444444444444,152.28571428571428L48.61111111111111,153.42857142857142L55.27777777777778,153.57142857142856L61.94444444444444,154.0857142857143L68.61111111111111,153.94285714285715L75.27777777777777,154.11428571428573L81.94444444444444,155.9142857142857L88.61111111111111,158L95.27777777777777,159.17142857142858L101.94444444444444,162L108.6111111111111,163.62857142857143L115.27777777777777,164.6L121.94444444444446,165.77142857142857L128.61111111111111,167L135.27777777777777,167.05714285714285L141.94444444444446,167.14285714285714L148.61111111111111,166.6L155.27777777777777,167.45714285714286L161.94444444444446,167.68571428571428L168.61111111111111,167.6285714285714L175.27777777777777,168.0285714285714L181.94444444444443,169.02857142857144L188.61111111111111,169.6285714285714L195.27777777777777,170.57142857142858L201.94444444444443,169.6285714285714" stroke="#4c78a8" stroke-width="2" opacity="1"></path></g></g><path class="foreground" aria-hidden="true" d="" display="none"></path></g></g><g class="mark-group role-title"><g transform="translate(100,-39)"><path class="background" aria-hidden="true" d="M0,0h0v0h0Z" pointer-events="none"></path><g><g class="mark-text role-title-text" role="graphics-symbol" aria-roledescription="title" aria-label="Title text '7-day average (Daily values in light color)'" pointer-events="none"><text text-anchor="middle" transform="translate(0,10)" font-family="Roboto Condensed" font-size="13px" font-weight="normal" fill="#000" opacity="1">7-day average (Daily values in light color)</text></g></g><path class="foreground" aria-hidden="true" d="" pointer-events="none" display="none"></path></g></g></g><path class="foreground" aria-hidden="true" d="" display="none"></path></g></g><g class="mark-group role-scope concat_1_group" role="graphics-object" aria-roledescription="group mark container"><g transform="translate(269,0)"><path class="background" aria-hidden="true" d="M0,0h200v200h-200Z" stroke="#ddd" stroke-width="0"></path><g><g class="mark-group role-axis" aria-hidden="true"><g transform="translate(0.5,0.5)"><path class="background" aria-hidden="true" d="M0,0h0v0h0Z" pointer-events="none"></path><g><g class="mark-rule role-axis-grid" pointer-events="none"><line transform="translate(0,200)" x2="200" y2="0" stroke="#ddd" stroke-width="1" opacity="1"></line><line transform="translate(0,167)" x2="200" y2="0" stroke="#ddd" stroke-width="1" opacity="1"></line><line transform="translate(0,133)" x2="200" y2="0" stroke="#ddd" stroke-width="1" opacity="1"></line><line transform="translate(0,100)" x2="200" y2="0" stroke="#ddd" stroke-width="1" opacity="1"></line><line transform="translate(0,67)" x2="200" y2="0" stroke="#ddd" stroke-width="1" opacity="1"></line><line transform="translate(0,33)" x2="200" y2="0" stroke="#ddd" stroke-width="1" opacity="1"></line><line transform="translate(0,0)" x2="200" y2="0" stroke="#ddd" stroke-width="1" opacity="1"></line></g></g><path class="foreground" aria-hidden="true" d="" pointer-events="none" display="none"></path></g></g><g class="mark-group role-axis" role="graphics-symbol" aria-roledescription="axis" aria-label="X-axis titled 'Date' for a time scale with values from April 28 to May 28"><g transform="translate(0.5,200.5)"><path class="background" aria-hidden="true" d="M0,0h0v0h0Z" pointer-events="none"></path><g><g class="mark-text role-axis-label" pointer-events="none"><text text-anchor="middle" transform="translate(28.61111111111111,10)" font-family="Roboto Condensed" font-size="10px" fill="#000" opacity="1">May 03</text><text text-anchor="middle" transform="translate(75.27777777777777,10)" font-family="Roboto Condensed" font-size="10px" fill="#000" opacity="1">May 10</text><text text-anchor="middle" transform="translate(121.94444444444446,10)" font-family="Roboto Condensed" font-size="10px" fill="#000" opacity="1">May 17</text><text text-anchor="middle" transform="translate(168.61111111111111,10)" font-family="Roboto Condensed" font-size="10px" fill="#000" opacity="1">May 24</text></g><g class="mark-rule role-axis-domain" pointer-events="none"><line transform="translate(0,0)" x2="200" y2="0" stroke="lightgray" stroke-width="1" opacity="1"></line></g><g class="mark-text role-axis-title" pointer-events="none"><text text-anchor="middle" transform="translate(100,25)" font-family="Roboto Condensed" font-size="11px" font-weight="normal" fill="#000" opacity="1">Date</text></g></g><path class="foreground" aria-hidden="true" d="" pointer-events="none" display="none"></path></g></g><g class="mark-group role-axis" role="graphics-symbol" aria-roledescription="axis" aria-label="Y-axis titled 'Count' for a linear scale with values from 0 to 12,000"><g transform="translate(0.5,0.5)"><path class="background" aria-hidden="true" d="M0,0h0v0h0Z" pointer-events="none"></path><g><g class="mark-text role-axis-label" pointer-events="none"><text text-anchor="end" transform="translate(-2,203)" font-family="Roboto Condensed" font-size="10px" fill="#000" opacity="1">0</text><text text-anchor="end" transform="translate(-2,169.66666666666669)" font-family="Roboto Condensed" font-size="10px" fill="#000" opacity="1">2,000</text><text text-anchor="end" transform="translate(-2,136.33333333333334)" font-family="Roboto Condensed" font-size="10px" fill="#000" opacity="1">4,000</text><text text-anchor="end" transform="translate(-2,103)" font-family="Roboto Condensed" font-size="10px" fill="#000" opacity="1">6,000</text><text text-anchor="end" transform="translate(-2,69.66666666666667)" font-family="Roboto Condensed" font-size="10px" fill="#000" opacity="1">8,000</text><text text-anchor="end" transform="translate(-2,36.33333333333333)" font-family="Roboto Condensed" font-size="10px" fill="#000" opacity="1">10,000</text><text text-anchor="end" transform="translate(-2,3)" font-family="Roboto Condensed" font-size="10px" fill="#000" opacity="1">12,000</text></g><g class="mark-rule role-axis-domain" pointer-events="none"><line transform="translate(0,200)" x2="0" y2="-200" stroke="lightgray" stroke-width="1" opacity="1"></line></g><g class="mark-text role-axis-title" pointer-events="none"><text text-anchor="start" transform="translate(-45,-13)" font-family="Roboto Condensed" font-size="11px" font-weight="normal" fill="#000" opacity="1">Count</text></g></g><path class="foreground" aria-hidden="true" d="" pointer-events="none" display="none"></path></g></g><g class="mark-group role-scope concat_1_pathgroup" role="graphics-object" aria-roledescription="group mark container"><g transform="translate(0,0)"><path class="background" aria-hidden="true" d="M0,0h200v200h-200Z"></path><g><g class="mark-line role-mark concat_1_marks" clip-path="url(#clip7)" role="graphics-object" aria-roledescription="line mark container"><path aria-label="Type: Recovered; Date: Mar 01; Country: Denmark; Confirmed: 4; Recovered: 0; Deaths: 0; Count: 0" role="graphics-symbol" aria-roledescription="line mark" d="M-391.1111111111111,200L-384.44444444444446,200L-377.77777777777777,200L-371.11111111111114,200L-364.44444444444446,200L-357.77777777777777,199.98333333333335L-351.1111111111111,199.98333333333335L-344.44444444444446,199.98333333333335L-338.05555555555554,199.98333333333335L-331.3888888888889,199.98333333333335L-324.72222222222223,199.98333333333335L-318.05555555555554,199.98333333333335L-311.3888888888889,199.98333333333335L-304.72222222222223,199.98333333333335L-298.05555555555554,199.98333333333335L-291.38888888888886,199.98333333333335L-284.72222222222223,199.98333333333335L-278.05555555555554,199.98333333333335L-271.3888888888889,199.98333333333335L-264.72222222222223,199.98333333333335L-258.05555555555554,199.98333333333335L-251.38888888888889,199.98333333333335L-244.72222222222223,199.98333333333335L-238.05555555555554,199.98333333333335L-231.3888888888889,199.98333333333335L-224.72222222222223,199.98333333333335L-218.05555555555554,199.98333333333335L-211.38888888888889,199.98333333333335L-204.7222222222222,199.98333333333335L-198.05555555555557,199.98333333333335L-191.38888888888889,199.98333333333335L-184.72222222222223,185.1L-178.05555555555554,181.85L-171.38888888888889,180.11666666666665L-164.72222222222223,178.61666666666667L-158.05555555555554,177.88333333333333L-151.38888888888889,177.03333333333333L-144.72222222222223,175.15L-138.05555555555554,172.98333333333332L-131.38888888888889,171.06666666666666L-124.72222222222223,170.45L-118.05555555555556,167.41666666666669L-111.38888888888889,164.61666666666667L-104.72222222222223,162.75L-98.05555555555556,158.08333333333334L-91.38888888888889,154.20000000000002L-84.72222222222221,149.61666666666667L-78.05555555555556,143.51666666666668L-71.38888888888889,135.88333333333333L-64.72222222222223,130.98333333333332L-58.05555555555556,128.13333333333335L-51.388888888888886,121.66666666666669L-44.72222222222222,115.21666666666665L-38.05555555555556,110.26666666666667L-31.38888888888889,107.89999999999999L-24.72222222222222,105.51666666666665L-18.055555555555554,103.25L-11.38888888888889,100.68333333333332L-4.722222222222222,97.98333333333333L1.9444444444444444,93.9L8.61111111111111,90.9L15.277777777777779,87.85000000000001L21.944444444444443,85.18333333333334L28.61111111111111,83.55L35.27777777777778,81.86666666666666L41.94444444444444,78.4L48.61111111111111,75.11666666666667L55.27777777777778,71.48333333333335L61.94444444444444,67.88333333333334L68.61111111111111,65.11666666666667L75.27777777777777,63.050000000000004L81.94444444444444,61.20000000000001L88.61111111111111,57.00000000000001L95.27777777777777,55.61666666666667L101.94444444444444,53.25L108.6111111111111,50.68333333333332L115.27777777777777,48.21666666666666L121.94444444444446,46.21666666666666L128.61111111111111,44.983333333333334L135.27777777777777,43.06666666666668L141.94444444444446,41.06666666666668L148.61111111111111,39.28333333333334L155.27777777777777,37.26666666666667L161.94444444444446,36.06666666666667L168.61111111111111,35.00000000000001L175.27777777777777,33.93333333333332L181.94444444444443,32.60000000000001L188.61111111111111,31.566666666666677L195.27777777777777,30.33333333333332L201.94444444444443,29.33333333333332" stroke="#e45756" stroke-width="2" opacity="0.7"></path></g></g><path class="foreground" aria-hidden="true" d="" display="none"></path></g><g transform="translate(0,0)"><path class="background" aria-hidden="true" d="M0,0h200v200h-200Z"></path><g><g class="mark-line role-mark concat_1_marks" clip-path="url(#clip8)" role="graphics-object" aria-roledescription="line mark container"><path aria-label="Type: Deaths; Date: Mar 01; Country: Denmark; Confirmed: 4; Recovered: 0; Deaths: 0; Count: 0" role="graphics-symbol" aria-roledescription="line mark" d="M-391.1111111111111,200L-384.44444444444446,200L-377.77777777777777,200L-371.11111111111114,200L-364.44444444444446,200L-357.77777777777777,200L-351.1111111111111,200L-344.44444444444446,200L-338.05555555555554,200L-331.3888888888889,200L-324.72222222222223,200L-318.05555555555554,200L-311.3888888888889,200L-304.72222222222223,199.98333333333335L-298.05555555555554,199.96666666666667L-291.38888888888886,199.95000000000002L-284.72222222222223,199.93333333333334L-278.05555555555554,199.93333333333334L-271.3888888888889,199.9L-264.72222222222223,199.85L-258.05555555555554,199.78333333333333L-251.38888888888889,199.78333333333333L-244.72222222222223,199.6L-238.05555555555554,199.46666666666667L-231.3888888888889,199.43333333333334L-224.72222222222223,199.31666666666666L-218.05555555555554,199.13333333333333L-211.38888888888889,198.91666666666669L-204.7222222222222,198.8L-198.05555555555557,198.71666666666667L-191.38888888888889,198.5L-184.72222222222223,198.26666666666665L-178.05555555555554,197.95000000000002L-171.38888888888889,197.68333333333334L-164.72222222222223,197.31666666666666L-158.05555555555554,197.01666666666665L-151.38888888888889,196.88333333333335L-144.72222222222223,196.61666666666667L-138.05555555555554,196.36666666666667L-131.38888888888889,196.04999999999998L-124.72222222222223,195.88333333333335L-118.05555555555556,195.66666666666666L-111.38888888888889,195.45L-104.72222222222223,195.25L-98.05555555555556,195.01666666666665L-91.38888888888889,194.85L-84.72222222222221,194.64999999999998L-78.05555555555556,194.4L-71.38888888888889,194.23333333333332L-64.72222222222223,194.08333333333334L-58.05555555555556,193.93333333333334L-51.388888888888886,193.83333333333331L-44.72222222222222,193.6L-38.05555555555556,193.43333333333334L-31.38888888888889,193.28333333333333L-24.72222222222222,193.03333333333333L-18.055555555555554,192.96666666666667L-11.38888888888889,192.88333333333333L-4.722222222222222,192.76666666666665L1.9444444444444444,192.61666666666665L8.61111111111111,192.46666666666667L15.277777777777779,192.33333333333334L21.944444444444443,192.08333333333334L28.61111111111111,191.93333333333334L35.27777777777778,191.78333333333333L41.94444444444444,191.61666666666665L48.61111111111111,191.56666666666666L55.27777777777778,191.43333333333334L61.94444444444444,191.3L68.61111111111111,191.23333333333332L75.27777777777777,191.18333333333334L81.94444444444444,191.11666666666667L88.61111111111111,191.21666666666667L95.27777777777777,191.11666666666667L101.94444444444444,191.05L108.6111111111111,191.05L115.27777777777777,190.95L121.94444444444446,190.88333333333333L128.61111111111111,190.86666666666667L135.27777777777777,190.81666666666666L141.94444444444446,190.76666666666665L148.61111111111111,190.65L155.27777777777777,190.65L161.94444444444446,190.65L168.61111111111111,190.63333333333335L175.27777777777777,190.61666666666665L181.94444444444443,190.61666666666665L188.61111111111111,190.58333333333331L195.27777777777777,190.53333333333333L201.94444444444443,190.53333333333333" stroke="#f58518" stroke-width="2" opacity="0.7"></path></g></g><path class="foreground" aria-hidden="true" d="" display="none"></path></g><g transform="translate(0,0)"><path class="background" aria-hidden="true" d="M0,0h200v200h-200Z"></path><g><g class="mark-line role-mark concat_1_marks" clip-path="url(#clip9)" role="graphics-object" aria-roledescription="line mark container"><path aria-label="Type: Confirmed; Date: Mar 01; Country: Denmark; Confirmed: 4; Recovered: 0; Deaths: 0; Count: 4" role="graphics-symbol" aria-roledescription="line mark" d="M-391.1111111111111,199.93333333333334L-384.44444444444446,199.93333333333334L-377.77777777777777,199.9L-371.11111111111114,199.83333333333334L-364.44444444444446,199.83333333333334L-357.77777777777777,199.61666666666667L-351.1111111111111,199.61666666666667L-344.44444444444446,199.41666666666666L-338.05555555555554,198.5L-331.3888888888889,195.63333333333333L-324.72222222222223,192.63333333333333L-318.05555555555554,189.75L-311.3888888888889,186.65L-304.72222222222223,186.21666666666667L-298.05555555555554,185.60000000000002L-291.38888888888886,184.76666666666665L-284.72222222222223,183.71666666666667L-278.05555555555554,182.38333333333335L-271.3888888888889,180.81666666666666L-264.72222222222223,179.08333333333331L-258.05555555555554,177.89999999999998L-251.38888888888889,176.75L-244.72222222222223,175.83333333333334L-238.05555555555554,173.48333333333335L-231.3888888888889,171.26666666666668L-224.72222222222223,168.71666666666667L-218.05555555555554,165.9L-211.38888888888889,163.31666666666666L-204.7222222222222,160.08333333333334L-198.05555555555557,157.05L-191.38888888888889,152.33333333333334L-184.72222222222223,148.21666666666667L-178.05555555555554,143.56666666666666L-171.38888888888889,137.38333333333333L-164.72222222222223,132.05L-158.05555555555554,127.18333333333334L-151.38888888888889,121.98333333333333L-144.72222222222223,115.48333333333333L-138.05555555555554,109.96666666666668L-131.38888888888889,106.08333333333333L-124.72222222222223,103.01666666666667L-118.05555555555556,100.06666666666666L-111.38888888888889,97.10000000000001L-104.72222222222223,94.7L-98.05555555555556,91.48333333333333L-91.38888888888889,88.65L-84.72222222222221,85.35L-78.05555555555556,82.11666666666666L-71.38888888888889,79.3L-64.72222222222223,76.93333333333334L-58.05555555555556,74.75L-51.388888888888886,71.75L-44.72222222222222,68.13333333333334L-38.05555555555556,65.45L-31.38888888888889,63.16666666666666L-24.72222222222222,59.25L-18.055555555555554,57.08333333333333L-11.38888888888889,55.03333333333333L-4.722222222222222,52.48333333333333L1.9444444444444444,49.86666666666666L8.61111111111111,47.36666666666667L15.277777777777779,44.81666666666666L21.944444444444443,43.21666666666666L28.61111111111111,41.28333333333334L35.27777777777778,38.83333333333334L41.94444444444444,36.31666666666666L48.61111111111111,34.36666666666666L55.27777777777778,31.94999999999999L61.94444444444444,29.699999999999992L68.61111111111111,28.016666666666666L75.27777777777777,26.183333333333337L81.94444444444444,24.783333333333335L88.61111111111111,23.483333333333324L95.27777777777777,22.21666666666666L101.94444444444444,21.449999999999992L108.6111111111111,20.150000000000002L115.27777777777777,19.033333333333324L121.94444444444446,17.88333333333334L128.61111111111111,17.199999999999992L135.27777777777777,15.933333333333334L141.94444444444446,14.716666666666667L148.61111111111111,13.633333333333342L155.27777777777777,12.833333333333341L161.94444444444446,11.850000000000005L168.61111111111111,10.666666666666668L175.27777777777777,10.216666666666674L181.94444444444443,9.533333333333328L188.61111111111111,8.666666666666668L195.27777777777777,8.133333333333326L201.94444444444443,6.783333333333341" stroke="#4c78a8" stroke-width="2" opacity="0.7"></path></g></g><path class="foreground" aria-hidden="true" d="" display="none"></path></g></g><g class="mark-group role-title"><g transform="translate(100,-39)"><path class="background" aria-hidden="true" d="M0,0h0v0h0Z" pointer-events="none"></path><g><g class="mark-text role-title-text" role="graphics-symbol" aria-roledescription="title" aria-label="Title text 'Total'" pointer-events="none"><text text-anchor="middle" transform="translate(0,10)" font-family="Roboto Condensed" font-size="13px" font-weight="normal" fill="#000" opacity="1">Total</text></g></g><path class="foreground" aria-hidden="true" d="" pointer-events="none" display="none"></path></g></g></g><path class="foreground" aria-hidden="true" d="" display="none"></path></g></g><g class="mark-group role-legend" role="graphics-symbol" aria-roledescription="legend" aria-label="Symbol legend for stroke color with 3 values: Confirmed, Deaths, Recovered"><g transform="translate(487,0)"><path class="background" aria-hidden="true" d="M0,0h58v37h-58Z" pointer-events="none"></path><g><g class="mark-group role-legend-entry"><g transform="translate(0,0)"><path class="background" aria-hidden="true" d="M0,0h0v0h0Z" pointer-events="none"></path><g><g class="mark-group role-scope" role="graphics-object" aria-roledescription="group mark container"><g transform="translate(0,0)"><path class="background" aria-hidden="true" d="M0,0h58v11h-58Z" pointer-events="none" opacity="1"></path><g><g class="mark-symbol role-legend-symbol" pointer-events="none"><path transform="translate(6,6)" d="M-5,0L5,0" stroke="#4c78a8" stroke-width="1.5" opacity="0.2"></path></g><g class="mark-text role-legend-label" pointer-events="none"><text text-anchor="start" transform="translate(16,9)" font-family="Roboto Condensed" font-size="10px" fill="#000" opacity="1">Confirmed</text></g></g><path class="foreground" aria-hidden="true" d="" pointer-events="none" display="none"></path></g><g transform="translate(0,13)"><path class="background" aria-hidden="true" d="M0,0h58v11h-58Z" pointer-events="none" opacity="1"></path><g><g class="mark-symbol role-legend-symbol" pointer-events="none"><path transform="translate(6,6)" d="M-5,0L5,0" stroke="#f58518" stroke-width="1.5" opacity="0.2"></path></g><g class="mark-text role-legend-label" pointer-events="none"><text text-anchor="start" transform="translate(16,9)" font-family="Roboto Condensed" font-size="10px" fill="#000" opacity="1">Deaths</text></g></g><path class="foreground" aria-hidden="true" d="" pointer-events="none" display="none"></path></g><g transform="translate(0,26)"><path class="background" aria-hidden="true" d="M0,0h58v11h-58Z" pointer-events="none" opacity="1"></path><g><g class="mark-symbol role-legend-symbol" pointer-events="none"><path transform="translate(6,6)" d="M-5,0L5,0" stroke="#e45756" stroke-width="1.5" opacity="0.2"></path></g><g class="mark-text role-legend-label" pointer-events="none"><text text-anchor="start" transform="translate(16,9)" font-family="Roboto Condensed" font-size="10px" fill="#000" opacity="1">Recovered</text></g></g><path class="foreground" aria-hidden="true" d="" pointer-events="none" display="none"></path></g></g></g><path class="foreground" aria-hidden="true" d="" pointer-events="none" display="none"></path></g></g></g><path class="foreground" aria-hidden="true" d="" pointer-events="none" display="none"></path></g></g></g><path class="foreground" aria-hidden="true" d="" display="none"></path></g></g></g></svg>