<svg class="marks" width="996" height="476" viewBox="0 0 996 476" version="1.1" xmlns="http://www.w3.org/2000/svg" xmlns:xlink="http://www.w3.org/1999/xlink"><defs><clipPath id="clip1"><rect x="0" y="0" width="400" height="400"></rect></clipPath><clipPath id="clip2"><rect x="0" y="0" width="400" height="400"></rect></clipPath><clipPath id="clip3"><rect x="0" y="0" width="400" height="400"></rect></clipPath><clipPath id="clip4"><rect x="0" y="0" width="400" height="400"></rect></clipPath><clipPath id="clip5"><rect x="0" y="0" width="400" height="400"></rect></clipPath><clipPath id="clip6"><rect x="0" y="0" width="400" height="400"></rect></clipPath><clipPath id="clip7"><rect x="0" y="0" width="400" height="400"></rect></clipPath><clipPath id="clip8"><rect x="0" y="0" width="400" height="400"></rect></clipPath><clipPath id="clip9"><rect x="0" y="0" width="400" height="400"></rect></clipPath></defs><rect width="996" height="476" fill="white"></rect><g fill="none" stroke-miterlimit="10" transform="translate(50,44)"><g class="mark-group role-frame root" role="graphics-object" aria-roledescription="group mark container"><g transform="translate(0,0)"><path class="background" aria-hidden="true" d="M0,0h0v400h0Z"></path><g><g class="mark-group role-scope concat_0_group" role="graphics-object" aria-roledescription="group mark container"><g transform="translate(0,0)"><path class="background" aria-hidden="true" d="M0,0h400v400h-400Z" stroke="#ddd" stroke-width="0"></path><g><g class="mark-group role-axis" aria-hidden="true"><g transform="translate(0.5,0.5)"><path class="background" aria-hidden="true" d="M0,0h0v0h0Z" pointer-events="none"></path><g><g class="mark-rule role-axis-grid" pointer-events="none"><line transform="translate(0,400)" x2="400" y2="0" stroke="#ddd" stroke-width="1" opacity="1"></line><line transform="translate(0,350)" x2="400" y2="0" stroke="#ddd" stroke-width="1" opacity="1"></line><line transform="translate(0,300)" x2="400" y2="0" stroke="#ddd" stroke-width="1" opacity="1"></line><line transform="translate(0,250)" x2="400" y2="0" stroke="#ddd" stroke-width="1" opacity="1"></line><line transform="translate(0,200)" x2="400" y2="0" stroke="#ddd" stroke-width="1" opacity="1"></line><line transform="translate(0,150)" x2="400" y2="0" stroke="#ddd" stroke-width="1" opacity="1"></line><line transform="translate(0,100)" x2="400" y2="0" stroke="#ddd" stroke-width="1" opacity="1"></line><line transform="translate(0,50)" x2="400" y2="0" stroke="#ddd" stroke-width="1" opacity="1"></line><line transform="translate(0,0)" x2="400" y2="0" stroke="#ddd" stroke-width="1" opacity="1"></line></g></g><path class="foreground" aria-hidden="true" d="" pointer-events="none" display="none"></path></g></g><g class="mark-group role-axis" role="graphics-symbol" aria-roledescription="axis" aria-label="X-axis titled 'Date' for a time scale with values from April 28 to May 28"><g transform="translate(0.5,400.5)"><path class="background" aria-hidden="true" d="M0,0h0v0h0Z" pointer-events="none"></path><g><g class="mark-text role-axis-label" pointer-events="none"><text text-anchor="middle" transform="translate(3.888888888888889,10)" font-family="Roboto Condensed" font-size="10px" fill="#000" opacity="1">Apr 29</text><text text-anchor="middle" transform="translate(30.555555555555557,10)" font-family="Roboto Condensed" font-size="10px" fill="#000" opacity="0">May 01</text><text text-anchor="middle" transform="translate(57.22222222222222,10)" font-family="Roboto Condensed" font-size="10px" fill="#000" opacity="1">May 03</text><text text-anchor="middle" transform="translate(83.88888888888889,10)" font-family="Roboto Condensed" font-size="10px" fill="#000" opacity="0">May 05</text><text text-anchor="middle" transform="translate(110.55555555555556,10)" font-family="Roboto Condensed" font-size="10px" fill="#000" opacity="1">May 07</text><text text-anchor="middle" transform="translate(137.22222222222223,10)" font-family="Roboto Condensed" font-size="10px" fill="#000" opacity="0">May 09</text><text text-anchor="middle" transform="translate(163.88888888888889,10)" font-family="Roboto Condensed" font-size="10px" fill="#000" opacity="1">May 11</text><text text-anchor="middle" transform="translate(190.55555555555554,10)" font-family="Roboto Condensed" font-size="10px" fill="#000" opacity="0">May 13</text><text text-anchor="middle" transform="translate(217.2222222222222,10)" font-family="Roboto Condensed" font-size="10px" fill="#000" opacity="1">May 15</text><text text-anchor="middle" transform="translate(243.8888888888889,10)" font-family="Roboto Condensed" font-size="10px" fill="#000" opacity="0">May 17</text><text text-anchor="middle" transform="translate(270.55555555555554,10)" font-family="Roboto Condensed" font-size="10px" fill="#000" opacity="1">May 19</text><text text-anchor="middle" transform="translate(297.22222222222223,10)" font-family="Roboto Condensed" font-size="10px" fill="#000" opacity="0">May 21</text><text text-anchor="middle" transform="translate(323.8888888888889,10)" font-family="Roboto Condensed" font-size="10px" fill="#000" opacity="1">May 23</text><text text-anchor="middle" transform="translate(350.55555555555554,10)" font-family="Roboto Condensed" font-size="10px" fill="#000" opacity="0">May 25</text><text text-anchor="middle" transform="translate(377.22222222222223,10)" font-family="Roboto Condensed" font-size="10px" fill="#000" opacity="1">May 27</text></g><g class="mark-rule role-axis-domain" pointer-events="none"><line transform="translate(0,0)" x2="400" y2="0" stroke="lightgray" stroke-width="1" opacity="1"></line></g><g class="mark-text role-axis-title" pointer-events="none"><text text-anchor="middle" transform="translate(200,25)" font-family="Roboto Condensed" font-size="11px" font-weight="normal" fill="#000" opacity="1">Date</text></g></g><path class="foreground" aria-hidden="true" d="" pointer-events="none" display="none"></path></g></g><g class="mark-group role-axis" role="graphics-symbol" aria-roledescription="axis" aria-label="Y-axis titled 'Count' for a linear scale with values from -200 to 1,400"><g transform="translate(0.5,0.5)"><path class="background" aria-hidden="true" d="M0,0h0v0h0Z" pointer-events="none"></path><g><g class="mark-text role-axis-label" pointer-events="none"><text text-anchor="end" transform="translate(-2,403)" font-family="Roboto Condensed" font-size="10px" fill="#000" opacity="1">-200</text><text text-anchor="end" transform="translate(-2,353)" font-family="Roboto Condensed" font-size="10px" fill="#000" opacity="1">0</text><text text-anchor="end" transform="translate(-2,303)" font-family="Roboto Condensed" font-size="10px" fill="#000" opacity="1">200</text><text text-anchor="end" transform="translate(-2,253)" font-family="Roboto Condensed" font-size="10px" fill="#000" opacity="1">400</text><text text-anchor="end" transform="translate(-2,203)" font-family="Roboto Condensed" font-size="10px" fill="#000" opacity="1">600</text><text text-anchor="end" transform="translate(-2,153)" font-family="Roboto Condensed" font-size="10px" fill="#000" opacity="1">800</text><text text-anchor="end" transform="translate(-2,103)" font-family="Roboto Condensed" font-size="10px" fill="#000" opacity="1">1,000</text><text text-anchor="end" transform="translate(-2,53)" font-family="Roboto Condensed" font-size="10px" fill="#000" opacity="1">1,200</text><text text-anchor="end" transform="translate(-2,3)" font-family="Roboto Condensed" font-size="10px" fill="#000" opacity="1">1,400</text></g><g class="mark-rule role-axis-domain" pointer-events="none"><line transform="translate(0,400)" x2="0" y2="-400" stroke="lightgray" stroke-width="1" opacity="1"></line></g><g class="mark-text role-axis-title" pointer-events="none"><text text-anchor="start" transform="translate(-45,-13)" font-family="Roboto Condensed" font-size="11px" font-weight="normal" fill="#000" opacity="1">Count</text></g></g><path class="foreground" aria-hidden="true" d="" pointer-events="none" display="none"></path></g></g><g class="mark-group role-scope concat_0_layer_0_pathgroup" role="graphics-object" aria-roledescription="group mark container"><g transform="translate(0,0)"><path class="background" aria-hidden="true" d="M0,0h400v400h-400Z"></path><g><g class="mark-line role-mark concat_0_layer_0_marks" clip-path="url(#clip1)" role="graphics-object" aria-roledescription="line mark container"><path aria-label="Type: Recovered; Date: Mar 01; Count: 0" role="graphics-symbol" aria-roledescription="line mark" d="M-782.2222222222222,350L-768.8888888888889,350L-755.5555555555555,350L-742.2222222222223,350L-728.8888888888889,350L-715.5555555555555,350L-702.2222222222222,350L-688.8888888888889,350L-676.1111111111111,350L-662.7777777777778,350L-649.4444444444445,350L-636.1111111111111,350L-622.7777777777778,350L-609.4444444444445,350L-596.1111111111111,347.75L-582.7777777777777,350L-569.4444444444445,350L-556.1111111111111,350L-542.7777777777778,350L-529.4444444444445,350L-516.1111111111111,350L-502.77777777777777,350L-489.44444444444446,350L-476.1111111111111,350L-462.7777777777778,350L-449.44444444444446,350L-436.1111111111111,350L-422.77777777777777,350L-409.4444444444444,350L-396.11111111111114,350L-382.77777777777777,350L-369.44444444444446,350L-356.1111111111111,277.5L-342.77777777777777,350L-329.44444444444446,350L-316.1111111111111,350L-302.77777777777777,350L-289.44444444444446,350L-276.1111111111111,350L-262.77777777777777,350L-249.44444444444446,350L-236.11111111111111,350L-222.77777777777777,350L-209.44444444444446,350L-196.11111111111111,350L-182.77777777777777,350L-169.44444444444443,0L-156.11111111111111,350L-142.77777777777777,350L-129.44444444444446,350L-116.11111111111111,275L-102.77777777777777,350L-89.44444444444444,350L-76.11111111111111,350L-62.77777777777778,225L-49.44444444444444,350L-36.11111111111111,350L-22.77777777777778,350L-9.444444444444445,275L3.888888888888889,350L17.22222222222222,300L30.555555555555557,350L43.888888888888886,350L57.22222222222222,350L70.55555555555556,225L83.88888888888889,350L97.22222222222221,350L110.55555555555556,350L123.88888888888889,225L137.22222222222223,350L150.55555555555554,350L163.88888888888889,350L177.22222222222223,275L190.55555555555554,350L203.88888888888889,350L217.2222222222222,175L230.55555555555554,350L243.8888888888889,350L257.22222222222223,350L270.55555555555554,350L283.8888888888889,400L297.22222222222223,350L310.55555555555554,350L323.8888888888889,350L337.22222222222223,350L350.55555555555554,275L363.88888888888886,350L377.22222222222223,350L390.55555555555554,250L403.88888888888886,350" stroke="#e45756" stroke-width="2" opacity="0.2"></path></g></g><path class="foreground" aria-hidden="true" d="" display="none"></path></g><g transform="translate(0,0)"><path class="background" aria-hidden="true" d="M0,0h400v400h-400Z"></path><g><g class="mark-line role-mark concat_0_layer_0_marks" clip-path="url(#clip2)" role="graphics-object" aria-roledescription="line mark container"><path aria-label="Type: Deaths; Date: Mar 01; Count: 0" role="graphics-symbol" aria-roledescription="line mark" d="M-782.2222222222222,350L-768.8888888888889,350L-755.5555555555555,350L-742.2222222222223,350L-728.8888888888889,350L-715.5555555555555,350L-702.2222222222222,350L-688.8888888888889,350L-676.1111111111111,350L-662.7777777777778,350L-649.4444444444445,350L-636.1111111111111,350L-622.7777777777778,350L-609.4444444444445,350L-596.1111111111111,350L-582.7777777777777,350L-569.4444444444445,350L-556.1111111111111,350L-542.7777777777778,350L-529.4444444444445,350L-516.1111111111111,349.75L-502.77777777777777,350L-489.44444444444446,350L-476.1111111111111,350L-462.7777777777778,349.5L-449.44444444444446,349.5L-436.1111111111111,349.5L-422.77777777777777,349.5L-409.4444444444444,349.5L-396.11111111111114,349.5L-382.77777777777777,349L-369.44444444444446,350L-356.1111111111111,349.5L-342.77777777777777,349.75L-329.44444444444446,348.75L-316.1111111111111,349.25L-302.77777777777777,350.25L-289.44444444444446,348.25L-276.1111111111111,348.5L-262.77777777777777,349.5L-249.44444444444446,348.5L-236.11111111111111,349.75L-222.77777777777777,348.25L-209.44444444444446,349.25L-196.11111111111111,348.75L-182.77777777777777,348L-169.44444444444443,349.25L-156.11111111111111,348.25L-142.77777777777777,348L-129.44444444444446,349L-116.11111111111111,349L-102.77777777777777,339.25L-89.44444444444444,348L-76.11111111111111,344.25L-62.77777777777778,348.75L-49.44444444444444,347.75L-36.11111111111111,349L-22.77777777777778,349.25L-9.444444444444445,348.5L3.888888888888889,348.25L17.22222222222222,348.75L30.555555555555557,348.25L43.888888888888886,349.5L57.22222222222222,347.5L70.55555555555556,347.5L83.88888888888889,348.5L97.22222222222221,348.5L110.55555555555556,349.25L123.88888888888889,348.75L137.22222222222223,348.75L150.55555555555554,349.5L163.88888888888889,349L177.22222222222223,349L190.55555555555554,347.75L203.88888888888889,349.25L217.2222222222222,348.5L230.55555555555554,349L243.8888888888889,349.75L257.22222222222223,349.5L270.55555555555554,349.75L283.8888888888889,349.25L297.22222222222223,349.5L310.55555555555554,350L323.8888888888889,350L337.22222222222223,349.75L350.55555555555554,349.75L363.88888888888886,349L377.22222222222223,349.75L390.55555555555554,350L403.88888888888886,349.75" stroke="#f58518" stroke-width="2" opacity="0.2"></path></g></g><path class="foreground" aria-hidden="true" d="" display="none"></path></g><g transform="translate(0,0)"><path class="background" aria-hidden="true" d="M0,0h400v400h-400Z"></path><g><g class="mark-line role-mark concat_0_layer_0_marks" clip-path="url(#clip3)" role="graphics-object" aria-roledescription="line mark container"><path aria-label="Type: Confirmed; Date: Mar 01; Count: 3" role="graphics-symbol" aria-roledescription="line mark" d="M-782.2222222222222,349.25L-768.8888888888889,350L-755.5555555555555,350L-742.2222222222223,350L-728.8888888888889,348.5L-715.5555555555555,349.25L-702.2222222222222,350L-688.8888888888889,348L-676.1111111111111,348.25L-662.7777777777778,347.5L-649.4444444444445,345.25L-636.1111111111111,350L-622.7777777777778,326L-609.4444444444445,332.5L-596.1111111111111,345.25L-582.7777777777777,341.75L-569.4444444444445,339L-556.1111111111111,346.25L-542.7777777777778,334L-529.4444444444445,337.5L-516.1111111111111,331.75L-502.77777777777777,324.25L-489.44444444444446,331.5L-476.1111111111111,327L-462.7777777777778,328L-449.44444444444446,330.5L-436.1111111111111,329.25L-422.77777777777777,318.5L-409.4444444444444,331.75L-396.11111111111114,322L-382.77777777777777,333.5L-369.44444444444446,343L-356.1111111111111,332L-342.77777777777777,325.75L-329.44444444444446,283.25L-316.1111111111111,338.75L-302.77777777777777,287.75L-289.44444444444446,317L-276.1111111111111,305.25L-262.77777777777777,320.5L-249.44444444444446,309L-236.11111111111111,316L-222.77777777777777,332.75L-209.44444444444446,327.5L-196.11111111111111,325.75L-182.77777777777777,331L-169.44444444444443,317L-156.11111111111111,320L-142.77777777777777,302L-129.44444444444446,324.5L-116.11111111111111,328.75L-102.77777777777777,313.5L-89.44444444444444,321.25L-76.11111111111111,311.25L-62.77777777777778,322.25L-49.44444444444444,330L-36.11111111111111,324.75L-22.77777777777778,320.25L-9.444444444444445,338.75L3.888888888888889,308.5L17.22222222222222,327.75L30.555555555555557,336L43.888888888888886,318.75L57.22222222222222,330.5L70.55555555555556,331.75L83.88888888888889,328.75L97.22222222222221,309.75L110.55555555555556,325L123.88888888888889,333.75L137.22222222222223,314.5L150.55555555555554,329.5L163.88888888888889,344.5L177.22222222222223,345.25L190.55555555555554,337.25L203.88888888888889,327.25L217.2222222222222,329.25L230.55555555555554,335.5L243.8888888888889,334.75L257.22222222222223,341.75L270.55555555555554,345.25L283.8888888888889,339L297.22222222222223,337.5L310.55555555555554,339L323.8888888888889,342.25L337.22222222222223,347.25L350.55555555555554,345L363.88888888888886,342.75L377.22222222222223,334L390.55555555555554,337.25L403.88888888888886,341.75" stroke="#4c78a8" stroke-width="2" opacity="0.2"></path></g></g><path class="foreground" aria-hidden="true" d="" display="none"></path></g></g><g class="mark-group role-scope concat_0_layer_1_pathgroup" role="graphics-object" aria-roledescription="group mark container"><g transform="translate(0,0)"><path class="background" aria-hidden="true" d="M0,0h400v400h-400Z"></path><g><g class="mark-line role-mark concat_0_layer_1_marks" clip-path="url(#clip4)" role="graphics-object" aria-roledescription="line mark container"><path aria-label="Type: Recovered; Date: Mar 01; Count: 0" role="graphics-symbol" aria-roledescription="line mark" d="M-702.2222222222222,350L-688.8888888888889,350L-676.1111111111111,350L-662.7777777777778,350L-649.4444444444445,350L-636.1111111111111,350L-622.7777777777778,350L-609.4444444444445,350L-596.1111111111111,349.67857142857144L-582.7777777777777,349.67857142857144L-569.4444444444445,349.67857142857144L-556.1111111111111,349.67857142857144L-542.7777777777778,349.67857142857144L-529.4444444444445,349.67857142857144L-516.1111111111111,349.67857142857144L-502.77777777777777,350L-489.44444444444446,350L-476.1111111111111,350L-462.7777777777778,350L-449.44444444444446,350L-436.1111111111111,350L-422.77777777777777,350L-409.4444444444444,350L-396.11111111111114,350L-382.77777777777777,350L-369.44444444444446,350L-356.1111111111111,339.6428571428571L-342.77777777777777,339.6428571428571L-329.44444444444446,339.6428571428571L-316.1111111111111,339.6428571428571L-302.77777777777777,339.6428571428571L-289.44444444444446,339.6428571428571L-276.1111111111111,339.6428571428571L-262.77777777777777,350L-249.44444444444446,350L-236.11111111111111,350L-222.77777777777777,350L-209.44444444444446,350L-196.11111111111111,350L-182.77777777777777,350L-169.44444444444443,300L-156.11111111111111,300L-142.77777777777777,300L-129.44444444444446,300L-116.11111111111111,289.2857142857143L-102.77777777777777,289.2857142857143L-89.44444444444444,289.2857142857143L-76.11111111111111,339.2857142857143L-62.77777777777778,321.42857142857144L-49.44444444444444,321.42857142857144L-36.11111111111111,321.42857142857144L-22.77777777777778,332.1428571428571L-9.444444444444445,321.42857142857144L3.888888888888889,321.42857142857144L17.22222222222222,314.2857142857143L30.555555555555557,332.1428571428571L43.888888888888886,332.1428571428571L57.22222222222222,332.1428571428571L70.55555555555556,314.2857142857143L83.88888888888889,325L97.22222222222221,325L110.55555555555556,332.1428571428571L123.88888888888889,314.2857142857143L137.22222222222223,314.2857142857143L150.55555555555554,314.2857142857143L163.88888888888889,332.1428571428571L177.22222222222223,321.42857142857144L190.55555555555554,321.42857142857144L203.88888888888889,321.42857142857144L217.2222222222222,314.2857142857143L230.55555555555554,314.2857142857143L243.8888888888889,314.2857142857143L257.22222222222223,314.2857142857143L270.55555555555554,325L283.8888888888889,332.1428571428571L297.22222222222223,332.1428571428571L310.55555555555554,357.14285714285717L323.8888888888889,357.14285714285717L337.22222222222223,357.14285714285717L350.55555555555554,346.42857142857144L363.88888888888886,346.42857142857144L377.22222222222223,339.2857142857143L390.55555555555554,325L403.88888888888886,325" stroke="#e45756" stroke-width="2" opacity="1"></path></g></g><path class="foreground" aria-hidden="true" d="" display="none"></path></g><g transform="translate(0,0)"><path class="background" aria-hidden="true" d="M0,0h400v400h-400Z"></path><g><g class="mark-line role-mark concat_0_layer_1_marks" clip-path="url(#clip5)" role="graphics-object" aria-roledescription="line mark container"><path aria-label="Type: Deaths; Date: Mar 01; Count: 0" role="graphics-symbol" aria-roledescription="line mark" d="M-702.2222222222222,350L-688.8888888888889,350L-676.1111111111111,350L-662.7777777777778,350L-649.4444444444445,350L-636.1111111111111,350L-622.7777777777778,350L-609.4444444444445,350L-596.1111111111111,350L-582.7777777777777,350L-569.4444444444445,350L-556.1111111111111,350L-542.7777777777778,350L-529.4444444444445,350L-516.1111111111111,349.9642857142857L-502.77777777777777,349.9642857142857L-489.44444444444446,349.9642857142857L-476.1111111111111,349.9642857142857L-462.7777777777778,349.8928571428571L-449.44444444444446,349.8214285714286L-436.1111111111111,349.75L-422.77777777777777,349.7142857142857L-409.4444444444444,349.64285714285717L-396.11111111111114,349.57142857142856L-382.77777777777777,349.42857142857144L-369.44444444444446,349.5L-356.1111111111111,349.5L-342.77777777777777,349.5357142857143L-329.44444444444446,349.42857142857144L-316.1111111111111,349.39285714285717L-302.77777777777777,349.5L-289.44444444444446,349.39285714285717L-276.1111111111111,349.17857142857144L-262.77777777777777,349.17857142857144L-249.44444444444446,349L-236.11111111111111,349.14285714285717L-222.77777777777777,349L-209.44444444444446,348.85714285714283L-196.11111111111111,348.92857142857144L-182.77777777777777,348.85714285714283L-169.44444444444443,348.82142857142856L-156.11111111111111,348.7857142857143L-142.77777777777777,348.5357142857143L-129.44444444444446,348.6428571428571L-116.11111111111111,348.60714285714283L-102.77777777777777,347.25L-89.44444444444444,347.25L-76.11111111111111,346.5357142857143L-62.77777777777778,346.60714285714283L-49.44444444444444,346.57142857142856L-36.11111111111111,346.57142857142856L-22.77777777777778,346.60714285714283L-9.444444444444445,347.9285714285714L3.888888888888889,347.9642857142857L17.22222222222222,348.60714285714283L30.555555555555557,348.5357142857143L43.888888888888886,348.7857142857143L57.22222222222222,348.57142857142856L70.55555555555556,348.32142857142856L83.88888888888889,348.32142857142856L97.22222222222221,348.35714285714283L110.55555555555556,348.42857142857144L123.88888888888889,348.5L137.22222222222223,348.39285714285717L150.55555555555554,348.67857142857144L163.88888888888889,348.89285714285717L177.22222222222223,348.9642857142857L190.55555555555554,348.85714285714283L203.88888888888889,348.85714285714283L217.2222222222222,348.82142857142856L230.55555555555554,348.85714285714283L243.8888888888889,348.89285714285717L257.22222222222223,348.9642857142857L270.55555555555554,349.07142857142856L283.8888888888889,349.2857142857143L297.22222222222223,349.32142857142856L310.55555555555554,349.5357142857143L323.8888888888889,349.67857142857144L337.22222222222223,349.67857142857144L350.55555555555554,349.7142857142857L363.88888888888886,349.6071428571429L377.22222222222223,349.67857142857144L390.55555555555554,349.75L403.88888888888886,349.7142857142857" stroke="#f58518" stroke-width="2" opacity="1"></path></g></g><path class="foreground" aria-hidden="true" d="" display="none"></path></g><g transform="translate(0,0)"><path class="background" aria-hidden="true" d="M0,0h400v400h-400Z"></path><g><g class="mark-line role-mark concat_0_layer_1_marks" clip-path="url(#clip6)" role="graphics-object" aria-roledescription="line mark container"><path aria-label="Type: Confirmed; Date: Mar 01; Count: 0" role="graphics-symbol" aria-roledescription="line mark" d="M-702.2222222222222,349.57142857142856L-688.8888888888889,349.39285714285717L-676.1111111111111,349.14285714285717L-662.7777777777778,348.7857142857143L-649.4444444444445,348.10714285714283L-636.1111111111111,348.32142857142856L-622.7777777777778,345L-609.4444444444445,342.5L-596.1111111111111,342.10714285714283L-582.7777777777777,341.17857142857144L-569.4444444444445,339.9642857142857L-556.1111111111111,340.10714285714283L-542.7777777777778,337.82142857142856L-529.4444444444445,339.4642857142857L-516.1111111111111,339.3571428571429L-502.77777777777777,336.35714285714283L-489.44444444444446,334.89285714285717L-476.1111111111111,333.1785714285714L-462.7777777777778,330.57142857142856L-449.44444444444446,330.07142857142856L-436.1111111111111,328.89285714285717L-422.77777777777777,327L-409.4444444444444,328.07142857142856L-396.11111111111114,326.7142857142857L-382.77777777777777,327.6428571428571L-369.44444444444446,329.7857142857143L-356.1111111111111,330L-342.77777777777777,329.5L-329.44444444444446,324.4642857142857L-316.1111111111111,325.4642857142857L-302.77777777777777,320.57142857142856L-289.44444444444446,318.2142857142857L-276.1111111111111,312.82142857142856L-262.77777777777777,311.17857142857144L-249.44444444444446,308.7857142857143L-236.11111111111111,313.4642857142857L-222.77777777777777,312.6071428571429L-209.44444444444446,318.2857142857143L-196.11111111111111,319.5357142857143L-182.77777777777777,323.2142857142857L-169.44444444444443,322.7142857142857L-156.11111111111111,324.2857142857143L-142.77777777777777,322.2857142857143L-129.44444444444446,321.10714285714283L-116.11111111111111,321.2857142857143L-102.77777777777777,319.5357142857143L-89.44444444444444,318.14285714285717L-76.11111111111111,317.32142857142856L-62.77777777777778,317.64285714285717L-49.44444444444444,321.64285714285717L-36.11111111111111,321.67857142857144L-22.77777777777778,320.4642857142857L-9.444444444444445,324.07142857142856L3.888888888888889,322.25L17.22222222222222,324.6071428571429L30.555555555555557,326.57142857142856L43.888888888888886,324.9642857142857L57.22222222222222,325.7857142857143L70.55555555555556,327.42857142857144L83.88888888888889,326L97.22222222222221,326.17857142857144L110.55555555555556,325.7857142857143L123.88888888888889,325.4642857142857L137.22222222222223,324.8571428571429L150.55555555555554,324.7142857142857L163.88888888888889,326.5357142857143L177.22222222222223,328.89285714285717L190.55555555555554,332.82142857142856L203.88888888888889,333.14285714285717L217.2222222222222,332.5L230.55555555555554,335.5L243.8888888888889,336.25L257.22222222222223,335.85714285714283L270.55555555555554,335.85714285714283L283.8888888888889,336.10714285714283L297.22222222222223,337.57142857142856L310.55555555555554,338.9642857142857L323.8888888888889,339.92857142857144L337.22222222222223,341.7142857142857L350.55555555555554,342.17857142857144L363.88888888888886,341.8214285714286L377.22222222222223,341.1071428571429L390.55555555555554,341.07142857142856L403.88888888888886,341.4642857142857" stroke="#4c78a8" stroke-width="2" opacity="1"></path></g></g><path class="foreground" aria-hidden="true" d="" display="none"></path></g></g><g class="mark-group role-title"><g transform="translate(200,-39)"><path class="background" aria-hidden="true" d="M0,0h0v0h0Z" pointer-events="none"></path><g><g class="mark-text role-title-text" role="graphics-symbol" aria-roledescription="title" aria-label="Title text '7-day average (Daily values in light color)'" pointer-events="none"><text text-anchor="middle" transform="translate(0,10)" font-family="Roboto Condensed" font-size="13px" font-weight="normal" fill="#000" opacity="1">7-day average (Daily values in light color)</text></g></g><path class="foreground" aria-hidden="true" d="" pointer-events="none" display="none"></path></g></g></g><path class="foreground" aria-hidden="true" d="" display="none"></path></g></g><g class="mark-group role-scope concat_1_group" role="graphics-object" aria-roledescription="group mark container"><g transform="translate(465,0)"><path class="background" aria-hidden="true" d="M0,0h400v400h-400Z" stroke="#ddd" stroke-width="0"></path><g><g class="mark-group role-axis" aria-hidden="true"><g transform="translate(0.5,0.5)"><path class="background" aria-hidden="true" d="M0,0h0v0h0Z" pointer-events="none"></path><g><g class="mark-rule role-axis-grid" pointer-events="none"><line transform="translate(0,400)" x2="400" y2="0" stroke="#ddd" stroke-width="1" opacity="1"></line><line transform="translate(0,371)" x2="400" y2="0" stroke="#ddd" stroke-width="1" opacity="1"></line><line transform="translate(0,343)" x2="400" y2="0" stroke="#ddd" stroke-width="1" opacity="1"></line><line transform="translate(0,314)" x2="400" y2="0" stroke="#ddd" stroke-width="1" opacity="1"></line><line transform="translate(0,286)" x2="400" y2="0" stroke="#ddd" stroke-width="1" opacity="1"></line><line transform="translate(0,257)" x2="400" y2="0" stroke="#ddd" stroke-width="1" opacity="1"></line><line transform="translate(0,229)" x2="400" y2="0" stroke="#ddd" stroke-width="1" opacity="1"></line><line transform="translate(0,200)" x2="400" y2="0" stroke="#ddd" stroke-width="1" opacity="1"></line><line transform="translate(0,171)" x2="400" y2="0" stroke="#ddd" stroke-width="1" opacity="1"></line><line transform="translate(0,143)" x2="400" y2="0" stroke="#ddd" stroke-width="1" opacity="1"></line><line transform="translate(0,114)" x2="400" y2="0" stroke="#ddd" stroke-width="1" opacity="1"></line><line transform="translate(0,86)" x2="400" y2="0" stroke="#ddd" stroke-width="1" opacity="1"></line><line transform="translate(0,57)" x2="400" y2="0" stroke="#ddd" stroke-width="1" opacity="1"></line><line transform="translate(0,29)" x2="400" y2="0" stroke="#ddd" stroke-width="1" opacity="1"></line><line transform="translate(0,0)" x2="400" y2="0" stroke="#ddd" stroke-width="1" opacity="1"></line></g></g><path class="foreground" aria-hidden="true" d="" pointer-events="none" display="none"></path></g></g><g class="mark-group role-axis" role="graphics-symbol" aria-roledescription="axis" aria-label="X-axis titled 'Date' for a time scale with values from April 28 to May 28"><g transform="translate(0.5,400.5)"><path class="background" aria-hidden="true" d="M0,0h0v0h0Z" pointer-events="none"></path><g><g class="mark-text role-axis-label" pointer-events="none"><text text-anchor="middle" transform="translate(3.888888888888889,10)" font-family="Roboto Condensed" font-size="10px" fill="#000" opacity="1">Apr 29</text><text text-anchor="middle" transform="translate(30.555555555555557,10)" font-family="Roboto Condensed" font-size="10px" fill="#000" opacity="0">May 01</text><text text-anchor="middle" transform="translate(57.22222222222222,10)" font-family="Roboto Condensed" font-size="10px" fill="#000" opacity="1">May 03</text><text text-anchor="middle" transform="translate(83.88888888888889,10)" font-family="Roboto Condensed" font-size="10px" fill="#000" opacity="0">May 05</text><text text-anchor="middle" transform="translate(110.55555555555556,10)" font-family="Roboto Condensed" font-size="10px" fill="#000" opacity="1">May 07</text><text text-anchor="middle" transform="translate(137.22222222222223,10)" font-family="Roboto Condensed" font-size="10px" fill="#000" opacity="0">May 09</text><text text-anchor="middle" transform="translate(163.88888888888889,10)" font-family="Roboto Condensed" font-size="10px" fill="#000" opacity="1">May 11</text><text text-anchor="middle" transform="translate(190.55555555555554,10)" font-family="Roboto Condensed" font-size="10px" fill="#000" opacity="0">May 13</text><text text-anchor="middle" transform="translate(217.2222222222222,10)" font-family="Roboto Condensed" font-size="10px" fill="#000" opacity="1">May 15</text><text text-anchor="middle" transform="translate(243.8888888888889,10)" font-family="Roboto Condensed" font-size="10px" fill="#000" opacity="0">May 17</text><text text-anchor="middle" transform="translate(270.55555555555554,10)" font-family="Roboto Condensed" font-size="10px" fill="#000" opacity="1">May 19</text><text text-anchor="middle" transform="translate(297.22222222222223,10)" font-family="Roboto Condensed" font-size="10px" fill="#000" opacity="0">May 21</text><text text-anchor="middle" transform="translate(323.8888888888889,10)" font-family="Roboto Condensed" font-size="10px" fill="#000" opacity="1">May 23</text><text text-anchor="middle" transform="translate(350.55555555555554,10)" font-family="Roboto Condensed" font-size="10px" fill="#000" opacity="0">May 25</text><text text-anchor="middle" transform="translate(377.22222222222223,10)" font-family="Roboto Condensed" font-size="10px" fill="#000" opacity="1">May 27</text></g><g class="mark-rule role-axis-domain" pointer-events="none"><line transform="translate(0,0)" x2="400" y2="0" stroke="lightgray" stroke-width="1" opacity="1"></line></g><g class="mark-text role-axis-title" pointer-events="none"><text text-anchor="middle" transform="translate(200,25)" font-family="Roboto Condensed" font-size="11px" font-weight="normal" fill="#000" opacity="1">Date</text></g></g><path class="foreground" aria-hidden="true" d="" pointer-events="none" display="none"></path></g></g><g class="mark-group role-axis" role="graphics-symbol" aria-roledescription="axis" aria-label="Y-axis titled 'Count' for a linear scale with values from 0 to 7,000"><g transform="translate(0.5,0.5)"><path class="background" aria-hidden="true" d="M0,0h0v0h0Z" pointer-events="none"></path><g><g class="mark-text role-axis-label" pointer-events="none"><text text-anchor="end" transform="translate(-2,403)" font-family="Roboto Condensed" font-size="10px" fill="#000" opacity="1">0</text><text text-anchor="end" transform="translate(-2,374.42857142857144)" font-family="Roboto Condensed" font-size="10px" fill="#000" opacity="1">500</text><text text-anchor="end" transform="translate(-2,345.8571428571429)" font-family="Roboto Condensed" font-size="10px" fill="#000" opacity="1">1,000</text><text text-anchor="end" transform="translate(-2,317.2857142857143)" font-family="Roboto Condensed" font-size="10px" fill="#000" opacity="1">1,500</text><text text-anchor="end" transform="translate(-2,288.7142857142857)" font-family="Roboto Condensed" font-size="10px" fill="#000" opacity="1">2,000</text><text text-anchor="end" transform="translate(-2,260.1428571428571)" font-family="Roboto Condensed" font-size="10px" fill="#000" opacity="1">2,500</text><text text-anchor="end" transform="translate(-2,231.57142857142856)" font-family="Roboto Condensed" font-size="10px" fill="#000" opacity="1">3,000</text><text text-anchor="end" transform="translate(-2,203)" font-family="Roboto Condensed" font-size="10px" fill="#000" opacity="1">3,500</text><text text-anchor="end" transform="translate(-2,174.42857142857144)" font-family="Roboto Condensed" font-size="10px" fill="#000" opacity="1">4,000</text><text text-anchor="end" transform="translate(-2,145.85714285714283)" font-family="Roboto Condensed" font-size="10px" fill="#000" opacity="1">4,500</text><text text-anchor="end" transform="translate(-2,117.28571428571428)" font-family="Roboto Condensed" font-size="10px" fill="#000" opacity="1">5,000</text><text text-anchor="end" transform="translate(-2,88.71428571428572)" font-family="Roboto Condensed" font-size="10px" fill="#000" opacity="1">5,500</text><text text-anchor="end" transform="translate(-2,60.14285714285716)" font-family="Roboto Condensed" font-size="10px" fill="#000" opacity="1">6,000</text><text text-anchor="end" transform="translate(-2,31.57142857142856)" font-family="Roboto Condensed" font-size="10px" fill="#000" opacity="1">6,500</text><text text-anchor="end" transform="translate(-2,3)" font-family="Roboto Condensed" font-size="10px" fill="#000" opacity="1">7,000</text></g><g class="mark-rule role-axis-domain" pointer-events="none"><line transform="translate(0,400)" x2="0" y2="-400" stroke="lightgray" stroke-width="1" opacity="1"></line></g><g class="mark-text role-axis-title" pointer-events="none"><text text-anchor="start" transform="translate(-45,-13)" font-family="Roboto Condensed" font-size="11px" font-weight="normal" fill="#000" opacity="1">Count</text></g></g><path class="foreground" aria-hidden="true" d="" pointer-events="none" display="none"></path></g></g><g class="mark-group role-scope concat_1_pathgroup" role="graphics-object" aria-roledescription="group mark container"><g transform="translate(0,0)"><path class="background" aria-hidden="true" d="M0,0h400v400h-400Z"></path><g><g class="mark-line role-mark concat_1_marks" clip-path="url(#clip7)" role="graphics-object" aria-roledescription="line mark container"><path aria-label="Type: Recovered; Date: Mar 01; Country: Finland; Confirmed: 6; Recovered: 1; Deaths: 0; Count: 1" role="graphics-symbol" aria-roledescription="line mark" d="M-782.2222222222222,399.9428571428572L-768.8888888888889,399.9428571428572L-755.5555555555555,399.9428571428572L-742.2222222222223,399.9428571428572L-728.8888888888889,399.9428571428572L-715.5555555555555,399.9428571428572L-702.2222222222222,399.9428571428572L-688.8888888888889,399.9428571428572L-676.1111111111111,399.9428571428572L-662.7777777777778,399.9428571428572L-649.4444444444445,399.9428571428572L-636.1111111111111,399.9428571428572L-622.7777777777778,399.9428571428572L-609.4444444444445,399.9428571428572L-596.1111111111111,399.42857142857144L-582.7777777777777,399.42857142857144L-569.4444444444445,399.42857142857144L-556.1111111111111,399.42857142857144L-542.7777777777778,399.42857142857144L-529.4444444444445,399.42857142857144L-516.1111111111111,399.42857142857144L-502.77777777777777,399.42857142857144L-489.44444444444446,399.42857142857144L-476.1111111111111,399.42857142857144L-462.7777777777778,399.42857142857144L-449.44444444444446,399.42857142857144L-436.1111111111111,399.42857142857144L-422.77777777777777,399.42857142857144L-409.4444444444444,399.42857142857144L-396.11111111111114,399.42857142857144L-382.77777777777777,399.42857142857144L-369.44444444444446,399.42857142857144L-356.1111111111111,382.8571428571429L-342.77777777777777,382.8571428571429L-329.44444444444446,382.8571428571429L-316.1111111111111,382.8571428571429L-302.77777777777777,382.8571428571429L-289.44444444444446,382.8571428571429L-276.1111111111111,382.8571428571429L-262.77777777777777,382.8571428571429L-249.44444444444446,382.8571428571429L-236.11111111111111,382.8571428571429L-222.77777777777777,382.8571428571429L-209.44444444444446,382.8571428571429L-196.11111111111111,382.8571428571429L-182.77777777777777,382.8571428571429L-169.44444444444443,302.85714285714283L-156.11111111111111,302.85714285714283L-142.77777777777777,302.85714285714283L-129.44444444444446,302.85714285714283L-116.11111111111111,285.7142857142857L-102.77777777777777,285.7142857142857L-89.44444444444444,285.7142857142857L-76.11111111111111,285.7142857142857L-62.77777777777778,257.1428571428571L-49.44444444444444,257.1428571428571L-36.11111111111111,257.1428571428571L-22.77777777777778,257.1428571428571L-9.444444444444445,240L3.888888888888889,240L17.22222222222222,228.57142857142856L30.555555555555557,228.57142857142856L43.888888888888886,228.57142857142856L57.22222222222222,228.57142857142856L70.55555555555556,200L83.88888888888889,200L97.22222222222221,200L110.55555555555556,200L123.88888888888889,171.42857142857144L137.22222222222223,171.42857142857144L150.55555555555554,171.42857142857144L163.88888888888889,171.42857142857144L177.22222222222223,154.28571428571428L190.55555555555554,154.28571428571428L203.88888888888889,154.28571428571428L217.2222222222222,114.28571428571428L230.55555555555554,114.28571428571428L243.8888888888889,114.28571428571428L257.22222222222223,114.28571428571428L270.55555555555554,114.28571428571428L283.8888888888889,125.71428571428571L297.22222222222223,125.71428571428571L310.55555555555554,125.71428571428571L323.8888888888889,125.71428571428571L337.22222222222223,125.71428571428571L350.55555555555554,108.57142857142858L363.88888888888886,108.57142857142858L377.22222222222223,108.57142857142858L390.55555555555554,85.71428571428572L403.88888888888886,85.71428571428572" stroke="#e45756" stroke-width="2" opacity="0.7"></path></g></g><path class="foreground" aria-hidden="true" d="" display="none"></path></g><g transform="translate(0,0)"><path class="background" aria-hidden="true" d="M0,0h400v400h-400Z"></path><g><g class="mark-line role-mark concat_1_marks" clip-path="url(#clip8)" role="graphics-object" aria-roledescription="line mark container"><path aria-label="Type: Deaths; Date: Mar 01; Country: Finland; Confirmed: 6; Recovered: 1; Deaths: 0; Count: 0" role="graphics-symbol" aria-roledescription="line mark" d="M-782.2222222222222,400L-768.8888888888889,400L-755.5555555555555,400L-742.2222222222223,400L-728.8888888888889,400L-715.5555555555555,400L-702.2222222222222,400L-688.8888888888889,400L-676.1111111111111,400L-662.7777777777778,400L-649.4444444444445,400L-636.1111111111111,400L-622.7777777777778,400L-609.4444444444445,400L-596.1111111111111,400L-582.7777777777777,400L-569.4444444444445,400L-556.1111111111111,400L-542.7777777777778,400L-529.4444444444445,400L-516.1111111111111,399.9428571428572L-502.77777777777777,399.9428571428572L-489.44444444444446,399.9428571428572L-476.1111111111111,399.9428571428572L-462.7777777777778,399.8285714285714L-449.44444444444446,399.7142857142857L-436.1111111111111,399.6L-422.77777777777777,399.48571428571427L-409.4444444444444,399.37142857142857L-396.11111111111114,399.25714285714287L-382.77777777777777,399.0285714285714L-369.44444444444446,399.0285714285714L-356.1111111111111,398.9142857142857L-342.77777777777777,398.85714285714283L-329.44444444444446,398.57142857142856L-316.1111111111111,398.4L-302.77777777777777,398.45714285714286L-289.44444444444446,398.0571428571428L-276.1111111111111,397.7142857142857L-262.77777777777777,397.6L-249.44444444444446,397.25714285714287L-236.11111111111111,397.2L-222.77777777777777,396.8L-209.44444444444446,396.62857142857143L-196.11111111111111,396.34285714285716L-182.77777777777777,395.8857142857143L-169.44444444444443,395.7142857142857L-156.11111111111111,395.31428571428575L-142.77777777777777,394.85714285714283L-129.44444444444446,394.62857142857143L-116.11111111111111,394.4L-102.77777777777777,391.9428571428571L-89.44444444444444,391.4857142857143L-76.11111111111111,390.1714285714286L-62.77777777777778,389.8857142857143L-49.44444444444444,389.37142857142857L-36.11111111111111,389.14285714285717L-22.77777777777778,388.9714285714286L-9.444444444444445,388.62857142857143L3.888888888888889,388.2285714285714L17.22222222222222,387.9428571428571L30.555555555555557,387.54285714285714L43.888888888888886,387.4285714285714L57.22222222222222,386.8571428571429L70.55555555555556,386.2857142857143L83.88888888888889,385.9428571428571L97.22222222222221,385.59999999999997L110.55555555555556,385.4285714285714L123.88888888888889,385.14285714285717L137.22222222222223,384.8571428571429L150.55555555555554,384.74285714285713L163.88888888888889,384.51428571428573L177.22222222222223,384.2857142857143L190.55555555555554,383.77142857142854L203.88888888888889,383.59999999999997L217.2222222222222,383.25714285714287L230.55555555555554,383.0285714285714L243.8888888888889,382.9714285714286L257.22222222222223,382.8571428571429L270.55555555555554,382.8L283.8888888888889,382.62857142857143L297.22222222222223,382.51428571428573L310.55555555555554,382.51428571428573L323.8888888888889,382.51428571428573L337.22222222222223,382.45714285714286L350.55555555555554,382.4L363.88888888888886,382.1714285714286L377.22222222222223,382.1142857142857L390.55555555555554,382.1142857142857L403.88888888888886,382.0571428571429" stroke="#f58518" stroke-width="2" opacity="0.7"></path></g></g><path class="foreground" aria-hidden="true" d="" display="none"></path></g><g transform="translate(0,0)"><path class="background" aria-hidden="true" d="M0,0h400v400h-400Z"></path><g><g class="mark-line role-mark concat_1_marks" clip-path="url(#clip9)" role="graphics-object" aria-roledescription="line mark container"><path aria-label="Type: Confirmed; Date: Mar 01; Country: Finland; Confirmed: 6; Recovered: 1; Deaths: 0; Count: 6" role="graphics-symbol" aria-roledescription="line mark" d="M-782.2222222222222,399.65714285714284L-768.8888888888889,399.65714285714284L-755.5555555555555,399.65714285714284L-742.2222222222223,399.65714285714284L-728.8888888888889,399.31428571428575L-715.5555555555555,399.14285714285717L-702.2222222222222,399.14285714285717L-688.8888888888889,398.68571428571425L-676.1111111111111,398.2857142857143L-662.7777777777778,397.7142857142857L-649.4444444444445,396.62857142857143L-636.1111111111111,396.62857142857143L-622.7777777777778,391.14285714285717L-609.4444444444445,387.14285714285717L-596.1111111111111,386.0571428571429L-582.7777777777777,384.1714285714286L-569.4444444444445,381.65714285714284L-556.1111111111111,380.79999999999995L-542.7777777777778,377.1428571428571L-529.4444444444445,374.2857142857143L-516.1111111111111,370.1142857142857L-502.77777777777777,364.22857142857146L-489.44444444444446,360L-476.1111111111111,354.74285714285713L-462.7777777777778,349.7142857142857L-449.44444444444446,345.25714285714287L-436.1111111111111,340.51428571428573L-422.77777777777777,333.31428571428575L-409.4444444444444,329.1428571428571L-396.11111111111114,322.74285714285713L-382.77777777777777,318.97142857142853L-369.44444444444446,317.37142857142857L-356.1111111111111,313.25714285714287L-342.77777777777777,307.7142857142857L-329.44444444444446,292.45714285714286L-316.1111111111111,289.88571428571424L-302.77777777777777,275.65714285714284L-289.44444444444446,268.1142857142857L-276.1111111111111,257.8857142857143L-262.77777777777777,251.14285714285717L-249.44444444444446,241.77142857142857L-236.11111111111111,234L-222.77777777777777,230.05714285714288L-209.44444444444446,224.9142857142857L-196.11111111111111,219.3714285714286L-182.77777777777777,215.02857142857144L-169.44444444444443,207.48571428571427L-156.11111111111111,200.62857142857143L-142.77777777777777,189.65714285714284L-129.44444444444446,183.82857142857142L-116.11111111111111,178.97142857142856L-102.77777777777777,170.62857142857143L-89.44444444444444,164.05714285714285L-76.11111111111111,155.20000000000002L-62.77777777777778,148.85714285714283L-49.44444444444444,144.2857142857143L-36.11111111111111,138.51428571428573L-22.77777777777778,131.71428571428572L-9.444444444444445,129.14285714285714L3.888888888888889,119.65714285714286L17.22222222222222,114.57142857142858L30.555555555555557,111.3714285714286L43.888888888888886,104.22857142857143L57.22222222222222,99.77142857142857L70.55555555555556,95.6L83.88888888888889,90.74285714285715L97.22222222222221,81.54285714285714L110.55555555555556,75.82857142857145L123.88888888888889,72.11428571428571L137.22222222222223,64.00000000000001L150.55555555555554,59.314285714285695L163.88888888888889,58.05714285714285L177.22222222222223,56.97142857142858L190.55555555555554,54.05714285714285L203.88888888888889,48.85714285714285L217.2222222222222,44.11428571428573L230.55555555555554,40.79999999999999L243.8888888888889,37.314285714285724L257.22222222222223,35.42857142857141L270.55555555555554,34.34285714285714L283.8888888888889,31.82857142857145L297.22222222222223,28.97142857142856L310.55555555555554,26.45714285714287L323.8888888888889,24.68571428571429L337.22222222222223,24.057142857142864L350.55555555555554,22.91428571428571L363.88888888888886,21.257142857142863L377.22222222222223,17.600000000000016L390.55555555555554,14.68571428571428L403.88888888888886,12.800000000000011" stroke="#4c78a8" stroke-width="2" opacity="0.7"></path></g></g><path class="foreground" aria-hidden="true" d="" display="none"></path></g></g><g class="mark-group role-title"><g transform="translate(200,-39)"><path class="background" aria-hidden="true" d="M0,0h0v0h0Z" pointer-events="none"></path><g><g class="mark-text role-title-text" role="graphics-symbol" aria-roledescription="title" aria-label="Title text 'Total'" pointer-events="none"><text text-anchor="middle" transform="translate(0,10)" font-family="Roboto Condensed" font-size="13px" font-weight="normal" fill="#000" opacity="1">Total</text></g></g><path class="foreground" aria-hidden="true" d="" pointer-events="none" display="none"></path></g></g></g><path class="foreground" aria-hidden="true" d="" display="none"></path></g></g><g class="mark-group role-legend" role="graphics-symbol" aria-roledescription="legend" aria-label="Symbol legend for stroke color with 3 values: Confirmed, Deaths, Recovered"><g transform="translate(883,0)"><path class="background" aria-hidden="true" d="M0,0h58v37h-58Z" pointer-events="none"></path><g><g class="mark-group role-legend-entry"><g transform="translate(0,0)"><path class="background" aria-hidden="true" d="M0,0h0v0h0Z" pointer-events="none"></path><g><g class="mark-group role-scope" role="graphics-object" aria-roledescription="group mark container"><g transform="translate(0,0)"><path class="background" aria-hidden="true" d="M0,0h58v11h-58Z" pointer-events="none" opacity="1"></path><g><g class="mark-symbol role-legend-symbol" pointer-events="none"><path transform="translate(6,6)" d="M-5,0L5,0" stroke="#4c78a8" stroke-width="1.5" opacity="0.2"></path></g><g class="mark-text role-legend-label" pointer-events="none"><text text-anchor="start" transform="translate(16,9)" font-family="Roboto Condensed" font-size="10px" fill="#000" opacity="1">Confirmed</text></g></g><path class="foreground" aria-hidden="true" d="" pointer-events="none" display="none"></path></g><g transform="translate(0,13)"><path class="background" aria-hidden="true" d="M0,0h58v11h-58Z" pointer-events="none" opacity="1"></path><g><g class="mark-symbol role-legend-symbol" pointer-events="none"><path transform="translate(6,6)" d="M-5,0L5,0" stroke="#f58518" stroke-width="1.5" opacity="0.2"></path></g><g class="mark-text role-legend-label" pointer-events="none"><text text-anchor="start" transform="translate(16,9)" font-family="Roboto Condensed" font-size="10px" fill="#000" opacity="1">Deaths</text></g></g><path class="foreground" aria-hidden="true" d="" pointer-events="none" display="none"></path></g><g transform="translate(0,26)"><path class="background" aria-hidden="true" d="M0,0h58v11h-58Z" pointer-events="none" opacity="1"></path><g><g class="mark-symbol role-legend-symbol" pointer-events="none"><path transform="translate(6,6)" d="M-5,0L5,0" stroke="#e45756" stroke-width="1.5" opacity="0.2"></path></g><g class="mark-text role-legend-label" pointer-events="none"><text text-anchor="start" transform="translate(16,9)" font-family="Roboto Condensed" font-size="10px" fill="#000" opacity="1">Recovered</text></g></g><path class="foreground" aria-hidden="true" d="" pointer-events="none" display="none"></path></g></g></g><path class="foreground" aria-hidden="true" d="" pointer-events="none" display="none"></path></g></g></g><path class="foreground" aria-hidden="true" d="" pointer-events="none" display="none"></path></g></g></g><path class="foreground" aria-hidden="true" d="" display="none"></path></g></g></g></svg>