<svg class="marks" width="600" height="276" viewBox="0 0 600 276" version="1.1" xmlns="http://www.w3.org/2000/svg" xmlns:xlink="http://www.w3.org/1999/xlink"><defs><clipPath id="clip1"><rect x="0" y="0" width="200" height="200"></rect></clipPath><clipPath id="clip2"><rect x="0" y="0" width="200" height="200"></rect></clipPath><clipPath id="clip3"><rect x="0" y="0" width="200" height="200"></rect></clipPath><clipPath id="clip4"><rect x="0" y="0" width="200" height="200"></rect></clipPath><clipPath id="clip5"><rect x="0" y="0" width="200" height="200"></rect></clipPath><clipPath id="clip6"><rect x="0" y="0" width="200" height="200"></rect></clipPath><clipPath id="clip7"><rect x="0" y="0" width="200" height="200"></rect></clipPath><clipPath id="clip8"><rect x="0" y="0" width="200" height="200"></rect></clipPath><clipPath id="clip9"><rect x="0" y="0" width="200" height="200"></rect></clipPath></defs><rect width="600" height="276" fill="white"></rect><g fill="none" stroke-miterlimit="10" transform="translate(50,44)"><g class="mark-group role-frame root" role="graphics-object" aria-roledescription="group mark container"><g transform="translate(0,0)"><path class="background" aria-hidden="true" d="M0,0h0v200h0Z"></path><g><g class="mark-group role-scope concat_0_group" role="graphics-object" aria-roledescription="group mark container"><g transform="translate(0,0)"><path class="background" aria-hidden="true" d="M0,0h200v200h-200Z" stroke="#ddd" stroke-width="0"></path><g><g class="mark-group role-axis" aria-hidden="true"><g transform="translate(0.5,0.5)"><path class="background" aria-hidden="true" d="M0,0h0v0h0Z" pointer-events="none"></path><g><g class="mark-rule role-axis-grid" pointer-events="none"><line transform="translate(0,186)" x2="200" y2="0" stroke="#ddd" stroke-width="1" opacity="1"></line><line transform="translate(0,150)" x2="200" y2="0" stroke="#ddd" stroke-width="1" opacity="1"></line><line transform="translate(0,114)" x2="200" y2="0" stroke="#ddd" stroke-width="1" opacity="1"></line><line transform="translate(0,79)" x2="200" y2="0" stroke="#ddd" stroke-width="1" opacity="1"></line><line transform="translate(0,43)" x2="200" y2="0" stroke="#ddd" stroke-width="1" opacity="1"></line><line transform="translate(0,7)" x2="200" y2="0" stroke="#ddd" stroke-width="1" opacity="1"></line></g></g><path class="foreground" aria-hidden="true" d="" pointer-events="none" display="none"></path></g></g><g class="mark-group role-axis" role="graphics-symbol" aria-roledescription="axis" aria-label="X-axis titled 'Date' for a time scale with values from April 28 to May 28"><g transform="translate(0.5,200.5)"><path class="background" aria-hidden="true" d="M0,0h0v0h0Z" pointer-events="none"></path><g><g class="mark-text role-axis-label" pointer-events="none"><text text-anchor="middle" transform="translate(28.61111111111111,10)" font-family="Roboto Condensed" font-size="10px" fill="#000" opacity="1">May 03</text><text text-anchor="middle" transform="translate(75.27777777777777,10)" font-family="Roboto Condensed" font-size="10px" fill="#000" opacity="1">May 10</text><text text-anchor="middle" transform="translate(121.94444444444446,10)" font-family="Roboto Condensed" font-size="10px" fill="#000" opacity="1">May 17</text><text text-anchor="middle" transform="translate(168.61111111111111,10)" font-family="Roboto Condensed" font-size="10px" fill="#000" opacity="1">May 24</text></g><g class="mark-rule role-axis-domain" pointer-events="none"><line transform="translate(0,0)" x2="200" y2="0" stroke="lightgray" stroke-width="1" opacity="1"></line></g><g class="mark-text role-axis-title" pointer-events="none"><text text-anchor="middle" transform="translate(100,25)" font-family="Roboto Condensed" font-size="11px" font-weight="normal" fill="#000" opacity="1">Date</text></g></g><path class="foreground" aria-hidden="true" d="" pointer-events="none" display="none"></path></g></g><g class="mark-group role-axis" role="graphics-symbol" aria-roledescription="axis" aria-label="Y-axis titled 'Count' for a linear scale with values from -200 to 2,600"><g transform="translate(0.5,0.5)"><path class="background" aria-hidden="true" d="M0,0h0v0h0Z" pointer-events="none"></path><g><g class="mark-text role-axis-label" pointer-events="none"><text text-anchor="end" transform="translate(-2,188.71428571428572)" font-family="Roboto Condensed" font-size="10px" fill="#000" opacity="1">0</text><text text-anchor="end" transform="translate(-2,153)" font-family="Roboto Condensed" font-size="10px" fill="#000" opacity="1">500</text><text text-anchor="end" transform="translate(-2,117.28571428571428)" font-family="Roboto Condensed" font-size="10px" fill="#000" opacity="1">1,000</text><text text-anchor="end" transform="translate(-2,81.57142857142858)" font-family="Roboto Condensed" font-size="10px" fill="#000" opacity="1">1,500</text><text text-anchor="end" transform="translate(-2,45.85714285714286)" font-family="Roboto Condensed" font-size="10px" fill="#000" opacity="1">2,000</text><text text-anchor="end" transform="translate(-2,10.142857142857139)" font-family="Roboto Condensed" font-size="10px" fill="#000" opacity="1">2,500</text></g><g class="mark-rule role-axis-domain" pointer-events="none"><line transform="translate(0,200)" x2="0" y2="-200" stroke="lightgray" stroke-width="1" opacity="1"></line></g><g class="mark-text role-axis-title" pointer-events="none"><text text-anchor="start" transform="translate(-45,-13)" font-family="Roboto Condensed" font-size="11px" font-weight="normal" fill="#000" opacity="1">Count</text></g></g><path class="foreground" aria-hidden="true" d="" pointer-events="none" display="none"></path></g></g><g class="mark-group role-scope concat_0_layer_0_pathgroup" role="graphics-object" aria-roledescription="group mark container"><g transform="translate(0,0)"><path class="background" aria-hidden="true" d="M0,0h200v200h-200Z"></path><g><g class="mark-line role-mark concat_0_layer_0_marks" clip-path="url(#clip1)" role="graphics-object" aria-roledescription="line mark container"><path aria-label="Type: Recovered; Date: Mar 01; Count: 0" role="graphics-symbol" aria-roledescription="line mark" d="M-391.1111111111111,185.71428571428572L-384.44444444444446,185.71428571428572L-377.77777777777777,185.71428571428572L-371.11111111111114,185.71428571428572L-364.44444444444446,185.71428571428572L-357.77777777777777,185.71428571428572L-351.1111111111111,185.71428571428572L-344.44444444444446,185.71428571428572L-338.05555555555554,185.71428571428572L-331.3888888888889,185.71428571428572L-324.72222222222223,185.71428571428572L-318.05555555555554,185.71428571428572L-311.3888888888889,185.71428571428572L-304.72222222222223,185.71428571428572L-298.05555555555554,185.71428571428572L-291.38888888888886,185.71428571428572L-284.72222222222223,185.71428571428572L-278.05555555555554,183.57142857142856L-271.3888888888889,185.71428571428572L-264.72222222222223,187.85714285714286L-258.05555555555554,167L-251.38888888888889,185.71428571428572L-244.72222222222223,185.71428571428572L-238.05555555555554,171.57142857142858L-231.3888888888889,179.57142857142858L-224.72222222222223,176.57142857142858L-218.05555555555554,172.64285714285714L-211.38888888888889,171.07142857142856L-204.7222222222222,164.57142857142856L-198.05555555555557,173.71428571428572L-191.38888888888889,173.64285714285714L-184.72222222222223,154.57142857142858L-178.05555555555554,159.78571428571428L-171.38888888888889,158.78571428571428L-164.72222222222223,158.92857142857144L-158.05555555555554,149.71428571428572L-151.38888888888889,168.92857142857142L-144.72222222222223,173.5L-138.05555555555554,148.28571428571428L-131.38888888888889,151.2142857142857L-124.72222222222223,156.85714285714286L-118.05555555555556,155.85714285714286L-111.38888888888889,151.64285714285714L-104.72222222222223,168.28571428571428L-98.05555555555556,174.21428571428572L-91.38888888888889,168.64285714285714L-84.72222222222221,153.2142857142857L-78.05555555555556,157.2142857142857L-71.38888888888889,158.07142857142858L-64.72222222222223,156.5L-58.05555555555556,175.85714285714283L-51.388888888888886,178.07142857142856L-44.72222222222222,154.92857142857144L-38.05555555555556,159.5L-31.38888888888889,162.71428571428572L-24.72222222222222,164.64285714285714L-18.055555555555554,159.42857142857144L-11.38888888888889,179.07142857142858L-4.722222222222222,181.07142857142858L1.9444444444444444,161.42857142857144L8.61111111111111,164.78571428571428L15.277777777777779,163.14285714285714L21.944444444444443,162.92857142857142L28.61111111111111,178.71428571428572L35.27777777777778,180.78571428571428L41.94444444444444,181.2142857142857L48.61111111111111,165L55.27777777777778,167.92857142857142L61.94444444444444,169.92857142857142L68.61111111111111,170.7142857142857L75.27777777777777,169.21428571428572L81.94444444444444,181.78571428571428L88.61111111111111,183.2142857142857L95.27777777777777,171.07142857142856L101.94444444444444,173.28571428571428L108.6111111111111,172.14285714285717L115.27777777777777,174.35714285714286L121.94444444444446,173.57142857142858L128.61111111111111,183.78571428571428L135.27777777777777,183.57142857142856L141.94444444444446,174.28571428571428L148.61111111111111,175.64285714285714L155.27777777777777,176.07142857142856L161.94444444444446,183.42857142857142L168.61111111111111,177.35714285714286L175.27777777777777,183.92857142857142L181.94444444444443,184.07142857142858L188.61111111111111,175.35714285714286L195.27777777777777,178.07142857142856L201.94444444444443,177.85714285714283" stroke="#e45756" stroke-width="2" opacity="0.2"></path></g></g><path class="foreground" aria-hidden="true" d="" display="none"></path></g><g transform="translate(0,0)"><path class="background" aria-hidden="true" d="M0,0h200v200h-200Z"></path><g><g class="mark-line role-mark concat_0_layer_0_marks" clip-path="url(#clip2)" role="graphics-object" aria-roledescription="line mark container"><path aria-label="Type: Deaths; Date: Mar 01; Count: 0" role="graphics-symbol" aria-roledescription="line mark" d="M-391.1111111111111,185.71428571428572L-384.44444444444446,185.71428571428572L-377.77777777777777,185.71428571428572L-371.11111111111114,185.71428571428572L-364.44444444444446,185.71428571428572L-357.77777777777777,185.71428571428572L-351.1111111111111,185.71428571428572L-344.44444444444446,185.71428571428572L-338.05555555555554,185.71428571428572L-331.3888888888889,185.71428571428572L-324.72222222222223,185.5L-318.05555555555554,185.71428571428572L-311.3888888888889,185.71428571428572L-304.72222222222223,185.64285714285714L-298.05555555555554,185.71428571428572L-291.38888888888886,185.64285714285714L-284.72222222222223,185.35714285714286L-278.05555555555554,185.42857142857144L-271.3888888888889,185.21428571428572L-264.72222222222223,184.57142857142856L-258.05555555555554,183.57142857142856L-251.38888888888889,185.14285714285714L-244.72222222222223,184.78571428571428L-238.05555555555554,183.28571428571428L-231.3888888888889,181.71428571428572L-224.72222222222223,182.71428571428572L-218.05555555555554,180.78571428571428L-211.38888888888889,181.14285714285714L-204.7222222222222,180.14285714285714L-198.05555555555557,179.85714285714286L-191.38888888888889,172L-184.72222222222223,176.92857142857144L-178.05555555555554,172.64285714285714L-171.38888888888889,176.28571428571428L-164.72222222222223,175.71428571428572L-158.05555555555554,174L-151.38888888888889,172.5L-144.72222222222223,156.92857142857144L-138.05555555555554,171.07142857142856L-131.38888888888889,165.5L-124.72222222222223,150.28571428571428L-118.05555555555556,162.35714285714286L-111.38888888888889,167.57142857142858L-104.72222222222223,164.07142857142858L-98.05555555555556,167.57142857142858L-91.38888888888889,165.5L-84.72222222222221,155.92857142857142L-78.05555555555556,163.85714285714286L-71.38888888888889,165L-64.72222222222223,169.28571428571428L-58.05555555555556,175.35714285714286L-51.388888888888886,173.57142857142858L-44.72222222222222,166.85714285714286L-38.05555555555556,169.42857142857144L-31.38888888888889,172.21428571428572L-24.72222222222222,168.71428571428572L-18.055555555555554,173.07142857142856L-11.38888888888889,177.64285714285714L-4.722222222222222,176.85714285714286L1.9444444444444444,173.57142857142858L8.61111111111111,179.07142857142858L15.277777777777779,177.92857142857144L21.944444444444443,181.2857142857143L28.61111111111111,180.07142857142858L35.27777777777778,180L41.94444444444444,179.14285714285714L48.61111111111111,162.64285714285714L55.27777777777778,180.2857142857143L61.94444444444444,178.14285714285714L68.61111111111111,181.42857142857142L75.27777777777777,180.35714285714286L81.94444444444444,182.07142857142858L88.61111111111111,181.85714285714286L95.27777777777777,179.85714285714286L101.94444444444444,181.42857142857142L108.6111111111111,181.71428571428572L115.27777777777777,182.42857142857142L121.94444444444446,182.35714285714286L128.61111111111111,183.71428571428572L135.27777777777777,183.71428571428572L141.94444444444446,182.71428571428572L148.61111111111111,183.14285714285714L155.27777777777777,183.85714285714286L161.94444444444446,183.92857142857142L168.61111111111111,182.64285714285714L175.27777777777777,183.42857142857142L181.94444444444443,184.14285714285714L188.61111111111111,183.57142857142856L195.27777777777777,184L201.94444444444443,182.71428571428572" stroke="#f58518" stroke-width="2" opacity="0.2"></path></g></g><path class="foreground" aria-hidden="true" d="" display="none"></path></g><g transform="translate(0,0)"><path class="background" aria-hidden="true" d="M0,0h200v200h-200Z"></path><g><g class="mark-line role-mark concat_0_layer_0_marks" clip-path="url(#clip3)" role="graphics-object" aria-roledescription="line mark container"><path aria-label="Type: Confirmed; Date: Mar 01; Count: 1" role="graphics-symbol" aria-roledescription="line mark" d="M-391.1111111111111,185.64285714285714L-384.44444444444446,185.28571428571428L-377.77777777777777,185.35714285714286L-371.11111111111114,185L-364.44444444444446,183.78571428571428L-357.77777777777777,181.5L-351.1111111111111,181.42857142857142L-344.44444444444446,183.5L-338.05555555555554,182.92857142857142L-331.3888888888889,183.71428571428572L-324.72222222222223,182.35714285714286L-318.05555555555554,185.71428571428572L-311.3888888888889,168.21428571428572L-304.72222222222223,176.42857142857142L-298.05555555555554,171.64285714285714L-291.38888888888886,173.42857142857142L-284.72222222222223,172.5L-278.05555555555554,168.35714285714286L-271.3888888888889,163.64285714285717L-264.72222222222223,152.71428571428572L-258.05555555555554,145.85714285714286L-251.38888888888889,143.85714285714286L-244.72222222222223,161.2857142857143L-238.05555555555554,148.14285714285714L-231.3888888888889,138L-224.72222222222223,93L-218.05555555555554,110.78571428571429L-211.38888888888889,53.571428571428584L-204.7222222222222,64.14285714285714L-198.05555555555557,109.78571428571429L-191.38888888888889,123.14285714285714L-184.72222222222223,100.7857142857143L-178.05555555555554,86.85714285714286L-171.38888888888889,84.14285714285714L-164.72222222222223,67.07142857142858L-158.05555555555554,95.71428571428571L-151.38888888888889,105.50000000000001L-144.72222222222223,87.14285714285714L-138.05555555555554,99.35714285714286L-131.38888888888889,72.85714285714286L-124.72222222222223,65.42857142857143L-118.05555555555556,89.21428571428571L-111.38888888888889,69.35714285714285L-104.72222222222223,118.42857142857142L-98.05555555555556,147.85714285714286L-91.38888888888889,10.42857142857143L-84.72222222222221,97.42857142857142L-78.05555555555556,90.78571428571429L-71.38888888888889,111.07142857142858L-64.72222222222223,91.92857142857143L-58.05555555555556,79.5L-51.388888888888886,116.21428571428571L-44.72222222222222,119.07142857142858L-38.05555555555556,120.85714285714286L-31.38888888888889,78.85714285714285L-24.72222222222222,112.00000000000001L-18.055555555555554,127.92857142857143L-11.38888888888889,146.21428571428572L-4.722222222222222,139.5L1.9444444444444444,148.21428571428572L8.61111111111111,138.57142857142856L15.277777777777779,149.07142857142856L21.944444444444443,151.07142857142856L28.61111111111111,157.92857142857142L35.27777777777778,159.92857142857142L41.94444444444444,168.42857142857142L48.61111111111111,166.28571428571428L55.27777777777778,140.07142857142858L61.94444444444444,143.5L68.61111111111111,143.92857142857142L75.27777777777777,151.07142857142856L81.94444444444444,159.42857142857144L88.61111111111111,162.14285714285714L95.27777777777777,171.28571428571428L101.94444444444444,163.78571428571428L108.6111111111111,160.28571428571428L115.27777777777777,161.07142857142858L121.94444444444446,164.92857142857142L128.61111111111111,165.78571428571428L135.27777777777777,169.14285714285714L141.94444444444446,172L148.61111111111111,167.7142857142857L155.27777777777777,166L161.94444444444446,164.35714285714286L168.61111111111111,165.57142857142856L175.27777777777777,167.85714285714286L181.94444444444443,177.64285714285714L188.61111111111111,175.92857142857144L195.27777777777777,167.35714285714286L201.94444444444443,170.57142857142858" stroke="#4c78a8" stroke-width="2" opacity="0.2"></path></g></g><path class="foreground" aria-hidden="true" d="" display="none"></path></g></g><g class="mark-group role-scope concat_0_layer_1_pathgroup" role="graphics-object" aria-roledescription="group mark container"><g transform="translate(0,0)"><path class="background" aria-hidden="true" d="M0,0h200v200h-200Z"></path><g><g class="mark-line role-mark concat_0_layer_1_marks" clip-path="url(#clip4)" role="graphics-object" aria-roledescription="line mark container"><path aria-label="Type: Recovered; Date: Mar 01; Count: 0" role="graphics-symbol" aria-roledescription="line mark" d="M-351.1111111111111,185.71428571428572L-344.44444444444446,185.71428571428572L-338.05555555555554,185.71428571428572L-331.3888888888889,185.71428571428572L-324.72222222222223,185.71428571428572L-318.05555555555554,185.71428571428572L-311.3888888888889,185.71428571428572L-304.72222222222223,185.71428571428572L-298.05555555555554,185.71428571428572L-291.38888888888886,185.71428571428572L-284.72222222222223,185.71428571428572L-278.05555555555554,185.40816326530611L-271.3888888888889,185.40816326530611L-264.72222222222223,185.71428571428572L-258.05555555555554,183.04081632653063L-251.38888888888889,183.04081632653063L-244.72222222222223,183.04081632653063L-238.05555555555554,181.0204081632653L-231.3888888888889,180.44897959183675L-224.72222222222223,179.14285714285714L-218.05555555555554,176.96938775510205L-211.38888888888889,177.55102040816325L-204.7222222222222,174.53061224489795L-198.05555555555557,172.81632653061226L-191.38888888888889,173.1122448979592L-184.72222222222223,169.54081632653063L-178.05555555555554,167.14285714285714L-171.38888888888889,165.16326530612244L-164.72222222222223,163.42857142857144L-158.05555555555554,161.3061224489796L-151.38888888888889,160.62244897959184L-144.72222222222223,160.60204081632654L-138.05555555555554,159.70408163265307L-131.38888888888889,158.4795918367347L-124.72222222222223,158.20408163265307L-118.05555555555556,157.76530612244898L-111.38888888888889,158.0408163265306L-104.72222222222223,157.94897959183675L-98.05555555555556,158.05102040816328L-91.38888888888889,160.9591836734694L-84.72222222222221,161.24489795918367L-78.05555555555556,161.29591836734693L-71.38888888888889,161.6122448979592L-64.72222222222223,162.3061224489796L-58.05555555555556,163.3877551020408L-51.388888888888886,163.9387755102041L-44.72222222222222,161.9795918367347L-38.05555555555556,162.87755102040816L-31.38888888888889,163.66326530612244L-24.72222222222222,164.60204081632654L-18.055555555555554,165.0204081632653L-11.38888888888889,165.4795918367347L-4.722222222222222,165.90816326530614L1.9444444444444444,166.83673469387753L8.61111111111111,167.59183673469389L15.277777777777779,167.6530612244898L21.944444444444443,167.40816326530611L28.61111111111111,170.16326530612244L35.27777777777778,170.40816326530611L41.94444444444444,170.42857142857142L48.61111111111111,170.9387755102041L55.27777777777778,171.3877551020408L61.94444444444444,172.35714285714286L68.61111111111111,173.46938775510205L75.27777777777777,172.1122448979592L81.94444444444444,172.25510204081633L88.61111111111111,172.5408163265306L95.27777777777777,173.40816326530611L101.94444444444444,174.17346938775512L108.6111111111111,174.48979591836735L115.27777777777777,175.01020408163265L121.94444444444446,175.6326530612245L128.61111111111111,175.91836734693877L135.27777777777777,175.96938775510205L141.94444444444446,176.42857142857142L148.61111111111111,176.76530612244898L155.27777777777777,177.3265306122449L161.94444444444446,178.62244897959184L168.61111111111111,179.16326530612247L175.27777777777777,179.18367346938774L181.94444444444443,179.25510204081633L188.61111111111111,179.40816326530614L195.27777777777777,179.75510204081633L201.94444444444443,180.01020408163265" stroke="#e45756" stroke-width="2" opacity="1"></path></g></g><path class="foreground" aria-hidden="true" d="" display="none"></path></g><g transform="translate(0,0)"><path class="background" aria-hidden="true" d="M0,0h200v200h-200Z"></path><g><g class="mark-line role-mark concat_0_layer_1_marks" clip-path="url(#clip5)" role="graphics-object" aria-roledescription="line mark container"><path aria-label="Type: Deaths; Date: Mar 01; Count: 0" role="graphics-symbol" aria-roledescription="line mark" d="M-351.1111111111111,185.71428571428572L-344.44444444444446,185.71428571428572L-338.05555555555554,185.71428571428572L-331.3888888888889,185.71428571428572L-324.72222222222223,185.68367346938777L-318.05555555555554,185.68367346938777L-311.3888888888889,185.68367346938777L-304.72222222222223,185.67346938775512L-298.05555555555554,185.67346938775512L-291.38888888888886,185.66326530612244L-284.72222222222223,185.6122448979592L-278.05555555555554,185.60204081632654L-271.3888888888889,185.53061224489795L-264.72222222222223,185.3673469387755L-258.05555555555554,185.07142857142858L-251.38888888888889,184.98979591836735L-244.72222222222223,184.8673469387755L-238.05555555555554,184.57142857142856L-231.3888888888889,184.04081632653063L-224.72222222222223,183.68367346938777L-218.05555555555554,183.14285714285714L-211.38888888888889,182.79591836734696L-204.7222222222222,182.08163265306123L-198.05555555555557,181.37755102040816L-191.38888888888889,179.76530612244898L-184.72222222222223,179.08163265306123L-178.05555555555554,177.64285714285714L-171.38888888888889,177L-164.72222222222223,176.22448979591837L-158.05555555555554,175.3469387755102L-151.38888888888889,174.29591836734693L-144.72222222222223,172.14285714285717L-138.05555555555554,171.30612244897958L-131.38888888888889,170.28571428571428L-124.72222222222223,166.57142857142858L-118.05555555555556,164.66326530612244L-111.38888888888889,163.74489795918367L-104.72222222222223,162.5408163265306L-98.05555555555556,164.06122448979593L-91.38888888888889,163.26530612244898L-84.72222222222221,161.89795918367346L-78.05555555555556,163.83673469387756L-71.38888888888889,164.21428571428572L-64.72222222222223,164.4591836734694L-58.05555555555556,166.07142857142856L-51.388888888888886,166.92857142857142L-44.72222222222222,167.12244897959184L-38.05555555555556,169.05102040816325L-31.38888888888889,170.24489795918367L-24.72222222222222,170.77551020408163L-18.055555555555554,171.31632653061223L-11.38888888888889,171.64285714285714L-4.722222222222222,172.1122448979592L1.9444444444444444,173.07142857142856L8.61111111111111,174.44897959183675L15.277777777777779,175.26530612244898L21.944444444444443,177.0612244897959L28.61111111111111,178.06122448979593L35.27777777777778,178.39795918367346L41.94444444444444,178.72448979591837L48.61111111111111,177.16326530612244L55.27777777777778,177.33673469387753L61.94444444444444,177.3673469387755L68.61111111111111,177.3877551020408L75.27777777777777,177.42857142857142L81.94444444444444,177.72448979591837L88.61111111111111,178.1122448979592L95.27777777777777,180.57142857142856L101.94444444444444,180.73469387755102L108.6111111111111,181.24489795918367L115.27777777777777,181.3877551020408L121.94444444444446,181.6734693877551L128.61111111111111,181.90816326530611L135.27777777777777,182.1734693877551L141.94444444444446,182.58163265306123L148.61111111111111,182.8265306122449L155.27777777777777,183.1326530612245L161.94444444444446,183.3469387755102L168.61111111111111,183.3877551020408L175.27777777777777,183.3469387755102L181.94444444444443,183.40816326530614L188.61111111111111,183.53061224489795L195.27777777777777,183.6530612244898L201.94444444444443,183.48979591836735" stroke="#f58518" stroke-width="2" opacity="1"></path></g></g><path class="foreground" aria-hidden="true" d="" display="none"></path></g><g transform="translate(0,0)"><path class="background" aria-hidden="true" d="M0,0h200v200h-200Z"></path><g><g class="mark-line role-mark concat_0_layer_1_marks" clip-path="url(#clip6)" role="graphics-object" aria-roledescription="line mark container"><path aria-label="Type: Confirmed; Date: Mar 01; Count: 0" role="graphics-symbol" aria-roledescription="line mark" d="M-351.1111111111111,184L-344.44444444444446,183.6938775510204L-338.05555555555554,183.35714285714286L-331.3888888888889,183.12244897959184L-324.72222222222223,182.74489795918367L-318.05555555555554,183.0204081632653L-311.3888888888889,181.12244897959184L-304.72222222222223,180.40816326530614L-298.05555555555554,178.71428571428572L-291.38888888888886,177.35714285714286L-284.72222222222223,175.75510204081633L-278.05555555555554,173.75510204081633L-271.3888888888889,170.60204081632654L-264.72222222222223,168.3877551020408L-258.05555555555554,164.0204081632653L-251.38888888888889,160.05102040816328L-244.72222222222223,158.31632653061226L-238.05555555555554,154.83673469387756L-231.3888888888889,150.5L-224.72222222222223,140.40816326530611L-218.05555555555554,134.4183673469388L-211.38888888888889,121.23469387755101L-204.7222222222222,109.8469387755102L-198.05555555555557,102.48979591836735L-191.38888888888889,98.91836734693878L-184.72222222222223,93.60204081632652L-178.05555555555554,92.72448979591836L-171.38888888888889,88.9183673469388L-164.72222222222223,90.8469387755102L-158.05555555555554,95.35714285714285L-151.38888888888889,94.74489795918366L-144.72222222222223,89.60204081632652L-138.05555555555554,89.39795918367348L-131.38888888888889,87.39795918367348L-124.72222222222223,84.72448979591836L-118.05555555555556,87.88775510204081L-111.38888888888889,84.12244897959185L-104.72222222222223,85.96938775510206L-98.05555555555556,94.64285714285714L-91.38888888888889,81.93877551020408L-84.72222222222221,85.44897959183673L-78.05555555555556,89.07142857142858L-71.38888888888889,92.19387755102042L-64.72222222222223,95.41836734693878L-58.05555555555556,89.85714285714286L-51.388888888888886,85.33673469387755L-44.72222222222222,100.85714285714285L-38.05555555555556,104.20408163265307L-31.38888888888889,102.49999999999999L-24.72222222222222,102.63265306122449L-18.055555555555554,107.77551020408166L-11.38888888888889,117.30612244897958L-4.722222222222222,120.6326530612245L1.9444444444444444,124.79591836734694L8.61111111111111,127.32653061224491L15.277777777777779,137.35714285714286L21.944444444444443,142.93877551020407L28.61111111111111,147.22448979591837L35.27777777777778,149.18367346938774L41.94444444444444,153.31632653061226L48.61111111111111,155.89795918367346L55.27777777777778,156.1122448979592L61.94444444444444,155.31632653061226L68.61111111111111,154.29591836734693L75.27777777777777,153.31632653061226L81.94444444444444,153.24489795918367L88.61111111111111,152.3469387755102L95.27777777777777,153.06122448979593L101.94444444444444,156.44897959183672L108.6111111111111,158.8469387755102L115.27777777777777,161.29591836734693L121.94444444444446,163.27551020408166L128.61111111111111,164.18367346938777L135.27777777777777,165.18367346938777L141.94444444444446,165.28571428571428L148.61111111111111,165.8469387755102L155.27777777777777,166.66326530612247L161.94444444444446,167.1326530612245L168.61111111111111,167.22448979591837L175.27777777777777,167.5204081632653L181.94444444444443,168.73469387755102L188.61111111111111,169.29591836734693L195.27777777777777,169.24489795918367L201.94444444444443,169.89795918367346" stroke="#4c78a8" stroke-width="2" opacity="1"></path></g></g><path class="foreground" aria-hidden="true" d="" display="none"></path></g></g><g class="mark-group role-title"><g transform="translate(100,-39)"><path class="background" aria-hidden="true" d="M0,0h0v0h0Z" pointer-events="none"></path><g><g class="mark-text role-title-text" role="graphics-symbol" aria-roledescription="title" aria-label="Title text '7-day average (Daily values in light color)'" pointer-events="none"><text text-anchor="middle" transform="translate(0,10)" font-family="Roboto Condensed" font-size="13px" font-weight="normal" fill="#000" opacity="1">7-day average (Daily values in light color)</text></g></g><path class="foreground" aria-hidden="true" d="" pointer-events="none" display="none"></path></g></g></g><path class="foreground" aria-hidden="true" d="" display="none"></path></g></g><g class="mark-group role-scope concat_1_group" role="graphics-object" aria-roledescription="group mark container"><g transform="translate(269,0)"><path class="background" aria-hidden="true" d="M0,0h200v200h-200Z" stroke="#ddd" stroke-width="0"></path><g><g class="mark-group role-axis" aria-hidden="true"><g transform="translate(0.5,0.5)"><path class="background" aria-hidden="true" d="M0,0h0v0h0Z" pointer-events="none"></path><g><g class="mark-rule role-axis-grid" pointer-events="none"><line transform="translate(0,200)" x2="200" y2="0" stroke="#ddd" stroke-width="1" opacity="1"></line><line transform="translate(0,167)" x2="200" y2="0" stroke="#ddd" stroke-width="1" opacity="1"></line><line transform="translate(0,133)" x2="200" y2="0" stroke="#ddd" stroke-width="1" opacity="1"></line><line transform="translate(0,100)" x2="200" y2="0" stroke="#ddd" stroke-width="1" opacity="1"></line><line transform="translate(0,67)" x2="200" y2="0" stroke="#ddd" stroke-width="1" opacity="1"></line><line transform="translate(0,33)" x2="200" y2="0" stroke="#ddd" stroke-width="1" opacity="1"></line><line transform="translate(0,0)" x2="200" y2="0" stroke="#ddd" stroke-width="1" opacity="1"></line></g></g><path class="foreground" aria-hidden="true" d="" pointer-events="none" display="none"></path></g></g><g class="mark-group role-axis" role="graphics-symbol" aria-roledescription="axis" aria-label="X-axis titled 'Date' for a time scale with values from April 28 to May 28"><g transform="translate(0.5,200.5)"><path class="background" aria-hidden="true" d="M0,0h0v0h0Z" pointer-events="none"></path><g><g class="mark-text role-axis-label" pointer-events="none"><text text-anchor="middle" transform="translate(28.61111111111111,10)" font-family="Roboto Condensed" font-size="10px" fill="#000" opacity="1">May 03</text><text text-anchor="middle" transform="translate(75.27777777777777,10)" font-family="Roboto Condensed" font-size="10px" fill="#000" opacity="1">May 10</text><text text-anchor="middle" transform="translate(121.94444444444446,10)" font-family="Roboto Condensed" font-size="10px" fill="#000" opacity="1">May 17</text><text text-anchor="middle" transform="translate(168.61111111111111,10)" font-family="Roboto Condensed" font-size="10px" fill="#000" opacity="1">May 24</text></g><g class="mark-rule role-axis-domain" pointer-events="none"><line transform="translate(0,0)" x2="200" y2="0" stroke="lightgray" stroke-width="1" opacity="1"></line></g><g class="mark-text role-axis-title" pointer-events="none"><text text-anchor="middle" transform="translate(100,25)" font-family="Roboto Condensed" font-size="11px" font-weight="normal" fill="#000" opacity="1">Date</text></g></g><path class="foreground" aria-hidden="true" d="" pointer-events="none" display="none"></path></g></g><g class="mark-group role-axis" role="graphics-symbol" aria-roledescription="axis" aria-label="Y-axis titled 'Count' for a linear scale with values from 0 to 60,000"><g transform="translate(0.5,0.5)"><path class="background" aria-hidden="true" d="M0,0h0v0h0Z" pointer-events="none"></path><g><g class="mark-text role-axis-label" pointer-events="none"><text text-anchor="end" transform="translate(-2,203)" font-family="Roboto Condensed" font-size="10px" fill="#000" opacity="1">0</text><text text-anchor="end" transform="translate(-2,169.66666666666669)" font-family="Roboto Condensed" font-size="10px" fill="#000" opacity="1">10,000</text><text text-anchor="end" transform="translate(-2,136.33333333333334)" font-family="Roboto Condensed" font-size="10px" fill="#000" opacity="1">20,000</text><text text-anchor="end" transform="translate(-2,103)" font-family="Roboto Condensed" font-size="10px" fill="#000" opacity="1">30,000</text><text text-anchor="end" transform="translate(-2,69.66666666666667)" font-family="Roboto Condensed" font-size="10px" fill="#000" opacity="1">40,000</text><text text-anchor="end" transform="translate(-2,36.33333333333333)" font-family="Roboto Condensed" font-size="10px" fill="#000" opacity="1">50,000</text><text text-anchor="end" transform="translate(-2,3)" font-family="Roboto Condensed" font-size="10px" fill="#000" opacity="1">60,000</text></g><g class="mark-rule role-axis-domain" pointer-events="none"><line transform="translate(0,200)" x2="0" y2="-200" stroke="lightgray" stroke-width="1" opacity="1"></line></g><g class="mark-text role-axis-title" pointer-events="none"><text text-anchor="start" transform="translate(-45,-13)" font-family="Roboto Condensed" font-size="11px" font-weight="normal" fill="#000" opacity="1">Count</text></g></g><path class="foreground" aria-hidden="true" d="" pointer-events="none" display="none"></path></g></g><g class="mark-group role-scope concat_1_pathgroup" role="graphics-object" aria-roledescription="group mark container"><g transform="translate(0,0)"><path class="background" aria-hidden="true" d="M0,0h200v200h-200Z"></path><g><g class="mark-line role-mark concat_1_marks" clip-path="url(#clip7)" role="graphics-object" aria-roledescription="line mark container"><path aria-label="Type: Recovered; Date: Mar 01; Country: Belgium; Confirmed: 2; Recovered: 1; Deaths: 0; Count: 1" role="graphics-symbol" aria-roledescription="line mark" d="M-391.1111111111111,199.99666666666667L-384.44444444444446,199.99666666666667L-377.77777777777777,199.99666666666667L-371.11111111111114,199.99666666666667L-364.44444444444446,199.99666666666667L-357.77777777777777,199.99666666666667L-351.1111111111111,199.99666666666667L-344.44444444444446,199.99666666666667L-338.05555555555554,199.99666666666667L-331.3888888888889,199.99666666666667L-324.72222222222223,199.99666666666667L-318.05555555555554,199.99666666666667L-311.3888888888889,199.99666666666667L-304.72222222222223,199.99666666666667L-298.05555555555554,199.99666666666667L-291.38888888888886,199.99666666666667L-284.72222222222223,199.99666666666667L-278.05555555555554,199.89666666666665L-271.3888888888889,199.89666666666665L-264.72222222222223,199.99666666666667L-258.05555555555554,199.12333333333333L-251.38888888888889,199.12333333333333L-244.72222222222223,199.12333333333333L-238.05555555555554,198.46333333333334L-231.3888888888889,198.17666666666668L-224.72222222222223,197.75L-218.05555555555554,197.14000000000001L-211.38888888888889,196.45666666666665L-204.7222222222222,195.47L-198.05555555555557,194.91L-191.38888888888889,194.34666666666666L-184.72222222222223,192.89333333333335L-178.05555555555554,191.68333333333334L-171.38888888888889,190.42666666666665L-164.72222222222223,189.17666666666665L-158.05555555555554,187.49666666666667L-151.38888888888889,186.71333333333334L-144.72222222222223,186.14333333333332L-138.05555555555554,184.39666666666668L-131.38888888888889,182.78666666666666L-124.72222222222223,181.44L-118.05555555555556,180.04666666666665L-111.38888888888889,178.45666666666665L-104.72222222222223,177.64333333333332L-98.05555555555556,177.10666666666665L-91.38888888888889,176.31L-84.72222222222221,174.79333333333332L-78.05555555555556,173.46333333333334L-71.38888888888889,172.17333333333335L-64.72222222222223,170.81L-58.05555555555556,170.35L-51.388888888888886,169.99333333333334L-44.72222222222222,168.55666666666667L-38.05555555555556,167.33333333333334L-31.38888888888889,166.26000000000002L-24.72222222222222,165.27666666666667L-18.055555555555554,164.05L-11.38888888888889,163.74L-4.722222222222222,163.52333333333334L1.9444444444444444,162.39L8.61111111111111,161.41333333333333L15.277777777777779,160.36L21.944444444444443,159.29666666666665L28.61111111111111,158.97L35.27777777777778,158.73999999999998L41.94444444444444,158.53L48.61111111111111,157.56333333333333L55.27777777777778,156.73333333333335L61.94444444444444,155.99666666666667L68.61111111111111,155.29666666666665L75.27777777777777,154.52666666666664L81.94444444444444,154.34333333333333L88.61111111111111,154.22666666666666L95.27777777777777,153.54333333333332L101.94444444444444,152.96333333333334L108.6111111111111,152.32999999999998L115.27777777777777,151.8L121.94444444444446,151.23333333333332L128.61111111111111,151.14333333333335L135.27777777777777,151.04333333333332L141.94444444444446,150.51000000000002L148.61111111111111,150.04L155.27777777777777,149.59L161.94444444444446,149.48333333333332L168.61111111111111,149.09333333333333L175.27777777777777,149.01L181.94444444444443,148.9333333333333L188.61111111111111,148.45000000000002L195.27777777777777,148.09333333333333L201.94444444444443,147.72666666666666" stroke="#e45756" stroke-width="2" opacity="0.7"></path></g></g><path class="foreground" aria-hidden="true" d="" display="none"></path></g><g transform="translate(0,0)"><path class="background" aria-hidden="true" d="M0,0h200v200h-200Z"></path><g><g class="mark-line role-mark concat_1_marks" clip-path="url(#clip8)" role="graphics-object" aria-roledescription="line mark container"><path aria-label="Type: Deaths; Date: Mar 01; Country: Belgium; Confirmed: 2; Recovered: 1; Deaths: 0; Count: 0" role="graphics-symbol" aria-roledescription="line mark" d="M-391.1111111111111,200L-384.44444444444446,200L-377.77777777777777,200L-371.11111111111114,200L-364.44444444444446,200L-357.77777777777777,200L-351.1111111111111,200L-344.44444444444446,200L-338.05555555555554,200L-331.3888888888889,200L-324.72222222222223,199.99L-318.05555555555554,199.99L-311.3888888888889,199.99L-304.72222222222223,199.98666666666668L-298.05555555555554,199.98666666666668L-291.38888888888886,199.98333333333335L-284.72222222222223,199.96666666666667L-278.05555555555554,199.95333333333335L-271.3888888888889,199.93L-264.72222222222223,199.87666666666667L-258.05555555555554,199.77666666666667L-251.38888888888889,199.75L-244.72222222222223,199.70666666666668L-238.05555555555554,199.59333333333333L-231.3888888888889,199.40666666666667L-224.72222222222223,199.26666666666665L-218.05555555555554,199.03666666666666L-211.38888888888889,198.82333333333332L-204.7222222222222,198.56333333333333L-198.05555555555557,198.29000000000002L-191.38888888888889,197.65L-184.72222222222223,197.23999999999998L-178.05555555555554,196.63L-171.38888888888889,196.19L-164.72222222222223,195.72333333333333L-158.05555555555554,195.17666666666668L-151.38888888888889,194.56L-144.72222222222223,193.21666666666667L-138.05555555555554,192.53333333333333L-131.38888888888889,191.59L-124.72222222222223,189.93666666666667L-118.05555555555556,188.84666666666666L-111.38888888888889,188L-104.72222222222223,186.98999999999998L-98.05555555555556,186.14333333333332L-91.38888888888889,185.20000000000002L-84.72222222222221,183.81L-78.05555555555556,182.79000000000002L-71.38888888888889,181.82333333333332L-64.72222222222223,181.05666666666667L-58.05555555555556,180.57333333333335L-51.388888888888886,180.00666666666666L-44.72222222222222,179.12666666666667L-38.05555555555556,178.36666666666667L-31.38888888888889,177.73666666666668L-24.72222222222222,176.94333333333333L-18.055555555555554,176.35333333333335L-11.38888888888889,175.97666666666666L-4.722222222222222,175.56333333333333L1.9444444444444444,174.99666666666667L8.61111111111111,174.68666666666667L15.277777777777779,174.32333333333335L21.944444444444443,174.11666666666665L28.61111111111111,173.85333333333332L35.27777777777778,173.58666666666667L41.94444444444444,173.28L48.61111111111111,172.20333333333332L55.27777777777778,171.95L61.94444444444444,171.59666666666666L68.61111111111111,171.39666666666668L75.27777777777777,171.14666666666668L81.94444444444444,170.97666666666666L88.61111111111111,170.79666666666665L95.27777777777777,170.52333333333334L101.94444444444444,170.32333333333332L108.6111111111111,170.13666666666666L115.27777777777777,169.98333333333332L121.94444444444446,169.82666666666665L128.61111111111111,169.73333333333335L135.27777777777777,169.64000000000001L141.94444444444446,169.5L148.61111111111111,169.38L155.27777777777777,169.29333333333335L161.94444444444446,169.20999999999998L168.61111111111111,169.06666666666666L175.27777777777777,168.96L181.94444444444443,168.88666666666668L188.61111111111111,168.78666666666666L195.27777777777777,168.70666666666668L201.94444444444443,168.56666666666666" stroke="#f58518" stroke-width="2" opacity="0.7"></path></g></g><path class="foreground" aria-hidden="true" d="" display="none"></path></g><g transform="translate(0,0)"><path class="background" aria-hidden="true" d="M0,0h200v200h-200Z"></path><g><g class="mark-line role-mark concat_1_marks" clip-path="url(#clip9)" role="graphics-object" aria-roledescription="line mark container"><path aria-label="Type: Confirmed; Date: Mar 01; Country: Belgium; Confirmed: 2; Recovered: 1; Deaths: 0; Count: 2" role="graphics-symbol" aria-roledescription="line mark" d="M-391.1111111111111,199.99333333333334L-384.44444444444446,199.97333333333333L-377.77777777777777,199.95666666666668L-371.11111111111114,199.92333333333335L-364.44444444444446,199.83333333333334L-357.77777777777777,199.63666666666666L-351.1111111111111,199.43666666666667L-344.44444444444446,199.33333333333334L-338.05555555555554,199.20333333333332L-331.3888888888889,199.11L-324.72222222222223,198.95333333333335L-318.05555555555554,198.95333333333335L-311.3888888888889,198.13666666666668L-304.72222222222223,197.70333333333335L-298.05555555555554,197.04666666666665L-291.38888888888886,196.47333333333333L-284.72222222222223,195.85666666666665L-278.05555555555554,195.04666666666665L-271.3888888888889,194.01666666666665L-264.72222222222223,192.4766666666667L-258.05555555555554,190.61666666666665L-251.38888888888889,188.66333333333333L-244.72222222222223,187.52333333333334L-238.05555555555554,185.76999999999998L-231.3888888888889,183.54333333333332L-224.72222222222223,179.21666666666667L-218.05555555555554,175.72L-211.38888888888889,169.55333333333334L-204.7222222222222,163.88L-198.05555555555557,160.33666666666667L-191.38888888888889,157.41666666666669L-184.72222222222223,153.45333333333332L-178.05555555555554,148.84L-171.38888888888889,144.1L-164.72222222222223,138.56333333333333L-158.05555555555554,134.36333333333334L-151.38888888888889,130.62L-144.72222222222223,126.02L-138.05555555555554,121.99L-131.38888888888889,116.72333333333333L-124.72222222222223,111.11L-118.05555555555556,106.60666666666667L-111.38888888888889,101.17666666666668L-104.72222222222223,98.03666666666666L-98.05555555555556,96.26999999999998L-91.38888888888889,88.09L-84.72222222222221,83.96999999999998L-78.05555555555556,79.54L-71.38888888888889,76.05666666666666L-64.72222222222223,71.68L-58.05555555555556,66.72333333333333L-51.388888888888886,63.480000000000004L-44.72222222222222,60.36999999999999L-38.05555555555556,57.34333333333333L-31.38888888888889,52.356666666666676L-24.72222222222222,48.91666666666667L-18.055555555555554,46.21999999999999L-11.38888888888889,44.376666666666665L-4.722222222222222,42.21999999999999L1.9444444444444444,40.470000000000006L8.61111111111111,38.27L15.277777777777779,36.559999999999995L21.944444444444443,34.94333333333333L28.61111111111111,33.64666666666667L35.27777777777778,32.443333333333335L41.94444444444444,31.63666666666667L48.61111111111111,30.72999999999999L55.27777777777778,28.6L61.94444444444444,26.63L68.61111111111111,24.679999999999993L75.27777777777777,23.063333333333325L81.94444444444444,21.83666666666666L88.61111111111111,20.73666666666667L95.27777777777777,20.063333333333343L101.94444444444444,19.039999999999992L108.6111111111111,17.853333333333342L115.27777777777777,16.703333333333337L121.94444444444446,15.733333333333333L128.61111111111111,14.803333333333324L135.27777777777777,14.030000000000008L141.94444444444446,13.38999999999999L148.61111111111111,12.549999999999994L155.27777777777777,11.630000000000006L161.94444444444446,10.63333333333334L168.61111111111111,9.693333333333332L175.27777777777777,8.860000000000001L181.94444444444443,8.48333333333333L188.61111111111111,8.02666666666667L195.27777777777777,7.17000000000001L201.94444444444443,6.463333333333332" stroke="#4c78a8" stroke-width="2" opacity="0.7"></path></g></g><path class="foreground" aria-hidden="true" d="" display="none"></path></g></g><g class="mark-group role-title"><g transform="translate(100,-39)"><path class="background" aria-hidden="true" d="M0,0h0v0h0Z" pointer-events="none"></path><g><g class="mark-text role-title-text" role="graphics-symbol" aria-roledescription="title" aria-label="Title text 'Total'" pointer-events="none"><text text-anchor="middle" transform="translate(0,10)" font-family="Roboto Condensed" font-size="13px" font-weight="normal" fill="#000" opacity="1">Total</text></g></g><path class="foreground" aria-hidden="true" d="" pointer-events="none" display="none"></path></g></g></g><path class="foreground" aria-hidden="true" d="" display="none"></path></g></g><g class="mark-group role-legend" role="graphics-symbol" aria-roledescription="legend" aria-label="Symbol legend for stroke color with 3 values: Confirmed, Deaths, Recovered"><g transform="translate(487,0)"><path class="background" aria-hidden="true" d="M0,0h58v37h-58Z" pointer-events="none"></path><g><g class="mark-group role-legend-entry"><g transform="translate(0,0)"><path class="background" aria-hidden="true" d="M0,0h0v0h0Z" pointer-events="none"></path><g><g class="mark-group role-scope" role="graphics-object" aria-roledescription="group mark container"><g transform="translate(0,0)"><path class="background" aria-hidden="true" d="M0,0h58v11h-58Z" pointer-events="none" opacity="1"></path><g><g class="mark-symbol role-legend-symbol" pointer-events="none"><path transform="translate(6,6)" d="M-5,0L5,0" stroke="#4c78a8" stroke-width="1.5" opacity="0.2"></path></g><g class="mark-text role-legend-label" pointer-events="none"><text text-anchor="start" transform="translate(16,9)" font-family="Roboto Condensed" font-size="10px" fill="#000" opacity="1">Confirmed</text></g></g><path class="foreground" aria-hidden="true" d="" pointer-events="none" display="none"></path></g><g transform="translate(0,13)"><path class="background" aria-hidden="true" d="M0,0h58v11h-58Z" pointer-events="none" opacity="1"></path><g><g class="mark-symbol role-legend-symbol" pointer-events="none"><path transform="translate(6,6)" d="M-5,0L5,0" stroke="#f58518" stroke-width="1.5" opacity="0.2"></path></g><g class="mark-text role-legend-label" pointer-events="none"><text text-anchor="start" transform="translate(16,9)" font-family="Roboto Condensed" font-size="10px" fill="#000" opacity="1">Deaths</text></g></g><path class="foreground" aria-hidden="true" d="" pointer-events="none" display="none"></path></g><g transform="translate(0,26)"><path class="background" aria-hidden="true" d="M0,0h58v11h-58Z" pointer-events="none" opacity="1"></path><g><g class="mark-symbol role-legend-symbol" pointer-events="none"><path transform="translate(6,6)" d="M-5,0L5,0" stroke="#e45756" stroke-width="1.5" opacity="0.2"></path></g><g class="mark-text role-legend-label" pointer-events="none"><text text-anchor="start" transform="translate(16,9)" font-family="Roboto Condensed" font-size="10px" fill="#000" opacity="1">Recovered</text></g></g><path class="foreground" aria-hidden="true" d="" pointer-events="none" display="none"></path></g></g></g><path class="foreground" aria-hidden="true" d="" pointer-events="none" display="none"></path></g></g></g><path class="foreground" aria-hidden="true" d="" pointer-events="none" display="none"></path></g></g></g><path class="foreground" aria-hidden="true" d="" display="none"></path></g></g></g></svg>