<svg class="marks" width="600" height="276" viewBox="0 0 600 276" version="1.1" xmlns="http://www.w3.org/2000/svg" xmlns:xlink="http://www.w3.org/1999/xlink"><defs><clipPath id="clip1"><rect x="0" y="0" width="200" height="200"></rect></clipPath><clipPath id="clip2"><rect x="0" y="0" width="200" height="200"></rect></clipPath><clipPath id="clip3"><rect x="0" y="0" width="200" height="200"></rect></clipPath><clipPath id="clip4"><rect x="0" y="0" width="200" height="200"></rect></clipPath><clipPath id="clip5"><rect x="0" y="0" width="200" height="200"></rect></clipPath><clipPath id="clip6"><rect x="0" y="0" width="200" height="200"></rect></clipPath><clipPath id="clip7"><rect x="0" y="0" width="200" height="200"></rect></clipPath><clipPath id="clip8"><rect x="0" y="0" width="200" height="200"></rect></clipPath><clipPath id="clip9"><rect x="0" y="0" width="200" height="200"></rect></clipPath></defs><rect width="600" height="276" fill="white"></rect><g fill="none" stroke-miterlimit="10" transform="translate(50,44)"><g class="mark-group role-frame root" role="graphics-object" aria-roledescription="group mark container"><g transform="translate(0,0)"><path class="background" aria-hidden="true" d="M0,0h0v200h0Z"></path><g><g class="mark-group role-scope concat_0_group" role="graphics-object" aria-roledescription="group mark container"><g transform="translate(0,0)"><path class="background" aria-hidden="true" d="M0,0h200v200h-200Z" stroke="#ddd" stroke-width="0"></path><g><g class="mark-group role-axis" aria-hidden="true"><g transform="translate(0.5,0.5)"><path class="background" aria-hidden="true" d="M0,0h0v0h0Z" pointer-events="none"></path><g><g class="mark-rule role-axis-grid" pointer-events="none"><line transform="translate(0,200)" x2="200" y2="0" stroke="#ddd" stroke-width="1" opacity="1"></line><line transform="translate(0,150)" x2="200" y2="0" stroke="#ddd" stroke-width="1" opacity="1"></line><line transform="translate(0,100)" x2="200" y2="0" stroke="#ddd" stroke-width="1" opacity="1"></line><line transform="translate(0,50)" x2="200" y2="0" stroke="#ddd" stroke-width="1" opacity="1"></line><line transform="translate(0,0)" x2="200" y2="0" stroke="#ddd" stroke-width="1" opacity="1"></line></g></g><path class="foreground" aria-hidden="true" d="" pointer-events="none" display="none"></path></g></g><g class="mark-group role-axis" role="graphics-symbol" aria-roledescription="axis" aria-label="X-axis titled 'Date' for a time scale with values from April 28 to May 28"><g transform="translate(0.5,200.5)"><path class="background" aria-hidden="true" d="M0,0h0v0h0Z" pointer-events="none"></path><g><g class="mark-text role-axis-label" pointer-events="none"><text text-anchor="middle" transform="translate(28.61111111111111,10)" font-family="Roboto Condensed" font-size="10px" fill="#000" opacity="1">May 03</text><text text-anchor="middle" transform="translate(75.27777777777777,10)" font-family="Roboto Condensed" font-size="10px" fill="#000" opacity="1">May 10</text><text text-anchor="middle" transform="translate(121.94444444444446,10)" font-family="Roboto Condensed" font-size="10px" fill="#000" opacity="1">May 17</text><text text-anchor="middle" transform="translate(168.61111111111111,10)" font-family="Roboto Condensed" font-size="10px" fill="#000" opacity="1">May 24</text></g><g class="mark-rule role-axis-domain" pointer-events="none"><line transform="translate(0,0)" x2="200" y2="0" stroke="lightgray" stroke-width="1" opacity="1"></line></g><g class="mark-text role-axis-title" pointer-events="none"><text text-anchor="middle" transform="translate(100,25)" font-family="Roboto Condensed" font-size="11px" font-weight="normal" fill="#000" opacity="1">Date</text></g></g><path class="foreground" aria-hidden="true" d="" pointer-events="none" display="none"></path></g></g><g class="mark-group role-axis" role="graphics-symbol" aria-roledescription="axis" aria-label="Y-axis titled 'Count' for a linear scale with values from 0 to 8,000"><g transform="translate(0.5,0.5)"><path class="background" aria-hidden="true" d="M0,0h0v0h0Z" pointer-events="none"></path><g><g class="mark-text role-axis-label" pointer-events="none"><text text-anchor="end" transform="translate(-2,203)" font-family="Roboto Condensed" font-size="10px" fill="#000" opacity="1">0</text><text text-anchor="end" transform="translate(-2,153)" font-family="Roboto Condensed" font-size="10px" fill="#000" opacity="1">2,000</text><text text-anchor="end" transform="translate(-2,103)" font-family="Roboto Condensed" font-size="10px" fill="#000" opacity="1">4,000</text><text text-anchor="end" transform="translate(-2,53)" font-family="Roboto Condensed" font-size="10px" fill="#000" opacity="1">6,000</text><text text-anchor="end" transform="translate(-2,3)" font-family="Roboto Condensed" font-size="10px" fill="#000" opacity="1">8,000</text></g><g class="mark-rule role-axis-domain" pointer-events="none"><line transform="translate(0,200)" x2="0" y2="-200" stroke="lightgray" stroke-width="1" opacity="1"></line></g><g class="mark-text role-axis-title" pointer-events="none"><text text-anchor="start" transform="translate(-45,-13)" font-family="Roboto Condensed" font-size="11px" font-weight="normal" fill="#000" opacity="1">Count</text></g></g><path class="foreground" aria-hidden="true" d="" pointer-events="none" display="none"></path></g></g><g class="mark-group role-scope concat_0_layer_0_pathgroup" role="graphics-object" aria-roledescription="group mark container"><g transform="translate(0,0)"><path class="background" aria-hidden="true" d="M0,0h200v200h-200Z"></path><g><g class="mark-line role-mark concat_0_layer_0_marks" clip-path="url(#clip1)" role="graphics-object" aria-roledescription="line mark container"><path aria-label="Type: Recovered; Date: Mar 01; Count: 0" role="graphics-symbol" aria-roledescription="line mark" d="M-391.1111111111111,200L-384.44444444444446,200L-377.77777777777777,200L-371.11111111111114,200L-364.44444444444446,200L-357.77777777777777,200L-351.1111111111111,200L-344.44444444444446,200L-338.05555555555554,199.975L-331.3888888888889,200L-324.72222222222223,200L-318.05555555555554,200L-311.3888888888889,200L-304.72222222222223,200L-298.05555555555554,200L-291.38888888888886,200L-284.72222222222223,200L-278.05555555555554,200L-271.3888888888889,200L-264.72222222222223,200L-258.05555555555554,200L-251.38888888888889,200L-244.72222222222223,200L-238.05555555555554,199.875L-231.3888888888889,200L-224.72222222222223,200L-218.05555555555554,200L-211.38888888888889,199.975L-204.7222222222222,200L-198.05555555555557,199.875L-191.38888888888889,199.975L-184.72222222222223,200L-178.05555555555554,199.525L-171.38888888888889,200L-164.72222222222223,200L-158.05555555555554,200L-151.38888888888889,200L-144.72222222222223,200L-138.05555555555554,200L-131.38888888888889,200L-124.72222222222223,200L-118.05555555555556,200L-111.38888888888889,200L-104.72222222222223,200L-98.05555555555556,200L-91.38888888888889,200L-84.72222222222221,200L-78.05555555555556,200L-71.38888888888889,200L-64.72222222222223,200L-58.05555555555556,200L-51.388888888888886,200L-44.72222222222222,200L-38.05555555555556,200L-31.38888888888889,200L-24.72222222222222,200L-18.055555555555554,200L-11.38888888888889,200L-4.722222222222222,200L1.9444444444444444,200L8.61111111111111,200L15.277777777777779,200L21.944444444444443,200L28.61111111111111,200L35.27777777777778,200L41.94444444444444,200L48.61111111111111,200L55.27777777777778,200L61.94444444444444,200L68.61111111111111,200L75.27777777777777,200L81.94444444444444,200L88.61111111111111,200L95.27777777777777,200L101.94444444444444,200L108.6111111111111,200L115.27777777777777,200L121.94444444444446,200L128.61111111111111,200L135.27777777777777,200L141.94444444444446,200L148.61111111111111,200L155.27777777777777,7.624999999999993L161.94444444444446,200L168.61111111111111,200L175.27777777777777,200L181.94444444444443,200L188.61111111111111,200L195.27777777777777,200L201.94444444444443,200" stroke="#e45756" stroke-width="2" opacity="0.2"></path></g></g><path class="foreground" aria-hidden="true" d="" display="none"></path></g><g transform="translate(0,0)"><path class="background" aria-hidden="true" d="M0,0h200v200h-200Z"></path><g><g class="mark-line role-mark concat_0_layer_0_marks" clip-path="url(#clip2)" role="graphics-object" aria-roledescription="line mark container"><path aria-label="Type: Deaths; Date: Mar 01; Count: 0" role="graphics-symbol" aria-roledescription="line mark" d="M-391.1111111111111,200L-384.44444444444446,200L-377.77777777777777,200L-371.11111111111114,200L-364.44444444444446,200L-357.77777777777777,200L-351.1111111111111,200L-344.44444444444446,200L-338.05555555555554,200L-331.3888888888889,200L-324.72222222222223,200L-318.05555555555554,200L-311.3888888888889,200L-304.72222222222223,199.925L-298.05555555555554,200L-291.38888888888886,200L-284.72222222222223,200L-278.05555555555554,199.925L-271.3888888888889,199.975L-264.72222222222223,200L-258.05555555555554,200L-251.38888888888889,200L-244.72222222222223,199.925L-238.05555555555554,199.95000000000002L-231.3888888888889,199.95000000000002L-224.72222222222223,200L-218.05555555555554,199.875L-211.38888888888889,199.9L-204.7222222222222,199.95000000000002L-198.05555555555557,199.82500000000002L-191.38888888888889,199.82500000000002L-184.72222222222223,199.875L-178.05555555555554,199.85L-171.38888888888889,199.77499999999998L-164.72222222222223,199.925L-158.05555555555554,199.77499999999998L-151.38888888888889,199.875L-144.72222222222223,199.675L-138.05555555555554,199.70000000000002L-131.38888888888889,199.82500000000002L-124.72222222222223,199.875L-118.05555555555556,199.85L-111.38888888888889,199.77499999999998L-104.72222222222223,199.85L-98.05555555555556,199.875L-91.38888888888889,199.725L-84.72222222222221,199.95000000000002L-78.05555555555556,199.77499999999998L-71.38888888888889,199.925L-64.72222222222223,199.975L-58.05555555555556,199.6L-51.388888888888886,199.975L-44.72222222222222,199.875L-38.05555555555556,199.82500000000002L-31.38888888888889,199.875L-24.72222222222222,199.95000000000002L-18.055555555555554,200L-11.38888888888889,199.9L-4.722222222222222,199.975L1.9444444444444444,199.975L8.61111111111111,199.925L15.277777777777779,200L21.944444444444443,199.975L28.61111111111111,200L35.27777777777778,199.925L41.94444444444444,199.975L48.61111111111111,199.975L55.27777777777778,199.975L61.94444444444444,199.975L68.61111111111111,199.975L75.27777777777777,200L81.94444444444444,199.875L88.61111111111111,199.9L95.27777777777777,199.975L101.94444444444444,199.925L108.6111111111111,200L115.27777777777777,200L121.94444444444446,200L128.61111111111111,199.975L135.27777777777777,200L141.94444444444446,199.975L148.61111111111111,199.975L155.27777777777777,200L161.94444444444446,200L168.61111111111111,200L175.27777777777777,200L181.94444444444443,200L188.61111111111111,200L195.27777777777777,199.975L201.94444444444443,200" stroke="#f58518" stroke-width="2" opacity="0.2"></path></g></g><path class="foreground" aria-hidden="true" d="" display="none"></path></g><g transform="translate(0,0)"><path class="background" aria-hidden="true" d="M0,0h200v200h-200Z"></path><g><g class="mark-line role-mark concat_0_layer_0_marks" clip-path="url(#clip3)" role="graphics-object" aria-roledescription="line mark container"><path aria-label="Type: Confirmed; Date: Mar 01; Count: 4" role="graphics-symbol" aria-roledescription="line mark" d="M-391.1111111111111,199.9L-384.44444444444446,199.85L-377.77777777777777,199.82500000000002L-371.11111111111114,199.4L-364.44444444444446,199.225L-357.77777777777777,199.475L-351.1111111111111,199.025L-344.44444444444446,199.275L-338.05555555555554,199.275L-331.3888888888889,195.125L-324.72222222222223,195.04999999999998L-318.05555555555554,197.4L-311.3888888888889,192.65L-304.72222222222223,197.65L-298.05555555555554,196.725L-291.38888888888886,197.2L-284.72222222222223,196.75L-278.05555555555554,197.82500000000002L-271.3888888888889,195.1L-264.72222222222223,195.79999999999998L-258.05555555555554,194.9L-251.38888888888889,193.325L-244.72222222222223,194.1L-238.05555555555554,193.95L-231.3888888888889,194.475L-224.72222222222223,192.875L-218.05555555555554,190.35L-211.38888888888889,193.5L-204.7222222222222,193.275L-198.05555555555557,195.97500000000002L-191.38888888888889,195.1L-184.72222222222223,194.45L-178.05555555555554,192.9L-171.38888888888889,194.425L-164.72222222222223,195.5L-158.05555555555554,196.575L-151.38888888888889,195.55L-144.72222222222223,194.475L-138.05555555555554,200L-131.38888888888889,196.875L-124.72222222222223,197.425L-118.05555555555556,197.625L-111.38888888888889,197.10000000000002L-104.72222222222223,198.04999999999998L-98.05555555555556,199.5L-91.38888888888889,197.075L-84.72222222222221,196.1L-78.05555555555556,198.975L-71.38888888888889,197.525L-64.72222222222223,198.95000000000002L-58.05555555555556,198.04999999999998L-51.388888888888886,199.125L-44.72222222222222,196.325L-38.05555555555556,198.425L-31.38888888888889,198.45L-24.72222222222222,199.10000000000002L-18.055555555555554,199.3L-11.38888888888889,198.2L-4.722222222222222,198.475L1.9444444444444444,198.75L8.61111111111111,199.3L15.277777777777779,198.875L21.944444444444443,199.35L28.61111111111111,199.04999999999998L35.27777777777778,198.575L41.94444444444444,198.725L48.61111111111111,198.975L55.27777777777778,199.04999999999998L61.94444444444444,199.10000000000002L68.61111111111111,199.275L75.27777777777777,199.85L81.94444444444444,199.325L88.61111111111111,199.375L95.27777777777777,199.55L101.94444444444444,199.475L108.6111111111111,199.425L115.27777777777777,199.55L121.94444444444446,199.70000000000002L128.61111111111111,199.8L135.27777777777777,199.75L141.94444444444446,199.65L148.61111111111111,199.3L155.27777777777777,199.425L161.94444444444446,199.65L168.61111111111111,199.85L175.27777777777777,199.70000000000002L181.94444444444443,199.525L188.61111111111111,199.55L195.27777777777777,199.75L201.94444444444443,199.725" stroke="#4c78a8" stroke-width="2" opacity="0.2"></path></g></g><path class="foreground" aria-hidden="true" d="" display="none"></path></g></g><g class="mark-group role-scope concat_0_layer_1_pathgroup" role="graphics-object" aria-roledescription="group mark container"><g transform="translate(0,0)"><path class="background" aria-hidden="true" d="M0,0h200v200h-200Z"></path><g><g class="mark-line role-mark concat_0_layer_1_marks" clip-path="url(#clip4)" role="graphics-object" aria-roledescription="line mark container"><path aria-label="Type: Recovered; Date: Mar 01; Count: 0" role="graphics-symbol" aria-roledescription="line mark" d="M-351.1111111111111,200L-344.44444444444446,200L-338.05555555555554,199.99642857142857L-331.3888888888889,199.99642857142857L-324.72222222222223,199.99642857142857L-318.05555555555554,199.99642857142857L-311.3888888888889,199.99642857142857L-304.72222222222223,199.99642857142857L-298.05555555555554,199.99642857142857L-291.38888888888886,200L-284.72222222222223,200L-278.05555555555554,200L-271.3888888888889,200L-264.72222222222223,200L-258.05555555555554,200L-251.38888888888889,200L-244.72222222222223,200L-238.05555555555554,199.98214285714286L-231.3888888888889,199.98214285714286L-224.72222222222223,199.98214285714286L-218.05555555555554,199.98214285714286L-211.38888888888889,199.97857142857143L-204.7222222222222,199.97857142857143L-198.05555555555557,199.9607142857143L-191.38888888888889,199.975L-184.72222222222223,199.975L-178.05555555555554,199.90714285714287L-171.38888888888889,199.90714285714287L-164.72222222222223,199.91071428571428L-158.05555555555554,199.91071428571428L-151.38888888888889,199.92857142857144L-144.72222222222223,199.93214285714285L-138.05555555555554,199.93214285714285L-131.38888888888889,200L-124.72222222222223,200L-118.05555555555556,200L-111.38888888888889,200L-104.72222222222223,200L-98.05555555555556,200L-91.38888888888889,200L-84.72222222222221,200L-78.05555555555556,200L-71.38888888888889,200L-64.72222222222223,200L-58.05555555555556,200L-51.388888888888886,200L-44.72222222222222,200L-38.05555555555556,200L-31.38888888888889,200L-24.72222222222222,200L-18.055555555555554,200L-11.38888888888889,200L-4.722222222222222,200L1.9444444444444444,200L8.61111111111111,200L15.277777777777779,200L21.944444444444443,200L28.61111111111111,200L35.27777777777778,200L41.94444444444444,200L48.61111111111111,200L55.27777777777778,200L61.94444444444444,200L68.61111111111111,200L75.27777777777777,200L81.94444444444444,200L88.61111111111111,200L95.27777777777777,200L101.94444444444444,200L108.6111111111111,200L115.27777777777777,200L121.94444444444446,200L128.61111111111111,200L135.27777777777777,200L141.94444444444446,200L148.61111111111111,200L155.27777777777777,172.51785714285714L161.94444444444446,172.51785714285714L168.61111111111111,172.51785714285714L175.27777777777777,172.51785714285714L181.94444444444443,172.51785714285714L188.61111111111111,172.51785714285714L195.27777777777777,172.51785714285714L201.94444444444443,200" stroke="#e45756" stroke-width="2" opacity="1"></path></g></g><path class="foreground" aria-hidden="true" d="" display="none"></path></g><g transform="translate(0,0)"><path class="background" aria-hidden="true" d="M0,0h200v200h-200Z"></path><g><g class="mark-line role-mark concat_0_layer_1_marks" clip-path="url(#clip5)" role="graphics-object" aria-roledescription="line mark container"><path aria-label="Type: Deaths; Date: Mar 01; Count: 0" role="graphics-symbol" aria-roledescription="line mark" d="M-351.1111111111111,200L-344.44444444444446,200L-338.05555555555554,200L-331.3888888888889,200L-324.72222222222223,200L-318.05555555555554,200L-311.3888888888889,200L-304.72222222222223,199.9892857142857L-298.05555555555554,199.9892857142857L-291.38888888888886,199.9892857142857L-284.72222222222223,199.9892857142857L-278.05555555555554,199.97857142857143L-271.3888888888889,199.975L-264.72222222222223,199.975L-258.05555555555554,199.98571428571427L-251.38888888888889,199.98571428571427L-244.72222222222223,199.975L-238.05555555555554,199.96785714285716L-231.3888888888889,199.9714285714286L-224.72222222222223,199.975L-218.05555555555554,199.95714285714286L-211.38888888888889,199.94285714285712L-204.7222222222222,199.93571428571428L-198.05555555555557,199.92142857142855L-191.38888888888889,199.9035714285714L-184.72222222222223,199.89285714285714L-178.05555555555554,199.87142857142857L-171.38888888888889,199.85714285714286L-164.72222222222223,199.86071428571427L-158.05555555555554,199.8357142857143L-151.38888888888889,199.84285714285716L-144.72222222222223,199.82142857142858L-138.05555555555554,199.79642857142858L-131.38888888888889,199.79285714285714L-124.72222222222223,199.80714285714285L-118.05555555555556,199.79642857142858L-111.38888888888889,199.79642857142858L-104.72222222222223,199.79285714285714L-98.05555555555556,199.82142857142858L-91.38888888888889,199.82500000000002L-84.72222222222221,199.84285714285716L-78.05555555555556,199.82857142857142L-71.38888888888889,199.83928571428572L-64.72222222222223,199.86785714285716L-58.05555555555556,199.83214285714286L-51.388888888888886,199.8464285714286L-44.72222222222222,199.86785714285716L-38.05555555555556,199.85L-31.38888888888889,199.86428571428573L-24.72222222222222,199.86785714285716L-18.055555555555554,199.87142857142857L-11.38888888888889,199.9142857142857L-4.722222222222222,199.9142857142857L1.9444444444444444,199.92857142857144L8.61111111111111,199.94285714285712L15.277777777777779,199.9607142857143L21.944444444444443,199.9642857142857L28.61111111111111,199.9642857142857L35.27777777777778,199.96785714285716L41.94444444444444,199.96785714285716L48.61111111111111,199.96785714285716L55.27777777777778,199.975L61.94444444444444,199.9714285714286L68.61111111111111,199.9714285714286L75.27777777777777,199.9714285714286L81.94444444444444,199.9642857142857L88.61111111111111,199.95357142857142L95.27777777777777,199.95357142857142L101.94444444444444,199.94642857142856L108.6111111111111,199.95000000000002L115.27777777777777,199.95357142857142L121.94444444444446,199.95357142857142L128.61111111111111,199.96785714285716L135.27777777777777,199.98214285714286L141.94444444444446,199.98214285714286L148.61111111111111,199.9892857142857L155.27777777777777,199.9892857142857L161.94444444444446,199.9892857142857L168.61111111111111,199.9892857142857L175.27777777777777,199.99285714285716L181.94444444444443,199.99285714285716L188.61111111111111,199.99642857142857L195.27777777777777,199.99642857142857L201.94444444444443,199.99642857142857" stroke="#f58518" stroke-width="2" opacity="1"></path></g></g><path class="foreground" aria-hidden="true" d="" display="none"></path></g><g transform="translate(0,0)"><path class="background" aria-hidden="true" d="M0,0h200v200h-200Z"></path><g><g class="mark-line role-mark concat_0_layer_1_marks" clip-path="url(#clip6)" role="graphics-object" aria-roledescription="line mark container"><path aria-label="Type: Confirmed; Date: Mar 01; Count: 0" role="graphics-symbol" aria-roledescription="line mark" d="M-351.1111111111111,199.52857142857144L-344.44444444444446,199.43928571428572L-338.05555555555554,199.35714285714286L-331.3888888888889,198.68571428571428L-324.72222222222223,198.06428571428572L-318.05555555555554,197.80357142857144L-311.3888888888889,196.82857142857142L-304.72222222222223,196.63214285714287L-298.05555555555554,196.26785714285714L-291.38888888888886,195.97142857142856L-284.72222222222223,196.20357142857142L-278.05555555555554,196.6L-271.3888888888889,196.27142857142857L-264.72222222222223,196.7214285714286L-258.05555555555554,196.32857142857142L-251.38888888888889,195.84285714285713L-244.72222222222223,195.4L-238.05555555555554,195L-231.3888888888889,194.52142857142857L-224.72222222222223,194.20357142857142L-218.05555555555554,193.425L-211.38888888888889,193.225L-204.7222222222222,193.21785714285716L-198.05555555555557,193.4857142857143L-191.38888888888889,193.65L-184.72222222222223,193.64642857142857L-178.05555555555554,193.65L-171.38888888888889,194.23214285714286L-164.72222222222223,194.51785714285714L-158.05555555555554,194.9892857142857L-151.38888888888889,194.92857142857142L-144.72222222222223,194.83928571428572L-138.05555555555554,195.63214285714287L-131.38888888888889,196.2L-124.72222222222223,196.62857142857143L-118.05555555555556,196.93214285714288L-111.38888888888889,197.00714285714284L-104.72222222222223,197.3642857142857L-98.05555555555556,198.08214285714286L-91.38888888888889,197.6642857142857L-84.72222222222221,197.55357142857144L-78.05555555555556,197.77499999999998L-71.38888888888889,197.7607142857143L-64.72222222222223,198.025L-58.05555555555556,198.025L-51.388888888888886,197.9714285714286L-44.72222222222222,197.86428571428573L-38.05555555555556,198.19642857142856L-31.38888888888889,198.1214285714286L-24.72222222222222,198.34642857142856L-18.055555555555554,198.39642857142857L-11.38888888888889,198.41785714285714L-4.722222222222222,198.325L1.9444444444444444,198.67142857142858L8.61111111111111,198.79642857142855L15.277777777777779,198.85714285714286L21.944444444444443,198.89285714285714L28.61111111111111,198.85714285714286L35.27777777777778,198.9107142857143L41.94444444444444,198.94642857142856L48.61111111111111,198.97857142857143L55.27777777777778,198.94285714285712L61.94444444444444,198.975L68.61111111111111,198.9642857142857L75.27777777777777,199.07857142857145L81.94444444444444,199.18571428571428L88.61111111111111,199.27857142857144L95.27777777777777,199.3607142857143L101.94444444444444,199.42142857142858L108.6111111111111,199.46785714285716L115.27777777777777,199.50714285714287L121.94444444444446,199.4857142857143L128.61111111111111,199.55357142857142L135.27777777777777,199.60714285714286L141.94444444444446,199.62142857142857L148.61111111111111,199.59642857142856L155.27777777777777,199.59642857142856L161.94444444444446,199.6107142857143L168.61111111111111,199.63214285714287L175.27777777777777,199.61785714285713L181.94444444444443,199.5857142857143L188.61111111111111,199.57142857142858L195.27777777777777,199.6357142857143L201.94444444444443,199.67857142857144" stroke="#4c78a8" stroke-width="2" opacity="1"></path></g></g><path class="foreground" aria-hidden="true" d="" display="none"></path></g></g><g class="mark-group role-title"><g transform="translate(100,-39)"><path class="background" aria-hidden="true" d="M0,0h0v0h0Z" pointer-events="none"></path><g><g class="mark-text role-title-text" role="graphics-symbol" aria-roledescription="title" aria-label="Title text '7-day average (Daily values in light color)'" pointer-events="none"><text text-anchor="middle" transform="translate(0,10)" font-family="Roboto Condensed" font-size="13px" font-weight="normal" fill="#000" opacity="1">7-day average (Daily values in light color)</text></g></g><path class="foreground" aria-hidden="true" d="" pointer-events="none" display="none"></path></g></g></g><path class="foreground" aria-hidden="true" d="" display="none"></path></g></g><g class="mark-group role-scope concat_1_group" role="graphics-object" aria-roledescription="group mark container"><g transform="translate(269,0)"><path class="background" aria-hidden="true" d="M0,0h200v200h-200Z" stroke="#ddd" stroke-width="0"></path><g><g class="mark-group role-axis" aria-hidden="true"><g transform="translate(0.5,0.5)"><path class="background" aria-hidden="true" d="M0,0h0v0h0Z" pointer-events="none"></path><g><g class="mark-rule role-axis-grid" pointer-events="none"><line transform="translate(0,200)" x2="200" y2="0" stroke="#ddd" stroke-width="1" opacity="1"></line><line transform="translate(0,156)" x2="200" y2="0" stroke="#ddd" stroke-width="1" opacity="1"></line><line transform="translate(0,111)" x2="200" y2="0" stroke="#ddd" stroke-width="1" opacity="1"></line><line transform="translate(0,67)" x2="200" y2="0" stroke="#ddd" stroke-width="1" opacity="1"></line><line transform="translate(0,22)" x2="200" y2="0" stroke="#ddd" stroke-width="1" opacity="1"></line></g></g><path class="foreground" aria-hidden="true" d="" pointer-events="none" display="none"></path></g></g><g class="mark-group role-axis" role="graphics-symbol" aria-roledescription="axis" aria-label="X-axis titled 'Date' for a time scale with values from April 28 to May 28"><g transform="translate(0.5,200.5)"><path class="background" aria-hidden="true" d="M0,0h0v0h0Z" pointer-events="none"></path><g><g class="mark-text role-axis-label" pointer-events="none"><text text-anchor="middle" transform="translate(28.61111111111111,10)" font-family="Roboto Condensed" font-size="10px" fill="#000" opacity="1">May 03</text><text text-anchor="middle" transform="translate(75.27777777777777,10)" font-family="Roboto Condensed" font-size="10px" fill="#000" opacity="1">May 10</text><text text-anchor="middle" transform="translate(121.94444444444446,10)" font-family="Roboto Condensed" font-size="10px" fill="#000" opacity="1">May 17</text><text text-anchor="middle" transform="translate(168.61111111111111,10)" font-family="Roboto Condensed" font-size="10px" fill="#000" opacity="1">May 24</text></g><g class="mark-rule role-axis-domain" pointer-events="none"><line transform="translate(0,0)" x2="200" y2="0" stroke="lightgray" stroke-width="1" opacity="1"></line></g><g class="mark-text role-axis-title" pointer-events="none"><text text-anchor="middle" transform="translate(100,25)" font-family="Roboto Condensed" font-size="11px" font-weight="normal" fill="#000" opacity="1">Date</text></g></g><path class="foreground" aria-hidden="true" d="" pointer-events="none" display="none"></path></g></g><g class="mark-group role-axis" role="graphics-symbol" aria-roledescription="axis" aria-label="Y-axis titled 'Count' for a linear scale with values from 0 to 9,000"><g transform="translate(0.5,0.5)"><path class="background" aria-hidden="true" d="M0,0h0v0h0Z" pointer-events="none"></path><g><g class="mark-text role-axis-label" pointer-events="none"><text text-anchor="end" transform="translate(-2,203)" font-family="Roboto Condensed" font-size="10px" fill="#000" opacity="1">0</text><text text-anchor="end" transform="translate(-2,158.55555555555557)" font-family="Roboto Condensed" font-size="10px" fill="#000" opacity="1">2,000</text><text text-anchor="end" transform="translate(-2,114.11111111111111)" font-family="Roboto Condensed" font-size="10px" fill="#000" opacity="1">4,000</text><text text-anchor="end" transform="translate(-2,69.66666666666667)" font-family="Roboto Condensed" font-size="10px" fill="#000" opacity="1">6,000</text><text text-anchor="end" transform="translate(-2,25.222222222222232)" font-family="Roboto Condensed" font-size="10px" fill="#000" opacity="1">8,000</text></g><g class="mark-rule role-axis-domain" pointer-events="none"><line transform="translate(0,200)" x2="0" y2="-200" stroke="lightgray" stroke-width="1" opacity="1"></line></g><g class="mark-text role-axis-title" pointer-events="none"><text text-anchor="start" transform="translate(-45,-13)" font-family="Roboto Condensed" font-size="11px" font-weight="normal" fill="#000" opacity="1">Count</text></g></g><path class="foreground" aria-hidden="true" d="" pointer-events="none" display="none"></path></g></g><g class="mark-group role-scope concat_1_pathgroup" role="graphics-object" aria-roledescription="group mark container"><g transform="translate(0,0)"><path class="background" aria-hidden="true" d="M0,0h200v200h-200Z"></path><g><g class="mark-line role-mark concat_1_marks" clip-path="url(#clip7)" role="graphics-object" aria-roledescription="line mark container"><path aria-label="Type: Recovered; Date: Mar 01; Country: Norway; Confirmed: 19; Recovered: 0; Deaths: 0; Count: 0" role="graphics-symbol" aria-roledescription="line mark" d="M-391.1111111111111,200L-384.44444444444446,200L-377.77777777777777,200L-371.11111111111114,200L-364.44444444444446,200L-357.77777777777777,200L-351.1111111111111,200L-344.44444444444446,200L-338.05555555555554,199.9777777777778L-331.3888888888889,199.9777777777778L-324.72222222222223,199.9777777777778L-318.05555555555554,199.9777777777778L-311.3888888888889,199.9777777777778L-304.72222222222223,199.9777777777778L-298.05555555555554,199.9777777777778L-291.38888888888886,199.9777777777778L-284.72222222222223,199.9777777777778L-278.05555555555554,199.9777777777778L-271.3888888888889,199.9777777777778L-264.72222222222223,199.9777777777778L-258.05555555555554,199.9777777777778L-251.38888888888889,199.9777777777778L-244.72222222222223,199.9777777777778L-238.05555555555554,199.86666666666665L-231.3888888888889,199.86666666666665L-224.72222222222223,199.86666666666665L-218.05555555555554,199.86666666666665L-211.38888888888889,199.84444444444443L-204.7222222222222,199.84444444444443L-198.05555555555557,199.73333333333335L-191.38888888888889,199.7111111111111L-184.72222222222223,199.7111111111111L-178.05555555555554,199.2888888888889L-171.38888888888889,199.2888888888889L-164.72222222222223,199.2888888888889L-158.05555555555554,199.2888888888889L-151.38888888888889,199.2888888888889L-144.72222222222223,199.2888888888889L-138.05555555555554,199.2888888888889L-131.38888888888889,199.2888888888889L-124.72222222222223,199.2888888888889L-118.05555555555556,199.2888888888889L-111.38888888888889,199.2888888888889L-104.72222222222223,199.2888888888889L-98.05555555555556,199.2888888888889L-91.38888888888889,199.2888888888889L-84.72222222222221,199.2888888888889L-78.05555555555556,199.2888888888889L-71.38888888888889,199.2888888888889L-64.72222222222223,199.2888888888889L-58.05555555555556,199.2888888888889L-51.388888888888886,199.2888888888889L-44.72222222222222,199.2888888888889L-38.05555555555556,199.2888888888889L-31.38888888888889,199.2888888888889L-24.72222222222222,199.2888888888889L-18.055555555555554,199.2888888888889L-11.38888888888889,199.2888888888889L-4.722222222222222,199.2888888888889L1.9444444444444444,199.2888888888889L8.61111111111111,199.2888888888889L15.277777777777779,199.2888888888889L21.944444444444443,199.2888888888889L28.61111111111111,199.2888888888889L35.27777777777778,199.2888888888889L41.94444444444444,199.2888888888889L48.61111111111111,199.2888888888889L55.27777777777778,199.2888888888889L61.94444444444444,199.2888888888889L68.61111111111111,199.2888888888889L75.27777777777777,199.2888888888889L81.94444444444444,199.2888888888889L88.61111111111111,199.2888888888889L95.27777777777777,199.2888888888889L101.94444444444444,199.2888888888889L108.6111111111111,199.2888888888889L115.27777777777777,199.2888888888889L121.94444444444446,199.2888888888889L128.61111111111111,199.2888888888889L135.27777777777777,199.2888888888889L141.94444444444446,199.2888888888889L148.61111111111111,199.2888888888889L155.27777777777777,28.2888888888889L161.94444444444446,28.2888888888889L168.61111111111111,28.2888888888889L175.27777777777777,28.2888888888889L181.94444444444443,28.2888888888889L188.61111111111111,28.2888888888889L195.27777777777777,28.2888888888889L201.94444444444443,28.2888888888889" stroke="#e45756" stroke-width="2" opacity="0.7"></path></g></g><path class="foreground" aria-hidden="true" d="" display="none"></path></g><g transform="translate(0,0)"><path class="background" aria-hidden="true" d="M0,0h200v200h-200Z"></path><g><g class="mark-line role-mark concat_1_marks" clip-path="url(#clip8)" role="graphics-object" aria-roledescription="line mark container"><path aria-label="Type: Deaths; Date: Mar 01; Country: Norway; Confirmed: 19; Recovered: 0; Deaths: 0; Count: 0" role="graphics-symbol" aria-roledescription="line mark" d="M-391.1111111111111,200L-384.44444444444446,200L-377.77777777777777,200L-371.11111111111114,200L-364.44444444444446,200L-357.77777777777777,200L-351.1111111111111,200L-344.44444444444446,200L-338.05555555555554,200L-331.3888888888889,200L-324.72222222222223,200L-318.05555555555554,200L-311.3888888888889,200L-304.72222222222223,199.93333333333334L-298.05555555555554,199.93333333333334L-291.38888888888886,199.93333333333334L-284.72222222222223,199.93333333333334L-278.05555555555554,199.86666666666665L-271.3888888888889,199.84444444444443L-264.72222222222223,199.84444444444443L-258.05555555555554,199.84444444444443L-251.38888888888889,199.84444444444443L-244.72222222222223,199.7777777777778L-238.05555555555554,199.73333333333335L-231.3888888888889,199.6888888888889L-224.72222222222223,199.6888888888889L-218.05555555555554,199.57777777777778L-211.38888888888889,199.48888888888888L-204.7222222222222,199.44444444444446L-198.05555555555557,199.2888888888889L-191.38888888888889,199.13333333333333L-184.72222222222223,199.0222222222222L-178.05555555555554,198.88888888888889L-171.38888888888889,198.6888888888889L-164.72222222222223,198.6222222222222L-158.05555555555554,198.42222222222225L-151.38888888888889,198.3111111111111L-144.72222222222223,198.02222222222224L-138.05555555555554,197.75555555555556L-131.38888888888889,197.6L-124.72222222222223,197.48888888888888L-118.05555555555556,197.35555555555555L-111.38888888888889,197.15555555555554L-104.72222222222223,197.02222222222224L-98.05555555555556,196.9111111111111L-91.38888888888889,196.66666666666666L-84.72222222222221,196.62222222222223L-78.05555555555556,196.42222222222222L-71.38888888888889,196.35555555555555L-64.72222222222223,196.33333333333334L-58.05555555555556,195.9777777777778L-51.388888888888886,195.95555555555555L-44.72222222222222,195.84444444444443L-38.05555555555556,195.6888888888889L-31.38888888888889,195.57777777777778L-24.72222222222222,195.53333333333333L-18.055555555555554,195.53333333333333L-11.38888888888889,195.44444444444446L-4.722222222222222,195.42222222222222L1.9444444444444444,195.4L8.61111111111111,195.33333333333334L15.277777777777779,195.33333333333334L21.944444444444443,195.3111111111111L28.61111111111111,195.3111111111111L35.27777777777778,195.24444444444444L41.94444444444444,195.22222222222223L48.61111111111111,195.2L55.27777777777778,195.17777777777778L61.94444444444444,195.15555555555554L68.61111111111111,195.13333333333333L75.27777777777777,195.13333333333333L81.94444444444444,195.02222222222224L88.61111111111111,194.93333333333334L95.27777777777777,194.9111111111111L101.94444444444444,194.84444444444443L108.6111111111111,194.84444444444443L115.27777777777777,194.84444444444443L121.94444444444446,194.84444444444443L128.61111111111111,194.82222222222222L135.27777777777777,194.82222222222222L141.94444444444446,194.79999999999998L148.61111111111111,194.77777777777777L155.27777777777777,194.77777777777777L161.94444444444446,194.77777777777777L168.61111111111111,194.77777777777777L175.27777777777777,194.77777777777777L181.94444444444443,194.77777777777777L188.61111111111111,194.77777777777777L195.27777777777777,194.75555555555556L201.94444444444443,194.75555555555556" stroke="#f58518" stroke-width="2" opacity="0.7"></path></g></g><path class="foreground" aria-hidden="true" d="" display="none"></path></g><g transform="translate(0,0)"><path class="background" aria-hidden="true" d="M0,0h200v200h-200Z"></path><g><g class="mark-line role-mark concat_1_marks" clip-path="url(#clip9)" role="graphics-object" aria-roledescription="line mark container"><path aria-label="Type: Confirmed; Date: Mar 01; Country: Norway; Confirmed: 19; Recovered: 0; Deaths: 0; Count: 19" role="graphics-symbol" aria-roledescription="line mark" d="M-391.1111111111111,199.57777777777778L-384.44444444444446,199.44444444444446L-377.77777777777777,199.2888888888889L-371.11111111111114,198.75555555555556L-364.44444444444446,198.06666666666666L-357.77777777777777,197.6L-351.1111111111111,196.73333333333335L-344.44444444444446,196.0888888888889L-338.05555555555554,195.44444444444446L-331.3888888888889,191.11111111111111L-324.72222222222223,186.7111111111111L-318.05555555555554,184.4L-311.3888888888889,177.86666666666667L-304.72222222222223,175.77777777777777L-298.05555555555554,172.86666666666667L-291.38888888888886,170.3777777777778L-284.72222222222223,167.48888888888888L-278.05555555555554,165.55555555555554L-271.3888888888889,161.20000000000002L-264.72222222222223,157.46666666666667L-258.05555555555554,152.9333333333333L-251.38888888888889,147L-244.72222222222223,141.75555555555553L-238.05555555555554,136.37777777777777L-231.3888888888889,131.46666666666667L-224.72222222222223,125.13333333333333L-218.05555555555554,116.55555555555557L-211.38888888888889,110.77777777777777L-204.7222222222222,104.80000000000001L-198.05555555555557,101.22222222222223L-191.38888888888889,96.86666666666666L-184.72222222222223,91.93333333333334L-178.05555555555554,85.62222222222222L-171.38888888888889,80.66666666666666L-164.72222222222223,76.66666666666666L-158.05555555555554,73.6222222222222L-151.38888888888889,69.66666666666667L-144.72222222222223,64.75555555555556L-138.05555555555554,64.75555555555556L-131.38888888888889,61.977777777777774L-124.72222222222223,59.68888888888888L-118.05555555555556,57.57777777777777L-111.38888888888889,55.00000000000001L-104.72222222222223,53.266666666666666L-98.05555555555556,52.822222222222216L-91.38888888888889,50.222222222222214L-84.72222222222221,46.75555555555555L-78.05555555555556,45.84444444444444L-71.38888888888889,43.64444444444444L-64.72222222222223,42.71111111111112L-58.05555555555556,40.97777777777778L-51.388888888888886,40.19999999999999L-44.72222222222222,36.93333333333333L-38.05555555555556,35.53333333333333L-31.38888888888889,34.15555555555556L-24.72222222222222,33.35555555555556L-18.055555555555554,32.73333333333333L-11.38888888888889,31.133333333333326L-4.722222222222222,29.77777777777777L1.9444444444444444,28.666666666666664L8.61111111111111,28.04444444444445L15.277777777777779,27.044444444444448L21.944444444444443,26.46666666666666L28.61111111111111,25.622222222222213L35.27777777777778,24.355555555555554L41.94444444444444,23.222222222222232L48.61111111111111,22.311111111111103L55.27777777777778,21.466666666666654L61.94444444444444,20.66666666666668L68.61111111111111,20.02222222222223L75.27777777777777,19.88888888888889L81.94444444444444,19.288888888888888L88.61111111111111,18.733333333333334L95.27777777777777,18.333333333333336L101.94444444444444,17.866666666666674L108.6111111111111,17.355555555555547L115.27777777777777,16.955555555555545L121.94444444444446,16.688888888888886L128.61111111111111,16.51111111111112L135.27777777777777,16.288888888888884L141.94444444444446,15.97777777777778L148.61111111111111,15.355555555555544L155.27777777777777,14.844444444444438L161.94444444444446,14.533333333333331L168.61111111111111,14.399999999999991L175.27777777777777,14.133333333333331L181.94444444444443,13.71111111111112L188.61111111111111,13.311111111111117L195.27777777777777,13.088888888888883L201.94444444444443,12.844444444444436" stroke="#4c78a8" stroke-width="2" opacity="0.7"></path></g></g><path class="foreground" aria-hidden="true" d="" display="none"></path></g></g><g class="mark-group role-title"><g transform="translate(100,-39)"><path class="background" aria-hidden="true" d="M0,0h0v0h0Z" pointer-events="none"></path><g><g class="mark-text role-title-text" role="graphics-symbol" aria-roledescription="title" aria-label="Title text 'Total'" pointer-events="none"><text text-anchor="middle" transform="translate(0,10)" font-family="Roboto Condensed" font-size="13px" font-weight="normal" fill="#000" opacity="1">Total</text></g></g><path class="foreground" aria-hidden="true" d="" pointer-events="none" display="none"></path></g></g></g><path class="foreground" aria-hidden="true" d="" display="none"></path></g></g><g class="mark-group role-legend" role="graphics-symbol" aria-roledescription="legend" aria-label="Symbol legend for stroke color with 3 values: Confirmed, Deaths, Recovered"><g transform="translate(487,0)"><path class="background" aria-hidden="true" d="M0,0h58v37h-58Z" pointer-events="none"></path><g><g class="mark-group role-legend-entry"><g transform="translate(0,0)"><path class="background" aria-hidden="true" d="M0,0h0v0h0Z" pointer-events="none"></path><g><g class="mark-group role-scope" role="graphics-object" aria-roledescription="group mark container"><g transform="translate(0,0)"><path class="background" aria-hidden="true" d="M0,0h58v11h-58Z" pointer-events="none" opacity="1"></path><g><g class="mark-symbol role-legend-symbol" pointer-events="none"><path transform="translate(6,6)" d="M-5,0L5,0" stroke="#4c78a8" stroke-width="1.5" opacity="0.2"></path></g><g class="mark-text role-legend-label" pointer-events="none"><text text-anchor="start" transform="translate(16,9)" font-family="Roboto Condensed" font-size="10px" fill="#000" opacity="1">Confirmed</text></g></g><path class="foreground" aria-hidden="true" d="" pointer-events="none" display="none"></path></g><g transform="translate(0,13)"><path class="background" aria-hidden="true" d="M0,0h58v11h-58Z" pointer-events="none" opacity="1"></path><g><g class="mark-symbol role-legend-symbol" pointer-events="none"><path transform="translate(6,6)" d="M-5,0L5,0" stroke="#f58518" stroke-width="1.5" opacity="0.2"></path></g><g class="mark-text role-legend-label" pointer-events="none"><text text-anchor="start" transform="translate(16,9)" font-family="Roboto Condensed" font-size="10px" fill="#000" opacity="1">Deaths</text></g></g><path class="foreground" aria-hidden="true" d="" pointer-events="none" display="none"></path></g><g transform="translate(0,26)"><path class="background" aria-hidden="true" d="M0,0h58v11h-58Z" pointer-events="none" opacity="1"></path><g><g class="mark-symbol role-legend-symbol" pointer-events="none"><path transform="translate(6,6)" d="M-5,0L5,0" stroke="#e45756" stroke-width="1.5" opacity="0.2"></path></g><g class="mark-text role-legend-label" pointer-events="none"><text text-anchor="start" transform="translate(16,9)" font-family="Roboto Condensed" font-size="10px" fill="#000" opacity="1">Recovered</text></g></g><path class="foreground" aria-hidden="true" d="" pointer-events="none" display="none"></path></g></g></g><path class="foreground" aria-hidden="true" d="" pointer-events="none" display="none"></path></g></g></g><path class="foreground" aria-hidden="true" d="" pointer-events="none" display="none"></path></g></g></g><path class="foreground" aria-hidden="true" d="" display="none"></path></g></g></g></svg>