<svg class="marks" width="419.6666666666667" height="310.6666666666667" viewBox="0 0 419.6666666666667 310.6666666666667" version="1.1" xmlns="http://www.w3.org/2000/svg" xmlns:xlink="http://www.w3.org/1999/xlink"><defs><clipPath id="clip1"><rect x="0" y="0" width="266.6666666666667" height="266.6666666666667"></rect></clipPath><clipPath id="clip2"><rect x="0" y="0" width="266.6666666666667" height="266.6666666666667"></rect></clipPath><clipPath id="clip3"><rect x="0" y="0" width="266.6666666666667" height="266.6666666666667"></rect></clipPath><clipPath id="clip4"><rect x="0" y="0" width="266.6666666666667" height="266.6666666666667"></rect></clipPath><clipPath id="clip5"><rect x="0" y="0" width="266.6666666666667" height="266.6666666666667"></rect></clipPath><clipPath id="clip6"><rect x="0" y="0" width="266.6666666666667" height="266.6666666666667"></rect></clipPath><clipPath id="clip7"><rect x="0" y="0" width="266.6666666666667" height="266.6666666666667"></rect></clipPath><clipPath id="clip8"><rect x="0" y="0" width="266.6666666666667" height="266.6666666666667"></rect></clipPath><clipPath id="clip9"><rect x="0" y="0" width="266.6666666666667" height="266.6666666666667"></rect></clipPath><clipPath id="clip10"><rect x="0" y="0" width="266.6666666666667" height="266.6666666666667"></rect></clipPath></defs><rect width="419.6666666666667" height="310.6666666666667" fill="white"></rect><g fill="none" stroke-miterlimit="10" transform="translate(50,27)"><g class="mark-group role-frame root" role="graphics-object" aria-roledescription="group mark container"><g transform="translate(0,0)"><path class="background" aria-hidden="true" d="M0,0h266.6666666666667v266.6666666666667h-266.6666666666667Z" stroke="#ddd" stroke-width="0"></path><g><g class="mark-group role-axis" aria-hidden="true"><g transform="translate(0.5,0.5)"><path class="background" aria-hidden="true" d="M0,0h0v0h0Z" pointer-events="none"></path><g><g class="mark-rule role-axis-grid" pointer-events="none"><line transform="translate(0,267)" x2="266.6666666666667" y2="0" stroke="#ddd" stroke-width="1" opacity="1"></line><line transform="translate(0,237)" x2="266.6666666666667" y2="0" stroke="#ddd" stroke-width="1" opacity="1"></line><line transform="translate(0,207)" x2="266.6666666666667" y2="0" stroke="#ddd" stroke-width="1" opacity="1"></line><line transform="translate(0,178)" x2="266.6666666666667" y2="0" stroke="#ddd" stroke-width="1" opacity="1"></line><line transform="translate(0,148)" x2="266.6666666666667" y2="0" stroke="#ddd" stroke-width="1" opacity="1"></line><line transform="translate(0,119)" x2="266.6666666666667" y2="0" stroke="#ddd" stroke-width="1" opacity="1"></line><line transform="translate(0,89)" x2="266.6666666666667" y2="0" stroke="#ddd" stroke-width="1" opacity="1"></line><line transform="translate(0,59)" x2="266.6666666666667" y2="0" stroke="#ddd" stroke-width="1" opacity="1"></line><line transform="translate(0,30)" x2="266.6666666666667" y2="0" stroke="#ddd" stroke-width="1" opacity="1"></line><line transform="translate(0,0)" x2="266.6666666666667" y2="0" stroke="#ddd" stroke-width="1" opacity="1"></line></g></g><path class="foreground" aria-hidden="true" d="" pointer-events="none" display="none"></path></g></g><g class="mark-group role-axis" role="graphics-symbol" aria-roledescription="axis" aria-label="X-axis for a time scale with values from Tuesday, 28 April 2020, 5:00:00 PM to Thursday, 28 May 2020, 5:00:00 PM"><g transform="translate(0.5,267.1666666666667)"><path class="background" aria-hidden="true" d="M0,0h0v0h0Z" pointer-events="none"></path><g><g class="mark-text role-axis-label" pointer-events="none"><text text-anchor="middle" transform="translate(38.148148148148145,10)" font-family="Roboto Condensed" font-size="10px" fill="#000" opacity="1">May 03</text><text text-anchor="middle" transform="translate(100.37037037037038,10)" font-family="Roboto Condensed" font-size="10px" fill="#000" opacity="1">May 10</text><text text-anchor="middle" transform="translate(162.5925925925926,10)" font-family="Roboto Condensed" font-size="10px" fill="#000" opacity="1">May 17</text><text text-anchor="middle" transform="translate(224.81481481481484,10)" font-family="Roboto Condensed" font-size="10px" fill="#000" opacity="1">May 24</text></g><g class="mark-rule role-axis-domain" pointer-events="none"><line transform="translate(0,0)" x2="266.6666666666667" y2="0" stroke="lightgray" stroke-width="1" opacity="1"></line></g></g><path class="foreground" aria-hidden="true" d="" pointer-events="none" display="none"></path></g></g><g class="mark-group role-axis" role="graphics-symbol" aria-roledescription="axis" aria-label="Y-axis for a linear scale with values from 0 to 450,000"><g transform="translate(0.5,0.5)"><path class="background" aria-hidden="true" d="M0,0h0v0h0Z" pointer-events="none"></path><g><g class="mark-text role-axis-label" pointer-events="none"><text text-anchor="end" transform="translate(-2,269.6666666666667)" font-family="Roboto Condensed" font-size="10px" fill="#000" opacity="1">0</text><text text-anchor="end" transform="translate(-2,240.03703703703704)" font-family="Roboto Condensed" font-size="10px" fill="#000" opacity="1">50,000</text><text text-anchor="end" transform="translate(-2,210.40740740740742)" font-family="Roboto Condensed" font-size="10px" fill="#000" opacity="1">100,000</text><text text-anchor="end" transform="translate(-2,180.7777777777778)" font-family="Roboto Condensed" font-size="10px" fill="#000" opacity="1">150,000</text><text text-anchor="end" transform="translate(-2,151.14814814814815)" font-family="Roboto Condensed" font-size="10px" fill="#000" opacity="1">200,000</text><text text-anchor="end" transform="translate(-2,121.51851851851852)" font-family="Roboto Condensed" font-size="10px" fill="#000" opacity="1">250,000</text><text text-anchor="end" transform="translate(-2,91.8888888888889)" font-family="Roboto Condensed" font-size="10px" fill="#000" opacity="1">300,000</text><text text-anchor="end" transform="translate(-2,62.25925925925926)" font-family="Roboto Condensed" font-size="10px" fill="#000" opacity="1">350,000</text><text text-anchor="end" transform="translate(-2,32.62962962962965)" font-family="Roboto Condensed" font-size="10px" fill="#000" opacity="1">400,000</text><text text-anchor="end" transform="translate(-2,3)" font-family="Roboto Condensed" font-size="10px" fill="#000" opacity="1">450,000</text></g><g class="mark-rule role-axis-domain" pointer-events="none"><line transform="translate(0,266.6666666666667)" x2="0" y2="-266.6666666666667" stroke="lightgray" stroke-width="1" opacity="1"></line></g></g><path class="foreground" aria-hidden="true" d="" pointer-events="none" display="none"></path></g></g><g class="mark-group role-scope pathgroup" role="graphics-object" aria-roledescription="group mark container"><g transform="translate(0,0)"><path class="background" aria-hidden="true" d="M0,0h266.6666666666667v266.6666666666667h-266.6666666666667Z"></path><g><g class="mark-line role-mark marks" clip-path="url(#clip1)" role="graphics-object" aria-roledescription="line mark container"><path aria-label="Country: Belgium; Date: Mar 01, 2020; Confirmed: 2; Recovered: 1; Deaths: 0; : 1" role="graphics-symbol" aria-roledescription="line mark" d="M-521.4814814814815,266.66607407407406L-512.5925925925926,266.66607407407406L-503.70370370370375,266.66607407407406L-494.8148148148149,266.66607407407406L-485.9259259259259,266.66607407407406L-477.03703703703707,266.66607407407406L-468.14814814814815,266.66607407407406L-459.2592592592593,266.66607407407406L-450.74074074074076,266.66607407407406L-441.8518518518519,266.66607407407406L-432.962962962963,266.66607407407406L-424.0740740740741,266.66607407407406L-415.1851851851852,266.66607407407406L-406.2962962962963,266.66607407407406L-397.40740740740745,266.66607407407406L-388.51851851851853,266.66607407407406L-379.6296296296297,266.66607407407406L-370.74074074074076,266.64829629629634L-361.8518518518519,266.64829629629634L-352.962962962963,266.66607407407406L-344.07407407407413,266.5108148148148L-335.1851851851852,266.5108148148148L-326.29629629629636,266.5108148148148L-317.40740740740745,266.3934814814815L-308.5185185185186,266.34251851851855L-299.6296296296297,266.2666666666667L-290.74074074074076,266.15822222222226L-281.8518518518519,266.03674074074075L-272.96296296296293,265.86133333333333L-264.0740740740741,265.7617777777778L-255.18518518518522,265.66162962962966L-246.29629629629633,265.4032592592593L-237.40740740740742,265.1881481481482L-228.51851851851853,264.96474074074075L-219.62962962962965,264.7425185185185L-210.74074074074073,264.4438518518519L-201.85185185185185,264.3045925925926L-192.96296296296296,264.20325925925926L-184.07407407407408,263.89274074074075L-175.1851851851852,263.60651851851856L-166.2962962962963,263.3671111111111L-157.40740740740742,263.11940740740744L-148.51851851851853,262.83674074074077L-139.62962962962965,262.69214814814814L-130.74074074074073,262.59674074074076L-121.85185185185186,262.45511111111114L-112.96296296296298,262.18548148148153L-104.07407407407408,261.94903703703704L-95.18518518518519,261.7197037037037L-86.2962962962963,261.4773333333333L-77.40740740740742,261.3955555555556L-68.51851851851852,261.3321481481482L-59.62962962962963,261.0767407407408L-50.74074074074074,260.85925925925926L-41.851851851851855,260.66844444444445L-32.96296296296297,260.49362962962965L-24.074074074074076,260.27555555555557L-15.185185185185185,260.22044444444447L-6.296296296296297,260.18192592592595L2.592592592592593,259.98044444444446L11.481481481481483,259.80681481481486L20.370370370370374,259.61955555555556L29.25925925925926,259.4305185185185L38.148148148148145,259.37244444444445L47.037037037037045,259.33155555555555L55.92592592592593,259.29422222222223L64.81481481481482,259.1223703703704L73.70370370370371,258.9748148148148L82.5925925925926,258.84385185185187L91.4814814814815,258.71940740740746L100.37037037037038,258.58251851851855L109.25925925925927,258.54992592592595L118.14814814814815,258.5291851851852L127.03703703703704,258.40770370370376L135.92592592592592,258.3045925925926L144.8148148148148,258.192L153.7037037037037,258.09777777777776L162.5925925925926,257.99703703703705L171.4814814814815,257.9810370370371L180.37037037037038,257.9632592592593L189.2592592592593,257.8684444444445L198.14814814814818,257.7848888888889L207.03703703703707,257.7048888888889L215.92592592592595,257.6859259259259L224.81481481481484,257.6165925925926L233.70370370370372,257.6017777777778L242.5925925925926,257.58814814814815L251.4814814814815,257.50222222222226L260.3703703703704,257.43881481481486L269.2592592592593,257.37362962962965" stroke="#4c78a8" stroke-width="2" opacity="1"></path></g></g><path class="foreground" aria-hidden="true" d="" display="none"></path></g><g transform="translate(0,0)"><path class="background" aria-hidden="true" d="M0,0h266.6666666666667v266.6666666666667h-266.6666666666667Z"></path><g><g class="mark-line role-mark marks" clip-path="url(#clip2)" role="graphics-object" aria-roledescription="line mark container"><path aria-label="Country: Brazil; Date: Mar 01, 2020; Confirmed: 2; Recovered: 0; Deaths: 0; : 0" role="graphics-symbol" aria-roledescription="line mark" d="M-521.4814814814815,266.6666666666667L-512.5925925925926,266.6666666666667L-503.70370370370375,266.6666666666667L-494.8148148148149,266.6666666666667L-485.9259259259259,266.6666666666667L-477.03703703703707,266.6666666666667L-468.14814814814815,266.6666666666667L-459.2592592592593,266.6666666666667L-450.74074074074076,266.6666666666667L-441.8518518518519,266.6666666666667L-432.962962962963,266.6666666666667L-424.0740740740741,266.6666666666667L-415.1851851851852,266.6666666666667L-406.2962962962963,266.6666666666667L-397.40740740740745,266.6666666666667L-388.51851851851853,266.66607407407406L-379.6296296296297,266.6654814814815L-370.74074074074076,266.6654814814815L-361.8518518518519,266.6654814814815L-352.962962962963,266.6654814814815L-344.07407407407413,266.6654814814815L-335.1851851851852,266.6654814814815L-326.29629629629636,266.6654814814815L-317.40740740740745,266.6654814814815L-308.5185185185186,266.6654814814815L-299.6296296296297,266.66311111111116L-290.74074074074076,266.66311111111116L-281.8518518518519,266.66311111111116L-272.96296296296293,266.66311111111116L-264.0740740740741,266.59555555555556L-255.18518518518522,266.5914074074074L-246.29629629629633,266.5914074074074L-237.40740740740742,266.5914074074074L-228.51851851851853,266.5914074074074L-219.62962962962965,266.5914074074074L-210.74074074074073,266.5914074074074L-201.85185185185185,266.5914074074074L-192.96296296296296,266.5914074074074L-184.07407407407408,266.5914074074074L-175.1851851851852,266.56414814814815L-166.2962962962963,266.56414814814815L-157.40740740740742,266.56414814814815L-148.51851851851853,266.56414814814815L-139.62962962962965,266.56414814814815L-130.74074074074073,264.86162962962965L-121.85185185185186,258.354962962963L-112.96296296296298,258.354962962963L-104.07407407407408,258.354962962963L-95.18518518518519,258.354962962963L-86.2962962962963,253.55259259259262L-77.40740740740742,253.55259259259262L-68.51851851851852,253.0423703703704L-59.62962962962963,251.66340740740742L-50.74074074074074,250.9197037037037L-41.851851851851855,250.27851851851852L-32.96296296296297,249.38666666666668L-24.074074074074076,248.79881481481485L-15.185185185185185,248.21214814814817L-6.296296296296297,247.38133333333337L2.592592592592593,246.4402962962963L11.481481481481483,245.37185185185186L20.370370370370374,244.12503703703706L29.25925925925926,242.40770370370373L38.148148148148145,241.19051851851853L47.037037037037045,239.51703703703706L55.92592592592593,238.09125925925926L64.81481481481482,236.2251851851852L73.70370370370371,233.86666666666667L82.5925925925926,231.52770370370374L91.4814814814815,230.11259259259262L100.37037037037038,228.17362962962966L109.25925925925927,226.73540740740742L118.14814814814815,223.64622222222226L127.03703703703704,220.1931851851852L135.92592592592592,219.568L144.8148148148148,216.31407407407409L153.7037037037037,213.5277037037037L162.5925925925926,210.89066666666668L171.4814814814815,207.13540740740743L180.37037037037038,203.38133333333334L189.2592592592593,197.52118518518517L198.14814814814818,192.02370370370372L207.03703703703707,186.41185185185188L215.92592592592595,182.1706666666667L224.81481481481484,177.83051851851855L233.70370370370372,175.50637037037038L242.5925925925926,172.68562962962963L251.4814814814815,167.9128888888889L260.3703703703704,161.41985185185186L269.2592592592593,154.3845925925926" stroke="#f58518" stroke-width="2" opacity="1"></path></g></g><path class="foreground" aria-hidden="true" d="" display="none"></path></g><g transform="translate(0,0)"><path class="background" aria-hidden="true" d="M0,0h266.6666666666667v266.6666666666667h-266.6666666666667Z"></path><g><g class="mark-line role-mark marks" clip-path="url(#clip3)" role="graphics-object" aria-roledescription="line mark container"><path aria-label="Country: France; Date: Mar 01, 2020; Confirmed: 130; Recovered: 12; Deaths: 2; : 12" role="graphics-symbol" aria-roledescription="line mark" d="M-521.4814814814815,266.6595555555556L-512.5925925925926,266.6595555555556L-503.70370370370375,266.6595555555556L-494.8148148148149,266.6595555555556L-485.9259259259259,266.6595555555556L-477.03703703703707,266.6595555555556L-468.14814814814815,266.6595555555556L-459.2592592592593,266.6595555555556L-450.74074074074076,266.6595555555556L-441.8518518518519,266.6595555555556L-432.962962962963,266.6595555555556L-424.0740740740741,266.6595555555556L-415.1851851851852,266.6595555555556L-406.2962962962963,266.6595555555556L-397.40740740740745,266.6595555555556L-388.51851851851853,266.6595555555556L-379.6296296296297,266.6595555555556L-370.74074074074076,266.6595555555556L-361.8518518518519,266.6595555555556L-352.962962962963,266.6595555555556L-344.07407407407413,266.6595555555556L-335.1851851851852,265.36296296296297L-326.29629629629636,265.36296296296297L-317.40740740740745,264.7448888888889L-308.5185185185186,264.35555555555555L-299.6296296296297,263.73451851851854L-290.74074074074076,263.2888888888889L-281.8518518518519,263.2888888888889L-272.96296296296293,262.39881481481484L-264.0740740740741,261.9691851851852L-255.18518518518522,261.07022222222224L-246.29629629629633,260.1872592592593L-237.40740740740742,259.30192592592596L-228.51851851851853,258.36562962962967L-219.62962962962965,257.5182222222222L-210.74074074074073,257.0767407407408L-201.85185185185185,256.44444444444446L-192.96296296296296,255.20770370370374L-184.07407407407408,254.07170370370372L-175.1851851851852,252.914962962963L-166.2962962962963,251.89214814814815L-157.40740740740742,251.02755555555558L-148.51851851851853,250.55644444444448L-139.62962962962965,250.2411851851852L-130.74074074074073,249.7706666666667L-121.85185185185186,248.62814814814817L-112.96296296296298,247.5277037037037L-104.07407407407408,246.61688888888892L-95.18518518518519,245.70133333333334L-86.2962962962963,245.34933333333333L-77.40740740740742,244.86992592592594L-68.51851851851852,243.8263703703704L-59.62962962962963,242.9700740740741L-50.74074074074074,242.12503703703706L-41.851851851851855,241.35407407407408L-32.96296296296297,240.70162962962965L-24.074074074074076,240.51851851851853L-15.185185185185185,240.15822222222224L-6.296296296296297,239.4091851851852L2.592592592592593,238.61451851851854L11.481481481481483,237.88325925925926L20.370370370370374,237.45185185185187L29.25925925925926,237.18459259259262L38.148148148148145,237.05303703703706L47.037037037037045,236.77748148148152L55.92592592592593,235.9685925925926L64.81481481481482,235.24622222222226L73.70370370370371,234.62162962962964L82.5925925925926,234.21037037037038L91.4814814814815,234.14162962962965L100.37037037037038,234.03733333333335L109.25925925925927,233.73688888888893L118.14814814814815,233.11585185185186L127.03703703703704,232.6708148148148L135.92592592592592,232.11851851851853L144.8148148148148,231.61896296296297L153.7037037037037,231.61955555555556L162.5925925925926,231.16622222222225L171.4814814814815,230.8645925925926L180.37037037037038,230.37274074074077L189.2592592592593,230.096L198.14814814814818,229.79792592592594L207.03703703703707,229.59585185185188L215.92592592592595,229.39674074074077L224.81481481481484,229.35644444444446L233.70370370370372,229.01214814814816L242.5925925925926,228.6091851851852L251.4814814814815,228.44266666666667L260.3703703703704,228.0900740740741L269.2592592592593,227.7931851851852" stroke="#e45756" stroke-width="2" opacity="1"></path></g></g><path class="foreground" aria-hidden="true" d="" display="none"></path></g><g transform="translate(0,0)"><path class="background" aria-hidden="true" d="M0,0h266.6666666666667v266.6666666666667h-266.6666666666667Z"></path><g><g class="mark-line role-mark marks" clip-path="url(#clip4)" role="graphics-object" aria-roledescription="line mark container"><path aria-label="Country: Germany; Date: Mar 01, 2020; Confirmed: 130; Recovered: 16; Deaths: 0; : 16" role="graphics-symbol" aria-roledescription="line mark" d="M-521.4814814814815,266.6571851851852L-512.5925925925926,266.6571851851852L-503.70370370370375,266.6571851851852L-494.8148148148149,266.6571851851852L-485.9259259259259,266.6571851851852L-477.03703703703707,266.65659259259263L-468.14814814814815,266.656L-459.2592592592593,266.656L-450.74074074074076,266.656L-441.8518518518519,266.656L-432.962962962963,266.65185185185186L-424.0740740740741,266.65185185185186L-415.1851851851852,266.6394074074074L-406.2962962962963,266.6394074074074L-397.40740740740745,266.6394074074074L-388.51851851851853,266.626962962963L-379.6296296296297,266.626962962963L-370.74074074074076,266.6044444444445L-361.8518518518519,266.5997037037037L-352.962962962963,266.56L-344.07407407407413,266.52859259259264L-335.1851851851852,266.50903703703705L-326.29629629629636,266.50903703703705L-317.40740740740745,264.7448888888889L-308.5185185185186,264.5647407407408L-299.6296296296297,263.3048888888889L-290.74074074074076,262.7211851851852L-281.8518518518519,261.6408888888889L-272.96296296296293,261.20829629629634L-264.0740740740741,258.6666666666667L-255.18518518518522,257.1259259259259L-246.29629629629633,255.5851851851852L-237.40740740740742,253.36888888888893L-228.51851851851853,252.1037037037037L-219.62962962962965,251.02222222222224L-210.74074074074073,249.65925925925927L-201.85185185185185,249.65925925925927L-192.96296296296296,245.28533333333334L-184.07407407407408,239.22962962962964L-175.1851851851852,235.61066666666667L-166.2962962962963,234.71822222222227L-157.40740740740742,232.6518518518519L-148.51851851851853,230.93333333333334L-139.62962962962965,228.56296296296298L-130.74074074074073,226.25185185185188L-121.85185185185186,223.64444444444447L-112.96296296296298,221.03703703703707L-104.07407407407408,217.41392592592595L-95.18518518518519,216.05925925925925L-86.2962962962963,214.51851851851853L-77.40740740740742,212.44444444444446L-68.51851851851852,210.25185185185188L-59.62962962962963,207.76296296296297L-50.74074074074074,205.45185185185187L-41.851851851851855,201.60000000000002L-32.96296296296297,201.60000000000002L-24.074074074074076,200.2962962962963L-15.185185185185185,198.8148148148148L-6.296296296296297,197.0962962962963L2.592592592592593,195.31851851851854L11.481481481481483,193.4814814814815L20.370370370370374,191.46666666666667L29.25925925925926,190.22222222222226L38.148148148148145,189.2740740740741L47.037037037037045,188.02962962962965L55.92592592592593,186.60740740740744L64.81481481481482,183.76296296296297L73.70370370370371,182.6962962962963L82.5925925925926,182.6962962962963L91.4814814814815,181.74814814814818L100.37037037037038,181.09629629629632L109.25925925925927,180.3751111111111L118.14814814814815,179.43703703703704L127.03703703703704,178.54814814814816L135.92592592592592,177.6L144.8148148148148,176.8314074074074L153.7037037037037,176.23703703703706L162.5925925925926,175.40088888888891L171.4814814814815,174.79051851851852L180.37037037037038,174.41125925925925L189.2592592592593,173.64977777777779L198.14814814814818,172.98548148148151L207.03703703703707,172.40651851851854L215.92592592592595,172.02014814814817L224.81481481481484,171.68533333333338L233.70370370370372,171.14133333333336L242.5925925925926,170.68622222222223L251.4814814814815,170.18074074074073L260.3703703703704,169.86074074074074L269.2592592592593,169.33629629629633" stroke="#72b7b2" stroke-width="2" opacity="1"></path></g></g><path class="foreground" aria-hidden="true" d="" display="none"></path></g><g transform="translate(0,0)"><path class="background" aria-hidden="true" d="M0,0h266.6666666666667v266.6666666666667h-266.6666666666667Z"></path><g><g class="mark-line role-mark marks" clip-path="url(#clip5)" role="graphics-object" aria-roledescription="line mark container"><path aria-label="Country: Iran; Date: Mar 01, 2020; Confirmed: 978; Recovered: 175; Deaths: 54; : 175" role="graphics-symbol" aria-roledescription="line mark" d="M-521.4814814814815,266.56296296296296L-512.5925925925926,266.4942222222222L-503.70370370370375,266.4942222222222L-494.8148148148149,266.33955555555553L-485.9259259259259,266.22874074074076L-477.03703703703707,266.12562962962966L-468.14814814814815,265.6776296296297L-459.2592592592593,265.4020740740741L-450.74074074074076,265.24800000000005L-441.8518518518519,265.0482962962963L-432.962962962963,264.9131851851852L-424.0740740740741,264.9131851851852L-415.1851851851852,264.9131851851852L-406.2962962962963,264.9131851851852L-397.40740740740745,263.9466666666667L-388.51851851851853,263.9466666666667L-379.6296296296297,263.47318518518523L-370.74074074074076,263.47318518518523L-361.8518518518519,263.282962962963L-352.962962962963,262.66962962962964L-344.07407407407413,262.14222222222224L-335.1851851851852,261.9668148148148L-326.29629629629636,261.9668148148148L-317.40740740740745,261.3848888888889L-308.5185185185186,260.962962962963L-299.6296296296297,260.46992592592596L-290.74074074074076,260.06933333333336L-281.8518518518519,259.7457777777778L-272.96296296296293,259.3238518518519L-264.0740740740741,258.4231111111111L-255.18518518518522,257.98162962962965L-246.29629629629633,257.4974814814815L-237.40740740740742,256.7638518518519L-228.51851851851853,256.0385185185185L-219.62962962962965,254.97125925925928L-210.74074074074073,254.97125925925928L-201.85185185185185,252.3045925925926L-192.96296296296296,250.6435555555556L-184.07407407407408,249.0002962962963L-175.1851851851852,247.5205925925926L-166.2962962962963,245.65037037037038L-157.40740740740742,241.80918518518519L-148.51851851851853,240.65540740740744L-139.62962962962965,239.4174814814815L-130.74074074074073,238.1457777777778L-121.85185185185186,237.07674074074077L-112.96296296296298,235.71614814814816L-104.07407407407408,234.62874074074074L-95.18518518518519,233.48918518518522L-86.2962962962963,232.87525925925925L-77.40740740740742,231.54192592592594L-68.51851851851852,230.53925925925927L-59.62962962962963,229.2663703703704L-50.74074074074074,228.2411851851852L-41.851851851851855,227.2005925925926L-32.96296296296297,226.256L-24.074074074074076,225.38844444444445L-15.185185185185185,224.6322962962963L-6.296296296296297,223.73985185185188L2.592592592592593,222.93866666666668L11.481481481481483,222.1611851851852L20.370370370370374,221.44118518518522L29.25925925925926,220.82962962962966L38.148148148148145,220.1943703703704L47.037037037037045,219.6272592592593L55.92592592592593,218.9777777777778L64.81481481481482,218.31881481481483L73.70370370370371,217.6331851851852L82.5925925925926,216.98548148148151L91.4814814814815,216.2583703703704L100.37037037037038,215.618962962963L109.25925925925927,214.86103703703708L118.14814814814815,214.30696296296298L127.03703703703704,213.67229629629628L135.92592592592592,213.01392592592595L144.8148148148148,212.24533333333335L153.7037037037037,211.46844444444446L162.5925925925926,210.68800000000002L171.4814814814815,209.9786666666667L180.37037037037038,209.08266666666668L189.2592592592593,208.11377777777778L198.14814814814818,207.0731851851852L207.03703703703707,206.05866666666668L215.92592592592595,204.99437037037038L224.81481481481484,203.9697777777778L233.70370370370372,202.83674074074074L242.5925925925926,201.81511111111112L251.4814814814815,200.7845925925926L260.3703703703704,199.71081481481482L269.2592592592593,198.55940740740743" stroke="#54a24b" stroke-width="2" opacity="1"></path></g></g><path class="foreground" aria-hidden="true" d="" display="none"></path></g><g transform="translate(0,0)"><path class="background" aria-hidden="true" d="M0,0h266.6666666666667v266.6666666666667h-266.6666666666667Z"></path><g><g class="mark-line role-mark marks" clip-path="url(#clip6)" role="graphics-object" aria-roledescription="line mark container"><path aria-label="Country: Italy; Date: Mar 01, 2020; Confirmed: 1694; Recovered: 83; Deaths: 34; : 83" role="graphics-symbol" aria-roledescription="line mark" d="M-521.4814814814815,266.6174814814815L-512.5925925925926,266.5783703703704L-503.70370370370375,266.5718518518519L-494.8148148148149,266.50311111111114L-485.9259259259259,266.42133333333334L-477.03703703703707,266.35674074074075L-468.14814814814815,266.31762962962966L-459.2592592592593,266.2980740740741L-450.74074074074076,266.2376296296296L-441.8518518518519,266.2376296296296L-432.962962962963,266.04740740740743L-424.0740740740741,266.04740740740743L-415.1851851851852,265.81392592592596L-406.2962962962963,265.50162962962963L-397.40740740740745,265.282962962963L-388.51851851851853,265.03762962962963L-379.6296296296297,264.9238518518519L-370.74074074074076,264.2814814814815L-361.8518518518519,264.03555555555556L-352.962962962963,264.03555555555556L-344.07407407407413,263.0684444444445L-335.1851851851852,262.50429629629633L-326.29629629629636,262.50429629629633L-317.40740740740745,261.7327407407408L-308.5185185185186,261.11881481481487L-299.6296296296297,260.5268148148148L-290.74074074074076,260.1777777777778L-281.8518518518519,259.32800000000003L-272.96296296296293,258.9451851851852L-264.0740740740741,258.00296296296295L-255.18518518518522,257.34577777777776L-246.29629629629633,256.6832592592593L-237.40740740740742,255.8352592592593L-228.51851851851853,254.95822222222225L-219.62962962962965,254.22459259259261L-210.74074074074073,253.73925925925928L-201.85185185185185,253.13362962962967L-192.96296296296296,252.21214814814815L-184.07407407407408,250.96829629629633L-175.1851851851852,249.79555555555555L-166.2962962962963,248.61925925925928L-157.40740740740742,247.38725925925928L-148.51851851851853,246.3934814814815L-139.62962962962965,245.66814814814816L-130.74074074074073,244.66370370370373L-121.85185185185186,244.09362962962965L-112.96296296296298,242.8657777777778L-104.07407407407408,241.34696296296298L-95.18518518518519,240.04325925925926L-86.2962962962963,238.78222222222223L-77.40740740740742,237.70251851851853L-68.51851851851852,236.0888888888889L-59.62962962962963,234.3448888888889L-50.74074074074074,232.54755555555556L-41.851851851851855,230.816L-32.96296296296297,229.26222222222225L-24.074074074074076,228.19081481481484L-15.185185185185185,227.1857777777778L-6.296296296296297,225.81274074074076L2.592592592592593,224.44325925925926L11.481481481481483,221.66222222222223L20.370370370370374,220.2968888888889L29.25925925925926,219.31022222222225L38.148148148148145,218.27911111111112L47.037037037037045,217.5531851851852L55.92592592592593,216.15940740740743L64.81481481481482,211.41037037037037L73.70370370370371,209.61422222222222L82.5925925925926,207.9863703703704L91.4814814814815,205.61125925925927L100.37037037037038,204.33422222222225L109.25925925925927,203.50400000000002L118.14814814814815,202.05096296296298L127.03703703703704,199.97570370370374L135.92592592592592,198.34785185185189L144.8148148148148,195.4340740740741L153.7037037037037,193.8903703703704L162.5925925925926,192.4882962962963L171.4814814814815,191.21422222222222L180.37037037037038,189.9845925925926L189.2592592592593,188.27733333333336L198.14814814814818,186.9274074074074L207.03703703703707,185.64740740740743L215.92592592592595,184.39111111111112L224.81481481481484,183.41985185185186L233.70370370370372,182.5297777777778L242.5925925925926,180.94340740740742L251.4814814814815,179.4957037037037L260.3703703703704,177.41985185185186L269.2592592592593,176.09244444444445" stroke="#eeca3b" stroke-width="2" opacity="1"></path></g></g><path class="foreground" aria-hidden="true" d="" display="none"></path></g><g transform="translate(0,0)"><path class="background" aria-hidden="true" d="M0,0h266.6666666666667v266.6666666666667h-266.6666666666667Z"></path><g><g class="mark-line role-mark marks" clip-path="url(#clip7)" role="graphics-object" aria-roledescription="line mark container"><path aria-label="Country: Mexico; Date: Mar 01, 2020; Confirmed: 5; Recovered: 0; Deaths: 0; : 0" role="graphics-symbol" aria-roledescription="line mark" d="M-521.4814814814815,266.6666666666667L-512.5925925925926,266.6666666666667L-503.70370370370375,266.66607407407406L-494.8148148148149,266.66607407407406L-485.9259259259259,266.66607407407406L-477.03703703703707,266.66607407407406L-468.14814814814815,266.66607407407406L-459.2592592592593,266.66607407407406L-450.74074074074076,266.66607407407406L-441.8518518518519,266.66429629629636L-432.962962962963,266.66429629629636L-424.0740740740741,266.66429629629636L-415.1851851851852,266.66429629629636L-406.2962962962963,266.66429629629636L-397.40740740740745,266.66429629629636L-388.51851851851853,266.66429629629636L-379.6296296296297,266.66429629629636L-370.74074074074076,266.66429629629636L-361.8518518518519,266.66429629629636L-352.962962962963,266.66429629629636L-344.07407407407413,266.66429629629636L-335.1851851851852,266.66429629629636L-326.29629629629636,266.66429629629636L-317.40740740740745,266.66429629629636L-308.5185185185186,266.66429629629636L-299.6296296296297,266.66429629629636L-290.74074074074076,266.66429629629636L-281.8518518518519,266.66429629629636L-272.96296296296293,266.66429629629636L-264.0740740740741,266.64592592592595L-255.18518518518522,266.64592592592595L-246.29629629629633,266.64592592592595L-237.40740740740742,266.64592592592595L-228.51851851851853,266.2915555555556L-219.62962962962965,266.2915555555556L-210.74074074074073,266.2915555555556L-201.85185185185185,266.2915555555556L-192.96296296296296,266.2915555555556L-184.07407407407408,266.2915555555556L-175.1851851851852,266.2915555555556L-166.2962962962963,266.2915555555556L-157.40740740740742,266.2915555555556L-148.51851851851853,265.6165925925926L-139.62962962962965,265.5745185185186L-130.74074074074073,265.5028148148148L-121.85185185185186,265.40740740740745L-112.96296296296298,265.40740740740745L-104.07407407407408,265.40740740740745L-95.18518518518519,265.40740740740745L-86.2962962962963,265.10992592592595L-77.40740740740742,265.10992592592595L-68.51851851851852,265.10992592592595L-59.62962962962963,265.10992592592595L-50.74074074074074,265.10992592592595L-41.851851851851855,265.10992592592595L-32.96296296296297,262.43022222222226L-24.074074074074076,261.71614814814814L-15.185185185185185,261.28237037037036L-6.296296296296297,259.8974814814815L2.592592592592593,259.8974814814815L11.481481481481483,259.8974814814815L20.370370370370374,259.3321481481482L29.25925925925926,259.3321481481482L38.148148148148145,258.6980740740741L47.037037037037045,258.6980740740741L55.92592592592593,256.7051851851852L64.81481481481482,256.1297777777778L73.70370370370371,256.1297777777778L82.5925925925926,254.62874074074077L91.4814814814815,253.73392592592594L100.37037037037038,253.73392592592594L109.25925925925927,252.9777777777778L118.14814814814815,251.2977777777778L127.03703703703704,250.6725925925926L135.92592592592592,249.79259259259263L144.8148148148148,248.62162962962964L153.7037037037037,247.7937777777778L162.5925925925926,246.91614814814815L171.4814814814815,245.696L180.37037037037038,244.54814814814816L189.2592592592593,243.89985185185188L198.14814814814818,242.8728888888889L207.03703703703707,241.66459259259258L215.92592592592595,240.34133333333335L224.81481481481484,238.82725925925928L233.70370370370372,237.3617777777778L242.5925925925926,236.02488888888888L251.4814814814815,234.76503703703705L260.3703703703704,233.4571851851852L269.2592592592593,231.70192592592593" stroke="#b279a2" stroke-width="2" opacity="1"></path></g></g><path class="foreground" aria-hidden="true" d="" display="none"></path></g><g transform="translate(0,0)"><path class="background" aria-hidden="true" d="M0,0h266.6666666666667v266.6666666666667h-266.6666666666667Z"></path><g><g class="mark-line role-mark marks" clip-path="url(#clip8)" role="graphics-object" aria-roledescription="line mark container"><path aria-label="Country: Spain; Date: Mar 01, 2020; Confirmed: 84; Recovered: 2; Deaths: 0; : 2" role="graphics-symbol" aria-roledescription="line mark" d="M-521.4814814814815,266.6654814814815L-512.5925925925926,266.6654814814815L-503.70370370370375,266.6654814814815L-494.8148148148149,266.6654814814815L-485.9259259259259,266.6654814814815L-477.03703703703707,266.6654814814815L-468.14814814814815,266.6488888888889L-459.2592592592593,266.6488888888889L-450.74074074074076,266.6477037037037L-441.8518518518519,266.6477037037037L-432.962962962963,266.55822222222224L-424.0740740740741,266.55822222222224L-415.1851851851852,266.55229629629633L-406.2962962962963,266.3602962962963L-397.40740740740745,266.3602962962963L-388.51851851851853,266.3525925925926L-379.6296296296297,266.0574814814815L-370.74074074074076,266.0260740740741L-361.8518518518519,266.0106666666667L-352.962962962963,265.7256296296296L-344.07407407407413,265.40740740740745L-335.1851851851852,265.1407407407408L-326.29629629629636,265.1407407407408L-317.40740740740745,264.4183703703704L-308.5185185185186,263.48622222222224L-299.6296296296297,262.50962962962967L-290.74074074074076,261.1217777777778L-281.8518518518519,259.3866666666667L-272.96296296296293,257.95022222222224L-264.0740740740741,256.722962962963L-255.18518518518522,255.25392592592593L-246.29629629629633,253.24622222222226L-237.40740740740742,250.81896296296298L-228.51851851851853,248.5848888888889L-219.62962962962965,246.38874074074076L-210.74074074074073,244.10074074074075L-201.85185185185185,242.704L-192.96296296296296,241.06192592592595L-184.07407407407408,238.2097777777778L-175.1851851851852,235.75407407407408L-166.2962962962963,233.67822222222225L-157.40740740740742,231.63911111111113L-148.51851851851853,229.69422222222224L-139.62962962962965,228.30992592592597L-130.74074074074073,226.66429629629633L-121.85185185185186,224.67970370370372L-112.96296296296298,222.34251851851855L-104.07407407407408,222.34251851851855L-95.18518518518519,222.34251851851855L-86.2962962962963,220.82548148148152L-77.40740740740742,218.9114074074074L-68.51851851851852,217.7694814814815L-59.62962962962963,215.75407407407408L-50.74074074074074,213.77777777777777L-41.851851851851855,211.93777777777777L-32.96296296296297,209.95081481481483L-24.074074074074076,208.37214814814817L-15.185185185185185,206.8888888888889L-6.296296296296297,205.8974814814815L2.592592592592593,202.1054814814815L11.481481481481483,200.26666666666668L20.370370370370374,200.26666666666668L29.25925925925926,197.18637037037035L38.148148148148145,196.20622222222224L47.037037037037045,194.75970370370374L55.92592592592593,193.48977777777776L64.81481481481482,191.9988148148148L73.70370370370371,190.51200000000003L82.5925925925926,188.94933333333336L91.4814814814815,187.28770370370373L100.37037037037038,185.97570370370374L109.25925925925927,185.39911111111113L118.14814814814815,184.30814814814815L127.03703703703704,183.216L135.92592592592592,181.7042962962963L144.8148148148148,180.86933333333334L153.7037037037037,179.8838518518519L162.5925925925926,179.8838518518519L171.4814814814815,177.55496296296295L180.37037037037038,177.55496296296295L189.2592592592593,177.55496296296295L198.14814814814818,177.55496296296295L207.03703703703707,177.55496296296295L215.92592592592595,177.55496296296295L224.81481481481484,177.55496296296295L233.70370370370372,177.55496296296295L242.5925925925926,177.55496296296295L251.4814814814815,177.55496296296295L260.3703703703704,177.55496296296295L269.2592592592593,177.55496296296295" stroke="#ff9da6" stroke-width="2" opacity="1"></path></g></g><path class="foreground" aria-hidden="true" d="" display="none"></path></g><g transform="translate(0,0)"><path class="background" aria-hidden="true" d="M0,0h266.6666666666667v266.6666666666667h-266.6666666666667Z"></path><g><g class="mark-line role-mark marks" clip-path="url(#clip9)" role="graphics-object" aria-roledescription="line mark container"><path aria-label="Country: US; Date: Mar 01, 2020; Confirmed: 74; Recovered: 7; Deaths: 1; : 7" role="graphics-symbol" aria-roledescription="line mark" d="M-521.4814814814815,266.66251851851854L-512.5925925925926,266.66251851851854L-503.70370370370375,266.66251851851854L-494.8148148148149,266.66251851851854L-485.9259259259259,266.66251851851854L-477.03703703703707,266.66251851851854L-468.14814814814815,266.66251851851854L-459.2592592592593,266.66251851851854L-450.74074074074076,266.66251851851854L-441.8518518518519,266.66192592592597L-432.962962962963,266.66192592592597L-424.0740740740741,266.6595555555556L-415.1851851851852,266.6595555555556L-406.2962962962963,266.6595555555556L-397.40740740740745,266.6595555555556L-388.51851851851853,266.65659259259263L-379.6296296296297,266.65659259259263L-370.74074074074076,266.6044444444445L-361.8518518518519,266.594962962963L-352.962962962963,266.57955555555554L-344.07407407407413,266.5623703703704L-335.1851851851852,266.5611851851852L-326.29629629629636,266.5611851851852L-317.40740740740745,266.4604444444445L-308.5185185185186,266.45274074074075L-299.6296296296297,266.26311111111113L-290.74074074074076,266.15170370370373L-281.8518518518519,266.0314074074074L-272.96296296296293,265.0874074074074L-264.0740740740741,263.32207407407407L-255.18518518518522,262.50429629629633L-246.29629629629633,261.64503703703707L-237.40740740740742,261.33274074074075L-228.51851851851853,260.9143703703704L-219.62962962962965,257.98400000000004L-210.74074074074073,256.32711111111115L-201.85185185185185,255.06311111111114L-192.96296296296296,253.7700740740741L-184.07407407407408,252.7057777777778L-175.1851851851852,251.6088888888889L-166.2962962962963,249.60592592592593L-157.40740740740742,248.1362962962963L-148.51851851851853,247.11822222222224L-139.62962962962965,240.8995555555556L-130.74074074074073,238.36266666666668L-121.85185185185186,235.79496296296298L-112.96296296296298,234.2500740740741L-104.07407407407408,231.97333333333336L-95.18518518518519,228.24296296296296L-86.2962962962963,224.9854814814815L-77.40740740740742,223.80503703703704L-68.51851851851852,222.10133333333337L-59.62962962962963,220.82014814814818L-50.74074074074074,219.13896296296298L-41.851851851851855,207.9531851851852L-32.96296296296297,207.18696296296298L-24.074074074074076,203.26637037037037L-15.185185185185185,200.63762962962966L-6.296296296296297,197.96385185185184L2.592592592592593,195.1288888888889L11.481481481481483,175.43881481481483L20.370370370370374,169.4725925925926L29.25925925925926,162.73659259259261L38.148148148148145,159.90992592592593L47.037037037037045,155.74518518518516L55.92592592592593,154.19792592592594L64.81481481481482,154.1274074074074L73.70370370370371,151.08977777777778L82.5925925925926,148.7448888888889L91.4814814814815,140.72059259259262L100.37037037037038,138.56651851851854L109.25925925925927,128.75081481481482L118.14814814814815,130.2002962962963L127.03703703703704,122.41185185185186L135.92592592592592,120.64355555555557L144.8148148148148,118.07585185185185L153.7037037037037,107.62903703703705L162.5925925925926,105.32444444444445L171.4814814814815,98.8574814814815L180.37037037037038,95.17511111111112L189.2592592592593,92.25955555555556L198.14814814814818,89.82637037037037L207.03703703703707,59.17925925925927L215.92592592592595,52.59911111111112L224.81481481481484,49.341629629629644L233.70370370370372,41.98103703703703L242.5925925925926,38.576592592592604L251.4814814814815,34.66192592592593L260.3703703703704,29.634962962962955L269.2592592592593,25.809777777777786" stroke="#9d755d" stroke-width="2" opacity="1"></path></g></g><path class="foreground" aria-hidden="true" d="" display="none"></path></g><g transform="translate(0,0)"><path class="background" aria-hidden="true" d="M0,0h266.6666666666667v266.6666666666667h-266.6666666666667Z"></path><g><g class="mark-line role-mark marks" clip-path="url(#clip10)" role="graphics-object" aria-roledescription="line mark container"><path aria-label="Country: United Kingdom; Date: Mar 01, 2020; Confirmed: 36; Recovered: 8; Deaths: 0; : 8" role="graphics-symbol" aria-roledescription="line mark" d="M-521.4814814814815,266.66192592592597L-512.5925925925926,266.66192592592597L-503.70370370370375,266.66192592592597L-494.8148148148149,266.66192592592597L-485.9259259259259,266.66192592592597L-477.03703703703707,266.66192592592597L-468.14814814814815,266.656L-459.2592592592593,266.656L-450.74074074074076,266.656L-441.8518518518519,266.656L-432.962962962963,266.656L-424.0740740740741,266.656L-415.1851851851852,266.656L-406.2962962962963,266.656L-397.40740740740745,266.656L-388.51851851851853,266.65481481481487L-379.6296296296297,266.6358518518519L-370.74074074074076,266.62814814814817L-361.8518518518519,266.62814814814817L-352.962962962963,266.62814814814817L-344.07407407407413,266.62814814814817L-335.1851851851852,266.62814814814817L-326.29629629629636,266.62814814814817L-317.40740740740745,266.5866666666667L-308.5185185185186,266.5866666666667L-299.6296296296297,266.5866666666667L-290.74074074074076,266.5866666666667L-281.8518518518519,266.5866666666667L-272.96296296296293,266.5866666666667L-264.0740740740741,266.5866666666667L-255.18518518518522,266.5866666666667L-246.29629629629633,266.5866666666667L-237.40740740740742,266.5866666666667L-228.51851851851853,266.5866666666667L-219.62962962962965,266.5866666666667L-210.74074074074073,266.5866666666667L-201.85185185185185,266.5866666666667L-192.96296296296296,266.5866666666667L-184.07407407407408,266.5866666666667L-175.1851851851852,266.5866666666667L-166.2962962962963,266.4628148148148L-157.40740740740742,266.4628148148148L-148.51851851851853,266.4628148148148L-139.62962962962965,266.6666666666667L-130.74074074074073,266.6666666666667L-121.85185185185186,266.6666666666667L-112.96296296296298,266.6666666666667L-104.07407407407408,266.6666666666667L-95.18518518518519,266.6666666666667L-86.2962962962963,266.6666666666667L-77.40740740740742,266.6666666666667L-68.51851851851852,266.6666666666667L-59.62962962962963,266.6666666666667L-50.74074074074074,266.6666666666667L-41.851851851851855,266.6666666666667L-32.96296296296297,266.6666666666667L-24.074074074074076,266.6666666666667L-15.185185185185185,266.6666666666667L-6.296296296296297,266.6666666666667L2.592592592592593,266.6666666666667L11.481481481481483,266.6666666666667L20.370370370370374,266.6666666666667L29.25925925925926,266.6666666666667L38.148148148148145,266.6666666666667L47.037037037037045,266.6666666666667L55.92592592592593,266.6666666666667L64.81481481481482,266.6666666666667L73.70370370370371,266.6666666666667L82.5925925925926,266.6666666666667L91.4814814814815,266.6666666666667L100.37037037037038,266.6666666666667L109.25925925925927,266.6666666666667L118.14814814814815,266.6666666666667L127.03703703703704,266.6666666666667L135.92592592592592,266.6666666666667L144.8148148148148,266.6666666666667L153.7037037037037,266.6666666666667L162.5925925925926,266.6666666666667L171.4814814814815,266.6666666666667L180.37037037037038,266.6666666666667L189.2592592592593,266.6666666666667L198.14814814814818,266.6666666666667L207.03703703703707,266.6666666666667L215.92592592592595,266.6666666666667L224.81481481481484,266.6666666666667L233.70370370370372,266.6666666666667L242.5925925925926,266.6666666666667L251.4814814814815,266.6666666666667L260.3703703703704,266.6666666666667L269.2592592592593,266.6666666666667" stroke="#bab0ac" stroke-width="2" opacity="1"></path></g></g><path class="foreground" aria-hidden="true" d="" display="none"></path></g></g><g class="mark-group role-legend" role="graphics-symbol" aria-roledescription="legend" aria-label="Symbol legend for stroke color with 10 values: Belgium, Brazil, France, Germany, Iran, ending with United Kingdom"><g transform="translate(285,0)"><path class="background" aria-hidden="true" d="M0,0h79v128h-79Z" pointer-events="none"></path><g><g class="mark-group role-legend-entry"><g transform="translate(0,0)"><path class="background" aria-hidden="true" d="M0,0h0v0h0Z" pointer-events="none"></path><g><g class="mark-group role-scope Country_legend_entries" role="graphics-object" aria-roledescription="group mark container"><g transform="translate(0,0)"><path class="background" aria-hidden="true" d="M0,0h79v11h-79Z" opacity="1"></path><g><g class="mark-symbol role-legend-symbol Country_legend_symbols"><path transform="translate(6,6)" d="M-5,0L5,0" stroke="#4c78a8" stroke-width="1.5" opacity="1"></path></g><g class="mark-text role-legend-label Country_legend_labels"><text text-anchor="start" transform="translate(16,9)" font-family="Roboto Condensed" font-size="10px" fill="#000" opacity="1">Belgium</text></g></g><path class="foreground" aria-hidden="true" d="" display="none"></path></g><g transform="translate(0,13)"><path class="background" aria-hidden="true" d="M0,0h79v11h-79Z" opacity="1"></path><g><g class="mark-symbol role-legend-symbol Country_legend_symbols"><path transform="translate(6,6)" d="M-5,0L5,0" stroke="#f58518" stroke-width="1.5" opacity="1"></path></g><g class="mark-text role-legend-label Country_legend_labels"><text text-anchor="start" transform="translate(16,9)" font-family="Roboto Condensed" font-size="10px" fill="#000" opacity="1">Brazil</text></g></g><path class="foreground" aria-hidden="true" d="" display="none"></path></g><g transform="translate(0,26)"><path class="background" aria-hidden="true" d="M0,0h79v11h-79Z" opacity="1"></path><g><g class="mark-symbol role-legend-symbol Country_legend_symbols"><path transform="translate(6,6)" d="M-5,0L5,0" stroke="#e45756" stroke-width="1.5" opacity="1"></path></g><g class="mark-text role-legend-label Country_legend_labels"><text text-anchor="start" transform="translate(16,9)" font-family="Roboto Condensed" font-size="10px" fill="#000" opacity="1">France</text></g></g><path class="foreground" aria-hidden="true" d="" display="none"></path></g><g transform="translate(0,39)"><path class="background" aria-hidden="true" d="M0,0h79v11h-79Z" opacity="1"></path><g><g class="mark-symbol role-legend-symbol Country_legend_symbols"><path transform="translate(6,6)" d="M-5,0L5,0" stroke="#72b7b2" stroke-width="1.5" opacity="1"></path></g><g class="mark-text role-legend-label Country_legend_labels"><text text-anchor="start" transform="translate(16,9)" font-family="Roboto Condensed" font-size="10px" fill="#000" opacity="1">Germany</text></g></g><path class="foreground" aria-hidden="true" d="" display="none"></path></g><g transform="translate(0,52)"><path class="background" aria-hidden="true" d="M0,0h79v11h-79Z" opacity="1"></path><g><g class="mark-symbol role-legend-symbol Country_legend_symbols"><path transform="translate(6,6)" d="M-5,0L5,0" stroke="#54a24b" stroke-width="1.5" opacity="1"></path></g><g class="mark-text role-legend-label Country_legend_labels"><text text-anchor="start" transform="translate(16,9)" font-family="Roboto Condensed" font-size="10px" fill="#000" opacity="1">Iran</text></g></g><path class="foreground" aria-hidden="true" d="" display="none"></path></g><g transform="translate(0,65)"><path class="background" aria-hidden="true" d="M0,0h79v11h-79Z" opacity="1"></path><g><g class="mark-symbol role-legend-symbol Country_legend_symbols"><path transform="translate(6,6)" d="M-5,0L5,0" stroke="#eeca3b" stroke-width="1.5" opacity="1"></path></g><g class="mark-text role-legend-label Country_legend_labels"><text text-anchor="start" transform="translate(16,9)" font-family="Roboto Condensed" font-size="10px" fill="#000" opacity="1">Italy</text></g></g><path class="foreground" aria-hidden="true" d="" display="none"></path></g><g transform="translate(0,78)"><path class="background" aria-hidden="true" d="M0,0h79v11h-79Z" opacity="1"></path><g><g class="mark-symbol role-legend-symbol Country_legend_symbols"><path transform="translate(6,6)" d="M-5,0L5,0" stroke="#b279a2" stroke-width="1.5" opacity="1"></path></g><g class="mark-text role-legend-label Country_legend_labels"><text text-anchor="start" transform="translate(16,9)" font-family="Roboto Condensed" font-size="10px" fill="#000" opacity="1">Mexico</text></g></g><path class="foreground" aria-hidden="true" d="" display="none"></path></g><g transform="translate(0,91)"><path class="background" aria-hidden="true" d="M0,0h79v11h-79Z" opacity="1"></path><g><g class="mark-symbol role-legend-symbol Country_legend_symbols"><path transform="translate(6,6)" d="M-5,0L5,0" stroke="#ff9da6" stroke-width="1.5" opacity="1"></path></g><g class="mark-text role-legend-label Country_legend_labels"><text text-anchor="start" transform="translate(16,9)" font-family="Roboto Condensed" font-size="10px" fill="#000" opacity="1">Spain</text></g></g><path class="foreground" aria-hidden="true" d="" display="none"></path></g><g transform="translate(0,104)"><path class="background" aria-hidden="true" d="M0,0h79v11h-79Z" opacity="1"></path><g><g class="mark-symbol role-legend-symbol Country_legend_symbols"><path transform="translate(6,6)" d="M-5,0L5,0" stroke="#9d755d" stroke-width="1.5" opacity="1"></path></g><g class="mark-text role-legend-label Country_legend_labels"><text text-anchor="start" transform="translate(16,9)" font-family="Roboto Condensed" font-size="10px" fill="#000" opacity="1">US</text></g></g><path class="foreground" aria-hidden="true" d="" display="none"></path></g><g transform="translate(0,117)"><path class="background" aria-hidden="true" d="M0,0h79v11h-79Z" opacity="1"></path><g><g class="mark-symbol role-legend-symbol Country_legend_symbols"><path transform="translate(6,6)" d="M-5,0L5,0" stroke="#bab0ac" stroke-width="1.5" opacity="1"></path></g><g class="mark-text role-legend-label Country_legend_labels"><text text-anchor="start" transform="translate(16,9)" font-family="Roboto Condensed" font-size="10px" fill="#000" opacity="1">United Kingdom</text></g></g><path class="foreground" aria-hidden="true" d="" display="none"></path></g></g></g><path class="foreground" aria-hidden="true" d="" pointer-events="none" display="none"></path></g></g></g><path class="foreground" aria-hidden="true" d="" pointer-events="none" display="none"></path></g></g><g class="mark-group role-title"><g transform="translate(133.33333333333334,-22)"><path class="background" aria-hidden="true" d="M0,0h0v0h0Z" pointer-events="none"></path><g><g class="mark-text role-title-text" role="graphics-symbol" aria-roledescription="title" aria-label="Title text 'Recovered (total)'" pointer-events="none"><text text-anchor="middle" transform="translate(0,10)" font-family="Roboto Condensed" font-size="13px" font-weight="normal" fill="#000" opacity="1">Recovered (total)</text></g></g><path class="foreground" aria-hidden="true" d="" pointer-events="none" display="none"></path></g></g></g><path class="foreground" aria-hidden="true" d="" display="none"></path></g></g></g></svg>