<svg class="marks" width="419.6666666666667" height="310.6666666666667" viewBox="0 0 419.6666666666667 310.6666666666667" version="1.1" xmlns="http://www.w3.org/2000/svg" xmlns:xlink="http://www.w3.org/1999/xlink"><defs><clipPath id="clip1"><rect x="0" y="0" width="266.6666666666667" height="266.6666666666667"></rect></clipPath><clipPath id="clip2"><rect x="0" y="0" width="266.6666666666667" height="266.6666666666667"></rect></clipPath><clipPath id="clip3"><rect x="0" y="0" width="266.6666666666667" height="266.6666666666667"></rect></clipPath><clipPath id="clip4"><rect x="0" y="0" width="266.6666666666667" height="266.6666666666667"></rect></clipPath><clipPath id="clip5"><rect x="0" y="0" width="266.6666666666667" height="266.6666666666667"></rect></clipPath><clipPath id="clip6"><rect x="0" y="0" width="266.6666666666667" height="266.6666666666667"></rect></clipPath><clipPath id="clip7"><rect x="0" y="0" width="266.6666666666667" height="266.6666666666667"></rect></clipPath><clipPath id="clip8"><rect x="0" y="0" width="266.6666666666667" height="266.6666666666667"></rect></clipPath><clipPath id="clip9"><rect x="0" y="0" width="266.6666666666667" height="266.6666666666667"></rect></clipPath><clipPath id="clip10"><rect x="0" y="0" width="266.6666666666667" height="266.6666666666667"></rect></clipPath></defs><rect width="419.6666666666667" height="310.6666666666667" fill="white"></rect><g fill="none" stroke-miterlimit="10" transform="translate(50,27)"><g class="mark-group role-frame root" role="graphics-object" aria-roledescription="group mark container"><g transform="translate(0,0)"><path class="background" aria-hidden="true" d="M0,0h266.6666666666667v266.6666666666667h-266.6666666666667Z" stroke="#ddd" stroke-width="0"></path><g><g class="mark-group role-axis" aria-hidden="true"><g transform="translate(0.5,0.5)"><path class="background" aria-hidden="true" d="M0,0h0v0h0Z" pointer-events="none"></path><g><g class="mark-rule role-axis-grid" pointer-events="none"><line transform="translate(0,267)" x2="266.6666666666667" y2="0" stroke="#ddd" stroke-width="1" opacity="1"></line><line transform="translate(0,237)" x2="266.6666666666667" y2="0" stroke="#ddd" stroke-width="1" opacity="1"></line><line transform="translate(0,207)" x2="266.6666666666667" y2="0" stroke="#ddd" stroke-width="1" opacity="1"></line><line transform="translate(0,178)" x2="266.6666666666667" y2="0" stroke="#ddd" stroke-width="1" opacity="1"></line><line transform="translate(0,148)" x2="266.6666666666667" y2="0" stroke="#ddd" stroke-width="1" opacity="1"></line><line transform="translate(0,119)" x2="266.6666666666667" y2="0" stroke="#ddd" stroke-width="1" opacity="1"></line><line transform="translate(0,89)" x2="266.6666666666667" y2="0" stroke="#ddd" stroke-width="1" opacity="1"></line><line transform="translate(0,59)" x2="266.6666666666667" y2="0" stroke="#ddd" stroke-width="1" opacity="1"></line><line transform="translate(0,30)" x2="266.6666666666667" y2="0" stroke="#ddd" stroke-width="1" opacity="1"></line><line transform="translate(0,0)" x2="266.6666666666667" y2="0" stroke="#ddd" stroke-width="1" opacity="1"></line></g></g><path class="foreground" aria-hidden="true" d="" pointer-events="none" display="none"></path></g></g><g class="mark-group role-axis" role="graphics-symbol" aria-roledescription="axis" aria-label="X-axis for a time scale with values from Tuesday, 28 April 2020, 5:00:00 PM to Thursday, 28 May 2020, 5:00:00 PM"><g transform="translate(0.5,267.1666666666667)"><path class="background" aria-hidden="true" d="M0,0h0v0h0Z" pointer-events="none"></path><g><g class="mark-text role-axis-label" pointer-events="none"><text text-anchor="middle" transform="translate(38.148148148148145,10)" font-family="Roboto Condensed" font-size="10px" fill="#000" opacity="1">May 03</text><text text-anchor="middle" transform="translate(100.37037037037038,10)" font-family="Roboto Condensed" font-size="10px" fill="#000" opacity="1">May 10</text><text text-anchor="middle" transform="translate(162.5925925925926,10)" font-family="Roboto Condensed" font-size="10px" fill="#000" opacity="1">May 17</text><text text-anchor="middle" transform="translate(224.81481481481484,10)" font-family="Roboto Condensed" font-size="10px" fill="#000" opacity="1">May 24</text></g><g class="mark-rule role-axis-domain" pointer-events="none"><line transform="translate(0,0)" x2="266.6666666666667" y2="0" stroke="lightgray" stroke-width="1" opacity="1"></line></g></g><path class="foreground" aria-hidden="true" d="" pointer-events="none" display="none"></path></g></g><g class="mark-group role-axis" role="graphics-symbol" aria-roledescription="axis" aria-label="Y-axis for a linear scale with values from -2,000 to 16,000"><g transform="translate(0.5,0.5)"><path class="background" aria-hidden="true" d="M0,0h0v0h0Z" pointer-events="none"></path><g><g class="mark-text role-axis-label" pointer-events="none"><text text-anchor="end" transform="translate(-2,269.6666666666667)" font-family="Roboto Condensed" font-size="10px" fill="#000" opacity="1">-2,000</text><text text-anchor="end" transform="translate(-2,240.03703703703704)" font-family="Roboto Condensed" font-size="10px" fill="#000" opacity="1">0</text><text text-anchor="end" transform="translate(-2,210.40740740740742)" font-family="Roboto Condensed" font-size="10px" fill="#000" opacity="1">2,000</text><text text-anchor="end" transform="translate(-2,180.7777777777778)" font-family="Roboto Condensed" font-size="10px" fill="#000" opacity="1">4,000</text><text text-anchor="end" transform="translate(-2,151.14814814814815)" font-family="Roboto Condensed" font-size="10px" fill="#000" opacity="1">6,000</text><text text-anchor="end" transform="translate(-2,121.51851851851852)" font-family="Roboto Condensed" font-size="10px" fill="#000" opacity="1">8,000</text><text text-anchor="end" transform="translate(-2,91.8888888888889)" font-family="Roboto Condensed" font-size="10px" fill="#000" opacity="1">10,000</text><text text-anchor="end" transform="translate(-2,62.25925925925926)" font-family="Roboto Condensed" font-size="10px" fill="#000" opacity="1">12,000</text><text text-anchor="end" transform="translate(-2,32.62962962962965)" font-family="Roboto Condensed" font-size="10px" fill="#000" opacity="1">14,000</text><text text-anchor="end" transform="translate(-2,3)" font-family="Roboto Condensed" font-size="10px" fill="#000" opacity="1">16,000</text></g><g class="mark-rule role-axis-domain" pointer-events="none"><line transform="translate(0,266.6666666666667)" x2="0" y2="-266.6666666666667" stroke="lightgray" stroke-width="1" opacity="1"></line></g></g><path class="foreground" aria-hidden="true" d="" pointer-events="none" display="none"></path></g></g><g class="mark-group role-scope pathgroup" role="graphics-object" aria-roledescription="group mark container"><g transform="translate(0,0)"><path class="background" aria-hidden="true" d="M0,0h266.6666666666667v266.6666666666667h-266.6666666666667Z"></path><g><g class="mark-line role-mark marks" clip-path="url(#clip1)" role="graphics-object" aria-roledescription="line mark container"><path aria-label="Country: Belgium; Date: Mar 01, 2020; Confirmed: 0; Recovered: 0; Deaths: 0; : 0" role="graphics-symbol" aria-roledescription="line mark" d="M-468.14814814814815,237.03703703703704L-459.2592592592593,237.03703703703704L-450.74074074074076,237.03703703703704L-441.8518518518519,237.03703703703704L-432.962962962963,237.03703703703704L-424.0740740740741,237.03703703703704L-415.1851851851852,237.03703703703704L-406.2962962962963,237.03703703703704L-397.40740740740745,237.03703703703704L-388.51851851851853,237.03703703703704L-379.6296296296297,237.03703703703704L-370.74074074074076,236.973544973545L-361.8518518518519,236.973544973545L-352.962962962963,237.03703703703704L-344.07407407407413,236.4825396825397L-335.1851851851852,236.4825396825397L-326.29629629629636,236.4825396825397L-317.40740740740745,236.06349206349208L-308.5185185185186,235.94497354497355L-299.6296296296297,235.6740740740741L-290.74074074074076,235.22328042328044L-281.8518518518519,235.34391534391534L-272.96296296296293,234.71746031746034L-264.0740740740741,234.36190476190478L-255.18518518518522,234.42328042328043L-246.29629629629633,233.6825396825397L-237.40740740740742,233.18518518518522L-228.51851851851853,232.7746031746032L-219.62962962962965,232.41481481481483L-210.74074074074073,231.9746031746032L-201.85185185185185,231.83280423280425L-192.96296296296296,231.82857142857145L-184.07407407407408,231.64232804232807L-175.1851851851852,231.38835978835982L-166.2962962962963,231.33121693121697L-157.40740740740742,231.24021164021164L-148.51851851851853,231.29735449735452L-139.62962962962965,231.2783068783069L-130.74074074074073,231.29947089947092L-121.85185185185186,231.90264550264553L-112.96296296296298,231.96190476190478L-104.07407407407408,231.9724867724868L-95.18518518518519,232.03809523809525L-86.2962962962963,232.1820105820106L-77.40740740740742,232.40634920634923L-68.51851851851852,232.52063492063493L-59.62962962962963,232.11428571428573L-50.74074074074074,232.3005291005291L-41.851851851851855,232.46349206349208L-32.96296296296297,232.6582010582011L-24.074074074074076,232.74497354497356L-15.185185185185185,232.84021164021163L-6.296296296296297,232.92910052910054L2.592592592592593,233.12169312169314L11.481481481481483,233.2783068783069L20.370370370370374,233.29100529100532L29.25925925925926,233.24021164021167L38.148148148148145,233.81164021164022L47.037037037037045,233.86243386243387L55.92592592592593,233.86666666666667L64.81481481481482,233.9724867724868L73.70370370370371,234.06560846560848L82.5925925925926,234.2666666666667L91.4814814814815,234.4973544973545L100.37037037037038,234.21587301587303L109.25925925925927,234.24550264550265L118.14814814814815,234.30476190476193L127.03703703703704,234.48465608465608L135.92592592592592,234.64338624338626L144.8148148148148,234.7089947089947L153.7037037037037,234.81693121693124L162.5925925925926,234.94603174603176L171.4814814814815,235.005291005291L180.37037037037038,235.015873015873L189.2592592592593,235.11111111111114L198.14814814814818,235.1809523809524L207.03703703703707,235.29735449735452L215.92592592592595,235.56613756613757L224.81481481481484,235.6783068783069L233.70370370370372,235.6825396825397L242.5925925925926,235.6973544973545L251.4814814814815,235.72910052910055L260.3703703703704,235.80105820105823L269.2592592592593,235.85396825396828" stroke="#4c78a8" stroke-width="2" opacity="1"></path></g></g><path class="foreground" aria-hidden="true" d="" display="none"></path></g><g transform="translate(0,0)"><path class="background" aria-hidden="true" d="M0,0h266.6666666666667v266.6666666666667h-266.6666666666667Z"></path><g><g class="mark-line role-mark marks" clip-path="url(#clip2)" role="graphics-object" aria-roledescription="line mark container"><path aria-label="Country: Brazil; Date: Mar 01, 2020; Confirmed: 0; Recovered: 0; Deaths: 0; : 0" role="graphics-symbol" aria-roledescription="line mark" d="M-468.14814814814815,237.03703703703704L-459.2592592592593,237.03703703703704L-450.74074074074076,237.03703703703704L-441.8518518518519,237.03703703703704L-432.962962962963,237.03703703703704L-424.0740740740741,237.03703703703704L-415.1851851851852,237.03703703703704L-406.2962962962963,237.03703703703704L-397.40740740740745,237.03703703703704L-388.51851851851853,237.03492063492067L-379.6296296296297,237.03280423280424L-370.74074074074076,237.03280423280424L-361.8518518518519,237.03280423280424L-352.962962962963,237.03280423280424L-344.07407407407413,237.03280423280424L-335.1851851851852,237.03280423280424L-326.29629629629636,237.03492063492067L-317.40740740740745,237.03703703703704L-308.5185185185186,237.03703703703704L-299.6296296296297,237.02857142857144L-290.74074074074076,237.02857142857144L-281.8518518518519,237.02857142857144L-272.96296296296293,237.02857142857144L-264.0740740740741,236.7873015873016L-255.18518518518522,236.7724867724868L-246.29629629629633,236.7724867724868L-237.40740740740742,236.78095238095239L-228.51851851851853,236.78095238095239L-219.62962962962965,236.78095238095239L-210.74074074074073,236.78095238095239L-201.85185185185185,237.02222222222224L-192.96296296296296,237.03703703703704L-184.07407407407408,237.03703703703704L-175.1851851851852,236.93968253968254L-166.2962962962963,236.93968253968254L-157.40740740740742,236.93968253968254L-148.51851851851853,236.93968253968254L-139.62962962962965,236.93968253968254L-130.74074074074073,230.8592592592593L-121.85185185185186,207.62116402116405L-112.96296296296298,207.71851851851852L-104.07407407407408,207.71851851851852L-95.18518518518519,207.71851851851852L-86.2962962962963,190.56719576719578L-77.40740740740742,190.56719576719578L-68.51851851851852,194.82539682539684L-59.62962962962963,213.13862433862437L-50.74074074074074,210.48253968253968L-41.851851851851855,208.1925925925926L-32.96296296296297,205.0074074074074L-24.074074074074076,220.05925925925928L-15.185185185185185,217.96402116402115L-6.296296296296297,216.81904761904764L2.592592592592593,218.3830687830688L11.481481481481483,217.2232804232804L20.370370370370374,215.06031746031746L29.25925925925926,212.11216931216933L38.148148148148145,209.86455026455027L47.037037037037045,205.9830687830688L55.92592592592593,203.85820105820105L64.81481481481482,200.55449735449739L73.70370370370371,195.94708994708995L82.5925925925926,192.04656084656085L91.4814814814815,193.12592592592594L100.37037037037038,190.5481481481482L109.25925925925927,191.38835978835982L118.14814814814815,185.44761904761907L127.03703703703704,179.7798941798942L135.92592592592592,185.97037037037038L144.8148148148148,182.7026455026455L153.7037037037037,177.80529100529102L162.5925925925926,175.31216931216932L171.4814814814815,167.03703703703704L180.37037037037038,164.66243386243386L189.2592592592593,156.06560846560848L198.14814814814818,138.6645502645503L207.03703703703707,130.24338624338628L215.92592592592595,125.04761904761907L224.81481481481484,118.96507936507938L233.70370370370372,124.07619047619049L242.5925925925926,127.4095238095238L251.4814814814815,131.2931216931217L260.3703703703704,127.73756613756615L269.2592592592593,122.65396825396824" stroke="#f58518" stroke-width="2" opacity="1"></path></g></g><path class="foreground" aria-hidden="true" d="" display="none"></path></g><g transform="translate(0,0)"><path class="background" aria-hidden="true" d="M0,0h266.6666666666667v266.6666666666667h-266.6666666666667Z"></path><g><g class="mark-line role-mark marks" clip-path="url(#clip3)" role="graphics-object" aria-roledescription="line mark container"><path aria-label="Country: France; Date: Mar 01, 2020; Confirmed: 0; Recovered: 0; Deaths: 0; : 0" role="graphics-symbol" aria-roledescription="line mark" d="M-468.14814814814815,237.03703703703704L-459.2592592592593,237.03703703703704L-450.74074074074076,237.03703703703704L-441.8518518518519,237.03703703703704L-432.962962962963,237.03703703703704L-424.0740740740741,237.03703703703704L-415.1851851851852,237.03703703703704L-406.2962962962963,237.03703703703704L-397.40740740740745,237.03703703703704L-388.51851851851853,237.03703703703704L-379.6296296296297,237.03703703703704L-370.74074074074076,237.03703703703704L-361.8518518518519,237.03703703703704L-352.962962962963,237.03703703703704L-344.07407407407413,237.03703703703704L-335.1851851851852,232.40634920634923L-326.29629629629636,232.40634920634923L-317.40740740740745,230.19894179894183L-308.5185185185186,228.80846560846564L-299.6296296296297,226.5904761904762L-290.74074074074076,224.9989417989418L-281.8518518518519,224.9989417989418L-272.96296296296293,226.45079365079366L-264.0740740740741,224.91640211640214L-255.18518518518522,223.91322751322753L-246.29629629629633,222.15026455026455L-237.40740740740742,221.20634920634922L-228.51851851851853,219.45396825396824L-219.62962962962965,216.42751322751326L-210.74074074074073,218.02962962962962L-201.85185185185185,217.30582010582012L-192.96296296296296,216.09947089947093L-184.07407407407408,215.19576719576722L-175.1851851851852,214.22645502645506L-166.2962962962963,213.91746031746035L-157.40740740740742,213.85608465608468L-148.51851851851853,213.75026455026457L-139.62962962962965,214.8825396825397L-130.74074074074073,217.61904761904762L-121.85185185185186,217.59576719576722L-112.96296296296298,217.79682539682543L-104.07407407407408,218.1968253968254L-95.18518518518519,218.01481481481483L-86.2962962962963,218.44021164021166L-77.40740740740742,217.85396825396825L-68.51851851851852,215.80740740740742L-59.62962962962963,216.82962962962964L-50.74074074074074,217.74179894179898L-41.851851851851855,218.24126984126985L-32.96296296296297,219.1809523809524L-24.074074074074076,219.784126984127L-15.185185185185185,220.2095238095238L-6.296296296296297,221.26137566137567L2.592592592592593,221.48148148148147L11.481481481481483,221.8878306878307L20.370370370370374,223.10052910052912L29.25925925925926,224.47619047619048L38.148148148148145,224.6603174603175L47.037037037037045,224.96296296296296L55.92592592592593,224.74920634920636L64.81481481481482,225.0074074074074L73.70370370370371,225.3883597883598L82.5925925925926,225.46031746031747L91.4814814814815,226.1693121693122L100.37037037037038,226.26666666666668L109.25925925925927,226.1777777777778L118.14814814814815,226.84867724867726L127.03703703703704,227.83915343915345L135.92592592592592,228.0973544973545L144.8148148148148,227.7820105820106L153.7037037037037,228.02962962962965L162.5925925925926,226.78306878306879L171.4814814814815,226.77883597883599L180.37037037037038,227.24021164021167L189.2592592592593,227.84126984126985L198.14814814814818,228.74920634920636L207.03703703703707,229.81164021164022L215.92592592592595,229.0984126984127L224.81481481481484,230.57354497354498L233.70370370370372,230.42116402116406L242.5925925925926,230.73862433862436L251.4814814814815,231.13227513227517L260.3703703703704,230.93756613756617L269.2592592592593,230.59894179894184" stroke="#e45756" stroke-width="2" opacity="1"></path></g></g><path class="foreground" aria-hidden="true" d="" display="none"></path></g><g transform="translate(0,0)"><path class="background" aria-hidden="true" d="M0,0h266.6666666666667v266.6666666666667h-266.6666666666667Z"></path><g><g class="mark-line role-mark marks" clip-path="url(#clip4)" role="graphics-object" aria-roledescription="line mark container"><path aria-label="Country: Germany; Date: Mar 01, 2020; Confirmed: 0; Recovered: 0; Deaths: 0; : 0" role="graphics-symbol" aria-roledescription="line mark" d="M-468.14814814814815,237.03280423280424L-459.2592592592593,237.03280423280424L-450.74074074074076,237.03280423280424L-441.8518518518519,237.03280423280424L-432.962962962963,237.01798941798944L-424.0740740740741,237.01798941798944L-415.1851851851852,236.97566137566142L-406.2962962962963,236.97777777777782L-397.40740740740745,236.97777777777782L-388.51851851851853,236.93333333333334L-379.6296296296297,236.93333333333334L-370.74074074074076,236.8677248677249L-361.8518518518519,236.85079365079366L-352.962962962963,236.7534391534392L-344.07407407407413,236.64126984126986L-335.1851851851852,236.57142857142858L-326.29629629629636,236.61587301587304L-317.40740740740745,230.31534391534393L-308.5185185185186,229.75238095238097L-299.6296296296297,225.2698412698413L-290.74074074074076,223.32698412698414L-281.8518518518519,219.5809523809524L-272.96296296296293,218.10582010582013L-264.0740740740741,209.02857142857144L-255.18518518518522,209.82645502645502L-246.29629629629633,204.9671957671958L-237.40740740740742,201.55132275132277L-228.51851851851853,199.11746031746034L-219.62962962962965,199.11322751322754L-210.74074074074073,195.7904761904762L-201.85185185185185,204.86772486772486L-192.96296296296296,194.74920634920636L-184.07407407407408,178.62433862433866L-175.1851851851852,173.61481481481482L-166.2962962962963,174.94603174603174L-157.40740740740742,171.42857142857142L-148.51851851851853,170.15873015873015L-139.62962962962965,161.69312169312173L-130.74074074074073,169.06031746031746L-121.85185185185186,181.3756613756614L-112.96296296296298,184.98835978835982L-104.07407407407408,175.23597883597884L-95.18518518518519,177.7777777777778L-86.2962962962963,178.41269841269843L-77.40740740740742,179.4708994708995L-68.51851851851852,179.89417989417993L-59.62962962962963,180.31746031746033L-50.74074074074074,181.3756613756614L-41.851851851851855,180.55873015873019L-32.96296296296297,185.3968253968254L-24.074074074074076,186.24338624338625L-15.185185185185185,188.35978835978835L-6.296296296296297,190.05291005291005L2.592592592592593,192.5925925925926L11.481481481481483,194.28571428571428L20.370370370370374,200.84656084656086L29.25925925925926,196.40211640211643L38.148148148148145,197.6719576719577L47.037037037037045,198.51851851851853L55.92592592592593,199.5767195767196L64.81481481481482,195.76719576719577L73.70370370370371,198.51851851851853L82.5925925925926,205.71428571428575L91.4814814814815,206.7724867724868L100.37037037037038,207.83068783068785L109.25925925925927,209.69947089947092L118.14814814814815,211.42857142857147L127.03703703703704,218.41269841269843L135.92592592592592,218.83597883597884L144.8148148148148,216.0910052910053L153.7037037037037,217.35449735449737L162.5925925925926,216.69629629629634L171.4814814814815,217.09206349206352L180.37037037037038,219.0878306878307L189.2592592592593,219.54285714285717L198.14814814814818,220.55661375661379L207.03703703703707,221.23386243386244L215.92592592592595,221.97671957671957L224.81481481481484,223.7671957671958L233.70370370370372,224.00423280423283L242.5925925925926,223.73333333333335L251.4814814814815,224.64761904761906L260.3703703703704,225.8772486772487L269.2592592592593,226.0719576719577" stroke="#72b7b2" stroke-width="2" opacity="1"></path></g></g><path class="foreground" aria-hidden="true" d="" display="none"></path></g><g transform="translate(0,0)"><path class="background" aria-hidden="true" d="M0,0h266.6666666666667v266.6666666666667h-266.6666666666667Z"></path><g><g class="mark-line role-mark marks" clip-path="url(#clip5)" role="graphics-object" aria-roledescription="line mark container"><path aria-label="Country: Iran; Date: Mar 01, 2020; Confirmed: 0; Recovered: 0; Deaths: 0; : 0" role="graphics-symbol" aria-roledescription="line mark" d="M-468.14814814814815,233.76507936507937L-459.2592592592593,232.8910052910053L-450.74074074074076,232.5862433862434L-441.8518518518519,231.8730158730159L-432.962962962963,231.94285714285715L-424.0740740740741,232.33862433862433L-415.1851851851852,232.70687830687834L-406.2962962962963,234.30687830687833L-397.40740740740745,231.83915343915345L-388.51851851851853,232.389417989418L-379.6296296296297,231.41164021164022L-370.74074074074076,231.8941798941799L-361.8518518518519,231.21481481481484L-352.962962962963,229.02433862433864L-344.07407407407413,227.14074074074074L-335.1851851851852,229.96613756613758L-326.29629629629636,229.96613756613758L-317.40740740740745,229.57883597883597L-308.5185185185186,228.0719576719577L-299.6296296296297,226.99047619047622L-290.74074074074076,227.75026455026457L-281.8518518518519,228.47830687830688L-272.96296296296293,227.59788359788362L-264.0740740740741,224.38095238095238L-255.18518518518522,224.88253968253971L-246.29629629629633,224.6603174603175L-237.40740740740742,223.80105820105823L-228.51851851851853,222.64126984126986L-219.62962962962965,219.9851851851852L-210.74074074074073,221.49206349206352L-201.85185185185185,215.18518518518522L-192.96296296296296,210.82962962962966L-184.07407407407408,206.68994708994708L-175.1851851851852,204.02539682539685L-166.2962962962963,199.93650793650798L-157.40740740740742,190.02962962962962L-148.51851851851853,185.90899470899473L-139.62962962962965,191.01164021164024L-130.74074074074073,192.4021164021164L-121.85185185185186,194.45291005291006L-112.96296296296298,194.8783068783069L-104.07407407407408,197.67407407407407L-95.18518518518519,207.32275132275132L-86.2962962962963,209.25079365079367L-77.40740740740742,208.91005291005294L-68.51851851851852,209.87089947089947L-59.62962962962963,209.14285714285714L-50.74074074074074,210.34074074074076L-41.851851851851855,210.50793650793653L-32.96296296296297,211.20423280423284L-24.074074074074076,210.2984126984127L-15.185185185185185,212.35978835978838L-6.296296296296297,212.75343915343916L2.592592592592593,214.43809523809526L11.481481481481483,215.32275132275134L20.370370370370374,216.46772486772488L29.25925925925926,217.6571428571429L38.148148148148145,218.4867724867725L47.037037037037045,219.16190476190476L55.92592592592593,220.02962962962965L64.81481481481482,220.53756613756613L73.70370370370371,220.8656084656085L82.5925925925926,221.12380952380954L91.4814814814815,220.71111111111114L100.37037037037038,220.6962962962963L109.25925925925927,220.01481481481483L118.14814814814815,220.35555555555558L127.03703703703704,220.44232804232806L135.92592592592592,220.53968253968256L144.8148148148148,220.1079365079365L153.7037037037037,219.93015873015875L162.5925925925926,219.42645502645505L171.4814814814815,219.60000000000002L180.37037037037038,218.378835978836L189.2592592592593,217.1851851851852L198.14814814814818,215.82010582010585L207.03703703703707,214.94179894179894L215.92592592592595,213.91534391534395L224.81481481481484,213.04338624338627L233.70370370370372,211.53015873015877L242.5925925925926,211.0814814814815L251.4814814814815,210.8613756613757L260.3703703703704,210.74285714285716L269.2592592592593,210.25396825396825" stroke="#54a24b" stroke-width="2" opacity="1"></path></g></g><path class="foreground" aria-hidden="true" d="" display="none"></path></g><g transform="translate(0,0)"><path class="background" aria-hidden="true" d="M0,0h266.6666666666667v266.6666666666667h-266.6666666666667Z"></path><g><g class="mark-line role-mark marks" clip-path="url(#clip6)" role="graphics-object" aria-roledescription="line mark container"><path aria-label="Country: Italy; Date: Mar 01, 2020; Confirmed: 0; Recovered: 0; Deaths: 0; : 0" role="graphics-symbol" aria-roledescription="line mark" d="M-468.14814814814815,235.8878306878307L-459.2592592592593,235.89629629629633L-450.74074074074076,235.82010582010582L-441.8518518518519,235.84338624338628L-432.962962962963,235.40952380952382L-424.0740740740741,235.7015873015873L-415.1851851851852,235.09841269841272L-406.2962962962963,234.12275132275133L-397.40740740740745,233.41164021164025L-388.51851851851853,232.75132275132276L-379.6296296296297,232.34497354497358L-370.74074074074076,230.73015873015876L-361.8518518518519,229.85185185185185L-352.962962962963,230.6857142857143L-344.07407407407413,228.34708994708998L-335.1851851851852,227.11322751322754L-326.29629629629636,227.989417989418L-317.40740740740745,225.64021164021167L-308.5185185185186,225.74179894179898L-299.6296296296297,224.50582010582013L-290.74074074074076,223.25925925925927L-281.8518518518519,223.6783068783069L-272.96296296296293,224.32592592592593L-264.0740740740741,220.96084656084656L-255.18518518518522,221.3693121693122L-246.29629629629633,221.19576719576722L-237.40740740740742,220.2814814814815L-228.51851851851853,218.3957671957672L-219.62962962962965,218.81058201058204L-210.74074074074073,218.44444444444443L-201.85185185185185,219.64656084656087L-192.96296296296296,218.70264550264554L-184.07407407407408,216.62645502645506L-175.1851851851852,215.4666666666667L-166.2962962962963,214.39788359788363L-157.40740740740742,212.61798941798943L-148.51851851851853,210.8021164021164L-139.62962962962965,210.37460317460318L-130.74074074074073,210.0783068783069L-121.85185185185186,212.48465608465608L-112.96296296296298,212.2878306878307L-104.07407407407408,211.06455026455026L-95.18518518518519,210.8084656084656L-86.2962962962963,209.85396825396828L-77.40740740740742,208.5883597883598L-68.51851851851852,206.41269841269843L-59.62962962962963,202.22010582010586L-50.74074074074074,200.18624338624338L-41.851851851851855,199.42645502645505L-32.96296296296297,198.53333333333333L-24.074074074074076,199.21058201058202L-15.185185185185185,199.4772486772487L-6.296296296296297,200.33650793650796L2.592592592592593,201.6740740740741L11.481481481481483,198.16084656084658L20.370370370370374,199.4687830687831L29.25925925925926,201.49417989417992L38.148148148148145,201.63809523809525L47.037037037037045,202.63492063492066L55.92592592592593,202.56084656084658L64.81481481481482,190.4910052910053L73.70370370370371,194.00846560846563L82.5925925925926,193.0708994708995L91.4814814814815,188.11216931216933L100.37037037037038,187.23386243386244L109.25925925925927,186.86137566137566L118.14814814814815,186.64973544973546L127.03703703703704,196.19894179894183L135.92592592592592,196.8L144.8148148148148,192.2074074074074L153.7037037037037,195.1767195767196L162.5925925925926,194.7301587301587L171.4814814814815,193.14497354497357L180.37037037037038,193.94285714285715L189.2592592592593,195.25714285714287L198.14814814814818,196.24973544973545L207.03703703703707,202.0846560846561L215.92592592592595,203.11111111111114L224.81481481481484,204.6497354497355L233.70370370370372,206.02116402116403L242.5925925925926,204.74708994708996L251.4814814814815,205.67407407407407L260.3703703703704,203.0814814814815L269.2592592592593,202.9121693121693" stroke="#eeca3b" stroke-width="2" opacity="1"></path></g></g><path class="foreground" aria-hidden="true" d="" display="none"></path></g><g transform="translate(0,0)"><path class="background" aria-hidden="true" d="M0,0h266.6666666666667v266.6666666666667h-266.6666666666667Z"></path><g><g class="mark-line role-mark marks" clip-path="url(#clip7)" role="graphics-object" aria-roledescription="line mark container"><path aria-label="Country: Mexico; Date: Mar 01, 2020; Confirmed: 0; Recovered: 0; Deaths: 0; : 0" role="graphics-symbol" aria-roledescription="line mark" d="M-468.14814814814815,237.03492063492067L-459.2592592592593,237.03492063492067L-450.74074074074076,237.03492063492067L-441.8518518518519,237.03068783068787L-432.962962962963,237.03068783068787L-424.0740740740741,237.03068783068787L-415.1851851851852,237.03068783068787L-406.2962962962963,237.03068783068787L-397.40740740740745,237.03068783068787L-388.51851851851853,237.03068783068787L-379.6296296296297,237.03703703703704L-370.74074074074076,237.03703703703704L-361.8518518518519,237.03703703703704L-352.962962962963,237.03703703703704L-344.07407407407413,237.03703703703704L-335.1851851851852,237.03703703703704L-326.29629629629636,237.03703703703704L-317.40740740740745,237.03703703703704L-308.5185185185186,237.03703703703704L-299.6296296296297,237.03703703703704L-290.74074074074076,237.03703703703704L-281.8518518518519,237.03703703703704L-272.96296296296293,237.03703703703704L-264.0740740740741,236.9714285714286L-255.18518518518522,236.9714285714286L-246.29629629629633,236.9714285714286L-237.40740740740742,236.9714285714286L-228.51851851851853,235.70582010582012L-219.62962962962965,235.70582010582012L-210.74074074074073,235.70582010582012L-201.85185185185185,235.77142857142857L-192.96296296296296,235.77142857142857L-184.07407407407408,235.77142857142857L-175.1851851851852,235.77142857142857L-166.2962962962963,237.03703703703704L-157.40740740740742,237.03703703703704L-148.51851851851853,234.62645502645506L-139.62962962962965,234.4761904761905L-130.74074074074073,234.22010582010583L-121.85185185185186,233.8793650793651L-112.96296296296298,233.8793650793651L-104.07407407407408,233.8793650793651L-95.18518518518519,233.8793650793651L-86.2962962962963,235.22751322751324L-77.40740740740742,235.3777777777778L-68.51851851851852,235.63386243386245L-59.62962962962963,235.97460317460317L-50.74074074074074,235.97460317460317L-41.851851851851855,235.97460317460317L-32.96296296296297,226.4042328042328L-24.074074074074076,224.91640211640214L-15.185185185185185,223.36719576719577L-6.296296296296297,218.42116402116403L2.592592592592593,218.42116402116403L11.481481481481483,218.42116402116403L20.370370370370374,216.4021164021164L29.25925925925926,225.97248677248677L38.148148148148145,226.25820105820108L47.037037037037045,227.80740740740742L55.92592592592593,225.63597883597888L64.81481481481482,223.5809523809524L73.70370370370371,223.5809523809524L82.5925925925926,220.23915343915345L91.4814814814815,217.04338624338627L100.37037037037038,219.30793650793652L109.25925925925927,216.6074074074074L118.14814814814815,217.72486772486775L127.03703703703704,217.54708994708997L135.92592592592592,214.40423280423283L144.8148148148148,215.5830687830688L153.7037037037037,215.82222222222225L162.5925925925926,212.6878306878307L171.4814814814815,211.03068783068784L180.37037037037038,212.93121693121694L189.2592592592593,212.84867724867726L198.14814814814818,212.32380952380956L207.03703703703707,212.1904761904762L215.92592592592595,210.42116402116403L224.81481481481484,208.14814814814815L233.70370370370372,207.2719576719577L242.5925925925926,206.5968253968254L251.4814814814815,204.41269841269843L260.3703703703704,203.40952380952382L269.2592592592593,201.45608465608464" stroke="#b279a2" stroke-width="2" opacity="1"></path></g></g><path class="foreground" aria-hidden="true" d="" display="none"></path></g><g transform="translate(0,0)"><path class="background" aria-hidden="true" d="M0,0h266.6666666666667v266.6666666666667h-266.6666666666667Z"></path><g><g class="mark-line role-mark marks" clip-path="url(#clip8)" role="graphics-object" aria-roledescription="line mark container"><path aria-label="Country: Spain; Date: Mar 01, 2020; Confirmed: 0; Recovered: 0; Deaths: 0; : 0" role="graphics-symbol" aria-roledescription="line mark" d="M-468.14814814814815,236.97777777777782L-459.2592592592593,236.97777777777782L-450.74074074074076,236.973544973545L-441.8518518518519,236.973544973545L-432.962962962963,236.6539682539683L-424.0740740740741,236.6539682539683L-415.1851851851852,236.63280423280426L-406.2962962962963,236.00634920634923L-397.40740740740745,236.00634920634923L-388.51851851851853,235.9830687830688L-379.6296296296297,234.92910052910054L-370.74074074074076,235.13650793650794L-361.8518518518519,235.0814814814815L-352.962962962963,234.0846560846561L-344.07407407407413,233.63386243386245L-335.1851851851852,232.68148148148148L-326.29629629629636,232.70899470899474L-317.40740740740745,231.1830687830688L-308.5185185185186,227.96613756613758L-299.6296296296297,224.53333333333333L-290.74074074074076,220.594708994709L-281.8518518518519,215.53439153439155L-272.96296296296293,211.35661375661377L-264.0740740740741,206.973544973545L-255.18518518518522,204.30687830687833L-246.29629629629633,200.46560846560848L-237.40740740740742,195.28465608465612L-228.51851851851853,192.2624338624339L-219.62962962962965,190.61587301587304L-210.74074074074073,187.57460317460317L-201.85185185185185,186.9693121693122L-192.96296296296296,186.35132275132278L-184.07407407407408,183.33544973544974L-175.1851851851852,183.2338624338624L-166.2962962962963,183.79894179894183L-157.40740740740742,184.35978835978838L-148.51851851851853,185.5851851851852L-139.62962962962965,185.62962962962965L-130.74074074074073,185.61693121693122L-121.85185185185186,188.71534391534394L-112.96296296296298,189.13862433862434L-104.07407407407408,196.552380952381L-95.18518518518519,203.83492063492065L-86.2962962962963,205.36296296296297L-77.40740740740742,203.47089947089947L-68.51851851851852,205.2698412698413L-59.62962962962963,205.15978835978837L-50.74074074074074,206.44867724867726L-41.851851851851855,199.87724867724867L-32.96296296296297,192.7809523809524L-24.074074074074076,192.56084656084658L-15.185185185185185,194.09947089947093L-6.296296296296297,194.63703703703703L2.592592592592593,188.2920634920635L11.481481481481483,188.7830687830688L20.370370370370374,195.35449735449737L29.25925925925926,191.44973544973544L38.148148148148145,193.5873015873016L47.037037037037045,193.71851851851852L55.92592592592593,192.72380952380954L64.81481481481482,200.94179894179894L73.70370370370371,202.19894179894183L82.5925925925926,196.61798941798943L91.4814814814815,201.6846560846561L100.37037037037038,200.49947089947094L109.25925925925927,203.60634920634922L118.14814814814815,204.24550264550265L127.03703703703704,205.6698412698413L135.92592592592592,205.5809523809524L144.8148148148148,208.17989417989418L153.7037037037037,210.594708994709L162.5925925925926,215.2804232804233L171.4814814814815,209.02222222222224L180.37037037037038,212.91851851851854L189.2592592592593,216.81904761904764L198.14814814814818,222.21798941798943L207.03703703703707,225.20000000000002L215.92592592592595,228.7195767195767L224.81481481481484,228.7195767195767L233.70370370370372,237.03703703703704L242.5925925925926,237.03703703703704L251.4814814814815,237.03703703703704L260.3703703703704,237.03703703703704L269.2592592592593,237.03703703703704" stroke="#ff9da6" stroke-width="2" opacity="1"></path></g></g><path class="foreground" aria-hidden="true" d="" display="none"></path></g><g transform="translate(0,0)"><path class="background" aria-hidden="true" d="M0,0h266.6666666666667v266.6666666666667h-266.6666666666667Z"></path><g><g class="mark-line role-mark marks" clip-path="url(#clip9)" role="graphics-object" aria-roledescription="line mark container"><path aria-label="Country: US; Date: Mar 01, 2020; Confirmed: 0; Recovered: 0; Deaths: 0; : 0" role="graphics-symbol" aria-roledescription="line mark" d="M-468.14814814814815,237.03703703703704L-459.2592592592593,237.03703703703704L-450.74074074074076,237.03703703703704L-441.8518518518519,237.03492063492067L-432.962962962963,237.03492063492067L-424.0740740740741,237.02645502645507L-415.1851851851852,237.02645502645507L-406.2962962962963,237.02645502645507L-397.40740740740745,237.02645502645507L-388.51851851851853,237.01587301587304L-379.6296296296297,237.01798941798944L-370.74074074074076,236.83174603174604L-361.8518518518519,236.80634920634924L-352.962962962963,236.75132275132276L-344.07407407407413,236.6899470899471L-335.1851851851852,236.6857142857143L-326.29629629629636,236.6962962962963L-317.40740740740745,236.33650793650796L-308.5185185185186,236.49523809523814L-299.6296296296297,235.85185185185188L-290.74074074074076,235.50899470899472L-281.8518518518519,235.14074074074077L-272.96296296296293,231.77354497354497L-264.0740740740741,225.4687830687831L-255.18518518518522,222.90793650793654L-246.29629629629633,219.86666666666667L-237.40740740740742,219.42857142857144L-228.51851851851853,218.33227513227516L-219.62962962962965,208.2962962962963L-210.74074074074073,205.75026455026457L-201.85185185185185,207.54074074074077L-192.96296296296296,205.84338624338625L-184.07407407407408,205.11111111111111L-175.1851851851852,202.30899470899473L-166.2962962962963,196.64973544973546L-157.40740740740742,201.86666666666667L-148.51851851851853,204.14814814814815L-139.62962962962965,186.45291005291008L-130.74074074074073,182.01058201058203L-121.85185185185186,176.64126984126986L-112.96296296296298,175.04126984126987L-104.07407407407408,174.06349206349208L-95.18518518518519,165.989417989418L-86.2962962962963,157.9915343915344L-77.40740740740742,175.9851851851852L-68.51851851851852,178.96084656084656L-59.62962962962963,183.55555555555557L-50.74074074074074,183.0687830687831L-41.851851851851855,151.25079365079367L-32.96296296296297,161.83703703703702L-24.074074074074076,159.46878306878307L-15.185185185185185,154.29629629629633L-6.296296296296297,150.83174603174604L2.592592592592593,145.28253968253966L11.481481481481483,80.96507936507936L20.370370370370374,99.60634920634921L29.25925925925926,78.28571428571429L38.148148148148145,82.19259259259259L47.037037037037045,76.70687830687832L55.92592592592593,80.73015873015873L64.81481481481482,90.60317460317462L73.70370370370371,150.07619047619048L82.5925925925926,163.0095238095238L91.4814814814815,158.4084656084656L100.37037037037038,160.810582010582L109.25925925925927,140.62857142857143L118.14814814814815,151.33121693121694L127.03703703703704,123.76719576719576L135.92592592592592,128.3005291005291L144.8148148148148,127.5047619047619L153.7037037037037,118.85291005291003L162.5925925925926,118.31534391534392L171.4814814814815,130.27513227513228L180.37037037037038,111.94708994708994L189.2592592592593,129.35026455026457L198.14814814814818,126.9756613756614L207.03703703703707,26.692063492063504L215.92592592592595,40.50158730158732L224.81481481481484,37.098412698412695L233.70370370370372,33.906878306878305L242.5925925925926,34.89947089947091L251.4814814814815,31.331216931216947L260.3703703703704,22.067724867724852L269.2592592592593,117.86031746031745" stroke="#9d755d" stroke-width="2" opacity="1"></path></g></g><path class="foreground" aria-hidden="true" d="" display="none"></path></g><g transform="translate(0,0)"><path class="background" aria-hidden="true" d="M0,0h266.6666666666667v266.6666666666667h-266.6666666666667Z"></path><g><g class="mark-line role-mark marks" clip-path="url(#clip10)" role="graphics-object" aria-roledescription="line mark container"><path aria-label="Country: United Kingdom; Date: Mar 01, 2020; Confirmed: 0; Recovered: 0; Deaths: 0; : 0" role="graphics-symbol" aria-roledescription="line mark" d="M-468.14814814814815,237.01587301587304L-459.2592592592593,237.01587301587304L-450.74074074074076,237.01587301587304L-441.8518518518519,237.01587301587304L-432.962962962963,237.01587301587304L-424.0740740740741,237.01587301587304L-415.1851851851852,237.01587301587304L-406.2962962962963,237.03703703703704L-397.40740740740745,237.03703703703704L-388.51851851851853,237.03280423280424L-379.6296296296297,236.9650793650794L-370.74074074074076,236.93756613756614L-361.8518518518519,236.93756613756614L-352.962962962963,236.93756613756614L-344.07407407407413,236.93756613756614L-335.1851851851852,236.93756613756614L-326.29629629629636,236.94179894179896L-317.40740740740745,236.8613756613757L-308.5185185185186,236.88888888888889L-299.6296296296297,236.88888888888889L-290.74074074074076,236.88888888888889L-281.8518518518519,236.88888888888889L-272.96296296296293,236.88888888888889L-264.0740740740741,236.88888888888889L-255.18518518518522,237.03703703703704L-246.29629629629633,237.03703703703704L-237.40740740740742,237.03703703703704L-228.51851851851853,237.03703703703704L-219.62962962962965,237.03703703703704L-210.74074074074073,237.03703703703704L-201.85185185185185,237.03703703703704L-192.96296296296296,237.03703703703704L-184.07407407407408,237.03703703703704L-175.1851851851852,237.03703703703704L-166.2962962962963,236.594708994709L-157.40740740740742,236.594708994709L-148.51851851851853,236.594708994709L-139.62962962962965,237.32275132275134L-130.74074074074073,237.32275132275134L-121.85185185185186,237.32275132275134L-112.96296296296298,237.32275132275134L-104.07407407407408,237.7650793650794L-95.18518518518519,237.7650793650794L-86.2962962962963,237.7650793650794L-77.40740740740742,237.03703703703704L-68.51851851851852,237.03703703703704L-59.62962962962963,237.03703703703704L-50.74074074074074,237.03703703703704L-41.851851851851855,237.03703703703704L-32.96296296296297,237.03703703703704L-24.074074074074076,237.03703703703704L-15.185185185185185,237.03703703703704L-6.296296296296297,237.03703703703704L2.592592592592593,237.03703703703704L11.481481481481483,237.03703703703704L20.370370370370374,237.03703703703704L29.25925925925926,237.03703703703704L38.148148148148145,237.03703703703704L47.037037037037045,237.03703703703704L55.92592592592593,237.03703703703704L64.81481481481482,237.03703703703704L73.70370370370371,237.03703703703704L82.5925925925926,237.03703703703704L91.4814814814815,237.03703703703704L100.37037037037038,237.03703703703704L109.25925925925927,237.03703703703704L118.14814814814815,237.03703703703704L127.03703703703704,237.03703703703704L135.92592592592592,237.03703703703704L144.8148148148148,237.03703703703704L153.7037037037037,237.03703703703704L162.5925925925926,237.03703703703704L171.4814814814815,237.03703703703704L180.37037037037038,237.03703703703704L189.2592592592593,237.03703703703704L198.14814814814818,237.03703703703704L207.03703703703707,237.03703703703704L215.92592592592595,237.03703703703704L224.81481481481484,237.03703703703704L233.70370370370372,237.03703703703704L242.5925925925926,237.03703703703704L251.4814814814815,237.03703703703704L260.3703703703704,237.03703703703704L269.2592592592593,237.03703703703704" stroke="#bab0ac" stroke-width="2" opacity="1"></path></g></g><path class="foreground" aria-hidden="true" d="" display="none"></path></g></g><g class="mark-group role-legend" role="graphics-symbol" aria-roledescription="legend" aria-label="Symbol legend for stroke color with 10 values: Belgium, Brazil, France, Germany, Iran, ending with United Kingdom"><g transform="translate(285,0)"><path class="background" aria-hidden="true" d="M0,0h79v128h-79Z" pointer-events="none"></path><g><g class="mark-group role-legend-entry"><g transform="translate(0,0)"><path class="background" aria-hidden="true" d="M0,0h0v0h0Z" pointer-events="none"></path><g><g class="mark-group role-scope Country_legend_entries" role="graphics-object" aria-roledescription="group mark container"><g transform="translate(0,0)"><path class="background" aria-hidden="true" d="M0,0h79v11h-79Z" opacity="1"></path><g><g class="mark-symbol role-legend-symbol Country_legend_symbols"><path transform="translate(6,6)" d="M-5,0L5,0" stroke="#4c78a8" stroke-width="1.5" opacity="1"></path></g><g class="mark-text role-legend-label Country_legend_labels"><text text-anchor="start" transform="translate(16,9)" font-family="Roboto Condensed" font-size="10px" fill="#000" opacity="1">Belgium</text></g></g><path class="foreground" aria-hidden="true" d="" display="none"></path></g><g transform="translate(0,13)"><path class="background" aria-hidden="true" d="M0,0h79v11h-79Z" opacity="1"></path><g><g class="mark-symbol role-legend-symbol Country_legend_symbols"><path transform="translate(6,6)" d="M-5,0L5,0" stroke="#f58518" stroke-width="1.5" opacity="1"></path></g><g class="mark-text role-legend-label Country_legend_labels"><text text-anchor="start" transform="translate(16,9)" font-family="Roboto Condensed" font-size="10px" fill="#000" opacity="1">Brazil</text></g></g><path class="foreground" aria-hidden="true" d="" display="none"></path></g><g transform="translate(0,26)"><path class="background" aria-hidden="true" d="M0,0h79v11h-79Z" opacity="1"></path><g><g class="mark-symbol role-legend-symbol Country_legend_symbols"><path transform="translate(6,6)" d="M-5,0L5,0" stroke="#e45756" stroke-width="1.5" opacity="1"></path></g><g class="mark-text role-legend-label Country_legend_labels"><text text-anchor="start" transform="translate(16,9)" font-family="Roboto Condensed" font-size="10px" fill="#000" opacity="1">France</text></g></g><path class="foreground" aria-hidden="true" d="" display="none"></path></g><g transform="translate(0,39)"><path class="background" aria-hidden="true" d="M0,0h79v11h-79Z" opacity="1"></path><g><g class="mark-symbol role-legend-symbol Country_legend_symbols"><path transform="translate(6,6)" d="M-5,0L5,0" stroke="#72b7b2" stroke-width="1.5" opacity="1"></path></g><g class="mark-text role-legend-label Country_legend_labels"><text text-anchor="start" transform="translate(16,9)" font-family="Roboto Condensed" font-size="10px" fill="#000" opacity="1">Germany</text></g></g><path class="foreground" aria-hidden="true" d="" display="none"></path></g><g transform="translate(0,52)"><path class="background" aria-hidden="true" d="M0,0h79v11h-79Z" opacity="1"></path><g><g class="mark-symbol role-legend-symbol Country_legend_symbols"><path transform="translate(6,6)" d="M-5,0L5,0" stroke="#54a24b" stroke-width="1.5" opacity="1"></path></g><g class="mark-text role-legend-label Country_legend_labels"><text text-anchor="start" transform="translate(16,9)" font-family="Roboto Condensed" font-size="10px" fill="#000" opacity="1">Iran</text></g></g><path class="foreground" aria-hidden="true" d="" display="none"></path></g><g transform="translate(0,65)"><path class="background" aria-hidden="true" d="M0,0h79v11h-79Z" opacity="1"></path><g><g class="mark-symbol role-legend-symbol Country_legend_symbols"><path transform="translate(6,6)" d="M-5,0L5,0" stroke="#eeca3b" stroke-width="1.5" opacity="1"></path></g><g class="mark-text role-legend-label Country_legend_labels"><text text-anchor="start" transform="translate(16,9)" font-family="Roboto Condensed" font-size="10px" fill="#000" opacity="1">Italy</text></g></g><path class="foreground" aria-hidden="true" d="" display="none"></path></g><g transform="translate(0,78)"><path class="background" aria-hidden="true" d="M0,0h79v11h-79Z" opacity="1"></path><g><g class="mark-symbol role-legend-symbol Country_legend_symbols"><path transform="translate(6,6)" d="M-5,0L5,0" stroke="#b279a2" stroke-width="1.5" opacity="1"></path></g><g class="mark-text role-legend-label Country_legend_labels"><text text-anchor="start" transform="translate(16,9)" font-family="Roboto Condensed" font-size="10px" fill="#000" opacity="1">Mexico</text></g></g><path class="foreground" aria-hidden="true" d="" display="none"></path></g><g transform="translate(0,91)"><path class="background" aria-hidden="true" d="M0,0h79v11h-79Z" opacity="1"></path><g><g class="mark-symbol role-legend-symbol Country_legend_symbols"><path transform="translate(6,6)" d="M-5,0L5,0" stroke="#ff9da6" stroke-width="1.5" opacity="1"></path></g><g class="mark-text role-legend-label Country_legend_labels"><text text-anchor="start" transform="translate(16,9)" font-family="Roboto Condensed" font-size="10px" fill="#000" opacity="1">Spain</text></g></g><path class="foreground" aria-hidden="true" d="" display="none"></path></g><g transform="translate(0,104)"><path class="background" aria-hidden="true" d="M0,0h79v11h-79Z" opacity="1"></path><g><g class="mark-symbol role-legend-symbol Country_legend_symbols"><path transform="translate(6,6)" d="M-5,0L5,0" stroke="#9d755d" stroke-width="1.5" opacity="1"></path></g><g class="mark-text role-legend-label Country_legend_labels"><text text-anchor="start" transform="translate(16,9)" font-family="Roboto Condensed" font-size="10px" fill="#000" opacity="1">US</text></g></g><path class="foreground" aria-hidden="true" d="" display="none"></path></g><g transform="translate(0,117)"><path class="background" aria-hidden="true" d="M0,0h79v11h-79Z" opacity="1"></path><g><g class="mark-symbol role-legend-symbol Country_legend_symbols"><path transform="translate(6,6)" d="M-5,0L5,0" stroke="#bab0ac" stroke-width="1.5" opacity="1"></path></g><g class="mark-text role-legend-label Country_legend_labels"><text text-anchor="start" transform="translate(16,9)" font-family="Roboto Condensed" font-size="10px" fill="#000" opacity="1">United Kingdom</text></g></g><path class="foreground" aria-hidden="true" d="" display="none"></path></g></g></g><path class="foreground" aria-hidden="true" d="" pointer-events="none" display="none"></path></g></g></g><path class="foreground" aria-hidden="true" d="" pointer-events="none" display="none"></path></g></g><g class="mark-group role-title"><g transform="translate(133.33333333333334,-22)"><path class="background" aria-hidden="true" d="M0,0h0v0h0Z" pointer-events="none"></path><g><g class="mark-text role-title-text" role="graphics-symbol" aria-roledescription="title" aria-label="Title text 'Recovered/7-day average'" pointer-events="none"><text text-anchor="middle" transform="translate(0,10)" font-family="Roboto Condensed" font-size="13px" font-weight="normal" fill="#000" opacity="1">Recovered/7-day average</text></g></g><path class="foreground" aria-hidden="true" d="" pointer-events="none" display="none"></path></g></g></g><path class="foreground" aria-hidden="true" d="" display="none"></path></g></g></g></svg>