<svg class="marks" width="419.6666666666667" height="310.6666666666667" viewBox="0 0 419.6666666666667 310.6666666666667" version="1.1" xmlns="http://www.w3.org/2000/svg" xmlns:xlink="http://www.w3.org/1999/xlink"><defs><clipPath id="clip1"><rect x="0" y="0" width="266.6666666666667" height="266.6666666666667"></rect></clipPath><clipPath id="clip2"><rect x="0" y="0" width="266.6666666666667" height="266.6666666666667"></rect></clipPath><clipPath id="clip3"><rect x="0" y="0" width="266.6666666666667" height="266.6666666666667"></rect></clipPath><clipPath id="clip4"><rect x="0" y="0" width="266.6666666666667" height="266.6666666666667"></rect></clipPath><clipPath id="clip5"><rect x="0" y="0" width="266.6666666666667" height="266.6666666666667"></rect></clipPath><clipPath id="clip6"><rect x="0" y="0" width="266.6666666666667" height="266.6666666666667"></rect></clipPath><clipPath id="clip7"><rect x="0" y="0" width="266.6666666666667" height="266.6666666666667"></rect></clipPath><clipPath id="clip8"><rect x="0" y="0" width="266.6666666666667" height="266.6666666666667"></rect></clipPath><clipPath id="clip9"><rect x="0" y="0" width="266.6666666666667" height="266.6666666666667"></rect></clipPath><clipPath id="clip10"><rect x="0" y="0" width="266.6666666666667" height="266.6666666666667"></rect></clipPath></defs><rect width="419.6666666666667" height="310.6666666666667" fill="white"></rect><g fill="none" stroke-miterlimit="10" transform="translate(50,27)"><g class="mark-group role-frame root" role="graphics-object" aria-roledescription="group mark container"><g transform="translate(0,0)"><path class="background" aria-hidden="true" d="M0,0h266.6666666666667v266.6666666666667h-266.6666666666667Z" stroke="#ddd" stroke-width="0"></path><g><g class="mark-group role-axis" aria-hidden="true"><g transform="translate(0.5,0.5)"><path class="background" aria-hidden="true" d="M0,0h0v0h0Z" pointer-events="none"></path><g><g class="mark-rule role-axis-grid" pointer-events="none"><line transform="translate(0,267)" x2="266.6666666666667" y2="0" stroke="#ddd" stroke-width="1" opacity="1"></line><line transform="translate(0,237)" x2="266.6666666666667" y2="0" stroke="#ddd" stroke-width="1" opacity="1"></line><line transform="translate(0,207)" x2="266.6666666666667" y2="0" stroke="#ddd" stroke-width="1" opacity="1"></line><line transform="translate(0,178)" x2="266.6666666666667" y2="0" stroke="#ddd" stroke-width="1" opacity="1"></line><line transform="translate(0,148)" x2="266.6666666666667" y2="0" stroke="#ddd" stroke-width="1" opacity="1"></line><line transform="translate(0,119)" x2="266.6666666666667" y2="0" stroke="#ddd" stroke-width="1" opacity="1"></line><line transform="translate(0,89)" x2="266.6666666666667" y2="0" stroke="#ddd" stroke-width="1" opacity="1"></line><line transform="translate(0,59)" x2="266.6666666666667" y2="0" stroke="#ddd" stroke-width="1" opacity="1"></line><line transform="translate(0,30)" x2="266.6666666666667" y2="0" stroke="#ddd" stroke-width="1" opacity="1"></line><line transform="translate(0,0)" x2="266.6666666666667" y2="0" stroke="#ddd" stroke-width="1" opacity="1"></line></g></g><path class="foreground" aria-hidden="true" d="" pointer-events="none" display="none"></path></g></g><g class="mark-group role-axis" role="graphics-symbol" aria-roledescription="axis" aria-label="X-axis for a time scale with values from Tuesday, 28 April 2020, 5:00:00 PM to Thursday, 28 May 2020, 5:00:00 PM"><g transform="translate(0.5,267.1666666666667)"><path class="background" aria-hidden="true" d="M0,0h0v0h0Z" pointer-events="none"></path><g><g class="mark-text role-axis-label" pointer-events="none"><text text-anchor="middle" transform="translate(38.148148148148145,10)" font-family="Roboto Condensed" font-size="10px" fill="#000" opacity="1">May 03</text><text text-anchor="middle" transform="translate(100.37037037037038,10)" font-family="Roboto Condensed" font-size="10px" fill="#000" opacity="1">May 10</text><text text-anchor="middle" transform="translate(162.5925925925926,10)" font-family="Roboto Condensed" font-size="10px" fill="#000" opacity="1">May 17</text><text text-anchor="middle" transform="translate(224.81481481481484,10)" font-family="Roboto Condensed" font-size="10px" fill="#000" opacity="1">May 24</text></g><g class="mark-rule role-axis-domain" pointer-events="none"><line transform="translate(0,0)" x2="266.6666666666667" y2="0" stroke="lightgray" stroke-width="1" opacity="1"></line></g></g><path class="foreground" aria-hidden="true" d="" pointer-events="none" display="none"></path></g></g><g class="mark-group role-axis" role="graphics-symbol" aria-roledescription="axis" aria-label="Y-axis for a linear scale with values from -10 to 80"><g transform="translate(0.5,0.5)"><path class="background" aria-hidden="true" d="M0,0h0v0h0Z" pointer-events="none"></path><g><g class="mark-text role-axis-label" pointer-events="none"><text text-anchor="end" transform="translate(-2,269.6666666666667)" font-family="Roboto Condensed" font-size="10px" fill="#000" opacity="1">-10</text><text text-anchor="end" transform="translate(-2,240.03703703703704)" font-family="Roboto Condensed" font-size="10px" fill="#000" opacity="1">0</text><text text-anchor="end" transform="translate(-2,210.40740740740742)" font-family="Roboto Condensed" font-size="10px" fill="#000" opacity="1">10</text><text text-anchor="end" transform="translate(-2,180.7777777777778)" font-family="Roboto Condensed" font-size="10px" fill="#000" opacity="1">20</text><text text-anchor="end" transform="translate(-2,151.14814814814815)" font-family="Roboto Condensed" font-size="10px" fill="#000" opacity="1">30</text><text text-anchor="end" transform="translate(-2,121.51851851851852)" font-family="Roboto Condensed" font-size="10px" fill="#000" opacity="1">40</text><text text-anchor="end" transform="translate(-2,91.8888888888889)" font-family="Roboto Condensed" font-size="10px" fill="#000" opacity="1">50</text><text text-anchor="end" transform="translate(-2,62.25925925925926)" font-family="Roboto Condensed" font-size="10px" fill="#000" opacity="1">60</text><text text-anchor="end" transform="translate(-2,32.62962962962965)" font-family="Roboto Condensed" font-size="10px" fill="#000" opacity="1">70</text><text text-anchor="end" transform="translate(-2,3)" font-family="Roboto Condensed" font-size="10px" fill="#000" opacity="1">80</text></g><g class="mark-rule role-axis-domain" pointer-events="none"><line transform="translate(0,266.6666666666667)" x2="0" y2="-266.6666666666667" stroke="lightgray" stroke-width="1" opacity="1"></line></g></g><path class="foreground" aria-hidden="true" d="" pointer-events="none" display="none"></path></g></g><g class="mark-group role-scope pathgroup" role="graphics-object" aria-roledescription="group mark container"><g transform="translate(0,0)"><path class="background" aria-hidden="true" d="M0,0h266.6666666666667v266.6666666666667h-266.6666666666667Z"></path><g><g class="mark-line role-mark marks" clip-path="url(#clip1)" role="graphics-object" aria-roledescription="line mark container"><path aria-label="Country: Belgium; Date: Mar 01, 2020; Confirmed: 0; Recovered: 0; Deaths: 0; : 0" role="graphics-symbol" aria-roledescription="line mark" d="M-468.14814814814815,237.03703703703704L-459.2592592592593,237.03703703703704L-450.74074074074076,237.03703703703704L-441.8518518518519,237.03703703703704L-432.962962962963,237.03703703703704L-424.0740740740741,237.03703703703704L-415.1851851851852,237.03703703703704L-406.2962962962963,237.03703703703704L-397.40740740740745,237.03703703703704L-388.51851851851853,237.03703703703704L-379.6296296296297,237.03703703703704L-370.74074074074076,235.9263811837602L-361.8518518518519,235.9263811837602L-352.962962962963,237.03703703703704L-344.07407407407413,227.33730925175254L-335.1851851851852,227.33730925175254L-326.29629629629636,227.33730925175254L-317.40740740740745,220.00698062012532L-308.5185185185186,217.93375636067518L-299.6296296296297,213.1949580533606L-290.74074074074076,205.30930149509496L-281.8518518518519,207.41954761632095L-272.96296296296293,196.461076530656L-264.0740740740741,190.24140375230564L-255.18518518518522,191.3150377438066L-246.29629629629633,178.35738612224333L-237.40740740740742,169.657248604908L-228.51851851851853,162.47500742038432L-219.62962962962965,156.18129091848215L-210.74074074074073,148.48074366909597L-201.85185185185185,146.00027893011102L-192.96296296296296,145.9262352065592L-184.07407407407408,142.66831137028043L-175.1851851851852,138.22568795717305L-166.2962962962963,137.22609768922385L-157.40740740740742,135.63415763286037L-148.51851851851853,136.63374790080954L-139.62962962962965,136.3005511448265L-130.74074074074073,136.67076976258545L-121.85185185185186,147.22200036871556L-112.96296296296298,148.25861249844064L-104.07407407407408,148.4437218073201L-95.18518518518519,149.59139952237285L-86.2962962962963,152.10888612313371L-77.40740740740742,156.03320347137858L-68.51851851851852,158.03238400727693L-59.62962962962963,150.9241865463051L-50.74074074074074,154.18211038258383L-41.851851851851855,157.03279373932776L-32.96296296296297,160.43880502271008L-24.074074074074076,161.9567013555218L-15.185185185185185,163.62268513543708L-6.296296296296297,165.1776033300247L2.592592592592593,168.54659275163115L11.481481481481483,171.28621052304737L20.370370370370374,171.50834169370273L29.25925925925926,170.61981701108127L38.148148148148145,180.61571969057292L47.037037037037045,181.50424437319444L55.92592592592593,181.5782880967462L64.81481481481482,183.42938118554096L73.70370370370371,185.05834310368036L82.5925925925926,188.57541997239036L91.4814814814815,192.61080290596294L100.37037037037038,187.68689528976893L109.25925925925927,188.2052013546314L118.14814814814815,189.2418134843565L127.03703703703704,192.38867173530755L135.92592592592592,195.16531136849972L144.8148148148148,196.31298908355245L153.7037037037037,198.2011040341231L162.5925925925926,200.4594376024527L171.4814814814815,201.49604973217777L180.37037037037038,201.68115904105727L189.2592592592593,203.34714282097255L198.14814814814818,204.56886425957708L207.03703703703707,206.60506665725129L215.92592592592595,211.30684310279L224.81481481481484,213.2690017769124L233.70370370370372,213.3430455004642L242.5925925925926,213.60219853289547L251.4814814814815,214.15752645953393L260.3703703703704,215.41626975991434L269.2592592592593,216.3418163043117" stroke="#4c78a8" stroke-width="2" opacity="1"></path></g></g><path class="foreground" aria-hidden="true" d="" display="none"></path></g><g transform="translate(0,0)"><path class="background" aria-hidden="true" d="M0,0h266.6666666666667v266.6666666666667h-266.6666666666667Z"></path><g><g class="mark-line role-mark marks" clip-path="url(#clip2)" role="graphics-object" aria-roledescription="line mark container"><path aria-label="Country: Brazil; Date: Mar 01, 2020; Confirmed: 0; Recovered: 0; Deaths: 0; : 0" role="graphics-symbol" aria-roledescription="line mark" d="M-468.14814814814815,237.03703703703704L-459.2592592592593,237.03703703703704L-450.74074074074076,237.03703703703704L-441.8518518518519,237.03703703703704L-432.962962962963,237.03703703703704L-424.0740740740741,237.03703703703704L-415.1851851851852,237.03703703703704L-406.2962962962963,237.03703703703704L-397.40740740740745,237.03703703703704L-388.51851851851853,237.0350163096245L-379.6296296296297,237.03299558221195L-370.74074074074076,237.03299558221195L-361.8518518518519,237.03299558221195L-352.962962962963,237.03299558221195L-344.07407407407413,237.03299558221195L-335.1851851851852,237.03299558221195L-326.29629629629636,237.0350163096245L-317.40740740740745,237.03703703703704L-308.5185185185186,237.03703703703704L-299.6296296296297,237.02895412738687L-290.74074074074076,237.02895412738687L-281.8518518518519,237.02895412738687L-272.96296296296293,237.02895412738687L-264.0740740740741,236.79859120235685L-255.18518518518522,236.78444611046905L-246.29629629629633,236.78444611046905L-237.40740740740742,236.79252902011925L-228.51851851851853,236.79252902011925L-219.62962962962965,236.79252902011925L-210.74074074074073,236.79252902011925L-201.85185185185185,237.02289194514927L-192.96296296296296,237.03703703703704L-184.07407407407408,237.03703703703704L-175.1851851851852,236.94408357606002L-166.2962962962963,236.94408357606002L-157.40740740740742,236.94408357606002L-148.51851851851853,236.94408357606002L-139.62962962962965,236.94408357606002L-130.74074074074073,231.13853371982088L-121.85185185185186,208.95094673008694L-112.96296296296298,209.04390019106398L-104.07407407407408,209.04390019106398L-95.18518518518519,209.04390019106398L-86.2962962962963,192.6679252398068L-77.40740740740742,192.6679252398068L-68.51851851851852,196.7336287938455L-59.62962962962963,214.21898309458936L-50.74074074074074,211.68297019184655L-41.851851851851855,209.49654313147386L-32.96296296296297,206.455348375595L-24.074074074074076,220.8267617336085L-15.185185185185185,218.82624159518986L-6.296296296296297,217.7330280650035L2.592592592592593,219.22634562287357L11.481481481481483,218.11898700079942L20.370370370370374,216.0538035851794L29.25925925925926,213.23893029950548L38.148148148148145,211.09291778738367L47.037037037037045,207.38690371277787L55.92592592592593,205.3580933905836L64.81481481481482,202.2037378996023L73.70370370370371,197.80461432249385L82.5925925925926,194.0804137011751L91.4814814814815,195.11098468157257L100.37037037037038,192.6497386930939L109.25925925925927,193.4519674758739L118.14814814814815,187.7797856288627L127.03703703703704,182.36827761806964L135.92592592592592,188.27890529976108L144.8148148148148,185.15890217479304L153.7037037037037,180.48293894216604L162.5925925925926,178.10252205018912L171.4814814814815,170.20147786714176L180.37037037037038,167.93422171026734L189.2592592592593,159.72602696051328L198.14814814814818,143.11160617457588L207.03703703703707,135.07113180006303L215.92592592592595,130.11024600226733L224.81481481481484,124.30267541861564L233.70370370370372,129.18273211990962L242.5925925925926,132.36537779466653L251.4814814814815,136.0734125966849L260.3703703703704,132.67859054361085L269.2592592592593,127.82480329868" stroke="#f58518" stroke-width="2" opacity="1"></path></g></g><path class="foreground" aria-hidden="true" d="" display="none"></path></g><g transform="translate(0,0)"><path class="background" aria-hidden="true" d="M0,0h266.6666666666667v266.6666666666667h-266.6666666666667Z"></path><g><g class="mark-line role-mark marks" clip-path="url(#clip3)" role="graphics-object" aria-roledescription="line mark container"><path aria-label="Country: France; Date: Mar 01, 2020; Confirmed: 0; Recovered: 0; Deaths: 0; : 0" role="graphics-symbol" aria-roledescription="line mark" d="M-468.14814814814815,237.03703703703704L-459.2592592592593,237.03703703703704L-450.74074074074076,237.03703703703704L-441.8518518518519,237.03703703703704L-432.962962962963,237.03703703703704L-424.0740740740741,237.03703703703704L-415.1851851851852,237.03703703703704L-406.2962962962963,237.03703703703704L-397.40740740740745,237.03703703703704L-388.51851851851853,237.03703703703704L-379.6296296296297,237.03703703703704L-370.74074074074076,237.03703703703704L-361.8518518518519,237.03703703703704L-352.962962962963,237.03703703703704L-344.07407407407413,237.03703703703704L-335.1851851851852,223.2093635584324L-326.29629629629636,223.2093635584324L-317.40740740740745,216.6178354788233L-308.5185185185186,212.4657415686573L-299.6296296296297,205.842614600843L-290.74074074074076,201.09014181477778L-281.8518518518519,201.09014181477778L-272.96296296296293,205.42550927653411L-264.0740740740741,200.84367048677706L-255.18518518518522,197.84809588492212L-246.29629629629633,192.58372110993233L-237.40740740740742,189.76510028202662L-228.51851851851853,184.53232439524203L-219.62962962962965,175.49504236854887L-210.74074074074073,180.27911404281932L-201.85185185185185,178.1177500895822L-192.96296296296296,174.51547683418704L-184.07407407407408,171.81693178146116L-175.1851851851852,168.92247362186293L-166.2962962962963,167.99978608627046L-157.40740740740742,167.81651253468021L-148.51851851851853,167.500523652628L-139.62962962962965,170.88160469058664L-130.74074074074073,179.05307718045674L-121.85185185185186,178.98355962640528L-112.96296296296298,179.5839385023045L-104.07407407407408,180.77837647646183L-95.18518518518519,180.234875599332L-86.2962962962963,181.5051509051819L-77.40740740740742,179.75457249861265L-68.51851851851852,173.64334751972297L-59.62962962962963,176.6958001203473L-50.74074074074074,179.41962428363735L-41.851851851851855,180.9110918069237L-32.96296296296297,183.71707307954733L-24.074074074074076,185.51820970724495L-15.185185185185185,186.7884850130948L-6.296296296296297,189.92941450069378L2.592592592592593,190.58667137536236L11.481481481481483,191.80006868244286L20.370370370370374,195.42130127076115L29.25925925925926,199.52915673743988L38.148148148148145,200.0789773922107L47.037037037037045,200.98270559488003L55.92592592592593,200.34440805313457L64.81481481481482,201.11542092534197L73.70370370370371,202.2529809007299L82.5925925925926,202.4678533405254L91.4814814814815,204.58497885027523L100.37037037037038,204.87568862176326L109.25925925925927,204.6102579608394L118.14814814814815,206.6136274730504L127.03703703703704,209.57128340905905L135.92592592592592,210.34229628126644L144.8148148148148,209.40064941275088L153.7037037037037,210.14006339675305L162.5925925925926,206.41771436617805L171.4814814814815,206.40507481089594L180.37037037037038,207.78278633664357L189.2592592592593,209.57760318670012L198.14814814814818,212.28878779470807L207.03703703703707,215.46131617051225L215.92592592592595,213.33155110548037L224.81481481481484,217.73643612128816L233.70370370370372,217.28141213113298L242.5925925925926,218.2293787772896L251.4814814814815,219.4048574185238L260.3703703703704,218.82343787554777L269.2592592592593,217.81227345298066" stroke="#e45756" stroke-width="2" opacity="1"></path></g></g><path class="foreground" aria-hidden="true" d="" display="none"></path></g><g transform="translate(0,0)"><path class="background" aria-hidden="true" d="M0,0h266.6666666666667v266.6666666666667h-266.6666666666667Z"></path><g><g class="mark-line role-mark marks" clip-path="url(#clip4)" role="graphics-object" aria-roledescription="line mark container"><path aria-label="Country: Germany; Date: Mar 01, 2020; Confirmed: 0; Recovered: 0; Deaths: 0; : 0" role="graphics-symbol" aria-roledescription="line mark" d="M-468.14814814814815,237.02682591754527L-459.2592592592593,237.02682591754527L-450.74074074074076,237.02682591754527L-441.8518518518519,237.02682591754527L-432.962962962963,236.9910869993241L-424.0740740740741,236.9910869993241L-415.1851851851852,236.88897580440636L-406.2962962962963,236.89408136415224L-397.40740740740745,236.89408136415224L-388.51851851851853,236.78686460948865L-379.6296296296297,236.78686460948865L-370.74074074074076,236.62859225736617L-361.8518518518519,236.58774777939905L-352.962962962963,236.3528920310883L-344.07407407407413,236.08229736455633L-335.1851851851852,235.91381389294207L-326.29629629629636,236.0210306476057L-317.40740740740745,220.82177928410223L-308.5185185185186,219.46370039169648L-299.6296296296297,208.65012484990936L-290.74074074074076,203.96322100318574L-281.8518518518519,194.92638025296702L-272.96296296296293,191.36780511008428L-264.0740740740741,169.47005935997802L-255.18518518518522,171.39485538417716L-246.29629629629633,159.67249020762225L-237.40740740740742,151.43211677776182L-228.51851851851853,145.56072306999258L-219.62962962962965,145.5505119505008L-210.74074074074073,137.53478314945937L-201.85185185185185,159.4325288995656L-192.96296296296296,135.0228477544833L-184.07407407407408,96.12358805057575L-175.1851851851852,84.03872813206294L-166.2962962962963,87.25012521222538L-157.40740740740742,78.7646849145624L-148.51851851851853,75.70134906703062L-139.62962962962965,55.27911008348552L-130.74074074074073,73.05156355891566L-121.85185185185186,102.76081572022792L-112.96296296296298,111.47600620645578L-104.07407407407408,87.94958689741179L-95.18518518518519,94.08136415222124L-86.2962962962963,95.6130320759871L-77.40740740740742,98.16581194893024L-68.51851851851852,99.18692389810751L-59.62962962962963,100.20803584728476L-50.74074074074074,102.76081572022792L-41.851851851851855,100.7900696583158L-32.96296296296297,112.46137923741182L-24.074074074074076,114.50360313576631L-15.185185185185185,119.60916288165261L-6.296296296296297,123.69361067836161L2.592592592592593,129.82028237342513L11.481481481481483,133.90473017013417L20.370370370370374,149.73196538238165L29.25925925925926,139.01028991602047L38.148148148148145,142.07362576355223L47.037037037037045,144.11584966190674L55.92592592592593,146.66862953484988L64.81481481481482,137.47862199225457L73.70370370370371,144.11584966190674L82.5925925925926,161.4747527979201L91.4814814814815,164.02753267086325L100.37037037037038,166.5803125438064L109.25925925925927,171.08852179942397L118.14814814814815,175.25976411181304L127.03703703703704,192.10811127323777L135.92592592592592,193.12922322241502L144.8148148148148,186.50731223200052L153.7037037037037,189.55533140029465L162.5925925925926,187.967502319324L171.4814814814815,188.92224199180473L180.37037037037038,193.7367848321755L189.2592592592593,194.83448017754105L198.14814814814818,197.28004329582058L207.03703703703707,198.9138224145042L215.92592592592595,200.70587388531027L224.81481481481484,205.02517743033007L233.70370370370372,205.5970001218693L242.5925925925926,204.94348847439588L251.4814814814815,207.14909028461878L260.3703703703704,210.1154204969787L269.2592592592593,210.58513199360024" stroke="#72b7b2" stroke-width="2" opacity="1"></path></g></g><path class="foreground" aria-hidden="true" d="" display="none"></path></g><g transform="translate(0,0)"><path class="background" aria-hidden="true" d="M0,0h266.6666666666667v266.6666666666667h-266.6666666666667Z"></path><g><g class="mark-line role-mark marks" clip-path="url(#clip5)" role="graphics-object" aria-roledescription="line mark container"><path aria-label="Country: Iran; Date: Mar 01, 2020; Confirmed: 0; Recovered: 0; Deaths: 0; : 0" role="graphics-symbol" aria-roledescription="line mark" d="M-468.14814814814815,229.03716683622469L-459.2592592592593,226.90007343846565L-450.74074074074076,226.15493675740677L-441.8518518518519,224.41110994131768L-432.962962962963,224.581870430727L-424.0740740740741,225.54951320404646L-415.1851851851852,226.44988669365927L-406.2962962962963,230.36185426921818L-397.40740740740745,224.3283169767556L-388.51851851851853,225.67370265088962L-379.6296296296297,223.28305579915917L-370.74074074074076,224.46285554416897L-361.8518518518519,222.80182169264197L-352.962962962963,217.4461517975315L-344.07407407407413,212.84079314376504L-335.1851851851852,219.74883112441475L-326.29629629629636,219.74883112441475L-317.40740740740745,218.8018865922358L-308.5185185185186,215.1175996692226L-299.6296296296297,212.4733993635207L-290.74074074074076,214.33106650588275L-281.8518518518519,216.11111524396773L-272.96296296296293,213.9584981653533L-264.0740740740741,206.09316653195432L-255.18518518518522,207.31953731953035L-246.29629629629633,206.77620848959162L-237.40740740740742,204.67533701382848L-228.51851851851853,201.83967797757674L-219.62962962962965,195.3456048197375L-210.74074074074073,199.0298917427507L-201.85185185185185,183.60970209306063L-192.96296296296296,172.96045702626125L-184.07407407407408,162.83901710854525L-175.1851851851852,156.32424570956545L-166.2962962962963,146.3269952386926L-157.40740740740742,122.1048785439949L-148.51851851851853,112.03000966884505L-139.62962962962965,124.50587451629562L-130.74074074074073,127.90556062362663L-121.85185185185186,132.91970953991844L-112.96296296296298,133.95979615722976L-104.07407407407408,140.79539029388766L-95.18518518518519,164.38621063379938L-86.2962962962963,169.1002350535536L-77.40740740740742,168.2671308476475L-68.51851851851852,170.61638121709694L-59.62962962962963,168.83633247901193L-50.74074074074074,171.765133600396L-41.851851851851855,172.17392386292138L-32.96296296296297,173.8763541967294L-24.074074074074076,171.6616423946934L-15.185185185185185,176.70166411241087L-6.296296296296297,177.66413232544522L2.592592592592593,181.78308231240942L11.481481481481483,183.9460485115941L20.370370370370374,186.74548562584994L29.25925925925926,189.65358850609348L38.148148148148145,191.6820161378648L47.037037037037045,193.33270086882155L55.92592592592593,195.4542705857252L64.81481481481482,196.69616505415664L73.70370370370371,197.4982218983519L82.5925925925926,198.12951825313786L91.4814814814815,197.12047899753733L100.37037037037038,197.08425707554142L109.25925925925927,195.41804866372928L118.14814814814815,196.25115286963535L127.03703703703704,196.46330984132572L135.92592592592592,196.70133961444176L144.8148148148148,195.64572931627504L153.7037037037037,195.21106625232406L162.5925925925926,193.9795209044629L171.4814814814815,194.40383484784363L180.37037037037038,191.41811356332312L189.2592592592593,188.4996615625093L198.14814814814818,185.1620701785999L207.03703703703707,183.01462766027058L215.92592592592595,180.5049659219821L224.81481481481484,178.37304708450813L233.70370370370372,174.6732364806396L242.5925925925926,173.57622970019182L251.4814814814815,173.0380754305382L260.3703703703704,172.74830005457088L269.2592592592593,171.55297662870566" stroke="#54a24b" stroke-width="2" opacity="1"></path></g></g><path class="foreground" aria-hidden="true" d="" display="none"></path></g><g transform="translate(0,0)"><path class="background" aria-hidden="true" d="M0,0h266.6666666666667v266.6666666666667h-266.6666666666667Z"></path><g><g class="mark-line role-mark marks" clip-path="url(#clip6)" role="graphics-object" aria-roledescription="line mark container"><path aria-label="Country: Italy; Date: Mar 01, 2020; Confirmed: 0; Recovered: 0; Deaths: 0; : 0" role="graphics-symbol" aria-roledescription="line mark" d="M-468.14814814814815,233.2330884290973L-459.2592592592593,233.2611101499661L-450.74074074074076,233.0089146621469L-441.8518518518519,233.0859743945361L-432.962962962963,231.64986120001004L-424.0740740740741,232.61661056998366L-415.1851851851852,230.6200629580816L-406.2962962962963,227.39055962795229L-397.40740740740745,225.03673507497297L-388.51851851851853,222.8510408472065L-379.6296296296297,221.50599824550403L-370.74074074074076,216.1608549897802L-361.8518518518519,213.2536014496421L-352.962962962963,216.01374095521902L-344.07407407407413,208.2727405652127L-335.1851851851852,204.18857474858493L-326.29629629629636,207.08882285850586L-317.40740740740745,199.31279531741353L-308.5185185185186,199.64905596783913L-299.6296296296297,195.55788472099417L-290.74074074074076,191.43168632306322L-281.8518518518519,192.81876150606888L-272.96296296296293,194.96242315253218L-264.0740740740741,183.82378910718373L-255.18518518518522,185.17583713910338L-246.29629629629633,184.60139186129297L-237.40740740740742,181.57504600746245L-228.51851851851853,175.333207683937L-219.62962962962965,176.70627200650824L-210.74074074074073,175.49433257893259L-201.85185185185185,179.47341694230232L-192.96296296296296,176.348995065431L-184.07407407407408,169.47666802235756L-175.1851851851852,165.63769226333181L-166.2962962962963,162.0999500036457L-157.40740740740742,156.20838319098021L-148.51851851851853,150.19772406462238L-139.62962962962965,148.78262716074792L-130.74074074074073,147.80186693033986L-121.85185185185186,155.76704108729658L-112.96296296296298,155.11553607709698L-104.07407407407408,151.06639741155522L-95.18518518518519,150.218740355274L-86.2962962962963,147.05929132731663L-77.40740740740742,142.87004405743087L-68.51851851851852,135.66846179414898L-59.62962962962963,121.79070453387527L-50.74074074074074,115.05848609514577L-41.851851851851855,112.54353664717088L-32.96296296296297,109.5872450955124L-24.074074074074076,111.82898276501649L-15.185185185185185,112.71166697238374L-6.296296296296297,115.55587164056703L2.592592592592593,119.98330353783759L11.481481481481483,108.35428937728513L20.370370370370374,112.68364525151489L29.25925925925926,119.38784196937557L38.148148148148145,119.86421122414517L47.037037037037045,123.1637688564465L55.92592592592593,122.91857879884448L64.81481481481482,82.96661027015129L73.70370370370371,94.60963529113815L82.5925925925926,91.50622970491843L91.4814814814815,75.09250670601817L100.37037037037038,72.18525316588007L109.25925925925927,70.9522974476528L118.14814814814815,70.25175442593275L127.03703703703704,101.86025556594043L135.92592592592592,103.8497977476253L144.8148148148148,88.6480141763007L153.7037037037037,98.47663277103273L162.5925925925926,96.99848699520348L171.4814814814815,91.75141976252048L180.37037037037038,94.392466954405L189.2592592592593,98.74283911928637L198.14814814814818,102.02838589115332L207.03703703703707,121.3423569999745L215.92592592592595,124.73999065531663L224.81481481481484,129.83293842322124L233.70370370370372,134.37245720396703L242.5925925925926,130.15518821321245L251.4814814814815,133.22356664834618L260.3703703703704,124.64191463227583L269.2592592592593,124.0814802148998" stroke="#eeca3b" stroke-width="2" opacity="1"></path></g></g><path class="foreground" aria-hidden="true" d="" display="none"></path></g><g transform="translate(0,0)"><path class="background" aria-hidden="true" d="M0,0h266.6666666666667v266.6666666666667h-266.6666666666667Z"></path><g><g class="mark-line role-mark marks" clip-path="url(#clip7)" role="graphics-object" aria-roledescription="line mark container"><path aria-label="Country: Mexico; Date: Mar 01, 2020; Confirmed: 0; Recovered: 0; Deaths: 0; : 0" role="graphics-symbol" aria-roledescription="line mark" d="M-468.14814814814815,237.0336827476314L-459.2592592592593,237.0336827476314L-450.74074074074076,237.0336827476314L-441.8518518518519,237.02697416882006L-432.962962962963,237.02697416882006L-424.0740740740741,237.02697416882006L-415.1851851851852,237.02697416882006L-406.2962962962963,237.02697416882006L-397.40740740740745,237.02697416882006L-388.51851851851853,237.02697416882006L-379.6296296296297,237.03703703703704L-370.74074074074076,237.03703703703704L-361.8518518518519,237.03703703703704L-352.962962962963,237.03703703703704L-344.07407407407413,237.03703703703704L-335.1851851851852,237.03703703703704L-326.29629629629636,237.03703703703704L-317.40740740740745,237.03703703703704L-308.5185185185186,237.03703703703704L-299.6296296296297,237.03703703703704L-290.74074074074076,237.03703703703704L-281.8518518518519,237.03703703703704L-272.96296296296293,237.03703703703704L-264.0740740740741,236.93305406546156L-255.18518518518522,236.93305406546156L-246.29629629629633,236.93305406546156L-237.40740740740742,236.93305406546156L-228.51851851851853,234.92718900087624L-219.62962962962965,234.92718900087624L-210.74074074074073,234.92718900087624L-201.85185185185185,235.03117197245174L-192.96296296296296,235.03117197245174L-184.07407407407408,235.03117197245174L-175.1851851851852,235.03117197245174L-166.2962962962963,237.03703703703704L-157.40740740740742,237.03703703703704L-148.51851851851853,233.2165014039891L-139.62962962962965,232.97834685618716L-130.74074074074073,232.57247783810215L-121.85185185185186,232.03243724379072L-112.96296296296298,232.03243724379072L-104.07407407407408,232.03243724379072L-95.18518518518519,232.03243724379072L-86.2962962962963,234.16911959519683L-77.40740740740742,234.40727414299877L-68.51851851851852,234.8131431610838L-59.62962962962963,235.3531837553952L-50.74074074074074,235.3531837553952L-41.851851851851855,235.3531837553952L-32.96296296296297,220.1850870629958L-24.074074074074076,217.82702161081608L-15.185185185185185,215.37168176587215L-6.296296296296297,207.5327074248422L2.592592592592593,207.5327074248422L11.481481481481483,207.5327074248422L20.370370370370374,204.3327153318415L29.25925925925926,219.50081202424093L38.148148148148145,219.95364109400518L47.037037037037045,222.4089809389491L55.92592592592593,218.9674800087408L64.81481481481482,215.7104649958439L73.70370370370371,215.7104649958439L82.5925925925926,210.41404202430508L91.4814814814815,205.34906502175681L100.37037037037038,208.93815468581417L109.25925925925927,204.65808140419065L118.14814814814815,206.4291462103797L127.03703703703704,206.1473859003042L135.92592592592592,201.16626613289748L144.8148148148148,203.03460533185068L153.7037037037037,203.4136400346904L162.5925925925926,198.4459374249063L171.4814814814815,195.8195288202737L180.37037037037038,198.83168070655736L189.2592592592593,198.70086341973655L198.14814814814818,197.86899964713263L207.03703703703707,197.657679414576L215.92592592592595,194.85349347144333L224.81481481481484,191.25098664976332L233.70370370370372,189.86231083581964L242.5925925925926,188.79229251541378L251.4814814814815,185.33066584877153L260.3703703703704,183.7407326704882L269.2592592592593,180.644723549063" stroke="#b279a2" stroke-width="2" opacity="1"></path></g></g><path class="foreground" aria-hidden="true" d="" display="none"></path></g><g transform="translate(0,0)"><path class="background" aria-hidden="true" d="M0,0h266.6666666666667v266.6666666666667h-266.6666666666667Z"></path><g><g class="mark-line role-mark marks" clip-path="url(#clip8)" role="graphics-object" aria-roledescription="line mark container"><path aria-label="Country: Spain; Date: Mar 01, 2020; Confirmed: 0; Recovered: 0; Deaths: 0; : 0" role="graphics-symbol" aria-roledescription="line mark" d="M-468.14814814814815,236.78377361517184L-459.2592592592593,236.78377361517184L-450.74074074074076,236.76568337075292L-441.8518518518519,236.76568337075292L-432.962962962963,235.3998699171227L-424.0740740740741,235.3998699171227L-415.1851851851852,235.309418695028L-406.2962962962963,232.63206252102444L-397.40740740740745,232.63206252102444L-388.51851851851853,232.53256617672025L-379.6296296296297,228.0280953164034L-370.74074074074076,228.9145172929316L-361.8518518518519,228.67934411548535L-352.962962962963,224.41909155482426L-344.07407407407413,222.49248052420683L-335.1851851851852,218.4221755299446L-326.29629629629636,218.53976211866774L-317.40740740740745,212.01822900563877L-308.5185185185186,198.26964324724204L-299.6296296296297,183.59845502347923L-290.74074074074076,166.76548259165267L-281.8518518518519,145.1385953888062L-272.96296296296293,127.28352414730941L-264.0740740740741,108.55107605149387L-255.18518518518522,97.1542220675597L-246.29629629629633,80.73732525736887L-237.40740740740742,58.594866088582535L-228.51851851851853,45.67843157345717L-219.62962962962965,38.64132649448834L-210.74074074074073,25.643485879477716L-201.85185185185185,23.05658092756886L-192.96296296296296,20.415405242403217L-184.07407407407408,7.526106093906352L-175.1851851851852,7.091940227851653L-166.2962962962963,9.50698785778054L-157.40740740740742,11.903945243290497L-148.51851851851853,17.14107100257453L-139.62962962962965,17.331018568973427L-130.74074074074073,17.276747835716577L-121.85185185185186,30.518806750382947L-112.96296296296298,32.32783119227725L-104.07407407407408,64.01289429205607L-95.18518518518519,95.13715981484762L-86.2962962962963,101.6677380500861L-77.40740740740742,93.58139879481854L-68.51851851851852,101.26975267286934L-59.62962962962963,100.79940631797685L-50.74074074074074,106.30788574354499L-41.851851851851855,78.22278128313584L-32.96296296296297,47.89448651477777L-24.074074074074076,46.95379380499277L-15.185185185185185,53.529597651278586L-6.296296296296297,55.82705869248433L2.592592592592593,28.709782308488666L11.481481481481483,30.80825066108609L20.370370370370374,58.89335512149522L29.25925925925926,42.20510464502023L38.148148148148145,51.340678076586485L47.037037037037045,51.90147565357366L55.92592592592593,47.650268215122054L64.81481481481482,82.77247775450007L73.70370370370371,88.14528034692616L82.5925925925926,64.2932930805497L91.4814814814815,85.94731565002455L100.37037037037038,80.88204721272048L109.25925925925927,94.16028661622474L118.14814814814815,96.89191352348514L127.03703703703704,102.9792807704595L135.92592592592592,102.59938563766171L144.8148148148148,113.70679571089276L153.7037037037037,124.0272801518998L162.5925925925926,144.05318072366978L171.4814814814815,117.30675435026245L180.37037037037038,133.95882433789956L189.2592592592593,150.6289845699556L198.14814814814818,173.7030913263175L207.03703703703707,186.4476685194629L215.92592592592595,201.48970675381406L224.81481481481484,201.48970675381406L233.70370370370372,237.03703703703704L242.5925925925926,237.03703703703704L251.4814814814815,237.03703703703704L260.3703703703704,237.03703703703704L269.2592592592593,237.03703703703704" stroke="#ff9da6" stroke-width="2" opacity="1"></path></g></g><path class="foreground" aria-hidden="true" d="" display="none"></path></g><g transform="translate(0,0)"><path class="background" aria-hidden="true" d="M0,0h266.6666666666667v266.6666666666667h-266.6666666666667Z"></path><g><g class="mark-line role-mark marks" clip-path="url(#clip9)" role="graphics-object" aria-roledescription="line mark container"><path aria-label="Country: US; Date: Mar 01, 2020; Confirmed: 0; Recovered: 0; Deaths: 0; : 0" role="graphics-symbol" aria-roledescription="line mark" d="M-468.14814814814815,237.03703703703704L-459.2592592592593,237.03703703703704L-450.74074074074076,237.03703703703704L-441.8518518518519,237.0357413632755L-432.962962962963,237.0357413632755L-424.0740740740741,237.0305586682292L-415.1851851851852,237.0305586682292L-406.2962962962963,237.0305586682292L-397.40740740740745,237.0305586682292L-388.51851851851853,237.0240802994213L-379.6296296296297,237.02537597318286L-370.74074074074076,236.9113566821642L-361.8518518518519,236.8958085970253L-352.962962962963,236.86212107922435L-344.07407407407413,236.82454654013867L-335.1851851851852,236.8219551926155L-326.29629629629636,236.8284335614234L-317.40740740740745,236.60816902195552L-308.5185185185186,236.7053445540737L-299.6296296296297,236.3114597305547L-290.74074074074076,236.10156058117943L-281.8518518518519,235.87611334666528L-272.96296296296293,233.81469639199838L-264.0740740740741,229.95488425626448L-255.18518518518522,228.38711900475792L-246.29629629629633,226.5252358093737L-237.40740740740742,226.25703134072754L-228.51851851851853,225.58587233223136L-219.62962962962965,219.44178735483953L-210.74074074074073,217.88309181966403L-201.85185185185185,218.97923182195703L-192.96296296296296,217.94010146517334L-184.07407407407408,217.49179834366817L-175.1851851851852,215.77632628334197L-166.2962962962963,212.31169464488866L-157.40740740740742,215.50553046717266L-148.51851851851853,216.90226678215123L-139.62962962962965,206.06913846161714L-130.74074074074073,203.3495192360698L-121.85185185185186,200.06239490295232L-112.96296296296298,199.08286553920115L-104.07407407407408,198.4842642613532L-95.18518518518519,193.54126886094204L-86.2962962962963,188.6449177159476L-77.40740740740742,199.6607360368639L-68.51851851851852,201.4824533456393L-59.62962962962963,204.29536108202007L-50.74074074074074,203.99735611685765L-41.851851851851855,184.5181967853291L-32.96296296296297,190.9991569407306L-24.074074074074076,189.54929800152743L-15.185185185185185,186.3826713282365L-6.296296296296297,184.26165338053715L2.592592592592593,180.86439677768576L11.481481481481483,141.48887116340134L20.370370370370374,152.90116565535976L29.25925925925926,139.8485481812465L38.148148148148145,142.2403619451152L47.037037037037045,138.88197555511107L55.92592592592593,141.34505137586643L64.81481481481482,147.38936947361688L73.70370370370371,183.79909784765462L82.5925925925926,191.71696020464347L91.4814814814815,188.900165446978L100.37037037037038,190.37075516636637L109.25925925925927,178.01521017598083L118.14814814814815,184.56743238826897L127.03703703703704,167.69257731750753L135.92592592592592,170.4679105148026L144.8148148148148,169.98073718045015L153.7037037037037,164.68402284312884L162.5925925925926,164.3549217076886L171.4814814814815,171.67677413435268L180.37037037037038,160.45623935910743L189.2592592592593,171.11056470054413L198.14814814814818,169.65681874005622L207.03703703703707,108.262613221555L215.92592592592595,116.71688451583623L224.81481481481484,114.63344110722254L233.70370370370372,112.67956507476646L242.5925925925926,113.28723606894543L251.4814814814815,111.10273010692883L260.3703703703704,105.43156605251217L269.2592592592593,164.07635184894983" stroke="#9d755d" stroke-width="2" opacity="1"></path></g></g><path class="foreground" aria-hidden="true" d="" display="none"></path></g><g transform="translate(0,0)"><path class="background" aria-hidden="true" d="M0,0h266.6666666666667v266.6666666666667h-266.6666666666667Z"></path><g><g class="mark-line role-mark marks" clip-path="url(#clip10)" role="graphics-object" aria-roledescription="line mark container"><path aria-label="Country: United Kingdom; Date: Mar 01, 2020; Confirmed: 0; Recovered: 0; Deaths: 0; : 0" role="graphics-symbol" aria-roledescription="line mark" d="M-468.14814814814815,236.97334786575013L-459.2592592592593,236.97334786575013L-450.74074074074076,236.97334786575013L-441.8518518518519,236.97334786575013L-432.962962962963,236.97334786575013L-424.0740740740741,236.97334786575013L-415.1851851851852,236.97334786575013L-406.2962962962963,237.03703703703704L-397.40740740740745,237.03703703703704L-388.51851851851853,237.02429920277964L-379.6296296296297,236.8204938546615L-370.74074074074076,236.73769793198846L-361.8518518518519,236.73769793198846L-352.962962962963,236.73769793198846L-344.07407407407413,236.73769793198846L-335.1851851851852,236.73769793198846L-326.29629629629636,236.75043576624586L-317.40740740740745,236.50841691535555L-308.5185185185186,236.59121283802853L-299.6296296296297,236.59121283802853L-290.74074074074076,236.59121283802853L-281.8518518518519,236.59121283802853L-272.96296296296293,236.59121283802853L-264.0740740740741,236.59121283802853L-255.18518518518522,237.03703703703704L-246.29629629629633,237.03703703703704L-237.40740740740742,237.03703703703704L-228.51851851851853,237.03703703703704L-219.62962962962965,237.03703703703704L-210.74074074074073,237.03703703703704L-201.85185185185185,237.03703703703704L-192.96296296296296,237.03703703703704L-184.07407407407408,237.03703703703704L-175.1851851851852,237.03703703703704L-166.2962962962963,235.70593335714022L-157.40740740740742,235.70593335714022L-148.51851851851853,235.70593335714022L-139.62962962962965,237.8968408494106L-130.74074074074073,237.8968408494106L-121.85185185185186,237.8968408494106L-112.96296296296298,237.8968408494106L-104.07407407407408,239.22794452930742L-95.18518518518519,239.22794452930742L-86.2962962962963,239.22794452930742L-77.40740740740742,237.03703703703704L-68.51851851851852,237.03703703703704L-59.62962962962963,237.03703703703704L-50.74074074074074,237.03703703703704L-41.851851851851855,237.03703703703704L-32.96296296296297,237.03703703703704L-24.074074074074076,237.03703703703704L-15.185185185185185,237.03703703703704L-6.296296296296297,237.03703703703704L2.592592592592593,237.03703703703704L11.481481481481483,237.03703703703704L20.370370370370374,237.03703703703704L29.25925925925926,237.03703703703704L38.148148148148145,237.03703703703704L47.037037037037045,237.03703703703704L55.92592592592593,237.03703703703704L64.81481481481482,237.03703703703704L73.70370370370371,237.03703703703704L82.5925925925926,237.03703703703704L91.4814814814815,237.03703703703704L100.37037037037038,237.03703703703704L109.25925925925927,237.03703703703704L118.14814814814815,237.03703703703704L127.03703703703704,237.03703703703704L135.92592592592592,237.03703703703704L144.8148148148148,237.03703703703704L153.7037037037037,237.03703703703704L162.5925925925926,237.03703703703704L171.4814814814815,237.03703703703704L180.37037037037038,237.03703703703704L189.2592592592593,237.03703703703704L198.14814814814818,237.03703703703704L207.03703703703707,237.03703703703704L215.92592592592595,237.03703703703704L224.81481481481484,237.03703703703704L233.70370370370372,237.03703703703704L242.5925925925926,237.03703703703704L251.4814814814815,237.03703703703704L260.3703703703704,237.03703703703704L269.2592592592593,237.03703703703704" stroke="#bab0ac" stroke-width="2" opacity="1"></path></g></g><path class="foreground" aria-hidden="true" d="" display="none"></path></g></g><g class="mark-group role-legend" role="graphics-symbol" aria-roledescription="legend" aria-label="Symbol legend for stroke color with 10 values: Belgium, Brazil, France, Germany, Iran, ending with United Kingdom"><g transform="translate(285,0)"><path class="background" aria-hidden="true" d="M0,0h79v128h-79Z" pointer-events="none"></path><g><g class="mark-group role-legend-entry"><g transform="translate(0,0)"><path class="background" aria-hidden="true" d="M0,0h0v0h0Z" pointer-events="none"></path><g><g class="mark-group role-scope Country_legend_entries" role="graphics-object" aria-roledescription="group mark container"><g transform="translate(0,0)"><path class="background" aria-hidden="true" d="M0,0h79v11h-79Z" opacity="1"></path><g><g class="mark-symbol role-legend-symbol Country_legend_symbols"><path transform="translate(6,6)" d="M-5,0L5,0" stroke="#4c78a8" stroke-width="1.5" opacity="1"></path></g><g class="mark-text role-legend-label Country_legend_labels"><text text-anchor="start" transform="translate(16,9)" font-family="Roboto Condensed" font-size="10px" fill="#000" opacity="1">Belgium</text></g></g><path class="foreground" aria-hidden="true" d="" display="none"></path></g><g transform="translate(0,13)"><path class="background" aria-hidden="true" d="M0,0h79v11h-79Z" opacity="1"></path><g><g class="mark-symbol role-legend-symbol Country_legend_symbols"><path transform="translate(6,6)" d="M-5,0L5,0" stroke="#f58518" stroke-width="1.5" opacity="1"></path></g><g class="mark-text role-legend-label Country_legend_labels"><text text-anchor="start" transform="translate(16,9)" font-family="Roboto Condensed" font-size="10px" fill="#000" opacity="1">Brazil</text></g></g><path class="foreground" aria-hidden="true" d="" display="none"></path></g><g transform="translate(0,26)"><path class="background" aria-hidden="true" d="M0,0h79v11h-79Z" opacity="1"></path><g><g class="mark-symbol role-legend-symbol Country_legend_symbols"><path transform="translate(6,6)" d="M-5,0L5,0" stroke="#e45756" stroke-width="1.5" opacity="1"></path></g><g class="mark-text role-legend-label Country_legend_labels"><text text-anchor="start" transform="translate(16,9)" font-family="Roboto Condensed" font-size="10px" fill="#000" opacity="1">France</text></g></g><path class="foreground" aria-hidden="true" d="" display="none"></path></g><g transform="translate(0,39)"><path class="background" aria-hidden="true" d="M0,0h79v11h-79Z" opacity="1"></path><g><g class="mark-symbol role-legend-symbol Country_legend_symbols"><path transform="translate(6,6)" d="M-5,0L5,0" stroke="#72b7b2" stroke-width="1.5" opacity="1"></path></g><g class="mark-text role-legend-label Country_legend_labels"><text text-anchor="start" transform="translate(16,9)" font-family="Roboto Condensed" font-size="10px" fill="#000" opacity="1">Germany</text></g></g><path class="foreground" aria-hidden="true" d="" display="none"></path></g><g transform="translate(0,52)"><path class="background" aria-hidden="true" d="M0,0h79v11h-79Z" opacity="1"></path><g><g class="mark-symbol role-legend-symbol Country_legend_symbols"><path transform="translate(6,6)" d="M-5,0L5,0" stroke="#54a24b" stroke-width="1.5" opacity="1"></path></g><g class="mark-text role-legend-label Country_legend_labels"><text text-anchor="start" transform="translate(16,9)" font-family="Roboto Condensed" font-size="10px" fill="#000" opacity="1">Iran</text></g></g><path class="foreground" aria-hidden="true" d="" display="none"></path></g><g transform="translate(0,65)"><path class="background" aria-hidden="true" d="M0,0h79v11h-79Z" opacity="1"></path><g><g class="mark-symbol role-legend-symbol Country_legend_symbols"><path transform="translate(6,6)" d="M-5,0L5,0" stroke="#eeca3b" stroke-width="1.5" opacity="1"></path></g><g class="mark-text role-legend-label Country_legend_labels"><text text-anchor="start" transform="translate(16,9)" font-family="Roboto Condensed" font-size="10px" fill="#000" opacity="1">Italy</text></g></g><path class="foreground" aria-hidden="true" d="" display="none"></path></g><g transform="translate(0,78)"><path class="background" aria-hidden="true" d="M0,0h79v11h-79Z" opacity="1"></path><g><g class="mark-symbol role-legend-symbol Country_legend_symbols"><path transform="translate(6,6)" d="M-5,0L5,0" stroke="#b279a2" stroke-width="1.5" opacity="1"></path></g><g class="mark-text role-legend-label Country_legend_labels"><text text-anchor="start" transform="translate(16,9)" font-family="Roboto Condensed" font-size="10px" fill="#000" opacity="1">Mexico</text></g></g><path class="foreground" aria-hidden="true" d="" display="none"></path></g><g transform="translate(0,91)"><path class="background" aria-hidden="true" d="M0,0h79v11h-79Z" opacity="1"></path><g><g class="mark-symbol role-legend-symbol Country_legend_symbols"><path transform="translate(6,6)" d="M-5,0L5,0" stroke="#ff9da6" stroke-width="1.5" opacity="1"></path></g><g class="mark-text role-legend-label Country_legend_labels"><text text-anchor="start" transform="translate(16,9)" font-family="Roboto Condensed" font-size="10px" fill="#000" opacity="1">Spain</text></g></g><path class="foreground" aria-hidden="true" d="" display="none"></path></g><g transform="translate(0,104)"><path class="background" aria-hidden="true" d="M0,0h79v11h-79Z" opacity="1"></path><g><g class="mark-symbol role-legend-symbol Country_legend_symbols"><path transform="translate(6,6)" d="M-5,0L5,0" stroke="#9d755d" stroke-width="1.5" opacity="1"></path></g><g class="mark-text role-legend-label Country_legend_labels"><text text-anchor="start" transform="translate(16,9)" font-family="Roboto Condensed" font-size="10px" fill="#000" opacity="1">US</text></g></g><path class="foreground" aria-hidden="true" d="" display="none"></path></g><g transform="translate(0,117)"><path class="background" aria-hidden="true" d="M0,0h79v11h-79Z" opacity="1"></path><g><g class="mark-symbol role-legend-symbol Country_legend_symbols"><path transform="translate(6,6)" d="M-5,0L5,0" stroke="#bab0ac" stroke-width="1.5" opacity="1"></path></g><g class="mark-text role-legend-label Country_legend_labels"><text text-anchor="start" transform="translate(16,9)" font-family="Roboto Condensed" font-size="10px" fill="#000" opacity="1">United Kingdom</text></g></g><path class="foreground" aria-hidden="true" d="" display="none"></path></g></g></g><path class="foreground" aria-hidden="true" d="" pointer-events="none" display="none"></path></g></g></g><path class="foreground" aria-hidden="true" d="" pointer-events="none" display="none"></path></g></g><g class="mark-group role-title"><g transform="translate(133.33333333333334,-22)"><path class="background" aria-hidden="true" d="M0,0h0v0h0Z" pointer-events="none"></path><g><g class="mark-text role-title-text" role="graphics-symbol" aria-roledescription="title" aria-label="Title text 'Recovered/7-day average/million people'" pointer-events="none"><text text-anchor="middle" transform="translate(0,10)" font-family="Roboto Condensed" font-size="13px" font-weight="normal" fill="#000" opacity="1">Recovered/7-day average/million people</text></g></g><path class="foreground" aria-hidden="true" d="" pointer-events="none" display="none"></path></g></g></g><path class="foreground" aria-hidden="true" d="" display="none"></path></g></g></g></svg>