<svg class="marks" width="996" height="491" viewBox="0 0 996 491" version="1.1" xmlns="http://www.w3.org/2000/svg" xmlns:xlink="http://www.w3.org/1999/xlink"><defs><clipPath id="clip1"><rect x="0" y="0" width="400" height="400"></rect></clipPath><clipPath id="clip2"><rect x="0" y="0" width="400" height="400"></rect></clipPath><clipPath id="clip3"><rect x="0" y="0" width="400" height="400"></rect></clipPath><clipPath id="clip4"><rect x="0" y="0" width="400" height="400"></rect></clipPath><clipPath id="clip5"><rect x="0" y="0" width="400" height="400"></rect></clipPath><clipPath id="clip6"><rect x="0" y="0" width="400" height="400"></rect></clipPath><clipPath id="clip7"><rect x="0" y="0" width="400" height="400"></rect></clipPath><clipPath id="clip8"><rect x="0" y="0" width="400" height="400"></rect></clipPath><clipPath id="clip9"><rect x="0" y="0" width="400" height="400"></rect></clipPath></defs><rect width="996" height="491" fill="white"></rect><g fill="none" stroke-miterlimit="10" transform="translate(50,59)"><g class="mark-group role-frame root" role="graphics-object" aria-roledescription="group mark container"><g transform="translate(0,0)"><path class="background" aria-hidden="true" d="M0,0h0v400h0Z"></path><g><g class="mark-group role-scope concat_0_group" role="graphics-object" aria-roledescription="group mark container"><g transform="translate(0,0)"><path class="background" aria-hidden="true" d="M0,0h400v400h-400Z" stroke="#ddd" stroke-width="0"></path><g><g class="mark-group role-axis" aria-hidden="true"><g transform="translate(0.5,0.5)"><path class="background" aria-hidden="true" d="M0,0h0v0h0Z" pointer-events="none"></path><g><g class="mark-rule role-axis-grid" pointer-events="none"><line transform="translate(0,400)" x2="400" y2="0" stroke="#ddd" stroke-width="1" opacity="1"></line><line transform="translate(0,360)" x2="400" y2="0" stroke="#ddd" stroke-width="1" opacity="1"></line><line transform="translate(0,320)" x2="400" y2="0" stroke="#ddd" stroke-width="1" opacity="1"></line><line transform="translate(0,280)" x2="400" y2="0" stroke="#ddd" stroke-width="1" opacity="1"></line><line transform="translate(0,240)" x2="400" y2="0" stroke="#ddd" stroke-width="1" opacity="1"></line><line transform="translate(0,200)" x2="400" y2="0" stroke="#ddd" stroke-width="1" opacity="1"></line><line transform="translate(0,160)" x2="400" y2="0" stroke="#ddd" stroke-width="1" opacity="1"></line><line transform="translate(0,120)" x2="400" y2="0" stroke="#ddd" stroke-width="1" opacity="1"></line><line transform="translate(0,80)" x2="400" y2="0" stroke="#ddd" stroke-width="1" opacity="1"></line><line transform="translate(0,40)" x2="400" y2="0" stroke="#ddd" stroke-width="1" opacity="1"></line><line transform="translate(0,0)" x2="400" y2="0" stroke="#ddd" stroke-width="1" opacity="1"></line></g></g><path class="foreground" aria-hidden="true" d="" pointer-events="none" display="none"></path></g></g><g class="mark-group role-axis" role="graphics-symbol" aria-roledescription="axis" aria-label="X-axis titled 'Date' for a time scale with values from September 29 to October 14"><g transform="translate(0.5,400.5)"><path class="background" aria-hidden="true" d="M0,0h0v0h0Z" pointer-events="none"></path><g><g class="mark-text role-axis-label" pointer-events="none"><text text-anchor="middle" transform="translate(34.44444444444444,10)" font-family="Roboto Condensed" font-size="10px" fill="#000" opacity="1">Oct 01</text><text text-anchor="middle" transform="translate(87.77777777777777,10)" font-family="Roboto Condensed" font-size="10px" fill="#000" opacity="1">Oct 03</text><text text-anchor="middle" transform="translate(141.11111111111111,10)" font-family="Roboto Condensed" font-size="10px" fill="#000" opacity="1">Oct 05</text><text text-anchor="middle" transform="translate(194.44444444444443,10)" font-family="Roboto Condensed" font-size="10px" fill="#000" opacity="1">Oct 07</text><text text-anchor="middle" transform="translate(247.77777777777777,10)" font-family="Roboto Condensed" font-size="10px" fill="#000" opacity="1">Oct 09</text><text text-anchor="middle" transform="translate(301.1111111111111,10)" font-family="Roboto Condensed" font-size="10px" fill="#000" opacity="1">Oct 11</text><text text-anchor="middle" transform="translate(354.44444444444446,10)" font-family="Roboto Condensed" font-size="10px" fill="#000" opacity="1">Oct 13</text></g><g class="mark-rule role-axis-domain" pointer-events="none"><line transform="translate(0,0)" x2="400" y2="0" stroke="lightgray" stroke-width="1" opacity="1"></line></g><g class="mark-text role-axis-title" pointer-events="none"><text text-anchor="middle" transform="translate(200,25)" font-family="Roboto Condensed" font-size="11px" font-weight="normal" fill="#000" opacity="1">Date</text></g></g><path class="foreground" aria-hidden="true" d="" pointer-events="none" display="none"></path></g></g><g class="mark-group role-axis" role="graphics-symbol" aria-roledescription="axis" aria-label="Y-axis titled 'Count' for a linear scale with values from -100 to 900"><g transform="translate(0.5,0.5)"><path class="background" aria-hidden="true" d="M0,0h0v0h0Z" pointer-events="none"></path><g><g class="mark-text role-axis-label" pointer-events="none"><text text-anchor="end" transform="translate(-2,403)" font-family="Roboto Condensed" font-size="10px" fill="#000" opacity="1">-100</text><text text-anchor="end" transform="translate(-2,363)" font-family="Roboto Condensed" font-size="10px" fill="#000" opacity="1">0</text><text text-anchor="end" transform="translate(-2,323)" font-family="Roboto Condensed" font-size="10px" fill="#000" opacity="1">100</text><text text-anchor="end" transform="translate(-2,283)" font-family="Roboto Condensed" font-size="10px" fill="#000" opacity="1">200</text><text text-anchor="end" transform="translate(-2,243)" font-family="Roboto Condensed" font-size="10px" fill="#000" opacity="1">300</text><text text-anchor="end" transform="translate(-2,203)" font-family="Roboto Condensed" font-size="10px" fill="#000" opacity="1">400</text><text text-anchor="end" transform="translate(-2,163)" font-family="Roboto Condensed" font-size="10px" fill="#000" opacity="1">500</text><text text-anchor="end" transform="translate(-2,123.00000000000001)" font-family="Roboto Condensed" font-size="10px" fill="#000" opacity="1">600</text><text text-anchor="end" transform="translate(-2,82.99999999999999)" font-family="Roboto Condensed" font-size="10px" fill="#000" opacity="1">700</text><text text-anchor="end" transform="translate(-2,42.99999999999999)" font-family="Roboto Condensed" font-size="10px" fill="#000" opacity="1">800</text><text text-anchor="end" transform="translate(-2,3)" font-family="Roboto Condensed" font-size="10px" fill="#000" opacity="1">900</text></g><g class="mark-rule role-axis-domain" pointer-events="none"><line transform="translate(0,400)" x2="0" y2="-400" stroke="lightgray" stroke-width="1" opacity="1"></line></g><g class="mark-text role-axis-title" pointer-events="none"><text text-anchor="start" transform="translate(-45,-13)" font-family="Roboto Condensed" font-size="11px" font-weight="normal" fill="#000" opacity="1">Count</text></g></g><path class="foreground" aria-hidden="true" d="" pointer-events="none" display="none"></path></g></g><g class="mark-group role-scope concat_0_layer_0_pathgroup" role="graphics-object" aria-roledescription="group mark container"><g transform="translate(0,0)"><path class="background" aria-hidden="true" d="M0,0h400v400h-400Z"></path><g><g class="mark-line role-mark concat_0_layer_0_marks" clip-path="url(#clip1)" role="graphics-object" aria-roledescription="line mark container"><path aria-label="Type: Recovered; Date: Mar 01; Count: 0" role="graphics-symbol" aria-roledescription="line mark" d="M-5671.111111111111,360L-5644.444444444444,360L-5617.777777777777,360L-5591.111111111111,360L-5564.444444444444,360L-5537.777777777778,359.6L-5511.111111111111,360L-5484.444444444444,360L-5458.888888888889,360L-5432.222222222223,360L-5405.555555555556,360L-5378.888888888889,360L-5352.222222222223,360L-5325.555555555556,360L-5298.888888888889,360L-5272.222222222222,360L-5245.555555555556,360L-5218.888888888889,360L-5192.222222222223,360L-5165.555555555556,360L-5138.888888888889,360L-5112.222222222222,360L-5085.555555555556,360L-5058.888888888889,360L-5032.222222222223,360L-5005.555555555556,360L-4978.888888888889,360L-4952.222222222223,360L-4925.555555555556,360L-4898.888888888889,360L-4872.222222222222,360L-4845.555555555556,2.8000000000000025L-4818.888888888889,282L-4792.222222222223,318.40000000000003L-4765.555555555556,324L-4738.888888888889,342.4L-4712.222222222222,339.59999999999997L-4685.555555555556,314.8L-4658.888888888889,308L-4632.222222222223,314L-4605.555555555556,345.2L-4578.888888888889,287.2L-4552.222222222223,292.8L-4525.555555555556,315.2L-4498.888888888889,248L-4472.222222222222,266.8L-4445.555555555556,250L-4418.888888888889,213.60000000000002L-4392.222222222223,176.79999999999998L-4365.555555555556,242.4L-4338.888888888889,291.59999999999997L-4312.222222222222,204.8L-4285.555555555556,205.20000000000002L-4258.888888888889,241.2L-4232.222222222223,303.2L-4205.555555555556,302.8L-4178.888888888889,305.6L-4152.222222222223,298.4L-4125.555555555556,295.2L-4098.888888888889,262L-4072.222222222222,288L-4045.5555555555557,286.8L-4018.888888888889,296L-3992.2222222222226,320.8L-3965.5555555555557,319.59999999999997L-3938.8888888888887,276.79999999999995L-3912.222222222222,281.20000000000005L-3885.5555555555557,272.79999999999995L-3858.8888888888887,273.59999999999997L-3832.222222222222,293.6L-3805.5555555555557,310.40000000000003L-3778.888888888889,315.6L-3752.2222222222226,259.2L-3725.555555555555,326.79999999999995L-3698.8888888888887,303.2L-3672.222222222222,298.4L-3645.5555555555557,300.8L-3618.888888888889,312L-3592.2222222222226,330.40000000000003L-3565.5555555555557,314L-3538.8888888888887,312L-3512.222222222222,317.2L-3485.5555555555557,311.6L-3458.8888888888887,331.20000000000005L-3432.222222222222,334.4L-3405.5555555555557,334.4L-3378.888888888889,328L-3352.2222222222226,335.2L-3325.555555555555,330.40000000000003L-3298.8888888888887,336L-3272.222222222222,325.2L-3245.5555555555557,346L-3218.888888888889,340L-3192.222222222222,329.2L-3165.5555555555557,334.8L-3138.888888888889,332.8L-3112.222222222222,346.8L-3085.5555555555557,332.8L-3058.8888888888887,346.4L-3032.222222222222,345.2L-3005.5555555555557,337.2L-2978.8888888888887,338L-2952.222222222222,339.59999999999997L-2925.5555555555557,344.8L-2898.8888888888887,343.2L-2872.222222222222,346.8L-2845.5555555555557,351.2L-2818.888888888889,346L-2792.222222222222,336L-2765.5555555555557,337.2L-2738.888888888889,344L-2712.222222222222,360L-2685.5555555555557,360L-2658.8888888888887,334L-2632.222222222222,341.59999999999997L-2605.5555555555557,348.4L-2578.8888888888887,344.8L-2552.222222222222,340.8L-2525.5555555555557,360L-2498.8888888888887,360L-2472.222222222222,318.40000000000003L-2445.5555555555557,345.2L-2418.888888888889,342.4L-2392.222222222222,329.6L-2365.5555555555557,340.8L-2338.888888888889,360L-2312.222222222222,360L-2285.5555555555557,312.8L-2258.8888888888887,340.8L-2232.222222222222,352.8L-2205.5555555555557,342.4L-2178.8888888888887,347.2L-2152.222222222222,360L-2125.5555555555557,360L-2098.8888888888887,338.8L-2072.222222222222,348L-2045.5555555555557,351.2L-2018.888888888889,354.8L-1992.2222222222222,354.4L-1965.5555555555554,360L-1938.888888888889,360L-1912.2222222222224,343.2L-1885.5555555555554,356L-1858.888888888889,354.8L-1832.2222222222222,350L-1805.5555555555557,343.6L-1778.8888888888887,360L-1752.2222222222222,360L-1725.5555555555557,329.2L-1698.8888888888887,346.4L-1672.2222222222222,346.4L-1645.5555555555557,343.6L-1618.888888888889,339.2L-1592.2222222222222,360L-1565.5555555555554,360L-1538.888888888889,318.40000000000003L-1512.2222222222222,346.8L-1485.5555555555557,344.8L-1458.888888888889,346.4L-1432.2222222222222,338.8L-1405.5555555555554,360L-1378.888888888889,360L-1352.2222222222222,326L-1325.5555555555557,334.8L-1298.888888888889,328.8L-1272.2222222222222,334L-1245.5555555555557,326L-1218.888888888889,336.4L-1192.2222222222222,334L-1165.5555555555554,329.2L-1138.888888888889,315.2L-1112.2222222222222,311.2L-1085.5555555555557,312.8L-1058.888888888889,290L-1032.2222222222222,360L-1005.5555555555555,265.59999999999997L-978.8888888888889,308L-952.2222222222222,298L-925.5555555555557,304.8L-898.8888888888889,296L-872.2222222222222,314.40000000000003L-845.5555555555555,315.2L-818.8888888888888,309.2L-792.2222222222223,324.4L-765.5555555555555,322L-738.8888888888889,314.8L-712.2222222222222,325.6L-685.5555555555555,325.2L-658.8888888888889,326L-632.2222222222222,324.4L-605.5555555555555,330.79999999999995L-578.8888888888889,330.40000000000003L-552.2222222222222,326.79999999999995L-525.5555555555555,328.4L-498.8888888888889,332L-472.22222222222223,316.8L-445.55555555555554,325.6L-418.8888888888889,318.40000000000003L-392.22222222222223,312L-365.55555555555554,360L-338.88888888888886,215.59999999999997L-312.22222222222223,283.2L-285.55555555555554,277.59999999999997L-258.8888888888889,280.79999999999995L-232.22222222222223,270.4L-205.55555555555554,241.2L-178.88888888888889,230.40000000000003L-152.22222222222223,245.2L-125.55555555555556,214.4L-98.88888888888889,224.00000000000003L-72.22222222222221,240L-45.55555555555556,243.2L-18.88888888888889,208.8L7.777777777777778,186.39999999999998L34.44444444444444,138L61.111111111111114,154L87.77777777777777,170.8L114.44444444444444,192.4L141.11111111111111,197.6L167.77777777777777,146.8L194.44444444444443,125.99999999999997L221.11111111111111,96.39999999999999L247.77777777777777,118.80000000000001L274.44444444444446,166L301.1111111111111,202.8L327.77777777777777,215.59999999999997L354.44444444444446,166.4L381.1111111111111,177.99999999999997L407.77777777777777,184.79999999999998" stroke="#e45756" stroke-width="2" opacity="0.2"></path></g></g><path class="foreground" aria-hidden="true" d="" display="none"></path></g><g transform="translate(0,0)"><path class="background" aria-hidden="true" d="M0,0h400v400h-400Z"></path><g><g class="mark-line role-mark concat_0_layer_0_marks" clip-path="url(#clip2)" role="graphics-object" aria-roledescription="line mark container"><path aria-label="Type: Deaths; Date: Mar 01; Count: 0" role="graphics-symbol" aria-roledescription="line mark" d="M-5671.111111111111,360L-5644.444444444444,360L-5617.777777777777,360L-5591.111111111111,360L-5564.444444444444,360L-5537.777777777778,360L-5511.111111111111,360L-5484.444444444444,360L-5458.888888888889,360L-5432.222222222223,360L-5405.555555555556,360L-5378.888888888889,360L-5352.222222222223,360L-5325.555555555556,359.6L-5298.888888888889,359.6L-5272.222222222222,359.6L-5245.555555555556,359.6L-5218.888888888889,360L-5192.222222222223,359.2L-5165.555555555556,358.8L-5138.888888888889,358.40000000000003L-5112.222222222222,360L-5085.555555555556,355.6L-5058.888888888889,356.8L-5032.222222222223,359.2L-5005.555555555556,357.2L-4978.888888888889,355.6L-4952.222222222223,354.8L-4925.555555555556,357.2L-4898.888888888889,358L-4872.222222222222,354.8L-4845.555555555556,354.4L-4818.888888888889,352.4L-4792.222222222223,353.6L-4765.555555555556,351.2L-4738.888888888889,352.8L-4712.222222222222,356.8L-4685.555555555556,353.6L-4658.888888888889,354L-4632.222222222223,352.4L-4605.555555555556,356L-4578.888888888889,354.8L-4552.222222222223,354.8L-4525.555555555556,355.2L-4498.888888888889,354.4L-4472.222222222222,356L-4445.555555555556,355.2L-4418.888888888889,354L-4392.222222222223,356L-4365.555555555556,356.4L-4338.888888888889,356.4L-4312.222222222222,357.6L-4285.555555555556,354.4L-4258.888888888889,356L-4232.222222222223,356.4L-4205.555555555556,354L-4178.888888888889,358.40000000000003L-4152.222222222223,358L-4125.555555555556,357.2L-4098.888888888889,356.4L-4072.222222222222,356.4L-4045.5555555555557,356.8L-4018.888888888889,354L-3992.2222222222226,356.4L-3965.5555555555557,356.4L-3938.8888888888887,356L-3912.222222222222,358.8L-3885.5555555555557,356.8L-3858.8888888888887,356.8L-3832.222222222222,358.40000000000003L-3805.5555555555557,358.8L-3778.888888888889,358.40000000000003L-3752.2222222222226,362.40000000000003L-3725.555555555555,357.6L-3698.8888888888887,358.40000000000003L-3672.222222222222,360L-3645.5555555555557,357.6L-3618.888888888889,358.40000000000003L-3592.2222222222226,359.6L-3565.5555555555557,358.8L-3538.8888888888887,358.8L-3512.222222222222,357.2L-3485.5555555555557,360L-3458.8888888888887,360L-3432.222222222222,359.6L-3405.5555555555557,359.6L-3378.888888888889,360L-3352.2222222222226,359.2L-3325.555555555555,358.8L-3298.8888888888887,360L-3272.222222222222,358.8L-3245.5555555555557,358.8L-3218.888888888889,359.2L-3192.222222222222,358.40000000000003L-3165.5555555555557,360L-3138.888888888889,359.2L-3112.222222222222,358.40000000000003L-3085.5555555555557,359.6L-3058.8888888888887,359.2L-3032.222222222222,358.40000000000003L-3005.5555555555557,360L-2978.8888888888887,360L-2952.222222222222,360L-2925.5555555555557,359.6L-2898.8888888888887,358.8L-2872.222222222222,360L-2845.5555555555557,359.6L-2818.888888888889,360L-2792.222222222222,360L-2765.5555555555557,359.2L-2738.888888888889,360L-2712.222222222222,360L-2685.5555555555557,360L-2658.8888888888887,359.2L-2632.222222222222,359.6L-2605.5555555555557,360L-2578.8888888888887,360L-2552.222222222222,359.6L-2525.5555555555557,360L-2498.8888888888887,360L-2472.222222222222,359.6L-2445.5555555555557,360L-2418.888888888889,359.6L-2392.222222222222,360L-2365.5555555555557,360L-2338.888888888889,360L-2312.222222222222,360L-2285.5555555555557,359.6L-2258.8888888888887,359.2L-2232.222222222222,360L-2205.5555555555557,360L-2178.8888888888887,360L-2152.222222222222,360L-2125.5555555555557,360L-2098.8888888888887,359.6L-2072.222222222222,360L-2045.5555555555557,360L-2018.888888888889,360L-1992.2222222222222,359.6L-1965.5555555555554,360L-1938.888888888889,360L-1912.2222222222224,360L-1885.5555555555554,360L-1858.888888888889,360L-1832.2222222222222,359.6L-1805.5555555555557,359.6L-1778.8888888888887,360L-1752.2222222222222,360L-1725.5555555555557,360L-1698.8888888888887,360L-1672.2222222222222,359.6L-1645.5555555555557,359.6L-1618.888888888889,360L-1592.2222222222222,360L-1565.5555555555554,360L-1538.888888888889,359.6L-1512.2222222222222,360L-1485.5555555555557,360L-1458.888888888889,359.6L-1432.2222222222222,360L-1405.5555555555554,360L-1378.888888888889,360L-1352.2222222222222,358.8L-1325.5555555555557,359.6L-1298.888888888889,360L-1272.2222222222222,360L-1245.5555555555557,360L-1218.888888888889,360L-1192.2222222222222,360L-1165.5555555555554,360L-1138.888888888889,360L-1112.2222222222222,360L-1085.5555555555557,360L-1058.888888888889,360L-1032.2222222222222,359.6L-1005.5555555555555,360L-978.8888888888889,359.6L-952.2222222222222,360L-925.5555555555557,360L-898.8888888888889,359.6L-872.2222222222222,360L-845.5555555555555,360L-818.8888888888888,360L-792.2222222222223,360L-765.5555555555555,359.6L-738.8888888888889,359.6L-712.2222222222222,360L-685.5555555555555,359.6L-658.8888888888889,360L-632.2222222222222,360L-605.5555555555555,359.6L-578.8888888888889,360L-552.2222222222222,360L-525.5555555555555,359.6L-498.8888888888889,360L-472.22222222222223,359.6L-445.55555555555554,359.6L-418.8888888888889,359.2L-392.22222222222223,360L-365.55555555555554,360L-338.88888888888886,359.2L-312.22222222222223,360L-285.55555555555554,360L-258.8888888888889,358.8L-232.22222222222223,359.2L-205.55555555555554,359.6L-178.88888888888889,359.2L-152.22222222222223,359.2L-125.55555555555556,359.2L-98.88888888888889,359.6L-72.22222222222221,359.6L-45.55555555555556,360L-18.88888888888889,359.6L7.777777777777778,360L34.44444444444444,359.6L61.111111111111114,359.6L87.77777777777777,359.2L114.44444444444444,358.40000000000003L141.11111111111111,359.6L167.77777777777777,358.40000000000003L194.44444444444443,360L221.11111111111111,359.2L247.77777777777777,360L274.44444444444446,359.2L301.1111111111111,359.2L327.77777777777777,359.2L354.44444444444446,358.8L381.1111111111111,359.6L407.77777777777777,359.2" stroke="#f58518" stroke-width="2" opacity="0.2"></path></g></g><path class="foreground" aria-hidden="true" d="" display="none"></path></g><g transform="translate(0,0)"><path class="background" aria-hidden="true" d="M0,0h400v400h-400Z"></path><g><g class="mark-line role-mark concat_0_layer_0_marks" clip-path="url(#clip3)" role="graphics-object" aria-roledescription="line mark container"><path aria-label="Type: Confirmed; Date: Mar 01; Count: 1" role="graphics-symbol" aria-roledescription="line mark" d="M-5671.111111111111,359.6L-5644.444444444444,360L-5617.777777777777,359.2L-5591.111111111111,358.40000000000003L-5564.444444444444,360L-5537.777777777778,354.8L-5511.111111111111,360L-5484.444444444444,355.2L-5458.888888888889,338L-5432.222222222223,291.2L-5405.555555555556,288L-5378.888888888889,290.8L-5352.222222222223,285.59999999999997L-5325.555555555556,349.6L-5298.888888888889,345.2L-5272.222222222222,340L-5245.555555555556,334.8L-5218.888888888889,328L-5192.222222222223,322.40000000000003L-5165.555555555556,318.40000000000003L-5138.888888888889,331.59999999999997L-5112.222222222222,332.4L-5085.555555555556,338L-5058.888888888889,303.6L-5032.222222222223,306.8L-5005.555555555556,298.8L-4978.888888888889,292.4L-4952.222222222223,298L-4925.555555555556,282.4L-4898.888888888889,287.2L-4872.222222222222,246.8L-4845.555555555556,261.2L-4818.888888888889,248.4L-4792.222222222223,211.60000000000002L-4765.555555555556,232.00000000000003L-4738.888888888889,243.2L-4712.222222222222,235.20000000000005L-4685.555555555556,204L-4658.888888888889,227.59999999999997L-4632.222222222223,266.8L-4605.555555555556,286.4L-4578.888888888889,289.2L-4552.222222222223,288.8L-4525.555555555556,302.4L-4498.888888888889,282.8L-4472.222222222222,292L-4445.555555555556,280.79999999999995L-4418.888888888889,282.4L-4392.222222222223,292.4L-4365.555555555556,303.2L-4338.888888888889,307.6L-4312.222222222222,288L-4285.555555555556,273.20000000000005L-4258.888888888889,295.6L-4232.222222222223,305.2L-4205.555555555556,266L-4178.888888888889,308L-4152.222222222223,310.8L-4125.555555555556,298.8L-4098.888888888889,297.2L-4072.222222222222,300L-4045.5555555555557,298.8L-4018.888888888889,321.6L-3992.2222222222226,313.6L-3965.5555555555557,301.2L-3938.8888888888887,299.6L-3912.222222222222,313.2L-3885.5555555555557,302L-3858.8888888888887,306L-3832.222222222222,319.59999999999997L-3805.5555555555557,316L-3778.888888888889,326.40000000000003L-3752.2222222222226,328.8L-3725.555555555555,329.6L-3698.8888888888887,341.59999999999997L-3672.222222222222,328.8L-3645.5555555555557,333.2L-3618.888888888889,332.4L-3592.2222222222226,343.6L-3565.5555555555557,329.6L-3538.8888888888887,330.79999999999995L-3512.222222222222,334L-3485.5555555555557,340.8L-3458.8888888888887,336.4L-3432.222222222222,331.59999999999997L-3405.5555555555557,349.2L-3378.888888888889,343.6L-3352.2222222222226,339.2L-3325.555555555555,347.2L-3298.8888888888887,327.59999999999997L-3272.222222222222,344L-3245.5555555555557,345.6L-3218.888888888889,348L-3192.222222222222,346L-3165.5555555555557,345.2L-3138.888888888889,344L-3112.222222222222,334.4L-3085.5555555555557,340.4L-3058.8888888888887,350.4L-3032.222222222222,354.4L-3005.5555555555557,344.4L-2978.8888888888887,354L-2952.222222222222,352.4L-2925.5555555555557,334.4L-2898.8888888888887,344L-2872.222222222222,338.4L-2845.5555555555557,350.4L-2818.888888888889,346.8L-2792.222222222222,342.4L-2765.5555555555557,340L-2738.888888888889,341.2L-2712.222222222222,360L-2685.5555555555557,360L-2658.8888888888887,305.6L-2632.222222222222,346.4L-2605.5555555555557,338.4L-2578.8888888888887,351.6L-2552.222222222222,344.4L-2525.5555555555557,360L-2498.8888888888887,360L-2472.222222222222,329.6L-2445.5555555555557,353.2L-2418.888888888889,349.6L-2392.222222222222,351.6L-2365.5555555555557,353.2L-2338.888888888889,360L-2312.222222222222,360L-2285.5555555555557,341.59999999999997L-2258.8888888888887,356L-2232.222222222222,355.2L-2205.5555555555557,353.6L-2178.8888888888887,348L-2152.222222222222,360L-2125.5555555555557,360L-2098.8888888888887,323.59999999999997L-2072.222222222222,350.4L-2045.5555555555557,347.6L-2018.888888888889,347.2L-1992.2222222222222,340.4L-1965.5555555555554,360L-1938.888888888889,360L-1912.2222222222224,324.4L-1885.5555555555554,344L-1858.888888888889,340.8L-1832.2222222222222,344L-1805.5555555555557,340.8L-1778.8888888888887,360L-1752.2222222222222,360L-1725.5555555555557,316.40000000000003L-1698.8888888888887,348L-1672.2222222222222,337.2L-1645.5555555555557,323.59999999999997L-1618.888888888889,334.4L-1592.2222222222222,360L-1565.5555555555554,360L-1538.888888888889,277.20000000000005L-1512.2222222222222,329.2L-1485.5555555555557,315.2L-1458.888888888889,311.6L-1432.2222222222222,305.6L-1405.5555555555554,360L-1378.888888888889,360L-1352.2222222222222,210.8L-1325.5555555555557,302.4L-1298.888888888889,315.6L-1272.2222222222222,302.4L-1245.5555555555557,294L-1218.888888888889,318.40000000000003L-1192.2222222222222,306.4L-1165.5555555555554,310.8L-1138.888888888889,314L-1112.2222222222222,326L-1085.5555555555557,313.6L-1058.888888888889,331.59999999999997L-1032.2222222222222,315.2L-1005.5555555555555,328.8L-978.8888888888889,328L-952.2222222222222,326.79999999999995L-925.5555555555557,337.2L-898.8888888888889,324L-872.2222222222222,330.79999999999995L-845.5555555555555,328.4L-818.8888888888888,315.2L-792.2222222222223,322.40000000000003L-765.5555555555555,320.4L-738.8888888888889,315.6L-712.2222222222222,288.4L-685.5555555555555,290.8L-658.8888888888889,284.40000000000003L-632.2222222222222,301.2L-605.5555555555555,268L-578.8888888888889,262.8L-552.2222222222222,259.6L-525.5555555555555,233.2L-498.8888888888889,243.2L-472.22222222222223,223.59999999999997L-445.55555555555554,226.79999999999998L-418.8888888888889,221.2L-392.22222222222223,226.40000000000003L-365.55555555555554,360L-338.88888888888886,31.19999999999998L-312.22222222222223,178.39999999999998L-285.55555555555554,124.40000000000002L-258.8888888888889,172.40000000000003L-232.22222222222223,192.79999999999998L-205.55555555555554,169.60000000000002L-178.88888888888889,136.79999999999998L-152.22222222222223,136.39999999999998L-125.55555555555556,88.79999999999998L-98.88888888888889,112.4L-72.22222222222221,190.39999999999998L-45.55555555555556,186L-18.88888888888889,203.2L7.777777777777778,146.4L34.44444444444444,200.8L61.111111111111114,145.6L87.77777777777777,212L114.44444444444444,208.8L141.11111111111111,209.20000000000002L167.77777777777777,231.20000000000002L194.44444444444443,227.59999999999997L221.11111111111111,181.6L247.77777777777777,167.20000000000002L274.44444444444446,182.39999999999998L301.1111111111111,224.00000000000003L327.77777777777777,204.4L354.44444444444446,244L381.1111111111111,163.20000000000002L407.77777777777777,188" stroke="#4c78a8" stroke-width="2" opacity="0.2"></path></g></g><path class="foreground" aria-hidden="true" d="" display="none"></path></g></g><g class="mark-group role-scope concat_0_layer_1_pathgroup" role="graphics-object" aria-roledescription="group mark container"><g transform="translate(0,0)"><path class="background" aria-hidden="true" d="M0,0h400v400h-400Z"></path><g><g class="mark-line role-mark concat_0_layer_1_marks" clip-path="url(#clip4)" role="graphics-object" aria-roledescription="line mark container"><path aria-label="Type: Recovered; Date: Mar 01; Count: 0" role="graphics-symbol" aria-roledescription="line mark" d="M-5511.111111111111,359.9428571428572L-5484.444444444444,359.9428571428572L-5458.888888888889,359.9428571428572L-5432.222222222223,359.9428571428572L-5405.555555555556,359.9428571428572L-5378.888888888889,359.9428571428572L-5352.222222222223,360L-5325.555555555556,360L-5298.888888888889,360L-5272.222222222222,360L-5245.555555555556,360L-5218.888888888889,360L-5192.222222222223,360L-5165.555555555556,360L-5138.888888888889,360L-5112.222222222222,360L-5085.555555555556,360L-5058.888888888889,360L-5032.222222222223,360L-5005.555555555556,360L-4978.888888888889,360L-4952.222222222223,360L-4925.555555555556,360L-4898.888888888889,360L-4872.222222222222,360L-4845.555555555556,308.9714285714286L-4818.888888888889,297.8285714285715L-4792.222222222223,291.8857142857143L-4765.555555555556,286.74285714285713L-4738.888888888889,284.22857142857146L-4712.222222222222,281.3142857142857L-4685.555555555556,274.85714285714283L-4658.888888888889,318.45714285714286L-4632.222222222223,323.02857142857147L-4605.555555555556,326.8571428571429L-4578.888888888889,321.6L-4552.222222222223,314.5142857142857L-4525.555555555556,311.0285714285714L-4498.888888888889,301.4857142857143L-4472.222222222222,295.6L-4445.555555555556,286.45714285714286L-4418.888888888889,267.65714285714284L-4392.222222222223,251.88571428571427L-4365.555555555556,244.68571428571425L-4338.888888888889,241.3142857142857L-4312.222222222222,235.14285714285714L-4285.555555555556,226.34285714285713L-4258.888888888889,225.0857142857143L-4232.222222222223,237.8857142857143L-4205.555555555556,255.88571428571427L-4178.888888888889,264.9142857142857L-4152.222222222223,265.8857142857143L-4125.555555555556,278.8L-4098.888888888889,286.9142857142857L-4072.222222222222,293.6L-4045.5555555555557,291.2571428571428L-4018.888888888889,290.2857142857143L-3992.2222222222226,292.45714285714286L-3965.5555555555557,295.48571428571427L-3938.8888888888887,292.85714285714283L-3912.222222222222,295.6L-3885.5555555555557,293.42857142857144L-3858.8888888888887,291.54285714285714L-3832.222222222222,291.2L-3805.5555555555557,289.71428571428567L-3778.888888888889,289.14285714285717L-3752.2222222222226,286.62857142857143L-3725.555555555555,293.14285714285717L-3698.8888888888887,297.4857142857143L-3672.222222222222,301.0285714285714L-3645.5555555555557,302.0571428571428L-3618.888888888889,302.28571428571433L-3592.2222222222226,304.4L-3565.5555555555557,312.22857142857146L-3538.8888888888887,310.1142857142857L-3512.222222222222,312.1142857142857L-3485.5555555555557,314L-3458.8888888888887,318.34285714285716L-3432.222222222222,321.54285714285714L-3405.5555555555557,322.1142857142857L-3378.888888888889,324.1142857142857L-3352.2222222222226,327.4285714285714L-3325.555555555555,329.3142857142857L-3298.8888888888887,332.8L-3272.222222222222,331.9428571428571L-3245.5555555555557,333.59999999999997L-3218.888888888889,334.4L-3192.222222222222,334.57142857142856L-3165.5555555555557,334.51428571428573L-3138.888888888889,334.8571428571429L-3112.222222222222,336.4L-3085.5555555555557,337.4857142857143L-3058.8888888888887,337.54285714285714L-3032.222222222222,338.2857142857143L-3005.5555555555557,339.4285714285714L-2978.8888888888887,339.8857142857143L-2952.222222222222,340.85714285714283L-2925.5555555555557,340.57142857142856L-2898.8888888888887,342.0571428571429L-2872.222222222222,342.1142857142857L-2845.5555555555557,342.9714285714286L-2818.888888888889,344.2285714285714L-2792.222222222222,343.9428571428572L-2765.5555555555557,343.6L-2738.888888888889,343.4857142857143L-2712.222222222222,345.8857142857143L-2685.5555555555557,347.7714285714286L-2658.8888888888887,345.3142857142857L-2632.222222222222,344.68571428571425L-2605.5555555555557,346.45714285714286L-2578.8888888888887,347.54285714285714L-2552.222222222222,347.0857142857143L-2525.5555555555557,347.0857142857143L-2498.8888888888887,347.0857142857143L-2472.222222222222,344.85714285714283L-2445.5555555555557,345.37142857142857L-2418.888888888889,344.5142857142857L-2392.222222222222,342.34285714285716L-2365.5555555555557,342.34285714285716L-2338.888888888889,342.34285714285716L-2312.222222222222,342.34285714285716L-2285.5555555555557,341.54285714285714L-2258.8888888888887,340.9142857142857L-2232.222222222222,342.4L-2205.5555555555557,344.2285714285714L-2178.8888888888887,345.14285714285717L-2152.222222222222,345.14285714285717L-2125.5555555555557,345.14285714285717L-2098.8888888888887,348.85714285714283L-2072.222222222222,349.8857142857143L-2045.5555555555557,349.65714285714284L-2018.888888888889,351.42857142857144L-1992.2222222222222,352.45714285714286L-1965.5555555555554,352.45714285714286L-1938.888888888889,352.45714285714286L-1912.2222222222224,353.0857142857143L-1885.5555555555554,354.2285714285714L-1858.888888888889,354.74285714285713L-1832.2222222222222,354.0571428571428L-1805.5555555555557,352.5142857142857L-1778.8888888888887,352.5142857142857L-1752.2222222222222,352.5142857142857L-1725.5555555555557,350.51428571428573L-1698.8888888888887,349.14285714285717L-1672.2222222222222,347.9428571428572L-1645.5555555555557,347.0285714285714L-1618.888888888889,346.4L-1592.2222222222222,346.4L-1565.5555555555554,346.4L-1538.888888888889,344.85714285714283L-1512.2222222222222,344.9142857142857L-1485.5555555555557,344.68571428571425L-1458.888888888889,345.0857142857143L-1432.2222222222222,345.0285714285714L-1405.5555555555554,345.0285714285714L-1378.888888888889,345.0285714285714L-1352.2222222222222,346.1142857142857L-1325.5555555555557,344.4L-1298.888888888889,342.1142857142857L-1272.2222222222222,340.34285714285716L-1245.5555555555557,338.51428571428573L-1218.888888888889,335.14285714285717L-1192.2222222222222,331.4285714285714L-1165.5555555555554,331.8857142857143L-1138.888888888889,329.0857142857143L-1112.2222222222222,326.5714285714286L-1085.5555555555557,323.54285714285714L-1058.888888888889,318.40000000000003L-1032.2222222222222,321.7714285714286L-1005.5555555555555,312L-978.8888888888889,308.9714285714286L-952.2222222222222,306.5142857142857L-925.5555555555557,305.6L-898.8888888888889,303.2L-872.2222222222222,306.68571428571425L-845.5555555555555,300.2857142857143L-818.8888888888888,306.5142857142857L-792.2222222222223,308.85714285714283L-765.5555555555555,312.2857142857143L-738.8888888888889,313.7142857142857L-712.2222222222222,317.9428571428572L-685.5555555555555,319.48571428571427L-658.8888888888889,321.0285714285714L-632.2222222222222,323.20000000000005L-605.5555555555555,324.1142857142857L-578.8888888888889,325.3142857142857L-552.2222222222222,327.02857142857147L-525.5555555555555,327.4285714285714L-498.8888888888889,328.4L-472.22222222222223,327.0857142857143L-445.55555555555554,327.25714285714287L-418.8888888888889,325.48571428571427L-392.22222222222223,322.8571428571429L-365.55555555555554,327.59999999999997L-338.88888888888886,311.48571428571427L-312.22222222222223,304.51428571428573L-285.55555555555554,298.9142857142857L-258.8888888888889,292.51428571428573L-232.22222222222223,285.6571428571429L-205.55555555555554,275.54285714285714L-178.88888888888889,257.0285714285714L-152.22222222222223,261.25714285714287L-125.55555555555556,251.42857142857142L-98.88888888888889,243.77142857142857L-72.22222222222221,237.9428571428571L-45.55555555555556,234.05714285714288L-18.88888888888889,229.42857142857144L7.777777777777778,223.14285714285714L34.44444444444444,207.82857142857142L61.111111111111114,199.2L87.77777777777777,191.6L114.44444444444444,184.79999999999998L141.11111111111111,178.28571428571428L167.77777777777777,169.42857142857144L194.44444444444443,160.8L221.11111111111111,154.85714285714286L247.77777777777777,149.82857142857142L274.44444444444446,149.14285714285717L301.1111111111111,150.62857142857143L327.77777777777777,153.2L354.44444444444446,156L381.1111111111111,163.42857142857144L407.77777777777777,176.05714285714282" stroke="#e45756" stroke-width="2" opacity="1"></path></g></g><path class="foreground" aria-hidden="true" d="" display="none"></path></g><g transform="translate(0,0)"><path class="background" aria-hidden="true" d="M0,0h400v400h-400Z"></path><g><g class="mark-line role-mark concat_0_layer_1_marks" clip-path="url(#clip5)" role="graphics-object" aria-roledescription="line mark container"><path aria-label="Type: Deaths; Date: Mar 01; Count: 0" role="graphics-symbol" aria-roledescription="line mark" d="M-5511.111111111111,360L-5484.444444444444,360L-5458.888888888889,360L-5432.222222222223,360L-5405.555555555556,360L-5378.888888888889,360L-5352.222222222223,360L-5325.555555555556,359.9428571428572L-5298.888888888889,359.8857142857143L-5272.222222222222,359.8285714285714L-5245.555555555556,359.7714285714286L-5218.888888888889,359.7714285714286L-5192.222222222223,359.65714285714284L-5165.555555555556,359.48571428571427L-5138.888888888889,359.31428571428575L-5112.222222222222,359.37142857142857L-5085.555555555556,358.8L-5058.888888888889,358.40000000000003L-5032.222222222223,358.2857142857143L-5005.555555555556,358L-4978.888888888889,357.54285714285714L-4952.222222222223,357.0285714285714L-4925.555555555556,356.62857142857143L-4898.888888888889,356.9714285714286L-4872.222222222222,356.68571428571425L-4845.555555555556,356L-4818.888888888889,355.31428571428575L-4792.222222222223,355.0285714285714L-4765.555555555556,354.51428571428573L-4738.888888888889,353.88571428571424L-4712.222222222222,353.7142857142857L-4685.555555555556,353.54285714285714L-4658.888888888889,353.48571428571427L-4632.222222222223,353.48571428571427L-4605.555555555556,353.8285714285714L-4578.888888888889,354.34285714285716L-4552.222222222223,354.62857142857143L-4525.555555555556,354.4L-4498.888888888889,354.51428571428573L-4472.222222222222,354.8L-4445.555555555556,355.2L-4418.888888888889,354.9142857142857L-4392.222222222223,355.0857142857143L-4365.555555555556,355.31428571428575L-4338.888888888889,355.48571428571427L-4312.222222222222,355.9428571428572L-4285.555555555556,355.71428571428567L-4258.888888888889,355.8285714285714L-4232.222222222223,356.1714285714286L-4205.555555555556,355.88571428571424L-4178.888888888889,356.1714285714286L-4152.222222222223,356.4L-4125.555555555556,356.34285714285716L-4098.888888888889,356.62857142857143L-4072.222222222222,356.68571428571425L-4045.5555555555557,356.74285714285713L-4018.888888888889,356.74285714285713L-3992.2222222222226,356.45714285714286L-3965.5555555555557,356.2285714285714L-3938.8888888888887,356.0571428571428L-3912.222222222222,356.4L-3885.5555555555557,356.45714285714286L-3858.8888888888887,356.45714285714286L-3832.222222222222,357.0857142857143L-3805.5555555555557,357.42857142857144L-3778.888888888889,357.7142857142857L-3752.2222222222226,358.62857142857143L-3725.555555555555,358.45714285714286L-3698.8888888888887,358.68571428571425L-3672.222222222222,359.14285714285717L-3645.5555555555557,359.0285714285714L-3618.888888888889,358.9714285714286L-3592.2222222222226,359.14285714285717L-3565.5555555555557,358.62857142857143L-3538.8888888888887,358.8L-3512.222222222222,358.62857142857143L-3485.5555555555557,358.62857142857143L-3458.8888888888887,358.9714285714286L-3432.222222222222,359.14285714285717L-3405.5555555555557,359.14285714285717L-3378.888888888889,359.31428571428575L-3352.2222222222226,359.37142857142857L-3325.555555555555,359.6L-3298.8888888888887,359.6L-3272.222222222222,359.42857142857144L-3245.5555555555557,359.31428571428575L-3218.888888888889,359.25714285714287L-3192.222222222222,359.0285714285714L-3165.5555555555557,359.14285714285717L-3138.888888888889,359.2L-3112.222222222222,358.9714285714286L-3085.5555555555557,359.0857142857143L-3058.8888888888887,359.14285714285717L-3032.222222222222,359.0285714285714L-3005.5555555555557,359.25714285714287L-2978.8888888888887,359.25714285714287L-2952.222222222222,359.37142857142857L-2925.5555555555557,359.54285714285714L-2898.8888888888887,359.42857142857144L-2872.222222222222,359.54285714285714L-2845.5555555555557,359.7142857142857L-2818.888888888889,359.7142857142857L-2792.222222222222,359.7142857142857L-2765.5555555555557,359.6L-2738.888888888889,359.65714285714284L-2712.222222222222,359.8285714285714L-2685.5555555555557,359.8285714285714L-2658.8888888888887,359.7714285714286L-2632.222222222222,359.7142857142857L-2605.5555555555557,359.7142857142857L-2578.8888888888887,359.8285714285714L-2552.222222222222,359.7714285714286L-2525.5555555555557,359.7714285714286L-2498.8888888888887,359.7714285714286L-2472.222222222222,359.8285714285714L-2445.5555555555557,359.8857142857143L-2418.888888888889,359.8285714285714L-2392.222222222222,359.8285714285714L-2365.5555555555557,359.8857142857143L-2338.888888888889,359.8857142857143L-2312.222222222222,359.8857142857143L-2285.5555555555557,359.8857142857143L-2258.8888888888887,359.7714285714286L-2232.222222222222,359.8285714285714L-2205.5555555555557,359.8285714285714L-2178.8888888888887,359.8285714285714L-2152.222222222222,359.8285714285714L-2125.5555555555557,359.8285714285714L-2098.8888888888887,359.8285714285714L-2072.222222222222,359.9428571428572L-2045.5555555555557,359.9428571428572L-2018.888888888889,359.9428571428572L-1992.2222222222222,359.8857142857143L-1965.5555555555554,359.8857142857143L-1938.888888888889,359.8857142857143L-1912.2222222222224,359.9428571428572L-1885.5555555555554,359.9428571428572L-1858.888888888889,359.9428571428572L-1832.2222222222222,359.8857142857143L-1805.5555555555557,359.8857142857143L-1778.8888888888887,359.8857142857143L-1752.2222222222222,359.8857142857143L-1725.5555555555557,359.8857142857143L-1698.8888888888887,359.8857142857143L-1672.2222222222222,359.8285714285714L-1645.5555555555557,359.8285714285714L-1618.888888888889,359.8857142857143L-1592.2222222222222,359.8857142857143L-1565.5555555555554,359.8857142857143L-1538.888888888889,359.8285714285714L-1512.2222222222222,359.8285714285714L-1485.5555555555557,359.8857142857143L-1458.888888888889,359.8857142857143L-1432.2222222222222,359.8857142857143L-1405.5555555555554,359.8857142857143L-1378.888888888889,359.8857142857143L-1352.2222222222222,359.7714285714286L-1325.5555555555557,359.7142857142857L-1298.888888888889,359.7142857142857L-1272.2222222222222,359.7714285714286L-1245.5555555555557,359.7714285714286L-1218.888888888889,359.7714285714286L-1192.2222222222222,359.7714285714286L-1165.5555555555554,359.9428571428572L-1138.888888888889,360L-1112.2222222222222,360L-1085.5555555555557,360L-1058.888888888889,360L-1032.2222222222222,359.9428571428572L-1005.5555555555555,359.9428571428572L-978.8888888888889,359.8857142857143L-952.2222222222222,359.8857142857143L-925.5555555555557,359.8857142857143L-898.8888888888889,359.8285714285714L-872.2222222222222,359.8285714285714L-845.5555555555555,359.8857142857143L-818.8888888888888,359.8857142857143L-792.2222222222223,359.9428571428572L-765.5555555555555,359.8857142857143L-738.8888888888889,359.8285714285714L-712.2222222222222,359.8857142857143L-685.5555555555555,359.8285714285714L-658.8888888888889,359.8285714285714L-632.2222222222222,359.8285714285714L-605.5555555555555,359.7714285714286L-578.8888888888889,359.8285714285714L-552.2222222222222,359.8857142857143L-525.5555555555555,359.8285714285714L-498.8888888888889,359.8857142857143L-472.22222222222223,359.8285714285714L-445.55555555555554,359.7714285714286L-418.8888888888889,359.7142857142857L-392.22222222222223,359.7142857142857L-365.55555555555554,359.7142857142857L-338.88888888888886,359.65714285714284L-312.22222222222223,359.65714285714284L-285.55555555555554,359.7142857142857L-258.8888888888889,359.6L-232.22222222222223,359.6L-205.55555555555554,359.54285714285714L-178.88888888888889,359.42857142857144L-152.22222222222223,359.42857142857144L-125.55555555555556,359.31428571428575L-98.88888888888889,359.25714285714287L-72.22222222222221,359.37142857142857L-45.55555555555556,359.48571428571427L-18.88888888888889,359.48571428571427L7.777777777777778,359.6L34.44444444444444,359.65714285714284L61.111111111111114,359.7142857142857L87.77777777777777,359.65714285714284L114.44444444444444,359.48571428571427L141.11111111111111,359.42857142857144L167.77777777777777,359.25714285714287L194.44444444444443,359.25714285714287L221.11111111111111,359.2L247.77777777777777,359.25714285714287L274.44444444444446,359.25714285714287L301.1111111111111,359.37142857142857L327.77777777777777,359.31428571428575L354.44444444444446,359.37142857142857L381.1111111111111,359.31428571428575L407.77777777777777,359.31428571428575" stroke="#f58518" stroke-width="2" opacity="1"></path></g></g><path class="foreground" aria-hidden="true" d="" display="none"></path></g><g transform="translate(0,0)"><path class="background" aria-hidden="true" d="M0,0h400v400h-400Z"></path><g><g class="mark-line role-mark concat_0_layer_1_marks" clip-path="url(#clip6)" role="graphics-object" aria-roledescription="line mark container"><path aria-label="Type: Confirmed; Date: Mar 01; Count: 0" role="graphics-symbol" aria-roledescription="line mark" d="M-5511.111111111111,358.85714285714283L-5484.444444444444,358.22857142857146L-5458.888888888889,355.0857142857143L-5432.222222222223,345.37142857142857L-5405.555555555556,335.31428571428575L-5378.888888888889,325.42857142857144L-5352.222222222223,315.54285714285714L-5325.555555555556,314.0571428571429L-5298.888888888889,312.62857142857143L-5272.222222222222,312.9142857142857L-5245.555555555556,319.1428571428571L-5218.888888888889,324.8571428571429L-5192.222222222223,329.37142857142857L-5165.555555555556,334.0571428571429L-5138.888888888889,331.48571428571427L-5112.222222222222,329.65714285714284L-5085.555555555556,329.37142857142857L-5058.888888888889,324.9142857142857L-5032.222222222223,321.8857142857143L-5005.555555555556,318.51428571428573L-4978.888888888889,314.8L-4952.222222222223,310L-4925.555555555556,302.85714285714283L-4898.888888888889,295.6L-4872.222222222222,287.4857142857143L-4845.555555555556,280.97142857142853L-4818.888888888889,273.77142857142854L-4792.222222222223,262.22857142857146L-4765.555555555556,252.8L-4738.888888888889,247.2L-4712.222222222222,239.77142857142857L-4685.555555555556,233.65714285714287L-4658.888888888889,228.85714285714286L-4632.222222222223,231.4857142857143L-4605.555555555556,242.17142857142858L-4578.888888888889,250.34285714285716L-4552.222222222223,256.85714285714283L-4525.555555555556,266.45714285714286L-4498.888888888889,277.7142857142857L-4472.222222222222,286.9142857142857L-4445.555555555556,288.91428571428565L-4418.888888888889,288.34285714285716L-4392.222222222223,288.8L-4365.555555555556,290.85714285714283L-4338.888888888889,291.59999999999997L-4312.222222222222,292.34285714285716L-4285.555555555556,289.65714285714284L-4258.888888888889,291.77142857142854L-4232.222222222223,295.0285714285714L-4205.555555555556,291.2571428571428L-4178.888888888889,291.9428571428571L-4152.222222222223,292.4L-4125.555555555556,293.9428571428572L-4098.888888888889,297.37142857142857L-4072.222222222222,298L-4045.5555555555557,297.0857142857143L-4018.888888888889,305.0285714285714L-3992.2222222222226,305.8285714285714L-3965.5555555555557,304.45714285714286L-3938.8888888888887,304.57142857142856L-3912.222222222222,306.85714285714283L-3885.5555555555557,307.1428571428571L-3858.8888888888887,308.1714285714286L-3832.222222222222,307.8857142857143L-3805.5555555555557,308.22857142857146L-3778.888888888889,311.8285714285714L-3752.2222222222226,316L-3725.555555555555,318.34285714285716L-3698.8888888888887,324L-3672.222222222222,327.25714285714287L-3645.5555555555557,329.2L-3618.888888888889,331.54285714285714L-3592.2222222222226,334L-3565.5555555555557,334.1142857142857L-3538.8888888888887,334.2857142857143L-3512.222222222222,333.2L-3485.5555555555557,334.9142857142857L-3458.8888888888887,335.37142857142857L-3432.222222222222,335.2571428571428L-3405.5555555555557,336.0571428571428L-3378.888888888889,338.0571428571429L-3352.2222222222226,339.2571428571428L-3325.555555555555,341.14285714285717L-3298.8888888888887,339.2571428571428L-3272.222222222222,340.34285714285716L-3245.5555555555557,342.34285714285716L-3218.888888888889,342.1714285714286L-3192.222222222222,342.51428571428573L-3165.5555555555557,343.37142857142857L-3138.888888888889,342.9142857142857L-3112.222222222222,343.88571428571424L-3085.5555555555557,343.37142857142857L-3058.8888888888887,344.0571428571428L-3032.222222222222,344.9714285714286L-3005.5555555555557,344.74285714285713L-2978.8888888888887,346L-2952.222222222222,347.2L-2925.5555555555557,347.2L-2898.8888888888887,347.71428571428567L-2872.222222222222,346L-2845.5555555555557,345.42857142857144L-2818.888888888889,345.7714285714286L-2792.222222222222,344.11428571428576L-2765.5555555555557,342.34285714285716L-2738.888888888889,343.31428571428575L-2712.222222222222,345.6L-2685.5555555555557,348.68571428571425L-2658.8888888888887,342.2857142857143L-2632.222222222222,342.2285714285714L-2605.5555555555557,341.65714285714284L-2578.8888888888887,343.31428571428575L-2552.222222222222,343.7714285714286L-2525.5555555555557,343.7714285714286L-2498.8888888888887,343.7714285714286L-2472.222222222222,347.2L-2445.5555555555557,348.1714285714286L-2418.888888888889,349.7714285714286L-2392.222222222222,349.7714285714286L-2365.5555555555557,351.0285714285714L-2338.888888888889,351.0285714285714L-2312.222222222222,351.0285714285714L-2285.5555555555557,352.74285714285713L-2258.8888888888887,353.14285714285717L-2232.222222222222,353.9428571428572L-2205.5555555555557,354.2285714285714L-2178.8888888888887,353.48571428571427L-2152.222222222222,353.48571428571427L-2125.5555555555557,353.48571428571427L-2098.8888888888887,350.9142857142857L-2072.222222222222,350.1142857142857L-2045.5555555555557,349.0285714285714L-2018.888888888889,348.11428571428576L-1992.2222222222222,347.0285714285714L-1965.5555555555554,347.0285714285714L-1938.888888888889,347.0285714285714L-1912.2222222222224,347.14285714285717L-1885.5555555555554,346.2285714285714L-1858.888888888889,345.25714285714287L-1832.2222222222222,344.8L-1805.5555555555557,344.85714285714283L-1778.8888888888887,344.85714285714283L-1752.2222222222222,344.85714285714283L-1725.5555555555557,343.71428571428567L-1698.8888888888887,344.28571428571433L-1672.2222222222222,343.7714285714286L-1645.5555555555557,340.85714285714283L-1618.888888888889,339.9428571428571L-1592.2222222222222,339.9428571428571L-1565.5555555555554,339.9428571428571L-1538.888888888889,334.34285714285716L-1512.2222222222222,331.65714285714284L-1485.5555555555557,328.51428571428573L-1458.888888888889,326.79999999999995L-1432.2222222222222,322.6857142857143L-1405.5555555555554,322.6857142857143L-1378.888888888889,322.6857142857143L-1352.2222222222222,313.2L-1325.5555555555557,309.37142857142857L-1298.888888888889,309.42857142857144L-1272.2222222222222,308.1142857142857L-1245.5555555555557,306.45714285714286L-1218.888888888889,300.51428571428573L-1192.2222222222222,292.85714285714283L-1165.5555555555554,307.1428571428571L-1138.888888888889,308.8L-1112.2222222222222,310.2857142857143L-1085.5555555555557,311.8857142857143L-1058.888888888889,317.25714285714287L-1032.2222222222222,316.8L-1005.5555555555555,320L-978.8888888888889,322.45714285714286L-952.2222222222222,324.2857142857143L-925.5555555555557,325.8857142857143L-898.8888888888889,327.3714285714286L-872.2222222222222,327.25714285714287L-845.5555555555555,329.1428571428571L-818.8888888888888,327.20000000000005L-792.2222222222223,326.40000000000003L-765.5555555555555,325.48571428571427L-738.8888888888889,322.40000000000003L-712.2222222222222,317.3142857142857L-685.5555555555555,311.6L-658.8888888888889,305.31428571428575L-632.2222222222222,303.3142857142857L-605.5555555555555,295.54285714285714L-578.8888888888889,287.31428571428575L-552.2222222222222,279.3142857142857L-525.5555555555555,271.42857142857144L-498.8888888888889,264.6285714285714L-472.22222222222223,255.94285714285715L-445.55555555555554,245.3142857142857L-418.8888888888889,238.6285714285714L-392.22222222222223,233.42857142857144L-365.55555555555554,247.77142857142857L-338.88888888888886,218.9142857142857L-312.22222222222223,209.6571428571429L-285.55555555555554,195.4857142857143L-258.8888888888889,187.71428571428567L-232.22222222222223,183.65714285714284L-205.55555555555554,175.54285714285714L-178.88888888888889,143.65714285714284L-152.22222222222223,158.6857142857143L-125.55555555555556,145.88571428571427L-98.88888888888889,144.17142857142858L-72.22222222222221,146.74285714285716L-45.55555555555556,145.77142857142857L-18.88888888888889,150.57142857142858L7.777777777777778,151.94285714285715L34.44444444444444,161.14285714285717L61.111111111111114,169.25714285714287L87.77777777777777,183.4857142857143L114.44444444444444,186.11428571428567L141.11111111111111,189.42857142857142L167.77777777777777,193.42857142857142L194.44444444444443,205.02857142857144L221.11111111111111,202.2857142857143L247.77777777777777,205.3714285714286L274.44444444444446,201.14285714285717L301.1111111111111,203.3142857142857L327.77777777777777,202.62857142857143L354.44444444444446,204.45714285714286L381.1111111111111,195.2571428571429L407.77777777777777,196.17142857142858" stroke="#4c78a8" stroke-width="2" opacity="1"></path></g></g><path class="foreground" aria-hidden="true" d="" display="none"></path></g></g><g class="mark-group role-title"><g transform="translate(200,-54)"><path class="background" aria-hidden="true" d="M0,0h0v0h0Z" pointer-events="none"></path><g><g class="mark-text role-title-text" role="graphics-symbol" aria-roledescription="title" aria-label="Title text '7-day average (light color: daily values) [2020-10-15]'" pointer-events="none"><text text-anchor="middle" transform="translate(0,10)" font-family="Roboto Condensed" font-size="13px" font-weight="normal" fill="#000" opacity="1"><tspan>7-day average (light color: daily values)</tspan><tspan x="0" dy="15">[2020-10-15]</tspan></text></g></g><path class="foreground" aria-hidden="true" d="" pointer-events="none" display="none"></path></g></g></g><path class="foreground" aria-hidden="true" d="" display="none"></path></g></g><g class="mark-group role-scope concat_1_group" role="graphics-object" aria-roledescription="group mark container"><g transform="translate(465,0)"><path class="background" aria-hidden="true" d="M0,0h400v400h-400Z" stroke="#ddd" stroke-width="0"></path><g><g class="mark-group role-axis" aria-hidden="true"><g transform="translate(0.5,0.5)"><path class="background" aria-hidden="true" d="M0,0h0v0h0Z" pointer-events="none"></path><g><g class="mark-rule role-axis-grid" pointer-events="none"><line transform="translate(0,400)" x2="400" y2="0" stroke="#ddd" stroke-width="1" opacity="1"></line><line transform="translate(0,343)" x2="400" y2="0" stroke="#ddd" stroke-width="1" opacity="1"></line><line transform="translate(0,286)" x2="400" y2="0" stroke="#ddd" stroke-width="1" opacity="1"></line><line transform="translate(0,229)" x2="400" y2="0" stroke="#ddd" stroke-width="1" opacity="1"></line><line transform="translate(0,171)" x2="400" y2="0" stroke="#ddd" stroke-width="1" opacity="1"></line><line transform="translate(0,114)" x2="400" y2="0" stroke="#ddd" stroke-width="1" opacity="1"></line><line transform="translate(0,57)" x2="400" y2="0" stroke="#ddd" stroke-width="1" opacity="1"></line><line transform="translate(0,0)" x2="400" y2="0" stroke="#ddd" stroke-width="1" opacity="1"></line></g></g><path class="foreground" aria-hidden="true" d="" pointer-events="none" display="none"></path></g></g><g class="mark-group role-axis" role="graphics-symbol" aria-roledescription="axis" aria-label="X-axis titled 'Date' for a time scale with values from September 29 to October 14"><g transform="translate(0.5,400.5)"><path class="background" aria-hidden="true" d="M0,0h0v0h0Z" pointer-events="none"></path><g><g class="mark-text role-axis-label" pointer-events="none"><text text-anchor="middle" transform="translate(34.44444444444444,10)" font-family="Roboto Condensed" font-size="10px" fill="#000" opacity="1">Oct 01</text><text text-anchor="middle" transform="translate(87.77777777777777,10)" font-family="Roboto Condensed" font-size="10px" fill="#000" opacity="1">Oct 03</text><text text-anchor="middle" transform="translate(141.11111111111111,10)" font-family="Roboto Condensed" font-size="10px" fill="#000" opacity="1">Oct 05</text><text text-anchor="middle" transform="translate(194.44444444444443,10)" font-family="Roboto Condensed" font-size="10px" fill="#000" opacity="1">Oct 07</text><text text-anchor="middle" transform="translate(247.77777777777777,10)" font-family="Roboto Condensed" font-size="10px" fill="#000" opacity="1">Oct 09</text><text text-anchor="middle" transform="translate(301.1111111111111,10)" font-family="Roboto Condensed" font-size="10px" fill="#000" opacity="1">Oct 11</text><text text-anchor="middle" transform="translate(354.44444444444446,10)" font-family="Roboto Condensed" font-size="10px" fill="#000" opacity="1">Oct 13</text></g><g class="mark-rule role-axis-domain" pointer-events="none"><line transform="translate(0,0)" x2="400" y2="0" stroke="lightgray" stroke-width="1" opacity="1"></line></g><g class="mark-text role-axis-title" pointer-events="none"><text text-anchor="middle" transform="translate(200,25)" font-family="Roboto Condensed" font-size="11px" font-weight="normal" fill="#000" opacity="1">Date</text></g></g><path class="foreground" aria-hidden="true" d="" pointer-events="none" display="none"></path></g></g><g class="mark-group role-axis" role="graphics-symbol" aria-roledescription="axis" aria-label="Y-axis titled 'Count' for a linear scale with values from 0 to 35,000"><g transform="translate(0.5,0.5)"><path class="background" aria-hidden="true" d="M0,0h0v0h0Z" pointer-events="none"></path><g><g class="mark-text role-axis-label" pointer-events="none"><text text-anchor="end" transform="translate(-2,403)" font-family="Roboto Condensed" font-size="10px" fill="#000" opacity="1">0</text><text text-anchor="end" transform="translate(-2,345.8571428571429)" font-family="Roboto Condensed" font-size="10px" fill="#000" opacity="1">5,000</text><text text-anchor="end" transform="translate(-2,288.7142857142857)" font-family="Roboto Condensed" font-size="10px" fill="#000" opacity="1">10,000</text><text text-anchor="end" transform="translate(-2,231.57142857142856)" font-family="Roboto Condensed" font-size="10px" fill="#000" opacity="1">15,000</text><text text-anchor="end" transform="translate(-2,174.42857142857144)" font-family="Roboto Condensed" font-size="10px" fill="#000" opacity="1">20,000</text><text text-anchor="end" transform="translate(-2,117.28571428571428)" font-family="Roboto Condensed" font-size="10px" fill="#000" opacity="1">25,000</text><text text-anchor="end" transform="translate(-2,60.14285714285716)" font-family="Roboto Condensed" font-size="10px" fill="#000" opacity="1">30,000</text><text text-anchor="end" transform="translate(-2,3)" font-family="Roboto Condensed" font-size="10px" fill="#000" opacity="1">35,000</text></g><g class="mark-rule role-axis-domain" pointer-events="none"><line transform="translate(0,400)" x2="0" y2="-400" stroke="lightgray" stroke-width="1" opacity="1"></line></g><g class="mark-text role-axis-title" pointer-events="none"><text text-anchor="start" transform="translate(-45,-13)" font-family="Roboto Condensed" font-size="11px" font-weight="normal" fill="#000" opacity="1">Count</text></g></g><path class="foreground" aria-hidden="true" d="" pointer-events="none" display="none"></path></g></g><g class="mark-group role-scope concat_1_pathgroup" role="graphics-object" aria-roledescription="group mark container"><g transform="translate(0,0)"><path class="background" aria-hidden="true" d="M0,0h400v400h-400Z"></path><g><g class="mark-line role-mark concat_1_marks" clip-path="url(#clip7)" role="graphics-object" aria-roledescription="line mark container"><path aria-label="Type: Recovered; Date: Mar 01; Country: Denmark; Confirmed: 4; Recovered: 0; Deaths: 0; Count: 0" role="graphics-symbol" aria-roledescription="line mark" d="M-5671.111111111111,400L-5644.444444444444,400L-5617.777777777777,400L-5591.111111111111,400L-5564.444444444444,400L-5537.777777777778,399.98857142857145L-5511.111111111111,399.98857142857145L-5484.444444444444,399.98857142857145L-5458.888888888889,399.98857142857145L-5432.222222222223,399.98857142857145L-5405.555555555556,399.98857142857145L-5378.888888888889,399.98857142857145L-5352.222222222223,399.98857142857145L-5325.555555555556,399.98857142857145L-5298.888888888889,399.98857142857145L-5272.222222222222,399.98857142857145L-5245.555555555556,399.98857142857145L-5218.888888888889,399.98857142857145L-5192.222222222223,399.98857142857145L-5165.555555555556,399.98857142857145L-5138.888888888889,399.98857142857145L-5112.222222222222,399.98857142857145L-5085.555555555556,399.98857142857145L-5058.888888888889,399.98857142857145L-5032.222222222223,399.98857142857145L-5005.555555555556,399.98857142857145L-4978.888888888889,399.98857142857145L-4952.222222222223,399.98857142857145L-4925.555555555556,399.98857142857145L-4898.888888888889,399.98857142857145L-4872.222222222222,399.98857142857145L-4845.555555555556,389.78285714285715L-4818.888888888889,387.5542857142857L-4792.222222222223,386.36571428571426L-4765.555555555556,385.33714285714285L-4738.888888888889,384.8342857142857L-4712.222222222222,384.25142857142856L-4685.555555555556,382.96000000000004L-4658.888888888889,381.4742857142857L-4632.222222222223,380.16L-4605.555555555556,379.7371428571429L-4578.888888888889,377.65714285714284L-4552.222222222223,375.7371428571429L-4525.555555555556,374.45714285714286L-4498.888888888889,371.25714285714287L-4472.222222222222,368.5942857142857L-4445.555555555556,365.4514285714286L-4418.888888888889,361.2685714285714L-4392.222222222223,356.0342857142857L-4365.555555555556,352.6742857142857L-4338.888888888889,350.72L-4312.222222222222,346.2857142857143L-4285.555555555556,341.86285714285714L-4258.888888888889,338.4685714285714L-4232.222222222223,336.8457142857143L-4205.555555555556,335.2114285714286L-4178.888888888889,333.65714285714284L-4152.222222222223,331.89714285714285L-4125.555555555556,330.04571428571427L-4098.888888888889,327.24571428571426L-4072.222222222222,325.18857142857144L-4045.5555555555557,323.09714285714284L-4018.888888888889,321.2685714285714L-3992.2222222222226,320.1485714285714L-3965.5555555555557,318.99428571428575L-3938.8888888888887,316.6171428571428L-3912.222222222222,314.36571428571426L-3885.5555555555557,311.87428571428575L-3858.8888888888887,309.4057142857143L-3832.222222222222,307.50857142857143L-3805.5555555555557,306.09142857142854L-3778.888888888889,304.8228571428572L-3752.2222222222226,301.9428571428572L-3725.555555555555,300.99428571428575L-3698.8888888888887,299.37142857142857L-3672.222222222222,297.6114285714286L-3645.5555555555557,295.92L-3618.888888888889,294.54857142857145L-3592.2222222222226,293.7028571428571L-3565.5555555555557,292.3885714285714L-3538.8888888888887,291.01714285714286L-3512.222222222222,289.7942857142857L-3485.5555555555557,288.41142857142853L-3458.8888888888887,287.5885714285714L-3432.222222222222,286.85714285714283L-3405.5555555555557,286.1257142857143L-3378.888888888889,285.2114285714286L-3352.2222222222226,284.5028571428571L-3325.555555555555,283.65714285714284L-3298.8888888888887,282.9714285714286L-3272.222222222222,281.97714285714284L-3245.5555555555557,281.57714285714286L-3218.888888888889,281.00571428571425L-3192.222222222222,280.12571428571425L-3165.5555555555557,279.4057142857143L-3138.888888888889,278.62857142857143L-3112.222222222222,278.2514285714286L-3085.5555555555557,277.4742857142857L-3058.8888888888887,277.0857142857143L-3032.222222222222,276.66285714285715L-3005.5555555555557,276.01142857142855L-2978.8888888888887,275.3828571428572L-2952.222222222222,274.8L-2925.5555555555557,274.36571428571426L-2898.8888888888887,273.8857142857143L-2872.222222222222,273.50857142857143L-2845.5555555555557,273.25714285714287L-2818.888888888889,272.8571428571429L-2792.222222222222,272.1714285714286L-2765.5555555555557,271.52000000000004L-2738.888888888889,271.0628571428571L-2712.222222222222,271.0628571428571L-2685.5555555555557,271.0628571428571L-2658.8888888888887,270.32L-2632.222222222222,269.79428571428576L-2605.5555555555557,269.46285714285716L-2578.8888888888887,269.02857142857147L-2552.222222222222,268.48L-2525.5555555555557,268.48L-2498.8888888888887,268.48L-2472.222222222222,267.2914285714286L-2445.5555555555557,266.8685714285714L-2418.888888888889,266.36571428571426L-2392.222222222222,265.4971428571429L-2365.5555555555557,264.9485714285714L-2338.888888888889,264.9485714285714L-2312.222222222222,264.9485714285714L-2285.5555555555557,263.6L-2258.8888888888887,263.0514285714286L-2232.222222222222,262.8457142857143L-2205.5555555555557,262.34285714285716L-2178.8888888888887,261.97714285714284L-2152.222222222222,261.97714285714284L-2125.5555555555557,261.97714285714284L-2098.8888888888887,261.37142857142857L-2072.222222222222,261.0285714285714L-2045.5555555555557,260.77714285714285L-2018.888888888889,260.62857142857143L-1992.2222222222222,260.4685714285714L-1965.5555555555554,260.4685714285714L-1938.888888888889,260.4685714285714L-1912.2222222222224,259.98857142857145L-1885.5555555555554,259.87428571428575L-1858.888888888889,259.7257142857143L-1832.2222222222222,259.44000000000005L-1805.5555555555557,258.9714285714286L-1778.8888888888887,258.9714285714286L-1752.2222222222222,258.9714285714286L-1725.5555555555557,258.0914285714286L-1698.8888888888887,257.70285714285717L-1672.2222222222222,257.3142857142857L-1645.5555555555557,256.8457142857143L-1618.888888888889,256.25142857142856L-1592.2222222222222,256.25142857142856L-1565.5555555555554,256.25142857142856L-1538.888888888889,255.06285714285718L-1512.2222222222222,254.6857142857143L-1485.5555555555557,254.25142857142856L-1458.888888888889,253.86285714285714L-1432.2222222222222,253.25714285714284L-1405.5555555555554,253.25714285714284L-1378.888888888889,253.25714285714284L-1352.2222222222222,252.2857142857143L-1325.5555555555557,251.5657142857143L-1298.888888888889,250.6742857142857L-1272.2222222222222,249.9314285714286L-1245.5555555555557,248.96000000000004L-1218.888888888889,248.2857142857143L-1192.2222222222222,247.54285714285714L-1165.5555555555554,246.66285714285712L-1138.888888888889,245.38285714285718L-1112.2222222222222,243.98857142857145L-1085.5555555555557,242.64000000000001L-1058.888888888889,240.64000000000001L-1032.2222222222222,240.64000000000001L-1005.5555555555555,237.94285714285715L-978.8888888888889,236.45714285714288L-952.2222222222222,234.6857142857143L-925.5555555555557,233.1085714285714L-898.8888888888889,231.28000000000003L-872.2222222222222,229.9771428571429L-845.5555555555555,228.69714285714284L-818.8888888888888,227.2457142857143L-792.2222222222223,226.22857142857146L-765.5555555555555,225.14285714285714L-738.8888888888889,223.85142857142856L-712.2222222222222,222.86857142857147L-685.5555555555555,221.8742857142857L-658.8888888888889,220.9028571428571L-632.2222222222222,219.88571428571427L-605.5555555555555,219.05142857142854L-578.8888888888889,218.2057142857143L-552.2222222222222,217.25714285714287L-525.5555555555555,216.3542857142857L-498.8888888888889,215.55428571428573L-472.22222222222223,214.32000000000002L-445.55555555555554,213.33714285714285L-418.8888888888889,212.1485714285714L-392.22222222222223,210.77714285714285L-365.55555555555554,210.77714285714285L-338.88888888888886,206.65142857142857L-312.22222222222223,204.45714285714286L-285.55555555555554,202.10285714285715L-258.8888888888889,199.84000000000003L-232.22222222222223,197.28L-205.55555555555554,193.8857142857143L-178.88888888888889,190.18285714285716L-152.22222222222223,186.90285714285713L-125.55555555555556,182.74285714285713L-98.88888888888889,178.85714285714286L-72.22222222222221,175.42857142857144L-45.55555555555556,172.09142857142857L-18.88888888888889,167.7714285714286L7.777777777777778,162.81142857142856L34.44444444444444,156.46857142857144L61.111111111111114,150.58285714285714L87.77777777777777,145.17714285714285L114.44444444444444,140.38857142857145L141.11111111111111,135.7485714285714L167.77777777777777,129.65714285714287L194.44444444444443,122.97142857142856L221.11111111111111,115.43999999999998L247.77777777777777,108.54857142857144L274.44444444444446,103.00571428571428L301.1111111111111,98.51428571428573L327.77777777777777,94.38857142857144L354.44444444444446,88.85714285714288L381.1111111111111,83.65714285714287L407.77777777777777,78.65142857142855" stroke="#e45756" stroke-width="2" opacity="0.7"></path></g></g><path class="foreground" aria-hidden="true" d="" display="none"></path></g><g transform="translate(0,0)"><path class="background" aria-hidden="true" d="M0,0h400v400h-400Z"></path><g><g class="mark-line role-mark concat_1_marks" clip-path="url(#clip8)" role="graphics-object" aria-roledescription="line mark container"><path aria-label="Type: Deaths; Date: Mar 01; Country: Denmark; Confirmed: 4; Recovered: 0; Deaths: 0; Count: 0" role="graphics-symbol" aria-roledescription="line mark" d="M-5671.111111111111,400L-5644.444444444444,400L-5617.777777777777,400L-5591.111111111111,400L-5564.444444444444,400L-5537.777777777778,400L-5511.111111111111,400L-5484.444444444444,400L-5458.888888888889,400L-5432.222222222223,400L-5405.555555555556,400L-5378.888888888889,400L-5352.222222222223,400L-5325.555555555556,399.98857142857145L-5298.888888888889,399.97714285714284L-5272.222222222222,399.9657142857143L-5245.555555555556,399.95428571428573L-5218.888888888889,399.95428571428573L-5192.222222222223,399.93142857142857L-5165.555555555556,399.89714285714285L-5138.888888888889,399.8514285714286L-5112.222222222222,399.8514285714286L-5085.555555555556,399.7257142857143L-5058.888888888889,399.6342857142857L-5032.222222222223,399.6114285714286L-5005.555555555556,399.53142857142853L-4978.888888888889,399.4057142857143L-4952.222222222223,399.25714285714287L-4925.555555555556,399.1771428571428L-4898.888888888889,399.12L-4872.222222222222,398.9714285714286L-4845.555555555556,398.81142857142856L-4818.888888888889,398.5942857142857L-4792.222222222223,398.41142857142853L-4765.555555555556,398.15999999999997L-4738.888888888889,397.95428571428573L-4712.222222222222,397.86285714285714L-4685.555555555556,397.68L-4658.888888888889,397.50857142857143L-4632.222222222223,397.2914285714286L-4605.555555555556,397.1771428571428L-4578.888888888889,397.0285714285714L-4552.222222222223,396.88L-4525.555555555556,396.74285714285713L-4498.888888888889,396.5828571428571L-4472.222222222222,396.4685714285714L-4445.555555555556,396.33142857142855L-4418.888888888889,396.15999999999997L-4392.222222222223,396.04571428571427L-4365.555555555556,395.9428571428572L-4338.888888888889,395.84000000000003L-4312.222222222222,395.7714285714286L-4285.555555555556,395.6114285714286L-4258.888888888889,395.4971428571429L-4232.222222222223,395.39428571428573L-4205.555555555556,395.22285714285715L-4178.888888888889,395.1771428571428L-4152.222222222223,395.12L-4125.555555555556,395.04L-4098.888888888889,394.9371428571429L-4072.222222222222,394.83428571428567L-4045.5555555555557,394.74285714285713L-4018.888888888889,394.57142857142856L-3992.2222222222226,394.4685714285714L-3965.5555555555557,394.3657142857143L-3938.8888888888887,394.25142857142856L-3912.222222222222,394.21714285714285L-3885.5555555555557,394.12571428571425L-3858.8888888888887,394.0342857142857L-3832.222222222222,393.98857142857145L-3805.5555555555557,393.9542857142857L-3778.888888888889,393.9085714285714L-3752.2222222222226,393.97714285714284L-3725.555555555555,393.9085714285714L-3698.8888888888887,393.86285714285714L-3672.222222222222,393.86285714285714L-3645.5555555555557,393.7942857142857L-3618.888888888889,393.74857142857144L-3592.2222222222226,393.7371428571429L-3565.5555555555557,393.7028571428571L-3538.8888888888887,393.66857142857145L-3512.222222222222,393.58857142857147L-3485.5555555555557,393.58857142857147L-3458.8888888888887,393.58857142857147L-3432.222222222222,393.57714285714286L-3405.5555555555557,393.5657142857143L-3378.888888888889,393.5657142857143L-3352.2222222222226,393.54285714285714L-3325.555555555555,393.50857142857143L-3298.8888888888887,393.50857142857143L-3272.222222222222,393.4742857142857L-3245.5555555555557,393.44L-3218.888888888889,393.4171428571429L-3192.222222222222,393.37142857142857L-3165.5555555555557,393.37142857142857L-3138.888888888889,393.3485714285714L-3112.222222222222,393.30285714285714L-3085.5555555555557,393.2914285714286L-3058.8888888888887,393.2685714285714L-3032.222222222222,393.22285714285715L-3005.5555555555557,393.22285714285715L-2978.8888888888887,393.22285714285715L-2952.222222222222,393.22285714285715L-2925.5555555555557,393.2114285714286L-2898.8888888888887,393.1771428571428L-2872.222222222222,393.1771428571428L-2845.5555555555557,393.1657142857143L-2818.888888888889,393.1657142857143L-2792.222222222222,393.1657142857143L-2765.5555555555557,393.14285714285717L-2738.888888888889,393.14285714285717L-2712.222222222222,393.14285714285717L-2685.5555555555557,393.14285714285717L-2658.8888888888887,393.12L-2632.222222222222,393.1085714285714L-2605.5555555555557,393.1085714285714L-2578.8888888888887,393.1085714285714L-2552.222222222222,393.09714285714284L-2525.5555555555557,393.09714285714284L-2498.8888888888887,393.09714285714284L-2472.222222222222,393.0857142857143L-2445.5555555555557,393.0857142857143L-2418.888888888889,393.07428571428574L-2392.222222222222,393.07428571428574L-2365.5555555555557,393.07428571428574L-2338.888888888889,393.07428571428574L-2312.222222222222,393.07428571428574L-2285.5555555555557,393.0628571428572L-2258.8888888888887,393.04L-2232.222222222222,393.04L-2205.5555555555557,393.04L-2178.8888888888887,393.04L-2152.222222222222,393.04L-2125.5555555555557,393.04L-2098.8888888888887,393.0285714285714L-2072.222222222222,393.0285714285714L-2045.5555555555557,393.0285714285714L-2018.888888888889,393.0285714285714L-1992.2222222222222,393.01714285714286L-1965.5555555555554,393.01714285714286L-1938.888888888889,393.01714285714286L-1912.2222222222224,393.01714285714286L-1885.5555555555554,393.01714285714286L-1858.888888888889,393.01714285714286L-1832.2222222222222,393.00571428571425L-1805.5555555555557,392.9942857142857L-1778.8888888888887,392.9942857142857L-1752.2222222222222,392.9942857142857L-1725.5555555555557,392.9942857142857L-1698.8888888888887,392.9942857142857L-1672.2222222222222,392.98285714285714L-1645.5555555555557,392.9714285714286L-1618.888888888889,392.9714285714286L-1592.2222222222222,392.9714285714286L-1565.5555555555554,392.9714285714286L-1538.888888888889,392.96000000000004L-1512.2222222222222,392.96000000000004L-1485.5555555555557,392.96000000000004L-1458.888888888889,392.9485714285714L-1432.2222222222222,392.9485714285714L-1405.5555555555554,392.9485714285714L-1378.888888888889,392.9485714285714L-1352.2222222222222,392.9142857142857L-1325.5555555555557,392.90285714285716L-1298.888888888889,392.90285714285716L-1272.2222222222222,392.90285714285716L-1245.5555555555557,392.90285714285716L-1218.888888888889,392.90285714285716L-1192.2222222222222,392.90285714285716L-1165.5555555555554,392.90285714285716L-1138.888888888889,392.90285714285716L-1112.2222222222222,392.90285714285716L-1085.5555555555557,392.90285714285716L-1058.888888888889,392.90285714285716L-1032.2222222222222,392.8914285714286L-1005.5555555555555,392.8914285714286L-978.8888888888889,392.88L-952.2222222222222,392.88L-925.5555555555557,392.88L-898.8888888888889,392.86857142857144L-872.2222222222222,392.86857142857144L-845.5555555555555,392.86857142857144L-818.8888888888888,392.86857142857144L-792.2222222222223,392.86857142857144L-765.5555555555555,392.85714285714283L-738.8888888888889,392.8457142857143L-712.2222222222222,392.8457142857143L-685.5555555555555,392.83428571428567L-658.8888888888889,392.83428571428567L-632.2222222222222,392.83428571428567L-605.5555555555555,392.8228571428571L-578.8888888888889,392.8228571428571L-552.2222222222222,392.8228571428571L-525.5555555555555,392.81142857142856L-498.8888888888889,392.81142857142856L-472.22222222222223,392.8L-445.55555555555554,392.78857142857146L-418.8888888888889,392.7657142857143L-392.22222222222223,392.7657142857143L-365.55555555555554,392.7657142857143L-338.88888888888886,392.74285714285713L-312.22222222222223,392.74285714285713L-285.55555555555554,392.74285714285713L-258.8888888888889,392.7085714285714L-232.22222222222223,392.6857142857143L-205.55555555555554,392.6742857142857L-178.88888888888889,392.65142857142854L-152.22222222222223,392.62857142857143L-125.55555555555556,392.60571428571427L-98.88888888888889,392.5942857142857L-72.22222222222221,392.5828571428571L-45.55555555555556,392.5828571428571L-18.88888888888889,392.57142857142856L7.777777777777778,392.57142857142856L34.44444444444444,392.56L61.111111111111114,392.54857142857145L87.77777777777777,392.5257142857143L114.44444444444444,392.47999999999996L141.11111111111111,392.4685714285714L167.77777777777777,392.42285714285714L194.44444444444443,392.42285714285714L221.11111111111111,392.4L247.77777777777777,392.4L274.44444444444446,392.37714285714287L301.1111111111111,392.3542857142857L327.77777777777777,392.33142857142855L354.44444444444446,392.29714285714283L381.1111111111111,392.2857142857143L407.77777777777777,392.2628571428572" stroke="#f58518" stroke-width="2" opacity="0.7"></path></g></g><path class="foreground" aria-hidden="true" d="" display="none"></path></g><g transform="translate(0,0)"><path class="background" aria-hidden="true" d="M0,0h400v400h-400Z"></path><g><g class="mark-line role-mark concat_1_marks" clip-path="url(#clip9)" role="graphics-object" aria-roledescription="line mark container"><path aria-label="Type: Confirmed; Date: Mar 01; Country: Denmark; Confirmed: 4; Recovered: 0; Deaths: 0; Count: 4" role="graphics-symbol" aria-roledescription="line mark" d="M-5671.111111111111,399.95428571428573L-5644.444444444444,399.95428571428573L-5617.777777777777,399.93142857142857L-5591.111111111111,399.88571428571424L-5564.444444444444,399.88571428571424L-5537.777777777778,399.7371428571428L-5511.111111111111,399.7371428571428L-5484.444444444444,399.6L-5458.888888888889,398.9714285714286L-5432.222222222223,397.00571428571425L-5405.555555555556,394.9485714285714L-5378.888888888889,392.9714285714286L-5352.222222222223,390.8457142857143L-5325.555555555556,390.54857142857145L-5298.888888888889,390.12571428571425L-5272.222222222222,389.5542857142857L-5245.555555555556,388.8342857142857L-5218.888888888889,387.92L-5192.222222222223,386.8457142857143L-5165.555555555556,385.6571428571429L-5138.888888888889,384.8457142857143L-5112.222222222222,384.0571428571429L-5085.555555555556,383.42857142857144L-5058.888888888889,381.81714285714287L-5032.222222222223,380.29714285714283L-5005.555555555556,378.5485714285714L-4978.888888888889,376.6171428571428L-4952.222222222223,374.8457142857143L-4925.555555555556,372.62857142857143L-4898.888888888889,370.54857142857145L-4872.222222222222,367.3142857142857L-4845.555555555556,364.49142857142857L-4818.888888888889,361.30285714285714L-4792.222222222223,357.0628571428571L-4765.555555555556,353.4057142857143L-4738.888888888889,350.06857142857143L-4712.222222222222,346.5028571428571L-4685.555555555556,342.04571428571427L-4658.888888888889,338.2628571428572L-4632.222222222223,335.59999999999997L-4605.555555555556,333.4971428571429L-4578.888888888889,331.4742857142857L-4552.222222222223,329.44L-4525.555555555556,327.7942857142857L-4498.888888888889,325.5885714285714L-4472.222222222222,323.6457142857143L-4445.555555555556,321.3828571428571L-4418.888888888889,319.1657142857143L-4392.222222222223,317.2342857142857L-4365.555555555556,315.6114285714286L-4338.888888888889,314.1142857142857L-4312.222222222222,312.0571428571429L-4285.555555555556,309.57714285714286L-4258.888888888889,307.7371428571428L-4232.222222222223,306.1714285714286L-4205.555555555556,303.48571428571427L-4178.888888888889,302L-4152.222222222223,300.5942857142857L-4125.555555555556,298.8457142857143L-4098.888888888889,297.0514285714286L-4072.222222222222,295.33714285714285L-4045.5555555555557,293.5885714285714L-4018.888888888889,292.49142857142857L-3992.2222222222226,291.1657142857143L-3965.5555555555557,289.4857142857143L-3938.8888888888887,287.76L-3912.222222222222,286.42285714285714L-3885.5555555555557,284.7657142857143L-3858.8888888888887,283.22285714285715L-3832.222222222222,282.06857142857143L-3805.5555555555557,280.81142857142856L-3778.888888888889,279.8514285714286L-3752.2222222222226,278.96000000000004L-3725.555555555555,278.0914285714286L-3698.8888888888887,277.5657142857143L-3672.222222222222,276.6742857142857L-3645.5555555555557,275.90857142857146L-3618.888888888889,275.12L-3592.2222222222226,274.65142857142854L-3565.5555555555557,273.78285714285715L-3538.8888888888887,272.9485714285714L-3512.222222222222,272.2057142857143L-3485.5555555555557,271.65714285714284L-3458.8888888888887,270.98285714285714L-3432.222222222222,270.1714285714286L-3405.5555555555557,269.86285714285714L-3378.888888888889,269.3942857142857L-3352.2222222222226,268.79999999999995L-3325.555555555555,268.4342857142857L-3298.8888888888887,267.50857142857143L-3272.222222222222,267.0514285714286L-3245.5555555555557,266.64000000000004L-3218.888888888889,266.2971428571429L-3192.222222222222,265.89714285714285L-3165.5555555555557,265.47428571428566L-3138.888888888889,265.01714285714286L-3112.222222222222,264.2857142857143L-3085.5555555555557,263.7257142857143L-3058.8888888888887,263.4514285714286L-3032.222222222222,263.2914285714286L-3005.5555555555557,262.8457142857143L-2978.8888888888887,262.6742857142857L-2952.222222222222,262.45714285714286L-2925.5555555555557,261.7257142857143L-2898.8888888888887,261.2685714285714L-2872.222222222222,260.6514285714286L-2845.5555555555557,260.37714285714287L-2818.888888888889,260L-2792.222222222222,259.4971428571428L-2765.5555555555557,258.9257142857143L-2738.888888888889,258.3885714285715L-2712.222222222222,258.3885714285715L-2685.5555555555557,258.3885714285715L-2658.8888888888887,256.8342857142857L-2632.222222222222,256.4457142857143L-2605.5555555555557,255.82857142857142L-2578.8888888888887,255.5885714285714L-2552.222222222222,255.14285714285717L-2525.5555555555557,255.14285714285717L-2498.8888888888887,255.14285714285717L-2472.222222222222,254.27428571428572L-2445.5555555555557,254.07999999999998L-2418.888888888889,253.78285714285713L-2392.222222222222,253.54285714285714L-2365.5555555555557,253.34857142857143L-2338.888888888889,253.34857142857143L-2312.222222222222,253.34857142857143L-2285.5555555555557,252.82285714285715L-2258.8888888888887,252.70857142857147L-2232.222222222222,252.57142857142858L-2205.5555555555557,252.3885714285714L-2178.8888888888887,252.0457142857143L-2152.222222222222,252.0457142857143L-2125.5555555555557,252.0457142857143L-2098.8888888888887,251.00571428571428L-2072.222222222222,250.73142857142855L-2045.5555555555557,250.37714285714284L-2018.888888888889,250.0114285714286L-1992.2222222222222,249.45142857142858L-1965.5555555555554,249.45142857142858L-1938.888888888889,249.45142857142858L-1912.2222222222224,248.4342857142857L-1885.5555555555554,247.97714285714284L-1858.888888888889,247.42857142857142L-1832.2222222222222,246.9714285714286L-1805.5555555555557,246.42285714285714L-1778.8888888888887,246.42285714285714L-1752.2222222222222,246.42285714285714L-1725.5555555555557,245.17714285714285L-1698.8888888888887,244.83428571428573L-1672.2222222222222,244.18285714285713L-1645.5555555555557,243.14285714285714L-1618.888888888889,242.41142857142853L-1592.2222222222222,242.41142857142853L-1565.5555555555554,242.41142857142853L-1538.888888888889,240.0457142857143L-1512.2222222222222,239.1657142857143L-1485.5555555555557,237.8857142857143L-1458.888888888889,236.50285714285718L-1432.2222222222222,234.94857142857143L-1405.5555555555554,234.94857142857143L-1378.888888888889,234.94857142857143L-1352.2222222222222,230.68571428571428L-1325.5555555555557,229.04L-1298.888888888889,227.77142857142854L-1272.2222222222222,226.12571428571425L-1245.5555555555557,224.24L-1218.888888888889,223.05142857142854L-1192.2222222222222,221.52000000000004L-1165.5555555555554,220.1142857142857L-1138.888888888889,218.79999999999998L-1112.2222222222222,217.82857142857145L-1085.5555555555557,216.50285714285715L-1058.888888888889,215.69142857142856L-1032.2222222222222,214.41142857142856L-1005.5555555555555,213.52L-978.8888888888889,212.6057142857143L-952.2222222222222,211.65714285714284L-925.5555555555557,211.00571428571428L-898.8888888888889,209.97714285714287L-872.2222222222222,209.14285714285717L-845.5555555555555,208.23999999999998L-818.8888888888888,206.96000000000004L-792.2222222222223,205.88571428571427L-765.5555555555555,204.75428571428571L-738.8888888888889,203.48571428571427L-712.2222222222222,201.44000000000003L-685.5555555555555,199.46285714285716L-658.8888888888889,197.30285714285714L-632.2222222222222,195.62285714285713L-605.5555555555555,192.99428571428572L-578.8888888888889,190.21714285714287L-552.2222222222222,187.34857142857143L-525.5555555555555,183.72571428571428L-498.8888888888889,180.38857142857142L-472.22222222222223,176.49142857142857L-445.55555555555554,172.68571428571428L-418.8888888888889,168.71999999999997L-392.22222222222223,164.90285714285716L-365.55555555555554,164.90285714285716L-338.88888888888886,155.50857142857143L-312.22222222222223,150.32000000000002L-285.55555555555554,143.58857142857144L-258.8888888888889,138.2285714285714L-232.22222222222223,133.45142857142855L-205.55555555555554,128.01142857142858L-178.88888888888889,121.63428571428571L-152.22222222222223,115.24571428571431L-125.55555555555556,107.49714285714288L-98.88888888888889,100.42285714285714L-72.22222222222221,95.57714285714285L-45.55555555555556,90.60571428571427L-18.88888888888889,86.12571428571427L7.777777777777778,80.02285714285713L34.44444444444444,75.4742857142857L61.111111111111114,69.34857142857145L87.77777777777777,65.11999999999998L114.44444444444444,60.80000000000001L141.11111111111111,56.49142857142859L167.77777777777777,52.81142857142855L194.44444444444443,49.028571428571425L221.11111111111111,43.931428571428555L247.77777777777777,38.42285714285714L274.44444444444446,33.34857142857142L301.1111111111111,29.462857142857146L327.77777777777777,25.01714285714285L354.44444444444446,21.702857142857155L381.1111111111111,16.080000000000005L407.77777777777777,11.165714285714268" stroke="#4c78a8" stroke-width="2" opacity="0.7"></path></g></g><path class="foreground" aria-hidden="true" d="" display="none"></path></g></g><g class="mark-group role-title"><g transform="translate(200,-54)"><path class="background" aria-hidden="true" d="M0,0h0v0h0Z" pointer-events="none"></path><g><g class="mark-text role-title-text" role="graphics-symbol" aria-roledescription="title" aria-label="Title text 'Total [2020-10-15]'" pointer-events="none"><text text-anchor="middle" transform="translate(0,10)" font-family="Roboto Condensed" font-size="13px" font-weight="normal" fill="#000" opacity="1"><tspan>Total</tspan><tspan x="0" dy="15">[2020-10-15]</tspan></text></g></g><path class="foreground" aria-hidden="true" d="" pointer-events="none" display="none"></path></g></g></g><path class="foreground" aria-hidden="true" d="" display="none"></path></g></g><g class="mark-group role-legend" role="graphics-symbol" aria-roledescription="legend" aria-label="Symbol legend for stroke color with 3 values: Confirmed, Deaths, Recovered"><g transform="translate(883,0)"><path class="background" aria-hidden="true" d="M0,0h58v37h-58Z" pointer-events="none"></path><g><g class="mark-group role-legend-entry"><g transform="translate(0,0)"><path class="background" aria-hidden="true" d="M0,0h0v0h0Z" pointer-events="none"></path><g><g class="mark-group role-scope" role="graphics-object" aria-roledescription="group mark container"><g transform="translate(0,0)"><path class="background" aria-hidden="true" d="M0,0h58v11h-58Z" pointer-events="none" opacity="1"></path><g><g class="mark-symbol role-legend-symbol" pointer-events="none"><path transform="translate(6,6)" d="M-5,0L5,0" stroke="#4c78a8" stroke-width="1.5" opacity="0.2"></path></g><g class="mark-text role-legend-label" pointer-events="none"><text text-anchor="start" transform="translate(16,9)" font-family="Roboto Condensed" font-size="10px" fill="#000" opacity="1">Confirmed</text></g></g><path class="foreground" aria-hidden="true" d="" pointer-events="none" display="none"></path></g><g transform="translate(0,13)"><path class="background" aria-hidden="true" d="M0,0h58v11h-58Z" pointer-events="none" opacity="1"></path><g><g class="mark-symbol role-legend-symbol" pointer-events="none"><path transform="translate(6,6)" d="M-5,0L5,0" stroke="#f58518" stroke-width="1.5" opacity="0.2"></path></g><g class="mark-text role-legend-label" pointer-events="none"><text text-anchor="start" transform="translate(16,9)" font-family="Roboto Condensed" font-size="10px" fill="#000" opacity="1">Deaths</text></g></g><path class="foreground" aria-hidden="true" d="" pointer-events="none" display="none"></path></g><g transform="translate(0,26)"><path class="background" aria-hidden="true" d="M0,0h58v11h-58Z" pointer-events="none" opacity="1"></path><g><g class="mark-symbol role-legend-symbol" pointer-events="none"><path transform="translate(6,6)" d="M-5,0L5,0" stroke="#e45756" stroke-width="1.5" opacity="0.2"></path></g><g class="mark-text role-legend-label" pointer-events="none"><text text-anchor="start" transform="translate(16,9)" font-family="Roboto Condensed" font-size="10px" fill="#000" opacity="1">Recovered</text></g></g><path class="foreground" aria-hidden="true" d="" pointer-events="none" display="none"></path></g></g></g><path class="foreground" aria-hidden="true" d="" pointer-events="none" display="none"></path></g></g></g><path class="foreground" aria-hidden="true" d="" pointer-events="none" display="none"></path></g></g></g><path class="foreground" aria-hidden="true" d="" display="none"></path></g></g></g></svg>