<svg class="marks" width="950" height="344" viewBox="0 0 950 344" version="1.1" xmlns="http://www.w3.org/2000/svg" xmlns:xlink="http://www.w3.org/1999/xlink"><rect width="950" height="344" style="fill: white;"></rect><defs><clipPath id="clip1"><rect x="0" y="0" width="400" height="300"></rect></clipPath><clipPath id="clip2"><rect x="0" y="0" width="400" height="300"></rect></clipPath><clipPath id="clip3"><rect x="0" y="0" width="400" height="300"></rect></clipPath><clipPath id="clip4"><rect x="0" y="0" width="400" height="300"></rect></clipPath><clipPath id="clip5"><rect x="0" y="0" width="400" height="300"></rect></clipPath><clipPath id="clip6"><rect x="0" y="0" width="400" height="300"></rect></clipPath><clipPath id="clip7"><rect x="0" y="0" width="400" height="300"></rect></clipPath><clipPath id="clip8"><rect x="0" y="0" width="400" height="300"></rect></clipPath><clipPath id="clip9"><rect x="0" y="0" width="400" height="300"></rect></clipPath></defs><g transform="translate(22,27)"><g class="mark-group role-frame root"><g transform="translate(0,0)"><path class="background" d="M0,0h0v0h0Z" style="fill: none;"></path><g><g class="mark-group role-scope concat_0_group"><g transform="translate(0,0)"><path class="background" d="M0,0h400v300h-400Z" style="fill: none; stroke: #ddd; stroke-width: 0;"></path><g><g class="mark-group role-axis"><g transform="translate(0.5,0.5)"><path class="background" d="M0,0h0v0h0Z" style="pointer-events: none; fill: none;"></path><g><g class="mark-rule role-axis-grid" style="pointer-events: none;"><line transform="translate(0,300)" x2="400" y2="0" style="fill: none; stroke: #ddd; stroke-width: 1; opacity: 1;"></line><line transform="translate(0,250)" x2="400" y2="0" style="fill: none; stroke: #ddd; stroke-width: 1; opacity: 1;"></line><line transform="translate(0,200)" x2="400" y2="0" style="fill: none; stroke: #ddd; stroke-width: 1; opacity: 1;"></line><line transform="translate(0,150)" x2="400" y2="0" style="fill: none; stroke: #ddd; stroke-width: 1; opacity: 1;"></line><line transform="translate(0,100)" x2="400" y2="0" style="fill: none; stroke: #ddd; stroke-width: 1; opacity: 1;"></line><line transform="translate(0,50)" x2="400" y2="0" style="fill: none; stroke: #ddd; stroke-width: 1; opacity: 1;"></line><line transform="translate(0,0)" x2="400" y2="0" style="fill: none; stroke: #ddd; stroke-width: 1; opacity: 1;"></line></g></g><path class="foreground" d="" style="pointer-events: none; display: none; fill: none;"></path></g></g><g class="mark-group role-axis"><g transform="translate(0.5,300.5)"><path class="background" d="M0,0h0v0h0Z" style="pointer-events: none; fill: none;"></path><g><g class="mark-text role-axis-label" style="pointer-events: none;"><text text-anchor="middle" transform="translate(13.333333333333334,10)" style="font-family: Roboto Condensed; font-size: 10px; fill: #000; opacity: 1;">Mar 25</text><text text-anchor="middle" transform="translate(40,10)" style="font-family: Roboto Condensed; font-size: 10px; fill: #000; opacity: 0;">Mar 27</text><text text-anchor="middle" transform="translate(66.66666666666666,10)" style="font-family: Roboto Condensed; font-size: 10px; fill: #000; opacity: 1;">Mar 29</text><text text-anchor="middle" transform="translate(93.33333333333333,10)" style="font-family: Roboto Condensed; font-size: 10px; fill: #000; opacity: 0;">Mar 31</text><text text-anchor="middle" transform="translate(106.66666666666667,10)" style="font-family: Roboto Condensed; font-size: 10px; fill: #000; opacity: 1;">Apr 01</text><text text-anchor="middle" transform="translate(133.33333333333331,10)" style="font-family: Roboto Condensed; font-size: 10px; fill: #000; opacity: 0;">Apr 03</text><text text-anchor="middle" transform="translate(160,10)" style="font-family: Roboto Condensed; font-size: 10px; fill: #000; opacity: 1;">Apr 05</text><text text-anchor="middle" transform="translate(186.66666666666666,10)" style="font-family: Roboto Condensed; font-size: 10px; fill: #000; opacity: 0;">Apr 07</text><text text-anchor="middle" transform="translate(213.33333333333334,10)" style="font-family: Roboto Condensed; font-size: 10px; fill: #000; opacity: 1;">Apr 09</text><text text-anchor="middle" transform="translate(240,10)" style="font-family: Roboto Condensed; font-size: 10px; fill: #000; opacity: 0;">Apr 11</text><text text-anchor="middle" transform="translate(266.66666666666663,10)" style="font-family: Roboto Condensed; font-size: 10px; fill: #000; opacity: 1;">Apr 13</text><text text-anchor="middle" transform="translate(293.3333333333333,10)" style="font-family: Roboto Condensed; font-size: 10px; fill: #000; opacity: 0;">Apr 15</text><text text-anchor="middle" transform="translate(320,10)" style="font-family: Roboto Condensed; font-size: 10px; fill: #000; opacity: 1;">Apr 17</text><text text-anchor="middle" transform="translate(346.6666666666667,10)" style="font-family: Roboto Condensed; font-size: 10px; fill: #000; opacity: 0;">Apr 19</text><text text-anchor="middle" transform="translate(373.3333333333333,10)" style="font-family: Roboto Condensed; font-size: 10px; fill: #000; opacity: 1;">Apr 21</text><text text-anchor="end" transform="translate(400,10)" style="font-family: Roboto Condensed; font-size: 10px; fill: #000; opacity: 0;">Apr 23</text></g><g class="mark-rule role-axis-domain" style="pointer-events: none;"><line transform="translate(0,0)" x2="400" y2="0" style="fill: none; stroke: lightgray; stroke-width: 1; opacity: 1;"></line></g></g><path class="foreground" d="" style="pointer-events: none; display: none; fill: none;"></path></g></g><g class="mark-group role-axis"><g transform="translate(0.5,0.5)"><path class="background" d="M0,0h0v0h0Z" style="pointer-events: none; fill: none;"></path><g><g class="mark-text role-axis-label" style="pointer-events: none;"><text text-anchor="end" transform="translate(-2,303)" style="font-family: Roboto Condensed; font-size: 10px; fill: #000; opacity: 1;">-20</text><text text-anchor="end" transform="translate(-2,253)" style="font-family: Roboto Condensed; font-size: 10px; fill: #000; opacity: 1;">0</text><text text-anchor="end" transform="translate(-2,203.00000000000003)" style="font-family: Roboto Condensed; font-size: 10px; fill: #000; opacity: 1;">20</text><text text-anchor="end" transform="translate(-2,153)" style="font-family: Roboto Condensed; font-size: 10px; fill: #000; opacity: 1;">40</text><text text-anchor="end" transform="translate(-2,103.00000000000001)" style="font-family: Roboto Condensed; font-size: 10px; fill: #000; opacity: 1;">60</text><text text-anchor="end" transform="translate(-2,52.999999999999986)" style="font-family: Roboto Condensed; font-size: 10px; fill: #000; opacity: 1;">80</text><text text-anchor="end" transform="translate(-2,3)" style="font-family: Roboto Condensed; font-size: 10px; fill: #000; opacity: 1;">100</text></g><g class="mark-rule role-axis-domain" style="pointer-events: none;"><line transform="translate(0,300)" x2="0" y2="-300" style="fill: none; stroke: lightgray; stroke-width: 1; opacity: 1;"></line></g></g><path class="foreground" d="" style="pointer-events: none; display: none; fill: none;"></path></g></g><g class="mark-group role-scope concat_0_layer_0_pathgroup"><g transform="translate(0,0)"><path class="background" d="M0,0h400v300h-400Z" style="fill: none;"></path><g><g class="mark-line role-mark concat_0_layer_0_marks" clip-path="url(#clip1)"><path d="M-226.66666666666666,250L-213.33333333333334,250L-200,250L-186.66666666666666,249.64285714285717L-173.33333333333334,249.64285714285717L-160,249.64285714285717L-146.66666666666666,249.64285714285717L-133.33333333333331,249.64285714285717L-120,247.14285714285714L-106.66666666666667,250L-93.33333333333333,250.35714285714286L-80,248.57142857142856L-66.66666666666666,248.57142857142856L-53.333333333333336,248.57142857142856L-40,242.5L-26.666666666666668,251.07142857142858L-13.333333333333334,231.7857142857143L0,231.7857142857143L13.333333333333334,231.7857142857143L26.666666666666668,222.5L40,217.14285714285717L53.333333333333336,217.14285714285717L66.66666666666666,203.57142857142858L80,212.14285714285717L93.33333333333333,197.5L106.66666666666667,189.64285714285714L120,177.85714285714283L133.33333333333331,174.28571428571428L146.66666666666666,149.28571428571428L160,145.35714285714286L173.33333333333334,141.78571428571428L186.66666666666666,121.07142857142857L200,104.28571428571432L213.33333333333334,105.71428571428571L226.66666666666666,92.14285714285715L240,91.07142857142858L253.33333333333331,85.35714285714285L266.66666666666663,81.07142857142858L280,96.42857142857142L293.3333333333333,91.42857142857143L306.6666666666667,87.14285714285717L320,81.07142857142858L333.33333333333337,89.28571428571426L346.6666666666667,106.42857142857142L360,96.7857142857143L373.3333333333333,97.14285714285717L386.6666666666667,112.5L400,119.64285714285715" style="fill: none; stroke: #e45756; stroke-width: 2; opacity: 1;"></path></g></g><path class="foreground" d="" style="display: none; fill: none;"></path></g><g transform="translate(0,0)"><path class="background" d="M0,0h400v300h-400Z" style="fill: none;"></path><g><g class="mark-line role-mark concat_0_layer_0_marks" clip-path="url(#clip2)"><path d="M-226.66666666666666,250L-213.33333333333334,250L-200,250L-186.66666666666666,250L-173.33333333333334,250L-160,250L-146.66666666666666,250L-133.33333333333331,250L-120,248.2142857142857L-106.66666666666667,250L-93.33333333333333,249.64285714285717L-80,249.64285714285717L-66.66666666666666,249.64285714285717L-53.333333333333336,250L-40,249.64285714285717L-26.666666666666668,251.42857142857144L-13.333333333333334,249.64285714285717L0,249.64285714285717L13.333333333333334,249.64285714285717L26.666666666666668,249.64285714285717L40,249.2857142857143L53.333333333333336,249.64285714285717L66.66666666666666,249.64285714285717L80,249.64285714285717L93.33333333333333,250L106.66666666666667,250L120,249.2857142857143L133.33333333333331,249.2857142857143L146.66666666666666,249.2857142857143L160,249.2857142857143L173.33333333333334,248.57142857142856L186.66666666666666,248.57142857142856L200,248.57142857142856L213.33333333333334,249.2857142857143L226.66666666666666,248.92857142857144L240,248.57142857142856L253.33333333333331,248.57142857142856L266.66666666666663,249.2857142857143L280,249.2857142857143L293.3333333333333,249.2857142857143L306.6666666666667,249.2857142857143L320,249.2857142857143L333.33333333333337,249.64285714285717L346.6666666666667,249.64285714285717L360,249.2857142857143L373.3333333333333,249.2857142857143L386.6666666666667,249.2857142857143L400,249.2857142857143" style="fill: none; stroke: #f58518; stroke-width: 2; opacity: 1;"></path></g></g><path class="foreground" d="" style="display: none; fill: none;"></path></g><g transform="translate(0,0)"><path class="background" d="M0,0h400v300h-400Z" style="fill: none;"></path><g><g class="mark-line role-mark concat_0_layer_0_marks" clip-path="url(#clip3)"><path d="M-226.66666666666666,232.5L-213.33333333333334,233.21428571428572L-200,231.42857142857142L-186.66666666666666,229.28571428571428L-173.33333333333334,228.92857142857142L-160,225.35714285714286L-146.66666666666666,217.5L-133.33333333333331,212.14285714285717L-120,206.78571428571428L-106.66666666666667,206.42857142857142L-93.33333333333333,196.07142857142858L-80,191.07142857142856L-66.66666666666666,168.92857142857142L-53.333333333333336,151.78571428571428L-40,136.7857142857143L-26.666666666666668,108.2142857142857L-13.333333333333334,104.28571428571432L0,97.14285714285717L13.333333333333334,76.07142857142857L26.666666666666668,81.42857142857144L40,78.21428571428574L53.333333333333336,75L66.66666666666666,88.57142857142858L80,72.14285714285715L93.33333333333333,76.07142857142857L106.66666666666667,77.49999999999999L120,65.35714285714286L133.33333333333331,80.71428571428572L146.66666666666666,87.85714285714285L160,83.57142857142857L173.33333333333334,80.00000000000001L186.66666666666666,88.92857142857142L200,108.57142857142858L213.33333333333334,132.5L226.66666666666666,138.92857142857144L240,152.85714285714283L253.33333333333331,173.2142857142857L266.66666666666663,196.78571428571428L280,202.14285714285717L293.3333333333333,210.35714285714283L306.6666666666667,217.5L320,221.7857142857143L333.33333333333337,224.64285714285714L346.6666666666667,225L360,227.85714285714283L373.3333333333333,229.28571428571428L386.6666666666667,229.28571428571428L400,232.14285714285714" style="fill: none; stroke: #4c78a8; stroke-width: 2; opacity: 1;"></path></g></g><path class="foreground" d="" style="display: none; fill: none;"></path></g></g><g class="mark-group role-scope concat_0_layer_1_pathgroup"><g transform="translate(0,0)"><path class="background" d="M0,0h400v300h-400Z" style="fill: none;"></path><g><g class="mark-line role-mark concat_0_layer_1_marks" clip-path="url(#clip4)"><path d="M-306.6666666666667,250L-293.3333333333333,250L-280,250L-266.66666666666663,250L-253.33333333333331,250L-240,250L-226.66666666666666,250L-213.33333333333334,250L-200,250L-186.66666666666666,247.5L-173.33333333333334,250L-160,250L-146.66666666666666,250L-133.33333333333331,250L-120,232.5L-106.66666666666667,270L-93.33333333333333,250L-80,237.5L-66.66666666666666,250L-53.333333333333336,250L-40,207.5L-26.666666666666668,292.5L-13.333333333333334,135L0,250L13.333333333333334,237.5L26.666666666666668,185L40,212.49999999999997L53.333333333333336,207.5L66.66666666666666,197.5L80,195L93.33333333333333,147.5L106.66666666666667,182.50000000000003L120,102.5L133.33333333333331,187.5L146.66666666666666,32.499999999999986L160,170L173.33333333333334,170L186.66666666666666,2.499999999999991L200,65L213.33333333333334,112.5L226.66666666666666,92.5L240,25.00000000000001L253.33333333333331,130L266.66666666666663,140L280,110.00000000000001L293.3333333333333,29.999999999999993L306.6666666666667,82.5L320,49.999999999999986L333.33333333333337,82.5L346.6666666666667,250L360,72.50000000000001L373.3333333333333,112.5L386.6666666666667,137.5L400,132.5" style="fill: none; stroke: #e45756; stroke-width: 2; opacity: 0.2;"></path></g></g><path class="foreground" d="" style="display: none; fill: none;"></path></g><g transform="translate(0,0)"><path class="background" d="M0,0h400v300h-400Z" style="fill: none;"></path><g><g class="mark-line role-mark concat_0_layer_1_marks" clip-path="url(#clip5)"><path d="M-306.6666666666667,250L-293.3333333333333,250L-280,250L-266.66666666666663,250L-253.33333333333331,250L-240,250L-226.66666666666666,250L-213.33333333333334,250L-200,250L-186.66666666666666,250L-173.33333333333334,250L-160,250L-146.66666666666666,250L-133.33333333333331,250L-120,237.5L-106.66666666666667,262.5L-93.33333333333333,247.5L-80,250L-66.66666666666666,250L-53.333333333333336,252.5L-40,247.5L-26.666666666666668,250L-13.333333333333334,250L0,247.5L13.333333333333334,250L26.666666666666668,250L40,250L53.333333333333336,250L66.66666666666666,250L80,250L93.33333333333333,250L106.66666666666667,250L120,245L133.33333333333331,250L146.66666666666666,250L160,250L173.33333333333334,245L186.66666666666666,250L200,250L213.33333333333334,250L226.66666666666666,247.5L240,247.5L253.33333333333331,250L266.66666666666663,250L280,250L293.3333333333333,250L306.6666666666667,250L320,247.5L333.33333333333337,250L346.6666666666667,250L360,247.5L373.3333333333333,250L386.6666666666667,250L400,250" style="fill: none; stroke: #f58518; stroke-width: 2; opacity: 0.2;"></path></g></g><path class="foreground" d="" style="display: none; fill: none;"></path></g><g transform="translate(0,0)"><path class="background" d="M0,0h400v300h-400Z" style="fill: none;"></path><g><g class="mark-line role-mark concat_0_layer_1_marks" clip-path="url(#clip6)"><path d="M-306.6666666666667,245L-293.3333333333333,242.5L-280,237.5L-266.66666666666663,212.49999999999997L-253.33333333333331,229.99999999999997L-240,227.5L-226.66666666666666,232.5L-213.33333333333334,250L-200,229.99999999999997L-186.66666666666666,222.5L-173.33333333333334,210L-160,205L-146.66666666666666,172.5L-133.33333333333331,195L-120,212.49999999999997L-106.66666666666667,227.5L-93.33333333333333,150L-80,174.99999999999997L-66.66666666666666,49.999999999999986L-53.333333333333336,52.500000000000014L-40,90.00000000000001L-26.666666666666668,12.49999999999999L-13.333333333333334,200.00000000000003L0,100.00000000000001L13.333333333333334,27.500000000000004L26.666666666666668,87.49999999999999L40,29.999999999999993L53.333333333333336,67.5L66.66666666666666,107.49999999999999L80,85L93.33333333333333,127.50000000000001L106.66666666666667,37.5L120,2.499999999999991L133.33333333333331,137.5L146.66666666666666,117.50000000000001L160,77.49999999999999L173.33333333333334,59.999999999999986L186.66666666666666,190L200,174.99999999999997L213.33333333333334,170L226.66666666666666,182.50000000000003L240,215L253.33333333333331,220.00000000000003L266.66666666666663,225L280,227.5L293.3333333333333,232.5L306.6666666666667,220.00000000000003L320,212.49999999999997L333.33333333333337,235L346.6666666666667,222.5L360,245L373.3333333333333,237.5L386.6666666666667,232.5L400,240" style="fill: none; stroke: #4c78a8; stroke-width: 2; opacity: 0.2;"></path></g></g><path class="foreground" d="" style="display: none; fill: none;"></path></g></g><g class="mark-group role-title"><g transform="translate(200,-22)"><path class="background" d="M0,0h0v0h0Z" style="pointer-events: none; fill: none;"></path><g><g class="mark-text role-title-text" style="pointer-events: none;"><text text-anchor="middle" transform="translate(0,10)" style="font-family: Roboto Condensed; font-size: 13px; font-weight: normal; fill: #000; opacity: 1;">7-day average (Daily values in light color)</text></g></g><path class="foreground" d="" style="pointer-events: none; display: none; fill: none;"></path></g></g></g><path class="foreground" d="" style="display: none; fill: none;"></path></g></g><g class="mark-group role-scope concat_1_group"><g transform="translate(445,0)"><path class="background" d="M0,0h400v300h-400Z" style="fill: none; stroke: #ddd; stroke-width: 0;"></path><g><g class="mark-group role-axis"><g transform="translate(0.5,0.5)"><path class="background" d="M0,0h0v0h0Z" style="pointer-events: none; fill: none;"></path><g><g class="mark-rule role-axis-grid" style="pointer-events: none;"><line transform="translate(0,300)" x2="400" y2="0" style="fill: none; stroke: #ddd; stroke-width: 1; opacity: 1;"></line><line transform="translate(0,267)" x2="400" y2="0" style="fill: none; stroke: #ddd; stroke-width: 1; opacity: 1;"></line><line transform="translate(0,233)" x2="400" y2="0" style="fill: none; stroke: #ddd; stroke-width: 1; opacity: 1;"></line><line transform="translate(0,200)" x2="400" y2="0" style="fill: none; stroke: #ddd; stroke-width: 1; opacity: 1;"></line><line transform="translate(0,167)" x2="400" y2="0" style="fill: none; stroke: #ddd; stroke-width: 1; opacity: 1;"></line><line transform="translate(0,133)" x2="400" y2="0" style="fill: none; stroke: #ddd; stroke-width: 1; opacity: 1;"></line><line transform="translate(0,100)" x2="400" y2="0" style="fill: none; stroke: #ddd; stroke-width: 1; opacity: 1;"></line><line transform="translate(0,67)" x2="400" y2="0" style="fill: none; stroke: #ddd; stroke-width: 1; opacity: 1;"></line><line transform="translate(0,33)" x2="400" y2="0" style="fill: none; stroke: #ddd; stroke-width: 1; opacity: 1;"></line><line transform="translate(0,0)" x2="400" y2="0" style="fill: none; stroke: #ddd; stroke-width: 1; opacity: 1;"></line></g></g><path class="foreground" d="" style="pointer-events: none; display: none; fill: none;"></path></g></g><g class="mark-group role-axis"><g transform="translate(0.5,300.5)"><path class="background" d="M0,0h0v0h0Z" style="pointer-events: none; fill: none;"></path><g><g class="mark-text role-axis-label" style="pointer-events: none;"><text text-anchor="middle" transform="translate(13.333333333333334,10)" style="font-family: Roboto Condensed; font-size: 10px; fill: #000; opacity: 1;">Mar 25</text><text text-anchor="middle" transform="translate(40,10)" style="font-family: Roboto Condensed; font-size: 10px; fill: #000; opacity: 0;">Mar 27</text><text text-anchor="middle" transform="translate(66.66666666666666,10)" style="font-family: Roboto Condensed; font-size: 10px; fill: #000; opacity: 1;">Mar 29</text><text text-anchor="middle" transform="translate(93.33333333333333,10)" style="font-family: Roboto Condensed; font-size: 10px; fill: #000; opacity: 0;">Mar 31</text><text text-anchor="middle" transform="translate(106.66666666666667,10)" style="font-family: Roboto Condensed; font-size: 10px; fill: #000; opacity: 1;">Apr 01</text><text text-anchor="middle" transform="translate(133.33333333333331,10)" style="font-family: Roboto Condensed; font-size: 10px; fill: #000; opacity: 0;">Apr 03</text><text text-anchor="middle" transform="translate(160,10)" style="font-family: Roboto Condensed; font-size: 10px; fill: #000; opacity: 1;">Apr 05</text><text text-anchor="middle" transform="translate(186.66666666666666,10)" style="font-family: Roboto Condensed; font-size: 10px; fill: #000; opacity: 0;">Apr 07</text><text text-anchor="middle" transform="translate(213.33333333333334,10)" style="font-family: Roboto Condensed; font-size: 10px; fill: #000; opacity: 1;">Apr 09</text><text text-anchor="middle" transform="translate(240,10)" style="font-family: Roboto Condensed; font-size: 10px; fill: #000; opacity: 0;">Apr 11</text><text text-anchor="middle" transform="translate(266.66666666666663,10)" style="font-family: Roboto Condensed; font-size: 10px; fill: #000; opacity: 1;">Apr 13</text><text text-anchor="middle" transform="translate(293.3333333333333,10)" style="font-family: Roboto Condensed; font-size: 10px; fill: #000; opacity: 0;">Apr 15</text><text text-anchor="middle" transform="translate(320,10)" style="font-family: Roboto Condensed; font-size: 10px; fill: #000; opacity: 1;">Apr 17</text><text text-anchor="middle" transform="translate(346.6666666666667,10)" style="font-family: Roboto Condensed; font-size: 10px; fill: #000; opacity: 0;">Apr 19</text><text text-anchor="middle" transform="translate(373.3333333333333,10)" style="font-family: Roboto Condensed; font-size: 10px; fill: #000; opacity: 1;">Apr 21</text><text text-anchor="end" transform="translate(400,10)" style="font-family: Roboto Condensed; font-size: 10px; fill: #000; opacity: 0;">Apr 23</text></g><g class="mark-rule role-axis-domain" style="pointer-events: none;"><line transform="translate(0,0)" x2="400" y2="0" style="fill: none; stroke: lightgray; stroke-width: 1; opacity: 1;"></line></g></g><path class="foreground" d="" style="pointer-events: none; display: none; fill: none;"></path></g></g><g class="mark-group role-axis"><g transform="translate(0.5,0.5)"><path class="background" d="M0,0h0v0h0Z" style="pointer-events: none; fill: none;"></path><g><g class="mark-text role-axis-label" style="pointer-events: none;"><text text-anchor="end" transform="translate(-2,303)" style="font-family: Roboto Condensed; font-size: 10px; fill: #000; opacity: 1;">0</text><text text-anchor="end" transform="translate(-2,269.66666666666663)" style="font-family: Roboto Condensed; font-size: 10px; fill: #000; opacity: 1;">200</text><text text-anchor="end" transform="translate(-2,236.33333333333334)" style="font-family: Roboto Condensed; font-size: 10px; fill: #000; opacity: 1;">400</text><text text-anchor="end" transform="translate(-2,203.00000000000003)" style="font-family: Roboto Condensed; font-size: 10px; fill: #000; opacity: 1;">600</text><text text-anchor="end" transform="translate(-2,169.66666666666669)" style="font-family: Roboto Condensed; font-size: 10px; fill: #000; opacity: 1;">800</text><text text-anchor="end" transform="translate(-2,136.33333333333331)" style="font-family: Roboto Condensed; font-size: 10px; fill: #000; opacity: 1;">1,000</text><text text-anchor="end" transform="translate(-2,103.00000000000001)" style="font-family: Roboto Condensed; font-size: 10px; fill: #000; opacity: 1;">1,200</text><text text-anchor="end" transform="translate(-2,69.66666666666666)" style="font-family: Roboto Condensed; font-size: 10px; fill: #000; opacity: 1;">1,400</text><text text-anchor="end" transform="translate(-2,36.33333333333335)" style="font-family: Roboto Condensed; font-size: 10px; fill: #000; opacity: 1;">1,600</text><text text-anchor="end" transform="translate(-2,3)" style="font-family: Roboto Condensed; font-size: 10px; fill: #000; opacity: 1;">1,800</text></g><g class="mark-rule role-axis-domain" style="pointer-events: none;"><line transform="translate(0,300)" x2="0" y2="-300" style="fill: none; stroke: lightgray; stroke-width: 1; opacity: 1;"></line></g></g><path class="foreground" d="" style="pointer-events: none; display: none; fill: none;"></path></g></g><g class="mark-group role-scope concat_1_pathgroup"><g transform="translate(0,0)"><path class="background" d="M0,0h400v300h-400Z" style="fill: none;"></path><g><g class="mark-line role-mark concat_1_marks" clip-path="url(#clip7)"><path d="M-333.33333333333337,300L-320,300L-306.6666666666667,300L-293.3333333333333,300L-280,300L-266.66666666666663,300L-253.33333333333331,300L-240,300L-226.66666666666666,300L-213.33333333333334,300L-200,300L-186.66666666666666,299.8333333333333L-173.33333333333334,299.8333333333333L-160,299.8333333333333L-146.66666666666666,299.8333333333333L-133.33333333333331,299.8333333333333L-120,298.6666666666667L-106.66666666666667,300L-93.33333333333333,300L-80,299.1666666666667L-66.66666666666666,299.1666666666667L-53.333333333333336,299.1666666666667L-40,296.3333333333333L-26.666666666666668,299.1666666666667L-13.333333333333334,291.5L0,291.5L13.333333333333334,290.6666666666667L26.666666666666668,286.3333333333333L40,283.8333333333333L53.333333333333336,281L66.66666666666666,277.5L80,273.8333333333333L93.33333333333333,267L106.66666666666667,262.5L120,252.66666666666666L133.33333333333331,248.5L146.66666666666666,234L160,228.66666666666669L173.33333333333334,223.33333333333334L186.66666666666666,206.83333333333337L200,194.5L213.33333333333334,185.33333333333331L226.66666666666666,174.83333333333334L240,159.83333333333334L253.33333333333331,151.83333333333334L266.66666666666663,144.5L280,135.16666666666669L293.3333333333333,120.49999999999999L306.6666666666667,109.33333333333334L320,95.99999999999999L333.33333333333337,84.83333333333334L346.6666666666667,84.83333333333334L360,72.99999999999999L373.3333333333333,63.83333333333332L386.6666666666667,56.33333333333334L400,48.499999999999986" style="fill: none; stroke: #e45756; stroke-width: 2; opacity: 0.7;"></path></g></g><path class="foreground" d="" style="display: none; fill: none;"></path></g><g transform="translate(0,0)"><path class="background" d="M0,0h400v300h-400Z" style="fill: none;"></path><g><g class="mark-line role-mark concat_1_marks" clip-path="url(#clip8)"><path d="M-333.33333333333337,300L-320,300L-306.6666666666667,300L-293.3333333333333,300L-280,300L-266.66666666666663,300L-253.33333333333331,300L-240,300L-226.66666666666666,300L-213.33333333333334,300L-200,300L-186.66666666666666,300L-173.33333333333334,300L-160,300L-146.66666666666666,300L-133.33333333333331,300L-120,299.1666666666667L-106.66666666666667,300L-93.33333333333333,299.8333333333333L-80,299.8333333333333L-66.66666666666666,299.8333333333333L-53.333333333333336,300L-40,299.8333333333333L-26.666666666666668,299.8333333333333L-13.333333333333334,299.8333333333333L0,299.6666666666667L13.333333333333334,299.6666666666667L26.666666666666668,299.6666666666667L40,299.6666666666667L53.333333333333336,299.6666666666667L66.66666666666666,299.6666666666667L80,299.6666666666667L93.33333333333333,299.6666666666667L106.66666666666667,299.6666666666667L120,299.3333333333333L133.33333333333331,299.3333333333333L146.66666666666666,299.3333333333333L160,299.3333333333333L173.33333333333334,299L186.66666666666666,299L200,299L213.33333333333334,299L226.66666666666666,298.8333333333333L240,298.6666666666667L253.33333333333331,298.6666666666667L266.66666666666663,298.6666666666667L280,298.6666666666667L293.3333333333333,298.6666666666667L306.6666666666667,298.6666666666667L320,298.5L333.33333333333337,298.5L346.6666666666667,298.5L360,298.3333333333333L373.3333333333333,298.3333333333333L386.6666666666667,298.3333333333333L400,298.3333333333333" style="fill: none; stroke: #f58518; stroke-width: 2; opacity: 0.7;"></path></g></g><path class="foreground" d="" style="display: none; fill: none;"></path></g><g transform="translate(0,0)"><path class="background" d="M0,0h400v300h-400Z" style="fill: none;"></path><g><g class="mark-line role-mark concat_1_marks" clip-path="url(#clip9)"><path d="M-333.33333333333337,299.8333333333333L-320,299.8333333333333L-306.6666666666667,299.5L-293.3333333333333,299L-280,298.1666666666667L-266.66666666666663,295.66666666666663L-253.33333333333331,294.33333333333337L-240,292.83333333333337L-226.66666666666666,291.6666666666667L-213.33333333333334,291.6666666666667L-200,290.3333333333333L-186.66666666666666,288.5L-173.33333333333334,285.8333333333333L-160,282.83333333333337L-146.66666666666666,277.6666666666667L-133.33333333333331,274L-120,271.5L-106.66666666666667,270L-93.33333333333333,263.3333333333333L-80,258.33333333333337L-66.66666666666666,245L-53.333333333333336,231.83333333333334L-40,221.16666666666666L-26.666666666666668,205.33333333333331L-13.333333333333334,202L0,192L13.333333333333334,177.16666666666666L26.666666666666668,166.33333333333334L40,151.66666666666666L53.333333333333336,139.5L66.66666666666666,130L80,118.99999999999999L93.33333333333333,110.83333333333334L106.66666666666667,96.66666666666666L120,80.16666666666667L133.33333333333331,72.66666666666667L146.66666666666666,63.83333333333332L160,52.33333333333332L173.33333333333334,39.66666666666667L186.66666666666666,35.66666666666668L200,30.666666666666664L213.33333333333334,25.33333333333333L226.66666666666666,20.833333333333325L240,18.499999999999993L253.33333333333331,16.500000000000014L266.66666666666663,14.833333333333321L280,13.33333333333332L293.3333333333333,12.16666666666667L306.6666666666667,10.166666666666657L320,7.666666666666666L333.33333333333337,6.666666666666677L346.6666666666667,4.833333333333323L360,4.5000000000000036L373.3333333333333,3.6666666666666736L386.6666666666667,2.499999999999991L400,1.8333333333333202" style="fill: none; stroke: #4c78a8; stroke-width: 2; opacity: 0.7;"></path></g></g><path class="foreground" d="" style="display: none; fill: none;"></path></g></g><g class="mark-group role-title"><g transform="translate(200,-22)"><path class="background" d="M0,0h0v0h0Z" style="pointer-events: none; fill: none;"></path><g><g class="mark-text role-title-text" style="pointer-events: none;"><text text-anchor="middle" transform="translate(0,10)" style="font-family: Roboto Condensed; font-size: 13px; font-weight: normal; fill: #000; opacity: 1;">Total</text></g></g><path class="foreground" d="" style="pointer-events: none; display: none; fill: none;"></path></g></g></g><path class="foreground" d="" style="display: none; fill: none;"></path></g></g><g class="mark-group role-legend"><g transform="translate(863,0)"><path class="background" d="M0,0h60v37h-60Z" style="pointer-events: none; fill: none;"></path><g><g class="mark-group role-legend-entry"><g transform="translate(0,0)"><path class="background" d="M0,0h0v0h0Z" style="pointer-events: none; fill: none;"></path><g><g class="mark-group role-scope"><g transform="translate(0,0)"><path class="background" d="M0,0h59.3251953125v11h-59.3251953125Z" style="pointer-events: none; fill: none; opacity: 1;"></path><g><g class="mark-symbol role-legend-symbol" style="pointer-events: none;"><path transform="translate(6,6)" d="M-5,0L5,0" style="fill: none; stroke: #4c78a8; stroke-width: 1.5; opacity: 1;"></path></g><g class="mark-text role-legend-label" style="pointer-events: none;"><text text-anchor="start" transform="translate(16,9)" style="font-family: Roboto Condensed; font-size: 10px; fill: #000; opacity: 1;">Confirmed</text></g></g><path class="foreground" d="" style="pointer-events: none; display: none; fill: none;"></path></g><g transform="translate(0,13)"><path class="background" d="M0,0h59.3251953125v11h-59.3251953125Z" style="pointer-events: none; fill: none; opacity: 1;"></path><g><g class="mark-symbol role-legend-symbol" style="pointer-events: none;"><path transform="translate(6,6)" d="M-5,0L5,0" style="fill: none; stroke: #f58518; stroke-width: 1.5; opacity: 1;"></path></g><g class="mark-text role-legend-label" style="pointer-events: none;"><text text-anchor="start" transform="translate(16,9)" style="font-family: Roboto Condensed; font-size: 10px; fill: #000; opacity: 1;">Deaths</text></g></g><path class="foreground" d="" style="pointer-events: none; display: none; fill: none;"></path></g><g transform="translate(0,26)"><path class="background" d="M0,0h59.3251953125v11h-59.3251953125Z" style="pointer-events: none; fill: none; opacity: 1;"></path><g><g class="mark-symbol role-legend-symbol" style="pointer-events: none;"><path transform="translate(6,6)" d="M-5,0L5,0" style="fill: none; stroke: #e45756; stroke-width: 1.5; opacity: 1;"></path></g><g class="mark-text role-legend-label" style="pointer-events: none;"><text text-anchor="start" transform="translate(16,9)" style="font-family: Roboto Condensed; font-size: 10px; fill: #000; opacity: 1;">Recovered</text></g></g><path class="foreground" d="" style="pointer-events: none; display: none; fill: none;"></path></g></g></g><path class="foreground" d="" style="pointer-events: none; display: none; fill: none;"></path></g></g></g><path class="foreground" d="" style="pointer-events: none; display: none; fill: none;"></path></g></g></g><path class="foreground" d="" style="display: none; fill: none;"></path></g></g></g></svg>