<svg class="marks" width="1033" height="311" viewBox="0 0 1033 311" version="1.1" xmlns="http://www.w3.org/2000/svg" xmlns:xlink="http://www.w3.org/1999/xlink"><rect width="1033" height="311" style="fill: white;"></rect><defs><clipPath id="clip1"><rect x="0" y="0" width="266.6666666666667" height="266.6666666666667"></rect></clipPath><clipPath id="clip2"><rect x="0" y="0" width="266.6666666666667" height="266.6666666666667"></rect></clipPath><clipPath id="clip3"><rect x="0" y="0" width="266.6666666666667" height="266.6666666666667"></rect></clipPath><clipPath id="clip4"><rect x="0" y="0" width="266.6666666666667" height="266.6666666666667"></rect></clipPath><clipPath id="clip5"><rect x="0" y="0" width="266.6666666666667" height="266.6666666666667"></rect></clipPath><clipPath id="clip6"><rect x="0" y="0" width="266.6666666666667" height="266.6666666666667"></rect></clipPath><clipPath id="clip7"><rect x="0" y="0" width="266.6666666666667" height="266.6666666666667"></rect></clipPath><clipPath id="clip8"><rect x="0" y="0" width="266.6666666666667" height="266.6666666666667"></rect></clipPath><clipPath id="clip9"><rect x="0" y="0" width="266.6666666666667" height="266.6666666666667"></rect></clipPath><clipPath id="clip10"><rect x="0" y="0" width="266.6666666666667" height="266.6666666666667"></rect></clipPath><clipPath id="clip11"><rect x="0" y="0" width="266.6666666666667" height="266.6666666666667"></rect></clipPath><clipPath id="clip12"><rect x="0" y="0" width="266.6666666666667" height="266.6666666666667"></rect></clipPath><clipPath id="clip13"><rect x="0" y="0" width="266.6666666666667" height="266.6666666666667"></rect></clipPath><clipPath id="clip14"><rect x="0" y="0" width="266.6666666666667" height="266.6666666666667"></rect></clipPath><clipPath id="clip15"><rect x="0" y="0" width="266.6666666666667" height="266.6666666666667"></rect></clipPath><clipPath id="clip16"><rect x="0" y="0" width="266.6666666666667" height="266.6666666666667"></rect></clipPath><clipPath id="clip17"><rect x="0" y="0" width="266.6666666666667" height="266.6666666666667"></rect></clipPath><clipPath id="clip18"><rect x="0" y="0" width="266.6666666666667" height="266.6666666666667"></rect></clipPath><clipPath id="clip19"><rect x="0" y="0" width="266.6666666666667" height="266.6666666666667"></rect></clipPath><clipPath id="clip20"><rect x="0" y="0" width="266.6666666666667" height="266.6666666666667"></rect></clipPath><clipPath id="clip21"><rect x="0" y="0" width="266.6666666666667" height="266.6666666666667"></rect></clipPath><clipPath id="clip22"><rect x="0" y="0" width="266.6666666666667" height="266.6666666666667"></rect></clipPath><clipPath id="clip23"><rect x="0" y="0" width="266.6666666666667" height="266.6666666666667"></rect></clipPath><clipPath id="clip24"><rect x="0" y="0" width="266.6666666666667" height="266.6666666666667"></rect></clipPath><clipPath id="clip25"><rect x="0" y="0" width="266.6666666666667" height="266.6666666666667"></rect></clipPath><clipPath id="clip26"><rect x="0" y="0" width="266.6666666666667" height="266.6666666666667"></rect></clipPath><clipPath id="clip27"><rect x="0" y="0" width="266.6666666666667" height="266.6666666666667"></rect></clipPath><clipPath id="clip28"><rect x="0" y="0" width="266.6666666666667" height="266.6666666666667"></rect></clipPath><clipPath id="clip29"><rect x="0" y="0" width="266.6666666666667" height="266.6666666666667"></rect></clipPath><clipPath id="clip30"><rect x="0" y="0" width="266.6666666666667" height="266.6666666666667"></rect></clipPath></defs><g transform="translate(35,27)"><g class="mark-group role-frame root"><g transform="translate(0,0)"><path class="background" d="M0,0h0v0h0Z" style="fill: none;"></path><g><g class="mark-group role-scope concat_0_group"><g transform="translate(0,0)"><path class="background" d="M0,0h0v0h0Z" style="fill: none;"></path><g><g class="mark-group role-scope concat_0_concat_0_group"><g transform="translate(0,0)"><path class="background" d="M0,0h266.6666666666667v266.6666666666667h-266.6666666666667Z" style="fill: none; stroke: #ddd; stroke-width: 0;"></path><g><g class="mark-group role-axis"><g transform="translate(0.5,0.5)"><path class="background" d="M0,0h0v0h0Z" style="pointer-events: none; fill: none;"></path><g><g class="mark-rule role-axis-grid" style="pointer-events: none;"><line transform="translate(0,267)" x2="266.6666666666667" y2="0" style="fill: none; stroke: #ddd; stroke-width: 1; opacity: 1;"></line><line transform="translate(0,229)" x2="266.6666666666667" y2="0" style="fill: none; stroke: #ddd; stroke-width: 1; opacity: 1;"></line><line transform="translate(0,190)" x2="266.6666666666667" y2="0" style="fill: none; stroke: #ddd; stroke-width: 1; opacity: 1;"></line><line transform="translate(0,152)" x2="266.6666666666667" y2="0" style="fill: none; stroke: #ddd; stroke-width: 1; opacity: 1;"></line><line transform="translate(0,114)" x2="266.6666666666667" y2="0" style="fill: none; stroke: #ddd; stroke-width: 1; opacity: 1;"></line><line transform="translate(0,76)" x2="266.6666666666667" y2="0" style="fill: none; stroke: #ddd; stroke-width: 1; opacity: 1;"></line><line transform="translate(0,38)" x2="266.6666666666667" y2="0" style="fill: none; stroke: #ddd; stroke-width: 1; opacity: 1;"></line><line transform="translate(0,0)" x2="266.6666666666667" y2="0" style="fill: none; stroke: #ddd; stroke-width: 1; opacity: 1;"></line></g></g><path class="foreground" d="" style="pointer-events: none; display: none; fill: none;"></path></g></g><g class="mark-group role-axis"><g transform="translate(0.5,267.1666666666667)"><path class="background" d="M0,0h0v0h0Z" style="pointer-events: none; fill: none;"></path><g><g class="mark-text role-axis-label" style="pointer-events: none;"><text text-anchor="middle" transform="translate(44.44444444444444,10)" style="font-family: Roboto Condensed; font-size: 10px; fill: #000; opacity: 1;">Mar 29</text><text text-anchor="middle" transform="translate(106.66666666666669,10)" style="font-family: Roboto Condensed; font-size: 10px; fill: #000; opacity: 1;">Apr 05</text><text text-anchor="middle" transform="translate(168.88888888888889,10)" style="font-family: Roboto Condensed; font-size: 10px; fill: #000; opacity: 1;">Apr 12</text><text text-anchor="middle" transform="translate(231.11111111111114,10)" style="font-family: Roboto Condensed; font-size: 10px; fill: #000; opacity: 1;">Apr 19</text></g><g class="mark-rule role-axis-domain" style="pointer-events: none;"><line transform="translate(0,0)" x2="266.6666666666667" y2="0" style="fill: none; stroke: lightgray; stroke-width: 1; opacity: 1;"></line></g></g><path class="foreground" d="" style="pointer-events: none; display: none; fill: none;"></path></g></g><g class="mark-group role-axis"><g transform="translate(0.5,0.5)"><path class="background" d="M0,0h0v0h0Z" style="pointer-events: none; fill: none;"></path><g><g class="mark-text role-axis-label" style="pointer-events: none;"><text text-anchor="end" transform="translate(-2,269.6666666666667)" style="font-family: Roboto Condensed; font-size: 10px; fill: #000; opacity: 1;">0</text><text text-anchor="end" transform="translate(-2,231.5714285714286)" style="font-family: Roboto Condensed; font-size: 10px; fill: #000; opacity: 1;">5,000</text><text text-anchor="end" transform="translate(-2,193.47619047619048)" style="font-family: Roboto Condensed; font-size: 10px; fill: #000; opacity: 1;">10,000</text><text text-anchor="end" transform="translate(-2,155.38095238095238)" style="font-family: Roboto Condensed; font-size: 10px; fill: #000; opacity: 1;">15,000</text><text text-anchor="end" transform="translate(-2,117.2857142857143)" style="font-family: Roboto Condensed; font-size: 10px; fill: #000; opacity: 1;">20,000</text><text text-anchor="end" transform="translate(-2,79.19047619047619)" style="font-family: Roboto Condensed; font-size: 10px; fill: #000; opacity: 1;">25,000</text><text text-anchor="end" transform="translate(-2,41.09523809523811)" style="font-family: Roboto Condensed; font-size: 10px; fill: #000; opacity: 1;">30,000</text><text text-anchor="end" transform="translate(-2,3)" style="font-family: Roboto Condensed; font-size: 10px; fill: #000; opacity: 1;">35,000</text></g><g class="mark-rule role-axis-domain" style="pointer-events: none;"><line transform="translate(0,266.6666666666667)" x2="0" y2="-266.6666666666667" style="fill: none; stroke: lightgray; stroke-width: 1; opacity: 1;"></line></g></g><path class="foreground" d="" style="pointer-events: none; display: none; fill: none;"></path></g></g><g class="mark-group role-scope concat_0_concat_0_pathgroup"><g transform="translate(0,0)"><path class="background" d="M0,0h266.6666666666667v266.6666666666667h-266.6666666666667Z" style="fill: none;"></path><g><g class="mark-line role-mark concat_0_concat_0_marks" clip-path="url(#clip1)"><path d="M-204.44444444444449,266.6666666666667L-195.55555555555554,266.6666666666667L-186.66666666666666,266.6666666666667L-177.77777777777777,266.6666666666667L-168.88888888888889,266.6666666666667L-160,266.6666666666667L-151.11111111111111,265.14176870748304L-142.22222222222223,265.71646258503404L-133.33333333333334,265.8949659863946L-124.44444444444446,266.007074829932L-115.55555555555557,265.9591836734694L-106.66666666666669,266.11156462585035L-97.77777777777777,266.261768707483L-88.88888888888889,266.31292517006807L-80,266.3357823129252L-71.11111111111111,266.3423129251701L-62.22222222222223,266.3390476190476L-53.33333333333334,266.4696598639456L-44.44444444444444,266.42285714285714L-35.55555555555556,266.33469387755105L-26.66666666666667,266.30965986394557L-17.77777777777778,266.23782312925175L-8.88888888888889,266.1627210884354L0,266.0865306122449L8.88888888888889,266.058231292517L17.77777777777778,265.985306122449L26.66666666666667,265.96244897959184L35.55555555555556,265.9112925170068L44.44444444444444,265.8775510204082L53.33333333333334,265.9025850340136L62.22222222222223,265.9178231292517L71.11111111111111,265.9047619047619L80,265.9591836734694L88.88888888888889,265.9983673469388L97.77777777777777,266.0745578231293L106.66666666666669,266.14421768707484L115.55555555555557,266.1583673469388L124.44444444444446,266.188843537415L133.33333333333334,266.17904761904765L142.22222222222223,266.17578231292515L151.11111111111111,266.1986394557823L160,266.1540136054422L168.88888888888889,266.08761904761906L177.77777777777777,266.07020408163265L186.66666666666666,266.0266666666667L195.55555555555554,266.07129251700684L204.44444444444449,266.1006802721089L213.33333333333337,265.77523809523814L222.22222222222226,265.825306122449L231.11111111111114,265.9363265306123L240.00000000000003,266.0092517006803L248.8888888888889,266.07129251700684L257.77777777777777,266.1093877551021L266.6666666666667,266.1431292517007" style="fill: none; stroke: #4c78a8; stroke-width: 2; opacity: 1;"></path></g></g><path class="foreground" d="" style="display: none; fill: none;"></path></g><g transform="translate(0,0)"><path class="background" d="M0,0h266.6666666666667v266.6666666666667h-266.6666666666667Z" style="fill: none;"></path><g><g class="mark-line role-mark concat_0_concat_0_marks" clip-path="url(#clip2)"><path d="M-204.44444444444449,266.6666666666667L-195.55555555555554,266.6666666666667L-186.66666666666666,266.6666666666667L-177.77777777777777,266.6666666666667L-168.88888888888889,266.6666666666667L-160,266.6666666666667L-151.11111111111111,265.74258503401364L-142.22222222222223,265.5825850340136L-133.33333333333334,265.5586394557823L-124.44444444444446,264.9469387755102L-115.55555555555557,264.49088435374154L-106.66666666666669,264.5910204081633L-97.77777777777777,263.3861224489796L-88.88888888888889,262.8234013605442L-80,262.9801360544218L-71.11111111111111,260.74448979591835L-62.22222222222223,260.2459863945578L-53.33333333333334,259.3001360544218L-44.44444444444444,257.3039455782313L-35.55555555555556,256.90884353741495L-26.66666666666667,255.96952380952382L-17.77777777777778,253.9308843537415L-8.88888888888889,252.00217687074831L0,250.40653061224492L8.88888888888889,248.6552380952381L17.77777777777778,246.3510204081633L26.66666666666667,244.05986394557823L35.55555555555556,240.76517006802723L44.44444444444444,240.0065306122449L53.33333333333334,239.40462585034015L62.22222222222223,233.7904761904762L71.11111111111111,231.67455782312928L80,233.60217687074834L88.88888888888889,232.0544217687075L97.77777777777777,209.25931972789118L106.66666666666669,208.90884353741498L115.55555555555557,208.11646258503401L124.44444444444446,204.36680272108848L133.33333333333334,205.4857142857143L142.22222222222223,202.61006802721093L151.11111111111111,200.56707482993198L160,223.2609523809524L168.88888888888889,223.2413605442177L177.77777777777777,224.31346938775513L186.66666666666666,243.48734693877552L195.55555555555554,244.21986394557825L204.44444444444449,235.85306122448984L213.33333333333337,241.41605442176873L222.22222222222226,246.61551020408166L231.11111111111114,244.4331972789116L240.00000000000003,246.41632653061225L248.8888888888889,236.2601360544218L257.77777777777777,242.13006802721088L266.6666666666667,253.20380952380955" style="fill: none; stroke: #f58518; stroke-width: 2; opacity: 1;"></path></g></g><path class="foreground" d="" style="display: none; fill: none;"></path></g><g transform="translate(0,0)"><path class="background" d="M0,0h266.6666666666667v266.6666666666667h-266.6666666666667Z" style="fill: none;"></path><g><g class="mark-line role-mark concat_0_concat_0_marks" clip-path="url(#clip3)"><path d="M-204.44444444444449,266.6666666666667L-195.55555555555554,266.6666666666667L-186.66666666666666,266.6666666666667L-177.77777777777777,266.6666666666667L-168.88888888888889,266.6666666666667L-160,266.6666666666667L-151.11111111111111,265.88299319727895L-142.22222222222223,265.6761904761905L-133.33333333333334,265.55972789115646L-124.44444444444446,265.294149659864L-115.55555555555557,264.87510204081633L-106.66666666666669,264.92952380952386L-97.77777777777777,263.39591836734695L-88.88888888888889,262.5458503401361L-80,261.491156462585L-71.11111111111111,260.03156462585036L-62.22222222222223,258.17687074829934L-53.33333333333334,255.3262585034014L-44.44444444444444,252.25360544217688L-35.55555555555556,249.06340136054422L-26.66666666666667,247.47972789115647L-17.77777777777778,245.90149659863948L-8.88888888888889,242.9561904761905L0,240.83918367346942L8.88888888888889,239.46013605442178L17.77777777777778,235.51782312925172L26.66666666666667,232.90013605442178L35.55555555555556,228.04680272108845L44.44444444444444,226.15292517006804L53.33333333333334,225.4922448979592L62.22222222222223,224.4114285714286L71.11111111111111,222.53170068027214L80,222.19755102040816L88.88888888888889,222.8157823129252L97.77777777777777,224.87401360544217L106.66666666666669,225.27564625850343L115.55555555555557,226.95074829931974L124.44444444444446,227.64081632653063L133.33333333333334,228.10993197278913L142.22222222222223,230.327074829932L151.11111111111111,232.91210884353742L160,235.30231292517007L168.88888888888889,236.48326530612246L177.77777777777777,237.60761904761907L186.66666666666666,240.87510204081636L195.55555555555554,243.31210884353743L204.44444444444449,245.42367346938775L213.33333333333337,245.74040816326533L222.22222222222226,246.60244897959186L231.11111111111114,247.80408163265307L240.00000000000003,248.1708843537415L248.8888888888889,248.23727891156463L257.77777777777777,249.36598639455784L266.6666666666667,249.8710204081633" style="fill: none; stroke: #e45756; stroke-width: 2; opacity: 1;"></path></g></g><path class="foreground" d="" style="display: none; fill: none;"></path></g><g transform="translate(0,0)"><path class="background" d="M0,0h266.6666666666667v266.6666666666667h-266.6666666666667Z" style="fill: none;"></path><g><g class="mark-line role-mark concat_0_concat_0_marks" clip-path="url(#clip4)"><path d="M-204.44444444444449,266.6666666666667L-195.55555555555554,266.6666666666667L-186.66666666666666,266.6666666666667L-177.77777777777777,266.6666666666667L-168.88888888888889,266.6666666666667L-160,266.6666666666667L-151.11111111111111,260.97414965986394L-142.22222222222223,260.5844897959184L-133.33333333333334,260.5061224489796L-124.44444444444446,260.4560544217687L-115.55555555555557,260.0511564625851L-106.66666666666669,259.5243537414966L-97.77777777777777,259.4644897959184L-88.88888888888889,259.14993197278915L-80,258.6427210884354L-71.11111111111111,258.14421768707484L-62.22222222222223,257.8209523809524L-53.33333333333334,257.5662585034014L-44.44444444444444,257.5978231292517L-35.55555555555556,257.6544217687075L-26.66666666666667,258.0887074829932L-17.77777777777778,258.2857142857143L-8.88888888888889,257.8960544217687L0,257.2604081632653L8.88888888888889,256.1567346938776L17.77777777777778,254.69496598639458L26.66666666666667,252.8565986394558L35.55555555555556,250.56L44.44444444444444,248.5213605442177L53.33333333333334,246.58938775510205L62.22222222222223,245.1221768707483L71.11111111111111,244.27102040816328L80,243.74204081632655L88.88888888888889,243.9717006802721L97.77777777777777,244.53333333333336L106.66666666666669,244.98829931972793L115.55555555555557,245.98095238095237L124.44444444444446,247.09224489795918L133.33333333333334,248.1708843537415L142.22222222222223,249.52163265306123L151.11111111111111,250.33034013605445L160,251.11727891156463L168.88888888888889,252.01632653061225L177.77777777777777,252.73142857142858L186.66666666666666,253.29197278911568L195.55555555555554,253.81986394557825L204.44444444444449,253.85034013605446L213.33333333333337,254.36517006802723L222.22222222222226,254.8691156462585L231.11111111111114,255.2108843537415L240.00000000000003,255.56244897959186L248.8888888888889,255.86394557823132L257.77777777777777,256.2100680272109L266.6666666666667,256.83700680272113" style="fill: none; stroke: #72b7b2; stroke-width: 2; opacity: 1;"></path></g></g><path class="foreground" d="" style="display: none; fill: none;"></path></g><g transform="translate(0,0)"><path class="background" d="M0,0h266.6666666666667v266.6666666666667h-266.6666666666667Z" style="fill: none;"></path><g><g class="mark-line role-mark concat_0_concat_0_marks" clip-path="url(#clip5)"><path d="M-204.44444444444449,266.6666666666667L-195.55555555555554,266.6666666666667L-186.66666666666666,266.6666666666667L-177.77777777777777,266.6666666666667L-168.88888888888889,266.6666666666667L-160,266.6666666666667L-151.11111111111111,261.491156462585L-142.22222222222223,260.48326530612246L-133.33333333333334,258.8995918367347L-124.44444444444446,258.34340136054425L-115.55555555555557,256.46476190476193L-106.66666666666669,257.301768707483L-97.77777777777777,252.4908843537415L-88.88888888888889,250.0419047619048L-80,247.7583673469388L-71.11111111111111,246.19537414965987L-62.22222222222223,243.4209523809524L-53.33333333333334,241.35945578231292L-44.44444444444444,235.56680272108846L-35.55555555555556,234.7091156462585L-26.66666666666667,231.37850340136058L-17.77777777777778,229.23428571428573L-8.88888888888889,227.54068027210886L0,225.66530612244898L8.88888888888889,224.57360544217687L17.77777777777778,223.61469387755102L26.66666666666667,223.69850340136057L35.55555555555556,224.33306122448982L44.44444444444444,224.70639455782313L53.33333333333334,225.51074829931977L62.22222222222223,226.81251700680275L71.11111111111111,227.2783673469388L80,228.94911564625852L88.88888888888889,230.39020408163267L97.77777777777777,231.6625850340136L106.66666666666669,232.64326530612246L115.55555555555557,233.134149659864L124.44444444444446,234.23782312925172L133.33333333333334,235.2674829931973L142.22222222222223,235.77251700680273L151.11111111111111,236.4625850340136L160,236.58340136054423L168.88888888888889,236.82721088435375L177.77777777777777,237.3126530612245L186.66666666666666,237.38557823129253L195.55555555555554,238.6579591836735L204.44444444444449,239.11292517006802L213.33333333333337,239.61142857142858L222.22222222222226,240.92081632653063L231.11111111111114,242.05823129251704L240.00000000000003,243.03455782312926L248.8888888888889,243.29904761904766L257.77777777777777,242.53387755102042L266.6666666666667,243.77469387755102" style="fill: none; stroke: #54a24b; stroke-width: 2; opacity: 1;"></path></g></g><path class="foreground" d="" style="display: none; fill: none;"></path></g><g transform="translate(0,0)"><path class="background" d="M0,0h266.6666666666667v266.6666666666667h-266.6666666666667Z" style="fill: none;"></path><g><g class="mark-line role-mark concat_0_concat_0_marks" clip-path="url(#clip6)"><path d="M-204.44444444444449,266.6666666666667L-195.55555555555554,266.6666666666667L-186.66666666666666,266.6666666666667L-177.77777777777777,266.6666666666667L-168.88888888888889,266.6666666666667L-160,266.6666666666667L-151.11111111111111,266.65469387755104L-142.22222222222223,266.6503401360544L-133.33333333333334,266.6514285714286L-115.55555555555557,266.64816326530615L-106.66666666666669,266.63945578231295L-97.77777777777777,266.62204081632655L-88.88888888888889,266.6165986394558L-80,266.6122448979592L-71.11111111111111,266.58721088435374L-62.22222222222223,266.56108843537413L-53.33333333333334,266.5284353741497L-44.44444444444444,266.4805442176871L-35.55555555555556,266.44027210884354L-26.66666666666667,266.3978231292517L-17.77777777777778,266.3357823129252L-8.88888888888889,266.2878911564626L0,266.25197278911565L8.88888888888889,266.1104761904762L17.77777777777778,265.9689795918367L26.66666666666667,265.8144217687075L35.55555555555556,265.6239455782313L44.44444444444444,265.39646258503404L53.33333333333334,265.1450340136055L62.22222222222223,264.661768707483L71.11111111111111,264.36027210884356L80,263.7191836734694L88.88888888888889,263.2783673469388L97.77777777777777,262.8930612244898L106.66666666666669,262.4707482993198L115.55555555555557,261.7610884353742L124.44444444444446,261.05034013605444L133.33333333333334,260.25034013605443L142.22222222222223,259.50149659863945L151.11111111111111,258.2117006802721L160,257.0307482993198L168.88888888888889,255.36761904761906L177.77777777777777,253.621768707483L186.66666666666666,251.85850340136057L195.55555555555554,249.44979591836736L204.44444444444449,247.28489795918367L213.33333333333337,244.79891156462588L222.22222222222226,241.40517006802722L231.11111111111114,237.18857142857144L240.00000000000003,235.32734693877552L248.8888888888889,232.2057142857143L257.77777777777777,230.19428571428574L266.6666666666667,228.75102040816327" style="fill: none; stroke: #eeca3b; stroke-width: 2; opacity: 1;"></path></g></g><path class="foreground" d="" style="display: none; fill: none;"></path></g><g transform="translate(0,0)"><path class="background" d="M0,0h266.6666666666667v266.6666666666667h-266.6666666666667Z" style="fill: none;"></path><g><g class="mark-line role-mark concat_0_concat_0_marks" clip-path="url(#clip7)"><path d="M-204.44444444444449,266.6666666666667L-195.55555555555554,266.6666666666667L-186.66666666666666,266.6666666666667L-177.77777777777777,266.6666666666667L-168.88888888888889,266.6666666666667L-160,266.6666666666667L-151.11111111111111,266.1714285714286L-142.22222222222223,266.0255782312925L-133.33333333333334,265.6293877551021L-124.44444444444446,265.0013605442177L-115.55555555555557,264.4299319727891L-106.66666666666669,264.4702040816327L-97.77777777777777,261.4073469387755L-88.88888888888889,260.25469387755106L-80,258.91156462585036L-71.11111111111111,257.0133333333333L-62.22222222222223,255.72462585034015L-53.33333333333334,254.0048979591837L-44.44444444444444,249.59346938775514L-35.55555555555556,250.14639455782316L-26.66666666666667,246.0048979591837L-17.77777777777778,244.021768707483L-8.88888888888889,239.24462585034016L0,236.04136054421772L8.88888888888889,227.91292517006804L17.77777777777778,223.3219047619048L26.66666666666667,217.35074829931975L35.55555555555556,214.57306122448983L44.44444444444444,210.60462585034014L53.33333333333334,209.17551020408166L62.22222222222223,205.67292517006803L71.11111111111111,207.23482993197283L80,207.58748299319728L88.88888888888889,208.45714285714286L97.77777777777777,209.05251700680276L106.66666666666669,210.5730612244898L115.55555555555557,213.63918367346938L124.44444444444446,216.5779591836735L133.33333333333334,218.6644897959184L142.22222222222223,221.86993197278915L151.11111111111111,224.1371428571429L160,226.54802721088436L168.88888888888889,228.3700680272109L177.77777777777777,230.28680272108846L186.66666666666666,233.36163265306124L195.55555555555554,234.64054421768708L204.44444444444449,232.13496598639458L213.33333333333337,231.22068027210886L222.22222222222226,235.42965986394557L231.11111111111114,232.00761904761904L240.00000000000003,233.89278911564628L248.8888888888889,232.2318367346939L257.77777777777777,233.20272108843537L266.6666666666667,236.10775510204084" style="fill: none; stroke: #b279a2; stroke-width: 2; opacity: 1;"></path></g></g><path class="foreground" d="" style="display: none; fill: none;"></path></g><g transform="translate(0,0)"><path class="background" d="M0,0h266.6666666666667v266.6666666666667h-266.6666666666667Z" style="fill: none;"></path><g><g class="mark-line role-mark concat_0_concat_0_marks" clip-path="url(#clip8)"><path d="M-115.55555555555557,266.6666666666667L-106.66666666666669,266.6666666666667L-97.77777777777777,266.6666666666667L-88.88888888888889,266.6666666666667L-80,266.6666666666667L-71.11111111111111,266.6666666666667L-62.22222222222223,266.6666666666667L-53.33333333333334,266.56108843537413L-44.44444444444444,266.4587755102041L-35.55555555555556,266.2813605442177L-26.66666666666667,265.9428571428572L-17.77777777777778,265.3278911564626L-8.88888888888889,265.0220408163265L0,264.68027210884355L8.88888888888889,264.1251700680272L17.77777777777778,262.9257142857143L26.66666666666667,260.85551020408167L35.55555555555556,259.33931972789117L44.44444444444444,257.97986394557824L53.33333333333334,256.54639455782313L62.22222222222223,253.9765986394558L71.11111111111111,252.2492517006803L80,250.87782312925174L88.88888888888889,250.09741496598642L97.77777777777777,248.6726530612245L106.66666666666669,247.23591836734695L115.55555555555557,245.56190476190477L124.44444444444446,244.26884353741497L133.33333333333334,242.12571428571428L142.22222222222223,240.38421768707485L151.11111111111111,238.24979591836737L160,235.93687074829936L168.88888888888889,234.1365986394558L177.77777777777777,233.1080272108844L186.66666666666666,232.9229931972789L195.55555555555554,232.74448979591838L204.44444444444449,231.9336054421769L213.33333333333337,232.36244897959185L222.22222222222226,233.83727891156465L231.11111111111114,234.72108843537416L240.00000000000003,234.08870748299321L248.8888888888889,233.49115646258505L257.77777777777777,234.79510204081635L266.6666666666667,236.6291156462585" style="fill: none; stroke: #ff9da6; stroke-width: 2; opacity: 1;"></path></g></g><path class="foreground" d="" style="display: none; fill: none;"></path></g><g transform="translate(0,0)"><path class="background" d="M0,0h266.6666666666667v266.6666666666667h-266.6666666666667Z" style="fill: none;"></path><g><g class="mark-line role-mark concat_0_concat_0_marks" clip-path="url(#clip9)"><path d="M-204.44444444444449,266.6666666666667L-195.55555555555554,266.6666666666667L-186.66666666666666,266.6666666666667L-177.77777777777777,266.6666666666667L-168.88888888888889,266.6666666666667L-160,266.6666666666667L-151.11111111111111,266.2889795918367L-142.22222222222223,266.1648979591837L-133.33333333333334,266.11809523809524L-124.44444444444446,265.7556462585034L-115.55555555555557,265.43891156462587L-106.66666666666669,265.0971428571429L-97.77777777777777,264.59755102040816L-88.88888888888889,264.15346938775514L-80,263.4427210884354L-71.11111111111111,262.283537414966L-62.22222222222223,260.72163265306125L-53.33333333333334,259.58639455782316L-44.44444444444444,253.58693877551022L-35.55555555555556,248.24816326530612L-26.66666666666667,241.86340136054423L-17.77777777777778,233.63374149659865L-8.88888888888889,224.18394557823132L0,215.16734693877552L8.88888888888889,203.54612244897962L17.77777777777778,190.30639455782315L26.66666666666667,176.80979591836734L35.55555555555556,162.23020408163265L44.44444444444444,150.13768707482996L53.33333333333334,138.04843537414965L62.22222222222223,120.341768707483L71.11111111111111,106.02013605442178L80,92.77496598639456L88.88888888888889,77.35619047619048L97.77777777777777,62.70693877551021L106.66666666666669,53.155918367346935L115.55555555555557,43.71591836734694L124.44444444444446,40.21659863945579L133.33333333333334,31.91292517006801L142.22222222222223,29.564081632653053L151.11111111111111,26.177959183673465L160,29.885170068027232L168.88888888888889,29.125442176870745L177.77777777777777,33.79374149659865L186.66666666666666,36.52027210884352L195.55555555555554,41.036190476190484L204.44444444444449,42.05278911564626L213.33333333333337,45.52816326530612L222.22222222222226,42.66557823129252L231.11111111111114,44.87292517006804L240.00000000000003,44.9447619047619L248.8888888888889,44.22748299319726L257.77777777777777,45.36054421768707L266.6666666666667,47.48952380952382" style="fill: none; stroke: #9d755d; stroke-width: 2; opacity: 1;"></path></g></g><path class="foreground" d="" style="display: none; fill: none;"></path></g><g transform="translate(0,0)"><path class="background" d="M0,0h266.6666666666667v266.6666666666667h-266.6666666666667Z" style="fill: none;"></path><g><g class="mark-line role-mark concat_0_concat_0_marks" clip-path="url(#clip10)"><path d="M-115.55555555555557,266.6666666666667L-106.66666666666669,266.6666666666667L-97.77777777777777,266.6666666666667L-88.88888888888889,266.6666666666667L-80,266.6666666666667L-71.11111111111111,266.6666666666667L-62.22222222222223,266.6666666666667L-53.33333333333334,264.29061224489794L-44.44444444444444,264.2100680272109L-35.55555555555556,263.1695238095238L-26.66666666666667,262.3956462585034L-17.77777777777778,261.6631292517007L-8.88888888888889,261.0340136054422L0,259.9140136054422L8.88888888888889,259.04979591836735L17.77777777777778,256.7662585034014L26.66666666666667,254.9866666666667L35.55555555555556,253.3387755102041L44.44444444444444,251.38612244897962L53.33333333333334,249.548843537415L62.22222222222223,247.81823129251703L71.11111111111111,244.6530612244898L80,242.32816326530613L88.88888888888889,240.60517006802723L97.77777777777777,239.2761904761905L106.66666666666669,235.47646258503403L115.55555555555557,234.20299319727894L124.44444444444446,233.50421768707483L133.33333333333334,232.26231292517008L142.22222222222223,232.16435374149663L151.11111111111111,227.57442176870748L160,225.96244897959187L168.88888888888889,226.6448979591837L177.77777777777777,226.0778231292517L186.66666666666666,224.3308843537415L195.55555555555554,225.29632653061228L204.44444444444449,225.00897959183675L213.33333333333337,228.39292517006805L222.22222222222226,228.09251700680272L231.11111111111114,227.52L240.00000000000003,227.17170068027212L248.8888888888889,228.21551020408162L257.77777777777777,228.4027210884354L266.6666666666667,228.46149659863949" style="fill: none; stroke: #bab0ac; stroke-width: 2; opacity: 1;"></path></g></g><path class="foreground" d="" style="display: none; fill: none;"></path></g></g><g class="mark-group role-title"><g transform="translate(133.33333333333334,-22)"><path class="background" d="M0,0h0v0h0Z" style="pointer-events: none; fill: none;"></path><g><g class="mark-text role-title-text" style="pointer-events: none;"><text text-anchor="middle" transform="translate(0,10)" style="font-family: Roboto Condensed; font-size: 13px; font-weight: normal; fill: #000; opacity: 1;">Confirmed/7-day average</text></g></g><path class="foreground" d="" style="pointer-events: none; display: none; fill: none;"></path></g></g></g><path class="foreground" d="" style="display: none; fill: none;"></path></g></g><g class="mark-group role-scope concat_0_concat_1_group"><g transform="translate(312,0)"><path class="background" d="M0,0h266.6666666666667v266.6666666666667h-266.6666666666667Z" style="fill: none; stroke: #ddd; stroke-width: 0;"></path><g><g class="mark-group role-axis"><g transform="translate(0.5,0.5)"><path class="background" d="M0,0h0v0h0Z" style="pointer-events: none; fill: none;"></path><g><g class="mark-rule role-axis-grid" style="pointer-events: none;"><line transform="translate(0,267)" x2="266.6666666666667" y2="0" style="fill: none; stroke: #ddd; stroke-width: 1; opacity: 1;"></line><line transform="translate(0,219)" x2="266.6666666666667" y2="0" style="fill: none; stroke: #ddd; stroke-width: 1; opacity: 1;"></line><line transform="translate(0,171)" x2="266.6666666666667" y2="0" style="fill: none; stroke: #ddd; stroke-width: 1; opacity: 1;"></line><line transform="translate(0,124)" x2="266.6666666666667" y2="0" style="fill: none; stroke: #ddd; stroke-width: 1; opacity: 1;"></line><line transform="translate(0,76)" x2="266.6666666666667" y2="0" style="fill: none; stroke: #ddd; stroke-width: 1; opacity: 1;"></line><line transform="translate(0,29)" x2="266.6666666666667" y2="0" style="fill: none; stroke: #ddd; stroke-width: 1; opacity: 1;"></line></g></g><path class="foreground" d="" style="pointer-events: none; display: none; fill: none;"></path></g></g><g class="mark-group role-axis"><g transform="translate(0.5,267.1666666666667)"><path class="background" d="M0,0h0v0h0Z" style="pointer-events: none; fill: none;"></path><g><g class="mark-text role-axis-label" style="pointer-events: none;"><text text-anchor="middle" transform="translate(44.44444444444444,10)" style="font-family: Roboto Condensed; font-size: 10px; fill: #000; opacity: 1;">Mar 29</text><text text-anchor="middle" transform="translate(106.66666666666669,10)" style="font-family: Roboto Condensed; font-size: 10px; fill: #000; opacity: 1;">Apr 05</text><text text-anchor="middle" transform="translate(168.88888888888889,10)" style="font-family: Roboto Condensed; font-size: 10px; fill: #000; opacity: 1;">Apr 12</text><text text-anchor="middle" transform="translate(231.11111111111114,10)" style="font-family: Roboto Condensed; font-size: 10px; fill: #000; opacity: 1;">Apr 19</text></g><g class="mark-rule role-axis-domain" style="pointer-events: none;"><line transform="translate(0,0)" x2="266.6666666666667" y2="0" style="fill: none; stroke: lightgray; stroke-width: 1; opacity: 1;"></line></g></g><path class="foreground" d="" style="pointer-events: none; display: none; fill: none;"></path></g></g><g class="mark-group role-axis"><g transform="translate(0.5,0.5)"><path class="background" d="M0,0h0v0h0Z" style="pointer-events: none; fill: none;"></path><g><g class="mark-text role-axis-label" style="pointer-events: none;"><text text-anchor="end" transform="translate(-2,269.6666666666667)" style="font-family: Roboto Condensed; font-size: 10px; fill: #000; opacity: 1;">0</text><text text-anchor="end" transform="translate(-2,222.04761904761907)" style="font-family: Roboto Condensed; font-size: 10px; fill: #000; opacity: 1;">500</text><text text-anchor="end" transform="translate(-2,174.42857142857142)" style="font-family: Roboto Condensed; font-size: 10px; fill: #000; opacity: 1;">1,000</text><text text-anchor="end" transform="translate(-2,126.80952380952382)" style="font-family: Roboto Condensed; font-size: 10px; fill: #000; opacity: 1;">1,500</text><text text-anchor="end" transform="translate(-2,79.19047619047619)" style="font-family: Roboto Condensed; font-size: 10px; fill: #000; opacity: 1;">2,000</text><text text-anchor="end" transform="translate(-2,31.571428571428562)" style="font-family: Roboto Condensed; font-size: 10px; fill: #000; opacity: 1;">2,500</text></g><g class="mark-rule role-axis-domain" style="pointer-events: none;"><line transform="translate(0,266.6666666666667)" x2="0" y2="-266.6666666666667" style="fill: none; stroke: lightgray; stroke-width: 1; opacity: 1;"></line></g></g><path class="foreground" d="" style="pointer-events: none; display: none; fill: none;"></path></g></g><g class="mark-group role-scope concat_0_concat_1_pathgroup"><g transform="translate(0,0)"><path class="background" d="M0,0h266.6666666666667v266.6666666666667h-266.6666666666667Z" style="fill: none;"></path><g><g class="mark-line role-mark concat_0_concat_1_marks" clip-path="url(#clip11)"><path d="M-204.44444444444449,266.6666666666667L-195.55555555555554,266.6666666666667L-186.66666666666666,266.6666666666667L-177.77777777777777,266.6666666666667L-168.88888888888889,266.6666666666667L-160,266.6666666666667L-151.11111111111111,263.46938775510205L-142.22222222222223,263.57823129251705L-133.33333333333334,263.8367346938776L-124.44444444444446,264.0680272108844L-115.55555555555557,264.21768707482994L-106.66666666666669,264.5034013605443L-97.77777777777777,264.7891156462585L-88.88888888888889,264.99319727891157L-80,265.2244897959184L-71.11111111111111,265.34693877551024L-62.22222222222223,265.38775510204084L-53.33333333333334,265.578231292517L-44.44444444444444,265.61904761904765L-35.55555555555556,265.6734693877551L-26.66666666666667,265.7687074829932L-17.77777777777778,265.8231292517007L-8.88888888888889,265.89115646258506L0,265.97278911564626L8.88888888888889,266.06802721088434L17.77777777777778,266.09523809523813L26.66666666666667,266.08163265306126L35.55555555555556,266.12244897959187L44.44444444444444,266.13605442176873L53.33333333333334,266.2040816326531L62.22222222222223,266.2857142857143L71.11111111111111,266.2448979591837L80,266.2448979591837L88.88888888888889,266.2585034013606L97.77777777777777,266.2448979591837L106.66666666666669,266.2721088435374L115.55555555555557,266.2993197278912L124.44444444444446,266.31292517006807L133.33333333333334,266.3809523809524L142.22222222222223,266.4353741496599L151.11111111111111,266.4761904761905L160,266.48979591836735L168.88888888888889,266.530612244898L177.77777777777777,266.530612244898L186.66666666666666,266.530612244898L195.55555555555554,266.5442176870748L204.44444444444449,266.5714285714286L213.33333333333337,249.0340136054422L222.22222222222226,249.0748299319728L231.11111111111114,249.0748299319728L240.00000000000003,249.10204081632656L248.8888888888889,249.10204081632656L257.77777777777777,249.11564625850343L266.6666666666667,249.11564625850343" style="fill: none; stroke: #4c78a8; stroke-width: 2; opacity: 1;"></path></g></g><path class="foreground" d="" style="display: none; fill: none;"></path></g><g transform="translate(0,0)"><path class="background" d="M0,0h266.6666666666667v266.6666666666667h-266.6666666666667Z" style="fill: none;"></path><g><g class="mark-line role-mark concat_0_concat_1_marks" clip-path="url(#clip12)"><path d="M-204.44444444444449,266.6666666666667L-195.55555555555554,266.6666666666667L-186.66666666666666,266.6666666666667L-177.77777777777777,266.6666666666667L-168.88888888888889,266.6666666666667L-160,266.6666666666667L-151.11111111111111,266.5442176870748L-142.22222222222223,266.4353741496599L-133.33333333333334,266.44897959183675L-124.44444444444446,266.2721088435374L-115.55555555555557,266.06802721088434L-106.66666666666669,266.09523809523813L-97.77777777777777,265.7142857142857L-88.88888888888889,265.578231292517L-80,265.687074829932L-71.11111111111111,264.91156462585036L-62.22222222222223,265.10204081632656L-53.33333333333334,265.30612244897964L-44.44444444444444,264.01360544217687L-35.55555555555556,261.61904761904765L-26.66666666666667,260.25850340136054L-17.77777777777778,258.7074829931973L-8.88888888888889,256.95238095238096L0,253.687074829932L8.88888888888889,250.54421768707485L17.77777777777778,246.87074829931976L26.66666666666667,245.61904761904762L35.55555555555556,242.7891156462585L44.44444444444444,240.34013605442178L53.33333333333334,237.1700680272109L62.22222222222223,233.60544217687078L71.11111111111111,229.79591836734693L80,216.32653061224494L88.88888888888889,205.1292517006803L97.77777777777777,195.14285714285714L106.66666666666669,192.08163265306123L115.55555555555557,186.44897959183675L124.44444444444446,174.00000000000003L133.33333333333334,173.55102040816328L142.22222222222223,173.7414965986395L151.11111111111111,175.57823129251702L160,181.265306122449L168.88888888888889,180.69387755102042L177.77777777777777,184.21768707482994L186.66666666666666,193.12925170068027L195.55555555555554,180.9387755102041L204.44444444444449,188.9387755102041L213.33333333333337,192L222.22222222222226,191.9183673469388L231.11111111111114,194.12244897959184L240.00000000000003,194.4761904761905L248.8888888888889,197.53741496598641L257.77777777777777,209.7278911564626L266.6666666666667,212.95238095238096" style="fill: none; stroke: #f58518; stroke-width: 2; opacity: 1;"></path></g></g><path class="foreground" d="" style="display: none; fill: none;"></path></g><g transform="translate(0,0)"><path class="background" d="M0,0h266.6666666666667v266.6666666666667h-266.6666666666667Z" style="fill: none;"></path><g><g class="mark-line role-mark concat_0_concat_1_marks" clip-path="url(#clip13)"><path d="M-204.44444444444449,266.6666666666667L-195.55555555555554,266.6666666666667L-186.66666666666666,266.6666666666667L-177.77777777777777,266.6666666666667L-168.88888888888889,266.6666666666667L-160,266.6666666666667L-151.11111111111111,266.6666666666667L-142.22222222222223,266.6666666666667L-133.33333333333334,266.63945578231295L-124.44444444444446,266.63945578231295L-115.55555555555557,266.6258503401361L-106.66666666666669,266.6258503401361L-97.77777777777777,266.5714285714286L-88.88888888888889,266.5442176870748L-80,266.5170068027211L-71.11111111111111,266.4625850340136L-62.22222222222223,266.36734693877554L-53.33333333333334,266.3265306122449L-44.44444444444444,266.108843537415L-35.55555555555556,265.85034013605446L-26.66666666666667,265.6462585034014L-17.77777777777778,265.5374149659864L-8.88888888888889,265.2244897959184L0,264.8571428571429L8.88888888888889,264.2448979591837L17.77777777777778,263.6326530612245L26.66666666666667,262.9251700680272L35.55555555555556,261.9183673469388L44.44444444444444,260.6938775510204L53.33333333333334,259.5646258503401L62.22222222222223,258.25850340136054L71.11111111111111,256.95238095238096L80,255.23809523809527L88.88888888888889,253.97278911564626L97.77777777777777,252.91156462585036L106.66666666666669,252.36734693877554L115.55555555555557,250.8163265306123L124.44444444444446,249.7823129251701L133.33333333333334,247.22448979591837L142.22222222222223,246.25850340136054L151.11111111111111,246.3673469387755L160,249.08843537414967L168.88888888888889,247.10204081632656L177.77777777777777,247.8367346938776L186.66666666666666,249.27891156462584L195.55555555555554,246.87074829931976L204.44444444444449,247.00680272108843L213.33333333333337,245.10204081632654L222.22222222222226,243.22448979591837L231.11111111111114,245.38775510204084L240.00000000000003,243.97278911564626L248.8888888888889,243.00680272108843L257.77777777777777,246.59863945578235L266.6666666666667,245.94557823129253" style="fill: none; stroke: #e45756; stroke-width: 2; opacity: 1;"></path></g></g><path class="foreground" d="" style="display: none; fill: none;"></path></g><g transform="translate(0,0)"><path class="background" d="M0,0h266.6666666666667v266.6666666666667h-266.6666666666667Z" style="fill: none;"></path><g><g class="mark-line role-mark concat_0_concat_1_marks" clip-path="url(#clip14)"><path d="M-204.44444444444449,266.6666666666667L-195.55555555555554,266.6666666666667L-186.66666666666666,266.6666666666667L-177.77777777777777,266.6666666666667L-168.88888888888889,266.6666666666667L-160,266.6666666666667L-151.11111111111111,265.27891156462584L-142.22222222222223,264.76190476190476L-133.33333333333334,264.3401360544218L-124.44444444444446,263.7551020408164L-115.55555555555557,263.10204081632656L-106.66666666666669,262.2857142857143L-97.77777777777777,261.3605442176871L-88.88888888888889,260.32653061224494L-80,259.4557823129252L-71.11111111111111,258.2857142857143L-62.22222222222223,257.18367346938777L-53.33333333333334,256.04081632653066L-44.44444444444444,255.0340136054422L-35.55555555555556,254.16326530612247L-26.66666666666667,253.80952380952382L-17.77777777777778,253.5918367346939L-8.88888888888889,253.61904761904765L0,253.79591836734696L8.88888888888889,253.85034013605446L17.77777777777778,253.7414965986395L26.66666666666667,253.80952380952382L35.55555555555556,253.5918367346939L44.44444444444444,253.67346938775512L53.33333333333334,253.80952380952382L62.22222222222223,253.55102040816328L71.11111111111111,253.61904761904765L80,254.0680272108844L88.88888888888889,254.20408163265307L97.77777777777777,253.94557823129253L106.66666666666669,253.56462585034015L115.55555555555557,253.3061224489796L124.44444444444446,253.41496598639458L133.33333333333334,253.64625850340138L142.22222222222223,253.7414965986395L151.11111111111111,253.90476190476193L160,254.35374149659864L168.88888888888889,254.8163265306123L177.77777777777777,255.15646258503403L186.66666666666666,255.6326530612245L195.55555555555554,256L204.44444444444449,256.3401360544218L213.33333333333337,256.78911564625855L222.22222222222226,257.4965986394558L231.11111111111114,257.9047619047619L240.00000000000003,258.17687074829934L248.8888888888889,258.31292517006807L257.77777777777777,258.31292517006807L266.6666666666667,258.34013605442175" style="fill: none; stroke: #72b7b2; stroke-width: 2; opacity: 1;"></path></g></g><path class="foreground" d="" style="display: none; fill: none;"></path></g><g transform="translate(0,0)"><path class="background" d="M0,0h266.6666666666667v266.6666666666667h-266.6666666666667Z" style="fill: none;"></path><g><g class="mark-line role-mark concat_0_concat_1_marks" clip-path="url(#clip15)"><path d="M-204.44444444444449,266.6666666666667L-195.55555555555554,266.6666666666667L-186.66666666666666,266.6666666666667L-177.77777777777777,266.6666666666667L-168.88888888888889,266.6666666666667L-160,266.6666666666667L-151.11111111111111,263.89115646258506L-142.22222222222223,262.1496598639456L-133.33333333333334,261.07482993197283L-124.44444444444446,259.15646258503403L-115.55555555555557,256.87074829931976L-106.66666666666669,257.42857142857144L-97.77777777777777,252.12244897959184L-88.88888888888889,250.23129251700684L-80,247.0340136054422L-71.11111111111111,243.60544217687075L-62.22222222222223,241.19727891156464L-53.33333333333334,237.4013605442177L-44.44444444444444,231.5918367346939L-35.55555555555556,229.0340136054422L-26.66666666666667,220.62585034013605L-17.77777777777778,216.77551020408166L-8.88888888888889,213.3469387755102L0,207.93197278911566L8.88888888888889,205.10204081632654L17.77777777777778,201.22448979591837L26.66666666666667,197.25170068027214L35.55555555555556,195.94557823129253L44.44444444444444,194.5170068027211L53.33333333333334,191.64625850340138L62.22222222222223,190.36734693877554L71.11111111111111,189.7687074829932L80,189.1156462585034L88.88888888888889,191.19727891156464L97.77777777777777,194.0272108843538L106.66666666666669,197.17006802721093L115.55555555555557,199.56462585034015L124.44444444444446,202.73469387755105L133.33333333333334,205.2517006802721L142.22222222222223,207.29251700680274L151.11111111111111,209.9591836734694L160,210.8027210884354L168.88888888888889,212.08163265306123L177.77777777777777,213.0340136054422L186.66666666666666,213.0612244897959L195.55555555555554,212.57142857142858L204.44444444444449,213.7278911564626L213.33333333333337,213.65986394557825L222.22222222222226,215.52380952380955L231.11111111111114,215.4965986394558L240.00000000000003,217.0204081632653L248.8888888888889,217.94557823129253L257.77777777777777,219.86394557823132L266.6666666666667,220.69387755102042" style="fill: none; stroke: #54a24b; stroke-width: 2; opacity: 1;"></path></g></g><path class="foreground" d="" style="display: none; fill: none;"></path></g><g transform="translate(0,0)"><path class="background" d="M0,0h266.6666666666667v266.6666666666667h-266.6666666666667Z" style="fill: none;"></path><g><g class="mark-line role-mark concat_0_concat_1_marks" clip-path="url(#clip16)"><path d="M-204.44444444444449,266.6666666666667L-195.55555555555554,266.6666666666667L-186.66666666666666,266.6666666666667L-177.77777777777777,266.6666666666667L-168.88888888888889,266.6666666666667L-160,266.6666666666667L-151.11111111111111,266.6666666666667L-142.22222222222223,266.6666666666667L-133.33333333333334,266.6666666666667L-115.55555555555557,266.6666666666667L-106.66666666666669,266.6666666666667L-97.77777777777777,266.6666666666667L-88.88888888888889,266.6666666666667L-80,266.6666666666667L-71.11111111111111,266.6666666666667L-62.22222222222223,266.6666666666667L-53.33333333333334,266.6666666666667L-44.44444444444444,266.6530612244898L-35.55555555555556,266.6530612244898L-26.66666666666667,266.6530612244898L-17.77777777777778,266.6530612244898L-8.88888888888889,266.6530612244898L0,266.6530612244898L8.88888888888889,266.6258503401361L17.77777777777778,266.63945578231295L26.66666666666667,266.6258503401361L35.55555555555556,266.6258503401361L44.44444444444444,266.5714285714286L53.33333333333334,266.55782312925174L62.22222222222223,266.44897959183675L71.11111111111111,266.3809523809524L80,266.2993197278912L88.88888888888889,266.2585034013606L97.77777777777777,266.13605442176873L106.66666666666669,266.16326530612247L115.55555555555557,266.1496598639456L124.44444444444446,266.108843537415L133.33333333333334,266.13605442176873L142.22222222222223,266.04081632653066L151.11111111111111,265.85034013605446L160,265.80952380952385L168.88888888888889,265.5102040816327L177.77777777777777,265.29251700680277L186.66666666666666,265.14285714285717L195.55555555555554,264.82993197278915L204.44444444444449,264.5442176870749L213.33333333333337,264.2312925170068L222.22222222222226,263.85034013605446L231.11111111111114,263.5238095238095L240.00000000000003,263.1700680272109L248.8888888888889,262.7755102040816L257.77777777777777,262.3809523809524L266.6666666666667,262.27210884353747" style="fill: none; stroke: #eeca3b; stroke-width: 2; opacity: 1;"></path></g></g><path class="foreground" d="" style="display: none; fill: none;"></path></g><g transform="translate(0,0)"><path class="background" d="M0,0h266.6666666666667v266.6666666666667h-266.6666666666667Z" style="fill: none;"></path><g><g class="mark-line role-mark concat_0_concat_1_marks" clip-path="url(#clip17)"><path d="M-204.44444444444449,266.6666666666667L-195.55555555555554,266.6666666666667L-186.66666666666666,266.6666666666667L-177.77777777777777,266.6666666666667L-168.88888888888889,266.6666666666667L-160,266.6666666666667L-151.11111111111111,266.530612244898L-142.22222222222223,266.4353741496599L-133.33333333333334,266.2857142857143L-124.44444444444446,266.2040816326531L-115.55555555555557,265.9591836734694L-106.66666666666669,265.9591836734694L-97.77777777777777,264.9251700680272L-88.88888888888889,264.1496598639456L-80,262.96598639455783L-71.11111111111111,262.3945578231293L-62.22222222222223,259.89115646258506L-53.33333333333334,258.9251700680272L-44.44444444444444,256.12244897959187L-35.55555555555556,254.28571428571428L-26.66666666666667,250.6122448979592L-17.77777777777778,246.7074829931973L-8.88888888888889,239.8775510204082L0,235.71428571428572L8.88888888888889,225.52380952380955L17.77777777777778,218.57142857142858L26.66666666666667,210.95238095238096L35.55555555555556,203.98639455782313L44.44444444444444,198L53.33333333333334,193.12925170068027L62.22222222222223,189.71428571428572L71.11111111111111,188.57142857142856L80,185.265306122449L88.88888888888889,184.21768707482994L97.77777777777777,185.51020408163265L106.66666666666669,187.23809523809527L115.55555555555557,190.1360544217687L124.44444444444446,190.73469387755102L133.33333333333334,193.12925170068027L142.22222222222223,197.29251700680274L151.11111111111111,200.23129251700684L160,203.27891156462587L168.88888888888889,204.51700680272108L177.77777777777777,206.59863945578232L186.66666666666666,212.0952380952381L195.55555555555554,213.3877551020408L204.44444444444449,214.04081632653063L213.33333333333337,213.31972789115648L222.22222222222226,219.90476190476193L231.11111111111114,222.53061224489798L240.00000000000003,224.54421768707485L248.8888888888889,222.77551020408163L257.77777777777777,225.72789115646262L266.6666666666667,228" style="fill: none; stroke: #b279a2; stroke-width: 2; opacity: 1;"></path></g></g><path class="foreground" d="" style="display: none; fill: none;"></path></g><g transform="translate(0,0)"><path class="background" d="M0,0h266.6666666666667v266.6666666666667h-266.6666666666667Z" style="fill: none;"></path><g><g class="mark-line role-mark concat_0_concat_1_marks" clip-path="url(#clip18)"><path d="M-115.55555555555557,266.6666666666667L-106.66666666666669,266.6666666666667L-97.77777777777777,266.6666666666667L-88.88888888888889,266.6666666666667L-80,266.6666666666667L-71.11111111111111,266.6666666666667L-62.22222222222223,266.6666666666667L-53.33333333333334,266.6530612244898L-44.44444444444444,266.6258503401361L-35.55555555555556,266.6122448979592L-26.66666666666667,266.5442176870748L-17.77777777777778,266.2585034013606L-8.88888888888889,266.16326530612247L0,266.08163265306126L8.88888888888889,265.8775510204082L17.77777777777778,265.687074829932L26.66666666666667,265.46938775510205L35.55555555555556,265.31972789115645L44.44444444444444,265.29251700680277L53.33333333333334,264.8843537414966L62.22222222222223,264.3537414965987L71.11111111111111,263.70068027210885L80,262.843537414966L88.88888888888889,262.13605442176873L97.77777777777777,261.31972789115645L106.66666666666669,260.63945578231295L115.55555555555557,260.12244897959187L124.44444444444446,259.7142857142857L133.33333333333334,259.38775510204084L142.22222222222223,259.15646258503403L151.11111111111111,258.76190476190476L160,258.5034013605442L168.88888888888889,258.17687074829934L177.77777777777777,257.8639455782313L186.66666666666666,257.4421768707483L195.55555555555554,257.0612244897959L204.44444444444449,256.6666666666667L213.33333333333337,256.2857142857143L222.22222222222226,255.9319727891157L231.11111111111114,255.52380952380955L240.00000000000003,255.18367346938777L248.8888888888889,255.02040816326533L257.77777777777777,254.99319727891157L266.6666666666667,255.1292517006803" style="fill: none; stroke: #ff9da6; stroke-width: 2; opacity: 1;"></path></g></g><path class="foreground" d="" style="display: none; fill: none;"></path></g><g transform="translate(0,0)"><path class="background" d="M0,0h266.6666666666667v266.6666666666667h-266.6666666666667Z" style="fill: none;"></path><g><g class="mark-line role-mark concat_0_concat_1_marks" clip-path="url(#clip19)"><path d="M-204.44444444444449,266.6666666666667L-195.55555555555554,266.6666666666667L-186.66666666666666,266.6666666666667L-177.77777777777777,266.6666666666667L-168.88888888888889,266.6666666666667L-160,266.6666666666667L-151.11111111111111,266.44897959183675L-142.22222222222223,266.3945578231293L-133.33333333333334,266.44897959183675L-124.44444444444446,266.3809523809524L-115.55555555555557,266.3265306122449L-106.66666666666669,266.2857142857143L-97.77777777777777,266.21768707482994L-88.88888888888889,266.16326530612247L-80,266.09523809523813L-71.11111111111111,265.80952380952385L-62.22222222222223,265.578231292517L-53.33333333333334,265.5510204081633L-44.44444444444444,264.48979591836735L-35.55555555555556,263.98639455782313L-26.66666666666667,263.2244897959184L-17.77777777777778,261.7142857142857L-8.88888888888889,260.312925170068L0,258.530612244898L8.88888888888889,255.4557823129252L17.77777777777778,252.9387755102041L26.66666666666667,248.4761904761905L35.55555555555556,243.27891156462587L44.44444444444444,238.91156462585036L53.33333333333334,233.65986394557825L62.22222222222223,223.57823129251702L71.11111111111111,214.7619047619048L80,202.48979591836735L88.88888888888889,191.75510204081635L97.77777777777777,179.85034013605446L106.66666666666669,169.3605442176871L115.55555555555557,160.4761904761905L124.44444444444446,146.27210884353744L133.33333333333334,131.45578231292518L142.22222222222223,123.10204081632654L151.11111111111111,110.21768707482994L160,102.6530612244898L168.88888888888889,97.95918367346941L177.77777777777777,93.26530612244898L186.66666666666666,88.31292517006801L195.55555555555554,81.22448979591839L204.44444444444449,43.02040816326531L213.33333333333337,19.22448979591834L222.22222222222226,19.020408163265312L231.11111111111114,13.034013605442171L240.00000000000003,14.068027210884361L248.8888888888889,13.428571428571436L257.77777777777777,18.258503401360542L266.6666666666667,34.85714285714285" style="fill: none; stroke: #9d755d; stroke-width: 2; opacity: 1;"></path></g></g><path class="foreground" d="" style="display: none; fill: none;"></path></g><g transform="translate(0,0)"><path class="background" d="M0,0h266.6666666666667v266.6666666666667h-266.6666666666667Z" style="fill: none;"></path><g><g class="mark-line role-mark concat_0_concat_1_marks" clip-path="url(#clip20)"><path d="M-115.55555555555557,266.6666666666667L-106.66666666666669,266.6666666666667L-97.77777777777777,266.6666666666667L-88.88888888888889,266.6666666666667L-80,266.6666666666667L-71.11111111111111,266.6666666666667L-62.22222222222223,266.6666666666667L-53.33333333333334,265.7959183673469L-44.44444444444444,264.8979591836735L-35.55555555555556,264.3537414965987L-26.66666666666667,263.7687074829932L-17.77777777777778,263.11564625850343L-8.88888888888889,262.8571428571429L0,261.6734693877551L8.88888888888889,261.30612244897964L17.77777777777778,260.6530612244898L26.66666666666667,258.734693877551L35.55555555555556,255.9591836734694L44.44444444444444,253.75510204081633L53.33333333333334,252.04081632653063L62.22222222222223,248.02721088435376L71.11111111111111,240.9387755102041L80,234.7482993197279L88.88888888888889,227.89115646258503L97.77777777777777,221.7823129251701L106.66666666666669,216.16326530612244L115.55555555555557,212.59863945578235L124.44444444444446,207.10204081632654L133.33333333333334,201.98639455782316L142.22222222222223,197.72789115646262L151.11111111111111,193.70068027210888L160,190.8571428571429L168.88888888888889,189.30612244897958L177.77777777777777,185.5510204081633L186.66666666666666,185.60544217687075L195.55555555555554,187.98639455782313L204.44444444444449,188.21768707482997L213.33333333333337,190.02721088435374L222.22222222222226,190.39455782312925L231.11111111111114,192.29931972789115L240.00000000000003,195.87755102040816L248.8888888888889,195.2517006802721L257.77777777777777,195.14285714285714L266.6666666666667,198.20408163265307" style="fill: none; stroke: #bab0ac; stroke-width: 2; opacity: 1;"></path></g></g><path class="foreground" d="" style="display: none; fill: none;"></path></g></g><g class="mark-group role-title"><g transform="translate(133.33333333333334,-17)"><path class="background" d="M0,0h0v0h0Z" style="pointer-events: none; fill: none;"></path><g><g class="mark-text role-title-text" style="pointer-events: none;"><text text-anchor="middle" transform="translate(0,10)" style="font-family: Roboto Condensed; font-size: 13px; font-weight: normal; fill: #000; opacity: 1;">Deaths/7-day average</text></g></g><path class="foreground" d="" style="pointer-events: none; display: none; fill: none;"></path></g></g></g><path class="foreground" d="" style="display: none; fill: none;"></path></g></g><g class="mark-group role-scope concat_0_concat_2_group"><g transform="translate(624,0)"><path class="background" d="M0,0h266.6666666666667v266.6666666666667h-266.6666666666667Z" style="fill: none; stroke: #ddd; stroke-width: 0;"></path><g><g class="mark-group role-axis"><g transform="translate(0.5,0.5)"><path class="background" d="M0,0h0v0h0Z" style="pointer-events: none; fill: none;"></path><g><g class="mark-rule role-axis-grid" style="pointer-events: none;"><line transform="translate(0,267)" x2="266.6666666666667" y2="0" style="fill: none; stroke: #ddd; stroke-width: 1; opacity: 1;"></line><line transform="translate(0,218)" x2="266.6666666666667" y2="0" style="fill: none; stroke: #ddd; stroke-width: 1; opacity: 1;"></line><line transform="translate(0,170)" x2="266.6666666666667" y2="0" style="fill: none; stroke: #ddd; stroke-width: 1; opacity: 1;"></line><line transform="translate(0,121)" x2="266.6666666666667" y2="0" style="fill: none; stroke: #ddd; stroke-width: 1; opacity: 1;"></line><line transform="translate(0,73)" x2="266.6666666666667" y2="0" style="fill: none; stroke: #ddd; stroke-width: 1; opacity: 1;"></line><line transform="translate(0,24)" x2="266.6666666666667" y2="0" style="fill: none; stroke: #ddd; stroke-width: 1; opacity: 1;"></line></g></g><path class="foreground" d="" style="pointer-events: none; display: none; fill: none;"></path></g></g><g class="mark-group role-axis"><g transform="translate(0.5,267.1666666666667)"><path class="background" d="M0,0h0v0h0Z" style="pointer-events: none; fill: none;"></path><g><g class="mark-text role-axis-label" style="pointer-events: none;"><text text-anchor="middle" transform="translate(44.44444444444444,10)" style="font-family: Roboto Condensed; font-size: 10px; fill: #000; opacity: 1;">Mar 29</text><text text-anchor="middle" transform="translate(106.66666666666669,10)" style="font-family: Roboto Condensed; font-size: 10px; fill: #000; opacity: 1;">Apr 05</text><text text-anchor="middle" transform="translate(168.88888888888889,10)" style="font-family: Roboto Condensed; font-size: 10px; fill: #000; opacity: 1;">Apr 12</text><text text-anchor="middle" transform="translate(231.11111111111114,10)" style="font-family: Roboto Condensed; font-size: 10px; fill: #000; opacity: 1;">Apr 19</text></g><g class="mark-rule role-axis-domain" style="pointer-events: none;"><line transform="translate(0,0)" x2="266.6666666666667" y2="0" style="fill: none; stroke: lightgray; stroke-width: 1; opacity: 1;"></line></g></g><path class="foreground" d="" style="pointer-events: none; display: none; fill: none;"></path></g></g><g class="mark-group role-axis"><g transform="translate(0.5,0.5)"><path class="background" d="M0,0h0v0h0Z" style="pointer-events: none; fill: none;"></path><g><g class="mark-text role-axis-label" style="pointer-events: none;"><text text-anchor="end" transform="translate(-2,269.6666666666667)" style="font-family: Roboto Condensed; font-size: 10px; fill: #000; opacity: 1;">0</text><text text-anchor="end" transform="translate(-2,221.1818181818182)" style="font-family: Roboto Condensed; font-size: 10px; fill: #000; opacity: 1;">1,000</text><text text-anchor="end" transform="translate(-2,172.69696969696972)" style="font-family: Roboto Condensed; font-size: 10px; fill: #000; opacity: 1;">2,000</text><text text-anchor="end" transform="translate(-2,124.21212121212123)" style="font-family: Roboto Condensed; font-size: 10px; fill: #000; opacity: 1;">3,000</text><text text-anchor="end" transform="translate(-2,75.72727272727273)" style="font-family: Roboto Condensed; font-size: 10px; fill: #000; opacity: 1;">4,000</text><text text-anchor="end" transform="translate(-2,27.242424242424253)" style="font-family: Roboto Condensed; font-size: 10px; fill: #000; opacity: 1;">5,000</text></g><g class="mark-rule role-axis-domain" style="pointer-events: none;"><line transform="translate(0,266.6666666666667)" x2="0" y2="-266.6666666666667" style="fill: none; stroke: lightgray; stroke-width: 1; opacity: 1;"></line></g></g><path class="foreground" d="" style="pointer-events: none; display: none; fill: none;"></path></g></g><g class="mark-group role-scope concat_0_concat_2_pathgroup"><g transform="translate(0,0)"><path class="background" d="M0,0h266.6666666666667v266.6666666666667h-266.6666666666667Z" style="fill: none;"></path><g><g class="mark-line role-mark concat_0_concat_2_marks" clip-path="url(#clip21)"><path d="M-204.44444444444449,266.6666666666667L-195.55555555555554,266.6666666666667L-186.66666666666666,266.6666666666667L-177.77777777777777,266.6666666666667L-168.88888888888889,266.6666666666667L-160,266.6666666666667L-151.11111111111111,154.46580086580087L-142.22222222222223,161.3714285714286L-133.33333333333334,170.21645021645026L-124.44444444444446,178.6874458874459L-115.55555555555557,185.7038961038961L-106.66666666666669,192.82424242424244L-97.77777777777777,195.26926406926407L-88.88888888888889,196.14199134199134L-80,199.50129870129874L-71.11111111111111,203.11688311688312L-62.22222222222223,206.46233766233766L-53.33333333333334,210.4865800865801L-44.44444444444444,213.7904761904762L-35.55555555555556,217.69696969696972L-26.66666666666667,223.74372294372296L-17.77777777777778,229.64502164502164L-8.88888888888889,232.66493506493507L0,235.66406926406927L8.88888888888889,238.8779220779221L17.77777777777778,241.4545454545455L26.66666666666667,242.7844155844156L35.55555555555556,244.24588744588746L44.44444444444444,244.4051948051948L53.33333333333334,245.20865800865803L62.22222222222223,246.40000000000003L71.11111111111111,248.43636363636364L80,250.11255411255414L88.88888888888889,252.4952380952381L97.77777777777777,253.83896103896106L106.66666666666669,255.36969696969697L115.55555555555557,257.01818181818186L124.44444444444446,258.2857142857143L133.33333333333334,258.5766233766234L142.22222222222223,258.95064935064937L151.11111111111111,259.52554112554117L160,260.21818181818185L168.88888888888889,261.4787878787879L177.77777777777777,261.61731601731606L186.66666666666666,261.1948051948052L195.55555555555554,261.51341991341997L204.44444444444449,261.66580086580086L213.33333333333337,266.6666666666667L222.22222222222226,266.6666666666667L231.11111111111114,266.6666666666667L240.00000000000003,266.6666666666667L248.8888888888889,266.6666666666667L257.77777777777777,266.6666666666667L266.6666666666667,266.6666666666667" style="fill: none; stroke: #4c78a8; stroke-width: 2; opacity: 1;"></path></g></g><path class="foreground" d="" style="display: none; fill: none;"></path></g><g transform="translate(0,0)"><path class="background" d="M0,0h266.6666666666667v266.6666666666667h-266.6666666666667Z" style="fill: none;"></path><g><g class="mark-line role-mark concat_0_concat_2_marks" clip-path="url(#clip22)"><path d="M-204.44444444444449,266.6666666666667L-195.55555555555554,266.6666666666667L-186.66666666666666,266.6666666666667L-177.77777777777777,266.6666666666667L-168.88888888888889,266.6666666666667L-160,266.6666666666667L-151.11111111111111,266.6666666666667L-142.22222222222223,266.6666666666667L-133.33333333333334,266.6666666666667L-124.44444444444446,266.6666666666667L-115.55555555555557,266.6666666666667L-106.66666666666669,266.6666666666667L-97.77777777777777,266.6666666666667L-88.88888888888889,266.6666666666667L-80,266.6666666666667L-71.11111111111111,266.6666666666667L-62.22222222222223,266.6666666666667L-53.33333333333334,266.6666666666667L-44.44444444444444,266.6666666666667L-35.55555555555556,266.6666666666667L-26.66666666666667,266.6666666666667L-17.77777777777778,251.50476190476192L-8.88888888888889,251.46320346320348L0,243.9757575757576L8.88888888888889,239.68831168831173L17.77777777777778,232.42943722943724L26.66666666666667,227.22077922077924L35.55555555555556,227.10303030303032L44.44444444444444,231.8614718614719L53.33333333333334,226.79134199134202L62.22222222222223,223.54978354978357L71.11111111111111,217.1705627705628L80,214.0744588744589L88.88888888888889,208.2909090909091L97.77777777777777,198.45541125541126L106.66666666666669,203.4770562770563L115.55555555555557,201.11515151515152L124.44444444444446,197.33333333333334L133.33333333333334,194.63896103896104L142.22222222222223,191.41125541125544L151.11111111111111,190.06060606060606L160,189.84588744588746L168.88888888888889,189.64502164502164L177.77777777777777,193.43376623376628L186.66666666666666,200.34632034632037L195.55555555555554,197.27792207792209L204.44444444444449,197.99826839826844L213.33333333333337,198.7116883116883L222.22222222222226,197.92900432900436L231.11111111111114,199.3835497835498L240.00000000000003,197.16017316017317L248.8888888888889,192.408658008658L257.77777777777777,198.4L266.6666666666667,201.3160173160173" style="fill: none; stroke: #f58518; stroke-width: 2; opacity: 1;"></path></g></g><path class="foreground" d="" style="display: none; fill: none;"></path></g><g transform="translate(0,0)"><path class="background" d="M0,0h266.6666666666667v266.6666666666667h-266.6666666666667Z" style="fill: none;"></path><g><g class="mark-line role-mark concat_0_concat_2_marks" clip-path="url(#clip23)"><path d="M-204.44444444444449,266.6666666666667L-195.55555555555554,266.6666666666667L-186.66666666666666,266.6666666666667L-177.77777777777777,266.6666666666667L-168.88888888888889,266.6666666666667L-160,266.6666666666667L-151.11111111111111,266.65281385281384L-142.22222222222223,266.65281385281384L-133.33333333333334,266.65281385281384L-124.44444444444446,266.65281385281384L-115.55555555555557,266.60432900432903L-106.66666666666669,266.60432900432903L-97.77777777777777,266.4658008658009L-88.88888888888889,266.4727272727273L-80,266.4727272727273L-71.11111111111111,266.3272727272727L-62.22222222222223,266.3272727272727L-53.33333333333334,266.1125541125541L-44.44444444444444,266.0571428571429L-35.55555555555556,265.7385281385281L-26.66666666666667,265.37142857142857L-17.77777777777778,265.14285714285717L-8.88888888888889,263.99307359307363L0,244.66839826839828L8.88888888888889,242.82597402597406L17.77777777777778,228.15584415584416L26.66666666666667,221.7974025974026L35.55555555555556,209.53766233766237L44.44444444444444,204.70995670995674L53.33333333333334,176.2978354978355L62.22222222222223,177.61385281385282L71.11111111111111,161.7108225108225L80,150.53160173160174L88.88888888888889,142.56623376623378L97.77777777777777,142.55238095238096L106.66666666666669,131.6779220779221L115.55555555555557,161.3852813852814L124.44444444444446,128.27012987012986L133.33333333333334,75.4978354978355L142.22222222222223,59.10303030303031L151.11111111111111,63.459740259740286L160,51.94805194805197L168.88888888888889,47.79220779220778L177.77777777777777,20.086580086580096L186.66666666666666,44.1974025974026L195.55555555555554,84.5021645021645L204.44444444444449,96.32554112554114L213.33333333333337,64.40865800865804L222.22222222222226,72.72727272727273L231.11111111111114,74.8051948051948L240.00000000000003,78.26839826839827L248.8888888888889,79.65367965367966L257.77777777777777,81.03896103896105L266.6666666666667,84.5021645021645" style="fill: none; stroke: #e45756; stroke-width: 2; opacity: 1;"></path></g></g><path class="foreground" d="" style="display: none; fill: none;"></path></g><g transform="translate(0,0)"><path class="background" d="M0,0h266.6666666666667v266.6666666666667h-266.6666666666667Z" style="fill: none;"></path><g><g class="mark-line role-mark concat_0_concat_2_marks" clip-path="url(#clip24)"><path d="M-204.44444444444449,266.6666666666667L-195.55555555555554,266.6666666666667L-186.66666666666666,266.6666666666667L-177.77777777777777,266.6666666666667L-168.88888888888889,266.6666666666667L-160,266.6666666666667L-151.11111111111111,255.95844155844156L-142.22222222222223,253.09783549783552L-133.33333333333334,252.10043290043293L-124.44444444444446,249.76623376623377L-115.55555555555557,249.9948051948052L-106.66666666666669,251.29004329004331L-97.77777777777777,252.4952380952381L-88.88888888888889,257.73160173160176L-80,249.65541125541128L-71.11111111111111,251.4562770562771L-62.22222222222223,248.25627705627707L-53.33333333333334,249.83549783549785L-44.44444444444444,247.61212121212122L-35.55555555555556,240.44329004329003L-26.66666666666667,234.27878787878788L-17.77777777777778,245.5757575757576L-8.88888888888889,240.44329004329003L0,242.25800865800866L8.88888888888889,237.32640692640695L17.77777777777778,233.78701298701301L26.66666666666667,236.2735930735931L35.55555555555556,238.65627705627708L44.44444444444444,233.72467532467536L53.33333333333334,228.32900432900433L62.22222222222223,226.88831168831172L71.11111111111111,226.161038961039L80,223.34891774891778L88.88888888888889,219.55324675324678L97.77777777777777,210.86060606060607L106.66666666666669,215.79220779220782L115.55555555555557,195.15151515151516L124.44444444444446,180.8969696969697L133.33333333333334,167.34891774891776L142.22222222222223,158.62857142857143L151.11111111111111,145.24675324675326L160,112.82424242424243L168.88888888888889,99.33852813852813L177.77777777777777,116.03809523809525L186.66666666666666,120.58874458874462L195.55555555555554,127.3004329004329L204.44444444444449,128.6926406926407L213.33333333333337,137.84242424242427L222.22222222222226,169.41991341991343L231.11111111111114,175.72987012987014L240.00000000000003,174.6147186147186L248.8888888888889,177.75930735930737L257.77777777777777,175.37662337662337L266.6666666666667,179.2969696969697" style="fill: none; stroke: #72b7b2; stroke-width: 2; opacity: 1;"></path></g></g><path class="foreground" d="" style="display: none; fill: none;"></path></g><g transform="translate(0,0)"><path class="background" d="M0,0h266.6666666666667v266.6666666666667h-266.6666666666667Z" style="fill: none;"></path><g><g class="mark-line role-mark concat_0_concat_2_marks" clip-path="url(#clip25)"><path d="M-204.44444444444449,266.6666666666667L-195.55555555555554,266.6666666666667L-186.66666666666666,266.6666666666667L-177.77777777777777,266.6666666666667L-168.88888888888889,266.6666666666667L-160,266.6666666666667L-151.11111111111111,262.90562770562775L-142.22222222222223,262.93333333333334L-133.33333333333334,262.6839826839827L-124.44444444444446,262.76017316017317L-115.55555555555557,261.34025974025974L-106.66666666666669,262.2961038961039L-97.77777777777777,260.32207792207794L-88.88888888888889,257.1290043290043L-80,254.80173160173163L-71.11111111111111,252.64069264069263L-62.22222222222223,251.3108225108225L-53.33333333333334,246.02597402597405L-44.44444444444444,243.15151515151518L-35.55555555555556,245.8805194805195L-26.66666666666667,238.22683982683984L-17.77777777777778,234.1887445887446L-8.88888888888889,234.23030303030305L0,229.36796536796538L8.88888888888889,229.7004329004329L17.77777777777778,225.65541125541125L26.66666666666667,221.5757575757576L35.55555555555556,222.94718614718616L44.44444444444444,225.06666666666666L53.33333333333334,216.8796536796537L62.22222222222223,215.3904761904762L71.11111111111111,214.82251082251085L80,211.83030303030304L88.88888888888889,205.6588744588745L97.77777777777777,207.01645021645024L106.66666666666669,205.81818181818184L115.55555555555557,209.75238095238097L124.44444444444446,206.66320346320347L133.33333333333334,199.86839826839827L142.22222222222223,196.0727272727273L151.11111111111111,192.5748917748918L160,186.74978354978356L168.88888888888889,180.8069264069264L177.77777777777777,179.4077922077922L186.66666666666666,178.43809523809526L195.55555555555554,186.31341991341992L204.44444444444449,185.66926406926407L213.33333333333337,181.66580086580086L222.22222222222226,180.82770562770563L231.11111111111114,177.70389610389608L240.00000000000003,173.56190476190477L248.8888888888889,166.44155844155844L257.77777777777777,152.72034632034632L266.6666666666667,146.06406926406925" style="fill: none; stroke: #54a24b; stroke-width: 2; opacity: 1;"></path></g></g><path class="foreground" d="" style="display: none; fill: none;"></path></g><g transform="translate(0,0)"><path class="background" d="M0,0h266.6666666666667v266.6666666666667h-266.6666666666667Z" style="fill: none;"></path><g><g class="mark-line role-mark concat_0_concat_2_marks" clip-path="url(#clip26)"><path d="M-204.44444444444449,266.6666666666667L-195.55555555555554,266.6666666666667L-186.66666666666666,266.6666666666667L-177.77777777777777,266.6666666666667L-168.88888888888889,266.6666666666667L-160,266.6666666666667L-151.11111111111111,266.6666666666667L-142.22222222222223,266.65974025974026L-133.33333333333334,266.65974025974026L-115.55555555555557,266.65974025974026L-106.66666666666669,266.65974025974026L-97.77777777777777,266.65974025974026L-88.88888888888889,266.62510822510825L-80,266.62510822510825L-71.11111111111111,266.6320346320347L-62.22222222222223,266.6320346320347L-53.33333333333334,266.6320346320347L-44.44444444444444,266.62510822510825L-35.55555555555556,266.62510822510825L-26.66666666666667,266.6389610389611L-17.77777777777778,266.61125541125546L-8.88888888888889,266.60432900432903L0,266.569696969697L8.88888888888889,266.52121212121216L17.77777777777778,266.4658008658009L26.66666666666667,266.41731601731607L35.55555555555556,266.41038961038964L44.44444444444444,266.33419913419914L53.33333333333334,266.3272727272727L62.22222222222223,265.98095238095243L71.11111111111111,265.55151515151516L80,265.30216450216454L88.88888888888889,265.03203463203465L97.77777777777777,264.6995670995671L106.66666666666669,264.6510822510823L115.55555555555557,264.31168831168833L124.44444444444446,264.08311688311693L133.33333333333334,263.965367965368L142.22222222222223,263.4597402597403L151.11111111111111,263.1064935064935L160,261.73506493506494L168.88888888888889,260.18354978354984L177.77777777777777,259.2969696969697L186.66666666666666,258.35497835497836L195.55555555555554,256.92813852813856L204.44444444444449,255.54285714285717L213.33333333333337,254.23376623376623L222.22222222222226,252.73073593073596L231.11111111111114,252.81385281385283L240.00000000000003,252.9800865800866L248.8888888888889,251.57402597402597L257.77777777777777,249.80779220779223L266.6666666666667,248.74805194805194" style="fill: none; stroke: #eeca3b; stroke-width: 2; opacity: 1;"></path></g></g><path class="foreground" d="" style="display: none; fill: none;"></path></g><g transform="translate(0,0)"><path class="background" d="M0,0h266.6666666666667v266.6666666666667h-266.6666666666667Z" style="fill: none;"></path><g><g class="mark-line role-mark concat_0_concat_2_marks" clip-path="url(#clip27)"><path d="M-204.44444444444449,266.6666666666667L-195.55555555555554,266.6666666666667L-186.66666666666666,266.6666666666667L-177.77777777777777,266.6666666666667L-168.88888888888889,266.6666666666667L-160,266.6666666666667L-151.11111111111111,266.4727272727273L-142.22222222222223,266.4727272727273L-133.33333333333334,266.4588744588745L-124.44444444444446,266.4588744588745L-115.55555555555557,265.41298701298706L-106.66666666666669,265.41298701298706L-97.77777777777777,265.343722943723L-88.88888888888889,263.2935064935065L-80,263.2935064935065L-71.11111111111111,263.217316017316L-62.22222222222223,259.7679653679654L-53.33333333333334,260.44675324675325L-44.44444444444444,260.26666666666665L-35.55555555555556,257.00432900432907L-26.66666666666667,255.52900432900435L-17.77777777777778,255.52900432900435L-8.88888888888889,247.09956709956714L0,247.50822510822513L8.88888888888889,236.98008658008658L17.77777777777778,225.74545454545455L26.66666666666667,212.85541125541124L35.55555555555556,196.29437229437232L44.44444444444444,179.50476190476192L53.33333333333334,173.67965367965368L62.22222222222223,159.54978354978357L71.11111111111111,146.978354978355L80,130.02251082251084L88.88888888888889,120.13160173160175L97.77777777777777,114.74285714285715L106.66666666666669,104.7896103896104L115.55555555555557,102.80865800865801L124.44444444444446,100.78614718614719L133.33333333333334,90.91601731601733L142.22222222222223,90.5835497835498L151.11111111111111,92.43290043290044L160,94.26839826839829L168.88888888888889,98.27878787878788L177.77777777777777,98.42424242424244L186.66666666666666,98.38268398268401L195.55555555555554,108.52294372294374L204.44444444444449,109.90822510822512L213.33333333333337,134.17142857142858L222.22222222222226,158.0051948051948L231.11111111111114,163.0060606060606L240.00000000000003,156.81385281385283L248.8888888888889,162.7012987012987L257.77777777777777,162.34112554112554L266.6666666666667,166.55930735930738" style="fill: none; stroke: #b279a2; stroke-width: 2; opacity: 1;"></path></g></g><path class="foreground" d="" style="display: none; fill: none;"></path></g><g transform="translate(0,0)"><path class="background" d="M0,0h266.6666666666667v266.6666666666667h-266.6666666666667Z" style="fill: none;"></path><g><g class="mark-line role-mark concat_0_concat_2_marks" clip-path="url(#clip28)"><path d="M-115.55555555555557,266.6666666666667L-106.66666666666669,266.6666666666667L-97.77777777777777,266.6666666666667L-88.88888888888889,266.6666666666667L-80,266.6666666666667L-71.11111111111111,266.6666666666667L-62.22222222222223,266.6666666666667L-53.33333333333334,266.6666666666667L-44.44444444444444,266.6666666666667L-35.55555555555556,266.6666666666667L-26.66666666666667,266.6666666666667L-17.77777777777778,266.6666666666667L-8.88888888888889,266.6666666666667L0,266.6666666666667L8.88888888888889,266.4865800865801L17.77777777777778,266.4865800865801L26.66666666666667,266.3757575757576L35.55555555555556,266.1818181818182L44.44444444444444,265.939393939394L53.33333333333334,265.54458874458874L62.22222222222223,264.9835497835498L71.11111111111111,264.5402597402598L80,263.9722943722944L88.88888888888889,263.6051948051948L97.77777777777777,261.7073593073593L106.66666666666669,260.1766233766234L115.55555555555557,258.60432900432903L124.44444444444446,257.3922077922078L133.33333333333334,256.187012987013L142.22222222222223,254.70476190476194L151.11111111111111,253.23636363636365L160,251.57402597402597L168.88888888888889,250.01558441558444L177.77777777777777,248.44329004329006L186.66666666666666,244.3844155844156L195.55555555555554,240.15238095238098L204.44444444444449,232.40173160173163L213.33333333333337,223.6675324675325L222.22222222222226,214.8017316017316L231.11111111111114,207.5844155844156L240.00000000000003,201.05281385281387L248.8888888888889,196.57835497835498L257.77777777777777,191.84069264069268L266.6666666666667,187.6917748917749" style="fill: none; stroke: #ff9da6; stroke-width: 2; opacity: 1;"></path></g></g><path class="foreground" d="" style="display: none; fill: none;"></path></g><g transform="translate(0,0)"><path class="background" d="M0,0h266.6666666666667v266.6666666666667h-266.6666666666667Z" style="fill: none;"></path><g><g class="mark-line role-mark concat_0_concat_2_marks" clip-path="url(#clip29)"><path d="M-204.44444444444449,266.6666666666667L-195.55555555555554,266.6666666666667L-186.66666666666666,266.6666666666667L-177.77777777777777,266.6666666666667L-168.88888888888889,266.6666666666667L-160,266.6666666666667L-151.11111111111111,266.65974025974026L-142.22222222222223,266.65974025974026L-133.33333333333334,266.65974025974026L-124.44444444444446,266.6666666666667L-115.55555555555557,266.6666666666667L-106.66666666666669,266.6389610389611L-97.77777777777777,266.6389610389611L-88.88888888888889,266.6389610389611L-80,266.6389610389611L-71.11111111111111,266.60432900432903L-62.22222222222223,266.60432900432903L-53.33333333333334,265.9878787878788L-44.44444444444444,266.0017316017316L-35.55555555555556,265.73160173160176L-26.66666666666667,265.565367965368L-17.77777777777778,266.6666666666667L-8.88888888888889,266.6666666666667L0,264.374025974026L8.88888888888889,264.9004329004329L17.77777777777778,262.6978354978355L26.66666666666667,261.66580086580086L35.55555555555556,260.425974025974L44.44444444444444,248.20779220779224L53.33333333333334,227.57402597402597L62.22222222222223,220.42597402597403L71.11111111111111,210.47272727272727L80,209.03896103896105L88.88888888888889,205.45108225108228L97.77777777777777,172.6060606060606L106.66666666666669,164.2735930735931L115.55555555555557,170.13333333333335L124.44444444444446,164.578354978355L133.33333333333334,162.1818181818182L142.22222222222223,153.0112554112554L151.11111111111111,134.4900432900433L160,151.5636363636364L168.88888888888889,159.03030303030306L177.77777777777777,101.11861471861472L186.66666666666666,86.58008658008659L195.55555555555554,69.0077922077922L204.44444444444449,63.771428571428594L213.33333333333337,60.57142857142859L222.22222222222226,34.14718614718616L231.11111111111114,7.972294372294365L240.00000000000003,66.86060606060606L248.8888888888889,76.59913419913418L257.77777777777777,91.63636363636364L266.6666666666667,90.04329004329006" style="fill: none; stroke: #9d755d; stroke-width: 2; opacity: 1;"></path></g></g><path class="foreground" d="" style="display: none; fill: none;"></path></g><g transform="translate(0,0)"><path class="background" d="M0,0h266.6666666666667v266.6666666666667h-266.6666666666667Z" style="fill: none;"></path><g><g class="mark-line role-mark concat_0_concat_2_marks" clip-path="url(#clip30)"><path d="M-115.55555555555557,266.6666666666667L-106.66666666666669,266.6666666666667L-97.77777777777777,266.6666666666667L-88.88888888888889,266.6666666666667L-80,266.6666666666667L-71.11111111111111,266.6666666666667L-62.22222222222223,266.6666666666667L-53.33333333333334,266.33419913419914L-44.44444444444444,266.33419913419914L-35.55555555555556,266.33419913419914L-26.66666666666667,266.33419913419914L-17.77777777777778,266.14025974025975L-8.88888888888889,265.8424242424243L0,266.06406926406925L8.88888888888889,266.16103896103897L17.77777777777778,266.0917748917749L26.66666666666667,266.0848484848485L35.55555555555556,266.0848484848485L44.44444444444444,266.2787878787879L53.33333333333334,266.4519480519481L62.22222222222223,266.3965367965368L71.11111111111111,266.3965367965368L80,266.3757575757576L88.88888888888889,266.2718614718615L97.77777777777777,266.2233766233766L106.66666666666669,266.12640692640696L115.55555555555557,265.8632034632035L124.44444444444446,265.65541125541125L133.33333333333334,265.51688311688315L142.22222222222223,265.5099567099567L151.11111111111111,264.03463203463207L160,263.84761904761905L168.88888888888889,263.9168831168831L177.77777777777777,266.54891774891775L186.66666666666666,266.6666666666667L195.55555555555554,266.5073593073593L204.44444444444449,266.55584415584417L213.33333333333337,266.6666666666667L222.22222222222226,266.6666666666667L231.11111111111114,266.6666666666667L240.00000000000003,265.6831168831169L248.8888888888889,264.4848484848485L257.77777777777777,264.4848484848485L266.6666666666667,264.33246753246755" style="fill: none; stroke: #bab0ac; stroke-width: 2; opacity: 1;"></path></g></g><path class="foreground" d="" style="display: none; fill: none;"></path></g></g><g class="mark-group role-title"><g transform="translate(133.33333333333334,-17)"><path class="background" d="M0,0h0v0h0Z" style="pointer-events: none; fill: none;"></path><g><g class="mark-text role-title-text" style="pointer-events: none;"><text text-anchor="middle" transform="translate(0,10)" style="font-family: Roboto Condensed; font-size: 13px; font-weight: normal; fill: #000; opacity: 1;">Recovered/7-day average</text></g></g><path class="foreground" d="" style="pointer-events: none; display: none; fill: none;"></path></g></g></g><path class="foreground" d="" style="display: none; fill: none;"></path></g></g></g><path class="foreground" d="" style="display: none; fill: none;"></path></g></g><g class="mark-group role-legend"><g transform="translate(909,0)"><path class="background" d="M0,0h84v128h-84Z" style="pointer-events: none; fill: none;"></path><g><g class="mark-group role-legend-entry"><g transform="translate(0,0)"><path class="background" d="M0,0h0v0h0Z" style="pointer-events: none; fill: none;"></path><g><g class="mark-group role-scope"><g transform="translate(0,0)"><path class="background" d="M0,0h83.4951171875v11h-83.4951171875Z" style="pointer-events: none; fill: none; opacity: 1;"></path><g><g class="mark-symbol role-legend-symbol" style="pointer-events: none;"><path transform="translate(6,6)" d="M-5,0L5,0" style="fill: none; stroke: #4c78a8; stroke-width: 1.5; opacity: 1;"></path></g><g class="mark-text role-legend-label" style="pointer-events: none;"><text text-anchor="start" transform="translate(16,9)" style="font-family: Roboto Condensed; font-size: 10px; fill: #000; opacity: 1;">China</text></g></g><path class="foreground" d="" style="pointer-events: none; display: none; fill: none;"></path></g><g transform="translate(0,13)"><path class="background" d="M0,0h83.4951171875v11h-83.4951171875Z" style="pointer-events: none; fill: none; opacity: 1;"></path><g><g class="mark-symbol role-legend-symbol" style="pointer-events: none;"><path transform="translate(6,6)" d="M-5,0L5,0" style="fill: none; stroke: #f58518; stroke-width: 1.5; opacity: 1;"></path></g><g class="mark-text role-legend-label" style="pointer-events: none;"><text text-anchor="start" transform="translate(16,9)" style="font-family: Roboto Condensed; font-size: 10px; fill: #000; opacity: 1;">France</text></g></g><path class="foreground" d="" style="pointer-events: none; display: none; fill: none;"></path></g><g transform="translate(0,26)"><path class="background" d="M0,0h83.4951171875v11h-83.4951171875Z" style="pointer-events: none; fill: none; opacity: 1;"></path><g><g class="mark-symbol role-legend-symbol" style="pointer-events: none;"><path transform="translate(6,6)" d="M-5,0L5,0" style="fill: none; stroke: #e45756; stroke-width: 1.5; opacity: 1;"></path></g><g class="mark-text role-legend-label" style="pointer-events: none;"><text text-anchor="start" transform="translate(16,9)" style="font-family: Roboto Condensed; font-size: 10px; fill: #000; opacity: 1;">Germany</text></g></g><path class="foreground" d="" style="pointer-events: none; display: none; fill: none;"></path></g><g transform="translate(0,39)"><path class="background" d="M0,0h83.4951171875v11h-83.4951171875Z" style="pointer-events: none; fill: none; opacity: 1;"></path><g><g class="mark-symbol role-legend-symbol" style="pointer-events: none;"><path transform="translate(6,6)" d="M-5,0L5,0" style="fill: none; stroke: #72b7b2; stroke-width: 1.5; opacity: 1;"></path></g><g class="mark-text role-legend-label" style="pointer-events: none;"><text text-anchor="start" transform="translate(16,9)" style="font-family: Roboto Condensed; font-size: 10px; fill: #000; opacity: 1;">Iran</text></g></g><path class="foreground" d="" style="pointer-events: none; display: none; fill: none;"></path></g><g transform="translate(0,52)"><path class="background" d="M0,0h83.4951171875v11h-83.4951171875Z" style="pointer-events: none; fill: none; opacity: 1;"></path><g><g class="mark-symbol role-legend-symbol" style="pointer-events: none;"><path transform="translate(6,6)" d="M-5,0L5,0" style="fill: none; stroke: #54a24b; stroke-width: 1.5; opacity: 1;"></path></g><g class="mark-text role-legend-label" style="pointer-events: none;"><text text-anchor="start" transform="translate(16,9)" style="font-family: Roboto Condensed; font-size: 10px; fill: #000; opacity: 1;">Italy</text></g></g><path class="foreground" d="" style="pointer-events: none; display: none; fill: none;"></path></g><g transform="translate(0,65)"><path class="background" d="M0,0h83.4951171875v11h-83.4951171875Z" style="pointer-events: none; fill: none; opacity: 1;"></path><g><g class="mark-symbol role-legend-symbol" style="pointer-events: none;"><path transform="translate(6,6)" d="M-5,0L5,0" style="fill: none; stroke: #eeca3b; stroke-width: 1.5; opacity: 1;"></path></g><g class="mark-text role-legend-label" style="pointer-events: none;"><text text-anchor="start" transform="translate(16,9)" style="font-family: Roboto Condensed; font-size: 10px; fill: #000; opacity: 1;">Russia</text></g></g><path class="foreground" d="" style="pointer-events: none; display: none; fill: none;"></path></g><g transform="translate(0,78)"><path class="background" d="M0,0h83.4951171875v11h-83.4951171875Z" style="pointer-events: none; fill: none; opacity: 1;"></path><g><g class="mark-symbol role-legend-symbol" style="pointer-events: none;"><path transform="translate(6,6)" d="M-5,0L5,0" style="fill: none; stroke: #b279a2; stroke-width: 1.5; opacity: 1;"></path></g><g class="mark-text role-legend-label" style="pointer-events: none;"><text text-anchor="start" transform="translate(16,9)" style="font-family: Roboto Condensed; font-size: 10px; fill: #000; opacity: 1;">Spain</text></g></g><path class="foreground" d="" style="pointer-events: none; display: none; fill: none;"></path></g><g transform="translate(0,91)"><path class="background" d="M0,0h83.4951171875v11h-83.4951171875Z" style="pointer-events: none; fill: none; opacity: 1;"></path><g><g class="mark-symbol role-legend-symbol" style="pointer-events: none;"><path transform="translate(6,6)" d="M-5,0L5,0" style="fill: none; stroke: #ff9da6; stroke-width: 1.5; opacity: 1;"></path></g><g class="mark-text role-legend-label" style="pointer-events: none;"><text text-anchor="start" transform="translate(16,9)" style="font-family: Roboto Condensed; font-size: 10px; fill: #000; opacity: 1;">Turkey</text></g></g><path class="foreground" d="" style="pointer-events: none; display: none; fill: none;"></path></g><g transform="translate(0,104)"><path class="background" d="M0,0h83.4951171875v11h-83.4951171875Z" style="pointer-events: none; fill: none; opacity: 1;"></path><g><g class="mark-symbol role-legend-symbol" style="pointer-events: none;"><path transform="translate(6,6)" d="M-5,0L5,0" style="fill: none; stroke: #9d755d; stroke-width: 1.5; opacity: 1;"></path></g><g class="mark-text role-legend-label" style="pointer-events: none;"><text text-anchor="start" transform="translate(16,9)" style="font-family: Roboto Condensed; font-size: 10px; fill: #000; opacity: 1;">US</text></g></g><path class="foreground" d="" style="pointer-events: none; display: none; fill: none;"></path></g><g transform="translate(0,117)"><path class="background" d="M0,0h83.4951171875v11h-83.4951171875Z" style="pointer-events: none; fill: none; opacity: 1;"></path><g><g class="mark-symbol role-legend-symbol" style="pointer-events: none;"><path transform="translate(6,6)" d="M-5,0L5,0" style="fill: none; stroke: #bab0ac; stroke-width: 1.5; opacity: 1;"></path></g><g class="mark-text role-legend-label" style="pointer-events: none;"><text text-anchor="start" transform="translate(16,9)" style="font-family: Roboto Condensed; font-size: 10px; fill: #000; opacity: 1;">United Kingdom</text></g></g><path class="foreground" d="" style="pointer-events: none; display: none; fill: none;"></path></g></g></g><path class="foreground" d="" style="pointer-events: none; display: none; fill: none;"></path></g></g></g><path class="foreground" d="" style="pointer-events: none; display: none; fill: none;"></path></g></g></g><path class="foreground" d="" style="display: none; fill: none;"></path></g></g></g></svg>