<svg class="marks" width="955" height="344" viewBox="0 0 955 344" version="1.1" xmlns="http://www.w3.org/2000/svg" xmlns:xlink="http://www.w3.org/1999/xlink"><rect width="955" height="344" style="fill: white;"></rect><defs><clipPath id="clip1"><rect x="0" y="0" width="400" height="300"></rect></clipPath><clipPath id="clip2"><rect x="0" y="0" width="400" height="300"></rect></clipPath><clipPath id="clip3"><rect x="0" y="0" width="400" height="300"></rect></clipPath><clipPath id="clip4"><rect x="0" y="0" width="400" height="300"></rect></clipPath><clipPath id="clip5"><rect x="0" y="0" width="400" height="300"></rect></clipPath><clipPath id="clip6"><rect x="0" y="0" width="400" height="300"></rect></clipPath><clipPath id="clip7"><rect x="0" y="0" width="400" height="300"></rect></clipPath><clipPath id="clip8"><rect x="0" y="0" width="400" height="300"></rect></clipPath><clipPath id="clip9"><rect x="0" y="0" width="400" height="300"></rect></clipPath></defs><g transform="translate(22,27)"><g class="mark-group role-frame root"><g transform="translate(0,0)"><path class="background" d="M0,0h0v0h0Z" style="fill: none;"></path><g><g class="mark-group role-scope concat_0_group"><g transform="translate(0,0)"><path class="background" d="M0,0h400v300h-400Z" style="fill: none; stroke: #ddd; stroke-width: 0;"></path><g><g class="mark-group role-axis"><g transform="translate(0.5,0.5)"><path class="background" d="M0,0h0v0h0Z" style="pointer-events: none; fill: none;"></path><g><g class="mark-rule role-axis-grid" style="pointer-events: none;"><line transform="translate(0,300)" x2="400" y2="0" style="fill: none; stroke: #ddd; stroke-width: 1; opacity: 1;"></line><line transform="translate(0,263)" x2="400" y2="0" style="fill: none; stroke: #ddd; stroke-width: 1; opacity: 1;"></line><line transform="translate(0,225)" x2="400" y2="0" style="fill: none; stroke: #ddd; stroke-width: 1; opacity: 1;"></line><line transform="translate(0,188)" x2="400" y2="0" style="fill: none; stroke: #ddd; stroke-width: 1; opacity: 1;"></line><line transform="translate(0,150)" x2="400" y2="0" style="fill: none; stroke: #ddd; stroke-width: 1; opacity: 1;"></line><line transform="translate(0,113)" x2="400" y2="0" style="fill: none; stroke: #ddd; stroke-width: 1; opacity: 1;"></line><line transform="translate(0,75)" x2="400" y2="0" style="fill: none; stroke: #ddd; stroke-width: 1; opacity: 1;"></line><line transform="translate(0,38)" x2="400" y2="0" style="fill: none; stroke: #ddd; stroke-width: 1; opacity: 1;"></line><line transform="translate(0,0)" x2="400" y2="0" style="fill: none; stroke: #ddd; stroke-width: 1; opacity: 1;"></line></g></g><path class="foreground" d="" style="pointer-events: none; display: none; fill: none;"></path></g></g><g class="mark-group role-axis"><g transform="translate(0.5,300.5)"><path class="background" d="M0,0h0v0h0Z" style="pointer-events: none; fill: none;"></path><g><g class="mark-text role-axis-label" style="pointer-events: none;"><text text-anchor="middle" transform="translate(13.333333333333334,10)" style="font-family: Roboto Condensed; font-size: 10px; fill: #000; opacity: 1;">Mar 25</text><text text-anchor="middle" transform="translate(40,10)" style="font-family: Roboto Condensed; font-size: 10px; fill: #000; opacity: 0;">Mar 27</text><text text-anchor="middle" transform="translate(66.66666666666666,10)" style="font-family: Roboto Condensed; font-size: 10px; fill: #000; opacity: 1;">Mar 29</text><text text-anchor="middle" transform="translate(93.33333333333333,10)" style="font-family: Roboto Condensed; font-size: 10px; fill: #000; opacity: 0;">Mar 31</text><text text-anchor="middle" transform="translate(106.66666666666667,10)" style="font-family: Roboto Condensed; font-size: 10px; fill: #000; opacity: 1;">Apr 01</text><text text-anchor="middle" transform="translate(133.33333333333331,10)" style="font-family: Roboto Condensed; font-size: 10px; fill: #000; opacity: 0;">Apr 03</text><text text-anchor="middle" transform="translate(160,10)" style="font-family: Roboto Condensed; font-size: 10px; fill: #000; opacity: 1;">Apr 05</text><text text-anchor="middle" transform="translate(186.66666666666666,10)" style="font-family: Roboto Condensed; font-size: 10px; fill: #000; opacity: 0;">Apr 07</text><text text-anchor="middle" transform="translate(213.33333333333334,10)" style="font-family: Roboto Condensed; font-size: 10px; fill: #000; opacity: 1;">Apr 09</text><text text-anchor="middle" transform="translate(240,10)" style="font-family: Roboto Condensed; font-size: 10px; fill: #000; opacity: 0;">Apr 11</text><text text-anchor="middle" transform="translate(266.66666666666663,10)" style="font-family: Roboto Condensed; font-size: 10px; fill: #000; opacity: 1;">Apr 13</text><text text-anchor="middle" transform="translate(293.3333333333333,10)" style="font-family: Roboto Condensed; font-size: 10px; fill: #000; opacity: 0;">Apr 15</text><text text-anchor="middle" transform="translate(320,10)" style="font-family: Roboto Condensed; font-size: 10px; fill: #000; opacity: 1;">Apr 17</text><text text-anchor="middle" transform="translate(346.6666666666667,10)" style="font-family: Roboto Condensed; font-size: 10px; fill: #000; opacity: 0;">Apr 19</text><text text-anchor="middle" transform="translate(373.3333333333333,10)" style="font-family: Roboto Condensed; font-size: 10px; fill: #000; opacity: 1;">Apr 21</text><text text-anchor="end" transform="translate(400,10)" style="font-family: Roboto Condensed; font-size: 10px; fill: #000; opacity: 0;">Apr 23</text></g><g class="mark-rule role-axis-domain" style="pointer-events: none;"><line transform="translate(0,0)" x2="400" y2="0" style="fill: none; stroke: lightgray; stroke-width: 1; opacity: 1;"></line></g></g><path class="foreground" d="" style="pointer-events: none; display: none; fill: none;"></path></g></g><g class="mark-group role-axis"><g transform="translate(0.5,0.5)"><path class="background" d="M0,0h0v0h0Z" style="pointer-events: none; fill: none;"></path><g><g class="mark-text role-axis-label" style="pointer-events: none;"><text text-anchor="end" transform="translate(-2,303)" style="font-family: Roboto Condensed; font-size: 10px; fill: #000; opacity: 1;">0</text><text text-anchor="end" transform="translate(-2,265.5)" style="font-family: Roboto Condensed; font-size: 10px; fill: #000; opacity: 1;">100</text><text text-anchor="end" transform="translate(-2,228)" style="font-family: Roboto Condensed; font-size: 10px; fill: #000; opacity: 1;">200</text><text text-anchor="end" transform="translate(-2,190.5)" style="font-family: Roboto Condensed; font-size: 10px; fill: #000; opacity: 1;">300</text><text text-anchor="end" transform="translate(-2,153)" style="font-family: Roboto Condensed; font-size: 10px; fill: #000; opacity: 1;">400</text><text text-anchor="end" transform="translate(-2,115.5)" style="font-family: Roboto Condensed; font-size: 10px; fill: #000; opacity: 1;">500</text><text text-anchor="end" transform="translate(-2,78)" style="font-family: Roboto Condensed; font-size: 10px; fill: #000; opacity: 1;">600</text><text text-anchor="end" transform="translate(-2,40.5)" style="font-family: Roboto Condensed; font-size: 10px; fill: #000; opacity: 1;">700</text><text text-anchor="end" transform="translate(-2,3)" style="font-family: Roboto Condensed; font-size: 10px; fill: #000; opacity: 1;">800</text></g><g class="mark-rule role-axis-domain" style="pointer-events: none;"><line transform="translate(0,300)" x2="0" y2="-300" style="fill: none; stroke: lightgray; stroke-width: 1; opacity: 1;"></line></g></g><path class="foreground" d="" style="pointer-events: none; display: none; fill: none;"></path></g></g><g class="mark-group role-scope concat_0_layer_0_pathgroup"><g transform="translate(0,0)"><path class="background" d="M0,0h400v300h-400Z" style="fill: none;"></path><g><g class="mark-line role-mark concat_0_layer_0_marks" clip-path="url(#clip1)"><path d="M-226.66666666666666,300L-213.33333333333334,300L-200,299.94642857142856L-186.66666666666666,299.94642857142856L-173.33333333333334,299.94642857142856L-160,299.94642857142856L-146.66666666666666,299.94642857142856L-133.33333333333331,299.94642857142856L-120,299.94642857142856L-106.66666666666667,300L-93.33333333333333,300L-80,300L-66.66666666666666,299.19642857142856L-53.333333333333336,299.19642857142856L-40,299.19642857142856L-26.666666666666668,299.19642857142856L-13.333333333333334,299.19642857142856L0,299.19642857142856L13.333333333333334,299.19642857142856L26.666666666666668,300L40,300L53.333333333333336,300L66.66666666666666,300L80,300L93.33333333333333,300L106.66666666666667,295.3392857142857L120,295.3392857142857L133.33333333333331,289.875L146.66666666666666,289.875L160,289.875L173.33333333333334,289.875L186.66666666666666,289.875L200,294.5357142857143L213.33333333333334,294.5357142857143L226.66666666666666,290.57142857142856L240,290.57142857142856L253.33333333333331,290.57142857142856L266.66666666666663,290.57142857142856L280,290.57142857142856L293.3333333333333,290.57142857142856L306.6666666666667,281.51785714285717L320,290.94642857142856L333.33333333333337,290.94642857142856L346.6666666666667,290.94642857142856L360,290.94642857142856L373.3333333333333,290.94642857142856L386.6666666666667,290.94642857142856L400,300" style="fill: none; stroke: #e45756; stroke-width: 2; opacity: 1;"></path></g></g><path class="foreground" d="" style="display: none; fill: none;"></path></g><g transform="translate(0,0)"><path class="background" d="M0,0h400v300h-400Z" style="fill: none;"></path><g><g class="mark-line role-mark concat_0_layer_0_marks" clip-path="url(#clip2)"><path d="M-226.66666666666666,300L-213.33333333333334,300L-200,300L-186.66666666666666,300L-173.33333333333334,299.94642857142856L-160,299.94642857142856L-146.66666666666666,299.94642857142856L-133.33333333333331,299.89285714285717L-120,299.8392857142857L-106.66666666666667,299.67857142857144L-93.33333333333333,299.625L-80,299.51785714285717L-66.66666666666666,299.4642857142857L-53.333333333333336,299.19642857142856L-40,299.0357142857143L-26.666666666666668,299.0357142857143L-13.333333333333334,298.98214285714283L0,298.44642857142856L13.333333333333334,297.2142857142857L26.666666666666668,296.4642857142857L40,295.23214285714283L53.333333333333336,295.4464285714286L66.66666666666666,295.23214285714283L80,293.51785714285717L93.33333333333333,292.2857142857143L106.66666666666667,290.51785714285717L120,287.625L133.33333333333331,286.44642857142856L146.66666666666666,285.64285714285717L160,284.4107142857143L173.33333333333334,282.26785714285717L186.66666666666666,277.98214285714283L200,276L213.33333333333334,274.0178571428571L226.66666666666666,272.57142857142856L240,272.4642857142857L253.33333333333331,273.32142857142856L266.66666666666663,276.32142857142856L280,276.32142857142856L293.3333333333333,272.3571428571429L306.6666666666667,271.07142857142856L320,271.60714285714283L333.33333333333337,266.57142857142856L346.6666666666667,265.6607142857143L360,264.5892857142857L373.3333333333333,260.7857142857143L386.6666666666667,260.6785714285714L400,263.1428571428571" style="fill: none; stroke: #f58518; stroke-width: 2; opacity: 1;"></path></g></g><path class="foreground" d="" style="display: none; fill: none;"></path></g><g transform="translate(0,0)"><path class="background" d="M0,0h400v300h-400Z" style="fill: none;"></path><g><g class="mark-line role-mark concat_0_layer_0_marks" clip-path="url(#clip3)"><path d="M-226.66666666666666,292.01785714285717L-213.33333333333334,289.875L-200,287.51785714285717L-186.66666666666666,282.1071428571429L-173.33333333333334,275.0892857142857L-160,272.94642857142856L-146.66666666666666,261.80357142857144L-133.33333333333331,257.1428571428571L-120,256.125L-106.66666666666667,254.19642857142856L-93.33333333333333,255.26785714285714L-80,258.2678571428571L-66.66666666666666,255L-53.333333333333336,255.80357142857142L-40,257.0357142857143L-26.666666666666668,251.30357142857142L-13.333333333333334,249.48214285714286L0,241.28571428571428L13.333333333333334,233.19642857142858L26.666666666666668,224.94642857142858L40,223.39285714285714L53.333333333333336,209.78571428571428L66.66666666666666,205.23214285714283L80,193.82142857142856L93.33333333333333,184.875L106.66666666666667,170.30357142857144L120,153.85714285714286L133.33333333333331,135.9642857142857L146.66666666666666,139.5L160,132.32142857142856L173.33333333333334,129.75L186.66666666666666,125.4642857142857L200,114L213.33333333333334,108.58928571428572L226.66666666666666,109.60714285714285L240,101.35714285714289L253.33333333333331,104.30357142857142L266.66666666666663,99.5357142857143L280,98.99999999999999L293.3333333333333,112.07142857142857L306.6666666666667,117.91071428571428L320,110.83928571428571L333.33333333333337,103.3392857142857L346.6666666666667,90.9642857142857L360,94.87500000000001L373.3333333333333,92.3035714285714L386.6666666666667,81.5892857142857L400,74.19642857142857" style="fill: none; stroke: #4c78a8; stroke-width: 2; opacity: 1;"></path></g></g><path class="foreground" d="" style="display: none; fill: none;"></path></g></g><g class="mark-group role-scope concat_0_layer_1_pathgroup"><g transform="translate(0,0)"><path class="background" d="M0,0h400v300h-400Z" style="fill: none;"></path><g><g class="mark-line role-mark concat_0_layer_1_marks" clip-path="url(#clip4)"><path d="M-306.6666666666667,300L-293.3333333333333,300L-280,300L-266.66666666666663,300L-253.33333333333331,300L-240,300L-226.66666666666666,300L-213.33333333333334,300L-200,299.625L-186.66666666666666,300L-173.33333333333334,300L-160,300L-146.66666666666666,300L-133.33333333333331,300L-120,300L-106.66666666666667,300L-93.33333333333333,300L-80,300L-66.66666666666666,294.375L-53.333333333333336,300L-40,300L-26.666666666666668,300L-13.333333333333334,300L0,300L13.333333333333334,300L26.666666666666668,300L40,300L53.333333333333336,300L66.66666666666666,300L80,300L93.33333333333333,300L106.66666666666667,267.375L120,300L133.33333333333331,261.75L146.66666666666666,300L160,300L173.33333333333334,300L186.66666666666666,300L200,300L213.33333333333334,300L226.66666666666666,234L240,300L253.33333333333331,300L266.66666666666663,300L280,300L293.3333333333333,300L306.6666666666667,236.62500000000003L320,300L333.33333333333337,300L346.6666666666667,300L360,300L373.3333333333333,300L386.6666666666667,300L400,300" style="fill: none; stroke: #e45756; stroke-width: 2; opacity: 0.2;"></path></g></g><path class="foreground" d="" style="display: none; fill: none;"></path></g><g transform="translate(0,0)"><path class="background" d="M0,0h400v300h-400Z" style="fill: none;"></path><g><g class="mark-line role-mark concat_0_layer_1_marks" clip-path="url(#clip5)"><path d="M-306.6666666666667,300L-293.3333333333333,300L-280,300L-266.66666666666663,300L-253.33333333333331,300L-240,300L-226.66666666666666,300L-213.33333333333334,300L-200,300L-186.66666666666666,300L-173.33333333333334,299.625L-160,300L-146.66666666666666,300L-133.33333333333331,299.625L-120,299.625L-106.66666666666667,298.875L-93.33333333333333,299.625L-80,298.875L-66.66666666666666,299.625L-53.333333333333336,298.125L-40,298.5L-26.666666666666668,299.625L-13.333333333333334,298.5L0,295.875L13.333333333333334,290.25L26.666666666666668,294.375L40,289.5L53.333333333333336,300L66.66666666666666,298.125L80,286.5L93.33333333333333,287.25L106.66666666666667,277.875L120,274.125L133.33333333333331,281.25L146.66666666666666,294.375L160,289.5L173.33333333333334,271.5L186.66666666666666,257.25L200,264L213.33333333333334,260.25L226.66666666666666,271.125L240,293.625L253.33333333333331,295.5L266.66666666666663,292.5L280,257.25L293.3333333333333,236.25L306.6666666666667,251.25L320,274.875L333.33333333333337,258.375L346.6666666666667,289.125L360,285L373.3333333333333,230.625L386.6666666666667,235.5L400,268.5" style="fill: none; stroke: #f58518; stroke-width: 2; opacity: 0.2;"></path></g></g><path class="foreground" d="" style="display: none; fill: none;"></path></g><g transform="translate(0,0)"><path class="background" d="M0,0h400v300h-400Z" style="fill: none;"></path><g><g class="mark-line role-mark concat_0_layer_1_marks" clip-path="url(#clip6)"><path d="M-306.6666666666667,299.25L-293.3333333333333,299.625L-280,297.75L-266.66666666666663,294.75L-253.33333333333331,277.875L-240,297.375L-226.66666666666666,277.5L-213.33333333333334,284.25L-200,283.125L-186.66666666666666,259.875L-173.33333333333334,245.625L-160,262.875L-146.66666666666666,219.375L-133.33333333333331,244.875L-120,277.125L-106.66666666666667,269.625L-93.33333333333333,267.375L-80,266.625L-66.66666666666666,240L-53.333333333333336,225L-40,253.5L-26.666666666666668,237L-13.333333333333334,256.875L0,210L13.333333333333334,210L26.666666666666668,182.24999999999997L40,214.125L53.333333333333336,158.25000000000003L66.66666666666666,205.12500000000003L80,177.00000000000003L93.33333333333333,147.375L106.66666666666667,108L120,67.125L133.33333333333331,88.875L146.66666666666666,183L160,154.875L173.33333333333334,159L186.66666666666666,117.375L200,27.750000000000007L213.33333333333334,29.25000000000001L226.66666666666666,95.99999999999999L240,125.25L253.33333333333331,175.5L266.66666666666663,125.62499999999999L280,113.62500000000001L293.3333333333333,119.24999999999999L306.6666666666667,70.125L320,46.50000000000001L333.33333333333337,72.75000000000001L346.6666666666667,88.875L360,153L373.3333333333333,95.625L386.6666666666667,44.249999999999986L400,18.375000000000007" style="fill: none; stroke: #4c78a8; stroke-width: 2; opacity: 0.2;"></path></g></g><path class="foreground" d="" style="display: none; fill: none;"></path></g></g><g class="mark-group role-title"><g transform="translate(200,-22)"><path class="background" d="M0,0h0v0h0Z" style="pointer-events: none; fill: none;"></path><g><g class="mark-text role-title-text" style="pointer-events: none;"><text text-anchor="middle" transform="translate(0,10)" style="font-family: Roboto Condensed; font-size: 13px; font-weight: normal; fill: #000; opacity: 1;">7-day average (Daily values in light color)</text></g></g><path class="foreground" d="" style="pointer-events: none; display: none; fill: none;"></path></g></g></g><path class="foreground" d="" style="display: none; fill: none;"></path></g></g><g class="mark-group role-scope concat_1_group"><g transform="translate(450,0)"><path class="background" d="M0,0h400v300h-400Z" style="fill: none; stroke: #ddd; stroke-width: 0;"></path><g><g class="mark-group role-axis"><g transform="translate(0.5,0.5)"><path class="background" d="M0,0h0v0h0Z" style="pointer-events: none; fill: none;"></path><g><g class="mark-rule role-axis-grid" style="pointer-events: none;"><line transform="translate(0,300)" x2="400" y2="0" style="fill: none; stroke: #ddd; stroke-width: 1; opacity: 1;"></line><line transform="translate(0,267)" x2="400" y2="0" style="fill: none; stroke: #ddd; stroke-width: 1; opacity: 1;"></line><line transform="translate(0,233)" x2="400" y2="0" style="fill: none; stroke: #ddd; stroke-width: 1; opacity: 1;"></line><line transform="translate(0,200)" x2="400" y2="0" style="fill: none; stroke: #ddd; stroke-width: 1; opacity: 1;"></line><line transform="translate(0,167)" x2="400" y2="0" style="fill: none; stroke: #ddd; stroke-width: 1; opacity: 1;"></line><line transform="translate(0,133)" x2="400" y2="0" style="fill: none; stroke: #ddd; stroke-width: 1; opacity: 1;"></line><line transform="translate(0,100)" x2="400" y2="0" style="fill: none; stroke: #ddd; stroke-width: 1; opacity: 1;"></line><line transform="translate(0,67)" x2="400" y2="0" style="fill: none; stroke: #ddd; stroke-width: 1; opacity: 1;"></line><line transform="translate(0,33)" x2="400" y2="0" style="fill: none; stroke: #ddd; stroke-width: 1; opacity: 1;"></line><line transform="translate(0,0)" x2="400" y2="0" style="fill: none; stroke: #ddd; stroke-width: 1; opacity: 1;"></line></g></g><path class="foreground" d="" style="pointer-events: none; display: none; fill: none;"></path></g></g><g class="mark-group role-axis"><g transform="translate(0.5,300.5)"><path class="background" d="M0,0h0v0h0Z" style="pointer-events: none; fill: none;"></path><g><g class="mark-text role-axis-label" style="pointer-events: none;"><text text-anchor="middle" transform="translate(13.333333333333334,10)" style="font-family: Roboto Condensed; font-size: 10px; fill: #000; opacity: 1;">Mar 25</text><text text-anchor="middle" transform="translate(40,10)" style="font-family: Roboto Condensed; font-size: 10px; fill: #000; opacity: 0;">Mar 27</text><text text-anchor="middle" transform="translate(66.66666666666666,10)" style="font-family: Roboto Condensed; font-size: 10px; fill: #000; opacity: 1;">Mar 29</text><text text-anchor="middle" transform="translate(93.33333333333333,10)" style="font-family: Roboto Condensed; font-size: 10px; fill: #000; opacity: 0;">Mar 31</text><text text-anchor="middle" transform="translate(106.66666666666667,10)" style="font-family: Roboto Condensed; font-size: 10px; fill: #000; opacity: 1;">Apr 01</text><text text-anchor="middle" transform="translate(133.33333333333331,10)" style="font-family: Roboto Condensed; font-size: 10px; fill: #000; opacity: 0;">Apr 03</text><text text-anchor="middle" transform="translate(160,10)" style="font-family: Roboto Condensed; font-size: 10px; fill: #000; opacity: 1;">Apr 05</text><text text-anchor="middle" transform="translate(186.66666666666666,10)" style="font-family: Roboto Condensed; font-size: 10px; fill: #000; opacity: 0;">Apr 07</text><text text-anchor="middle" transform="translate(213.33333333333334,10)" style="font-family: Roboto Condensed; font-size: 10px; fill: #000; opacity: 1;">Apr 09</text><text text-anchor="middle" transform="translate(240,10)" style="font-family: Roboto Condensed; font-size: 10px; fill: #000; opacity: 0;">Apr 11</text><text text-anchor="middle" transform="translate(266.66666666666663,10)" style="font-family: Roboto Condensed; font-size: 10px; fill: #000; opacity: 1;">Apr 13</text><text text-anchor="middle" transform="translate(293.3333333333333,10)" style="font-family: Roboto Condensed; font-size: 10px; fill: #000; opacity: 0;">Apr 15</text><text text-anchor="middle" transform="translate(320,10)" style="font-family: Roboto Condensed; font-size: 10px; fill: #000; opacity: 1;">Apr 17</text><text text-anchor="middle" transform="translate(346.6666666666667,10)" style="font-family: Roboto Condensed; font-size: 10px; fill: #000; opacity: 0;">Apr 19</text><text text-anchor="middle" transform="translate(373.3333333333333,10)" style="font-family: Roboto Condensed; font-size: 10px; fill: #000; opacity: 1;">Apr 21</text><text text-anchor="end" transform="translate(400,10)" style="font-family: Roboto Condensed; font-size: 10px; fill: #000; opacity: 0;">Apr 23</text></g><g class="mark-rule role-axis-domain" style="pointer-events: none;"><line transform="translate(0,0)" x2="400" y2="0" style="fill: none; stroke: lightgray; stroke-width: 1; opacity: 1;"></line></g></g><path class="foreground" d="" style="pointer-events: none; display: none; fill: none;"></path></g></g><g class="mark-group role-axis"><g transform="translate(0.5,0.5)"><path class="background" d="M0,0h0v0h0Z" style="pointer-events: none; fill: none;"></path><g><g class="mark-text role-axis-label" style="pointer-events: none;"><text text-anchor="end" transform="translate(-2,303)" style="font-family: Roboto Condensed; font-size: 10px; fill: #000; opacity: 1;">0</text><text text-anchor="end" transform="translate(-2,269.66666666666663)" style="font-family: Roboto Condensed; font-size: 10px; fill: #000; opacity: 1;">2,000</text><text text-anchor="end" transform="translate(-2,236.33333333333334)" style="font-family: Roboto Condensed; font-size: 10px; fill: #000; opacity: 1;">4,000</text><text text-anchor="end" transform="translate(-2,203.00000000000003)" style="font-family: Roboto Condensed; font-size: 10px; fill: #000; opacity: 1;">6,000</text><text text-anchor="end" transform="translate(-2,169.66666666666669)" style="font-family: Roboto Condensed; font-size: 10px; fill: #000; opacity: 1;">8,000</text><text text-anchor="end" transform="translate(-2,136.33333333333331)" style="font-family: Roboto Condensed; font-size: 10px; fill: #000; opacity: 1;">10,000</text><text text-anchor="end" transform="translate(-2,103.00000000000001)" style="font-family: Roboto Condensed; font-size: 10px; fill: #000; opacity: 1;">12,000</text><text text-anchor="end" transform="translate(-2,69.66666666666666)" style="font-family: Roboto Condensed; font-size: 10px; fill: #000; opacity: 1;">14,000</text><text text-anchor="end" transform="translate(-2,36.33333333333335)" style="font-family: Roboto Condensed; font-size: 10px; fill: #000; opacity: 1;">16,000</text><text text-anchor="end" transform="translate(-2,3)" style="font-family: Roboto Condensed; font-size: 10px; fill: #000; opacity: 1;">18,000</text></g><g class="mark-rule role-axis-domain" style="pointer-events: none;"><line transform="translate(0,300)" x2="0" y2="-300" style="fill: none; stroke: lightgray; stroke-width: 1; opacity: 1;"></line></g></g><path class="foreground" d="" style="pointer-events: none; display: none; fill: none;"></path></g></g><g class="mark-group role-scope concat_1_pathgroup"><g transform="translate(0,0)"><path class="background" d="M0,0h400v300h-400Z" style="fill: none;"></path><g><g class="mark-line role-mark concat_1_marks" clip-path="url(#clip7)"><path d="M-706.6666666666666,300L-693.3333333333334,300L-680,300L-666.6666666666667,300L-653.3333333333334,300L-640,300L-626.6666666666666,300L-613.3333333333334,300L-600,300L-586.6666666666666,300L-573.3333333333334,300L-560,300L-546.6666666666666,300L-533.3333333333333,300L-520,300L-506.66666666666663,300L-493.33333333333337,300L-480,300L-466.6666666666667,300L-453.3333333333333,300L-440.00000000000006,300L-426.6666666666667,300L-413.33333333333337,300L-400,300L-386.6666666666667,300L-373.3333333333333,300L-360,300L-346.6666666666667,300L-333.33333333333337,300L-320,300L-306.6666666666667,300L-293.3333333333333,300L-280,300L-266.66666666666663,300L-253.33333333333331,300L-240,300L-226.66666666666666,300L-213.33333333333334,300L-200,299.98333333333335L-186.66666666666666,299.98333333333335L-173.33333333333334,299.98333333333335L-160,299.98333333333335L-146.66666666666666,299.98333333333335L-133.33333333333331,299.98333333333335L-120,299.98333333333335L-106.66666666666667,299.98333333333335L-93.33333333333333,299.98333333333335L-80,299.98333333333335L-66.66666666666666,299.7333333333333L-53.333333333333336,299.7333333333333L-40,299.7333333333333L-26.666666666666668,299.7333333333333L-13.333333333333334,299.7333333333333L0,299.7333333333333L13.333333333333334,299.7333333333333L26.666666666666668,299.7333333333333L40,299.7333333333333L53.333333333333336,299.7333333333333L66.66666666666666,299.7333333333333L80,299.7333333333333L93.33333333333333,299.7333333333333L106.66666666666667,298.28333333333336L120,298.28333333333336L133.33333333333331,296.5833333333333L146.66666666666666,296.5833333333333L160,296.5833333333333L173.33333333333334,296.5833333333333L186.66666666666666,296.5833333333333L200,296.5833333333333L213.33333333333334,296.5833333333333L226.66666666666666,293.65L240,293.65L253.33333333333331,293.65L266.66666666666663,293.65L280,293.65L293.3333333333333,293.65L306.6666666666667,290.8333333333333L320,290.8333333333333L333.33333333333337,290.8333333333333L346.6666666666667,290.8333333333333L360,290.8333333333333L373.3333333333333,290.8333333333333L386.6666666666667,290.8333333333333L400,290.8333333333333" style="fill: none; stroke: #e45756; stroke-width: 2; opacity: 0.7;"></path></g></g><path class="foreground" d="" style="display: none; fill: none;"></path></g><g transform="translate(0,0)"><path class="background" d="M0,0h400v300h-400Z" style="fill: none;"></path><g><g class="mark-line role-mark concat_1_marks" clip-path="url(#clip8)"><path d="M-706.6666666666666,300L-693.3333333333334,300L-680,300L-666.6666666666667,300L-653.3333333333334,300L-640,300L-626.6666666666666,300L-613.3333333333334,300L-600,300L-586.6666666666666,300L-573.3333333333334,300L-560,300L-546.6666666666666,300L-533.3333333333333,300L-520,300L-506.66666666666663,300L-493.33333333333337,300L-480,300L-466.6666666666667,300L-453.3333333333333,300L-440.00000000000006,300L-426.6666666666667,300L-413.33333333333337,300L-400,300L-386.6666666666667,300L-373.3333333333333,300L-360,300L-346.6666666666667,300L-333.33333333333337,300L-320,300L-306.6666666666667,300L-293.3333333333333,300L-280,300L-266.66666666666663,300L-253.33333333333331,300L-240,300L-226.66666666666666,300L-213.33333333333334,300L-200,300L-186.66666666666666,300L-173.33333333333334,299.98333333333335L-160,299.98333333333335L-146.66666666666666,299.98333333333335L-133.33333333333331,299.9666666666667L-120,299.95L-106.66666666666667,299.90000000000003L-93.33333333333333,299.8833333333333L-80,299.8333333333333L-66.66666666666666,299.81666666666666L-53.333333333333336,299.7333333333333L-40,299.6666666666667L-26.666666666666668,299.65L-13.333333333333334,299.5833333333333L0,299.4L13.333333333333334,298.96666666666664L26.666666666666668,298.71666666666664L40,298.25L53.333333333333336,298.25L66.66666666666666,298.1666666666667L80,297.56666666666666L93.33333333333333,297L106.66666666666667,296.0166666666667L120,294.8666666666667L133.33333333333331,294.03333333333336L146.66666666666666,293.78333333333336L160,293.31666666666666L173.33333333333334,292.05L186.66666666666666,290.15L200,288.55L213.33333333333334,286.78333333333336L226.66666666666666,285.5L240,285.2166666666667L253.33333333333331,285.01666666666665L266.66666666666663,284.68333333333334L280,282.7833333333333L293.3333333333333,279.95L306.6666666666667,277.78333333333336L320,276.6666666666667L333.33333333333337,274.81666666666666L346.6666666666667,274.3333333333333L360,273.6666666666667L373.3333333333333,270.5833333333333L386.6666666666667,267.7166666666667L400,266.31666666666666" style="fill: none; stroke: #f58518; stroke-width: 2; opacity: 0.7;"></path></g></g><path class="foreground" d="" style="display: none; fill: none;"></path></g><g transform="translate(0,0)"><path class="background" d="M0,0h400v300h-400Z" style="fill: none;"></path><g><g class="mark-line role-mark concat_1_marks" clip-path="url(#clip9)"><path d="M-706.6666666666666,299.98333333333335L-693.3333333333334,299.98333333333335L-680,299.98333333333335L-666.6666666666667,299.98333333333335L-653.3333333333334,299.98333333333335L-640,299.98333333333335L-626.6666666666666,299.98333333333335L-613.3333333333334,299.98333333333335L-600,299.98333333333335L-586.6666666666666,299.98333333333335L-573.3333333333334,299.98333333333335L-560,299.98333333333335L-546.6666666666666,299.98333333333335L-533.3333333333333,299.98333333333335L-520,299.98333333333335L-506.66666666666663,299.98333333333335L-493.33333333333337,299.98333333333335L-480,299.98333333333335L-466.6666666666667,299.98333333333335L-453.3333333333333,299.98333333333335L-440.00000000000006,299.98333333333335L-426.6666666666667,299.98333333333335L-413.33333333333337,299.98333333333335L-400,299.98333333333335L-386.6666666666667,299.98333333333335L-373.3333333333333,299.98333333333335L-360,299.9666666666667L-346.6666666666667,299.8833333333333L-333.33333333333337,299.8833333333333L-320,299.8L-306.6666666666667,299.76666666666665L-293.3333333333333,299.75L-280,299.65L-266.66666666666663,299.4166666666667L-253.33333333333331,298.43333333333334L-240,298.31666666666666L-226.66666666666666,297.31666666666666L-213.33333333333334,296.6166666666667L-200,295.8666666666667L-186.66666666666666,294.0833333333333L-173.33333333333334,291.6666666666667L-160,290.01666666666665L-146.66666666666666,286.43333333333334L-133.33333333333331,283.98333333333335L-120,282.96666666666664L-106.66666666666667,281.6166666666667L-93.33333333333333,280.1666666666667L-80,278.68333333333334L-66.66666666666666,276.01666666666665L-53.333333333333336,272.68333333333334L-40,270.6166666666667L-26.666666666666668,267.81666666666666L-13.333333333333334,265.9L0,261.9L13.333333333333334,257.90000000000003L26.666666666666668,252.66666666666666L40,248.85L53.333333333333336,242.55L66.66666666666666,238.33333333333334L80,232.86666666666667L93.33333333333333,226.08333333333334L106.66666666666667,217.55L120,207.2L133.33333333333331,197.81666666666666L146.66666666666666,192.61666666666667L160,186.16666666666666L173.33333333333334,179.9L186.66666666666666,171.78333333333336L200,159.68333333333337L213.33333333333334,147.65L226.66666666666666,138.58333333333334L240,130.81666666666666L253.33333333333331,125.28333333333335L266.66666666666663,117.53333333333333L280,109.24999999999999L293.3333333333333,101.21666666666665L306.6666666666667,91L320,79.73333333333333L333.33333333333337,69.63333333333335L346.6666666666667,60.24999999999999L360,53.716666666666654L373.3333333333333,44.63333333333333L386.6666666666667,33.26666666666668L400,20.750000000000014" style="fill: none; stroke: #4c78a8; stroke-width: 2; opacity: 0.7;"></path></g></g><path class="foreground" d="" style="display: none; fill: none;"></path></g></g><g class="mark-group role-title"><g transform="translate(200,-22)"><path class="background" d="M0,0h0v0h0Z" style="pointer-events: none; fill: none;"></path><g><g class="mark-text role-title-text" style="pointer-events: none;"><text text-anchor="middle" transform="translate(0,10)" style="font-family: Roboto Condensed; font-size: 13px; font-weight: normal; fill: #000; opacity: 1;">Total</text></g></g><path class="foreground" d="" style="pointer-events: none; display: none; fill: none;"></path></g></g></g><path class="foreground" d="" style="display: none; fill: none;"></path></g></g><g class="mark-group role-legend"><g transform="translate(868,0)"><path class="background" d="M0,0h60v37h-60Z" style="pointer-events: none; fill: none;"></path><g><g class="mark-group role-legend-entry"><g transform="translate(0,0)"><path class="background" d="M0,0h0v0h0Z" style="pointer-events: none; fill: none;"></path><g><g class="mark-group role-scope"><g transform="translate(0,0)"><path class="background" d="M0,0h59.3251953125v11h-59.3251953125Z" style="pointer-events: none; fill: none; opacity: 1;"></path><g><g class="mark-symbol role-legend-symbol" style="pointer-events: none;"><path transform="translate(6,6)" d="M-5,0L5,0" style="fill: none; stroke: #4c78a8; stroke-width: 1.5; opacity: 1;"></path></g><g class="mark-text role-legend-label" style="pointer-events: none;"><text text-anchor="start" transform="translate(16,9)" style="font-family: Roboto Condensed; font-size: 10px; fill: #000; opacity: 1;">Confirmed</text></g></g><path class="foreground" d="" style="pointer-events: none; display: none; fill: none;"></path></g><g transform="translate(0,13)"><path class="background" d="M0,0h59.3251953125v11h-59.3251953125Z" style="pointer-events: none; fill: none; opacity: 1;"></path><g><g class="mark-symbol role-legend-symbol" style="pointer-events: none;"><path transform="translate(6,6)" d="M-5,0L5,0" style="fill: none; stroke: #f58518; stroke-width: 1.5; opacity: 1;"></path></g><g class="mark-text role-legend-label" style="pointer-events: none;"><text text-anchor="start" transform="translate(16,9)" style="font-family: Roboto Condensed; font-size: 10px; fill: #000; opacity: 1;">Deaths</text></g></g><path class="foreground" d="" style="pointer-events: none; display: none; fill: none;"></path></g><g transform="translate(0,26)"><path class="background" d="M0,0h59.3251953125v11h-59.3251953125Z" style="pointer-events: none; fill: none; opacity: 1;"></path><g><g class="mark-symbol role-legend-symbol" style="pointer-events: none;"><path transform="translate(6,6)" d="M-5,0L5,0" style="fill: none; stroke: #e45756; stroke-width: 1.5; opacity: 1;"></path></g><g class="mark-text role-legend-label" style="pointer-events: none;"><text text-anchor="start" transform="translate(16,9)" style="font-family: Roboto Condensed; font-size: 10px; fill: #000; opacity: 1;">Recovered</text></g></g><path class="foreground" d="" style="pointer-events: none; display: none; fill: none;"></path></g></g></g><path class="foreground" d="" style="pointer-events: none; display: none; fill: none;"></path></g></g></g><path class="foreground" d="" style="pointer-events: none; display: none; fill: none;"></path></g></g></g><path class="foreground" d="" style="display: none; fill: none;"></path></g></g></g></svg>