<svg class="marks" width="950" height="344" viewBox="0 0 950 344" version="1.1" xmlns="http://www.w3.org/2000/svg" xmlns:xlink="http://www.w3.org/1999/xlink"><rect width="950" height="344" style="fill: white;"></rect><defs><clipPath id="clip1"><rect x="0" y="0" width="400" height="300"></rect></clipPath><clipPath id="clip2"><rect x="0" y="0" width="400" height="300"></rect></clipPath><clipPath id="clip3"><rect x="0" y="0" width="400" height="300"></rect></clipPath><clipPath id="clip4"><rect x="0" y="0" width="400" height="300"></rect></clipPath><clipPath id="clip5"><rect x="0" y="0" width="400" height="300"></rect></clipPath><clipPath id="clip6"><rect x="0" y="0" width="400" height="300"></rect></clipPath><clipPath id="clip7"><rect x="0" y="0" width="400" height="300"></rect></clipPath><clipPath id="clip8"><rect x="0" y="0" width="400" height="300"></rect></clipPath><clipPath id="clip9"><rect x="0" y="0" width="400" height="300"></rect></clipPath></defs><g transform="translate(22,27)"><g class="mark-group role-frame root"><g transform="translate(0,0)"><path class="background" d="M0,0h0v0h0Z" style="fill: none;"></path><g><g class="mark-group role-scope concat_0_group"><g transform="translate(0,0)"><path class="background" d="M0,0h400v300h-400Z" style="fill: none; stroke: #ddd; stroke-width: 0;"></path><g><g class="mark-group role-axis"><g transform="translate(0.5,0.5)"><path class="background" d="M0,0h0v0h0Z" style="pointer-events: none; fill: none;"></path><g><g class="mark-rule role-axis-grid" style="pointer-events: none;"><line transform="translate(0,300)" x2="400" y2="0" style="fill: none; stroke: #ddd; stroke-width: 1; opacity: 1;"></line><line transform="translate(0,267)" x2="400" y2="0" style="fill: none; stroke: #ddd; stroke-width: 1; opacity: 1;"></line><line transform="translate(0,233)" x2="400" y2="0" style="fill: none; stroke: #ddd; stroke-width: 1; opacity: 1;"></line><line transform="translate(0,200)" x2="400" y2="0" style="fill: none; stroke: #ddd; stroke-width: 1; opacity: 1;"></line><line transform="translate(0,167)" x2="400" y2="0" style="fill: none; stroke: #ddd; stroke-width: 1; opacity: 1;"></line><line transform="translate(0,133)" x2="400" y2="0" style="fill: none; stroke: #ddd; stroke-width: 1; opacity: 1;"></line><line transform="translate(0,100)" x2="400" y2="0" style="fill: none; stroke: #ddd; stroke-width: 1; opacity: 1;"></line><line transform="translate(0,67)" x2="400" y2="0" style="fill: none; stroke: #ddd; stroke-width: 1; opacity: 1;"></line><line transform="translate(0,33)" x2="400" y2="0" style="fill: none; stroke: #ddd; stroke-width: 1; opacity: 1;"></line><line transform="translate(0,0)" x2="400" y2="0" style="fill: none; stroke: #ddd; stroke-width: 1; opacity: 1;"></line></g></g><path class="foreground" d="" style="pointer-events: none; display: none; fill: none;"></path></g></g><g class="mark-group role-axis"><g transform="translate(0.5,300.5)"><path class="background" d="M0,0h0v0h0Z" style="pointer-events: none; fill: none;"></path><g><g class="mark-text role-axis-label" style="pointer-events: none;"><text text-anchor="start" transform="translate(0,10)" style="font-family: Roboto Condensed; font-size: 10px; fill: #000; opacity: 1;">Mar 23</text><text text-anchor="middle" transform="translate(30.76923076923077,10)" style="font-family: Roboto Condensed; font-size: 10px; fill: #000; opacity: 0;">Mar 25</text><text text-anchor="middle" transform="translate(61.53846153846154,10)" style="font-family: Roboto Condensed; font-size: 10px; fill: #000; opacity: 1;">Mar 27</text><text text-anchor="middle" transform="translate(92.3076923076923,10)" style="font-family: Roboto Condensed; font-size: 10px; fill: #000; opacity: 0;">Mar 29</text><text text-anchor="middle" transform="translate(123.07692307692308,10)" style="font-family: Roboto Condensed; font-size: 10px; fill: #000; opacity: 1;">Mar 31</text><text text-anchor="middle" transform="translate(138.46153846153845,10)" style="font-family: Roboto Condensed; font-size: 10px; fill: #000; opacity: 0;">Apr 01</text><text text-anchor="middle" transform="translate(169.23076923076923,10)" style="font-family: Roboto Condensed; font-size: 10px; fill: #000; opacity: 1;">Apr 03</text><text text-anchor="middle" transform="translate(200,10)" style="font-family: Roboto Condensed; font-size: 10px; fill: #000; opacity: 0;">Apr 05</text><text text-anchor="middle" transform="translate(230.76923076923075,10)" style="font-family: Roboto Condensed; font-size: 10px; fill: #000; opacity: 1;">Apr 07</text><text text-anchor="middle" transform="translate(261.53846153846155,10)" style="font-family: Roboto Condensed; font-size: 10px; fill: #000; opacity: 0;">Apr 09</text><text text-anchor="middle" transform="translate(292.30769230769226,10)" style="font-family: Roboto Condensed; font-size: 10px; fill: #000; opacity: 1;">Apr 11</text><text text-anchor="middle" transform="translate(323.0769230769231,10)" style="font-family: Roboto Condensed; font-size: 10px; fill: #000; opacity: 0;">Apr 13</text><text text-anchor="middle" transform="translate(353.8461538461538,10)" style="font-family: Roboto Condensed; font-size: 10px; fill: #000; opacity: 1;">Apr 15</text><text text-anchor="middle" transform="translate(384.61538461538464,10)" style="font-family: Roboto Condensed; font-size: 10px; fill: #000; opacity: 0;">Apr 17</text></g><g class="mark-rule role-axis-domain" style="pointer-events: none;"><line transform="translate(0,0)" x2="400" y2="0" style="fill: none; stroke: lightgray; stroke-width: 1; opacity: 1;"></line></g></g><path class="foreground" d="" style="pointer-events: none; display: none; fill: none;"></path></g></g><g class="mark-group role-axis"><g transform="translate(0.5,0.5)"><path class="background" d="M0,0h0v0h0Z" style="pointer-events: none; fill: none;"></path><g><g class="mark-text role-axis-label" style="pointer-events: none;"><text text-anchor="end" transform="translate(-2,303)" style="font-family: Roboto Condensed; font-size: 10px; fill: #000; opacity: 1;">0</text><text text-anchor="end" transform="translate(-2,269.66666666666663)" style="font-family: Roboto Condensed; font-size: 10px; fill: #000; opacity: 1;">100</text><text text-anchor="end" transform="translate(-2,236.33333333333334)" style="font-family: Roboto Condensed; font-size: 10px; fill: #000; opacity: 1;">200</text><text text-anchor="end" transform="translate(-2,203.00000000000003)" style="font-family: Roboto Condensed; font-size: 10px; fill: #000; opacity: 1;">300</text><text text-anchor="end" transform="translate(-2,169.66666666666669)" style="font-family: Roboto Condensed; font-size: 10px; fill: #000; opacity: 1;">400</text><text text-anchor="end" transform="translate(-2,136.33333333333331)" style="font-family: Roboto Condensed; font-size: 10px; fill: #000; opacity: 1;">500</text><text text-anchor="end" transform="translate(-2,103.00000000000001)" style="font-family: Roboto Condensed; font-size: 10px; fill: #000; opacity: 1;">600</text><text text-anchor="end" transform="translate(-2,69.66666666666666)" style="font-family: Roboto Condensed; font-size: 10px; fill: #000; opacity: 1;">700</text><text text-anchor="end" transform="translate(-2,36.33333333333335)" style="font-family: Roboto Condensed; font-size: 10px; fill: #000; opacity: 1;">800</text><text text-anchor="end" transform="translate(-2,3)" style="font-family: Roboto Condensed; font-size: 10px; fill: #000; opacity: 1;">900</text></g><g class="mark-rule role-axis-domain" style="pointer-events: none;"><line transform="translate(0,300)" x2="0" y2="-300" style="fill: none; stroke: lightgray; stroke-width: 1; opacity: 1;"></line></g></g><path class="foreground" d="" style="pointer-events: none; display: none; fill: none;"></path></g></g><g class="mark-group role-scope concat_0_layer_0_pathgroup"><g transform="translate(0,0)"><path class="background" d="M0,0h400v300h-400Z" style="fill: none;"></path><g><g class="mark-line role-mark concat_0_layer_0_marks" clip-path="url(#clip1)"><path d="M-246.15384615384616,299.95238095238096L-230.76923076923075,299.95238095238096L-215.3846153846154,299.95238095238096L-200,299.95238095238096L-184.6153846153846,299.95238095238096L-169.23076923076923,299.95238095238096L-153.84615384615387,300L-138.46153846153845,300L-123.07692307692308,300L-107.6923076923077,300L-92.3076923076923,300L-76.92307692307693,300L-61.53846153846154,300L-46.15384615384615,300L-30.76923076923077,300L-15.384615384615385,299.85714285714283L0,298.90476190476187L15.384615384615385,298.3333333333333L30.76923076923077,298.0952380952381L46.15384615384615,297.6666666666667L61.53846153846154,297.33333333333337L76.92307692307693,297.33333333333337L92.3076923076923,296.7142857142857L107.6923076923077,297.6666666666667L123.07692307692308,298.04761904761904L138.46153846153845,255.7142857142857L153.84615384615387,246.57142857142858L169.23076923076923,241.42857142857144L184.6153846153846,237.04761904761907L200,235.42857142857144L215.3846153846154,232.57142857142858L230.76923076923075,226.47619047619045L246.15384615384616,262.2857142857143L261.53846153846155,266.1428571428571L276.9230769230769,269.42857142857144L292.30769230769226,265.14285714285717L307.69230769230774,258.95238095238096L323.0769230769231,256.4761904761905L338.46153846153845,249.14285714285714L353.8461538461538,244.66666666666669L369.2307692307692,237.14285714285714L384.61538461538464,221.8095238095238L400,208.57142857142856L415.3846153846154,203.00000000000003L430.7692307692308,200.19047619047618L446.1538461538462,195.23809523809524L461.5384615384615,188.04761904761907" style="fill: none; stroke: #e45756; stroke-width: 2; opacity: 1;"></path></g></g><path class="foreground" d="" style="display: none; fill: none;"></path></g><g transform="translate(0,0)"><path class="background" d="M0,0h400v300h-400Z" style="fill: none;"></path><g><g class="mark-line role-mark concat_0_layer_0_marks" clip-path="url(#clip2)"><path d="M-246.15384615384616,300L-230.76923076923075,300L-215.3846153846154,300L-200,300L-184.6153846153846,300L-169.23076923076923,300L-153.84615384615387,300L-138.46153846153845,299.95238095238096L-123.07692307692308,299.9047619047619L-107.6923076923077,299.85714285714283L-92.3076923076923,299.8095238095238L-76.92307692307693,299.8095238095238L-61.53846153846154,299.7142857142857L-46.15384615384615,299.57142857142856L-30.76923076923077,299.42857142857144L-15.384615384615385,299.4761904761905L0,299L15.384615384615385,298.6666666666667L30.76923076923077,298.57142857142856L46.15384615384615,298.3333333333333L61.53846153846154,297.95238095238096L76.92307692307693,297.5238095238095L92.3076923076923,297.1904761904762L107.6923076923077,297.4761904761905L123.07692307692308,297.23809523809524L138.46153846153845,296.6666666666667L153.84615384615387,296.0952380952381L169.23076923076923,295.85714285714283L184.6153846153846,295.42857142857144L200,294.9047619047619L215.3846153846154,294.76190476190476L230.76923076923075,294.61904761904765L246.15384615384616,294.5714285714286L261.53846153846155,294.5714285714286L276.9230769230769,294.8571428571429L292.30769230769226,295.2857142857143L307.69230769230774,295.5238095238095L323.0769230769231,295.3333333333333L338.46153846153845,295.42857142857144L353.8461538461538,295.66666666666663L369.2307692307692,296L384.61538461538464,295.76190476190476L400,295.90476190476187L415.3846153846154,296.0952380952381L430.7692307692308,296.23809523809524L446.1538461538462,296.6190476190476L461.5384615384615,296.42857142857144" style="fill: none; stroke: #f58518; stroke-width: 2; opacity: 1;"></path></g></g><path class="foreground" d="" style="display: none; fill: none;"></path></g><g transform="translate(0,0)"><path class="background" d="M0,0h400v300h-400Z" style="fill: none;"></path><g><g class="mark-line role-mark concat_0_layer_0_marks" clip-path="url(#clip3)"><path d="M-246.15384615384616,299.04761904761904L-230.76923076923075,298.5238095238095L-215.3846153846154,295.90476190476187L-200,287.80952380952385L-184.6153846153846,279.3333333333333L-169.23076923076923,271.09523809523813L-153.84615384615387,262.8095238095238L-138.46153846153845,261.2857142857143L-123.07692307692308,260L-107.6923076923077,259.90476190476187L-92.3076923076923,263.7142857142857L-76.92307692307693,268.04761904761904L-61.53846153846154,271.04761904761904L-46.15384615384615,274.61904761904765L-30.76923076923077,272.1904761904762L-15.384615384615385,269.57142857142856L0,269.5238095238095L15.384615384615385,266.95238095238096L30.76923076923077,264.42857142857144L46.15384615384615,262L61.53846153846154,258.9047619047619L76.92307692307693,254.95238095238096L92.3076923076923,250L107.6923076923077,243.66666666666666L123.07692307692308,237.0952380952381L138.46153846153845,232L153.84615384615387,226.19047619047618L169.23076923076923,216.85714285714286L184.6153846153846,209.38095238095238L200,204.90476190476193L215.3846153846154,199.04761904761907L230.76923076923075,193.95238095238093L246.15384615384616,190.14285714285714L261.53846153846155,192.52380952380952L276.9230769230769,201.52380952380952L292.30769230769226,208.47619047619048L307.69230769230774,213.90476190476193L323.0769230769231,222L338.46153846153845,231.42857142857142L353.8461538461538,239.09523809523807L369.2307692307692,240.76190476190476L384.61538461538464,240.28571428571428L400,240.66666666666666L415.3846153846154,242.33333333333334L430.7692307692308,242.95238095238093L446.1538461538462,243.57142857142858L461.5384615384615,241.33333333333331" style="fill: none; stroke: #4c78a8; stroke-width: 2; opacity: 1;"></path></g></g><path class="foreground" d="" style="display: none; fill: none;"></path></g></g><g class="mark-group role-scope concat_0_layer_1_pathgroup"><g transform="translate(0,0)"><path class="background" d="M0,0h400v300h-400Z" style="fill: none;"></path><g><g class="mark-line role-mark concat_0_layer_1_marks" clip-path="url(#clip4)"><path d="M-338.46153846153845,300L-323.0769230769231,300L-307.69230769230774,300L-292.30769230769226,300L-276.9230769230769,300L-261.53846153846155,299.6666666666667L-246.15384615384616,300L-230.76923076923075,300L-215.3846153846154,300L-200,300L-184.6153846153846,300L-169.23076923076923,300L-153.84615384615387,300L-138.46153846153845,300L-123.07692307692308,300L-107.6923076923077,300L-92.3076923076923,300L-76.92307692307693,300L-61.53846153846154,300L-46.15384615384615,300L-30.76923076923077,300L-15.384615384615385,299L0,293.3333333333333L15.384615384615385,296L30.76923076923077,298.3333333333333L46.15384615384615,297L61.53846153846154,297.6666666666667L76.92307692307693,300L92.3076923076923,294.6666666666667L107.6923076923077,300L123.07692307692308,298.6666666666667L138.46153846153845,2.000000000000013L153.84615384615387,232.99999999999997L169.23076923076923,261.6666666666667L184.6153846153846,269.3333333333333L200,283.3333333333333L215.3846153846154,280L230.76923076923075,255.99999999999997L246.15384615384616,252.66666666666666L261.53846153846155,260L276.9230769230769,284.6666666666667L292.30769230769226,239.33333333333334L307.69230769230774,240L323.0769230769231,262.6666666666667L338.46153846153845,204.66666666666669L353.8461538461538,221.33333333333331L369.2307692307692,207.33333333333334L384.61538461538464,177.33333333333334L400,146.66666666666669L415.3846153846154,200.99999999999997L430.7692307692308,243.00000000000003L446.1538461538462,170L461.5384615384615,171.00000000000003" style="fill: none; stroke: #e45756; stroke-width: 2; opacity: 0.2;"></path></g></g><path class="foreground" d="" style="display: none; fill: none;"></path></g><g transform="translate(0,0)"><path class="background" d="M0,0h400v300h-400Z" style="fill: none;"></path><g><g class="mark-line role-mark concat_0_layer_1_marks" clip-path="url(#clip5)"><path d="M-338.46153846153845,300L-323.0769230769231,300L-307.69230769230774,300L-292.30769230769226,300L-276.9230769230769,300L-261.53846153846155,300L-246.15384615384616,300L-230.76923076923075,300L-215.3846153846154,300L-200,300L-184.6153846153846,300L-169.23076923076923,300L-153.84615384615387,300L-138.46153846153845,299.6666666666667L-123.07692307692308,299.6666666666667L-107.6923076923077,299.6666666666667L-92.3076923076923,299.6666666666667L-76.92307692307693,300L-61.53846153846154,299.3333333333333L-46.15384615384615,299L-30.76923076923077,298.6666666666667L-15.384615384615385,300L0,296.3333333333333L15.384615384615385,297.33333333333337L30.76923076923077,299.3333333333333L46.15384615384615,297.6666666666667L61.53846153846154,296.3333333333333L76.92307692307693,295.66666666666663L92.3076923076923,297.6666666666667L107.6923076923077,298.3333333333333L123.07692307692308,295.66666666666663L138.46153846153845,295.3333333333333L153.84615384615387,293.6666666666667L169.23076923076923,294.6666666666667L184.6153846153846,292.66666666666663L200,294L215.3846153846154,297.33333333333337L230.76923076923075,294.6666666666667L246.15384615384616,295L261.53846153846155,293.6666666666667L276.9230769230769,296.6666666666667L292.30769230769226,295.66666666666663L307.69230769230774,295.66666666666663L323.0769230769231,296L338.46153846153845,295.3333333333333L353.8461538461538,296.6666666666667L369.2307692307692,296L384.61538461538464,295L400,296.6666666666667L415.3846153846154,297L430.7692307692308,297L446.1538461538462,298L461.5384615384615,295.3333333333333" style="fill: none; stroke: #f58518; stroke-width: 2; opacity: 0.2;"></path></g></g><path class="foreground" d="" style="display: none; fill: none;"></path></g><g transform="translate(0,0)"><path class="background" d="M0,0h400v300h-400Z" style="fill: none;"></path><g><g class="mark-line role-mark concat_0_layer_1_marks" clip-path="url(#clip6)"><path d="M-338.46153846153845,299.6666666666667L-323.0769230769231,300L-307.69230769230774,299.3333333333333L-292.30769230769226,298.6666666666667L-276.9230769230769,300L-261.53846153846155,295.66666666666663L-246.15384615384616,300L-230.76923076923075,296L-215.3846153846154,281.6666666666667L-200,242.66666666666666L-184.6153846153846,239.33333333333334L-169.23076923076923,242.33333333333334L-153.84615384615387,237.66666666666666L-138.46153846153845,289.3333333333333L-123.07692307692308,287L-107.6923076923077,281L-92.3076923076923,269.3333333333333L-76.92307692307693,269.66666666666663L-61.53846153846154,263.3333333333333L-46.15384615384615,262.6666666666667L-30.76923076923077,272.3333333333333L-15.384615384615385,268.6666666666667L0,280.6666666666667L15.384615384615385,251.33333333333331L30.76923076923077,252L46.15384615384615,246.33333333333334L61.53846153846154,241L76.92307692307693,244.66666666666669L92.3076923076923,234L107.6923076923077,236.33333333333334L123.07692307692308,205.33333333333331L138.46153846153845,216.33333333333331L153.84615384615387,205.66666666666663L169.23076923076923,175.66666666666669L184.6153846153846,192.33333333333334L200,202.66666666666669L215.3846153846154,195.33333333333331L230.76923076923075,169.66666666666669L246.15384615384616,189.66666666666669L261.53846153846155,222.33333333333331L276.9230769230769,238.66666666666669L292.30769230769226,241L307.69230769230774,240.66666666666666L323.0769230769231,252L338.46153846153845,235.66666666666666L353.8461538461538,243.33333333333334L369.2307692307692,234L384.61538461538464,235.33333333333334L400,243.66666666666666L415.3846153846154,252.33333333333334L430.7692307692308,256.3333333333333L446.1538461538462,240L461.5384615384615,227.66666666666669" style="fill: none; stroke: #4c78a8; stroke-width: 2; opacity: 0.2;"></path></g></g><path class="foreground" d="" style="display: none; fill: none;"></path></g></g><g class="mark-group role-title"><g transform="translate(200,-22)"><path class="background" d="M0,0h0v0h0Z" style="pointer-events: none; fill: none;"></path><g><g class="mark-text role-title-text" style="pointer-events: none;"><text text-anchor="middle" transform="translate(0,10)" style="font-family: Roboto Condensed; font-size: 13px; font-weight: normal; fill: #000; opacity: 1;">7-day average (Daily values in light color)</text></g></g><path class="foreground" d="" style="pointer-events: none; display: none; fill: none;"></path></g></g></g><path class="foreground" d="" style="display: none; fill: none;"></path></g></g><g class="mark-group role-scope concat_1_group"><g transform="translate(445,0)"><path class="background" d="M0,0h400v300h-400Z" style="fill: none; stroke: #ddd; stroke-width: 0;"></path><g><g class="mark-group role-axis"><g transform="translate(0.5,0.5)"><path class="background" d="M0,0h0v0h0Z" style="pointer-events: none; fill: none;"></path><g><g class="mark-rule role-axis-grid" style="pointer-events: none;"><line transform="translate(0,300)" x2="400" y2="0" style="fill: none; stroke: #ddd; stroke-width: 1; opacity: 1;"></line><line transform="translate(0,267)" x2="400" y2="0" style="fill: none; stroke: #ddd; stroke-width: 1; opacity: 1;"></line><line transform="translate(0,233)" x2="400" y2="0" style="fill: none; stroke: #ddd; stroke-width: 1; opacity: 1;"></line><line transform="translate(0,200)" x2="400" y2="0" style="fill: none; stroke: #ddd; stroke-width: 1; opacity: 1;"></line><line transform="translate(0,167)" x2="400" y2="0" style="fill: none; stroke: #ddd; stroke-width: 1; opacity: 1;"></line><line transform="translate(0,133)" x2="400" y2="0" style="fill: none; stroke: #ddd; stroke-width: 1; opacity: 1;"></line><line transform="translate(0,100)" x2="400" y2="0" style="fill: none; stroke: #ddd; stroke-width: 1; opacity: 1;"></line><line transform="translate(0,67)" x2="400" y2="0" style="fill: none; stroke: #ddd; stroke-width: 1; opacity: 1;"></line><line transform="translate(0,33)" x2="400" y2="0" style="fill: none; stroke: #ddd; stroke-width: 1; opacity: 1;"></line><line transform="translate(0,0)" x2="400" y2="0" style="fill: none; stroke: #ddd; stroke-width: 1; opacity: 1;"></line></g></g><path class="foreground" d="" style="pointer-events: none; display: none; fill: none;"></path></g></g><g class="mark-group role-axis"><g transform="translate(0.5,300.5)"><path class="background" d="M0,0h0v0h0Z" style="pointer-events: none; fill: none;"></path><g><g class="mark-text role-axis-label" style="pointer-events: none;"><text text-anchor="start" transform="translate(0,10)" style="font-family: Roboto Condensed; font-size: 10px; fill: #000; opacity: 1;">Mar 23</text><text text-anchor="middle" transform="translate(30.76923076923077,10)" style="font-family: Roboto Condensed; font-size: 10px; fill: #000; opacity: 0;">Mar 25</text><text text-anchor="middle" transform="translate(61.53846153846154,10)" style="font-family: Roboto Condensed; font-size: 10px; fill: #000; opacity: 1;">Mar 27</text><text text-anchor="middle" transform="translate(92.3076923076923,10)" style="font-family: Roboto Condensed; font-size: 10px; fill: #000; opacity: 0;">Mar 29</text><text text-anchor="middle" transform="translate(123.07692307692308,10)" style="font-family: Roboto Condensed; font-size: 10px; fill: #000; opacity: 1;">Mar 31</text><text text-anchor="middle" transform="translate(138.46153846153845,10)" style="font-family: Roboto Condensed; font-size: 10px; fill: #000; opacity: 0;">Apr 01</text><text text-anchor="middle" transform="translate(169.23076923076923,10)" style="font-family: Roboto Condensed; font-size: 10px; fill: #000; opacity: 1;">Apr 03</text><text text-anchor="middle" transform="translate(200,10)" style="font-family: Roboto Condensed; font-size: 10px; fill: #000; opacity: 0;">Apr 05</text><text text-anchor="middle" transform="translate(230.76923076923075,10)" style="font-family: Roboto Condensed; font-size: 10px; fill: #000; opacity: 1;">Apr 07</text><text text-anchor="middle" transform="translate(261.53846153846155,10)" style="font-family: Roboto Condensed; font-size: 10px; fill: #000; opacity: 0;">Apr 09</text><text text-anchor="middle" transform="translate(292.30769230769226,10)" style="font-family: Roboto Condensed; font-size: 10px; fill: #000; opacity: 1;">Apr 11</text><text text-anchor="middle" transform="translate(323.0769230769231,10)" style="font-family: Roboto Condensed; font-size: 10px; fill: #000; opacity: 0;">Apr 13</text><text text-anchor="middle" transform="translate(353.8461538461538,10)" style="font-family: Roboto Condensed; font-size: 10px; fill: #000; opacity: 1;">Apr 15</text><text text-anchor="middle" transform="translate(384.61538461538464,10)" style="font-family: Roboto Condensed; font-size: 10px; fill: #000; opacity: 0;">Apr 17</text></g><g class="mark-rule role-axis-domain" style="pointer-events: none;"><line transform="translate(0,0)" x2="400" y2="0" style="fill: none; stroke: lightgray; stroke-width: 1; opacity: 1;"></line></g></g><path class="foreground" d="" style="pointer-events: none; display: none; fill: none;"></path></g></g><g class="mark-group role-axis"><g transform="translate(0.5,0.5)"><path class="background" d="M0,0h0v0h0Z" style="pointer-events: none; fill: none;"></path><g><g class="mark-text role-axis-label" style="pointer-events: none;"><text text-anchor="end" transform="translate(-2,303)" style="font-family: Roboto Condensed; font-size: 10px; fill: #000; opacity: 1;">0</text><text text-anchor="end" transform="translate(-2,269.66666666666663)" style="font-family: Roboto Condensed; font-size: 10px; fill: #000; opacity: 1;">1,000</text><text text-anchor="end" transform="translate(-2,236.33333333333334)" style="font-family: Roboto Condensed; font-size: 10px; fill: #000; opacity: 1;">2,000</text><text text-anchor="end" transform="translate(-2,203.00000000000003)" style="font-family: Roboto Condensed; font-size: 10px; fill: #000; opacity: 1;">3,000</text><text text-anchor="end" transform="translate(-2,169.66666666666669)" style="font-family: Roboto Condensed; font-size: 10px; fill: #000; opacity: 1;">4,000</text><text text-anchor="end" transform="translate(-2,136.33333333333331)" style="font-family: Roboto Condensed; font-size: 10px; fill: #000; opacity: 1;">5,000</text><text text-anchor="end" transform="translate(-2,103.00000000000001)" style="font-family: Roboto Condensed; font-size: 10px; fill: #000; opacity: 1;">6,000</text><text text-anchor="end" transform="translate(-2,69.66666666666666)" style="font-family: Roboto Condensed; font-size: 10px; fill: #000; opacity: 1;">7,000</text><text text-anchor="end" transform="translate(-2,36.33333333333335)" style="font-family: Roboto Condensed; font-size: 10px; fill: #000; opacity: 1;">8,000</text><text text-anchor="end" transform="translate(-2,3)" style="font-family: Roboto Condensed; font-size: 10px; fill: #000; opacity: 1;">9,000</text></g><g class="mark-rule role-axis-domain" style="pointer-events: none;"><line transform="translate(0,300)" x2="0" y2="-300" style="fill: none; stroke: lightgray; stroke-width: 1; opacity: 1;"></line></g></g><path class="foreground" d="" style="pointer-events: none; display: none; fill: none;"></path></g></g><g class="mark-group role-scope concat_1_pathgroup"><g transform="translate(0,0)"><path class="background" d="M0,0h400v300h-400Z" style="fill: none;"></path><g><g class="mark-line role-mark concat_1_marks" clip-path="url(#clip7)"><path d="M-384.61538461538464,300L-369.2307692307692,300L-353.8461538461538,300L-338.46153846153845,300L-323.0769230769231,300L-307.69230769230774,300L-292.30769230769226,300L-276.9230769230769,300L-261.53846153846155,299.9666666666667L-246.15384615384616,299.9666666666667L-230.76923076923075,299.9666666666667L-215.3846153846154,299.9666666666667L-200,299.9666666666667L-184.6153846153846,299.9666666666667L-169.23076923076923,299.9666666666667L-153.84615384615387,299.9666666666667L-138.46153846153845,299.9666666666667L-123.07692307692308,299.9666666666667L-107.6923076923077,299.9666666666667L-92.3076923076923,299.9666666666667L-76.92307692307693,299.9666666666667L-61.53846153846154,299.9666666666667L-46.15384615384615,299.9666666666667L-30.76923076923077,299.9666666666667L-15.384615384615385,299.8666666666667L0,299.2L15.384615384615385,298.8L30.76923076923077,298.6333333333333L46.15384615384615,298.3333333333333L61.53846153846154,298.1L76.92307692307693,298.1L92.3076923076923,297.56666666666666L107.6923076923077,297.56666666666666L123.07692307692308,297.43333333333334L138.46153846153845,267.6333333333333L153.84615384615387,260.93333333333334L169.23076923076923,257.1L184.6153846153846,254.03333333333333L200,252.36666666666667L215.3846153846154,250.36666666666665L230.76923076923075,245.96666666666667L246.15384615384616,241.23333333333332L261.53846153846155,237.23333333333335L276.9230769230769,235.70000000000002L292.30769230769226,229.63333333333335L307.69230769230774,223.63333333333333L323.0769230769231,219.9L338.46153846153845,210.36666666666665L353.8461538461538,202.5L369.2307692307692,193.23333333333332L384.61538461538464,180.96666666666667L400,165.63333333333333L415.3846153846154,155.73333333333332L430.7692307692308,150.03333333333336L446.1538461538462,137.03333333333333L461.5384615384615,124.13333333333334" style="fill: none; stroke: #e45756; stroke-width: 2; opacity: 0.7;"></path></g></g><path class="foreground" d="" style="display: none; fill: none;"></path></g><g transform="translate(0,0)"><path class="background" d="M0,0h400v300h-400Z" style="fill: none;"></path><g><g class="mark-line role-mark concat_1_marks" clip-path="url(#clip8)"><path d="M-384.61538461538464,300L-369.2307692307692,300L-353.8461538461538,300L-338.46153846153845,300L-323.0769230769231,300L-307.69230769230774,300L-292.30769230769226,300L-276.9230769230769,300L-261.53846153846155,300L-246.15384615384616,300L-230.76923076923075,300L-215.3846153846154,300L-200,300L-184.6153846153846,300L-169.23076923076923,300L-153.84615384615387,300L-138.46153846153845,299.9666666666667L-123.07692307692308,299.93333333333334L-107.6923076923077,299.90000000000003L-92.3076923076923,299.8666666666667L-76.92307692307693,299.8666666666667L-61.53846153846154,299.8L-46.15384615384615,299.7L-30.76923076923077,299.56666666666666L-15.384615384615385,299.56666666666666L0,299.2L15.384615384615385,298.93333333333334L30.76923076923077,298.8666666666667L46.15384615384615,298.6333333333333L61.53846153846154,298.26666666666665L76.92307692307693,297.8333333333333L92.3076923076923,297.6L107.6923076923077,297.43333333333334L123.07692307692308,297L138.46153846153845,296.53333333333336L153.84615384615387,295.9L169.23076923076923,295.3666666666667L184.6153846153846,294.6333333333333L200,294.03333333333336L215.3846153846154,293.76666666666665L230.76923076923075,293.23333333333335L246.15384615384616,292.73333333333335L261.53846153846155,292.1L276.9230769230769,291.76666666666665L292.30769230769226,291.33333333333337L307.69230769230774,290.9L323.0769230769231,290.5L338.46153846153845,290.0333333333333L353.8461538461538,289.7L369.2307692307692,289.3L384.61538461538464,288.8L400,288.46666666666664L415.3846153846154,288.1666666666667L430.7692307692308,287.8666666666667L446.1538461538462,287.6666666666667L461.5384615384615,287.2" style="fill: none; stroke: #f58518; stroke-width: 2; opacity: 0.7;"></path></g></g><path class="foreground" d="" style="display: none; fill: none;"></path></g><g transform="translate(0,0)"><path class="background" d="M0,0h400v300h-400Z" style="fill: none;"></path><g><g class="mark-line role-mark concat_1_marks" clip-path="url(#clip9)"><path d="M-384.61538461538464,299.9666666666667L-369.2307692307692,299.9666666666667L-353.8461538461538,299.90000000000003L-338.46153846153845,299.8666666666667L-323.0769230769231,299.8666666666667L-307.69230769230774,299.8L-292.30769230769226,299.6666666666667L-276.9230769230769,299.6666666666667L-261.53846153846155,299.23333333333335L-246.15384615384616,299.23333333333335L-230.76923076923075,298.8333333333333L-215.3846153846154,297L-200,291.26666666666665L-184.6153846153846,285.2L-169.23076923076923,279.43333333333334L-153.84615384615387,273.2L-138.46153846153845,272.1333333333333L-123.07692307692308,270.8333333333333L-107.6923076923077,268.93333333333334L-92.3076923076923,265.8666666666667L-76.92307692307693,262.8333333333333L-61.53846153846154,259.1666666666667L-46.15384615384615,255.43333333333334L-30.76923076923077,252.66666666666666L-15.384615384615385,249.53333333333333L0,247.60000000000002L15.384615384615385,242.73333333333335L30.76923076923077,237.93333333333334L46.15384615384615,232.56666666666666L61.53846153846154,226.66666666666666L76.92307692307693,221.13333333333333L92.3076923076923,214.5333333333333L107.6923076923077,208.16666666666666L123.07692307692308,198.7L138.46153846153845,190.33333333333331L153.84615384615387,180.9L169.23076923076923,168.46666666666667L184.6153846153846,157.70000000000002L200,147.96666666666667L215.3846153846154,137.5L230.76923076923075,124.46666666666665L246.15384615384616,113.43333333333332L261.53846153846155,105.66666666666666L276.9230769230769,99.53333333333332L292.30769230769226,93.63333333333334L307.69230769230774,87.7L323.0769230769231,82.89999999999999L338.46153846153845,76.46666666666668L353.8461538461538,70.8L369.2307692307692,64.19999999999999L384.61538461538464,57.73333333333333L400,52.099999999999994L415.3846153846154,47.333333333333336L430.7692307692308,42.966666666666676L446.1538461538462,36.96666666666667L461.5384615384615,29.733333333333345" style="fill: none; stroke: #4c78a8; stroke-width: 2; opacity: 0.7;"></path></g></g><path class="foreground" d="" style="display: none; fill: none;"></path></g></g><g class="mark-group role-title"><g transform="translate(200,-22)"><path class="background" d="M0,0h0v0h0Z" style="pointer-events: none; fill: none;"></path><g><g class="mark-text role-title-text" style="pointer-events: none;"><text text-anchor="middle" transform="translate(0,10)" style="font-family: Roboto Condensed; font-size: 13px; font-weight: normal; fill: #000; opacity: 1;">Total</text></g></g><path class="foreground" d="" style="pointer-events: none; display: none; fill: none;"></path></g></g></g><path class="foreground" d="" style="display: none; fill: none;"></path></g></g><g class="mark-group role-legend"><g transform="translate(863,0)"><path class="background" d="M0,0h60v37h-60Z" style="pointer-events: none; fill: none;"></path><g><g class="mark-group role-legend-entry"><g transform="translate(0,0)"><path class="background" d="M0,0h0v0h0Z" style="pointer-events: none; fill: none;"></path><g><g class="mark-group role-scope"><g transform="translate(0,0)"><path class="background" d="M0,0h59.3251953125v11h-59.3251953125Z" style="pointer-events: none; fill: none; opacity: 1;"></path><g><g class="mark-symbol role-legend-symbol" style="pointer-events: none;"><path transform="translate(6,6)" d="M-5,0L5,0" style="fill: none; stroke: #4c78a8; stroke-width: 1.5; opacity: 1;"></path></g><g class="mark-text role-legend-label" style="pointer-events: none;"><text text-anchor="start" transform="translate(16,9)" style="font-family: Roboto Condensed; font-size: 10px; fill: #000; opacity: 1;">Confirmed</text></g></g><path class="foreground" d="" style="pointer-events: none; display: none; fill: none;"></path></g><g transform="translate(0,13)"><path class="background" d="M0,0h59.3251953125v11h-59.3251953125Z" style="pointer-events: none; fill: none; opacity: 1;"></path><g><g class="mark-symbol role-legend-symbol" style="pointer-events: none;"><path transform="translate(6,6)" d="M-5,0L5,0" style="fill: none; stroke: #f58518; stroke-width: 1.5; opacity: 1;"></path></g><g class="mark-text role-legend-label" style="pointer-events: none;"><text text-anchor="start" transform="translate(16,9)" style="font-family: Roboto Condensed; font-size: 10px; fill: #000; opacity: 1;">Deaths</text></g></g><path class="foreground" d="" style="pointer-events: none; display: none; fill: none;"></path></g><g transform="translate(0,26)"><path class="background" d="M0,0h59.3251953125v11h-59.3251953125Z" style="pointer-events: none; fill: none; opacity: 1;"></path><g><g class="mark-symbol role-legend-symbol" style="pointer-events: none;"><path transform="translate(6,6)" d="M-5,0L5,0" style="fill: none; stroke: #e45756; stroke-width: 1.5; opacity: 1;"></path></g><g class="mark-text role-legend-label" style="pointer-events: none;"><text text-anchor="start" transform="translate(16,9)" style="font-family: Roboto Condensed; font-size: 10px; fill: #000; opacity: 1;">Recovered</text></g></g><path class="foreground" d="" style="pointer-events: none; display: none; fill: none;"></path></g></g></g><path class="foreground" d="" style="pointer-events: none; display: none; fill: none;"></path></g></g></g><path class="foreground" d="" style="pointer-events: none; display: none; fill: none;"></path></g></g></g><path class="foreground" d="" style="display: none; fill: none;"></path></g></g></g></svg>