<svg class="marks" width="958" height="344" viewBox="0 0 958 344" version="1.1" xmlns="http://www.w3.org/2000/svg" xmlns:xlink="http://www.w3.org/1999/xlink"><rect width="958" height="344" style="fill: white;"></rect><defs><clipPath id="clip1"><rect x="0" y="0" width="400" height="300"></rect></clipPath><clipPath id="clip2"><rect x="0" y="0" width="400" height="300"></rect></clipPath><clipPath id="clip3"><rect x="0" y="0" width="400" height="300"></rect></clipPath><clipPath id="clip4"><rect x="0" y="0" width="400" height="300"></rect></clipPath><clipPath id="clip5"><rect x="0" y="0" width="400" height="300"></rect></clipPath><clipPath id="clip6"><rect x="0" y="0" width="400" height="300"></rect></clipPath><clipPath id="clip7"><rect x="0" y="0" width="400" height="300"></rect></clipPath><clipPath id="clip8"><rect x="0" y="0" width="400" height="300"></rect></clipPath><clipPath id="clip9"><rect x="0" y="0" width="400" height="300"></rect></clipPath></defs><g transform="translate(30,27)"><g class="mark-group role-frame root"><g transform="translate(0,0)"><path class="background" d="M0,0h0v0h0Z" style="fill: none;"></path><g><g class="mark-group role-scope concat_0_group"><g transform="translate(0,0)"><path class="background" d="M0,0h400v300h-400Z" style="fill: none; stroke: #ddd; stroke-width: 0;"></path><g><g class="mark-group role-axis"><g transform="translate(0.5,0.5)"><path class="background" d="M0,0h0v0h0Z" style="pointer-events: none; fill: none;"></path><g><g class="mark-rule role-axis-grid" style="pointer-events: none;"><line transform="translate(0,300)" x2="400" y2="0" style="fill: none; stroke: #ddd; stroke-width: 1; opacity: 1;"></line><line transform="translate(0,263)" x2="400" y2="0" style="fill: none; stroke: #ddd; stroke-width: 1; opacity: 1;"></line><line transform="translate(0,225)" x2="400" y2="0" style="fill: none; stroke: #ddd; stroke-width: 1; opacity: 1;"></line><line transform="translate(0,188)" x2="400" y2="0" style="fill: none; stroke: #ddd; stroke-width: 1; opacity: 1;"></line><line transform="translate(0,150)" x2="400" y2="0" style="fill: none; stroke: #ddd; stroke-width: 1; opacity: 1;"></line><line transform="translate(0,113)" x2="400" y2="0" style="fill: none; stroke: #ddd; stroke-width: 1; opacity: 1;"></line><line transform="translate(0,75)" x2="400" y2="0" style="fill: none; stroke: #ddd; stroke-width: 1; opacity: 1;"></line><line transform="translate(0,38)" x2="400" y2="0" style="fill: none; stroke: #ddd; stroke-width: 1; opacity: 1;"></line><line transform="translate(0,0)" x2="400" y2="0" style="fill: none; stroke: #ddd; stroke-width: 1; opacity: 1;"></line></g></g><path class="foreground" d="" style="pointer-events: none; display: none; fill: none;"></path></g></g><g class="mark-group role-axis"><g transform="translate(0.5,300.5)"><path class="background" d="M0,0h0v0h0Z" style="pointer-events: none; fill: none;"></path><g><g class="mark-text role-axis-label" style="pointer-events: none;"><text text-anchor="start" transform="translate(0,10)" style="font-family: Roboto Condensed; font-size: 10px; fill: #000; opacity: 1;">Mar 23</text><text text-anchor="middle" transform="translate(30.76923076923077,10)" style="font-family: Roboto Condensed; font-size: 10px; fill: #000; opacity: 0;">Mar 25</text><text text-anchor="middle" transform="translate(61.53846153846154,10)" style="font-family: Roboto Condensed; font-size: 10px; fill: #000; opacity: 1;">Mar 27</text><text text-anchor="middle" transform="translate(92.3076923076923,10)" style="font-family: Roboto Condensed; font-size: 10px; fill: #000; opacity: 0;">Mar 29</text><text text-anchor="middle" transform="translate(123.07692307692308,10)" style="font-family: Roboto Condensed; font-size: 10px; fill: #000; opacity: 1;">Mar 31</text><text text-anchor="middle" transform="translate(138.46153846153845,10)" style="font-family: Roboto Condensed; font-size: 10px; fill: #000; opacity: 0;">Apr 01</text><text text-anchor="middle" transform="translate(169.23076923076923,10)" style="font-family: Roboto Condensed; font-size: 10px; fill: #000; opacity: 1;">Apr 03</text><text text-anchor="middle" transform="translate(200,10)" style="font-family: Roboto Condensed; font-size: 10px; fill: #000; opacity: 0;">Apr 05</text><text text-anchor="middle" transform="translate(230.76923076923075,10)" style="font-family: Roboto Condensed; font-size: 10px; fill: #000; opacity: 1;">Apr 07</text><text text-anchor="middle" transform="translate(261.53846153846155,10)" style="font-family: Roboto Condensed; font-size: 10px; fill: #000; opacity: 0;">Apr 09</text><text text-anchor="middle" transform="translate(292.30769230769226,10)" style="font-family: Roboto Condensed; font-size: 10px; fill: #000; opacity: 1;">Apr 11</text><text text-anchor="middle" transform="translate(323.0769230769231,10)" style="font-family: Roboto Condensed; font-size: 10px; fill: #000; opacity: 0;">Apr 13</text><text text-anchor="middle" transform="translate(353.8461538461538,10)" style="font-family: Roboto Condensed; font-size: 10px; fill: #000; opacity: 1;">Apr 15</text><text text-anchor="middle" transform="translate(384.61538461538464,10)" style="font-family: Roboto Condensed; font-size: 10px; fill: #000; opacity: 0;">Apr 17</text></g><g class="mark-rule role-axis-domain" style="pointer-events: none;"><line transform="translate(0,0)" x2="400" y2="0" style="fill: none; stroke: lightgray; stroke-width: 1; opacity: 1;"></line></g></g><path class="foreground" d="" style="pointer-events: none; display: none; fill: none;"></path></g></g><g class="mark-group role-axis"><g transform="translate(0.5,0.5)"><path class="background" d="M0,0h0v0h0Z" style="pointer-events: none; fill: none;"></path><g><g class="mark-text role-axis-label" style="pointer-events: none;"><text text-anchor="end" transform="translate(-2,303)" style="font-family: Roboto Condensed; font-size: 10px; fill: #000; opacity: 1;">-200</text><text text-anchor="end" transform="translate(-2,265.5)" style="font-family: Roboto Condensed; font-size: 10px; fill: #000; opacity: 1;">0</text><text text-anchor="end" transform="translate(-2,228)" style="font-family: Roboto Condensed; font-size: 10px; fill: #000; opacity: 1;">200</text><text text-anchor="end" transform="translate(-2,190.5)" style="font-family: Roboto Condensed; font-size: 10px; fill: #000; opacity: 1;">400</text><text text-anchor="end" transform="translate(-2,153)" style="font-family: Roboto Condensed; font-size: 10px; fill: #000; opacity: 1;">600</text><text text-anchor="end" transform="translate(-2,115.5)" style="font-family: Roboto Condensed; font-size: 10px; fill: #000; opacity: 1;">800</text><text text-anchor="end" transform="translate(-2,78)" style="font-family: Roboto Condensed; font-size: 10px; fill: #000; opacity: 1;">1,000</text><text text-anchor="end" transform="translate(-2,40.5)" style="font-family: Roboto Condensed; font-size: 10px; fill: #000; opacity: 1;">1,200</text><text text-anchor="end" transform="translate(-2,3)" style="font-family: Roboto Condensed; font-size: 10px; fill: #000; opacity: 1;">1,400</text></g><g class="mark-rule role-axis-domain" style="pointer-events: none;"><line transform="translate(0,300)" x2="0" y2="-300" style="fill: none; stroke: lightgray; stroke-width: 1; opacity: 1;"></line></g></g><path class="foreground" d="" style="pointer-events: none; display: none; fill: none;"></path></g></g><g class="mark-group role-scope concat_0_layer_0_pathgroup"><g transform="translate(0,0)"><path class="background" d="M0,0h400v300h-400Z" style="fill: none;"></path><g><g class="mark-line role-mark concat_0_layer_0_marks" clip-path="url(#clip1)"><path d="M-246.15384615384616,262.5L-230.76923076923075,262.5L-215.3846153846154,262.5L-200,262.5L-184.6153846153846,262.5L-169.23076923076923,262.5L-153.84615384615387,262.5L-138.46153846153845,262.5L-123.07692307692308,262.25892857142856L-107.6923076923077,262.25892857142856L-92.3076923076923,262.25892857142856L-76.92307692307693,262.25892857142856L-61.53846153846154,262.25892857142856L-46.15384615384615,262.25892857142856L-30.76923076923077,262.25892857142856L-15.384615384615385,262.5L0,262.5L15.384615384615385,262.5L30.76923076923077,262.5L46.15384615384615,262.5L61.53846153846154,262.5L76.92307692307693,262.5L92.3076923076923,262.5L107.6923076923077,262.5L123.07692307692308,262.5L138.46153846153845,262.5L153.84615384615387,254.73214285714286L169.23076923076923,254.73214285714286L184.6153846153846,254.73214285714286L200,254.73214285714286L215.3846153846154,254.73214285714286L230.76923076923075,254.73214285714286L246.15384615384616,254.73214285714286L261.53846153846155,262.5L276.9230769230769,262.5L292.30769230769226,262.5L307.69230769230774,262.5L323.0769230769231,262.5L338.46153846153845,262.5L353.8461538461538,262.5L369.2307692307692,225L384.61538461538464,225L400,225L415.3846153846154,225L430.7692307692308,216.96428571428572L446.1538461538462,216.96428571428572L461.5384615384615,216.96428571428572" style="fill: none; stroke: #e45756; stroke-width: 2; opacity: 1;"></path></g></g><path class="foreground" d="" style="display: none; fill: none;"></path></g><g transform="translate(0,0)"><path class="background" d="M0,0h400v300h-400Z" style="fill: none;"></path><g><g class="mark-line role-mark concat_0_layer_0_marks" clip-path="url(#clip2)"><path d="M-246.15384615384616,262.5L-230.76923076923075,262.5L-215.3846153846154,262.5L-200,262.5L-184.6153846153846,262.5L-169.23076923076923,262.5L-153.84615384615387,262.5L-138.46153846153845,262.5L-123.07692307692308,262.5L-107.6923076923077,262.5L-92.3076923076923,262.5L-76.92307692307693,262.5L-61.53846153846154,262.5L-46.15384615384615,262.5L-30.76923076923077,262.4732142857143L-15.384615384615385,262.4732142857143L0,262.4732142857143L15.384615384615385,262.4732142857143L30.76923076923077,262.41964285714283L46.15384615384615,262.36607142857144L61.53846153846154,262.3125L76.92307692307693,262.2857142857143L92.3076923076923,262.23214285714283L107.6923076923077,262.17857142857144L123.07692307692308,262.07142857142856L138.46153846153845,262.125L153.84615384615387,262.125L169.23076923076923,262.1517857142857L184.6153846153846,262.07142857142856L200,262.0446428571429L215.3846153846154,262.125L230.76923076923075,262.0446428571429L246.15384615384616,261.88392857142856L261.53846153846155,261.88392857142856L276.9230769230769,261.75L292.30769230769226,261.8571428571429L307.69230769230774,261.75L323.0769230769231,261.6428571428571L338.46153846153845,261.69642857142856L353.8461538461538,261.6428571428571L369.2307692307692,261.61607142857144L384.61538461538464,261.5892857142857L400,261.4017857142857L415.3846153846154,261.48214285714283L430.7692307692308,261.4553571428571L446.1538461538462,260.4375L461.5384615384615,260.4375" style="fill: none; stroke: #f58518; stroke-width: 2; opacity: 1;"></path></g></g><path class="foreground" d="" style="display: none; fill: none;"></path></g><g transform="translate(0,0)"><path class="background" d="M0,0h400v300h-400Z" style="fill: none;"></path><g><g class="mark-line role-mark concat_0_layer_0_marks" clip-path="url(#clip3)"><path d="M-246.15384615384616,262.17857142857144L-230.76923076923075,262.0446428571429L-215.3846153846154,261.8571428571429L-200,261.5892857142857L-184.6153846153846,261.08035714285717L-169.23076923076923,261.24107142857144L-153.84615384615387,258.75L-138.46153846153845,256.875L-123.07692307692308,256.58035714285717L-107.6923076923077,255.88392857142856L-92.3076923076923,254.97321428571428L-76.92307692307693,255.08035714285714L-61.53846153846154,253.36607142857144L-46.15384615384615,254.5982142857143L-30.76923076923077,254.51785714285714L-15.384615384615385,252.26785714285714L0,251.16964285714286L15.384615384615385,249.88392857142856L30.76923076923077,247.92857142857142L46.15384615384615,247.55357142857142L61.53846153846154,246.66964285714286L76.92307692307693,245.25L92.3076923076923,246.05357142857142L107.6923076923077,245.0357142857143L123.07692307692308,245.73214285714283L138.46153846153845,247.3392857142857L153.84615384615387,247.5L169.23076923076923,247.125L184.6153846153846,243.3482142857143L200,244.09821428571428L215.3846153846154,240.42857142857142L230.76923076923075,238.6607142857143L246.15384615384616,234.61607142857144L261.53846153846155,233.38392857142858L276.9230769230769,231.5892857142857L292.30769230769226,235.09821428571428L307.69230769230774,234.45535714285714L323.0769230769231,238.71428571428572L338.46153846153845,239.6517857142857L353.8461538461538,242.41071428571428L369.2307692307692,242.0357142857143L384.61538461538464,243.21428571428572L400,241.71428571428572L415.3846153846154,240.83035714285714L430.7692307692308,240.9642857142857L446.1538461538462,239.6517857142857L461.5384615384615,238.60714285714286" style="fill: none; stroke: #4c78a8; stroke-width: 2; opacity: 1;"></path></g></g><path class="foreground" d="" style="display: none; fill: none;"></path></g></g><g class="mark-group role-scope concat_0_layer_1_pathgroup"><g transform="translate(0,0)"><path class="background" d="M0,0h400v300h-400Z" style="fill: none;"></path><g><g class="mark-line role-mark concat_0_layer_1_marks" clip-path="url(#clip4)"><path d="M-338.46153846153845,262.5L-323.0769230769231,262.5L-307.69230769230774,262.5L-292.30769230769226,262.5L-276.9230769230769,262.5L-261.53846153846155,262.5L-246.15384615384616,262.5L-230.76923076923075,262.5L-215.3846153846154,262.5L-200,262.5L-184.6153846153846,262.5L-169.23076923076923,262.5L-153.84615384615387,262.5L-138.46153846153845,262.5L-123.07692307692308,260.8125L-107.6923076923077,262.5L-92.3076923076923,262.5L-76.92307692307693,262.5L-61.53846153846154,262.5L-46.15384615384615,262.5L-30.76923076923077,262.5L-15.384615384615385,262.5L0,262.5L15.384615384615385,262.5L30.76923076923077,262.5L46.15384615384615,262.5L61.53846153846154,262.5L76.92307692307693,262.5L92.3076923076923,262.5L107.6923076923077,262.5L123.07692307692308,262.5L138.46153846153845,262.5L153.84615384615387,208.125L169.23076923076923,262.5L184.6153846153846,262.5L200,262.5L215.3846153846154,262.5L230.76923076923075,262.5L246.15384615384616,262.5L261.53846153846155,262.5L276.9230769230769,262.5L292.30769230769226,262.5L307.69230769230774,262.5L323.0769230769231,262.5L338.46153846153845,262.5L353.8461538461538,262.5L369.2307692307692,0L384.61538461538464,262.5L400,262.5L415.3846153846154,262.5L430.7692307692308,206.25L446.1538461538462,262.5L461.5384615384615,262.5" style="fill: none; stroke: #e45756; stroke-width: 2; opacity: 0.2;"></path></g></g><path class="foreground" d="" style="display: none; fill: none;"></path></g><g transform="translate(0,0)"><path class="background" d="M0,0h400v300h-400Z" style="fill: none;"></path><g><g class="mark-line role-mark concat_0_layer_1_marks" clip-path="url(#clip5)"><path d="M-338.46153846153845,262.5L-323.0769230769231,262.5L-307.69230769230774,262.5L-292.30769230769226,262.5L-276.9230769230769,262.5L-261.53846153846155,262.5L-246.15384615384616,262.5L-230.76923076923075,262.5L-215.3846153846154,262.5L-200,262.5L-184.6153846153846,262.5L-169.23076923076923,262.5L-153.84615384615387,262.5L-138.46153846153845,262.5L-123.07692307692308,262.5L-107.6923076923077,262.5L-92.3076923076923,262.5L-76.92307692307693,262.5L-61.53846153846154,262.5L-46.15384615384615,262.5L-30.76923076923077,262.3125L-15.384615384615385,262.5L0,262.5L15.384615384615385,262.5L30.76923076923077,262.125L46.15384615384615,262.125L61.53846153846154,262.125L76.92307692307693,262.125L92.3076923076923,262.125L107.6923076923077,262.125L123.07692307692308,261.75L138.46153846153845,262.5L153.84615384615387,262.125L169.23076923076923,262.3125L184.6153846153846,261.5625L200,261.9375L215.3846153846154,262.6875L230.76923076923075,261.1875L246.15384615384616,261.375L261.53846153846155,262.125L276.9230769230769,261.375L292.30769230769226,262.3125L307.69230769230774,261.1875L323.0769230769231,261.9375L338.46153846153845,261.5625L353.8461538461538,261L369.2307692307692,261.9375L384.61538461538464,261.1875L400,261L415.3846153846154,261.75L430.7692307692308,261.75L446.1538461538462,254.4375L461.5384615384615,261" style="fill: none; stroke: #f58518; stroke-width: 2; opacity: 0.2;"></path></g></g><path class="foreground" d="" style="display: none; fill: none;"></path></g><g transform="translate(0,0)"><path class="background" d="M0,0h400v300h-400Z" style="fill: none;"></path><g><g class="mark-line role-mark concat_0_layer_1_marks" clip-path="url(#clip6)"><path d="M-338.46153846153845,261.9375L-323.0769230769231,262.5L-307.69230769230774,262.5L-292.30769230769226,262.5L-276.9230769230769,261.375L-261.53846153846155,261.9375L-246.15384615384616,262.5L-230.76923076923075,261L-215.3846153846154,261.1875L-200,260.625L-184.6153846153846,258.9375L-169.23076923076923,262.5L-153.84615384615387,244.49999999999997L-138.46153846153845,249.375L-123.07692307692308,258.9375L-107.6923076923077,256.3125L-92.3076923076923,254.25L-76.92307692307693,259.6875L-61.53846153846154,250.5L-46.15384615384615,253.125L-30.76923076923077,248.8125L-15.384615384615385,243.1875L0,248.625L15.384615384615385,245.25L30.76923076923077,246.00000000000003L46.15384615384615,247.875L61.53846153846154,246.9375L76.92307692307693,238.875L92.3076923076923,248.8125L107.6923076923077,241.49999999999997L123.07692307692308,250.125L138.46153846153845,257.25L153.84615384615387,249L169.23076923076923,244.3125L184.6153846153846,212.4375L200,254.0625L215.3846153846154,215.8125L230.76923076923075,237.75L246.15384615384616,228.93750000000003L261.53846153846155,240.375L276.9230769230769,231.75L292.30769230769226,237L307.69230769230774,249.5625L323.0769230769231,245.625L338.46153846153845,244.3125L353.8461538461538,248.25L369.2307692307692,237.75L384.61538461538464,240L400,226.5L415.3846153846154,243.375L430.7692307692308,246.5625L446.1538461538462,235.12499999999997L461.5384615384615,240.9375" style="fill: none; stroke: #4c78a8; stroke-width: 2; opacity: 0.2;"></path></g></g><path class="foreground" d="" style="display: none; fill: none;"></path></g></g><g class="mark-group role-title"><g transform="translate(200,-22)"><path class="background" d="M0,0h0v0h0Z" style="pointer-events: none; fill: none;"></path><g><g class="mark-text role-title-text" style="pointer-events: none;"><text text-anchor="middle" transform="translate(0,10)" style="font-family: Roboto Condensed; font-size: 13px; font-weight: normal; fill: #000; opacity: 1;">7-day average (Daily values in light color)</text></g></g><path class="foreground" d="" style="pointer-events: none; display: none; fill: none;"></path></g></g></g><path class="foreground" d="" style="display: none; fill: none;"></path></g></g><g class="mark-group role-scope concat_1_group"><g transform="translate(445,0)"><path class="background" d="M0,0h400v300h-400Z" style="fill: none; stroke: #ddd; stroke-width: 0;"></path><g><g class="mark-group role-axis"><g transform="translate(0.5,0.5)"><path class="background" d="M0,0h0v0h0Z" style="pointer-events: none; fill: none;"></path><g><g class="mark-rule role-axis-grid" style="pointer-events: none;"><line transform="translate(0,300)" x2="400" y2="0" style="fill: none; stroke: #ddd; stroke-width: 1; opacity: 1;"></line><line transform="translate(0,267)" x2="400" y2="0" style="fill: none; stroke: #ddd; stroke-width: 1; opacity: 1;"></line><line transform="translate(0,233)" x2="400" y2="0" style="fill: none; stroke: #ddd; stroke-width: 1; opacity: 1;"></line><line transform="translate(0,200)" x2="400" y2="0" style="fill: none; stroke: #ddd; stroke-width: 1; opacity: 1;"></line><line transform="translate(0,167)" x2="400" y2="0" style="fill: none; stroke: #ddd; stroke-width: 1; opacity: 1;"></line><line transform="translate(0,133)" x2="400" y2="0" style="fill: none; stroke: #ddd; stroke-width: 1; opacity: 1;"></line><line transform="translate(0,100)" x2="400" y2="0" style="fill: none; stroke: #ddd; stroke-width: 1; opacity: 1;"></line><line transform="translate(0,67)" x2="400" y2="0" style="fill: none; stroke: #ddd; stroke-width: 1; opacity: 1;"></line><line transform="translate(0,33)" x2="400" y2="0" style="fill: none; stroke: #ddd; stroke-width: 1; opacity: 1;"></line><line transform="translate(0,0)" x2="400" y2="0" style="fill: none; stroke: #ddd; stroke-width: 1; opacity: 1;"></line></g></g><path class="foreground" d="" style="pointer-events: none; display: none; fill: none;"></path></g></g><g class="mark-group role-axis"><g transform="translate(0.5,300.5)"><path class="background" d="M0,0h0v0h0Z" style="pointer-events: none; fill: none;"></path><g><g class="mark-text role-axis-label" style="pointer-events: none;"><text text-anchor="start" transform="translate(0,10)" style="font-family: Roboto Condensed; font-size: 10px; fill: #000; opacity: 1;">Mar 23</text><text text-anchor="middle" transform="translate(30.76923076923077,10)" style="font-family: Roboto Condensed; font-size: 10px; fill: #000; opacity: 0;">Mar 25</text><text text-anchor="middle" transform="translate(61.53846153846154,10)" style="font-family: Roboto Condensed; font-size: 10px; fill: #000; opacity: 1;">Mar 27</text><text text-anchor="middle" transform="translate(92.3076923076923,10)" style="font-family: Roboto Condensed; font-size: 10px; fill: #000; opacity: 0;">Mar 29</text><text text-anchor="middle" transform="translate(123.07692307692308,10)" style="font-family: Roboto Condensed; font-size: 10px; fill: #000; opacity: 1;">Mar 31</text><text text-anchor="middle" transform="translate(138.46153846153845,10)" style="font-family: Roboto Condensed; font-size: 10px; fill: #000; opacity: 0;">Apr 01</text><text text-anchor="middle" transform="translate(169.23076923076923,10)" style="font-family: Roboto Condensed; font-size: 10px; fill: #000; opacity: 1;">Apr 03</text><text text-anchor="middle" transform="translate(200,10)" style="font-family: Roboto Condensed; font-size: 10px; fill: #000; opacity: 0;">Apr 05</text><text text-anchor="middle" transform="translate(230.76923076923075,10)" style="font-family: Roboto Condensed; font-size: 10px; fill: #000; opacity: 1;">Apr 07</text><text text-anchor="middle" transform="translate(261.53846153846155,10)" style="font-family: Roboto Condensed; font-size: 10px; fill: #000; opacity: 0;">Apr 09</text><text text-anchor="middle" transform="translate(292.30769230769226,10)" style="font-family: Roboto Condensed; font-size: 10px; fill: #000; opacity: 1;">Apr 11</text><text text-anchor="middle" transform="translate(323.0769230769231,10)" style="font-family: Roboto Condensed; font-size: 10px; fill: #000; opacity: 0;">Apr 13</text><text text-anchor="middle" transform="translate(353.8461538461538,10)" style="font-family: Roboto Condensed; font-size: 10px; fill: #000; opacity: 1;">Apr 15</text><text text-anchor="middle" transform="translate(384.61538461538464,10)" style="font-family: Roboto Condensed; font-size: 10px; fill: #000; opacity: 0;">Apr 17</text></g><g class="mark-rule role-axis-domain" style="pointer-events: none;"><line transform="translate(0,0)" x2="400" y2="0" style="fill: none; stroke: lightgray; stroke-width: 1; opacity: 1;"></line></g></g><path class="foreground" d="" style="pointer-events: none; display: none; fill: none;"></path></g></g><g class="mark-group role-axis"><g transform="translate(0.5,0.5)"><path class="background" d="M0,0h0v0h0Z" style="pointer-events: none; fill: none;"></path><g><g class="mark-text role-axis-label" style="pointer-events: none;"><text text-anchor="end" transform="translate(-2,303)" style="font-family: Roboto Condensed; font-size: 10px; fill: #000; opacity: 1;">0</text><text text-anchor="end" transform="translate(-2,269.66666666666663)" style="font-family: Roboto Condensed; font-size: 10px; fill: #000; opacity: 1;">500</text><text text-anchor="end" transform="translate(-2,236.33333333333334)" style="font-family: Roboto Condensed; font-size: 10px; fill: #000; opacity: 1;">1,000</text><text text-anchor="end" transform="translate(-2,203.00000000000003)" style="font-family: Roboto Condensed; font-size: 10px; fill: #000; opacity: 1;">1,500</text><text text-anchor="end" transform="translate(-2,169.66666666666669)" style="font-family: Roboto Condensed; font-size: 10px; fill: #000; opacity: 1;">2,000</text><text text-anchor="end" transform="translate(-2,136.33333333333331)" style="font-family: Roboto Condensed; font-size: 10px; fill: #000; opacity: 1;">2,500</text><text text-anchor="end" transform="translate(-2,103.00000000000001)" style="font-family: Roboto Condensed; font-size: 10px; fill: #000; opacity: 1;">3,000</text><text text-anchor="end" transform="translate(-2,69.66666666666666)" style="font-family: Roboto Condensed; font-size: 10px; fill: #000; opacity: 1;">3,500</text><text text-anchor="end" transform="translate(-2,36.33333333333335)" style="font-family: Roboto Condensed; font-size: 10px; fill: #000; opacity: 1;">4,000</text><text text-anchor="end" transform="translate(-2,3)" style="font-family: Roboto Condensed; font-size: 10px; fill: #000; opacity: 1;">4,500</text></g><g class="mark-rule role-axis-domain" style="pointer-events: none;"><line transform="translate(0,300)" x2="0" y2="-300" style="fill: none; stroke: lightgray; stroke-width: 1; opacity: 1;"></line></g></g><path class="foreground" d="" style="pointer-events: none; display: none; fill: none;"></path></g></g><g class="mark-group role-scope concat_1_pathgroup"><g transform="translate(0,0)"><path class="background" d="M0,0h400v300h-400Z" style="fill: none;"></path><g><g class="mark-line role-mark concat_1_marks" clip-path="url(#clip7)"><path d="M-830.7692307692308,300L-815.3846153846154,300L-800,300L-784.6153846153845,300L-769.2307692307693,300L-753.8461538461538,300L-738.4615384615385,300L-723.0769230769231,300L-707.6923076923076,300L-692.3076923076924,300L-676.9230769230769,300L-661.5384615384615,300L-646.1538461538462,300L-630.7692307692307,300L-615.3846153846155,299.93333333333334L-600,299.93333333333334L-584.6153846153845,299.93333333333334L-569.2307692307693,299.93333333333334L-553.8461538461538,299.93333333333334L-538.4615384615385,299.93333333333334L-523.0769230769231,299.93333333333334L-507.6923076923077,299.93333333333334L-492.3076923076923,299.93333333333334L-476.9230769230769,299.93333333333334L-461.5384615384615,299.93333333333334L-446.1538461538462,299.93333333333334L-430.7692307692308,299.93333333333334L-415.3846153846154,299.93333333333334L-400,299.93333333333334L-384.61538461538464,299.93333333333334L-369.2307692307692,299.93333333333334L-353.8461538461538,299.93333333333334L-338.46153846153845,299.93333333333334L-323.0769230769231,299.93333333333334L-307.69230769230774,299.93333333333334L-292.30769230769226,299.93333333333334L-276.9230769230769,299.93333333333334L-261.53846153846155,299.93333333333334L-246.15384615384616,299.93333333333334L-230.76923076923075,299.93333333333334L-215.3846153846154,299.93333333333334L-200,299.93333333333334L-184.6153846153846,299.93333333333334L-169.23076923076923,299.93333333333334L-153.84615384615387,299.93333333333334L-138.46153846153845,299.93333333333334L-123.07692307692308,299.3333333333333L-107.6923076923077,299.3333333333333L-92.3076923076923,299.3333333333333L-76.92307692307693,299.3333333333333L-61.53846153846154,299.3333333333333L-46.15384615384615,299.3333333333333L-30.76923076923077,299.3333333333333L-15.384615384615385,299.3333333333333L0,299.3333333333333L15.384615384615385,299.3333333333333L30.76923076923077,299.3333333333333L46.15384615384615,299.3333333333333L61.53846153846154,299.3333333333333L76.92307692307693,299.3333333333333L92.3076923076923,299.3333333333333L107.6923076923077,299.3333333333333L123.07692307692308,299.3333333333333L138.46153846153845,299.3333333333333L153.84615384615387,280L169.23076923076923,280L184.6153846153846,280L200,280L215.3846153846154,280L230.76923076923075,280L246.15384615384616,280L261.53846153846155,280L276.9230769230769,280L292.30769230769226,280L307.69230769230774,280L323.0769230769231,280L338.46153846153845,280L353.8461538461538,280L369.2307692307692,186.66666666666666L384.61538461538464,186.66666666666666L400,186.66666666666666L415.3846153846154,186.66666666666666L430.7692307692308,166.66666666666669L446.1538461538462,166.66666666666669L461.5384615384615,166.66666666666669" style="fill: none; stroke: #e45756; stroke-width: 2; opacity: 0.7;"></path></g></g><path class="foreground" d="" style="display: none; fill: none;"></path></g><g transform="translate(0,0)"><path class="background" d="M0,0h400v300h-400Z" style="fill: none;"></path><g><g class="mark-line role-mark concat_1_marks" clip-path="url(#clip8)"><path d="M-830.7692307692308,300L-815.3846153846154,300L-800,300L-784.6153846153845,300L-769.2307692307693,300L-753.8461538461538,300L-738.4615384615385,300L-723.0769230769231,300L-707.6923076923076,300L-692.3076923076924,300L-676.9230769230769,300L-661.5384615384615,300L-646.1538461538462,300L-630.7692307692307,300L-615.3846153846155,300L-600,300L-584.6153846153845,300L-569.2307692307693,300L-553.8461538461538,300L-538.4615384615385,300L-523.0769230769231,300L-507.6923076923077,300L-492.3076923076923,300L-476.9230769230769,300L-461.5384615384615,300L-446.1538461538462,300L-430.7692307692308,300L-415.3846153846154,300L-400,300L-384.61538461538464,300L-369.2307692307692,300L-353.8461538461538,300L-338.46153846153845,300L-323.0769230769231,300L-307.69230769230774,300L-292.30769230769226,300L-276.9230769230769,300L-261.53846153846155,300L-246.15384615384616,300L-230.76923076923075,300L-215.3846153846154,300L-200,300L-184.6153846153846,300L-169.23076923076923,300L-153.84615384615387,300L-138.46153846153845,300L-123.07692307692308,300L-107.6923076923077,300L-92.3076923076923,300L-76.92307692307693,300L-61.53846153846154,300L-46.15384615384615,300L-30.76923076923077,299.93333333333334L-15.384615384615385,299.93333333333334L0,299.93333333333334L15.384615384615385,299.93333333333334L30.76923076923077,299.8L46.15384615384615,299.6666666666667L61.53846153846154,299.53333333333336L76.92307692307693,299.4L92.3076923076923,299.26666666666665L107.6923076923077,299.1333333333333L123.07692307692308,298.8666666666667L138.46153846153845,298.8666666666667L153.84615384615387,298.73333333333335L169.23076923076923,298.6666666666667L184.6153846153846,298.3333333333333L200,298.1333333333333L215.3846153846154,298.2L230.76923076923075,297.73333333333335L246.15384615384616,297.33333333333337L261.53846153846155,297.2L276.9230769230769,296.8L292.30769230769226,296.73333333333335L307.69230769230774,296.26666666666665L323.0769230769231,296.06666666666666L338.46153846153845,295.73333333333335L353.8461538461538,295.2L369.2307692307692,295L384.61538461538464,294.5333333333333L400,294L415.3846153846154,293.73333333333335L430.7692307692308,293.46666666666664L446.1538461538462,290.6L461.5384615384615,290.06666666666666" style="fill: none; stroke: #f58518; stroke-width: 2; opacity: 0.7;"></path></g></g><path class="foreground" d="" style="display: none; fill: none;"></path></g><g transform="translate(0,0)"><path class="background" d="M0,0h400v300h-400Z" style="fill: none;"></path><g><g class="mark-line role-mark concat_1_marks" clip-path="url(#clip9)"><path d="M-830.7692307692308,299.93333333333334L-815.3846153846154,299.93333333333334L-800,299.93333333333334L-784.6153846153845,299.93333333333334L-769.2307692307693,299.93333333333334L-753.8461538461538,299.93333333333334L-738.4615384615385,299.93333333333334L-723.0769230769231,299.93333333333334L-707.6923076923076,299.93333333333334L-692.3076923076924,299.93333333333334L-676.9230769230769,299.93333333333334L-661.5384615384615,299.93333333333334L-646.1538461538462,299.93333333333334L-630.7692307692307,299.93333333333334L-615.3846153846155,299.93333333333334L-600,299.93333333333334L-584.6153846153845,299.93333333333334L-569.2307692307693,299.93333333333334L-553.8461538461538,299.93333333333334L-538.4615384615385,299.93333333333334L-523.0769230769231,299.93333333333334L-507.6923076923077,299.93333333333334L-492.3076923076923,299.93333333333334L-476.9230769230769,299.93333333333334L-461.5384615384615,299.93333333333334L-446.1538461538462,299.93333333333334L-430.7692307692308,299.93333333333334L-415.3846153846154,299.93333333333334L-400,299.8666666666667L-384.61538461538464,299.8666666666667L-369.2307692307692,299.8666666666667L-353.8461538461538,299.8L-338.46153846153845,299.6L-323.0769230769231,299.6L-307.69230769230774,299.6L-292.30769230769226,299.6L-276.9230769230769,299.2L-261.53846153846155,299L-246.15384615384616,299L-230.76923076923075,298.4666666666667L-215.3846153846154,298L-200,297.33333333333337L-184.6153846153846,296.06666666666666L-169.23076923076923,296.06666666666666L-153.84615384615387,289.66666666666663L-138.46153846153845,285L-123.07692307692308,283.73333333333335L-107.6923076923077,281.5333333333333L-92.3076923076923,278.59999999999997L-76.92307692307693,277.6L-61.53846153846154,273.3333333333333L-46.15384615384615,270L-30.76923076923077,265.1333333333333L-15.384615384615385,258.26666666666665L0,253.33333333333334L15.384615384615385,247.20000000000002L30.76923076923077,241.33333333333331L46.15384615384615,236.13333333333333L61.53846153846154,230.6L76.92307692307693,222.2L92.3076923076923,217.33333333333334L107.6923076923077,209.86666666666665L123.07692307692308,205.46666666666667L138.46153846153845,203.6L153.84615384615387,198.8L169.23076923076923,192.33333333333334L184.6153846153846,174.53333333333333L200,171.5333333333333L215.3846153846154,154.93333333333334L230.76923076923075,146.13333333333335L246.15384615384616,134.20000000000002L261.53846153846155,126.33333333333333L276.9230769230769,115.40000000000002L292.30769230769226,106.33333333333333L307.69230769230774,101.73333333333335L323.0769230769231,95.73333333333333L338.46153846153845,89.26666666666667L353.8461538461538,84.19999999999999L369.2307692307692,75.39999999999999L384.61538461538464,67.4L400,54.600000000000016L415.3846153846154,47.8L430.7692307692308,42.13333333333335L446.1538461538462,32.4L461.5384615384615,24.73333333333333" style="fill: none; stroke: #4c78a8; stroke-width: 2; opacity: 0.7;"></path></g></g><path class="foreground" d="" style="display: none; fill: none;"></path></g></g><g class="mark-group role-title"><g transform="translate(200,-22)"><path class="background" d="M0,0h0v0h0Z" style="pointer-events: none; fill: none;"></path><g><g class="mark-text role-title-text" style="pointer-events: none;"><text text-anchor="middle" transform="translate(0,10)" style="font-family: Roboto Condensed; font-size: 13px; font-weight: normal; fill: #000; opacity: 1;">Total</text></g></g><path class="foreground" d="" style="pointer-events: none; display: none; fill: none;"></path></g></g></g><path class="foreground" d="" style="display: none; fill: none;"></path></g></g><g class="mark-group role-legend"><g transform="translate(863,0)"><path class="background" d="M0,0h60v37h-60Z" style="pointer-events: none; fill: none;"></path><g><g class="mark-group role-legend-entry"><g transform="translate(0,0)"><path class="background" d="M0,0h0v0h0Z" style="pointer-events: none; fill: none;"></path><g><g class="mark-group role-scope"><g transform="translate(0,0)"><path class="background" d="M0,0h59.3251953125v11h-59.3251953125Z" style="pointer-events: none; fill: none; opacity: 1;"></path><g><g class="mark-symbol role-legend-symbol" style="pointer-events: none;"><path transform="translate(6,6)" d="M-5,0L5,0" style="fill: none; stroke: #4c78a8; stroke-width: 1.5; opacity: 1;"></path></g><g class="mark-text role-legend-label" style="pointer-events: none;"><text text-anchor="start" transform="translate(16,9)" style="font-family: Roboto Condensed; font-size: 10px; fill: #000; opacity: 1;">Confirmed</text></g></g><path class="foreground" d="" style="pointer-events: none; display: none; fill: none;"></path></g><g transform="translate(0,13)"><path class="background" d="M0,0h59.3251953125v11h-59.3251953125Z" style="pointer-events: none; fill: none; opacity: 1;"></path><g><g class="mark-symbol role-legend-symbol" style="pointer-events: none;"><path transform="translate(6,6)" d="M-5,0L5,0" style="fill: none; stroke: #f58518; stroke-width: 1.5; opacity: 1;"></path></g><g class="mark-text role-legend-label" style="pointer-events: none;"><text text-anchor="start" transform="translate(16,9)" style="font-family: Roboto Condensed; font-size: 10px; fill: #000; opacity: 1;">Deaths</text></g></g><path class="foreground" d="" style="pointer-events: none; display: none; fill: none;"></path></g><g transform="translate(0,26)"><path class="background" d="M0,0h59.3251953125v11h-59.3251953125Z" style="pointer-events: none; fill: none; opacity: 1;"></path><g><g class="mark-symbol role-legend-symbol" style="pointer-events: none;"><path transform="translate(6,6)" d="M-5,0L5,0" style="fill: none; stroke: #e45756; stroke-width: 1.5; opacity: 1;"></path></g><g class="mark-text role-legend-label" style="pointer-events: none;"><text text-anchor="start" transform="translate(16,9)" style="font-family: Roboto Condensed; font-size: 10px; fill: #000; opacity: 1;">Recovered</text></g></g><path class="foreground" d="" style="pointer-events: none; display: none; fill: none;"></path></g></g></g><path class="foreground" d="" style="pointer-events: none; display: none; fill: none;"></path></g></g></g><path class="foreground" d="" style="pointer-events: none; display: none; fill: none;"></path></g></g></g><path class="foreground" d="" style="display: none; fill: none;"></path></g></g></g></svg>