<svg class="marks" width="950" height="344" viewBox="0 0 950 344" version="1.1" xmlns="http://www.w3.org/2000/svg" xmlns:xlink="http://www.w3.org/1999/xlink"><rect width="950" height="344" style="fill: white;"></rect><defs><clipPath id="clip1"><rect x="0" y="0" width="400" height="300"></rect></clipPath><clipPath id="clip2"><rect x="0" y="0" width="400" height="300"></rect></clipPath><clipPath id="clip3"><rect x="0" y="0" width="400" height="300"></rect></clipPath><clipPath id="clip4"><rect x="0" y="0" width="400" height="300"></rect></clipPath><clipPath id="clip5"><rect x="0" y="0" width="400" height="300"></rect></clipPath><clipPath id="clip6"><rect x="0" y="0" width="400" height="300"></rect></clipPath><clipPath id="clip7"><rect x="0" y="0" width="400" height="300"></rect></clipPath><clipPath id="clip8"><rect x="0" y="0" width="400" height="300"></rect></clipPath><clipPath id="clip9"><rect x="0" y="0" width="400" height="300"></rect></clipPath></defs><g transform="translate(22,27)"><g class="mark-group role-frame root"><g transform="translate(0,0)"><path class="background" d="M0,0h0v0h0Z" style="fill: none;"></path><g><g class="mark-group role-scope concat_0_group"><g transform="translate(0,0)"><path class="background" d="M0,0h400v300h-400Z" style="fill: none; stroke: #ddd; stroke-width: 0;"></path><g><g class="mark-group role-axis"><g transform="translate(0.5,0.5)"><path class="background" d="M0,0h0v0h0Z" style="pointer-events: none; fill: none;"></path><g><g class="mark-rule role-axis-grid" style="pointer-events: none;"><line transform="translate(0,300)" x2="400" y2="0" style="fill: none; stroke: #ddd; stroke-width: 1; opacity: 1;"></line><line transform="translate(0,263)" x2="400" y2="0" style="fill: none; stroke: #ddd; stroke-width: 1; opacity: 1;"></line><line transform="translate(0,225)" x2="400" y2="0" style="fill: none; stroke: #ddd; stroke-width: 1; opacity: 1;"></line><line transform="translate(0,188)" x2="400" y2="0" style="fill: none; stroke: #ddd; stroke-width: 1; opacity: 1;"></line><line transform="translate(0,150)" x2="400" y2="0" style="fill: none; stroke: #ddd; stroke-width: 1; opacity: 1;"></line><line transform="translate(0,113)" x2="400" y2="0" style="fill: none; stroke: #ddd; stroke-width: 1; opacity: 1;"></line><line transform="translate(0,75)" x2="400" y2="0" style="fill: none; stroke: #ddd; stroke-width: 1; opacity: 1;"></line><line transform="translate(0,38)" x2="400" y2="0" style="fill: none; stroke: #ddd; stroke-width: 1; opacity: 1;"></line><line transform="translate(0,0)" x2="400" y2="0" style="fill: none; stroke: #ddd; stroke-width: 1; opacity: 1;"></line></g></g><path class="foreground" d="" style="pointer-events: none; display: none; fill: none;"></path></g></g><g class="mark-group role-axis"><g transform="translate(0.5,300.5)"><path class="background" d="M0,0h0v0h0Z" style="pointer-events: none; fill: none;"></path><g><g class="mark-text role-axis-label" style="pointer-events: none;"><text text-anchor="start" transform="translate(0,10)" style="font-family: Roboto Condensed; font-size: 10px; fill: #000; opacity: 1;">Mar 23</text><text text-anchor="middle" transform="translate(30.76923076923077,10)" style="font-family: Roboto Condensed; font-size: 10px; fill: #000; opacity: 0;">Mar 25</text><text text-anchor="middle" transform="translate(61.53846153846154,10)" style="font-family: Roboto Condensed; font-size: 10px; fill: #000; opacity: 1;">Mar 27</text><text text-anchor="middle" transform="translate(92.3076923076923,10)" style="font-family: Roboto Condensed; font-size: 10px; fill: #000; opacity: 0;">Mar 29</text><text text-anchor="middle" transform="translate(123.07692307692308,10)" style="font-family: Roboto Condensed; font-size: 10px; fill: #000; opacity: 1;">Mar 31</text><text text-anchor="middle" transform="translate(138.46153846153845,10)" style="font-family: Roboto Condensed; font-size: 10px; fill: #000; opacity: 0;">Apr 01</text><text text-anchor="middle" transform="translate(169.23076923076923,10)" style="font-family: Roboto Condensed; font-size: 10px; fill: #000; opacity: 1;">Apr 03</text><text text-anchor="middle" transform="translate(200,10)" style="font-family: Roboto Condensed; font-size: 10px; fill: #000; opacity: 0;">Apr 05</text><text text-anchor="middle" transform="translate(230.76923076923075,10)" style="font-family: Roboto Condensed; font-size: 10px; fill: #000; opacity: 1;">Apr 07</text><text text-anchor="middle" transform="translate(261.53846153846155,10)" style="font-family: Roboto Condensed; font-size: 10px; fill: #000; opacity: 0;">Apr 09</text><text text-anchor="middle" transform="translate(292.30769230769226,10)" style="font-family: Roboto Condensed; font-size: 10px; fill: #000; opacity: 1;">Apr 11</text><text text-anchor="middle" transform="translate(323.0769230769231,10)" style="font-family: Roboto Condensed; font-size: 10px; fill: #000; opacity: 0;">Apr 13</text><text text-anchor="middle" transform="translate(353.8461538461538,10)" style="font-family: Roboto Condensed; font-size: 10px; fill: #000; opacity: 1;">Apr 15</text><text text-anchor="middle" transform="translate(384.61538461538464,10)" style="font-family: Roboto Condensed; font-size: 10px; fill: #000; opacity: 0;">Apr 17</text></g><g class="mark-rule role-axis-domain" style="pointer-events: none;"><line transform="translate(0,0)" x2="400" y2="0" style="fill: none; stroke: lightgray; stroke-width: 1; opacity: 1;"></line></g></g><path class="foreground" d="" style="pointer-events: none; display: none; fill: none;"></path></g></g><g class="mark-group role-axis"><g transform="translate(0.5,0.5)"><path class="background" d="M0,0h0v0h0Z" style="pointer-events: none; fill: none;"></path><g><g class="mark-text role-axis-label" style="pointer-events: none;"><text text-anchor="end" transform="translate(-2,303)" style="font-family: Roboto Condensed; font-size: 10px; fill: #000; opacity: 1;">0</text><text text-anchor="end" transform="translate(-2,265.5)" style="font-family: Roboto Condensed; font-size: 10px; fill: #000; opacity: 1;">50</text><text text-anchor="end" transform="translate(-2,228)" style="font-family: Roboto Condensed; font-size: 10px; fill: #000; opacity: 1;">100</text><text text-anchor="end" transform="translate(-2,190.5)" style="font-family: Roboto Condensed; font-size: 10px; fill: #000; opacity: 1;">150</text><text text-anchor="end" transform="translate(-2,153)" style="font-family: Roboto Condensed; font-size: 10px; fill: #000; opacity: 1;">200</text><text text-anchor="end" transform="translate(-2,115.5)" style="font-family: Roboto Condensed; font-size: 10px; fill: #000; opacity: 1;">250</text><text text-anchor="end" transform="translate(-2,78)" style="font-family: Roboto Condensed; font-size: 10px; fill: #000; opacity: 1;">300</text><text text-anchor="end" transform="translate(-2,40.5)" style="font-family: Roboto Condensed; font-size: 10px; fill: #000; opacity: 1;">350</text><text text-anchor="end" transform="translate(-2,3)" style="font-family: Roboto Condensed; font-size: 10px; fill: #000; opacity: 1;">400</text></g><g class="mark-rule role-axis-domain" style="pointer-events: none;"><line transform="translate(0,300)" x2="0" y2="-300" style="fill: none; stroke: lightgray; stroke-width: 1; opacity: 1;"></line></g></g><path class="foreground" d="" style="pointer-events: none; display: none; fill: none;"></path></g></g><g class="mark-group role-scope concat_0_layer_0_pathgroup"><g transform="translate(0,0)"><path class="background" d="M0,0h400v300h-400Z" style="fill: none;"></path><g><g class="mark-line role-mark concat_0_layer_0_marks" clip-path="url(#clip1)"><path d="M-246.15384615384616,300L-230.76923076923075,300L-215.3846153846154,299.89285714285717L-200,299.89285714285717L-184.6153846153846,299.89285714285717L-169.23076923076923,299.89285714285717L-153.84615384615387,299.89285714285717L-138.46153846153845,299.89285714285717L-123.07692307692308,299.89285714285717L-107.6923076923077,300L-92.3076923076923,300L-76.92307692307693,300L-61.53846153846154,300L-46.15384615384615,300L-30.76923076923077,300L-15.384615384615385,299.4642857142857L0,299.4642857142857L15.384615384615385,299.4642857142857L30.76923076923077,299.4642857142857L46.15384615384615,299.4642857142857L61.53846153846154,299.4642857142857L76.92307692307693,299.3571428571429L92.3076923076923,299.89285714285717L107.6923076923077,299.3571428571429L123.07692307692308,299.25L138.46153846153845,299.25L153.84615384615387,297.2142857142857L169.23076923076923,297.2142857142857L184.6153846153846,297.32142857142856L200,297.32142857142856L215.3846153846154,297.8571428571429L230.76923076923075,297.9642857142857L246.15384615384616,297.9642857142857L261.53846153846155,300L276.9230769230769,300L292.30769230769226,300L307.69230769230774,300L323.0769230769231,300L338.46153846153845,300L353.8461538461538,300L369.2307692307692,300L384.61538461538464,300L400,300L415.3846153846154,300L430.7692307692308,300L446.1538461538462,300L461.5384615384615,300" style="fill: none; stroke: #e45756; stroke-width: 2; opacity: 1;"></path></g></g><path class="foreground" d="" style="display: none; fill: none;"></path></g><g transform="translate(0,0)"><path class="background" d="M0,0h400v300h-400Z" style="fill: none;"></path><g><g class="mark-line role-mark concat_0_layer_0_marks" clip-path="url(#clip2)"><path d="M-246.15384615384616,300L-230.76923076923075,300L-215.3846153846154,300L-200,300L-184.6153846153846,300L-169.23076923076923,300L-153.84615384615387,300L-138.46153846153845,299.67857142857144L-123.07692307692308,299.67857142857144L-107.6923076923077,299.67857142857144L-92.3076923076923,299.67857142857144L-76.92307692307693,299.3571428571429L-61.53846153846154,299.25L-46.15384615384615,299.25L-30.76923076923077,299.57142857142856L-15.384615384615385,299.57142857142856L0,299.25L15.384615384615385,299.0357142857143L30.76923076923077,299.1428571428571L46.15384615384615,299.25L61.53846153846154,298.7142857142857L76.92307692307693,298.2857142857143L92.3076923076923,298.07142857142856L107.6923076923077,297.6428571428571L123.07692307692308,297.10714285714283L138.46153846153845,296.7857142857143L153.84615384615387,296.1428571428571L169.23076923076923,295.7142857142857L184.6153846153846,295.82142857142856L200,295.07142857142856L215.3846153846154,295.2857142857143L230.76923076923075,294.6428571428571L246.15384615384616,293.89285714285717L261.53846153846155,293.7857142857143L276.9230769230769,294.2142857142857L292.30769230769226,293.89285714285717L307.69230769230774,293.89285714285717L323.0769230769231,293.7857142857143L338.46153846153845,294.6428571428571L353.8461538461538,294.75L369.2307692307692,295.2857142857143L384.61538461538464,294.8571428571429L400,295.1785714285714L415.3846153846154,296.0357142857143L430.7692307692308,294.9642857142857L446.1538461538462,295.39285714285717L461.5384615384615,296.0357142857143" style="fill: none; stroke: #f58518; stroke-width: 2; opacity: 1;"></path></g></g><path class="foreground" d="" style="display: none; fill: none;"></path></g><g transform="translate(0,0)"><path class="background" d="M0,0h400v300h-400Z" style="fill: none;"></path><g><g class="mark-line role-mark concat_0_layer_0_marks" clip-path="url(#clip3)"><path d="M-246.15384615384616,285.85714285714283L-230.76923076923075,283.17857142857144L-215.3846153846154,280.7142857142857L-200,260.57142857142856L-184.6153846153846,241.92857142857142L-169.23076923076923,234.10714285714286L-153.84615384615387,204.85714285714286L-138.46153846153845,198.96428571428572L-123.07692307692308,188.03571428571428L-107.6923076923077,179.14285714285717L-92.3076923076923,186.10714285714286L-76.92307692307693,197.99999999999997L-61.53846153846154,188.14285714285717L-46.15384615384615,201.64285714285714L-30.76923076923077,189.85714285714283L-15.384615384615385,188.35714285714286L0,162L15.384615384615385,150L30.76923076923077,135.64285714285717L46.15384615384615,126.10714285714286L61.53846153846154,102.75000000000001L76.92307692307693,96.75L92.3076923076923,83.46428571428572L107.6923076923077,104.5714285714286L123.07692307692308,109.5L138.46153846153845,109.39285714285715L153.84615384615387,109.5L169.23076923076923,126.9642857142857L184.6153846153846,135.5357142857143L200,149.67857142857144L215.3846153846154,147.85714285714286L230.76923076923075,145.17857142857144L246.15384615384616,168.9642857142857L261.53846153846155,186L276.9230769230769,198.85714285714283L292.30769230769226,207.96428571428572L307.69230769230774,210.21428571428572L323.0769230769231,220.92857142857142L338.46153846153845,242.46428571428572L353.8461538461538,229.92857142857144L369.2307692307692,226.60714285714286L384.61538461538464,233.25L400,232.82142857142856L415.3846153846154,240.75L430.7692307692308,240.75L446.1538461538462,239.14285714285714L461.5384615384615,235.92857142857144" style="fill: none; stroke: #4c78a8; stroke-width: 2; opacity: 1;"></path></g></g><path class="foreground" d="" style="display: none; fill: none;"></path></g></g><g class="mark-group role-scope concat_0_layer_1_pathgroup"><g transform="translate(0,0)"><path class="background" d="M0,0h400v300h-400Z" style="fill: none;"></path><g><g class="mark-line role-mark concat_0_layer_1_marks" clip-path="url(#clip4)"><path d="M-338.46153846153845,300L-323.0769230769231,300L-307.69230769230774,300L-292.30769230769226,300L-276.9230769230769,300L-261.53846153846155,300L-246.15384615384616,300L-230.76923076923075,300L-215.3846153846154,299.25L-200,300L-184.6153846153846,300L-169.23076923076923,300L-153.84615384615387,300L-138.46153846153845,300L-123.07692307692308,300L-107.6923076923077,300L-92.3076923076923,300L-76.92307692307693,300L-61.53846153846154,300L-46.15384615384615,300L-30.76923076923077,300L-15.384615384615385,296.25L0,300L15.384615384615385,300L30.76923076923077,300L46.15384615384615,300L61.53846153846154,300L76.92307692307693,299.25L92.3076923076923,300L107.6923076923077,296.25L123.07692307692308,299.25L138.46153846153845,300L153.84615384615387,285.75L169.23076923076923,300L184.6153846153846,300L200,300L215.3846153846154,300L230.76923076923075,300L246.15384615384616,300L261.53846153846155,300L276.9230769230769,300L292.30769230769226,300L307.69230769230774,300L323.0769230769231,300L338.46153846153845,300L353.8461538461538,300L369.2307692307692,300L384.61538461538464,300L400,300L415.3846153846154,300L430.7692307692308,300L446.1538461538462,300L461.5384615384615,300" style="fill: none; stroke: #e45756; stroke-width: 2; opacity: 0.2;"></path></g></g><path class="foreground" d="" style="display: none; fill: none;"></path></g><g transform="translate(0,0)"><path class="background" d="M0,0h400v300h-400Z" style="fill: none;"></path><g><g class="mark-line role-mark concat_0_layer_1_marks" clip-path="url(#clip5)"><path d="M-338.46153846153845,300L-323.0769230769231,300L-307.69230769230774,300L-292.30769230769226,300L-276.9230769230769,300L-261.53846153846155,300L-246.15384615384616,300L-230.76923076923075,300L-215.3846153846154,300L-200,300L-184.6153846153846,300L-169.23076923076923,300L-153.84615384615387,300L-138.46153846153845,297.75L-123.07692307692308,300L-107.6923076923077,300L-92.3076923076923,300L-76.92307692307693,297.75L-61.53846153846154,299.25L-46.15384615384615,300L-30.76923076923077,300L-15.384615384615385,300L0,297.75L15.384615384615385,298.5L30.76923076923077,298.5L46.15384615384615,300L61.53846153846154,296.25L76.92307692307693,297L92.3076923076923,298.5L107.6923076923077,294.75L123.07692307692308,294.75L138.46153846153845,296.25L153.84615384615387,295.5L169.23076923076923,293.25L184.6153846153846,297.75L200,293.25L215.3846153846154,296.25L230.76923076923075,290.25L246.15384615384616,291L261.53846153846155,294.75L276.9230769230769,296.25L292.30769230769226,295.5L307.69230769230774,293.25L323.0769230769231,295.5L338.46153846153845,296.25L353.8461538461538,291.75L369.2307692307692,298.5L384.61538461538464,293.25L400,297.75L415.3846153846154,299.25L430.7692307692308,288L446.1538461538462,299.25L461.5384615384615,296.25" style="fill: none; stroke: #f58518; stroke-width: 2; opacity: 0.2;"></path></g></g><path class="foreground" d="" style="display: none; fill: none;"></path></g><g transform="translate(0,0)"><path class="background" d="M0,0h400v300h-400Z" style="fill: none;"></path><g><g class="mark-line role-mark concat_0_layer_1_marks" clip-path="url(#clip6)"><path d="M-338.46153846153845,297L-323.0769230769231,295.5L-307.69230769230774,294.75L-292.30769230769226,282L-276.9230769230769,276.75L-261.53846153846155,284.25L-246.15384615384616,270.75L-230.76923076923075,278.25L-215.3846153846154,278.25L-200,153.75L-184.6153846153846,151.5L-169.23076923076923,222L-153.84615384615387,79.5L-138.46153846153845,229.5L-123.07692307692308,201.75L-107.6923076923077,216L-92.3076923076923,202.5L-76.92307692307693,234.75L-61.53846153846154,153L-46.15384615384615,174.00000000000003L-30.76923076923077,147L-15.384615384615385,191.25L0,31.499999999999993L15.384615384615385,118.5L30.76923076923077,134.25L46.15384615384615,86.25L61.53846153846154,10.500000000000009L76.92307692307693,105L92.3076923076923,98.25L107.6923076923077,179.24999999999997L123.07692307692308,153L138.46153846153845,133.49999999999997L153.84615384615387,87.00000000000001L169.23076923076923,132.75L184.6153846153846,165L200,197.25L215.3846153846154,166.49999999999997L230.76923076923075,134.25L246.15384615384616,300L261.53846153846155,206.25L276.9230769230769,222.74999999999997L292.30769230769226,228.75L307.69230769230774,213L323.0769230769231,241.49999999999997L338.46153846153845,285L353.8461538461538,212.25L369.2307692307692,183L384.61538461538464,269.25L400,225.74999999999997L415.3846153846154,268.5L430.7692307692308,241.49999999999997L446.1538461538462,273.75L461.5384615384615,189.75000000000003" style="fill: none; stroke: #4c78a8; stroke-width: 2; opacity: 0.2;"></path></g></g><path class="foreground" d="" style="display: none; fill: none;"></path></g></g><g class="mark-group role-title"><g transform="translate(200,-22)"><path class="background" d="M0,0h0v0h0Z" style="pointer-events: none; fill: none;"></path><g><g class="mark-text role-title-text" style="pointer-events: none;"><text text-anchor="middle" transform="translate(0,10)" style="font-family: Roboto Condensed; font-size: 13px; font-weight: normal; fill: #000; opacity: 1;">7-day average (Daily values in light color)</text></g></g><path class="foreground" d="" style="pointer-events: none; display: none; fill: none;"></path></g></g></g><path class="foreground" d="" style="display: none; fill: none;"></path></g></g><g class="mark-group role-scope concat_1_group"><g transform="translate(445,0)"><path class="background" d="M0,0h400v300h-400Z" style="fill: none; stroke: #ddd; stroke-width: 0;"></path><g><g class="mark-group role-axis"><g transform="translate(0.5,0.5)"><path class="background" d="M0,0h0v0h0Z" style="pointer-events: none; fill: none;"></path><g><g class="mark-rule role-axis-grid" style="pointer-events: none;"><line transform="translate(0,300)" x2="400" y2="0" style="fill: none; stroke: #ddd; stroke-width: 1; opacity: 1;"></line><line transform="translate(0,263)" x2="400" y2="0" style="fill: none; stroke: #ddd; stroke-width: 1; opacity: 1;"></line><line transform="translate(0,225)" x2="400" y2="0" style="fill: none; stroke: #ddd; stroke-width: 1; opacity: 1;"></line><line transform="translate(0,188)" x2="400" y2="0" style="fill: none; stroke: #ddd; stroke-width: 1; opacity: 1;"></line><line transform="translate(0,150)" x2="400" y2="0" style="fill: none; stroke: #ddd; stroke-width: 1; opacity: 1;"></line><line transform="translate(0,113)" x2="400" y2="0" style="fill: none; stroke: #ddd; stroke-width: 1; opacity: 1;"></line><line transform="translate(0,75)" x2="400" y2="0" style="fill: none; stroke: #ddd; stroke-width: 1; opacity: 1;"></line><line transform="translate(0,38)" x2="400" y2="0" style="fill: none; stroke: #ddd; stroke-width: 1; opacity: 1;"></line><line transform="translate(0,0)" x2="400" y2="0" style="fill: none; stroke: #ddd; stroke-width: 1; opacity: 1;"></line></g></g><path class="foreground" d="" style="pointer-events: none; display: none; fill: none;"></path></g></g><g class="mark-group role-axis"><g transform="translate(0.5,300.5)"><path class="background" d="M0,0h0v0h0Z" style="pointer-events: none; fill: none;"></path><g><g class="mark-text role-axis-label" style="pointer-events: none;"><text text-anchor="start" transform="translate(0,10)" style="font-family: Roboto Condensed; font-size: 10px; fill: #000; opacity: 1;">Mar 23</text><text text-anchor="middle" transform="translate(30.76923076923077,10)" style="font-family: Roboto Condensed; font-size: 10px; fill: #000; opacity: 0;">Mar 25</text><text text-anchor="middle" transform="translate(61.53846153846154,10)" style="font-family: Roboto Condensed; font-size: 10px; fill: #000; opacity: 1;">Mar 27</text><text text-anchor="middle" transform="translate(92.3076923076923,10)" style="font-family: Roboto Condensed; font-size: 10px; fill: #000; opacity: 0;">Mar 29</text><text text-anchor="middle" transform="translate(123.07692307692308,10)" style="font-family: Roboto Condensed; font-size: 10px; fill: #000; opacity: 1;">Mar 31</text><text text-anchor="middle" transform="translate(138.46153846153845,10)" style="font-family: Roboto Condensed; font-size: 10px; fill: #000; opacity: 0;">Apr 01</text><text text-anchor="middle" transform="translate(169.23076923076923,10)" style="font-family: Roboto Condensed; font-size: 10px; fill: #000; opacity: 1;">Apr 03</text><text text-anchor="middle" transform="translate(200,10)" style="font-family: Roboto Condensed; font-size: 10px; fill: #000; opacity: 0;">Apr 05</text><text text-anchor="middle" transform="translate(230.76923076923075,10)" style="font-family: Roboto Condensed; font-size: 10px; fill: #000; opacity: 1;">Apr 07</text><text text-anchor="middle" transform="translate(261.53846153846155,10)" style="font-family: Roboto Condensed; font-size: 10px; fill: #000; opacity: 0;">Apr 09</text><text text-anchor="middle" transform="translate(292.30769230769226,10)" style="font-family: Roboto Condensed; font-size: 10px; fill: #000; opacity: 1;">Apr 11</text><text text-anchor="middle" transform="translate(323.0769230769231,10)" style="font-family: Roboto Condensed; font-size: 10px; fill: #000; opacity: 0;">Apr 13</text><text text-anchor="middle" transform="translate(353.8461538461538,10)" style="font-family: Roboto Condensed; font-size: 10px; fill: #000; opacity: 1;">Apr 15</text><text text-anchor="middle" transform="translate(384.61538461538464,10)" style="font-family: Roboto Condensed; font-size: 10px; fill: #000; opacity: 0;">Apr 17</text></g><g class="mark-rule role-axis-domain" style="pointer-events: none;"><line transform="translate(0,0)" x2="400" y2="0" style="fill: none; stroke: lightgray; stroke-width: 1; opacity: 1;"></line></g></g><path class="foreground" d="" style="pointer-events: none; display: none; fill: none;"></path></g></g><g class="mark-group role-axis"><g transform="translate(0.5,0.5)"><path class="background" d="M0,0h0v0h0Z" style="pointer-events: none; fill: none;"></path><g><g class="mark-text role-axis-label" style="pointer-events: none;"><text text-anchor="end" transform="translate(-2,303)" style="font-family: Roboto Condensed; font-size: 10px; fill: #000; opacity: 1;">0</text><text text-anchor="end" transform="translate(-2,265.5)" style="font-family: Roboto Condensed; font-size: 10px; fill: #000; opacity: 1;">1,000</text><text text-anchor="end" transform="translate(-2,228)" style="font-family: Roboto Condensed; font-size: 10px; fill: #000; opacity: 1;">2,000</text><text text-anchor="end" transform="translate(-2,190.5)" style="font-family: Roboto Condensed; font-size: 10px; fill: #000; opacity: 1;">3,000</text><text text-anchor="end" transform="translate(-2,153)" style="font-family: Roboto Condensed; font-size: 10px; fill: #000; opacity: 1;">4,000</text><text text-anchor="end" transform="translate(-2,115.5)" style="font-family: Roboto Condensed; font-size: 10px; fill: #000; opacity: 1;">5,000</text><text text-anchor="end" transform="translate(-2,78)" style="font-family: Roboto Condensed; font-size: 10px; fill: #000; opacity: 1;">6,000</text><text text-anchor="end" transform="translate(-2,40.5)" style="font-family: Roboto Condensed; font-size: 10px; fill: #000; opacity: 1;">7,000</text><text text-anchor="end" transform="translate(-2,3)" style="font-family: Roboto Condensed; font-size: 10px; fill: #000; opacity: 1;">8,000</text></g><g class="mark-rule role-axis-domain" style="pointer-events: none;"><line transform="translate(0,300)" x2="0" y2="-300" style="fill: none; stroke: lightgray; stroke-width: 1; opacity: 1;"></line></g></g><path class="foreground" d="" style="pointer-events: none; display: none; fill: none;"></path></g></g><g class="mark-group role-scope concat_1_pathgroup"><g transform="translate(0,0)"><path class="background" d="M0,0h400v300h-400Z" style="fill: none;"></path><g><g class="mark-line role-mark concat_1_marks" clip-path="url(#clip7)"><path d="M-400,300L-384.61538461538464,300L-369.2307692307692,300L-353.8461538461538,300L-338.46153846153845,300L-323.0769230769231,300L-307.69230769230774,300L-292.30769230769226,300L-276.9230769230769,300L-261.53846153846155,300L-246.15384615384616,300L-230.76923076923075,300L-215.3846153846154,299.9625L-200,299.9625L-184.6153846153846,299.9625L-169.23076923076923,299.9625L-153.84615384615387,299.9625L-138.46153846153845,299.9625L-123.07692307692308,299.9625L-107.6923076923077,299.9625L-92.3076923076923,299.9625L-76.92307692307693,299.9625L-61.53846153846154,299.9625L-46.15384615384615,299.9625L-30.76923076923077,299.9625L-15.384615384615385,299.775L0,299.775L15.384615384615385,299.775L30.76923076923077,299.775L46.15384615384615,299.775L61.53846153846154,299.775L76.92307692307693,299.7375L92.3076923076923,299.7375L107.6923076923077,299.55L123.07692307692308,299.5125L138.46153846153845,299.5125L153.84615384615387,298.8L169.23076923076923,298.8L184.6153846153846,298.8L200,298.8L215.3846153846154,298.8L230.76923076923075,298.8L246.15384615384616,298.8L261.53846153846155,298.8L276.9230769230769,298.8L292.30769230769226,298.8L307.69230769230774,298.8L323.0769230769231,298.8L338.46153846153845,298.8L353.8461538461538,298.8L369.2307692307692,298.8L384.61538461538464,298.8L400,298.8L415.3846153846154,298.8L430.7692307692308,298.8L446.1538461538462,298.8L461.5384615384615,298.8" style="fill: none; stroke: #e45756; stroke-width: 2; opacity: 0.7;"></path></g></g><path class="foreground" d="" style="display: none; fill: none;"></path></g><g transform="translate(0,0)"><path class="background" d="M0,0h400v300h-400Z" style="fill: none;"></path><g><g class="mark-line role-mark concat_1_marks" clip-path="url(#clip8)"><path d="M-400,300L-384.61538461538464,300L-369.2307692307692,300L-353.8461538461538,300L-338.46153846153845,300L-323.0769230769231,300L-307.69230769230774,300L-292.30769230769226,300L-276.9230769230769,300L-261.53846153846155,300L-246.15384615384616,300L-230.76923076923075,300L-215.3846153846154,300L-200,300L-184.6153846153846,300L-169.23076923076923,300L-153.84615384615387,300L-138.46153846153845,299.8875L-123.07692307692308,299.8875L-107.6923076923077,299.8875L-92.3076923076923,299.8875L-76.92307692307693,299.775L-61.53846153846154,299.7375L-46.15384615384615,299.7375L-30.76923076923077,299.7375L-15.384615384615385,299.7375L0,299.625L15.384615384615385,299.55L30.76923076923077,299.47499999999997L46.15384615384615,299.47499999999997L61.53846153846154,299.2875L76.92307692307693,299.1375L92.3076923076923,299.0625L107.6923076923077,298.8L123.07692307692308,298.5375L138.46153846153845,298.35L153.84615384615387,298.125L169.23076923076923,297.78749999999997L184.6153846153846,297.675L200,297.33750000000003L215.3846153846154,297.15000000000003L230.76923076923075,296.66249999999997L246.15384615384616,296.2125L261.53846153846155,295.95L276.9230769230769,295.7625L292.30769230769226,295.5375L307.69230769230774,295.2L323.0769230769231,294.97499999999997L338.46153846153845,294.78749999999997L353.8461538461538,294.375L369.2307692307692,294.3L384.61538461538464,293.96250000000003L400,293.85L415.3846153846154,293.8125L430.7692307692308,293.2125L446.1538461538462,293.175L461.5384615384615,292.9875" style="fill: none; stroke: #f58518; stroke-width: 2; opacity: 0.7;"></path></g></g><path class="foreground" d="" style="display: none; fill: none;"></path></g><g transform="translate(0,0)"><path class="background" d="M0,0h400v300h-400Z" style="fill: none;"></path><g><g class="mark-line role-mark concat_1_marks" clip-path="url(#clip9)"><path d="M-400,299.9625L-384.61538461538464,299.9625L-369.2307692307692,299.775L-353.8461538461538,299.4375L-338.46153846153845,299.2875L-323.0769230769231,299.0625L-307.69230769230774,298.8L-292.30769230769226,297.9L-276.9230769230769,296.7375L-261.53846153846155,295.95L-246.15384615384616,294.4875L-230.76923076923075,293.4L-215.3846153846154,292.3125L-200,285L-184.6153846153846,277.575L-169.23076923076923,273.675L-153.84615384615387,262.65L-138.46153846153845,259.125L-123.07692307692308,254.2125L-107.6923076923077,250.0125L-92.3076923076923,245.1375L-76.92307692307693,241.875L-61.53846153846154,234.52499999999998L-46.15384615384615,228.22500000000002L-30.76923076923077,220.575L-15.384615384615385,215.13750000000002L0,201.71249999999998L15.384615384615385,192.63750000000002L30.76923076923077,184.35000000000002L46.15384615384615,173.66250000000002L61.53846153846154,159.1875L76.92307692307693,149.4375L92.3076923076923,139.35L107.6923076923077,133.3125L123.07692307692308,125.9625L138.46153846153845,117.63749999999999L153.84615384615387,106.9875L169.23076923076923,98.625L184.6153846153846,91.875L200,86.73749999999998L215.3846153846154,80.06249999999999L230.76923076923075,71.77499999999999L246.15384615384616,71.77499999999999L261.53846153846155,67.08749999999999L276.9230769230769,63.224999999999994L292.30769230769226,59.66250000000001L307.69230769230774,55.312499999999986L323.0769230769231,52.38750000000001L338.46153846153845,51.63749999999999L353.8461538461538,47.24999999999999L369.2307692307692,41.400000000000006L384.61538461538464,39.86249999999999L400,36.15000000000001L415.3846153846154,34.57499999999999L430.7692307692308,31.650000000000013L446.1538461538462,30.337500000000006L461.5384615384615,24.824999999999996" style="fill: none; stroke: #4c78a8; stroke-width: 2; opacity: 0.7;"></path></g></g><path class="foreground" d="" style="display: none; fill: none;"></path></g></g><g class="mark-group role-title"><g transform="translate(200,-22)"><path class="background" d="M0,0h0v0h0Z" style="pointer-events: none; fill: none;"></path><g><g class="mark-text role-title-text" style="pointer-events: none;"><text text-anchor="middle" transform="translate(0,10)" style="font-family: Roboto Condensed; font-size: 13px; font-weight: normal; fill: #000; opacity: 1;">Total</text></g></g><path class="foreground" d="" style="pointer-events: none; display: none; fill: none;"></path></g></g></g><path class="foreground" d="" style="display: none; fill: none;"></path></g></g><g class="mark-group role-legend"><g transform="translate(863,0)"><path class="background" d="M0,0h60v37h-60Z" style="pointer-events: none; fill: none;"></path><g><g class="mark-group role-legend-entry"><g transform="translate(0,0)"><path class="background" d="M0,0h0v0h0Z" style="pointer-events: none; fill: none;"></path><g><g class="mark-group role-scope"><g transform="translate(0,0)"><path class="background" d="M0,0h59.3251953125v11h-59.3251953125Z" style="pointer-events: none; fill: none; opacity: 1;"></path><g><g class="mark-symbol role-legend-symbol" style="pointer-events: none;"><path transform="translate(6,6)" d="M-5,0L5,0" style="fill: none; stroke: #4c78a8; stroke-width: 1.5; opacity: 1;"></path></g><g class="mark-text role-legend-label" style="pointer-events: none;"><text text-anchor="start" transform="translate(16,9)" style="font-family: Roboto Condensed; font-size: 10px; fill: #000; opacity: 1;">Confirmed</text></g></g><path class="foreground" d="" style="pointer-events: none; display: none; fill: none;"></path></g><g transform="translate(0,13)"><path class="background" d="M0,0h59.3251953125v11h-59.3251953125Z" style="pointer-events: none; fill: none; opacity: 1;"></path><g><g class="mark-symbol role-legend-symbol" style="pointer-events: none;"><path transform="translate(6,6)" d="M-5,0L5,0" style="fill: none; stroke: #f58518; stroke-width: 1.5; opacity: 1;"></path></g><g class="mark-text role-legend-label" style="pointer-events: none;"><text text-anchor="start" transform="translate(16,9)" style="font-family: Roboto Condensed; font-size: 10px; fill: #000; opacity: 1;">Deaths</text></g></g><path class="foreground" d="" style="pointer-events: none; display: none; fill: none;"></path></g><g transform="translate(0,26)"><path class="background" d="M0,0h59.3251953125v11h-59.3251953125Z" style="pointer-events: none; fill: none; opacity: 1;"></path><g><g class="mark-symbol role-legend-symbol" style="pointer-events: none;"><path transform="translate(6,6)" d="M-5,0L5,0" style="fill: none; stroke: #e45756; stroke-width: 1.5; opacity: 1;"></path></g><g class="mark-text role-legend-label" style="pointer-events: none;"><text text-anchor="start" transform="translate(16,9)" style="font-family: Roboto Condensed; font-size: 10px; fill: #000; opacity: 1;">Recovered</text></g></g><path class="foreground" d="" style="pointer-events: none; display: none; fill: none;"></path></g></g></g><path class="foreground" d="" style="pointer-events: none; display: none; fill: none;"></path></g></g></g><path class="foreground" d="" style="pointer-events: none; display: none; fill: none;"></path></g></g></g><path class="foreground" d="" style="display: none; fill: none;"></path></g></g></g></svg>