<svg class="marks" width="955" height="344" viewBox="0 0 955 344" version="1.1" xmlns="http://www.w3.org/2000/svg" xmlns:xlink="http://www.w3.org/1999/xlink"><rect width="955" height="344" style="fill: white;"></rect><defs><clipPath id="clip1"><rect x="0" y="0" width="400" height="300"></rect></clipPath><clipPath id="clip2"><rect x="0" y="0" width="400" height="300"></rect></clipPath><clipPath id="clip3"><rect x="0" y="0" width="400" height="300"></rect></clipPath><clipPath id="clip4"><rect x="0" y="0" width="400" height="300"></rect></clipPath><clipPath id="clip5"><rect x="0" y="0" width="400" height="300"></rect></clipPath><clipPath id="clip6"><rect x="0" y="0" width="400" height="300"></rect></clipPath><clipPath id="clip7"><rect x="0" y="0" width="400" height="300"></rect></clipPath><clipPath id="clip8"><rect x="0" y="0" width="400" height="300"></rect></clipPath><clipPath id="clip9"><rect x="0" y="0" width="400" height="300"></rect></clipPath></defs><g transform="translate(22,27)"><g class="mark-group role-frame root"><g transform="translate(0,0)"><path class="background" d="M0,0h0v0h0Z" style="fill: none;"></path><g><g class="mark-group role-scope concat_0_group"><g transform="translate(0,0)"><path class="background" d="M0,0h400v300h-400Z" style="fill: none; stroke: #ddd; stroke-width: 0;"></path><g><g class="mark-group role-axis"><g transform="translate(0.5,0.5)"><path class="background" d="M0,0h0v0h0Z" style="pointer-events: none; fill: none;"></path><g><g class="mark-rule role-axis-grid" style="pointer-events: none;"><line transform="translate(0,300)" x2="400" y2="0" style="fill: none; stroke: #ddd; stroke-width: 1; opacity: 1;"></line><line transform="translate(0,263)" x2="400" y2="0" style="fill: none; stroke: #ddd; stroke-width: 1; opacity: 1;"></line><line transform="translate(0,225)" x2="400" y2="0" style="fill: none; stroke: #ddd; stroke-width: 1; opacity: 1;"></line><line transform="translate(0,188)" x2="400" y2="0" style="fill: none; stroke: #ddd; stroke-width: 1; opacity: 1;"></line><line transform="translate(0,150)" x2="400" y2="0" style="fill: none; stroke: #ddd; stroke-width: 1; opacity: 1;"></line><line transform="translate(0,113)" x2="400" y2="0" style="fill: none; stroke: #ddd; stroke-width: 1; opacity: 1;"></line><line transform="translate(0,75)" x2="400" y2="0" style="fill: none; stroke: #ddd; stroke-width: 1; opacity: 1;"></line><line transform="translate(0,38)" x2="400" y2="0" style="fill: none; stroke: #ddd; stroke-width: 1; opacity: 1;"></line><line transform="translate(0,0)" x2="400" y2="0" style="fill: none; stroke: #ddd; stroke-width: 1; opacity: 1;"></line></g></g><path class="foreground" d="" style="pointer-events: none; display: none; fill: none;"></path></g></g><g class="mark-group role-axis"><g transform="translate(0.5,300.5)"><path class="background" d="M0,0h0v0h0Z" style="pointer-events: none; fill: none;"></path><g><g class="mark-text role-axis-label" style="pointer-events: none;"><text text-anchor="start" transform="translate(0,10)" style="font-family: Roboto Condensed; font-size: 10px; fill: #000; opacity: 1;">Mar 23</text><text text-anchor="middle" transform="translate(30.76923076923077,10)" style="font-family: Roboto Condensed; font-size: 10px; fill: #000; opacity: 0;">Mar 25</text><text text-anchor="middle" transform="translate(61.53846153846154,10)" style="font-family: Roboto Condensed; font-size: 10px; fill: #000; opacity: 1;">Mar 27</text><text text-anchor="middle" transform="translate(92.3076923076923,10)" style="font-family: Roboto Condensed; font-size: 10px; fill: #000; opacity: 0;">Mar 29</text><text text-anchor="middle" transform="translate(123.07692307692308,10)" style="font-family: Roboto Condensed; font-size: 10px; fill: #000; opacity: 1;">Mar 31</text><text text-anchor="middle" transform="translate(138.46153846153845,10)" style="font-family: Roboto Condensed; font-size: 10px; fill: #000; opacity: 0;">Apr 01</text><text text-anchor="middle" transform="translate(169.23076923076923,10)" style="font-family: Roboto Condensed; font-size: 10px; fill: #000; opacity: 1;">Apr 03</text><text text-anchor="middle" transform="translate(200,10)" style="font-family: Roboto Condensed; font-size: 10px; fill: #000; opacity: 0;">Apr 05</text><text text-anchor="middle" transform="translate(230.76923076923075,10)" style="font-family: Roboto Condensed; font-size: 10px; fill: #000; opacity: 1;">Apr 07</text><text text-anchor="middle" transform="translate(261.53846153846155,10)" style="font-family: Roboto Condensed; font-size: 10px; fill: #000; opacity: 0;">Apr 09</text><text text-anchor="middle" transform="translate(292.30769230769226,10)" style="font-family: Roboto Condensed; font-size: 10px; fill: #000; opacity: 1;">Apr 11</text><text text-anchor="middle" transform="translate(323.0769230769231,10)" style="font-family: Roboto Condensed; font-size: 10px; fill: #000; opacity: 0;">Apr 13</text><text text-anchor="middle" transform="translate(353.8461538461538,10)" style="font-family: Roboto Condensed; font-size: 10px; fill: #000; opacity: 1;">Apr 15</text><text text-anchor="middle" transform="translate(384.61538461538464,10)" style="font-family: Roboto Condensed; font-size: 10px; fill: #000; opacity: 0;">Apr 17</text></g><g class="mark-rule role-axis-domain" style="pointer-events: none;"><line transform="translate(0,0)" x2="400" y2="0" style="fill: none; stroke: lightgray; stroke-width: 1; opacity: 1;"></line></g></g><path class="foreground" d="" style="pointer-events: none; display: none; fill: none;"></path></g></g><g class="mark-group role-axis"><g transform="translate(0.5,0.5)"><path class="background" d="M0,0h0v0h0Z" style="pointer-events: none; fill: none;"></path><g><g class="mark-text role-axis-label" style="pointer-events: none;"><text text-anchor="end" transform="translate(-2,303)" style="font-family: Roboto Condensed; font-size: 10px; fill: #000; opacity: 1;">0</text><text text-anchor="end" transform="translate(-2,265.5)" style="font-family: Roboto Condensed; font-size: 10px; fill: #000; opacity: 1;">100</text><text text-anchor="end" transform="translate(-2,228)" style="font-family: Roboto Condensed; font-size: 10px; fill: #000; opacity: 1;">200</text><text text-anchor="end" transform="translate(-2,190.5)" style="font-family: Roboto Condensed; font-size: 10px; fill: #000; opacity: 1;">300</text><text text-anchor="end" transform="translate(-2,153)" style="font-family: Roboto Condensed; font-size: 10px; fill: #000; opacity: 1;">400</text><text text-anchor="end" transform="translate(-2,115.5)" style="font-family: Roboto Condensed; font-size: 10px; fill: #000; opacity: 1;">500</text><text text-anchor="end" transform="translate(-2,78)" style="font-family: Roboto Condensed; font-size: 10px; fill: #000; opacity: 1;">600</text><text text-anchor="end" transform="translate(-2,40.5)" style="font-family: Roboto Condensed; font-size: 10px; fill: #000; opacity: 1;">700</text><text text-anchor="end" transform="translate(-2,3)" style="font-family: Roboto Condensed; font-size: 10px; fill: #000; opacity: 1;">800</text></g><g class="mark-rule role-axis-domain" style="pointer-events: none;"><line transform="translate(0,300)" x2="0" y2="-300" style="fill: none; stroke: lightgray; stroke-width: 1; opacity: 1;"></line></g></g><path class="foreground" d="" style="pointer-events: none; display: none; fill: none;"></path></g></g><g class="mark-group role-scope concat_0_layer_0_pathgroup"><g transform="translate(0,0)"><path class="background" d="M0,0h400v300h-400Z" style="fill: none;"></path><g><g class="mark-line role-mark concat_0_layer_0_marks" clip-path="url(#clip1)"><path d="M-246.15384615384616,300L-230.76923076923075,300L-215.3846153846154,299.94642857142856L-200,299.94642857142856L-184.6153846153846,299.94642857142856L-169.23076923076923,299.94642857142856L-153.84615384615387,299.94642857142856L-138.46153846153845,299.94642857142856L-123.07692307692308,299.94642857142856L-107.6923076923077,300L-92.3076923076923,300L-76.92307692307693,300L-61.53846153846154,299.19642857142856L-46.15384615384615,299.19642857142856L-30.76923076923077,299.19642857142856L-15.384615384615385,299.19642857142856L0,299.19642857142856L15.384615384615385,299.19642857142856L30.76923076923077,299.19642857142856L46.15384615384615,300L61.53846153846154,300L76.92307692307693,300L92.3076923076923,300L107.6923076923077,300L123.07692307692308,300L138.46153846153845,295.3392857142857L153.84615384615387,295.3392857142857L169.23076923076923,289.875L184.6153846153846,289.875L200,289.875L215.3846153846154,289.875L230.76923076923075,289.875L246.15384615384616,294.5357142857143L261.53846153846155,294.5357142857143L276.9230769230769,290.57142857142856L292.30769230769226,290.57142857142856L307.69230769230774,290.57142857142856L323.0769230769231,290.57142857142856L338.46153846153845,290.57142857142856L353.8461538461538,290.57142857142856L369.2307692307692,281.51785714285717L384.61538461538464,290.94642857142856L400,290.94642857142856L415.3846153846154,290.94642857142856L430.7692307692308,290.94642857142856L446.1538461538462,290.94642857142856L461.5384615384615,290.94642857142856" style="fill: none; stroke: #e45756; stroke-width: 2; opacity: 1;"></path></g></g><path class="foreground" d="" style="display: none; fill: none;"></path></g><g transform="translate(0,0)"><path class="background" d="M0,0h400v300h-400Z" style="fill: none;"></path><g><g class="mark-line role-mark concat_0_layer_0_marks" clip-path="url(#clip2)"><path d="M-246.15384615384616,300L-230.76923076923075,300L-215.3846153846154,300L-200,300L-184.6153846153846,299.94642857142856L-169.23076923076923,299.94642857142856L-153.84615384615387,299.94642857142856L-138.46153846153845,299.89285714285717L-123.07692307692308,299.8392857142857L-107.6923076923077,299.67857142857144L-92.3076923076923,299.625L-76.92307692307693,299.51785714285717L-61.53846153846154,299.4642857142857L-46.15384615384615,299.19642857142856L-30.76923076923077,299.0357142857143L-15.384615384615385,299.0357142857143L0,298.98214285714283L15.384615384615385,298.44642857142856L30.76923076923077,297.2142857142857L46.15384615384615,296.4642857142857L61.53846153846154,295.23214285714283L76.92307692307693,295.4464285714286L92.3076923076923,295.23214285714283L107.6923076923077,293.51785714285717L123.07692307692308,292.2857142857143L138.46153846153845,290.51785714285717L153.84615384615387,287.625L169.23076923076923,286.44642857142856L184.6153846153846,285.64285714285717L200,284.4107142857143L215.3846153846154,282.26785714285717L230.76923076923075,277.98214285714283L246.15384615384616,276L261.53846153846155,274.0178571428571L276.9230769230769,272.57142857142856L292.30769230769226,272.4642857142857L307.69230769230774,273.32142857142856L323.0769230769231,276.32142857142856L338.46153846153845,276.32142857142856L353.8461538461538,272.3571428571429L369.2307692307692,271.07142857142856L384.61538461538464,271.60714285714283L400,266.57142857142856L415.3846153846154,265.6607142857143L430.7692307692308,264.5892857142857L446.1538461538462,260.7857142857143L461.5384615384615,260.6785714285714" style="fill: none; stroke: #f58518; stroke-width: 2; opacity: 1;"></path></g></g><path class="foreground" d="" style="display: none; fill: none;"></path></g><g transform="translate(0,0)"><path class="background" d="M0,0h400v300h-400Z" style="fill: none;"></path><g><g class="mark-line role-mark concat_0_layer_0_marks" clip-path="url(#clip3)"><path d="M-246.15384615384616,292.01785714285717L-230.76923076923075,289.875L-215.3846153846154,287.51785714285717L-200,282.1071428571429L-184.6153846153846,275.0892857142857L-169.23076923076923,272.94642857142856L-153.84615384615387,261.80357142857144L-138.46153846153845,257.1428571428571L-123.07692307692308,256.125L-107.6923076923077,254.19642857142856L-92.3076923076923,255.26785714285714L-76.92307692307693,258.2678571428571L-61.53846153846154,255L-46.15384615384615,255.80357142857142L-30.76923076923077,257.0357142857143L-15.384615384615385,251.30357142857142L0,249.48214285714286L15.384615384615385,241.28571428571428L30.76923076923077,233.19642857142858L46.15384615384615,224.94642857142858L61.53846153846154,223.39285714285714L76.92307692307693,209.78571428571428L92.3076923076923,205.23214285714283L107.6923076923077,193.82142857142856L123.07692307692308,184.875L138.46153846153845,170.30357142857144L153.84615384615387,153.85714285714286L169.23076923076923,135.9642857142857L184.6153846153846,139.5L200,132.32142857142856L215.3846153846154,129.75L230.76923076923075,125.4642857142857L246.15384615384616,114L261.53846153846155,108.58928571428572L276.9230769230769,109.60714285714285L292.30769230769226,101.35714285714289L307.69230769230774,104.30357142857142L323.0769230769231,99.5357142857143L338.46153846153845,98.99999999999999L353.8461538461538,112.07142857142857L369.2307692307692,117.91071428571428L384.61538461538464,110.83928571428571L400,103.3392857142857L415.3846153846154,90.9642857142857L430.7692307692308,94.87500000000001L446.1538461538462,92.3035714285714L461.5384615384615,81.5892857142857" style="fill: none; stroke: #4c78a8; stroke-width: 2; opacity: 1;"></path></g></g><path class="foreground" d="" style="display: none; fill: none;"></path></g></g><g class="mark-group role-scope concat_0_layer_1_pathgroup"><g transform="translate(0,0)"><path class="background" d="M0,0h400v300h-400Z" style="fill: none;"></path><g><g class="mark-line role-mark concat_0_layer_1_marks" clip-path="url(#clip4)"><path d="M-338.46153846153845,300L-323.0769230769231,300L-307.69230769230774,300L-292.30769230769226,300L-276.9230769230769,300L-261.53846153846155,300L-246.15384615384616,300L-230.76923076923075,300L-215.3846153846154,299.625L-200,300L-184.6153846153846,300L-169.23076923076923,300L-153.84615384615387,300L-138.46153846153845,300L-123.07692307692308,300L-107.6923076923077,300L-92.3076923076923,300L-76.92307692307693,300L-61.53846153846154,294.375L-46.15384615384615,300L-30.76923076923077,300L-15.384615384615385,300L0,300L15.384615384615385,300L30.76923076923077,300L46.15384615384615,300L61.53846153846154,300L76.92307692307693,300L92.3076923076923,300L107.6923076923077,300L123.07692307692308,300L138.46153846153845,267.375L153.84615384615387,300L169.23076923076923,261.75L184.6153846153846,300L200,300L215.3846153846154,300L230.76923076923075,300L246.15384615384616,300L261.53846153846155,300L276.9230769230769,234L292.30769230769226,300L307.69230769230774,300L323.0769230769231,300L338.46153846153845,300L353.8461538461538,300L369.2307692307692,236.62500000000003L384.61538461538464,300L400,300L415.3846153846154,300L430.7692307692308,300L446.1538461538462,300L461.5384615384615,300" style="fill: none; stroke: #e45756; stroke-width: 2; opacity: 0.2;"></path></g></g><path class="foreground" d="" style="display: none; fill: none;"></path></g><g transform="translate(0,0)"><path class="background" d="M0,0h400v300h-400Z" style="fill: none;"></path><g><g class="mark-line role-mark concat_0_layer_1_marks" clip-path="url(#clip5)"><path d="M-338.46153846153845,300L-323.0769230769231,300L-307.69230769230774,300L-292.30769230769226,300L-276.9230769230769,300L-261.53846153846155,300L-246.15384615384616,300L-230.76923076923075,300L-215.3846153846154,300L-200,300L-184.6153846153846,299.625L-169.23076923076923,300L-153.84615384615387,300L-138.46153846153845,299.625L-123.07692307692308,299.625L-107.6923076923077,298.875L-92.3076923076923,299.625L-76.92307692307693,298.875L-61.53846153846154,299.625L-46.15384615384615,298.125L-30.76923076923077,298.5L-15.384615384615385,299.625L0,298.5L15.384615384615385,295.875L30.76923076923077,290.25L46.15384615384615,294.375L61.53846153846154,289.5L76.92307692307693,300L92.3076923076923,298.125L107.6923076923077,286.5L123.07692307692308,287.25L138.46153846153845,277.875L153.84615384615387,274.125L169.23076923076923,281.25L184.6153846153846,294.375L200,289.5L215.3846153846154,271.5L230.76923076923075,257.25L246.15384615384616,264L261.53846153846155,260.25L276.9230769230769,271.125L292.30769230769226,293.625L307.69230769230774,295.5L323.0769230769231,292.5L338.46153846153845,257.25L353.8461538461538,236.25L369.2307692307692,251.25L384.61538461538464,274.875L400,258.375L415.3846153846154,289.125L430.7692307692308,285L446.1538461538462,230.625L461.5384615384615,235.5" style="fill: none; stroke: #f58518; stroke-width: 2; opacity: 0.2;"></path></g></g><path class="foreground" d="" style="display: none; fill: none;"></path></g><g transform="translate(0,0)"><path class="background" d="M0,0h400v300h-400Z" style="fill: none;"></path><g><g class="mark-line role-mark concat_0_layer_1_marks" clip-path="url(#clip6)"><path d="M-338.46153846153845,299.25L-323.0769230769231,299.625L-307.69230769230774,297.75L-292.30769230769226,294.75L-276.9230769230769,277.875L-261.53846153846155,297.375L-246.15384615384616,277.5L-230.76923076923075,284.25L-215.3846153846154,283.125L-200,259.875L-184.6153846153846,245.625L-169.23076923076923,262.875L-153.84615384615387,219.375L-138.46153846153845,244.875L-123.07692307692308,277.125L-107.6923076923077,269.625L-92.3076923076923,267.375L-76.92307692307693,266.625L-61.53846153846154,240L-46.15384615384615,225L-30.76923076923077,253.5L-15.384615384615385,237L0,256.875L15.384615384615385,210L30.76923076923077,210L46.15384615384615,182.24999999999997L61.53846153846154,214.125L76.92307692307693,158.25000000000003L92.3076923076923,205.12500000000003L107.6923076923077,177.00000000000003L123.07692307692308,147.375L138.46153846153845,108L153.84615384615387,67.125L169.23076923076923,88.875L184.6153846153846,183L200,154.875L215.3846153846154,159L230.76923076923075,117.375L246.15384615384616,27.750000000000007L261.53846153846155,29.25000000000001L276.9230769230769,95.99999999999999L292.30769230769226,125.25L307.69230769230774,175.5L323.0769230769231,125.62499999999999L338.46153846153845,113.62500000000001L353.8461538461538,119.24999999999999L369.2307692307692,70.125L384.61538461538464,46.50000000000001L400,72.75000000000001L415.3846153846154,88.875L430.7692307692308,153L446.1538461538462,95.625L461.5384615384615,44.249999999999986" style="fill: none; stroke: #4c78a8; stroke-width: 2; opacity: 0.2;"></path></g></g><path class="foreground" d="" style="display: none; fill: none;"></path></g></g><g class="mark-group role-title"><g transform="translate(200,-22)"><path class="background" d="M0,0h0v0h0Z" style="pointer-events: none; fill: none;"></path><g><g class="mark-text role-title-text" style="pointer-events: none;"><text text-anchor="middle" transform="translate(0,10)" style="font-family: Roboto Condensed; font-size: 13px; font-weight: normal; fill: #000; opacity: 1;">7-day average (Daily values in light color)</text></g></g><path class="foreground" d="" style="pointer-events: none; display: none; fill: none;"></path></g></g></g><path class="foreground" d="" style="display: none; fill: none;"></path></g></g><g class="mark-group role-scope concat_1_group"><g transform="translate(450,0)"><path class="background" d="M0,0h400v300h-400Z" style="fill: none; stroke: #ddd; stroke-width: 0;"></path><g><g class="mark-group role-axis"><g transform="translate(0.5,0.5)"><path class="background" d="M0,0h0v0h0Z" style="pointer-events: none; fill: none;"></path><g><g class="mark-rule role-axis-grid" style="pointer-events: none;"><line transform="translate(0,300)" x2="400" y2="0" style="fill: none; stroke: #ddd; stroke-width: 1; opacity: 1;"></line><line transform="translate(0,267)" x2="400" y2="0" style="fill: none; stroke: #ddd; stroke-width: 1; opacity: 1;"></line><line transform="translate(0,233)" x2="400" y2="0" style="fill: none; stroke: #ddd; stroke-width: 1; opacity: 1;"></line><line transform="translate(0,200)" x2="400" y2="0" style="fill: none; stroke: #ddd; stroke-width: 1; opacity: 1;"></line><line transform="translate(0,167)" x2="400" y2="0" style="fill: none; stroke: #ddd; stroke-width: 1; opacity: 1;"></line><line transform="translate(0,133)" x2="400" y2="0" style="fill: none; stroke: #ddd; stroke-width: 1; opacity: 1;"></line><line transform="translate(0,100)" x2="400" y2="0" style="fill: none; stroke: #ddd; stroke-width: 1; opacity: 1;"></line><line transform="translate(0,67)" x2="400" y2="0" style="fill: none; stroke: #ddd; stroke-width: 1; opacity: 1;"></line><line transform="translate(0,33)" x2="400" y2="0" style="fill: none; stroke: #ddd; stroke-width: 1; opacity: 1;"></line><line transform="translate(0,0)" x2="400" y2="0" style="fill: none; stroke: #ddd; stroke-width: 1; opacity: 1;"></line></g></g><path class="foreground" d="" style="pointer-events: none; display: none; fill: none;"></path></g></g><g class="mark-group role-axis"><g transform="translate(0.5,300.5)"><path class="background" d="M0,0h0v0h0Z" style="pointer-events: none; fill: none;"></path><g><g class="mark-text role-axis-label" style="pointer-events: none;"><text text-anchor="start" transform="translate(0,10)" style="font-family: Roboto Condensed; font-size: 10px; fill: #000; opacity: 1;">Mar 23</text><text text-anchor="middle" transform="translate(30.76923076923077,10)" style="font-family: Roboto Condensed; font-size: 10px; fill: #000; opacity: 0;">Mar 25</text><text text-anchor="middle" transform="translate(61.53846153846154,10)" style="font-family: Roboto Condensed; font-size: 10px; fill: #000; opacity: 1;">Mar 27</text><text text-anchor="middle" transform="translate(92.3076923076923,10)" style="font-family: Roboto Condensed; font-size: 10px; fill: #000; opacity: 0;">Mar 29</text><text text-anchor="middle" transform="translate(123.07692307692308,10)" style="font-family: Roboto Condensed; font-size: 10px; fill: #000; opacity: 1;">Mar 31</text><text text-anchor="middle" transform="translate(138.46153846153845,10)" style="font-family: Roboto Condensed; font-size: 10px; fill: #000; opacity: 0;">Apr 01</text><text text-anchor="middle" transform="translate(169.23076923076923,10)" style="font-family: Roboto Condensed; font-size: 10px; fill: #000; opacity: 1;">Apr 03</text><text text-anchor="middle" transform="translate(200,10)" style="font-family: Roboto Condensed; font-size: 10px; fill: #000; opacity: 0;">Apr 05</text><text text-anchor="middle" transform="translate(230.76923076923075,10)" style="font-family: Roboto Condensed; font-size: 10px; fill: #000; opacity: 1;">Apr 07</text><text text-anchor="middle" transform="translate(261.53846153846155,10)" style="font-family: Roboto Condensed; font-size: 10px; fill: #000; opacity: 0;">Apr 09</text><text text-anchor="middle" transform="translate(292.30769230769226,10)" style="font-family: Roboto Condensed; font-size: 10px; fill: #000; opacity: 1;">Apr 11</text><text text-anchor="middle" transform="translate(323.0769230769231,10)" style="font-family: Roboto Condensed; font-size: 10px; fill: #000; opacity: 0;">Apr 13</text><text text-anchor="middle" transform="translate(353.8461538461538,10)" style="font-family: Roboto Condensed; font-size: 10px; fill: #000; opacity: 1;">Apr 15</text><text text-anchor="middle" transform="translate(384.61538461538464,10)" style="font-family: Roboto Condensed; font-size: 10px; fill: #000; opacity: 0;">Apr 17</text></g><g class="mark-rule role-axis-domain" style="pointer-events: none;"><line transform="translate(0,0)" x2="400" y2="0" style="fill: none; stroke: lightgray; stroke-width: 1; opacity: 1;"></line></g></g><path class="foreground" d="" style="pointer-events: none; display: none; fill: none;"></path></g></g><g class="mark-group role-axis"><g transform="translate(0.5,0.5)"><path class="background" d="M0,0h0v0h0Z" style="pointer-events: none; fill: none;"></path><g><g class="mark-text role-axis-label" style="pointer-events: none;"><text text-anchor="end" transform="translate(-2,303)" style="font-family: Roboto Condensed; font-size: 10px; fill: #000; opacity: 1;">0</text><text text-anchor="end" transform="translate(-2,269.66666666666663)" style="font-family: Roboto Condensed; font-size: 10px; fill: #000; opacity: 1;">2,000</text><text text-anchor="end" transform="translate(-2,236.33333333333334)" style="font-family: Roboto Condensed; font-size: 10px; fill: #000; opacity: 1;">4,000</text><text text-anchor="end" transform="translate(-2,203.00000000000003)" style="font-family: Roboto Condensed; font-size: 10px; fill: #000; opacity: 1;">6,000</text><text text-anchor="end" transform="translate(-2,169.66666666666669)" style="font-family: Roboto Condensed; font-size: 10px; fill: #000; opacity: 1;">8,000</text><text text-anchor="end" transform="translate(-2,136.33333333333331)" style="font-family: Roboto Condensed; font-size: 10px; fill: #000; opacity: 1;">10,000</text><text text-anchor="end" transform="translate(-2,103.00000000000001)" style="font-family: Roboto Condensed; font-size: 10px; fill: #000; opacity: 1;">12,000</text><text text-anchor="end" transform="translate(-2,69.66666666666666)" style="font-family: Roboto Condensed; font-size: 10px; fill: #000; opacity: 1;">14,000</text><text text-anchor="end" transform="translate(-2,36.33333333333335)" style="font-family: Roboto Condensed; font-size: 10px; fill: #000; opacity: 1;">16,000</text><text text-anchor="end" transform="translate(-2,3)" style="font-family: Roboto Condensed; font-size: 10px; fill: #000; opacity: 1;">18,000</text></g><g class="mark-rule role-axis-domain" style="pointer-events: none;"><line transform="translate(0,300)" x2="0" y2="-300" style="fill: none; stroke: lightgray; stroke-width: 1; opacity: 1;"></line></g></g><path class="foreground" d="" style="pointer-events: none; display: none; fill: none;"></path></g></g><g class="mark-group role-scope concat_1_pathgroup"><g transform="translate(0,0)"><path class="background" d="M0,0h400v300h-400Z" style="fill: none;"></path><g><g class="mark-line role-mark concat_1_marks" clip-path="url(#clip7)"><path d="M-800,300L-784.6153846153845,300L-769.2307692307693,300L-753.8461538461538,300L-738.4615384615385,300L-723.0769230769231,300L-707.6923076923076,300L-692.3076923076924,300L-676.9230769230769,300L-661.5384615384615,300L-646.1538461538462,300L-630.7692307692307,300L-615.3846153846155,300L-600,300L-584.6153846153845,300L-569.2307692307693,300L-553.8461538461538,300L-538.4615384615385,300L-523.0769230769231,300L-507.6923076923077,300L-492.3076923076923,300L-476.9230769230769,300L-461.5384615384615,300L-446.1538461538462,300L-430.7692307692308,300L-415.3846153846154,300L-400,300L-384.61538461538464,300L-369.2307692307692,300L-353.8461538461538,300L-338.46153846153845,300L-323.0769230769231,300L-307.69230769230774,300L-292.30769230769226,300L-276.9230769230769,300L-261.53846153846155,300L-246.15384615384616,300L-230.76923076923075,300L-215.3846153846154,299.98333333333335L-200,299.98333333333335L-184.6153846153846,299.98333333333335L-169.23076923076923,299.98333333333335L-153.84615384615387,299.98333333333335L-138.46153846153845,299.98333333333335L-123.07692307692308,299.98333333333335L-107.6923076923077,299.98333333333335L-92.3076923076923,299.98333333333335L-76.92307692307693,299.98333333333335L-61.53846153846154,299.7333333333333L-46.15384615384615,299.7333333333333L-30.76923076923077,299.7333333333333L-15.384615384615385,299.7333333333333L0,299.7333333333333L15.384615384615385,299.7333333333333L30.76923076923077,299.7333333333333L46.15384615384615,299.7333333333333L61.53846153846154,299.7333333333333L76.92307692307693,299.7333333333333L92.3076923076923,299.7333333333333L107.6923076923077,299.7333333333333L123.07692307692308,299.7333333333333L138.46153846153845,298.28333333333336L153.84615384615387,298.28333333333336L169.23076923076923,296.5833333333333L184.6153846153846,296.5833333333333L200,296.5833333333333L215.3846153846154,296.5833333333333L230.76923076923075,296.5833333333333L246.15384615384616,296.5833333333333L261.53846153846155,296.5833333333333L276.9230769230769,293.65L292.30769230769226,293.65L307.69230769230774,293.65L323.0769230769231,293.65L338.46153846153845,293.65L353.8461538461538,293.65L369.2307692307692,290.8333333333333L384.61538461538464,290.8333333333333L400,290.8333333333333L415.3846153846154,290.8333333333333L430.7692307692308,290.8333333333333L446.1538461538462,290.8333333333333L461.5384615384615,290.8333333333333" style="fill: none; stroke: #e45756; stroke-width: 2; opacity: 0.7;"></path></g></g><path class="foreground" d="" style="display: none; fill: none;"></path></g><g transform="translate(0,0)"><path class="background" d="M0,0h400v300h-400Z" style="fill: none;"></path><g><g class="mark-line role-mark concat_1_marks" clip-path="url(#clip8)"><path d="M-800,300L-784.6153846153845,300L-769.2307692307693,300L-753.8461538461538,300L-738.4615384615385,300L-723.0769230769231,300L-707.6923076923076,300L-692.3076923076924,300L-676.9230769230769,300L-661.5384615384615,300L-646.1538461538462,300L-630.7692307692307,300L-615.3846153846155,300L-600,300L-584.6153846153845,300L-569.2307692307693,300L-553.8461538461538,300L-538.4615384615385,300L-523.0769230769231,300L-507.6923076923077,300L-492.3076923076923,300L-476.9230769230769,300L-461.5384615384615,300L-446.1538461538462,300L-430.7692307692308,300L-415.3846153846154,300L-400,300L-384.61538461538464,300L-369.2307692307692,300L-353.8461538461538,300L-338.46153846153845,300L-323.0769230769231,300L-307.69230769230774,300L-292.30769230769226,300L-276.9230769230769,300L-261.53846153846155,300L-246.15384615384616,300L-230.76923076923075,300L-215.3846153846154,300L-200,300L-184.6153846153846,299.98333333333335L-169.23076923076923,299.98333333333335L-153.84615384615387,299.98333333333335L-138.46153846153845,299.9666666666667L-123.07692307692308,299.95L-107.6923076923077,299.90000000000003L-92.3076923076923,299.8833333333333L-76.92307692307693,299.8333333333333L-61.53846153846154,299.81666666666666L-46.15384615384615,299.7333333333333L-30.76923076923077,299.6666666666667L-15.384615384615385,299.65L0,299.5833333333333L15.384615384615385,299.4L30.76923076923077,298.96666666666664L46.15384615384615,298.71666666666664L61.53846153846154,298.25L76.92307692307693,298.25L92.3076923076923,298.1666666666667L107.6923076923077,297.56666666666666L123.07692307692308,297L138.46153846153845,296.0166666666667L153.84615384615387,294.8666666666667L169.23076923076923,294.03333333333336L184.6153846153846,293.78333333333336L200,293.31666666666666L215.3846153846154,292.05L230.76923076923075,290.15L246.15384615384616,288.55L261.53846153846155,286.78333333333336L276.9230769230769,285.5L292.30769230769226,285.2166666666667L307.69230769230774,285.01666666666665L323.0769230769231,284.68333333333334L338.46153846153845,282.7833333333333L353.8461538461538,279.95L369.2307692307692,277.78333333333336L384.61538461538464,276.6666666666667L400,274.81666666666666L415.3846153846154,274.3333333333333L430.7692307692308,273.6666666666667L446.1538461538462,270.5833333333333L461.5384615384615,267.7166666666667" style="fill: none; stroke: #f58518; stroke-width: 2; opacity: 0.7;"></path></g></g><path class="foreground" d="" style="display: none; fill: none;"></path></g><g transform="translate(0,0)"><path class="background" d="M0,0h400v300h-400Z" style="fill: none;"></path><g><g class="mark-line role-mark concat_1_marks" clip-path="url(#clip9)"><path d="M-800,299.98333333333335L-784.6153846153845,299.98333333333335L-769.2307692307693,299.98333333333335L-753.8461538461538,299.98333333333335L-738.4615384615385,299.98333333333335L-723.0769230769231,299.98333333333335L-707.6923076923076,299.98333333333335L-692.3076923076924,299.98333333333335L-676.9230769230769,299.98333333333335L-661.5384615384615,299.98333333333335L-646.1538461538462,299.98333333333335L-630.7692307692307,299.98333333333335L-615.3846153846155,299.98333333333335L-600,299.98333333333335L-584.6153846153845,299.98333333333335L-569.2307692307693,299.98333333333335L-553.8461538461538,299.98333333333335L-538.4615384615385,299.98333333333335L-523.0769230769231,299.98333333333335L-507.6923076923077,299.98333333333335L-492.3076923076923,299.98333333333335L-476.9230769230769,299.98333333333335L-461.5384615384615,299.98333333333335L-446.1538461538462,299.98333333333335L-430.7692307692308,299.98333333333335L-415.3846153846154,299.98333333333335L-400,299.9666666666667L-384.61538461538464,299.8833333333333L-369.2307692307692,299.8833333333333L-353.8461538461538,299.8L-338.46153846153845,299.76666666666665L-323.0769230769231,299.75L-307.69230769230774,299.65L-292.30769230769226,299.4166666666667L-276.9230769230769,298.43333333333334L-261.53846153846155,298.31666666666666L-246.15384615384616,297.31666666666666L-230.76923076923075,296.6166666666667L-215.3846153846154,295.8666666666667L-200,294.0833333333333L-184.6153846153846,291.6666666666667L-169.23076923076923,290.01666666666665L-153.84615384615387,286.43333333333334L-138.46153846153845,283.98333333333335L-123.07692307692308,282.96666666666664L-107.6923076923077,281.6166666666667L-92.3076923076923,280.1666666666667L-76.92307692307693,278.68333333333334L-61.53846153846154,276.01666666666665L-46.15384615384615,272.68333333333334L-30.76923076923077,270.6166666666667L-15.384615384615385,267.81666666666666L0,265.9L15.384615384615385,261.9L30.76923076923077,257.90000000000003L46.15384615384615,252.66666666666666L61.53846153846154,248.85L76.92307692307693,242.55L92.3076923076923,238.33333333333334L107.6923076923077,232.86666666666667L123.07692307692308,226.08333333333334L138.46153846153845,217.55L153.84615384615387,207.2L169.23076923076923,197.81666666666666L184.6153846153846,192.61666666666667L200,186.16666666666666L215.3846153846154,179.9L230.76923076923075,171.78333333333336L246.15384615384616,159.68333333333337L261.53846153846155,147.65L276.9230769230769,138.58333333333334L292.30769230769226,130.81666666666666L307.69230769230774,125.28333333333335L323.0769230769231,117.53333333333333L338.46153846153845,109.24999999999999L353.8461538461538,101.21666666666665L369.2307692307692,91L384.61538461538464,79.73333333333333L400,69.63333333333335L415.3846153846154,60.24999999999999L430.7692307692308,53.716666666666654L446.1538461538462,44.63333333333333L461.5384615384615,33.26666666666668" style="fill: none; stroke: #4c78a8; stroke-width: 2; opacity: 0.7;"></path></g></g><path class="foreground" d="" style="display: none; fill: none;"></path></g></g><g class="mark-group role-title"><g transform="translate(200,-22)"><path class="background" d="M0,0h0v0h0Z" style="pointer-events: none; fill: none;"></path><g><g class="mark-text role-title-text" style="pointer-events: none;"><text text-anchor="middle" transform="translate(0,10)" style="font-family: Roboto Condensed; font-size: 13px; font-weight: normal; fill: #000; opacity: 1;">Total</text></g></g><path class="foreground" d="" style="pointer-events: none; display: none; fill: none;"></path></g></g></g><path class="foreground" d="" style="display: none; fill: none;"></path></g></g><g class="mark-group role-legend"><g transform="translate(868,0)"><path class="background" d="M0,0h60v37h-60Z" style="pointer-events: none; fill: none;"></path><g><g class="mark-group role-legend-entry"><g transform="translate(0,0)"><path class="background" d="M0,0h0v0h0Z" style="pointer-events: none; fill: none;"></path><g><g class="mark-group role-scope"><g transform="translate(0,0)"><path class="background" d="M0,0h59.3251953125v11h-59.3251953125Z" style="pointer-events: none; fill: none; opacity: 1;"></path><g><g class="mark-symbol role-legend-symbol" style="pointer-events: none;"><path transform="translate(6,6)" d="M-5,0L5,0" style="fill: none; stroke: #4c78a8; stroke-width: 1.5; opacity: 1;"></path></g><g class="mark-text role-legend-label" style="pointer-events: none;"><text text-anchor="start" transform="translate(16,9)" style="font-family: Roboto Condensed; font-size: 10px; fill: #000; opacity: 1;">Confirmed</text></g></g><path class="foreground" d="" style="pointer-events: none; display: none; fill: none;"></path></g><g transform="translate(0,13)"><path class="background" d="M0,0h59.3251953125v11h-59.3251953125Z" style="pointer-events: none; fill: none; opacity: 1;"></path><g><g class="mark-symbol role-legend-symbol" style="pointer-events: none;"><path transform="translate(6,6)" d="M-5,0L5,0" style="fill: none; stroke: #f58518; stroke-width: 1.5; opacity: 1;"></path></g><g class="mark-text role-legend-label" style="pointer-events: none;"><text text-anchor="start" transform="translate(16,9)" style="font-family: Roboto Condensed; font-size: 10px; fill: #000; opacity: 1;">Deaths</text></g></g><path class="foreground" d="" style="pointer-events: none; display: none; fill: none;"></path></g><g transform="translate(0,26)"><path class="background" d="M0,0h59.3251953125v11h-59.3251953125Z" style="pointer-events: none; fill: none; opacity: 1;"></path><g><g class="mark-symbol role-legend-symbol" style="pointer-events: none;"><path transform="translate(6,6)" d="M-5,0L5,0" style="fill: none; stroke: #e45756; stroke-width: 1.5; opacity: 1;"></path></g><g class="mark-text role-legend-label" style="pointer-events: none;"><text text-anchor="start" transform="translate(16,9)" style="font-family: Roboto Condensed; font-size: 10px; fill: #000; opacity: 1;">Recovered</text></g></g><path class="foreground" d="" style="pointer-events: none; display: none; fill: none;"></path></g></g></g><path class="foreground" d="" style="pointer-events: none; display: none; fill: none;"></path></g></g></g><path class="foreground" d="" style="pointer-events: none; display: none; fill: none;"></path></g></g></g><path class="foreground" d="" style="display: none; fill: none;"></path></g></g></g></svg>