<svg class="marks" width="966" height="344" viewBox="0 0 966 344" version="1.1" xmlns="http://www.w3.org/2000/svg" xmlns:xlink="http://www.w3.org/1999/xlink"><rect width="966" height="344" style="fill: white;"></rect><defs><clipPath id="clip1"><rect x="0" y="0" width="400" height="300"></rect></clipPath><clipPath id="clip2"><rect x="0" y="0" width="400" height="300"></rect></clipPath><clipPath id="clip3"><rect x="0" y="0" width="400" height="300"></rect></clipPath><clipPath id="clip4"><rect x="0" y="0" width="400" height="300"></rect></clipPath><clipPath id="clip5"><rect x="0" y="0" width="400" height="300"></rect></clipPath><clipPath id="clip6"><rect x="0" y="0" width="400" height="300"></rect></clipPath><clipPath id="clip7"><rect x="0" y="0" width="400" height="300"></rect></clipPath><clipPath id="clip8"><rect x="0" y="0" width="400" height="300"></rect></clipPath><clipPath id="clip9"><rect x="0" y="0" width="400" height="300"></rect></clipPath></defs><g transform="translate(33,27)"><g class="mark-group role-frame root"><g transform="translate(0,0)"><path class="background" d="M0,0h0v0h0Z" style="fill: none;"></path><g><g class="mark-group role-scope concat_0_group"><g transform="translate(0,0)"><path class="background" d="M0,0h400v300h-400Z" style="fill: none; stroke: #ddd; stroke-width: 0;"></path><g><g class="mark-group role-axis"><g transform="translate(0.5,0.5)"><path class="background" d="M0,0h0v0h0Z" style="pointer-events: none; fill: none;"></path><g><g class="mark-rule role-axis-grid" style="pointer-events: none;"><line transform="translate(0,300)" x2="400" y2="0" style="fill: none; stroke: #ddd; stroke-width: 1; opacity: 1;"></line><line transform="translate(0,263)" x2="400" y2="0" style="fill: none; stroke: #ddd; stroke-width: 1; opacity: 1;"></line><line transform="translate(0,225)" x2="400" y2="0" style="fill: none; stroke: #ddd; stroke-width: 1; opacity: 1;"></line><line transform="translate(0,188)" x2="400" y2="0" style="fill: none; stroke: #ddd; stroke-width: 1; opacity: 1;"></line><line transform="translate(0,150)" x2="400" y2="0" style="fill: none; stroke: #ddd; stroke-width: 1; opacity: 1;"></line><line transform="translate(0,113)" x2="400" y2="0" style="fill: none; stroke: #ddd; stroke-width: 1; opacity: 1;"></line><line transform="translate(0,75)" x2="400" y2="0" style="fill: none; stroke: #ddd; stroke-width: 1; opacity: 1;"></line><line transform="translate(0,38)" x2="400" y2="0" style="fill: none; stroke: #ddd; stroke-width: 1; opacity: 1;"></line><line transform="translate(0,0)" x2="400" y2="0" style="fill: none; stroke: #ddd; stroke-width: 1; opacity: 1;"></line></g></g><path class="foreground" d="" style="pointer-events: none; display: none; fill: none;"></path></g></g><g class="mark-group role-axis"><g transform="translate(0.5,300.5)"><path class="background" d="M0,0h0v0h0Z" style="pointer-events: none; fill: none;"></path><g><g class="mark-text role-axis-label" style="pointer-events: none;"><text text-anchor="middle" transform="translate(13.333333333333334,10)" style="font-family: Roboto Condensed; font-size: 10px; fill: #000; opacity: 1;">Mar 21</text><text text-anchor="middle" transform="translate(40,10)" style="font-family: Roboto Condensed; font-size: 10px; fill: #000; opacity: 0;">Mar 23</text><text text-anchor="middle" transform="translate(66.66666666666666,10)" style="font-family: Roboto Condensed; font-size: 10px; fill: #000; opacity: 1;">Mar 25</text><text text-anchor="middle" transform="translate(93.33333333333333,10)" style="font-family: Roboto Condensed; font-size: 10px; fill: #000; opacity: 0;">Mar 27</text><text text-anchor="middle" transform="translate(120,10)" style="font-family: Roboto Condensed; font-size: 10px; fill: #000; opacity: 1;">Mar 29</text><text text-anchor="middle" transform="translate(146.66666666666666,10)" style="font-family: Roboto Condensed; font-size: 10px; fill: #000; opacity: 0;">Mar 31</text><text text-anchor="middle" transform="translate(160,10)" style="font-family: Roboto Condensed; font-size: 10px; fill: #000; opacity: 1;">Apr 01</text><text text-anchor="middle" transform="translate(186.66666666666666,10)" style="font-family: Roboto Condensed; font-size: 10px; fill: #000; opacity: 0;">Apr 03</text><text text-anchor="middle" transform="translate(213.33333333333334,10)" style="font-family: Roboto Condensed; font-size: 10px; fill: #000; opacity: 1;">Apr 05</text><text text-anchor="middle" transform="translate(240,10)" style="font-family: Roboto Condensed; font-size: 10px; fill: #000; opacity: 0;">Apr 07</text><text text-anchor="middle" transform="translate(266.66666666666663,10)" style="font-family: Roboto Condensed; font-size: 10px; fill: #000; opacity: 1;">Apr 09</text><text text-anchor="middle" transform="translate(293.3333333333333,10)" style="font-family: Roboto Condensed; font-size: 10px; fill: #000; opacity: 0;">Apr 11</text><text text-anchor="middle" transform="translate(320,10)" style="font-family: Roboto Condensed; font-size: 10px; fill: #000; opacity: 1;">Apr 13</text><text text-anchor="middle" transform="translate(346.6666666666667,10)" style="font-family: Roboto Condensed; font-size: 10px; fill: #000; opacity: 0;">Apr 15</text><text text-anchor="middle" transform="translate(373.3333333333333,10)" style="font-family: Roboto Condensed; font-size: 10px; fill: #000; opacity: 1;">Apr 17</text><text text-anchor="end" transform="translate(400,10)" style="font-family: Roboto Condensed; font-size: 10px; fill: #000; opacity: 0;">Apr 19</text></g><g class="mark-rule role-axis-domain" style="pointer-events: none;"><line transform="translate(0,0)" x2="400" y2="0" style="fill: none; stroke: lightgray; stroke-width: 1; opacity: 1;"></line></g></g><path class="foreground" d="" style="pointer-events: none; display: none; fill: none;"></path></g></g><g class="mark-group role-axis"><g transform="translate(0.5,0.5)"><path class="background" d="M0,0h0v0h0Z" style="pointer-events: none; fill: none;"></path><g><g class="mark-text role-axis-label" style="pointer-events: none;"><text text-anchor="end" transform="translate(-2,303)" style="font-family: Roboto Condensed; font-size: 10px; fill: #000; opacity: 1;">-1,000</text><text text-anchor="end" transform="translate(-2,265.5)" style="font-family: Roboto Condensed; font-size: 10px; fill: #000; opacity: 1;">-500</text><text text-anchor="end" transform="translate(-2,228)" style="font-family: Roboto Condensed; font-size: 10px; fill: #000; opacity: 1;">0</text><text text-anchor="end" transform="translate(-2,190.5)" style="font-family: Roboto Condensed; font-size: 10px; fill: #000; opacity: 1;">500</text><text text-anchor="end" transform="translate(-2,153)" style="font-family: Roboto Condensed; font-size: 10px; fill: #000; opacity: 1;">1,000</text><text text-anchor="end" transform="translate(-2,115.5)" style="font-family: Roboto Condensed; font-size: 10px; fill: #000; opacity: 1;">1,500</text><text text-anchor="end" transform="translate(-2,78)" style="font-family: Roboto Condensed; font-size: 10px; fill: #000; opacity: 1;">2,000</text><text text-anchor="end" transform="translate(-2,40.5)" style="font-family: Roboto Condensed; font-size: 10px; fill: #000; opacity: 1;">2,500</text><text text-anchor="end" transform="translate(-2,3)" style="font-family: Roboto Condensed; font-size: 10px; fill: #000; opacity: 1;">3,000</text></g><g class="mark-rule role-axis-domain" style="pointer-events: none;"><line transform="translate(0,300)" x2="0" y2="-300" style="fill: none; stroke: lightgray; stroke-width: 1; opacity: 1;"></line></g></g><path class="foreground" d="" style="pointer-events: none; display: none; fill: none;"></path></g></g><g class="mark-group role-scope concat_0_layer_0_pathgroup"><g transform="translate(0,0)"><path class="background" d="M0,0h400v300h-400Z" style="fill: none;"></path><g><g class="mark-line role-mark concat_0_layer_0_marks" clip-path="url(#clip1)"><path d="M-173.33333333333334,51.43928571428569L-160,62.121428571428574L-146.66666666666666,75.80357142857143L-133.33333333333331,88.90714285714286L-120,99.76071428571429L-106.66666666666667,110.77499999999999L-93.33333333333333,114.55714285714286L-80,115.90714285714286L-66.66666666666666,121.10357142857143L-53.333333333333336,126.69642857142856L-40,131.87142857142854L-26.666666666666668,138.09642857142856L-13.333333333333334,143.20714285714288L0,149.25000000000003L13.333333333333334,158.60357142857143L26.666666666666668,167.73214285714286L40,172.4035714285714L53.333333333333336,177.04285714285712L66.66666666666666,182.01428571428573L80,186L93.33333333333333,188.05714285714288L106.66666666666667,190.31785714285712L120,190.56428571428572L133.33333333333331,191.80714285714288L146.66666666666666,193.64999999999998L160,196.8L173.33333333333334,199.39285714285714L186.66666666666666,203.07857142857142L200,205.15714285714287L213.33333333333334,207.525L226.66666666666666,210.07500000000002L240,212.0357142857143L253.33333333333331,212.4857142857143L266.66666666666663,213.06428571428572L280,213.95357142857142L293.3333333333333,215.025L306.6666666666667,216.975L320,217.18928571428572L333.33333333333337,216.53571428571428L346.6666666666667,217.02857142857144L360,217.2642857142857L373.3333333333333,227.56071428571428L386.6666666666667,227.81785714285715L400,227.85000000000002" style="fill: none; stroke: #e45756; stroke-width: 2; opacity: 1;"></path></g></g><path class="foreground" d="" style="display: none; fill: none;"></path></g><g transform="translate(0,0)"><path class="background" d="M0,0h400v300h-400Z" style="fill: none;"></path><g><g class="mark-line role-mark concat_0_layer_0_marks" clip-path="url(#clip2)"><path d="M-173.33333333333334,222.48214285714286L-160,222.56785714285715L-146.66666666666666,222.77142857142857L-133.33333333333331,222.95357142857145L-120,223.07142857142856L-106.66666666666667,223.29642857142858L-93.33333333333333,223.52142857142857L-80,223.68214285714288L-66.66666666666666,223.86428571428573L-53.333333333333336,223.9607142857143L-40,223.99285714285716L-26.666666666666668,224.14285714285714L-13.333333333333334,224.17499999999998L0,224.21785714285716L13.333333333333334,224.29285714285714L26.666666666666668,224.3357142857143L40,224.38928571428573L53.333333333333336,224.45357142857142L66.66666666666666,224.52857142857144L80,224.54999999999998L93.33333333333333,224.53928571428574L106.66666666666667,224.5714285714286L120,224.58214285714286L133.33333333333331,224.63571428571427L146.66666666666666,224.7L160,224.66785714285714L173.33333333333334,224.66785714285714L186.66666666666666,224.67857142857142L200,224.66785714285714L213.33333333333334,224.68928571428572L226.66666666666666,224.7107142857143L240,224.7214285714286L253.33333333333331,224.77499999999998L266.66666666666663,224.81785714285715L280,224.85000000000002L293.3333333333333,224.8607142857143L306.6666666666667,224.89285714285714L320,224.89285714285714L333.33333333333337,224.89285714285714L346.6666666666667,224.9035714285714L360,224.925L373.3333333333333,211.11428571428573L386.6666666666667,211.14642857142857L400,211.14642857142857" style="fill: none; stroke: #f58518; stroke-width: 2; opacity: 1;"></path></g></g><path class="foreground" d="" style="display: none; fill: none;"></path></g><g transform="translate(0,0)"><path class="background" d="M0,0h400v300h-400Z" style="fill: none;"></path><g><g class="mark-line role-mark concat_0_layer_0_marks" clip-path="url(#clip3)"><path d="M-173.33333333333334,209.9892857142857L-160,215.64642857142854L-146.66666666666666,217.40357142857144L-133.33333333333331,218.50714285714284L-120,218.03571428571428L-106.66666666666667,219.53571428571428L-93.33333333333333,221.0142857142857L-80,221.51785714285717L-66.66666666666666,221.74285714285713L-53.333333333333336,221.80714285714285L-40,221.77499999999998L-26.666666666666668,223.06071428571428L-13.333333333333334,222.6L0,221.73214285714286L13.333333333333334,221.48571428571427L26.666666666666668,220.77857142857144L40,220.0392857142857L53.333333333333336,219.2892857142857L66.66666666666666,219.0107142857143L80,218.29285714285714L93.33333333333333,218.06785714285718L106.66666666666667,217.56428571428572L120,217.23214285714286L133.33333333333331,217.4785714285714L146.66666666666666,217.62857142857143L160,217.5L173.33333333333334,218.03571428571428L186.66666666666666,218.42142857142855L200,219.17142857142855L213.33333333333334,219.85714285714286L226.66666666666666,219.99642857142857L240,220.29642857142858L253.33333333333331,220.2L266.66666666666663,220.16785714285714L280,220.39285714285714L293.3333333333333,219.95357142857145L306.6666666666667,219.29999999999998L320,219.12857142857143L333.33333333333337,218.7L346.6666666666667,219.13928571428573L360,219.42857142857142L373.3333333333333,216.225L386.6666666666667,216.71785714285716L400,217.8107142857143" style="fill: none; stroke: #4c78a8; stroke-width: 2; opacity: 1;"></path></g></g><path class="foreground" d="" style="display: none; fill: none;"></path></g></g><g class="mark-group role-scope concat_0_layer_1_pathgroup"><g transform="translate(0,0)"><path class="background" d="M0,0h400v300h-400Z" style="fill: none;"></path><g><g class="mark-line role-mark concat_0_layer_1_marks" clip-path="url(#clip4)"><path d="M-253.33333333333331,12.075000000000003L-240,23.099999999999987L-226.66666666666666,30.45000000000001L-213.33333333333334,33.67499999999999L-200,53.624999999999986L-186.66666666666666,101.39999999999999L-173.33333333333334,105.75000000000001L-160,86.85L-146.66666666666666,118.875L-133.33333333333331,122.175L-120,109.65000000000002L-106.66666666666667,130.725L-93.33333333333333,127.875L-80,115.2L-66.66666666666666,123.22499999999998L-53.333333333333336,158.025L-40,158.4L-26.666666666666668,153.22500000000002L-13.333333333333334,166.49999999999997L0,170.175L13.333333333333334,180.67499999999998L26.666666666666668,187.125L40,190.72500000000002L53.333333333333336,190.875L66.66666666666666,188.02499999999998L80,194.4L93.33333333333333,184.57500000000002L106.66666666666667,196.5L120,188.85L133.33333333333331,199.42499999999998L146.66666666666666,203.775L160,210.07500000000002L173.33333333333334,212.55L186.66666666666666,210.37499999999997L200,211.05L213.33333333333334,205.42499999999998L226.66666666666666,217.275L240,217.5L253.33333333333331,213.225L266.66666666666663,216.6L280,216.6L293.3333333333333,218.54999999999998L306.6666666666667,219.07500000000002L320,218.77499999999998L333.33333333333337,212.925L346.6666666666667,216.675L360,218.25L373.3333333333333,288.675L386.6666666666667,220.34999999999997L400,219.29999999999998" style="fill: none; stroke: #e45756; stroke-width: 2; opacity: 0.2;"></path></g></g><path class="foreground" d="" style="display: none; fill: none;"></path></g><g transform="translate(0,0)"><path class="background" d="M0,0h400v300h-400Z" style="fill: none;"></path><g><g class="mark-line role-mark concat_0_layer_1_marks" clip-path="url(#clip5)"><path d="M-253.33333333333331,222.375L-240,221.85000000000002L-226.66666666666666,222.525L-213.33333333333334,222.3L-200,222.6L-186.66666666666666,222.82500000000002L-173.33333333333334,222.9L-160,222.975L-146.66666666666666,223.27500000000003L-133.33333333333331,223.8L-120,223.125L-106.66666666666667,224.17499999999998L-93.33333333333333,224.4L-80,224.025L-66.66666666666666,224.25000000000003L-53.333333333333336,223.95L-40,224.025L-26.666666666666668,224.17499999999998L-13.333333333333334,224.4L0,224.7L13.333333333333334,224.54999999999998L26.666666666666668,224.54999999999998L40,224.32500000000002L53.333333333333336,224.47500000000002L66.66666666666666,224.7L80,224.54999999999998L93.33333333333333,224.625L106.66666666666667,224.77499999999998L120,224.625L133.33333333333331,224.7L146.66666666666666,224.925L160,224.47500000000002L173.33333333333334,224.54999999999998L186.66666666666666,224.7L200,224.7L213.33333333333334,224.77499999999998L226.66666666666666,224.85000000000002L240,225L253.33333333333331,224.85000000000002L266.66666666666663,224.85000000000002L280,224.925L293.3333333333333,224.77499999999998L306.6666666666667,225L320,224.85000000000002L333.33333333333337,225L346.6666666666667,224.925L360,225L373.3333333333333,128.25L386.6666666666667,225L400,225" style="fill: none; stroke: #f58518; stroke-width: 2; opacity: 0.2;"></path></g></g><path class="foreground" d="" style="display: none; fill: none;"></path></g><g transform="translate(0,0)"><path class="background" d="M0,0h400v300h-400Z" style="fill: none;"></path><g><g class="mark-line role-mark concat_0_layer_1_marks" clip-path="url(#clip6)"><path d="M-253.33333333333331,181.875L-240,210L-226.66666666666666,215.625L-213.33333333333334,216L-200,213.675L-186.66666666666666,213.675L-173.33333333333334,219.07500000000002L-160,221.47500000000002L-146.66666666666666,222.3L-133.33333333333331,223.35L-120,212.70000000000002L-106.66666666666667,224.17499999999998L-93.33333333333333,224.025L-80,222.6L-66.66666666666666,223.05L-53.333333333333336,222.74999999999997L-40,223.125L-26.666666666666668,221.7L-13.333333333333334,220.95L0,217.95L13.333333333333334,220.87500000000003L26.666666666666668,218.1L40,217.575L53.333333333333336,217.87500000000003L66.66666666666666,219.74999999999997L80,215.925L93.33333333333333,216.37499999999997L106.66666666666667,217.34999999999997L120,215.77499999999998L133.33333333333331,219.29999999999998L146.66666666666666,218.925L160,218.85000000000002L173.33333333333334,219.675L186.66666666666666,219.07500000000002L200,222.6L213.33333333333334,220.575L226.66666666666666,220.27500000000003L240,221.025L253.33333333333331,218.17499999999998L266.66666666666663,219.45000000000002L280,220.65L293.3333333333333,219.525L306.6666666666667,216L320,219.07500000000002L333.33333333333337,218.025L346.6666666666667,221.25L360,221.47500000000002L373.3333333333333,198.225L386.6666666666667,222.975L400,223.65" style="fill: none; stroke: #4c78a8; stroke-width: 2; opacity: 0.2;"></path></g></g><path class="foreground" d="" style="display: none; fill: none;"></path></g></g><g class="mark-group role-title"><g transform="translate(200,-22)"><path class="background" d="M0,0h0v0h0Z" style="pointer-events: none; fill: none;"></path><g><g class="mark-text role-title-text" style="pointer-events: none;"><text text-anchor="middle" transform="translate(0,10)" style="font-family: Roboto Condensed; font-size: 13px; font-weight: normal; fill: #000; opacity: 1;">7-day average (Daily values in light color)</text></g></g><path class="foreground" d="" style="pointer-events: none; display: none; fill: none;"></path></g></g></g><path class="foreground" d="" style="display: none; fill: none;"></path></g></g><g class="mark-group role-scope concat_1_group"><g transform="translate(450,0)"><path class="background" d="M0,0h400v300h-400Z" style="fill: none; stroke: #ddd; stroke-width: 0;"></path><g><g class="mark-group role-axis"><g transform="translate(0.5,0.5)"><path class="background" d="M0,0h0v0h0Z" style="pointer-events: none; fill: none;"></path><g><g class="mark-rule role-axis-grid" style="pointer-events: none;"><line transform="translate(0,300)" x2="400" y2="0" style="fill: none; stroke: #ddd; stroke-width: 1; opacity: 1;"></line><line transform="translate(0,267)" x2="400" y2="0" style="fill: none; stroke: #ddd; stroke-width: 1; opacity: 1;"></line><line transform="translate(0,233)" x2="400" y2="0" style="fill: none; stroke: #ddd; stroke-width: 1; opacity: 1;"></line><line transform="translate(0,200)" x2="400" y2="0" style="fill: none; stroke: #ddd; stroke-width: 1; opacity: 1;"></line><line transform="translate(0,167)" x2="400" y2="0" style="fill: none; stroke: #ddd; stroke-width: 1; opacity: 1;"></line><line transform="translate(0,133)" x2="400" y2="0" style="fill: none; stroke: #ddd; stroke-width: 1; opacity: 1;"></line><line transform="translate(0,100)" x2="400" y2="0" style="fill: none; stroke: #ddd; stroke-width: 1; opacity: 1;"></line><line transform="translate(0,67)" x2="400" y2="0" style="fill: none; stroke: #ddd; stroke-width: 1; opacity: 1;"></line><line transform="translate(0,33)" x2="400" y2="0" style="fill: none; stroke: #ddd; stroke-width: 1; opacity: 1;"></line><line transform="translate(0,0)" x2="400" y2="0" style="fill: none; stroke: #ddd; stroke-width: 1; opacity: 1;"></line></g></g><path class="foreground" d="" style="pointer-events: none; display: none; fill: none;"></path></g></g><g class="mark-group role-axis"><g transform="translate(0.5,300.5)"><path class="background" d="M0,0h0v0h0Z" style="pointer-events: none; fill: none;"></path><g><g class="mark-text role-axis-label" style="pointer-events: none;"><text text-anchor="middle" transform="translate(13.333333333333334,10)" style="font-family: Roboto Condensed; font-size: 10px; fill: #000; opacity: 1;">Mar 21</text><text text-anchor="middle" transform="translate(40,10)" style="font-family: Roboto Condensed; font-size: 10px; fill: #000; opacity: 0;">Mar 23</text><text text-anchor="middle" transform="translate(66.66666666666666,10)" style="font-family: Roboto Condensed; font-size: 10px; fill: #000; opacity: 1;">Mar 25</text><text text-anchor="middle" transform="translate(93.33333333333333,10)" style="font-family: Roboto Condensed; font-size: 10px; fill: #000; opacity: 0;">Mar 27</text><text text-anchor="middle" transform="translate(120,10)" style="font-family: Roboto Condensed; font-size: 10px; fill: #000; opacity: 1;">Mar 29</text><text text-anchor="middle" transform="translate(146.66666666666666,10)" style="font-family: Roboto Condensed; font-size: 10px; fill: #000; opacity: 0;">Mar 31</text><text text-anchor="middle" transform="translate(160,10)" style="font-family: Roboto Condensed; font-size: 10px; fill: #000; opacity: 1;">Apr 01</text><text text-anchor="middle" transform="translate(186.66666666666666,10)" style="font-family: Roboto Condensed; font-size: 10px; fill: #000; opacity: 0;">Apr 03</text><text text-anchor="middle" transform="translate(213.33333333333334,10)" style="font-family: Roboto Condensed; font-size: 10px; fill: #000; opacity: 1;">Apr 05</text><text text-anchor="middle" transform="translate(240,10)" style="font-family: Roboto Condensed; font-size: 10px; fill: #000; opacity: 0;">Apr 07</text><text text-anchor="middle" transform="translate(266.66666666666663,10)" style="font-family: Roboto Condensed; font-size: 10px; fill: #000; opacity: 1;">Apr 09</text><text text-anchor="middle" transform="translate(293.3333333333333,10)" style="font-family: Roboto Condensed; font-size: 10px; fill: #000; opacity: 0;">Apr 11</text><text text-anchor="middle" transform="translate(320,10)" style="font-family: Roboto Condensed; font-size: 10px; fill: #000; opacity: 1;">Apr 13</text><text text-anchor="middle" transform="translate(346.6666666666667,10)" style="font-family: Roboto Condensed; font-size: 10px; fill: #000; opacity: 0;">Apr 15</text><text text-anchor="middle" transform="translate(373.3333333333333,10)" style="font-family: Roboto Condensed; font-size: 10px; fill: #000; opacity: 1;">Apr 17</text><text text-anchor="end" transform="translate(400,10)" style="font-family: Roboto Condensed; font-size: 10px; fill: #000; opacity: 0;">Apr 19</text></g><g class="mark-rule role-axis-domain" style="pointer-events: none;"><line transform="translate(0,0)" x2="400" y2="0" style="fill: none; stroke: lightgray; stroke-width: 1; opacity: 1;"></line></g></g><path class="foreground" d="" style="pointer-events: none; display: none; fill: none;"></path></g></g><g class="mark-group role-axis"><g transform="translate(0.5,0.5)"><path class="background" d="M0,0h0v0h0Z" style="pointer-events: none; fill: none;"></path><g><g class="mark-text role-axis-label" style="pointer-events: none;"><text text-anchor="end" transform="translate(-2,303)" style="font-family: Roboto Condensed; font-size: 10px; fill: #000; opacity: 1;">0</text><text text-anchor="end" transform="translate(-2,269.66666666666663)" style="font-family: Roboto Condensed; font-size: 10px; fill: #000; opacity: 1;">10,000</text><text text-anchor="end" transform="translate(-2,236.33333333333334)" style="font-family: Roboto Condensed; font-size: 10px; fill: #000; opacity: 1;">20,000</text><text text-anchor="end" transform="translate(-2,203.00000000000003)" style="font-family: Roboto Condensed; font-size: 10px; fill: #000; opacity: 1;">30,000</text><text text-anchor="end" transform="translate(-2,169.66666666666669)" style="font-family: Roboto Condensed; font-size: 10px; fill: #000; opacity: 1;">40,000</text><text text-anchor="end" transform="translate(-2,136.33333333333331)" style="font-family: Roboto Condensed; font-size: 10px; fill: #000; opacity: 1;">50,000</text><text text-anchor="end" transform="translate(-2,103.00000000000001)" style="font-family: Roboto Condensed; font-size: 10px; fill: #000; opacity: 1;">60,000</text><text text-anchor="end" transform="translate(-2,69.66666666666666)" style="font-family: Roboto Condensed; font-size: 10px; fill: #000; opacity: 1;">70,000</text><text text-anchor="end" transform="translate(-2,36.33333333333335)" style="font-family: Roboto Condensed; font-size: 10px; fill: #000; opacity: 1;">80,000</text><text text-anchor="end" transform="translate(-2,3)" style="font-family: Roboto Condensed; font-size: 10px; fill: #000; opacity: 1;">90,000</text></g><g class="mark-rule role-axis-domain" style="pointer-events: none;"><line transform="translate(0,300)" x2="0" y2="-300" style="fill: none; stroke: lightgray; stroke-width: 1; opacity: 1;"></line></g></g><path class="foreground" d="" style="pointer-events: none; display: none; fill: none;"></path></g></g><g class="mark-group role-scope concat_1_pathgroup"><g transform="translate(0,0)"><path class="background" d="M0,0h400v300h-400Z" style="fill: none;"></path><g><g class="mark-line role-mark concat_1_marks" clip-path="url(#clip7)"><path d="M-773.3333333333334,299.90666666666664L-760,299.90000000000003L-746.6666666666666,299.88L-733.3333333333333,299.87L-720,299.83666666666664L-706.6666666666666,299.8066666666667L-693.3333333333334,299.6633333333333L-680,299.6L-666.6666666666667,299.55L-653.3333333333334,299.28666666666663L-640,299.0833333333333L-626.6666666666666,298.4566666666667L-613.3333333333334,297.9533333333334L-600,297.19L-586.6666666666666,296.28333333333336L-573.3333333333334,295.08L-560,293.34L-546.6666666666666,291.34999999999997L-533.3333333333333,289.2733333333333L-520,286.9433333333333L-506.66666666666663,284.55L-493.33333333333337,283.07L-480,279.29L-466.6666666666667,273.42333333333335L-453.3333333333333,269.02000000000004L-440.00000000000006,264.17333333333335L-426.6666666666667,258.48333333333335L-413.33333333333337,252.67000000000002L-400,246.82666666666668L-386.6666666666667,239.99333333333334L-373.3333333333333,237.69L-360,224.37666666666664L-346.6666666666667,222.76666666666668L-333.33333333333337,216.7L-320,207.83333333333331L-306.6666666666667,199.82333333333332L-293.3333333333333,190.34000000000003L-280,179.03L-266.66666666666663,169.07L-253.33333333333331,159.60666666666665L-240,150.63333333333335L-226.66666666666666,141.98666666666665L-213.33333333333334,133.48333333333335L-200,125.86666666666667L-186.66666666666666,120.37333333333332L-173.33333333333334,115.07333333333334L-160,108.93333333333335L-146.66666666666666,104.21666666666665L-133.33333333333331,99.64666666666666L-120,94.52000000000001L-106.66666666666667,90.33000000000001L-93.33333333333333,86.01333333333334L-80,81.13333333333334L-66.66666666666666,76.60999999999999L-53.333333333333336,73.63333333333334L-40,70.67333333333333L-26.666666666666668,67.48333333333332L-13.333333333333334,64.88333333333334L0,62.44666666666666L13.333333333333334,60.47666666666668L26.666666666666668,58.793333333333344L40,57.26999999999999L53.333333333333336,55.753333333333345L66.66666666666666,54.11L80,52.749999999999986L93.33333333333333,50.95333333333334L106.66666666666667,49.68666666666667L120,48.08L133.33333333333331,46.94333333333335L146.66666666666666,46L160,45.33666666666668L173.33333333333334,44.78333333333332L186.66666666666666,44.133333333333326L200,43.51333333333333L213.33333333333334,42.643333333333324L226.66666666666666,42.300000000000004L240,41.966666666666654L253.33333333333331,41.44333333333332L266.66666666666663,41.07000000000001L280,40.69666666666666L293.3333333333333,40.41000000000001L306.6666666666667,40.146666666666654L320,39.870000000000005L333.33333333333337,39.33333333333332L346.6666666666667,38.963333333333324L360,38.66333333333333L373.3333333333333,41.49333333333335L386.6666666666667,41.28666666666666L400,41.03333333333333" style="fill: none; stroke: #e45756; stroke-width: 2; opacity: 0.7;"></path></g></g><path class="foreground" d="" style="display: none; fill: none;"></path></g><g transform="translate(0,0)"><path class="background" d="M0,0h400v300h-400Z" style="fill: none;"></path><g><g class="mark-line role-mark concat_1_marks" clip-path="url(#clip8)"><path d="M-773.3333333333334,299.9433333333333L-760,299.94L-746.6666666666666,299.91333333333336L-733.3333333333333,299.86L-720,299.81333333333333L-706.6666666666666,299.7266666666667L-693.3333333333334,299.56333333333333L-680,299.5566666666667L-666.6666666666667,299.43L-653.3333333333334,299.29L-640,299.13666666666666L-626.6666666666666,298.7966666666667L-613.3333333333334,298.58333333333337L-600,298.3666666666667L-586.6666666666666,298.12666666666667L-573.3333333333334,297.8933333333333L-560,297.61L-546.6666666666666,297.32L-533.3333333333333,296.9866666666667L-520,296.63L-506.66666666666663,296.2966666666666L-493.33333333333337,296.28000000000003L-480,295.44L-466.6666666666667,294.93333333333334L-453.3333333333333,294.46000000000004L-440.00000000000006,294.1166666666667L-426.6666666666667,293.78999999999996L-413.33333333333337,293.32666666666665L-400,292.9533333333333L-386.6666666666667,292.5466666666667L-373.3333333333333,292.5466666666667L-360,291.86333333333334L-346.6666666666667,291.8566666666667L-333.33333333333337,291.3566666666667L-320,291.12333333333333L-306.6666666666667,290.95L-293.3333333333333,290.85333333333335L-280,290.70666666666665L-266.66666666666663,290.55L-253.33333333333331,290.43333333333334L-240,290.29333333333335L-226.66666666666666,290.18333333333334L-213.33333333333334,290.06333333333333L-200,289.95666666666665L-186.66666666666666,289.85999999999996L-173.33333333333334,289.76666666666665L-160,289.6766666666667L-146.66666666666666,289.6L-133.33333333333331,289.5466666666667L-120,289.4633333333333L-106.66666666666667,289.4266666666667L-93.33333333333333,289.4L-80,289.3566666666667L-66.66666666666666,289.3233333333333L-53.333333333333336,289.27666666666664L-40,289.23333333333335L-26.666666666666668,289.19666666666666L-13.333333333333334,289.17L0,289.1566666666667L13.333333333333334,289.13666666666666L26.666666666666668,289.1166666666667L40,289.0866666666667L53.333333333333336,289.06333333333333L66.66666666666666,289.05L80,289.03000000000003L93.33333333333333,289.0133333333333L106.66666666666667,289.00333333333333L120,288.9866666666667L133.33333333333331,288.97333333333336L146.66666666666666,288.97L160,288.94666666666666L173.33333333333334,288.9266666666667L186.66666666666666,288.91333333333336L200,288.9L213.33333333333334,288.89L226.66666666666666,288.8833333333333L240,288.8833333333333L253.33333333333331,288.87666666666667L266.66666666666663,288.87L280,288.8666666666667L293.3333333333333,288.8566666666667L306.6666666666667,288.8566666666667L320,288.85L333.33333333333337,288.85L346.6666666666667,288.8466666666667L360,288.8466666666667L373.3333333333333,284.5466666666667L386.6666666666667,284.5466666666667L400,284.5466666666667" style="fill: none; stroke: #f58518; stroke-width: 2; opacity: 0.7;"></path></g></g><path class="foreground" d="" style="display: none; fill: none;"></path></g><g transform="translate(0,0)"><path class="background" d="M0,0h400v300h-400Z" style="fill: none;"></path><g><g class="mark-line role-mark concat_1_marks" clip-path="url(#clip9)"><path d="M-773.3333333333334,298.1766666666667L-760,297.87L-746.6666666666666,296.94666666666666L-733.3333333333333,295.33666666666664L-720,293.12666666666667L-706.6666666666666,290.45666666666665L-693.3333333333334,281.68666666666667L-680,279.76666666666665L-666.6666666666667,272.91999999999996L-653.3333333333334,267.39L-640,260.43L-626.6666666666666,244.64333333333332L-613.3333333333334,234.35666666666668L-600,221.0666666666667L-586.6666666666666,208.63666666666666L-573.3333333333334,198.15666666666667L-560,186.41666666666666L-546.6666666666666,177.4066666666667L-533.3333333333333,167.36666666666667L-520,158.98000000000002L-506.66666666666663,152.24333333333334L-493.33333333333337,151.0033333333333L-480,100.56000000000002L-466.6666666666667,79.02666666666667L-453.3333333333333,72.17666666666666L-440.00000000000006,65.18000000000002L-426.6666666666667,58.78666666666666L-413.33333333333337,52.870000000000005L-400,51.51333333333334L-386.6666666666667,50.003333333333345L-373.3333333333333,48.42666666666668L-360,43.59333333333332L-346.6666666666667,43.54L-333.33333333333337,42.826666666666654L-320,41.13333333333332L-306.6666666666667,39.78333333333334L-293.3333333333333,38.34000000000001L-280,37.25333333333335L-266.66666666666663,35.829999999999984L-253.33333333333331,33.91333333333332L-240,33.24666666666668L-226.66666666666666,32.83000000000001L-213.33333333333334,32.42999999999999L-200,31.92666666666666L-186.66666666666666,31.423333333333325L-173.33333333333334,31.16L-160,31.003333333333337L-146.66666666666666,30.88333333333332L-133.33333333333331,30.810000000000002L-120,30.26333333333332L-106.66666666666667,30.22666666666668L-93.33333333333333,30.18333333333333L-80,30.07666666666666L-66.66666666666666,29.989999999999995L-53.333333333333336,29.890000000000004L-40,29.806666666666658L-26.666666666666668,29.659999999999997L-13.333333333333334,29.479999999999983L0,29.166666666666664L13.333333333333334,28.983333333333327L26.666666666666668,28.67666666666665L40,28.346666666666653L53.333333333333336,28.030000000000012L66.66666666666666,27.79666666666668L80,27.393333333333338L93.33333333333333,27.00999999999999L106.66666666666667,26.669999999999995L120,26.260000000000005L133.33333333333331,26.00666666666668L146.66666666666666,25.736666666666675L160,25.46333333333335L173.33333333333334,25.226666666666663L186.66666666666666,24.96333333333334L200,24.856666666666673L213.33333333333334,24.660000000000014L226.66666666666666,24.450000000000006L240,24.273333333333348L253.33333333333331,23.96999999999999L266.66666666666663,23.72333333333334L280,23.53000000000001L293.3333333333333,23.286666666666676L306.6666666666667,22.886666666666656L320,22.623333333333328L333.33333333333337,22.31333333333333L346.6666666666667,22.14666666666667L360,21.99000000000001L373.3333333333333,20.800000000000008L386.6666666666667,20.709999999999983L400,20.64999999999999" style="fill: none; stroke: #4c78a8; stroke-width: 2; opacity: 0.7;"></path></g></g><path class="foreground" d="" style="display: none; fill: none;"></path></g></g><g class="mark-group role-title"><g transform="translate(200,-22)"><path class="background" d="M0,0h0v0h0Z" style="pointer-events: none; fill: none;"></path><g><g class="mark-text role-title-text" style="pointer-events: none;"><text text-anchor="middle" transform="translate(0,10)" style="font-family: Roboto Condensed; font-size: 13px; font-weight: normal; fill: #000; opacity: 1;">Total</text></g></g><path class="foreground" d="" style="pointer-events: none; display: none; fill: none;"></path></g></g></g><path class="foreground" d="" style="display: none; fill: none;"></path></g></g><g class="mark-group role-legend"><g transform="translate(868,0)"><path class="background" d="M0,0h60v37h-60Z" style="pointer-events: none; fill: none;"></path><g><g class="mark-group role-legend-entry"><g transform="translate(0,0)"><path class="background" d="M0,0h0v0h0Z" style="pointer-events: none; fill: none;"></path><g><g class="mark-group role-scope"><g transform="translate(0,0)"><path class="background" d="M0,0h59.3251953125v11h-59.3251953125Z" style="pointer-events: none; fill: none; opacity: 1;"></path><g><g class="mark-symbol role-legend-symbol" style="pointer-events: none;"><path transform="translate(6,6)" d="M-5,0L5,0" style="fill: none; stroke: #4c78a8; stroke-width: 1.5; opacity: 1;"></path></g><g class="mark-text role-legend-label" style="pointer-events: none;"><text text-anchor="start" transform="translate(16,9)" style="font-family: Roboto Condensed; font-size: 10px; fill: #000; opacity: 1;">Confirmed</text></g></g><path class="foreground" d="" style="pointer-events: none; display: none; fill: none;"></path></g><g transform="translate(0,13)"><path class="background" d="M0,0h59.3251953125v11h-59.3251953125Z" style="pointer-events: none; fill: none; opacity: 1;"></path><g><g class="mark-symbol role-legend-symbol" style="pointer-events: none;"><path transform="translate(6,6)" d="M-5,0L5,0" style="fill: none; stroke: #f58518; stroke-width: 1.5; opacity: 1;"></path></g><g class="mark-text role-legend-label" style="pointer-events: none;"><text text-anchor="start" transform="translate(16,9)" style="font-family: Roboto Condensed; font-size: 10px; fill: #000; opacity: 1;">Deaths</text></g></g><path class="foreground" d="" style="pointer-events: none; display: none; fill: none;"></path></g><g transform="translate(0,26)"><path class="background" d="M0,0h59.3251953125v11h-59.3251953125Z" style="pointer-events: none; fill: none; opacity: 1;"></path><g><g class="mark-symbol role-legend-symbol" style="pointer-events: none;"><path transform="translate(6,6)" d="M-5,0L5,0" style="fill: none; stroke: #e45756; stroke-width: 1.5; opacity: 1;"></path></g><g class="mark-text role-legend-label" style="pointer-events: none;"><text text-anchor="start" transform="translate(16,9)" style="font-family: Roboto Condensed; font-size: 10px; fill: #000; opacity: 1;">Recovered</text></g></g><path class="foreground" d="" style="pointer-events: none; display: none; fill: none;"></path></g></g></g><path class="foreground" d="" style="pointer-events: none; display: none; fill: none;"></path></g></g></g><path class="foreground" d="" style="pointer-events: none; display: none; fill: none;"></path></g></g></g><path class="foreground" d="" style="display: none; fill: none;"></path></g></g></g></svg>