<svg class="marks" width="518" height="327" viewBox="0 0 518 327" version="1.1" xmlns="http://www.w3.org/2000/svg" xmlns:xlink="http://www.w3.org/1999/xlink"><rect width="518" height="327" style="fill: white;"></rect><defs><clipPath id="clip1"><rect x="0" y="0" width="400" height="300"></rect></clipPath><clipPath id="clip2"><rect x="0" y="0" width="400" height="300"></rect></clipPath><clipPath id="clip3"><rect x="0" y="0" width="400" height="300"></rect></clipPath><clipPath id="clip4"><rect x="0" y="0" width="400" height="300"></rect></clipPath></defs><g transform="translate(35,10)"><g class="mark-group role-frame root"><g transform="translate(0,0)"><path class="background" d="M0,0h400v300h-400Z" style="fill: none; stroke: #ddd; stroke-width: 0;"></path><g><g class="mark-group role-axis"><g transform="translate(0.5,0.5)"><path class="background" d="M0,0h0v0h0Z" style="pointer-events: none; fill: none;"></path><g><g class="mark-rule role-axis-grid" style="pointer-events: none;"><line transform="translate(0,300)" x2="400" y2="0" style="fill: none; stroke: #ddd; stroke-width: 1; opacity: 1;"></line><line transform="translate(0,267)" x2="400" y2="0" style="fill: none; stroke: #ddd; stroke-width: 1; opacity: 1;"></line><line transform="translate(0,233)" x2="400" y2="0" style="fill: none; stroke: #ddd; stroke-width: 1; opacity: 1;"></line><line transform="translate(0,200)" x2="400" y2="0" style="fill: none; stroke: #ddd; stroke-width: 1; opacity: 1;"></line><line transform="translate(0,167)" x2="400" y2="0" style="fill: none; stroke: #ddd; stroke-width: 1; opacity: 1;"></line><line transform="translate(0,133)" x2="400" y2="0" style="fill: none; stroke: #ddd; stroke-width: 1; opacity: 1;"></line><line transform="translate(0,100)" x2="400" y2="0" style="fill: none; stroke: #ddd; stroke-width: 1; opacity: 1;"></line><line transform="translate(0,67)" x2="400" y2="0" style="fill: none; stroke: #ddd; stroke-width: 1; opacity: 1;"></line><line transform="translate(0,33)" x2="400" y2="0" style="fill: none; stroke: #ddd; stroke-width: 1; opacity: 1;"></line><line transform="translate(0,0)" x2="400" y2="0" style="fill: none; stroke: #ddd; stroke-width: 1; opacity: 1;"></line></g></g><path class="foreground" d="" style="pointer-events: none; display: none; fill: none;"></path></g></g><g class="mark-group role-axis"><g transform="translate(0.5,300.5)"><path class="background" d="M0,0h0v0h0Z" style="pointer-events: none; fill: none;"></path><g><g class="mark-text role-axis-label" style="pointer-events: none;"><text text-anchor="start" transform="translate(0,10)" style="font-family: Roboto Condensed; font-size: 10px; fill: #000; opacity: 1;">Mar 11</text><text text-anchor="middle" transform="translate(24.242424242424242,10)" style="font-family: Roboto Condensed; font-size: 10px; fill: #000; opacity: 0;">Mar 13</text><text text-anchor="middle" transform="translate(48.484848484848484,10)" style="font-family: Roboto Condensed; font-size: 10px; fill: #000; opacity: 1;">Mar 15</text><text text-anchor="middle" transform="translate(72.72727272727273,10)" style="font-family: Roboto Condensed; font-size: 10px; fill: #000; opacity: 0;">Mar 17</text><text text-anchor="middle" transform="translate(96.96969696969697,10)" style="font-family: Roboto Condensed; font-size: 10px; fill: #000; opacity: 1;">Mar 19</text><text text-anchor="middle" transform="translate(121.21212121212122,10)" style="font-family: Roboto Condensed; font-size: 10px; fill: #000; opacity: 0;">Mar 21</text><text text-anchor="middle" transform="translate(145.45454545454547,10)" style="font-family: Roboto Condensed; font-size: 10px; fill: #000; opacity: 1;">Mar 23</text><text text-anchor="middle" transform="translate(169.6969696969697,10)" style="font-family: Roboto Condensed; font-size: 10px; fill: #000; opacity: 0;">Mar 25</text><text text-anchor="middle" transform="translate(193.93939393939394,10)" style="font-family: Roboto Condensed; font-size: 10px; fill: #000; opacity: 1;">Mar 27</text><text text-anchor="middle" transform="translate(218.18181818181816,10)" style="font-family: Roboto Condensed; font-size: 10px; fill: #000; opacity: 0;">Mar 29</text><text text-anchor="middle" transform="translate(242.42424242424244,10)" style="font-family: Roboto Condensed; font-size: 10px; fill: #000; opacity: 1;">Mar 31</text><text text-anchor="middle" transform="translate(254.54545454545453,10)" style="font-family: Roboto Condensed; font-size: 10px; fill: #000; opacity: 0;">Apr 01</text><text text-anchor="middle" transform="translate(278.7878787878788,10)" style="font-family: Roboto Condensed; font-size: 10px; fill: #000; opacity: 1;">Apr 03</text><text text-anchor="middle" transform="translate(303.030303030303,10)" style="font-family: Roboto Condensed; font-size: 10px; fill: #000; opacity: 0;">Apr 05</text><text text-anchor="middle" transform="translate(327.2727272727273,10)" style="font-family: Roboto Condensed; font-size: 10px; fill: #000; opacity: 1;">Apr 07</text><text text-anchor="middle" transform="translate(351.5151515151515,10)" style="font-family: Roboto Condensed; font-size: 10px; fill: #000; opacity: 0;">Apr 09</text><text text-anchor="middle" transform="translate(375.75757575757575,10)" style="font-family: Roboto Condensed; font-size: 10px; fill: #000; opacity: 1;">Apr 11</text><text text-anchor="end" transform="translate(400,10)" style="font-family: Roboto Condensed; font-size: 10px; fill: #000; opacity: 0;">Apr 13</text></g><g class="mark-rule role-axis-domain" style="pointer-events: none;"><line transform="translate(0,0)" x2="400" y2="0" style="fill: none; stroke: lightgray; stroke-width: 1; opacity: 1;"></line></g></g><path class="foreground" d="" style="pointer-events: none; display: none; fill: none;"></path></g></g><g class="mark-group role-axis"><g transform="translate(0.5,0.5)"><path class="background" d="M0,0h0v0h0Z" style="pointer-events: none; fill: none;"></path><g><g class="mark-text role-axis-label" style="pointer-events: none;"><text text-anchor="end" transform="translate(-2,303)" style="font-family: Roboto Condensed; font-size: 10px; fill: #000; opacity: 1;">0</text><text text-anchor="end" transform="translate(-2,269.66666666666663)" style="font-family: Roboto Condensed; font-size: 10px; fill: #000; opacity: 1;">10,000</text><text text-anchor="end" transform="translate(-2,236.33333333333334)" style="font-family: Roboto Condensed; font-size: 10px; fill: #000; opacity: 1;">20,000</text><text text-anchor="end" transform="translate(-2,203.00000000000003)" style="font-family: Roboto Condensed; font-size: 10px; fill: #000; opacity: 1;">30,000</text><text text-anchor="end" transform="translate(-2,169.66666666666669)" style="font-family: Roboto Condensed; font-size: 10px; fill: #000; opacity: 1;">40,000</text><text text-anchor="end" transform="translate(-2,136.33333333333331)" style="font-family: Roboto Condensed; font-size: 10px; fill: #000; opacity: 1;">50,000</text><text text-anchor="end" transform="translate(-2,103.00000000000001)" style="font-family: Roboto Condensed; font-size: 10px; fill: #000; opacity: 1;">60,000</text><text text-anchor="end" transform="translate(-2,69.66666666666666)" style="font-family: Roboto Condensed; font-size: 10px; fill: #000; opacity: 1;">70,000</text><text text-anchor="end" transform="translate(-2,36.33333333333335)" style="font-family: Roboto Condensed; font-size: 10px; fill: #000; opacity: 1;">80,000</text><text text-anchor="end" transform="translate(-2,3)" style="font-family: Roboto Condensed; font-size: 10px; fill: #000; opacity: 1;">90,000</text></g><g class="mark-rule role-axis-domain" style="pointer-events: none;"><line transform="translate(0,300)" x2="0" y2="-300" style="fill: none; stroke: lightgray; stroke-width: 1; opacity: 1;"></line></g></g><path class="foreground" d="" style="pointer-events: none; display: none; fill: none;"></path></g></g><g class="mark-group role-scope pathgroup"><g transform="translate(0,0)"><path class="background" d="M0,0h400v300h-400Z" style="fill: none;"></path><g><g class="mark-line role-mark marks" clip-path="url(#clip1)"><path d="M0,299.93666666666667L12.121212121212121,299.93666666666667L24.242424242424242,299.93666666666667L36.36363636363637,299.93666666666667L48.484848484848484,299.93666666666667L60.60606060606061,299.93L72.72727272727273,299.8233333333333L84.84848484848484,299.77666666666664L96.96969696969697,299.77666666666664L109.09090909090908,299.77666666666664L121.21212121212122,299.77666666666664L133.33333333333331,299.68333333333334L145.45454545454547,299.53333333333336L157.57575757575756,299.53333333333336L169.6969696969697,299.53333333333336L181.8181818181818,299.5L193.93939393939394,299.49666666666667L206.06060606060606,299.49666666666667L218.18181818181816,299.49666666666667L230.3030303030303,299.43L242.42424242424244,299.4033333333333L254.54545454545453,299.4033333333333L266.66666666666663,299.36L278.7878787878788,299.3066666666667L290.90909090909093,299.28333333333336L303.030303030303,299.2366666666667L315.1515151515151,299.04333333333335L327.2727272727273,298.9166666666667L339.3939393939394,298.84999999999997L351.5151515151515,298.80333333333334L363.6363636363636,298.04L375.75757575757575,297.9266666666667L387.8787878787879,297.9133333333333L400,298.9866666666667" style="fill: none; stroke: #72b7b2; stroke-width: 2; opacity: 0.7;"></path></g></g><path class="foreground" d="" style="display: none; fill: none;"></path></g><g transform="translate(0,0)"><path class="background" d="M0,0h400v300h-400Z" style="fill: none;"></path><g><g class="mark-line role-mark marks" clip-path="url(#clip2)"><path d="M0,298.56L12.121212121212121,298.56L24.242424242424242,297.41999999999996L36.36363636363637,296.3233333333333L48.484848484848484,296.32L60.60606060606061,295.08666666666664L72.72727272727273,293.83000000000004L84.84848484848484,291.65666666666664L96.96969696969697,291.63L109.09090909090908,287.43666666666667L121.21212121212122,284.11333333333334L133.33333333333331,282.12L145.45454545454547,279.1666666666667L157.57575757575756,274.66333333333336L169.6969696969697,269.88666666666666L181.8181818181818,263.06L193.93939393939394,253.89000000000001L206.06060606060606,246.2L218.18181818181816,238.67333333333332L230.3030303030303,230.43L242.42424242424244,221.63666666666668L254.54545454545453,208.90333333333334L266.66666666666663,196.48333333333332L278.7878787878788,183.76666666666665L290.90909090909093,173.52666666666664L303.030303030303,155.78666666666666L315.1515151515151,144.64333333333335L327.2727272727273,135.1566666666667L339.3939393939394,119.94000000000001L351.5151515151515,108.26666666666668L363.6363636363636,83.19L375.75757575757575,68.79999999999998L387.8787878787879,53.496666666666684L400,40.269999999999996" style="fill: none; stroke: #4c78a8; stroke-width: 2; opacity: 0.7;"></path></g></g><path class="foreground" d="" style="display: none; fill: none;"></path></g><g transform="translate(0,0)"><path class="background" d="M0,0h400v300h-400Z" style="fill: none;"></path><g><g class="mark-line role-mark marks" clip-path="url(#clip3)"><path d="M0,299.9733333333333L12.121212121212121,299.9733333333333L24.242424242424242,299.9733333333333L36.36363636363637,299.93L48.484848484848484,299.93L60.60606060606061,299.81333333333333L72.72727272727273,299.81333333333333L84.84848484848484,299.76L96.96969696969697,299.53999999999996L109.09090909090908,299.4066666666667L121.21212121212122,299.21999999999997L133.33333333333331,299.06L145.45454545454547,298.88L157.57575757575756,298.59L169.6969696969697,298.44666666666666L181.8181818181818,298.06666666666666L193.93939393939394,297.4633333333333L206.06060606060606,296.59666666666664L218.18181818181816,295.89666666666665L230.3030303030303,295.2966666666667L242.42424242424244,294.02333333333337L254.54545454545453,292.1433333333333L266.66666666666663,290.24666666666667L278.7878787878788,287.96333333333337L290.90909090909093,285.59999999999997L303.030303030303,283.5233333333333L315.1515151515151,282.05L327.2727272727273,279.43L339.3939393939394,276.2966666666667L351.5151515151515,273.3566666666667L363.6363636363636,270.0866666666667L375.75757575757575,267.0266666666667L387.8787878787879,264.57L400,262.1766666666667" style="fill: none; stroke: #e45756; stroke-width: 2; opacity: 0.7;"></path></g></g><path class="foreground" d="" style="display: none; fill: none;"></path></g><g transform="translate(0,0)"><path class="background" d="M0,0h400v300h-400Z" style="fill: none;"></path><g><g class="mark-line role-mark marks" clip-path="url(#clip4)"><path d="M0,298.47L12.121212121212121,298.47L24.242424242424242,297.33L36.36363636363637,296.19L48.484848484848484,296.18666666666667L60.60606060606061,294.83L72.72727272727273,293.46666666666664L84.84848484848484,291.1933333333333L96.96969696969697,290.94666666666666L109.09090909090908,286.62L121.21212121212122,283.11L133.33333333333331,280.86333333333334L145.45454545454547,277.58L157.57575757575756,272.7866666666667L169.6969696969697,267.8666666666667L181.8181818181818,260.62666666666667L193.93939393939394,250.85000000000002L206.06060606060606,242.29333333333332L218.18181818181816,234.0666666666667L230.3030303030303,225.15666666666667L242.42424242424244,215.0633333333333L254.54545454545453,200.45000000000002L266.66666666666663,186.09000000000003L278.7878787878788,171.03666666666666L290.90909090909093,158.41L303.030303030303,138.54666666666668L315.1515151515151,125.73666666666665L327.2727272727273,113.50333333333334L339.3939393939394,95.08666666666666L351.5151515151515,80.42666666666668L363.6363636363636,51.316666666666656L375.75757575757575,33.75333333333334L387.8787878787879,15.980000000000006L400,1.433333333333331" style="fill: none; stroke: #f58518; stroke-width: 2; opacity: 0.7;"></path></g></g><path class="foreground" d="" style="display: none; fill: none;"></path></g></g><g class="mark-group role-legend"><g transform="translate(418,0)"><path class="background" d="M0,0h60v50h-60Z" style="pointer-events: none; fill: none;"></path><g><g class="mark-group role-legend-entry"><g transform="translate(0,0)"><path class="background" d="M0,0h0v0h0Z" style="pointer-events: none; fill: none;"></path><g><g class="mark-group role-scope"><g transform="translate(0,0)"><path class="background" d="M0,0h59.3251953125v11h-59.3251953125Z" style="pointer-events: none; fill: none; opacity: 1;"></path><g><g class="mark-symbol role-legend-symbol" style="pointer-events: none;"><path transform="translate(6,6)" d="M-5,0L5,0" style="fill: none; stroke: #4c78a8; stroke-width: 1.5; opacity: 0.7;"></path></g><g class="mark-text role-legend-label" style="pointer-events: none;"><text text-anchor="start" transform="translate(16,9)" style="font-family: Roboto Condensed; font-size: 10px; fill: #000; opacity: 1;">Active</text></g></g><path class="foreground" d="" style="pointer-events: none; display: none; fill: none;"></path></g><g transform="translate(0,13)"><path class="background" d="M0,0h59.3251953125v11h-59.3251953125Z" style="pointer-events: none; fill: none; opacity: 1;"></path><g><g class="mark-symbol role-legend-symbol" style="pointer-events: none;"><path transform="translate(6,6)" d="M-5,0L5,0" style="fill: none; stroke: #f58518; stroke-width: 1.5; opacity: 0.7;"></path></g><g class="mark-text role-legend-label" style="pointer-events: none;"><text text-anchor="start" transform="translate(16,9)" style="font-family: Roboto Condensed; font-size: 10px; fill: #000; opacity: 1;">Confirmed</text></g></g><path class="foreground" d="" style="pointer-events: none; display: none; fill: none;"></path></g><g transform="translate(0,26)"><path class="background" d="M0,0h59.3251953125v11h-59.3251953125Z" style="pointer-events: none; fill: none; opacity: 1;"></path><g><g class="mark-symbol role-legend-symbol" style="pointer-events: none;"><path transform="translate(6,6)" d="M-5,0L5,0" style="fill: none; stroke: #e45756; stroke-width: 1.5; opacity: 0.7;"></path></g><g class="mark-text role-legend-label" style="pointer-events: none;"><text text-anchor="start" transform="translate(16,9)" style="font-family: Roboto Condensed; font-size: 10px; fill: #000; opacity: 1;">Deaths</text></g></g><path class="foreground" d="" style="pointer-events: none; display: none; fill: none;"></path></g><g transform="translate(0,39)"><path class="background" d="M0,0h59.3251953125v11h-59.3251953125Z" style="pointer-events: none; fill: none; opacity: 1;"></path><g><g class="mark-symbol role-legend-symbol" style="pointer-events: none;"><path transform="translate(6,6)" d="M-5,0L5,0" style="fill: none; stroke: #72b7b2; stroke-width: 1.5; opacity: 0.7;"></path></g><g class="mark-text role-legend-label" style="pointer-events: none;"><text text-anchor="start" transform="translate(16,9)" style="font-family: Roboto Condensed; font-size: 10px; fill: #000; opacity: 1;">Recovered</text></g></g><path class="foreground" d="" style="pointer-events: none; display: none; fill: none;"></path></g></g></g><path class="foreground" d="" style="pointer-events: none; display: none; fill: none;"></path></g></g></g><path class="foreground" d="" style="pointer-events: none; display: none; fill: none;"></path></g></g></g><path class="foreground" d="" style="display: none; fill: none;"></path></g></g></g></svg>