<svg class="marks" width="600" height="276" viewBox="0 0 600 276" version="1.1" xmlns="http://www.w3.org/2000/svg" xmlns:xlink="http://www.w3.org/1999/xlink"><defs><clipPath id="clip1"><rect x="0" y="0" width="200" height="200"></rect></clipPath><clipPath id="clip2"><rect x="0" y="0" width="200" height="200"></rect></clipPath><clipPath id="clip3"><rect x="0" y="0" width="200" height="200"></rect></clipPath><clipPath id="clip4"><rect x="0" y="0" width="200" height="200"></rect></clipPath><clipPath id="clip5"><rect x="0" y="0" width="200" height="200"></rect></clipPath><clipPath id="clip6"><rect x="0" y="0" width="200" height="200"></rect></clipPath><clipPath id="clip7"><rect x="0" y="0" width="200" height="200"></rect></clipPath><clipPath id="clip8"><rect x="0" y="0" width="200" height="200"></rect></clipPath><clipPath id="clip9"><rect x="0" y="0" width="200" height="200"></rect></clipPath></defs><rect width="600" height="276" fill="white"></rect><g fill="none" stroke-miterlimit="10" transform="translate(50,44)"><g class="mark-group role-frame root" role="graphics-object" aria-roledescription="group mark container"><g transform="translate(0,0)"><path class="background" aria-hidden="true" d="M0,0h0v200h0Z"></path><g><g class="mark-group role-scope concat_0_group" role="graphics-object" aria-roledescription="group mark container"><g transform="translate(0,0)"><path class="background" aria-hidden="true" d="M0,0h200v200h-200Z" stroke="#ddd" stroke-width="0"></path><g><g class="mark-group role-axis" aria-hidden="true"><g transform="translate(0.5,0.5)"><path class="background" aria-hidden="true" d="M0,0h0v0h0Z" pointer-events="none"></path><g><g class="mark-rule role-axis-grid" pointer-events="none"><line transform="translate(0,180)" x2="200" y2="0" stroke="#ddd" stroke-width="1" opacity="1"></line><line transform="translate(0,140)" x2="200" y2="0" stroke="#ddd" stroke-width="1" opacity="1"></line><line transform="translate(0,100)" x2="200" y2="0" stroke="#ddd" stroke-width="1" opacity="1"></line><line transform="translate(0,60)" x2="200" y2="0" stroke="#ddd" stroke-width="1" opacity="1"></line><line transform="translate(0,20)" x2="200" y2="0" stroke="#ddd" stroke-width="1" opacity="1"></line></g></g><path class="foreground" aria-hidden="true" d="" pointer-events="none" display="none"></path></g></g><g class="mark-group role-axis" role="graphics-symbol" aria-roledescription="axis" aria-label="X-axis titled 'Date' for a time scale with values from April 22 to May 22"><g transform="translate(0.5,200.5)"><path class="background" aria-hidden="true" d="M0,0h0v0h0Z" pointer-events="none"></path><g><g class="mark-text role-axis-label" pointer-events="none"><text text-anchor="middle" transform="translate(21.944444444444443,10)" font-family="Roboto Condensed" font-size="10px" fill="#000" opacity="1">Apr 26</text><text text-anchor="middle" transform="translate(68.61111111111111,10)" font-family="Roboto Condensed" font-size="10px" fill="#000" opacity="1">May 03</text><text text-anchor="middle" transform="translate(115.27777777777777,10)" font-family="Roboto Condensed" font-size="10px" fill="#000" opacity="1">May 10</text><text text-anchor="middle" transform="translate(161.94444444444446,10)" font-family="Roboto Condensed" font-size="10px" fill="#000" opacity="1">May 17</text></g><g class="mark-rule role-axis-domain" pointer-events="none"><line transform="translate(0,0)" x2="200" y2="0" stroke="lightgray" stroke-width="1" opacity="1"></line></g><g class="mark-text role-axis-title" pointer-events="none"><text text-anchor="middle" transform="translate(100,25)" font-family="Roboto Condensed" font-size="11px" font-weight="normal" fill="#000" opacity="1">Date</text></g></g><path class="foreground" aria-hidden="true" d="" pointer-events="none" display="none"></path></g></g><g class="mark-group role-axis" role="graphics-symbol" aria-roledescription="axis" aria-label="Y-axis titled 'Count' for a linear scale with values from -100 to 900"><g transform="translate(0.5,0.5)"><path class="background" aria-hidden="true" d="M0,0h0v0h0Z" pointer-events="none"></path><g><g class="mark-text role-axis-label" pointer-events="none"><text text-anchor="end" transform="translate(-2,183)" font-family="Roboto Condensed" font-size="10px" fill="#000" opacity="1">0</text><text text-anchor="end" transform="translate(-2,143)" font-family="Roboto Condensed" font-size="10px" fill="#000" opacity="1">200</text><text text-anchor="end" transform="translate(-2,103)" font-family="Roboto Condensed" font-size="10px" fill="#000" opacity="1">400</text><text text-anchor="end" transform="translate(-2,63.00000000000001)" font-family="Roboto Condensed" font-size="10px" fill="#000" opacity="1">600</text><text text-anchor="end" transform="translate(-2,22.999999999999996)" font-family="Roboto Condensed" font-size="10px" fill="#000" opacity="1">800</text></g><g class="mark-rule role-axis-domain" pointer-events="none"><line transform="translate(0,200)" x2="0" y2="-200" stroke="lightgray" stroke-width="1" opacity="1"></line></g><g class="mark-text role-axis-title" pointer-events="none"><text text-anchor="start" transform="translate(-45,-13)" font-family="Roboto Condensed" font-size="11px" font-weight="normal" fill="#000" opacity="1">Count</text></g></g><path class="foreground" aria-hidden="true" d="" pointer-events="none" display="none"></path></g></g><g class="mark-group role-scope concat_0_layer_0_pathgroup" role="graphics-object" aria-roledescription="group mark container"><g transform="translate(0,0)"><path class="background" aria-hidden="true" d="M0,0h200v200h-200Z"></path><g><g class="mark-line role-mark concat_0_layer_0_marks" clip-path="url(#clip1)" role="graphics-object" aria-roledescription="line mark container"><path aria-label="Type: Recovered; Date: Mar 01; Count: 0" role="graphics-symbol" aria-roledescription="line mark" d="M-351.1111111111111,180L-344.44444444444446,180L-337.77777777777777,180L-331.1111111111111,180L-324.44444444444446,180L-317.77777777777777,179.8L-311.11111111111114,180L-304.44444444444446,180L-298.05555555555554,180L-291.38888888888886,180L-284.72222222222223,180L-278.05555555555554,180L-271.3888888888889,180L-264.72222222222223,180L-258.05555555555554,180L-251.38888888888889,180L-244.72222222222223,180L-238.05555555555554,180L-231.3888888888889,180L-224.72222222222223,180L-218.05555555555554,180L-211.38888888888889,180L-204.7222222222222,180L-198.05555555555557,180L-191.38888888888889,180L-184.72222222222223,180L-178.05555555555554,180L-171.38888888888889,180L-164.72222222222223,180L-158.05555555555554,180L-151.38888888888889,180L-144.72222222222223,1.4000000000000012L-138.05555555555554,141L-131.38888888888889,159.20000000000002L-124.72222222222223,162L-118.05555555555556,171.2L-111.38888888888889,169.79999999999998L-104.72222222222223,157.4L-98.05555555555556,154L-91.38888888888889,157L-84.72222222222221,172.6L-78.05555555555556,143.6L-71.38888888888889,146.4L-64.72222222222223,157.6L-58.05555555555556,124L-51.388888888888886,133.4L-44.72222222222222,125L-38.05555555555556,106.80000000000001L-31.38888888888889,88.39999999999999L-24.72222222222222,121.2L-18.055555555555554,145.79999999999998L-11.38888888888889,102.4L-4.722222222222222,102.60000000000001L1.9444444444444444,120.6L8.61111111111111,151.6L15.277777777777779,151.4L21.944444444444443,152.8L28.61111111111111,149.2L35.27777777777778,147.6L41.94444444444444,131L48.61111111111111,144L55.27777777777778,143.4L61.94444444444444,148L68.61111111111111,160.4L75.27777777777777,159.79999999999998L81.94444444444444,138.39999999999998L88.61111111111111,140.60000000000002L95.27777777777777,136.39999999999998L101.94444444444444,136.79999999999998L108.6111111111111,146.8L115.27777777777777,155.20000000000002L121.94444444444446,157.8L128.61111111111111,129.6L135.27777777777777,163.39999999999998L141.94444444444446,151.6L148.61111111111111,149.2L155.27777777777777,150.4L161.94444444444446,156L168.61111111111111,165.20000000000002L175.27777777777777,157L181.94444444444443,156L188.61111111111111,158.6L195.27777777777777,155.8L201.94444444444443,165.60000000000002" stroke="#e45756" stroke-width="2" opacity="0.2"></path></g></g><path class="foreground" aria-hidden="true" d="" display="none"></path></g><g transform="translate(0,0)"><path class="background" aria-hidden="true" d="M0,0h200v200h-200Z"></path><g><g class="mark-line role-mark concat_0_layer_0_marks" clip-path="url(#clip2)" role="graphics-object" aria-roledescription="line mark container"><path aria-label="Type: Deaths; Date: Mar 01; Count: 0" role="graphics-symbol" aria-roledescription="line mark" d="M-351.1111111111111,180L-344.44444444444446,180L-337.77777777777777,180L-331.1111111111111,180L-324.44444444444446,180L-317.77777777777777,180L-311.11111111111114,180L-304.44444444444446,180L-298.05555555555554,180L-291.38888888888886,180L-284.72222222222223,180L-278.05555555555554,180L-271.3888888888889,180L-264.72222222222223,179.8L-258.05555555555554,179.8L-251.38888888888889,179.8L-244.72222222222223,179.8L-238.05555555555554,180L-231.3888888888889,179.6L-224.72222222222223,179.4L-218.05555555555554,179.20000000000002L-211.38888888888889,180L-204.7222222222222,177.8L-198.05555555555557,178.4L-191.38888888888889,179.6L-184.72222222222223,178.6L-178.05555555555554,177.8L-171.38888888888889,177.4L-164.72222222222223,178.6L-158.05555555555554,179L-151.38888888888889,177.4L-144.72222222222223,177.2L-138.05555555555554,176.2L-131.38888888888889,176.8L-124.72222222222223,175.6L-118.05555555555556,176.4L-111.38888888888889,178.4L-104.72222222222223,176.8L-98.05555555555556,177L-91.38888888888889,176.2L-84.72222222222221,178L-78.05555555555556,177.4L-71.38888888888889,177.4L-64.72222222222223,177.6L-58.05555555555556,177.2L-51.388888888888886,178L-44.72222222222222,177.6L-38.05555555555556,177L-31.38888888888889,178L-24.72222222222222,178.2L-18.055555555555554,178.2L-11.38888888888889,178.8L-4.722222222222222,177.2L1.9444444444444444,178L8.61111111111111,178.2L15.277777777777779,177L21.944444444444443,179.20000000000002L28.61111111111111,179L35.27777777777778,178.6L41.94444444444444,178.2L48.61111111111111,178.2L55.27777777777778,178.4L61.94444444444444,177L68.61111111111111,178.2L75.27777777777777,178.2L81.94444444444444,178L88.61111111111111,179.4L95.27777777777777,178.4L101.94444444444444,178.4L108.6111111111111,179.20000000000002L115.27777777777777,179.4L121.94444444444446,179.20000000000002L128.61111111111111,181.20000000000002L135.27777777777777,178.8L141.94444444444446,179.20000000000002L148.61111111111111,180L155.27777777777777,178.8L161.94444444444446,179.20000000000002L168.61111111111111,179.8L175.27777777777777,179.4L181.94444444444443,179.4L188.61111111111111,178.6L195.27777777777777,180L201.94444444444443,180" stroke="#f58518" stroke-width="2" opacity="0.2"></path></g></g><path class="foreground" aria-hidden="true" d="" display="none"></path></g><g transform="translate(0,0)"><path class="background" aria-hidden="true" d="M0,0h200v200h-200Z"></path><g><g class="mark-line role-mark concat_0_layer_0_marks" clip-path="url(#clip3)" role="graphics-object" aria-roledescription="line mark container"><path aria-label="Type: Confirmed; Date: Mar 01; Count: 1" role="graphics-symbol" aria-roledescription="line mark" d="M-351.1111111111111,179.8L-344.44444444444446,180L-337.77777777777777,179.6L-331.1111111111111,179.20000000000002L-324.44444444444446,180L-317.77777777777777,177.4L-311.11111111111114,180L-304.44444444444446,177.6L-298.05555555555554,169L-291.38888888888886,145.6L-284.72222222222223,144L-278.05555555555554,145.4L-271.3888888888889,142.79999999999998L-264.72222222222223,174.8L-258.05555555555554,172.6L-251.38888888888889,170L-244.72222222222223,167.4L-238.05555555555554,164L-231.3888888888889,161.20000000000002L-224.72222222222223,159.20000000000002L-218.05555555555554,165.79999999999998L-211.38888888888889,166.2L-204.7222222222222,169L-198.05555555555557,151.8L-191.38888888888889,153.4L-184.72222222222223,149.4L-178.05555555555554,146.2L-171.38888888888889,149L-164.72222222222223,141.2L-158.05555555555554,143.6L-151.38888888888889,123.4L-144.72222222222223,130.6L-138.05555555555554,124.2L-131.38888888888889,105.80000000000001L-124.72222222222223,116.00000000000001L-118.05555555555556,121.6L-111.38888888888889,117.60000000000002L-104.72222222222223,102L-98.05555555555556,113.79999999999998L-91.38888888888889,133.4L-84.72222222222221,143.2L-78.05555555555556,144.6L-71.38888888888889,144.4L-64.72222222222223,151.2L-58.05555555555556,141.4L-51.388888888888886,146L-44.72222222222222,140.39999999999998L-38.05555555555556,141.2L-31.38888888888889,146.2L-24.72222222222222,151.6L-18.055555555555554,153.8L-11.38888888888889,144L-4.722222222222222,136.60000000000002L1.9444444444444444,147.8L8.61111111111111,152.6L15.277777777777779,133L21.944444444444443,154L28.61111111111111,155.4L35.27777777777778,149.4L41.94444444444444,148.6L48.61111111111111,150L55.27777777777778,149.4L61.94444444444444,160.8L68.61111111111111,156.8L75.27777777777777,150.6L81.94444444444444,149.8L88.61111111111111,156.6L95.27777777777777,151L101.94444444444444,153L108.6111111111111,159.79999999999998L115.27777777777777,158L121.94444444444446,163.20000000000002L128.61111111111111,164.4L135.27777777777777,164.8L141.94444444444446,170.79999999999998L148.61111111111111,164.4L155.27777777777777,166.6L161.94444444444446,166.2L168.61111111111111,171.8L175.27777777777777,164.8L181.94444444444443,165.39999999999998L188.61111111111111,167L195.27777777777777,170.4L201.94444444444443,168.2" stroke="#4c78a8" stroke-width="2" opacity="0.2"></path></g></g><path class="foreground" aria-hidden="true" d="" display="none"></path></g></g><g class="mark-group role-scope concat_0_layer_1_pathgroup" role="graphics-object" aria-roledescription="group mark container"><g transform="translate(0,0)"><path class="background" aria-hidden="true" d="M0,0h200v200h-200Z"></path><g><g class="mark-line role-mark concat_0_layer_1_marks" clip-path="url(#clip4)" role="graphics-object" aria-roledescription="line mark container"><path aria-label="Type: Recovered; Date: Mar 01; Count: 0" role="graphics-symbol" aria-roledescription="line mark" d="M-311.11111111111114,179.9714285714286L-304.44444444444446,179.9714285714286L-298.05555555555554,179.9714285714286L-291.38888888888886,179.9714285714286L-284.72222222222223,179.9714285714286L-278.05555555555554,179.9714285714286L-271.3888888888889,180L-264.72222222222223,180L-258.05555555555554,180L-251.38888888888889,180L-244.72222222222223,180L-238.05555555555554,180L-231.3888888888889,180L-224.72222222222223,180L-218.05555555555554,180L-211.38888888888889,180L-204.7222222222222,180L-198.05555555555557,180L-191.38888888888889,180L-184.72222222222223,180L-178.05555555555554,180L-171.38888888888889,180L-164.72222222222223,180L-158.05555555555554,180L-151.38888888888889,180L-144.72222222222223,154.4857142857143L-138.05555555555554,148.91428571428574L-131.38888888888889,145.94285714285715L-124.72222222222223,143.37142857142857L-118.05555555555556,142.11428571428573L-111.38888888888889,140.65714285714284L-104.72222222222223,137.42857142857142L-98.05555555555556,159.22857142857143L-91.38888888888889,161.51428571428573L-84.72222222222221,163.42857142857144L-78.05555555555556,160.8L-71.38888888888889,157.25714285714284L-64.72222222222223,155.5142857142857L-58.05555555555556,150.74285714285716L-51.388888888888886,147.8L-44.72222222222222,143.22857142857143L-38.05555555555556,133.82857142857142L-31.38888888888889,125.94285714285714L-24.72222222222222,122.34285714285713L-18.055555555555554,120.65714285714284L-11.38888888888889,117.57142857142857L-4.722222222222222,113.17142857142856L1.9444444444444444,112.54285714285714L8.61111111111111,118.94285714285715L15.277777777777779,127.94285714285714L21.944444444444443,132.45714285714286L28.61111111111111,132.94285714285715L35.27777777777778,139.4L41.94444444444444,143.45714285714286L48.61111111111111,146.8L55.27777777777778,145.6285714285714L61.94444444444444,145.14285714285714L68.61111111111111,146.22857142857143L75.27777777777777,147.74285714285713L81.94444444444444,146.42857142857142L88.61111111111111,147.8L95.27777777777777,146.71428571428572L101.94444444444444,145.77142857142857L108.6111111111111,145.6L115.27777777777777,144.85714285714283L121.94444444444446,144.57142857142858L128.61111111111111,143.31428571428572L135.27777777777777,146.57142857142858L141.94444444444446,148.74285714285716L148.61111111111111,150.5142857142857L155.27777777777777,151.0285714285714L161.94444444444446,151.14285714285717L168.61111111111111,152.2L175.27777777777777,156.11428571428573L181.94444444444443,155.05714285714285L188.61111111111111,156.05714285714285L195.27777777777777,157L201.94444444444443,159.17142857142858" stroke="#e45756" stroke-width="2" opacity="1"></path></g></g><path class="foreground" aria-hidden="true" d="" display="none"></path></g><g transform="translate(0,0)"><path class="background" aria-hidden="true" d="M0,0h200v200h-200Z"></path><g><g class="mark-line role-mark concat_0_layer_1_marks" clip-path="url(#clip5)" role="graphics-object" aria-roledescription="line mark container"><path aria-label="Type: Deaths; Date: Mar 01; Count: 0" role="graphics-symbol" aria-roledescription="line mark" d="M-311.11111111111114,180L-304.44444444444446,180L-298.05555555555554,180L-291.38888888888886,180L-284.72222222222223,180L-278.05555555555554,180L-271.3888888888889,180L-264.72222222222223,179.9714285714286L-258.05555555555554,179.94285714285715L-251.38888888888889,179.9142857142857L-244.72222222222223,179.8857142857143L-238.05555555555554,179.8857142857143L-231.3888888888889,179.82857142857142L-224.72222222222223,179.74285714285713L-218.05555555555554,179.65714285714287L-211.38888888888889,179.68571428571428L-204.7222222222222,179.4L-198.05555555555557,179.20000000000002L-191.38888888888889,179.14285714285714L-184.72222222222223,179L-178.05555555555554,178.77142857142857L-171.38888888888889,178.5142857142857L-164.72222222222223,178.31428571428572L-158.05555555555554,178.4857142857143L-151.38888888888889,178.34285714285713L-144.72222222222223,178L-138.05555555555554,177.65714285714287L-131.38888888888889,177.5142857142857L-124.72222222222223,177.25714285714287L-118.05555555555556,176.94285714285712L-111.38888888888889,176.85714285714286L-104.72222222222223,176.77142857142857L-98.05555555555556,176.74285714285713L-91.38888888888889,176.74285714285713L-84.72222222222221,176.9142857142857L-78.05555555555556,177.17142857142858L-71.38888888888889,177.31428571428572L-64.72222222222223,177.2L-58.05555555555556,177.25714285714287L-51.388888888888886,177.4L-44.72222222222222,177.6L-38.05555555555556,177.45714285714286L-31.38888888888889,177.54285714285714L-24.72222222222222,177.65714285714287L-18.055555555555554,177.74285714285713L-11.38888888888889,177.9714285714286L-4.722222222222222,177.85714285714283L1.9444444444444444,177.9142857142857L8.61111111111111,178.0857142857143L15.277777777777779,177.94285714285712L21.944444444444443,178.0857142857143L28.61111111111111,178.2L35.27777777777778,178.17142857142858L41.94444444444444,178.31428571428572L48.61111111111111,178.34285714285713L55.27777777777778,178.37142857142857L61.94444444444444,178.37142857142857L68.61111111111111,178.22857142857143L75.27777777777777,178.1142857142857L81.94444444444444,178.0285714285714L88.61111111111111,178.2L95.27777777777777,178.22857142857143L101.94444444444444,178.22857142857143L108.6111111111111,178.54285714285714L115.27777777777777,178.71428571428572L121.94444444444446,178.85714285714286L128.61111111111111,179.31428571428572L135.27777777777777,179.22857142857143L141.94444444444446,179.34285714285713L148.61111111111111,179.57142857142858L155.27777777777777,179.5142857142857L161.94444444444446,179.4857142857143L168.61111111111111,179.57142857142858L175.27777777777777,179.31428571428572L181.94444444444443,179.4L188.61111111111111,179.31428571428572L195.27777777777777,179.31428571428572L201.94444444444443,179.4857142857143" stroke="#f58518" stroke-width="2" opacity="1"></path></g></g><path class="foreground" aria-hidden="true" d="" display="none"></path></g><g transform="translate(0,0)"><path class="background" aria-hidden="true" d="M0,0h200v200h-200Z"></path><g><g class="mark-line role-mark concat_0_layer_1_marks" clip-path="url(#clip6)" role="graphics-object" aria-roledescription="line mark container"><path aria-label="Type: Confirmed; Date: Mar 01; Count: 0" role="graphics-symbol" aria-roledescription="line mark" d="M-311.11111111111114,179.42857142857142L-304.44444444444446,179.11428571428573L-298.05555555555554,177.54285714285714L-291.38888888888886,172.68571428571428L-284.72222222222223,167.65714285714287L-278.05555555555554,162.71428571428572L-271.3888888888889,157.77142857142857L-264.72222222222223,157.02857142857144L-258.05555555555554,156.31428571428572L-251.38888888888889,156.45714285714286L-244.72222222222223,159.57142857142856L-238.05555555555554,162.42857142857144L-231.3888888888889,164.68571428571428L-224.72222222222223,167.02857142857144L-218.05555555555554,165.74285714285713L-211.38888888888889,164.82857142857142L-204.7222222222222,164.68571428571428L-198.05555555555557,162.45714285714286L-191.38888888888889,160.94285714285715L-184.72222222222223,159.25714285714287L-178.05555555555554,157.4L-171.38888888888889,155L-164.72222222222223,151.42857142857142L-158.05555555555554,147.8L-151.38888888888889,143.74285714285716L-144.72222222222223,140.48571428571427L-138.05555555555554,136.88571428571427L-131.38888888888889,131.11428571428573L-124.72222222222223,126.4L-118.05555555555556,123.6L-111.38888888888889,119.88571428571429L-104.72222222222223,116.82857142857144L-98.05555555555556,114.42857142857143L-91.38888888888889,115.74285714285715L-84.72222222222221,121.08571428571429L-78.05555555555556,125.17142857142858L-71.38888888888889,128.42857142857142L-64.72222222222223,133.22857142857143L-58.05555555555556,138.85714285714286L-51.388888888888886,143.45714285714286L-44.72222222222222,144.45714285714283L-38.05555555555556,144.17142857142858L-31.38888888888889,144.4L-24.72222222222222,145.42857142857142L-18.055555555555554,145.79999999999998L-11.38888888888889,146.17142857142858L-4.722222222222222,144.82857142857142L1.9444444444444444,145.88571428571427L8.61111111111111,147.5142857142857L15.277777777777779,145.6285714285714L21.944444444444443,145.97142857142856L28.61111111111111,146.2L35.27777777777778,146.9714285714286L41.94444444444444,148.68571428571428L48.61111111111111,149L55.27777777777778,148.54285714285714L61.94444444444444,152.5142857142857L68.61111111111111,152.9142857142857L75.27777777777777,152.22857142857143L81.94444444444444,152.28571428571428L88.61111111111111,153.42857142857142L95.27777777777777,153.57142857142856L101.94444444444444,154.0857142857143L108.6111111111111,153.94285714285715L115.27777777777777,154.11428571428573L121.94444444444446,155.9142857142857L128.61111111111111,158L135.27777777777777,159.17142857142858L141.94444444444446,162L148.61111111111111,163.62857142857143L155.27777777777777,164.6L161.94444444444446,165.77142857142857L168.61111111111111,167L175.27777777777777,167.05714285714285L181.94444444444443,167.14285714285714L188.61111111111111,166.6L195.27777777777777,167.45714285714286L201.94444444444443,167.68571428571428" stroke="#4c78a8" stroke-width="2" opacity="1"></path></g></g><path class="foreground" aria-hidden="true" d="" display="none"></path></g></g><g class="mark-group role-title"><g transform="translate(100,-39)"><path class="background" aria-hidden="true" d="M0,0h0v0h0Z" pointer-events="none"></path><g><g class="mark-text role-title-text" role="graphics-symbol" aria-roledescription="title" aria-label="Title text '7-day average (Daily values in light color)'" pointer-events="none"><text text-anchor="middle" transform="translate(0,10)" font-family="Roboto Condensed" font-size="13px" font-weight="normal" fill="#000" opacity="1">7-day average (Daily values in light color)</text></g></g><path class="foreground" aria-hidden="true" d="" pointer-events="none" display="none"></path></g></g></g><path class="foreground" aria-hidden="true" d="" display="none"></path></g></g><g class="mark-group role-scope concat_1_group" role="graphics-object" aria-roledescription="group mark container"><g transform="translate(269,0)"><path class="background" aria-hidden="true" d="M0,0h200v200h-200Z" stroke="#ddd" stroke-width="0"></path><g><g class="mark-group role-axis" aria-hidden="true"><g transform="translate(0.5,0.5)"><path class="background" aria-hidden="true" d="M0,0h0v0h0Z" pointer-events="none"></path><g><g class="mark-rule role-axis-grid" pointer-events="none"><line transform="translate(0,200)" x2="200" y2="0" stroke="#ddd" stroke-width="1" opacity="1"></line><line transform="translate(0,167)" x2="200" y2="0" stroke="#ddd" stroke-width="1" opacity="1"></line><line transform="translate(0,133)" x2="200" y2="0" stroke="#ddd" stroke-width="1" opacity="1"></line><line transform="translate(0,100)" x2="200" y2="0" stroke="#ddd" stroke-width="1" opacity="1"></line><line transform="translate(0,67)" x2="200" y2="0" stroke="#ddd" stroke-width="1" opacity="1"></line><line transform="translate(0,33)" x2="200" y2="0" stroke="#ddd" stroke-width="1" opacity="1"></line><line transform="translate(0,0)" x2="200" y2="0" stroke="#ddd" stroke-width="1" opacity="1"></line></g></g><path class="foreground" aria-hidden="true" d="" pointer-events="none" display="none"></path></g></g><g class="mark-group role-axis" role="graphics-symbol" aria-roledescription="axis" aria-label="X-axis titled 'Date' for a time scale with values from April 22 to May 22"><g transform="translate(0.5,200.5)"><path class="background" aria-hidden="true" d="M0,0h0v0h0Z" pointer-events="none"></path><g><g class="mark-text role-axis-label" pointer-events="none"><text text-anchor="middle" transform="translate(21.944444444444443,10)" font-family="Roboto Condensed" font-size="10px" fill="#000" opacity="1">Apr 26</text><text text-anchor="middle" transform="translate(68.61111111111111,10)" font-family="Roboto Condensed" font-size="10px" fill="#000" opacity="1">May 03</text><text text-anchor="middle" transform="translate(115.27777777777777,10)" font-family="Roboto Condensed" font-size="10px" fill="#000" opacity="1">May 10</text><text text-anchor="middle" transform="translate(161.94444444444446,10)" font-family="Roboto Condensed" font-size="10px" fill="#000" opacity="1">May 17</text></g><g class="mark-rule role-axis-domain" pointer-events="none"><line transform="translate(0,0)" x2="200" y2="0" stroke="lightgray" stroke-width="1" opacity="1"></line></g><g class="mark-text role-axis-title" pointer-events="none"><text text-anchor="middle" transform="translate(100,25)" font-family="Roboto Condensed" font-size="11px" font-weight="normal" fill="#000" opacity="1">Date</text></g></g><path class="foreground" aria-hidden="true" d="" pointer-events="none" display="none"></path></g></g><g class="mark-group role-axis" role="graphics-symbol" aria-roledescription="axis" aria-label="Y-axis titled 'Count' for a linear scale with values from 0 to 12,000"><g transform="translate(0.5,0.5)"><path class="background" aria-hidden="true" d="M0,0h0v0h0Z" pointer-events="none"></path><g><g class="mark-text role-axis-label" pointer-events="none"><text text-anchor="end" transform="translate(-2,203)" font-family="Roboto Condensed" font-size="10px" fill="#000" opacity="1">0</text><text text-anchor="end" transform="translate(-2,169.66666666666669)" font-family="Roboto Condensed" font-size="10px" fill="#000" opacity="1">2,000</text><text text-anchor="end" transform="translate(-2,136.33333333333334)" font-family="Roboto Condensed" font-size="10px" fill="#000" opacity="1">4,000</text><text text-anchor="end" transform="translate(-2,103)" font-family="Roboto Condensed" font-size="10px" fill="#000" opacity="1">6,000</text><text text-anchor="end" transform="translate(-2,69.66666666666667)" font-family="Roboto Condensed" font-size="10px" fill="#000" opacity="1">8,000</text><text text-anchor="end" transform="translate(-2,36.33333333333333)" font-family="Roboto Condensed" font-size="10px" fill="#000" opacity="1">10,000</text><text text-anchor="end" transform="translate(-2,3)" font-family="Roboto Condensed" font-size="10px" fill="#000" opacity="1">12,000</text></g><g class="mark-rule role-axis-domain" pointer-events="none"><line transform="translate(0,200)" x2="0" y2="-200" stroke="lightgray" stroke-width="1" opacity="1"></line></g><g class="mark-text role-axis-title" pointer-events="none"><text text-anchor="start" transform="translate(-45,-13)" font-family="Roboto Condensed" font-size="11px" font-weight="normal" fill="#000" opacity="1">Count</text></g></g><path class="foreground" aria-hidden="true" d="" pointer-events="none" display="none"></path></g></g><g class="mark-group role-scope concat_1_pathgroup" role="graphics-object" aria-roledescription="group mark container"><g transform="translate(0,0)"><path class="background" aria-hidden="true" d="M0,0h200v200h-200Z"></path><g><g class="mark-line role-mark concat_1_marks" clip-path="url(#clip7)" role="graphics-object" aria-roledescription="line mark container"><path aria-label="Type: Recovered; Date: Mar 01; Country: Denmark; Confirmed: 4; Recovered: 0; Deaths: 0; Count: 0" role="graphics-symbol" aria-roledescription="line mark" d="M-351.1111111111111,200L-344.44444444444446,200L-337.77777777777777,200L-331.1111111111111,200L-324.44444444444446,200L-317.77777777777777,199.98333333333335L-311.11111111111114,199.98333333333335L-304.44444444444446,199.98333333333335L-298.05555555555554,199.98333333333335L-291.38888888888886,199.98333333333335L-284.72222222222223,199.98333333333335L-278.05555555555554,199.98333333333335L-271.3888888888889,199.98333333333335L-264.72222222222223,199.98333333333335L-258.05555555555554,199.98333333333335L-251.38888888888889,199.98333333333335L-244.72222222222223,199.98333333333335L-238.05555555555554,199.98333333333335L-231.3888888888889,199.98333333333335L-224.72222222222223,199.98333333333335L-218.05555555555554,199.98333333333335L-211.38888888888889,199.98333333333335L-204.7222222222222,199.98333333333335L-198.05555555555557,199.98333333333335L-191.38888888888889,199.98333333333335L-184.72222222222223,199.98333333333335L-178.05555555555554,199.98333333333335L-171.38888888888889,199.98333333333335L-164.72222222222223,199.98333333333335L-158.05555555555554,199.98333333333335L-151.38888888888889,199.98333333333335L-144.72222222222223,185.1L-138.05555555555554,181.85L-131.38888888888889,180.11666666666665L-124.72222222222223,178.61666666666667L-118.05555555555556,177.88333333333333L-111.38888888888889,177.03333333333333L-104.72222222222223,175.15L-98.05555555555556,172.98333333333332L-91.38888888888889,171.06666666666666L-84.72222222222221,170.45L-78.05555555555556,167.41666666666669L-71.38888888888889,164.61666666666667L-64.72222222222223,162.75L-58.05555555555556,158.08333333333334L-51.388888888888886,154.20000000000002L-44.72222222222222,149.61666666666667L-38.05555555555556,143.51666666666668L-31.38888888888889,135.88333333333333L-24.72222222222222,130.98333333333332L-18.055555555555554,128.13333333333335L-11.38888888888889,121.66666666666669L-4.722222222222222,115.21666666666665L1.9444444444444444,110.26666666666667L8.61111111111111,107.89999999999999L15.277777777777779,105.51666666666665L21.944444444444443,103.25L28.61111111111111,100.68333333333332L35.27777777777778,97.98333333333333L41.94444444444444,93.9L48.61111111111111,90.9L55.27777777777778,87.85000000000001L61.94444444444444,85.18333333333334L68.61111111111111,83.55L75.27777777777777,81.86666666666666L81.94444444444444,78.4L88.61111111111111,75.11666666666667L95.27777777777777,71.48333333333335L101.94444444444444,67.88333333333334L108.6111111111111,65.11666666666667L115.27777777777777,63.050000000000004L121.94444444444446,61.20000000000001L128.61111111111111,57.00000000000001L135.27777777777777,55.61666666666667L141.94444444444446,53.25L148.61111111111111,50.68333333333332L155.27777777777777,48.21666666666666L161.94444444444446,46.21666666666666L168.61111111111111,44.983333333333334L175.27777777777777,43.06666666666668L181.94444444444443,41.06666666666668L188.61111111111111,39.28333333333334L195.27777777777777,37.26666666666667L201.94444444444443,36.06666666666667" stroke="#e45756" stroke-width="2" opacity="0.7"></path></g></g><path class="foreground" aria-hidden="true" d="" display="none"></path></g><g transform="translate(0,0)"><path class="background" aria-hidden="true" d="M0,0h200v200h-200Z"></path><g><g class="mark-line role-mark concat_1_marks" clip-path="url(#clip8)" role="graphics-object" aria-roledescription="line mark container"><path aria-label="Type: Deaths; Date: Mar 01; Country: Denmark; Confirmed: 4; Recovered: 0; Deaths: 0; Count: 0" role="graphics-symbol" aria-roledescription="line mark" d="M-351.1111111111111,200L-344.44444444444446,200L-337.77777777777777,200L-331.1111111111111,200L-324.44444444444446,200L-317.77777777777777,200L-311.11111111111114,200L-304.44444444444446,200L-298.05555555555554,200L-291.38888888888886,200L-284.72222222222223,200L-278.05555555555554,200L-271.3888888888889,200L-264.72222222222223,199.98333333333335L-258.05555555555554,199.96666666666667L-251.38888888888889,199.95000000000002L-244.72222222222223,199.93333333333334L-238.05555555555554,199.93333333333334L-231.3888888888889,199.9L-224.72222222222223,199.85L-218.05555555555554,199.78333333333333L-211.38888888888889,199.78333333333333L-204.7222222222222,199.6L-198.05555555555557,199.46666666666667L-191.38888888888889,199.43333333333334L-184.72222222222223,199.31666666666666L-178.05555555555554,199.13333333333333L-171.38888888888889,198.91666666666669L-164.72222222222223,198.8L-158.05555555555554,198.71666666666667L-151.38888888888889,198.5L-144.72222222222223,198.26666666666665L-138.05555555555554,197.95000000000002L-131.38888888888889,197.68333333333334L-124.72222222222223,197.31666666666666L-118.05555555555556,197.01666666666665L-111.38888888888889,196.88333333333335L-104.72222222222223,196.61666666666667L-98.05555555555556,196.36666666666667L-91.38888888888889,196.04999999999998L-84.72222222222221,195.88333333333335L-78.05555555555556,195.66666666666666L-71.38888888888889,195.45L-64.72222222222223,195.25L-58.05555555555556,195.01666666666665L-51.388888888888886,194.85L-44.72222222222222,194.64999999999998L-38.05555555555556,194.4L-31.38888888888889,194.23333333333332L-24.72222222222222,194.08333333333334L-18.055555555555554,193.93333333333334L-11.38888888888889,193.83333333333331L-4.722222222222222,193.6L1.9444444444444444,193.43333333333334L8.61111111111111,193.28333333333333L15.277777777777779,193.03333333333333L21.944444444444443,192.96666666666667L28.61111111111111,192.88333333333333L35.27777777777778,192.76666666666665L41.94444444444444,192.61666666666665L48.61111111111111,192.46666666666667L55.27777777777778,192.33333333333334L61.94444444444444,192.08333333333334L68.61111111111111,191.93333333333334L75.27777777777777,191.78333333333333L81.94444444444444,191.61666666666665L88.61111111111111,191.56666666666666L95.27777777777777,191.43333333333334L101.94444444444444,191.3L108.6111111111111,191.23333333333332L115.27777777777777,191.18333333333334L121.94444444444446,191.11666666666667L128.61111111111111,191.21666666666667L135.27777777777777,191.11666666666667L141.94444444444446,191.05L148.61111111111111,191.05L155.27777777777777,190.95L161.94444444444446,190.88333333333333L168.61111111111111,190.86666666666667L175.27777777777777,190.81666666666666L181.94444444444443,190.76666666666665L188.61111111111111,190.65L195.27777777777777,190.65L201.94444444444443,190.65" stroke="#f58518" stroke-width="2" opacity="0.7"></path></g></g><path class="foreground" aria-hidden="true" d="" display="none"></path></g><g transform="translate(0,0)"><path class="background" aria-hidden="true" d="M0,0h200v200h-200Z"></path><g><g class="mark-line role-mark concat_1_marks" clip-path="url(#clip9)" role="graphics-object" aria-roledescription="line mark container"><path aria-label="Type: Confirmed; Date: Mar 01; Country: Denmark; Confirmed: 4; Recovered: 0; Deaths: 0; Count: 4" role="graphics-symbol" aria-roledescription="line mark" d="M-351.1111111111111,199.93333333333334L-344.44444444444446,199.93333333333334L-337.77777777777777,199.9L-331.1111111111111,199.83333333333334L-324.44444444444446,199.83333333333334L-317.77777777777777,199.61666666666667L-311.11111111111114,199.61666666666667L-304.44444444444446,199.41666666666666L-298.05555555555554,198.5L-291.38888888888886,195.63333333333333L-284.72222222222223,192.63333333333333L-278.05555555555554,189.75L-271.3888888888889,186.65L-264.72222222222223,186.21666666666667L-258.05555555555554,185.60000000000002L-251.38888888888889,184.76666666666665L-244.72222222222223,183.71666666666667L-238.05555555555554,182.38333333333335L-231.3888888888889,180.81666666666666L-224.72222222222223,179.08333333333331L-218.05555555555554,177.89999999999998L-211.38888888888889,176.75L-204.7222222222222,175.83333333333334L-198.05555555555557,173.48333333333335L-191.38888888888889,171.26666666666668L-184.72222222222223,168.71666666666667L-178.05555555555554,165.9L-171.38888888888889,163.31666666666666L-164.72222222222223,160.08333333333334L-158.05555555555554,157.05L-151.38888888888889,152.33333333333334L-144.72222222222223,148.21666666666667L-138.05555555555554,143.56666666666666L-131.38888888888889,137.38333333333333L-124.72222222222223,132.05L-118.05555555555556,127.18333333333334L-111.38888888888889,121.98333333333333L-104.72222222222223,115.48333333333333L-98.05555555555556,109.96666666666668L-91.38888888888889,106.08333333333333L-84.72222222222221,103.01666666666667L-78.05555555555556,100.06666666666666L-71.38888888888889,97.10000000000001L-64.72222222222223,94.7L-58.05555555555556,91.48333333333333L-51.388888888888886,88.65L-44.72222222222222,85.35L-38.05555555555556,82.11666666666666L-31.38888888888889,79.3L-24.72222222222222,76.93333333333334L-18.055555555555554,74.75L-11.38888888888889,71.75L-4.722222222222222,68.13333333333334L1.9444444444444444,65.45L8.61111111111111,63.16666666666666L15.277777777777779,59.25L21.944444444444443,57.08333333333333L28.61111111111111,55.03333333333333L35.27777777777778,52.48333333333333L41.94444444444444,49.86666666666666L48.61111111111111,47.36666666666667L55.27777777777778,44.81666666666666L61.94444444444444,43.21666666666666L68.61111111111111,41.28333333333334L75.27777777777777,38.83333333333334L81.94444444444444,36.31666666666666L88.61111111111111,34.36666666666666L95.27777777777777,31.94999999999999L101.94444444444444,29.699999999999992L108.6111111111111,28.016666666666666L115.27777777777777,26.183333333333337L121.94444444444446,24.783333333333335L128.61111111111111,23.483333333333324L135.27777777777777,22.21666666666666L141.94444444444446,21.449999999999992L148.61111111111111,20.150000000000002L155.27777777777777,19.033333333333324L161.94444444444446,17.88333333333334L168.61111111111111,17.199999999999992L175.27777777777777,15.933333333333334L181.94444444444443,14.716666666666667L188.61111111111111,13.633333333333342L195.27777777777777,12.833333333333341L201.94444444444443,11.850000000000005" stroke="#4c78a8" stroke-width="2" opacity="0.7"></path></g></g><path class="foreground" aria-hidden="true" d="" display="none"></path></g></g><g class="mark-group role-title"><g transform="translate(100,-39)"><path class="background" aria-hidden="true" d="M0,0h0v0h0Z" pointer-events="none"></path><g><g class="mark-text role-title-text" role="graphics-symbol" aria-roledescription="title" aria-label="Title text 'Total'" pointer-events="none"><text text-anchor="middle" transform="translate(0,10)" font-family="Roboto Condensed" font-size="13px" font-weight="normal" fill="#000" opacity="1">Total</text></g></g><path class="foreground" aria-hidden="true" d="" pointer-events="none" display="none"></path></g></g></g><path class="foreground" aria-hidden="true" d="" display="none"></path></g></g><g class="mark-group role-legend" role="graphics-symbol" aria-roledescription="legend" aria-label="Symbol legend for stroke color with 3 values: Confirmed, Deaths, Recovered"><g transform="translate(487,0)"><path class="background" aria-hidden="true" d="M0,0h58v37h-58Z" pointer-events="none"></path><g><g class="mark-group role-legend-entry"><g transform="translate(0,0)"><path class="background" aria-hidden="true" d="M0,0h0v0h0Z" pointer-events="none"></path><g><g class="mark-group role-scope" role="graphics-object" aria-roledescription="group mark container"><g transform="translate(0,0)"><path class="background" aria-hidden="true" d="M0,0h58v11h-58Z" pointer-events="none" opacity="1"></path><g><g class="mark-symbol role-legend-symbol" pointer-events="none"><path transform="translate(6,6)" d="M-5,0L5,0" stroke="#4c78a8" stroke-width="1.5" opacity="0.2"></path></g><g class="mark-text role-legend-label" pointer-events="none"><text text-anchor="start" transform="translate(16,9)" font-family="Roboto Condensed" font-size="10px" fill="#000" opacity="1">Confirmed</text></g></g><path class="foreground" aria-hidden="true" d="" pointer-events="none" display="none"></path></g><g transform="translate(0,13)"><path class="background" aria-hidden="true" d="M0,0h58v11h-58Z" pointer-events="none" opacity="1"></path><g><g class="mark-symbol role-legend-symbol" pointer-events="none"><path transform="translate(6,6)" d="M-5,0L5,0" stroke="#f58518" stroke-width="1.5" opacity="0.2"></path></g><g class="mark-text role-legend-label" pointer-events="none"><text text-anchor="start" transform="translate(16,9)" font-family="Roboto Condensed" font-size="10px" fill="#000" opacity="1">Deaths</text></g></g><path class="foreground" aria-hidden="true" d="" pointer-events="none" display="none"></path></g><g transform="translate(0,26)"><path class="background" aria-hidden="true" d="M0,0h58v11h-58Z" pointer-events="none" opacity="1"></path><g><g class="mark-symbol role-legend-symbol" pointer-events="none"><path transform="translate(6,6)" d="M-5,0L5,0" stroke="#e45756" stroke-width="1.5" opacity="0.2"></path></g><g class="mark-text role-legend-label" pointer-events="none"><text text-anchor="start" transform="translate(16,9)" font-family="Roboto Condensed" font-size="10px" fill="#000" opacity="1">Recovered</text></g></g><path class="foreground" aria-hidden="true" d="" pointer-events="none" display="none"></path></g></g></g><path class="foreground" aria-hidden="true" d="" pointer-events="none" display="none"></path></g></g></g><path class="foreground" aria-hidden="true" d="" pointer-events="none" display="none"></path></g></g></g><path class="foreground" aria-hidden="true" d="" display="none"></path></g></g></g></svg>