<svg class="marks" width="996" height="491" viewBox="0 0 996 491" version="1.1" xmlns="http://www.w3.org/2000/svg" xmlns:xlink="http://www.w3.org/1999/xlink"><defs><clipPath id="clip1"><rect x="0" y="0" width="400" height="400"></rect></clipPath><clipPath id="clip2"><rect x="0" y="0" width="400" height="400"></rect></clipPath><clipPath id="clip3"><rect x="0" y="0" width="400" height="400"></rect></clipPath><clipPath id="clip4"><rect x="0" y="0" width="400" height="400"></rect></clipPath><clipPath id="clip5"><rect x="0" y="0" width="400" height="400"></rect></clipPath><clipPath id="clip6"><rect x="0" y="0" width="400" height="400"></rect></clipPath><clipPath id="clip7"><rect x="0" y="0" width="400" height="400"></rect></clipPath><clipPath id="clip8"><rect x="0" y="0" width="400" height="400"></rect></clipPath><clipPath id="clip9"><rect x="0" y="0" width="400" height="400"></rect></clipPath></defs><rect width="996" height="491" fill="white"></rect><g fill="none" stroke-miterlimit="10" transform="translate(50,59)"><g class="mark-group role-frame root" role="graphics-object" aria-roledescription="group mark container"><g transform="translate(0,0)"><path class="background" aria-hidden="true" d="M0,0h0v400h0Z"></path><g><g class="mark-group role-scope concat_0_group" role="graphics-object" aria-roledescription="group mark container"><g transform="translate(0,0)"><path class="background" aria-hidden="true" d="M0,0h400v400h-400Z" stroke="#ddd" stroke-width="0"></path><g><g class="mark-group role-axis" aria-hidden="true"><g transform="translate(0.5,0.5)"><path class="background" aria-hidden="true" d="M0,0h0v0h0Z" pointer-events="none"></path><g><g class="mark-rule role-axis-grid" pointer-events="none"><line transform="translate(0,400)" x2="400" y2="0" stroke="#ddd" stroke-width="1" opacity="1"></line><line transform="translate(0,360)" x2="400" y2="0" stroke="#ddd" stroke-width="1" opacity="1"></line><line transform="translate(0,320)" x2="400" y2="0" stroke="#ddd" stroke-width="1" opacity="1"></line><line transform="translate(0,280)" x2="400" y2="0" stroke="#ddd" stroke-width="1" opacity="1"></line><line transform="translate(0,240)" x2="400" y2="0" stroke="#ddd" stroke-width="1" opacity="1"></line><line transform="translate(0,200)" x2="400" y2="0" stroke="#ddd" stroke-width="1" opacity="1"></line><line transform="translate(0,160)" x2="400" y2="0" stroke="#ddd" stroke-width="1" opacity="1"></line><line transform="translate(0,120)" x2="400" y2="0" stroke="#ddd" stroke-width="1" opacity="1"></line><line transform="translate(0,80)" x2="400" y2="0" stroke="#ddd" stroke-width="1" opacity="1"></line><line transform="translate(0,40)" x2="400" y2="0" stroke="#ddd" stroke-width="1" opacity="1"></line><line transform="translate(0,0)" x2="400" y2="0" stroke="#ddd" stroke-width="1" opacity="1"></line></g></g><path class="foreground" aria-hidden="true" d="" pointer-events="none" display="none"></path></g></g><g class="mark-group role-axis" role="graphics-symbol" aria-roledescription="axis" aria-label="X-axis titled 'Date' for a time scale with values from September 11 to September 26"><g transform="translate(0.5,400.5)"><path class="background" aria-hidden="true" d="M0,0h0v0h0Z" pointer-events="none"></path><g><g class="mark-text role-axis-label" pointer-events="none"><text text-anchor="middle" transform="translate(34.44444444444444,10)" font-family="Roboto Condensed" font-size="10px" fill="#000" opacity="1">Sep 13</text><text text-anchor="middle" transform="translate(87.77777777777777,10)" font-family="Roboto Condensed" font-size="10px" fill="#000" opacity="1">Sep 15</text><text text-anchor="middle" transform="translate(141.11111111111111,10)" font-family="Roboto Condensed" font-size="10px" fill="#000" opacity="1">Sep 17</text><text text-anchor="middle" transform="translate(194.44444444444443,10)" font-family="Roboto Condensed" font-size="10px" fill="#000" opacity="1">Sep 19</text><text text-anchor="middle" transform="translate(247.77777777777777,10)" font-family="Roboto Condensed" font-size="10px" fill="#000" opacity="1">Sep 21</text><text text-anchor="middle" transform="translate(301.1111111111111,10)" font-family="Roboto Condensed" font-size="10px" fill="#000" opacity="1">Sep 23</text><text text-anchor="middle" transform="translate(354.44444444444446,10)" font-family="Roboto Condensed" font-size="10px" fill="#000" opacity="1">Sep 25</text></g><g class="mark-rule role-axis-domain" pointer-events="none"><line transform="translate(0,0)" x2="400" y2="0" stroke="lightgray" stroke-width="1" opacity="1"></line></g><g class="mark-text role-axis-title" pointer-events="none"><text text-anchor="middle" transform="translate(200,25)" font-family="Roboto Condensed" font-size="11px" font-weight="normal" fill="#000" opacity="1">Date</text></g></g><path class="foreground" aria-hidden="true" d="" pointer-events="none" display="none"></path></g></g><g class="mark-group role-axis" role="graphics-symbol" aria-roledescription="axis" aria-label="Y-axis titled 'Count' for a linear scale with values from -200 to 1,800"><g transform="translate(0.5,0.5)"><path class="background" aria-hidden="true" d="M0,0h0v0h0Z" pointer-events="none"></path><g><g class="mark-text role-axis-label" pointer-events="none"><text text-anchor="end" transform="translate(-2,403)" font-family="Roboto Condensed" font-size="10px" fill="#000" opacity="1">-200</text><text text-anchor="end" transform="translate(-2,363)" font-family="Roboto Condensed" font-size="10px" fill="#000" opacity="1">0</text><text text-anchor="end" transform="translate(-2,323)" font-family="Roboto Condensed" font-size="10px" fill="#000" opacity="1">200</text><text text-anchor="end" transform="translate(-2,283)" font-family="Roboto Condensed" font-size="10px" fill="#000" opacity="1">400</text><text text-anchor="end" transform="translate(-2,243)" font-family="Roboto Condensed" font-size="10px" fill="#000" opacity="1">600</text><text text-anchor="end" transform="translate(-2,203)" font-family="Roboto Condensed" font-size="10px" fill="#000" opacity="1">800</text><text text-anchor="end" transform="translate(-2,163)" font-family="Roboto Condensed" font-size="10px" fill="#000" opacity="1">1,000</text><text text-anchor="end" transform="translate(-2,123.00000000000001)" font-family="Roboto Condensed" font-size="10px" fill="#000" opacity="1">1,200</text><text text-anchor="end" transform="translate(-2,82.99999999999999)" font-family="Roboto Condensed" font-size="10px" fill="#000" opacity="1">1,400</text><text text-anchor="end" transform="translate(-2,42.99999999999999)" font-family="Roboto Condensed" font-size="10px" fill="#000" opacity="1">1,600</text><text text-anchor="end" transform="translate(-2,3)" font-family="Roboto Condensed" font-size="10px" fill="#000" opacity="1">1,800</text></g><g class="mark-rule role-axis-domain" pointer-events="none"><line transform="translate(0,400)" x2="0" y2="-400" stroke="lightgray" stroke-width="1" opacity="1"></line></g><g class="mark-text role-axis-title" pointer-events="none"><text text-anchor="start" transform="translate(-45,-13)" font-family="Roboto Condensed" font-size="11px" font-weight="normal" fill="#000" opacity="1">Count</text></g></g><path class="foreground" aria-hidden="true" d="" pointer-events="none" display="none"></path></g></g><g class="mark-group role-scope concat_0_layer_0_pathgroup" role="graphics-object" aria-roledescription="group mark container"><g transform="translate(0,0)"><path class="background" aria-hidden="true" d="M0,0h400v400h-400Z"></path><g><g class="mark-line role-mark concat_0_layer_0_marks" clip-path="url(#clip1)" role="graphics-object" aria-roledescription="line mark container"><path aria-label="Type: Recovered; Date: Mar 01; Count: 0" role="graphics-symbol" aria-roledescription="line mark" d="M-5191.111111111111,360L-5164.444444444444,360L-5137.777777777778,360L-5111.111111111111,360L-5084.444444444444,360L-5057.777777777777,360L-5031.111111111111,360L-5004.444444444444,360L-4978.888888888889,360L-4952.222222222223,360L-4925.555555555556,360L-4898.888888888889,360L-4872.222222222222,360L-4845.555555555556,360L-4818.888888888889,360L-4792.222222222223,360L-4765.555555555556,360L-4738.888888888889,360L-4712.222222222222,360L-4685.555555555556,360L-4658.888888888889,360L-4632.222222222223,360L-4605.555555555556,360L-4578.888888888889,360L-4552.222222222223,360L-4525.555555555556,360L-4498.888888888889,360L-4472.222222222222,360L-4445.555555555556,360L-4418.888888888889,360L-4392.222222222223,360L-4365.555555555556,360L-4338.888888888889,360L-4312.222222222222,360L-4285.555555555556,360L-4258.888888888889,360L-4232.222222222223,360L-4205.555555555556,360L-4178.888888888889,360L-4152.222222222223,360L-4125.555555555556,360L-4098.888888888889,360L-4072.222222222222,360L-4045.5555555555557,360L-4018.888888888889,360L-3992.2222222222226,360L-3965.5555555555557,360L-3938.8888888888887,360L-3912.222222222222,360L-3885.5555555555557,360L-3858.8888888888887,360L-3832.222222222222,360L-3805.5555555555557,360L-3778.888888888889,360L-3752.2222222222226,360L-3725.555555555555,360L-3698.8888888888887,360L-3672.222222222222,360L-3645.5555555555557,360L-3618.888888888889,360L-3592.2222222222226,360L-3565.5555555555557,360L-3538.8888888888887,360L-3512.222222222222,360L-3485.5555555555557,360L-3458.8888888888887,360L-3432.222222222222,360L-3405.5555555555557,360L-3378.888888888889,360L-3352.2222222222226,360L-3325.555555555555,360L-3298.8888888888887,360L-3272.222222222222,360L-3245.5555555555557,360L-3218.888888888889,360L-3192.222222222222,360L-3165.5555555555557,360L-3138.888888888889,360L-3112.222222222222,360L-3085.5555555555557,360L-3058.8888888888887,360L-3032.222222222222,360L-3005.5555555555557,360L-2978.8888888888887,360L-2952.222222222222,360L-2925.5555555555557,360L-2898.8888888888887,360L-2872.222222222222,360L-2845.5555555555557,360L-2818.888888888889,360L-2792.222222222222,360L-2765.5555555555557,360L-2738.888888888889,360L-2712.222222222222,360L-2685.5555555555557,360L-2658.8888888888887,360L-2632.222222222222,360L-2605.5555555555557,360L-2578.8888888888887,360L-2552.222222222222,360L-2525.5555555555557,360L-2498.8888888888887,360L-2472.222222222222,360L-2445.5555555555557,360L-2418.888888888889,360L-2392.222222222222,360L-2365.5555555555557,360L-2338.888888888889,360L-2312.222222222222,360L-2285.5555555555557,360L-2258.8888888888887,360L-2232.222222222222,360L-2205.5555555555557,360L-2178.8888888888887,360L-2152.222222222222,360L-2125.5555555555557,360L-2098.8888888888887,360L-2072.222222222222,360L-2045.5555555555557,360L-2018.888888888889,360L-1992.2222222222222,360L-1965.5555555555554,360L-1938.888888888889,360L-1912.2222222222224,360L-1885.5555555555554,360L-1858.888888888889,360L-1832.2222222222222,360L-1805.5555555555557,360L-1778.8888888888887,360L-1752.2222222222222,360L-1725.5555555555557,360L-1698.8888888888887,360L-1672.2222222222222,360L-1645.5555555555557,360L-1618.888888888889,360L-1592.2222222222222,360L-1565.5555555555554,360L-1538.888888888889,360L-1512.2222222222222,360L-1485.5555555555557,360L-1458.888888888889,360L-1432.2222222222222,360L-1405.5555555555554,360L-1378.888888888889,360L-1352.2222222222222,360L-1325.5555555555557,360L-1298.888888888889,360L-1272.2222222222222,360L-1245.5555555555557,360L-1218.888888888889,360L-1192.2222222222222,360L-1165.5555555555554,360L-1138.888888888889,360L-1112.2222222222222,360L-1085.5555555555557,360L-1058.888888888889,360L-1032.2222222222222,360L-1005.5555555555555,360L-978.8888888888889,360L-952.2222222222222,360L-925.5555555555557,360L-898.8888888888889,360L-872.2222222222222,360L-845.5555555555555,360L-818.8888888888888,360L-792.2222222222223,360L-765.5555555555555,360L-738.8888888888889,360L-712.2222222222222,360L-685.5555555555555,360L-658.8888888888889,360L-632.2222222222222,360L-605.5555555555555,360L-578.8888888888889,360L-552.2222222222222,360L-525.5555555555555,360L-498.8888888888889,360L-472.22222222222223,360L-445.55555555555554,360L-418.8888888888889,360L-392.22222222222223,360L-365.55555555555554,360L-338.88888888888886,360L-312.22222222222223,360L-285.55555555555554,360L-258.8888888888889,360L-232.22222222222223,360L-205.55555555555554,360L-178.88888888888889,360L-152.22222222222223,360L-125.55555555555556,360L-98.88888888888889,360L-72.22222222222221,360L-45.55555555555556,360L-18.88888888888889,360L7.777777777777778,360L34.44444444444444,360L61.111111111111114,360L87.77777777777777,360L114.44444444444444,360L141.11111111111111,360L167.77777777777777,360L194.44444444444443,360L221.11111111111111,360L247.77777777777777,360L274.44444444444446,360L301.1111111111111,360L327.77777777777777,360L354.44444444444446,360L381.1111111111111,360L407.77777777777777,360" stroke="#e45756" stroke-width="2" opacity="0.2"></path></g></g><path class="foreground" aria-hidden="true" d="" display="none"></path></g><g transform="translate(0,0)"><path class="background" aria-hidden="true" d="M0,0h400v400h-400Z"></path><g><g class="mark-line role-mark concat_0_layer_0_marks" clip-path="url(#clip2)" role="graphics-object" aria-roledescription="line mark container"><path aria-label="Type: Deaths; Date: Mar 01; Count: 0" role="graphics-symbol" aria-roledescription="line mark" d="M-5191.111111111111,360L-5164.444444444444,360L-5137.777777777778,360L-5111.111111111111,360L-5084.444444444444,360L-5057.777777777777,360L-5031.111111111111,360L-5004.444444444444,360L-4978.888888888889,360L-4952.222222222223,359.8L-4925.555555555556,360L-4898.888888888889,359.8L-4872.222222222222,359.8L-4845.555555555556,359.6L-4818.888888888889,359.6L-4792.222222222223,359.8L-4765.555555555556,358.8L-4738.888888888889,358.59999999999997L-4712.222222222222,358.2L-4685.555555555556,358.40000000000003L-4658.888888888889,357.8L-4632.222222222223,357.8L-4605.555555555556,355.79999999999995L-4578.888888888889,355.6L-4552.222222222223,353.79999999999995L-4525.555555555556,353.6L-4498.888888888889,353L-4472.222222222222,352.4L-4445.555555555556,351L-4418.888888888889,350.4L-4392.222222222223,349.4L-4365.555555555556,346L-4338.888888888889,344L-4312.222222222222,346L-4285.555555555556,343L-4258.888888888889,342L-4232.222222222223,343.2L-4205.555555555556,337L-4178.888888888889,342.8L-4152.222222222223,342L-4125.555555555556,339.40000000000003L-4098.888888888889,340.6L-4072.222222222222,343L-4045.5555555555557,341.8L-4018.888888888889,337L-3992.2222222222226,337.8L-3965.5555555555557,343.6L-3938.8888888888887,342.8L-3912.222222222222,342.4L-3885.5555555555557,343.2L-3858.8888888888887,347.6L-3832.222222222222,344.59999999999997L-3805.5555555555557,342.8L-3778.888888888889,342.2L-3752.2222222222226,345.4L-3725.555555555555,345L-3698.8888888888887,345.4L-3672.222222222222,343.6L-3645.5555555555557,343.2L-3618.888888888889,344.4L-3592.2222222222226,344.4L-3565.5555555555557,345.4L-3538.8888888888887,345L-3512.222222222222,343.2L-3485.5555555555557,345.6L-3458.8888888888887,345.4L-3432.222222222222,344L-3405.5555555555557,348L-3378.888888888889,346.2L-3352.2222222222226,345.2L-3325.555555555555,347.2L-3298.8888888888887,347.79999999999995L-3272.222222222222,350L-3245.5555555555557,350.8L-3218.888888888889,348.4L-3192.222222222222,350.2L-3165.5555555555557,349.4L-3138.888888888889,347.79999999999995L-3112.222222222222,352L-3085.5555555555557,349.2L-3058.8888888888887,349.2L-3032.222222222222,348.8L-3005.5555555555557,348.8L-2978.8888888888887,351.2L-2952.222222222222,351.6L-2925.5555555555557,354.4L-2898.8888888888887,352.20000000000005L-2872.222222222222,352L-2845.5555555555557,352L-2818.888888888889,352.20000000000005L-2792.222222222222,351L-2765.5555555555557,352L-2738.888888888889,352.59999999999997L-2712.222222222222,354.8L-2685.5555555555557,351L-2658.8888888888887,352.4L-2632.222222222222,353.79999999999995L-2605.5555555555557,353.4L-2578.8888888888887,352.4L-2552.222222222222,353.4L-2525.5555555555557,352L-2498.8888888888887,352.8L-2472.222222222222,354L-2445.5555555555557,353.4L-2418.888888888889,354.59999999999997L-2392.222222222222,353.79999999999995L-2365.5555555555557,354.4L-2338.888888888889,353.4L-2312.222222222222,354.2L-2285.5555555555557,354.2L-2258.8888888888887,354.2L-2232.222222222222,355.79999999999995L-2205.5555555555557,355.79999999999995L-2178.8888888888887,355L-2152.222222222222,355.6L-2125.5555555555557,355.2L-2098.8888888888887,357.6L-2072.222222222222,357.2L-2045.5555555555557,355.6L-2018.888888888889,356.4L-1992.2222222222222,356L-1965.5555555555554,356.59999999999997L-1938.888888888889,357L-1912.2222222222224,358.40000000000003L-1885.5555555555554,357L-1858.888888888889,358.2L-1832.2222222222222,356.8L-1805.5555555555557,357.6L-1778.8888888888887,357.8L-1752.2222222222222,357L-1725.5555555555557,357.2L-1698.8888888888887,357.8L-1672.2222222222222,358.2L-1645.5555555555557,357.2L-1618.888888888889,358.40000000000003L-1592.2222222222222,358.8L-1565.5555555555554,358.40000000000003L-1538.888888888889,358.40000000000003L-1512.2222222222222,357.8L-1485.5555555555557,358L-1458.888888888889,358.59999999999997L-1432.2222222222222,358.59999999999997L-1405.5555555555554,358.59999999999997L-1378.888888888889,358.8L-1352.2222222222222,359.2L-1325.5555555555557,359.8L-1298.888888888889,359.6L-1272.2222222222222,358.8L-1245.5555555555557,359.2L-1218.888888888889,359.8L-1192.2222222222222,360L-1165.5555555555554,359.4L-1138.888888888889,359.4L-1112.2222222222222,359.8L-1085.5555555555557,359L-1058.888888888889,359.6L-1032.2222222222222,359.8L-1005.5555555555555,359L-978.8888888888889,359.4L-952.2222222222222,359.6L-925.5555555555557,359.2L-898.8888888888889,359.6L-872.2222222222222,359.2L-845.5555555555555,359.4L-818.8888888888888,359L-792.2222222222223,360L-765.5555555555555,359.8L-738.8888888888889,360L-712.2222222222222,359.6L-685.5555555555555,358.8L-658.8888888888889,359.8L-632.2222222222222,359.8L-605.5555555555555,359.8L-578.8888888888889,359.8L-552.2222222222222,360L-525.5555555555555,360L-498.8888888888889,360L-472.22222222222223,360L-445.55555555555554,360L-418.8888888888889,359.2L-392.22222222222223,359.8L-365.55555555555554,360L-338.88888888888886,360L-312.22222222222223,362.59999999999997L-285.55555555555554,359L-258.8888888888889,358.59999999999997L-232.22222222222223,357.6L-205.55555555555554,359.4L-178.88888888888889,360L-152.22222222222223,360L-125.55555555555556,359.6L-98.88888888888889,359.8L-72.22222222222221,359.2L-45.55555555555556,359.8L-18.88888888888889,359.4L7.777777777777778,360L34.44444444444444,360L61.111111111111114,360L87.77777777777777,359L114.44444444444444,358.2L141.11111111111111,359.2L167.77777777777777,359.8L194.44444444444443,360L221.11111111111111,360L247.77777777777777,360L274.44444444444446,359L301.1111111111111,358.8L327.77777777777777,359.6L354.44444444444446,359.6L381.1111111111111,360L407.77777777777777,360" stroke="#f58518" stroke-width="2" opacity="0.2"></path></g></g><path class="foreground" aria-hidden="true" d="" display="none"></path></g><g transform="translate(0,0)"><path class="background" aria-hidden="true" d="M0,0h400v400h-400Z"></path><g><g class="mark-line role-mark concat_0_layer_0_marks" clip-path="url(#clip3)" role="graphics-object" aria-roledescription="line mark container"><path aria-label="Type: Confirmed; Date: Mar 01; Count: 0" role="graphics-symbol" aria-roledescription="line mark" d="M-5191.111111111111,360L-5164.444444444444,359L-5137.777777777778,357.4L-5111.111111111111,354L-5084.444444444444,355L-5057.777777777777,348.20000000000005L-5031.111111111111,353.4L-5004.444444444444,350.8L-4978.888888888889,339.8L-4952.222222222223,340.4L-4925.555555555556,320.8L-4898.888888888889,329.8L-4872.222222222222,329.6L-4845.555555555556,345.8L-4818.888888888889,346.2L-4792.222222222223,343.40000000000003L-4765.555555555556,336.2L-4738.888888888889,331L-4712.222222222222,331.4L-4685.555555555556,324L-4658.888888888889,333L-4632.222222222223,336.4L-4605.555555555556,323.59999999999997L-4578.888888888889,314L-4552.222222222223,297.2L-4525.555555555556,302.8L-4498.888888888889,287L-4472.222222222222,300L-4445.555555555556,304L-4418.888888888889,276.79999999999995L-4392.222222222223,265L-4365.555555555556,262.8L-4338.888888888889,249.2L-4312.222222222222,239.79999999999995L-4285.555555555556,288.6L-4258.888888888889,292L-4232.222222222223,282.2L-4205.555555555556,212.4L-4178.888888888889,229L-4152.222222222223,231L-4125.555555555556,269.20000000000005L-4098.888888888889,281L-4072.222222222222,267.2L-4045.5555555555557,272.6L-4018.888888888889,264.2L-3992.2222222222226,239.2L-3965.5555555555557,235.4L-3938.8888888888887,222.40000000000003L-3912.222222222222,253.6L-3885.5555555555557,282.4L-3858.8888888888887,267.8L-3832.222222222222,218.6L-3805.5555555555557,215.59999999999997L-3778.888888888889,208.4L-3752.2222222222226,204.2L-3725.555555555555,265.4L-3698.8888888888887,300L-3672.222222222222,247.40000000000003L-3645.5555555555557,211.60000000000002L-3618.888888888889,200.4L-3592.2222222222226,233L-3565.5555555555557,253.6L-3538.8888888888887,300.2L-3512.222222222222,307.8L-3485.5555555555557,264.79999999999995L-3458.8888888888887,228.6L-3432.222222222222,210.8L-3405.5555555555557,202.59999999999997L-3378.888888888889,220.00000000000003L-3352.2222222222226,258.2L-3325.555555555555,304.4L-3298.8888888888887,269L-3272.222222222222,209.20000000000002L-3245.5555555555557,220.00000000000003L-3218.888888888889,228.00000000000003L-3192.222222222222,222.40000000000003L-3165.5555555555557,288.4L-3138.888888888889,308.2L-3112.222222222222,273.8L-3085.5555555555557,226.6L-3058.8888888888887,198.4L-3032.222222222222,238L-3005.5555555555557,253.6L-2978.8888888888887,279.4L-2952.222222222222,318L-2925.5555555555557,262L-2898.8888888888887,210.8L-2872.222222222222,200L-2845.5555555555557,205.20000000000002L-2818.888888888889,205.40000000000003L-2792.222222222222,273.59999999999997L-2765.5555555555557,307L-2738.888888888889,230.40000000000003L-2712.222222222222,179.8L-2685.5555555555557,150.8L-2658.8888888888887,152.2L-2632.222222222222,130.79999999999998L-2605.5555555555557,203.39999999999998L-2578.8888888888887,267.6L-2552.222222222222,224.6L-2525.5555555555557,172.8L-2498.8888888888887,72.6L-2472.222222222222,101.2L-2445.5555555555557,92.60000000000002L-2418.888888888889,151.6L-2392.222222222222,276.40000000000003L-2365.5555555555557,223.20000000000002L-2338.888888888889,116.40000000000002L-2312.222222222222,68.6L-2285.5555555555557,60.80000000000001L-2258.8888888888887,117.39999999999999L-2232.222222222222,219.59999999999997L-2205.5555555555557,295.8L-2178.8888888888887,200L-2152.222222222222,97.6L-2125.5555555555557,20.40000000000002L-2098.8888888888887,103.79999999999998L-2072.222222222222,119.39999999999999L-2045.5555555555557,208L-2018.888888888889,276L-1992.2222222222222,214.6L-1965.5555555555554,199.00000000000003L-1938.888888888889,223.20000000000002L-1912.2222222222224,222.2L-1885.5555555555554,220.2L-1858.888888888889,286.00000000000006L-1832.2222222222222,297L-1805.5555555555557,309.8L-1778.8888888888887,304.4L-1752.2222222222222,252.59999999999997L-1725.5555555555557,293L-1698.8888888888887,284.6L-1672.2222222222222,297.2L-1645.5555555555557,338.8L-1618.888888888889,326L-1592.2222222222222,297L-1565.5555555555554,300.2L-1538.888888888889,305.40000000000003L-1512.2222222222222,300.2L-1485.5555555555557,320L-1458.888888888889,338L-1432.2222222222222,333.8L-1405.5555555555554,314.8L-1378.888888888889,300.6L-1352.2222222222222,316L-1325.5555555555557,307.6L-1298.888888888889,332.4L-1272.2222222222222,351.6L-1245.5555555555557,345.8L-1218.888888888889,303.4L-1192.2222222222222,299.8L-1165.5555555555554,299.6L-1138.888888888889,308.40000000000003L-1112.2222222222222,299.4L-1085.5555555555557,352.4L-1058.888888888889,327L-1032.2222222222222,293.2L-1005.5555555555555,275L-978.8888888888889,284.40000000000003L-952.2222222222222,284L-925.5555555555557,308L-898.8888888888889,345.4L-872.2222222222222,320.8L-845.5555555555555,276.6L-818.8888888888888,271.2L-792.2222222222223,287.59999999999997L-765.5555555555555,291.2L-738.8888888888889,314.8L-712.2222222222222,347.40000000000003L-685.5555555555555,325.2L-658.8888888888889,297.2L-632.2222222222222,289.79999999999995L-605.5555555555555,293.40000000000003L-578.8888888888889,300.4L-552.2222222222222,328L-525.5555555555555,348.59999999999997L-498.8888888888889,323.59999999999997L-472.22222222222223,315L-445.55555555555554,310.8L-418.8888888888889,333.2L-392.22222222222223,360L-365.55555555555554,360L-338.88888888888886,360L-312.22222222222223,275.8L-285.55555555555554,331.59999999999997L-258.8888888888889,357.8L-232.22222222222223,320.6L-205.55555555555554,308.8L-178.88888888888889,360L-152.22222222222223,360L-125.55555555555556,245.39999999999998L-98.88888888888889,330.2L-72.22222222222221,325.4L-45.55555555555556,297.2L-18.88888888888889,297.79999999999995L7.777777777777778,360L34.44444444444444,360L61.111111111111114,360L87.77777777777777,192L114.44444444444444,314L141.11111111111111,298L167.77777777777777,289.59999999999997L194.44444444444443,360L221.11111111111111,360L247.77777777777777,360L274.44444444444446,120.19999999999999L301.1111111111111,296L327.77777777777777,253.39999999999998L354.44444444444446,233.2L381.1111111111111,360L407.77777777777777,360" stroke="#4c78a8" stroke-width="2" opacity="0.2"></path></g></g><path class="foreground" aria-hidden="true" d="" display="none"></path></g></g><g class="mark-group role-scope concat_0_layer_1_pathgroup" role="graphics-object" aria-roledescription="group mark container"><g transform="translate(0,0)"><path class="background" aria-hidden="true" d="M0,0h400v400h-400Z"></path><g><g class="mark-line role-mark concat_0_layer_1_marks" clip-path="url(#clip4)" role="graphics-object" aria-roledescription="line mark container"><path aria-label="Type: Recovered; Date: Mar 01; Count: 0" role="graphics-symbol" aria-roledescription="line mark" d="M-5031.111111111111,360L-5004.444444444444,360L-4978.888888888889,360L-4952.222222222223,360L-4925.555555555556,360L-4898.888888888889,360L-4872.222222222222,360L-4845.555555555556,360L-4818.888888888889,360L-4792.222222222223,360L-4765.555555555556,360L-4738.888888888889,360L-4712.222222222222,360L-4685.555555555556,360L-4658.888888888889,360L-4632.222222222223,360L-4605.555555555556,360L-4578.888888888889,360L-4552.222222222223,360L-4525.555555555556,360L-4498.888888888889,360L-4472.222222222222,360L-4445.555555555556,360L-4418.888888888889,360L-4392.222222222223,360L-4365.555555555556,360L-4338.888888888889,360L-4312.222222222222,360L-4285.555555555556,360L-4258.888888888889,360L-4232.222222222223,360L-4205.555555555556,360L-4178.888888888889,360L-4152.222222222223,360L-4125.555555555556,360L-4098.888888888889,360L-4072.222222222222,360L-4045.5555555555557,360L-4018.888888888889,360L-3992.2222222222226,360L-3965.5555555555557,360L-3938.8888888888887,360L-3912.222222222222,360L-3885.5555555555557,360L-3858.8888888888887,360L-3832.222222222222,360L-3805.5555555555557,360L-3778.888888888889,360L-3752.2222222222226,360L-3725.555555555555,360L-3698.8888888888887,360L-3672.222222222222,360L-3645.5555555555557,360L-3618.888888888889,360L-3592.2222222222226,360L-3565.5555555555557,360L-3538.8888888888887,360L-3512.222222222222,360L-3485.5555555555557,360L-3458.8888888888887,360L-3432.222222222222,360L-3405.5555555555557,360L-3378.888888888889,360L-3352.2222222222226,360L-3325.555555555555,360L-3298.8888888888887,360L-3272.222222222222,360L-3245.5555555555557,360L-3218.888888888889,360L-3192.222222222222,360L-3165.5555555555557,360L-3138.888888888889,360L-3112.222222222222,360L-3085.5555555555557,360L-3058.8888888888887,360L-3032.222222222222,360L-3005.5555555555557,360L-2978.8888888888887,360L-2952.222222222222,360L-2925.5555555555557,360L-2898.8888888888887,360L-2872.222222222222,360L-2845.5555555555557,360L-2818.888888888889,360L-2792.222222222222,360L-2765.5555555555557,360L-2738.888888888889,360L-2712.222222222222,360L-2685.5555555555557,360L-2658.8888888888887,360L-2632.222222222222,360L-2605.5555555555557,360L-2578.8888888888887,360L-2552.222222222222,360L-2525.5555555555557,360L-2498.8888888888887,360L-2472.222222222222,360L-2445.5555555555557,360L-2418.888888888889,360L-2392.222222222222,360L-2365.5555555555557,360L-2338.888888888889,360L-2312.222222222222,360L-2285.5555555555557,360L-2258.8888888888887,360L-2232.222222222222,360L-2205.5555555555557,360L-2178.8888888888887,360L-2152.222222222222,360L-2125.5555555555557,360L-2098.8888888888887,360L-2072.222222222222,360L-2045.5555555555557,360L-2018.888888888889,360L-1992.2222222222222,360L-1965.5555555555554,360L-1938.888888888889,360L-1912.2222222222224,360L-1885.5555555555554,360L-1858.888888888889,360L-1832.2222222222222,360L-1805.5555555555557,360L-1778.8888888888887,360L-1752.2222222222222,360L-1725.5555555555557,360L-1698.8888888888887,360L-1672.2222222222222,360L-1645.5555555555557,360L-1618.888888888889,360L-1592.2222222222222,360L-1565.5555555555554,360L-1538.888888888889,360L-1512.2222222222222,360L-1485.5555555555557,360L-1458.888888888889,360L-1432.2222222222222,360L-1405.5555555555554,360L-1378.888888888889,360L-1352.2222222222222,360L-1325.5555555555557,360L-1298.888888888889,360L-1272.2222222222222,360L-1245.5555555555557,360L-1218.888888888889,360L-1192.2222222222222,360L-1165.5555555555554,360L-1138.888888888889,360L-1112.2222222222222,360L-1085.5555555555557,360L-1058.888888888889,360L-1032.2222222222222,360L-1005.5555555555555,360L-978.8888888888889,360L-952.2222222222222,360L-925.5555555555557,360L-898.8888888888889,360L-872.2222222222222,360L-845.5555555555555,360L-818.8888888888888,360L-792.2222222222223,360L-765.5555555555555,360L-738.8888888888889,360L-712.2222222222222,360L-685.5555555555555,360L-658.8888888888889,360L-632.2222222222222,360L-605.5555555555555,360L-578.8888888888889,360L-552.2222222222222,360L-525.5555555555555,360L-498.8888888888889,360L-472.22222222222223,360L-445.55555555555554,360L-418.8888888888889,360L-392.22222222222223,360L-365.55555555555554,360L-338.88888888888886,360L-312.22222222222223,360L-285.55555555555554,360L-258.8888888888889,360L-232.22222222222223,360L-205.55555555555554,360L-178.88888888888889,360L-152.22222222222223,360L-125.55555555555556,360L-98.88888888888889,360L-72.22222222222221,360L-45.55555555555556,360L-18.88888888888889,360L7.777777777777778,360L34.44444444444444,360L61.111111111111114,360L87.77777777777777,360L114.44444444444444,360L141.11111111111111,360L167.77777777777777,360L194.44444444444443,360L221.11111111111111,360L247.77777777777777,360L274.44444444444446,360L301.1111111111111,360L327.77777777777777,360L354.44444444444446,360L381.1111111111111,360L407.77777777777777,360" stroke="#e45756" stroke-width="2" opacity="1"></path></g></g><path class="foreground" aria-hidden="true" d="" display="none"></path></g><g transform="translate(0,0)"><path class="background" aria-hidden="true" d="M0,0h400v400h-400Z"></path><g><g class="mark-line role-mark concat_0_layer_1_marks" clip-path="url(#clip5)" role="graphics-object" aria-roledescription="line mark container"><path aria-label="Type: Deaths; Date: Mar 01; Count: 0" role="graphics-symbol" aria-roledescription="line mark" d="M-5031.111111111111,360L-5004.444444444444,360L-4978.888888888889,360L-4952.222222222223,359.9714285714286L-4925.555555555556,359.9714285714286L-4898.888888888889,359.9428571428572L-4872.222222222222,359.9142857142857L-4845.555555555556,359.8571428571429L-4818.888888888889,359.8L-4792.222222222223,359.7714285714286L-4765.555555555556,359.62857142857143L-4738.888888888889,359.42857142857144L-4712.222222222222,359.2L-4685.555555555556,359L-4658.888888888889,358.7428571428572L-4632.222222222223,358.4857142857143L-4605.555555555556,357.9142857142857L-4578.888888888889,357.45714285714286L-4552.222222222223,356.77142857142854L-4525.555555555556,356.11428571428576L-4498.888888888889,355.34285714285716L-4472.222222222222,354.57142857142856L-4445.555555555556,353.6L-4418.888888888889,352.8285714285714L-4392.222222222223,351.9428571428572L-4365.555555555556,350.8285714285714L-4338.888888888889,349.45714285714286L-4312.222222222222,348.45714285714286L-4285.555555555556,347.1142857142857L-4258.888888888889,345.8285714285714L-4232.222222222223,344.8L-4205.555555555556,343.0285714285714L-4178.888888888889,342.57142857142856L-4152.222222222223,342.2857142857143L-4125.555555555556,341.34285714285716L-4098.888888888889,341L-4072.222222222222,341.14285714285717L-4045.5555555555557,340.9428571428571L-4018.888888888889,340.9428571428571L-3992.2222222222226,340.2285714285714L-3965.5555555555557,340.45714285714286L-3938.8888888888887,340.9428571428571L-3912.222222222222,341.2L-3885.5555555555557,341.22857142857146L-3858.8888888888887,342.0571428571429L-3832.222222222222,343.14285714285717L-3805.5555555555557,343.8571428571429L-3778.888888888889,343.6571428571429L-3752.2222222222226,344.02857142857147L-3725.555555555555,344.4L-3698.8888888888887,344.7142857142857L-3672.222222222222,344.1428571428571L-3645.5555555555557,343.9428571428572L-3618.888888888889,344.1714285714286L-3592.2222222222226,344.48571428571427L-3565.5555555555557,344.48571428571427L-3538.8888888888887,344.48571428571427L-3512.222222222222,344.1714285714286L-3485.5555555555557,344.45714285714286L-3458.8888888888887,344.77142857142854L-3432.222222222222,344.7142857142857L-3405.5555555555557,345.2285714285714L-3378.888888888889,345.34285714285716L-3352.2222222222226,345.37142857142857L-3325.555555555555,345.9428571428572L-3298.8888888888887,346.25714285714287L-3272.222222222222,346.9142857142857L-3245.5555555555557,347.88571428571424L-3218.888888888889,347.9428571428572L-3192.222222222222,348.5142857142857L-3165.5555555555557,349.1142857142857L-3138.888888888889,349.2L-3112.222222222222,349.8L-3085.5555555555557,349.6857142857143L-3058.8888888888887,349.45714285714286L-3032.222222222222,349.51428571428573L-3005.5555555555557,349.3142857142857L-2978.8888888888887,349.57142857142856L-2952.222222222222,350.1142857142857L-2925.5555555555557,350.45714285714286L-2898.8888888888887,350.8857142857143L-2872.222222222222,351.2857142857143L-2845.5555555555557,351.74285714285713L-2818.888888888889,352.2285714285714L-2792.222222222222,352.20000000000005L-2765.5555555555557,352.25714285714287L-2738.888888888889,352L-2712.222222222222,352.37142857142857L-2685.5555555555557,352.2285714285714L-2658.8888888888887,352.28571428571433L-2632.222222222222,352.5142857142857L-2605.5555555555557,352.85714285714283L-2578.8888888888887,352.9142857142857L-2552.222222222222,353.0285714285714L-2525.5555555555557,352.62857142857143L-2498.8888888888887,352.8857142857143L-2472.222222222222,353.1142857142857L-2445.5555555555557,353.0571428571429L-2418.888888888889,353.2285714285714L-2392.222222222222,353.42857142857144L-2365.5555555555557,353.57142857142856L-2338.888888888889,353.7714285714286L-2312.222222222222,353.97142857142853L-2285.5555555555557,354L-2258.8888888888887,354.1142857142857L-2232.222222222222,354.2857142857143L-2205.5555555555557,354.57142857142856L-2178.8888888888887,354.65714285714284L-2152.222222222222,354.9714285714286L-2125.5555555555557,355.1142857142857L-2098.8888888888887,355.6L-2072.222222222222,356.02857142857147L-2045.5555555555557,356L-2018.888888888889,356.0857142857143L-1992.2222222222222,356.2285714285714L-1965.5555555555554,356.37142857142857L-1938.888888888889,356.62857142857143L-1912.2222222222224,356.74285714285713L-1885.5555555555554,356.7142857142857L-1858.888888888889,357.0857142857143L-1832.2222222222222,357.14285714285717L-1805.5555555555557,357.37142857142857L-1778.8888888888887,357.54285714285714L-1752.2222222222222,357.54285714285714L-1725.5555555555557,357.37142857142857L-1698.8888888888887,357.48571428571427L-1672.2222222222222,357.48571428571427L-1645.5555555555557,357.54285714285714L-1618.888888888889,357.65714285714284L-1592.2222222222222,357.8L-1565.5555555555554,358L-1538.888888888889,358.1714285714286L-1512.2222222222222,358.1714285714286L-1485.5555555555557,358.14285714285717L-1458.888888888889,358.34285714285716L-1432.2222222222222,358.37142857142857L-1405.5555555555554,358.34285714285716L-1378.888888888889,358.40000000000003L-1352.2222222222222,358.51428571428573L-1325.5555555555557,358.8L-1298.888888888889,359.0285714285714L-1272.2222222222222,359.0571428571429L-1245.5555555555557,359.14285714285717L-1218.888888888889,359.31428571428575L-1192.2222222222222,359.48571428571427L-1165.5555555555554,359.51428571428573L-1138.888888888889,359.45714285714286L-1112.2222222222222,359.48571428571427L-1085.5555555555557,359.51428571428573L-1058.888888888889,359.57142857142856L-1032.2222222222222,359.57142857142856L-1005.5555555555555,359.42857142857144L-978.8888888888889,359.42857142857144L-952.2222222222222,359.45714285714286L-925.5555555555557,359.37142857142857L-898.8888888888889,359.45714285714286L-872.2222222222222,359.4L-845.5555555555555,359.34285714285716L-818.8888888888888,359.34285714285716L-792.2222222222223,359.42857142857144L-765.5555555555555,359.45714285714286L-738.8888888888889,359.57142857142856L-712.2222222222222,359.57142857142856L-685.5555555555555,359.51428571428573L-658.8888888888889,359.57142857142856L-632.2222222222222,359.6857142857143L-605.5555555555555,359.65714285714284L-578.8888888888889,359.65714285714284L-552.2222222222222,359.65714285714284L-525.5555555555555,359.7142857142857L-498.8888888888889,359.8857142857143L-472.22222222222223,359.9142857142857L-445.55555555555554,359.9428571428572L-418.8888888888889,359.8571428571429L-392.22222222222223,359.8571428571429L-365.55555555555554,359.8571428571429L-338.88888888888886,359.8571428571429L-312.22222222222223,360.22857142857146L-285.55555555555554,360.0857142857143L-258.8888888888889,359.8857142857143L-232.22222222222223,359.65714285714284L-205.55555555555554,359.6L-178.88888888888889,359.6L-152.22222222222223,359.6L-125.55555555555556,359.1714285714286L-98.88888888888889,359.2857142857143L-72.22222222222221,359.37142857142857L-45.55555555555556,359.6857142857143L-18.88888888888889,359.6857142857143L7.777777777777778,359.6857142857143L34.44444444444444,359.6857142857143L61.111111111111114,359.74285714285713L87.77777777777777,359.62857142857143L114.44444444444444,359.48571428571427L141.11111111111111,359.4L167.77777777777777,359.45714285714286L194.44444444444443,359.45714285714286L221.11111111111111,359.45714285714286L247.77777777777777,359.45714285714286L274.44444444444446,359.45714285714286L301.1111111111111,359.54285714285714L327.77777777777777,359.6L354.44444444444446,359.57142857142856L381.1111111111111,359.57142857142856L407.77777777777777,359.57142857142856" stroke="#f58518" stroke-width="2" opacity="1"></path></g></g><path class="foreground" aria-hidden="true" d="" display="none"></path></g><g transform="translate(0,0)"><path class="background" aria-hidden="true" d="M0,0h400v400h-400Z"></path><g><g class="mark-line role-mark concat_0_layer_1_marks" clip-path="url(#clip6)" role="graphics-object" aria-roledescription="line mark container"><path aria-label="Type: Confirmed; Date: Mar 01; Count: 0" role="graphics-symbol" aria-roledescription="line mark" d="M-5031.111111111111,355.2857142857143L-5004.444444444444,353.97142857142853L-4978.888888888889,351.22857142857146L-4952.222222222223,348.8L-4925.555555555556,344.0571428571428L-4898.888888888889,340.45714285714286L-4872.222222222222,337.8L-4845.555555555556,336.7142857142857L-4818.888888888889,336.0571428571428L-4792.222222222223,336.57142857142856L-4765.555555555556,335.9714285714286L-4738.888888888889,337.4285714285714L-4712.222222222222,337.65714285714284L-4685.555555555556,336.85714285714283L-4658.888888888889,335.0285714285714L-4632.222222222223,333.62857142857143L-4605.555555555556,330.79999999999995L-4578.888888888889,327.62857142857143L-4552.222222222223,322.79999999999995L-4525.555555555556,318.71428571428567L-4498.888888888889,313.42857142857144L-4472.222222222222,308.7142857142857L-4445.555555555556,304.0857142857143L-4418.888888888889,297.40000000000003L-4392.222222222223,290.4L-4365.555555555556,285.4857142857143L-4338.888888888889,277.8285714285714L-4312.222222222222,271.0857142857143L-4285.555555555556,269.45714285714286L-4258.888888888889,267.74285714285713L-4232.222222222223,268.51428571428573L-4205.555555555556,261.00000000000006L-4178.888888888889,256.1714285714286L-4152.222222222223,253.57142857142856L-4125.555555555556,257.7714285714286L-4098.888888888889,256.68571428571425L-4072.222222222222,253.1428571428571L-4045.5555555555557,251.77142857142857L-4018.888888888889,259.1714285714286L-3992.2222222222226,260.62857142857143L-3965.5555555555557,261.25714285714287L-3938.8888888888887,254.57142857142858L-3912.222222222222,250.65714285714287L-3885.5555555555557,252.82857142857145L-3858.8888888888887,252.14285714285714L-3832.222222222222,245.62857142857143L-3805.5555555555557,242.25714285714287L-3778.888888888889,238.39999999999998L-3752.2222222222226,235.8L-3725.555555555555,237.4857142857143L-3698.8888888888887,240L-3672.222222222222,237.0857142857143L-3645.5555555555557,236.08571428571432L-3618.888888888889,233.9142857142857L-3592.2222222222226,237.42857142857142L-3565.5555555555557,244.4857142857143L-3538.8888888888887,249.45714285714286L-3512.222222222222,250.57142857142858L-3485.5555555555557,253.05714285714288L-3458.8888888888887,255.48571428571432L-3432.222222222222,256.9714285714286L-3405.5555555555557,252.62857142857143L-3378.888888888889,247.82857142857142L-3352.2222222222226,241.82857142857142L-3325.555555555555,241.34285714285713L-3298.8888888888887,241.9428571428571L-3272.222222222222,239.17142857142855L-3245.5555555555557,240.48571428571427L-3218.888888888889,244.11428571428573L-3192.222222222222,244.45714285714288L-3165.5555555555557,248.77142857142854L-3138.888888888889,249.3142857142857L-3112.222222222222,250L-3085.5555555555557,252.4857142857143L-3058.8888888888887,249.39999999999998L-3032.222222222222,250.8285714285714L-3005.5555555555557,255.2857142857143L-2978.8888888888887,254L-2952.222222222222,255.40000000000003L-2925.5555555555557,253.71428571428572L-2898.8888888888887,251.45714285714286L-2872.222222222222,251.68571428571428L-2845.5555555555557,246.99999999999997L-2818.888888888889,240.11428571428573L-2792.222222222222,239.28571428571428L-2765.5555555555557,237.71428571428572L-2738.888888888889,233.2L-2712.222222222222,228.77142857142857L-2685.5555555555557,221.7428571428571L-2658.8888888888887,214.17142857142855L-2632.222222222222,203.5142857142857L-2605.5555555555557,193.4857142857143L-2578.8888888888887,187.85714285714286L-2552.222222222222,187.0285714285714L-2525.5555555555557,186.02857142857144L-2498.8888888888887,174.85714285714283L-2472.222222222222,167.57142857142858L-2445.5555555555557,162.1142857142857L-2418.888888888889,154.71428571428572L-2392.222222222222,155.97142857142856L-2365.5555555555557,155.77142857142857L-2338.888888888889,147.71428571428572L-2312.222222222222,147.14285714285717L-2285.5555555555557,141.37142857142857L-2258.8888888888887,144.91428571428574L-2232.222222222222,154.62857142857143L-2205.5555555555557,157.39999999999998L-2178.8888888888887,154.08571428571426L-2152.222222222222,151.39999999999998L-2125.5555555555557,144.51428571428573L-2098.8888888888887,150.65714285714282L-2072.222222222222,150.94285714285712L-2045.5555555555557,149.28571428571428L-2018.888888888889,146.45714285714286L-1992.2222222222222,148.54285714285717L-1965.5555555555554,163.02857142857144L-1938.888888888889,192L-1912.2222222222224,208.9142857142857L-1885.5555555555554,223.31428571428572L-1858.888888888889,234.45714285714288L-1832.2222222222222,237.45714285714286L-1805.5555555555557,251.05714285714288L-1778.8888888888887,266.1142857142857L-1752.2222222222222,270.3142857142857L-1725.5555555555557,280.42857142857144L-1698.8888888888887,289.6285714285714L-1672.2222222222222,291.2285714285714L-1645.5555555555557,297.2L-1618.888888888889,299.51428571428573L-1592.2222222222222,298.4571428571429L-1565.5555555555554,305.25714285714287L-1538.888888888889,307.0285714285714L-1512.2222222222222,309.25714285714287L-1485.5555555555557,312.5142857142857L-1458.888888888889,312.40000000000003L-1432.2222222222222,313.51428571428573L-1405.5555555555554,316.0571428571429L-1378.888888888889,316.1142857142857L-1352.2222222222222,317.62857142857143L-1325.5555555555557,318.6857142857143L-1298.888888888889,320.45714285714286L-1272.2222222222222,322.40000000000003L-1245.5555555555557,324.1142857142857L-1218.888888888889,322.4857142857143L-1192.2222222222222,322.37142857142857L-1165.5555555555554,320.0285714285714L-1138.888888888889,320.14285714285717L-1112.2222222222222,315.42857142857144L-1085.5555555555557,315.54285714285714L-1058.888888888889,312.85714285714283L-1032.2222222222222,311.4L-1005.5555555555555,307.85714285714283L-978.8888888888889,305.6857142857143L-952.2222222222222,302.20000000000005L-925.5555555555557,303.42857142857144L-898.8888888888889,302.42857142857144L-872.2222222222222,301.54285714285714L-845.5555555555555,299.1714285714286L-818.8888888888888,298.6285714285715L-792.2222222222223,299.0857142857143L-765.5555555555555,300.1142857142857L-738.8888888888889,301.0857142857143L-712.2222222222222,301.37142857142857L-685.5555555555555,302L-658.8888888888889,304.9428571428571L-632.2222222222222,307.6L-605.5555555555555,308.42857142857144L-578.8888888888889,309.74285714285713L-552.2222222222222,311.62857142857143L-525.5555555555555,311.8L-498.8888888888889,311.57142857142856L-472.22222222222223,314.1142857142857L-445.55555555555554,317.1142857142857L-418.8888888888889,322.79999999999995L-392.22222222222223,331.3142857142857L-365.55555555555554,335.8857142857143L-338.88888888888886,337.5142857142857L-312.22222222222223,330.6857142857143L-285.55555555555554,333.0571428571429L-258.8888888888889,339.77142857142854L-232.22222222222223,337.9714285714286L-205.55555555555554,330.65714285714284L-178.88888888888889,330.65714285714284L-152.22222222222223,330.65714285714284L-125.55555555555556,326.31428571428575L-98.88888888888889,326.1142857142857L-72.22222222222221,321.48571428571427L-45.55555555555556,318.14285714285717L-18.88888888888889,316.5714285714286L7.777777777777778,316.5714285714286L34.44444444444444,316.5714285714286L61.111111111111114,332.9428571428571L87.77777777777777,313.2L114.44444444444444,311.57142857142856L141.11111111111111,311.6857142857143L167.77777777777777,310.5142857142857L194.44444444444443,310.5142857142857L221.11111111111111,310.5142857142857L247.77777777777777,310.5142857142857L274.44444444444446,300.25714285714287L301.1111111111111,297.6857142857143L327.77777777777777,291.3142857142857L354.44444444444446,283.25714285714287L381.1111111111111,283.25714285714287L407.77777777777777,283.25714285714287" stroke="#4c78a8" stroke-width="2" opacity="1"></path></g></g><path class="foreground" aria-hidden="true" d="" display="none"></path></g></g><g class="mark-group role-title"><g transform="translate(200,-54)"><path class="background" aria-hidden="true" d="M0,0h0v0h0Z" pointer-events="none"></path><g><g class="mark-text role-title-text" role="graphics-symbol" aria-roledescription="title" aria-label="Title text '7-day average (light color: daily values) [2020-09-27]'" pointer-events="none"><text text-anchor="middle" transform="translate(0,10)" font-family="Roboto Condensed" font-size="13px" font-weight="normal" fill="#000" opacity="1"><tspan>7-day average (light color: daily values)</tspan><tspan x="0" dy="15">[2020-09-27]</tspan></text></g></g><path class="foreground" aria-hidden="true" d="" pointer-events="none" display="none"></path></g></g></g><path class="foreground" aria-hidden="true" d="" display="none"></path></g></g><g class="mark-group role-scope concat_1_group" role="graphics-object" aria-roledescription="group mark container"><g transform="translate(465,0)"><path class="background" aria-hidden="true" d="M0,0h400v400h-400Z" stroke="#ddd" stroke-width="0"></path><g><g class="mark-group role-axis" aria-hidden="true"><g transform="translate(0.5,0.5)"><path class="background" aria-hidden="true" d="M0,0h0v0h0Z" pointer-events="none"></path><g><g class="mark-rule role-axis-grid" pointer-events="none"><line transform="translate(0,400)" x2="400" y2="0" stroke="#ddd" stroke-width="1" opacity="1"></line><line transform="translate(0,360)" x2="400" y2="0" stroke="#ddd" stroke-width="1" opacity="1"></line><line transform="translate(0,320)" x2="400" y2="0" stroke="#ddd" stroke-width="1" opacity="1"></line><line transform="translate(0,280)" x2="400" y2="0" stroke="#ddd" stroke-width="1" opacity="1"></line><line transform="translate(0,240)" x2="400" y2="0" stroke="#ddd" stroke-width="1" opacity="1"></line><line transform="translate(0,200)" x2="400" y2="0" stroke="#ddd" stroke-width="1" opacity="1"></line><line transform="translate(0,160)" x2="400" y2="0" stroke="#ddd" stroke-width="1" opacity="1"></line><line transform="translate(0,120)" x2="400" y2="0" stroke="#ddd" stroke-width="1" opacity="1"></line><line transform="translate(0,80)" x2="400" y2="0" stroke="#ddd" stroke-width="1" opacity="1"></line><line transform="translate(0,40)" x2="400" y2="0" stroke="#ddd" stroke-width="1" opacity="1"></line><line transform="translate(0,0)" x2="400" y2="0" stroke="#ddd" stroke-width="1" opacity="1"></line></g></g><path class="foreground" aria-hidden="true" d="" pointer-events="none" display="none"></path></g></g><g class="mark-group role-axis" role="graphics-symbol" aria-roledescription="axis" aria-label="X-axis titled 'Date' for a time scale with values from September 11 to September 26"><g transform="translate(0.5,400.5)"><path class="background" aria-hidden="true" d="M0,0h0v0h0Z" pointer-events="none"></path><g><g class="mark-text role-axis-label" pointer-events="none"><text text-anchor="middle" transform="translate(34.44444444444444,10)" font-family="Roboto Condensed" font-size="10px" fill="#000" opacity="1">Sep 13</text><text text-anchor="middle" transform="translate(87.77777777777777,10)" font-family="Roboto Condensed" font-size="10px" fill="#000" opacity="1">Sep 15</text><text text-anchor="middle" transform="translate(141.11111111111111,10)" font-family="Roboto Condensed" font-size="10px" fill="#000" opacity="1">Sep 17</text><text text-anchor="middle" transform="translate(194.44444444444443,10)" font-family="Roboto Condensed" font-size="10px" fill="#000" opacity="1">Sep 19</text><text text-anchor="middle" transform="translate(247.77777777777777,10)" font-family="Roboto Condensed" font-size="10px" fill="#000" opacity="1">Sep 21</text><text text-anchor="middle" transform="translate(301.1111111111111,10)" font-family="Roboto Condensed" font-size="10px" fill="#000" opacity="1">Sep 23</text><text text-anchor="middle" transform="translate(354.44444444444446,10)" font-family="Roboto Condensed" font-size="10px" fill="#000" opacity="1">Sep 25</text></g><g class="mark-rule role-axis-domain" pointer-events="none"><line transform="translate(0,0)" x2="400" y2="0" stroke="lightgray" stroke-width="1" opacity="1"></line></g><g class="mark-text role-axis-title" pointer-events="none"><text text-anchor="middle" transform="translate(200,25)" font-family="Roboto Condensed" font-size="11px" font-weight="normal" fill="#000" opacity="1">Date</text></g></g><path class="foreground" aria-hidden="true" d="" pointer-events="none" display="none"></path></g></g><g class="mark-group role-axis" role="graphics-symbol" aria-roledescription="axis" aria-label="Y-axis titled 'Count' for a linear scale with values from 0 to 100,000"><g transform="translate(0.5,0.5)"><path class="background" aria-hidden="true" d="M0,0h0v0h0Z" pointer-events="none"></path><g><g class="mark-text role-axis-label" pointer-events="none"><text text-anchor="end" transform="translate(-2,403)" font-family="Roboto Condensed" font-size="10px" fill="#000" opacity="1">0</text><text text-anchor="end" transform="translate(-2,363)" font-family="Roboto Condensed" font-size="10px" fill="#000" opacity="1">10,000</text><text text-anchor="end" transform="translate(-2,323)" font-family="Roboto Condensed" font-size="10px" fill="#000" opacity="1">20,000</text><text text-anchor="end" transform="translate(-2,283)" font-family="Roboto Condensed" font-size="10px" fill="#000" opacity="1">30,000</text><text text-anchor="end" transform="translate(-2,243)" font-family="Roboto Condensed" font-size="10px" fill="#000" opacity="1">40,000</text><text text-anchor="end" transform="translate(-2,203)" font-family="Roboto Condensed" font-size="10px" fill="#000" opacity="1">50,000</text><text text-anchor="end" transform="translate(-2,163)" font-family="Roboto Condensed" font-size="10px" fill="#000" opacity="1">60,000</text><text text-anchor="end" transform="translate(-2,123.00000000000001)" font-family="Roboto Condensed" font-size="10px" fill="#000" opacity="1">70,000</text><text text-anchor="end" transform="translate(-2,82.99999999999999)" font-family="Roboto Condensed" font-size="10px" fill="#000" opacity="1">80,000</text><text text-anchor="end" transform="translate(-2,42.99999999999999)" font-family="Roboto Condensed" font-size="10px" fill="#000" opacity="1">90,000</text><text text-anchor="end" transform="translate(-2,3)" font-family="Roboto Condensed" font-size="10px" fill="#000" opacity="1">100,000</text></g><g class="mark-rule role-axis-domain" pointer-events="none"><line transform="translate(0,400)" x2="0" y2="-400" stroke="lightgray" stroke-width="1" opacity="1"></line></g><g class="mark-text role-axis-title" pointer-events="none"><text text-anchor="start" transform="translate(-45,-13)" font-family="Roboto Condensed" font-size="11px" font-weight="normal" fill="#000" opacity="1">Count</text></g></g><path class="foreground" aria-hidden="true" d="" pointer-events="none" display="none"></path></g></g><g class="mark-group role-scope concat_1_pathgroup" role="graphics-object" aria-roledescription="group mark container"><g transform="translate(0,0)"><path class="background" aria-hidden="true" d="M0,0h400v400h-400Z"></path><g><g class="mark-line role-mark concat_1_marks" clip-path="url(#clip7)" role="graphics-object" aria-roledescription="line mark container"><path aria-label="Type: Recovered; Date: Mar 01; Country: Sweden; Confirmed: 14; Recovered: 0; Deaths: 0; Count: 0" role="graphics-symbol" aria-roledescription="line mark" d="M-5191.111111111111,400L-5164.444444444444,400L-5137.777777777778,400L-5111.111111111111,400L-5084.444444444444,400L-5057.777777777777,400L-5031.111111111111,400L-5004.444444444444,400L-4978.888888888889,400L-4952.222222222223,400L-4925.555555555556,400L-4898.888888888889,400L-4872.222222222222,400L-4845.555555555556,400L-4818.888888888889,400L-4792.222222222223,400L-4765.555555555556,400L-4738.888888888889,400L-4712.222222222222,400L-4685.555555555556,400L-4658.888888888889,400L-4632.222222222223,400L-4605.555555555556,400L-4578.888888888889,400L-4552.222222222223,400L-4525.555555555556,400L-4498.888888888889,400L-4472.222222222222,400L-4445.555555555556,400L-4418.888888888889,400L-4392.222222222223,400L-4365.555555555556,400L-4338.888888888889,400L-4312.222222222222,400L-4285.555555555556,400L-4258.888888888889,400L-4232.222222222223,400L-4205.555555555556,400L-4178.888888888889,400L-4152.222222222223,400L-4125.555555555556,400L-4098.888888888889,400L-4072.222222222222,400L-4045.5555555555557,400L-4018.888888888889,400L-3992.2222222222226,400L-3965.5555555555557,400L-3938.8888888888887,400L-3912.222222222222,400L-3885.5555555555557,400L-3858.8888888888887,400L-3832.222222222222,400L-3805.5555555555557,400L-3778.888888888889,400L-3752.2222222222226,400L-3725.555555555555,400L-3698.8888888888887,400L-3672.222222222222,400L-3645.5555555555557,400L-3618.888888888889,400L-3592.2222222222226,400L-3565.5555555555557,400L-3538.8888888888887,400L-3512.222222222222,400L-3485.5555555555557,400L-3458.8888888888887,400L-3432.222222222222,400L-3405.5555555555557,400L-3378.888888888889,400L-3352.2222222222226,400L-3325.555555555555,400L-3298.8888888888887,400L-3272.222222222222,400L-3245.5555555555557,400L-3218.888888888889,400L-3192.222222222222,400L-3165.5555555555557,400L-3138.888888888889,400L-3112.222222222222,400L-3085.5555555555557,400L-3058.8888888888887,400L-3032.222222222222,400L-3005.5555555555557,400L-2978.8888888888887,400L-2952.222222222222,400L-2925.5555555555557,400L-2898.8888888888887,400L-2872.222222222222,400L-2845.5555555555557,400L-2818.888888888889,400L-2792.222222222222,400L-2765.5555555555557,400L-2738.888888888889,400L-2712.222222222222,400L-2685.5555555555557,400L-2658.8888888888887,400L-2632.222222222222,400L-2605.5555555555557,400L-2578.8888888888887,400L-2552.222222222222,400L-2525.5555555555557,400L-2498.8888888888887,400L-2472.222222222222,400L-2445.5555555555557,400L-2418.888888888889,400L-2392.222222222222,400L-2365.5555555555557,400L-2338.888888888889,400L-2312.222222222222,400L-2285.5555555555557,400L-2258.8888888888887,400L-2232.222222222222,400L-2205.5555555555557,400L-2178.8888888888887,400L-2152.222222222222,400L-2125.5555555555557,400L-2098.8888888888887,400L-2072.222222222222,400L-2045.5555555555557,400L-2018.888888888889,400L-1992.2222222222222,400L-1965.5555555555554,400L-1938.888888888889,400L-1912.2222222222224,400L-1885.5555555555554,400L-1858.888888888889,400L-1832.2222222222222,400L-1805.5555555555557,400L-1778.8888888888887,400L-1752.2222222222222,400L-1725.5555555555557,400L-1698.8888888888887,400L-1672.2222222222222,400L-1645.5555555555557,400L-1618.888888888889,400L-1592.2222222222222,400L-1565.5555555555554,400L-1538.888888888889,400L-1512.2222222222222,400L-1485.5555555555557,400L-1458.888888888889,400L-1432.2222222222222,400L-1405.5555555555554,400L-1378.888888888889,400L-1352.2222222222222,400L-1325.5555555555557,400L-1298.888888888889,400L-1272.2222222222222,400L-1245.5555555555557,400L-1218.888888888889,400L-1192.2222222222222,400L-1165.5555555555554,400L-1138.888888888889,400L-1112.2222222222222,400L-1085.5555555555557,400L-1058.888888888889,400L-1032.2222222222222,400L-1005.5555555555555,400L-978.8888888888889,400L-952.2222222222222,400L-925.5555555555557,400L-898.8888888888889,400L-872.2222222222222,400L-845.5555555555555,400L-818.8888888888888,400L-792.2222222222223,400L-765.5555555555555,400L-738.8888888888889,400L-712.2222222222222,400L-685.5555555555555,400L-658.8888888888889,400L-632.2222222222222,400L-605.5555555555555,400L-578.8888888888889,400L-552.2222222222222,400L-525.5555555555555,400L-498.8888888888889,400L-472.22222222222223,400L-445.55555555555554,400L-418.8888888888889,400L-392.22222222222223,400L-365.55555555555554,400L-338.88888888888886,400L-312.22222222222223,400L-285.55555555555554,400L-258.8888888888889,400L-232.22222222222223,400L-205.55555555555554,400L-178.88888888888889,400L-152.22222222222223,400L-125.55555555555556,400L-98.88888888888889,400L-72.22222222222221,400L-45.55555555555556,400L-18.88888888888889,400L7.777777777777778,400L34.44444444444444,400L61.111111111111114,400L87.77777777777777,400L114.44444444444444,400L141.11111111111111,400L167.77777777777777,400L194.44444444444443,400L221.11111111111111,400L247.77777777777777,400L274.44444444444446,400L301.1111111111111,400L327.77777777777777,400L354.44444444444446,400L381.1111111111111,400L407.77777777777777,400" stroke="#e45756" stroke-width="2" opacity="0.7"></path></g></g><path class="foreground" aria-hidden="true" d="" display="none"></path></g><g transform="translate(0,0)"><path class="background" aria-hidden="true" d="M0,0h400v400h-400Z"></path><g><g class="mark-line role-mark concat_1_marks" clip-path="url(#clip8)" role="graphics-object" aria-roledescription="line mark container"><path aria-label="Type: Deaths; Date: Mar 01; Country: Sweden; Confirmed: 14; Recovered: 0; Deaths: 0; Count: 0" role="graphics-symbol" aria-roledescription="line mark" d="M-5191.111111111111,400L-5164.444444444444,400L-5137.777777777778,400L-5111.111111111111,400L-5084.444444444444,400L-5057.777777777777,400L-5031.111111111111,400L-5004.444444444444,400L-4978.888888888889,400L-4952.222222222223,399.99600000000004L-4925.555555555556,399.99600000000004L-4898.888888888889,399.992L-4872.222222222222,399.988L-4845.555555555556,399.98L-4818.888888888889,399.972L-4792.222222222223,399.968L-4765.555555555556,399.94399999999996L-4738.888888888889,399.916L-4712.222222222222,399.88L-4685.555555555556,399.84799999999996L-4658.888888888889,399.80400000000003L-4632.222222222223,399.76L-4605.555555555556,399.676L-4578.888888888889,399.588L-4552.222222222223,399.464L-4525.555555555556,399.336L-4498.888888888889,399.196L-4472.222222222222,399.044L-4445.555555555556,398.86400000000003L-4418.888888888889,398.672L-4392.222222222223,398.46L-4365.555555555556,398.17999999999995L-4338.888888888889,397.86L-4312.222222222222,397.58L-4285.555555555556,397.24L-4258.888888888889,396.88L-4232.222222222223,396.544L-4205.555555555556,396.084L-4178.888888888889,395.74L-4152.222222222223,395.38L-4125.555555555556,394.96799999999996L-4098.888888888889,394.58000000000004L-4072.222222222222,394.24L-4045.5555555555557,393.876L-4018.888888888889,393.416L-3992.2222222222226,392.97200000000004L-3965.5555555555557,392.644L-3938.8888888888887,392.3L-3912.222222222222,391.948L-3885.5555555555557,391.61199999999997L-3858.8888888888887,391.364L-3832.222222222222,391.056L-3805.5555555555557,390.712L-3778.888888888889,390.356L-3752.2222222222226,390.064L-3725.555555555555,389.764L-3698.8888888888887,389.472L-3672.222222222222,389.144L-3645.5555555555557,388.808L-3618.888888888889,388.496L-3592.2222222222226,388.18399999999997L-3565.5555555555557,387.892L-3538.8888888888887,387.592L-3512.222222222222,387.256L-3485.5555555555557,386.96799999999996L-3458.8888888888887,386.67600000000004L-3432.222222222222,386.356L-3405.5555555555557,386.116L-3378.888888888889,385.84000000000003L-3352.2222222222226,385.54400000000004L-3325.555555555555,385.288L-3298.8888888888887,385.044L-3272.222222222222,384.844L-3245.5555555555557,384.66L-3218.888888888889,384.428L-3192.222222222222,384.23199999999997L-3165.5555555555557,384.02L-3138.888888888889,383.776L-3112.222222222222,383.616L-3085.5555555555557,383.40000000000003L-3058.8888888888887,383.184L-3032.222222222222,382.96000000000004L-3005.5555555555557,382.736L-2978.8888888888887,382.56L-2952.222222222222,382.392L-2925.5555555555557,382.28L-2898.8888888888887,382.124L-2872.222222222222,381.964L-2845.5555555555557,381.804L-2818.888888888889,381.64799999999997L-2792.222222222222,381.468L-2765.5555555555557,381.308L-2738.888888888889,381.15999999999997L-2712.222222222222,381.05600000000004L-2685.5555555555557,380.876L-2658.8888888888887,380.72400000000005L-2632.222222222222,380.6L-2605.5555555555557,380.46799999999996L-2578.8888888888887,380.31600000000003L-2552.222222222222,380.18399999999997L-2525.5555555555557,380.024L-2498.8888888888887,379.88L-2472.222222222222,379.76L-2445.5555555555557,379.628L-2418.888888888889,379.52L-2392.222222222222,379.396L-2365.5555555555557,379.284L-2338.888888888889,379.15200000000004L-2312.222222222222,379.036L-2285.5555555555557,378.92L-2258.8888888888887,378.80400000000003L-2232.222222222222,378.71999999999997L-2205.5555555555557,378.636L-2178.8888888888887,378.536L-2152.222222222222,378.448L-2125.5555555555557,378.35200000000003L-2098.8888888888887,378.30400000000003L-2072.222222222222,378.248L-2045.5555555555557,378.16L-2018.888888888889,378.08799999999997L-1992.2222222222222,378.008L-1965.5555555555554,377.94L-1938.888888888889,377.88L-1912.2222222222224,377.848L-1885.5555555555554,377.788L-1858.888888888889,377.752L-1832.2222222222222,377.688L-1805.5555555555557,377.64000000000004L-1778.8888888888887,377.596L-1752.2222222222222,377.536L-1725.5555555555557,377.48L-1698.8888888888887,377.43600000000004L-1672.2222222222222,377.4L-1645.5555555555557,377.344L-1618.888888888889,377.312L-1592.2222222222222,377.28799999999995L-1565.5555555555554,377.256L-1538.888888888889,377.224L-1512.2222222222222,377.18L-1485.5555555555557,377.14L-1458.888888888889,377.11199999999997L-1432.2222222222222,377.084L-1405.5555555555554,377.05600000000004L-1378.888888888889,377.032L-1352.2222222222222,377.016L-1325.5555555555557,377.012L-1298.888888888889,377.00399999999996L-1272.2222222222222,376.98L-1245.5555555555557,376.964L-1218.888888888889,376.96L-1192.2222222222222,376.96L-1165.5555555555554,376.94800000000004L-1138.888888888889,376.936L-1112.2222222222222,376.932L-1085.5555555555557,376.912L-1058.888888888889,376.904L-1032.2222222222222,376.90000000000003L-1005.5555555555555,376.88L-978.8888888888889,376.868L-952.2222222222222,376.86L-925.5555555555557,376.844L-898.8888888888889,376.836L-872.2222222222222,376.82000000000005L-845.5555555555555,376.808L-818.8888888888888,376.788L-792.2222222222223,376.788L-765.5555555555555,376.784L-738.8888888888889,376.784L-712.2222222222222,376.776L-685.5555555555555,376.752L-658.8888888888889,376.748L-632.2222222222222,376.744L-605.5555555555555,376.74L-578.8888888888889,376.736L-552.2222222222222,376.736L-525.5555555555555,376.736L-498.8888888888889,376.736L-472.22222222222223,376.736L-445.55555555555554,376.736L-418.8888888888889,376.71999999999997L-392.22222222222223,376.716L-365.55555555555554,376.716L-338.88888888888886,376.716L-312.22222222222223,376.768L-285.55555555555554,376.748L-258.8888888888889,376.71999999999997L-232.22222222222223,376.67199999999997L-205.55555555555554,376.65999999999997L-178.88888888888889,376.65999999999997L-152.22222222222223,376.65999999999997L-125.55555555555556,376.652L-98.88888888888889,376.648L-72.22222222222221,376.632L-45.55555555555556,376.628L-18.88888888888889,376.61600000000004L7.777777777777778,376.61600000000004L34.44444444444444,376.61600000000004L61.111111111111114,376.61600000000004L87.77777777777777,376.596L114.44444444444444,376.56L141.11111111111111,376.544L167.77777777777777,376.54L194.44444444444443,376.54L221.11111111111111,376.54L247.77777777777777,376.54L274.44444444444446,376.52L301.1111111111111,376.496L327.77777777777777,376.488L354.44444444444446,376.48L381.1111111111111,376.48L407.77777777777777,376.48" stroke="#f58518" stroke-width="2" opacity="0.7"></path></g></g><path class="foreground" aria-hidden="true" d="" display="none"></path></g><g transform="translate(0,0)"><path class="background" aria-hidden="true" d="M0,0h400v400h-400Z"></path><g><g class="mark-line role-mark concat_1_marks" clip-path="url(#clip9)" role="graphics-object" aria-roledescription="line mark container"><path aria-label="Type: Confirmed; Date: Mar 01; Country: Sweden; Confirmed: 14; Recovered: 0; Deaths: 0; Count: 14" role="graphics-symbol" aria-roledescription="line mark" d="M-5191.111111111111,399.94399999999996L-5164.444444444444,399.924L-5137.777777777778,399.872L-5111.111111111111,399.752L-5084.444444444444,399.652L-5057.777777777777,399.416L-5031.111111111111,399.284L-5004.444444444444,399.1L-4978.888888888889,398.69599999999997L-4952.222222222223,398.304L-4925.555555555556,397.52L-4898.888888888889,396.916L-4872.222222222222,396.308L-4845.555555555556,396.024L-4818.888888888889,395.748L-4792.222222222223,395.416L-4765.555555555556,394.94L-4738.888888888889,394.36L-4712.222222222222,393.788L-4685.555555555556,393.06800000000004L-4658.888888888889,392.52799999999996L-4632.222222222223,392.056L-4605.555555555556,391.328L-4578.888888888889,390.408L-4552.222222222223,389.152L-4525.555555555556,388.008L-4498.888888888889,386.548L-4472.222222222222,385.34799999999996L-4445.555555555556,384.228L-4418.888888888889,382.56399999999996L-4392.222222222223,380.664L-4365.555555555556,378.71999999999997L-4338.888888888889,376.504L-4312.222222222222,374.1L-4285.555555555556,372.67199999999997L-4258.888888888889,371.312L-4232.222222222223,369.75600000000003L-4205.555555555556,366.804L-4178.888888888889,364.184L-4152.222222222223,361.604L-4125.555555555556,359.788L-4098.888888888889,358.20799999999997L-4072.222222222222,356.352L-4045.5555555555557,354.604L-4018.888888888889,352.68800000000005L-3992.2222222222226,350.272L-3965.5555555555557,347.78000000000003L-3938.8888888888887,345.028L-3912.222222222222,342.90000000000003L-3885.5555555555557,341.34799999999996L-3858.8888888888887,339.50399999999996L-3832.222222222222,336.67600000000004L-3805.5555555555557,333.788L-3778.888888888889,330.75600000000003L-3752.2222222222226,327.64L-3725.555555555555,325.748L-3698.8888888888887,324.548L-3672.222222222222,322.296L-3645.5555555555557,319.32800000000003L-3618.888888888889,316.136L-3592.2222222222226,313.596L-3565.5555555555557,311.46799999999996L-3538.8888888888887,310.272L-3512.222222222222,309.228L-3485.5555555555557,307.324L-3458.8888888888887,304.69599999999997L-3432.222222222222,301.71200000000005L-3405.5555555555557,298.564L-3378.888888888889,295.764L-3352.2222222222226,293.728L-3325.555555555555,292.61600000000004L-3298.8888888888887,290.796L-3272.222222222222,287.78L-3245.5555555555557,284.98L-3218.888888888889,282.34L-3192.222222222222,279.58799999999997L-3165.5555555555557,278.156L-3138.888888888889,277.12L-3112.222222222222,275.396L-3085.5555555555557,272.728L-3058.8888888888887,269.496L-3032.222222222222,267.056L-3005.5555555555557,264.928L-2978.8888888888887,263.31600000000003L-2952.222222222222,262.476L-2925.5555555555557,260.51599999999996L-2898.8888888888887,257.532L-2872.222222222222,254.332L-2845.5555555555557,251.23600000000002L-2818.888888888889,248.144L-2792.222222222222,246.41599999999997L-2765.5555555555557,245.356L-2738.888888888889,242.764L-2712.222222222222,239.16L-2685.5555555555557,234.976L-2658.8888888888887,230.82000000000002L-2632.222222222222,226.23600000000002L-2605.5555555555557,223.104L-2578.8888888888887,221.25599999999997L-2552.222222222222,218.548L-2525.5555555555557,214.804L-2498.8888888888887,209.05599999999998L-2472.222222222222,203.88000000000002L-2445.5555555555557,198.532L-2418.888888888889,194.36399999999998L-2392.222222222222,192.692L-2365.5555555555557,189.95600000000002L-2338.888888888889,185.08399999999997L-2312.222222222222,179.256L-2285.5555555555557,173.272L-2258.8888888888887,168.42000000000002L-2232.222222222222,165.612L-2205.5555555555557,164.32799999999997L-2178.8888888888887,161.128L-2152.222222222222,155.88000000000002L-2125.5555555555557,149.08800000000002L-2098.8888888888887,143.96399999999997L-2072.222222222222,139.152L-2045.5555555555557,136.11200000000002L-2018.888888888889,134.43200000000002L-1992.2222222222222,131.52400000000003L-1965.5555555555554,128.30400000000003L-1938.888888888889,125.56799999999998L-1912.2222222222224,122.81200000000001L-1885.5555555555554,120.01599999999999L-1858.888888888889,118.53600000000002L-1832.2222222222222,117.27599999999998L-1805.5555555555557,116.27200000000002L-1778.8888888888887,115.16000000000003L-1752.2222222222222,113.01199999999997L-1725.5555555555557,111.672L-1698.8888888888887,110.16400000000002L-1672.2222222222222,108.908L-1645.5555555555557,108.48399999999998L-1618.888888888889,107.80400000000002L-1592.2222222222222,106.54400000000001L-1565.5555555555554,105.348L-1538.888888888889,104.256L-1512.2222222222222,103.06000000000002L-1485.5555555555557,102.26000000000002L-1458.888888888889,101.82000000000002L-1432.2222222222222,101.296L-1405.5555555555554,100.392L-1378.888888888889,99.20399999999998L-1352.2222222222222,98.32399999999998L-1325.5555555555557,97.27600000000001L-1298.888888888889,96.72399999999999L-1272.2222222222222,96.556L-1245.5555555555557,96.272L-1218.888888888889,95.14L-1192.2222222222222,93.93600000000002L-1165.5555555555554,92.72800000000001L-1138.888888888889,91.696L-1112.2222222222222,90.48400000000001L-1085.5555555555557,90.332L-1058.888888888889,89.67200000000003L-1032.2222222222222,88.33600000000001L-1005.5555555555555,86.63599999999998L-978.8888888888889,85.12400000000002L-952.2222222222222,83.60400000000001L-925.5555555555557,82.564L-898.8888888888889,82.27199999999999L-872.2222222222222,81.488L-845.5555555555555,79.82000000000001L-818.8888888888888,78.044L-792.2222222222223,76.59600000000002L-765.5555555555555,75.22000000000003L-738.8888888888889,74.316L-712.2222222222222,74.064L-685.5555555555555,73.36800000000001L-658.8888888888889,72.112L-632.2222222222222,70.708L-605.5555555555555,69.37600000000002L-578.8888888888889,68.18399999999998L-552.2222222222222,67.54400000000001L-525.5555555555555,67.31600000000002L-498.8888888888889,66.58800000000001L-472.22222222222223,65.68800000000002L-445.55555555555554,64.70400000000001L-418.8888888888889,64.168L-392.22222222222223,64.168L-365.55555555555554,64.168L-338.88888888888886,64.168L-312.22222222222223,62.48399999999998L-285.55555555555554,61.916L-258.8888888888889,61.872000000000014L-232.22222222222223,61.084L-205.55555555555554,60.06L-178.88888888888889,60.06L-152.22222222222223,60.06L-125.55555555555556,57.768L-98.88888888888889,57.172L-72.22222222222221,56.48L-45.55555555555556,55.22399999999998L-18.88888888888889,53.980000000000004L7.777777777777778,53.980000000000004L34.44444444444444,53.980000000000004L61.111111111111114,53.980000000000004L87.77777777777777,50.62000000000002L114.44444444444444,49.69999999999999L141.11111111111111,48.459999999999994L167.77777777777777,47.05200000000001L194.44444444444443,47.05200000000001L221.11111111111111,47.05200000000001L247.77777777777777,47.05200000000001L274.44444444444446,42.255999999999986L301.1111111111111,40.97599999999999L327.77777777777777,38.84400000000001L354.44444444444446,36.30800000000001L381.1111111111111,36.30800000000001L407.77777777777777,36.30800000000001" stroke="#4c78a8" stroke-width="2" opacity="0.7"></path></g></g><path class="foreground" aria-hidden="true" d="" display="none"></path></g></g><g class="mark-group role-title"><g transform="translate(200,-54)"><path class="background" aria-hidden="true" d="M0,0h0v0h0Z" pointer-events="none"></path><g><g class="mark-text role-title-text" role="graphics-symbol" aria-roledescription="title" aria-label="Title text 'Total [2020-09-27]'" pointer-events="none"><text text-anchor="middle" transform="translate(0,10)" font-family="Roboto Condensed" font-size="13px" font-weight="normal" fill="#000" opacity="1"><tspan>Total</tspan><tspan x="0" dy="15">[2020-09-27]</tspan></text></g></g><path class="foreground" aria-hidden="true" d="" pointer-events="none" display="none"></path></g></g></g><path class="foreground" aria-hidden="true" d="" display="none"></path></g></g><g class="mark-group role-legend" role="graphics-symbol" aria-roledescription="legend" aria-label="Symbol legend for stroke color with 3 values: Confirmed, Deaths, Recovered"><g transform="translate(883,0)"><path class="background" aria-hidden="true" d="M0,0h58v37h-58Z" pointer-events="none"></path><g><g class="mark-group role-legend-entry"><g transform="translate(0,0)"><path class="background" aria-hidden="true" d="M0,0h0v0h0Z" pointer-events="none"></path><g><g class="mark-group role-scope" role="graphics-object" aria-roledescription="group mark container"><g transform="translate(0,0)"><path class="background" aria-hidden="true" d="M0,0h58v11h-58Z" pointer-events="none" opacity="1"></path><g><g class="mark-symbol role-legend-symbol" pointer-events="none"><path transform="translate(6,6)" d="M-5,0L5,0" stroke="#4c78a8" stroke-width="1.5" opacity="0.2"></path></g><g class="mark-text role-legend-label" pointer-events="none"><text text-anchor="start" transform="translate(16,9)" font-family="Roboto Condensed" font-size="10px" fill="#000" opacity="1">Confirmed</text></g></g><path class="foreground" aria-hidden="true" d="" pointer-events="none" display="none"></path></g><g transform="translate(0,13)"><path class="background" aria-hidden="true" d="M0,0h58v11h-58Z" pointer-events="none" opacity="1"></path><g><g class="mark-symbol role-legend-symbol" pointer-events="none"><path transform="translate(6,6)" d="M-5,0L5,0" stroke="#f58518" stroke-width="1.5" opacity="0.2"></path></g><g class="mark-text role-legend-label" pointer-events="none"><text text-anchor="start" transform="translate(16,9)" font-family="Roboto Condensed" font-size="10px" fill="#000" opacity="1">Deaths</text></g></g><path class="foreground" aria-hidden="true" d="" pointer-events="none" display="none"></path></g><g transform="translate(0,26)"><path class="background" aria-hidden="true" d="M0,0h58v11h-58Z" pointer-events="none" opacity="1"></path><g><g class="mark-symbol role-legend-symbol" pointer-events="none"><path transform="translate(6,6)" d="M-5,0L5,0" stroke="#e45756" stroke-width="1.5" opacity="0.2"></path></g><g class="mark-text role-legend-label" pointer-events="none"><text text-anchor="start" transform="translate(16,9)" font-family="Roboto Condensed" font-size="10px" fill="#000" opacity="1">Recovered</text></g></g><path class="foreground" aria-hidden="true" d="" pointer-events="none" display="none"></path></g></g></g><path class="foreground" aria-hidden="true" d="" pointer-events="none" display="none"></path></g></g></g><path class="foreground" aria-hidden="true" d="" pointer-events="none" display="none"></path></g></g></g><path class="foreground" aria-hidden="true" d="" display="none"></path></g></g></g></svg>