<svg class="marks" width="996" height="491" viewBox="0 0 996 491" version="1.1" xmlns="http://www.w3.org/2000/svg" xmlns:xlink="http://www.w3.org/1999/xlink"><defs><clipPath id="clip1"><rect x="0" y="0" width="400" height="400"></rect></clipPath><clipPath id="clip2"><rect x="0" y="0" width="400" height="400"></rect></clipPath><clipPath id="clip3"><rect x="0" y="0" width="400" height="400"></rect></clipPath><clipPath id="clip4"><rect x="0" y="0" width="400" height="400"></rect></clipPath><clipPath id="clip5"><rect x="0" y="0" width="400" height="400"></rect></clipPath><clipPath id="clip6"><rect x="0" y="0" width="400" height="400"></rect></clipPath><clipPath id="clip7"><rect x="0" y="0" width="400" height="400"></rect></clipPath><clipPath id="clip8"><rect x="0" y="0" width="400" height="400"></rect></clipPath><clipPath id="clip9"><rect x="0" y="0" width="400" height="400"></rect></clipPath></defs><rect width="996" height="491" fill="white"></rect><g fill="none" stroke-miterlimit="10" transform="translate(50,59)"><g class="mark-group role-frame root" role="graphics-object" aria-roledescription="group mark container"><g transform="translate(0,0)"><path class="background" aria-hidden="true" d="M0,0h0v400h0Z"></path><g><g class="mark-group role-scope concat_0_group" role="graphics-object" aria-roledescription="group mark container"><g transform="translate(0,0)"><path class="background" aria-hidden="true" d="M0,0h400v400h-400Z" stroke="#ddd" stroke-width="0"></path><g><g class="mark-group role-axis" aria-hidden="true"><g transform="translate(0.5,0.5)"><path class="background" aria-hidden="true" d="M0,0h0v0h0Z" pointer-events="none"></path><g><g class="mark-rule role-axis-grid" pointer-events="none"><line transform="translate(0,400)" x2="400" y2="0" stroke="#ddd" stroke-width="1" opacity="1"></line><line transform="translate(0,371)" x2="400" y2="0" stroke="#ddd" stroke-width="1" opacity="1"></line><line transform="translate(0,343)" x2="400" y2="0" stroke="#ddd" stroke-width="1" opacity="1"></line><line transform="translate(0,314)" x2="400" y2="0" stroke="#ddd" stroke-width="1" opacity="1"></line><line transform="translate(0,286)" x2="400" y2="0" stroke="#ddd" stroke-width="1" opacity="1"></line><line transform="translate(0,257)" x2="400" y2="0" stroke="#ddd" stroke-width="1" opacity="1"></line><line transform="translate(0,229)" x2="400" y2="0" stroke="#ddd" stroke-width="1" opacity="1"></line><line transform="translate(0,200)" x2="400" y2="0" stroke="#ddd" stroke-width="1" opacity="1"></line><line transform="translate(0,171)" x2="400" y2="0" stroke="#ddd" stroke-width="1" opacity="1"></line><line transform="translate(0,143)" x2="400" y2="0" stroke="#ddd" stroke-width="1" opacity="1"></line><line transform="translate(0,114)" x2="400" y2="0" stroke="#ddd" stroke-width="1" opacity="1"></line><line transform="translate(0,86)" x2="400" y2="0" stroke="#ddd" stroke-width="1" opacity="1"></line><line transform="translate(0,57)" x2="400" y2="0" stroke="#ddd" stroke-width="1" opacity="1"></line><line transform="translate(0,29)" x2="400" y2="0" stroke="#ddd" stroke-width="1" opacity="1"></line><line transform="translate(0,0)" x2="400" y2="0" stroke="#ddd" stroke-width="1" opacity="1"></line></g></g><path class="foreground" aria-hidden="true" d="" pointer-events="none" display="none"></path></g></g><g class="mark-group role-axis" role="graphics-symbol" aria-roledescription="axis" aria-label="X-axis titled 'Date' for a time scale with values from June 02 to June 17"><g transform="translate(0.5,400.5)"><path class="background" aria-hidden="true" d="M0,0h0v0h0Z" pointer-events="none"></path><g><g class="mark-text role-axis-label" pointer-events="none"><text text-anchor="middle" transform="translate(7.777777777777778,10)" font-family="Roboto Condensed" font-size="10px" fill="#000" opacity="1">Jun 03</text><text text-anchor="middle" transform="translate(61.111111111111114,10)" font-family="Roboto Condensed" font-size="10px" fill="#000" opacity="1">Jun 05</text><text text-anchor="middle" transform="translate(114.44444444444444,10)" font-family="Roboto Condensed" font-size="10px" fill="#000" opacity="1">Jun 07</text><text text-anchor="middle" transform="translate(167.77777777777777,10)" font-family="Roboto Condensed" font-size="10px" fill="#000" opacity="1">Jun 09</text><text text-anchor="middle" transform="translate(221.11111111111111,10)" font-family="Roboto Condensed" font-size="10px" fill="#000" opacity="1">Jun 11</text><text text-anchor="middle" transform="translate(274.44444444444446,10)" font-family="Roboto Condensed" font-size="10px" fill="#000" opacity="1">Jun 13</text><text text-anchor="middle" transform="translate(327.77777777777777,10)" font-family="Roboto Condensed" font-size="10px" fill="#000" opacity="1">Jun 15</text><text text-anchor="middle" transform="translate(381.1111111111111,10)" font-family="Roboto Condensed" font-size="10px" fill="#000" opacity="1">Jun 17</text></g><g class="mark-rule role-axis-domain" pointer-events="none"><line transform="translate(0,0)" x2="400" y2="0" stroke="lightgray" stroke-width="1" opacity="1"></line></g><g class="mark-text role-axis-title" pointer-events="none"><text text-anchor="middle" transform="translate(200,25)" font-family="Roboto Condensed" font-size="11px" font-weight="normal" fill="#000" opacity="1">Date</text></g></g><path class="foreground" aria-hidden="true" d="" pointer-events="none" display="none"></path></g></g><g class="mark-group role-axis" role="graphics-symbol" aria-roledescription="axis" aria-label="Y-axis titled 'Count' for a linear scale with values from -200 to 2,600"><g transform="translate(0.5,0.5)"><path class="background" aria-hidden="true" d="M0,0h0v0h0Z" pointer-events="none"></path><g><g class="mark-text role-axis-label" pointer-events="none"><text text-anchor="end" transform="translate(-2,403)" font-family="Roboto Condensed" font-size="10px" fill="#000" opacity="1">-200</text><text text-anchor="end" transform="translate(-2,374.42857142857144)" font-family="Roboto Condensed" font-size="10px" fill="#000" opacity="1">0</text><text text-anchor="end" transform="translate(-2,345.8571428571429)" font-family="Roboto Condensed" font-size="10px" fill="#000" opacity="1">200</text><text text-anchor="end" transform="translate(-2,317.2857142857143)" font-family="Roboto Condensed" font-size="10px" fill="#000" opacity="1">400</text><text text-anchor="end" transform="translate(-2,288.7142857142857)" font-family="Roboto Condensed" font-size="10px" fill="#000" opacity="1">600</text><text text-anchor="end" transform="translate(-2,260.1428571428571)" font-family="Roboto Condensed" font-size="10px" fill="#000" opacity="1">800</text><text text-anchor="end" transform="translate(-2,231.57142857142856)" font-family="Roboto Condensed" font-size="10px" fill="#000" opacity="1">1,000</text><text text-anchor="end" transform="translate(-2,203)" font-family="Roboto Condensed" font-size="10px" fill="#000" opacity="1">1,200</text><text text-anchor="end" transform="translate(-2,174.42857142857144)" font-family="Roboto Condensed" font-size="10px" fill="#000" opacity="1">1,400</text><text text-anchor="end" transform="translate(-2,145.85714285714283)" font-family="Roboto Condensed" font-size="10px" fill="#000" opacity="1">1,600</text><text text-anchor="end" transform="translate(-2,117.28571428571428)" font-family="Roboto Condensed" font-size="10px" fill="#000" opacity="1">1,800</text><text text-anchor="end" transform="translate(-2,88.71428571428572)" font-family="Roboto Condensed" font-size="10px" fill="#000" opacity="1">2,000</text><text text-anchor="end" transform="translate(-2,60.14285714285716)" font-family="Roboto Condensed" font-size="10px" fill="#000" opacity="1">2,200</text><text text-anchor="end" transform="translate(-2,31.57142857142856)" font-family="Roboto Condensed" font-size="10px" fill="#000" opacity="1">2,400</text><text text-anchor="end" transform="translate(-2,3)" font-family="Roboto Condensed" font-size="10px" fill="#000" opacity="1">2,600</text></g><g class="mark-rule role-axis-domain" pointer-events="none"><line transform="translate(0,400)" x2="0" y2="-400" stroke="lightgray" stroke-width="1" opacity="1"></line></g><g class="mark-text role-axis-title" pointer-events="none"><text text-anchor="start" transform="translate(-45,-13)" font-family="Roboto Condensed" font-size="11px" font-weight="normal" fill="#000" opacity="1">Count</text></g></g><path class="foreground" aria-hidden="true" d="" pointer-events="none" display="none"></path></g></g><g class="mark-group role-scope concat_0_layer_0_pathgroup" role="graphics-object" aria-roledescription="group mark container"><g transform="translate(0,0)"><path class="background" aria-hidden="true" d="M0,0h400v400h-400Z"></path><g><g class="mark-line role-mark concat_0_layer_0_marks" clip-path="url(#clip1)" role="graphics-object" aria-roledescription="line mark container"><path aria-label="Type: Recovered; Date: Mar 01; Count: 0" role="graphics-symbol" aria-roledescription="line mark" d="M-2497.777777777778,371.42857142857144L-2471.1111111111113,371.42857142857144L-2444.4444444444443,371.42857142857144L-2417.777777777778,371.42857142857144L-2391.1111111111113,371.42857142857144L-2364.4444444444443,371.42857142857144L-2337.777777777778,371.42857142857144L-2311.111111111111,371.42857142857144L-2285.5555555555557,371.42857142857144L-2258.8888888888887,371.42857142857144L-2232.222222222222,371.42857142857144L-2205.5555555555557,371.42857142857144L-2178.8888888888887,371.42857142857144L-2152.222222222222,371.42857142857144L-2125.5555555555557,371.42857142857144L-2098.8888888888887,371.42857142857144L-2072.222222222222,371.42857142857144L-2045.5555555555557,367.1428571428571L-2018.888888888889,371.42857142857144L-1992.2222222222222,375.7142857142857L-1965.5555555555554,334L-1938.888888888889,371.42857142857144L-1912.2222222222224,371.42857142857144L-1885.5555555555554,343.14285714285717L-1858.888888888889,359.14285714285717L-1832.2222222222222,353.14285714285717L-1805.5555555555557,345.2857142857143L-1778.8888888888887,342.1428571428571L-1752.2222222222222,329.1428571428571L-1725.5555555555557,347.42857142857144L-1698.8888888888887,347.2857142857143L-1672.2222222222222,309.14285714285717L-1645.5555555555557,319.57142857142856L-1618.888888888889,317.57142857142856L-1592.2222222222222,317.8571428571429L-1565.5555555555554,299.42857142857144L-1538.888888888889,337.85714285714283L-1512.2222222222222,347L-1485.5555555555557,296.57142857142856L-1458.888888888889,302.4285714285714L-1432.2222222222222,313.7142857142857L-1405.5555555555554,311.7142857142857L-1378.888888888889,303.2857142857143L-1352.2222222222222,336.57142857142856L-1325.5555555555557,348.42857142857144L-1298.888888888889,337.2857142857143L-1272.2222222222222,306.4285714285714L-1245.5555555555557,314.4285714285714L-1218.888888888889,316.14285714285717L-1192.2222222222222,313L-1165.5555555555554,351.71428571428567L-1138.888888888889,356.1428571428571L-1112.2222222222222,309.8571428571429L-1085.5555555555557,319L-1058.888888888889,325.42857142857144L-1032.2222222222222,329.2857142857143L-1005.5555555555555,318.8571428571429L-978.8888888888889,358.14285714285717L-952.2222222222222,362.14285714285717L-925.5555555555557,322.8571428571429L-898.8888888888889,329.57142857142856L-872.2222222222222,326.2857142857143L-845.5555555555555,325.85714285714283L-818.8888888888888,357.42857142857144L-792.2222222222223,361.57142857142856L-765.5555555555555,362.4285714285714L-738.8888888888889,330L-712.2222222222222,335.85714285714283L-685.5555555555555,339.85714285714283L-658.8888888888889,341.4285714285714L-632.2222222222222,338.42857142857144L-605.5555555555555,363.57142857142856L-578.8888888888889,366.4285714285714L-552.2222222222222,342.1428571428571L-525.5555555555555,346.57142857142856L-498.8888888888889,344.28571428571433L-472.22222222222223,348.7142857142857L-445.55555555555554,347.14285714285717L-418.8888888888889,367.57142857142856L-392.22222222222223,367.1428571428571L-365.55555555555554,348.57142857142856L-338.88888888888886,351.2857142857143L-312.22222222222223,352.1428571428571L-285.55555555555554,366.85714285714283L-258.8888888888889,354.7142857142857L-232.22222222222223,367.85714285714283L-205.55555555555554,368.14285714285717L-178.88888888888889,350.7142857142857L-152.22222222222223,356.1428571428571L-125.55555555555556,355.71428571428567L-98.88888888888889,359L-72.22222222222221,354.57142857142856L-45.55555555555556,366.85714285714283L-18.88888888888889,369.28571428571433L7.777777777777778,367.85714285714283L34.44444444444444,358.7142857142857L61.111111111111114,362.2857142857143L87.77777777777777,360.2857142857143L114.44444444444444,357L141.11111111111111,368L167.77777777777777,370.14285714285717L194.44444444444443,361.7142857142857L221.11111111111111,362.7142857142857L247.77777777777777,365L274.44444444444446,364.4285714285714L301.1111111111111,365.42857142857144L327.77777777777777,368.42857142857144L354.44444444444446,369.28571428571433L381.1111111111111,363L407.77777777777777,365.7142857142857" stroke="#e45756" stroke-width="2" opacity="0.2"></path></g></g><path class="foreground" aria-hidden="true" d="" display="none"></path></g><g transform="translate(0,0)"><path class="background" aria-hidden="true" d="M0,0h400v400h-400Z"></path><g><g class="mark-line role-mark concat_0_layer_0_marks" clip-path="url(#clip2)" role="graphics-object" aria-roledescription="line mark container"><path aria-label="Type: Deaths; Date: Mar 01; Count: 0" role="graphics-symbol" aria-roledescription="line mark" d="M-2497.777777777778,371.42857142857144L-2471.1111111111113,371.42857142857144L-2444.4444444444443,371.42857142857144L-2417.777777777778,371.42857142857144L-2391.1111111111113,371.42857142857144L-2364.4444444444443,371.42857142857144L-2337.777777777778,371.42857142857144L-2311.111111111111,371.42857142857144L-2285.5555555555557,371.42857142857144L-2258.8888888888887,371.42857142857144L-2232.222222222222,371L-2205.5555555555557,371.42857142857144L-2178.8888888888887,371.42857142857144L-2152.222222222222,371.2857142857143L-2125.5555555555557,371.42857142857144L-2098.8888888888887,371.2857142857143L-2072.222222222222,370.7142857142857L-2045.5555555555557,370.8571428571429L-2018.888888888889,370.42857142857144L-1992.2222222222222,369.1428571428571L-1965.5555555555554,367.1428571428571L-1938.888888888889,370.2857142857143L-1912.2222222222224,369.57142857142856L-1885.5555555555554,366.57142857142856L-1858.888888888889,363.42857142857144L-1832.2222222222222,365.42857142857144L-1805.5555555555557,361.57142857142856L-1778.8888888888887,362.2857142857143L-1752.2222222222222,360.2857142857143L-1725.5555555555557,359.7142857142857L-1698.8888888888887,344L-1672.2222222222222,353.8571428571429L-1645.5555555555557,345.2857142857143L-1618.888888888889,352.57142857142856L-1592.2222222222222,351.42857142857144L-1565.5555555555554,348L-1538.888888888889,345L-1512.2222222222222,313.8571428571429L-1485.5555555555557,342.1428571428571L-1458.888888888889,331L-1432.2222222222222,300.57142857142856L-1405.5555555555554,324.7142857142857L-1378.888888888889,335.14285714285717L-1352.2222222222222,328.14285714285717L-1325.5555555555557,335.14285714285717L-1298.888888888889,331L-1272.2222222222222,311.85714285714283L-1245.5555555555557,327.7142857142857L-1218.888888888889,330L-1192.2222222222222,338.57142857142856L-1165.5555555555554,350.7142857142857L-1138.888888888889,347.14285714285717L-1112.2222222222222,333.7142857142857L-1085.5555555555557,338.8571428571429L-1058.888888888889,344.42857142857144L-1032.2222222222222,337.42857142857144L-1005.5555555555555,346.1428571428571L-978.8888888888889,355.2857142857143L-952.2222222222222,353.7142857142857L-925.5555555555557,347.14285714285717L-898.8888888888889,358.14285714285717L-872.2222222222222,355.8571428571429L-845.5555555555555,362.5714285714286L-818.8888888888888,360.14285714285717L-792.2222222222223,360L-765.5555555555555,358.2857142857143L-738.8888888888889,325.2857142857143L-712.2222222222222,360.5714285714286L-685.5555555555555,356.2857142857143L-658.8888888888889,362.85714285714283L-632.2222222222222,360.7142857142857L-605.5555555555555,364.14285714285717L-578.8888888888889,363.7142857142857L-552.2222222222222,359.7142857142857L-525.5555555555555,362.85714285714283L-498.8888888888889,363.42857142857144L-472.22222222222223,364.85714285714283L-445.55555555555554,364.7142857142857L-418.8888888888889,367.42857142857144L-392.22222222222223,367.42857142857144L-365.55555555555554,365.42857142857144L-338.88888888888886,366.2857142857143L-312.22222222222223,367.7142857142857L-285.55555555555554,367.85714285714283L-258.8888888888889,365.2857142857143L-232.22222222222223,366.85714285714283L-205.55555555555554,368.2857142857143L-178.88888888888889,367.1428571428571L-152.22222222222223,368L-125.55555555555556,365.42857142857144L-98.88888888888889,368.14285714285717L-72.22222222222221,369.42857142857144L-45.55555555555556,368.7142857142857L-18.88888888888889,368.7142857142857L7.777777777777778,369L34.44444444444444,367.7142857142857L61.111111111111114,368.8571428571429L87.77777777777777,369.42857142857144L114.44444444444444,369.28571428571433L141.11111111111111,369.85714285714283L167.77777777777777,369.57142857142856L194.44444444444443,370L221.11111111111111,370.42857142857144L247.77777777777777,370L274.44444444444446,370.8571428571429L301.1111111111111,370.7142857142857L327.77777777777777,370.57142857142856L354.44444444444446,371.1428571428571L381.1111111111111,369.7142857142857L407.77777777777777,370.2857142857143" stroke="#f58518" stroke-width="2" opacity="0.2"></path></g></g><path class="foreground" aria-hidden="true" d="" display="none"></path></g><g transform="translate(0,0)"><path class="background" aria-hidden="true" d="M0,0h400v400h-400Z"></path><g><g class="mark-line role-mark concat_0_layer_0_marks" clip-path="url(#clip3)" role="graphics-object" aria-roledescription="line mark container"><path aria-label="Type: Confirmed; Date: Mar 01; Count: 1" role="graphics-symbol" aria-roledescription="line mark" d="M-2497.777777777778,371.2857142857143L-2471.1111111111113,370.57142857142856L-2444.4444444444443,370.7142857142857L-2417.777777777778,370L-2391.1111111111113,367.57142857142856L-2364.4444444444443,363L-2337.777777777778,362.85714285714283L-2311.111111111111,367L-2285.5555555555557,365.85714285714283L-2258.8888888888887,367.42857142857144L-2232.222222222222,364.7142857142857L-2205.5555555555557,371.42857142857144L-2178.8888888888887,336.42857142857144L-2152.222222222222,352.85714285714283L-2125.5555555555557,343.2857142857143L-2098.8888888888887,346.85714285714283L-2072.222222222222,345L-2045.5555555555557,336.7142857142857L-2018.888888888889,327.28571428571433L-1992.2222222222222,305.42857142857144L-1965.5555555555554,291.7142857142857L-1938.888888888889,287.7142857142857L-1912.2222222222224,322.5714285714286L-1885.5555555555554,296.2857142857143L-1858.888888888889,276L-1832.2222222222222,186L-1805.5555555555557,221.57142857142858L-1778.8888888888887,107.14285714285717L-1752.2222222222222,128.28571428571428L-1725.5555555555557,219.57142857142858L-1698.8888888888887,246.28571428571428L-1672.2222222222222,201.5714285714286L-1645.5555555555557,173.71428571428572L-1618.888888888889,168.28571428571428L-1592.2222222222222,134.14285714285717L-1565.5555555555554,191.42857142857142L-1538.888888888889,211.00000000000003L-1512.2222222222222,174.28571428571428L-1485.5555555555557,198.71428571428572L-1458.888888888889,145.71428571428572L-1432.2222222222222,130.85714285714286L-1405.5555555555554,178.42857142857142L-1378.888888888889,138.7142857142857L-1352.2222222222222,236.85714285714283L-1325.5555555555557,295.7142857142857L-1298.888888888889,20.85714285714286L-1272.2222222222222,194.85714285714283L-1245.5555555555557,181.57142857142858L-1218.888888888889,222.14285714285717L-1192.2222222222222,183.85714285714286L-1165.5555555555554,159L-1138.888888888889,232.42857142857142L-1112.2222222222222,238.14285714285717L-1085.5555555555557,241.71428571428572L-1058.888888888889,157.7142857142857L-1032.2222222222222,224.00000000000003L-1005.5555555555555,255.85714285714286L-978.8888888888889,292.42857142857144L-952.2222222222222,279L-925.5555555555557,296.42857142857144L-898.8888888888889,277.1428571428571L-872.2222222222222,298.1428571428571L-845.5555555555555,302.1428571428571L-818.8888888888888,315.85714285714283L-792.2222222222223,319.85714285714283L-765.5555555555555,336.85714285714283L-738.8888888888889,332.57142857142856L-712.2222222222222,280.14285714285717L-685.5555555555555,287L-658.8888888888889,287.85714285714283L-632.2222222222222,302.1428571428571L-605.5555555555555,318.8571428571429L-578.8888888888889,324.2857142857143L-552.2222222222222,342.57142857142856L-525.5555555555555,327.57142857142856L-498.8888888888889,320.57142857142856L-472.22222222222223,322.14285714285717L-445.55555555555554,329.85714285714283L-418.8888888888889,331.57142857142856L-392.22222222222223,338.2857142857143L-365.55555555555554,344L-338.88888888888886,335.4285714285714L-312.22222222222223,332L-285.55555555555554,328.7142857142857L-258.8888888888889,331.1428571428571L-232.22222222222223,335.7142857142857L-205.55555555555554,355.2857142857143L-178.88888888888889,351.8571428571429L-152.22222222222223,334.7142857142857L-125.55555555555556,341.14285714285717L-98.88888888888889,353.57142857142856L-72.22222222222221,343.5714285714286L-45.55555555555556,352L-18.88888888888889,357.42857142857144L7.777777777777778,361.42857142857144L34.44444444444444,359.7142857142857L61.111111111111114,351.42857142857144L87.77777777777777,347.8571428571429L114.44444444444444,349.42857142857144L141.11111111111111,354L167.77777777777777,358.7142857142857L194.44444444444443,352.57142857142856L221.11111111111111,351.14285714285717L247.77777777777777,356L274.44444444444446,357.2857142857143L301.1111111111111,355.57142857142856L327.77777777777777,361.2857142857143L354.44444444444446,363.57142857142856L381.1111111111111,358.7142857142857L407.77777777777777,356.57142857142856" stroke="#4c78a8" stroke-width="2" opacity="0.2"></path></g></g><path class="foreground" aria-hidden="true" d="" display="none"></path></g></g><g class="mark-group role-scope concat_0_layer_1_pathgroup" role="graphics-object" aria-roledescription="group mark container"><g transform="translate(0,0)"><path class="background" aria-hidden="true" d="M0,0h400v400h-400Z"></path><g><g class="mark-line role-mark concat_0_layer_1_marks" clip-path="url(#clip4)" role="graphics-object" aria-roledescription="line mark container"><path aria-label="Type: Recovered; Date: Mar 01; Count: 0" role="graphics-symbol" aria-roledescription="line mark" d="M-2337.777777777778,371.42857142857144L-2311.111111111111,371.42857142857144L-2285.5555555555557,371.42857142857144L-2258.8888888888887,371.42857142857144L-2232.222222222222,371.42857142857144L-2205.5555555555557,371.42857142857144L-2178.8888888888887,371.42857142857144L-2152.222222222222,371.42857142857144L-2125.5555555555557,371.42857142857144L-2098.8888888888887,371.42857142857144L-2072.222222222222,371.42857142857144L-2045.5555555555557,370.81632653061223L-2018.888888888889,370.81632653061223L-1992.2222222222222,371.42857142857144L-1965.5555555555554,366.08163265306126L-1938.888888888889,366.08163265306126L-1912.2222222222224,366.08163265306126L-1885.5555555555554,362.0408163265306L-1858.888888888889,360.8979591836735L-1832.2222222222222,358.2857142857143L-1805.5555555555557,353.9387755102041L-1778.8888888888887,355.1020408163265L-1752.2222222222222,349.0612244897959L-1725.5555555555557,345.6326530612245L-1698.8888888888887,346.2244897959184L-1672.2222222222222,339.08163265306126L-1645.5555555555557,334.2857142857143L-1618.888888888889,330.3265306122449L-1592.2222222222222,326.8571428571429L-1565.5555555555554,322.6122448979592L-1538.888888888889,321.2448979591837L-1512.2222222222222,321.2040816326531L-1485.5555555555557,319.40816326530614L-1458.888888888889,316.9591836734694L-1432.2222222222222,316.40816326530614L-1405.5555555555554,315.53061224489795L-1378.888888888889,316.0816326530612L-1352.2222222222222,315.8979591836735L-1325.5555555555557,316.10204081632656L-1298.888888888889,321.9183673469388L-1272.2222222222222,322.48979591836735L-1245.5555555555557,322.59183673469386L-1218.888888888889,323.2244897959184L-1192.2222222222222,324.6122448979592L-1165.5555555555554,326.7755102040816L-1138.888888888889,327.8775510204082L-1112.2222222222222,323.9591836734694L-1085.5555555555557,325.7551020408163L-1058.888888888889,327.3265306122449L-1032.2222222222222,329.2040816326531L-1005.5555555555555,330.0408163265306L-978.8888888888889,330.9591836734694L-952.2222222222222,331.8163265306123L-925.5555555555557,333.67346938775506L-898.8888888888889,335.18367346938777L-872.2222222222222,335.3061224489796L-845.5555555555555,334.81632653061223L-818.8888888888888,340.3265306122449L-792.2222222222223,340.81632653061223L-765.5555555555555,340.85714285714283L-738.8888888888889,341.8775510204082L-712.2222222222222,342.7755102040816L-685.5555555555555,344.7142857142857L-658.8888888888889,346.9387755102041L-632.2222222222222,344.2244897959184L-605.5555555555555,344.51020408163265L-578.8888888888889,345.0816326530612L-552.2222222222222,346.81632653061223L-525.5555555555555,348.34693877551024L-498.8888888888889,348.9795918367347L-472.22222222222223,350.0204081632653L-445.55555555555554,351.265306122449L-418.8888888888889,351.83673469387753L-392.22222222222223,351.9387755102041L-365.55555555555554,352.85714285714283L-338.88888888888886,353.53061224489795L-312.22222222222223,354.6530612244898L-285.55555555555554,357.2448979591837L-258.8888888888889,358.32653061224494L-232.22222222222223,358.3673469387755L-205.55555555555554,358.51020408163265L-178.88888888888889,358.8163265306123L-152.22222222222223,359.51020408163265L-125.55555555555556,360.0204081632653L-98.88888888888889,358.8979591836735L-72.22222222222221,358.8775510204082L-45.55555555555556,358.73469387755097L-18.88888888888889,358.8979591836735L7.777777777777778,361.3469387755102L34.44444444444444,361.7142857142857L61.111111111111114,362.6530612244898L87.77777777777777,362.83673469387753L114.44444444444444,363.18367346938777L141.11111111111111,363.3469387755102L167.77777777777777,363.46938775510205L194.44444444444443,362.59183673469386L221.11111111111111,363.1632653061224L247.77777777777777,363.55102040816325L274.44444444444446,364.14285714285717L301.1111111111111,365.34693877551024L327.77777777777777,365.40816326530614L354.44444444444446,365.2857142857143L381.1111111111111,365.46938775510205L407.77777777777777,365.8979591836735" stroke="#e45756" stroke-width="2" opacity="1"></path></g></g><path class="foreground" aria-hidden="true" d="" display="none"></path></g><g transform="translate(0,0)"><path class="background" aria-hidden="true" d="M0,0h400v400h-400Z"></path><g><g class="mark-line role-mark concat_0_layer_1_marks" clip-path="url(#clip5)" role="graphics-object" aria-roledescription="line mark container"><path aria-label="Type: Deaths; Date: Mar 01; Count: 0" role="graphics-symbol" aria-roledescription="line mark" d="M-2337.777777777778,371.42857142857144L-2311.111111111111,371.42857142857144L-2285.5555555555557,371.42857142857144L-2258.8888888888887,371.42857142857144L-2232.222222222222,371.36734693877554L-2205.5555555555557,371.36734693877554L-2178.8888888888887,371.36734693877554L-2152.222222222222,371.34693877551024L-2125.5555555555557,371.34693877551024L-2098.8888888888887,371.3265306122449L-2072.222222222222,371.2244897959184L-2045.5555555555557,371.2040816326531L-2018.888888888889,371.0612244897959L-1992.2222222222222,370.734693877551L-1965.5555555555554,370.14285714285717L-1938.888888888889,369.9795918367347L-1912.2222222222224,369.734693877551L-1885.5555555555554,369.1428571428571L-1858.888888888889,368.08163265306126L-1832.2222222222222,367.36734693877554L-1805.5555555555557,366.2857142857143L-1778.8888888888887,365.5918367346939L-1752.2222222222222,364.16326530612247L-1725.5555555555557,362.7551020408163L-1698.8888888888887,359.53061224489795L-1672.2222222222222,358.16326530612247L-1645.5555555555557,355.2857142857143L-1618.888888888889,354L-1592.2222222222222,352.44897959183675L-1565.5555555555554,350.6938775510204L-1538.888888888889,348.59183673469386L-1512.2222222222222,344.28571428571433L-1485.5555555555557,342.61224489795916L-1458.888888888889,340.57142857142856L-1432.2222222222222,333.14285714285717L-1405.5555555555554,329.3265306122449L-1378.888888888889,327.48979591836735L-1352.2222222222222,325.0816326530612L-1325.5555555555557,328.12244897959187L-1298.888888888889,326.53061224489795L-1272.2222222222222,323.7959183673469L-1245.5555555555557,327.6734693877551L-1218.888888888889,328.42857142857144L-1192.2222222222222,328.9183673469388L-1165.5555555555554,332.1428571428571L-1138.888888888889,333.85714285714283L-1112.2222222222222,334.2448979591837L-1085.5555555555557,338.1020408163265L-1058.888888888889,340.48979591836735L-1032.2222222222222,341.55102040816325L-1005.5555555555555,342.63265306122446L-978.8888888888889,343.2857142857143L-952.2222222222222,344.2244897959184L-925.5555555555557,346.1428571428571L-898.8888888888889,348.8979591836735L-872.2222222222222,350.53061224489795L-845.5555555555555,354.1224489795918L-818.8888888888888,356.12244897959187L-792.2222222222223,356.7959183673469L-765.5555555555555,357.44897959183675L-738.8888888888889,354.3265306122449L-712.2222222222222,354.67346938775506L-685.5555555555555,354.734693877551L-658.8888888888889,354.7755102040816L-632.2222222222222,354.85714285714283L-605.5555555555555,355.44897959183675L-578.8888888888889,356.2244897959184L-552.2222222222222,361.1428571428571L-525.5555555555555,361.46938775510205L-498.8888888888889,362.48979591836735L-472.22222222222223,362.7755102040816L-445.55555555555554,363.3469387755102L-418.8888888888889,363.81632653061223L-392.22222222222223,364.3469387755102L-365.55555555555554,365.16326530612247L-338.88888888888886,365.6530612244898L-312.22222222222223,366.265306122449L-285.55555555555554,366.6938775510204L-258.8888888888889,366.7755102040816L-232.22222222222223,366.6938775510204L-205.55555555555554,366.8163265306123L-178.88888888888889,367.0612244897959L-152.22222222222223,367.3061224489796L-125.55555555555556,366.9795918367347L-98.88888888888889,367.0204081632653L-72.22222222222221,367.61224489795916L-45.55555555555556,367.87755102040813L-18.88888888888889,367.93877551020404L7.777777777777778,368.2040816326531L34.44444444444444,368.16326530612247L61.111111111111114,368.65306122448976L87.77777777777777,368.83673469387753L114.44444444444444,368.81632653061223L141.11111111111111,368.9795918367347L167.77777777777777,369.10204081632656L194.44444444444443,369.2448979591837L221.11111111111111,369.63265306122446L247.77777777777777,369.7959183673469L274.44444444444446,370L301.1111111111111,370.2040816326531L327.77777777777777,370.3061224489796L354.44444444444446,370.53061224489795L381.1111111111111,370.48979591836735L407.77777777777777,370.46938775510205" stroke="#f58518" stroke-width="2" opacity="1"></path></g></g><path class="foreground" aria-hidden="true" d="" display="none"></path></g><g transform="translate(0,0)"><path class="background" aria-hidden="true" d="M0,0h400v400h-400Z"></path><g><g class="mark-line role-mark concat_0_layer_1_marks" clip-path="url(#clip6)" role="graphics-object" aria-roledescription="line mark container"><path aria-label="Type: Confirmed; Date: Mar 01; Count: 0" role="graphics-symbol" aria-roledescription="line mark" d="M-2337.777777777778,368L-2311.111111111111,367.3877551020408L-2285.5555555555557,366.7142857142857L-2258.8888888888887,366.2448979591837L-2232.222222222222,365.48979591836735L-2205.5555555555557,366.0408163265306L-2178.8888888888887,362.2448979591837L-2152.222222222222,360.8163265306123L-2125.5555555555557,357.42857142857144L-2098.8888888888887,354.7142857142857L-2072.222222222222,351.51020408163265L-2045.5555555555557,347.51020408163265L-2018.888888888889,341.2040816326531L-1992.2222222222222,336.7755102040816L-1965.5555555555554,328.0408163265306L-1938.888888888889,320.10204081632656L-1912.2222222222224,316.6326530612245L-1885.5555555555554,309.6734693877551L-1858.888888888889,301L-1832.2222222222222,280.81632653061223L-1805.5555555555557,268.8367346938776L-1778.8888888888887,242.46938775510202L-1752.2222222222222,219.6938775510204L-1725.5555555555557,204.9795918367347L-1698.8888888888887,197.83673469387756L-1672.2222222222222,187.20408163265304L-1645.5555555555557,185.44897959183672L-1618.888888888889,177.8367346938776L-1592.2222222222222,181.6938775510204L-1565.5555555555554,190.7142857142857L-1538.888888888889,189.48979591836732L-1512.2222222222222,179.20408163265304L-1485.5555555555557,178.79591836734696L-1458.888888888889,174.79591836734696L-1432.2222222222222,169.44897959183672L-1405.5555555555554,175.77551020408163L-1378.888888888889,168.2448979591837L-1352.2222222222222,171.93877551020412L-1325.5555555555557,189.28571428571428L-1298.888888888889,163.87755102040816L-1272.2222222222222,170.89795918367346L-1245.5555555555557,178.14285714285717L-1218.888888888889,184.38775510204084L-1192.2222222222222,190.83673469387756L-1165.5555555555554,179.71428571428572L-1138.888888888889,170.6734693877551L-1112.2222222222222,201.7142857142857L-1085.5555555555557,208.40816326530614L-1058.888888888889,204.99999999999997L-1032.2222222222222,205.26530612244898L-1005.5555555555555,215.5510204081633L-978.8888888888889,234.61224489795916L-952.2222222222222,241.265306122449L-925.5555555555557,249.59183673469389L-898.8888888888889,254.65306122448982L-872.2222222222222,274.7142857142857L-845.5555555555555,285.87755102040813L-818.8888888888888,294.44897959183675L-792.2222222222223,298.3673469387755L-765.5555555555555,306.6326530612245L-738.8888888888889,311.7959183673469L-712.2222222222222,312.2244897959184L-685.5555555555555,310.6326530612245L-658.8888888888889,308.59183673469386L-632.2222222222222,306.6326530612245L-605.5555555555555,306.48979591836735L-578.8888888888889,304.6938775510204L-552.2222222222222,306.12244897959187L-525.5555555555555,312.89795918367344L-498.8888888888889,317.6938775510204L-472.22222222222223,322.59183673469386L-445.55555555555554,326.5510204081633L-418.8888888888889,328.36734693877554L-392.22222222222223,330.36734693877554L-365.55555555555554,330.57142857142856L-338.88888888888886,331.6938775510204L-312.22222222222223,333.32653061224494L-285.55555555555554,334.265306122449L-258.8888888888889,334.44897959183675L-232.22222222222223,335.0408163265306L-205.55555555555554,337.46938775510205L-178.88888888888889,338.59183673469386L-152.22222222222223,338.48979591836735L-125.55555555555556,339.7959183673469L-98.88888888888889,343.3469387755102L-72.22222222222221,345.1224489795918L-45.55555555555556,347.44897959183675L-18.88888888888889,347.7551020408163L7.777777777777778,349.1224489795918L34.44444444444444,352.6938775510204L61.111111111111114,354.16326530612247L87.77777777777777,353.3469387755102L114.44444444444444,354.18367346938777L141.11111111111111,354.46938775510205L167.77777777777777,354.6530612244898L194.44444444444443,353.38775510204084L221.11111111111111,352.16326530612247L247.77777777777777,352.81632653061223L274.44444444444446,354.16326530612247L301.1111111111111,355.0408163265306L327.77777777777777,356.0816326530612L354.44444444444446,356.7755102040816L381.1111111111111,357.65306122448976L407.77777777777777,358.42857142857144" stroke="#4c78a8" stroke-width="2" opacity="1"></path></g></g><path class="foreground" aria-hidden="true" d="" display="none"></path></g></g><g class="mark-group role-title"><g transform="translate(200,-54)"><path class="background" aria-hidden="true" d="M0,0h0v0h0Z" pointer-events="none"></path><g><g class="mark-text role-title-text" role="graphics-symbol" aria-roledescription="title" aria-label="Title text '7-day average (light color: daily values) [2020-06-18]'" pointer-events="none"><text text-anchor="middle" transform="translate(0,10)" font-family="Roboto Condensed" font-size="13px" font-weight="normal" fill="#000" opacity="1"><tspan>7-day average (light color: daily values)</tspan><tspan x="0" dy="15">[2020-06-18]</tspan></text></g></g><path class="foreground" aria-hidden="true" d="" pointer-events="none" display="none"></path></g></g></g><path class="foreground" aria-hidden="true" d="" display="none"></path></g></g><g class="mark-group role-scope concat_1_group" role="graphics-object" aria-roledescription="group mark container"><g transform="translate(465,0)"><path class="background" aria-hidden="true" d="M0,0h400v400h-400Z" stroke="#ddd" stroke-width="0"></path><g><g class="mark-group role-axis" aria-hidden="true"><g transform="translate(0.5,0.5)"><path class="background" aria-hidden="true" d="M0,0h0v0h0Z" pointer-events="none"></path><g><g class="mark-rule role-axis-grid" pointer-events="none"><line transform="translate(0,400)" x2="400" y2="0" stroke="#ddd" stroke-width="1" opacity="1"></line><line transform="translate(0,369)" x2="400" y2="0" stroke="#ddd" stroke-width="1" opacity="1"></line><line transform="translate(0,338)" x2="400" y2="0" stroke="#ddd" stroke-width="1" opacity="1"></line><line transform="translate(0,308)" x2="400" y2="0" stroke="#ddd" stroke-width="1" opacity="1"></line><line transform="translate(0,277)" x2="400" y2="0" stroke="#ddd" stroke-width="1" opacity="1"></line><line transform="translate(0,246)" x2="400" y2="0" stroke="#ddd" stroke-width="1" opacity="1"></line><line transform="translate(0,215)" x2="400" y2="0" stroke="#ddd" stroke-width="1" opacity="1"></line><line transform="translate(0,185)" x2="400" y2="0" stroke="#ddd" stroke-width="1" opacity="1"></line><line transform="translate(0,154)" x2="400" y2="0" stroke="#ddd" stroke-width="1" opacity="1"></line><line transform="translate(0,123)" x2="400" y2="0" stroke="#ddd" stroke-width="1" opacity="1"></line><line transform="translate(0,92)" x2="400" y2="0" stroke="#ddd" stroke-width="1" opacity="1"></line><line transform="translate(0,62)" x2="400" y2="0" stroke="#ddd" stroke-width="1" opacity="1"></line><line transform="translate(0,31)" x2="400" y2="0" stroke="#ddd" stroke-width="1" opacity="1"></line><line transform="translate(0,0)" x2="400" y2="0" stroke="#ddd" stroke-width="1" opacity="1"></line></g></g><path class="foreground" aria-hidden="true" d="" pointer-events="none" display="none"></path></g></g><g class="mark-group role-axis" role="graphics-symbol" aria-roledescription="axis" aria-label="X-axis titled 'Date' for a time scale with values from June 02 to June 17"><g transform="translate(0.5,400.5)"><path class="background" aria-hidden="true" d="M0,0h0v0h0Z" pointer-events="none"></path><g><g class="mark-text role-axis-label" pointer-events="none"><text text-anchor="middle" transform="translate(7.777777777777778,10)" font-family="Roboto Condensed" font-size="10px" fill="#000" opacity="1">Jun 03</text><text text-anchor="middle" transform="translate(61.111111111111114,10)" font-family="Roboto Condensed" font-size="10px" fill="#000" opacity="1">Jun 05</text><text text-anchor="middle" transform="translate(114.44444444444444,10)" font-family="Roboto Condensed" font-size="10px" fill="#000" opacity="1">Jun 07</text><text text-anchor="middle" transform="translate(167.77777777777777,10)" font-family="Roboto Condensed" font-size="10px" fill="#000" opacity="1">Jun 09</text><text text-anchor="middle" transform="translate(221.11111111111111,10)" font-family="Roboto Condensed" font-size="10px" fill="#000" opacity="1">Jun 11</text><text text-anchor="middle" transform="translate(274.44444444444446,10)" font-family="Roboto Condensed" font-size="10px" fill="#000" opacity="1">Jun 13</text><text text-anchor="middle" transform="translate(327.77777777777777,10)" font-family="Roboto Condensed" font-size="10px" fill="#000" opacity="1">Jun 15</text><text text-anchor="middle" transform="translate(381.1111111111111,10)" font-family="Roboto Condensed" font-size="10px" fill="#000" opacity="1">Jun 17</text></g><g class="mark-rule role-axis-domain" pointer-events="none"><line transform="translate(0,0)" x2="400" y2="0" stroke="lightgray" stroke-width="1" opacity="1"></line></g><g class="mark-text role-axis-title" pointer-events="none"><text text-anchor="middle" transform="translate(200,25)" font-family="Roboto Condensed" font-size="11px" font-weight="normal" fill="#000" opacity="1">Date</text></g></g><path class="foreground" aria-hidden="true" d="" pointer-events="none" display="none"></path></g></g><g class="mark-group role-axis" role="graphics-symbol" aria-roledescription="axis" aria-label="Y-axis titled 'Count' for a linear scale with values from 0 to 65,000"><g transform="translate(0.5,0.5)"><path class="background" aria-hidden="true" d="M0,0h0v0h0Z" pointer-events="none"></path><g><g class="mark-text role-axis-label" pointer-events="none"><text text-anchor="end" transform="translate(-2,403)" font-family="Roboto Condensed" font-size="10px" fill="#000" opacity="1">0</text><text text-anchor="end" transform="translate(-2,372.2307692307692)" font-family="Roboto Condensed" font-size="10px" fill="#000" opacity="1">5,000</text><text text-anchor="end" transform="translate(-2,341.46153846153845)" font-family="Roboto Condensed" font-size="10px" fill="#000" opacity="1">10,000</text><text text-anchor="end" transform="translate(-2,310.6923076923077)" font-family="Roboto Condensed" font-size="10px" fill="#000" opacity="1">15,000</text><text text-anchor="end" transform="translate(-2,279.9230769230769)" font-family="Roboto Condensed" font-size="10px" fill="#000" opacity="1">20,000</text><text text-anchor="end" transform="translate(-2,249.15384615384616)" font-family="Roboto Condensed" font-size="10px" fill="#000" opacity="1">25,000</text><text text-anchor="end" transform="translate(-2,218.3846153846154)" font-family="Roboto Condensed" font-size="10px" fill="#000" opacity="1">30,000</text><text text-anchor="end" transform="translate(-2,187.6153846153846)" font-family="Roboto Condensed" font-size="10px" fill="#000" opacity="1">35,000</text><text text-anchor="end" transform="translate(-2,156.84615384615384)" font-family="Roboto Condensed" font-size="10px" fill="#000" opacity="1">40,000</text><text text-anchor="end" transform="translate(-2,126.07692307692308)" font-family="Roboto Condensed" font-size="10px" fill="#000" opacity="1">45,000</text><text text-anchor="end" transform="translate(-2,95.30769230769229)" font-family="Roboto Condensed" font-size="10px" fill="#000" opacity="1">50,000</text><text text-anchor="end" transform="translate(-2,64.53846153846155)" font-family="Roboto Condensed" font-size="10px" fill="#000" opacity="1">55,000</text><text text-anchor="end" transform="translate(-2,33.769230769230745)" font-family="Roboto Condensed" font-size="10px" fill="#000" opacity="1">60,000</text><text text-anchor="end" transform="translate(-2,3)" font-family="Roboto Condensed" font-size="10px" fill="#000" opacity="1">65,000</text></g><g class="mark-rule role-axis-domain" pointer-events="none"><line transform="translate(0,400)" x2="0" y2="-400" stroke="lightgray" stroke-width="1" opacity="1"></line></g><g class="mark-text role-axis-title" pointer-events="none"><text text-anchor="start" transform="translate(-45,-13)" font-family="Roboto Condensed" font-size="11px" font-weight="normal" fill="#000" opacity="1">Count</text></g></g><path class="foreground" aria-hidden="true" d="" pointer-events="none" display="none"></path></g></g><g class="mark-group role-scope concat_1_pathgroup" role="graphics-object" aria-roledescription="group mark container"><g transform="translate(0,0)"><path class="background" aria-hidden="true" d="M0,0h400v400h-400Z"></path><g><g class="mark-line role-mark concat_1_marks" clip-path="url(#clip7)" role="graphics-object" aria-roledescription="line mark container"><path aria-label="Type: Recovered; Date: Mar 01; Country: Belgium; Confirmed: 2; Recovered: 1; Deaths: 0; Count: 1" role="graphics-symbol" aria-roledescription="line mark" d="M-2497.777777777778,399.99384615384616L-2471.1111111111113,399.99384615384616L-2444.4444444444443,399.99384615384616L-2417.777777777778,399.99384615384616L-2391.1111111111113,399.99384615384616L-2364.4444444444443,399.99384615384616L-2337.777777777778,399.99384615384616L-2311.111111111111,399.99384615384616L-2285.5555555555557,399.99384615384616L-2258.8888888888887,399.99384615384616L-2232.222222222222,399.99384615384616L-2205.5555555555557,399.99384615384616L-2178.8888888888887,399.99384615384616L-2152.222222222222,399.99384615384616L-2125.5555555555557,399.99384615384616L-2098.8888888888887,399.99384615384616L-2072.222222222222,399.99384615384616L-2045.5555555555557,399.8092307692308L-2018.888888888889,399.8092307692308L-1992.2222222222222,399.99384615384616L-1965.5555555555554,398.38153846153847L-1938.888888888889,398.38153846153847L-1912.2222222222224,398.38153846153847L-1885.5555555555554,397.1630769230769L-1858.888888888889,396.63384615384615L-1832.2222222222222,395.8461538461538L-1805.5555555555557,394.72L-1778.8888888888887,393.4584615384615L-1752.2222222222222,391.6369230769231L-1725.5555555555557,390.6030769230769L-1698.8888888888887,389.56307692307695L-1672.2222222222222,386.88L-1645.5555555555557,384.6461538461539L-1618.888888888889,382.32615384615383L-1592.2222222222222,380.01846153846157L-1565.5555555555554,376.91692307692307L-1538.888888888889,375.47076923076924L-1512.2222222222222,374.41846153846154L-1485.5555555555557,371.19384615384615L-1458.888888888889,368.22153846153844L-1432.2222222222222,365.73538461538465L-1405.5555555555554,363.1630769230769L-1378.888888888889,360.22769230769234L-1352.2222222222222,358.7261538461538L-1325.5555555555557,357.7353846153846L-1298.888888888889,356.2646153846154L-1272.2222222222222,353.4646153846154L-1245.5555555555557,351.0092307692308L-1218.888888888889,348.6276923076923L-1192.2222222222222,346.1107692307692L-1165.5555555555554,345.26153846153846L-1138.888888888889,344.6030769230769L-1112.2222222222222,341.95076923076925L-1085.5555555555557,339.6923076923077L-1058.888888888889,337.7107692307692L-1032.2222222222222,335.8953846153846L-1005.5555555555555,333.6307692307692L-978.8888888888889,333.05846153846153L-952.2222222222222,332.65846153846155L-925.5555555555557,330.56615384615384L-898.8888888888889,328.76307692307694L-872.2222222222222,326.8184615384615L-845.5555555555555,324.8553846153846L-818.8888888888888,324.2523076923077L-792.2222222222223,323.8276923076923L-765.5555555555555,323.44L-738.8888888888889,321.6553846153846L-712.2222222222222,320.1230769230769L-685.5555555555555,318.76307692307694L-658.8888888888889,317.47076923076924L-632.2222222222222,316.04923076923075L-605.5555555555555,315.71076923076924L-578.8888888888889,315.4953846153846L-552.2222222222222,314.2338461538461L-525.5555555555555,313.1630769230769L-498.8888888888889,311.99384615384616L-472.22222222222223,311.0153846153846L-445.55555555555554,309.96923076923076L-418.8888888888889,309.80307692307696L-392.22222222222223,309.61846153846153L-365.55555555555554,308.63384615384615L-338.88888888888886,307.7661538461538L-312.22222222222223,306.93538461538463L-285.55555555555554,306.73846153846154L-258.8888888888889,306.0184615384615L-232.22222222222223,305.8646153846154L-205.55555555555554,305.7230769230769L-178.88888888888889,304.83076923076925L-152.22222222222223,304.1723076923077L-125.55555555555556,303.49538461538464L-98.88888888888889,302.96L-72.22222222222221,302.2338461538462L-45.55555555555556,302.0369230769231L-18.88888888888889,301.9446153846154L7.777777777777778,301.79076923076923L34.44444444444444,301.2430769230769L61.111111111111114,300.84923076923076L87.77777777777777,300.36923076923074L114.44444444444444,299.7476923076923L141.11111111111111,299.6L167.77777777777777,299.5446153846154L194.44444444444443,299.12615384615384L221.11111111111111,298.7507692307692L247.77777777777777,298.4738461538462L274.44444444444446,298.1723076923077L301.1111111111111,297.9138461538462L327.77777777777777,297.7846153846154L354.44444444444446,297.6923076923077L381.1111111111111,297.3292307692308L407.77777777777777,297.08307692307693" stroke="#e45756" stroke-width="2" opacity="0.7"></path></g></g><path class="foreground" aria-hidden="true" d="" display="none"></path></g><g transform="translate(0,0)"><path class="background" aria-hidden="true" d="M0,0h400v400h-400Z"></path><g><g class="mark-line role-mark concat_1_marks" clip-path="url(#clip8)" role="graphics-object" aria-roledescription="line mark container"><path aria-label="Type: Deaths; Date: Mar 01; Country: Belgium; Confirmed: 2; Recovered: 1; Deaths: 0; Count: 0" role="graphics-symbol" aria-roledescription="line mark" d="M-2497.777777777778,400L-2471.1111111111113,400L-2444.4444444444443,400L-2417.777777777778,400L-2391.1111111111113,400L-2364.4444444444443,400L-2337.777777777778,400L-2311.111111111111,400L-2285.5555555555557,400L-2258.8888888888887,400L-2232.222222222222,399.9815384615385L-2205.5555555555557,399.9815384615385L-2178.8888888888887,399.9815384615385L-2152.222222222222,399.9753846153846L-2125.5555555555557,399.9753846153846L-2098.8888888888887,399.96923076923076L-2072.222222222222,399.9384615384615L-2045.5555555555557,399.9138461538462L-2018.888888888889,399.87076923076927L-1992.2222222222222,399.7723076923077L-1965.5555555555554,399.5876923076923L-1938.888888888889,399.53846153846155L-1912.2222222222224,399.45846153846156L-1885.5555555555554,399.24923076923073L-1858.888888888889,398.90461538461534L-1832.2222222222222,398.6461538461538L-1805.5555555555557,398.22153846153844L-1778.8888888888887,397.8276923076923L-1752.2222222222222,397.34769230769234L-1725.5555555555557,396.8430769230769L-1698.8888888888887,395.66153846153844L-1672.2222222222222,394.90461538461534L-1645.5555555555557,393.77846153846156L-1618.888888888889,392.9661538461538L-1592.2222222222222,392.1046153846154L-1565.5555555555554,391.0953846153846L-1538.888888888889,389.9569230769231L-1512.2222222222222,387.4769230769231L-1485.5555555555557,386.2153846153846L-1458.888888888889,384.4738461538462L-1432.2222222222222,381.4215384615385L-1405.5555555555554,379.40923076923076L-1378.888888888889,377.84615384615387L-1352.2222222222222,375.98153846153843L-1325.5555555555557,374.41846153846154L-1298.888888888889,372.67692307692306L-1272.2222222222222,370.1107692307692L-1245.5555555555557,368.22769230769234L-1218.888888888889,366.4430769230769L-1192.2222222222222,365.0276923076923L-1165.5555555555554,364.1353846153846L-1138.888888888889,363.08923076923077L-1112.2222222222222,361.4646153846154L-1085.5555555555557,360.0615384615385L-1058.888888888889,358.8984615384615L-1032.2222222222222,357.43384615384616L-1005.5555555555555,356.3446153846154L-978.8888888888889,355.64923076923077L-952.2222222222222,354.88615384615383L-925.5555555555557,353.84000000000003L-898.8888888888889,353.2676923076923L-872.2222222222222,352.5969230769231L-845.5555555555555,352.2153846153846L-818.8888888888888,351.72923076923075L-792.2222222222223,351.23692307692306L-765.5555555555555,350.6707692307692L-738.8888888888889,348.6830769230769L-712.2222222222222,348.2153846153846L-685.5555555555555,347.5630769230769L-658.8888888888889,347.19384615384615L-632.2222222222222,346.7323076923077L-605.5555555555555,346.41846153846154L-578.8888888888889,346.0861538461538L-552.2222222222222,345.58153846153846L-525.5555555555555,345.2123076923077L-498.8888888888889,344.8676923076923L-472.22222222222223,344.5846153846154L-445.55555555555554,344.29538461538465L-418.8888888888889,344.12307692307695L-392.22222222222223,343.95076923076925L-365.55555555555554,343.6923076923077L-338.88888888888886,343.47076923076924L-312.22222222222223,343.3107692307692L-285.55555555555554,343.1569230769231L-258.8888888888889,342.89230769230767L-232.22222222222223,342.6953846153846L-205.55555555555554,342.56L-178.88888888888889,342.37538461538463L-152.22222222222223,342.2276923076923L-125.55555555555556,341.96923076923076L-98.88888888888889,341.8276923076923L-72.22222222222221,341.7415384615384L-45.55555555555556,341.62461538461537L-18.88888888888889,341.5076923076923L7.777777777777778,341.4030769230769L34.44444444444444,341.24307692307696L61.111111111111114,341.13230769230773L87.77777777777777,341.0461538461538L114.44444444444444,340.95384615384614L141.11111111111111,340.88615384615383L167.77777777777777,340.80615384615385L194.44444444444443,340.7446153846154L221.11111111111111,340.70153846153846L247.77777777777777,340.64L274.44444444444446,340.61538461538464L301.1111111111111,340.5846153846154L327.77777777777777,340.54769230769233L354.44444444444446,340.53538461538466L381.1111111111111,340.46153846153845L407.77777777777777,340.4123076923077" stroke="#f58518" stroke-width="2" opacity="0.7"></path></g></g><path class="foreground" aria-hidden="true" d="" display="none"></path></g><g transform="translate(0,0)"><path class="background" aria-hidden="true" d="M0,0h400v400h-400Z"></path><g><g class="mark-line role-mark concat_1_marks" clip-path="url(#clip9)" role="graphics-object" aria-roledescription="line mark container"><path aria-label="Type: Confirmed; Date: Mar 01; Country: Belgium; Confirmed: 2; Recovered: 1; Deaths: 0; Count: 2" role="graphics-symbol" aria-roledescription="line mark" d="M-2497.777777777778,399.98769230769227L-2471.1111111111113,399.95076923076925L-2444.4444444444443,399.92L-2417.777777777778,399.85846153846154L-2391.1111111111113,399.6923076923077L-2364.4444444444443,399.3292307692308L-2337.777777777778,398.96L-2311.111111111111,398.7692307692308L-2285.5555555555557,398.52923076923076L-2258.8888888888887,398.3569230769231L-2232.222222222222,398.0676923076923L-2205.5555555555557,398.0676923076923L-2178.8888888888887,396.56L-2152.222222222222,395.76L-2125.5555555555557,394.54769230769233L-2098.8888888888887,393.48923076923074L-2072.222222222222,392.35076923076923L-2045.5555555555557,390.8553846153846L-2018.888888888889,388.95384615384614L-1992.2222222222222,386.1107692307692L-1965.5555555555554,382.6769230769231L-1938.888888888889,379.07076923076926L-1912.2222222222224,376.9661538461539L-1885.5555555555554,373.72923076923075L-1858.888888888889,369.61846153846153L-1832.2222222222222,361.63076923076926L-1805.5555555555557,355.17538461538464L-1778.8888888888887,343.79076923076923L-1752.2222222222222,333.31692307692305L-1725.5555555555557,326.7753846153846L-1698.8888888888887,321.38461538461536L-1672.2222222222222,314.0676923076923L-1645.5555555555557,305.5507692307692L-1618.888888888889,296.8L-1592.2222222222222,286.5784615384615L-1565.5555555555554,278.82461538461536L-1538.888888888889,271.9138461538462L-1512.2222222222222,263.4215384615385L-1485.5555555555557,255.98153846153843L-1458.888888888889,246.25846153846155L-1432.2222222222222,235.89538461538461L-1405.5555555555554,227.58153846153846L-1378.888888888889,217.55692307692306L-1352.2222222222222,211.76L-1325.5555555555557,208.49846153846156L-1298.888888888889,193.39692307692306L-1272.2222222222222,185.79076923076926L-1245.5555555555557,177.6123076923077L-1218.888888888889,171.18153846153845L-1192.2222222222222,163.10153846153844L-1165.5555555555554,153.95076923076925L-1138.888888888889,147.9630769230769L-1112.2222222222222,142.22153846153844L-1085.5555555555557,136.63384615384615L-1058.888888888889,127.42769230769228L-1032.2222222222222,121.07692307692308L-1005.5555555555555,116.09846153846152L-978.8888888888889,112.6953846153846L-952.2222222222222,108.71384615384616L-925.5555555555557,105.48307692307692L-898.8888888888889,101.42153846153845L-872.2222222222222,98.2646153846154L-845.5555555555555,95.27999999999999L-818.8888888888888,92.88615384615385L-792.2222222222223,90.66461538461539L-765.5555555555555,89.17538461538462L-738.8888888888889,87.50153846153847L-712.2222222222222,83.56923076923076L-685.5555555555555,79.9323076923077L-658.8888888888889,76.3323076923077L-632.2222222222222,73.34769230769228L-605.5555555555555,71.08307692307693L-578.8888888888889,69.0523076923077L-552.2222222222222,67.80923076923075L-525.5555555555555,65.91999999999997L-498.8888888888889,63.72923076923076L-472.22222222222223,61.606153846153866L-445.55555555555554,59.8153846153846L-418.8888888888889,58.09846153846152L-392.22222222222223,56.67076923076921L-365.55555555555554,55.48923076923078L-338.88888888888886,53.93846153846154L-312.22222222222223,52.24000000000002L-285.55555555555554,50.4L-258.8888888888889,48.664615384615395L-232.22222222222223,47.12615384615386L-205.55555555555554,46.43076923076923L-178.88888888888889,45.58769230769233L-152.22222222222223,44.00615384615385L-125.55555555555556,42.701538461538476L-98.88888888888889,41.93230769230772L-72.22222222222221,40.732307692307714L-45.55555555555556,39.89538461538462L-18.88888888888889,39.292307692307695L7.777777777777778,38.86153846153846L34.44444444444444,38.35692307692309L61.111111111111114,37.49538461538462L87.77777777777777,36.479999999999976L114.44444444444444,35.53230769230771L141.11111111111111,34.78153846153846L167.77777777777777,34.233846153846144L194.44444444444443,33.42153846153848L221.11111111111111,32.5476923076923L247.77777777777777,31.883076923076903L274.44444444444446,31.273846153846165L301.1111111111111,30.590769230769244L327.77777777777777,30.153846153846153L354.44444444444446,29.815384615384623L381.1111111111111,29.267692307692307L407.77777777777777,28.627692307692286" stroke="#4c78a8" stroke-width="2" opacity="0.7"></path></g></g><path class="foreground" aria-hidden="true" d="" display="none"></path></g></g><g class="mark-group role-title"><g transform="translate(200,-54)"><path class="background" aria-hidden="true" d="M0,0h0v0h0Z" pointer-events="none"></path><g><g class="mark-text role-title-text" role="graphics-symbol" aria-roledescription="title" aria-label="Title text 'Total [2020-06-18]'" pointer-events="none"><text text-anchor="middle" transform="translate(0,10)" font-family="Roboto Condensed" font-size="13px" font-weight="normal" fill="#000" opacity="1"><tspan>Total</tspan><tspan x="0" dy="15">[2020-06-18]</tspan></text></g></g><path class="foreground" aria-hidden="true" d="" pointer-events="none" display="none"></path></g></g></g><path class="foreground" aria-hidden="true" d="" display="none"></path></g></g><g class="mark-group role-legend" role="graphics-symbol" aria-roledescription="legend" aria-label="Symbol legend for stroke color with 3 values: Confirmed, Deaths, Recovered"><g transform="translate(883,0)"><path class="background" aria-hidden="true" d="M0,0h58v37h-58Z" pointer-events="none"></path><g><g class="mark-group role-legend-entry"><g transform="translate(0,0)"><path class="background" aria-hidden="true" d="M0,0h0v0h0Z" pointer-events="none"></path><g><g class="mark-group role-scope" role="graphics-object" aria-roledescription="group mark container"><g transform="translate(0,0)"><path class="background" aria-hidden="true" d="M0,0h58v11h-58Z" pointer-events="none" opacity="1"></path><g><g class="mark-symbol role-legend-symbol" pointer-events="none"><path transform="translate(6,6)" d="M-5,0L5,0" stroke="#4c78a8" stroke-width="1.5" opacity="0.2"></path></g><g class="mark-text role-legend-label" pointer-events="none"><text text-anchor="start" transform="translate(16,9)" font-family="Roboto Condensed" font-size="10px" fill="#000" opacity="1">Confirmed</text></g></g><path class="foreground" aria-hidden="true" d="" pointer-events="none" display="none"></path></g><g transform="translate(0,13)"><path class="background" aria-hidden="true" d="M0,0h58v11h-58Z" pointer-events="none" opacity="1"></path><g><g class="mark-symbol role-legend-symbol" pointer-events="none"><path transform="translate(6,6)" d="M-5,0L5,0" stroke="#f58518" stroke-width="1.5" opacity="0.2"></path></g><g class="mark-text role-legend-label" pointer-events="none"><text text-anchor="start" transform="translate(16,9)" font-family="Roboto Condensed" font-size="10px" fill="#000" opacity="1">Deaths</text></g></g><path class="foreground" aria-hidden="true" d="" pointer-events="none" display="none"></path></g><g transform="translate(0,26)"><path class="background" aria-hidden="true" d="M0,0h58v11h-58Z" pointer-events="none" opacity="1"></path><g><g class="mark-symbol role-legend-symbol" pointer-events="none"><path transform="translate(6,6)" d="M-5,0L5,0" stroke="#e45756" stroke-width="1.5" opacity="0.2"></path></g><g class="mark-text role-legend-label" pointer-events="none"><text text-anchor="start" transform="translate(16,9)" font-family="Roboto Condensed" font-size="10px" fill="#000" opacity="1">Recovered</text></g></g><path class="foreground" aria-hidden="true" d="" pointer-events="none" display="none"></path></g></g></g><path class="foreground" aria-hidden="true" d="" pointer-events="none" display="none"></path></g></g></g><path class="foreground" aria-hidden="true" d="" pointer-events="none" display="none"></path></g></g></g><path class="foreground" aria-hidden="true" d="" display="none"></path></g></g></g></svg>