<svg class="marks" width="950" height="344" viewBox="0 0 950 344" version="1.1" xmlns="http://www.w3.org/2000/svg" xmlns:xlink="http://www.w3.org/1999/xlink"><rect width="950" height="344" style="fill: white;"></rect><defs><clipPath id="clip1"><rect x="0" y="0" width="400" height="300"></rect></clipPath><clipPath id="clip2"><rect x="0" y="0" width="400" height="300"></rect></clipPath><clipPath id="clip3"><rect x="0" y="0" width="400" height="300"></rect></clipPath><clipPath id="clip4"><rect x="0" y="0" width="400" height="300"></rect></clipPath><clipPath id="clip5"><rect x="0" y="0" width="400" height="300"></rect></clipPath><clipPath id="clip6"><rect x="0" y="0" width="400" height="300"></rect></clipPath></defs><g transform="translate(22,27)"><g class="mark-group role-frame root"><g transform="translate(0,0)"><path class="background" d="M0,0h0v0h0Z" style="fill: none;"></path><g><g class="mark-group role-scope concat_0_group"><g transform="translate(0,0)"><path class="background" d="M0,0h400v300h-400Z" style="fill: none; stroke: #ddd; stroke-width: 0;"></path><g><g class="mark-group role-axis"><g transform="translate(0.5,0.5)"><path class="background" d="M0,0h0v0h0Z" style="pointer-events: none; fill: none;"></path><g><g class="mark-rule role-axis-grid" style="pointer-events: none;"><line transform="translate(0,300)" x2="400" y2="0" style="fill: none; stroke: #ddd; stroke-width: 1; opacity: 1;"></line><line transform="translate(0,250)" x2="400" y2="0" style="fill: none; stroke: #ddd; stroke-width: 1; opacity: 1;"></line><line transform="translate(0,200)" x2="400" y2="0" style="fill: none; stroke: #ddd; stroke-width: 1; opacity: 1;"></line><line transform="translate(0,150)" x2="400" y2="0" style="fill: none; stroke: #ddd; stroke-width: 1; opacity: 1;"></line><line transform="translate(0,100)" x2="400" y2="0" style="fill: none; stroke: #ddd; stroke-width: 1; opacity: 1;"></line><line transform="translate(0,50)" x2="400" y2="0" style="fill: none; stroke: #ddd; stroke-width: 1; opacity: 1;"></line><line transform="translate(0,0)" x2="400" y2="0" style="fill: none; stroke: #ddd; stroke-width: 1; opacity: 1;"></line></g></g><path class="foreground" d="" style="pointer-events: none; display: none; fill: none;"></path></g></g><g class="mark-group role-axis"><g transform="translate(0.5,300.5)"><path class="background" d="M0,0h0v0h0Z" style="pointer-events: none; fill: none;"></path><g><g class="mark-text role-axis-label" style="pointer-events: none;"><text text-anchor="start" transform="translate(0,10)" style="font-family: Roboto Condensed; font-size: 10px; fill: #000; opacity: 1;">Mar 19</text><text text-anchor="middle" transform="translate(26.666666666666668,10)" style="font-family: Roboto Condensed; font-size: 10px; fill: #000; opacity: 0;">Mar 21</text><text text-anchor="middle" transform="translate(53.333333333333336,10)" style="font-family: Roboto Condensed; font-size: 10px; fill: #000; opacity: 1;">Mar 23</text><text text-anchor="middle" transform="translate(80,10)" style="font-family: Roboto Condensed; font-size: 10px; fill: #000; opacity: 0;">Mar 25</text><text text-anchor="middle" transform="translate(106.66666666666667,10)" style="font-family: Roboto Condensed; font-size: 10px; fill: #000; opacity: 1;">Mar 27</text><text text-anchor="middle" transform="translate(133.33333333333331,10)" style="font-family: Roboto Condensed; font-size: 10px; fill: #000; opacity: 0;">Mar 29</text><text text-anchor="middle" transform="translate(160,10)" style="font-family: Roboto Condensed; font-size: 10px; fill: #000; opacity: 1;">Mar 31</text><text text-anchor="middle" transform="translate(173.33333333333334,10)" style="font-family: Roboto Condensed; font-size: 10px; fill: #000; opacity: 0;">Apr 01</text><text text-anchor="middle" transform="translate(200,10)" style="font-family: Roboto Condensed; font-size: 10px; fill: #000; opacity: 1;">Apr 03</text><text text-anchor="middle" transform="translate(226.66666666666666,10)" style="font-family: Roboto Condensed; font-size: 10px; fill: #000; opacity: 0;">Apr 05</text><text text-anchor="middle" transform="translate(253.33333333333331,10)" style="font-family: Roboto Condensed; font-size: 10px; fill: #000; opacity: 1;">Apr 07</text><text text-anchor="middle" transform="translate(280,10)" style="font-family: Roboto Condensed; font-size: 10px; fill: #000; opacity: 0;">Apr 09</text><text text-anchor="middle" transform="translate(306.6666666666667,10)" style="font-family: Roboto Condensed; font-size: 10px; fill: #000; opacity: 1;">Apr 11</text><text text-anchor="middle" transform="translate(333.33333333333337,10)" style="font-family: Roboto Condensed; font-size: 10px; fill: #000; opacity: 0;">Apr 13</text><text text-anchor="middle" transform="translate(360,10)" style="font-family: Roboto Condensed; font-size: 10px; fill: #000; opacity: 1;">Apr 15</text><text text-anchor="middle" transform="translate(386.6666666666667,10)" style="font-family: Roboto Condensed; font-size: 10px; fill: #000; opacity: 0;">Apr 17</text></g><g class="mark-rule role-axis-domain" style="pointer-events: none;"><line transform="translate(0,0)" x2="400" y2="0" style="fill: none; stroke: lightgray; stroke-width: 1; opacity: 1;"></line></g></g><path class="foreground" d="" style="pointer-events: none; display: none; fill: none;"></path></g></g><g class="mark-group role-axis"><g transform="translate(0.5,0.5)"><path class="background" d="M0,0h0v0h0Z" style="pointer-events: none; fill: none;"></path><g><g class="mark-text role-axis-label" style="pointer-events: none;"><text text-anchor="end" transform="translate(-2,303)" style="font-family: Roboto Condensed; font-size: 10px; fill: #000; opacity: 1;">-20</text><text text-anchor="end" transform="translate(-2,253)" style="font-family: Roboto Condensed; font-size: 10px; fill: #000; opacity: 1;">0</text><text text-anchor="end" transform="translate(-2,203.00000000000003)" style="font-family: Roboto Condensed; font-size: 10px; fill: #000; opacity: 1;">20</text><text text-anchor="end" transform="translate(-2,153)" style="font-family: Roboto Condensed; font-size: 10px; fill: #000; opacity: 1;">40</text><text text-anchor="end" transform="translate(-2,103.00000000000001)" style="font-family: Roboto Condensed; font-size: 10px; fill: #000; opacity: 1;">60</text><text text-anchor="end" transform="translate(-2,52.999999999999986)" style="font-family: Roboto Condensed; font-size: 10px; fill: #000; opacity: 1;">80</text><text text-anchor="end" transform="translate(-2,3)" style="font-family: Roboto Condensed; font-size: 10px; fill: #000; opacity: 1;">100</text></g><g class="mark-rule role-axis-domain" style="pointer-events: none;"><line transform="translate(0,300)" x2="0" y2="-300" style="fill: none; stroke: lightgray; stroke-width: 1; opacity: 1;"></line></g></g><path class="foreground" d="" style="pointer-events: none; display: none; fill: none;"></path></g></g><g class="mark-group role-scope concat_0_pathgroup"><g transform="translate(0,0)"><path class="background" d="M0,0h400v300h-400Z" style="fill: none;"></path><g><g class="mark-line role-mark concat_0_marks" clip-path="url(#clip1)"><path d="M0,250L13.333333333333334,250L26.666666666666668,207.5L40,292.5L53.333333333333336,135L66.66666666666666,250L80,237.5L93.33333333333333,185L106.66666666666667,212.49999999999997L120,207.5L133.33333333333331,197.5L146.66666666666666,195L160,147.5L173.33333333333334,182.50000000000003L186.66666666666666,102.5L200,187.5L213.33333333333334,32.499999999999986L226.66666666666666,170L240,170L253.33333333333331,2.499999999999991L266.66666666666663,65L280,112.5L293.3333333333333,92.5L306.6666666666667,25.00000000000001L320,130L333.33333333333337,140L346.6666666666667,110.00000000000001L360,29.999999999999993L373.3333333333333,82.5L386.6666666666667,49.999999999999986L400,82.5" style="fill: none; stroke: #e45756; stroke-width: 2; opacity: 0.7;"></path></g></g><path class="foreground" d="" style="display: none; fill: none;"></path></g><g transform="translate(0,0)"><path class="background" d="M0,0h400v300h-400Z" style="fill: none;"></path><g><g class="mark-line role-mark concat_0_marks" clip-path="url(#clip2)"><path d="M0,250L13.333333333333334,252.5L26.666666666666668,247.5L40,250L53.333333333333336,250L66.66666666666666,247.5L80,250L93.33333333333333,250L106.66666666666667,250L120,250L133.33333333333331,250L146.66666666666666,250L160,250L173.33333333333334,250L186.66666666666666,245L200,250L213.33333333333334,250L226.66666666666666,250L240,245L253.33333333333331,250L266.66666666666663,250L280,250L293.3333333333333,247.5L306.6666666666667,247.5L320,250L333.33333333333337,250L346.6666666666667,250L360,250L373.3333333333333,250L386.6666666666667,247.5L400,250" style="fill: none; stroke: #f58518; stroke-width: 2; opacity: 0.7;"></path></g></g><path class="foreground" d="" style="display: none; fill: none;"></path></g><g transform="translate(0,0)"><path class="background" d="M0,0h400v300h-400Z" style="fill: none;"></path><g><g class="mark-line role-mark concat_0_marks" clip-path="url(#clip3)"><path d="M0,49.999999999999986L13.333333333333334,52.500000000000014L26.666666666666668,90.00000000000001L40,12.49999999999999L53.333333333333336,200.00000000000003L66.66666666666666,100.00000000000001L80,27.500000000000004L93.33333333333333,87.49999999999999L106.66666666666667,29.999999999999993L120,67.5L133.33333333333331,107.49999999999999L146.66666666666666,85L160,127.50000000000001L173.33333333333334,37.5L186.66666666666666,2.499999999999991L200,137.5L213.33333333333334,117.50000000000001L226.66666666666666,77.49999999999999L240,59.999999999999986L253.33333333333331,190L266.66666666666663,174.99999999999997L280,170L293.3333333333333,182.50000000000003L306.6666666666667,215L320,220.00000000000003L333.33333333333337,225L346.6666666666667,227.5L360,232.5L373.3333333333333,220.00000000000003L386.6666666666667,212.49999999999997L400,235" style="fill: none; stroke: #4c78a8; stroke-width: 2; opacity: 0.7;"></path></g></g><path class="foreground" d="" style="display: none; fill: none;"></path></g></g><g class="mark-group role-title"><g transform="translate(200,-22)"><path class="background" d="M0,0h0v0h0Z" style="pointer-events: none; fill: none;"></path><g><g class="mark-text role-title-text" style="pointer-events: none;"><text text-anchor="middle" transform="translate(0,10)" style="font-family: Roboto Condensed; font-size: 13px; font-weight: normal; fill: #000; opacity: 1;">Daily</text></g></g><path class="foreground" d="" style="pointer-events: none; display: none; fill: none;"></path></g></g></g><path class="foreground" d="" style="display: none; fill: none;"></path></g></g><g class="mark-group role-scope concat_1_group"><g transform="translate(445,0)"><path class="background" d="M0,0h400v300h-400Z" style="fill: none; stroke: #ddd; stroke-width: 0;"></path><g><g class="mark-group role-axis"><g transform="translate(0.5,0.5)"><path class="background" d="M0,0h0v0h0Z" style="pointer-events: none; fill: none;"></path><g><g class="mark-rule role-axis-grid" style="pointer-events: none;"><line transform="translate(0,300)" x2="400" y2="0" style="fill: none; stroke: #ddd; stroke-width: 1; opacity: 1;"></line><line transform="translate(0,267)" x2="400" y2="0" style="fill: none; stroke: #ddd; stroke-width: 1; opacity: 1;"></line><line transform="translate(0,233)" x2="400" y2="0" style="fill: none; stroke: #ddd; stroke-width: 1; opacity: 1;"></line><line transform="translate(0,200)" x2="400" y2="0" style="fill: none; stroke: #ddd; stroke-width: 1; opacity: 1;"></line><line transform="translate(0,167)" x2="400" y2="0" style="fill: none; stroke: #ddd; stroke-width: 1; opacity: 1;"></line><line transform="translate(0,133)" x2="400" y2="0" style="fill: none; stroke: #ddd; stroke-width: 1; opacity: 1;"></line><line transform="translate(0,100)" x2="400" y2="0" style="fill: none; stroke: #ddd; stroke-width: 1; opacity: 1;"></line><line transform="translate(0,67)" x2="400" y2="0" style="fill: none; stroke: #ddd; stroke-width: 1; opacity: 1;"></line><line transform="translate(0,33)" x2="400" y2="0" style="fill: none; stroke: #ddd; stroke-width: 1; opacity: 1;"></line><line transform="translate(0,0)" x2="400" y2="0" style="fill: none; stroke: #ddd; stroke-width: 1; opacity: 1;"></line></g></g><path class="foreground" d="" style="pointer-events: none; display: none; fill: none;"></path></g></g><g class="mark-group role-axis"><g transform="translate(0.5,300.5)"><path class="background" d="M0,0h0v0h0Z" style="pointer-events: none; fill: none;"></path><g><g class="mark-text role-axis-label" style="pointer-events: none;"><text text-anchor="middle" transform="translate(16,10)" style="font-family: Roboto Condensed; font-size: 10px; fill: #000; opacity: 1;">Mar 01</text><text text-anchor="middle" transform="translate(72,10)" style="font-family: Roboto Condensed; font-size: 10px; fill: #000; opacity: 1;">Mar 08</text><text text-anchor="middle" transform="translate(128,10)" style="font-family: Roboto Condensed; font-size: 10px; fill: #000; opacity: 1;">Mar 15</text><text text-anchor="middle" transform="translate(184,10)" style="font-family: Roboto Condensed; font-size: 10px; fill: #000; opacity: 1;">Mar 22</text><text text-anchor="middle" transform="translate(240,10)" style="font-family: Roboto Condensed; font-size: 10px; fill: #000; opacity: 1;">Mar 29</text><text text-anchor="middle" transform="translate(296,10)" style="font-family: Roboto Condensed; font-size: 10px; fill: #000; opacity: 1;">Apr 05</text><text text-anchor="middle" transform="translate(352,10)" style="font-family: Roboto Condensed; font-size: 10px; fill: #000; opacity: 1;">Apr 12</text></g><g class="mark-rule role-axis-domain" style="pointer-events: none;"><line transform="translate(0,0)" x2="400" y2="0" style="fill: none; stroke: lightgray; stroke-width: 1; opacity: 1;"></line></g></g><path class="foreground" d="" style="pointer-events: none; display: none; fill: none;"></path></g></g><g class="mark-group role-axis"><g transform="translate(0.5,0.5)"><path class="background" d="M0,0h0v0h0Z" style="pointer-events: none; fill: none;"></path><g><g class="mark-text role-axis-label" style="pointer-events: none;"><text text-anchor="end" transform="translate(-2,303)" style="font-family: Roboto Condensed; font-size: 10px; fill: #000; opacity: 1;">0</text><text text-anchor="end" transform="translate(-2,269.66666666666663)" style="font-family: Roboto Condensed; font-size: 10px; fill: #000; opacity: 1;">200</text><text text-anchor="end" transform="translate(-2,236.33333333333334)" style="font-family: Roboto Condensed; font-size: 10px; fill: #000; opacity: 1;">400</text><text text-anchor="end" transform="translate(-2,203.00000000000003)" style="font-family: Roboto Condensed; font-size: 10px; fill: #000; opacity: 1;">600</text><text text-anchor="end" transform="translate(-2,169.66666666666669)" style="font-family: Roboto Condensed; font-size: 10px; fill: #000; opacity: 1;">800</text><text text-anchor="end" transform="translate(-2,136.33333333333331)" style="font-family: Roboto Condensed; font-size: 10px; fill: #000; opacity: 1;">1,000</text><text text-anchor="end" transform="translate(-2,103.00000000000001)" style="font-family: Roboto Condensed; font-size: 10px; fill: #000; opacity: 1;">1,200</text><text text-anchor="end" transform="translate(-2,69.66666666666666)" style="font-family: Roboto Condensed; font-size: 10px; fill: #000; opacity: 1;">1,400</text><text text-anchor="end" transform="translate(-2,36.33333333333335)" style="font-family: Roboto Condensed; font-size: 10px; fill: #000; opacity: 1;">1,600</text><text text-anchor="end" transform="translate(-2,3)" style="font-family: Roboto Condensed; font-size: 10px; fill: #000; opacity: 1;">1,800</text></g><g class="mark-rule role-axis-domain" style="pointer-events: none;"><line transform="translate(0,300)" x2="0" y2="-300" style="fill: none; stroke: lightgray; stroke-width: 1; opacity: 1;"></line></g></g><path class="foreground" d="" style="pointer-events: none; display: none; fill: none;"></path></g></g><g class="mark-group role-scope concat_1_pathgroup"><g transform="translate(0,0)"><path class="background" d="M0,0h400v300h-400Z" style="fill: none;"></path><g><g class="mark-line role-mark concat_1_marks" clip-path="url(#clip4)"><path d="M0,300L8,300L16,300L24,300L32,300L40,300L48,300L56.00000000000001,300L64,300L72,300L80,300L88,299.8333333333333L96,299.8333333333333L104,299.8333333333333L112.00000000000001,299.8333333333333L120,299.8333333333333L128,298.6666666666667L136,300L144,300L152,299.1666666666667L160,299.1666666666667L168,299.1666666666667L176,296.3333333333333L184,299.1666666666667L192,291.5L200,291.5L208,290.6666666666667L216,286.3333333333333L224.00000000000003,283.8333333333333L231.99999999999997,281L240,277.5L248,273.8333333333333L256,267L264,262.5L272,252.66666666666666L280,248.5L288,234L296,228.66666666666669L304,223.33333333333334L312,206.83333333333337L320,194.5L328,185.33333333333331L336,174.83333333333334L344,159.83333333333334L352,151.83333333333334L360,144.5L368,135.16666666666669L376,120.49999999999999L384,109.33333333333334L392,95.99999999999999L400,84.83333333333334" style="fill: none; stroke: #e45756; stroke-width: 2; opacity: 0.7;"></path></g></g><path class="foreground" d="" style="display: none; fill: none;"></path></g><g transform="translate(0,0)"><path class="background" d="M0,0h400v300h-400Z" style="fill: none;"></path><g><g class="mark-line role-mark concat_1_marks" clip-path="url(#clip5)"><path d="M0,300L8,300L16,300L24,300L32,300L40,300L48,300L56.00000000000001,300L64,300L72,300L80,300L88,300L96,300L104,300L112.00000000000001,300L120,300L128,299.1666666666667L136,300L144,299.8333333333333L152,299.8333333333333L160,299.8333333333333L168,300L176,299.8333333333333L184,299.8333333333333L192,299.8333333333333L200,299.6666666666667L208,299.6666666666667L216,299.6666666666667L224.00000000000003,299.6666666666667L231.99999999999997,299.6666666666667L240,299.6666666666667L248,299.6666666666667L256,299.6666666666667L264,299.6666666666667L272,299.3333333333333L280,299.3333333333333L288,299.3333333333333L296,299.3333333333333L304,299L312,299L320,299L328,299L336,298.8333333333333L344,298.6666666666667L352,298.6666666666667L360,298.6666666666667L368,298.6666666666667L376,298.6666666666667L384,298.6666666666667L392,298.5L400,298.5" style="fill: none; stroke: #f58518; stroke-width: 2; opacity: 0.7;"></path></g></g><path class="foreground" d="" style="display: none; fill: none;"></path></g><g transform="translate(0,0)"><path class="background" d="M0,0h400v300h-400Z" style="fill: none;"></path><g><g class="mark-line role-mark concat_1_marks" clip-path="url(#clip6)"><path d="M0,299.8333333333333L8,299.8333333333333L16,299.5L24,299L32,298.1666666666667L40,295.66666666666663L48,294.33333333333337L56.00000000000001,292.83333333333337L64,291.6666666666667L72,291.6666666666667L80,290.3333333333333L88,288.5L96,285.8333333333333L104,282.83333333333337L112.00000000000001,277.6666666666667L120,274L128,271.5L136,270L144,263.3333333333333L152,258.33333333333337L160,245L168,231.83333333333334L176,221.16666666666666L184,205.33333333333331L192,202L200,192L208,177.16666666666666L216,166.33333333333334L224.00000000000003,151.66666666666666L231.99999999999997,139.5L240,130L248,118.99999999999999L256,110.83333333333334L264,96.66666666666666L272,80.16666666666667L280,72.66666666666667L288,63.83333333333332L296,52.33333333333332L304,39.66666666666667L312,35.66666666666668L320,30.666666666666664L328,25.33333333333333L336,20.833333333333325L344,18.499999999999993L352,16.500000000000014L360,14.833333333333321L368,13.33333333333332L376,12.16666666666667L384,10.166666666666657L392,7.666666666666666L400,6.666666666666677" style="fill: none; stroke: #4c78a8; stroke-width: 2; opacity: 0.7;"></path></g></g><path class="foreground" d="" style="display: none; fill: none;"></path></g></g><g class="mark-group role-title"><g transform="translate(200,-22)"><path class="background" d="M0,0h0v0h0Z" style="pointer-events: none; fill: none;"></path><g><g class="mark-text role-title-text" style="pointer-events: none;"><text text-anchor="middle" transform="translate(0,10)" style="font-family: Roboto Condensed; font-size: 13px; font-weight: normal; fill: #000; opacity: 1;">Total</text></g></g><path class="foreground" d="" style="pointer-events: none; display: none; fill: none;"></path></g></g></g><path class="foreground" d="" style="display: none; fill: none;"></path></g></g><g class="mark-group role-legend"><g transform="translate(863,0)"><path class="background" d="M0,0h60v37h-60Z" style="pointer-events: none; fill: none;"></path><g><g class="mark-group role-legend-entry"><g transform="translate(0,0)"><path class="background" d="M0,0h0v0h0Z" style="pointer-events: none; fill: none;"></path><g><g class="mark-group role-scope"><g transform="translate(0,0)"><path class="background" d="M0,0h59.3251953125v11h-59.3251953125Z" style="pointer-events: none; fill: none; opacity: 1;"></path><g><g class="mark-symbol role-legend-symbol" style="pointer-events: none;"><path transform="translate(6,6)" d="M-5,0L5,0" style="fill: none; stroke: #4c78a8; stroke-width: 1.5; opacity: 0.7;"></path></g><g class="mark-text role-legend-label" style="pointer-events: none;"><text text-anchor="start" transform="translate(16,9)" style="font-family: Roboto Condensed; font-size: 10px; fill: #000; opacity: 1;">Confirmed</text></g></g><path class="foreground" d="" style="pointer-events: none; display: none; fill: none;"></path></g><g transform="translate(0,13)"><path class="background" d="M0,0h59.3251953125v11h-59.3251953125Z" style="pointer-events: none; fill: none; opacity: 1;"></path><g><g class="mark-symbol role-legend-symbol" style="pointer-events: none;"><path transform="translate(6,6)" d="M-5,0L5,0" style="fill: none; stroke: #f58518; stroke-width: 1.5; opacity: 0.7;"></path></g><g class="mark-text role-legend-label" style="pointer-events: none;"><text text-anchor="start" transform="translate(16,9)" style="font-family: Roboto Condensed; font-size: 10px; fill: #000; opacity: 1;">Deaths</text></g></g><path class="foreground" d="" style="pointer-events: none; display: none; fill: none;"></path></g><g transform="translate(0,26)"><path class="background" d="M0,0h59.3251953125v11h-59.3251953125Z" style="pointer-events: none; fill: none; opacity: 1;"></path><g><g class="mark-symbol role-legend-symbol" style="pointer-events: none;"><path transform="translate(6,6)" d="M-5,0L5,0" style="fill: none; stroke: #e45756; stroke-width: 1.5; opacity: 0.7;"></path></g><g class="mark-text role-legend-label" style="pointer-events: none;"><text text-anchor="start" transform="translate(16,9)" style="font-family: Roboto Condensed; font-size: 10px; fill: #000; opacity: 1;">Recovered</text></g></g><path class="foreground" d="" style="pointer-events: none; display: none; fill: none;"></path></g></g></g><path class="foreground" d="" style="pointer-events: none; display: none; fill: none;"></path></g></g></g><path class="foreground" d="" style="pointer-events: none; display: none; fill: none;"></path></g></g></g><path class="foreground" d="" style="display: none; fill: none;"></path></g></g></g></svg>