<svg class="marks" width="781" height="244" viewBox="0 0 781 244" version="1.1" xmlns="http://www.w3.org/2000/svg" xmlns:xlink="http://www.w3.org/1999/xlink"><rect width="781" height="244" style="fill: white;"></rect><defs><clipPath id="clip1"><rect x="0" y="0" width="200" height="200"></rect></clipPath><clipPath id="clip2"><rect x="0" y="0" width="200" height="200"></rect></clipPath><clipPath id="clip3"><rect x="0" y="0" width="200" height="200"></rect></clipPath><clipPath id="clip4"><rect x="0" y="0" width="200" height="200"></rect></clipPath><clipPath id="clip5"><rect x="0" y="0" width="200" height="200"></rect></clipPath><clipPath id="clip6"><rect x="0" y="0" width="200" height="200"></rect></clipPath><clipPath id="clip7"><rect x="0" y="0" width="200" height="200"></rect></clipPath><clipPath id="clip8"><rect x="0" y="0" width="200" height="200"></rect></clipPath><clipPath id="clip9"><rect x="0" y="0" width="200" height="200"></rect></clipPath><clipPath id="clip10"><rect x="0" y="0" width="200" height="200"></rect></clipPath><clipPath id="clip11"><rect x="0" y="0" width="200" height="200"></rect></clipPath><clipPath id="clip12"><rect x="0" y="0" width="200" height="200"></rect></clipPath><clipPath id="clip13"><rect x="0" y="0" width="200" height="200"></rect></clipPath><clipPath id="clip14"><rect x="0" y="0" width="200" height="200"></rect></clipPath><clipPath id="clip15"><rect x="0" y="0" width="200" height="200"></rect></clipPath></defs><g transform="translate(22,27)"><g class="mark-group role-frame root"><g transform="translate(0,0)"><path class="background" d="M0,0h0v0h0Z" style="fill: none;"></path><g><g class="mark-group role-scope concat_0_group"><g transform="translate(0,0)"><path class="background" d="M0,0h0v0h0Z" style="fill: none;"></path><g><g class="mark-group role-scope concat_0_concat_0_group"><g transform="translate(0,0)"><path class="background" d="M0,0h200v200h-200Z" style="fill: none; stroke: #ddd; stroke-width: 0;"></path><g><g class="mark-group role-axis"><g transform="translate(0.5,0.5)"><path class="background" d="M0,0h0v0h0Z" style="pointer-events: none; fill: none;"></path><g><g class="mark-rule role-axis-grid" style="pointer-events: none;"><line transform="translate(0,200)" x2="200" y2="0" style="fill: none; stroke: #ddd; stroke-width: 1; opacity: 1;"></line><line transform="translate(0,150)" x2="200" y2="0" style="fill: none; stroke: #ddd; stroke-width: 1; opacity: 1;"></line><line transform="translate(0,100)" x2="200" y2="0" style="fill: none; stroke: #ddd; stroke-width: 1; opacity: 1;"></line><line transform="translate(0,50)" x2="200" y2="0" style="fill: none; stroke: #ddd; stroke-width: 1; opacity: 1;"></line><line transform="translate(0,0)" x2="200" y2="0" style="fill: none; stroke: #ddd; stroke-width: 1; opacity: 1;"></line></g></g><path class="foreground" d="" style="pointer-events: none; display: none; fill: none;"></path></g></g><g class="mark-group role-axis"><g transform="translate(0.5,200.5)"><path class="background" d="M0,0h0v0h0Z" style="pointer-events: none; fill: none;"></path><g><g class="mark-text role-axis-label" style="pointer-events: none;"><text text-anchor="middle" transform="translate(19.35483870967742,10)" style="font-family: Roboto Condensed; font-size: 10px; fill: #000; opacity: 1;">Mar 22</text><text text-anchor="middle" transform="translate(64.51612903225806,10)" style="font-family: Roboto Condensed; font-size: 10px; fill: #000; opacity: 1;">Mar 29</text><text text-anchor="middle" transform="translate(109.6774193548387,10)" style="font-family: Roboto Condensed; font-size: 10px; fill: #000; opacity: 1;">Apr 05</text><text text-anchor="middle" transform="translate(154.83870967741936,10)" style="font-family: Roboto Condensed; font-size: 10px; fill: #000; opacity: 1;">Apr 12</text><text text-anchor="end" transform="translate(200,10)" style="font-family: Roboto Condensed; font-size: 10px; fill: #000; opacity: 1;">Apr 19</text></g><g class="mark-rule role-axis-domain" style="pointer-events: none;"><line transform="translate(0,0)" x2="200" y2="0" style="fill: none; stroke: lightgray; stroke-width: 1; opacity: 1;"></line></g></g><path class="foreground" d="" style="pointer-events: none; display: none; fill: none;"></path></g></g><g class="mark-group role-axis"><g transform="translate(0.5,0.5)"><path class="background" d="M0,0h0v0h0Z" style="pointer-events: none; fill: none;"></path><g><g class="mark-text role-axis-label" style="pointer-events: none;"><text text-anchor="end" transform="translate(-2,203)" style="font-family: Roboto Condensed; font-size: 10px; fill: #000; opacity: 1;">0</text><text text-anchor="end" transform="translate(-2,153)" style="font-family: Roboto Condensed; font-size: 10px; fill: #000; opacity: 1;">200</text><text text-anchor="end" transform="translate(-2,103)" style="font-family: Roboto Condensed; font-size: 10px; fill: #000; opacity: 1;">400</text><text text-anchor="end" transform="translate(-2,53)" style="font-family: Roboto Condensed; font-size: 10px; fill: #000; opacity: 1;">600</text><text text-anchor="end" transform="translate(-2,3)" style="font-family: Roboto Condensed; font-size: 10px; fill: #000; opacity: 1;">800</text></g><g class="mark-rule role-axis-domain" style="pointer-events: none;"><line transform="translate(0,200)" x2="0" y2="-200" style="fill: none; stroke: lightgray; stroke-width: 1; opacity: 1;"></line></g></g><path class="foreground" d="" style="pointer-events: none; display: none; fill: none;"></path></g></g><g class="mark-group role-scope concat_0_concat_0_pathgroup"><g transform="translate(0,0)"><path class="background" d="M0,0h200v200h-200Z" style="fill: none;"></path><g><g class="mark-line role-mark concat_0_concat_0_marks" clip-path="url(#clip1)"><path d="M0,172.5L6.451612903225806,172L12.903225806451612,179.25L19.35483870967742,176.5L25.806451612903224,185.5L32.25806451612903,163.5L38.70967741935484,164L45.16129032258064,159.75L51.61290322580645,155.75L58.06451612903226,158.5L64.51612903225806,150.5L70.96774193548387,152.25L77.41935483870968,129L83.87096774193549,137.25L90.32258064516128,129.25L96.7741935483871,106.74999999999999L103.2258064516129,119.24999999999999L109.6774193548387,127L116.12903225806453,121.49999999999999L122.58064516129032,102.25L129.03225806451613,117.24999999999999L135.48387096774192,141.75L141.93548387096774,154L148.38709677419354,155.75L154.83870967741936,155.5L161.29032258064515,164L167.74193548387098,151.75L174.19354838709677,157.5L180.64516129032256,150.5L187.09677419354838,151.5L193.5483870967742,157.75L200,164.25" style="fill: none; stroke: #4c78a8; stroke-width: 2; opacity: 1;"></path></g></g><path class="foreground" d="" style="display: none; fill: none;"></path></g><g transform="translate(0,0)"><path class="background" d="M0,0h200v200h-200Z" style="fill: none;"></path><g><g class="mark-line role-mark concat_0_concat_0_marks" clip-path="url(#clip2)"><path d="M0,184L6.451612903225806,187.5L12.903225806451612,181.75L19.35483870967742,174.25L25.806451612903224,181.5L32.25806451612903,177L38.70967741935484,178L45.16129032258064,180.5L51.61290322580645,179.25L58.06451612903226,168.5L64.51612903225806,181.75L70.96774193548387,172L77.41935483870968,183.5L83.87096774193549,193L90.32258064516128,182L96.7741935483871,175.75L103.2258064516129,133.25L109.6774193548387,188.75L116.12903225806453,137.75L122.58064516129032,167L129.03225806451613,155.25L135.48387096774192,170.5L141.93548387096774,159L148.38709677419354,166L154.83870967741936,182.75L161.29032258064515,177.5L167.74193548387098,175.75L174.19354838709677,181L180.64516129032256,167L187.09677419354838,170L193.5483870967742,152L200,174.5" style="fill: none; stroke: #f58518; stroke-width: 2; opacity: 1;"></path></g></g><path class="foreground" d="" style="display: none; fill: none;"></path></g><g transform="translate(0,0)"><path class="background" d="M0,0h200v200h-200Z" style="fill: none;"></path><g><g class="mark-line role-mark concat_0_concat_0_marks" clip-path="url(#clip3)"><path d="M0,180L6.451612903225806,180.25L12.903225806451612,184L19.35483870967742,176.25L25.806451612903224,195L32.25806451612903,185L38.70967741935484,177.75L45.16129032258064,183.75L51.61290322580645,178L58.06451612903226,181.75L64.51612903225806,185.75L70.96774193548387,183.5L77.41935483870968,187.75L83.87096774193549,178.75L90.32258064516128,175.25L96.7741935483871,188.75L103.2258064516129,186.75L109.6774193548387,182.75L116.12903225806453,181L122.58064516129032,194L129.03225806451613,192.5L135.48387096774192,192L141.93548387096774,193.25L148.38709677419354,196.5L154.83870967741936,197L161.29032258064515,197.5L167.74193548387098,197.75L174.19354838709677,198.25L180.64516129032256,197L187.09677419354838,196.25L193.5483870967742,198.5L200,197.25" style="fill: none; stroke: #e45756; stroke-width: 2; opacity: 1;"></path></g></g><path class="foreground" d="" style="display: none; fill: none;"></path></g><g transform="translate(0,0)"><path class="background" d="M0,0h200v200h-200Z" style="fill: none;"></path><g><g class="mark-line role-mark concat_0_concat_0_marks" clip-path="url(#clip4)"><path d="M0,151L6.451612903225806,158L12.903225806451612,149L19.35483870967742,163.75L25.806451612903224,110.5L32.25806451612903,139.5L38.70967741935484,144.75L45.16129032258064,128.75L51.61290322580645,103.50000000000001L58.06451612903226,135L64.51612903225806,132.75L70.96774193548387,159.75L77.41935483870968,151L83.87096774193549,144.49999999999997L90.32258064516128,129L96.7741935483871,144.25L103.2258064516129,155L109.6774193548387,165.75L116.12903225806453,155.5L122.58064516129032,144.75L129.03225806451613,200L135.48387096774192,168.75L141.93548387096774,174.25L148.38709677419354,176.25L154.83870967741936,171L161.29032258064515,180.5L167.74193548387098,195L174.19354838709677,170.75L180.64516129032256,161L187.09677419354838,189.75L193.5483870967742,175.25L200,189.5" style="fill: none; stroke: #72b7b2; stroke-width: 2; opacity: 1;"></path></g></g><path class="foreground" d="" style="display: none; fill: none;"></path></g><g transform="translate(0,0)"><path class="background" d="M0,0h200v200h-200Z" style="fill: none;"></path><g><g class="mark-line role-mark concat_0_concat_0_marks" clip-path="url(#clip5)"><path d="M0,160L6.451612903225806,150L12.903225806451612,169L19.35483870967742,158L25.806451612903224,171.25L32.25806451612903,140L38.70967741935484,140L45.16129032258064,121.49999999999999L51.61290322580645,142.75L58.06451612903226,105.50000000000001L64.51612903225806,136.75000000000003L70.96774193548387,118.00000000000001L77.41935483870968,98.25L83.87096774193549,72L90.32258064516128,44.75L96.7741935483871,59.25L103.2258064516129,122L109.6774193548387,103.25L116.12903225806453,106L122.58064516129032,78.25L129.03225806451613,18.500000000000007L135.48387096774192,19.500000000000007L141.93548387096774,63.99999999999999L148.38709677419354,83.5L154.83870967741936,117L161.29032258064515,83.74999999999999L167.74193548387098,75.75L174.19354838709677,79.5L180.64516129032256,46.75L187.09677419354838,31.000000000000007L193.5483870967742,48.50000000000001L200,59.25" style="fill: none; stroke: #54a24b; stroke-width: 2; opacity: 1;"></path></g></g><path class="foreground" d="" style="display: none; fill: none;"></path></g></g><g class="mark-group role-title"><g transform="translate(100,-22)"><path class="background" d="M0,0h0v0h0Z" style="pointer-events: none; fill: none;"></path><g><g class="mark-text role-title-text" style="pointer-events: none;"><text text-anchor="middle" transform="translate(0,10)" style="font-family: Roboto Condensed; font-size: 13px; font-weight: normal; fill: #000; opacity: 1;">Confirmed/day</text></g></g><path class="foreground" d="" style="pointer-events: none; display: none; fill: none;"></path></g></g></g><path class="foreground" d="" style="display: none; fill: none;"></path></g></g><g class="mark-group role-scope concat_0_concat_1_group"><g transform="translate(237,0)"><path class="background" d="M0,0h200v200h-200Z" style="fill: none; stroke: #ddd; stroke-width: 0;"></path><g><g class="mark-group role-axis"><g transform="translate(0.5,0.5)"><path class="background" d="M0,0h0v0h0Z" style="pointer-events: none; fill: none;"></path><g><g class="mark-rule role-axis-grid" style="pointer-events: none;"><line transform="translate(0,180)" x2="200" y2="0" style="fill: none; stroke: #ddd; stroke-width: 1; opacity: 1;"></line><line transform="translate(0,130)" x2="200" y2="0" style="fill: none; stroke: #ddd; stroke-width: 1; opacity: 1;"></line><line transform="translate(0,80)" x2="200" y2="0" style="fill: none; stroke: #ddd; stroke-width: 1; opacity: 1;"></line><line transform="translate(0,30)" x2="200" y2="0" style="fill: none; stroke: #ddd; stroke-width: 1; opacity: 1;"></line></g></g><path class="foreground" d="" style="pointer-events: none; display: none; fill: none;"></path></g></g><g class="mark-group role-axis"><g transform="translate(0.5,200.5)"><path class="background" d="M0,0h0v0h0Z" style="pointer-events: none; fill: none;"></path><g><g class="mark-text role-axis-label" style="pointer-events: none;"><text text-anchor="middle" transform="translate(19.35483870967742,10)" style="font-family: Roboto Condensed; font-size: 10px; fill: #000; opacity: 1;">Mar 22</text><text text-anchor="middle" transform="translate(64.51612903225806,10)" style="font-family: Roboto Condensed; font-size: 10px; fill: #000; opacity: 1;">Mar 29</text><text text-anchor="middle" transform="translate(109.6774193548387,10)" style="font-family: Roboto Condensed; font-size: 10px; fill: #000; opacity: 1;">Apr 05</text><text text-anchor="middle" transform="translate(154.83870967741936,10)" style="font-family: Roboto Condensed; font-size: 10px; fill: #000; opacity: 1;">Apr 12</text><text text-anchor="end" transform="translate(200,10)" style="font-family: Roboto Condensed; font-size: 10px; fill: #000; opacity: 1;">Apr 19</text></g><g class="mark-rule role-axis-domain" style="pointer-events: none;"><line transform="translate(0,0)" x2="200" y2="0" style="fill: none; stroke: lightgray; stroke-width: 1; opacity: 1;"></line></g></g><path class="foreground" d="" style="pointer-events: none; display: none; fill: none;"></path></g></g><g class="mark-group role-axis"><g transform="translate(0.5,0.5)"><path class="background" d="M0,0h0v0h0Z" style="pointer-events: none; fill: none;"></path><g><g class="mark-text role-axis-label" style="pointer-events: none;"><text text-anchor="end" transform="translate(-2,183)" style="font-family: Roboto Condensed; font-size: 10px; fill: #000; opacity: 1;">0</text><text text-anchor="end" transform="translate(-2,133)" style="font-family: Roboto Condensed; font-size: 10px; fill: #000; opacity: 1;">50</text><text text-anchor="end" transform="translate(-2,83)" style="font-family: Roboto Condensed; font-size: 10px; fill: #000; opacity: 1;">100</text><text text-anchor="end" transform="translate(-2,33)" style="font-family: Roboto Condensed; font-size: 10px; fill: #000; opacity: 1;">150</text></g><g class="mark-rule role-axis-domain" style="pointer-events: none;"><line transform="translate(0,200)" x2="0" y2="-200" style="fill: none; stroke: lightgray; stroke-width: 1; opacity: 1;"></line></g></g><path class="foreground" d="" style="pointer-events: none; display: none; fill: none;"></path></g></g><g class="mark-group role-scope concat_0_concat_1_pathgroup"><g transform="translate(0,0)"><path class="background" d="M0,0h200v200h-200Z" style="fill: none;"></path><g><g class="mark-line role-mark concat_0_concat_1_marks" clip-path="url(#clip6)"><path d="M0,178L6.451612903225806,177L12.903225806451612,176L19.35483870967742,180L25.806451612903224,169L32.25806451612903,172L38.70967741935484,178L45.16129032258064,173L51.61290322580645,169L58.06451612903226,167L64.51612903225806,173L70.96774193548387,175L77.41935483870968,167L83.87096774193549,166L90.32258064516128,161L96.7741935483871,164L103.2258064516129,158L109.6774193548387,162L116.12903225806453,172L122.58064516129032,164L129.03225806451613,165L135.48387096774192,161L141.93548387096774,170L148.38709677419354,167L154.83870967741936,167L161.29032258064515,168L167.74193548387098,166L174.19354838709677,170L180.64516129032256,168L187.09677419354838,165L193.5483870967742,170L200,171" style="fill: none; stroke: #4c78a8; stroke-width: 2; opacity: 1;"></path></g></g><path class="foreground" d="" style="display: none; fill: none;"></path></g><g transform="translate(0,0)"><path class="background" d="M0,0h200v200h-200Z" style="fill: none;"></path><g><g class="mark-line role-mark concat_0_concat_1_marks" clip-path="url(#clip7)"><path d="M0,180L6.451612903225806,180L12.903225806451612,179L19.35483870967742,180L25.806451612903224,180L32.25806451612903,180L38.70967741935484,178L45.16129032258064,178L51.61290322580645,178L58.06451612903226,178L64.51612903225806,178L70.96774193548387,178L77.41935483870968,176L83.87096774193549,180L90.32258064516128,178L96.7741935483871,179L103.2258064516129,175L109.6774193548387,177L116.12903225806453,181L122.58064516129032,173L129.03225806451613,174L135.48387096774192,178L141.93548387096774,174L148.38709677419354,179L154.83870967741936,173L161.29032258064515,177L167.74193548387098,175L174.19354838709677,172L180.64516129032256,177L187.09677419354838,173L193.5483870967742,172L200,176" style="fill: none; stroke: #f58518; stroke-width: 2; opacity: 1;"></path></g></g><path class="foreground" d="" style="display: none; fill: none;"></path></g><g transform="translate(0,0)"><path class="background" d="M0,0h200v200h-200Z" style="fill: none;"></path><g><g class="mark-line role-mark concat_0_concat_1_marks" clip-path="url(#clip8)"><path d="M0,180L6.451612903225806,181L12.903225806451612,179L19.35483870967742,180L25.806451612903224,180L32.25806451612903,179L38.70967741935484,180L45.16129032258064,180L51.61290322580645,180L58.06451612903226,180L64.51612903225806,180L70.96774193548387,180L77.41935483870968,180L83.87096774193549,180L90.32258064516128,178L96.7741935483871,180L103.2258064516129,180L109.6774193548387,180L116.12903225806453,178L122.58064516129032,180L129.03225806451613,180L135.48387096774192,180L141.93548387096774,179L148.38709677419354,179L154.83870967741936,180L161.29032258064515,180L167.74193548387098,180L174.19354838709677,180L180.64516129032256,180L187.09677419354838,179L193.5483870967742,180L200,180" style="fill: none; stroke: #e45756; stroke-width: 2; opacity: 1;"></path></g></g><path class="foreground" d="" style="display: none; fill: none;"></path></g><g transform="translate(0,0)"><path class="background" d="M0,0h200v200h-200Z" style="fill: none;"></path><g><g class="mark-line role-mark concat_0_concat_1_marks" clip-path="url(#clip9)"><path d="M0,179L6.451612903225806,180L12.903225806451612,180L19.35483870967742,180L25.806451612903224,177L32.25806451612903,178L38.70967741935484,178L45.16129032258064,180L51.61290322580645,175L58.06451612903226,176L64.51612903225806,178L70.96774193548387,173L77.41935483870968,173L83.87096774193549,175L90.32258064516128,174L96.7741935483871,171L103.2258064516129,177L109.6774193548387,171L116.12903225806453,175L122.58064516129032,167L129.03225806451613,168L135.48387096774192,173L141.93548387096774,175L148.38709677419354,174L154.83870967741936,171L161.29032258064515,174L167.74193548387098,175L174.19354838709677,169L180.64516129032256,178L187.09677419354838,171L193.5483870967742,177L200,179" style="fill: none; stroke: #72b7b2; stroke-width: 2; opacity: 1;"></path></g></g><path class="foreground" d="" style="display: none; fill: none;"></path></g><g transform="translate(0,0)"><path class="background" d="M0,0h200v200h-200Z" style="fill: none;"></path><g><g class="mark-line role-mark concat_0_concat_1_marks" clip-path="url(#clip10)"><path d="M0,179L6.451612903225806,175L12.903225806451612,176L19.35483870967742,179L25.806451612903224,176L32.25806451612903,169L38.70967741935484,154L45.16129032258064,165L51.61290322580645,152L58.06451612903226,180L64.51612903225806,175L70.96774193548387,144L77.41935483870968,146L83.87096774193549,121L90.32258064516128,110.99999999999999L96.7741935483871,130L103.2258064516129,165L109.6774193548387,152L116.12903225806453,104L122.58064516129032,65.99999999999999L129.03225806451613,84.00000000000001L135.48387096774192,74L141.93548387096774,103L148.38709677419354,163L154.83870967741936,168L161.29032258064515,160L167.74193548387098,65.99999999999999L174.19354838709677,10.000000000000009L180.64516129032256,50L187.09677419354838,112.99999999999999L193.5483870967742,69L200,151" style="fill: none; stroke: #54a24b; stroke-width: 2; opacity: 1;"></path></g></g><path class="foreground" d="" style="display: none; fill: none;"></path></g></g><g class="mark-group role-title"><g transform="translate(100,-17)"><path class="background" d="M0,0h0v0h0Z" style="pointer-events: none; fill: none;"></path><g><g class="mark-text role-title-text" style="pointer-events: none;"><text text-anchor="middle" transform="translate(0,10)" style="font-family: Roboto Condensed; font-size: 13px; font-weight: normal; fill: #000; opacity: 1;">Deaths/day</text></g></g><path class="foreground" d="" style="pointer-events: none; display: none; fill: none;"></path></g></g></g><path class="foreground" d="" style="display: none; fill: none;"></path></g></g><g class="mark-group role-scope concat_0_concat_2_group"><g transform="translate(482,0)"><path class="background" d="M0,0h200v200h-200Z" style="fill: none; stroke: #ddd; stroke-width: 0;"></path><g><g class="mark-group role-axis"><g transform="translate(0.5,0.5)"><path class="background" d="M0,0h0v0h0Z" style="pointer-events: none; fill: none;"></path><g><g class="mark-rule role-axis-grid" style="pointer-events: none;"><line transform="translate(0,175)" x2="200" y2="0" style="fill: none; stroke: #ddd; stroke-width: 1; opacity: 1;"></line><line transform="translate(0,113)" x2="200" y2="0" style="fill: none; stroke: #ddd; stroke-width: 1; opacity: 1;"></line><line transform="translate(0,50)" x2="200" y2="0" style="fill: none; stroke: #ddd; stroke-width: 1; opacity: 1;"></line></g></g><path class="foreground" d="" style="pointer-events: none; display: none; fill: none;"></path></g></g><g class="mark-group role-axis"><g transform="translate(0.5,200.5)"><path class="background" d="M0,0h0v0h0Z" style="pointer-events: none; fill: none;"></path><g><g class="mark-text role-axis-label" style="pointer-events: none;"><text text-anchor="middle" transform="translate(19.35483870967742,10)" style="font-family: Roboto Condensed; font-size: 10px; fill: #000; opacity: 1;">Mar 22</text><text text-anchor="middle" transform="translate(64.51612903225806,10)" style="font-family: Roboto Condensed; font-size: 10px; fill: #000; opacity: 1;">Mar 29</text><text text-anchor="middle" transform="translate(109.6774193548387,10)" style="font-family: Roboto Condensed; font-size: 10px; fill: #000; opacity: 1;">Apr 05</text><text text-anchor="middle" transform="translate(154.83870967741936,10)" style="font-family: Roboto Condensed; font-size: 10px; fill: #000; opacity: 1;">Apr 12</text><text text-anchor="end" transform="translate(200,10)" style="font-family: Roboto Condensed; font-size: 10px; fill: #000; opacity: 1;">Apr 19</text></g><g class="mark-rule role-axis-domain" style="pointer-events: none;"><line transform="translate(0,0)" x2="200" y2="0" style="fill: none; stroke: lightgray; stroke-width: 1; opacity: 1;"></line></g></g><path class="foreground" d="" style="pointer-events: none; display: none; fill: none;"></path></g></g><g class="mark-group role-axis"><g transform="translate(0.5,0.5)"><path class="background" d="M0,0h0v0h0Z" style="pointer-events: none; fill: none;"></path><g><g class="mark-text role-axis-label" style="pointer-events: none;"><text text-anchor="end" transform="translate(-2,178)" style="font-family: Roboto Condensed; font-size: 10px; fill: #000; opacity: 1;">0</text><text text-anchor="end" transform="translate(-2,115.5)" style="font-family: Roboto Condensed; font-size: 10px; fill: #000; opacity: 1;">500</text><text text-anchor="end" transform="translate(-2,53)" style="font-family: Roboto Condensed; font-size: 10px; fill: #000; opacity: 1;">1,000</text></g><g class="mark-rule role-axis-domain" style="pointer-events: none;"><line transform="translate(0,200)" x2="0" y2="-200" style="fill: none; stroke: lightgray; stroke-width: 1; opacity: 1;"></line></g></g><path class="foreground" d="" style="pointer-events: none; display: none; fill: none;"></path></g></g><g class="mark-group role-scope concat_0_concat_2_pathgroup"><g transform="translate(0,0)"><path class="background" d="M0,0h200v200h-200Z" style="fill: none;"></path><g><g class="mark-line role-mark concat_0_concat_2_marks" clip-path="url(#clip11)"><path d="M0,175L6.451612903225806,175L12.903225806451612,175L19.35483870967742,174.625L25.806451612903224,172.5L32.25806451612903,173.5L38.70967741935484,174.375L45.16129032258064,173.875L51.61290322580645,174.125L58.06451612903226,175L64.51612903225806,173L70.96774193548387,175L77.41935483870968,174.5L83.87096774193549,63.25000000000001L90.32258064516128,149.875L96.7741935483871,160.625L103.2258064516129,163.5L109.6774193548387,168.75L116.12903225806453,167.5L122.58064516129032,158.5L129.03225806451613,157.25L135.48387096774192,160L141.93548387096774,169.25L148.38709677419354,152.25L154.83870967741936,152.5L161.29032258064515,161L167.74193548387098,139.25L174.19354838709677,145.5L180.64516129032256,140.25L187.09677419354838,129L193.5483870967742,117.5L200,137.875" style="fill: none; stroke: #4c78a8; stroke-width: 2; opacity: 1;"></path></g></g><path class="foreground" d="" style="display: none; fill: none;"></path></g><g transform="translate(0,0)"><path class="background" d="M0,0h200v200h-200Z" style="fill: none;"></path><g><g class="mark-line role-mark concat_0_concat_2_marks" clip-path="url(#clip12)"><path d="M0,175L6.451612903225806,175L12.903225806451612,175L19.35483870967742,175L25.806451612903224,175L32.25806451612903,175L38.70967741935484,175L45.16129032258064,175L51.61290322580645,175L58.06451612903226,175L64.51612903225806,175L70.96774193548387,175L77.41935483870968,175L83.87096774193549,175L90.32258064516128,138.75L96.7741935483871,175L103.2258064516129,175L109.6774193548387,175L116.12903225806453,175L122.58064516129032,175L129.03225806451613,175L135.48387096774192,175L141.93548387096774,175L148.38709677419354,175L154.83870967741936,175L161.29032258064515,175L167.74193548387098,175L174.19354838709677,175L180.64516129032256,0L187.09677419354838,175L193.5483870967742,175L200,175" style="fill: none; stroke: #f58518; stroke-width: 2; opacity: 1;"></path></g></g><path class="foreground" d="" style="display: none; fill: none;"></path></g><g transform="translate(0,0)"><path class="background" d="M0,0h200v200h-200Z" style="fill: none;"></path><g><g class="mark-line role-mark concat_0_concat_2_marks" clip-path="url(#clip13)"><path d="M0,175L6.451612903225806,175L12.903225806451612,172.875L19.35483870967742,177.125L25.806451612903224,169.25L32.25806451612903,175L38.70967741935484,174.375L45.16129032258064,171.75L51.61290322580645,173.125L58.06451612903226,172.875L64.51612903225806,172.375L70.96774193548387,172.25L77.41935483870968,169.875L83.87096774193549,171.625L90.32258064516128,167.625L96.7741935483871,171.875L103.2258064516129,164.125L109.6774193548387,171L116.12903225806453,171L122.58064516129032,162.625L129.03225806451613,165.75L135.48387096774192,168.125L141.93548387096774,167.125L148.38709677419354,163.75L154.83870967741936,169L161.29032258064515,169.5L167.74193548387098,168L174.19354838709677,164L180.64516129032256,166.625L187.09677419354838,165L193.5483870967742,166.625L200,175" style="fill: none; stroke: #e45756; stroke-width: 2; opacity: 1;"></path></g></g><path class="foreground" d="" style="display: none; fill: none;"></path></g><g transform="translate(0,0)"><path class="background" d="M0,0h200v200h-200Z" style="fill: none;"></path><g><g class="mark-line role-mark concat_0_concat_2_marks" clip-path="url(#clip14)"><path d="M0,175L6.451612903225806,175L12.903225806451612,175L19.35483870967742,174.375L25.806451612903224,175L32.25806451612903,175L38.70967741935484,175L45.16129032258064,175L51.61290322580645,175L58.06451612903226,174.875L64.51612903225806,175L70.96774193548387,174.375L77.41935483870968,174.875L83.87096774193549,175L90.32258064516128,172.625L96.7741935483871,175L103.2258064516129,175L109.6774193548387,175L116.12903225806453,175L122.58064516129032,175L129.03225806451613,175L135.48387096774192,175L141.93548387096774,175L148.38709677419354,175L154.83870967741936,175L161.29032258064515,175L167.74193548387098,175L174.19354838709677,175L180.64516129032256,175L187.09677419354838,175L193.5483870967742,175L200,175" style="fill: none; stroke: #72b7b2; stroke-width: 2; opacity: 1;"></path></g></g><path class="foreground" d="" style="display: none; fill: none;"></path></g><g transform="translate(0,0)"><path class="background" d="M0,0h200v200h-200Z" style="fill: none;"></path><g><g class="mark-line role-mark concat_0_concat_2_marks" clip-path="url(#clip15)"><path d="M0,173.125L6.451612903225806,175L12.903225806451612,175L19.35483870967742,175L25.806451612903224,175L32.25806451612903,175L38.70967741935484,175L45.16129032258064,175L51.61290322580645,175L58.06451612903226,175L64.51612903225806,175L70.96774193548387,175L77.41935483870968,175L83.87096774193549,164.125L90.32258064516128,175L96.7741935483871,162.25L103.2258064516129,175L109.6774193548387,175L116.12903225806453,175L122.58064516129032,175L129.03225806451613,175L135.48387096774192,175L141.93548387096774,153L148.38709677419354,175L154.83870967741936,175L161.29032258064515,175L167.74193548387098,175L174.19354838709677,175L180.64516129032256,153.875L187.09677419354838,175L193.5483870967742,175L200,175" style="fill: none; stroke: #54a24b; stroke-width: 2; opacity: 1;"></path></g></g><path class="foreground" d="" style="display: none; fill: none;"></path></g></g><g class="mark-group role-title"><g transform="translate(100,-17)"><path class="background" d="M0,0h0v0h0Z" style="pointer-events: none; fill: none;"></path><g><g class="mark-text role-title-text" style="pointer-events: none;"><text text-anchor="middle" transform="translate(0,10)" style="font-family: Roboto Condensed; font-size: 13px; font-weight: normal; fill: #000; opacity: 1;">Recovered/day</text></g></g><path class="foreground" d="" style="pointer-events: none; display: none; fill: none;"></path></g></g></g><path class="foreground" d="" style="display: none; fill: none;"></path></g></g></g><path class="foreground" d="" style="display: none; fill: none;"></path></g></g><g class="mark-group role-legend"><g transform="translate(700,0)"><path class="background" d="M0,0h54v63h-54Z" style="pointer-events: none; fill: none;"></path><g><g class="mark-group role-legend-entry"><g transform="translate(0,0)"><path class="background" d="M0,0h0v0h0Z" style="pointer-events: none; fill: none;"></path><g><g class="mark-group role-scope Country_legend_entries"><g transform="translate(0,0)"><path class="background" d="M0,0h53.20703125v11h-53.20703125Z" style="fill: none; opacity: 1;"></path><g><g class="mark-symbol role-legend-symbol Country_legend_symbols"><path transform="translate(6,6)" d="M-5,0L5,0" style="fill: none; stroke: #4c78a8; stroke-width: 1.5; opacity: 1;"></path></g><g class="mark-text role-legend-label Country_legend_labels"><text text-anchor="start" transform="translate(16,9)" style="font-family: Roboto Condensed; font-size: 10px; fill: #000; opacity: 1;">Denmark</text></g></g><path class="foreground" d="" style="display: none; fill: none;"></path></g><g transform="translate(0,13)"><path class="background" d="M0,0h53.20703125v11h-53.20703125Z" style="fill: none; opacity: 1;"></path><g><g class="mark-symbol role-legend-symbol Country_legend_symbols"><path transform="translate(6,6)" d="M-5,0L5,0" style="fill: none; stroke: #f58518; stroke-width: 1.5; opacity: 1;"></path></g><g class="mark-text role-legend-label Country_legend_labels"><text text-anchor="start" transform="translate(16,9)" style="font-family: Roboto Condensed; font-size: 10px; fill: #000; opacity: 1;">Finland</text></g></g><path class="foreground" d="" style="display: none; fill: none;"></path></g><g transform="translate(0,26)"><path class="background" d="M0,0h53.20703125v11h-53.20703125Z" style="fill: none; opacity: 1;"></path><g><g class="mark-symbol role-legend-symbol Country_legend_symbols"><path transform="translate(6,6)" d="M-5,0L5,0" style="fill: none; stroke: #e45756; stroke-width: 1.5; opacity: 1;"></path></g><g class="mark-text role-legend-label Country_legend_labels"><text text-anchor="start" transform="translate(16,9)" style="font-family: Roboto Condensed; font-size: 10px; fill: #000; opacity: 1;">Iceland</text></g></g><path class="foreground" d="" style="display: none; fill: none;"></path></g><g transform="translate(0,39)"><path class="background" d="M0,0h53.20703125v11h-53.20703125Z" style="fill: none; opacity: 1;"></path><g><g class="mark-symbol role-legend-symbol Country_legend_symbols"><path transform="translate(6,6)" d="M-5,0L5,0" style="fill: none; stroke: #72b7b2; stroke-width: 1.5; opacity: 1;"></path></g><g class="mark-text role-legend-label Country_legend_labels"><text text-anchor="start" transform="translate(16,9)" style="font-family: Roboto Condensed; font-size: 10px; fill: #000; opacity: 1;">Norway</text></g></g><path class="foreground" d="" style="display: none; fill: none;"></path></g><g transform="translate(0,52)"><path class="background" d="M0,0h53.20703125v11h-53.20703125Z" style="fill: none; opacity: 1;"></path><g><g class="mark-symbol role-legend-symbol Country_legend_symbols"><path transform="translate(6,6)" d="M-5,0L5,0" style="fill: none; stroke: #54a24b; stroke-width: 1.5; opacity: 1;"></path></g><g class="mark-text role-legend-label Country_legend_labels"><text text-anchor="start" transform="translate(16,9)" style="font-family: Roboto Condensed; font-size: 10px; fill: #000; opacity: 1;">Sweden</text></g></g><path class="foreground" d="" style="display: none; fill: none;"></path></g></g></g><path class="foreground" d="" style="pointer-events: none; display: none; fill: none;"></path></g></g></g><path class="foreground" d="" style="pointer-events: none; display: none; fill: none;"></path></g></g></g><path class="foreground" d="" style="display: none; fill: none;"></path></g></g></g></svg>