<svg class="marks" width="955" height="344" viewBox="0 0 955 344" version="1.1" xmlns="http://www.w3.org/2000/svg" xmlns:xlink="http://www.w3.org/1999/xlink"><rect width="955" height="344" style="fill: white;"></rect><defs><clipPath id="clip1"><rect x="0" y="0" width="400" height="300"></rect></clipPath><clipPath id="clip2"><rect x="0" y="0" width="400" height="300"></rect></clipPath><clipPath id="clip3"><rect x="0" y="0" width="400" height="300"></rect></clipPath><clipPath id="clip4"><rect x="0" y="0" width="400" height="300"></rect></clipPath><clipPath id="clip5"><rect x="0" y="0" width="400" height="300"></rect></clipPath><clipPath id="clip6"><rect x="0" y="0" width="400" height="300"></rect></clipPath></defs><g transform="translate(22,27)"><g class="mark-group role-frame root"><g transform="translate(0,0)"><path class="background" d="M0,0h0v0h0Z" style="fill: none;"></path><g><g class="mark-group role-scope concat_0_group"><g transform="translate(0,0)"><path class="background" d="M0,0h400v300h-400Z" style="fill: none; stroke: #ddd; stroke-width: 0;"></path><g><g class="mark-group role-axis"><g transform="translate(0.5,0.5)"><path class="background" d="M0,0h0v0h0Z" style="pointer-events: none; fill: none;"></path><g><g class="mark-rule role-axis-grid" style="pointer-events: none;"><line transform="translate(0,300)" x2="400" y2="0" style="fill: none; stroke: #ddd; stroke-width: 1; opacity: 1;"></line><line transform="translate(0,263)" x2="400" y2="0" style="fill: none; stroke: #ddd; stroke-width: 1; opacity: 1;"></line><line transform="translate(0,225)" x2="400" y2="0" style="fill: none; stroke: #ddd; stroke-width: 1; opacity: 1;"></line><line transform="translate(0,188)" x2="400" y2="0" style="fill: none; stroke: #ddd; stroke-width: 1; opacity: 1;"></line><line transform="translate(0,150)" x2="400" y2="0" style="fill: none; stroke: #ddd; stroke-width: 1; opacity: 1;"></line><line transform="translate(0,113)" x2="400" y2="0" style="fill: none; stroke: #ddd; stroke-width: 1; opacity: 1;"></line><line transform="translate(0,75)" x2="400" y2="0" style="fill: none; stroke: #ddd; stroke-width: 1; opacity: 1;"></line><line transform="translate(0,38)" x2="400" y2="0" style="fill: none; stroke: #ddd; stroke-width: 1; opacity: 1;"></line><line transform="translate(0,0)" x2="400" y2="0" style="fill: none; stroke: #ddd; stroke-width: 1; opacity: 1;"></line></g></g><path class="foreground" d="" style="pointer-events: none; display: none; fill: none;"></path></g></g><g class="mark-group role-axis"><g transform="translate(0.5,300.5)"><path class="background" d="M0,0h0v0h0Z" style="pointer-events: none; fill: none;"></path><g><g class="mark-text role-axis-label" style="pointer-events: none;"><text text-anchor="start" transform="translate(0,10)" style="font-family: Roboto Condensed; font-size: 10px; fill: #000; opacity: 1;">Mar 19</text><text text-anchor="middle" transform="translate(26.666666666666668,10)" style="font-family: Roboto Condensed; font-size: 10px; fill: #000; opacity: 0;">Mar 21</text><text text-anchor="middle" transform="translate(53.333333333333336,10)" style="font-family: Roboto Condensed; font-size: 10px; fill: #000; opacity: 1;">Mar 23</text><text text-anchor="middle" transform="translate(80,10)" style="font-family: Roboto Condensed; font-size: 10px; fill: #000; opacity: 0;">Mar 25</text><text text-anchor="middle" transform="translate(106.66666666666667,10)" style="font-family: Roboto Condensed; font-size: 10px; fill: #000; opacity: 1;">Mar 27</text><text text-anchor="middle" transform="translate(133.33333333333331,10)" style="font-family: Roboto Condensed; font-size: 10px; fill: #000; opacity: 0;">Mar 29</text><text text-anchor="middle" transform="translate(160,10)" style="font-family: Roboto Condensed; font-size: 10px; fill: #000; opacity: 1;">Mar 31</text><text text-anchor="middle" transform="translate(173.33333333333334,10)" style="font-family: Roboto Condensed; font-size: 10px; fill: #000; opacity: 0;">Apr 01</text><text text-anchor="middle" transform="translate(200,10)" style="font-family: Roboto Condensed; font-size: 10px; fill: #000; opacity: 1;">Apr 03</text><text text-anchor="middle" transform="translate(226.66666666666666,10)" style="font-family: Roboto Condensed; font-size: 10px; fill: #000; opacity: 0;">Apr 05</text><text text-anchor="middle" transform="translate(253.33333333333331,10)" style="font-family: Roboto Condensed; font-size: 10px; fill: #000; opacity: 1;">Apr 07</text><text text-anchor="middle" transform="translate(280,10)" style="font-family: Roboto Condensed; font-size: 10px; fill: #000; opacity: 0;">Apr 09</text><text text-anchor="middle" transform="translate(306.6666666666667,10)" style="font-family: Roboto Condensed; font-size: 10px; fill: #000; opacity: 1;">Apr 11</text><text text-anchor="middle" transform="translate(333.33333333333337,10)" style="font-family: Roboto Condensed; font-size: 10px; fill: #000; opacity: 0;">Apr 13</text><text text-anchor="middle" transform="translate(360,10)" style="font-family: Roboto Condensed; font-size: 10px; fill: #000; opacity: 1;">Apr 15</text><text text-anchor="middle" transform="translate(386.6666666666667,10)" style="font-family: Roboto Condensed; font-size: 10px; fill: #000; opacity: 0;">Apr 17</text></g><g class="mark-rule role-axis-domain" style="pointer-events: none;"><line transform="translate(0,0)" x2="400" y2="0" style="fill: none; stroke: lightgray; stroke-width: 1; opacity: 1;"></line></g></g><path class="foreground" d="" style="pointer-events: none; display: none; fill: none;"></path></g></g><g class="mark-group role-axis"><g transform="translate(0.5,0.5)"><path class="background" d="M0,0h0v0h0Z" style="pointer-events: none; fill: none;"></path><g><g class="mark-text role-axis-label" style="pointer-events: none;"><text text-anchor="end" transform="translate(-2,303)" style="font-family: Roboto Condensed; font-size: 10px; fill: #000; opacity: 1;">0</text><text text-anchor="end" transform="translate(-2,265.5)" style="font-family: Roboto Condensed; font-size: 10px; fill: #000; opacity: 1;">100</text><text text-anchor="end" transform="translate(-2,228)" style="font-family: Roboto Condensed; font-size: 10px; fill: #000; opacity: 1;">200</text><text text-anchor="end" transform="translate(-2,190.5)" style="font-family: Roboto Condensed; font-size: 10px; fill: #000; opacity: 1;">300</text><text text-anchor="end" transform="translate(-2,153)" style="font-family: Roboto Condensed; font-size: 10px; fill: #000; opacity: 1;">400</text><text text-anchor="end" transform="translate(-2,115.5)" style="font-family: Roboto Condensed; font-size: 10px; fill: #000; opacity: 1;">500</text><text text-anchor="end" transform="translate(-2,78)" style="font-family: Roboto Condensed; font-size: 10px; fill: #000; opacity: 1;">600</text><text text-anchor="end" transform="translate(-2,40.5)" style="font-family: Roboto Condensed; font-size: 10px; fill: #000; opacity: 1;">700</text><text text-anchor="end" transform="translate(-2,3)" style="font-family: Roboto Condensed; font-size: 10px; fill: #000; opacity: 1;">800</text></g><g class="mark-rule role-axis-domain" style="pointer-events: none;"><line transform="translate(0,300)" x2="0" y2="-300" style="fill: none; stroke: lightgray; stroke-width: 1; opacity: 1;"></line></g></g><path class="foreground" d="" style="pointer-events: none; display: none; fill: none;"></path></g></g><g class="mark-group role-scope concat_0_pathgroup"><g transform="translate(0,0)"><path class="background" d="M0,0h400v300h-400Z" style="fill: none;"></path><g><g class="mark-line role-mark concat_0_marks" clip-path="url(#clip1)"><path d="M0,294.375L13.333333333333334,300L26.666666666666668,300L40,300L53.333333333333336,300L66.66666666666666,300L80,300L93.33333333333333,300L106.66666666666667,300L120,300L133.33333333333331,300L146.66666666666666,300L160,300L173.33333333333334,267.375L186.66666666666666,300L200,261.75L213.33333333333334,300L226.66666666666666,300L240,300L253.33333333333331,300L266.66666666666663,300L280,300L293.3333333333333,234L306.6666666666667,300L320,300L333.33333333333337,300L346.6666666666667,300L360,300L373.3333333333333,236.62500000000003L386.6666666666667,300L400,300" style="fill: none; stroke: #e45756; stroke-width: 2; opacity: 0.7;"></path></g></g><path class="foreground" d="" style="display: none; fill: none;"></path></g><g transform="translate(0,0)"><path class="background" d="M0,0h400v300h-400Z" style="fill: none;"></path><g><g class="mark-line role-mark concat_0_marks" clip-path="url(#clip2)"><path d="M0,299.625L13.333333333333334,298.125L26.666666666666668,298.5L40,299.625L53.333333333333336,298.5L66.66666666666666,295.875L80,290.25L93.33333333333333,294.375L106.66666666666667,289.5L120,300L133.33333333333331,298.125L146.66666666666666,286.5L160,287.25L173.33333333333334,277.875L186.66666666666666,274.125L200,281.25L213.33333333333334,294.375L226.66666666666666,289.5L240,271.5L253.33333333333331,257.25L266.66666666666663,264L280,260.25L293.3333333333333,271.125L306.6666666666667,293.625L320,295.5L333.33333333333337,292.5L346.6666666666667,257.25L360,236.25L373.3333333333333,251.25L386.6666666666667,274.875L400,258.375" style="fill: none; stroke: #f58518; stroke-width: 2; opacity: 0.7;"></path></g></g><path class="foreground" d="" style="display: none; fill: none;"></path></g><g transform="translate(0,0)"><path class="background" d="M0,0h400v300h-400Z" style="fill: none;"></path><g><g class="mark-line role-mark concat_0_marks" clip-path="url(#clip3)"><path d="M0,240L13.333333333333334,225L26.666666666666668,253.5L40,237L53.333333333333336,256.875L66.66666666666666,210L80,210L93.33333333333333,182.24999999999997L106.66666666666667,214.125L120,158.25000000000003L133.33333333333331,205.12500000000003L146.66666666666666,177.00000000000003L160,147.375L173.33333333333334,108L186.66666666666666,67.125L200,88.875L213.33333333333334,183L226.66666666666666,154.875L240,159L253.33333333333331,117.375L266.66666666666663,27.750000000000007L280,29.25000000000001L293.3333333333333,95.99999999999999L306.6666666666667,125.25L320,175.5L333.33333333333337,125.62499999999999L346.6666666666667,113.62500000000001L360,119.24999999999999L373.3333333333333,70.125L386.6666666666667,46.50000000000001L400,72.75000000000001" style="fill: none; stroke: #4c78a8; stroke-width: 2; opacity: 0.7;"></path></g></g><path class="foreground" d="" style="display: none; fill: none;"></path></g></g><g class="mark-group role-title"><g transform="translate(200,-22)"><path class="background" d="M0,0h0v0h0Z" style="pointer-events: none; fill: none;"></path><g><g class="mark-text role-title-text" style="pointer-events: none;"><text text-anchor="middle" transform="translate(0,10)" style="font-family: Roboto Condensed; font-size: 13px; font-weight: normal; fill: #000; opacity: 1;">Daily</text></g></g><path class="foreground" d="" style="pointer-events: none; display: none; fill: none;"></path></g></g></g><path class="foreground" d="" style="display: none; fill: none;"></path></g></g><g class="mark-group role-scope concat_1_group"><g transform="translate(450,0)"><path class="background" d="M0,0h400v300h-400Z" style="fill: none; stroke: #ddd; stroke-width: 0;"></path><g><g class="mark-group role-axis"><g transform="translate(0.5,0.5)"><path class="background" d="M0,0h0v0h0Z" style="pointer-events: none; fill: none;"></path><g><g class="mark-rule role-axis-grid" style="pointer-events: none;"><line transform="translate(0,300)" x2="400" y2="0" style="fill: none; stroke: #ddd; stroke-width: 1; opacity: 1;"></line><line transform="translate(0,257)" x2="400" y2="0" style="fill: none; stroke: #ddd; stroke-width: 1; opacity: 1;"></line><line transform="translate(0,214)" x2="400" y2="0" style="fill: none; stroke: #ddd; stroke-width: 1; opacity: 1;"></line><line transform="translate(0,171)" x2="400" y2="0" style="fill: none; stroke: #ddd; stroke-width: 1; opacity: 1;"></line><line transform="translate(0,129)" x2="400" y2="0" style="fill: none; stroke: #ddd; stroke-width: 1; opacity: 1;"></line><line transform="translate(0,86)" x2="400" y2="0" style="fill: none; stroke: #ddd; stroke-width: 1; opacity: 1;"></line><line transform="translate(0,43)" x2="400" y2="0" style="fill: none; stroke: #ddd; stroke-width: 1; opacity: 1;"></line><line transform="translate(0,0)" x2="400" y2="0" style="fill: none; stroke: #ddd; stroke-width: 1; opacity: 1;"></line></g></g><path class="foreground" d="" style="pointer-events: none; display: none; fill: none;"></path></g></g><g class="mark-group role-axis"><g transform="translate(0.5,300.5)"><path class="background" d="M0,0h0v0h0Z" style="pointer-events: none; fill: none;"></path><g><g class="mark-text role-axis-label" style="pointer-events: none;"><text text-anchor="middle" transform="translate(10.256410256410255,10)" style="font-family: Roboto Condensed; font-size: 10px; fill: #000; opacity: 1;">Feb 02</text><text text-anchor="middle" transform="translate(46.15384615384615,10)" style="font-family: Roboto Condensed; font-size: 10px; fill: #000; opacity: 1;">Feb 09</text><text text-anchor="middle" transform="translate(82.05128205128204,10)" style="font-family: Roboto Condensed; font-size: 10px; fill: #000; opacity: 1;">Feb 16</text><text text-anchor="middle" transform="translate(117.94871794871796,10)" style="font-family: Roboto Condensed; font-size: 10px; fill: #000; opacity: 1;">Feb 23</text><text text-anchor="middle" transform="translate(153.84615384615387,10)" style="font-family: Roboto Condensed; font-size: 10px; fill: #000; opacity: 1;">Mar 01</text><text text-anchor="middle" transform="translate(189.74358974358972,10)" style="font-family: Roboto Condensed; font-size: 10px; fill: #000; opacity: 1;">Mar 08</text><text text-anchor="middle" transform="translate(225.64102564102564,10)" style="font-family: Roboto Condensed; font-size: 10px; fill: #000; opacity: 1;">Mar 15</text><text text-anchor="middle" transform="translate(261.53846153846155,10)" style="font-family: Roboto Condensed; font-size: 10px; fill: #000; opacity: 1;">Mar 22</text><text text-anchor="middle" transform="translate(297.43589743589746,10)" style="font-family: Roboto Condensed; font-size: 10px; fill: #000; opacity: 1;">Mar 29</text><text text-anchor="middle" transform="translate(333.33333333333337,10)" style="font-family: Roboto Condensed; font-size: 10px; fill: #000; opacity: 1;">Apr 05</text><text text-anchor="middle" transform="translate(369.2307692307692,10)" style="font-family: Roboto Condensed; font-size: 10px; fill: #000; opacity: 1;">Apr 12</text></g><g class="mark-rule role-axis-domain" style="pointer-events: none;"><line transform="translate(0,0)" x2="400" y2="0" style="fill: none; stroke: lightgray; stroke-width: 1; opacity: 1;"></line></g></g><path class="foreground" d="" style="pointer-events: none; display: none; fill: none;"></path></g></g><g class="mark-group role-axis"><g transform="translate(0.5,0.5)"><path class="background" d="M0,0h0v0h0Z" style="pointer-events: none; fill: none;"></path><g><g class="mark-text role-axis-label" style="pointer-events: none;"><text text-anchor="end" transform="translate(-2,303)" style="font-family: Roboto Condensed; font-size: 10px; fill: #000; opacity: 1;">0</text><text text-anchor="end" transform="translate(-2,260.14285714285717)" style="font-family: Roboto Condensed; font-size: 10px; fill: #000; opacity: 1;">2,000</text><text text-anchor="end" transform="translate(-2,217.28571428571428)" style="font-family: Roboto Condensed; font-size: 10px; fill: #000; opacity: 1;">4,000</text><text text-anchor="end" transform="translate(-2,174.42857142857142)" style="font-family: Roboto Condensed; font-size: 10px; fill: #000; opacity: 1;">6,000</text><text text-anchor="end" transform="translate(-2,131.57142857142858)" style="font-family: Roboto Condensed; font-size: 10px; fill: #000; opacity: 1;">8,000</text><text text-anchor="end" transform="translate(-2,88.71428571428571)" style="font-family: Roboto Condensed; font-size: 10px; fill: #000; opacity: 1;">10,000</text><text text-anchor="end" transform="translate(-2,45.85714285714287)" style="font-family: Roboto Condensed; font-size: 10px; fill: #000; opacity: 1;">12,000</text><text text-anchor="end" transform="translate(-2,3)" style="font-family: Roboto Condensed; font-size: 10px; fill: #000; opacity: 1;">14,000</text></g><g class="mark-rule role-axis-domain" style="pointer-events: none;"><line transform="translate(0,300)" x2="0" y2="-300" style="fill: none; stroke: lightgray; stroke-width: 1; opacity: 1;"></line></g></g><path class="foreground" d="" style="pointer-events: none; display: none; fill: none;"></path></g></g><g class="mark-group role-scope concat_1_pathgroup"><g transform="translate(0,0)"><path class="background" d="M0,0h400v300h-400Z" style="fill: none;"></path><g><g class="mark-line role-mark concat_1_marks" clip-path="url(#clip4)"><path d="M0,300L5.128205128205128,300L10.256410256410255,300L15.384615384615385,300L20.51282051282051,300L25.64102564102564,300L30.76923076923077,300L35.8974358974359,300L41.02564102564102,300L46.15384615384615,300L51.28205128205128,300L56.41025641025641,300L61.53846153846154,300L66.66666666666666,300L71.7948717948718,300L76.92307692307693,300L82.05128205128204,300L87.17948717948718,300L92.3076923076923,300L97.43589743589743,300L102.56410256410255,300L107.6923076923077,300L112.82051282051282,300L117.94871794871796,300L123.07692307692308,300L128.2051282051282,300L133.33333333333331,300L138.46153846153845,300L143.5897435897436,300L148.71794871794873,300L153.84615384615387,300L158.97435897435898,300L164.1025641025641,300L169.23076923076923,300L174.35897435897436,300L179.4871794871795,300L184.6153846153846,300L189.74358974358972,300L194.87179487179486,299.9785714285714L200,299.9785714285714L205.1282051282051,299.9785714285714L210.25641025641028,299.9785714285714L215.3846153846154,299.9785714285714L220.51282051282053,299.9785714285714L225.64102564102564,299.9785714285714L230.76923076923075,299.9785714285714L235.8974358974359,299.9785714285714L241.02564102564102,299.9785714285714L246.15384615384616,299.65714285714284L251.28205128205127,299.65714285714284L256.4102564102564,299.65714285714284L261.53846153846155,299.65714285714284L266.66666666666663,299.65714285714284L271.7948717948718,299.65714285714284L276.9230769230769,299.65714285714284L282.05128205128204,299.65714285714284L287.1794871794872,299.65714285714284L292.30769230769226,299.65714285714284L297.43589743589746,299.65714285714284L302.56410256410254,299.65714285714284L307.69230769230774,299.65714285714284L312.8205128205128,297.79285714285714L317.94871794871796,297.79285714285714L323.0769230769231,295.60714285714283L328.2051282051282,295.60714285714283L333.33333333333337,295.60714285714283L338.46153846153845,295.60714285714283L343.5897435897436,295.60714285714283L348.71794871794873,295.60714285714283L353.8461538461538,295.60714285714283L358.974358974359,291.8357142857143L364.1025641025641,291.8357142857143L369.2307692307692,291.8357142857143L374.35897435897436,291.8357142857143L379.48717948717945,291.8357142857143L384.61538461538464,291.8357142857143L389.7435897435897,288.2142857142857L394.8717948717949,288.2142857142857L400,288.2142857142857" style="fill: none; stroke: #e45756; stroke-width: 2; opacity: 0.7;"></path></g></g><path class="foreground" d="" style="display: none; fill: none;"></path></g><g transform="translate(0,0)"><path class="background" d="M0,0h400v300h-400Z" style="fill: none;"></path><g><g class="mark-line role-mark concat_1_marks" clip-path="url(#clip5)"><path d="M0,300L5.128205128205128,300L10.256410256410255,300L15.384615384615385,300L20.51282051282051,300L25.64102564102564,300L30.76923076923077,300L35.8974358974359,300L41.02564102564102,300L46.15384615384615,300L51.28205128205128,300L56.41025641025641,300L61.53846153846154,300L66.66666666666666,300L71.7948717948718,300L76.92307692307693,300L82.05128205128204,300L87.17948717948718,300L92.3076923076923,300L97.43589743589743,300L102.56410256410255,300L107.6923076923077,300L112.82051282051282,300L117.94871794871796,300L123.07692307692308,300L128.2051282051282,300L133.33333333333331,300L138.46153846153845,300L143.5897435897436,300L148.71794871794873,300L153.84615384615387,300L158.97435897435898,300L164.1025641025641,300L169.23076923076923,300L174.35897435897436,300L179.4871794871795,300L184.6153846153846,300L189.74358974358972,300L194.87179487179486,300L200,300L205.1282051282051,299.9785714285714L210.25641025641028,299.9785714285714L215.3846153846154,299.9785714285714L220.51282051282053,299.95714285714286L225.64102564102564,299.9357142857143L230.76923076923075,299.87142857142857L235.8974358974359,299.85L241.02564102564102,299.7857142857143L246.15384615384616,299.76428571428573L251.28205128205127,299.65714285714284L256.4102564102564,299.57142857142856L261.53846153846155,299.55L266.66666666666663,299.4642857142857L271.7948717948718,299.22857142857146L276.9230769230769,298.6714285714286L282.05128205128204,298.35L287.1794871794872,297.75L292.30769230769226,297.75L297.43589743589746,297.6428571428571L302.56410256410254,296.87142857142857L307.69230769230774,296.1428571428571L312.8205128205128,294.87857142857143L317.94871794871796,293.4L323.0769230769231,292.3285714285714L328.2051282051282,292.00714285714287L333.33333333333337,291.40714285714284L338.46153846153845,289.77857142857147L343.5897435897436,287.3357142857143L348.71794871794873,285.2785714285714L353.8461538461538,283.00714285714287L358.974358974359,281.35714285714283L364.1025641025641,280.99285714285713L369.2307692307692,280.7357142857143L374.35897435897436,280.3071428571429L379.48717948717945,277.8642857142857L384.61538461538464,274.22142857142853L389.7435897435897,271.4357142857143L394.8717948717949,270L400,267.62142857142857" style="fill: none; stroke: #f58518; stroke-width: 2; opacity: 0.7;"></path></g></g><path class="foreground" d="" style="display: none; fill: none;"></path></g><g transform="translate(0,0)"><path class="background" d="M0,0h400v300h-400Z" style="fill: none;"></path><g><g class="mark-line role-mark concat_1_marks" clip-path="url(#clip6)"><path d="M0,299.9785714285714L5.128205128205128,299.9785714285714L10.256410256410255,299.9785714285714L15.384615384615385,299.9785714285714L20.51282051282051,299.9785714285714L25.64102564102564,299.9785714285714L30.76923076923077,299.9785714285714L35.8974358974359,299.9785714285714L41.02564102564102,299.9785714285714L46.15384615384615,299.9785714285714L51.28205128205128,299.9785714285714L56.41025641025641,299.9785714285714L61.53846153846154,299.9785714285714L66.66666666666666,299.9785714285714L71.7948717948718,299.9785714285714L76.92307692307693,299.9785714285714L82.05128205128204,299.9785714285714L87.17948717948718,299.9785714285714L92.3076923076923,299.9785714285714L97.43589743589743,299.9785714285714L102.56410256410255,299.9785714285714L107.6923076923077,299.9785714285714L112.82051282051282,299.9785714285714L117.94871794871796,299.9785714285714L123.07692307692308,299.9785714285714L128.2051282051282,299.9785714285714L133.33333333333331,299.95714285714286L138.46153846153845,299.85L143.5897435897436,299.85L148.71794871794873,299.74285714285713L153.84615384615387,299.7L158.97435897435898,299.67857142857144L164.1025641025641,299.55L169.23076923076923,299.25L174.35897435897436,297.9857142857143L179.4871794871795,297.8357142857143L184.6153846153846,296.55L189.74358974358972,295.65000000000003L194.87179487179486,294.6857142857143L200,292.39285714285717L205.1282051282051,289.2857142857143L210.25641025641028,287.1642857142857L215.3846153846154,282.5571428571429L220.51282051282053,279.40714285714284L225.64102564102564,278.1L230.76923076923075,276.36428571428576L235.8974358974359,274.5L241.02564102564102,272.5928571428571L246.15384615384616,269.1642857142857L251.28205128205127,264.87857142857143L256.4102564102564,262.2214285714286L261.53846153846155,258.62142857142857L266.66666666666663,256.15714285714284L271.7948717948718,251.01428571428573L276.9230769230769,245.8714285714286L282.05128205128204,239.14285714285714L287.1794871794872,234.2357142857143L292.30769230769226,226.13571428571427L297.43589743589746,220.71428571428572L302.56410256410254,213.68571428571428L307.69230769230774,204.96428571428572L312.8205128205128,193.99285714285713L317.94871794871796,180.68571428571428L323.0769230769231,168.62142857142857L328.2051282051282,161.93571428571428L333.33333333333337,153.64285714285714L338.46153846153845,145.5857142857143L343.5897435897436,135.15L348.71794871794873,119.59285714285716L353.8461538461538,104.12142857142858L358.974358974359,92.4642857142857L364.1025641025641,82.47857142857143L369.2307692307692,75.36428571428571L374.35897435897436,65.39999999999999L379.48717948717945,54.75L384.61538461538464,44.42142857142856L389.7435897435897,31.285714285714295L394.8717948717949,16.800000000000015L400,3.8142857142857034" style="fill: none; stroke: #4c78a8; stroke-width: 2; opacity: 0.7;"></path></g></g><path class="foreground" d="" style="display: none; fill: none;"></path></g></g><g class="mark-group role-title"><g transform="translate(200,-22)"><path class="background" d="M0,0h0v0h0Z" style="pointer-events: none; fill: none;"></path><g><g class="mark-text role-title-text" style="pointer-events: none;"><text text-anchor="middle" transform="translate(0,10)" style="font-family: Roboto Condensed; font-size: 13px; font-weight: normal; fill: #000; opacity: 1;">Total</text></g></g><path class="foreground" d="" style="pointer-events: none; display: none; fill: none;"></path></g></g></g><path class="foreground" d="" style="display: none; fill: none;"></path></g></g><g class="mark-group role-legend"><g transform="translate(868,0)"><path class="background" d="M0,0h60v37h-60Z" style="pointer-events: none; fill: none;"></path><g><g class="mark-group role-legend-entry"><g transform="translate(0,0)"><path class="background" d="M0,0h0v0h0Z" style="pointer-events: none; fill: none;"></path><g><g class="mark-group role-scope"><g transform="translate(0,0)"><path class="background" d="M0,0h59.3251953125v11h-59.3251953125Z" style="pointer-events: none; fill: none; opacity: 1;"></path><g><g class="mark-symbol role-legend-symbol" style="pointer-events: none;"><path transform="translate(6,6)" d="M-5,0L5,0" style="fill: none; stroke: #4c78a8; stroke-width: 1.5; opacity: 0.7;"></path></g><g class="mark-text role-legend-label" style="pointer-events: none;"><text text-anchor="start" transform="translate(16,9)" style="font-family: Roboto Condensed; font-size: 10px; fill: #000; opacity: 1;">Confirmed</text></g></g><path class="foreground" d="" style="pointer-events: none; display: none; fill: none;"></path></g><g transform="translate(0,13)"><path class="background" d="M0,0h59.3251953125v11h-59.3251953125Z" style="pointer-events: none; fill: none; opacity: 1;"></path><g><g class="mark-symbol role-legend-symbol" style="pointer-events: none;"><path transform="translate(6,6)" d="M-5,0L5,0" style="fill: none; stroke: #f58518; stroke-width: 1.5; opacity: 0.7;"></path></g><g class="mark-text role-legend-label" style="pointer-events: none;"><text text-anchor="start" transform="translate(16,9)" style="font-family: Roboto Condensed; font-size: 10px; fill: #000; opacity: 1;">Deaths</text></g></g><path class="foreground" d="" style="pointer-events: none; display: none; fill: none;"></path></g><g transform="translate(0,26)"><path class="background" d="M0,0h59.3251953125v11h-59.3251953125Z" style="pointer-events: none; fill: none; opacity: 1;"></path><g><g class="mark-symbol role-legend-symbol" style="pointer-events: none;"><path transform="translate(6,6)" d="M-5,0L5,0" style="fill: none; stroke: #e45756; stroke-width: 1.5; opacity: 0.7;"></path></g><g class="mark-text role-legend-label" style="pointer-events: none;"><text text-anchor="start" transform="translate(16,9)" style="font-family: Roboto Condensed; font-size: 10px; fill: #000; opacity: 1;">Recovered</text></g></g><path class="foreground" d="" style="pointer-events: none; display: none; fill: none;"></path></g></g></g><path class="foreground" d="" style="pointer-events: none; display: none; fill: none;"></path></g></g></g><path class="foreground" d="" style="pointer-events: none; display: none; fill: none;"></path></g></g></g><path class="foreground" d="" style="display: none; fill: none;"></path></g></g></g></svg>