<svg class="marks" width="1008" height="476" viewBox="0 0 1008 476" version="1.1" xmlns="http://www.w3.org/2000/svg" xmlns:xlink="http://www.w3.org/1999/xlink"><defs><clipPath id="clip1"><rect x="0" y="0" width="400" height="400"></rect></clipPath><clipPath id="clip2"><rect x="0" y="0" width="400" height="400"></rect></clipPath><clipPath id="clip3"><rect x="0" y="0" width="400" height="400"></rect></clipPath><clipPath id="clip4"><rect x="0" y="0" width="400" height="400"></rect></clipPath><clipPath id="clip5"><rect x="0" y="0" width="400" height="400"></rect></clipPath><clipPath id="clip6"><rect x="0" y="0" width="400" height="400"></rect></clipPath><clipPath id="clip7"><rect x="0" y="0" width="400" height="400"></rect></clipPath><clipPath id="clip8"><rect x="0" y="0" width="400" height="400"></rect></clipPath><clipPath id="clip9"><rect x="0" y="0" width="400" height="400"></rect></clipPath></defs><rect width="1008" height="476" fill="white"></rect><g fill="none" stroke-miterlimit="10" transform="translate(50,44)"><g class="mark-group role-frame root" role="graphics-object" aria-roledescription="group mark container"><g transform="translate(0,0)"><path class="background" aria-hidden="true" d="M0,0h0v400h0Z"></path><g><g class="mark-group role-scope concat_0_group" role="graphics-object" aria-roledescription="group mark container"><g transform="translate(0,0)"><path class="background" aria-hidden="true" d="M0,0h400v400h-400Z" stroke="#ddd" stroke-width="0"></path><g><g class="mark-group role-axis" aria-hidden="true"><g transform="translate(0.5,0.5)"><path class="background" aria-hidden="true" d="M0,0h0v0h0Z" pointer-events="none"></path><g><g class="mark-rule role-axis-grid" pointer-events="none"><line transform="translate(0,400)" x2="400" y2="0" stroke="#ddd" stroke-width="1" opacity="1"></line><line transform="translate(0,350)" x2="400" y2="0" stroke="#ddd" stroke-width="1" opacity="1"></line><line transform="translate(0,300)" x2="400" y2="0" stroke="#ddd" stroke-width="1" opacity="1"></line><line transform="translate(0,250)" x2="400" y2="0" stroke="#ddd" stroke-width="1" opacity="1"></line><line transform="translate(0,200)" x2="400" y2="0" stroke="#ddd" stroke-width="1" opacity="1"></line><line transform="translate(0,150)" x2="400" y2="0" stroke="#ddd" stroke-width="1" opacity="1"></line><line transform="translate(0,100)" x2="400" y2="0" stroke="#ddd" stroke-width="1" opacity="1"></line><line transform="translate(0,50)" x2="400" y2="0" stroke="#ddd" stroke-width="1" opacity="1"></line><line transform="translate(0,0)" x2="400" y2="0" stroke="#ddd" stroke-width="1" opacity="1"></line></g></g><path class="foreground" aria-hidden="true" d="" pointer-events="none" display="none"></path></g></g><g class="mark-group role-axis" role="graphics-symbol" aria-roledescription="axis" aria-label="X-axis titled 'Date' for a time scale with values from April 29 to May 29"><g transform="translate(0.5,400.5)"><path class="background" aria-hidden="true" d="M0,0h0v0h0Z" pointer-events="none"></path><g><g class="mark-text role-axis-label" pointer-events="none"><text text-anchor="middle" transform="translate(17.22222222222222,10)" font-family="Roboto Condensed" font-size="10px" fill="#000" opacity="1">May 01</text><text text-anchor="middle" transform="translate(43.888888888888886,10)" font-family="Roboto Condensed" font-size="10px" fill="#000" opacity="0">May 03</text><text text-anchor="middle" transform="translate(70.55555555555556,10)" font-family="Roboto Condensed" font-size="10px" fill="#000" opacity="1">May 05</text><text text-anchor="middle" transform="translate(97.22222222222221,10)" font-family="Roboto Condensed" font-size="10px" fill="#000" opacity="0">May 07</text><text text-anchor="middle" transform="translate(123.88888888888889,10)" font-family="Roboto Condensed" font-size="10px" fill="#000" opacity="1">May 09</text><text text-anchor="middle" transform="translate(150.55555555555554,10)" font-family="Roboto Condensed" font-size="10px" fill="#000" opacity="0">May 11</text><text text-anchor="middle" transform="translate(177.22222222222223,10)" font-family="Roboto Condensed" font-size="10px" fill="#000" opacity="1">May 13</text><text text-anchor="middle" transform="translate(203.88888888888889,10)" font-family="Roboto Condensed" font-size="10px" fill="#000" opacity="0">May 15</text><text text-anchor="middle" transform="translate(230.55555555555554,10)" font-family="Roboto Condensed" font-size="10px" fill="#000" opacity="1">May 17</text><text text-anchor="middle" transform="translate(257.22222222222223,10)" font-family="Roboto Condensed" font-size="10px" fill="#000" opacity="0">May 19</text><text text-anchor="middle" transform="translate(283.8888888888889,10)" font-family="Roboto Condensed" font-size="10px" fill="#000" opacity="1">May 21</text><text text-anchor="middle" transform="translate(310.55555555555554,10)" font-family="Roboto Condensed" font-size="10px" fill="#000" opacity="0">May 23</text><text text-anchor="middle" transform="translate(337.22222222222223,10)" font-family="Roboto Condensed" font-size="10px" fill="#000" opacity="1">May 25</text><text text-anchor="middle" transform="translate(363.88888888888886,10)" font-family="Roboto Condensed" font-size="10px" fill="#000" opacity="0">May 27</text><text text-anchor="middle" transform="translate(390.55555555555554,10)" font-family="Roboto Condensed" font-size="10px" fill="#000" opacity="1">May 29</text></g><g class="mark-rule role-axis-domain" pointer-events="none"><line transform="translate(0,0)" x2="400" y2="0" stroke="lightgray" stroke-width="1" opacity="1"></line></g><g class="mark-text role-axis-title" pointer-events="none"><text text-anchor="middle" transform="translate(200,25)" font-family="Roboto Condensed" font-size="11px" font-weight="normal" fill="#000" opacity="1">Date</text></g></g><path class="foreground" aria-hidden="true" d="" pointer-events="none" display="none"></path></g></g><g class="mark-group role-axis" role="graphics-symbol" aria-roledescription="axis" aria-label="Y-axis titled 'Count' for a linear scale with values from 0 to 8,000"><g transform="translate(0.5,0.5)"><path class="background" aria-hidden="true" d="M0,0h0v0h0Z" pointer-events="none"></path><g><g class="mark-text role-axis-label" pointer-events="none"><text text-anchor="end" transform="translate(-2,403)" font-family="Roboto Condensed" font-size="10px" fill="#000" opacity="1">0</text><text text-anchor="end" transform="translate(-2,353)" font-family="Roboto Condensed" font-size="10px" fill="#000" opacity="1">1,000</text><text text-anchor="end" transform="translate(-2,303)" font-family="Roboto Condensed" font-size="10px" fill="#000" opacity="1">2,000</text><text text-anchor="end" transform="translate(-2,253)" font-family="Roboto Condensed" font-size="10px" fill="#000" opacity="1">3,000</text><text text-anchor="end" transform="translate(-2,203)" font-family="Roboto Condensed" font-size="10px" fill="#000" opacity="1">4,000</text><text text-anchor="end" transform="translate(-2,153)" font-family="Roboto Condensed" font-size="10px" fill="#000" opacity="1">5,000</text><text text-anchor="end" transform="translate(-2,103)" font-family="Roboto Condensed" font-size="10px" fill="#000" opacity="1">6,000</text><text text-anchor="end" transform="translate(-2,53)" font-family="Roboto Condensed" font-size="10px" fill="#000" opacity="1">7,000</text><text text-anchor="end" transform="translate(-2,3)" font-family="Roboto Condensed" font-size="10px" fill="#000" opacity="1">8,000</text></g><g class="mark-rule role-axis-domain" pointer-events="none"><line transform="translate(0,400)" x2="0" y2="-400" stroke="lightgray" stroke-width="1" opacity="1"></line></g><g class="mark-text role-axis-title" pointer-events="none"><text text-anchor="start" transform="translate(-45,-13)" font-family="Roboto Condensed" font-size="11px" font-weight="normal" fill="#000" opacity="1">Count</text></g></g><path class="foreground" aria-hidden="true" d="" pointer-events="none" display="none"></path></g></g><g class="mark-group role-scope concat_0_layer_0_pathgroup" role="graphics-object" aria-roledescription="group mark container"><g transform="translate(0,0)"><path class="background" aria-hidden="true" d="M0,0h400v400h-400Z"></path><g><g class="mark-line role-mark concat_0_layer_0_marks" clip-path="url(#clip1)" role="graphics-object" aria-roledescription="line mark container"><path aria-label="Type: Recovered; Date: Mar 01; Count: 0" role="graphics-symbol" aria-roledescription="line mark" d="M-795.5555555555555,400L-782.2222222222222,400L-768.8888888888889,400L-755.5555555555555,400L-742.2222222222223,400L-728.8888888888889,400L-715.5555555555555,400L-702.2222222222222,400L-689.4444444444445,399.95L-676.1111111111111,400L-662.7777777777778,400L-649.4444444444445,400L-636.1111111111111,400L-622.7777777777778,400L-609.4444444444445,400L-596.1111111111111,400L-582.7777777777777,400L-569.4444444444445,400L-556.1111111111111,400L-542.7777777777778,400L-529.4444444444445,400L-516.1111111111111,400L-502.77777777777777,400L-489.44444444444446,399.75L-476.1111111111111,400L-462.7777777777778,400L-449.44444444444446,400L-436.1111111111111,399.95L-422.77777777777777,400L-409.4444444444444,399.75L-396.11111111111114,399.95L-382.77777777777777,400L-369.44444444444446,399.05L-356.1111111111111,400L-342.77777777777777,400L-329.44444444444446,400L-316.1111111111111,400L-302.77777777777777,400L-289.44444444444446,400L-276.1111111111111,400L-262.77777777777777,400L-249.44444444444446,400L-236.11111111111111,400L-222.77777777777777,400L-209.44444444444446,400L-196.11111111111111,400L-182.77777777777777,400L-169.44444444444443,400L-156.11111111111111,400L-142.77777777777777,400L-129.44444444444446,400L-116.11111111111111,400L-102.77777777777777,400L-89.44444444444444,400L-76.11111111111111,400L-62.77777777777778,400L-49.44444444444444,400L-36.11111111111111,400L-22.77777777777778,400L-9.444444444444445,400L3.888888888888889,400L17.22222222222222,400L30.555555555555557,400L43.888888888888886,400L57.22222222222222,400L70.55555555555556,400L83.88888888888889,400L97.22222222222221,400L110.55555555555556,400L123.88888888888889,400L137.22222222222223,400L150.55555555555554,400L163.88888888888889,400L177.22222222222223,400L190.55555555555554,400L203.88888888888889,400L217.2222222222222,400L230.55555555555554,400L243.8888888888889,400L257.22222222222223,400L270.55555555555554,400L283.8888888888889,400L297.22222222222223,15.249999999999986L310.55555555555554,400L323.8888888888889,400L337.22222222222223,400L350.55555555555554,400L363.88888888888886,400L377.22222222222223,400L390.55555555555554,400L403.88888888888886,400" stroke="#e45756" stroke-width="2" opacity="0.2"></path></g></g><path class="foreground" aria-hidden="true" d="" display="none"></path></g><g transform="translate(0,0)"><path class="background" aria-hidden="true" d="M0,0h400v400h-400Z"></path><g><g class="mark-line role-mark concat_0_layer_0_marks" clip-path="url(#clip2)" role="graphics-object" aria-roledescription="line mark container"><path aria-label="Type: Deaths; Date: Mar 01; Count: 0" role="graphics-symbol" aria-roledescription="line mark" d="M-795.5555555555555,400L-782.2222222222222,400L-768.8888888888889,400L-755.5555555555555,400L-742.2222222222223,400L-728.8888888888889,400L-715.5555555555555,400L-702.2222222222222,400L-689.4444444444445,400L-676.1111111111111,400L-662.7777777777778,400L-649.4444444444445,400L-636.1111111111111,400L-622.7777777777778,399.85L-609.4444444444445,400L-596.1111111111111,400L-582.7777777777777,400L-569.4444444444445,399.85L-556.1111111111111,399.95L-542.7777777777778,400L-529.4444444444445,400L-516.1111111111111,400L-502.77777777777777,399.85L-489.44444444444446,399.90000000000003L-476.1111111111111,399.90000000000003L-462.7777777777778,400L-449.44444444444446,399.75L-436.1111111111111,399.8L-422.77777777777777,399.90000000000003L-409.4444444444444,399.65000000000003L-396.11111111111114,399.65000000000003L-382.77777777777777,399.75L-369.44444444444446,399.7L-356.1111111111111,399.54999999999995L-342.77777777777777,399.85L-329.44444444444446,399.54999999999995L-316.1111111111111,399.75L-302.77777777777777,399.35L-289.44444444444446,399.40000000000003L-276.1111111111111,399.65000000000003L-262.77777777777777,399.75L-249.44444444444446,399.7L-236.11111111111111,399.54999999999995L-222.77777777777777,399.7L-209.44444444444446,399.75L-196.11111111111111,399.45L-182.77777777777777,399.90000000000003L-169.44444444444443,399.54999999999995L-156.11111111111111,399.85L-142.77777777777777,399.95L-129.44444444444446,399.2L-116.11111111111111,399.95L-102.77777777777777,399.75L-89.44444444444444,399.65000000000003L-76.11111111111111,399.75L-62.77777777777778,399.90000000000003L-49.44444444444444,400L-36.11111111111111,399.8L-22.77777777777778,399.95L-9.444444444444445,399.95L3.888888888888889,399.85L17.22222222222222,400L30.555555555555557,399.95L43.888888888888886,400L57.22222222222222,399.85L70.55555555555556,399.95L83.88888888888889,399.95L97.22222222222221,399.95L110.55555555555556,399.95L123.88888888888889,399.95L137.22222222222223,400L150.55555555555554,399.75L163.88888888888889,399.8L177.22222222222223,399.95L190.55555555555554,399.85L203.88888888888889,400L217.2222222222222,400L230.55555555555554,400L243.8888888888889,399.95L257.22222222222223,400L270.55555555555554,399.95L283.8888888888889,399.95L297.22222222222223,400L310.55555555555554,400L323.8888888888889,400L337.22222222222223,400L350.55555555555554,400L363.88888888888886,400L377.22222222222223,399.95L390.55555555555554,400L403.88888888888886,400" stroke="#f58518" stroke-width="2" opacity="0.2"></path></g></g><path class="foreground" aria-hidden="true" d="" display="none"></path></g><g transform="translate(0,0)"><path class="background" aria-hidden="true" d="M0,0h400v400h-400Z"></path><g><g class="mark-line role-mark concat_0_layer_0_marks" clip-path="url(#clip3)" role="graphics-object" aria-roledescription="line mark container"><path aria-label="Type: Confirmed; Date: Mar 01; Count: 4" role="graphics-symbol" aria-roledescription="line mark" d="M-795.5555555555555,399.8L-782.2222222222222,399.7L-768.8888888888889,399.65000000000003L-755.5555555555555,398.8L-742.2222222222223,398.45L-728.8888888888889,398.95L-715.5555555555555,398.05L-702.2222222222222,398.55L-689.4444444444445,398.55L-676.1111111111111,390.25L-662.7777777777778,390.09999999999997L-649.4444444444445,394.8L-636.1111111111111,385.3L-622.7777777777778,395.3L-609.4444444444445,393.45L-596.1111111111111,394.4L-582.7777777777777,393.5L-569.4444444444445,395.65000000000003L-556.1111111111111,390.2L-542.7777777777778,391.59999999999997L-529.4444444444445,389.8L-516.1111111111111,386.65L-502.77777777777777,388.2L-489.44444444444446,387.9L-476.1111111111111,388.95L-462.7777777777778,385.75L-449.44444444444446,380.7L-436.1111111111111,387L-422.77777777777777,386.55L-409.4444444444444,391.95000000000005L-396.11111111111114,390.2L-382.77777777777777,388.9L-369.44444444444446,385.8L-356.1111111111111,388.85L-342.77777777777777,391L-329.44444444444446,393.15L-316.1111111111111,391.1L-302.77777777777777,388.95L-289.44444444444446,400L-276.1111111111111,393.75L-262.77777777777777,394.85L-249.44444444444446,395.25L-236.11111111111111,394.20000000000005L-222.77777777777777,396.09999999999997L-209.44444444444446,399L-196.11111111111111,394.15L-182.77777777777777,392.2L-169.44444444444443,397.95L-156.11111111111111,395.05L-142.77777777777777,397.90000000000003L-129.44444444444446,396.09999999999997L-116.11111111111111,398.25L-102.77777777777777,392.65L-89.44444444444444,396.85L-76.11111111111111,396.9L-62.77777777777778,398.20000000000005L-49.44444444444444,398.6L-36.11111111111111,396.4L-22.77777777777778,396.95L-9.444444444444445,397.5L3.888888888888889,398.6L17.22222222222222,397.75L30.555555555555557,398.7L43.888888888888886,398.09999999999997L57.22222222222222,397.15L70.55555555555556,397.45L83.88888888888889,397.95L97.22222222222221,398.09999999999997L110.55555555555556,398.20000000000005L123.88888888888889,398.55L137.22222222222223,399.7L150.55555555555554,398.65L163.88888888888889,398.75L177.22222222222223,399.1L190.55555555555554,398.95L203.88888888888889,398.85L217.2222222222222,399.1L230.55555555555554,399.40000000000003L243.8888888888889,399.6L257.22222222222223,399.5L270.55555555555554,399.3L283.8888888888889,398.6L297.22222222222223,398.85L310.55555555555554,399.3L323.8888888888889,399.7L337.22222222222223,399.40000000000003L350.55555555555554,399.05L363.88888888888886,399.1L377.22222222222223,399.5L390.55555555555554,399.45L403.88888888888886,399.25" stroke="#4c78a8" stroke-width="2" opacity="0.2"></path></g></g><path class="foreground" aria-hidden="true" d="" display="none"></path></g></g><g class="mark-group role-scope concat_0_layer_1_pathgroup" role="graphics-object" aria-roledescription="group mark container"><g transform="translate(0,0)"><path class="background" aria-hidden="true" d="M0,0h400v400h-400Z"></path><g><g class="mark-line role-mark concat_0_layer_1_marks" clip-path="url(#clip4)" role="graphics-object" aria-roledescription="line mark container"><path aria-label="Type: Recovered; Date: Mar 01; Count: 0" role="graphics-symbol" aria-roledescription="line mark" d="M-715.5555555555555,400L-702.2222222222222,400L-689.4444444444445,399.99285714285713L-676.1111111111111,399.99285714285713L-662.7777777777778,399.99285714285713L-649.4444444444445,399.99285714285713L-636.1111111111111,399.99285714285713L-622.7777777777778,399.99285714285713L-609.4444444444445,399.99285714285713L-596.1111111111111,400L-582.7777777777777,400L-569.4444444444445,400L-556.1111111111111,400L-542.7777777777778,400L-529.4444444444445,400L-516.1111111111111,400L-502.77777777777777,400L-489.44444444444446,399.9642857142857L-476.1111111111111,399.9642857142857L-462.7777777777778,399.9642857142857L-449.44444444444446,399.9642857142857L-436.1111111111111,399.95714285714286L-422.77777777777777,399.95714285714286L-409.4444444444444,399.9214285714286L-396.11111111111114,399.95L-382.77777777777777,399.95L-369.44444444444446,399.81428571428575L-356.1111111111111,399.81428571428575L-342.77777777777777,399.82142857142856L-329.44444444444446,399.82142857142856L-316.1111111111111,399.8571428571429L-302.77777777777777,399.8642857142857L-289.44444444444446,399.8642857142857L-276.1111111111111,400L-262.77777777777777,400L-249.44444444444446,400L-236.11111111111111,400L-222.77777777777777,400L-209.44444444444446,400L-196.11111111111111,400L-182.77777777777777,400L-169.44444444444443,400L-156.11111111111111,400L-142.77777777777777,400L-129.44444444444446,400L-116.11111111111111,400L-102.77777777777777,400L-89.44444444444444,400L-76.11111111111111,400L-62.77777777777778,400L-49.44444444444444,400L-36.11111111111111,400L-22.77777777777778,400L-9.444444444444445,400L3.888888888888889,400L17.22222222222222,400L30.555555555555557,400L43.888888888888886,400L57.22222222222222,400L70.55555555555556,400L83.88888888888889,400L97.22222222222221,400L110.55555555555556,400L123.88888888888889,400L137.22222222222223,400L150.55555555555554,400L163.88888888888889,400L177.22222222222223,400L190.55555555555554,400L203.88888888888889,400L217.2222222222222,400L230.55555555555554,400L243.8888888888889,400L257.22222222222223,400L270.55555555555554,400L283.8888888888889,400L297.22222222222223,345.0357142857143L310.55555555555554,345.0357142857143L323.8888888888889,345.0357142857143L337.22222222222223,345.0357142857143L350.55555555555554,345.0357142857143L363.88888888888886,345.0357142857143L377.22222222222223,345.0357142857143L390.55555555555554,400L403.88888888888886,400" stroke="#e45756" stroke-width="2" opacity="1"></path></g></g><path class="foreground" aria-hidden="true" d="" display="none"></path></g><g transform="translate(0,0)"><path class="background" aria-hidden="true" d="M0,0h400v400h-400Z"></path><g><g class="mark-line role-mark concat_0_layer_1_marks" clip-path="url(#clip5)" role="graphics-object" aria-roledescription="line mark container"><path aria-label="Type: Deaths; Date: Mar 01; Count: 0" role="graphics-symbol" aria-roledescription="line mark" d="M-715.5555555555555,400L-702.2222222222222,400L-689.4444444444445,400L-676.1111111111111,400L-662.7777777777778,400L-649.4444444444445,400L-636.1111111111111,400L-622.7777777777778,399.9785714285714L-609.4444444444445,399.9785714285714L-596.1111111111111,399.9785714285714L-582.7777777777777,399.9785714285714L-569.4444444444445,399.95714285714286L-556.1111111111111,399.95L-542.7777777777778,399.95L-529.4444444444445,399.97142857142853L-516.1111111111111,399.97142857142853L-502.77777777777777,399.95L-489.44444444444446,399.9357142857143L-476.1111111111111,399.9428571428572L-462.7777777777778,399.95L-449.44444444444446,399.9142857142857L-436.1111111111111,399.88571428571424L-422.77777777777777,399.87142857142857L-409.4444444444444,399.8428571428571L-396.11111111111114,399.8071428571428L-382.77777777777777,399.7857142857143L-369.44444444444446,399.74285714285713L-356.1111111111111,399.7142857142857L-342.77777777777777,399.72142857142853L-329.44444444444446,399.6714285714286L-316.1111111111111,399.6857142857143L-302.77777777777777,399.64285714285717L-289.44444444444446,399.59285714285716L-276.1111111111111,399.5857142857143L-262.77777777777777,399.6142857142857L-249.44444444444446,399.59285714285716L-236.11111111111111,399.59285714285716L-222.77777777777777,399.5857142857143L-209.44444444444446,399.64285714285717L-196.11111111111111,399.65000000000003L-182.77777777777777,399.6857142857143L-169.44444444444443,399.65714285714284L-156.11111111111111,399.67857142857144L-142.77777777777777,399.7357142857143L-129.44444444444446,399.6642857142857L-116.11111111111111,399.6928571428572L-102.77777777777777,399.7357142857143L-89.44444444444444,399.7L-76.11111111111111,399.72857142857146L-62.77777777777778,399.7357142857143L-49.44444444444444,399.74285714285713L-36.11111111111111,399.8285714285714L-22.77777777777778,399.8285714285714L-9.444444444444445,399.8571428571429L3.888888888888889,399.88571428571424L17.22222222222222,399.9214285714286L30.555555555555557,399.9285714285714L43.888888888888886,399.9285714285714L57.22222222222222,399.9357142857143L70.55555555555556,399.9357142857143L83.88888888888889,399.9357142857143L97.22222222222221,399.95L110.55555555555556,399.9428571428572L123.88888888888889,399.9428571428572L137.22222222222223,399.9428571428572L150.55555555555554,399.9285714285714L163.88888888888889,399.90714285714284L177.22222222222223,399.90714285714284L190.55555555555554,399.8928571428571L203.88888888888889,399.90000000000003L217.2222222222222,399.90714285714284L230.55555555555554,399.90714285714284L243.8888888888889,399.9357142857143L257.22222222222223,399.9642857142857L270.55555555555554,399.9642857142857L283.8888888888889,399.9785714285714L297.22222222222223,399.9785714285714L310.55555555555554,399.9785714285714L323.8888888888889,399.9785714285714L337.22222222222223,399.9857142857143L350.55555555555554,399.9857142857143L363.88888888888886,399.99285714285713L377.22222222222223,399.99285714285713L390.55555555555554,399.99285714285713L403.88888888888886,399.99285714285713" stroke="#f58518" stroke-width="2" opacity="1"></path></g></g><path class="foreground" aria-hidden="true" d="" display="none"></path></g><g transform="translate(0,0)"><path class="background" aria-hidden="true" d="M0,0h400v400h-400Z"></path><g><g class="mark-line role-mark concat_0_layer_1_marks" clip-path="url(#clip6)" role="graphics-object" aria-roledescription="line mark container"><path aria-label="Type: Confirmed; Date: Mar 01; Count: 0" role="graphics-symbol" aria-roledescription="line mark" d="M-715.5555555555555,399.0571428571429L-702.2222222222222,398.87857142857143L-689.4444444444445,398.7142857142857L-676.1111111111111,397.37142857142857L-662.7777777777778,396.12857142857143L-649.4444444444445,395.6071428571429L-636.1111111111111,393.65714285714284L-622.7777777777778,393.26428571428573L-609.4444444444445,392.5357142857143L-596.1111111111111,391.9428571428571L-582.7777777777777,392.40714285714284L-569.4444444444445,393.2L-556.1111111111111,392.54285714285714L-542.7777777777778,393.4428571428572L-529.4444444444445,392.65714285714284L-516.1111111111111,391.68571428571425L-502.77777777777777,390.8L-489.44444444444446,390L-476.1111111111111,389.04285714285714L-462.7777777777778,388.40714285714284L-449.44444444444446,386.85L-436.1111111111111,386.45L-422.77777777777777,386.4357142857143L-409.4444444444444,386.9714285714286L-396.11111111111114,387.3L-382.77777777777777,387.29285714285714L-369.44444444444446,387.3L-356.1111111111111,388.4642857142857L-342.77777777777777,389.0357142857143L-329.44444444444446,389.9785714285714L-316.1111111111111,389.85714285714283L-302.77777777777777,389.67857142857144L-289.44444444444446,391.26428571428573L-276.1111111111111,392.4L-262.77777777777777,393.25714285714287L-249.44444444444446,393.86428571428576L-236.11111111111111,394.0142857142857L-222.77777777777777,394.7285714285714L-209.44444444444446,396.1642857142857L-196.11111111111111,395.3285714285714L-182.77777777777777,395.1071428571429L-169.44444444444443,395.54999999999995L-156.11111111111111,395.5214285714286L-142.77777777777777,396.05L-129.44444444444446,396.05L-116.11111111111111,395.9428571428572L-102.77777777777777,395.72857142857146L-89.44444444444444,396.3928571428571L-76.11111111111111,396.2428571428572L-62.77777777777778,396.6928571428571L-49.44444444444444,396.79285714285714L-36.11111111111111,396.8357142857143L-22.77777777777778,396.65L-9.444444444444445,397.34285714285716L3.888888888888889,397.5928571428571L17.22222222222222,397.7142857142857L30.555555555555557,397.7857142857143L43.888888888888886,397.7142857142857L57.22222222222222,397.8214285714286L70.55555555555556,397.8928571428571L83.88888888888889,397.95714285714286L97.22222222222221,397.88571428571424L110.55555555555556,397.95L123.88888888888889,397.9285714285714L137.22222222222223,398.1571428571429L150.55555555555554,398.37142857142857L163.88888888888889,398.5571428571429L177.22222222222223,398.7214285714286L190.55555555555554,398.84285714285716L203.88888888888889,398.9357142857143L217.2222222222222,399.01428571428573L230.55555555555554,398.9714285714286L243.8888888888889,399.10714285714283L257.22222222222223,399.2142857142857L270.55555555555554,399.24285714285713L283.8888888888889,399.1928571428571L297.22222222222223,399.1928571428571L310.55555555555554,399.2214285714286L323.8888888888889,399.26428571428573L337.22222222222223,399.23571428571427L350.55555555555554,399.1714285714286L363.88888888888886,399.14285714285717L377.22222222222223,399.2714285714286L390.55555555555554,399.3571428571429L403.88888888888886,399.35" stroke="#4c78a8" stroke-width="2" opacity="1"></path></g></g><path class="foreground" aria-hidden="true" d="" display="none"></path></g></g><g class="mark-group role-title"><g transform="translate(200,-39)"><path class="background" aria-hidden="true" d="M0,0h0v0h0Z" pointer-events="none"></path><g><g class="mark-text role-title-text" role="graphics-symbol" aria-roledescription="title" aria-label="Title text '7-day average (Daily values in light color)'" pointer-events="none"><text text-anchor="middle" transform="translate(0,10)" font-family="Roboto Condensed" font-size="13px" font-weight="normal" fill="#000" opacity="1">7-day average (Daily values in light color)</text></g></g><path class="foreground" aria-hidden="true" d="" pointer-events="none" display="none"></path></g></g></g><path class="foreground" aria-hidden="true" d="" display="none"></path></g></g><g class="mark-group role-scope concat_1_group" role="graphics-object" aria-roledescription="group mark container"><g transform="translate(471,0)"><path class="background" aria-hidden="true" d="M0,0h400v400h-400Z" stroke="#ddd" stroke-width="0"></path><g><g class="mark-group role-axis" aria-hidden="true"><g transform="translate(0.5,0.5)"><path class="background" aria-hidden="true" d="M0,0h0v0h0Z" pointer-events="none"></path><g><g class="mark-rule role-axis-grid" pointer-events="none"><line transform="translate(0,400)" x2="400" y2="0" stroke="#ddd" stroke-width="1" opacity="1"></line><line transform="translate(0,356)" x2="400" y2="0" stroke="#ddd" stroke-width="1" opacity="1"></line><line transform="translate(0,311)" x2="400" y2="0" stroke="#ddd" stroke-width="1" opacity="1"></line><line transform="translate(0,267)" x2="400" y2="0" stroke="#ddd" stroke-width="1" opacity="1"></line><line transform="translate(0,222)" x2="400" y2="0" stroke="#ddd" stroke-width="1" opacity="1"></line><line transform="translate(0,178)" x2="400" y2="0" stroke="#ddd" stroke-width="1" opacity="1"></line><line transform="translate(0,133)" x2="400" y2="0" stroke="#ddd" stroke-width="1" opacity="1"></line><line transform="translate(0,89)" x2="400" y2="0" stroke="#ddd" stroke-width="1" opacity="1"></line><line transform="translate(0,44)" x2="400" y2="0" stroke="#ddd" stroke-width="1" opacity="1"></line><line transform="translate(0,0)" x2="400" y2="0" stroke="#ddd" stroke-width="1" opacity="1"></line></g></g><path class="foreground" aria-hidden="true" d="" pointer-events="none" display="none"></path></g></g><g class="mark-group role-axis" role="graphics-symbol" aria-roledescription="axis" aria-label="X-axis titled 'Date' for a time scale with values from April 29 to May 29"><g transform="translate(0.5,400.5)"><path class="background" aria-hidden="true" d="M0,0h0v0h0Z" pointer-events="none"></path><g><g class="mark-text role-axis-label" pointer-events="none"><text text-anchor="middle" transform="translate(17.22222222222222,10)" font-family="Roboto Condensed" font-size="10px" fill="#000" opacity="1">May 01</text><text text-anchor="middle" transform="translate(43.888888888888886,10)" font-family="Roboto Condensed" font-size="10px" fill="#000" opacity="0">May 03</text><text text-anchor="middle" transform="translate(70.55555555555556,10)" font-family="Roboto Condensed" font-size="10px" fill="#000" opacity="1">May 05</text><text text-anchor="middle" transform="translate(97.22222222222221,10)" font-family="Roboto Condensed" font-size="10px" fill="#000" opacity="0">May 07</text><text text-anchor="middle" transform="translate(123.88888888888889,10)" font-family="Roboto Condensed" font-size="10px" fill="#000" opacity="1">May 09</text><text text-anchor="middle" transform="translate(150.55555555555554,10)" font-family="Roboto Condensed" font-size="10px" fill="#000" opacity="0">May 11</text><text text-anchor="middle" transform="translate(177.22222222222223,10)" font-family="Roboto Condensed" font-size="10px" fill="#000" opacity="1">May 13</text><text text-anchor="middle" transform="translate(203.88888888888889,10)" font-family="Roboto Condensed" font-size="10px" fill="#000" opacity="0">May 15</text><text text-anchor="middle" transform="translate(230.55555555555554,10)" font-family="Roboto Condensed" font-size="10px" fill="#000" opacity="1">May 17</text><text text-anchor="middle" transform="translate(257.22222222222223,10)" font-family="Roboto Condensed" font-size="10px" fill="#000" opacity="0">May 19</text><text text-anchor="middle" transform="translate(283.8888888888889,10)" font-family="Roboto Condensed" font-size="10px" fill="#000" opacity="1">May 21</text><text text-anchor="middle" transform="translate(310.55555555555554,10)" font-family="Roboto Condensed" font-size="10px" fill="#000" opacity="0">May 23</text><text text-anchor="middle" transform="translate(337.22222222222223,10)" font-family="Roboto Condensed" font-size="10px" fill="#000" opacity="1">May 25</text><text text-anchor="middle" transform="translate(363.88888888888886,10)" font-family="Roboto Condensed" font-size="10px" fill="#000" opacity="0">May 27</text><text text-anchor="middle" transform="translate(390.55555555555554,10)" font-family="Roboto Condensed" font-size="10px" fill="#000" opacity="1">May 29</text></g><g class="mark-rule role-axis-domain" pointer-events="none"><line transform="translate(0,0)" x2="400" y2="0" stroke="lightgray" stroke-width="1" opacity="1"></line></g><g class="mark-text role-axis-title" pointer-events="none"><text text-anchor="middle" transform="translate(200,25)" font-family="Roboto Condensed" font-size="11px" font-weight="normal" fill="#000" opacity="1">Date</text></g></g><path class="foreground" aria-hidden="true" d="" pointer-events="none" display="none"></path></g></g><g class="mark-group role-axis" role="graphics-symbol" aria-roledescription="axis" aria-label="Y-axis titled 'Count' for a linear scale with values from 0 to 9,000"><g transform="translate(0.5,0.5)"><path class="background" aria-hidden="true" d="M0,0h0v0h0Z" pointer-events="none"></path><g><g class="mark-text role-axis-label" pointer-events="none"><text text-anchor="end" transform="translate(-2,403)" font-family="Roboto Condensed" font-size="10px" fill="#000" opacity="1">0</text><text text-anchor="end" transform="translate(-2,358.55555555555554)" font-family="Roboto Condensed" font-size="10px" fill="#000" opacity="1">1,000</text><text text-anchor="end" transform="translate(-2,314.11111111111114)" font-family="Roboto Condensed" font-size="10px" fill="#000" opacity="1">2,000</text><text text-anchor="end" transform="translate(-2,269.6666666666667)" font-family="Roboto Condensed" font-size="10px" fill="#000" opacity="1">3,000</text><text text-anchor="end" transform="translate(-2,225.22222222222223)" font-family="Roboto Condensed" font-size="10px" fill="#000" opacity="1">4,000</text><text text-anchor="end" transform="translate(-2,180.77777777777777)" font-family="Roboto Condensed" font-size="10px" fill="#000" opacity="1">5,000</text><text text-anchor="end" transform="translate(-2,136.33333333333334)" font-family="Roboto Condensed" font-size="10px" fill="#000" opacity="1">6,000</text><text text-anchor="end" transform="translate(-2,91.88888888888889)" font-family="Roboto Condensed" font-size="10px" fill="#000" opacity="1">7,000</text><text text-anchor="end" transform="translate(-2,47.444444444444464)" font-family="Roboto Condensed" font-size="10px" fill="#000" opacity="1">8,000</text><text text-anchor="end" transform="translate(-2,3)" font-family="Roboto Condensed" font-size="10px" fill="#000" opacity="1">9,000</text></g><g class="mark-rule role-axis-domain" pointer-events="none"><line transform="translate(0,400)" x2="0" y2="-400" stroke="lightgray" stroke-width="1" opacity="1"></line></g><g class="mark-text role-axis-title" pointer-events="none"><text text-anchor="start" transform="translate(-45,-13)" font-family="Roboto Condensed" font-size="11px" font-weight="normal" fill="#000" opacity="1">Count</text></g></g><path class="foreground" aria-hidden="true" d="" pointer-events="none" display="none"></path></g></g><g class="mark-group role-scope concat_1_pathgroup" role="graphics-object" aria-roledescription="group mark container"><g transform="translate(0,0)"><path class="background" aria-hidden="true" d="M0,0h400v400h-400Z"></path><g><g class="mark-line role-mark concat_1_marks" clip-path="url(#clip7)" role="graphics-object" aria-roledescription="line mark container"><path aria-label="Type: Recovered; Date: Mar 01; Country: Norway; Confirmed: 19; Recovered: 0; Deaths: 0; Count: 0" role="graphics-symbol" aria-roledescription="line mark" d="M-795.5555555555555,400L-782.2222222222222,400L-768.8888888888889,400L-755.5555555555555,400L-742.2222222222223,400L-728.8888888888889,400L-715.5555555555555,400L-702.2222222222222,400L-689.4444444444445,399.9555555555556L-676.1111111111111,399.9555555555556L-662.7777777777778,399.9555555555556L-649.4444444444445,399.9555555555556L-636.1111111111111,399.9555555555556L-622.7777777777778,399.9555555555556L-609.4444444444445,399.9555555555556L-596.1111111111111,399.9555555555556L-582.7777777777777,399.9555555555556L-569.4444444444445,399.9555555555556L-556.1111111111111,399.9555555555556L-542.7777777777778,399.9555555555556L-529.4444444444445,399.9555555555556L-516.1111111111111,399.9555555555556L-502.77777777777777,399.9555555555556L-489.44444444444446,399.7333333333333L-476.1111111111111,399.7333333333333L-462.7777777777778,399.7333333333333L-449.44444444444446,399.7333333333333L-436.1111111111111,399.68888888888887L-422.77777777777777,399.68888888888887L-409.4444444444444,399.4666666666667L-396.11111111111114,399.4222222222222L-382.77777777777777,399.4222222222222L-369.44444444444446,398.5777777777778L-356.1111111111111,398.5777777777778L-342.77777777777777,398.5777777777778L-329.44444444444446,398.5777777777778L-316.1111111111111,398.5777777777778L-302.77777777777777,398.5777777777778L-289.44444444444446,398.5777777777778L-276.1111111111111,398.5777777777778L-262.77777777777777,398.5777777777778L-249.44444444444446,398.5777777777778L-236.11111111111111,398.5777777777778L-222.77777777777777,398.5777777777778L-209.44444444444446,398.5777777777778L-196.11111111111111,398.5777777777778L-182.77777777777777,398.5777777777778L-169.44444444444443,398.5777777777778L-156.11111111111111,398.5777777777778L-142.77777777777777,398.5777777777778L-129.44444444444446,398.5777777777778L-116.11111111111111,398.5777777777778L-102.77777777777777,398.5777777777778L-89.44444444444444,398.5777777777778L-76.11111111111111,398.5777777777778L-62.77777777777778,398.5777777777778L-49.44444444444444,398.5777777777778L-36.11111111111111,398.5777777777778L-22.77777777777778,398.5777777777778L-9.444444444444445,398.5777777777778L3.888888888888889,398.5777777777778L17.22222222222222,398.5777777777778L30.555555555555557,398.5777777777778L43.888888888888886,398.5777777777778L57.22222222222222,398.5777777777778L70.55555555555556,398.5777777777778L83.88888888888889,398.5777777777778L97.22222222222221,398.5777777777778L110.55555555555556,398.5777777777778L123.88888888888889,398.5777777777778L137.22222222222223,398.5777777777778L150.55555555555554,398.5777777777778L163.88888888888889,398.5777777777778L177.22222222222223,398.5777777777778L190.55555555555554,398.5777777777778L203.88888888888889,398.5777777777778L217.2222222222222,398.5777777777778L230.55555555555554,398.5777777777778L243.8888888888889,398.5777777777778L257.22222222222223,398.5777777777778L270.55555555555554,398.5777777777778L283.8888888888889,398.5777777777778L297.22222222222223,56.5777777777778L310.55555555555554,56.5777777777778L323.8888888888889,56.5777777777778L337.22222222222223,56.5777777777778L350.55555555555554,56.5777777777778L363.88888888888886,56.5777777777778L377.22222222222223,56.5777777777778L390.55555555555554,56.5777777777778L403.88888888888886,56.5777777777778" stroke="#e45756" stroke-width="2" opacity="0.7"></path></g></g><path class="foreground" aria-hidden="true" d="" display="none"></path></g><g transform="translate(0,0)"><path class="background" aria-hidden="true" d="M0,0h400v400h-400Z"></path><g><g class="mark-line role-mark concat_1_marks" clip-path="url(#clip8)" role="graphics-object" aria-roledescription="line mark container"><path aria-label="Type: Deaths; Date: Mar 01; Country: Norway; Confirmed: 19; Recovered: 0; Deaths: 0; Count: 0" role="graphics-symbol" aria-roledescription="line mark" d="M-795.5555555555555,400L-782.2222222222222,400L-768.8888888888889,400L-755.5555555555555,400L-742.2222222222223,400L-728.8888888888889,400L-715.5555555555555,400L-702.2222222222222,400L-689.4444444444445,400L-676.1111111111111,400L-662.7777777777778,400L-649.4444444444445,400L-636.1111111111111,400L-622.7777777777778,399.8666666666667L-609.4444444444445,399.8666666666667L-596.1111111111111,399.8666666666667L-582.7777777777777,399.8666666666667L-569.4444444444445,399.7333333333333L-556.1111111111111,399.68888888888887L-542.7777777777778,399.68888888888887L-529.4444444444445,399.68888888888887L-516.1111111111111,399.68888888888887L-502.77777777777777,399.5555555555556L-489.44444444444446,399.4666666666667L-476.1111111111111,399.3777777777778L-462.7777777777778,399.3777777777778L-449.44444444444446,399.15555555555557L-436.1111111111111,398.97777777777776L-422.77777777777777,398.8888888888889L-409.4444444444444,398.5777777777778L-396.11111111111114,398.26666666666665L-382.77777777777777,398.0444444444444L-369.44444444444446,397.77777777777777L-356.1111111111111,397.3777777777778L-342.77777777777777,397.2444444444444L-329.44444444444446,396.8444444444445L-316.1111111111111,396.6222222222222L-302.77777777777777,396.0444444444445L-289.44444444444446,395.5111111111111L-276.1111111111111,395.2L-262.77777777777777,394.97777777777776L-249.44444444444446,394.7111111111111L-236.11111111111111,394.3111111111111L-222.77777777777777,394.0444444444445L-209.44444444444446,393.8222222222222L-196.11111111111111,393.3333333333333L-182.77777777777777,393.24444444444447L-169.44444444444443,392.84444444444443L-156.11111111111111,392.7111111111111L-142.77777777777777,392.6666666666667L-129.44444444444446,391.9555555555556L-116.11111111111111,391.9111111111111L-102.77777777777777,391.68888888888887L-89.44444444444444,391.3777777777778L-76.11111111111111,391.15555555555557L-62.77777777777778,391.06666666666666L-49.44444444444444,391.06666666666666L-36.11111111111111,390.8888888888889L-22.77777777777778,390.84444444444443L-9.444444444444445,390.8L3.888888888888889,390.6666666666667L17.22222222222222,390.6666666666667L30.555555555555557,390.6222222222222L43.888888888888886,390.6222222222222L57.22222222222222,390.4888888888889L70.55555555555556,390.44444444444446L83.88888888888889,390.4L97.22222222222221,390.35555555555555L110.55555555555556,390.3111111111111L123.88888888888889,390.26666666666665L137.22222222222223,390.26666666666665L150.55555555555554,390.0444444444445L163.88888888888889,389.8666666666667L177.22222222222223,389.8222222222222L190.55555555555554,389.68888888888887L203.88888888888889,389.68888888888887L217.2222222222222,389.68888888888887L230.55555555555554,389.68888888888887L243.8888888888889,389.64444444444445L257.22222222222223,389.64444444444445L270.55555555555554,389.59999999999997L283.8888888888889,389.55555555555554L297.22222222222223,389.55555555555554L310.55555555555554,389.55555555555554L323.8888888888889,389.55555555555554L337.22222222222223,389.55555555555554L350.55555555555554,389.55555555555554L363.88888888888886,389.55555555555554L377.22222222222223,389.5111111111111L390.55555555555554,389.5111111111111L403.88888888888886,389.5111111111111" stroke="#f58518" stroke-width="2" opacity="0.7"></path></g></g><path class="foreground" aria-hidden="true" d="" display="none"></path></g><g transform="translate(0,0)"><path class="background" aria-hidden="true" d="M0,0h400v400h-400Z"></path><g><g class="mark-line role-mark concat_1_marks" clip-path="url(#clip9)" role="graphics-object" aria-roledescription="line mark container"><path aria-label="Type: Confirmed; Date: Mar 01; Country: Norway; Confirmed: 19; Recovered: 0; Deaths: 0; Count: 19" role="graphics-symbol" aria-roledescription="line mark" d="M-795.5555555555555,399.15555555555557L-782.2222222222222,398.8888888888889L-768.8888888888889,398.5777777777778L-755.5555555555555,397.5111111111111L-742.2222222222223,396.1333333333333L-728.8888888888889,395.2L-715.5555555555555,393.4666666666667L-702.2222222222222,392.1777777777778L-689.4444444444445,390.8888888888889L-676.1111111111111,382.22222222222223L-662.7777777777778,373.4222222222222L-649.4444444444445,368.8L-636.1111111111111,355.73333333333335L-622.7777777777778,351.55555555555554L-609.4444444444445,345.73333333333335L-596.1111111111111,340.7555555555556L-582.7777777777777,334.97777777777776L-569.4444444444445,331.1111111111111L-556.1111111111111,322.40000000000003L-542.7777777777778,314.93333333333334L-529.4444444444445,305.8666666666666L-516.1111111111111,294L-502.77777777777777,283.51111111111106L-489.44444444444446,272.75555555555553L-476.1111111111111,262.93333333333334L-462.7777777777778,250.26666666666665L-449.44444444444446,233.11111111111114L-436.1111111111111,221.55555555555554L-422.77777777777777,209.60000000000002L-409.4444444444444,202.44444444444446L-396.11111111111114,193.73333333333332L-382.77777777777777,183.86666666666667L-369.44444444444446,171.24444444444444L-356.1111111111111,161.33333333333331L-342.77777777777777,153.33333333333331L-329.44444444444446,147.2444444444444L-316.1111111111111,139.33333333333334L-302.77777777777777,129.51111111111112L-289.44444444444446,129.51111111111112L-276.1111111111111,123.95555555555555L-262.77777777777777,119.37777777777777L-249.44444444444446,115.15555555555554L-236.11111111111111,110.00000000000001L-222.77777777777777,106.53333333333333L-209.44444444444446,105.64444444444443L-196.11111111111111,100.44444444444443L-182.77777777777777,93.5111111111111L-169.44444444444443,91.68888888888888L-156.11111111111111,87.28888888888888L-142.77777777777777,85.42222222222225L-129.44444444444446,81.95555555555556L-116.11111111111111,80.39999999999998L-102.77777777777777,73.86666666666666L-89.44444444444444,71.06666666666666L-76.11111111111111,68.31111111111112L-62.77777777777778,66.71111111111112L-49.44444444444444,65.46666666666665L-36.11111111111111,62.26666666666665L-22.77777777777778,59.55555555555554L-9.444444444444445,57.33333333333333L3.888888888888889,56.0888888888889L17.22222222222222,54.088888888888896L30.555555555555557,52.93333333333332L43.888888888888886,51.244444444444426L57.22222222222222,48.71111111111111L70.55555555555556,46.444444444444464L83.88888888888889,44.622222222222206L97.22222222222221,42.93333333333331L110.55555555555556,41.33333333333336L123.88888888888889,40.04444444444446L137.22222222222223,39.77777777777778L150.55555555555554,38.577777777777776L163.88888888888889,37.46666666666667L177.22222222222223,36.66666666666667L190.55555555555554,35.73333333333335L203.88888888888889,34.711111111111094L217.2222222222222,33.91111111111109L230.55555555555554,33.37777777777777L243.8888888888889,33.02222222222224L257.22222222222223,32.57777777777777L270.55555555555554,31.95555555555556L283.8888888888889,30.711111111111087L297.22222222222223,29.688888888888876L310.55555555555554,29.066666666666663L323.8888888888889,28.799999999999983L337.22222222222223,28.266666666666662L350.55555555555554,27.42222222222224L363.88888888888886,26.622222222222234L377.22222222222223,26.177777777777766L390.55555555555554,25.688888888888872L403.88888888888886,25.022222222222233" stroke="#4c78a8" stroke-width="2" opacity="0.7"></path></g></g><path class="foreground" aria-hidden="true" d="" display="none"></path></g></g><g class="mark-group role-title"><g transform="translate(200,-39)"><path class="background" aria-hidden="true" d="M0,0h0v0h0Z" pointer-events="none"></path><g><g class="mark-text role-title-text" role="graphics-symbol" aria-roledescription="title" aria-label="Title text 'Total'" pointer-events="none"><text text-anchor="middle" transform="translate(0,10)" font-family="Roboto Condensed" font-size="13px" font-weight="normal" fill="#000" opacity="1">Total</text></g></g><path class="foreground" aria-hidden="true" d="" pointer-events="none" display="none"></path></g></g></g><path class="foreground" aria-hidden="true" d="" display="none"></path></g></g><g class="mark-group role-legend" role="graphics-symbol" aria-roledescription="legend" aria-label="Symbol legend for stroke color with 3 values: Confirmed, Deaths, Recovered"><g transform="translate(895,0)"><path class="background" aria-hidden="true" d="M0,0h58v37h-58Z" pointer-events="none"></path><g><g class="mark-group role-legend-entry"><g transform="translate(0,0)"><path class="background" aria-hidden="true" d="M0,0h0v0h0Z" pointer-events="none"></path><g><g class="mark-group role-scope" role="graphics-object" aria-roledescription="group mark container"><g transform="translate(0,0)"><path class="background" aria-hidden="true" d="M0,0h58v11h-58Z" pointer-events="none" opacity="1"></path><g><g class="mark-symbol role-legend-symbol" pointer-events="none"><path transform="translate(6,6)" d="M-5,0L5,0" stroke="#4c78a8" stroke-width="1.5" opacity="0.2"></path></g><g class="mark-text role-legend-label" pointer-events="none"><text text-anchor="start" transform="translate(16,9)" font-family="Roboto Condensed" font-size="10px" fill="#000" opacity="1">Confirmed</text></g></g><path class="foreground" aria-hidden="true" d="" pointer-events="none" display="none"></path></g><g transform="translate(0,13)"><path class="background" aria-hidden="true" d="M0,0h58v11h-58Z" pointer-events="none" opacity="1"></path><g><g class="mark-symbol role-legend-symbol" pointer-events="none"><path transform="translate(6,6)" d="M-5,0L5,0" stroke="#f58518" stroke-width="1.5" opacity="0.2"></path></g><g class="mark-text role-legend-label" pointer-events="none"><text text-anchor="start" transform="translate(16,9)" font-family="Roboto Condensed" font-size="10px" fill="#000" opacity="1">Deaths</text></g></g><path class="foreground" aria-hidden="true" d="" pointer-events="none" display="none"></path></g><g transform="translate(0,26)"><path class="background" aria-hidden="true" d="M0,0h58v11h-58Z" pointer-events="none" opacity="1"></path><g><g class="mark-symbol role-legend-symbol" pointer-events="none"><path transform="translate(6,6)" d="M-5,0L5,0" stroke="#e45756" stroke-width="1.5" opacity="0.2"></path></g><g class="mark-text role-legend-label" pointer-events="none"><text text-anchor="start" transform="translate(16,9)" font-family="Roboto Condensed" font-size="10px" fill="#000" opacity="1">Recovered</text></g></g><path class="foreground" aria-hidden="true" d="" pointer-events="none" display="none"></path></g></g></g><path class="foreground" aria-hidden="true" d="" pointer-events="none" display="none"></path></g></g></g><path class="foreground" aria-hidden="true" d="" pointer-events="none" display="none"></path></g></g></g><path class="foreground" aria-hidden="true" d="" display="none"></path></g></g></g></svg>