<svg class="marks" width="955" height="344" viewBox="0 0 955 344" version="1.1" xmlns="http://www.w3.org/2000/svg" xmlns:xlink="http://www.w3.org/1999/xlink"><rect width="955" height="344" style="fill: white;"></rect><defs><clipPath id="clip1"><rect x="0" y="0" width="400" height="300"></rect></clipPath><clipPath id="clip2"><rect x="0" y="0" width="400" height="300"></rect></clipPath><clipPath id="clip3"><rect x="0" y="0" width="400" height="300"></rect></clipPath><clipPath id="clip4"><rect x="0" y="0" width="400" height="300"></rect></clipPath><clipPath id="clip5"><rect x="0" y="0" width="400" height="300"></rect></clipPath><clipPath id="clip6"><rect x="0" y="0" width="400" height="300"></rect></clipPath><clipPath id="clip7"><rect x="0" y="0" width="400" height="300"></rect></clipPath><clipPath id="clip8"><rect x="0" y="0" width="400" height="300"></rect></clipPath><clipPath id="clip9"><rect x="0" y="0" width="400" height="300"></rect></clipPath></defs><g transform="translate(22,27)"><g class="mark-group role-frame root"><g transform="translate(0,0)"><path class="background" d="M0,0h0v0h0Z" style="fill: none;"></path><g><g class="mark-group role-scope concat_0_group"><g transform="translate(0,0)"><path class="background" d="M0,0h400v300h-400Z" style="fill: none; stroke: #ddd; stroke-width: 0;"></path><g><g class="mark-group role-axis"><g transform="translate(0.5,0.5)"><path class="background" d="M0,0h0v0h0Z" style="pointer-events: none; fill: none;"></path><g><g class="mark-rule role-axis-grid" style="pointer-events: none;"><line transform="translate(0,300)" x2="400" y2="0" style="fill: none; stroke: #ddd; stroke-width: 1; opacity: 1;"></line><line transform="translate(0,267)" x2="400" y2="0" style="fill: none; stroke: #ddd; stroke-width: 1; opacity: 1;"></line><line transform="translate(0,233)" x2="400" y2="0" style="fill: none; stroke: #ddd; stroke-width: 1; opacity: 1;"></line><line transform="translate(0,200)" x2="400" y2="0" style="fill: none; stroke: #ddd; stroke-width: 1; opacity: 1;"></line><line transform="translate(0,167)" x2="400" y2="0" style="fill: none; stroke: #ddd; stroke-width: 1; opacity: 1;"></line><line transform="translate(0,133)" x2="400" y2="0" style="fill: none; stroke: #ddd; stroke-width: 1; opacity: 1;"></line><line transform="translate(0,100)" x2="400" y2="0" style="fill: none; stroke: #ddd; stroke-width: 1; opacity: 1;"></line><line transform="translate(0,67)" x2="400" y2="0" style="fill: none; stroke: #ddd; stroke-width: 1; opacity: 1;"></line><line transform="translate(0,33)" x2="400" y2="0" style="fill: none; stroke: #ddd; stroke-width: 1; opacity: 1;"></line><line transform="translate(0,0)" x2="400" y2="0" style="fill: none; stroke: #ddd; stroke-width: 1; opacity: 1;"></line></g></g><path class="foreground" d="" style="pointer-events: none; display: none; fill: none;"></path></g></g><g class="mark-group role-axis"><g transform="translate(0.5,300.5)"><path class="background" d="M0,0h0v0h0Z" style="pointer-events: none; fill: none;"></path><g><g class="mark-text role-axis-label" style="pointer-events: none;"><text text-anchor="middle" transform="translate(25,10)" style="font-family: Roboto Condensed; font-size: 10px; fill: #000; opacity: 1;">Apr 03</text><text text-anchor="middle" transform="translate(75,10)" style="font-family: Roboto Condensed; font-size: 10px; fill: #000; opacity: 1;">Apr 05</text><text text-anchor="middle" transform="translate(125,10)" style="font-family: Roboto Condensed; font-size: 10px; fill: #000; opacity: 1;">Apr 07</text><text text-anchor="middle" transform="translate(175,10)" style="font-family: Roboto Condensed; font-size: 10px; fill: #000; opacity: 1;">Apr 09</text><text text-anchor="middle" transform="translate(225,10)" style="font-family: Roboto Condensed; font-size: 10px; fill: #000; opacity: 1;">Apr 11</text><text text-anchor="middle" transform="translate(275,10)" style="font-family: Roboto Condensed; font-size: 10px; fill: #000; opacity: 1;">Apr 13</text><text text-anchor="middle" transform="translate(325,10)" style="font-family: Roboto Condensed; font-size: 10px; fill: #000; opacity: 1;">Apr 15</text><text text-anchor="middle" transform="translate(375,10)" style="font-family: Roboto Condensed; font-size: 10px; fill: #000; opacity: 1;">Apr 17</text></g><g class="mark-rule role-axis-domain" style="pointer-events: none;"><line transform="translate(0,0)" x2="400" y2="0" style="fill: none; stroke: lightgray; stroke-width: 1; opacity: 1;"></line></g></g><path class="foreground" d="" style="pointer-events: none; display: none; fill: none;"></path></g></g><g class="mark-group role-axis"><g transform="translate(0.5,0.5)"><path class="background" d="M0,0h0v0h0Z" style="pointer-events: none; fill: none;"></path><g><g class="mark-text role-axis-label" style="pointer-events: none;"><text text-anchor="end" transform="translate(-2,303)" style="font-family: Roboto Condensed; font-size: 10px; fill: #000; opacity: 1;">0</text><text text-anchor="end" transform="translate(-2,269.66666666666663)" style="font-family: Roboto Condensed; font-size: 10px; fill: #000; opacity: 1;">100</text><text text-anchor="end" transform="translate(-2,236.33333333333334)" style="font-family: Roboto Condensed; font-size: 10px; fill: #000; opacity: 1;">200</text><text text-anchor="end" transform="translate(-2,203.00000000000003)" style="font-family: Roboto Condensed; font-size: 10px; fill: #000; opacity: 1;">300</text><text text-anchor="end" transform="translate(-2,169.66666666666669)" style="font-family: Roboto Condensed; font-size: 10px; fill: #000; opacity: 1;">400</text><text text-anchor="end" transform="translate(-2,136.33333333333331)" style="font-family: Roboto Condensed; font-size: 10px; fill: #000; opacity: 1;">500</text><text text-anchor="end" transform="translate(-2,103.00000000000001)" style="font-family: Roboto Condensed; font-size: 10px; fill: #000; opacity: 1;">600</text><text text-anchor="end" transform="translate(-2,69.66666666666666)" style="font-family: Roboto Condensed; font-size: 10px; fill: #000; opacity: 1;">700</text><text text-anchor="end" transform="translate(-2,36.33333333333335)" style="font-family: Roboto Condensed; font-size: 10px; fill: #000; opacity: 1;">800</text><text text-anchor="end" transform="translate(-2,3)" style="font-family: Roboto Condensed; font-size: 10px; fill: #000; opacity: 1;">900</text></g><g class="mark-rule role-axis-domain" style="pointer-events: none;"><line transform="translate(0,300)" x2="0" y2="-300" style="fill: none; stroke: lightgray; stroke-width: 1; opacity: 1;"></line></g></g><path class="foreground" d="" style="pointer-events: none; display: none; fill: none;"></path></g></g><g class="mark-group role-scope concat_0_layer_0_pathgroup"><g transform="translate(0,0)"><path class="background" d="M0,0h400v300h-400Z" style="fill: none;"></path><g><g class="mark-line role-mark concat_0_layer_0_marks" clip-path="url(#clip1)"><path d="M-650,299.95238095238096L-625,299.95238095238096L-600,299.95238095238096L-575,299.95238095238096L-550,299.95238095238096L-525,299.95238095238096L-500,300L-475,300L-450,300L-425,300L-400,300L-375,300L-350,300L-325,300L-300,300L-275,299.85714285714283L-250,298.90476190476187L-225,298.3333333333333L-200,298.0952380952381L-175,297.6666666666667L-150,297.33333333333337L-125,297.33333333333337L-100,296.7142857142857L-75,297.6666666666667L-50,298.04761904761904L-25,255.7142857142857L0,246.57142857142858L25,241.42857142857144L50,237.04761904761907L75,235.42857142857144L100,232.57142857142858L125,226.47619047619045L150,262.2857142857143L175,266.1428571428571L200,269.42857142857144L225,265.14285714285717L250,258.95238095238096L275,256.4761904761905L300,249.14285714285714L325,244.66666666666669L350,237.14285714285714L375,221.8095238095238L400,208.57142857142856L425,203.00000000000003L450,200.19047619047618L475,195.23809523809524L500,188.04761904761907L525,187.14285714285714L550,197.9047619047619L575,213L600,220.66666666666666L625,221.47619047619045L650,232.1904761904762L675,238.95238095238096L700,244.38095238095235L725,242.42857142857142L750,241.6190476190476" style="fill: none; stroke: #e45756; stroke-width: 2; opacity: 1;"></path></g></g><path class="foreground" d="" style="display: none; fill: none;"></path></g><g transform="translate(0,0)"><path class="background" d="M0,0h400v300h-400Z" style="fill: none;"></path><g><g class="mark-line role-mark concat_0_layer_0_marks" clip-path="url(#clip2)"><path d="M-650,300L-625,300L-600,300L-575,300L-550,300L-525,300L-500,300L-475,299.95238095238096L-450,299.9047619047619L-425,299.85714285714283L-400,299.8095238095238L-375,299.8095238095238L-350,299.7142857142857L-325,299.57142857142856L-300,299.42857142857144L-275,299.4761904761905L-250,299L-225,298.6666666666667L-200,298.57142857142856L-175,298.3333333333333L-150,297.95238095238096L-125,297.5238095238095L-100,297.1904761904762L-75,297.4761904761905L-50,297.23809523809524L-25,296.6666666666667L0,296.0952380952381L25,295.85714285714283L50,295.42857142857144L75,294.9047619047619L100,294.76190476190476L125,294.61904761904765L150,294.5714285714286L175,294.5714285714286L200,294.8571428571429L225,295.2857142857143L250,295.5238095238095L275,295.3333333333333L300,295.42857142857144L325,295.66666666666663L350,296L375,295.76190476190476L400,295.90476190476187L425,296.0952380952381L450,296.23809523809524L475,296.6190476190476L500,296.42857142857144L525,296.5238095238095L550,296.8095238095238L575,296.57142857142856L600,296.8095238095238L625,297L650,296.95238095238096L675,297.1904761904762L700,297.23809523809524L725,297.2857142857143L750,297.2857142857143" style="fill: none; stroke: #f58518; stroke-width: 2; opacity: 1;"></path></g></g><path class="foreground" d="" style="display: none; fill: none;"></path></g><g transform="translate(0,0)"><path class="background" d="M0,0h400v300h-400Z" style="fill: none;"></path><g><g class="mark-line role-mark concat_0_layer_0_marks" clip-path="url(#clip3)"><path d="M-650,299.04761904761904L-625,298.5238095238095L-600,295.90476190476187L-575,287.80952380952385L-550,279.3333333333333L-525,271.09523809523813L-500,262.8095238095238L-475,261.2857142857143L-450,260L-425,259.90476190476187L-400,263.7142857142857L-375,268.04761904761904L-350,271.04761904761904L-325,274.61904761904765L-300,272.1904761904762L-275,269.57142857142856L-250,269.5238095238095L-225,266.95238095238096L-200,264.42857142857144L-175,262L-150,258.9047619047619L-125,254.95238095238096L-100,250L-75,243.66666666666666L-50,237.0952380952381L-25,232L0,226.19047619047618L25,216.85714285714286L50,209.38095238095238L75,204.90476190476193L100,199.04761904761907L125,193.95238095238093L150,190.14285714285714L175,192.52380952380952L200,201.52380952380952L225,208.47619047619048L250,213.90476190476193L275,222L300,231.42857142857142L325,239.09523809523807L350,240.76190476190476L375,240.28571428571428L400,240.66666666666666L425,242.33333333333334L450,242.95238095238093L475,243.57142857142858L500,241.33333333333331L525,243.00000000000003L550,245.7142857142857L575,242.57142857142858L600,243.19047619047618L625,243.57142857142858L650,244.85714285714286L675,247.71428571428572L700,248.33333333333331L725,247.57142857142856L750,254.1904761904762" style="fill: none; stroke: #4c78a8; stroke-width: 2; opacity: 1;"></path></g></g><path class="foreground" d="" style="display: none; fill: none;"></path></g></g><g class="mark-group role-scope concat_0_layer_1_pathgroup"><g transform="translate(0,0)"><path class="background" d="M0,0h400v300h-400Z" style="fill: none;"></path><g><g class="mark-line role-mark concat_0_layer_1_marks" clip-path="url(#clip4)"><path d="M-800,300L-775,300L-750,300L-725,300L-700,300L-675,299.6666666666667L-650,300L-625,300L-600,300L-575,300L-550,300L-525,300L-500,300L-475,300L-450,300L-425,300L-400,300L-375,300L-350,300L-325,300L-300,300L-275,299L-250,293.3333333333333L-225,296L-200,298.3333333333333L-175,297L-150,297.6666666666667L-125,300L-100,294.6666666666667L-75,300L-50,298.6666666666667L-25,2.000000000000013L0,232.99999999999997L25,261.6666666666667L50,269.3333333333333L75,283.3333333333333L100,280L125,255.99999999999997L150,252.66666666666666L175,260L200,284.6666666666667L225,239.33333333333334L250,240L275,262.6666666666667L300,204.66666666666669L325,221.33333333333331L350,207.33333333333334L375,177.33333333333334L400,146.66666666666669L425,200.99999999999997L450,243.00000000000003L475,170L500,171.00000000000003L525,200.99999999999997L550,252.66666666666666L575,252.33333333333334L600,254.66666666666669L625,248.66666666666666L650,245L675,218.33333333333337L700,239L725,239L750,246.66666666666666" style="fill: none; stroke: #e45756; stroke-width: 2; opacity: 0.2;"></path></g></g><path class="foreground" d="" style="display: none; fill: none;"></path></g><g transform="translate(0,0)"><path class="background" d="M0,0h400v300h-400Z" style="fill: none;"></path><g><g class="mark-line role-mark concat_0_layer_1_marks" clip-path="url(#clip5)"><path d="M-800,300L-775,300L-750,300L-725,300L-700,300L-675,300L-650,300L-625,300L-600,300L-575,300L-550,300L-525,300L-500,300L-475,299.6666666666667L-450,299.6666666666667L-425,299.6666666666667L-400,299.6666666666667L-375,300L-350,299.3333333333333L-325,299L-300,298.6666666666667L-275,300L-250,296.3333333333333L-225,297.33333333333337L-200,299.3333333333333L-175,297.6666666666667L-150,296.3333333333333L-125,295.66666666666663L-100,297.6666666666667L-75,298.3333333333333L-50,295.66666666666663L-25,295.3333333333333L0,293.6666666666667L25,294.6666666666667L50,292.66666666666663L75,294L100,297.33333333333337L125,294.6666666666667L150,295L175,293.6666666666667L200,296.6666666666667L225,295.66666666666663L250,295.66666666666663L275,296L300,295.3333333333333L325,296.6666666666667L350,296L375,295L400,296.6666666666667L425,297L450,297L475,298L500,295.3333333333333L525,296.6666666666667L550,297L575,295L600,298.6666666666667L625,298.3333333333333L650,297.6666666666667L675,297L700,297L725,297.33333333333337L750,295" style="fill: none; stroke: #f58518; stroke-width: 2; opacity: 0.2;"></path></g></g><path class="foreground" d="" style="display: none; fill: none;"></path></g><g transform="translate(0,0)"><path class="background" d="M0,0h400v300h-400Z" style="fill: none;"></path><g><g class="mark-line role-mark concat_0_layer_1_marks" clip-path="url(#clip6)"><path d="M-800,299.6666666666667L-775,300L-750,299.3333333333333L-725,298.6666666666667L-700,300L-675,295.66666666666663L-650,300L-625,296L-600,281.6666666666667L-575,242.66666666666666L-550,239.33333333333334L-525,242.33333333333334L-500,237.66666666666666L-475,289.3333333333333L-450,287L-425,281L-400,269.3333333333333L-375,269.66666666666663L-350,263.3333333333333L-325,262.6666666666667L-300,272.3333333333333L-275,268.6666666666667L-250,280.6666666666667L-225,251.33333333333331L-200,252L-175,246.33333333333334L-150,241L-125,244.66666666666669L-100,234L-75,236.33333333333334L-50,205.33333333333331L-25,216.33333333333331L0,205.66666666666663L25,175.66666666666669L50,192.33333333333334L75,202.66666666666669L100,195.33333333333331L125,169.66666666666669L150,189.66666666666669L175,222.33333333333331L200,238.66666666666669L225,241L250,240.66666666666666L275,252L300,235.66666666666666L325,243.33333333333334L350,234L375,235.33333333333334L400,243.66666666666666L425,252.33333333333334L450,256.3333333333333L475,240L500,227.66666666666669L525,245.66666666666666L550,254.33333333333331L575,221.66666666666669L600,256.6666666666667L625,259L650,249L675,247.66666666666669L700,250L725,249L750,268" style="fill: none; stroke: #4c78a8; stroke-width: 2; opacity: 0.2;"></path></g></g><path class="foreground" d="" style="display: none; fill: none;"></path></g></g><g class="mark-group role-title"><g transform="translate(200,-22)"><path class="background" d="M0,0h0v0h0Z" style="pointer-events: none; fill: none;"></path><g><g class="mark-text role-title-text" style="pointer-events: none;"><text text-anchor="middle" transform="translate(0,10)" style="font-family: Roboto Condensed; font-size: 13px; font-weight: normal; fill: #000; opacity: 1;">7-day average (Daily values in light color)</text></g></g><path class="foreground" d="" style="pointer-events: none; display: none; fill: none;"></path></g></g></g><path class="foreground" d="" style="display: none; fill: none;"></path></g></g><g class="mark-group role-scope concat_1_group"><g transform="translate(450,0)"><path class="background" d="M0,0h400v300h-400Z" style="fill: none; stroke: #ddd; stroke-width: 0;"></path><g><g class="mark-group role-axis"><g transform="translate(0.5,0.5)"><path class="background" d="M0,0h0v0h0Z" style="pointer-events: none; fill: none;"></path><g><g class="mark-rule role-axis-grid" style="pointer-events: none;"><line transform="translate(0,300)" x2="400" y2="0" style="fill: none; stroke: #ddd; stroke-width: 1; opacity: 1;"></line><line transform="translate(0,270)" x2="400" y2="0" style="fill: none; stroke: #ddd; stroke-width: 1; opacity: 1;"></line><line transform="translate(0,240)" x2="400" y2="0" style="fill: none; stroke: #ddd; stroke-width: 1; opacity: 1;"></line><line transform="translate(0,210)" x2="400" y2="0" style="fill: none; stroke: #ddd; stroke-width: 1; opacity: 1;"></line><line transform="translate(0,180)" x2="400" y2="0" style="fill: none; stroke: #ddd; stroke-width: 1; opacity: 1;"></line><line transform="translate(0,150)" x2="400" y2="0" style="fill: none; stroke: #ddd; stroke-width: 1; opacity: 1;"></line><line transform="translate(0,120)" x2="400" y2="0" style="fill: none; stroke: #ddd; stroke-width: 1; opacity: 1;"></line><line transform="translate(0,90)" x2="400" y2="0" style="fill: none; stroke: #ddd; stroke-width: 1; opacity: 1;"></line><line transform="translate(0,60)" x2="400" y2="0" style="fill: none; stroke: #ddd; stroke-width: 1; opacity: 1;"></line><line transform="translate(0,30)" x2="400" y2="0" style="fill: none; stroke: #ddd; stroke-width: 1; opacity: 1;"></line><line transform="translate(0,0)" x2="400" y2="0" style="fill: none; stroke: #ddd; stroke-width: 1; opacity: 1;"></line></g></g><path class="foreground" d="" style="pointer-events: none; display: none; fill: none;"></path></g></g><g class="mark-group role-axis"><g transform="translate(0.5,300.5)"><path class="background" d="M0,0h0v0h0Z" style="pointer-events: none; fill: none;"></path><g><g class="mark-text role-axis-label" style="pointer-events: none;"><text text-anchor="middle" transform="translate(25,10)" style="font-family: Roboto Condensed; font-size: 10px; fill: #000; opacity: 1;">Apr 03</text><text text-anchor="middle" transform="translate(75,10)" style="font-family: Roboto Condensed; font-size: 10px; fill: #000; opacity: 1;">Apr 05</text><text text-anchor="middle" transform="translate(125,10)" style="font-family: Roboto Condensed; font-size: 10px; fill: #000; opacity: 1;">Apr 07</text><text text-anchor="middle" transform="translate(175,10)" style="font-family: Roboto Condensed; font-size: 10px; fill: #000; opacity: 1;">Apr 09</text><text text-anchor="middle" transform="translate(225,10)" style="font-family: Roboto Condensed; font-size: 10px; fill: #000; opacity: 1;">Apr 11</text><text text-anchor="middle" transform="translate(275,10)" style="font-family: Roboto Condensed; font-size: 10px; fill: #000; opacity: 1;">Apr 13</text><text text-anchor="middle" transform="translate(325,10)" style="font-family: Roboto Condensed; font-size: 10px; fill: #000; opacity: 1;">Apr 15</text><text text-anchor="middle" transform="translate(375,10)" style="font-family: Roboto Condensed; font-size: 10px; fill: #000; opacity: 1;">Apr 17</text></g><g class="mark-rule role-axis-domain" style="pointer-events: none;"><line transform="translate(0,0)" x2="400" y2="0" style="fill: none; stroke: lightgray; stroke-width: 1; opacity: 1;"></line></g></g><path class="foreground" d="" style="pointer-events: none; display: none; fill: none;"></path></g></g><g class="mark-group role-axis"><g transform="translate(0.5,0.5)"><path class="background" d="M0,0h0v0h0Z" style="pointer-events: none; fill: none;"></path><g><g class="mark-text role-axis-label" style="pointer-events: none;"><text text-anchor="end" transform="translate(-2,303)" style="font-family: Roboto Condensed; font-size: 10px; fill: #000; opacity: 1;">0</text><text text-anchor="end" transform="translate(-2,273)" style="font-family: Roboto Condensed; font-size: 10px; fill: #000; opacity: 1;">1,000</text><text text-anchor="end" transform="translate(-2,243)" style="font-family: Roboto Condensed; font-size: 10px; fill: #000; opacity: 1;">2,000</text><text text-anchor="end" transform="translate(-2,213)" style="font-family: Roboto Condensed; font-size: 10px; fill: #000; opacity: 1;">3,000</text><text text-anchor="end" transform="translate(-2,183)" style="font-family: Roboto Condensed; font-size: 10px; fill: #000; opacity: 1;">4,000</text><text text-anchor="end" transform="translate(-2,153)" style="font-family: Roboto Condensed; font-size: 10px; fill: #000; opacity: 1;">5,000</text><text text-anchor="end" transform="translate(-2,123)" style="font-family: Roboto Condensed; font-size: 10px; fill: #000; opacity: 1;">6,000</text><text text-anchor="end" transform="translate(-2,93.00000000000001)" style="font-family: Roboto Condensed; font-size: 10px; fill: #000; opacity: 1;">7,000</text><text text-anchor="end" transform="translate(-2,62.999999999999986)" style="font-family: Roboto Condensed; font-size: 10px; fill: #000; opacity: 1;">8,000</text><text text-anchor="end" transform="translate(-2,32.99999999999999)" style="font-family: Roboto Condensed; font-size: 10px; fill: #000; opacity: 1;">9,000</text><text text-anchor="end" transform="translate(-2,3)" style="font-family: Roboto Condensed; font-size: 10px; fill: #000; opacity: 1;">10,000</text></g><g class="mark-rule role-axis-domain" style="pointer-events: none;"><line transform="translate(0,300)" x2="0" y2="-300" style="fill: none; stroke: lightgray; stroke-width: 1; opacity: 1;"></line></g></g><path class="foreground" d="" style="pointer-events: none; display: none; fill: none;"></path></g></g><g class="mark-group role-scope concat_1_pathgroup"><g transform="translate(0,0)"><path class="background" d="M0,0h400v300h-400Z" style="fill: none;"></path><g><g class="mark-line role-mark concat_1_marks" clip-path="url(#clip7)"><path d="M-875,300L-850,300L-825,300L-800,300L-775,300L-750,300L-725,300L-700,300L-675,299.97L-650,299.97L-625,299.97L-600,299.97L-575,299.97L-550,299.97L-525,299.97L-500,299.97L-475,299.97L-450,299.97L-425,299.97L-400,299.97L-375,299.97L-350,299.97L-325,299.97L-300,299.97L-275,299.88L-250,299.28000000000003L-225,298.91999999999996L-200,298.77L-175,298.5L-150,298.28999999999996L-125,298.28999999999996L-100,297.81L-75,297.81L-50,297.69L-25,270.87L0,264.84000000000003L25,261.39L50,258.63L75,257.13L100,255.32999999999998L125,251.37L150,247.10999999999999L175,243.51L200,242.13000000000002L225,236.67L250,231.27L275,227.91000000000003L300,219.33L325,212.25L350,203.91L375,192.87L400,179.07L425,170.15999999999997L450,165.03L475,153.33L500,141.72L525,132.81L550,128.55L575,124.26L600,120.17999999999999L625,115.56L650,110.61000000000001L675,103.25999999999999L700,97.77L725,92.28L750,87.47999999999999" style="fill: none; stroke: #e45756; stroke-width: 2; opacity: 0.7;"></path></g></g><path class="foreground" d="" style="display: none; fill: none;"></path></g><g transform="translate(0,0)"><path class="background" d="M0,0h400v300h-400Z" style="fill: none;"></path><g><g class="mark-line role-mark concat_1_marks" clip-path="url(#clip8)"><path d="M-875,300L-850,300L-825,300L-800,300L-775,300L-750,300L-725,300L-700,300L-675,300L-650,300L-625,300L-600,300L-575,300L-550,300L-525,300L-500,300L-475,299.97L-450,299.94L-425,299.91L-400,299.88L-375,299.88L-350,299.82L-325,299.73L-300,299.61L-275,299.61L-250,299.28000000000003L-225,299.04L-200,298.98L-175,298.77L-150,298.44L-125,298.05L-100,297.84000000000003L-75,297.69L-50,297.3L-25,296.88L0,296.31L25,295.83L50,295.17L75,294.63L100,294.39L125,293.91L150,293.46L175,292.89L200,292.59000000000003L225,292.2L250,291.81L275,291.45L300,291.03L325,290.72999999999996L350,290.37L375,289.92L400,289.62L425,289.35L450,289.08L475,288.9L500,288.48L525,288.18L550,287.91L575,287.46000000000004L600,287.34L625,287.19L650,286.98L675,286.71L700,286.44L725,286.2L750,285.75" style="fill: none; stroke: #f58518; stroke-width: 2; opacity: 0.7;"></path></g></g><path class="foreground" d="" style="display: none; fill: none;"></path></g><g transform="translate(0,0)"><path class="background" d="M0,0h400v300h-400Z" style="fill: none;"></path><g><g class="mark-line role-mark concat_1_marks" clip-path="url(#clip9)"><path d="M-875,299.97L-850,299.97L-825,299.91L-800,299.88L-775,299.88L-750,299.82L-725,299.7L-700,299.7L-675,299.31L-650,299.31L-625,298.95L-600,297.3L-575,292.14L-550,286.68L-525,281.49L-500,275.88L-475,274.92L-450,273.75L-425,272.04L-400,269.28L-375,266.55L-350,263.25L-325,259.89L-300,257.4L-275,254.58L-250,252.84L-225,248.46L-200,244.14L-175,239.31L-150,234L-125,229.01999999999998L-100,223.08L-75,217.34999999999997L-50,208.82999999999998L-25,201.3L0,192.81L25,181.61999999999998L50,171.92999999999998L75,163.17000000000002L100,153.75L125,142.02L150,132.09L175,125.10000000000001L200,119.57999999999998L225,114.27000000000001L250,108.92999999999999L275,104.61L300,98.82000000000001L325,93.72L350,87.77999999999999L375,81.96L400,76.88999999999999L425,72.6L450,68.67L475,63.269999999999996L500,56.76000000000001L525,51.87000000000002L550,47.760000000000005L575,40.710000000000015L600,36.81000000000001L625,33.12000000000002L650,28.529999999999987L675,23.820000000000007L700,19.320000000000004L725,14.73000000000001L750,11.849999999999994" style="fill: none; stroke: #4c78a8; stroke-width: 2; opacity: 0.7;"></path></g></g><path class="foreground" d="" style="display: none; fill: none;"></path></g></g><g class="mark-group role-title"><g transform="translate(200,-22)"><path class="background" d="M0,0h0v0h0Z" style="pointer-events: none; fill: none;"></path><g><g class="mark-text role-title-text" style="pointer-events: none;"><text text-anchor="middle" transform="translate(0,10)" style="font-family: Roboto Condensed; font-size: 13px; font-weight: normal; fill: #000; opacity: 1;">Total</text></g></g><path class="foreground" d="" style="pointer-events: none; display: none; fill: none;"></path></g></g></g><path class="foreground" d="" style="display: none; fill: none;"></path></g></g><g class="mark-group role-legend"><g transform="translate(868,0)"><path class="background" d="M0,0h60v37h-60Z" style="pointer-events: none; fill: none;"></path><g><g class="mark-group role-legend-entry"><g transform="translate(0,0)"><path class="background" d="M0,0h0v0h0Z" style="pointer-events: none; fill: none;"></path><g><g class="mark-group role-scope"><g transform="translate(0,0)"><path class="background" d="M0,0h59.3251953125v11h-59.3251953125Z" style="pointer-events: none; fill: none; opacity: 1;"></path><g><g class="mark-symbol role-legend-symbol" style="pointer-events: none;"><path transform="translate(6,6)" d="M-5,0L5,0" style="fill: none; stroke: #4c78a8; stroke-width: 1.5; opacity: 1;"></path></g><g class="mark-text role-legend-label" style="pointer-events: none;"><text text-anchor="start" transform="translate(16,9)" style="font-family: Roboto Condensed; font-size: 10px; fill: #000; opacity: 1;">Confirmed</text></g></g><path class="foreground" d="" style="pointer-events: none; display: none; fill: none;"></path></g><g transform="translate(0,13)"><path class="background" d="M0,0h59.3251953125v11h-59.3251953125Z" style="pointer-events: none; fill: none; opacity: 1;"></path><g><g class="mark-symbol role-legend-symbol" style="pointer-events: none;"><path transform="translate(6,6)" d="M-5,0L5,0" style="fill: none; stroke: #f58518; stroke-width: 1.5; opacity: 1;"></path></g><g class="mark-text role-legend-label" style="pointer-events: none;"><text text-anchor="start" transform="translate(16,9)" style="font-family: Roboto Condensed; font-size: 10px; fill: #000; opacity: 1;">Deaths</text></g></g><path class="foreground" d="" style="pointer-events: none; display: none; fill: none;"></path></g><g transform="translate(0,26)"><path class="background" d="M0,0h59.3251953125v11h-59.3251953125Z" style="pointer-events: none; fill: none; opacity: 1;"></path><g><g class="mark-symbol role-legend-symbol" style="pointer-events: none;"><path transform="translate(6,6)" d="M-5,0L5,0" style="fill: none; stroke: #e45756; stroke-width: 1.5; opacity: 1;"></path></g><g class="mark-text role-legend-label" style="pointer-events: none;"><text text-anchor="start" transform="translate(16,9)" style="font-family: Roboto Condensed; font-size: 10px; fill: #000; opacity: 1;">Recovered</text></g></g><path class="foreground" d="" style="pointer-events: none; display: none; fill: none;"></path></g></g></g><path class="foreground" d="" style="pointer-events: none; display: none; fill: none;"></path></g></g></g><path class="foreground" d="" style="pointer-events: none; display: none; fill: none;"></path></g></g></g><path class="foreground" d="" style="display: none; fill: none;"></path></g></g></g></svg>