<svg class="marks" width="950" height="344" viewBox="0 0 950 344" version="1.1" xmlns="http://www.w3.org/2000/svg" xmlns:xlink="http://www.w3.org/1999/xlink"><rect width="950" height="344" style="fill: white;"></rect><defs><clipPath id="clip1"><rect x="0" y="0" width="400" height="300"></rect></clipPath><clipPath id="clip2"><rect x="0" y="0" width="400" height="300"></rect></clipPath><clipPath id="clip3"><rect x="0" y="0" width="400" height="300"></rect></clipPath><clipPath id="clip4"><rect x="0" y="0" width="400" height="300"></rect></clipPath><clipPath id="clip5"><rect x="0" y="0" width="400" height="300"></rect></clipPath><clipPath id="clip6"><rect x="0" y="0" width="400" height="300"></rect></clipPath><clipPath id="clip7"><rect x="0" y="0" width="400" height="300"></rect></clipPath><clipPath id="clip8"><rect x="0" y="0" width="400" height="300"></rect></clipPath><clipPath id="clip9"><rect x="0" y="0" width="400" height="300"></rect></clipPath></defs><g transform="translate(22,27)"><g class="mark-group role-frame root"><g transform="translate(0,0)"><path class="background" d="M0,0h0v0h0Z" style="fill: none;"></path><g><g class="mark-group role-scope concat_0_group"><g transform="translate(0,0)"><path class="background" d="M0,0h400v300h-400Z" style="fill: none; stroke: #ddd; stroke-width: 0;"></path><g><g class="mark-group role-axis"><g transform="translate(0.5,0.5)"><path class="background" d="M0,0h0v0h0Z" style="pointer-events: none; fill: none;"></path><g><g class="mark-rule role-axis-grid" style="pointer-events: none;"><line transform="translate(0,300)" x2="400" y2="0" style="fill: none; stroke: #ddd; stroke-width: 1; opacity: 1;"></line><line transform="translate(0,250)" x2="400" y2="0" style="fill: none; stroke: #ddd; stroke-width: 1; opacity: 1;"></line><line transform="translate(0,200)" x2="400" y2="0" style="fill: none; stroke: #ddd; stroke-width: 1; opacity: 1;"></line><line transform="translate(0,150)" x2="400" y2="0" style="fill: none; stroke: #ddd; stroke-width: 1; opacity: 1;"></line><line transform="translate(0,100)" x2="400" y2="0" style="fill: none; stroke: #ddd; stroke-width: 1; opacity: 1;"></line><line transform="translate(0,50)" x2="400" y2="0" style="fill: none; stroke: #ddd; stroke-width: 1; opacity: 1;"></line><line transform="translate(0,0)" x2="400" y2="0" style="fill: none; stroke: #ddd; stroke-width: 1; opacity: 1;"></line></g></g><path class="foreground" d="" style="pointer-events: none; display: none; fill: none;"></path></g></g><g class="mark-group role-axis"><g transform="translate(0.5,300.5)"><path class="background" d="M0,0h0v0h0Z" style="pointer-events: none; fill: none;"></path><g><g class="mark-text role-axis-label" style="pointer-events: none;"><text text-anchor="middle" transform="translate(25,10)" style="font-family: Roboto Condensed; font-size: 10px; fill: #000; opacity: 1;">Apr 03</text><text text-anchor="middle" transform="translate(75,10)" style="font-family: Roboto Condensed; font-size: 10px; fill: #000; opacity: 1;">Apr 05</text><text text-anchor="middle" transform="translate(125,10)" style="font-family: Roboto Condensed; font-size: 10px; fill: #000; opacity: 1;">Apr 07</text><text text-anchor="middle" transform="translate(175,10)" style="font-family: Roboto Condensed; font-size: 10px; fill: #000; opacity: 1;">Apr 09</text><text text-anchor="middle" transform="translate(225,10)" style="font-family: Roboto Condensed; font-size: 10px; fill: #000; opacity: 1;">Apr 11</text><text text-anchor="middle" transform="translate(275,10)" style="font-family: Roboto Condensed; font-size: 10px; fill: #000; opacity: 1;">Apr 13</text><text text-anchor="middle" transform="translate(325,10)" style="font-family: Roboto Condensed; font-size: 10px; fill: #000; opacity: 1;">Apr 15</text><text text-anchor="middle" transform="translate(375,10)" style="font-family: Roboto Condensed; font-size: 10px; fill: #000; opacity: 1;">Apr 17</text></g><g class="mark-rule role-axis-domain" style="pointer-events: none;"><line transform="translate(0,0)" x2="400" y2="0" style="fill: none; stroke: lightgray; stroke-width: 1; opacity: 1;"></line></g></g><path class="foreground" d="" style="pointer-events: none; display: none; fill: none;"></path></g></g><g class="mark-group role-axis"><g transform="translate(0.5,0.5)"><path class="background" d="M0,0h0v0h0Z" style="pointer-events: none; fill: none;"></path><g><g class="mark-text role-axis-label" style="pointer-events: none;"><text text-anchor="end" transform="translate(-2,303)" style="font-family: Roboto Condensed; font-size: 10px; fill: #000; opacity: 1;">-20</text><text text-anchor="end" transform="translate(-2,253)" style="font-family: Roboto Condensed; font-size: 10px; fill: #000; opacity: 1;">0</text><text text-anchor="end" transform="translate(-2,203.00000000000003)" style="font-family: Roboto Condensed; font-size: 10px; fill: #000; opacity: 1;">20</text><text text-anchor="end" transform="translate(-2,153)" style="font-family: Roboto Condensed; font-size: 10px; fill: #000; opacity: 1;">40</text><text text-anchor="end" transform="translate(-2,103.00000000000001)" style="font-family: Roboto Condensed; font-size: 10px; fill: #000; opacity: 1;">60</text><text text-anchor="end" transform="translate(-2,52.999999999999986)" style="font-family: Roboto Condensed; font-size: 10px; fill: #000; opacity: 1;">80</text><text text-anchor="end" transform="translate(-2,3)" style="font-family: Roboto Condensed; font-size: 10px; fill: #000; opacity: 1;">100</text></g><g class="mark-rule role-axis-domain" style="pointer-events: none;"><line transform="translate(0,300)" x2="0" y2="-300" style="fill: none; stroke: lightgray; stroke-width: 1; opacity: 1;"></line></g></g><path class="foreground" d="" style="pointer-events: none; display: none; fill: none;"></path></g></g><g class="mark-group role-scope concat_0_layer_0_pathgroup"><g transform="translate(0,0)"><path class="background" d="M0,0h400v300h-400Z" style="fill: none;"></path><g><g class="mark-line role-mark concat_0_layer_0_marks" clip-path="url(#clip1)"><path d="M-650,250L-625,250L-600,250L-575,249.64285714285717L-550,249.64285714285717L-525,249.64285714285717L-500,249.64285714285717L-475,249.64285714285717L-450,247.14285714285714L-425,250L-400,250.35714285714286L-375,248.57142857142856L-350,248.57142857142856L-325,248.57142857142856L-300,242.5L-275,251.07142857142858L-250,231.7857142857143L-225,231.7857142857143L-200,231.7857142857143L-175,222.5L-150,217.14285714285717L-125,217.14285714285717L-100,203.57142857142858L-75,212.14285714285717L-50,197.5L-25,189.64285714285714L0,177.85714285714283L25,174.28571428571428L50,149.28571428571428L75,145.35714285714286L100,141.78571428571428L125,121.07142857142857L150,104.28571428571432L175,105.71428571428571L200,92.14285714285715L225,91.07142857142858L250,85.35714285714285L275,81.07142857142858L300,96.42857142857142L325,91.42857142857143L350,87.14285714285717L375,81.07142857142858L400,89.28571428571426L425,106.42857142857142L450,96.7857142857143L475,97.14285714285717L500,112.5L525,119.64285714285715L550,136.42857142857142L575,150.35714285714286L600,136.7857142857143L625,156.42857142857142L650,171.78571428571428L675,180.7142857142857L700,192.49999999999997L725,197.5L750,201.42857142857144" style="fill: none; stroke: #e45756; stroke-width: 2; opacity: 1;"></path></g></g><path class="foreground" d="" style="display: none; fill: none;"></path></g><g transform="translate(0,0)"><path class="background" d="M0,0h400v300h-400Z" style="fill: none;"></path><g><g class="mark-line role-mark concat_0_layer_0_marks" clip-path="url(#clip2)"><path d="M-650,250L-625,250L-600,250L-575,250L-550,250L-525,250L-500,250L-475,250L-450,248.2142857142857L-425,250L-400,249.64285714285717L-375,249.64285714285717L-350,249.64285714285717L-325,250L-300,249.64285714285717L-275,251.42857142857144L-250,249.64285714285717L-225,249.64285714285717L-200,249.64285714285717L-175,249.64285714285717L-150,249.2857142857143L-125,249.64285714285717L-100,249.64285714285717L-75,249.64285714285717L-50,250L-25,250L0,249.2857142857143L25,249.2857142857143L50,249.2857142857143L75,249.2857142857143L100,248.57142857142856L125,248.57142857142856L150,248.57142857142856L175,249.2857142857143L200,248.92857142857144L225,248.57142857142856L250,248.57142857142856L275,249.2857142857143L300,249.2857142857143L325,249.2857142857143L350,249.2857142857143L375,249.2857142857143L400,249.64285714285717L425,249.64285714285717L450,249.2857142857143L475,249.2857142857143L500,249.2857142857143L525,249.2857142857143L550,249.64285714285717L575,249.64285714285717L600,249.64285714285717L625,250L650,250L675,250L700,250L725,250L750,250" style="fill: none; stroke: #f58518; stroke-width: 2; opacity: 1;"></path></g></g><path class="foreground" d="" style="display: none; fill: none;"></path></g><g transform="translate(0,0)"><path class="background" d="M0,0h400v300h-400Z" style="fill: none;"></path><g><g class="mark-line role-mark concat_0_layer_0_marks" clip-path="url(#clip3)"><path d="M-650,232.5L-625,233.21428571428572L-600,231.42857142857142L-575,229.28571428571428L-550,228.92857142857142L-525,225.35714285714286L-500,217.5L-475,212.14285714285717L-450,206.78571428571428L-425,206.42857142857142L-400,196.07142857142858L-375,191.07142857142856L-350,168.92857142857142L-325,151.78571428571428L-300,136.7857142857143L-275,108.2142857142857L-250,104.28571428571432L-225,97.14285714285717L-200,76.07142857142857L-175,81.42857142857144L-150,78.21428571428574L-125,75L-100,88.57142857142858L-75,72.14285714285715L-50,76.07142857142857L-25,77.49999999999999L0,65.35714285714286L25,80.71428571428572L50,87.85714285714285L75,83.57142857142857L100,80.00000000000001L125,88.92857142857142L150,108.57142857142858L175,132.5L200,138.92857142857144L225,152.85714285714283L250,173.2142857142857L275,196.78571428571428L300,202.14285714285717L325,210.35714285714283L350,217.5L375,221.7857142857143L400,224.64285714285714L425,225L450,227.85714285714283L475,229.28571428571428L500,229.28571428571428L525,232.14285714285714L550,237.5L575,239.2857142857143L600,242.5L625,243.21428571428572L650,243.92857142857142L675,245.7142857142857L700,247.14285714285714L725,246.78571428571428L750,247.14285714285714" style="fill: none; stroke: #4c78a8; stroke-width: 2; opacity: 1;"></path></g></g><path class="foreground" d="" style="display: none; fill: none;"></path></g></g><g class="mark-group role-scope concat_0_layer_1_pathgroup"><g transform="translate(0,0)"><path class="background" d="M0,0h400v300h-400Z" style="fill: none;"></path><g><g class="mark-line role-mark concat_0_layer_1_marks" clip-path="url(#clip4)"><path d="M-800,250L-775,250L-750,250L-725,250L-700,250L-675,250L-650,250L-625,250L-600,250L-575,247.5L-550,250L-525,250L-500,250L-475,250L-450,232.5L-425,270L-400,250L-375,237.5L-350,250L-325,250L-300,207.5L-275,292.5L-250,135L-225,250L-200,237.5L-175,185L-150,212.49999999999997L-125,207.5L-100,197.5L-75,195L-50,147.5L-25,182.50000000000003L0,102.5L25,187.5L50,32.499999999999986L75,170L100,170L125,2.499999999999991L150,65L175,112.5L200,92.5L225,25.00000000000001L250,130L275,140L300,110.00000000000001L325,29.999999999999993L350,82.5L375,49.999999999999986L400,82.5L425,250L450,72.50000000000001L475,112.5L500,137.5L525,132.5L550,167.5L575,180L600,154.99999999999997L625,210L650,220.00000000000003L675,200.00000000000003L700,215L725,202.5L750,207.5" style="fill: none; stroke: #e45756; stroke-width: 2; opacity: 0.2;"></path></g></g><path class="foreground" d="" style="display: none; fill: none;"></path></g><g transform="translate(0,0)"><path class="background" d="M0,0h400v300h-400Z" style="fill: none;"></path><g><g class="mark-line role-mark concat_0_layer_1_marks" clip-path="url(#clip5)"><path d="M-800,250L-775,250L-750,250L-725,250L-700,250L-675,250L-650,250L-625,250L-600,250L-575,250L-550,250L-525,250L-500,250L-475,250L-450,237.5L-425,262.5L-400,247.5L-375,250L-350,250L-325,252.5L-300,247.5L-275,250L-250,250L-225,247.5L-200,250L-175,250L-150,250L-125,250L-100,250L-75,250L-50,250L-25,250L0,245L25,250L50,250L75,250L100,245L125,250L150,250L175,250L200,247.5L225,247.5L250,250L275,250L300,250L325,250L350,250L375,247.5L400,250L425,250L450,247.5L475,250L500,250L525,250L550,250L575,250L600,250L625,250L650,250L675,250L700,250L725,250L750,250" style="fill: none; stroke: #f58518; stroke-width: 2; opacity: 0.2;"></path></g></g><path class="foreground" d="" style="display: none; fill: none;"></path></g><g transform="translate(0,0)"><path class="background" d="M0,0h400v300h-400Z" style="fill: none;"></path><g><g class="mark-line role-mark concat_0_layer_1_marks" clip-path="url(#clip6)"><path d="M-800,245L-775,242.5L-750,237.5L-725,212.49999999999997L-700,229.99999999999997L-675,227.5L-650,232.5L-625,250L-600,229.99999999999997L-575,222.5L-550,210L-525,205L-500,172.5L-475,195L-450,212.49999999999997L-425,227.5L-400,150L-375,174.99999999999997L-350,49.999999999999986L-325,52.500000000000014L-300,90.00000000000001L-275,12.49999999999999L-250,200.00000000000003L-225,100.00000000000001L-200,27.500000000000004L-175,87.49999999999999L-150,29.999999999999993L-125,67.5L-100,107.49999999999999L-75,85L-50,127.50000000000001L-25,37.5L0,2.499999999999991L25,137.5L50,117.50000000000001L75,77.49999999999999L100,59.999999999999986L125,190L150,174.99999999999997L175,170L200,182.50000000000003L225,215L250,220.00000000000003L275,225L300,227.5L325,232.5L350,220.00000000000003L375,212.49999999999997L400,235L425,222.5L450,245L475,237.5L500,232.5L525,240L550,250L575,247.5L600,245L625,250L650,242.5L675,245L700,250L725,247.5L750,250" style="fill: none; stroke: #4c78a8; stroke-width: 2; opacity: 0.2;"></path></g></g><path class="foreground" d="" style="display: none; fill: none;"></path></g></g><g class="mark-group role-title"><g transform="translate(200,-22)"><path class="background" d="M0,0h0v0h0Z" style="pointer-events: none; fill: none;"></path><g><g class="mark-text role-title-text" style="pointer-events: none;"><text text-anchor="middle" transform="translate(0,10)" style="font-family: Roboto Condensed; font-size: 13px; font-weight: normal; fill: #000; opacity: 1;">7-day average (Daily values in light color)</text></g></g><path class="foreground" d="" style="pointer-events: none; display: none; fill: none;"></path></g></g></g><path class="foreground" d="" style="display: none; fill: none;"></path></g></g><g class="mark-group role-scope concat_1_group"><g transform="translate(445,0)"><path class="background" d="M0,0h400v300h-400Z" style="fill: none; stroke: #ddd; stroke-width: 0;"></path><g><g class="mark-group role-axis"><g transform="translate(0.5,0.5)"><path class="background" d="M0,0h0v0h0Z" style="pointer-events: none; fill: none;"></path><g><g class="mark-rule role-axis-grid" style="pointer-events: none;"><line transform="translate(0,300)" x2="400" y2="0" style="fill: none; stroke: #ddd; stroke-width: 1; opacity: 1;"></line><line transform="translate(0,267)" x2="400" y2="0" style="fill: none; stroke: #ddd; stroke-width: 1; opacity: 1;"></line><line transform="translate(0,233)" x2="400" y2="0" style="fill: none; stroke: #ddd; stroke-width: 1; opacity: 1;"></line><line transform="translate(0,200)" x2="400" y2="0" style="fill: none; stroke: #ddd; stroke-width: 1; opacity: 1;"></line><line transform="translate(0,167)" x2="400" y2="0" style="fill: none; stroke: #ddd; stroke-width: 1; opacity: 1;"></line><line transform="translate(0,133)" x2="400" y2="0" style="fill: none; stroke: #ddd; stroke-width: 1; opacity: 1;"></line><line transform="translate(0,100)" x2="400" y2="0" style="fill: none; stroke: #ddd; stroke-width: 1; opacity: 1;"></line><line transform="translate(0,67)" x2="400" y2="0" style="fill: none; stroke: #ddd; stroke-width: 1; opacity: 1;"></line><line transform="translate(0,33)" x2="400" y2="0" style="fill: none; stroke: #ddd; stroke-width: 1; opacity: 1;"></line><line transform="translate(0,0)" x2="400" y2="0" style="fill: none; stroke: #ddd; stroke-width: 1; opacity: 1;"></line></g></g><path class="foreground" d="" style="pointer-events: none; display: none; fill: none;"></path></g></g><g class="mark-group role-axis"><g transform="translate(0.5,300.5)"><path class="background" d="M0,0h0v0h0Z" style="pointer-events: none; fill: none;"></path><g><g class="mark-text role-axis-label" style="pointer-events: none;"><text text-anchor="middle" transform="translate(25,10)" style="font-family: Roboto Condensed; font-size: 10px; fill: #000; opacity: 1;">Apr 03</text><text text-anchor="middle" transform="translate(75,10)" style="font-family: Roboto Condensed; font-size: 10px; fill: #000; opacity: 1;">Apr 05</text><text text-anchor="middle" transform="translate(125,10)" style="font-family: Roboto Condensed; font-size: 10px; fill: #000; opacity: 1;">Apr 07</text><text text-anchor="middle" transform="translate(175,10)" style="font-family: Roboto Condensed; font-size: 10px; fill: #000; opacity: 1;">Apr 09</text><text text-anchor="middle" transform="translate(225,10)" style="font-family: Roboto Condensed; font-size: 10px; fill: #000; opacity: 1;">Apr 11</text><text text-anchor="middle" transform="translate(275,10)" style="font-family: Roboto Condensed; font-size: 10px; fill: #000; opacity: 1;">Apr 13</text><text text-anchor="middle" transform="translate(325,10)" style="font-family: Roboto Condensed; font-size: 10px; fill: #000; opacity: 1;">Apr 15</text><text text-anchor="middle" transform="translate(375,10)" style="font-family: Roboto Condensed; font-size: 10px; fill: #000; opacity: 1;">Apr 17</text></g><g class="mark-rule role-axis-domain" style="pointer-events: none;"><line transform="translate(0,0)" x2="400" y2="0" style="fill: none; stroke: lightgray; stroke-width: 1; opacity: 1;"></line></g></g><path class="foreground" d="" style="pointer-events: none; display: none; fill: none;"></path></g></g><g class="mark-group role-axis"><g transform="translate(0.5,0.5)"><path class="background" d="M0,0h0v0h0Z" style="pointer-events: none; fill: none;"></path><g><g class="mark-text role-axis-label" style="pointer-events: none;"><text text-anchor="end" transform="translate(-2,303)" style="font-family: Roboto Condensed; font-size: 10px; fill: #000; opacity: 1;">0</text><text text-anchor="end" transform="translate(-2,269.66666666666663)" style="font-family: Roboto Condensed; font-size: 10px; fill: #000; opacity: 1;">200</text><text text-anchor="end" transform="translate(-2,236.33333333333334)" style="font-family: Roboto Condensed; font-size: 10px; fill: #000; opacity: 1;">400</text><text text-anchor="end" transform="translate(-2,203.00000000000003)" style="font-family: Roboto Condensed; font-size: 10px; fill: #000; opacity: 1;">600</text><text text-anchor="end" transform="translate(-2,169.66666666666669)" style="font-family: Roboto Condensed; font-size: 10px; fill: #000; opacity: 1;">800</text><text text-anchor="end" transform="translate(-2,136.33333333333331)" style="font-family: Roboto Condensed; font-size: 10px; fill: #000; opacity: 1;">1,000</text><text text-anchor="end" transform="translate(-2,103.00000000000001)" style="font-family: Roboto Condensed; font-size: 10px; fill: #000; opacity: 1;">1,200</text><text text-anchor="end" transform="translate(-2,69.66666666666666)" style="font-family: Roboto Condensed; font-size: 10px; fill: #000; opacity: 1;">1,400</text><text text-anchor="end" transform="translate(-2,36.33333333333335)" style="font-family: Roboto Condensed; font-size: 10px; fill: #000; opacity: 1;">1,600</text><text text-anchor="end" transform="translate(-2,3)" style="font-family: Roboto Condensed; font-size: 10px; fill: #000; opacity: 1;">1,800</text></g><g class="mark-rule role-axis-domain" style="pointer-events: none;"><line transform="translate(0,300)" x2="0" y2="-300" style="fill: none; stroke: lightgray; stroke-width: 1; opacity: 1;"></line></g></g><path class="foreground" d="" style="pointer-events: none; display: none; fill: none;"></path></g></g><g class="mark-group role-scope concat_1_pathgroup"><g transform="translate(0,0)"><path class="background" d="M0,0h400v300h-400Z" style="fill: none;"></path><g><g class="mark-line role-mark concat_1_marks" clip-path="url(#clip7)"><path d="M-850,300L-825,300L-800,300L-775,300L-750,300L-725,300L-700,300L-675,300L-650,300L-625,300L-600,300L-575,299.8333333333333L-550,299.8333333333333L-525,299.8333333333333L-500,299.8333333333333L-475,299.8333333333333L-450,298.6666666666667L-425,300L-400,300L-375,299.1666666666667L-350,299.1666666666667L-325,299.1666666666667L-300,296.3333333333333L-275,299.1666666666667L-250,291.5L-225,291.5L-200,290.6666666666667L-175,286.3333333333333L-150,283.8333333333333L-125,281L-100,277.5L-75,273.8333333333333L-50,267L-25,262.5L0,252.66666666666666L25,248.5L50,234L75,228.66666666666669L100,223.33333333333334L125,206.83333333333337L150,194.5L175,185.33333333333331L200,174.83333333333334L225,159.83333333333334L250,151.83333333333334L275,144.5L300,135.16666666666669L325,120.49999999999999L350,109.33333333333334L375,95.99999999999999L400,84.83333333333334L425,84.83333333333334L450,72.99999999999999L475,63.83333333333332L500,56.33333333333334L525,48.499999999999986L550,42.99999999999999L575,38.33333333333333L600,32.00000000000001L625,29.33333333333332L650,27.333333333333343L675,23.99999999999999L700,21.666666666666657L725,18.499999999999993L750,15.66666666666665" style="fill: none; stroke: #e45756; stroke-width: 2; opacity: 0.7;"></path></g></g><path class="foreground" d="" style="display: none; fill: none;"></path></g><g transform="translate(0,0)"><path class="background" d="M0,0h400v300h-400Z" style="fill: none;"></path><g><g class="mark-line role-mark concat_1_marks" clip-path="url(#clip8)"><path d="M-850,300L-825,300L-800,300L-775,300L-750,300L-725,300L-700,300L-675,300L-650,300L-625,300L-600,300L-575,300L-550,300L-525,300L-500,300L-475,300L-450,299.1666666666667L-425,300L-400,299.8333333333333L-375,299.8333333333333L-350,299.8333333333333L-325,300L-300,299.8333333333333L-275,299.8333333333333L-250,299.8333333333333L-225,299.6666666666667L-200,299.6666666666667L-175,299.6666666666667L-150,299.6666666666667L-125,299.6666666666667L-100,299.6666666666667L-75,299.6666666666667L-50,299.6666666666667L-25,299.6666666666667L0,299.3333333333333L25,299.3333333333333L50,299.3333333333333L75,299.3333333333333L100,299L125,299L150,299L175,299L200,298.8333333333333L225,298.6666666666667L250,298.6666666666667L275,298.6666666666667L300,298.6666666666667L325,298.6666666666667L350,298.6666666666667L375,298.5L400,298.5L425,298.5L450,298.3333333333333L475,298.3333333333333L500,298.3333333333333L525,298.3333333333333L550,298.3333333333333L575,298.3333333333333L600,298.3333333333333L625,298.3333333333333L650,298.3333333333333L675,298.3333333333333L700,298.3333333333333L725,298.3333333333333L750,298.3333333333333" style="fill: none; stroke: #f58518; stroke-width: 2; opacity: 0.7;"></path></g></g><path class="foreground" d="" style="display: none; fill: none;"></path></g><g transform="translate(0,0)"><path class="background" d="M0,0h400v300h-400Z" style="fill: none;"></path><g><g class="mark-line role-mark concat_1_marks" clip-path="url(#clip9)"><path d="M-850,299.8333333333333L-825,299.8333333333333L-800,299.5L-775,299L-750,298.1666666666667L-725,295.66666666666663L-700,294.33333333333337L-675,292.83333333333337L-650,291.6666666666667L-625,291.6666666666667L-600,290.3333333333333L-575,288.5L-550,285.8333333333333L-525,282.83333333333337L-500,277.6666666666667L-475,274L-450,271.5L-425,270L-400,263.3333333333333L-375,258.33333333333337L-350,245L-325,231.83333333333334L-300,221.16666666666666L-275,205.33333333333331L-250,202L-225,192L-200,177.16666666666666L-175,166.33333333333334L-150,151.66666666666666L-125,139.5L-100,130L-75,118.99999999999999L-50,110.83333333333334L-25,96.66666666666666L0,80.16666666666667L25,72.66666666666667L50,63.83333333333332L75,52.33333333333332L100,39.66666666666667L125,35.66666666666668L150,30.666666666666664L175,25.33333333333333L200,20.833333333333325L225,18.499999999999993L250,16.500000000000014L275,14.833333333333321L300,13.33333333333332L325,12.16666666666667L350,10.166666666666657L375,7.666666666666666L400,6.666666666666677L425,4.833333333333323L450,4.5000000000000036L475,3.6666666666666736L500,2.499999999999991L525,1.8333333333333202L550,1.8333333333333202L575,1.6666666666666607L600,1.333333333333342L625,1.333333333333342L650,0.8333333333333304L675,0.5000000000000115L700,0.5000000000000115L725,0.3333333333333188L750,0.3333333333333188" style="fill: none; stroke: #4c78a8; stroke-width: 2; opacity: 0.7;"></path></g></g><path class="foreground" d="" style="display: none; fill: none;"></path></g></g><g class="mark-group role-title"><g transform="translate(200,-22)"><path class="background" d="M0,0h0v0h0Z" style="pointer-events: none; fill: none;"></path><g><g class="mark-text role-title-text" style="pointer-events: none;"><text text-anchor="middle" transform="translate(0,10)" style="font-family: Roboto Condensed; font-size: 13px; font-weight: normal; fill: #000; opacity: 1;">Total</text></g></g><path class="foreground" d="" style="pointer-events: none; display: none; fill: none;"></path></g></g></g><path class="foreground" d="" style="display: none; fill: none;"></path></g></g><g class="mark-group role-legend"><g transform="translate(863,0)"><path class="background" d="M0,0h60v37h-60Z" style="pointer-events: none; fill: none;"></path><g><g class="mark-group role-legend-entry"><g transform="translate(0,0)"><path class="background" d="M0,0h0v0h0Z" style="pointer-events: none; fill: none;"></path><g><g class="mark-group role-scope"><g transform="translate(0,0)"><path class="background" d="M0,0h59.3251953125v11h-59.3251953125Z" style="pointer-events: none; fill: none; opacity: 1;"></path><g><g class="mark-symbol role-legend-symbol" style="pointer-events: none;"><path transform="translate(6,6)" d="M-5,0L5,0" style="fill: none; stroke: #4c78a8; stroke-width: 1.5; opacity: 1;"></path></g><g class="mark-text role-legend-label" style="pointer-events: none;"><text text-anchor="start" transform="translate(16,9)" style="font-family: Roboto Condensed; font-size: 10px; fill: #000; opacity: 1;">Confirmed</text></g></g><path class="foreground" d="" style="pointer-events: none; display: none; fill: none;"></path></g><g transform="translate(0,13)"><path class="background" d="M0,0h59.3251953125v11h-59.3251953125Z" style="pointer-events: none; fill: none; opacity: 1;"></path><g><g class="mark-symbol role-legend-symbol" style="pointer-events: none;"><path transform="translate(6,6)" d="M-5,0L5,0" style="fill: none; stroke: #f58518; stroke-width: 1.5; opacity: 1;"></path></g><g class="mark-text role-legend-label" style="pointer-events: none;"><text text-anchor="start" transform="translate(16,9)" style="font-family: Roboto Condensed; font-size: 10px; fill: #000; opacity: 1;">Deaths</text></g></g><path class="foreground" d="" style="pointer-events: none; display: none; fill: none;"></path></g><g transform="translate(0,26)"><path class="background" d="M0,0h59.3251953125v11h-59.3251953125Z" style="pointer-events: none; fill: none; opacity: 1;"></path><g><g class="mark-symbol role-legend-symbol" style="pointer-events: none;"><path transform="translate(6,6)" d="M-5,0L5,0" style="fill: none; stroke: #e45756; stroke-width: 1.5; opacity: 1;"></path></g><g class="mark-text role-legend-label" style="pointer-events: none;"><text text-anchor="start" transform="translate(16,9)" style="font-family: Roboto Condensed; font-size: 10px; fill: #000; opacity: 1;">Recovered</text></g></g><path class="foreground" d="" style="pointer-events: none; display: none; fill: none;"></path></g></g></g><path class="foreground" d="" style="pointer-events: none; display: none; fill: none;"></path></g></g></g><path class="foreground" d="" style="pointer-events: none; display: none; fill: none;"></path></g></g></g><path class="foreground" d="" style="display: none; fill: none;"></path></g></g></g></svg>