<svg class="marks" width="616" height="276" viewBox="0 0 616 276" version="1.1" xmlns="http://www.w3.org/2000/svg" xmlns:xlink="http://www.w3.org/1999/xlink"><defs><clipPath id="clip1"><rect x="0" y="0" width="200" height="200"></rect></clipPath><clipPath id="clip2"><rect x="0" y="0" width="200" height="200"></rect></clipPath><clipPath id="clip3"><rect x="0" y="0" width="200" height="200"></rect></clipPath><clipPath id="clip4"><rect x="0" y="0" width="200" height="200"></rect></clipPath><clipPath id="clip5"><rect x="0" y="0" width="200" height="200"></rect></clipPath><clipPath id="clip6"><rect x="0" y="0" width="200" height="200"></rect></clipPath><clipPath id="clip7"><rect x="0" y="0" width="200" height="200"></rect></clipPath><clipPath id="clip8"><rect x="0" y="0" width="200" height="200"></rect></clipPath><clipPath id="clip9"><rect x="0" y="0" width="200" height="200"></rect></clipPath></defs><rect width="616" height="276" fill="white"></rect><g fill="none" stroke-miterlimit="10" transform="translate(50,44)"><g class="mark-group role-frame root" role="graphics-object" aria-roledescription="group mark container"><g transform="translate(0,0)"><path class="background" aria-hidden="true" d="M0,0h0v200h0Z"></path><g><g class="mark-group role-scope concat_0_group" role="graphics-object" aria-roledescription="group mark container"><g transform="translate(0,0)"><path class="background" aria-hidden="true" d="M0,0h200v200h-200Z" stroke="#ddd" stroke-width="0"></path><g><g class="mark-group role-axis" aria-hidden="true"><g transform="translate(0.5,0.5)"><path class="background" aria-hidden="true" d="M0,0h0v0h0Z" pointer-events="none"></path><g><g class="mark-rule role-axis-grid" pointer-events="none"><line transform="translate(0,186)" x2="200" y2="0" stroke="#ddd" stroke-width="1" opacity="1"></line><line transform="translate(0,150)" x2="200" y2="0" stroke="#ddd" stroke-width="1" opacity="1"></line><line transform="translate(0,114)" x2="200" y2="0" stroke="#ddd" stroke-width="1" opacity="1"></line><line transform="translate(0,79)" x2="200" y2="0" stroke="#ddd" stroke-width="1" opacity="1"></line><line transform="translate(0,43)" x2="200" y2="0" stroke="#ddd" stroke-width="1" opacity="1"></line><line transform="translate(0,7)" x2="200" y2="0" stroke="#ddd" stroke-width="1" opacity="1"></line></g></g><path class="foreground" aria-hidden="true" d="" pointer-events="none" display="none"></path></g></g><g class="mark-group role-axis" role="graphics-symbol" aria-roledescription="axis" aria-label="X-axis titled 'Date' for a time scale with values from April 24 to May 24"><g transform="translate(0.5,200.5)"><path class="background" aria-hidden="true" d="M0,0h0v0h0Z" pointer-events="none"></path><g><g class="mark-text role-axis-label" pointer-events="none"><text text-anchor="middle" transform="translate(8.61111111111111,10)" font-family="Roboto Condensed" font-size="10px" fill="#000" opacity="1">Apr 26</text><text text-anchor="middle" transform="translate(55.27777777777778,10)" font-family="Roboto Condensed" font-size="10px" fill="#000" opacity="1">May 03</text><text text-anchor="middle" transform="translate(101.94444444444444,10)" font-family="Roboto Condensed" font-size="10px" fill="#000" opacity="1">May 10</text><text text-anchor="middle" transform="translate(148.61111111111111,10)" font-family="Roboto Condensed" font-size="10px" fill="#000" opacity="1">May 17</text><text text-anchor="middle" transform="translate(195.27777777777777,10)" font-family="Roboto Condensed" font-size="10px" fill="#000" opacity="1">May 24</text></g><g class="mark-rule role-axis-domain" pointer-events="none"><line transform="translate(0,0)" x2="200" y2="0" stroke="lightgray" stroke-width="1" opacity="1"></line></g><g class="mark-text role-axis-title" pointer-events="none"><text text-anchor="middle" transform="translate(100,25)" font-family="Roboto Condensed" font-size="11px" font-weight="normal" fill="#000" opacity="1">Date</text></g></g><path class="foreground" aria-hidden="true" d="" pointer-events="none" display="none"></path></g></g><g class="mark-group role-axis" role="graphics-symbol" aria-roledescription="axis" aria-label="Y-axis titled 'Count' for a linear scale with values from -200 to 2,600"><g transform="translate(0.5,0.5)"><path class="background" aria-hidden="true" d="M0,0h0v0h0Z" pointer-events="none"></path><g><g class="mark-text role-axis-label" pointer-events="none"><text text-anchor="end" transform="translate(-2,188.71428571428572)" font-family="Roboto Condensed" font-size="10px" fill="#000" opacity="1">0</text><text text-anchor="end" transform="translate(-2,153)" font-family="Roboto Condensed" font-size="10px" fill="#000" opacity="1">500</text><text text-anchor="end" transform="translate(-2,117.28571428571428)" font-family="Roboto Condensed" font-size="10px" fill="#000" opacity="1">1,000</text><text text-anchor="end" transform="translate(-2,81.57142857142858)" font-family="Roboto Condensed" font-size="10px" fill="#000" opacity="1">1,500</text><text text-anchor="end" transform="translate(-2,45.85714285714286)" font-family="Roboto Condensed" font-size="10px" fill="#000" opacity="1">2,000</text><text text-anchor="end" transform="translate(-2,10.142857142857139)" font-family="Roboto Condensed" font-size="10px" fill="#000" opacity="1">2,500</text></g><g class="mark-rule role-axis-domain" pointer-events="none"><line transform="translate(0,200)" x2="0" y2="-200" stroke="lightgray" stroke-width="1" opacity="1"></line></g><g class="mark-text role-axis-title" pointer-events="none"><text text-anchor="start" transform="translate(-45,-13)" font-family="Roboto Condensed" font-size="11px" font-weight="normal" fill="#000" opacity="1">Count</text></g></g><path class="foreground" aria-hidden="true" d="" pointer-events="none" display="none"></path></g></g><g class="mark-group role-scope concat_0_layer_0_pathgroup" role="graphics-object" aria-roledescription="group mark container"><g transform="translate(0,0)"><path class="background" aria-hidden="true" d="M0,0h200v200h-200Z"></path><g><g class="mark-line role-mark concat_0_layer_0_marks" clip-path="url(#clip1)" role="graphics-object" aria-roledescription="line mark container"><path aria-label="Type: Recovered; Date: Mar 01; Count: 0" role="graphics-symbol" aria-roledescription="line mark" d="M-364.44444444444446,185.71428571428572L-357.77777777777777,185.71428571428572L-351.1111111111111,185.71428571428572L-344.44444444444446,185.71428571428572L-337.77777777777777,185.71428571428572L-331.1111111111111,185.71428571428572L-324.44444444444446,185.71428571428572L-317.77777777777777,185.71428571428572L-311.3888888888889,185.71428571428572L-304.72222222222223,185.71428571428572L-298.05555555555554,185.71428571428572L-291.38888888888886,185.71428571428572L-284.72222222222223,185.71428571428572L-278.05555555555554,185.71428571428572L-271.3888888888889,185.71428571428572L-264.72222222222223,185.71428571428572L-258.05555555555554,185.71428571428572L-251.38888888888889,183.57142857142856L-244.72222222222223,185.71428571428572L-238.05555555555554,187.85714285714286L-231.3888888888889,167L-224.72222222222223,185.71428571428572L-218.05555555555554,185.71428571428572L-211.38888888888889,171.57142857142858L-204.7222222222222,179.57142857142858L-198.05555555555557,176.57142857142858L-191.38888888888889,172.64285714285714L-184.72222222222223,171.07142857142856L-178.05555555555554,164.57142857142856L-171.38888888888889,173.71428571428572L-164.72222222222223,173.64285714285714L-158.05555555555554,154.57142857142858L-151.38888888888889,159.78571428571428L-144.72222222222223,158.78571428571428L-138.05555555555554,158.92857142857144L-131.38888888888889,149.71428571428572L-124.72222222222223,168.92857142857142L-118.05555555555556,173.5L-111.38888888888889,148.28571428571428L-104.72222222222223,151.2142857142857L-98.05555555555556,156.85714285714286L-91.38888888888889,155.85714285714286L-84.72222222222221,151.64285714285714L-78.05555555555556,168.28571428571428L-71.38888888888889,174.21428571428572L-64.72222222222223,168.64285714285714L-58.05555555555556,153.2142857142857L-51.388888888888886,157.2142857142857L-44.72222222222222,158.07142857142858L-38.05555555555556,156.5L-31.38888888888889,175.85714285714283L-24.72222222222222,178.07142857142856L-18.055555555555554,154.92857142857144L-11.38888888888889,159.5L-4.722222222222222,162.71428571428572L1.9444444444444444,164.64285714285714L8.61111111111111,159.42857142857144L15.277777777777779,179.07142857142858L21.944444444444443,181.07142857142858L28.61111111111111,161.42857142857144L35.27777777777778,164.78571428571428L41.94444444444444,163.14285714285714L48.61111111111111,162.92857142857142L55.27777777777778,178.71428571428572L61.94444444444444,180.78571428571428L68.61111111111111,181.2142857142857L75.27777777777777,165L81.94444444444444,167.92857142857142L88.61111111111111,169.92857142857142L95.27777777777777,170.7142857142857L101.94444444444444,169.21428571428572L108.6111111111111,181.78571428571428L115.27777777777777,183.2142857142857L121.94444444444446,171.07142857142856L128.61111111111111,173.28571428571428L135.27777777777777,172.14285714285717L141.94444444444446,174.35714285714286L148.61111111111111,173.57142857142858L155.27777777777777,183.78571428571428L161.94444444444446,183.57142857142856L168.61111111111111,174.28571428571428L175.27777777777777,175.64285714285714L181.94444444444443,176.07142857142856L188.61111111111111,183.42857142857142L195.27777777777777,177.35714285714286L201.94444444444443,183.92857142857142" stroke="#e45756" stroke-width="2" opacity="0.2"></path></g></g><path class="foreground" aria-hidden="true" d="" display="none"></path></g><g transform="translate(0,0)"><path class="background" aria-hidden="true" d="M0,0h200v200h-200Z"></path><g><g class="mark-line role-mark concat_0_layer_0_marks" clip-path="url(#clip2)" role="graphics-object" aria-roledescription="line mark container"><path aria-label="Type: Deaths; Date: Mar 01; Count: 0" role="graphics-symbol" aria-roledescription="line mark" d="M-364.44444444444446,185.71428571428572L-357.77777777777777,185.71428571428572L-351.1111111111111,185.71428571428572L-344.44444444444446,185.71428571428572L-337.77777777777777,185.71428571428572L-331.1111111111111,185.71428571428572L-324.44444444444446,185.71428571428572L-317.77777777777777,185.71428571428572L-311.3888888888889,185.71428571428572L-304.72222222222223,185.71428571428572L-298.05555555555554,185.5L-291.38888888888886,185.71428571428572L-284.72222222222223,185.71428571428572L-278.05555555555554,185.64285714285714L-271.3888888888889,185.71428571428572L-264.72222222222223,185.64285714285714L-258.05555555555554,185.35714285714286L-251.38888888888889,185.42857142857144L-244.72222222222223,185.21428571428572L-238.05555555555554,184.57142857142856L-231.3888888888889,183.57142857142856L-224.72222222222223,185.14285714285714L-218.05555555555554,184.78571428571428L-211.38888888888889,183.28571428571428L-204.7222222222222,181.71428571428572L-198.05555555555557,182.71428571428572L-191.38888888888889,180.78571428571428L-184.72222222222223,181.14285714285714L-178.05555555555554,180.14285714285714L-171.38888888888889,179.85714285714286L-164.72222222222223,172L-158.05555555555554,176.92857142857144L-151.38888888888889,172.64285714285714L-144.72222222222223,176.28571428571428L-138.05555555555554,175.71428571428572L-131.38888888888889,174L-124.72222222222223,172.5L-118.05555555555556,156.92857142857144L-111.38888888888889,171.07142857142856L-104.72222222222223,165.5L-98.05555555555556,150.28571428571428L-91.38888888888889,162.35714285714286L-84.72222222222221,167.57142857142858L-78.05555555555556,164.07142857142858L-71.38888888888889,167.57142857142858L-64.72222222222223,165.5L-58.05555555555556,155.92857142857142L-51.388888888888886,163.85714285714286L-44.72222222222222,165L-38.05555555555556,169.28571428571428L-31.38888888888889,175.35714285714286L-24.72222222222222,173.57142857142858L-18.055555555555554,166.85714285714286L-11.38888888888889,169.42857142857144L-4.722222222222222,172.21428571428572L1.9444444444444444,168.71428571428572L8.61111111111111,173.07142857142856L15.277777777777779,177.64285714285714L21.944444444444443,176.85714285714286L28.61111111111111,173.57142857142858L35.27777777777778,179.07142857142858L41.94444444444444,177.92857142857144L48.61111111111111,181.2857142857143L55.27777777777778,180.07142857142858L61.94444444444444,180L68.61111111111111,179.14285714285714L75.27777777777777,162.64285714285714L81.94444444444444,180.2857142857143L88.61111111111111,178.14285714285714L95.27777777777777,181.42857142857142L101.94444444444444,180.35714285714286L108.6111111111111,182.07142857142858L115.27777777777777,181.85714285714286L121.94444444444446,179.85714285714286L128.61111111111111,181.42857142857142L135.27777777777777,181.71428571428572L141.94444444444446,182.42857142857142L148.61111111111111,182.35714285714286L155.27777777777777,183.71428571428572L161.94444444444446,183.71428571428572L168.61111111111111,182.71428571428572L175.27777777777777,183.14285714285714L181.94444444444443,183.85714285714286L188.61111111111111,183.92857142857142L195.27777777777777,182.64285714285714L201.94444444444443,183.42857142857142" stroke="#f58518" stroke-width="2" opacity="0.2"></path></g></g><path class="foreground" aria-hidden="true" d="" display="none"></path></g><g transform="translate(0,0)"><path class="background" aria-hidden="true" d="M0,0h200v200h-200Z"></path><g><g class="mark-line role-mark concat_0_layer_0_marks" clip-path="url(#clip3)" role="graphics-object" aria-roledescription="line mark container"><path aria-label="Type: Confirmed; Date: Mar 01; Count: 1" role="graphics-symbol" aria-roledescription="line mark" d="M-364.44444444444446,185.64285714285714L-357.77777777777777,185.28571428571428L-351.1111111111111,185.35714285714286L-344.44444444444446,185L-337.77777777777777,183.78571428571428L-331.1111111111111,181.5L-324.44444444444446,181.42857142857142L-317.77777777777777,183.5L-311.3888888888889,182.92857142857142L-304.72222222222223,183.71428571428572L-298.05555555555554,182.35714285714286L-291.38888888888886,185.71428571428572L-284.72222222222223,168.21428571428572L-278.05555555555554,176.42857142857142L-271.3888888888889,171.64285714285714L-264.72222222222223,173.42857142857142L-258.05555555555554,172.5L-251.38888888888889,168.35714285714286L-244.72222222222223,163.64285714285717L-238.05555555555554,152.71428571428572L-231.3888888888889,145.85714285714286L-224.72222222222223,143.85714285714286L-218.05555555555554,161.2857142857143L-211.38888888888889,148.14285714285714L-204.7222222222222,138L-198.05555555555557,93L-191.38888888888889,110.78571428571429L-184.72222222222223,53.571428571428584L-178.05555555555554,64.14285714285714L-171.38888888888889,109.78571428571429L-164.72222222222223,123.14285714285714L-158.05555555555554,100.7857142857143L-151.38888888888889,86.85714285714286L-144.72222222222223,84.14285714285714L-138.05555555555554,67.07142857142858L-131.38888888888889,95.71428571428571L-124.72222222222223,105.50000000000001L-118.05555555555556,87.14285714285714L-111.38888888888889,99.35714285714286L-104.72222222222223,72.85714285714286L-98.05555555555556,65.42857142857143L-91.38888888888889,89.21428571428571L-84.72222222222221,69.35714285714285L-78.05555555555556,118.42857142857142L-71.38888888888889,147.85714285714286L-64.72222222222223,10.42857142857143L-58.05555555555556,97.42857142857142L-51.388888888888886,90.78571428571429L-44.72222222222222,111.07142857142858L-38.05555555555556,91.92857142857143L-31.38888888888889,79.5L-24.72222222222222,116.21428571428571L-18.055555555555554,119.07142857142858L-11.38888888888889,120.85714285714286L-4.722222222222222,78.85714285714285L1.9444444444444444,112.00000000000001L8.61111111111111,127.92857142857143L15.277777777777779,146.21428571428572L21.944444444444443,139.5L28.61111111111111,148.21428571428572L35.27777777777778,138.57142857142856L41.94444444444444,149.07142857142856L48.61111111111111,151.07142857142856L55.27777777777778,157.92857142857142L61.94444444444444,159.92857142857142L68.61111111111111,168.42857142857142L75.27777777777777,166.28571428571428L81.94444444444444,140.07142857142858L88.61111111111111,143.5L95.27777777777777,143.92857142857142L101.94444444444444,151.07142857142856L108.6111111111111,159.42857142857144L115.27777777777777,162.14285714285714L121.94444444444446,171.28571428571428L128.61111111111111,163.78571428571428L135.27777777777777,160.28571428571428L141.94444444444446,161.07142857142858L148.61111111111111,164.92857142857142L155.27777777777777,165.78571428571428L161.94444444444446,169.14285714285714L168.61111111111111,172L175.27777777777777,167.7142857142857L181.94444444444443,166L188.61111111111111,164.35714285714286L195.27777777777777,165.57142857142856L201.94444444444443,167.85714285714286" stroke="#4c78a8" stroke-width="2" opacity="0.2"></path></g></g><path class="foreground" aria-hidden="true" d="" display="none"></path></g></g><g class="mark-group role-scope concat_0_layer_1_pathgroup" role="graphics-object" aria-roledescription="group mark container"><g transform="translate(0,0)"><path class="background" aria-hidden="true" d="M0,0h200v200h-200Z"></path><g><g class="mark-line role-mark concat_0_layer_1_marks" clip-path="url(#clip4)" role="graphics-object" aria-roledescription="line mark container"><path aria-label="Type: Recovered; Date: Mar 01; Count: 0" role="graphics-symbol" aria-roledescription="line mark" d="M-324.44444444444446,185.71428571428572L-317.77777777777777,185.71428571428572L-311.3888888888889,185.71428571428572L-304.72222222222223,185.71428571428572L-298.05555555555554,185.71428571428572L-291.38888888888886,185.71428571428572L-284.72222222222223,185.71428571428572L-278.05555555555554,185.71428571428572L-271.3888888888889,185.71428571428572L-264.72222222222223,185.71428571428572L-258.05555555555554,185.71428571428572L-251.38888888888889,185.40816326530611L-244.72222222222223,185.40816326530611L-238.05555555555554,185.71428571428572L-231.3888888888889,183.04081632653063L-224.72222222222223,183.04081632653063L-218.05555555555554,183.04081632653063L-211.38888888888889,181.0204081632653L-204.7222222222222,180.44897959183675L-198.05555555555557,179.14285714285714L-191.38888888888889,176.96938775510205L-184.72222222222223,177.55102040816325L-178.05555555555554,174.53061224489795L-171.38888888888889,172.81632653061226L-164.72222222222223,173.1122448979592L-158.05555555555554,169.54081632653063L-151.38888888888889,167.14285714285714L-144.72222222222223,165.16326530612244L-138.05555555555554,163.42857142857144L-131.38888888888889,161.3061224489796L-124.72222222222223,160.62244897959184L-118.05555555555556,160.60204081632654L-111.38888888888889,159.70408163265307L-104.72222222222223,158.4795918367347L-98.05555555555556,158.20408163265307L-91.38888888888889,157.76530612244898L-84.72222222222221,158.0408163265306L-78.05555555555556,157.94897959183675L-71.38888888888889,158.05102040816328L-64.72222222222223,160.9591836734694L-58.05555555555556,161.24489795918367L-51.388888888888886,161.29591836734693L-44.72222222222222,161.6122448979592L-38.05555555555556,162.3061224489796L-31.38888888888889,163.3877551020408L-24.72222222222222,163.9387755102041L-18.055555555555554,161.9795918367347L-11.38888888888889,162.87755102040816L-4.722222222222222,163.66326530612244L1.9444444444444444,164.60204081632654L8.61111111111111,165.0204081632653L15.277777777777779,165.4795918367347L21.944444444444443,165.90816326530614L28.61111111111111,166.83673469387753L35.27777777777778,167.59183673469389L41.94444444444444,167.6530612244898L48.61111111111111,167.40816326530611L55.27777777777778,170.16326530612244L61.94444444444444,170.40816326530611L68.61111111111111,170.42857142857142L75.27777777777777,170.9387755102041L81.94444444444444,171.3877551020408L88.61111111111111,172.35714285714286L95.27777777777777,173.46938775510205L101.94444444444444,172.1122448979592L108.6111111111111,172.25510204081633L115.27777777777777,172.5408163265306L121.94444444444446,173.40816326530611L128.61111111111111,174.17346938775512L135.27777777777777,174.48979591836735L141.94444444444446,175.01020408163265L148.61111111111111,175.6326530612245L155.27777777777777,175.91836734693877L161.94444444444446,175.96938775510205L168.61111111111111,176.42857142857142L175.27777777777777,176.76530612244898L181.94444444444443,177.3265306122449L188.61111111111111,178.62244897959184L195.27777777777777,179.16326530612247L201.94444444444443,179.18367346938774" stroke="#e45756" stroke-width="2" opacity="1"></path></g></g><path class="foreground" aria-hidden="true" d="" display="none"></path></g><g transform="translate(0,0)"><path class="background" aria-hidden="true" d="M0,0h200v200h-200Z"></path><g><g class="mark-line role-mark concat_0_layer_1_marks" clip-path="url(#clip5)" role="graphics-object" aria-roledescription="line mark container"><path aria-label="Type: Deaths; Date: Mar 01; Count: 0" role="graphics-symbol" aria-roledescription="line mark" d="M-324.44444444444446,185.71428571428572L-317.77777777777777,185.71428571428572L-311.3888888888889,185.71428571428572L-304.72222222222223,185.71428571428572L-298.05555555555554,185.68367346938777L-291.38888888888886,185.68367346938777L-284.72222222222223,185.68367346938777L-278.05555555555554,185.67346938775512L-271.3888888888889,185.67346938775512L-264.72222222222223,185.66326530612244L-258.05555555555554,185.6122448979592L-251.38888888888889,185.60204081632654L-244.72222222222223,185.53061224489795L-238.05555555555554,185.3673469387755L-231.3888888888889,185.07142857142858L-224.72222222222223,184.98979591836735L-218.05555555555554,184.8673469387755L-211.38888888888889,184.57142857142856L-204.7222222222222,184.04081632653063L-198.05555555555557,183.68367346938777L-191.38888888888889,183.14285714285714L-184.72222222222223,182.79591836734696L-178.05555555555554,182.08163265306123L-171.38888888888889,181.37755102040816L-164.72222222222223,179.76530612244898L-158.05555555555554,179.08163265306123L-151.38888888888889,177.64285714285714L-144.72222222222223,177L-138.05555555555554,176.22448979591837L-131.38888888888889,175.3469387755102L-124.72222222222223,174.29591836734693L-118.05555555555556,172.14285714285717L-111.38888888888889,171.30612244897958L-104.72222222222223,170.28571428571428L-98.05555555555556,166.57142857142858L-91.38888888888889,164.66326530612244L-84.72222222222221,163.74489795918367L-78.05555555555556,162.5408163265306L-71.38888888888889,164.06122448979593L-64.72222222222223,163.26530612244898L-58.05555555555556,161.89795918367346L-51.388888888888886,163.83673469387756L-44.72222222222222,164.21428571428572L-38.05555555555556,164.4591836734694L-31.38888888888889,166.07142857142856L-24.72222222222222,166.92857142857142L-18.055555555555554,167.12244897959184L-11.38888888888889,169.05102040816325L-4.722222222222222,170.24489795918367L1.9444444444444444,170.77551020408163L8.61111111111111,171.31632653061223L15.277777777777779,171.64285714285714L21.944444444444443,172.1122448979592L28.61111111111111,173.07142857142856L35.27777777777778,174.44897959183675L41.94444444444444,175.26530612244898L48.61111111111111,177.0612244897959L55.27777777777778,178.06122448979593L61.94444444444444,178.39795918367346L68.61111111111111,178.72448979591837L75.27777777777777,177.16326530612244L81.94444444444444,177.33673469387753L88.61111111111111,177.3673469387755L95.27777777777777,177.3877551020408L101.94444444444444,177.42857142857142L108.6111111111111,177.72448979591837L115.27777777777777,178.1122448979592L121.94444444444446,180.57142857142856L128.61111111111111,180.73469387755102L135.27777777777777,181.24489795918367L141.94444444444446,181.3877551020408L148.61111111111111,181.6734693877551L155.27777777777777,181.90816326530611L161.94444444444446,182.1734693877551L168.61111111111111,182.58163265306123L175.27777777777777,182.8265306122449L181.94444444444443,183.1326530612245L188.61111111111111,183.3469387755102L195.27777777777777,183.3877551020408L201.94444444444443,183.3469387755102" stroke="#f58518" stroke-width="2" opacity="1"></path></g></g><path class="foreground" aria-hidden="true" d="" display="none"></path></g><g transform="translate(0,0)"><path class="background" aria-hidden="true" d="M0,0h200v200h-200Z"></path><g><g class="mark-line role-mark concat_0_layer_1_marks" clip-path="url(#clip6)" role="graphics-object" aria-roledescription="line mark container"><path aria-label="Type: Confirmed; Date: Mar 01; Count: 0" role="graphics-symbol" aria-roledescription="line mark" d="M-324.44444444444446,184L-317.77777777777777,183.6938775510204L-311.3888888888889,183.35714285714286L-304.72222222222223,183.12244897959184L-298.05555555555554,182.74489795918367L-291.38888888888886,183.0204081632653L-284.72222222222223,181.12244897959184L-278.05555555555554,180.40816326530614L-271.3888888888889,178.71428571428572L-264.72222222222223,177.35714285714286L-258.05555555555554,175.75510204081633L-251.38888888888889,173.75510204081633L-244.72222222222223,170.60204081632654L-238.05555555555554,168.3877551020408L-231.3888888888889,164.0204081632653L-224.72222222222223,160.05102040816328L-218.05555555555554,158.31632653061226L-211.38888888888889,154.83673469387756L-204.7222222222222,150.5L-198.05555555555557,140.40816326530611L-191.38888888888889,134.4183673469388L-184.72222222222223,121.23469387755101L-178.05555555555554,109.8469387755102L-171.38888888888889,102.48979591836735L-164.72222222222223,98.91836734693878L-158.05555555555554,93.60204081632652L-151.38888888888889,92.72448979591836L-144.72222222222223,88.9183673469388L-138.05555555555554,90.8469387755102L-131.38888888888889,95.35714285714285L-124.72222222222223,94.74489795918366L-118.05555555555556,89.60204081632652L-111.38888888888889,89.39795918367348L-104.72222222222223,87.39795918367348L-98.05555555555556,84.72448979591836L-91.38888888888889,87.88775510204081L-84.72222222222221,84.12244897959185L-78.05555555555556,85.96938775510206L-71.38888888888889,94.64285714285714L-64.72222222222223,81.93877551020408L-58.05555555555556,85.44897959183673L-51.388888888888886,89.07142857142858L-44.72222222222222,92.19387755102042L-38.05555555555556,95.41836734693878L-31.38888888888889,89.85714285714286L-24.72222222222222,85.33673469387755L-18.055555555555554,100.85714285714285L-11.38888888888889,104.20408163265307L-4.722222222222222,102.49999999999999L1.9444444444444444,102.63265306122449L8.61111111111111,107.77551020408166L15.277777777777779,117.30612244897958L21.944444444444443,120.6326530612245L28.61111111111111,124.79591836734694L35.27777777777778,127.32653061224491L41.94444444444444,137.35714285714286L48.61111111111111,142.93877551020407L55.27777777777778,147.22448979591837L61.94444444444444,149.18367346938774L68.61111111111111,153.31632653061226L75.27777777777777,155.89795918367346L81.94444444444444,156.1122448979592L88.61111111111111,155.31632653061226L95.27777777777777,154.29591836734693L101.94444444444444,153.31632653061226L108.6111111111111,153.24489795918367L115.27777777777777,152.3469387755102L121.94444444444446,153.06122448979593L128.61111111111111,156.44897959183672L135.27777777777777,158.8469387755102L141.94444444444446,161.29591836734693L148.61111111111111,163.27551020408166L155.27777777777777,164.18367346938777L161.94444444444446,165.18367346938777L168.61111111111111,165.28571428571428L175.27777777777777,165.8469387755102L181.94444444444443,166.66326530612247L188.61111111111111,167.1326530612245L195.27777777777777,167.22448979591837L201.94444444444443,167.5204081632653" stroke="#4c78a8" stroke-width="2" opacity="1"></path></g></g><path class="foreground" aria-hidden="true" d="" display="none"></path></g></g><g class="mark-group role-title"><g transform="translate(100,-39)"><path class="background" aria-hidden="true" d="M0,0h0v0h0Z" pointer-events="none"></path><g><g class="mark-text role-title-text" role="graphics-symbol" aria-roledescription="title" aria-label="Title text '7-day average (Daily values in light color)'" pointer-events="none"><text text-anchor="middle" transform="translate(0,10)" font-family="Roboto Condensed" font-size="13px" font-weight="normal" fill="#000" opacity="1">7-day average (Daily values in light color)</text></g></g><path class="foreground" aria-hidden="true" d="" pointer-events="none" display="none"></path></g></g></g><path class="foreground" aria-hidden="true" d="" display="none"></path></g></g><g class="mark-group role-scope concat_1_group" role="graphics-object" aria-roledescription="group mark container"><g transform="translate(275,0)"><path class="background" aria-hidden="true" d="M0,0h200v200h-200Z" stroke="#ddd" stroke-width="0"></path><g><g class="mark-group role-axis" aria-hidden="true"><g transform="translate(0.5,0.5)"><path class="background" aria-hidden="true" d="M0,0h0v0h0Z" pointer-events="none"></path><g><g class="mark-rule role-axis-grid" pointer-events="none"><line transform="translate(0,200)" x2="200" y2="0" stroke="#ddd" stroke-width="1" opacity="1"></line><line transform="translate(0,167)" x2="200" y2="0" stroke="#ddd" stroke-width="1" opacity="1"></line><line transform="translate(0,133)" x2="200" y2="0" stroke="#ddd" stroke-width="1" opacity="1"></line><line transform="translate(0,100)" x2="200" y2="0" stroke="#ddd" stroke-width="1" opacity="1"></line><line transform="translate(0,67)" x2="200" y2="0" stroke="#ddd" stroke-width="1" opacity="1"></line><line transform="translate(0,33)" x2="200" y2="0" stroke="#ddd" stroke-width="1" opacity="1"></line><line transform="translate(0,0)" x2="200" y2="0" stroke="#ddd" stroke-width="1" opacity="1"></line></g></g><path class="foreground" aria-hidden="true" d="" pointer-events="none" display="none"></path></g></g><g class="mark-group role-axis" role="graphics-symbol" aria-roledescription="axis" aria-label="X-axis titled 'Date' for a time scale with values from April 24 to May 24"><g transform="translate(0.5,200.5)"><path class="background" aria-hidden="true" d="M0,0h0v0h0Z" pointer-events="none"></path><g><g class="mark-text role-axis-label" pointer-events="none"><text text-anchor="middle" transform="translate(8.61111111111111,10)" font-family="Roboto Condensed" font-size="10px" fill="#000" opacity="1">Apr 26</text><text text-anchor="middle" transform="translate(55.27777777777778,10)" font-family="Roboto Condensed" font-size="10px" fill="#000" opacity="1">May 03</text><text text-anchor="middle" transform="translate(101.94444444444444,10)" font-family="Roboto Condensed" font-size="10px" fill="#000" opacity="1">May 10</text><text text-anchor="middle" transform="translate(148.61111111111111,10)" font-family="Roboto Condensed" font-size="10px" fill="#000" opacity="1">May 17</text><text text-anchor="middle" transform="translate(195.27777777777777,10)" font-family="Roboto Condensed" font-size="10px" fill="#000" opacity="1">May 24</text></g><g class="mark-rule role-axis-domain" pointer-events="none"><line transform="translate(0,0)" x2="200" y2="0" stroke="lightgray" stroke-width="1" opacity="1"></line></g><g class="mark-text role-axis-title" pointer-events="none"><text text-anchor="middle" transform="translate(100,25)" font-family="Roboto Condensed" font-size="11px" font-weight="normal" fill="#000" opacity="1">Date</text></g></g><path class="foreground" aria-hidden="true" d="" pointer-events="none" display="none"></path></g></g><g class="mark-group role-axis" role="graphics-symbol" aria-roledescription="axis" aria-label="Y-axis titled 'Count' for a linear scale with values from 0 to 60,000"><g transform="translate(0.5,0.5)"><path class="background" aria-hidden="true" d="M0,0h0v0h0Z" pointer-events="none"></path><g><g class="mark-text role-axis-label" pointer-events="none"><text text-anchor="end" transform="translate(-2,203)" font-family="Roboto Condensed" font-size="10px" fill="#000" opacity="1">0</text><text text-anchor="end" transform="translate(-2,169.66666666666669)" font-family="Roboto Condensed" font-size="10px" fill="#000" opacity="1">10,000</text><text text-anchor="end" transform="translate(-2,136.33333333333334)" font-family="Roboto Condensed" font-size="10px" fill="#000" opacity="1">20,000</text><text text-anchor="end" transform="translate(-2,103)" font-family="Roboto Condensed" font-size="10px" fill="#000" opacity="1">30,000</text><text text-anchor="end" transform="translate(-2,69.66666666666667)" font-family="Roboto Condensed" font-size="10px" fill="#000" opacity="1">40,000</text><text text-anchor="end" transform="translate(-2,36.33333333333333)" font-family="Roboto Condensed" font-size="10px" fill="#000" opacity="1">50,000</text><text text-anchor="end" transform="translate(-2,3)" font-family="Roboto Condensed" font-size="10px" fill="#000" opacity="1">60,000</text></g><g class="mark-rule role-axis-domain" pointer-events="none"><line transform="translate(0,200)" x2="0" y2="-200" stroke="lightgray" stroke-width="1" opacity="1"></line></g><g class="mark-text role-axis-title" pointer-events="none"><text text-anchor="start" transform="translate(-45,-13)" font-family="Roboto Condensed" font-size="11px" font-weight="normal" fill="#000" opacity="1">Count</text></g></g><path class="foreground" aria-hidden="true" d="" pointer-events="none" display="none"></path></g></g><g class="mark-group role-scope concat_1_pathgroup" role="graphics-object" aria-roledescription="group mark container"><g transform="translate(0,0)"><path class="background" aria-hidden="true" d="M0,0h200v200h-200Z"></path><g><g class="mark-line role-mark concat_1_marks" clip-path="url(#clip7)" role="graphics-object" aria-roledescription="line mark container"><path aria-label="Type: Recovered; Date: Mar 01; Country: Belgium; Confirmed: 2; Recovered: 1; Deaths: 0; Count: 1" role="graphics-symbol" aria-roledescription="line mark" d="M-364.44444444444446,199.99666666666667L-357.77777777777777,199.99666666666667L-351.1111111111111,199.99666666666667L-344.44444444444446,199.99666666666667L-337.77777777777777,199.99666666666667L-331.1111111111111,199.99666666666667L-324.44444444444446,199.99666666666667L-317.77777777777777,199.99666666666667L-311.3888888888889,199.99666666666667L-304.72222222222223,199.99666666666667L-298.05555555555554,199.99666666666667L-291.38888888888886,199.99666666666667L-284.72222222222223,199.99666666666667L-278.05555555555554,199.99666666666667L-271.3888888888889,199.99666666666667L-264.72222222222223,199.99666666666667L-258.05555555555554,199.99666666666667L-251.38888888888889,199.89666666666665L-244.72222222222223,199.89666666666665L-238.05555555555554,199.99666666666667L-231.3888888888889,199.12333333333333L-224.72222222222223,199.12333333333333L-218.05555555555554,199.12333333333333L-211.38888888888889,198.46333333333334L-204.7222222222222,198.17666666666668L-198.05555555555557,197.75L-191.38888888888889,197.14000000000001L-184.72222222222223,196.45666666666665L-178.05555555555554,195.47L-171.38888888888889,194.91L-164.72222222222223,194.34666666666666L-158.05555555555554,192.89333333333335L-151.38888888888889,191.68333333333334L-144.72222222222223,190.42666666666665L-138.05555555555554,189.17666666666665L-131.38888888888889,187.49666666666667L-124.72222222222223,186.71333333333334L-118.05555555555556,186.14333333333332L-111.38888888888889,184.39666666666668L-104.72222222222223,182.78666666666666L-98.05555555555556,181.44L-91.38888888888889,180.04666666666665L-84.72222222222221,178.45666666666665L-78.05555555555556,177.64333333333332L-71.38888888888889,177.10666666666665L-64.72222222222223,176.31L-58.05555555555556,174.79333333333332L-51.388888888888886,173.46333333333334L-44.72222222222222,172.17333333333335L-38.05555555555556,170.81L-31.38888888888889,170.35L-24.72222222222222,169.99333333333334L-18.055555555555554,168.55666666666667L-11.38888888888889,167.33333333333334L-4.722222222222222,166.26000000000002L1.9444444444444444,165.27666666666667L8.61111111111111,164.05L15.277777777777779,163.74L21.944444444444443,163.52333333333334L28.61111111111111,162.39L35.27777777777778,161.41333333333333L41.94444444444444,160.36L48.61111111111111,159.29666666666665L55.27777777777778,158.97L61.94444444444444,158.73999999999998L68.61111111111111,158.53L75.27777777777777,157.56333333333333L81.94444444444444,156.73333333333335L88.61111111111111,155.99666666666667L95.27777777777777,155.29666666666665L101.94444444444444,154.52666666666664L108.6111111111111,154.34333333333333L115.27777777777777,154.22666666666666L121.94444444444446,153.54333333333332L128.61111111111111,152.96333333333334L135.27777777777777,152.32999999999998L141.94444444444446,151.8L148.61111111111111,151.23333333333332L155.27777777777777,151.14333333333335L161.94444444444446,151.04333333333332L168.61111111111111,150.51000000000002L175.27777777777777,150.04L181.94444444444443,149.59L188.61111111111111,149.48333333333332L195.27777777777777,149.09333333333333L201.94444444444443,149.01" stroke="#e45756" stroke-width="2" opacity="0.7"></path></g></g><path class="foreground" aria-hidden="true" d="" display="none"></path></g><g transform="translate(0,0)"><path class="background" aria-hidden="true" d="M0,0h200v200h-200Z"></path><g><g class="mark-line role-mark concat_1_marks" clip-path="url(#clip8)" role="graphics-object" aria-roledescription="line mark container"><path aria-label="Type: Deaths; Date: Mar 01; Country: Belgium; Confirmed: 2; Recovered: 1; Deaths: 0; Count: 0" role="graphics-symbol" aria-roledescription="line mark" d="M-364.44444444444446,200L-357.77777777777777,200L-351.1111111111111,200L-344.44444444444446,200L-337.77777777777777,200L-331.1111111111111,200L-324.44444444444446,200L-317.77777777777777,200L-311.3888888888889,200L-304.72222222222223,200L-298.05555555555554,199.99L-291.38888888888886,199.99L-284.72222222222223,199.99L-278.05555555555554,199.98666666666668L-271.3888888888889,199.98666666666668L-264.72222222222223,199.98333333333335L-258.05555555555554,199.96666666666667L-251.38888888888889,199.95333333333335L-244.72222222222223,199.93L-238.05555555555554,199.87666666666667L-231.3888888888889,199.77666666666667L-224.72222222222223,199.75L-218.05555555555554,199.70666666666668L-211.38888888888889,199.59333333333333L-204.7222222222222,199.40666666666667L-198.05555555555557,199.26666666666665L-191.38888888888889,199.03666666666666L-184.72222222222223,198.82333333333332L-178.05555555555554,198.56333333333333L-171.38888888888889,198.29000000000002L-164.72222222222223,197.65L-158.05555555555554,197.23999999999998L-151.38888888888889,196.63L-144.72222222222223,196.19L-138.05555555555554,195.72333333333333L-131.38888888888889,195.17666666666668L-124.72222222222223,194.56L-118.05555555555556,193.21666666666667L-111.38888888888889,192.53333333333333L-104.72222222222223,191.59L-98.05555555555556,189.93666666666667L-91.38888888888889,188.84666666666666L-84.72222222222221,188L-78.05555555555556,186.98999999999998L-71.38888888888889,186.14333333333332L-64.72222222222223,185.20000000000002L-58.05555555555556,183.81L-51.388888888888886,182.79000000000002L-44.72222222222222,181.82333333333332L-38.05555555555556,181.05666666666667L-31.38888888888889,180.57333333333335L-24.72222222222222,180.00666666666666L-18.055555555555554,179.12666666666667L-11.38888888888889,178.36666666666667L-4.722222222222222,177.73666666666668L1.9444444444444444,176.94333333333333L8.61111111111111,176.35333333333335L15.277777777777779,175.97666666666666L21.944444444444443,175.56333333333333L28.61111111111111,174.99666666666667L35.27777777777778,174.68666666666667L41.94444444444444,174.32333333333335L48.61111111111111,174.11666666666665L55.27777777777778,173.85333333333332L61.94444444444444,173.58666666666667L68.61111111111111,173.28L75.27777777777777,172.20333333333332L81.94444444444444,171.95L88.61111111111111,171.59666666666666L95.27777777777777,171.39666666666668L101.94444444444444,171.14666666666668L108.6111111111111,170.97666666666666L115.27777777777777,170.79666666666665L121.94444444444446,170.52333333333334L128.61111111111111,170.32333333333332L135.27777777777777,170.13666666666666L141.94444444444446,169.98333333333332L148.61111111111111,169.82666666666665L155.27777777777777,169.73333333333335L161.94444444444446,169.64000000000001L168.61111111111111,169.5L175.27777777777777,169.38L181.94444444444443,169.29333333333335L188.61111111111111,169.20999999999998L195.27777777777777,169.06666666666666L201.94444444444443,168.96" stroke="#f58518" stroke-width="2" opacity="0.7"></path></g></g><path class="foreground" aria-hidden="true" d="" display="none"></path></g><g transform="translate(0,0)"><path class="background" aria-hidden="true" d="M0,0h200v200h-200Z"></path><g><g class="mark-line role-mark concat_1_marks" clip-path="url(#clip9)" role="graphics-object" aria-roledescription="line mark container"><path aria-label="Type: Confirmed; Date: Mar 01; Country: Belgium; Confirmed: 2; Recovered: 1; Deaths: 0; Count: 2" role="graphics-symbol" aria-roledescription="line mark" d="M-364.44444444444446,199.99333333333334L-357.77777777777777,199.97333333333333L-351.1111111111111,199.95666666666668L-344.44444444444446,199.92333333333335L-337.77777777777777,199.83333333333334L-331.1111111111111,199.63666666666666L-324.44444444444446,199.43666666666667L-317.77777777777777,199.33333333333334L-311.3888888888889,199.20333333333332L-304.72222222222223,199.11L-298.05555555555554,198.95333333333335L-291.38888888888886,198.95333333333335L-284.72222222222223,198.13666666666668L-278.05555555555554,197.70333333333335L-271.3888888888889,197.04666666666665L-264.72222222222223,196.47333333333333L-258.05555555555554,195.85666666666665L-251.38888888888889,195.04666666666665L-244.72222222222223,194.01666666666665L-238.05555555555554,192.4766666666667L-231.3888888888889,190.61666666666665L-224.72222222222223,188.66333333333333L-218.05555555555554,187.52333333333334L-211.38888888888889,185.76999999999998L-204.7222222222222,183.54333333333332L-198.05555555555557,179.21666666666667L-191.38888888888889,175.72L-184.72222222222223,169.55333333333334L-178.05555555555554,163.88L-171.38888888888889,160.33666666666667L-164.72222222222223,157.41666666666669L-158.05555555555554,153.45333333333332L-151.38888888888889,148.84L-144.72222222222223,144.1L-138.05555555555554,138.56333333333333L-131.38888888888889,134.36333333333334L-124.72222222222223,130.62L-118.05555555555556,126.02L-111.38888888888889,121.99L-104.72222222222223,116.72333333333333L-98.05555555555556,111.11L-91.38888888888889,106.60666666666667L-84.72222222222221,101.17666666666668L-78.05555555555556,98.03666666666666L-71.38888888888889,96.26999999999998L-64.72222222222223,88.09L-58.05555555555556,83.96999999999998L-51.388888888888886,79.54L-44.72222222222222,76.05666666666666L-38.05555555555556,71.68L-31.38888888888889,66.72333333333333L-24.72222222222222,63.480000000000004L-18.055555555555554,60.36999999999999L-11.38888888888889,57.34333333333333L-4.722222222222222,52.356666666666676L1.9444444444444444,48.91666666666667L8.61111111111111,46.21999999999999L15.277777777777779,44.376666666666665L21.944444444444443,42.21999999999999L28.61111111111111,40.470000000000006L35.27777777777778,38.27L41.94444444444444,36.559999999999995L48.61111111111111,34.94333333333333L55.27777777777778,33.64666666666667L61.94444444444444,32.443333333333335L68.61111111111111,31.63666666666667L75.27777777777777,30.72999999999999L81.94444444444444,28.6L88.61111111111111,26.63L95.27777777777777,24.679999999999993L101.94444444444444,23.063333333333325L108.6111111111111,21.83666666666666L115.27777777777777,20.73666666666667L121.94444444444446,20.063333333333343L128.61111111111111,19.039999999999992L135.27777777777777,17.853333333333342L141.94444444444446,16.703333333333337L148.61111111111111,15.733333333333333L155.27777777777777,14.803333333333324L161.94444444444446,14.030000000000008L168.61111111111111,13.38999999999999L175.27777777777777,12.549999999999994L181.94444444444443,11.630000000000006L188.61111111111111,10.63333333333334L195.27777777777777,9.693333333333332L201.94444444444443,8.860000000000001" stroke="#4c78a8" stroke-width="2" opacity="0.7"></path></g></g><path class="foreground" aria-hidden="true" d="" display="none"></path></g></g><g class="mark-group role-title"><g transform="translate(100,-39)"><path class="background" aria-hidden="true" d="M0,0h0v0h0Z" pointer-events="none"></path><g><g class="mark-text role-title-text" role="graphics-symbol" aria-roledescription="title" aria-label="Title text 'Total'" pointer-events="none"><text text-anchor="middle" transform="translate(0,10)" font-family="Roboto Condensed" font-size="13px" font-weight="normal" fill="#000" opacity="1">Total</text></g></g><path class="foreground" aria-hidden="true" d="" pointer-events="none" display="none"></path></g></g></g><path class="foreground" aria-hidden="true" d="" display="none"></path></g></g><g class="mark-group role-legend" role="graphics-symbol" aria-roledescription="legend" aria-label="Symbol legend for stroke color with 3 values: Confirmed, Deaths, Recovered"><g transform="translate(503,0)"><path class="background" aria-hidden="true" d="M0,0h58v37h-58Z" pointer-events="none"></path><g><g class="mark-group role-legend-entry"><g transform="translate(0,0)"><path class="background" aria-hidden="true" d="M0,0h0v0h0Z" pointer-events="none"></path><g><g class="mark-group role-scope" role="graphics-object" aria-roledescription="group mark container"><g transform="translate(0,0)"><path class="background" aria-hidden="true" d="M0,0h58v11h-58Z" pointer-events="none" opacity="1"></path><g><g class="mark-symbol role-legend-symbol" pointer-events="none"><path transform="translate(6,6)" d="M-5,0L5,0" stroke="#4c78a8" stroke-width="1.5" opacity="0.2"></path></g><g class="mark-text role-legend-label" pointer-events="none"><text text-anchor="start" transform="translate(16,9)" font-family="Roboto Condensed" font-size="10px" fill="#000" opacity="1">Confirmed</text></g></g><path class="foreground" aria-hidden="true" d="" pointer-events="none" display="none"></path></g><g transform="translate(0,13)"><path class="background" aria-hidden="true" d="M0,0h58v11h-58Z" pointer-events="none" opacity="1"></path><g><g class="mark-symbol role-legend-symbol" pointer-events="none"><path transform="translate(6,6)" d="M-5,0L5,0" stroke="#f58518" stroke-width="1.5" opacity="0.2"></path></g><g class="mark-text role-legend-label" pointer-events="none"><text text-anchor="start" transform="translate(16,9)" font-family="Roboto Condensed" font-size="10px" fill="#000" opacity="1">Deaths</text></g></g><path class="foreground" aria-hidden="true" d="" pointer-events="none" display="none"></path></g><g transform="translate(0,26)"><path class="background" aria-hidden="true" d="M0,0h58v11h-58Z" pointer-events="none" opacity="1"></path><g><g class="mark-symbol role-legend-symbol" pointer-events="none"><path transform="translate(6,6)" d="M-5,0L5,0" stroke="#e45756" stroke-width="1.5" opacity="0.2"></path></g><g class="mark-text role-legend-label" pointer-events="none"><text text-anchor="start" transform="translate(16,9)" font-family="Roboto Condensed" font-size="10px" fill="#000" opacity="1">Recovered</text></g></g><path class="foreground" aria-hidden="true" d="" pointer-events="none" display="none"></path></g></g></g><path class="foreground" aria-hidden="true" d="" pointer-events="none" display="none"></path></g></g></g><path class="foreground" aria-hidden="true" d="" pointer-events="none" display="none"></path></g></g></g><path class="foreground" aria-hidden="true" d="" display="none"></path></g></g></g></svg>