<svg class="marks" width="616" height="276" viewBox="0 0 616 276" version="1.1" xmlns="http://www.w3.org/2000/svg" xmlns:xlink="http://www.w3.org/1999/xlink"><defs><clipPath id="clip1"><rect x="0" y="0" width="200" height="200"></rect></clipPath><clipPath id="clip2"><rect x="0" y="0" width="200" height="200"></rect></clipPath><clipPath id="clip3"><rect x="0" y="0" width="200" height="200"></rect></clipPath><clipPath id="clip4"><rect x="0" y="0" width="200" height="200"></rect></clipPath><clipPath id="clip5"><rect x="0" y="0" width="200" height="200"></rect></clipPath><clipPath id="clip6"><rect x="0" y="0" width="200" height="200"></rect></clipPath><clipPath id="clip7"><rect x="0" y="0" width="200" height="200"></rect></clipPath><clipPath id="clip8"><rect x="0" y="0" width="200" height="200"></rect></clipPath><clipPath id="clip9"><rect x="0" y="0" width="200" height="200"></rect></clipPath></defs><rect width="616" height="276" fill="white"></rect><g fill="none" stroke-miterlimit="10" transform="translate(50,44)"><g class="mark-group role-frame root" role="graphics-object" aria-roledescription="group mark container"><g transform="translate(0,0)"><path class="background" aria-hidden="true" d="M0,0h0v200h0Z"></path><g><g class="mark-group role-scope concat_0_group" role="graphics-object" aria-roledescription="group mark container"><g transform="translate(0,0)"><path class="background" aria-hidden="true" d="M0,0h200v200h-200Z" stroke="#ddd" stroke-width="0"></path><g><g class="mark-group role-axis" aria-hidden="true"><g transform="translate(0.5,0.5)"><path class="background" aria-hidden="true" d="M0,0h0v0h0Z" pointer-events="none"></path><g><g class="mark-rule role-axis-grid" pointer-events="none"><line transform="translate(0,200)" x2="200" y2="0" stroke="#ddd" stroke-width="1" opacity="1"></line><line transform="translate(0,150)" x2="200" y2="0" stroke="#ddd" stroke-width="1" opacity="1"></line><line transform="translate(0,100)" x2="200" y2="0" stroke="#ddd" stroke-width="1" opacity="1"></line><line transform="translate(0,50)" x2="200" y2="0" stroke="#ddd" stroke-width="1" opacity="1"></line><line transform="translate(0,0)" x2="200" y2="0" stroke="#ddd" stroke-width="1" opacity="1"></line></g></g><path class="foreground" aria-hidden="true" d="" pointer-events="none" display="none"></path></g></g><g class="mark-group role-axis" role="graphics-symbol" aria-roledescription="axis" aria-label="X-axis titled 'Date' for a time scale with values from April 24 to May 24"><g transform="translate(0.5,200.5)"><path class="background" aria-hidden="true" d="M0,0h0v0h0Z" pointer-events="none"></path><g><g class="mark-text role-axis-label" pointer-events="none"><text text-anchor="middle" transform="translate(8.61111111111111,10)" font-family="Roboto Condensed" font-size="10px" fill="#000" opacity="1">Apr 26</text><text text-anchor="middle" transform="translate(55.27777777777778,10)" font-family="Roboto Condensed" font-size="10px" fill="#000" opacity="1">May 03</text><text text-anchor="middle" transform="translate(101.94444444444444,10)" font-family="Roboto Condensed" font-size="10px" fill="#000" opacity="1">May 10</text><text text-anchor="middle" transform="translate(148.61111111111111,10)" font-family="Roboto Condensed" font-size="10px" fill="#000" opacity="1">May 17</text><text text-anchor="middle" transform="translate(195.27777777777777,10)" font-family="Roboto Condensed" font-size="10px" fill="#000" opacity="1">May 24</text></g><g class="mark-rule role-axis-domain" pointer-events="none"><line transform="translate(0,0)" x2="200" y2="0" stroke="lightgray" stroke-width="1" opacity="1"></line></g><g class="mark-text role-axis-title" pointer-events="none"><text text-anchor="middle" transform="translate(100,25)" font-family="Roboto Condensed" font-size="11px" font-weight="normal" fill="#000" opacity="1">Date</text></g></g><path class="foreground" aria-hidden="true" d="" pointer-events="none" display="none"></path></g></g><g class="mark-group role-axis" role="graphics-symbol" aria-roledescription="axis" aria-label="Y-axis titled 'Count' for a linear scale with values from 0 to 8,000"><g transform="translate(0.5,0.5)"><path class="background" aria-hidden="true" d="M0,0h0v0h0Z" pointer-events="none"></path><g><g class="mark-text role-axis-label" pointer-events="none"><text text-anchor="end" transform="translate(-2,203)" font-family="Roboto Condensed" font-size="10px" fill="#000" opacity="1">0</text><text text-anchor="end" transform="translate(-2,153)" font-family="Roboto Condensed" font-size="10px" fill="#000" opacity="1">2,000</text><text text-anchor="end" transform="translate(-2,103)" font-family="Roboto Condensed" font-size="10px" fill="#000" opacity="1">4,000</text><text text-anchor="end" transform="translate(-2,53)" font-family="Roboto Condensed" font-size="10px" fill="#000" opacity="1">6,000</text><text text-anchor="end" transform="translate(-2,3)" font-family="Roboto Condensed" font-size="10px" fill="#000" opacity="1">8,000</text></g><g class="mark-rule role-axis-domain" pointer-events="none"><line transform="translate(0,200)" x2="0" y2="-200" stroke="lightgray" stroke-width="1" opacity="1"></line></g><g class="mark-text role-axis-title" pointer-events="none"><text text-anchor="start" transform="translate(-45,-13)" font-family="Roboto Condensed" font-size="11px" font-weight="normal" fill="#000" opacity="1">Count</text></g></g><path class="foreground" aria-hidden="true" d="" pointer-events="none" display="none"></path></g></g><g class="mark-group role-scope concat_0_layer_0_pathgroup" role="graphics-object" aria-roledescription="group mark container"><g transform="translate(0,0)"><path class="background" aria-hidden="true" d="M0,0h200v200h-200Z"></path><g><g class="mark-line role-mark concat_0_layer_0_marks" clip-path="url(#clip1)" role="graphics-object" aria-roledescription="line mark container"><path aria-label="Type: Recovered; Date: Mar 01; Count: 0" role="graphics-symbol" aria-roledescription="line mark" d="M-364.44444444444446,200L-357.77777777777777,200L-351.1111111111111,200L-344.44444444444446,200L-337.77777777777777,200L-331.1111111111111,200L-324.44444444444446,200L-317.77777777777777,200L-311.3888888888889,199.975L-304.72222222222223,200L-298.05555555555554,200L-291.38888888888886,200L-284.72222222222223,200L-278.05555555555554,200L-271.3888888888889,200L-264.72222222222223,200L-258.05555555555554,200L-251.38888888888889,200L-244.72222222222223,200L-238.05555555555554,200L-231.3888888888889,200L-224.72222222222223,200L-218.05555555555554,200L-211.38888888888889,199.875L-204.7222222222222,200L-198.05555555555557,200L-191.38888888888889,200L-184.72222222222223,199.975L-178.05555555555554,200L-171.38888888888889,199.875L-164.72222222222223,199.975L-158.05555555555554,200L-151.38888888888889,199.525L-144.72222222222223,200L-138.05555555555554,200L-131.38888888888889,200L-124.72222222222223,200L-118.05555555555556,200L-111.38888888888889,200L-104.72222222222223,200L-98.05555555555556,200L-91.38888888888889,200L-84.72222222222221,200L-78.05555555555556,200L-71.38888888888889,200L-64.72222222222223,200L-58.05555555555556,200L-51.388888888888886,200L-44.72222222222222,200L-38.05555555555556,200L-31.38888888888889,200L-24.72222222222222,200L-18.055555555555554,200L-11.38888888888889,200L-4.722222222222222,200L1.9444444444444444,200L8.61111111111111,200L15.277777777777779,200L21.944444444444443,200L28.61111111111111,200L35.27777777777778,200L41.94444444444444,200L48.61111111111111,200L55.27777777777778,200L61.94444444444444,200L68.61111111111111,200L75.27777777777777,200L81.94444444444444,200L88.61111111111111,200L95.27777777777777,200L101.94444444444444,200L108.6111111111111,200L115.27777777777777,200L121.94444444444446,200L128.61111111111111,200L135.27777777777777,200L141.94444444444446,200L148.61111111111111,200L155.27777777777777,200L161.94444444444446,200L168.61111111111111,200L175.27777777777777,200L181.94444444444443,7.624999999999993L188.61111111111111,200L195.27777777777777,200L201.94444444444443,200" stroke="#e45756" stroke-width="2" opacity="0.2"></path></g></g><path class="foreground" aria-hidden="true" d="" display="none"></path></g><g transform="translate(0,0)"><path class="background" aria-hidden="true" d="M0,0h200v200h-200Z"></path><g><g class="mark-line role-mark concat_0_layer_0_marks" clip-path="url(#clip2)" role="graphics-object" aria-roledescription="line mark container"><path aria-label="Type: Deaths; Date: Mar 01; Count: 0" role="graphics-symbol" aria-roledescription="line mark" d="M-364.44444444444446,200L-357.77777777777777,200L-351.1111111111111,200L-344.44444444444446,200L-337.77777777777777,200L-331.1111111111111,200L-324.44444444444446,200L-317.77777777777777,200L-311.3888888888889,200L-304.72222222222223,200L-298.05555555555554,200L-291.38888888888886,200L-284.72222222222223,200L-278.05555555555554,199.925L-271.3888888888889,200L-264.72222222222223,200L-258.05555555555554,200L-251.38888888888889,199.925L-244.72222222222223,199.975L-238.05555555555554,200L-231.3888888888889,200L-224.72222222222223,200L-218.05555555555554,199.925L-211.38888888888889,199.95000000000002L-204.7222222222222,199.95000000000002L-198.05555555555557,200L-191.38888888888889,199.875L-184.72222222222223,199.9L-178.05555555555554,199.95000000000002L-171.38888888888889,199.82500000000002L-164.72222222222223,199.82500000000002L-158.05555555555554,199.875L-151.38888888888889,199.85L-144.72222222222223,199.77499999999998L-138.05555555555554,199.925L-131.38888888888889,199.77499999999998L-124.72222222222223,199.875L-118.05555555555556,199.675L-111.38888888888889,199.70000000000002L-104.72222222222223,199.82500000000002L-98.05555555555556,199.875L-91.38888888888889,199.85L-84.72222222222221,199.77499999999998L-78.05555555555556,199.85L-71.38888888888889,199.875L-64.72222222222223,199.725L-58.05555555555556,199.95000000000002L-51.388888888888886,199.77499999999998L-44.72222222222222,199.925L-38.05555555555556,199.975L-31.38888888888889,199.6L-24.72222222222222,199.975L-18.055555555555554,199.875L-11.38888888888889,199.82500000000002L-4.722222222222222,199.875L1.9444444444444444,199.95000000000002L8.61111111111111,200L15.277777777777779,199.9L21.944444444444443,199.975L28.61111111111111,199.975L35.27777777777778,199.925L41.94444444444444,200L48.61111111111111,199.975L55.27777777777778,200L61.94444444444444,199.925L68.61111111111111,199.975L75.27777777777777,199.975L81.94444444444444,199.975L88.61111111111111,199.975L95.27777777777777,199.975L101.94444444444444,200L108.6111111111111,199.875L115.27777777777777,199.9L121.94444444444446,199.975L128.61111111111111,199.925L135.27777777777777,200L141.94444444444446,200L148.61111111111111,200L155.27777777777777,199.975L161.94444444444446,200L168.61111111111111,199.975L175.27777777777777,199.975L181.94444444444443,200L188.61111111111111,200L195.27777777777777,200L201.94444444444443,200" stroke="#f58518" stroke-width="2" opacity="0.2"></path></g></g><path class="foreground" aria-hidden="true" d="" display="none"></path></g><g transform="translate(0,0)"><path class="background" aria-hidden="true" d="M0,0h200v200h-200Z"></path><g><g class="mark-line role-mark concat_0_layer_0_marks" clip-path="url(#clip3)" role="graphics-object" aria-roledescription="line mark container"><path aria-label="Type: Confirmed; Date: Mar 01; Count: 4" role="graphics-symbol" aria-roledescription="line mark" d="M-364.44444444444446,199.9L-357.77777777777777,199.85L-351.1111111111111,199.82500000000002L-344.44444444444446,199.4L-337.77777777777777,199.225L-331.1111111111111,199.475L-324.44444444444446,199.025L-317.77777777777777,199.275L-311.3888888888889,199.275L-304.72222222222223,195.125L-298.05555555555554,195.04999999999998L-291.38888888888886,197.4L-284.72222222222223,192.65L-278.05555555555554,197.65L-271.3888888888889,196.725L-264.72222222222223,197.2L-258.05555555555554,196.75L-251.38888888888889,197.82500000000002L-244.72222222222223,195.1L-238.05555555555554,195.79999999999998L-231.3888888888889,194.9L-224.72222222222223,193.325L-218.05555555555554,194.1L-211.38888888888889,193.95L-204.7222222222222,194.475L-198.05555555555557,192.875L-191.38888888888889,190.35L-184.72222222222223,193.5L-178.05555555555554,193.275L-171.38888888888889,195.97500000000002L-164.72222222222223,195.1L-158.05555555555554,194.45L-151.38888888888889,192.9L-144.72222222222223,194.425L-138.05555555555554,195.5L-131.38888888888889,196.575L-124.72222222222223,195.55L-118.05555555555556,194.475L-111.38888888888889,200L-104.72222222222223,196.875L-98.05555555555556,197.425L-91.38888888888889,197.625L-84.72222222222221,197.10000000000002L-78.05555555555556,198.04999999999998L-71.38888888888889,199.5L-64.72222222222223,197.075L-58.05555555555556,196.1L-51.388888888888886,198.975L-44.72222222222222,197.525L-38.05555555555556,198.95000000000002L-31.38888888888889,198.04999999999998L-24.72222222222222,199.125L-18.055555555555554,196.325L-11.38888888888889,198.425L-4.722222222222222,198.45L1.9444444444444444,199.10000000000002L8.61111111111111,199.3L15.277777777777779,198.2L21.944444444444443,198.475L28.61111111111111,198.75L35.27777777777778,199.3L41.94444444444444,198.875L48.61111111111111,199.35L55.27777777777778,199.04999999999998L61.94444444444444,198.575L68.61111111111111,198.725L75.27777777777777,198.975L81.94444444444444,199.04999999999998L88.61111111111111,199.10000000000002L95.27777777777777,199.275L101.94444444444444,199.85L108.6111111111111,199.325L115.27777777777777,199.375L121.94444444444446,199.55L128.61111111111111,199.475L135.27777777777777,199.425L141.94444444444446,199.55L148.61111111111111,199.70000000000002L155.27777777777777,199.8L161.94444444444446,199.75L168.61111111111111,199.65L175.27777777777777,199.3L181.94444444444443,199.425L188.61111111111111,199.65L195.27777777777777,199.85L201.94444444444443,199.70000000000002" stroke="#4c78a8" stroke-width="2" opacity="0.2"></path></g></g><path class="foreground" aria-hidden="true" d="" display="none"></path></g></g><g class="mark-group role-scope concat_0_layer_1_pathgroup" role="graphics-object" aria-roledescription="group mark container"><g transform="translate(0,0)"><path class="background" aria-hidden="true" d="M0,0h200v200h-200Z"></path><g><g class="mark-line role-mark concat_0_layer_1_marks" clip-path="url(#clip4)" role="graphics-object" aria-roledescription="line mark container"><path aria-label="Type: Recovered; Date: Mar 01; Count: 0" role="graphics-symbol" aria-roledescription="line mark" d="M-324.44444444444446,200L-317.77777777777777,200L-311.3888888888889,199.99642857142857L-304.72222222222223,199.99642857142857L-298.05555555555554,199.99642857142857L-291.38888888888886,199.99642857142857L-284.72222222222223,199.99642857142857L-278.05555555555554,199.99642857142857L-271.3888888888889,199.99642857142857L-264.72222222222223,200L-258.05555555555554,200L-251.38888888888889,200L-244.72222222222223,200L-238.05555555555554,200L-231.3888888888889,200L-224.72222222222223,200L-218.05555555555554,200L-211.38888888888889,199.98214285714286L-204.7222222222222,199.98214285714286L-198.05555555555557,199.98214285714286L-191.38888888888889,199.98214285714286L-184.72222222222223,199.97857142857143L-178.05555555555554,199.97857142857143L-171.38888888888889,199.9607142857143L-164.72222222222223,199.975L-158.05555555555554,199.975L-151.38888888888889,199.90714285714287L-144.72222222222223,199.90714285714287L-138.05555555555554,199.91071428571428L-131.38888888888889,199.91071428571428L-124.72222222222223,199.92857142857144L-118.05555555555556,199.93214285714285L-111.38888888888889,199.93214285714285L-104.72222222222223,200L-98.05555555555556,200L-91.38888888888889,200L-84.72222222222221,200L-78.05555555555556,200L-71.38888888888889,200L-64.72222222222223,200L-58.05555555555556,200L-51.388888888888886,200L-44.72222222222222,200L-38.05555555555556,200L-31.38888888888889,200L-24.72222222222222,200L-18.055555555555554,200L-11.38888888888889,200L-4.722222222222222,200L1.9444444444444444,200L8.61111111111111,200L15.277777777777779,200L21.944444444444443,200L28.61111111111111,200L35.27777777777778,200L41.94444444444444,200L48.61111111111111,200L55.27777777777778,200L61.94444444444444,200L68.61111111111111,200L75.27777777777777,200L81.94444444444444,200L88.61111111111111,200L95.27777777777777,200L101.94444444444444,200L108.6111111111111,200L115.27777777777777,200L121.94444444444446,200L128.61111111111111,200L135.27777777777777,200L141.94444444444446,200L148.61111111111111,200L155.27777777777777,200L161.94444444444446,200L168.61111111111111,200L175.27777777777777,200L181.94444444444443,172.51785714285714L188.61111111111111,172.51785714285714L195.27777777777777,172.51785714285714L201.94444444444443,172.51785714285714" stroke="#e45756" stroke-width="2" opacity="1"></path></g></g><path class="foreground" aria-hidden="true" d="" display="none"></path></g><g transform="translate(0,0)"><path class="background" aria-hidden="true" d="M0,0h200v200h-200Z"></path><g><g class="mark-line role-mark concat_0_layer_1_marks" clip-path="url(#clip5)" role="graphics-object" aria-roledescription="line mark container"><path aria-label="Type: Deaths; Date: Mar 01; Count: 0" role="graphics-symbol" aria-roledescription="line mark" d="M-324.44444444444446,200L-317.77777777777777,200L-311.3888888888889,200L-304.72222222222223,200L-298.05555555555554,200L-291.38888888888886,200L-284.72222222222223,200L-278.05555555555554,199.9892857142857L-271.3888888888889,199.9892857142857L-264.72222222222223,199.9892857142857L-258.05555555555554,199.9892857142857L-251.38888888888889,199.97857142857143L-244.72222222222223,199.975L-238.05555555555554,199.975L-231.3888888888889,199.98571428571427L-224.72222222222223,199.98571428571427L-218.05555555555554,199.975L-211.38888888888889,199.96785714285716L-204.7222222222222,199.9714285714286L-198.05555555555557,199.975L-191.38888888888889,199.95714285714286L-184.72222222222223,199.94285714285712L-178.05555555555554,199.93571428571428L-171.38888888888889,199.92142857142855L-164.72222222222223,199.9035714285714L-158.05555555555554,199.89285714285714L-151.38888888888889,199.87142857142857L-144.72222222222223,199.85714285714286L-138.05555555555554,199.86071428571427L-131.38888888888889,199.8357142857143L-124.72222222222223,199.84285714285716L-118.05555555555556,199.82142857142858L-111.38888888888889,199.79642857142858L-104.72222222222223,199.79285714285714L-98.05555555555556,199.80714285714285L-91.38888888888889,199.79642857142858L-84.72222222222221,199.79642857142858L-78.05555555555556,199.79285714285714L-71.38888888888889,199.82142857142858L-64.72222222222223,199.82500000000002L-58.05555555555556,199.84285714285716L-51.388888888888886,199.82857142857142L-44.72222222222222,199.83928571428572L-38.05555555555556,199.86785714285716L-31.38888888888889,199.83214285714286L-24.72222222222222,199.8464285714286L-18.055555555555554,199.86785714285716L-11.38888888888889,199.85L-4.722222222222222,199.86428571428573L1.9444444444444444,199.86785714285716L8.61111111111111,199.87142857142857L15.277777777777779,199.9142857142857L21.944444444444443,199.9142857142857L28.61111111111111,199.92857142857144L35.27777777777778,199.94285714285712L41.94444444444444,199.9607142857143L48.61111111111111,199.9642857142857L55.27777777777778,199.9642857142857L61.94444444444444,199.96785714285716L68.61111111111111,199.96785714285716L75.27777777777777,199.96785714285716L81.94444444444444,199.975L88.61111111111111,199.9714285714286L95.27777777777777,199.9714285714286L101.94444444444444,199.9714285714286L108.6111111111111,199.9642857142857L115.27777777777777,199.95357142857142L121.94444444444446,199.95357142857142L128.61111111111111,199.94642857142856L135.27777777777777,199.95000000000002L141.94444444444446,199.95357142857142L148.61111111111111,199.95357142857142L155.27777777777777,199.96785714285716L161.94444444444446,199.98214285714286L168.61111111111111,199.98214285714286L175.27777777777777,199.9892857142857L181.94444444444443,199.9892857142857L188.61111111111111,199.9892857142857L195.27777777777777,199.9892857142857L201.94444444444443,199.99285714285716" stroke="#f58518" stroke-width="2" opacity="1"></path></g></g><path class="foreground" aria-hidden="true" d="" display="none"></path></g><g transform="translate(0,0)"><path class="background" aria-hidden="true" d="M0,0h200v200h-200Z"></path><g><g class="mark-line role-mark concat_0_layer_1_marks" clip-path="url(#clip6)" role="graphics-object" aria-roledescription="line mark container"><path aria-label="Type: Confirmed; Date: Mar 01; Count: 0" role="graphics-symbol" aria-roledescription="line mark" d="M-324.44444444444446,199.52857142857144L-317.77777777777777,199.43928571428572L-311.3888888888889,199.35714285714286L-304.72222222222223,198.68571428571428L-298.05555555555554,198.06428571428572L-291.38888888888886,197.80357142857144L-284.72222222222223,196.82857142857142L-278.05555555555554,196.63214285714287L-271.3888888888889,196.26785714285714L-264.72222222222223,195.97142857142856L-258.05555555555554,196.20357142857142L-251.38888888888889,196.6L-244.72222222222223,196.27142857142857L-238.05555555555554,196.7214285714286L-231.3888888888889,196.32857142857142L-224.72222222222223,195.84285714285713L-218.05555555555554,195.4L-211.38888888888889,195L-204.7222222222222,194.52142857142857L-198.05555555555557,194.20357142857142L-191.38888888888889,193.425L-184.72222222222223,193.225L-178.05555555555554,193.21785714285716L-171.38888888888889,193.4857142857143L-164.72222222222223,193.65L-158.05555555555554,193.64642857142857L-151.38888888888889,193.65L-144.72222222222223,194.23214285714286L-138.05555555555554,194.51785714285714L-131.38888888888889,194.9892857142857L-124.72222222222223,194.92857142857142L-118.05555555555556,194.83928571428572L-111.38888888888889,195.63214285714287L-104.72222222222223,196.2L-98.05555555555556,196.62857142857143L-91.38888888888889,196.93214285714288L-84.72222222222221,197.00714285714284L-78.05555555555556,197.3642857142857L-71.38888888888889,198.08214285714286L-64.72222222222223,197.6642857142857L-58.05555555555556,197.55357142857144L-51.388888888888886,197.77499999999998L-44.72222222222222,197.7607142857143L-38.05555555555556,198.025L-31.38888888888889,198.025L-24.72222222222222,197.9714285714286L-18.055555555555554,197.86428571428573L-11.38888888888889,198.19642857142856L-4.722222222222222,198.1214285714286L1.9444444444444444,198.34642857142856L8.61111111111111,198.39642857142857L15.277777777777779,198.41785714285714L21.944444444444443,198.325L28.61111111111111,198.67142857142858L35.27777777777778,198.79642857142855L41.94444444444444,198.85714285714286L48.61111111111111,198.89285714285714L55.27777777777778,198.85714285714286L61.94444444444444,198.9107142857143L68.61111111111111,198.94642857142856L75.27777777777777,198.97857142857143L81.94444444444444,198.94285714285712L88.61111111111111,198.975L95.27777777777777,198.9642857142857L101.94444444444444,199.07857142857145L108.6111111111111,199.18571428571428L115.27777777777777,199.27857142857144L121.94444444444446,199.3607142857143L128.61111111111111,199.42142857142858L135.27777777777777,199.46785714285716L141.94444444444446,199.50714285714287L148.61111111111111,199.4857142857143L155.27777777777777,199.55357142857142L161.94444444444446,199.60714285714286L168.61111111111111,199.62142857142857L175.27777777777777,199.59642857142856L181.94444444444443,199.59642857142856L188.61111111111111,199.6107142857143L195.27777777777777,199.63214285714287L201.94444444444443,199.61785714285713" stroke="#4c78a8" stroke-width="2" opacity="1"></path></g></g><path class="foreground" aria-hidden="true" d="" display="none"></path></g></g><g class="mark-group role-title"><g transform="translate(100,-39)"><path class="background" aria-hidden="true" d="M0,0h0v0h0Z" pointer-events="none"></path><g><g class="mark-text role-title-text" role="graphics-symbol" aria-roledescription="title" aria-label="Title text '7-day average (Daily values in light color)'" pointer-events="none"><text text-anchor="middle" transform="translate(0,10)" font-family="Roboto Condensed" font-size="13px" font-weight="normal" fill="#000" opacity="1">7-day average (Daily values in light color)</text></g></g><path class="foreground" aria-hidden="true" d="" pointer-events="none" display="none"></path></g></g></g><path class="foreground" aria-hidden="true" d="" display="none"></path></g></g><g class="mark-group role-scope concat_1_group" role="graphics-object" aria-roledescription="group mark container"><g transform="translate(275,0)"><path class="background" aria-hidden="true" d="M0,0h200v200h-200Z" stroke="#ddd" stroke-width="0"></path><g><g class="mark-group role-axis" aria-hidden="true"><g transform="translate(0.5,0.5)"><path class="background" aria-hidden="true" d="M0,0h0v0h0Z" pointer-events="none"></path><g><g class="mark-rule role-axis-grid" pointer-events="none"><line transform="translate(0,200)" x2="200" y2="0" stroke="#ddd" stroke-width="1" opacity="1"></line><line transform="translate(0,156)" x2="200" y2="0" stroke="#ddd" stroke-width="1" opacity="1"></line><line transform="translate(0,111)" x2="200" y2="0" stroke="#ddd" stroke-width="1" opacity="1"></line><line transform="translate(0,67)" x2="200" y2="0" stroke="#ddd" stroke-width="1" opacity="1"></line><line transform="translate(0,22)" x2="200" y2="0" stroke="#ddd" stroke-width="1" opacity="1"></line></g></g><path class="foreground" aria-hidden="true" d="" pointer-events="none" display="none"></path></g></g><g class="mark-group role-axis" role="graphics-symbol" aria-roledescription="axis" aria-label="X-axis titled 'Date' for a time scale with values from April 24 to May 24"><g transform="translate(0.5,200.5)"><path class="background" aria-hidden="true" d="M0,0h0v0h0Z" pointer-events="none"></path><g><g class="mark-text role-axis-label" pointer-events="none"><text text-anchor="middle" transform="translate(8.61111111111111,10)" font-family="Roboto Condensed" font-size="10px" fill="#000" opacity="1">Apr 26</text><text text-anchor="middle" transform="translate(55.27777777777778,10)" font-family="Roboto Condensed" font-size="10px" fill="#000" opacity="1">May 03</text><text text-anchor="middle" transform="translate(101.94444444444444,10)" font-family="Roboto Condensed" font-size="10px" fill="#000" opacity="1">May 10</text><text text-anchor="middle" transform="translate(148.61111111111111,10)" font-family="Roboto Condensed" font-size="10px" fill="#000" opacity="1">May 17</text><text text-anchor="middle" transform="translate(195.27777777777777,10)" font-family="Roboto Condensed" font-size="10px" fill="#000" opacity="1">May 24</text></g><g class="mark-rule role-axis-domain" pointer-events="none"><line transform="translate(0,0)" x2="200" y2="0" stroke="lightgray" stroke-width="1" opacity="1"></line></g><g class="mark-text role-axis-title" pointer-events="none"><text text-anchor="middle" transform="translate(100,25)" font-family="Roboto Condensed" font-size="11px" font-weight="normal" fill="#000" opacity="1">Date</text></g></g><path class="foreground" aria-hidden="true" d="" pointer-events="none" display="none"></path></g></g><g class="mark-group role-axis" role="graphics-symbol" aria-roledescription="axis" aria-label="Y-axis titled 'Count' for a linear scale with values from 0 to 9,000"><g transform="translate(0.5,0.5)"><path class="background" aria-hidden="true" d="M0,0h0v0h0Z" pointer-events="none"></path><g><g class="mark-text role-axis-label" pointer-events="none"><text text-anchor="end" transform="translate(-2,203)" font-family="Roboto Condensed" font-size="10px" fill="#000" opacity="1">0</text><text text-anchor="end" transform="translate(-2,158.55555555555557)" font-family="Roboto Condensed" font-size="10px" fill="#000" opacity="1">2,000</text><text text-anchor="end" transform="translate(-2,114.11111111111111)" font-family="Roboto Condensed" font-size="10px" fill="#000" opacity="1">4,000</text><text text-anchor="end" transform="translate(-2,69.66666666666667)" font-family="Roboto Condensed" font-size="10px" fill="#000" opacity="1">6,000</text><text text-anchor="end" transform="translate(-2,25.222222222222232)" font-family="Roboto Condensed" font-size="10px" fill="#000" opacity="1">8,000</text></g><g class="mark-rule role-axis-domain" pointer-events="none"><line transform="translate(0,200)" x2="0" y2="-200" stroke="lightgray" stroke-width="1" opacity="1"></line></g><g class="mark-text role-axis-title" pointer-events="none"><text text-anchor="start" transform="translate(-45,-13)" font-family="Roboto Condensed" font-size="11px" font-weight="normal" fill="#000" opacity="1">Count</text></g></g><path class="foreground" aria-hidden="true" d="" pointer-events="none" display="none"></path></g></g><g class="mark-group role-scope concat_1_pathgroup" role="graphics-object" aria-roledescription="group mark container"><g transform="translate(0,0)"><path class="background" aria-hidden="true" d="M0,0h200v200h-200Z"></path><g><g class="mark-line role-mark concat_1_marks" clip-path="url(#clip7)" role="graphics-object" aria-roledescription="line mark container"><path aria-label="Type: Recovered; Date: Mar 01; Country: Norway; Confirmed: 19; Recovered: 0; Deaths: 0; Count: 0" role="graphics-symbol" aria-roledescription="line mark" d="M-364.44444444444446,200L-357.77777777777777,200L-351.1111111111111,200L-344.44444444444446,200L-337.77777777777777,200L-331.1111111111111,200L-324.44444444444446,200L-317.77777777777777,200L-311.3888888888889,199.9777777777778L-304.72222222222223,199.9777777777778L-298.05555555555554,199.9777777777778L-291.38888888888886,199.9777777777778L-284.72222222222223,199.9777777777778L-278.05555555555554,199.9777777777778L-271.3888888888889,199.9777777777778L-264.72222222222223,199.9777777777778L-258.05555555555554,199.9777777777778L-251.38888888888889,199.9777777777778L-244.72222222222223,199.9777777777778L-238.05555555555554,199.9777777777778L-231.3888888888889,199.9777777777778L-224.72222222222223,199.9777777777778L-218.05555555555554,199.9777777777778L-211.38888888888889,199.86666666666665L-204.7222222222222,199.86666666666665L-198.05555555555557,199.86666666666665L-191.38888888888889,199.86666666666665L-184.72222222222223,199.84444444444443L-178.05555555555554,199.84444444444443L-171.38888888888889,199.73333333333335L-164.72222222222223,199.7111111111111L-158.05555555555554,199.7111111111111L-151.38888888888889,199.2888888888889L-144.72222222222223,199.2888888888889L-138.05555555555554,199.2888888888889L-131.38888888888889,199.2888888888889L-124.72222222222223,199.2888888888889L-118.05555555555556,199.2888888888889L-111.38888888888889,199.2888888888889L-104.72222222222223,199.2888888888889L-98.05555555555556,199.2888888888889L-91.38888888888889,199.2888888888889L-84.72222222222221,199.2888888888889L-78.05555555555556,199.2888888888889L-71.38888888888889,199.2888888888889L-64.72222222222223,199.2888888888889L-58.05555555555556,199.2888888888889L-51.388888888888886,199.2888888888889L-44.72222222222222,199.2888888888889L-38.05555555555556,199.2888888888889L-31.38888888888889,199.2888888888889L-24.72222222222222,199.2888888888889L-18.055555555555554,199.2888888888889L-11.38888888888889,199.2888888888889L-4.722222222222222,199.2888888888889L1.9444444444444444,199.2888888888889L8.61111111111111,199.2888888888889L15.277777777777779,199.2888888888889L21.944444444444443,199.2888888888889L28.61111111111111,199.2888888888889L35.27777777777778,199.2888888888889L41.94444444444444,199.2888888888889L48.61111111111111,199.2888888888889L55.27777777777778,199.2888888888889L61.94444444444444,199.2888888888889L68.61111111111111,199.2888888888889L75.27777777777777,199.2888888888889L81.94444444444444,199.2888888888889L88.61111111111111,199.2888888888889L95.27777777777777,199.2888888888889L101.94444444444444,199.2888888888889L108.6111111111111,199.2888888888889L115.27777777777777,199.2888888888889L121.94444444444446,199.2888888888889L128.61111111111111,199.2888888888889L135.27777777777777,199.2888888888889L141.94444444444446,199.2888888888889L148.61111111111111,199.2888888888889L155.27777777777777,199.2888888888889L161.94444444444446,199.2888888888889L168.61111111111111,199.2888888888889L175.27777777777777,199.2888888888889L181.94444444444443,28.2888888888889L188.61111111111111,28.2888888888889L195.27777777777777,28.2888888888889L201.94444444444443,28.2888888888889" stroke="#e45756" stroke-width="2" opacity="0.7"></path></g></g><path class="foreground" aria-hidden="true" d="" display="none"></path></g><g transform="translate(0,0)"><path class="background" aria-hidden="true" d="M0,0h200v200h-200Z"></path><g><g class="mark-line role-mark concat_1_marks" clip-path="url(#clip8)" role="graphics-object" aria-roledescription="line mark container"><path aria-label="Type: Deaths; Date: Mar 01; Country: Norway; Confirmed: 19; Recovered: 0; Deaths: 0; Count: 0" role="graphics-symbol" aria-roledescription="line mark" d="M-364.44444444444446,200L-357.77777777777777,200L-351.1111111111111,200L-344.44444444444446,200L-337.77777777777777,200L-331.1111111111111,200L-324.44444444444446,200L-317.77777777777777,200L-311.3888888888889,200L-304.72222222222223,200L-298.05555555555554,200L-291.38888888888886,200L-284.72222222222223,200L-278.05555555555554,199.93333333333334L-271.3888888888889,199.93333333333334L-264.72222222222223,199.93333333333334L-258.05555555555554,199.93333333333334L-251.38888888888889,199.86666666666665L-244.72222222222223,199.84444444444443L-238.05555555555554,199.84444444444443L-231.3888888888889,199.84444444444443L-224.72222222222223,199.84444444444443L-218.05555555555554,199.7777777777778L-211.38888888888889,199.73333333333335L-204.7222222222222,199.6888888888889L-198.05555555555557,199.6888888888889L-191.38888888888889,199.57777777777778L-184.72222222222223,199.48888888888888L-178.05555555555554,199.44444444444446L-171.38888888888889,199.2888888888889L-164.72222222222223,199.13333333333333L-158.05555555555554,199.0222222222222L-151.38888888888889,198.88888888888889L-144.72222222222223,198.6888888888889L-138.05555555555554,198.6222222222222L-131.38888888888889,198.42222222222225L-124.72222222222223,198.3111111111111L-118.05555555555556,198.02222222222224L-111.38888888888889,197.75555555555556L-104.72222222222223,197.6L-98.05555555555556,197.48888888888888L-91.38888888888889,197.35555555555555L-84.72222222222221,197.15555555555554L-78.05555555555556,197.02222222222224L-71.38888888888889,196.9111111111111L-64.72222222222223,196.66666666666666L-58.05555555555556,196.62222222222223L-51.388888888888886,196.42222222222222L-44.72222222222222,196.35555555555555L-38.05555555555556,196.33333333333334L-31.38888888888889,195.9777777777778L-24.72222222222222,195.95555555555555L-18.055555555555554,195.84444444444443L-11.38888888888889,195.6888888888889L-4.722222222222222,195.57777777777778L1.9444444444444444,195.53333333333333L8.61111111111111,195.53333333333333L15.277777777777779,195.44444444444446L21.944444444444443,195.42222222222222L28.61111111111111,195.4L35.27777777777778,195.33333333333334L41.94444444444444,195.33333333333334L48.61111111111111,195.3111111111111L55.27777777777778,195.3111111111111L61.94444444444444,195.24444444444444L68.61111111111111,195.22222222222223L75.27777777777777,195.2L81.94444444444444,195.17777777777778L88.61111111111111,195.15555555555554L95.27777777777777,195.13333333333333L101.94444444444444,195.13333333333333L108.6111111111111,195.02222222222224L115.27777777777777,194.93333333333334L121.94444444444446,194.9111111111111L128.61111111111111,194.84444444444443L135.27777777777777,194.84444444444443L141.94444444444446,194.84444444444443L148.61111111111111,194.84444444444443L155.27777777777777,194.82222222222222L161.94444444444446,194.82222222222222L168.61111111111111,194.79999999999998L175.27777777777777,194.77777777777777L181.94444444444443,194.77777777777777L188.61111111111111,194.77777777777777L195.27777777777777,194.77777777777777L201.94444444444443,194.77777777777777" stroke="#f58518" stroke-width="2" opacity="0.7"></path></g></g><path class="foreground" aria-hidden="true" d="" display="none"></path></g><g transform="translate(0,0)"><path class="background" aria-hidden="true" d="M0,0h200v200h-200Z"></path><g><g class="mark-line role-mark concat_1_marks" clip-path="url(#clip9)" role="graphics-object" aria-roledescription="line mark container"><path aria-label="Type: Confirmed; Date: Mar 01; Country: Norway; Confirmed: 19; Recovered: 0; Deaths: 0; Count: 19" role="graphics-symbol" aria-roledescription="line mark" d="M-364.44444444444446,199.57777777777778L-357.77777777777777,199.44444444444446L-351.1111111111111,199.2888888888889L-344.44444444444446,198.75555555555556L-337.77777777777777,198.06666666666666L-331.1111111111111,197.6L-324.44444444444446,196.73333333333335L-317.77777777777777,196.0888888888889L-311.3888888888889,195.44444444444446L-304.72222222222223,191.11111111111111L-298.05555555555554,186.7111111111111L-291.38888888888886,184.4L-284.72222222222223,177.86666666666667L-278.05555555555554,175.77777777777777L-271.3888888888889,172.86666666666667L-264.72222222222223,170.3777777777778L-258.05555555555554,167.48888888888888L-251.38888888888889,165.55555555555554L-244.72222222222223,161.20000000000002L-238.05555555555554,157.46666666666667L-231.3888888888889,152.9333333333333L-224.72222222222223,147L-218.05555555555554,141.75555555555553L-211.38888888888889,136.37777777777777L-204.7222222222222,131.46666666666667L-198.05555555555557,125.13333333333333L-191.38888888888889,116.55555555555557L-184.72222222222223,110.77777777777777L-178.05555555555554,104.80000000000001L-171.38888888888889,101.22222222222223L-164.72222222222223,96.86666666666666L-158.05555555555554,91.93333333333334L-151.38888888888889,85.62222222222222L-144.72222222222223,80.66666666666666L-138.05555555555554,76.66666666666666L-131.38888888888889,73.6222222222222L-124.72222222222223,69.66666666666667L-118.05555555555556,64.75555555555556L-111.38888888888889,64.75555555555556L-104.72222222222223,61.977777777777774L-98.05555555555556,59.68888888888888L-91.38888888888889,57.57777777777777L-84.72222222222221,55.00000000000001L-78.05555555555556,53.266666666666666L-71.38888888888889,52.822222222222216L-64.72222222222223,50.222222222222214L-58.05555555555556,46.75555555555555L-51.388888888888886,45.84444444444444L-44.72222222222222,43.64444444444444L-38.05555555555556,42.71111111111112L-31.38888888888889,40.97777777777778L-24.72222222222222,40.19999999999999L-18.055555555555554,36.93333333333333L-11.38888888888889,35.53333333333333L-4.722222222222222,34.15555555555556L1.9444444444444444,33.35555555555556L8.61111111111111,32.73333333333333L15.277777777777779,31.133333333333326L21.944444444444443,29.77777777777777L28.61111111111111,28.666666666666664L35.27777777777778,28.04444444444445L41.94444444444444,27.044444444444448L48.61111111111111,26.46666666666666L55.27777777777778,25.622222222222213L61.94444444444444,24.355555555555554L68.61111111111111,23.222222222222232L75.27777777777777,22.311111111111103L81.94444444444444,21.466666666666654L88.61111111111111,20.66666666666668L95.27777777777777,20.02222222222223L101.94444444444444,19.88888888888889L108.6111111111111,19.288888888888888L115.27777777777777,18.733333333333334L121.94444444444446,18.333333333333336L128.61111111111111,17.866666666666674L135.27777777777777,17.355555555555547L141.94444444444446,16.955555555555545L148.61111111111111,16.688888888888886L155.27777777777777,16.51111111111112L161.94444444444446,16.288888888888884L168.61111111111111,15.97777777777778L175.27777777777777,15.355555555555544L181.94444444444443,14.844444444444438L188.61111111111111,14.533333333333331L195.27777777777777,14.399999999999991L201.94444444444443,14.133333333333331" stroke="#4c78a8" stroke-width="2" opacity="0.7"></path></g></g><path class="foreground" aria-hidden="true" d="" display="none"></path></g></g><g class="mark-group role-title"><g transform="translate(100,-39)"><path class="background" aria-hidden="true" d="M0,0h0v0h0Z" pointer-events="none"></path><g><g class="mark-text role-title-text" role="graphics-symbol" aria-roledescription="title" aria-label="Title text 'Total'" pointer-events="none"><text text-anchor="middle" transform="translate(0,10)" font-family="Roboto Condensed" font-size="13px" font-weight="normal" fill="#000" opacity="1">Total</text></g></g><path class="foreground" aria-hidden="true" d="" pointer-events="none" display="none"></path></g></g></g><path class="foreground" aria-hidden="true" d="" display="none"></path></g></g><g class="mark-group role-legend" role="graphics-symbol" aria-roledescription="legend" aria-label="Symbol legend for stroke color with 3 values: Confirmed, Deaths, Recovered"><g transform="translate(503,0)"><path class="background" aria-hidden="true" d="M0,0h58v37h-58Z" pointer-events="none"></path><g><g class="mark-group role-legend-entry"><g transform="translate(0,0)"><path class="background" aria-hidden="true" d="M0,0h0v0h0Z" pointer-events="none"></path><g><g class="mark-group role-scope" role="graphics-object" aria-roledescription="group mark container"><g transform="translate(0,0)"><path class="background" aria-hidden="true" d="M0,0h58v11h-58Z" pointer-events="none" opacity="1"></path><g><g class="mark-symbol role-legend-symbol" pointer-events="none"><path transform="translate(6,6)" d="M-5,0L5,0" stroke="#4c78a8" stroke-width="1.5" opacity="0.2"></path></g><g class="mark-text role-legend-label" pointer-events="none"><text text-anchor="start" transform="translate(16,9)" font-family="Roboto Condensed" font-size="10px" fill="#000" opacity="1">Confirmed</text></g></g><path class="foreground" aria-hidden="true" d="" pointer-events="none" display="none"></path></g><g transform="translate(0,13)"><path class="background" aria-hidden="true" d="M0,0h58v11h-58Z" pointer-events="none" opacity="1"></path><g><g class="mark-symbol role-legend-symbol" pointer-events="none"><path transform="translate(6,6)" d="M-5,0L5,0" stroke="#f58518" stroke-width="1.5" opacity="0.2"></path></g><g class="mark-text role-legend-label" pointer-events="none"><text text-anchor="start" transform="translate(16,9)" font-family="Roboto Condensed" font-size="10px" fill="#000" opacity="1">Deaths</text></g></g><path class="foreground" aria-hidden="true" d="" pointer-events="none" display="none"></path></g><g transform="translate(0,26)"><path class="background" aria-hidden="true" d="M0,0h58v11h-58Z" pointer-events="none" opacity="1"></path><g><g class="mark-symbol role-legend-symbol" pointer-events="none"><path transform="translate(6,6)" d="M-5,0L5,0" stroke="#e45756" stroke-width="1.5" opacity="0.2"></path></g><g class="mark-text role-legend-label" pointer-events="none"><text text-anchor="start" transform="translate(16,9)" font-family="Roboto Condensed" font-size="10px" fill="#000" opacity="1">Recovered</text></g></g><path class="foreground" aria-hidden="true" d="" pointer-events="none" display="none"></path></g></g></g><path class="foreground" aria-hidden="true" d="" pointer-events="none" display="none"></path></g></g></g><path class="foreground" aria-hidden="true" d="" pointer-events="none" display="none"></path></g></g></g><path class="foreground" aria-hidden="true" d="" display="none"></path></g></g></g></svg>