<svg class="marks" width="419.6666666666667" height="310.6666666666667" viewBox="0 0 419.6666666666667 310.6666666666667" version="1.1" xmlns="http://www.w3.org/2000/svg" xmlns:xlink="http://www.w3.org/1999/xlink"><defs><clipPath id="clip1"><rect x="0" y="0" width="266.6666666666667" height="266.6666666666667"></rect></clipPath><clipPath id="clip2"><rect x="0" y="0" width="266.6666666666667" height="266.6666666666667"></rect></clipPath><clipPath id="clip3"><rect x="0" y="0" width="266.6666666666667" height="266.6666666666667"></rect></clipPath><clipPath id="clip4"><rect x="0" y="0" width="266.6666666666667" height="266.6666666666667"></rect></clipPath><clipPath id="clip5"><rect x="0" y="0" width="266.6666666666667" height="266.6666666666667"></rect></clipPath><clipPath id="clip6"><rect x="0" y="0" width="266.6666666666667" height="266.6666666666667"></rect></clipPath><clipPath id="clip7"><rect x="0" y="0" width="266.6666666666667" height="266.6666666666667"></rect></clipPath><clipPath id="clip8"><rect x="0" y="0" width="266.6666666666667" height="266.6666666666667"></rect></clipPath><clipPath id="clip9"><rect x="0" y="0" width="266.6666666666667" height="266.6666666666667"></rect></clipPath><clipPath id="clip10"><rect x="0" y="0" width="266.6666666666667" height="266.6666666666667"></rect></clipPath></defs><rect width="419.6666666666667" height="310.6666666666667" fill="white"></rect><g fill="none" stroke-miterlimit="10" transform="translate(50,27)"><g class="mark-group role-frame root" role="graphics-object" aria-roledescription="group mark container"><g transform="translate(0,0)"><path class="background" aria-hidden="true" d="M0,0h266.6666666666667v266.6666666666667h-266.6666666666667Z" stroke="#ddd" stroke-width="0"></path><g><g class="mark-group role-axis" aria-hidden="true"><g transform="translate(0.5,0.5)"><path class="background" aria-hidden="true" d="M0,0h0v0h0Z" pointer-events="none"></path><g><g class="mark-rule role-axis-grid" pointer-events="none"><line transform="translate(0,267)" x2="266.6666666666667" y2="0" stroke="#ddd" stroke-width="1" opacity="1"></line><line transform="translate(0,229)" x2="266.6666666666667" y2="0" stroke="#ddd" stroke-width="1" opacity="1"></line><line transform="translate(0,190)" x2="266.6666666666667" y2="0" stroke="#ddd" stroke-width="1" opacity="1"></line><line transform="translate(0,152)" x2="266.6666666666667" y2="0" stroke="#ddd" stroke-width="1" opacity="1"></line><line transform="translate(0,114)" x2="266.6666666666667" y2="0" stroke="#ddd" stroke-width="1" opacity="1"></line><line transform="translate(0,76)" x2="266.6666666666667" y2="0" stroke="#ddd" stroke-width="1" opacity="1"></line><line transform="translate(0,38)" x2="266.6666666666667" y2="0" stroke="#ddd" stroke-width="1" opacity="1"></line><line transform="translate(0,0)" x2="266.6666666666667" y2="0" stroke="#ddd" stroke-width="1" opacity="1"></line></g></g><path class="foreground" aria-hidden="true" d="" pointer-events="none" display="none"></path></g></g><g class="mark-group role-axis" role="graphics-symbol" aria-roledescription="axis" aria-label="X-axis for a time scale with values from Friday, 24 April 2020, 5:00:00 PM to Sunday, 24 May 2020, 5:00:00 PM"><g transform="translate(0.5,267.1666666666667)"><path class="background" aria-hidden="true" d="M0,0h0v0h0Z" pointer-events="none"></path><g><g class="mark-text role-axis-label" pointer-events="none"><text text-anchor="middle" transform="translate(11.481481481481483,10)" font-family="Roboto Condensed" font-size="10px" fill="#000" opacity="1">Apr 26</text><text text-anchor="middle" transform="translate(73.70370370370371,10)" font-family="Roboto Condensed" font-size="10px" fill="#000" opacity="1">May 03</text><text text-anchor="middle" transform="translate(135.92592592592592,10)" font-family="Roboto Condensed" font-size="10px" fill="#000" opacity="1">May 10</text><text text-anchor="middle" transform="translate(198.14814814814818,10)" font-family="Roboto Condensed" font-size="10px" fill="#000" opacity="1">May 17</text><text text-anchor="middle" transform="translate(260.3703703703704,10)" font-family="Roboto Condensed" font-size="10px" fill="#000" opacity="1">May 24</text></g><g class="mark-rule role-axis-domain" pointer-events="none"><line transform="translate(0,0)" x2="266.6666666666667" y2="0" stroke="lightgray" stroke-width="1" opacity="1"></line></g></g><path class="foreground" aria-hidden="true" d="" pointer-events="none" display="none"></path></g></g><g class="mark-group role-axis" role="graphics-symbol" aria-roledescription="axis" aria-label="Y-axis for a linear scale with values from 0 to 3,500"><g transform="translate(0.5,0.5)"><path class="background" aria-hidden="true" d="M0,0h0v0h0Z" pointer-events="none"></path><g><g class="mark-text role-axis-label" pointer-events="none"><text text-anchor="end" transform="translate(-2,269.6666666666667)" font-family="Roboto Condensed" font-size="10px" fill="#000" opacity="1">0</text><text text-anchor="end" transform="translate(-2,231.5714285714286)" font-family="Roboto Condensed" font-size="10px" fill="#000" opacity="1">500</text><text text-anchor="end" transform="translate(-2,193.47619047619048)" font-family="Roboto Condensed" font-size="10px" fill="#000" opacity="1">1,000</text><text text-anchor="end" transform="translate(-2,155.38095238095238)" font-family="Roboto Condensed" font-size="10px" fill="#000" opacity="1">1,500</text><text text-anchor="end" transform="translate(-2,117.2857142857143)" font-family="Roboto Condensed" font-size="10px" fill="#000" opacity="1">2,000</text><text text-anchor="end" transform="translate(-2,79.19047619047619)" font-family="Roboto Condensed" font-size="10px" fill="#000" opacity="1">2,500</text><text text-anchor="end" transform="translate(-2,41.09523809523811)" font-family="Roboto Condensed" font-size="10px" fill="#000" opacity="1">3,000</text><text text-anchor="end" transform="translate(-2,3)" font-family="Roboto Condensed" font-size="10px" fill="#000" opacity="1">3,500</text></g><g class="mark-rule role-axis-domain" pointer-events="none"><line transform="translate(0,266.6666666666667)" x2="0" y2="-266.6666666666667" stroke="lightgray" stroke-width="1" opacity="1"></line></g></g><path class="foreground" aria-hidden="true" d="" pointer-events="none" display="none"></path></g></g><g class="mark-group role-scope pathgroup" role="graphics-object" aria-roledescription="group mark container"><g transform="translate(0,0)"><path class="background" aria-hidden="true" d="M0,0h266.6666666666667v266.6666666666667h-266.6666666666667Z"></path><g><g class="mark-line role-mark marks" clip-path="url(#clip1)" role="graphics-object" aria-roledescription="line mark container"><path aria-label="Country: Belgium; Date: Mar 01, 2020; Confirmed: 0.174928296891; Recovered: 0.0874641484456; Deaths: 0; : 0.0874641484456" role="graphics-symbol" aria-roledescription="line mark" d="M-485.9259259259259,266.660002731547L-477.03703703703707,266.660002731547L-468.14814814814815,266.660002731547L-459.2592592592593,266.660002731547L-450.3703703703704,266.660002731547L-441.48148148148147,266.660002731547L-432.5925925925926,266.660002731547L-423.7037037037037,266.660002731547L-415.1851851851852,266.660002731547L-406.2962962962963,266.660002731547L-397.40740740740745,266.660002731547L-388.51851851851853,266.660002731547L-379.6296296296297,266.660002731547L-370.74074074074076,266.660002731547L-361.8518518518519,266.660002731547L-352.962962962963,266.660002731547L-344.07407407407413,266.660002731547L-335.1851851851852,266.4600846779572L-326.29629629629636,266.4600846779572L-317.40740740740745,266.660002731547L-308.5185185185186,264.9140517301958L-299.6296296296297,264.9140517301958L-290.74074074074076,264.9140517301958L-281.8518518518519,263.5945925765029L-272.96296296296293,263.02149415621204L-264.0740740740741,262.16851046089545L-255.18518518518522,260.9490103339974L-246.29629629629633,259.5829036344669L-237.40740740740742,257.61037883904726L-228.51851851851853,256.49083773894415L-219.62962962962965,255.36463270372144L-210.74074074074073,252.45915699154918L-201.85185185185185,250.0401485431122L-192.96296296296296,247.52784500299995L-184.07407407407408,245.02886933312703L-175.1851851851852,241.67024603281783L-166.2962962962963,240.10422127969747L-157.40740740740742,238.9646883742354L-148.51851851851853,235.47278637153298L-139.62962962962965,232.25410570873666L-130.74074074074073,229.5618759203936L-121.85185185185186,226.77635104037523L-112.96296296296298,223.59765398829688L-104.07407407407408,221.97165381909957L-95.18518518518519,220.89876026483412L-86.2962962962963,219.30607977123512L-77.40740740740742,216.27398929178932L-68.51851851851852,213.61507917904453L-59.62962962962963,211.03613628773567L-50.74074074074074,208.31058682379427L-41.851851851851855,207.39096377728106L-32.96296296296297,206.67792271947732L-24.074074074074076,203.80576668290337L-15.185185185185185,201.36010249398774L-6.296296296296297,199.21431538545684L2.592592592592593,197.2484545251568L11.481481481481483,194.79612640112154L20.370370370370374,194.17638043499304L29.25925925925926,193.74322465221508L38.148148148148145,191.4774867115303L47.037037037037045,189.52495372146956L55.92592592592593,187.4191502236567L64.81481481481482,185.29335492048477L73.70370370370371,184.64028927875796L82.5925925925926,184.18047775550136L91.4814814814815,183.76064984296272L100.37037037037038,181.828108658261L109.25925925925927,180.1687888134654L118.14814814814815,178.69605915202027L127.03703703703704,177.29663277689144L135.92592592592592,175.75726376424967L144.8148148148148,175.39074733266833L153.7037037037037,175.15750960348024L162.5925925925926,173.7914029039497L171.4814814814815,172.63187819312864L180.37037037037038,171.36573052039304L189.2592592592593,170.30616483636692L198.14814814814818,169.17329586602452L207.03703703703707,168.99336961779366L215.92592592592595,168.79345156420385L224.81481481481484,167.7272219450581L233.70370370370372,166.78760709318587L242.5925925925926,165.8879758520316L251.4814814814815,165.67472992820242L260.3703703703704,164.89504951920208L269.2592592592593,164.72845114121057" stroke="#4c78a8" stroke-width="2" opacity="1"></path></g></g><path class="foreground" aria-hidden="true" d="" display="none"></path></g><g transform="translate(0,0)"><path class="background" aria-hidden="true" d="M0,0h266.6666666666667v266.6666666666667h-266.6666666666667Z"></path><g><g class="mark-line role-mark marks" clip-path="url(#clip2)" role="graphics-object" aria-roledescription="line mark container"><path aria-label="Country: Brazil; Date: Mar 01, 2020; Confirmed: 0.00954793702427; Recovered: 0; Deaths: 0; : 0" role="graphics-symbol" aria-roledescription="line mark" d="M-485.9259259259259,266.6666666666667L-477.03703703703707,266.6666666666667L-468.14814814814815,266.6666666666667L-459.2592592592593,266.6666666666667L-450.3703703703704,266.6666666666667L-441.48148148148147,266.6666666666667L-432.5925925925926,266.6666666666667L-423.7037037037037,266.6666666666667L-415.1851851851852,266.6666666666667L-406.2962962962963,266.6666666666667L-397.40740740740745,266.6666666666667L-388.51851851851853,266.6666666666667L-379.6296296296297,266.6666666666667L-370.74074074074076,266.6666666666667L-361.8518518518519,266.6666666666667L-352.962962962963,266.6663029357324L-344.07407407407413,266.6659392047982L-335.1851851851852,266.6659392047982L-326.29629629629636,266.6659392047982L-317.40740740740745,266.6659392047982L-308.5185185185186,266.6659392047982L-299.6296296296297,266.6659392047982L-290.74074074074076,266.6659392047982L-281.8518518518519,266.6659392047982L-272.96296296296293,266.6659392047982L-264.0740740740741,266.66448428106116L-255.18518518518522,266.66448428106116L-246.29629629629633,266.66448428106116L-237.40740740740742,266.66448428106116L-228.51851851851853,266.62301895455573L-219.62962962962965,266.6204728380159L-210.74074074074073,266.6204728380159L-201.85185185185185,266.6204728380159L-192.96296296296296,266.6204728380159L-184.07407407407408,266.6204728380159L-175.1851851851852,266.6204728380159L-166.2962962962963,266.6204728380159L-157.40740740740742,266.6204728380159L-148.51851851851853,266.6204728380159L-139.62962962962965,266.6037412150401L-130.74074074074073,266.6037412150401L-121.85185185185186,266.6037412150401L-112.96296296296298,266.6037412150401L-104.07407407407408,266.6037412150401L-95.18518518518519,265.558742240917L-86.2962962962963,261.5649765827649L-77.40740740740742,261.5649765827649L-68.51851851851852,261.5649765827649L-59.62962962962963,261.5649765827649L-50.74074074074074,258.6173010915386L-41.851851851851855,258.6173010915386L-32.96296296296297,258.3041287571425L-24.074074074074076,257.45772687312433L-15.185185185185185,257.00124455063064L-6.296296296296297,256.60768767976356L2.592592592592593,256.0602726237054L11.481481481481483,255.6994515369215L20.370370370370374,255.33935791200614L29.25925925925926,254.8294071421765L38.148148148148145,254.2518024185749L47.037037037037045,253.59599554410786L55.92592592592593,252.83070565842917L64.81481481481482,251.77661341094966L73.70370370370371,251.02951007198388L82.5925925925926,250.00233391363946L91.4814814814815,249.12719728581487L100.37037037037038,247.98180857383664L109.25925925925927,246.53415945549008L118.14814814814815,245.098513457974L127.03703703703704,244.22992398696604L135.92592592592592,243.03979637007407L144.8148148148148,242.15702139263007L153.7037037037037,240.2608920323435L162.5925925925926,238.1414318784225L171.4814814814815,237.75769574278038L180.37037037037038,235.7604491827701L189.2592592592593,234.05018632988927L198.14814814814818,232.43158367244146L207.03703703703707,230.1266207420489L215.92592592592595,227.82238527352493L224.81481481481484,224.22545006464824L233.70370370370372,220.8511181875374L242.5925925925926,217.40658624011473L251.4814814814815,214.80336394363073L260.3703703703704,212.13939858112562L269.2592592592593,210.712845856966" stroke="#f58518" stroke-width="2" opacity="1"></path></g></g><path class="foreground" aria-hidden="true" d="" display="none"></path></g><g transform="translate(0,0)"><path class="background" aria-hidden="true" d="M0,0h266.6666666666667v266.6666666666667h-266.6666666666667Z"></path><g><g class="mark-line role-mark marks" clip-path="url(#clip3)" role="graphics-object" aria-roledescription="line mark container"><path aria-label="Country: France; Date: Mar 01, 2020; Confirmed: 1.94096170801; Recovered: 0.179165696124; Deaths: 0.0298609493539; : 0.179165696124" role="graphics-symbol" aria-roledescription="line mark" d="M-485.9259259259259,266.65301594696206L-477.03703703703707,266.65301594696206L-468.14814814814815,266.65301594696206L-459.2592592592593,266.65301594696206L-450.3703703703704,266.65301594696206L-441.48148148148147,266.65301594696206L-432.5925925925926,266.65301594696206L-423.7037037037037,266.65301594696206L-415.1851851851852,266.65301594696206L-406.2962962962963,266.65301594696206L-397.40740740740745,266.65301594696206L-388.51851851851853,266.65301594696206L-379.6296296296297,266.65301594696206L-370.74074074074076,266.65301594696206L-361.8518518518519,266.65301594696206L-352.962962962963,266.65301594696206L-344.07407407407413,266.65301594696206L-335.1851851851852,266.65301594696206L-326.29629629629636,266.65301594696206L-317.40740740740745,266.65301594696206L-308.5185185185186,266.65301594696206L-299.6296296296297,264.16403472081316L-290.74074074074076,264.16403472081316L-281.8518518518519,262.97755966648356L-272.96296296296293,262.23018276265367L-264.0740740740741,261.0380199084471L-255.18518518518522,260.18257480695536L-246.29629629629633,260.18257480695536L-237.40740740740742,258.47395972392263L-228.51851851851853,257.64922874176636L-219.62962962962965,255.92355025910288L-210.74074074074073,254.22858589577484L-201.85185185185185,252.5290712925452L-192.96296296296296,250.73172653143226L-184.07407407407408,249.1050157666275L-175.1851851851852,248.25753358496345L-166.2962962962963,247.0437570912245L-157.40740740740742,244.6696694225899L-148.51851851851853,242.48896694977117L-139.62962962962965,240.26844987781388L-130.74074074074073,238.3050213602943L-121.85185185185186,236.64532135620328L-112.96296296296298,235.74096117576983L-104.07407407407408,235.13577926886344L-95.18518518518519,234.2325566484054L-86.2962962962963,232.03934101585745L-77.40740740740742,229.92689214156204L-68.51851851851852,228.17846245939074L-59.62962962962963,226.42093229741636L-50.74074074074074,225.7452216720359L-41.851851851851855,224.82493565194704L-32.96296296296297,222.82169253528886L-24.074074074074076,221.1779183708533L-15.185185185185185,219.55575784595007L-6.296296296296297,218.07579231797033L2.592592592592593,216.8233387850682L11.481481481481483,216.47183275267332L20.370370370370374,215.78019628763744L29.25925925925926,214.3423204787471L38.148148148148145,212.81685255175185L47.037037037037045,211.4131035421231L55.92592592592593,210.58495988004069L64.81481481481482,210.07192033114072L73.70370370370371,209.8193820166046L82.5925925925926,209.2904166280492L91.4814814814815,207.73764726164464L100.37037037037038,206.3509616516467L109.25925925925927,205.15197343758783L118.14814814814815,204.3625068146686L127.03703703703704,204.23054985752358L135.92592592592592,204.0303393018553L144.8148148148148,203.4535963943336L153.7037037037037,202.26143354012703L162.5925925925926,201.4071259986107L171.4814814814815,200.3469201015491L180.37037037037038,199.38795704229707L189.2592592592593,199.38909460227245L198.14814814814818,198.51886122110068L207.03703703703707,197.9398431936282L215.92592592592595,196.9956684140562L224.81481481481484,196.46442790555005L233.70370370370372,195.8922352379299L242.5925925925926,195.8922352379299L251.4814814814815,195.8922352379299L260.3703703703704,195.04475305626588L269.2592592592593,194.3838307105655" stroke="#e45756" stroke-width="2" opacity="1"></path></g></g><path class="foreground" aria-hidden="true" d="" display="none"></path></g><g transform="translate(0,0)"><path class="background" aria-hidden="true" d="M0,0h266.6666666666667v266.6666666666667h-266.6666666666667Z"></path><g><g class="mark-line role-mark marks" clip-path="url(#clip4)" role="graphics-object" aria-roledescription="line mark container"><path aria-label="Country: Germany; Date: Mar 01, 2020; Confirmed: 1.56804503696; Recovered: 0.192990158395; Deaths: 0; : 0.192990158395" role="graphics-symbol" aria-roledescription="line mark" d="M-485.9259259259259,266.65196265459855L-477.03703703703707,266.65196265459855L-468.14814814814815,266.65196265459855L-459.2592592592593,266.65196265459855L-450.3703703703704,266.65196265459855L-441.48148148148147,266.6510436538443L-432.5925925925926,266.65012465309L-423.7037037037037,266.65012465309L-415.1851851851852,266.65012465309L-406.2962962962963,266.65012465309L-397.40740740740745,266.6436916478102L-388.51851851851853,266.6436916478102L-379.6296296296297,266.62439263197075L-370.74074074074076,266.62439263197075L-361.8518518518519,266.62439263197075L-352.962962962963,266.6050936161313L-344.07407407407413,266.6050936161313L-335.1851851851852,266.5701715874694L-326.29629629629636,266.56281958143535L-317.40740740740745,266.50124653089995L-308.5185185185186,266.4525394909242L-299.6296296296297,266.4222124660336L-290.74074074074076,266.4222124660336L-281.8518518518519,263.686347220603L-272.96296296296293,263.4069709913081L-264.0740740740741,261.45317538775237L-255.18518518518522,260.5479596448067L-246.29629629629633,258.8726212697916L-237.40740740740742,258.20175071918214L-228.51851851851853,254.26015648416302L-219.62962962962965,251.87075452308827L-210.74074074074073,249.48135256201346L-201.85185185185185,246.04428974108285L-192.96296296296296,244.08222313073873L-184.07407407407408,242.40504675421508L-175.1851851851852,240.29134501941815L-166.2962962962963,240.29134501941815L-157.40740740740742,233.50820045222858L-148.51851851851853,224.11693174445043L-139.62962962962965,218.50459413818749L-130.74074074074073,217.12057900227265L-121.85185185185186,213.91602337216963L-112.96296296296298,211.25092118481697L-104.07407407407408,207.5749181677789L-95.18518518518519,203.99081522616672L-86.2962962962963,199.94721190742476L-77.40740740740742,195.90360858868283L-68.51851851851852,190.28483797714009L-59.62962962962963,188.18400225290281L-50.74074074074074,185.794600291828L-41.851851851851855,182.57809765191965L-32.96296296296297,179.17779486115938L-24.074074074074076,175.31799169326933L-15.185185185185185,171.73388875165722L-6.296296296296297,165.76038384897026L2.592592592592593,165.76038384897026L11.481481481481483,163.7385821895993L20.370370370370374,161.44108030395046L29.25925925925926,158.77597811659783L38.148148148148145,156.01897585381923L47.037037037037045,153.1700735156147L55.92592592592593,150.04547095113227L64.81481481481482,148.11556936718725L73.70370370370371,146.64516816037204L82.5925925925926,144.715266576427L91.4814814814815,142.50966476620414L100.37037037037038,138.09846114575836L109.25925925925927,136.44425978809124L118.14814814814815,136.44425978809124L127.03703703703704,134.973858581276L135.92592592592592,133.96295775159052L144.8148148148148,132.84453383365667L153.7037037037037,131.38975563966383L162.5925925925926,130.0112545082745L171.4814814814815,128.5408533014593L180.37037037037038,127.34890932318466L189.2592592592593,126.42715156666235L198.14814814814818,125.13044150240216L207.03703703703707,124.18387072551484L215.92592592592595,123.59571024278875L224.81481481481484,122.41479427356526L233.70370370370372,121.3845944280403L242.5925925925926,120.48673069112874L251.4814814814815,119.88754219935153L260.3703703703704,119.3683067731949L269.2592592592593,118.52466408078465" stroke="#72b7b2" stroke-width="2" opacity="1"></path></g></g><path class="foreground" aria-hidden="true" d="" display="none"></path></g><g transform="translate(0,0)"><path class="background" aria-hidden="true" d="M0,0h266.6666666666667v266.6666666666667h-266.6666666666667Z"></path><g><g class="mark-line role-mark marks" clip-path="url(#clip5)" role="graphics-object" aria-roledescription="line mark container"><path aria-label="Country: Iran; Date: Mar 01, 2020; Confirmed: 11.9559509028; Recovered: 2.13935726788; Deaths: 0.660144528376; : 2.13935726788" role="graphics-symbol" aria-roledescription="line mark" d="M-485.9259259259259,266.5036680176851L-477.03703703703707,266.39562319893156L-468.14814814814815,266.39562319893156L-459.2592592592593,266.1525223567361L-450.3703703703704,265.97834665753857L-441.48148148148147,265.81627942940827L-432.5925925925926,265.11212526580766L-423.7037037037037,264.6790145699422L-415.1851851851852,264.4368451485981L-406.2962962962963,264.1229563217021L-397.40740740740745,263.91059236760026L-388.51851851851853,263.91059236760026L-379.6296296296297,263.91059236760026L-370.74074074074076,263.91059236760026L-361.8518518518519,262.39144495909153L-352.962962962963,262.39144495909153L-344.07407407407413,261.647239698884L-335.1851851851852,261.647239698884L-326.29629629629636,261.34825360560916L-317.40740740740745,260.3842330244893L-308.5185185185186,259.5552684668113L-299.6296296296297,259.27956789481954L-290.74074074074076,259.27956789481954L-281.8518518518519,258.3649126188198L-272.96296296296293,257.70174097267744L-264.0740740740741,256.92679882437625L-255.18518518518522,256.2971583288815L-246.29629629629633,255.78860254405885L-237.40740740740742,255.12543089791646L-228.51851851851853,253.70967120390466L-219.62962962962965,253.0157626696686L-210.74074074074073,252.25479183413722L-201.85185185185185,251.10169282019868L-192.96296296296296,249.96163369817862L-184.07407407407408,248.2841447449449L-175.1851851851852,248.2841447449449L-166.2962962962963,244.09275091398888L-157.40740740740742,241.48197826772895L-148.51851851851853,238.89914824700872L-139.62962962962965,236.57339038125377L-130.74074074074073,233.63382617447664L-121.85185185185186,227.5963562161973L-112.96296296296298,225.78287981867035L-104.07407407407408,223.83714166025544L-95.18518518518519,221.83831251331506L-86.2962962962963,220.15802929752738L-77.40740740740742,218.01948702288848L-68.51851851851852,216.31032976070975L-59.62962962962963,214.51920746361455L-50.74074074074074,213.55425546164332L-41.851851851851855,211.4585585461653L-32.96296296296297,209.88259446572587L-24.074074074074076,207.88190247708286L-15.185185185185185,206.2705444042931L-6.296296296296297,204.63496938936893L2.592592592592593,203.15028455235918L11.481481481481483,201.78668442602148L20.370370370370374,200.59819141973261L29.25925925925926,199.19547161763933L38.148148148148145,197.9361906266499L47.037037037037045,196.71416646971338L55.92592592592593,195.58249013535524L64.81481481481482,194.62126381678937L73.70370370370371,193.62278066417048L82.5925925925926,192.7314109094538L91.4814814814815,191.7105736564032L100.37037037037038,190.6748336697314L109.25925925925927,189.59717974475004L118.14814814814815,188.5791367542534L127.03703703703704,187.4362833696794L135.92592592592592,186.43128027110131L144.8148148148148,185.23999300225842L153.7037037037037,184.3691145062709L162.5925925925926,183.3715627745034L171.4814814814815,182.33675420868292L180.37037037037038,181.12870136451625L189.2592592592593,179.9076086284311L198.14814814814818,178.68092736723793L207.03703703703707,177.56601660820363L215.92592592592595,176.1577082810024L224.81481481481484,174.6348351890884L233.70370370370372,172.9992601741642L242.5925925925926,171.4046676766983L251.4814814814815,169.73183582772117L260.3703703703704,168.12140917578276L269.2592592592593,166.34053250805212" stroke="#54a24b" stroke-width="2" opacity="1"></path></g></g><path class="foreground" aria-hidden="true" d="" display="none"></path></g><g transform="translate(0,0)"><path class="background" aria-hidden="true" d="M0,0h266.6666666666667v266.6666666666667h-266.6666666666667Z"></path><g><g class="mark-line role-mark marks" clip-path="url(#clip6)" role="graphics-object" aria-roledescription="line mark container"><path aria-label="Country: Italy; Date: Mar 01, 2020; Confirmed: 28.0362571365; Recovered: 1.37367729772; Deaths: 0.562711182197; : 1.37367729772" role="graphics-symbol" aria-roledescription="line mark" d="M-485.9259259259259,266.56200553922173L-477.03703703703707,266.4787810282414L-468.14814814814815,266.46491027641133L-459.2592592592593,266.31863689347614L-450.3703703703704,266.1446220068809L-441.48148148148147,266.0071754660194L-432.5925925925926,265.9239509550391L-423.7037037037037,265.88233869954894L-415.1851851851852,265.7537190007611L-406.2962962962963,265.7537190007611L-397.40740740740745,265.3489452428113L-388.51851851851853,265.3489452428113L-379.6296296296297,264.85212013180745L-370.74074074074076,264.18758502140383L-361.8518518518519,263.7222843463774L-352.962962962963,263.20023968659166L-344.07407407407413,262.9581320182852L-335.1851851851852,261.59123247430506L-326.29629629629636,261.0679268370802L-317.40740740740745,261.0679268370802L-308.5185185185186,259.01001165647546L-299.6296296296297,257.80956113445603L-290.74074074074076,257.80956113445603L-281.8518518518519,256.16776850875294L-272.96296296296293,254.86139588184946L-264.0740740740741,253.60167942019248L-255.18518518518522,252.85896370856491L-246.29629629629633,251.0507220609012L-237.40740740740742,250.23613063524513L-228.51851851851853,248.2311765070824L-219.62962962962965,246.8327525271249L-210.74074074074073,245.42297975021552L-201.85185185185185,243.61852103486908L-192.96296296296296,241.7522744250069L-184.07407407407408,240.19118435540602L-175.1851851851852,239.15844383278633L-166.2962962962963,237.8697248900302L-157.40740740740742,235.90890497223583L-148.51851851851853,233.26211332757322L-139.62962962962965,230.76663897560212L-130.74074074074073,228.26359875899647L-121.85185185185186,225.64202666311576L-112.96296296296298,223.5273674977517L-104.07407407407408,221.9839311122981L-95.18518518518519,219.84657435303032L-86.2962962962963,218.6335140566199L-77.40740740740742,216.02076880281288L-68.51851851851852,212.78888362640973L-59.62962962962963,210.0147332603984L-50.74074074074074,207.331373270002L-41.851851851851855,205.033872375969L-32.96296296296297,201.60023080931046L-24.074074074074076,197.88917420605077L-15.185185185185185,194.0646296332725L-6.296296296296297,190.3800535562338L2.592592592592593,187.07377071092395L11.481481481481483,184.7939235010383L20.370370370370374,182.6553057643314L29.25925925925926,179.73362103794588L38.148148148148145,176.81950217619487L47.037037037037045,170.9017350545171L55.92592592592593,167.9964430348398L64.81481481481482,165.89691559874487L73.70370370370371,163.70281485471776L82.5925925925926,162.1581174918251L91.4814814814815,159.19229855507118L100.37037037037038,149.08682535815544L109.25925925925927,145.2648027402553L118.14814814814815,141.80089771505843L127.03703703703704,136.74690013916148L135.92592592592592,134.02949375790948L144.8148148148148,132.2628643657359L153.7037037037037,129.1709476850724L162.5925925925926,124.75500469335805L171.4814814814815,121.2910996681612L180.37037037037038,115.0908736001259L189.2592592592593,111.8060273712807L198.14814814814818,108.82255475037945L207.03703703703707,106.1114532563229L215.92592592592595,103.49492507019862L224.81481481481484,99.86204906816289L233.70370370370372,96.98954246190208L242.5925925925926,94.26583119345462L251.4814814814815,91.59255902257098L260.3703703703704,89.52581699989257L269.2592592592593,87.63182888637031" stroke="#eeca3b" stroke-width="2" opacity="1"></path></g></g><path class="foreground" aria-hidden="true" d="" display="none"></path></g><g transform="translate(0,0)"><path class="background" aria-hidden="true" d="M0,0h266.6666666666667v266.6666666666667h-266.6666666666667Z"></path><g><g class="mark-line role-mark marks" clip-path="url(#clip7)" role="graphics-object" aria-roledescription="line mark container"><path aria-label="Country: Mexico; Date: Mar 01, 2020; Confirmed: 0.0396225436044; Recovered: 0; Deaths: 0; : 0" role="graphics-symbol" aria-roledescription="line mark" d="M-485.9259259259259,266.6666666666667L-477.03703703703707,266.6666666666667L-468.14814814814815,266.66606289457366L-459.2592592592593,266.66606289457366L-450.3703703703704,266.66606289457366L-441.48148148148147,266.66606289457366L-432.5925925925926,266.66606289457366L-423.7037037037037,266.66606289457366L-415.1851851851852,266.66606289457366L-406.2962962962963,266.6642515782946L-397.40740740740745,266.6642515782946L-388.51851851851853,266.6642515782946L-379.6296296296297,266.6642515782946L-370.74074074074076,266.6642515782946L-361.8518518518519,266.6642515782946L-352.962962962963,266.6642515782946L-344.07407407407413,266.6642515782946L-335.1851851851852,266.6642515782946L-326.29629629629636,266.6642515782946L-317.40740740740745,266.6642515782946L-308.5185185185186,266.6642515782946L-299.6296296296297,266.6642515782946L-290.74074074074076,266.6642515782946L-281.8518518518519,266.6642515782946L-272.96296296296293,266.6642515782946L-264.0740740740741,266.6642515782946L-255.18518518518522,266.6642515782946L-246.29629629629633,266.6642515782946L-237.40740740740742,266.6642515782946L-228.51851851851853,266.64553464341105L-219.62962962962965,266.64553464341105L-210.74074074074073,266.64553464341105L-201.85185185185185,266.64553464341105L-192.96296296296296,266.28447893178566L-184.07407407407408,266.28447893178566L-175.1851851851852,266.28447893178566L-166.2962962962963,266.28447893178566L-157.40740740740742,266.28447893178566L-148.51851851851853,266.28447893178566L-139.62962962962965,266.28447893178566L-130.74074074074073,266.28447893178566L-121.85185185185186,266.28447893178566L-112.96296296296298,265.596782517837L-104.07407407407408,265.5539146992327L-95.18518518518519,265.48085827597737L-86.2962962962963,265.38365096900134L-77.40740740740742,265.38365096900134L-68.51851851851852,265.38365096900134L-59.62962962962963,265.38365096900134L-50.74074074074074,265.0805573783058L-41.851851851851855,265.0805573783058L-32.96296296296297,265.0805573783058L-24.074074074074076,265.0805573783058L-15.185185185185185,265.0805573783058L-6.296296296296297,265.0805573783058L2.592592592592593,262.3502999736739L11.481481481481483,261.622754601586L20.370370370370374,261.1807934294961L29.25925925925926,259.7697780481107L38.148148148148145,259.7697780481107L47.037037037037045,259.7697780481107L55.92592592592593,259.1937794713706L64.81481481481482,259.1937794713706L73.70370370370371,258.54774333184025L82.5925925925926,258.54774333184025L91.4814814814815,256.5172577830174L100.37037037037038,255.93099508069594L109.25925925925927,255.93099508069594L118.14814814814815,254.40164036907882L127.03703703703704,253.48994450862014L135.92592592592592,253.48994450862014L144.8148148148148,252.71953131792793L153.7037037037037,251.00783743421906L162.5925925925926,250.37085787608402L171.4814814814815,249.47425631795082L180.37037037037038,248.2812026621453L189.2592592592593,247.43773304819774L198.14814814814818,246.5435465784366L207.03703703703707,245.30037983891052L215.92592592592595,244.13087329473274L224.81481481481484,243.47034662496992L233.70370370370372,242.42400958776804L242.5925925925926,241.19291829010228L251.4814814814815,239.84469520639087L260.3703703703704,238.30205750872736L269.2592592592593,236.80892912269138" stroke="#b279a2" stroke-width="2" opacity="1"></path></g></g><path class="foreground" aria-hidden="true" d="" display="none"></path></g><g transform="translate(0,0)"><path class="background" aria-hidden="true" d="M0,0h266.6666666666667v266.6666666666667h-266.6666666666667Z"></path><g><g class="mark-line role-mark marks" clip-path="url(#clip8)" role="graphics-object" aria-roledescription="line mark container"><path aria-label="Country: Spain; Date: Mar 01, 2020; Confirmed: 1.79500450247; Recovered: 0.0427382024398; Deaths: 0; : 0.0427382024398" role="graphics-symbol" aria-roledescription="line mark" d="M-485.9259259259259,266.6634104226713L-477.03703703703707,266.6634104226713L-468.14814814814815,266.6634104226713L-459.2592592592593,266.6634104226713L-450.3703703703704,266.6634104226713L-441.48148148148147,266.6634104226713L-432.5925925925926,266.61782300673553L-423.7037037037037,266.61782300673553L-415.1851851851852,266.61456676274014L-406.2962962962963,266.61456676274014L-397.40740740740745,266.3687203410867L-388.51851851851853,266.3687203410867L-379.6296296296297,266.3524391211096L-370.74074074074076,265.82492759385326L-361.8518518518519,265.82492759385326L-352.962962962963,265.8037620078831L-344.07407407407413,264.9929572530261L-335.1851851851852,264.90666678714774L-326.29629629629636,264.8643356152074L-317.40740740740745,264.08120893431135L-308.5185185185186,263.2069074215438L-299.6296296296297,262.47425252257665L-290.74074074074076,262.47425252257665L-281.8518518518519,260.4895718073744L-272.96296296296293,257.9285359049846L-264.0740740740741,255.24539085276697L-255.18518518518522,251.43232913414215L-246.29629629629633,246.66518792486227L-237.40740740740742,242.71862020242565L-228.51851851851853,239.34677954517883L-219.62962962962965,235.31066511286846L-210.74074074074073,229.7945877846443L-201.85185185185185,223.12580008204515L-192.96296296296296,216.98778015069777L-184.07407407407408,210.9539600272035L-175.1851851851852,204.66778099406497L-166.2962962962963,200.83029744547457L-157.40740740740742,196.31877138983435L-148.51851851851853,188.48262021488077L-139.62962962962965,181.73568265639176L-130.74074074074073,176.03237129843157L-121.85185185185186,170.4300035043291L-112.96296296296298,165.08650710786168L-104.07407407407408,161.2832141212231L-95.18518518518519,156.76191933359667L-86.2962962962963,151.30933876328305L-77.40740740740742,144.88802560433498L-68.51851851851852,144.88802560433498L-59.62962962962963,144.88802560433498L-50.74074074074074,140.7200332902105L-41.851851851851855,135.46119923762376L-32.96296296296297,132.32380814804645L-24.074074074074076,126.78656523385216L-15.185185185185185,121.3567783715064L-6.296296296296297,116.30145956863275L2.592592592592593,110.84236651032829L11.481481481481483,106.50504950844251L20.370370370370374,102.4298601481872L29.25925925925926,99.70601204602694L38.148148148148145,89.28765938271341L47.037037037037045,84.2355968238352L55.92592592592593,84.2355968238352L64.81481481481482,75.77261867976526L73.70370370370371,73.07970489556135L82.5925925925926,69.10545909916375L91.4814814814815,65.61639365808222L100.37037037037038,61.52003871185675L109.25925925925927,57.435080619615185L118.14814814814815,53.141722911667436L127.03703703703704,48.576468830102975L135.92592592592592,44.97180672718439L144.8148148148148,43.387644023417536L153.7037037037037,40.39027142564284L162.5925925925926,37.38964258387278L171.4814814814815,33.23630336772761L180.37037037037038,30.942279472961424L189.2592592592593,28.234712590778226L198.14814814814818,28.234712590778226L207.03703703703707,21.836193139798077L215.92592592592595,21.836193139798077L224.81481481481484,21.836193139798077L233.70370370370372,21.836193139798077L242.5925925925926,21.836193139798077L251.4814814814815,21.836193139798077L260.3703703703704,21.836193139798077L269.2592592592593,21.836193139798077" stroke="#ff9da6" stroke-width="2" opacity="1"></path></g></g><path class="foreground" aria-hidden="true" d="" display="none"></path></g><g transform="translate(0,0)"><path class="background" aria-hidden="true" d="M0,0h266.6666666666667v266.6666666666667h-266.6666666666667Z"></path><g><g class="mark-line role-mark marks" clip-path="url(#clip9)" role="graphics-object" aria-roledescription="line mark container"><path aria-label="Country: US; Date: Mar 01, 2020; Confirmed: 0.226516165367; Recovered: 0.0214272048321; Deaths: 0.00306102926172; : 0.0214272048321" role="graphics-symbol" aria-roledescription="line mark" d="M-485.9259259259259,266.6650341177271L-477.03703703703707,266.6650341177271L-468.14814814814815,266.6650341177271L-459.2592592592593,266.6650341177271L-450.3703703703704,266.6650341177271L-441.48148148148147,266.6650341177271L-432.5925925925926,266.6650341177271L-423.7037037037037,266.6650341177271L-415.1851851851852,266.6650341177271L-406.2962962962963,266.66480089645L-397.40740740740745,266.66480089645L-388.51851851851853,266.66386801134166L-379.6296296296297,266.66386801134166L-370.74074074074076,266.66386801134166L-361.8518518518519,266.66386801134166L-352.962962962963,266.66270190495624L-344.07407407407413,266.66270190495624L-335.1851851851852,266.6421784325729L-326.29629629629636,266.63844689213954L-317.40740740740745,266.6323831389354L-308.5185185185186,266.62561972189997L-299.6296296296297,266.6251532793458L-290.74074074074076,266.6251532793458L-281.8518518518519,266.5855056622416L-272.96296296296293,266.5824737856395L-264.0740740740741,266.50784297697277L-255.18518518518522,266.463997376881L-246.29629629629633,266.41665345763306L-237.40740740740742,266.0451319632388L-228.51851851851853,265.35036577880675L-219.62962962962965,265.0285204164313L-210.74074074074073,264.6903495646601L-201.85185185185185,264.567441951637L-192.96296296296296,264.402787730016L-184.07407407407408,263.2495085148375L-175.1851851851852,262.5974218241117L-166.2962962962963,262.0999608400923L-157.40740740740742,261.5910720134959L-148.51851851851853,261.17220659985367L-139.62962962962965,260.74051401597194L-130.74074074074073,259.95222609942925L-121.85185185185186,259.3738373322619L-112.96296296296298,258.97316317823226L-104.07407407407408,256.52573909651676L-95.18518518518519,255.52731880932177L-86.2962962962963,254.51677101571843L-77.40740740740742,253.90876314636145L-68.51851851851852,253.0127269998062L-59.62962962962963,251.54459906056482L-50.74074074074074,250.26258170043613L-41.851851851851855,249.79800491648558L-32.96296296296297,249.12749374487018L-24.074074074074076,248.6232693438154L-15.185185185185185,247.96162058072915L-6.296296296296297,243.55933575449873L2.592592592592593,243.25778064322964L11.481481481481483,241.71478867404443L20.370370370370374,240.68021908890145L29.25925925925926,239.62792468670017L38.148148148148145,238.51219409713215L47.037037037037045,230.76295072347472L55.92592592592593,228.41487890579685L64.81481481481482,225.76385264918733L73.70370370370371,224.65138715749848L82.5925925925926,223.0123080221548L91.4814814814815,222.40336726768948L100.37037037037038,222.37561393571653L109.25925925925927,221.1801216693859L118.14814814814815,220.25726507596602L127.03703703703704,217.0992157629767L135.92592592592592,216.25145642077777L144.8148148148148,212.38837918716467L153.7037037037037,212.95883843091121L162.5925925925926,209.8936111862012L171.4814814814815,209.19767889538372L180.37037037037038,208.18713110178035L189.2592592592593,204.07567320807325L198.14814814814818,203.16867566149503L207.03703703703707,200.6235318646815L215.92592592592595,199.17429484888387L224.81481481481484,198.0268461656325L233.70370370370372,197.06923960192717L242.5925925925926,185.0077348149936L251.4814814814815,182.4180457542571L260.3703703703704,181.13602839412846L269.2592592592593,178.2391869114728" stroke="#9d755d" stroke-width="2" opacity="1"></path></g></g><path class="foreground" aria-hidden="true" d="" display="none"></path></g><g transform="translate(0,0)"><path class="background" aria-hidden="true" d="M0,0h266.6666666666667v266.6666666666667h-266.6666666666667Z"></path><g><g class="mark-line role-mark marks" clip-path="url(#clip10)" role="graphics-object" aria-roledescription="line mark container"><path aria-label="Country: United Kingdom; Date: Mar 01, 2020; Confirmed: 0.541676401795; Recovered: 0.120372533732; Deaths: 0; : 0.120372533732" role="graphics-symbol" aria-roledescription="line mark" d="M-485.9259259259259,266.6574954260014L-477.03703703703707,266.6574954260014L-468.14814814814815,266.6574954260014L-459.2592592592593,266.6574954260014L-450.3703703703704,266.6574954260014L-441.48148148148147,266.6574954260014L-432.5925925925926,266.64603137516974L-423.7037037037037,266.64603137516974L-415.1851851851852,266.64603137516974L-406.2962962962963,266.64603137516974L-397.40740740740745,266.64603137516974L-388.51851851851853,266.64603137516974L-379.6296296296297,266.64603137516974L-370.74074074074076,266.64603137516974L-361.8518518518519,266.64603137516974L-352.962962962963,266.6437385650034L-344.07407407407413,266.6070536023421L-335.1851851851852,266.592150336261L-326.29629629629636,266.592150336261L-317.40740740740745,266.592150336261L-308.5185185185186,266.592150336261L-299.6296296296297,266.592150336261L-290.74074074074076,266.592150336261L-281.8518518518519,266.51190198043946L-272.96296296296293,266.51190198043946L-264.0740740740741,266.51190198043946L-255.18518518518522,266.51190198043946L-246.29629629629633,266.51190198043946L-237.40740740740742,266.51190198043946L-228.51851851851853,266.51190198043946L-219.62962962962965,266.51190198043946L-210.74074074074073,266.51190198043946L-201.85185185185185,266.51190198043946L-192.96296296296296,266.51190198043946L-184.07407407407408,266.51190198043946L-175.1851851851852,266.51190198043946L-166.2962962962963,266.51190198043946L-157.40740740740742,266.51190198043946L-148.51851851851853,266.51190198043946L-139.62962962962965,266.51190198043946L-130.74074074074073,266.27230331805805L-121.85185185185186,266.27230331805805L-112.96296296296298,266.27230331805805L-104.07407407407408,266.6666666666667L-95.18518518518519,266.6666666666667L-86.2962962962963,266.6666666666667L-77.40740740740742,266.6666666666667L-68.51851851851852,266.6666666666667L-59.62962962962963,266.6666666666667L-50.74074074074074,266.6666666666667L-41.851851851851855,266.6666666666667L-32.96296296296297,266.6666666666667L-24.074074074074076,266.6666666666667L-15.185185185185185,266.6666666666667L-6.296296296296297,266.6666666666667L2.592592592592593,266.6666666666667L11.481481481481483,266.6666666666667L20.370370370370374,266.6666666666667L29.25925925925926,266.6666666666667L38.148148148148145,266.6666666666667L47.037037037037045,266.6666666666667L55.92592592592593,266.6666666666667L64.81481481481482,266.6666666666667L73.70370370370371,266.6666666666667L82.5925925925926,266.6666666666667L91.4814814814815,266.6666666666667L100.37037037037038,266.6666666666667L109.25925925925927,266.6666666666667L118.14814814814815,266.6666666666667L127.03703703703704,266.6666666666667L135.92592592592592,266.6666666666667L144.8148148148148,266.6666666666667L153.7037037037037,266.6666666666667L162.5925925925926,266.6666666666667L171.4814814814815,266.6666666666667L180.37037037037038,266.6666666666667L189.2592592592593,266.6666666666667L198.14814814814818,266.6666666666667L207.03703703703707,266.6666666666667L215.92592592592595,266.6666666666667L224.81481481481484,266.6666666666667L233.70370370370372,266.6666666666667L242.5925925925926,266.6666666666667L251.4814814814815,266.6666666666667L260.3703703703704,266.6666666666667L269.2592592592593,266.6666666666667" stroke="#bab0ac" stroke-width="2" opacity="1"></path></g></g><path class="foreground" aria-hidden="true" d="" display="none"></path></g></g><g class="mark-group role-legend" role="graphics-symbol" aria-roledescription="legend" aria-label="Symbol legend for stroke color with 10 values: Belgium, Brazil, France, Germany, Iran, ending with United Kingdom"><g transform="translate(285,0)"><path class="background" aria-hidden="true" d="M0,0h79v128h-79Z" pointer-events="none"></path><g><g class="mark-group role-legend-entry"><g transform="translate(0,0)"><path class="background" aria-hidden="true" d="M0,0h0v0h0Z" pointer-events="none"></path><g><g class="mark-group role-scope Country_legend_entries" role="graphics-object" aria-roledescription="group mark container"><g transform="translate(0,0)"><path class="background" aria-hidden="true" d="M0,0h79v11h-79Z" opacity="1"></path><g><g class="mark-symbol role-legend-symbol Country_legend_symbols"><path transform="translate(6,6)" d="M-5,0L5,0" stroke="#4c78a8" stroke-width="1.5" opacity="1"></path></g><g class="mark-text role-legend-label Country_legend_labels"><text text-anchor="start" transform="translate(16,9)" font-family="Roboto Condensed" font-size="10px" fill="#000" opacity="1">Belgium</text></g></g><path class="foreground" aria-hidden="true" d="" display="none"></path></g><g transform="translate(0,13)"><path class="background" aria-hidden="true" d="M0,0h79v11h-79Z" opacity="1"></path><g><g class="mark-symbol role-legend-symbol Country_legend_symbols"><path transform="translate(6,6)" d="M-5,0L5,0" stroke="#f58518" stroke-width="1.5" opacity="1"></path></g><g class="mark-text role-legend-label Country_legend_labels"><text text-anchor="start" transform="translate(16,9)" font-family="Roboto Condensed" font-size="10px" fill="#000" opacity="1">Brazil</text></g></g><path class="foreground" aria-hidden="true" d="" display="none"></path></g><g transform="translate(0,26)"><path class="background" aria-hidden="true" d="M0,0h79v11h-79Z" opacity="1"></path><g><g class="mark-symbol role-legend-symbol Country_legend_symbols"><path transform="translate(6,6)" d="M-5,0L5,0" stroke="#e45756" stroke-width="1.5" opacity="1"></path></g><g class="mark-text role-legend-label Country_legend_labels"><text text-anchor="start" transform="translate(16,9)" font-family="Roboto Condensed" font-size="10px" fill="#000" opacity="1">France</text></g></g><path class="foreground" aria-hidden="true" d="" display="none"></path></g><g transform="translate(0,39)"><path class="background" aria-hidden="true" d="M0,0h79v11h-79Z" opacity="1"></path><g><g class="mark-symbol role-legend-symbol Country_legend_symbols"><path transform="translate(6,6)" d="M-5,0L5,0" stroke="#72b7b2" stroke-width="1.5" opacity="1"></path></g><g class="mark-text role-legend-label Country_legend_labels"><text text-anchor="start" transform="translate(16,9)" font-family="Roboto Condensed" font-size="10px" fill="#000" opacity="1">Germany</text></g></g><path class="foreground" aria-hidden="true" d="" display="none"></path></g><g transform="translate(0,52)"><path class="background" aria-hidden="true" d="M0,0h79v11h-79Z" opacity="1"></path><g><g class="mark-symbol role-legend-symbol Country_legend_symbols"><path transform="translate(6,6)" d="M-5,0L5,0" stroke="#54a24b" stroke-width="1.5" opacity="1"></path></g><g class="mark-text role-legend-label Country_legend_labels"><text text-anchor="start" transform="translate(16,9)" font-family="Roboto Condensed" font-size="10px" fill="#000" opacity="1">Iran</text></g></g><path class="foreground" aria-hidden="true" d="" display="none"></path></g><g transform="translate(0,65)"><path class="background" aria-hidden="true" d="M0,0h79v11h-79Z" opacity="1"></path><g><g class="mark-symbol role-legend-symbol Country_legend_symbols"><path transform="translate(6,6)" d="M-5,0L5,0" stroke="#eeca3b" stroke-width="1.5" opacity="1"></path></g><g class="mark-text role-legend-label Country_legend_labels"><text text-anchor="start" transform="translate(16,9)" font-family="Roboto Condensed" font-size="10px" fill="#000" opacity="1">Italy</text></g></g><path class="foreground" aria-hidden="true" d="" display="none"></path></g><g transform="translate(0,78)"><path class="background" aria-hidden="true" d="M0,0h79v11h-79Z" opacity="1"></path><g><g class="mark-symbol role-legend-symbol Country_legend_symbols"><path transform="translate(6,6)" d="M-5,0L5,0" stroke="#b279a2" stroke-width="1.5" opacity="1"></path></g><g class="mark-text role-legend-label Country_legend_labels"><text text-anchor="start" transform="translate(16,9)" font-family="Roboto Condensed" font-size="10px" fill="#000" opacity="1">Mexico</text></g></g><path class="foreground" aria-hidden="true" d="" display="none"></path></g><g transform="translate(0,91)"><path class="background" aria-hidden="true" d="M0,0h79v11h-79Z" opacity="1"></path><g><g class="mark-symbol role-legend-symbol Country_legend_symbols"><path transform="translate(6,6)" d="M-5,0L5,0" stroke="#ff9da6" stroke-width="1.5" opacity="1"></path></g><g class="mark-text role-legend-label Country_legend_labels"><text text-anchor="start" transform="translate(16,9)" font-family="Roboto Condensed" font-size="10px" fill="#000" opacity="1">Spain</text></g></g><path class="foreground" aria-hidden="true" d="" display="none"></path></g><g transform="translate(0,104)"><path class="background" aria-hidden="true" d="M0,0h79v11h-79Z" opacity="1"></path><g><g class="mark-symbol role-legend-symbol Country_legend_symbols"><path transform="translate(6,6)" d="M-5,0L5,0" stroke="#9d755d" stroke-width="1.5" opacity="1"></path></g><g class="mark-text role-legend-label Country_legend_labels"><text text-anchor="start" transform="translate(16,9)" font-family="Roboto Condensed" font-size="10px" fill="#000" opacity="1">US</text></g></g><path class="foreground" aria-hidden="true" d="" display="none"></path></g><g transform="translate(0,117)"><path class="background" aria-hidden="true" d="M0,0h79v11h-79Z" opacity="1"></path><g><g class="mark-symbol role-legend-symbol Country_legend_symbols"><path transform="translate(6,6)" d="M-5,0L5,0" stroke="#bab0ac" stroke-width="1.5" opacity="1"></path></g><g class="mark-text role-legend-label Country_legend_labels"><text text-anchor="start" transform="translate(16,9)" font-family="Roboto Condensed" font-size="10px" fill="#000" opacity="1">United Kingdom</text></g></g><path class="foreground" aria-hidden="true" d="" display="none"></path></g></g></g><path class="foreground" aria-hidden="true" d="" pointer-events="none" display="none"></path></g></g></g><path class="foreground" aria-hidden="true" d="" pointer-events="none" display="none"></path></g></g><g class="mark-group role-title"><g transform="translate(133.33333333333334,-22)"><path class="background" aria-hidden="true" d="M0,0h0v0h0Z" pointer-events="none"></path><g><g class="mark-text role-title-text" role="graphics-symbol" aria-roledescription="title" aria-label="Title text 'Recovered (total)/million people'" pointer-events="none"><text text-anchor="middle" transform="translate(0,10)" font-family="Roboto Condensed" font-size="13px" font-weight="normal" fill="#000" opacity="1">Recovered (total)/million people</text></g></g><path class="foreground" aria-hidden="true" d="" pointer-events="none" display="none"></path></g></g></g><path class="foreground" aria-hidden="true" d="" display="none"></path></g></g></g></svg>