<svg class="marks" width="996" height="491" viewBox="0 0 996 491" version="1.1" xmlns="http://www.w3.org/2000/svg" xmlns:xlink="http://www.w3.org/1999/xlink"><defs><clipPath id="clip1"><rect x="0" y="0" width="400" height="400"></rect></clipPath><clipPath id="clip2"><rect x="0" y="0" width="400" height="400"></rect></clipPath><clipPath id="clip3"><rect x="0" y="0" width="400" height="400"></rect></clipPath><clipPath id="clip4"><rect x="0" y="0" width="400" height="400"></rect></clipPath><clipPath id="clip5"><rect x="0" y="0" width="400" height="400"></rect></clipPath><clipPath id="clip6"><rect x="0" y="0" width="400" height="400"></rect></clipPath><clipPath id="clip7"><rect x="0" y="0" width="400" height="400"></rect></clipPath><clipPath id="clip8"><rect x="0" y="0" width="400" height="400"></rect></clipPath><clipPath id="clip9"><rect x="0" y="0" width="400" height="400"></rect></clipPath></defs><rect width="996" height="491" fill="white"></rect><g fill="none" stroke-miterlimit="10" transform="translate(50,59)"><g class="mark-group role-frame root" role="graphics-object" aria-roledescription="group mark container"><g transform="translate(0,0)"><path class="background" aria-hidden="true" d="M0,0h0v400h0Z"></path><g><g class="mark-group role-scope concat_0_group" role="graphics-object" aria-roledescription="group mark container"><g transform="translate(0,0)"><path class="background" aria-hidden="true" d="M0,0h400v400h-400Z" stroke="#ddd" stroke-width="0"></path><g><g class="mark-group role-axis" aria-hidden="true"><g transform="translate(0.5,0.5)"><path class="background" aria-hidden="true" d="M0,0h0v0h0Z" pointer-events="none"></path><g><g class="mark-rule role-axis-grid" pointer-events="none"><line transform="translate(0,400)" x2="400" y2="0" stroke="#ddd" stroke-width="1" opacity="1"></line><line transform="translate(0,350)" x2="400" y2="0" stroke="#ddd" stroke-width="1" opacity="1"></line><line transform="translate(0,300)" x2="400" y2="0" stroke="#ddd" stroke-width="1" opacity="1"></line><line transform="translate(0,250)" x2="400" y2="0" stroke="#ddd" stroke-width="1" opacity="1"></line><line transform="translate(0,200)" x2="400" y2="0" stroke="#ddd" stroke-width="1" opacity="1"></line><line transform="translate(0,150)" x2="400" y2="0" stroke="#ddd" stroke-width="1" opacity="1"></line><line transform="translate(0,100)" x2="400" y2="0" stroke="#ddd" stroke-width="1" opacity="1"></line><line transform="translate(0,50)" x2="400" y2="0" stroke="#ddd" stroke-width="1" opacity="1"></line><line transform="translate(0,0)" x2="400" y2="0" stroke="#ddd" stroke-width="1" opacity="1"></line></g></g><path class="foreground" aria-hidden="true" d="" pointer-events="none" display="none"></path></g></g><g class="mark-group role-axis" role="graphics-symbol" aria-roledescription="axis" aria-label="X-axis titled 'Date' for a time scale with values from August 15 to August 30"><g transform="translate(0.5,400.5)"><path class="background" aria-hidden="true" d="M0,0h0v0h0Z" pointer-events="none"></path><g><g class="mark-text role-axis-label" pointer-events="none"><text text-anchor="middle" transform="translate(34.44444444444444,10)" font-family="Roboto Condensed" font-size="10px" fill="#000" opacity="1">Aug 17</text><text text-anchor="middle" transform="translate(87.77777777777777,10)" font-family="Roboto Condensed" font-size="10px" fill="#000" opacity="1">Aug 19</text><text text-anchor="middle" transform="translate(141.11111111111111,10)" font-family="Roboto Condensed" font-size="10px" fill="#000" opacity="1">Aug 21</text><text text-anchor="middle" transform="translate(194.44444444444443,10)" font-family="Roboto Condensed" font-size="10px" fill="#000" opacity="1">Aug 23</text><text text-anchor="middle" transform="translate(247.77777777777777,10)" font-family="Roboto Condensed" font-size="10px" fill="#000" opacity="1">Aug 25</text><text text-anchor="middle" transform="translate(301.1111111111111,10)" font-family="Roboto Condensed" font-size="10px" fill="#000" opacity="1">Aug 27</text><text text-anchor="middle" transform="translate(354.44444444444446,10)" font-family="Roboto Condensed" font-size="10px" fill="#000" opacity="1">Aug 29</text></g><g class="mark-rule role-axis-domain" pointer-events="none"><line transform="translate(0,0)" x2="400" y2="0" stroke="lightgray" stroke-width="1" opacity="1"></line></g><g class="mark-text role-axis-title" pointer-events="none"><text text-anchor="middle" transform="translate(200,25)" font-family="Roboto Condensed" font-size="11px" font-weight="normal" fill="#000" opacity="1">Date</text></g></g><path class="foreground" aria-hidden="true" d="" pointer-events="none" display="none"></path></g></g><g class="mark-group role-axis" role="graphics-symbol" aria-roledescription="axis" aria-label="Y-axis titled 'Count' for a linear scale with values from 0 to 8,000"><g transform="translate(0.5,0.5)"><path class="background" aria-hidden="true" d="M0,0h0v0h0Z" pointer-events="none"></path><g><g class="mark-text role-axis-label" pointer-events="none"><text text-anchor="end" transform="translate(-2,403)" font-family="Roboto Condensed" font-size="10px" fill="#000" opacity="1">0</text><text text-anchor="end" transform="translate(-2,353)" font-family="Roboto Condensed" font-size="10px" fill="#000" opacity="1">1,000</text><text text-anchor="end" transform="translate(-2,303)" font-family="Roboto Condensed" font-size="10px" fill="#000" opacity="1">2,000</text><text text-anchor="end" transform="translate(-2,253)" font-family="Roboto Condensed" font-size="10px" fill="#000" opacity="1">3,000</text><text text-anchor="end" transform="translate(-2,203)" font-family="Roboto Condensed" font-size="10px" fill="#000" opacity="1">4,000</text><text text-anchor="end" transform="translate(-2,153)" font-family="Roboto Condensed" font-size="10px" fill="#000" opacity="1">5,000</text><text text-anchor="end" transform="translate(-2,103)" font-family="Roboto Condensed" font-size="10px" fill="#000" opacity="1">6,000</text><text text-anchor="end" transform="translate(-2,53)" font-family="Roboto Condensed" font-size="10px" fill="#000" opacity="1">7,000</text><text text-anchor="end" transform="translate(-2,3)" font-family="Roboto Condensed" font-size="10px" fill="#000" opacity="1">8,000</text></g><g class="mark-rule role-axis-domain" pointer-events="none"><line transform="translate(0,400)" x2="0" y2="-400" stroke="lightgray" stroke-width="1" opacity="1"></line></g><g class="mark-text role-axis-title" pointer-events="none"><text text-anchor="start" transform="translate(-45,-13)" font-family="Roboto Condensed" font-size="11px" font-weight="normal" fill="#000" opacity="1">Count</text></g></g><path class="foreground" aria-hidden="true" d="" pointer-events="none" display="none"></path></g></g><g class="mark-group role-scope concat_0_layer_0_pathgroup" role="graphics-object" aria-roledescription="group mark container"><g transform="translate(0,0)"><path class="background" aria-hidden="true" d="M0,0h400v400h-400Z"></path><g><g class="mark-line role-mark concat_0_layer_0_marks" clip-path="url(#clip1)" role="graphics-object" aria-roledescription="line mark container"><path aria-label="Type: Recovered; Date: Mar 01; Count: 0" role="graphics-symbol" aria-roledescription="line mark" d="M-4471.111111111111,400L-4444.444444444444,400L-4417.777777777777,400L-4391.111111111111,400L-4364.444444444444,400L-4337.777777777778,400L-4311.111111111111,400L-4284.444444444444,400L-4258.888888888889,399.95L-4232.222222222223,400L-4205.555555555556,400L-4178.888888888889,400L-4152.222222222223,400L-4125.555555555556,400L-4098.888888888889,400L-4072.222222222222,400L-4045.5555555555557,400L-4018.888888888889,400L-3992.2222222222226,400L-3965.5555555555557,400L-3938.8888888888887,400L-3912.222222222222,400L-3885.5555555555557,400L-3858.8888888888887,399.75L-3832.222222222222,400L-3805.5555555555557,400L-3778.888888888889,400L-3752.2222222222226,399.95L-3725.555555555555,400L-3698.8888888888887,399.75L-3672.222222222222,399.95L-3645.5555555555557,400L-3618.888888888889,399.05L-3592.2222222222226,400L-3565.5555555555557,400L-3538.8888888888887,400L-3512.222222222222,400L-3485.5555555555557,400L-3458.8888888888887,400L-3432.222222222222,400L-3405.5555555555557,400L-3378.888888888889,400L-3352.2222222222226,400L-3325.555555555555,400L-3298.8888888888887,400L-3272.222222222222,400L-3245.5555555555557,400L-3218.888888888889,400L-3192.222222222222,400L-3165.5555555555557,400L-3138.888888888889,400L-3112.222222222222,400L-3085.5555555555557,400L-3058.8888888888887,400L-3032.222222222222,400L-3005.5555555555557,400L-2978.8888888888887,400L-2952.222222222222,400L-2925.5555555555557,400L-2898.8888888888887,400L-2872.222222222222,400L-2845.5555555555557,400L-2818.888888888889,400L-2792.222222222222,400L-2765.5555555555557,400L-2738.888888888889,400L-2712.222222222222,400L-2685.5555555555557,400L-2658.8888888888887,400L-2632.222222222222,400L-2605.5555555555557,400L-2578.8888888888887,400L-2552.222222222222,400L-2525.5555555555557,400L-2498.8888888888887,400L-2472.222222222222,400L-2445.5555555555557,400L-2418.888888888889,400L-2392.222222222222,400L-2365.5555555555557,400L-2338.888888888889,400L-2312.222222222222,400L-2285.5555555555557,15.249999999999986L-2258.8888888888887,400L-2232.222222222222,400L-2205.5555555555557,400L-2178.8888888888887,400L-2152.222222222222,400L-2125.5555555555557,400L-2098.8888888888887,400L-2072.222222222222,400L-2045.5555555555557,400L-2018.888888888889,400L-1992.2222222222222,400L-1965.5555555555554,400L-1938.888888888889,379.45000000000005L-1912.2222222222224,400L-1885.5555555555554,400L-1858.888888888889,400L-1832.2222222222222,400L-1805.5555555555557,400L-1778.8888888888887,400L-1752.2222222222222,400L-1725.5555555555557,400L-1698.8888888888887,400L-1672.2222222222222,400L-1645.5555555555557,400L-1618.888888888889,400L-1592.2222222222222,400L-1565.5555555555554,400L-1538.888888888889,400L-1512.2222222222222,400L-1485.5555555555557,400L-1458.888888888889,400L-1432.2222222222222,400L-1405.5555555555554,400L-1378.888888888889,400L-1352.2222222222222,400L-1325.5555555555557,400L-1298.888888888889,400L-1272.2222222222222,400L-1245.5555555555557,400L-1218.888888888889,400L-1192.2222222222222,400L-1165.5555555555554,400L-1138.888888888889,400L-1112.2222222222222,400L-1085.5555555555557,400L-1058.888888888889,400L-1032.2222222222222,400L-1005.5555555555555,400L-978.8888888888889,400L-952.2222222222222,400L-925.5555555555557,400L-898.8888888888889,400L-872.2222222222222,400L-845.5555555555555,400L-818.8888888888888,400L-792.2222222222223,400L-765.5555555555555,400L-738.8888888888889,400L-712.2222222222222,400L-685.5555555555555,400L-658.8888888888889,400L-632.2222222222222,373.20000000000005L-605.5555555555555,400L-578.8888888888889,400L-552.2222222222222,396.09999999999997L-525.5555555555555,400L-498.8888888888889,400L-472.22222222222223,400L-445.55555555555554,400L-418.8888888888889,400L-392.22222222222223,400L-365.55555555555554,400L-338.88888888888886,400L-312.22222222222223,400L-285.55555555555554,400L-258.8888888888889,394.75L-232.22222222222223,400L-205.55555555555554,400L-178.88888888888889,400L-152.22222222222223,400L-125.55555555555556,400L-98.88888888888889,400L-72.22222222222221,400L-45.55555555555556,400L-18.88888888888889,400L7.777777777777778,400L34.44444444444444,400L61.111111111111114,400L87.77777777777777,400L114.44444444444444,385.34999999999997L141.11111111111111,400L167.77777777777777,400L194.44444444444443,400L221.11111111111111,400L247.77777777777777,400L274.44444444444446,400L301.1111111111111,390.09999999999997L327.77777777777777,400L354.44444444444446,400L381.1111111111111,400L407.77777777777777,400" stroke="#e45756" stroke-width="2" opacity="0.2"></path></g></g><path class="foreground" aria-hidden="true" d="" display="none"></path></g><g transform="translate(0,0)"><path class="background" aria-hidden="true" d="M0,0h400v400h-400Z"></path><g><g class="mark-line role-mark concat_0_layer_0_marks" clip-path="url(#clip2)" role="graphics-object" aria-roledescription="line mark container"><path aria-label="Type: Deaths; Date: Mar 01; Count: 0" role="graphics-symbol" aria-roledescription="line mark" d="M-4471.111111111111,400L-4444.444444444444,400L-4417.777777777777,400L-4391.111111111111,400L-4364.444444444444,400L-4337.777777777778,400L-4311.111111111111,400L-4284.444444444444,400L-4258.888888888889,400L-4232.222222222223,400L-4205.555555555556,400L-4178.888888888889,400L-4152.222222222223,400L-4125.555555555556,399.85L-4098.888888888889,400L-4072.222222222222,400L-4045.5555555555557,400L-4018.888888888889,399.85L-3992.2222222222226,399.95L-3965.5555555555557,400L-3938.8888888888887,400L-3912.222222222222,400L-3885.5555555555557,399.85L-3858.8888888888887,399.90000000000003L-3832.222222222222,399.90000000000003L-3805.5555555555557,400L-3778.888888888889,399.75L-3752.2222222222226,399.8L-3725.555555555555,399.90000000000003L-3698.8888888888887,399.65000000000003L-3672.222222222222,399.65000000000003L-3645.5555555555557,399.75L-3618.888888888889,399.7L-3592.2222222222226,399.54999999999995L-3565.5555555555557,399.85L-3538.8888888888887,399.54999999999995L-3512.222222222222,399.75L-3485.5555555555557,399.35L-3458.8888888888887,399.40000000000003L-3432.222222222222,399.65000000000003L-3405.5555555555557,399.75L-3378.888888888889,399.7L-3352.2222222222226,399.54999999999995L-3325.555555555555,399.7L-3298.8888888888887,399.75L-3272.222222222222,399.45L-3245.5555555555557,399.90000000000003L-3218.888888888889,399.54999999999995L-3192.222222222222,399.85L-3165.5555555555557,399.95L-3138.888888888889,399.2L-3112.222222222222,399.95L-3085.5555555555557,399.75L-3058.8888888888887,399.65000000000003L-3032.222222222222,399.75L-3005.5555555555557,399.90000000000003L-2978.8888888888887,400L-2952.222222222222,399.8L-2925.5555555555557,399.95L-2898.8888888888887,399.95L-2872.222222222222,399.85L-2845.5555555555557,400L-2818.888888888889,399.95L-2792.222222222222,400L-2765.5555555555557,399.85L-2738.888888888889,399.95L-2712.222222222222,399.95L-2685.5555555555557,399.95L-2658.8888888888887,399.95L-2632.222222222222,399.95L-2605.5555555555557,400L-2578.8888888888887,399.75L-2552.222222222222,399.8L-2525.5555555555557,399.95L-2498.8888888888887,399.85L-2472.222222222222,400L-2445.5555555555557,400L-2418.888888888889,400L-2392.222222222222,399.95L-2365.5555555555557,400L-2338.888888888889,399.95L-2312.222222222222,399.95L-2285.5555555555557,400L-2258.8888888888887,400L-2232.222222222222,400L-2205.5555555555557,400L-2178.8888888888887,400L-2152.222222222222,400L-2125.5555555555557,399.95L-2098.8888888888887,400L-2072.222222222222,400L-2045.5555555555557,400L-2018.888888888889,400L-1992.2222222222222,399.95L-1965.5555555555554,400L-1938.888888888889,399.95L-1912.2222222222224,400L-1885.5555555555554,400L-1858.888888888889,400L-1832.2222222222222,399.95L-1805.5555555555557,400L-1778.8888888888887,400L-1752.2222222222222,399.85L-1725.5555555555557,400L-1698.8888888888887,400L-1672.2222222222222,400L-1645.5555555555557,400L-1618.888888888889,400L-1592.2222222222222,399.95L-1565.5555555555554,399.95L-1538.888888888889,400L-1512.2222222222222,400L-1485.5555555555557,400L-1458.888888888889,399.8L-1432.2222222222222,400L-1405.5555555555554,399.95L-1378.888888888889,400L-1352.2222222222222,400L-1325.5555555555557,400L-1298.888888888889,400L-1272.2222222222222,400L-1245.5555555555557,399.95L-1218.888888888889,399.95L-1192.2222222222222,400L-1165.5555555555554,400L-1138.888888888889,400L-1112.2222222222222,400L-1085.5555555555557,400L-1058.888888888889,400L-1032.2222222222222,400L-1005.5555555555555,399.95L-978.8888888888889,400L-952.2222222222222,400L-925.5555555555557,400L-898.8888888888889,399.95L-872.2222222222222,400L-845.5555555555555,400L-818.8888888888888,399.95L-792.2222222222223,399.95L-765.5555555555555,400L-738.8888888888889,400L-712.2222222222222,400L-685.5555555555555,400L-658.8888888888889,400L-632.2222222222222,400L-605.5555555555555,400L-578.8888888888889,400L-552.2222222222222,400L-525.5555555555555,400L-498.8888888888889,400L-472.22222222222223,400L-445.55555555555554,400L-418.8888888888889,400L-392.22222222222223,400L-365.55555555555554,400L-338.88888888888886,399.95L-312.22222222222223,400L-285.55555555555554,400L-258.8888888888889,400L-232.22222222222223,400L-205.55555555555554,400L-178.88888888888889,400L-152.22222222222223,400L-125.55555555555556,400L-98.88888888888889,400L-72.22222222222221,399.95L-45.55555555555556,399.8L-18.88888888888889,400L7.777777777777778,400L34.44444444444444,400L61.111111111111114,399.95L87.77777777777777,400L114.44444444444444,399.90000000000003L141.11111111111111,400L167.77777777777777,400L194.44444444444443,400L221.11111111111111,400L247.77777777777777,400L274.44444444444446,400L301.1111111111111,400L327.77777777777777,400L354.44444444444446,400L381.1111111111111,400L407.77777777777777,400" stroke="#f58518" stroke-width="2" opacity="0.2"></path></g></g><path class="foreground" aria-hidden="true" d="" display="none"></path></g><g transform="translate(0,0)"><path class="background" aria-hidden="true" d="M0,0h400v400h-400Z"></path><g><g class="mark-line role-mark concat_0_layer_0_marks" clip-path="url(#clip3)" role="graphics-object" aria-roledescription="line mark container"><path aria-label="Type: Confirmed; Date: Mar 01; Count: 4" role="graphics-symbol" aria-roledescription="line mark" d="M-4471.111111111111,399.8L-4444.444444444444,399.7L-4417.777777777777,399.65000000000003L-4391.111111111111,398.8L-4364.444444444444,398.45L-4337.777777777778,398.95L-4311.111111111111,398.05L-4284.444444444444,398.55L-4258.888888888889,398.55L-4232.222222222223,390.25L-4205.555555555556,390.09999999999997L-4178.888888888889,394.8L-4152.222222222223,385.3L-4125.555555555556,395.3L-4098.888888888889,393.45L-4072.222222222222,394.4L-4045.5555555555557,393.5L-4018.888888888889,395.65000000000003L-3992.2222222222226,390.2L-3965.5555555555557,391.59999999999997L-3938.8888888888887,389.8L-3912.222222222222,386.65L-3885.5555555555557,388.2L-3858.8888888888887,387.9L-3832.222222222222,388.95L-3805.5555555555557,385.75L-3778.888888888889,380.7L-3752.2222222222226,387L-3725.555555555555,386.55L-3698.8888888888887,391.95000000000005L-3672.222222222222,390.2L-3645.5555555555557,388.9L-3618.888888888889,385.8L-3592.2222222222226,388.85L-3565.5555555555557,391L-3538.8888888888887,393.15L-3512.222222222222,391.1L-3485.5555555555557,388.95L-3458.8888888888887,400L-3432.222222222222,393.75L-3405.5555555555557,394.85L-3378.888888888889,395.25L-3352.2222222222226,394.20000000000005L-3325.555555555555,396.09999999999997L-3298.8888888888887,399L-3272.222222222222,394.15L-3245.5555555555557,392.2L-3218.888888888889,397.95L-3192.222222222222,395.05L-3165.5555555555557,397.90000000000003L-3138.888888888889,396.09999999999997L-3112.222222222222,398.25L-3085.5555555555557,392.65L-3058.8888888888887,396.85L-3032.222222222222,396.9L-3005.5555555555557,398.20000000000005L-2978.8888888888887,398.6L-2952.222222222222,396.4L-2925.5555555555557,396.95L-2898.8888888888887,397.5L-2872.222222222222,398.6L-2845.5555555555557,397.75L-2818.888888888889,398.7L-2792.222222222222,398.09999999999997L-2765.5555555555557,397.15L-2738.888888888889,397.45L-2712.222222222222,397.95L-2685.5555555555557,398.09999999999997L-2658.8888888888887,398.20000000000005L-2632.222222222222,398.55L-2605.5555555555557,399.7L-2578.8888888888887,398.65L-2552.222222222222,398.75L-2525.5555555555557,399.1L-2498.8888888888887,398.95L-2472.222222222222,398.85L-2445.5555555555557,399.1L-2418.888888888889,399.40000000000003L-2392.222222222222,399.6L-2365.5555555555557,399.5L-2338.888888888889,399.3L-2312.222222222222,398.6L-2285.5555555555557,398.85L-2258.8888888888887,399.3L-2232.222222222222,399.7L-2205.5555555555557,399.40000000000003L-2178.8888888888887,399.05L-2152.222222222222,399.1L-2125.5555555555557,399.5L-2098.8888888888887,399.45L-2072.222222222222,399.25L-2045.5555555555557,399.85L-2018.888888888889,399.7L-1992.2222222222222,399.54999999999995L-1965.5555555555554,398.9L-1938.888888888889,398.65L-1912.2222222222224,399.1L-1885.5555555555554,399.54999999999995L-1858.888888888889,399.2L-1832.2222222222222,399.3L-1805.5555555555557,399.25L-1778.8888888888887,399.1L-1752.2222222222222,399.3L-1725.5555555555557,399.40000000000003L-1698.8888888888887,399.6L-1672.2222222222222,399.85L-1645.5555555555557,399.2L-1618.888888888889,399.35L-1592.2222222222222,398.4L-1565.5555555555554,399.2L-1538.888888888889,399.1L-1512.2222222222222,399.2L-1485.5555555555557,399.85L-1458.888888888889,399.7L-1432.2222222222222,398.95L-1405.5555555555554,399.2L-1378.888888888889,400L-1352.2222222222222,397.8L-1325.5555555555557,399.3L-1298.888888888889,399.54999999999995L-1272.2222222222222,399.65000000000003L-1245.5555555555557,399.15L-1218.888888888889,399.15L-1192.2222222222222,399.7L-1165.5555555555554,399.05L-1138.888888888889,399.75L-1112.2222222222222,399.8L-1085.5555555555557,399.7L-1058.888888888889,399.45L-1032.2222222222222,399.85L-1005.5555555555555,399.25L-978.8888888888889,399.54999999999995L-952.2222222222222,399.85L-925.5555555555557,399.8L-898.8888888888889,399.85L-872.2222222222222,399.15L-845.5555555555555,399.5L-818.8888888888888,399.8L-792.2222222222223,399.5L-765.5555555555555,399.85L-738.8888888888889,400L-712.2222222222222,399.7L-685.5555555555555,399.05L-658.8888888888889,399.7L-632.2222222222222,398.7L-605.5555555555555,399.65000000000003L-578.8888888888889,399.05L-552.2222222222222,399.7L-525.5555555555555,399.25L-498.8888888888889,399.1L-472.22222222222223,398.9L-445.55555555555554,398.20000000000005L-418.8888888888889,398.4L-392.22222222222223,399.35L-365.55555555555554,399.25L-338.88888888888886,396.7L-312.22222222222223,398.6L-285.55555555555554,397.65000000000003L-258.8888888888889,397.05L-232.22222222222223,395.84999999999997L-205.55555555555554,397.6L-178.88888888888889,398.05L-152.22222222222223,397.7L-125.55555555555556,396.65L-98.88888888888889,398.4L-72.22222222222221,396.6L-45.55555555555556,397.15L-18.88888888888889,397.15L7.777777777777778,398L34.44444444444444,397.25L61.111111111111114,397.45L87.77777777777777,397.45L114.44444444444444,398.25L141.11111111111111,396.09999999999997L167.77777777777777,398.8L194.44444444444443,398.8L221.11111111111111,396.4L247.77777777777777,397.05L274.44444444444446,397.5L301.1111111111111,398.09999999999997L327.77777777777777,398L354.44444444444446,398.55L381.1111111111111,398.4L407.77777777777777,393.05" stroke="#4c78a8" stroke-width="2" opacity="0.2"></path></g></g><path class="foreground" aria-hidden="true" d="" display="none"></path></g></g><g class="mark-group role-scope concat_0_layer_1_pathgroup" role="graphics-object" aria-roledescription="group mark container"><g transform="translate(0,0)"><path class="background" aria-hidden="true" d="M0,0h400v400h-400Z"></path><g><g class="mark-line role-mark concat_0_layer_1_marks" clip-path="url(#clip4)" role="graphics-object" aria-roledescription="line mark container"><path aria-label="Type: Recovered; Date: Mar 01; Count: 0" role="graphics-symbol" aria-roledescription="line mark" d="M-4311.111111111111,400L-4284.444444444444,400L-4258.888888888889,399.99285714285713L-4232.222222222223,399.99285714285713L-4205.555555555556,399.99285714285713L-4178.888888888889,399.99285714285713L-4152.222222222223,399.99285714285713L-4125.555555555556,399.99285714285713L-4098.888888888889,399.99285714285713L-4072.222222222222,400L-4045.5555555555557,400L-4018.888888888889,400L-3992.2222222222226,400L-3965.5555555555557,400L-3938.8888888888887,400L-3912.222222222222,400L-3885.5555555555557,400L-3858.8888888888887,399.9642857142857L-3832.222222222222,399.9642857142857L-3805.5555555555557,399.9642857142857L-3778.888888888889,399.9642857142857L-3752.2222222222226,399.95714285714286L-3725.555555555555,399.95714285714286L-3698.8888888888887,399.9214285714286L-3672.222222222222,399.95L-3645.5555555555557,399.95L-3618.888888888889,399.81428571428575L-3592.2222222222226,399.81428571428575L-3565.5555555555557,399.82142857142856L-3538.8888888888887,399.82142857142856L-3512.222222222222,399.8571428571429L-3485.5555555555557,399.8642857142857L-3458.8888888888887,399.8642857142857L-3432.222222222222,400L-3405.5555555555557,400L-3378.888888888889,400L-3352.2222222222226,400L-3325.555555555555,400L-3298.8888888888887,400L-3272.222222222222,400L-3245.5555555555557,400L-3218.888888888889,400L-3192.222222222222,400L-3165.5555555555557,400L-3138.888888888889,400L-3112.222222222222,400L-3085.5555555555557,400L-3058.8888888888887,400L-3032.222222222222,400L-3005.5555555555557,400L-2978.8888888888887,400L-2952.222222222222,400L-2925.5555555555557,400L-2898.8888888888887,400L-2872.222222222222,400L-2845.5555555555557,400L-2818.888888888889,400L-2792.222222222222,400L-2765.5555555555557,400L-2738.888888888889,400L-2712.222222222222,400L-2685.5555555555557,400L-2658.8888888888887,400L-2632.222222222222,400L-2605.5555555555557,400L-2578.8888888888887,400L-2552.222222222222,400L-2525.5555555555557,400L-2498.8888888888887,400L-2472.222222222222,400L-2445.5555555555557,400L-2418.888888888889,400L-2392.222222222222,400L-2365.5555555555557,400L-2338.888888888889,400L-2312.222222222222,400L-2285.5555555555557,345.0357142857143L-2258.8888888888887,345.0357142857143L-2232.222222222222,345.0357142857143L-2205.5555555555557,345.0357142857143L-2178.8888888888887,345.0357142857143L-2152.222222222222,345.0357142857143L-2125.5555555555557,345.0357142857143L-2098.8888888888887,400L-2072.222222222222,400L-2045.5555555555557,400L-2018.888888888889,400L-1992.2222222222222,400L-1965.5555555555554,400L-1938.888888888889,397.06428571428575L-1912.2222222222224,397.06428571428575L-1885.5555555555554,397.06428571428575L-1858.888888888889,397.06428571428575L-1832.2222222222222,397.06428571428575L-1805.5555555555557,397.06428571428575L-1778.8888888888887,397.06428571428575L-1752.2222222222222,400L-1725.5555555555557,400L-1698.8888888888887,400L-1672.2222222222222,400L-1645.5555555555557,400L-1618.888888888889,400L-1592.2222222222222,400L-1565.5555555555554,400L-1538.888888888889,400L-1512.2222222222222,400L-1485.5555555555557,400L-1458.888888888889,400L-1432.2222222222222,400L-1405.5555555555554,400L-1378.888888888889,400L-1352.2222222222222,400L-1325.5555555555557,400L-1298.888888888889,400L-1272.2222222222222,400L-1245.5555555555557,400L-1218.888888888889,400L-1192.2222222222222,400L-1165.5555555555554,400L-1138.888888888889,400L-1112.2222222222222,400L-1085.5555555555557,400L-1058.888888888889,400L-1032.2222222222222,400L-1005.5555555555555,400L-978.8888888888889,400L-952.2222222222222,400L-925.5555555555557,400L-898.8888888888889,400L-872.2222222222222,400L-845.5555555555555,400L-818.8888888888888,400L-792.2222222222223,400L-765.5555555555555,400L-738.8888888888889,400L-712.2222222222222,400L-685.5555555555555,400L-658.8888888888889,400L-632.2222222222222,396.1714285714286L-605.5555555555555,396.1714285714286L-578.8888888888889,396.1714285714286L-552.2222222222222,395.6142857142857L-525.5555555555555,395.6142857142857L-498.8888888888889,395.6142857142857L-472.22222222222223,395.6142857142857L-445.55555555555554,399.4428571428571L-418.8888888888889,399.4428571428571L-392.22222222222223,399.4428571428571L-365.55555555555554,400L-338.88888888888886,400L-312.22222222222223,400L-285.55555555555554,400L-258.8888888888889,399.25L-232.22222222222223,399.25L-205.55555555555554,399.25L-178.88888888888889,399.25L-152.22222222222223,399.25L-125.55555555555556,399.25L-98.88888888888889,399.25L-72.22222222222221,400L-45.55555555555556,400L-18.88888888888889,400L7.777777777777778,400L34.44444444444444,400L61.111111111111114,400L87.77777777777777,400L114.44444444444444,397.90714285714284L141.11111111111111,397.90714285714284L167.77777777777777,397.90714285714284L194.44444444444443,397.90714285714284L221.11111111111111,397.90714285714284L247.77777777777777,397.90714285714284L274.44444444444446,397.90714285714284L301.1111111111111,398.5857142857143L327.77777777777777,398.5857142857143L354.44444444444446,398.5857142857143L381.1111111111111,398.5857142857143L407.77777777777777,398.5857142857143" stroke="#e45756" stroke-width="2" opacity="1"></path></g></g><path class="foreground" aria-hidden="true" d="" display="none"></path></g><g transform="translate(0,0)"><path class="background" aria-hidden="true" d="M0,0h400v400h-400Z"></path><g><g class="mark-line role-mark concat_0_layer_1_marks" clip-path="url(#clip5)" role="graphics-object" aria-roledescription="line mark container"><path aria-label="Type: Deaths; Date: Mar 01; Count: 0" role="graphics-symbol" aria-roledescription="line mark" d="M-4311.111111111111,400L-4284.444444444444,400L-4258.888888888889,400L-4232.222222222223,400L-4205.555555555556,400L-4178.888888888889,400L-4152.222222222223,400L-4125.555555555556,399.9785714285714L-4098.888888888889,399.9785714285714L-4072.222222222222,399.9785714285714L-4045.5555555555557,399.9785714285714L-4018.888888888889,399.95714285714286L-3992.2222222222226,399.95L-3965.5555555555557,399.95L-3938.8888888888887,399.97142857142853L-3912.222222222222,399.97142857142853L-3885.5555555555557,399.95L-3858.8888888888887,399.9357142857143L-3832.222222222222,399.9428571428572L-3805.5555555555557,399.95L-3778.888888888889,399.9142857142857L-3752.2222222222226,399.88571428571424L-3725.555555555555,399.87142857142857L-3698.8888888888887,399.8428571428571L-3672.222222222222,399.8071428571428L-3645.5555555555557,399.7857142857143L-3618.888888888889,399.74285714285713L-3592.2222222222226,399.7142857142857L-3565.5555555555557,399.72142857142853L-3538.8888888888887,399.6714285714286L-3512.222222222222,399.6857142857143L-3485.5555555555557,399.64285714285717L-3458.8888888888887,399.59285714285716L-3432.222222222222,399.5857142857143L-3405.5555555555557,399.6142857142857L-3378.888888888889,399.59285714285716L-3352.2222222222226,399.59285714285716L-3325.555555555555,399.5857142857143L-3298.8888888888887,399.64285714285717L-3272.222222222222,399.65000000000003L-3245.5555555555557,399.6857142857143L-3218.888888888889,399.65714285714284L-3192.222222222222,399.67857142857144L-3165.5555555555557,399.7357142857143L-3138.888888888889,399.6642857142857L-3112.222222222222,399.6928571428572L-3085.5555555555557,399.7357142857143L-3058.8888888888887,399.7L-3032.222222222222,399.72857142857146L-3005.5555555555557,399.7357142857143L-2978.8888888888887,399.74285714285713L-2952.222222222222,399.8285714285714L-2925.5555555555557,399.8285714285714L-2898.8888888888887,399.8571428571429L-2872.222222222222,399.88571428571424L-2845.5555555555557,399.9214285714286L-2818.888888888889,399.9285714285714L-2792.222222222222,399.9285714285714L-2765.5555555555557,399.9357142857143L-2738.888888888889,399.9357142857143L-2712.222222222222,399.9357142857143L-2685.5555555555557,399.95L-2658.8888888888887,399.9428571428572L-2632.222222222222,399.9428571428572L-2605.5555555555557,399.9428571428572L-2578.8888888888887,399.9285714285714L-2552.222222222222,399.90714285714284L-2525.5555555555557,399.90714285714284L-2498.8888888888887,399.8928571428571L-2472.222222222222,399.90000000000003L-2445.5555555555557,399.90714285714284L-2418.888888888889,399.90714285714284L-2392.222222222222,399.9357142857143L-2365.5555555555557,399.9642857142857L-2338.888888888889,399.9642857142857L-2312.222222222222,399.9785714285714L-2285.5555555555557,399.9785714285714L-2258.8888888888887,399.9785714285714L-2232.222222222222,399.9785714285714L-2205.5555555555557,399.9857142857143L-2178.8888888888887,399.9857142857143L-2152.222222222222,399.99285714285713L-2125.5555555555557,399.99285714285713L-2098.8888888888887,399.99285714285713L-2072.222222222222,399.99285714285713L-2045.5555555555557,399.99285714285713L-2018.888888888889,399.99285714285713L-1992.2222222222222,399.9857142857143L-1965.5555555555554,399.9857142857143L-1938.888888888889,399.9857142857143L-1912.2222222222224,399.9857142857143L-1885.5555555555554,399.9857142857143L-1858.888888888889,399.9857142857143L-1832.2222222222222,399.9785714285714L-1805.5555555555557,399.9857142857143L-1778.8888888888887,399.9857142857143L-1752.2222222222222,399.97142857142853L-1725.5555555555557,399.97142857142853L-1698.8888888888887,399.97142857142853L-1672.2222222222222,399.97142857142853L-1645.5555555555557,399.9785714285714L-1618.888888888889,399.9785714285714L-1592.2222222222222,399.97142857142853L-1565.5555555555554,399.9857142857143L-1538.888888888889,399.9857142857143L-1512.2222222222222,399.9857142857143L-1485.5555555555557,399.9857142857143L-1458.888888888889,399.95714285714286L-1432.2222222222222,399.95714285714286L-1405.5555555555554,399.95714285714286L-1378.888888888889,399.9642857142857L-1352.2222222222222,399.9642857142857L-1325.5555555555557,399.9642857142857L-1298.888888888889,399.9642857142857L-1272.2222222222222,399.99285714285713L-1245.5555555555557,399.9857142857143L-1218.888888888889,399.9857142857143L-1192.2222222222222,399.9857142857143L-1165.5555555555554,399.9857142857143L-1138.888888888889,399.9857142857143L-1112.2222222222222,399.9857142857143L-1085.5555555555557,399.9857142857143L-1058.888888888889,399.99285714285713L-1032.2222222222222,400L-1005.5555555555555,399.99285714285713L-978.8888888888889,399.99285714285713L-952.2222222222222,399.99285714285713L-925.5555555555557,399.99285714285713L-898.8888888888889,399.9857142857143L-872.2222222222222,399.9857142857143L-845.5555555555555,399.9857142857143L-818.8888888888888,399.9857142857143L-792.2222222222223,399.9785714285714L-765.5555555555555,399.9785714285714L-738.8888888888889,399.9785714285714L-712.2222222222222,399.9857142857143L-685.5555555555555,399.9857142857143L-658.8888888888889,399.9857142857143L-632.2222222222222,399.99285714285713L-605.5555555555555,400L-578.8888888888889,400L-552.2222222222222,400L-525.5555555555555,400L-498.8888888888889,400L-472.22222222222223,400L-445.55555555555554,400L-418.8888888888889,400L-392.22222222222223,400L-365.55555555555554,400L-338.88888888888886,399.99285714285713L-312.22222222222223,399.99285714285713L-285.55555555555554,399.99285714285713L-258.8888888888889,399.99285714285713L-232.22222222222223,399.99285714285713L-205.55555555555554,399.99285714285713L-178.88888888888889,399.99285714285713L-152.22222222222223,400L-125.55555555555556,400L-98.88888888888889,400L-72.22222222222221,399.99285714285713L-45.55555555555556,399.9642857142857L-18.88888888888889,399.9642857142857L7.777777777777778,399.9642857142857L34.44444444444444,399.9642857142857L61.111111111111114,399.95714285714286L87.77777777777777,399.95714285714286L114.44444444444444,399.95L141.11111111111111,399.9785714285714L167.77777777777777,399.9785714285714L194.44444444444443,399.9785714285714L221.11111111111111,399.9785714285714L247.77777777777777,399.9857142857143L274.44444444444446,399.9857142857143L301.1111111111111,400L327.77777777777777,400L354.44444444444446,400L381.1111111111111,400L407.77777777777777,400" stroke="#f58518" stroke-width="2" opacity="1"></path></g></g><path class="foreground" aria-hidden="true" d="" display="none"></path></g><g transform="translate(0,0)"><path class="background" aria-hidden="true" d="M0,0h400v400h-400Z"></path><g><g class="mark-line role-mark concat_0_layer_1_marks" clip-path="url(#clip6)" role="graphics-object" aria-roledescription="line mark container"><path aria-label="Type: Confirmed; Date: Mar 01; Count: 0" role="graphics-symbol" aria-roledescription="line mark" d="M-4311.111111111111,399.0571428571429L-4284.444444444444,398.87857142857143L-4258.888888888889,398.7142857142857L-4232.222222222223,397.37142857142857L-4205.555555555556,396.12857142857143L-4178.888888888889,395.6071428571429L-4152.222222222223,393.65714285714284L-4125.555555555556,393.26428571428573L-4098.888888888889,392.5357142857143L-4072.222222222222,391.9428571428571L-4045.5555555555557,392.40714285714284L-4018.888888888889,393.2L-3992.2222222222226,392.54285714285714L-3965.5555555555557,393.4428571428572L-3938.8888888888887,392.65714285714284L-3912.222222222222,391.68571428571425L-3885.5555555555557,390.8L-3858.8888888888887,390L-3832.222222222222,389.04285714285714L-3805.5555555555557,388.40714285714284L-3778.888888888889,386.85L-3752.2222222222226,386.45L-3725.555555555555,386.4357142857143L-3698.8888888888887,386.9714285714286L-3672.222222222222,387.3L-3645.5555555555557,387.29285714285714L-3618.888888888889,387.3L-3592.2222222222226,388.4642857142857L-3565.5555555555557,389.0357142857143L-3538.8888888888887,389.9785714285714L-3512.222222222222,389.85714285714283L-3485.5555555555557,389.67857142857144L-3458.8888888888887,391.26428571428573L-3432.222222222222,392.4L-3405.5555555555557,393.25714285714287L-3378.888888888889,393.86428571428576L-3352.2222222222226,394.0142857142857L-3325.555555555555,394.7285714285714L-3298.8888888888887,396.1642857142857L-3272.222222222222,395.3285714285714L-3245.5555555555557,395.1071428571429L-3218.888888888889,395.54999999999995L-3192.222222222222,395.5214285714286L-3165.5555555555557,396.05L-3138.888888888889,396.05L-3112.222222222222,395.9428571428572L-3085.5555555555557,395.72857142857146L-3058.8888888888887,396.3928571428571L-3032.222222222222,396.2428571428572L-3005.5555555555557,396.6928571428571L-2978.8888888888887,396.79285714285714L-2952.222222222222,396.8357142857143L-2925.5555555555557,396.65L-2898.8888888888887,397.34285714285716L-2872.222222222222,397.5928571428571L-2845.5555555555557,397.7142857142857L-2818.888888888889,397.7857142857143L-2792.222222222222,397.7142857142857L-2765.5555555555557,397.8214285714286L-2738.888888888889,397.8928571428571L-2712.222222222222,397.95714285714286L-2685.5555555555557,397.88571428571424L-2658.8888888888887,397.95L-2632.222222222222,397.9285714285714L-2605.5555555555557,398.1571428571429L-2578.8888888888887,398.37142857142857L-2552.222222222222,398.5571428571429L-2525.5555555555557,398.7214285714286L-2498.8888888888887,398.84285714285716L-2472.222222222222,398.9357142857143L-2445.5555555555557,399.01428571428573L-2418.888888888889,398.9714285714286L-2392.222222222222,399.10714285714283L-2365.5555555555557,399.2142857142857L-2338.888888888889,399.24285714285713L-2312.222222222222,399.1928571428571L-2285.5555555555557,399.1928571428571L-2258.8888888888887,399.2214285714286L-2232.222222222222,399.26428571428573L-2205.5555555555557,399.23571428571427L-2178.8888888888887,399.1714285714286L-2152.222222222222,399.14285714285717L-2125.5555555555557,399.2714285714286L-2098.8888888888887,399.3571428571429L-2072.222222222222,399.35L-2045.5555555555557,399.37142857142857L-2018.888888888889,399.4142857142857L-1992.2222222222222,399.48571428571427L-1965.5555555555554,399.45714285714286L-1938.888888888889,399.3357142857143L-1912.2222222222224,399.2857142857143L-1885.5555555555554,399.3285714285714L-1858.888888888889,399.23571428571427L-1832.2222222222222,399.17857142857144L-1805.5555555555557,399.1357142857143L-1778.8888888888887,399.1642857142857L-1752.2222222222222,399.25714285714287L-1725.5555555555557,399.3L-1698.8888888888887,399.3071428571429L-1672.2222222222222,399.40000000000003L-1645.5555555555557,399.3857142857143L-1618.888888888889,399.40000000000003L-1592.2222222222222,399.3L-1565.5555555555554,399.2857142857143L-1538.888888888889,399.24285714285713L-1512.2222222222222,399.1857142857143L-1485.5555555555557,399.1857142857143L-1458.888888888889,399.25714285714287L-1432.2222222222222,399.2L-1405.5555555555554,399.31428571428575L-1378.888888888889,399.42857142857144L-1352.2222222222222,399.24285714285713L-1325.5555555555557,399.25714285714287L-1298.888888888889,399.2142857142857L-1272.2222222222222,399.20714285714286L-1245.5555555555557,399.23571428571427L-1218.888888888889,399.22857142857146L-1192.2222222222222,399.1857142857143L-1165.5555555555554,399.3642857142857L-1138.888888888889,399.42857142857144L-1112.2222222222222,399.46428571428567L-1085.5555555555557,399.4714285714286L-1058.888888888889,399.51428571428573L-1032.2222222222222,399.6142857142857L-1005.5555555555555,399.54999999999995L-978.8888888888889,399.62142857142857L-952.2222222222222,399.63571428571424L-925.5555555555557,399.63571428571424L-898.8888888888889,399.65714285714284L-872.2222222222222,399.6142857142857L-845.5555555555555,399.56428571428575L-818.8888888888888,399.64285714285717L-792.2222222222223,399.63571428571424L-765.5555555555555,399.63571428571424L-738.8888888888889,399.6642857142857L-712.2222222222222,399.64285714285717L-685.5555555555555,399.62857142857143L-658.8888888888889,399.65714285714284L-632.2222222222222,399.5L-605.5555555555555,399.5214285714286L-578.8888888888889,399.40714285714284L-552.2222222222222,399.3642857142857L-525.5555555555555,399.3L-498.8888888888889,399.3071428571429L-472.22222222222223,399.1928571428571L-445.55555555555554,399.12142857142857L-418.8888888888889,398.9428571428571L-392.22222222222223,398.98571428571427L-365.55555555555554,398.9214285714286L-338.88888888888886,398.5571428571429L-312.22222222222223,398.48571428571427L-285.55555555555554,398.3071428571428L-258.8888888888889,398.1428571428571L-232.22222222222223,397.77857142857147L-205.55555555555554,397.5285714285714L-178.88888888888889,397.3571428571429L-152.22222222222223,397.5L-125.55555555555556,397.2214285714286L-98.88888888888889,397.3285714285714L-72.22222222222221,397.26428571428573L-45.55555555555556,397.45L-18.88888888888889,397.3857142857143L7.777777777777778,397.37857142857143L34.44444444444444,397.31428571428575L61.111111111111114,397.42857142857144L87.77777777777777,397.29285714285714L114.44444444444444,397.5285714285714L141.11111111111111,397.37857142857143L167.77777777777777,397.6142857142857L194.44444444444443,397.72857142857146L221.11111111111111,397.6071428571429L247.77777777777777,397.54999999999995L274.44444444444446,397.5571428571429L301.1111111111111,397.5357142857143L327.77777777777777,397.8071428571428L354.44444444444446,397.7714285714286L381.1111111111111,397.7142857142857L407.77777777777777,397.23571428571427" stroke="#4c78a8" stroke-width="2" opacity="1"></path></g></g><path class="foreground" aria-hidden="true" d="" display="none"></path></g></g><g class="mark-group role-title"><g transform="translate(200,-54)"><path class="background" aria-hidden="true" d="M0,0h0v0h0Z" pointer-events="none"></path><g><g class="mark-text role-title-text" role="graphics-symbol" aria-roledescription="title" aria-label="Title text '7-day average (light color: daily values) [2020-08-31]'" pointer-events="none"><text text-anchor="middle" transform="translate(0,10)" font-family="Roboto Condensed" font-size="13px" font-weight="normal" fill="#000" opacity="1"><tspan>7-day average (light color: daily values)</tspan><tspan x="0" dy="15">[2020-08-31]</tspan></text></g></g><path class="foreground" aria-hidden="true" d="" pointer-events="none" display="none"></path></g></g></g><path class="foreground" aria-hidden="true" d="" display="none"></path></g></g><g class="mark-group role-scope concat_1_group" role="graphics-object" aria-roledescription="group mark container"><g transform="translate(465,0)"><path class="background" aria-hidden="true" d="M0,0h400v400h-400Z" stroke="#ddd" stroke-width="0"></path><g><g class="mark-group role-axis" aria-hidden="true"><g transform="translate(0.5,0.5)"><path class="background" aria-hidden="true" d="M0,0h0v0h0Z" pointer-events="none"></path><g><g class="mark-rule role-axis-grid" pointer-events="none"><line transform="translate(0,400)" x2="400" y2="0" stroke="#ddd" stroke-width="1" opacity="1"></line><line transform="translate(0,364)" x2="400" y2="0" stroke="#ddd" stroke-width="1" opacity="1"></line><line transform="translate(0,327)" x2="400" y2="0" stroke="#ddd" stroke-width="1" opacity="1"></line><line transform="translate(0,291)" x2="400" y2="0" stroke="#ddd" stroke-width="1" opacity="1"></line><line transform="translate(0,255)" x2="400" y2="0" stroke="#ddd" stroke-width="1" opacity="1"></line><line transform="translate(0,218)" x2="400" y2="0" stroke="#ddd" stroke-width="1" opacity="1"></line><line transform="translate(0,182)" x2="400" y2="0" stroke="#ddd" stroke-width="1" opacity="1"></line><line transform="translate(0,145)" x2="400" y2="0" stroke="#ddd" stroke-width="1" opacity="1"></line><line transform="translate(0,109)" x2="400" y2="0" stroke="#ddd" stroke-width="1" opacity="1"></line><line transform="translate(0,73)" x2="400" y2="0" stroke="#ddd" stroke-width="1" opacity="1"></line><line transform="translate(0,36)" x2="400" y2="0" stroke="#ddd" stroke-width="1" opacity="1"></line><line transform="translate(0,0)" x2="400" y2="0" stroke="#ddd" stroke-width="1" opacity="1"></line></g></g><path class="foreground" aria-hidden="true" d="" pointer-events="none" display="none"></path></g></g><g class="mark-group role-axis" role="graphics-symbol" aria-roledescription="axis" aria-label="X-axis titled 'Date' for a time scale with values from August 15 to August 30"><g transform="translate(0.5,400.5)"><path class="background" aria-hidden="true" d="M0,0h0v0h0Z" pointer-events="none"></path><g><g class="mark-text role-axis-label" pointer-events="none"><text text-anchor="middle" transform="translate(34.44444444444444,10)" font-family="Roboto Condensed" font-size="10px" fill="#000" opacity="1">Aug 17</text><text text-anchor="middle" transform="translate(87.77777777777777,10)" font-family="Roboto Condensed" font-size="10px" fill="#000" opacity="1">Aug 19</text><text text-anchor="middle" transform="translate(141.11111111111111,10)" font-family="Roboto Condensed" font-size="10px" fill="#000" opacity="1">Aug 21</text><text text-anchor="middle" transform="translate(194.44444444444443,10)" font-family="Roboto Condensed" font-size="10px" fill="#000" opacity="1">Aug 23</text><text text-anchor="middle" transform="translate(247.77777777777777,10)" font-family="Roboto Condensed" font-size="10px" fill="#000" opacity="1">Aug 25</text><text text-anchor="middle" transform="translate(301.1111111111111,10)" font-family="Roboto Condensed" font-size="10px" fill="#000" opacity="1">Aug 27</text><text text-anchor="middle" transform="translate(354.44444444444446,10)" font-family="Roboto Condensed" font-size="10px" fill="#000" opacity="1">Aug 29</text></g><g class="mark-rule role-axis-domain" pointer-events="none"><line transform="translate(0,0)" x2="400" y2="0" stroke="lightgray" stroke-width="1" opacity="1"></line></g><g class="mark-text role-axis-title" pointer-events="none"><text text-anchor="middle" transform="translate(200,25)" font-family="Roboto Condensed" font-size="11px" font-weight="normal" fill="#000" opacity="1">Date</text></g></g><path class="foreground" aria-hidden="true" d="" pointer-events="none" display="none"></path></g></g><g class="mark-group role-axis" role="graphics-symbol" aria-roledescription="axis" aria-label="Y-axis titled 'Count' for a linear scale with values from 0 to 11,000"><g transform="translate(0.5,0.5)"><path class="background" aria-hidden="true" d="M0,0h0v0h0Z" pointer-events="none"></path><g><g class="mark-text role-axis-label" pointer-events="none"><text text-anchor="end" transform="translate(-2,403)" font-family="Roboto Condensed" font-size="10px" fill="#000" opacity="1">0</text><text text-anchor="end" transform="translate(-2,366.6363636363636)" font-family="Roboto Condensed" font-size="10px" fill="#000" opacity="1">1,000</text><text text-anchor="end" transform="translate(-2,330.27272727272725)" font-family="Roboto Condensed" font-size="10px" fill="#000" opacity="1">2,000</text><text text-anchor="end" transform="translate(-2,293.90909090909093)" font-family="Roboto Condensed" font-size="10px" fill="#000" opacity="1">3,000</text><text text-anchor="end" transform="translate(-2,257.5454545454545)" font-family="Roboto Condensed" font-size="10px" fill="#000" opacity="1">4,000</text><text text-anchor="end" transform="translate(-2,221.18181818181816)" font-family="Roboto Condensed" font-size="10px" fill="#000" opacity="1">5,000</text><text text-anchor="end" transform="translate(-2,184.81818181818184)" font-family="Roboto Condensed" font-size="10px" fill="#000" opacity="1">6,000</text><text text-anchor="end" transform="translate(-2,148.45454545454547)" font-family="Roboto Condensed" font-size="10px" fill="#000" opacity="1">7,000</text><text text-anchor="end" transform="translate(-2,112.09090909090908)" font-family="Roboto Condensed" font-size="10px" fill="#000" opacity="1">8,000</text><text text-anchor="end" transform="translate(-2,75.7272727272727)" font-family="Roboto Condensed" font-size="10px" fill="#000" opacity="1">9,000</text><text text-anchor="end" transform="translate(-2,39.363636363636374)" font-family="Roboto Condensed" font-size="10px" fill="#000" opacity="1">10,000</text><text text-anchor="end" transform="translate(-2,3)" font-family="Roboto Condensed" font-size="10px" fill="#000" opacity="1">11,000</text></g><g class="mark-rule role-axis-domain" pointer-events="none"><line transform="translate(0,400)" x2="0" y2="-400" stroke="lightgray" stroke-width="1" opacity="1"></line></g><g class="mark-text role-axis-title" pointer-events="none"><text text-anchor="start" transform="translate(-45,-13)" font-family="Roboto Condensed" font-size="11px" font-weight="normal" fill="#000" opacity="1">Count</text></g></g><path class="foreground" aria-hidden="true" d="" pointer-events="none" display="none"></path></g></g><g class="mark-group role-scope concat_1_pathgroup" role="graphics-object" aria-roledescription="group mark container"><g transform="translate(0,0)"><path class="background" aria-hidden="true" d="M0,0h400v400h-400Z"></path><g><g class="mark-line role-mark concat_1_marks" clip-path="url(#clip7)" role="graphics-object" aria-roledescription="line mark container"><path aria-label="Type: Recovered; Date: Mar 01; Country: Norway; Confirmed: 19; Recovered: 0; Deaths: 0; Count: 0" role="graphics-symbol" aria-roledescription="line mark" d="M-4471.111111111111,400L-4444.444444444444,400L-4417.777777777777,400L-4391.111111111111,400L-4364.444444444444,400L-4337.777777777778,400L-4311.111111111111,400L-4284.444444444444,400L-4258.888888888889,399.96363636363634L-4232.222222222223,399.96363636363634L-4205.555555555556,399.96363636363634L-4178.888888888889,399.96363636363634L-4152.222222222223,399.96363636363634L-4125.555555555556,399.96363636363634L-4098.888888888889,399.96363636363634L-4072.222222222222,399.96363636363634L-4045.5555555555557,399.96363636363634L-4018.888888888889,399.96363636363634L-3992.2222222222226,399.96363636363634L-3965.5555555555557,399.96363636363634L-3938.8888888888887,399.96363636363634L-3912.222222222222,399.96363636363634L-3885.5555555555557,399.96363636363634L-3858.8888888888887,399.7818181818182L-3832.222222222222,399.7818181818182L-3805.5555555555557,399.7818181818182L-3778.888888888889,399.7818181818182L-3752.2222222222226,399.74545454545455L-3725.555555555555,399.74545454545455L-3698.8888888888887,399.56363636363636L-3672.222222222222,399.5272727272727L-3645.5555555555557,399.5272727272727L-3618.888888888889,398.83636363636367L-3592.2222222222226,398.83636363636367L-3565.5555555555557,398.83636363636367L-3538.8888888888887,398.83636363636367L-3512.222222222222,398.83636363636367L-3485.5555555555557,398.83636363636367L-3458.8888888888887,398.83636363636367L-3432.222222222222,398.83636363636367L-3405.5555555555557,398.83636363636367L-3378.888888888889,398.83636363636367L-3352.2222222222226,398.83636363636367L-3325.555555555555,398.83636363636367L-3298.8888888888887,398.83636363636367L-3272.222222222222,398.83636363636367L-3245.5555555555557,398.83636363636367L-3218.888888888889,398.83636363636367L-3192.222222222222,398.83636363636367L-3165.5555555555557,398.83636363636367L-3138.888888888889,398.83636363636367L-3112.222222222222,398.83636363636367L-3085.5555555555557,398.83636363636367L-3058.8888888888887,398.83636363636367L-3032.222222222222,398.83636363636367L-3005.5555555555557,398.83636363636367L-2978.8888888888887,398.83636363636367L-2952.222222222222,398.83636363636367L-2925.5555555555557,398.83636363636367L-2898.8888888888887,398.83636363636367L-2872.222222222222,398.83636363636367L-2845.5555555555557,398.83636363636367L-2818.888888888889,398.83636363636367L-2792.222222222222,398.83636363636367L-2765.5555555555557,398.83636363636367L-2738.888888888889,398.83636363636367L-2712.222222222222,398.83636363636367L-2685.5555555555557,398.83636363636367L-2658.8888888888887,398.83636363636367L-2632.222222222222,398.83636363636367L-2605.5555555555557,398.83636363636367L-2578.8888888888887,398.83636363636367L-2552.222222222222,398.83636363636367L-2525.5555555555557,398.83636363636367L-2498.8888888888887,398.83636363636367L-2472.222222222222,398.83636363636367L-2445.5555555555557,398.83636363636367L-2418.888888888889,398.83636363636367L-2392.222222222222,398.83636363636367L-2365.5555555555557,398.83636363636367L-2338.888888888889,398.83636363636367L-2312.222222222222,398.83636363636367L-2285.5555555555557,119.01818181818183L-2258.8888888888887,119.01818181818183L-2232.222222222222,119.01818181818183L-2205.5555555555557,119.01818181818183L-2178.8888888888887,119.01818181818183L-2152.222222222222,119.01818181818183L-2125.5555555555557,119.01818181818183L-2098.8888888888887,119.01818181818183L-2072.222222222222,119.01818181818183L-2045.5555555555557,119.01818181818183L-2018.888888888889,119.01818181818183L-1992.2222222222222,119.01818181818183L-1965.5555555555554,119.01818181818183L-1938.888888888889,104.07272727272728L-1912.2222222222224,104.07272727272728L-1885.5555555555554,104.07272727272728L-1858.888888888889,104.07272727272728L-1832.2222222222222,104.07272727272728L-1805.5555555555557,104.07272727272728L-1778.8888888888887,104.07272727272728L-1752.2222222222222,104.07272727272728L-1725.5555555555557,104.07272727272728L-1698.8888888888887,104.07272727272728L-1672.2222222222222,104.07272727272728L-1645.5555555555557,104.07272727272728L-1618.888888888889,104.07272727272728L-1592.2222222222222,104.07272727272728L-1565.5555555555554,104.07272727272728L-1538.888888888889,104.07272727272728L-1512.2222222222222,104.07272727272728L-1485.5555555555557,104.07272727272728L-1458.888888888889,104.07272727272728L-1432.2222222222222,104.07272727272728L-1405.5555555555554,104.07272727272728L-1378.888888888889,104.07272727272728L-1352.2222222222222,104.07272727272728L-1325.5555555555557,104.07272727272728L-1298.888888888889,104.07272727272728L-1272.2222222222222,104.07272727272728L-1245.5555555555557,104.07272727272728L-1218.888888888889,104.07272727272728L-1192.2222222222222,104.07272727272728L-1165.5555555555554,104.07272727272728L-1138.888888888889,104.07272727272728L-1112.2222222222222,104.07272727272728L-1085.5555555555557,104.07272727272728L-1058.888888888889,104.07272727272728L-1032.2222222222222,104.07272727272728L-1005.5555555555555,104.07272727272728L-978.8888888888889,104.07272727272728L-952.2222222222222,104.07272727272728L-925.5555555555557,104.07272727272728L-898.8888888888889,104.07272727272728L-872.2222222222222,104.07272727272728L-845.5555555555555,104.07272727272728L-818.8888888888888,104.07272727272728L-792.2222222222223,104.07272727272728L-765.5555555555555,104.07272727272728L-738.8888888888889,104.07272727272728L-712.2222222222222,104.07272727272728L-685.5555555555555,104.07272727272728L-658.8888888888889,104.07272727272728L-632.2222222222222,84.58181818181818L-605.5555555555555,84.58181818181818L-578.8888888888889,84.58181818181818L-552.2222222222222,81.74545454545456L-525.5555555555555,81.74545454545456L-498.8888888888889,81.74545454545456L-472.22222222222223,81.74545454545456L-445.55555555555554,81.74545454545456L-418.8888888888889,81.74545454545456L-392.22222222222223,81.74545454545456L-365.55555555555554,81.74545454545456L-338.88888888888886,81.74545454545456L-312.22222222222223,81.74545454545456L-285.55555555555554,81.74545454545456L-258.8888888888889,77.92727272727271L-232.22222222222223,77.92727272727271L-205.55555555555554,77.92727272727271L-178.88888888888889,77.92727272727271L-152.22222222222223,77.92727272727271L-125.55555555555556,77.92727272727271L-98.88888888888889,77.92727272727271L-72.22222222222221,77.92727272727271L-45.55555555555556,77.92727272727271L-18.88888888888889,77.92727272727271L7.777777777777778,77.92727272727271L34.44444444444444,77.92727272727271L61.111111111111114,77.92727272727271L87.77777777777777,77.92727272727271L114.44444444444444,67.27272727272728L141.11111111111111,67.27272727272728L167.77777777777777,67.27272727272728L194.44444444444443,67.27272727272728L221.11111111111111,67.27272727272728L247.77777777777777,67.27272727272728L274.44444444444446,67.27272727272728L301.1111111111111,60.07272727272728L327.77777777777777,60.07272727272728L354.44444444444446,60.07272727272728L381.1111111111111,60.07272727272728L407.77777777777777,60.07272727272728" stroke="#e45756" stroke-width="2" opacity="0.7"></path></g></g><path class="foreground" aria-hidden="true" d="" display="none"></path></g><g transform="translate(0,0)"><path class="background" aria-hidden="true" d="M0,0h400v400h-400Z"></path><g><g class="mark-line role-mark concat_1_marks" clip-path="url(#clip8)" role="graphics-object" aria-roledescription="line mark container"><path aria-label="Type: Deaths; Date: Mar 01; Country: Norway; Confirmed: 19; Recovered: 0; Deaths: 0; Count: 0" role="graphics-symbol" aria-roledescription="line mark" d="M-4471.111111111111,400L-4444.444444444444,400L-4417.777777777777,400L-4391.111111111111,400L-4364.444444444444,400L-4337.777777777778,400L-4311.111111111111,400L-4284.444444444444,400L-4258.888888888889,400L-4232.222222222223,400L-4205.555555555556,400L-4178.888888888889,400L-4152.222222222223,400L-4125.555555555556,399.8909090909091L-4098.888888888889,399.8909090909091L-4072.222222222222,399.8909090909091L-4045.5555555555557,399.8909090909091L-4018.888888888889,399.7818181818182L-3992.2222222222226,399.74545454545455L-3965.5555555555557,399.74545454545455L-3938.8888888888887,399.74545454545455L-3912.222222222222,399.74545454545455L-3885.5555555555557,399.6363636363637L-3858.8888888888887,399.56363636363636L-3832.222222222222,399.4909090909091L-3805.5555555555557,399.4909090909091L-3778.888888888889,399.3090909090909L-3752.2222222222226,399.16363636363633L-3725.555555555555,399.09090909090907L-3698.8888888888887,398.83636363636367L-3672.222222222222,398.5818181818182L-3645.5555555555557,398.4L-3618.888888888889,398.1818181818182L-3592.2222222222226,397.8545454545455L-3565.5555555555557,397.74545454545455L-3538.8888888888887,397.4181818181818L-3512.222222222222,397.23636363636365L-3485.5555555555557,396.7636363636364L-3458.8888888888887,396.3272727272727L-3432.222222222222,396.07272727272726L-3405.5555555555557,395.8909090909091L-3378.888888888889,395.6727272727273L-3352.2222222222226,395.3454545454545L-3325.555555555555,395.1272727272727L-3298.8888888888887,394.94545454545454L-3272.222222222222,394.5454545454545L-3245.5555555555557,394.47272727272724L-3218.888888888889,394.1454545454545L-3192.222222222222,394.03636363636366L-3165.5555555555557,394L-3138.888888888889,393.4181818181818L-3112.222222222222,393.3818181818182L-3085.5555555555557,393.2L-3058.8888888888887,392.94545454545454L-3032.222222222222,392.7636363636364L-3005.5555555555557,392.6909090909091L-2978.8888888888887,392.6909090909091L-2952.222222222222,392.5454545454545L-2925.5555555555557,392.5090909090909L-2898.8888888888887,392.47272727272724L-2872.222222222222,392.3636363636364L-2845.5555555555557,392.3636363636364L-2818.888888888889,392.3272727272727L-2792.222222222222,392.3272727272727L-2765.5555555555557,392.2181818181818L-2738.888888888889,392.1818181818182L-2712.222222222222,392.1454545454545L-2685.5555555555557,392.1090909090909L-2658.8888888888887,392.07272727272726L-2632.222222222222,392.03636363636366L-2605.5555555555557,392.03636363636366L-2578.8888888888887,391.8545454545455L-2552.222222222222,391.70909090909095L-2525.5555555555557,391.6727272727273L-2498.8888888888887,391.56363636363636L-2472.222222222222,391.56363636363636L-2445.5555555555557,391.56363636363636L-2418.888888888889,391.56363636363636L-2392.222222222222,391.5272727272727L-2365.5555555555557,391.5272727272727L-2338.888888888889,391.4909090909091L-2312.222222222222,391.45454545454544L-2285.5555555555557,391.45454545454544L-2258.8888888888887,391.45454545454544L-2232.222222222222,391.45454545454544L-2205.5555555555557,391.45454545454544L-2178.8888888888887,391.45454545454544L-2152.222222222222,391.45454545454544L-2125.5555555555557,391.4181818181818L-2098.8888888888887,391.4181818181818L-2072.222222222222,391.4181818181818L-2045.5555555555557,391.4181818181818L-2018.888888888889,391.4181818181818L-1992.2222222222222,391.3818181818182L-1965.5555555555554,391.3818181818182L-1938.888888888889,391.3454545454545L-1912.2222222222224,391.3454545454545L-1885.5555555555554,391.3454545454545L-1858.888888888889,391.3454545454545L-1832.2222222222222,391.3090909090909L-1805.5555555555557,391.3090909090909L-1778.8888888888887,391.3090909090909L-1752.2222222222222,391.2L-1725.5555555555557,391.2L-1698.8888888888887,391.2L-1672.2222222222222,391.2L-1645.5555555555557,391.2L-1618.888888888889,391.2L-1592.2222222222222,391.1636363636364L-1565.5555555555554,391.1272727272727L-1538.888888888889,391.1272727272727L-1512.2222222222222,391.1272727272727L-1485.5555555555557,391.1272727272727L-1458.888888888889,390.9818181818182L-1432.2222222222222,390.9818181818182L-1405.5555555555554,390.94545454545454L-1378.888888888889,390.94545454545454L-1352.2222222222222,390.94545454545454L-1325.5555555555557,390.94545454545454L-1298.888888888889,390.94545454545454L-1272.2222222222222,390.94545454545454L-1245.5555555555557,390.90909090909093L-1218.888888888889,390.8727272727273L-1192.2222222222222,390.8727272727273L-1165.5555555555554,390.8727272727273L-1138.888888888889,390.8727272727273L-1112.2222222222222,390.8727272727273L-1085.5555555555557,390.8727272727273L-1058.888888888889,390.8727272727273L-1032.2222222222222,390.8727272727273L-1005.5555555555555,390.83636363636367L-978.8888888888889,390.83636363636367L-952.2222222222222,390.83636363636367L-925.5555555555557,390.83636363636367L-898.8888888888889,390.8L-872.2222222222222,390.8L-845.5555555555555,390.8L-818.8888888888888,390.76363636363635L-792.2222222222223,390.72727272727275L-765.5555555555555,390.72727272727275L-738.8888888888889,390.72727272727275L-712.2222222222222,390.72727272727275L-685.5555555555555,390.72727272727275L-658.8888888888889,390.72727272727275L-632.2222222222222,390.72727272727275L-605.5555555555555,390.72727272727275L-578.8888888888889,390.72727272727275L-552.2222222222222,390.72727272727275L-525.5555555555555,390.72727272727275L-498.8888888888889,390.72727272727275L-472.22222222222223,390.72727272727275L-445.55555555555554,390.72727272727275L-418.8888888888889,390.72727272727275L-392.22222222222223,390.72727272727275L-365.55555555555554,390.72727272727275L-338.88888888888886,390.6909090909091L-312.22222222222223,390.6909090909091L-285.55555555555554,390.6909090909091L-258.8888888888889,390.6909090909091L-232.22222222222223,390.6909090909091L-205.55555555555554,390.6909090909091L-178.88888888888889,390.6909090909091L-152.22222222222223,390.6909090909091L-125.55555555555556,390.6909090909091L-98.88888888888889,390.6909090909091L-72.22222222222221,390.6545454545454L-45.55555555555556,390.5090909090909L-18.88888888888889,390.5090909090909L7.777777777777778,390.5090909090909L34.44444444444444,390.5090909090909L61.111111111111114,390.47272727272724L87.77777777777777,390.47272727272724L114.44444444444444,390.4L141.11111111111111,390.4L167.77777777777777,390.4L194.44444444444443,390.4L221.11111111111111,390.4L247.77777777777777,390.4L274.44444444444446,390.4L301.1111111111111,390.4L327.77777777777777,390.4L354.44444444444446,390.4L381.1111111111111,390.4L407.77777777777777,390.4" stroke="#f58518" stroke-width="2" opacity="0.7"></path></g></g><path class="foreground" aria-hidden="true" d="" display="none"></path></g><g transform="translate(0,0)"><path class="background" aria-hidden="true" d="M0,0h400v400h-400Z"></path><g><g class="mark-line role-mark concat_1_marks" clip-path="url(#clip9)" role="graphics-object" aria-roledescription="line mark container"><path aria-label="Type: Confirmed; Date: Mar 01; Country: Norway; Confirmed: 19; Recovered: 0; Deaths: 0; Count: 19" role="graphics-symbol" aria-roledescription="line mark" d="M-4471.111111111111,399.3090909090909L-4444.444444444444,399.09090909090907L-4417.777777777777,398.83636363636367L-4391.111111111111,397.96363636363634L-4364.444444444444,396.83636363636367L-4337.777777777778,396.07272727272726L-4311.111111111111,394.6545454545455L-4284.444444444444,393.6L-4258.888888888889,392.5454545454545L-4232.222222222223,385.45454545454544L-4205.555555555556,378.25454545454545L-4178.888888888889,374.4727272727273L-4152.222222222223,363.7818181818182L-4125.555555555556,360.3636363636364L-4098.888888888889,355.6L-4072.222222222222,351.52727272727276L-4045.5555555555557,346.8L-4018.888888888889,343.6363636363636L-3992.2222222222226,336.5090909090909L-3965.5555555555557,330.40000000000003L-3938.8888888888887,322.9818181818182L-3912.222222222222,313.27272727272725L-3885.5555555555557,304.6909090909091L-3858.8888888888887,295.89090909090913L-3832.222222222222,287.8545454545455L-3805.5555555555557,277.4909090909091L-3778.888888888889,263.4545454545455L-3752.2222222222226,254L-3725.555555555555,244.2181818181818L-3698.8888888888887,238.36363636363637L-3672.222222222222,231.23636363636365L-3645.5555555555557,223.16363636363636L-3618.888888888889,212.83636363636367L-3592.2222222222226,204.72727272727275L-3565.5555555555557,198.1818181818182L-3538.8888888888887,193.2L-3512.222222222222,186.72727272727272L-3485.5555555555557,178.6909090909091L-3458.8888888888887,178.6909090909091L-3432.222222222222,174.14545454545456L-3405.5555555555557,170.4L-3378.888888888889,166.94545454545454L-3352.2222222222226,162.72727272727275L-3325.555555555555,159.89090909090908L-3298.8888888888887,159.16363636363636L-3272.222222222222,154.90909090909093L-3245.5555555555557,149.23636363636365L-3218.888888888889,147.74545454545455L-3192.222222222222,144.14545454545453L-3165.5555555555557,142.6181818181818L-3138.888888888889,139.78181818181818L-3112.222222222222,138.5090909090909L-3085.5555555555557,133.16363636363639L-3058.8888888888887,130.87272727272725L-3032.222222222222,128.61818181818182L-3005.5555555555557,127.30909090909091L-2978.8888888888887,126.2909090909091L-2952.222222222222,123.67272727272729L-2925.5555555555557,121.45454545454544L-2898.8888888888887,119.63636363636363L-2872.222222222222,118.61818181818182L-2845.5555555555557,116.98181818181817L-2818.888888888889,116.03636363636363L-2792.222222222222,114.65454545454547L-2765.5555555555557,112.58181818181816L-2738.888888888889,110.72727272727275L-2712.222222222222,109.23636363636362L-2685.5555555555557,107.85454545454547L-2658.8888888888887,106.54545454545455L-2632.222222222222,105.49090909090908L-2605.5555555555557,105.27272727272728L-2578.8888888888887,104.29090909090908L-2552.222222222222,103.3818181818182L-2525.5555555555557,102.72727272727273L-2498.8888888888887,101.96363636363634L-2472.222222222222,101.12727272727273L-2445.5555555555557,100.47272727272727L-2418.888888888889,100.03636363636366L-2392.222222222222,99.74545454545454L-2365.5555555555557,99.38181818181819L-2338.888888888889,98.87272727272727L-2312.222222222222,97.85454545454546L-2285.5555555555557,97.0181818181818L-2258.8888888888887,96.50909090909093L-2232.222222222222,96.29090909090907L-2205.5555555555557,95.85454545454546L-2178.8888888888887,95.16363636363639L-2152.222222222222,94.50909090909092L-2125.5555555555557,94.14545454545453L-2098.8888888888887,93.74545454545454L-2072.222222222222,93.19999999999999L-2045.5555555555557,93.09090909090911L-2018.888888888889,92.87272727272726L-1992.2222222222222,92.54545454545453L-1965.5555555555554,91.74545454545454L-1938.888888888889,90.76363636363638L-1912.2222222222224,90.10909090909092L-1885.5555555555554,89.78181818181818L-1858.888888888889,89.19999999999999L-1832.2222222222222,88.69090909090912L-1805.5555555555557,88.14545454545453L-1778.8888888888887,87.49090909090911L-1752.2222222222222,86.98181818181818L-1725.5555555555557,86.54545454545453L-1698.8888888888887,86.25454545454545L-1672.2222222222222,86.14545454545453L-1645.5555555555557,85.56363636363638L-1618.888888888889,85.09090909090911L-1592.2222222222222,83.92727272727272L-1565.5555555555554,83.34545454545457L-1538.888888888889,82.6909090909091L-1512.2222222222222,82.10909090909091L-1485.5555555555557,81.99999999999999L-1458.888888888889,81.78181818181818L-1432.2222222222222,81.01818181818183L-1405.5555555555554,80.43636363636364L-1378.888888888889,80.43636363636364L-1352.2222222222222,78.83636363636364L-1325.5555555555557,78.32727272727271L-1298.888888888889,77.99999999999999L-1272.2222222222222,77.74545454545456L-1245.5555555555557,77.12727272727271L-1218.888888888889,76.5090909090909L-1192.2222222222222,76.2909090909091L-1165.5555555555554,75.59999999999998L-1138.888888888889,75.41818181818184L-1112.2222222222222,75.2727272727273L-1085.5555555555557,75.05454545454543L-1058.888888888889,74.65454545454544L-1032.2222222222222,74.54545454545456L-1005.5555555555555,74.00000000000003L-978.8888888888889,73.67272727272729L-952.2222222222222,73.56363636363636L-925.5555555555557,73.41818181818182L-898.8888888888889,73.3090909090909L-872.2222222222222,72.69090909090909L-845.5555555555555,72.32727272727271L-818.8888888888888,72.18181818181817L-792.2222222222223,71.81818181818183L-765.5555555555555,71.7090909090909L-738.8888888888889,71.7090909090909L-712.2222222222222,71.4909090909091L-685.5555555555555,70.80000000000001L-658.8888888888889,70.58181818181816L-632.2222222222222,69.63636363636363L-605.5555555555555,69.38181818181816L-578.8888888888889,68.69090909090909L-552.2222222222222,68.47272727272728L-525.5555555555555,67.92727272727275L-498.8888888888889,67.27272727272728L-472.22222222222223,66.47272727272728L-445.55555555555554,65.16363636363636L-418.8888888888889,64.00000000000001L-392.22222222222223,63.527272727272745L-365.55555555555554,62.98181818181816L-338.88888888888886,60.58181818181821L-312.22222222222223,59.56363636363635L-285.55555555555554,57.85454545454547L-258.8888888888889,55.70909090909093L-232.22222222222223,52.690909090909074L-205.55555555555554,50.94545454545454L-178.88888888888889,49.52727272727273L-152.22222222222223,47.85454545454546L-125.55555555555556,45.4181818181818L-98.88888888888889,44.25454545454546L-72.22222222222221,41.78181818181819L-45.55555555555556,39.70909090909092L-18.88888888888889,37.63636363636365L7.777777777777778,36.18181818181818L34.44444444444444,34.18181818181818L61.111111111111114,32.327272727272714L87.77777777777777,30.47272727272725L114.44444444444444,29.19999999999998L141.11111111111111,26.363636363636367L167.77777777777777,25.4909090909091L194.44444444444443,24.618181818181828L221.11111111111111,22.00000000000002L247.77777777777777,19.854545454545438L274.44444444444446,18.036363636363628L301.1111111111111,16.654545454545435L327.77777777777777,15.200000000000014L354.44444444444446,14.14545454545455L381.1111111111111,12.981818181818161L407.77777777777777,7.927272727272738" stroke="#4c78a8" stroke-width="2" opacity="0.7"></path></g></g><path class="foreground" aria-hidden="true" d="" display="none"></path></g></g><g class="mark-group role-title"><g transform="translate(200,-54)"><path class="background" aria-hidden="true" d="M0,0h0v0h0Z" pointer-events="none"></path><g><g class="mark-text role-title-text" role="graphics-symbol" aria-roledescription="title" aria-label="Title text 'Total [2020-08-31]'" pointer-events="none"><text text-anchor="middle" transform="translate(0,10)" font-family="Roboto Condensed" font-size="13px" font-weight="normal" fill="#000" opacity="1"><tspan>Total</tspan><tspan x="0" dy="15">[2020-08-31]</tspan></text></g></g><path class="foreground" aria-hidden="true" d="" pointer-events="none" display="none"></path></g></g></g><path class="foreground" aria-hidden="true" d="" display="none"></path></g></g><g class="mark-group role-legend" role="graphics-symbol" aria-roledescription="legend" aria-label="Symbol legend for stroke color with 3 values: Confirmed, Deaths, Recovered"><g transform="translate(883,0)"><path class="background" aria-hidden="true" d="M0,0h58v37h-58Z" pointer-events="none"></path><g><g class="mark-group role-legend-entry"><g transform="translate(0,0)"><path class="background" aria-hidden="true" d="M0,0h0v0h0Z" pointer-events="none"></path><g><g class="mark-group role-scope" role="graphics-object" aria-roledescription="group mark container"><g transform="translate(0,0)"><path class="background" aria-hidden="true" d="M0,0h58v11h-58Z" pointer-events="none" opacity="1"></path><g><g class="mark-symbol role-legend-symbol" pointer-events="none"><path transform="translate(6,6)" d="M-5,0L5,0" stroke="#4c78a8" stroke-width="1.5" opacity="0.2"></path></g><g class="mark-text role-legend-label" pointer-events="none"><text text-anchor="start" transform="translate(16,9)" font-family="Roboto Condensed" font-size="10px" fill="#000" opacity="1">Confirmed</text></g></g><path class="foreground" aria-hidden="true" d="" pointer-events="none" display="none"></path></g><g transform="translate(0,13)"><path class="background" aria-hidden="true" d="M0,0h58v11h-58Z" pointer-events="none" opacity="1"></path><g><g class="mark-symbol role-legend-symbol" pointer-events="none"><path transform="translate(6,6)" d="M-5,0L5,0" stroke="#f58518" stroke-width="1.5" opacity="0.2"></path></g><g class="mark-text role-legend-label" pointer-events="none"><text text-anchor="start" transform="translate(16,9)" font-family="Roboto Condensed" font-size="10px" fill="#000" opacity="1">Deaths</text></g></g><path class="foreground" aria-hidden="true" d="" pointer-events="none" display="none"></path></g><g transform="translate(0,26)"><path class="background" aria-hidden="true" d="M0,0h58v11h-58Z" pointer-events="none" opacity="1"></path><g><g class="mark-symbol role-legend-symbol" pointer-events="none"><path transform="translate(6,6)" d="M-5,0L5,0" stroke="#e45756" stroke-width="1.5" opacity="0.2"></path></g><g class="mark-text role-legend-label" pointer-events="none"><text text-anchor="start" transform="translate(16,9)" font-family="Roboto Condensed" font-size="10px" fill="#000" opacity="1">Recovered</text></g></g><path class="foreground" aria-hidden="true" d="" pointer-events="none" display="none"></path></g></g></g><path class="foreground" aria-hidden="true" d="" pointer-events="none" display="none"></path></g></g></g><path class="foreground" aria-hidden="true" d="" pointer-events="none" display="none"></path></g></g></g><path class="foreground" aria-hidden="true" d="" display="none"></path></g></g></g></svg>