<svg class="marks" width="996" height="491" viewBox="0 0 996 491" version="1.1" xmlns="http://www.w3.org/2000/svg" xmlns:xlink="http://www.w3.org/1999/xlink"><defs><clipPath id="clip1"><rect x="0" y="0" width="400" height="400"></rect></clipPath><clipPath id="clip2"><rect x="0" y="0" width="400" height="400"></rect></clipPath><clipPath id="clip3"><rect x="0" y="0" width="400" height="400"></rect></clipPath><clipPath id="clip4"><rect x="0" y="0" width="400" height="400"></rect></clipPath><clipPath id="clip5"><rect x="0" y="0" width="400" height="400"></rect></clipPath><clipPath id="clip6"><rect x="0" y="0" width="400" height="400"></rect></clipPath><clipPath id="clip7"><rect x="0" y="0" width="400" height="400"></rect></clipPath><clipPath id="clip8"><rect x="0" y="0" width="400" height="400"></rect></clipPath><clipPath id="clip9"><rect x="0" y="0" width="400" height="400"></rect></clipPath></defs><rect width="996" height="491" fill="white"></rect><g fill="none" stroke-miterlimit="10" transform="translate(50,59)"><g class="mark-group role-frame root" role="graphics-object" aria-roledescription="group mark container"><g transform="translate(0,0)"><path class="background" aria-hidden="true" d="M0,0h0v400h0Z"></path><g><g class="mark-group role-scope concat_0_group" role="graphics-object" aria-roledescription="group mark container"><g transform="translate(0,0)"><path class="background" aria-hidden="true" d="M0,0h400v400h-400Z" stroke="#ddd" stroke-width="0"></path><g><g class="mark-group role-axis" aria-hidden="true"><g transform="translate(0.5,0.5)"><path class="background" aria-hidden="true" d="M0,0h0v0h0Z" pointer-events="none"></path><g><g class="mark-rule role-axis-grid" pointer-events="none"><line transform="translate(0,400)" x2="400" y2="0" stroke="#ddd" stroke-width="1" opacity="1"></line><line transform="translate(0,350)" x2="400" y2="0" stroke="#ddd" stroke-width="1" opacity="1"></line><line transform="translate(0,300)" x2="400" y2="0" stroke="#ddd" stroke-width="1" opacity="1"></line><line transform="translate(0,250)" x2="400" y2="0" stroke="#ddd" stroke-width="1" opacity="1"></line><line transform="translate(0,200)" x2="400" y2="0" stroke="#ddd" stroke-width="1" opacity="1"></line><line transform="translate(0,150)" x2="400" y2="0" stroke="#ddd" stroke-width="1" opacity="1"></line><line transform="translate(0,100)" x2="400" y2="0" stroke="#ddd" stroke-width="1" opacity="1"></line><line transform="translate(0,50)" x2="400" y2="0" stroke="#ddd" stroke-width="1" opacity="1"></line><line transform="translate(0,0)" x2="400" y2="0" stroke="#ddd" stroke-width="1" opacity="1"></line></g></g><path class="foreground" aria-hidden="true" d="" pointer-events="none" display="none"></path></g></g><g class="mark-group role-axis" role="graphics-symbol" aria-roledescription="axis" aria-label="X-axis titled 'Date' for a time scale with values from May 19 to June 03"><g transform="translate(0.5,400.5)"><path class="background" aria-hidden="true" d="M0,0h0v0h0Z" pointer-events="none"></path><g><g class="mark-text role-axis-label" pointer-events="none"><text text-anchor="middle" transform="translate(34.44444444444444,10)" font-family="Roboto Condensed" font-size="10px" fill="#000" opacity="1">May 21</text><text text-anchor="middle" transform="translate(87.77777777777777,10)" font-family="Roboto Condensed" font-size="10px" fill="#000" opacity="0">May 23</text><text text-anchor="middle" transform="translate(141.11111111111111,10)" font-family="Roboto Condensed" font-size="10px" fill="#000" opacity="1">May 25</text><text text-anchor="middle" transform="translate(194.44444444444443,10)" font-family="Roboto Condensed" font-size="10px" fill="#000" opacity="0">May 27</text><text text-anchor="middle" transform="translate(247.77777777777777,10)" font-family="Roboto Condensed" font-size="10px" fill="#000" opacity="1">May 29</text><text text-anchor="middle" transform="translate(301.1111111111111,10)" font-family="Roboto Condensed" font-size="10px" fill="#000" opacity="0">May 31</text><text text-anchor="middle" transform="translate(327.77777777777777,10)" font-family="Roboto Condensed" font-size="10px" fill="#000" opacity="1">Jun 01</text><text text-anchor="middle" transform="translate(381.1111111111111,10)" font-family="Roboto Condensed" font-size="10px" fill="#000" opacity="0">Jun 03</text></g><g class="mark-rule role-axis-domain" pointer-events="none"><line transform="translate(0,0)" x2="400" y2="0" stroke="lightgray" stroke-width="1" opacity="1"></line></g><g class="mark-text role-axis-title" pointer-events="none"><text text-anchor="middle" transform="translate(200,25)" font-family="Roboto Condensed" font-size="11px" font-weight="normal" fill="#000" opacity="1">Date</text></g></g><path class="foreground" aria-hidden="true" d="" pointer-events="none" display="none"></path></g></g><g class="mark-group role-axis" role="graphics-symbol" aria-roledescription="axis" aria-label="Y-axis titled 'Count' for a linear scale with values from -200 to 1,400"><g transform="translate(0.5,0.5)"><path class="background" aria-hidden="true" d="M0,0h0v0h0Z" pointer-events="none"></path><g><g class="mark-text role-axis-label" pointer-events="none"><text text-anchor="end" transform="translate(-2,403)" font-family="Roboto Condensed" font-size="10px" fill="#000" opacity="1">-200</text><text text-anchor="end" transform="translate(-2,353)" font-family="Roboto Condensed" font-size="10px" fill="#000" opacity="1">0</text><text text-anchor="end" transform="translate(-2,303)" font-family="Roboto Condensed" font-size="10px" fill="#000" opacity="1">200</text><text text-anchor="end" transform="translate(-2,253)" font-family="Roboto Condensed" font-size="10px" fill="#000" opacity="1">400</text><text text-anchor="end" transform="translate(-2,203)" font-family="Roboto Condensed" font-size="10px" fill="#000" opacity="1">600</text><text text-anchor="end" transform="translate(-2,153)" font-family="Roboto Condensed" font-size="10px" fill="#000" opacity="1">800</text><text text-anchor="end" transform="translate(-2,103)" font-family="Roboto Condensed" font-size="10px" fill="#000" opacity="1">1,000</text><text text-anchor="end" transform="translate(-2,53)" font-family="Roboto Condensed" font-size="10px" fill="#000" opacity="1">1,200</text><text text-anchor="end" transform="translate(-2,3)" font-family="Roboto Condensed" font-size="10px" fill="#000" opacity="1">1,400</text></g><g class="mark-rule role-axis-domain" pointer-events="none"><line transform="translate(0,400)" x2="0" y2="-400" stroke="lightgray" stroke-width="1" opacity="1"></line></g><g class="mark-text role-axis-title" pointer-events="none"><text text-anchor="start" transform="translate(-45,-13)" font-family="Roboto Condensed" font-size="11px" font-weight="normal" fill="#000" opacity="1">Count</text></g></g><path class="foreground" aria-hidden="true" d="" pointer-events="none" display="none"></path></g></g><g class="mark-group role-scope concat_0_layer_0_pathgroup" role="graphics-object" aria-roledescription="group mark container"><g transform="translate(0,0)"><path class="background" aria-hidden="true" d="M0,0h400v400h-400Z"></path><g><g class="mark-line role-mark concat_0_layer_0_marks" clip-path="url(#clip1)" role="graphics-object" aria-roledescription="line mark container"><path aria-label="Type: Recovered; Date: Mar 01; Count: 0" role="graphics-symbol" aria-roledescription="line mark" d="M-2124.4444444444443,350L-2097.777777777778,350L-2071.1111111111113,350L-2044.4444444444443,350L-2017.7777777777778,350L-1991.111111111111,350L-1964.4444444444446,350L-1937.7777777777776,350L-1912.2222222222224,350L-1885.5555555555554,350L-1858.888888888889,350L-1832.2222222222222,350L-1805.5555555555557,350L-1778.8888888888887,350L-1752.2222222222222,347.75L-1725.5555555555557,350L-1698.8888888888887,350L-1672.2222222222222,350L-1645.5555555555557,350L-1618.888888888889,350L-1592.2222222222222,350L-1565.5555555555554,350L-1538.888888888889,350L-1512.2222222222222,350L-1485.5555555555557,350L-1458.888888888889,350L-1432.2222222222222,350L-1405.5555555555554,350L-1378.888888888889,350L-1352.2222222222222,350L-1325.5555555555557,350L-1298.888888888889,350L-1272.2222222222222,277.5L-1245.5555555555557,350L-1218.888888888889,350L-1192.2222222222222,350L-1165.5555555555554,350L-1138.888888888889,350L-1112.2222222222222,350L-1085.5555555555557,350L-1058.888888888889,350L-1032.2222222222222,350L-1005.5555555555555,350L-978.8888888888889,350L-952.2222222222222,350L-925.5555555555557,350L-898.8888888888889,0L-872.2222222222222,350L-845.5555555555555,350L-818.8888888888888,350L-792.2222222222223,275L-765.5555555555555,350L-738.8888888888889,350L-712.2222222222222,350L-685.5555555555555,225L-658.8888888888889,350L-632.2222222222222,350L-605.5555555555555,350L-578.8888888888889,275L-552.2222222222222,350L-525.5555555555555,300L-498.8888888888889,350L-472.22222222222223,350L-445.55555555555554,350L-418.8888888888889,225L-392.22222222222223,350L-365.55555555555554,350L-338.88888888888886,350L-312.22222222222223,225L-285.55555555555554,350L-258.8888888888889,350L-232.22222222222223,350L-205.55555555555554,275L-178.88888888888889,350L-152.22222222222223,350L-125.55555555555556,175L-98.88888888888889,350L-72.22222222222221,350L-45.55555555555556,350L-18.88888888888889,350L7.777777777777778,400L34.44444444444444,350L61.111111111111114,350L87.77777777777777,350L114.44444444444444,350L141.11111111111111,275L167.77777777777777,350L194.44444444444443,350L221.11111111111111,250L247.77777777777777,350L274.44444444444446,350L301.1111111111111,350L327.77777777777777,350L354.44444444444446,350L381.1111111111111,350L407.77777777777777,275" stroke="#e45756" stroke-width="2" opacity="0.2"></path></g></g><path class="foreground" aria-hidden="true" d="" display="none"></path></g><g transform="translate(0,0)"><path class="background" aria-hidden="true" d="M0,0h400v400h-400Z"></path><g><g class="mark-line role-mark concat_0_layer_0_marks" clip-path="url(#clip2)" role="graphics-object" aria-roledescription="line mark container"><path aria-label="Type: Deaths; Date: Mar 01; Count: 0" role="graphics-symbol" aria-roledescription="line mark" d="M-2124.4444444444443,350L-2097.777777777778,350L-2071.1111111111113,350L-2044.4444444444443,350L-2017.7777777777778,350L-1991.111111111111,350L-1964.4444444444446,350L-1937.7777777777776,350L-1912.2222222222224,350L-1885.5555555555554,350L-1858.888888888889,350L-1832.2222222222222,350L-1805.5555555555557,350L-1778.8888888888887,350L-1752.2222222222222,350L-1725.5555555555557,350L-1698.8888888888887,350L-1672.2222222222222,350L-1645.5555555555557,350L-1618.888888888889,350L-1592.2222222222222,349.75L-1565.5555555555554,350L-1538.888888888889,350L-1512.2222222222222,350L-1485.5555555555557,349.5L-1458.888888888889,349.5L-1432.2222222222222,349.5L-1405.5555555555554,349.5L-1378.888888888889,349.5L-1352.2222222222222,349.5L-1325.5555555555557,349L-1298.888888888889,350L-1272.2222222222222,349.5L-1245.5555555555557,349.75L-1218.888888888889,348.75L-1192.2222222222222,349.25L-1165.5555555555554,350.25L-1138.888888888889,348.25L-1112.2222222222222,348.5L-1085.5555555555557,349.5L-1058.888888888889,348.5L-1032.2222222222222,349.75L-1005.5555555555555,348.25L-978.8888888888889,349.25L-952.2222222222222,348.75L-925.5555555555557,348L-898.8888888888889,349.25L-872.2222222222222,348.25L-845.5555555555555,348L-818.8888888888888,349L-792.2222222222223,349L-765.5555555555555,339.25L-738.8888888888889,348L-712.2222222222222,344.25L-685.5555555555555,348.75L-658.8888888888889,347.75L-632.2222222222222,349L-605.5555555555555,349.25L-578.8888888888889,348.5L-552.2222222222222,348.25L-525.5555555555555,348.75L-498.8888888888889,348.25L-472.22222222222223,349.5L-445.55555555555554,347.5L-418.8888888888889,347.5L-392.22222222222223,348.5L-365.55555555555554,348.5L-338.88888888888886,349.25L-312.22222222222223,348.75L-285.55555555555554,348.75L-258.8888888888889,349.5L-232.22222222222223,349L-205.55555555555554,349L-178.88888888888889,347.75L-152.22222222222223,349.25L-125.55555555555556,348.5L-98.88888888888889,349L-72.22222222222221,349.75L-45.55555555555556,349.5L-18.88888888888889,349.75L7.777777777777778,349.25L34.44444444444444,349.5L61.111111111111114,350L87.77777777777777,350L114.44444444444444,349.75L141.11111111111111,349.75L167.77777777777777,349L194.44444444444443,349.75L221.11111111111111,350L247.77777777777777,349.75L274.44444444444446,349.5L301.1111111111111,349L327.77777777777777,350.5L354.44444444444446,349.5L381.1111111111111,349.75L407.77777777777777,349.75" stroke="#f58518" stroke-width="2" opacity="0.2"></path></g></g><path class="foreground" aria-hidden="true" d="" display="none"></path></g><g transform="translate(0,0)"><path class="background" aria-hidden="true" d="M0,0h400v400h-400Z"></path><g><g class="mark-line role-mark concat_0_layer_0_marks" clip-path="url(#clip3)" role="graphics-object" aria-roledescription="line mark container"><path aria-label="Type: Confirmed; Date: Mar 01; Count: 3" role="graphics-symbol" aria-roledescription="line mark" d="M-2124.4444444444443,349.25L-2097.777777777778,350L-2071.1111111111113,350L-2044.4444444444443,350L-2017.7777777777778,348.5L-1991.111111111111,349.25L-1964.4444444444446,350L-1937.7777777777776,348L-1912.2222222222224,348.25L-1885.5555555555554,347.5L-1858.888888888889,345.25L-1832.2222222222222,350L-1805.5555555555557,326L-1778.8888888888887,332.5L-1752.2222222222222,345.25L-1725.5555555555557,341.75L-1698.8888888888887,339L-1672.2222222222222,346.25L-1645.5555555555557,334L-1618.888888888889,337.5L-1592.2222222222222,331.75L-1565.5555555555554,324.25L-1538.888888888889,331.5L-1512.2222222222222,327L-1485.5555555555557,328L-1458.888888888889,330.5L-1432.2222222222222,329.25L-1405.5555555555554,318.5L-1378.888888888889,331.75L-1352.2222222222222,322L-1325.5555555555557,333.5L-1298.888888888889,343L-1272.2222222222222,332L-1245.5555555555557,325.75L-1218.888888888889,283.25L-1192.2222222222222,338.75L-1165.5555555555554,287.75L-1138.888888888889,317L-1112.2222222222222,305.25L-1085.5555555555557,320.5L-1058.888888888889,309L-1032.2222222222222,316L-1005.5555555555555,332.75L-978.8888888888889,327.5L-952.2222222222222,325.75L-925.5555555555557,331L-898.8888888888889,317L-872.2222222222222,320L-845.5555555555555,302L-818.8888888888888,324.5L-792.2222222222223,328.75L-765.5555555555555,313.5L-738.8888888888889,321.25L-712.2222222222222,311.25L-685.5555555555555,322.25L-658.8888888888889,330L-632.2222222222222,324.75L-605.5555555555555,320.25L-578.8888888888889,338.75L-552.2222222222222,308.5L-525.5555555555555,327.75L-498.8888888888889,336L-472.22222222222223,318.75L-445.55555555555554,330.5L-418.8888888888889,331.75L-392.22222222222223,328.75L-365.55555555555554,309.75L-338.88888888888886,325L-312.22222222222223,333.75L-285.55555555555554,314.5L-258.8888888888889,329.5L-232.22222222222223,344.5L-205.55555555555554,345.25L-178.88888888888889,337.25L-152.22222222222223,327.25L-125.55555555555556,329.25L-98.88888888888889,335.5L-72.22222222222221,334.75L-45.55555555555556,341.75L-18.88888888888889,345.25L7.777777777777778,339L34.44444444444444,337.5L61.111111111111114,339L87.77777777777777,342.25L114.44444444444444,347.25L141.11111111111111,345L167.77777777777777,342.75L194.44444444444443,334L221.11111111111111,337.25L247.77777777777777,341.75L274.44444444444446,337.5L301.1111111111111,341.75L327.77777777777777,343.5L354.44444444444446,349.5L381.1111111111111,344L407.77777777777777,350" stroke="#4c78a8" stroke-width="2" opacity="0.2"></path></g></g><path class="foreground" aria-hidden="true" d="" display="none"></path></g></g><g class="mark-group role-scope concat_0_layer_1_pathgroup" role="graphics-object" aria-roledescription="group mark container"><g transform="translate(0,0)"><path class="background" aria-hidden="true" d="M0,0h400v400h-400Z"></path><g><g class="mark-line role-mark concat_0_layer_1_marks" clip-path="url(#clip4)" role="graphics-object" aria-roledescription="line mark container"><path aria-label="Type: Recovered; Date: Mar 01; Count: 0" role="graphics-symbol" aria-roledescription="line mark" d="M-1964.4444444444446,350L-1937.7777777777776,350L-1912.2222222222224,350L-1885.5555555555554,350L-1858.888888888889,350L-1832.2222222222222,350L-1805.5555555555557,350L-1778.8888888888887,350L-1752.2222222222222,349.67857142857144L-1725.5555555555557,349.67857142857144L-1698.8888888888887,349.67857142857144L-1672.2222222222222,349.67857142857144L-1645.5555555555557,349.67857142857144L-1618.888888888889,349.67857142857144L-1592.2222222222222,349.67857142857144L-1565.5555555555554,350L-1538.888888888889,350L-1512.2222222222222,350L-1485.5555555555557,350L-1458.888888888889,350L-1432.2222222222222,350L-1405.5555555555554,350L-1378.888888888889,350L-1352.2222222222222,350L-1325.5555555555557,350L-1298.888888888889,350L-1272.2222222222222,339.6428571428571L-1245.5555555555557,339.6428571428571L-1218.888888888889,339.6428571428571L-1192.2222222222222,339.6428571428571L-1165.5555555555554,339.6428571428571L-1138.888888888889,339.6428571428571L-1112.2222222222222,339.6428571428571L-1085.5555555555557,350L-1058.888888888889,350L-1032.2222222222222,350L-1005.5555555555555,350L-978.8888888888889,350L-952.2222222222222,350L-925.5555555555557,350L-898.8888888888889,300L-872.2222222222222,300L-845.5555555555555,300L-818.8888888888888,300L-792.2222222222223,289.2857142857143L-765.5555555555555,289.2857142857143L-738.8888888888889,289.2857142857143L-712.2222222222222,339.2857142857143L-685.5555555555555,321.42857142857144L-658.8888888888889,321.42857142857144L-632.2222222222222,321.42857142857144L-605.5555555555555,332.1428571428571L-578.8888888888889,321.42857142857144L-552.2222222222222,321.42857142857144L-525.5555555555555,314.2857142857143L-498.8888888888889,332.1428571428571L-472.22222222222223,332.1428571428571L-445.55555555555554,332.1428571428571L-418.8888888888889,314.2857142857143L-392.22222222222223,325L-365.55555555555554,325L-338.88888888888886,332.1428571428571L-312.22222222222223,314.2857142857143L-285.55555555555554,314.2857142857143L-258.8888888888889,314.2857142857143L-232.22222222222223,332.1428571428571L-205.55555555555554,321.42857142857144L-178.88888888888889,321.42857142857144L-152.22222222222223,321.42857142857144L-125.55555555555556,314.2857142857143L-98.88888888888889,314.2857142857143L-72.22222222222221,314.2857142857143L-45.55555555555556,314.2857142857143L-18.88888888888889,325L7.777777777777778,332.1428571428571L34.44444444444444,332.1428571428571L61.111111111111114,357.14285714285717L87.77777777777777,357.14285714285717L114.44444444444444,357.14285714285717L141.11111111111111,346.42857142857144L167.77777777777777,346.42857142857144L194.44444444444443,339.2857142857143L221.11111111111111,325L247.77777777777777,325L274.44444444444446,325L301.1111111111111,325L327.77777777777777,335.7142857142857L354.44444444444446,335.7142857142857L381.1111111111111,335.7142857142857L407.77777777777777,339.2857142857143" stroke="#e45756" stroke-width="2" opacity="1"></path></g></g><path class="foreground" aria-hidden="true" d="" display="none"></path></g><g transform="translate(0,0)"><path class="background" aria-hidden="true" d="M0,0h400v400h-400Z"></path><g><g class="mark-line role-mark concat_0_layer_1_marks" clip-path="url(#clip5)" role="graphics-object" aria-roledescription="line mark container"><path aria-label="Type: Deaths; Date: Mar 01; Count: 0" role="graphics-symbol" aria-roledescription="line mark" d="M-1964.4444444444446,350L-1937.7777777777776,350L-1912.2222222222224,350L-1885.5555555555554,350L-1858.888888888889,350L-1832.2222222222222,350L-1805.5555555555557,350L-1778.8888888888887,350L-1752.2222222222222,350L-1725.5555555555557,350L-1698.8888888888887,350L-1672.2222222222222,350L-1645.5555555555557,350L-1618.888888888889,350L-1592.2222222222222,349.9642857142857L-1565.5555555555554,349.9642857142857L-1538.888888888889,349.9642857142857L-1512.2222222222222,349.9642857142857L-1485.5555555555557,349.8928571428571L-1458.888888888889,349.8214285714286L-1432.2222222222222,349.75L-1405.5555555555554,349.7142857142857L-1378.888888888889,349.64285714285717L-1352.2222222222222,349.57142857142856L-1325.5555555555557,349.42857142857144L-1298.888888888889,349.5L-1272.2222222222222,349.5L-1245.5555555555557,349.5357142857143L-1218.888888888889,349.42857142857144L-1192.2222222222222,349.39285714285717L-1165.5555555555554,349.5L-1138.888888888889,349.39285714285717L-1112.2222222222222,349.17857142857144L-1085.5555555555557,349.17857142857144L-1058.888888888889,349L-1032.2222222222222,349.14285714285717L-1005.5555555555555,349L-978.8888888888889,348.85714285714283L-952.2222222222222,348.92857142857144L-925.5555555555557,348.85714285714283L-898.8888888888889,348.82142857142856L-872.2222222222222,348.7857142857143L-845.5555555555555,348.5357142857143L-818.8888888888888,348.6428571428571L-792.2222222222223,348.60714285714283L-765.5555555555555,347.25L-738.8888888888889,347.25L-712.2222222222222,346.5357142857143L-685.5555555555555,346.60714285714283L-658.8888888888889,346.57142857142856L-632.2222222222222,346.57142857142856L-605.5555555555555,346.60714285714283L-578.8888888888889,347.9285714285714L-552.2222222222222,347.9642857142857L-525.5555555555555,348.60714285714283L-498.8888888888889,348.5357142857143L-472.22222222222223,348.7857142857143L-445.55555555555554,348.57142857142856L-418.8888888888889,348.32142857142856L-392.22222222222223,348.32142857142856L-365.55555555555554,348.35714285714283L-338.88888888888886,348.42857142857144L-312.22222222222223,348.5L-285.55555555555554,348.39285714285717L-258.8888888888889,348.67857142857144L-232.22222222222223,348.89285714285717L-205.55555555555554,348.9642857142857L-178.88888888888889,348.85714285714283L-152.22222222222223,348.85714285714283L-125.55555555555556,348.82142857142856L-98.88888888888889,348.85714285714283L-72.22222222222221,348.89285714285717L-45.55555555555556,348.9642857142857L-18.88888888888889,349.07142857142856L7.777777777777778,349.2857142857143L34.44444444444444,349.32142857142856L61.111111111111114,349.5357142857143L87.77777777777777,349.67857142857144L114.44444444444444,349.67857142857144L141.11111111111111,349.7142857142857L167.77777777777777,349.6071428571429L194.44444444444443,349.67857142857144L221.11111111111111,349.75L247.77777777777777,349.7142857142857L274.44444444444446,349.64285714285717L301.1111111111111,349.5357142857143L327.77777777777777,349.64285714285717L354.44444444444446,349.7142857142857L381.1111111111111,349.7142857142857L407.77777777777777,349.67857142857144" stroke="#f58518" stroke-width="2" opacity="1"></path></g></g><path class="foreground" aria-hidden="true" d="" display="none"></path></g><g transform="translate(0,0)"><path class="background" aria-hidden="true" d="M0,0h400v400h-400Z"></path><g><g class="mark-line role-mark concat_0_layer_1_marks" clip-path="url(#clip6)" role="graphics-object" aria-roledescription="line mark container"><path aria-label="Type: Confirmed; Date: Mar 01; Count: 0" role="graphics-symbol" aria-roledescription="line mark" d="M-1964.4444444444446,349.57142857142856L-1937.7777777777776,349.39285714285717L-1912.2222222222224,349.14285714285717L-1885.5555555555554,348.7857142857143L-1858.888888888889,348.10714285714283L-1832.2222222222222,348.32142857142856L-1805.5555555555557,345L-1778.8888888888887,342.5L-1752.2222222222222,342.10714285714283L-1725.5555555555557,341.17857142857144L-1698.8888888888887,339.9642857142857L-1672.2222222222222,340.10714285714283L-1645.5555555555557,337.82142857142856L-1618.888888888889,339.4642857142857L-1592.2222222222222,339.3571428571429L-1565.5555555555554,336.35714285714283L-1538.888888888889,334.89285714285717L-1512.2222222222222,333.1785714285714L-1485.5555555555557,330.57142857142856L-1458.888888888889,330.07142857142856L-1432.2222222222222,328.89285714285717L-1405.5555555555554,327L-1378.888888888889,328.07142857142856L-1352.2222222222222,326.7142857142857L-1325.5555555555557,327.6428571428571L-1298.888888888889,329.7857142857143L-1272.2222222222222,330L-1245.5555555555557,329.5L-1218.888888888889,324.4642857142857L-1192.2222222222222,325.4642857142857L-1165.5555555555554,320.57142857142856L-1138.888888888889,318.2142857142857L-1112.2222222222222,312.82142857142856L-1085.5555555555557,311.17857142857144L-1058.888888888889,308.7857142857143L-1032.2222222222222,313.4642857142857L-1005.5555555555555,312.6071428571429L-978.8888888888889,318.2857142857143L-952.2222222222222,319.5357142857143L-925.5555555555557,323.2142857142857L-898.8888888888889,322.7142857142857L-872.2222222222222,324.2857142857143L-845.5555555555555,322.2857142857143L-818.8888888888888,321.10714285714283L-792.2222222222223,321.2857142857143L-765.5555555555555,319.5357142857143L-738.8888888888889,318.14285714285717L-712.2222222222222,317.32142857142856L-685.5555555555555,317.64285714285717L-658.8888888888889,321.64285714285717L-632.2222222222222,321.67857142857144L-605.5555555555555,320.4642857142857L-578.8888888888889,324.07142857142856L-552.2222222222222,322.25L-525.5555555555555,324.6071428571429L-498.8888888888889,326.57142857142856L-472.22222222222223,324.9642857142857L-445.55555555555554,325.7857142857143L-418.8888888888889,327.42857142857144L-392.22222222222223,326L-365.55555555555554,326.17857142857144L-338.88888888888886,325.7857142857143L-312.22222222222223,325.4642857142857L-285.55555555555554,324.8571428571429L-258.8888888888889,324.7142857142857L-232.22222222222223,326.5357142857143L-205.55555555555554,328.89285714285717L-178.88888888888889,332.82142857142856L-152.22222222222223,333.14285714285717L-125.55555555555556,332.5L-98.88888888888889,335.5L-72.22222222222221,336.25L-45.55555555555556,335.85714285714283L-18.88888888888889,335.85714285714283L7.777777777777778,336.10714285714283L34.44444444444444,337.57142857142856L61.111111111111114,338.9642857142857L87.77777777777777,339.92857142857144L114.44444444444444,341.7142857142857L141.11111111111111,342.17857142857144L167.77777777777777,341.8214285714286L194.44444444444443,341.1071428571429L221.11111111111111,341.07142857142856L247.77777777777777,341.4642857142857L274.44444444444446,340.7857142857143L301.1111111111111,340L327.77777777777777,339.7857142857143L354.44444444444446,340.75L381.1111111111111,342.17857142857144L407.77777777777777,344" stroke="#4c78a8" stroke-width="2" opacity="1"></path></g></g><path class="foreground" aria-hidden="true" d="" display="none"></path></g></g><g class="mark-group role-title"><g transform="translate(200,-54)"><path class="background" aria-hidden="true" d="M0,0h0v0h0Z" pointer-events="none"></path><g><g class="mark-text role-title-text" role="graphics-symbol" aria-roledescription="title" aria-label="Title text '7-day average (light color: daily values) [2020-06-04]'" pointer-events="none"><text text-anchor="middle" transform="translate(0,10)" font-family="Roboto Condensed" font-size="13px" font-weight="normal" fill="#000" opacity="1"><tspan>7-day average (light color: daily values)</tspan><tspan x="0" dy="15">[2020-06-04]</tspan></text></g></g><path class="foreground" aria-hidden="true" d="" pointer-events="none" display="none"></path></g></g></g><path class="foreground" aria-hidden="true" d="" display="none"></path></g></g><g class="mark-group role-scope concat_1_group" role="graphics-object" aria-roledescription="group mark container"><g transform="translate(465,0)"><path class="background" aria-hidden="true" d="M0,0h400v400h-400Z" stroke="#ddd" stroke-width="0"></path><g><g class="mark-group role-axis" aria-hidden="true"><g transform="translate(0.5,0.5)"><path class="background" aria-hidden="true" d="M0,0h0v0h0Z" pointer-events="none"></path><g><g class="mark-rule role-axis-grid" pointer-events="none"><line transform="translate(0,400)" x2="400" y2="0" stroke="#ddd" stroke-width="1" opacity="1"></line><line transform="translate(0,371)" x2="400" y2="0" stroke="#ddd" stroke-width="1" opacity="1"></line><line transform="translate(0,343)" x2="400" y2="0" stroke="#ddd" stroke-width="1" opacity="1"></line><line transform="translate(0,314)" x2="400" y2="0" stroke="#ddd" stroke-width="1" opacity="1"></line><line transform="translate(0,286)" x2="400" y2="0" stroke="#ddd" stroke-width="1" opacity="1"></line><line transform="translate(0,257)" x2="400" y2="0" stroke="#ddd" stroke-width="1" opacity="1"></line><line transform="translate(0,229)" x2="400" y2="0" stroke="#ddd" stroke-width="1" opacity="1"></line><line transform="translate(0,200)" x2="400" y2="0" stroke="#ddd" stroke-width="1" opacity="1"></line><line transform="translate(0,171)" x2="400" y2="0" stroke="#ddd" stroke-width="1" opacity="1"></line><line transform="translate(0,143)" x2="400" y2="0" stroke="#ddd" stroke-width="1" opacity="1"></line><line transform="translate(0,114)" x2="400" y2="0" stroke="#ddd" stroke-width="1" opacity="1"></line><line transform="translate(0,86)" x2="400" y2="0" stroke="#ddd" stroke-width="1" opacity="1"></line><line transform="translate(0,57)" x2="400" y2="0" stroke="#ddd" stroke-width="1" opacity="1"></line><line transform="translate(0,29)" x2="400" y2="0" stroke="#ddd" stroke-width="1" opacity="1"></line><line transform="translate(0,0)" x2="400" y2="0" stroke="#ddd" stroke-width="1" opacity="1"></line></g></g><path class="foreground" aria-hidden="true" d="" pointer-events="none" display="none"></path></g></g><g class="mark-group role-axis" role="graphics-symbol" aria-roledescription="axis" aria-label="X-axis titled 'Date' for a time scale with values from May 19 to June 03"><g transform="translate(0.5,400.5)"><path class="background" aria-hidden="true" d="M0,0h0v0h0Z" pointer-events="none"></path><g><g class="mark-text role-axis-label" pointer-events="none"><text text-anchor="middle" transform="translate(34.44444444444444,10)" font-family="Roboto Condensed" font-size="10px" fill="#000" opacity="1">May 21</text><text text-anchor="middle" transform="translate(87.77777777777777,10)" font-family="Roboto Condensed" font-size="10px" fill="#000" opacity="0">May 23</text><text text-anchor="middle" transform="translate(141.11111111111111,10)" font-family="Roboto Condensed" font-size="10px" fill="#000" opacity="1">May 25</text><text text-anchor="middle" transform="translate(194.44444444444443,10)" font-family="Roboto Condensed" font-size="10px" fill="#000" opacity="0">May 27</text><text text-anchor="middle" transform="translate(247.77777777777777,10)" font-family="Roboto Condensed" font-size="10px" fill="#000" opacity="1">May 29</text><text text-anchor="middle" transform="translate(301.1111111111111,10)" font-family="Roboto Condensed" font-size="10px" fill="#000" opacity="0">May 31</text><text text-anchor="middle" transform="translate(327.77777777777777,10)" font-family="Roboto Condensed" font-size="10px" fill="#000" opacity="1">Jun 01</text><text text-anchor="middle" transform="translate(381.1111111111111,10)" font-family="Roboto Condensed" font-size="10px" fill="#000" opacity="0">Jun 03</text></g><g class="mark-rule role-axis-domain" pointer-events="none"><line transform="translate(0,0)" x2="400" y2="0" stroke="lightgray" stroke-width="1" opacity="1"></line></g><g class="mark-text role-axis-title" pointer-events="none"><text text-anchor="middle" transform="translate(200,25)" font-family="Roboto Condensed" font-size="11px" font-weight="normal" fill="#000" opacity="1">Date</text></g></g><path class="foreground" aria-hidden="true" d="" pointer-events="none" display="none"></path></g></g><g class="mark-group role-axis" role="graphics-symbol" aria-roledescription="axis" aria-label="Y-axis titled 'Count' for a linear scale with values from 0 to 7,000"><g transform="translate(0.5,0.5)"><path class="background" aria-hidden="true" d="M0,0h0v0h0Z" pointer-events="none"></path><g><g class="mark-text role-axis-label" pointer-events="none"><text text-anchor="end" transform="translate(-2,403)" font-family="Roboto Condensed" font-size="10px" fill="#000" opacity="1">0</text><text text-anchor="end" transform="translate(-2,374.42857142857144)" font-family="Roboto Condensed" font-size="10px" fill="#000" opacity="1">500</text><text text-anchor="end" transform="translate(-2,345.8571428571429)" font-family="Roboto Condensed" font-size="10px" fill="#000" opacity="1">1,000</text><text text-anchor="end" transform="translate(-2,317.2857142857143)" font-family="Roboto Condensed" font-size="10px" fill="#000" opacity="1">1,500</text><text text-anchor="end" transform="translate(-2,288.7142857142857)" font-family="Roboto Condensed" font-size="10px" fill="#000" opacity="1">2,000</text><text text-anchor="end" transform="translate(-2,260.1428571428571)" font-family="Roboto Condensed" font-size="10px" fill="#000" opacity="1">2,500</text><text text-anchor="end" transform="translate(-2,231.57142857142856)" font-family="Roboto Condensed" font-size="10px" fill="#000" opacity="1">3,000</text><text text-anchor="end" transform="translate(-2,203)" font-family="Roboto Condensed" font-size="10px" fill="#000" opacity="1">3,500</text><text text-anchor="end" transform="translate(-2,174.42857142857144)" font-family="Roboto Condensed" font-size="10px" fill="#000" opacity="1">4,000</text><text text-anchor="end" transform="translate(-2,145.85714285714283)" font-family="Roboto Condensed" font-size="10px" fill="#000" opacity="1">4,500</text><text text-anchor="end" transform="translate(-2,117.28571428571428)" font-family="Roboto Condensed" font-size="10px" fill="#000" opacity="1">5,000</text><text text-anchor="end" transform="translate(-2,88.71428571428572)" font-family="Roboto Condensed" font-size="10px" fill="#000" opacity="1">5,500</text><text text-anchor="end" transform="translate(-2,60.14285714285716)" font-family="Roboto Condensed" font-size="10px" fill="#000" opacity="1">6,000</text><text text-anchor="end" transform="translate(-2,31.57142857142856)" font-family="Roboto Condensed" font-size="10px" fill="#000" opacity="1">6,500</text><text text-anchor="end" transform="translate(-2,3)" font-family="Roboto Condensed" font-size="10px" fill="#000" opacity="1">7,000</text></g><g class="mark-rule role-axis-domain" pointer-events="none"><line transform="translate(0,400)" x2="0" y2="-400" stroke="lightgray" stroke-width="1" opacity="1"></line></g><g class="mark-text role-axis-title" pointer-events="none"><text text-anchor="start" transform="translate(-45,-13)" font-family="Roboto Condensed" font-size="11px" font-weight="normal" fill="#000" opacity="1">Count</text></g></g><path class="foreground" aria-hidden="true" d="" pointer-events="none" display="none"></path></g></g><g class="mark-group role-scope concat_1_pathgroup" role="graphics-object" aria-roledescription="group mark container"><g transform="translate(0,0)"><path class="background" aria-hidden="true" d="M0,0h400v400h-400Z"></path><g><g class="mark-line role-mark concat_1_marks" clip-path="url(#clip7)" role="graphics-object" aria-roledescription="line mark container"><path aria-label="Type: Recovered; Date: Mar 01; Country: Finland; Confirmed: 6; Recovered: 1; Deaths: 0; Count: 1" role="graphics-symbol" aria-roledescription="line mark" d="M-2124.4444444444443,399.9428571428572L-2097.777777777778,399.9428571428572L-2071.1111111111113,399.9428571428572L-2044.4444444444443,399.9428571428572L-2017.7777777777778,399.9428571428572L-1991.111111111111,399.9428571428572L-1964.4444444444446,399.9428571428572L-1937.7777777777776,399.9428571428572L-1912.2222222222224,399.9428571428572L-1885.5555555555554,399.9428571428572L-1858.888888888889,399.9428571428572L-1832.2222222222222,399.9428571428572L-1805.5555555555557,399.9428571428572L-1778.8888888888887,399.9428571428572L-1752.2222222222222,399.42857142857144L-1725.5555555555557,399.42857142857144L-1698.8888888888887,399.42857142857144L-1672.2222222222222,399.42857142857144L-1645.5555555555557,399.42857142857144L-1618.888888888889,399.42857142857144L-1592.2222222222222,399.42857142857144L-1565.5555555555554,399.42857142857144L-1538.888888888889,399.42857142857144L-1512.2222222222222,399.42857142857144L-1485.5555555555557,399.42857142857144L-1458.888888888889,399.42857142857144L-1432.2222222222222,399.42857142857144L-1405.5555555555554,399.42857142857144L-1378.888888888889,399.42857142857144L-1352.2222222222222,399.42857142857144L-1325.5555555555557,399.42857142857144L-1298.888888888889,399.42857142857144L-1272.2222222222222,382.8571428571429L-1245.5555555555557,382.8571428571429L-1218.888888888889,382.8571428571429L-1192.2222222222222,382.8571428571429L-1165.5555555555554,382.8571428571429L-1138.888888888889,382.8571428571429L-1112.2222222222222,382.8571428571429L-1085.5555555555557,382.8571428571429L-1058.888888888889,382.8571428571429L-1032.2222222222222,382.8571428571429L-1005.5555555555555,382.8571428571429L-978.8888888888889,382.8571428571429L-952.2222222222222,382.8571428571429L-925.5555555555557,382.8571428571429L-898.8888888888889,302.85714285714283L-872.2222222222222,302.85714285714283L-845.5555555555555,302.85714285714283L-818.8888888888888,302.85714285714283L-792.2222222222223,285.7142857142857L-765.5555555555555,285.7142857142857L-738.8888888888889,285.7142857142857L-712.2222222222222,285.7142857142857L-685.5555555555555,257.1428571428571L-658.8888888888889,257.1428571428571L-632.2222222222222,257.1428571428571L-605.5555555555555,257.1428571428571L-578.8888888888889,240L-552.2222222222222,240L-525.5555555555555,228.57142857142856L-498.8888888888889,228.57142857142856L-472.22222222222223,228.57142857142856L-445.55555555555554,228.57142857142856L-418.8888888888889,200L-392.22222222222223,200L-365.55555555555554,200L-338.88888888888886,200L-312.22222222222223,171.42857142857144L-285.55555555555554,171.42857142857144L-258.8888888888889,171.42857142857144L-232.22222222222223,171.42857142857144L-205.55555555555554,154.28571428571428L-178.88888888888889,154.28571428571428L-152.22222222222223,154.28571428571428L-125.55555555555556,114.28571428571428L-98.88888888888889,114.28571428571428L-72.22222222222221,114.28571428571428L-45.55555555555556,114.28571428571428L-18.88888888888889,114.28571428571428L7.777777777777778,125.71428571428571L34.44444444444444,125.71428571428571L61.111111111111114,125.71428571428571L87.77777777777777,125.71428571428571L114.44444444444444,125.71428571428571L141.11111111111111,108.57142857142858L167.77777777777777,108.57142857142858L194.44444444444443,108.57142857142858L221.11111111111111,85.71428571428572L247.77777777777777,85.71428571428572L274.44444444444446,85.71428571428572L301.1111111111111,85.71428571428572L327.77777777777777,85.71428571428572L354.44444444444446,85.71428571428572L381.1111111111111,85.71428571428572L407.77777777777777,68.57142857142856" stroke="#e45756" stroke-width="2" opacity="0.7"></path></g></g><path class="foreground" aria-hidden="true" d="" display="none"></path></g><g transform="translate(0,0)"><path class="background" aria-hidden="true" d="M0,0h400v400h-400Z"></path><g><g class="mark-line role-mark concat_1_marks" clip-path="url(#clip8)" role="graphics-object" aria-roledescription="line mark container"><path aria-label="Type: Deaths; Date: Mar 01; Country: Finland; Confirmed: 6; Recovered: 1; Deaths: 0; Count: 0" role="graphics-symbol" aria-roledescription="line mark" d="M-2124.4444444444443,400L-2097.777777777778,400L-2071.1111111111113,400L-2044.4444444444443,400L-2017.7777777777778,400L-1991.111111111111,400L-1964.4444444444446,400L-1937.7777777777776,400L-1912.2222222222224,400L-1885.5555555555554,400L-1858.888888888889,400L-1832.2222222222222,400L-1805.5555555555557,400L-1778.8888888888887,400L-1752.2222222222222,400L-1725.5555555555557,400L-1698.8888888888887,400L-1672.2222222222222,400L-1645.5555555555557,400L-1618.888888888889,400L-1592.2222222222222,399.9428571428572L-1565.5555555555554,399.9428571428572L-1538.888888888889,399.9428571428572L-1512.2222222222222,399.9428571428572L-1485.5555555555557,399.8285714285714L-1458.888888888889,399.7142857142857L-1432.2222222222222,399.6L-1405.5555555555554,399.48571428571427L-1378.888888888889,399.37142857142857L-1352.2222222222222,399.25714285714287L-1325.5555555555557,399.0285714285714L-1298.888888888889,399.0285714285714L-1272.2222222222222,398.9142857142857L-1245.5555555555557,398.85714285714283L-1218.888888888889,398.57142857142856L-1192.2222222222222,398.4L-1165.5555555555554,398.45714285714286L-1138.888888888889,398.0571428571428L-1112.2222222222222,397.7142857142857L-1085.5555555555557,397.6L-1058.888888888889,397.25714285714287L-1032.2222222222222,397.2L-1005.5555555555555,396.8L-978.8888888888889,396.62857142857143L-952.2222222222222,396.34285714285716L-925.5555555555557,395.8857142857143L-898.8888888888889,395.7142857142857L-872.2222222222222,395.31428571428575L-845.5555555555555,394.85714285714283L-818.8888888888888,394.62857142857143L-792.2222222222223,394.4L-765.5555555555555,391.9428571428571L-738.8888888888889,391.4857142857143L-712.2222222222222,390.1714285714286L-685.5555555555555,389.8857142857143L-658.8888888888889,389.37142857142857L-632.2222222222222,389.14285714285717L-605.5555555555555,388.9714285714286L-578.8888888888889,388.62857142857143L-552.2222222222222,388.2285714285714L-525.5555555555555,387.9428571428571L-498.8888888888889,387.54285714285714L-472.22222222222223,387.4285714285714L-445.55555555555554,386.8571428571429L-418.8888888888889,386.2857142857143L-392.22222222222223,385.9428571428571L-365.55555555555554,385.59999999999997L-338.88888888888886,385.4285714285714L-312.22222222222223,385.14285714285717L-285.55555555555554,384.8571428571429L-258.8888888888889,384.74285714285713L-232.22222222222223,384.51428571428573L-205.55555555555554,384.2857142857143L-178.88888888888889,383.77142857142854L-152.22222222222223,383.59999999999997L-125.55555555555556,383.25714285714287L-98.88888888888889,383.0285714285714L-72.22222222222221,382.9714285714286L-45.55555555555556,382.8571428571429L-18.88888888888889,382.8L7.777777777777778,382.62857142857143L34.44444444444444,382.51428571428573L61.111111111111114,382.51428571428573L87.77777777777777,382.51428571428573L114.44444444444444,382.45714285714286L141.11111111111111,382.4L167.77777777777777,382.1714285714286L194.44444444444443,382.1142857142857L221.11111111111111,382.1142857142857L247.77777777777777,382.0571428571429L274.44444444444446,381.9428571428571L301.1111111111111,381.7142857142857L327.77777777777777,381.8285714285714L354.44444444444446,381.7142857142857L381.1111111111111,381.65714285714284L407.77777777777777,381.59999999999997" stroke="#f58518" stroke-width="2" opacity="0.7"></path></g></g><path class="foreground" aria-hidden="true" d="" display="none"></path></g><g transform="translate(0,0)"><path class="background" aria-hidden="true" d="M0,0h400v400h-400Z"></path><g><g class="mark-line role-mark concat_1_marks" clip-path="url(#clip9)" role="graphics-object" aria-roledescription="line mark container"><path aria-label="Type: Confirmed; Date: Mar 01; Country: Finland; Confirmed: 6; Recovered: 1; Deaths: 0; Count: 6" role="graphics-symbol" aria-roledescription="line mark" d="M-2124.4444444444443,399.65714285714284L-2097.777777777778,399.65714285714284L-2071.1111111111113,399.65714285714284L-2044.4444444444443,399.65714285714284L-2017.7777777777778,399.31428571428575L-1991.111111111111,399.14285714285717L-1964.4444444444446,399.14285714285717L-1937.7777777777776,398.68571428571425L-1912.2222222222224,398.2857142857143L-1885.5555555555554,397.7142857142857L-1858.888888888889,396.62857142857143L-1832.2222222222222,396.62857142857143L-1805.5555555555557,391.14285714285717L-1778.8888888888887,387.14285714285717L-1752.2222222222222,386.0571428571429L-1725.5555555555557,384.1714285714286L-1698.8888888888887,381.65714285714284L-1672.2222222222222,380.79999999999995L-1645.5555555555557,377.1428571428571L-1618.888888888889,374.2857142857143L-1592.2222222222222,370.1142857142857L-1565.5555555555554,364.22857142857146L-1538.888888888889,360L-1512.2222222222222,354.74285714285713L-1485.5555555555557,349.7142857142857L-1458.888888888889,345.25714285714287L-1432.2222222222222,340.51428571428573L-1405.5555555555554,333.31428571428575L-1378.888888888889,329.1428571428571L-1352.2222222222222,322.74285714285713L-1325.5555555555557,318.97142857142853L-1298.888888888889,317.37142857142857L-1272.2222222222222,313.25714285714287L-1245.5555555555557,307.7142857142857L-1218.888888888889,292.45714285714286L-1192.2222222222222,289.88571428571424L-1165.5555555555554,275.65714285714284L-1138.888888888889,268.1142857142857L-1112.2222222222222,257.8857142857143L-1085.5555555555557,251.14285714285717L-1058.888888888889,241.77142857142857L-1032.2222222222222,234L-1005.5555555555555,230.05714285714288L-978.8888888888889,224.9142857142857L-952.2222222222222,219.3714285714286L-925.5555555555557,215.02857142857144L-898.8888888888889,207.48571428571427L-872.2222222222222,200.62857142857143L-845.5555555555555,189.65714285714284L-818.8888888888888,183.82857142857142L-792.2222222222223,178.97142857142856L-765.5555555555555,170.62857142857143L-738.8888888888889,164.05714285714285L-712.2222222222222,155.20000000000002L-685.5555555555555,148.85714285714283L-658.8888888888889,144.2857142857143L-632.2222222222222,138.51428571428573L-605.5555555555555,131.71428571428572L-578.8888888888889,129.14285714285714L-552.2222222222222,119.65714285714286L-525.5555555555555,114.57142857142858L-498.8888888888889,111.3714285714286L-472.22222222222223,104.22857142857143L-445.55555555555554,99.77142857142857L-418.8888888888889,95.6L-392.22222222222223,90.74285714285715L-365.55555555555554,81.54285714285714L-338.88888888888886,75.82857142857145L-312.22222222222223,72.11428571428571L-285.55555555555554,64.00000000000001L-258.8888888888889,59.314285714285695L-232.22222222222223,58.05714285714285L-205.55555555555554,56.97142857142858L-178.88888888888889,54.05714285714285L-152.22222222222223,48.85714285714285L-125.55555555555556,44.11428571428573L-98.88888888888889,40.79999999999999L-72.22222222222221,37.314285714285724L-45.55555555555556,35.42857142857141L-18.88888888888889,34.34285714285714L7.777777777777778,31.82857142857145L34.44444444444444,28.97142857142856L61.111111111111114,26.45714285714287L87.77777777777777,24.68571428571429L114.44444444444444,24.057142857142864L141.11111111111111,22.91428571428571L167.77777777777777,21.257142857142863L194.44444444444443,17.600000000000016L221.11111111111111,14.68571428571428L247.77777777777777,12.800000000000011L274.44444444444446,9.942857142857164L301.1111111111111,8.057142857142852L327.77777777777777,6.571428571428584L354.44444444444446,6.45714285714285L381.1111111111111,5.085714285714271L407.77777777777777,5.085714285714271" stroke="#4c78a8" stroke-width="2" opacity="0.7"></path></g></g><path class="foreground" aria-hidden="true" d="" display="none"></path></g></g><g class="mark-group role-title"><g transform="translate(200,-54)"><path class="background" aria-hidden="true" d="M0,0h0v0h0Z" pointer-events="none"></path><g><g class="mark-text role-title-text" role="graphics-symbol" aria-roledescription="title" aria-label="Title text 'Total [2020-06-04]'" pointer-events="none"><text text-anchor="middle" transform="translate(0,10)" font-family="Roboto Condensed" font-size="13px" font-weight="normal" fill="#000" opacity="1"><tspan>Total</tspan><tspan x="0" dy="15">[2020-06-04]</tspan></text></g></g><path class="foreground" aria-hidden="true" d="" pointer-events="none" display="none"></path></g></g></g><path class="foreground" aria-hidden="true" d="" display="none"></path></g></g><g class="mark-group role-legend" role="graphics-symbol" aria-roledescription="legend" aria-label="Symbol legend for stroke color with 3 values: Confirmed, Deaths, Recovered"><g transform="translate(883,0)"><path class="background" aria-hidden="true" d="M0,0h58v37h-58Z" pointer-events="none"></path><g><g class="mark-group role-legend-entry"><g transform="translate(0,0)"><path class="background" aria-hidden="true" d="M0,0h0v0h0Z" pointer-events="none"></path><g><g class="mark-group role-scope" role="graphics-object" aria-roledescription="group mark container"><g transform="translate(0,0)"><path class="background" aria-hidden="true" d="M0,0h58v11h-58Z" pointer-events="none" opacity="1"></path><g><g class="mark-symbol role-legend-symbol" pointer-events="none"><path transform="translate(6,6)" d="M-5,0L5,0" stroke="#4c78a8" stroke-width="1.5" opacity="0.2"></path></g><g class="mark-text role-legend-label" pointer-events="none"><text text-anchor="start" transform="translate(16,9)" font-family="Roboto Condensed" font-size="10px" fill="#000" opacity="1">Confirmed</text></g></g><path class="foreground" aria-hidden="true" d="" pointer-events="none" display="none"></path></g><g transform="translate(0,13)"><path class="background" aria-hidden="true" d="M0,0h58v11h-58Z" pointer-events="none" opacity="1"></path><g><g class="mark-symbol role-legend-symbol" pointer-events="none"><path transform="translate(6,6)" d="M-5,0L5,0" stroke="#f58518" stroke-width="1.5" opacity="0.2"></path></g><g class="mark-text role-legend-label" pointer-events="none"><text text-anchor="start" transform="translate(16,9)" font-family="Roboto Condensed" font-size="10px" fill="#000" opacity="1">Deaths</text></g></g><path class="foreground" aria-hidden="true" d="" pointer-events="none" display="none"></path></g><g transform="translate(0,26)"><path class="background" aria-hidden="true" d="M0,0h58v11h-58Z" pointer-events="none" opacity="1"></path><g><g class="mark-symbol role-legend-symbol" pointer-events="none"><path transform="translate(6,6)" d="M-5,0L5,0" stroke="#e45756" stroke-width="1.5" opacity="0.2"></path></g><g class="mark-text role-legend-label" pointer-events="none"><text text-anchor="start" transform="translate(16,9)" font-family="Roboto Condensed" font-size="10px" fill="#000" opacity="1">Recovered</text></g></g><path class="foreground" aria-hidden="true" d="" pointer-events="none" display="none"></path></g></g></g><path class="foreground" aria-hidden="true" d="" pointer-events="none" display="none"></path></g></g></g><path class="foreground" aria-hidden="true" d="" pointer-events="none" display="none"></path></g></g></g><path class="foreground" aria-hidden="true" d="" display="none"></path></g></g></g></svg>