<svg class="marks" width="513" height="327" viewBox="0 0 513 327" version="1.1" xmlns="http://www.w3.org/2000/svg" xmlns:xlink="http://www.w3.org/1999/xlink"><rect width="513" height="327" style="fill: white;"></rect><defs><clipPath id="clip1"><rect x="0" y="0" width="400" height="300"></rect></clipPath><clipPath id="clip2"><rect x="0" y="0" width="400" height="300"></rect></clipPath><clipPath id="clip3"><rect x="0" y="0" width="400" height="300"></rect></clipPath><clipPath id="clip4"><rect x="0" y="0" width="400" height="300"></rect></clipPath></defs><g transform="translate(30,10)"><g class="mark-group role-frame root"><g transform="translate(0,0)"><path class="background" d="M0,0h400v300h-400Z" style="fill: none; stroke: #ddd; stroke-width: 0;"></path><g><g class="mark-group role-axis"><g transform="translate(0.5,0.5)"><path class="background" d="M0,0h0v0h0Z" style="pointer-events: none; fill: none;"></path><g><g class="mark-rule role-axis-grid" style="pointer-events: none;"><line transform="translate(0,300)" x2="400" y2="0" style="fill: none; stroke: #ddd; stroke-width: 1; opacity: 1;"></line><line transform="translate(0,267)" x2="400" y2="0" style="fill: none; stroke: #ddd; stroke-width: 1; opacity: 1;"></line><line transform="translate(0,233)" x2="400" y2="0" style="fill: none; stroke: #ddd; stroke-width: 1; opacity: 1;"></line><line transform="translate(0,200)" x2="400" y2="0" style="fill: none; stroke: #ddd; stroke-width: 1; opacity: 1;"></line><line transform="translate(0,167)" x2="400" y2="0" style="fill: none; stroke: #ddd; stroke-width: 1; opacity: 1;"></line><line transform="translate(0,133)" x2="400" y2="0" style="fill: none; stroke: #ddd; stroke-width: 1; opacity: 1;"></line><line transform="translate(0,100)" x2="400" y2="0" style="fill: none; stroke: #ddd; stroke-width: 1; opacity: 1;"></line><line transform="translate(0,67)" x2="400" y2="0" style="fill: none; stroke: #ddd; stroke-width: 1; opacity: 1;"></line><line transform="translate(0,33)" x2="400" y2="0" style="fill: none; stroke: #ddd; stroke-width: 1; opacity: 1;"></line><line transform="translate(0,0)" x2="400" y2="0" style="fill: none; stroke: #ddd; stroke-width: 1; opacity: 1;"></line></g></g><path class="foreground" d="" style="pointer-events: none; display: none; fill: none;"></path></g></g><g class="mark-group role-axis"><g transform="translate(0.5,300.5)"><path class="background" d="M0,0h0v0h0Z" style="pointer-events: none; fill: none;"></path><g><g class="mark-text role-axis-label" style="pointer-events: none;"><text text-anchor="middle" transform="translate(16.3265306122449,10)" style="font-family: Roboto Condensed; font-size: 10px; fill: #000; opacity: 1;">Mar 01</text><text text-anchor="middle" transform="translate(73.46938775510205,10)" style="font-family: Roboto Condensed; font-size: 10px; fill: #000; opacity: 1;">Mar 08</text><text text-anchor="middle" transform="translate(130.6122448979592,10)" style="font-family: Roboto Condensed; font-size: 10px; fill: #000; opacity: 1;">Mar 15</text><text text-anchor="middle" transform="translate(187.75510204081633,10)" style="font-family: Roboto Condensed; font-size: 10px; fill: #000; opacity: 1;">Mar 22</text><text text-anchor="middle" transform="translate(244.89795918367346,10)" style="font-family: Roboto Condensed; font-size: 10px; fill: #000; opacity: 1;">Mar 29</text><text text-anchor="middle" transform="translate(302.0408163265306,10)" style="font-family: Roboto Condensed; font-size: 10px; fill: #000; opacity: 1;">Apr 05</text><text text-anchor="middle" transform="translate(359.18367346938777,10)" style="font-family: Roboto Condensed; font-size: 10px; fill: #000; opacity: 1;">Apr 12</text></g><g class="mark-rule role-axis-domain" style="pointer-events: none;"><line transform="translate(0,0)" x2="400" y2="0" style="fill: none; stroke: lightgray; stroke-width: 1; opacity: 1;"></line></g></g><path class="foreground" d="" style="pointer-events: none; display: none; fill: none;"></path></g></g><g class="mark-group role-axis"><g transform="translate(0.5,0.5)"><path class="background" d="M0,0h0v0h0Z" style="pointer-events: none; fill: none;"></path><g><g class="mark-text role-axis-label" style="pointer-events: none;"><text text-anchor="end" transform="translate(-2,303)" style="font-family: Roboto Condensed; font-size: 10px; fill: #000; opacity: 1;">0</text><text text-anchor="end" transform="translate(-2,269.66666666666663)" style="font-family: Roboto Condensed; font-size: 10px; fill: #000; opacity: 1;">200</text><text text-anchor="end" transform="translate(-2,236.33333333333334)" style="font-family: Roboto Condensed; font-size: 10px; fill: #000; opacity: 1;">400</text><text text-anchor="end" transform="translate(-2,203.00000000000003)" style="font-family: Roboto Condensed; font-size: 10px; fill: #000; opacity: 1;">600</text><text text-anchor="end" transform="translate(-2,169.66666666666669)" style="font-family: Roboto Condensed; font-size: 10px; fill: #000; opacity: 1;">800</text><text text-anchor="end" transform="translate(-2,136.33333333333331)" style="font-family: Roboto Condensed; font-size: 10px; fill: #000; opacity: 1;">1,000</text><text text-anchor="end" transform="translate(-2,103.00000000000001)" style="font-family: Roboto Condensed; font-size: 10px; fill: #000; opacity: 1;">1,200</text><text text-anchor="end" transform="translate(-2,69.66666666666666)" style="font-family: Roboto Condensed; font-size: 10px; fill: #000; opacity: 1;">1,400</text><text text-anchor="end" transform="translate(-2,36.33333333333335)" style="font-family: Roboto Condensed; font-size: 10px; fill: #000; opacity: 1;">1,600</text><text text-anchor="end" transform="translate(-2,3)" style="font-family: Roboto Condensed; font-size: 10px; fill: #000; opacity: 1;">1,800</text></g><g class="mark-rule role-axis-domain" style="pointer-events: none;"><line transform="translate(0,300)" x2="0" y2="-300" style="fill: none; stroke: lightgray; stroke-width: 1; opacity: 1;"></line></g></g><path class="foreground" d="" style="pointer-events: none; display: none; fill: none;"></path></g></g><g class="mark-group role-scope pathgroup"><g transform="translate(0,0)"><path class="background" d="M0,0h400v300h-400Z" style="fill: none;"></path><g><g class="mark-line role-mark marks" clip-path="url(#clip1)"><path d="M0,300L8.16326530612245,300L16.3265306122449,300L24.489795918367346,300L32.6530612244898,300L40.816326530612244,300L48.97959183673469,300L57.14285714285714,300L65.3061224489796,300L73.46938775510205,300L81.63265306122449,300L89.79591836734694,299.8333333333333L97.95918367346938,299.8333333333333L106.12244897959184,299.8333333333333L114.28571428571428,299.8333333333333L122.44897959183673,299.8333333333333L130.6122448979592,298.6666666666667L138.77551020408163,300L146.9387755102041,300L155.10204081632654,299.1666666666667L163.26530612244898,299.1666666666667L171.42857142857142,299.1666666666667L179.59183673469389,296.3333333333333L187.75510204081633,299.1666666666667L195.91836734693877,291.5L204.08163265306123,291.5L212.24489795918367,290.6666666666667L220.4081632653061,286.3333333333333L228.57142857142856,283.8333333333333L236.73469387755102,281L244.89795918367346,277.5L253.06122448979593,273.8333333333333L261.2244897959184,267L269.3877551020408,262.5L277.55102040816325,252.66666666666666L285.7142857142857,248.5L293.8775510204082,234L302.0408163265306,228.66666666666669L310.2040816326531,223.33333333333334L318.3673469387755,206.83333333333337L326.53061224489795,194.5L334.6938775510204,185.33333333333331L342.85714285714283,174.83333333333334L351.0204081632653,159.83333333333334L359.18367346938777,151.83333333333334L367.34693877551024,144.5L375.51020408163265,135.16666666666669L383.67346938775506,120.49999999999999L391.83673469387753,109.33333333333334L400,95.99999999999999" style="fill: none; stroke: #72b7b2; stroke-width: 2; opacity: 0.7;"></path></g></g><path class="foreground" d="" style="display: none; fill: none;"></path></g><g transform="translate(0,0)"><path class="background" d="M0,0h400v300h-400Z" style="fill: none;"></path><g><g class="mark-line role-mark marks" clip-path="url(#clip2)"><path d="M0,299.8333333333333L8.16326530612245,299.8333333333333L16.3265306122449,299.5L24.489795918367346,299L32.6530612244898,298.1666666666667L40.816326530612244,295.66666666666663L48.97959183673469,294.33333333333337L57.14285714285714,292.83333333333337L65.3061224489796,291.6666666666667L73.46938775510205,291.6666666666667L81.63265306122449,290.3333333333333L89.79591836734694,288.6666666666667L97.95918367346938,286L106.12244897959184,283L114.28571428571428,277.8333333333333L122.44897959183673,274.1666666666667L130.6122448979592,273.6666666666667L138.77551020408163,270L146.9387755102041,263.5L155.10204081632654,259.3333333333333L163.26530612244898,246.00000000000003L171.42857142857142,232.66666666666666L179.59183673469389,225L187.75510204081633,206.33333333333334L195.91836734693877,210.66666666666669L204.08163265306123,200.83333333333334L212.24489795918367,186.83333333333334L220.4081632653061,180.33333333333334L228.57142857142856,168.16666666666663L236.73469387755102,158.83333333333331L244.89795918367346,152.83333333333331L253.06122448979593,145.5L261.2244897959184,144.16666666666666L269.3877551020408,134.5L277.55102040816325,128.16666666666666L285.7142857142857,124.83333333333333L293.8775510204082,130.50000000000003L302.0408163265306,124.33333333333331L310.2040816326531,117.33333333333333L318.3673469387755,129.83333333333334L326.53061224489795,137.16666666666666L334.6938775510204,141L342.85714285714283,147.16666666666666L351.0204081632653,160L359.18367346938777,166L367.34693877551024,171.66666666666666L375.51020408163265,179.50000000000003L383.67346938775506,193L391.83673469387753,202.16666666666666L400,213.16666666666669" style="fill: none; stroke: #4c78a8; stroke-width: 2; opacity: 0.7;"></path></g></g><path class="foreground" d="" style="display: none; fill: none;"></path></g><g transform="translate(0,0)"><path class="background" d="M0,0h400v300h-400Z" style="fill: none;"></path><g><g class="mark-line role-mark marks" clip-path="url(#clip3)"><path d="M0,300L8.16326530612245,300L16.3265306122449,300L24.489795918367346,300L32.6530612244898,300L40.816326530612244,300L48.97959183673469,300L57.14285714285714,300L65.3061224489796,300L73.46938775510205,300L81.63265306122449,300L89.79591836734694,300L97.95918367346938,300L106.12244897959184,300L114.28571428571428,300L122.44897959183673,300L130.6122448979592,299.1666666666667L138.77551020408163,300L146.9387755102041,299.8333333333333L155.10204081632654,299.8333333333333L163.26530612244898,299.8333333333333L171.42857142857142,300L179.59183673469389,299.8333333333333L187.75510204081633,299.8333333333333L195.91836734693877,299.8333333333333L204.08163265306123,299.6666666666667L212.24489795918367,299.6666666666667L220.4081632653061,299.6666666666667L228.57142857142856,299.6666666666667L236.73469387755102,299.6666666666667L244.89795918367346,299.6666666666667L253.06122448979593,299.6666666666667L261.2244897959184,299.6666666666667L269.3877551020408,299.6666666666667L277.55102040816325,299.3333333333333L285.7142857142857,299.3333333333333L293.8775510204082,299.3333333333333L302.0408163265306,299.3333333333333L310.2040816326531,299L318.3673469387755,299L326.53061224489795,299L334.6938775510204,299L342.85714285714283,298.8333333333333L351.0204081632653,298.6666666666667L359.18367346938777,298.6666666666667L367.34693877551024,298.6666666666667L375.51020408163265,298.6666666666667L383.67346938775506,298.6666666666667L391.83673469387753,298.6666666666667L400,298.5" style="fill: none; stroke: #e45756; stroke-width: 2; opacity: 0.7;"></path></g></g><path class="foreground" d="" style="display: none; fill: none;"></path></g><g transform="translate(0,0)"><path class="background" d="M0,0h400v300h-400Z" style="fill: none;"></path><g><g class="mark-line role-mark marks" clip-path="url(#clip4)"><path d="M0,299.8333333333333L8.16326530612245,299.8333333333333L16.3265306122449,299.5L24.489795918367346,299L32.6530612244898,298.1666666666667L40.816326530612244,295.66666666666663L48.97959183673469,294.33333333333337L57.14285714285714,292.83333333333337L65.3061224489796,291.6666666666667L73.46938775510205,291.6666666666667L81.63265306122449,290.3333333333333L89.79591836734694,288.5L97.95918367346938,285.8333333333333L106.12244897959184,282.83333333333337L114.28571428571428,277.6666666666667L122.44897959183673,274L130.6122448979592,271.5L138.77551020408163,270L146.9387755102041,263.3333333333333L155.10204081632654,258.33333333333337L163.26530612244898,245L171.42857142857142,231.83333333333334L179.59183673469389,221.16666666666666L187.75510204081633,205.33333333333331L195.91836734693877,202L204.08163265306123,192L212.24489795918367,177.16666666666666L220.4081632653061,166.33333333333334L228.57142857142856,151.66666666666666L236.73469387755102,139.5L244.89795918367346,130L253.06122448979593,118.99999999999999L261.2244897959184,110.83333333333334L269.3877551020408,96.66666666666666L277.55102040816325,80.16666666666667L285.7142857142857,72.66666666666667L293.8775510204082,63.83333333333332L302.0408163265306,52.33333333333332L310.2040816326531,39.66666666666667L318.3673469387755,35.66666666666668L326.53061224489795,30.666666666666664L334.6938775510204,25.33333333333333L342.85714285714283,20.833333333333325L351.0204081632653,18.499999999999993L359.18367346938777,16.500000000000014L367.34693877551024,14.833333333333321L375.51020408163265,13.33333333333332L383.67346938775506,12.16666666666667L391.83673469387753,10.166666666666657L400,7.666666666666666" style="fill: none; stroke: #f58518; stroke-width: 2; opacity: 0.7;"></path></g></g><path class="foreground" d="" style="display: none; fill: none;"></path></g></g><g class="mark-group role-legend"><g transform="translate(418,0)"><path class="background" d="M0,0h60v50h-60Z" style="pointer-events: none; fill: none;"></path><g><g class="mark-group role-legend-entry"><g transform="translate(0,0)"><path class="background" d="M0,0h0v0h0Z" style="pointer-events: none; fill: none;"></path><g><g class="mark-group role-scope"><g transform="translate(0,0)"><path class="background" d="M0,0h59.3251953125v11h-59.3251953125Z" style="pointer-events: none; fill: none; opacity: 1;"></path><g><g class="mark-symbol role-legend-symbol" style="pointer-events: none;"><path transform="translate(6,6)" d="M-5,0L5,0" style="fill: none; stroke: #4c78a8; stroke-width: 1.5; opacity: 0.7;"></path></g><g class="mark-text role-legend-label" style="pointer-events: none;"><text text-anchor="start" transform="translate(16,9)" style="font-family: Roboto Condensed; font-size: 10px; fill: #000; opacity: 1;">Active</text></g></g><path class="foreground" d="" style="pointer-events: none; display: none; fill: none;"></path></g><g transform="translate(0,13)"><path class="background" d="M0,0h59.3251953125v11h-59.3251953125Z" style="pointer-events: none; fill: none; opacity: 1;"></path><g><g class="mark-symbol role-legend-symbol" style="pointer-events: none;"><path transform="translate(6,6)" d="M-5,0L5,0" style="fill: none; stroke: #f58518; stroke-width: 1.5; opacity: 0.7;"></path></g><g class="mark-text role-legend-label" style="pointer-events: none;"><text text-anchor="start" transform="translate(16,9)" style="font-family: Roboto Condensed; font-size: 10px; fill: #000; opacity: 1;">Confirmed</text></g></g><path class="foreground" d="" style="pointer-events: none; display: none; fill: none;"></path></g><g transform="translate(0,26)"><path class="background" d="M0,0h59.3251953125v11h-59.3251953125Z" style="pointer-events: none; fill: none; opacity: 1;"></path><g><g class="mark-symbol role-legend-symbol" style="pointer-events: none;"><path transform="translate(6,6)" d="M-5,0L5,0" style="fill: none; stroke: #e45756; stroke-width: 1.5; opacity: 0.7;"></path></g><g class="mark-text role-legend-label" style="pointer-events: none;"><text text-anchor="start" transform="translate(16,9)" style="font-family: Roboto Condensed; font-size: 10px; fill: #000; opacity: 1;">Deaths</text></g></g><path class="foreground" d="" style="pointer-events: none; display: none; fill: none;"></path></g><g transform="translate(0,39)"><path class="background" d="M0,0h59.3251953125v11h-59.3251953125Z" style="pointer-events: none; fill: none; opacity: 1;"></path><g><g class="mark-symbol role-legend-symbol" style="pointer-events: none;"><path transform="translate(6,6)" d="M-5,0L5,0" style="fill: none; stroke: #72b7b2; stroke-width: 1.5; opacity: 0.7;"></path></g><g class="mark-text role-legend-label" style="pointer-events: none;"><text text-anchor="start" transform="translate(16,9)" style="font-family: Roboto Condensed; font-size: 10px; fill: #000; opacity: 1;">Recovered</text></g></g><path class="foreground" d="" style="pointer-events: none; display: none; fill: none;"></path></g></g></g><path class="foreground" d="" style="pointer-events: none; display: none; fill: none;"></path></g></g></g><path class="foreground" d="" style="pointer-events: none; display: none; fill: none;"></path></g></g></g><path class="foreground" d="" style="display: none; fill: none;"></path></g></g></g></svg>