<svg class="marks" width="781" height="244" viewBox="0 0 781 244" version="1.1" xmlns="http://www.w3.org/2000/svg" xmlns:xlink="http://www.w3.org/1999/xlink"><rect width="781" height="244" style="fill: white;"></rect><defs><clipPath id="clip1"><rect x="0" y="0" width="200" height="200"></rect></clipPath><clipPath id="clip2"><rect x="0" y="0" width="200" height="200"></rect></clipPath><clipPath id="clip3"><rect x="0" y="0" width="200" height="200"></rect></clipPath><clipPath id="clip4"><rect x="0" y="0" width="200" height="200"></rect></clipPath><clipPath id="clip5"><rect x="0" y="0" width="200" height="200"></rect></clipPath><clipPath id="clip6"><rect x="0" y="0" width="200" height="200"></rect></clipPath><clipPath id="clip7"><rect x="0" y="0" width="200" height="200"></rect></clipPath><clipPath id="clip8"><rect x="0" y="0" width="200" height="200"></rect></clipPath><clipPath id="clip9"><rect x="0" y="0" width="200" height="200"></rect></clipPath><clipPath id="clip10"><rect x="0" y="0" width="200" height="200"></rect></clipPath><clipPath id="clip11"><rect x="0" y="0" width="200" height="200"></rect></clipPath><clipPath id="clip12"><rect x="0" y="0" width="200" height="200"></rect></clipPath><clipPath id="clip13"><rect x="0" y="0" width="200" height="200"></rect></clipPath><clipPath id="clip14"><rect x="0" y="0" width="200" height="200"></rect></clipPath><clipPath id="clip15"><rect x="0" y="0" width="200" height="200"></rect></clipPath></defs><g transform="translate(22,27)"><g class="mark-group role-frame root"><g transform="translate(0,0)"><path class="background" d="M0,0h0v0h0Z" style="fill: none;"></path><g><g class="mark-group role-scope concat_0_group"><g transform="translate(0,0)"><path class="background" d="M0,0h0v0h0Z" style="fill: none;"></path><g><g class="mark-group role-scope concat_0_concat_0_group"><g transform="translate(0,0)"><path class="background" d="M0,0h200v200h-200Z" style="fill: none; stroke: #ddd; stroke-width: 0;"></path><g><g class="mark-group role-axis"><g transform="translate(0.5,0.5)"><path class="background" d="M0,0h0v0h0Z" style="pointer-events: none; fill: none;"></path><g><g class="mark-rule role-axis-grid" style="pointer-events: none;"><line transform="translate(0,200)" x2="200" y2="0" style="fill: none; stroke: #ddd; stroke-width: 1; opacity: 1;"></line><line transform="translate(0,150)" x2="200" y2="0" style="fill: none; stroke: #ddd; stroke-width: 1; opacity: 1;"></line><line transform="translate(0,100)" x2="200" y2="0" style="fill: none; stroke: #ddd; stroke-width: 1; opacity: 1;"></line><line transform="translate(0,50)" x2="200" y2="0" style="fill: none; stroke: #ddd; stroke-width: 1; opacity: 1;"></line><line transform="translate(0,0)" x2="200" y2="0" style="fill: none; stroke: #ddd; stroke-width: 1; opacity: 1;"></line></g></g><path class="foreground" d="" style="pointer-events: none; display: none; fill: none;"></path></g></g><g class="mark-group role-axis"><g transform="translate(0.5,200.5)"><path class="background" d="M0,0h0v0h0Z" style="pointer-events: none; fill: none;"></path><g><g class="mark-text role-axis-label" style="pointer-events: none;"><text text-anchor="middle" transform="translate(20,10)" style="font-family: Roboto Condensed; font-size: 10px; fill: #000; opacity: 1;">Mar 22</text><text text-anchor="middle" transform="translate(66.66666666666666,10)" style="font-family: Roboto Condensed; font-size: 10px; fill: #000; opacity: 1;">Mar 29</text><text text-anchor="middle" transform="translate(113.33333333333333,10)" style="font-family: Roboto Condensed; font-size: 10px; fill: #000; opacity: 1;">Apr 05</text><text text-anchor="middle" transform="translate(160,10)" style="font-family: Roboto Condensed; font-size: 10px; fill: #000; opacity: 1;">Apr 12</text></g><g class="mark-rule role-axis-domain" style="pointer-events: none;"><line transform="translate(0,0)" x2="200" y2="0" style="fill: none; stroke: lightgray; stroke-width: 1; opacity: 1;"></line></g></g><path class="foreground" d="" style="pointer-events: none; display: none; fill: none;"></path></g></g><g class="mark-group role-axis"><g transform="translate(0.5,0.5)"><path class="background" d="M0,0h0v0h0Z" style="pointer-events: none; fill: none;"></path><g><g class="mark-text role-axis-label" style="pointer-events: none;"><text text-anchor="end" transform="translate(-2,203)" style="font-family: Roboto Condensed; font-size: 10px; fill: #000; opacity: 1;">0</text><text text-anchor="end" transform="translate(-2,153)" style="font-family: Roboto Condensed; font-size: 10px; fill: #000; opacity: 1;">200</text><text text-anchor="end" transform="translate(-2,103)" style="font-family: Roboto Condensed; font-size: 10px; fill: #000; opacity: 1;">400</text><text text-anchor="end" transform="translate(-2,53)" style="font-family: Roboto Condensed; font-size: 10px; fill: #000; opacity: 1;">600</text><text text-anchor="end" transform="translate(-2,3)" style="font-family: Roboto Condensed; font-size: 10px; fill: #000; opacity: 1;">800</text></g><g class="mark-rule role-axis-domain" style="pointer-events: none;"><line transform="translate(0,200)" x2="0" y2="-200" style="fill: none; stroke: lightgray; stroke-width: 1; opacity: 1;"></line></g></g><path class="foreground" d="" style="pointer-events: none; display: none; fill: none;"></path></g></g><g class="mark-group role-scope concat_0_concat_0_pathgroup"><g transform="translate(0,0)"><path class="background" d="M0,0h200v200h-200Z" style="fill: none;"></path><g><g class="mark-line role-mark concat_0_concat_0_marks" clip-path="url(#clip1)"><path d="M0,172.5L6.666666666666667,172L13.333333333333334,179.25L20,176.5L26.666666666666668,185.5L33.33333333333333,163.5L40,164L46.666666666666664,159.75L53.333333333333336,155.75L60,158.5L66.66666666666666,150.5L73.33333333333333,152.25L80,129L86.66666666666667,137.25L93.33333333333333,129.25L100,106.74999999999999L106.66666666666667,119.24999999999999L113.33333333333333,127L120,121.49999999999999L126.66666666666666,102.25L133.33333333333331,117.24999999999999L140,141.75L146.66666666666666,154L153.33333333333334,155.75L160,155.5L166.66666666666669,164L173.33333333333334,151.75L180,157.5L186.66666666666666,150.5L193.33333333333334,151.5L200,157.75" style="fill: none; stroke: #4c78a8; stroke-width: 2; opacity: 1;"></path></g></g><path class="foreground" d="" style="display: none; fill: none;"></path></g><g transform="translate(0,0)"><path class="background" d="M0,0h200v200h-200Z" style="fill: none;"></path><g><g class="mark-line role-mark concat_0_concat_0_marks" clip-path="url(#clip2)"><path d="M0,184L6.666666666666667,187.5L13.333333333333334,181.75L20,174.25L26.666666666666668,181.5L33.33333333333333,177L40,178L46.666666666666664,180.5L53.333333333333336,179.25L60,168.5L66.66666666666666,181.75L73.33333333333333,172L80,183.5L86.66666666666667,193L93.33333333333333,182L100,175.75L106.66666666666667,133.25L113.33333333333333,188.75L120,137.75L126.66666666666666,167L133.33333333333331,155.25L140,170.5L146.66666666666666,159L153.33333333333334,166L160,182.75L166.66666666666669,177.5L173.33333333333334,175.75L180,181L186.66666666666666,167L193.33333333333334,170L200,152" style="fill: none; stroke: #f58518; stroke-width: 2; opacity: 1;"></path></g></g><path class="foreground" d="" style="display: none; fill: none;"></path></g><g transform="translate(0,0)"><path class="background" d="M0,0h200v200h-200Z" style="fill: none;"></path><g><g class="mark-line role-mark concat_0_concat_0_marks" clip-path="url(#clip3)"><path d="M0,180L6.666666666666667,180.25L13.333333333333334,184L20,176.25L26.666666666666668,195L33.33333333333333,185L40,177.75L46.666666666666664,183.75L53.333333333333336,178L60,181.75L66.66666666666666,185.75L73.33333333333333,183.5L80,187.75L86.66666666666667,178.75L93.33333333333333,175.25L100,188.75L106.66666666666667,186.75L113.33333333333333,182.75L120,181L126.66666666666666,194L133.33333333333331,192.5L140,192L146.66666666666666,193.25L153.33333333333334,196.5L160,197L166.66666666666669,197.5L173.33333333333334,197.75L180,198.25L186.66666666666666,197L193.33333333333334,196.25L200,198.5" style="fill: none; stroke: #e45756; stroke-width: 2; opacity: 1;"></path></g></g><path class="foreground" d="" style="display: none; fill: none;"></path></g><g transform="translate(0,0)"><path class="background" d="M0,0h200v200h-200Z" style="fill: none;"></path><g><g class="mark-line role-mark concat_0_concat_0_marks" clip-path="url(#clip4)"><path d="M0,151L6.666666666666667,158L13.333333333333334,149L20,163.75L26.666666666666668,110.5L33.33333333333333,139.5L40,144.75L46.666666666666664,128.75L53.333333333333336,103.50000000000001L60,135L66.66666666666666,132.75L73.33333333333333,159.75L80,151L86.66666666666667,144.49999999999997L93.33333333333333,129L100,144.25L106.66666666666667,155L113.33333333333333,165.75L120,155.5L126.66666666666666,144.75L133.33333333333331,200L140,168.75L146.66666666666666,174.25L153.33333333333334,176.25L160,171L166.66666666666669,180.5L173.33333333333334,195L180,170.75L186.66666666666666,161L193.33333333333334,189.75L200,175.25" style="fill: none; stroke: #72b7b2; stroke-width: 2; opacity: 1;"></path></g></g><path class="foreground" d="" style="display: none; fill: none;"></path></g><g transform="translate(0,0)"><path class="background" d="M0,0h200v200h-200Z" style="fill: none;"></path><g><g class="mark-line role-mark concat_0_concat_0_marks" clip-path="url(#clip5)"><path d="M0,160L6.666666666666667,150L13.333333333333334,169L20,158L26.666666666666668,171.25L33.33333333333333,140L40,140L46.666666666666664,121.49999999999999L53.333333333333336,142.75L60,105.50000000000001L66.66666666666666,136.75000000000003L73.33333333333333,118.00000000000001L80,98.25L86.66666666666667,72L93.33333333333333,44.75L100,59.25L106.66666666666667,122L113.33333333333333,103.25L120,106L126.66666666666666,78.25L133.33333333333331,18.500000000000007L140,19.500000000000007L146.66666666666666,63.99999999999999L153.33333333333334,83.5L160,117L166.66666666666669,83.74999999999999L173.33333333333334,75.75L180,79.5L186.66666666666666,46.75L193.33333333333334,31.000000000000007L200,48.50000000000001" style="fill: none; stroke: #54a24b; stroke-width: 2; opacity: 1;"></path></g></g><path class="foreground" d="" style="display: none; fill: none;"></path></g></g><g class="mark-group role-title"><g transform="translate(100,-22)"><path class="background" d="M0,0h0v0h0Z" style="pointer-events: none; fill: none;"></path><g><g class="mark-text role-title-text" style="pointer-events: none;"><text text-anchor="middle" transform="translate(0,10)" style="font-family: Roboto Condensed; font-size: 13px; font-weight: normal; fill: #000; opacity: 1;">Confirmed/day</text></g></g><path class="foreground" d="" style="pointer-events: none; display: none; fill: none;"></path></g></g></g><path class="foreground" d="" style="display: none; fill: none;"></path></g></g><g class="mark-group role-scope concat_0_concat_1_group"><g transform="translate(237,0)"><path class="background" d="M0,0h200v200h-200Z" style="fill: none; stroke: #ddd; stroke-width: 0;"></path><g><g class="mark-group role-axis"><g transform="translate(0.5,0.5)"><path class="background" d="M0,0h0v0h0Z" style="pointer-events: none; fill: none;"></path><g><g class="mark-rule role-axis-grid" style="pointer-events: none;"><line transform="translate(0,180)" x2="200" y2="0" style="fill: none; stroke: #ddd; stroke-width: 1; opacity: 1;"></line><line transform="translate(0,130)" x2="200" y2="0" style="fill: none; stroke: #ddd; stroke-width: 1; opacity: 1;"></line><line transform="translate(0,80)" x2="200" y2="0" style="fill: none; stroke: #ddd; stroke-width: 1; opacity: 1;"></line><line transform="translate(0,30)" x2="200" y2="0" style="fill: none; stroke: #ddd; stroke-width: 1; opacity: 1;"></line></g></g><path class="foreground" d="" style="pointer-events: none; display: none; fill: none;"></path></g></g><g class="mark-group role-axis"><g transform="translate(0.5,200.5)"><path class="background" d="M0,0h0v0h0Z" style="pointer-events: none; fill: none;"></path><g><g class="mark-text role-axis-label" style="pointer-events: none;"><text text-anchor="middle" transform="translate(20,10)" style="font-family: Roboto Condensed; font-size: 10px; fill: #000; opacity: 1;">Mar 22</text><text text-anchor="middle" transform="translate(66.66666666666666,10)" style="font-family: Roboto Condensed; font-size: 10px; fill: #000; opacity: 1;">Mar 29</text><text text-anchor="middle" transform="translate(113.33333333333333,10)" style="font-family: Roboto Condensed; font-size: 10px; fill: #000; opacity: 1;">Apr 05</text><text text-anchor="middle" transform="translate(160,10)" style="font-family: Roboto Condensed; font-size: 10px; fill: #000; opacity: 1;">Apr 12</text></g><g class="mark-rule role-axis-domain" style="pointer-events: none;"><line transform="translate(0,0)" x2="200" y2="0" style="fill: none; stroke: lightgray; stroke-width: 1; opacity: 1;"></line></g></g><path class="foreground" d="" style="pointer-events: none; display: none; fill: none;"></path></g></g><g class="mark-group role-axis"><g transform="translate(0.5,0.5)"><path class="background" d="M0,0h0v0h0Z" style="pointer-events: none; fill: none;"></path><g><g class="mark-text role-axis-label" style="pointer-events: none;"><text text-anchor="end" transform="translate(-2,183)" style="font-family: Roboto Condensed; font-size: 10px; fill: #000; opacity: 1;">0</text><text text-anchor="end" transform="translate(-2,133)" style="font-family: Roboto Condensed; font-size: 10px; fill: #000; opacity: 1;">50</text><text text-anchor="end" transform="translate(-2,83)" style="font-family: Roboto Condensed; font-size: 10px; fill: #000; opacity: 1;">100</text><text text-anchor="end" transform="translate(-2,33)" style="font-family: Roboto Condensed; font-size: 10px; fill: #000; opacity: 1;">150</text></g><g class="mark-rule role-axis-domain" style="pointer-events: none;"><line transform="translate(0,200)" x2="0" y2="-200" style="fill: none; stroke: lightgray; stroke-width: 1; opacity: 1;"></line></g></g><path class="foreground" d="" style="pointer-events: none; display: none; fill: none;"></path></g></g><g class="mark-group role-scope concat_0_concat_1_pathgroup"><g transform="translate(0,0)"><path class="background" d="M0,0h200v200h-200Z" style="fill: none;"></path><g><g class="mark-line role-mark concat_0_concat_1_marks" clip-path="url(#clip6)"><path d="M0,178L6.666666666666667,177L13.333333333333334,176L20,180L26.666666666666668,169L33.33333333333333,172L40,178L46.666666666666664,173L53.333333333333336,169L60,167L66.66666666666666,173L73.33333333333333,175L80,167L86.66666666666667,166L93.33333333333333,161L100,164L106.66666666666667,158L113.33333333333333,162L120,172L126.66666666666666,164L133.33333333333331,165L140,161L146.66666666666666,170L153.33333333333334,167L160,167L166.66666666666669,168L173.33333333333334,166L180,170L186.66666666666666,168L193.33333333333334,165L200,170" style="fill: none; stroke: #4c78a8; stroke-width: 2; opacity: 1;"></path></g></g><path class="foreground" d="" style="display: none; fill: none;"></path></g><g transform="translate(0,0)"><path class="background" d="M0,0h200v200h-200Z" style="fill: none;"></path><g><g class="mark-line role-mark concat_0_concat_1_marks" clip-path="url(#clip7)"><path d="M0,180L6.666666666666667,180L13.333333333333334,179L20,180L26.666666666666668,180L33.33333333333333,180L40,178L46.666666666666664,178L53.333333333333336,178L60,178L66.66666666666666,178L73.33333333333333,178L80,176L86.66666666666667,180L93.33333333333333,178L100,179L106.66666666666667,175L113.33333333333333,177L120,181L126.66666666666666,173L133.33333333333331,174L140,178L146.66666666666666,174L153.33333333333334,179L160,173L166.66666666666669,177L173.33333333333334,175L180,172L186.66666666666666,177L193.33333333333334,173L200,172" style="fill: none; stroke: #f58518; stroke-width: 2; opacity: 1;"></path></g></g><path class="foreground" d="" style="display: none; fill: none;"></path></g><g transform="translate(0,0)"><path class="background" d="M0,0h200v200h-200Z" style="fill: none;"></path><g><g class="mark-line role-mark concat_0_concat_1_marks" clip-path="url(#clip8)"><path d="M0,180L6.666666666666667,181L13.333333333333334,179L20,180L26.666666666666668,180L33.33333333333333,179L40,180L46.666666666666664,180L53.333333333333336,180L60,180L66.66666666666666,180L73.33333333333333,180L80,180L86.66666666666667,180L93.33333333333333,178L100,180L106.66666666666667,180L113.33333333333333,180L120,178L126.66666666666666,180L133.33333333333331,180L140,180L146.66666666666666,179L153.33333333333334,179L160,180L166.66666666666669,180L173.33333333333334,180L180,180L186.66666666666666,180L193.33333333333334,179L200,180" style="fill: none; stroke: #e45756; stroke-width: 2; opacity: 1;"></path></g></g><path class="foreground" d="" style="display: none; fill: none;"></path></g><g transform="translate(0,0)"><path class="background" d="M0,0h200v200h-200Z" style="fill: none;"></path><g><g class="mark-line role-mark concat_0_concat_1_marks" clip-path="url(#clip9)"><path d="M0,179L6.666666666666667,180L13.333333333333334,180L20,180L26.666666666666668,177L33.33333333333333,178L40,178L46.666666666666664,180L53.333333333333336,175L60,176L66.66666666666666,178L73.33333333333333,173L80,173L86.66666666666667,175L93.33333333333333,174L100,171L106.66666666666667,177L113.33333333333333,171L120,175L126.66666666666666,167L133.33333333333331,168L140,173L146.66666666666666,175L153.33333333333334,174L160,171L166.66666666666669,174L173.33333333333334,175L180,169L186.66666666666666,178L193.33333333333334,171L200,177" style="fill: none; stroke: #72b7b2; stroke-width: 2; opacity: 1;"></path></g></g><path class="foreground" d="" style="display: none; fill: none;"></path></g><g transform="translate(0,0)"><path class="background" d="M0,0h200v200h-200Z" style="fill: none;"></path><g><g class="mark-line role-mark concat_0_concat_1_marks" clip-path="url(#clip10)"><path d="M0,179L6.666666666666667,175L13.333333333333334,176L20,179L26.666666666666668,176L33.33333333333333,169L40,154L46.666666666666664,165L53.333333333333336,152L60,180L66.66666666666666,175L73.33333333333333,144L80,146L86.66666666666667,121L93.33333333333333,110.99999999999999L100,130L106.66666666666667,165L113.33333333333333,152L120,104L126.66666666666666,65.99999999999999L133.33333333333331,84.00000000000001L140,74L146.66666666666666,103L153.33333333333334,163L160,168L166.66666666666669,160L173.33333333333334,65.99999999999999L180,10.000000000000009L186.66666666666666,50L193.33333333333334,112.99999999999999L200,69" style="fill: none; stroke: #54a24b; stroke-width: 2; opacity: 1;"></path></g></g><path class="foreground" d="" style="display: none; fill: none;"></path></g></g><g class="mark-group role-title"><g transform="translate(100,-17)"><path class="background" d="M0,0h0v0h0Z" style="pointer-events: none; fill: none;"></path><g><g class="mark-text role-title-text" style="pointer-events: none;"><text text-anchor="middle" transform="translate(0,10)" style="font-family: Roboto Condensed; font-size: 13px; font-weight: normal; fill: #000; opacity: 1;">Deaths/day</text></g></g><path class="foreground" d="" style="pointer-events: none; display: none; fill: none;"></path></g></g></g><path class="foreground" d="" style="display: none; fill: none;"></path></g></g><g class="mark-group role-scope concat_0_concat_2_group"><g transform="translate(482,0)"><path class="background" d="M0,0h200v200h-200Z" style="fill: none; stroke: #ddd; stroke-width: 0;"></path><g><g class="mark-group role-axis"><g transform="translate(0.5,0.5)"><path class="background" d="M0,0h0v0h0Z" style="pointer-events: none; fill: none;"></path><g><g class="mark-rule role-axis-grid" style="pointer-events: none;"><line transform="translate(0,175)" x2="200" y2="0" style="fill: none; stroke: #ddd; stroke-width: 1; opacity: 1;"></line><line transform="translate(0,113)" x2="200" y2="0" style="fill: none; stroke: #ddd; stroke-width: 1; opacity: 1;"></line><line transform="translate(0,50)" x2="200" y2="0" style="fill: none; stroke: #ddd; stroke-width: 1; opacity: 1;"></line></g></g><path class="foreground" d="" style="pointer-events: none; display: none; fill: none;"></path></g></g><g class="mark-group role-axis"><g transform="translate(0.5,200.5)"><path class="background" d="M0,0h0v0h0Z" style="pointer-events: none; fill: none;"></path><g><g class="mark-text role-axis-label" style="pointer-events: none;"><text text-anchor="middle" transform="translate(20,10)" style="font-family: Roboto Condensed; font-size: 10px; fill: #000; opacity: 1;">Mar 22</text><text text-anchor="middle" transform="translate(66.66666666666666,10)" style="font-family: Roboto Condensed; font-size: 10px; fill: #000; opacity: 1;">Mar 29</text><text text-anchor="middle" transform="translate(113.33333333333333,10)" style="font-family: Roboto Condensed; font-size: 10px; fill: #000; opacity: 1;">Apr 05</text><text text-anchor="middle" transform="translate(160,10)" style="font-family: Roboto Condensed; font-size: 10px; fill: #000; opacity: 1;">Apr 12</text></g><g class="mark-rule role-axis-domain" style="pointer-events: none;"><line transform="translate(0,0)" x2="200" y2="0" style="fill: none; stroke: lightgray; stroke-width: 1; opacity: 1;"></line></g></g><path class="foreground" d="" style="pointer-events: none; display: none; fill: none;"></path></g></g><g class="mark-group role-axis"><g transform="translate(0.5,0.5)"><path class="background" d="M0,0h0v0h0Z" style="pointer-events: none; fill: none;"></path><g><g class="mark-text role-axis-label" style="pointer-events: none;"><text text-anchor="end" transform="translate(-2,178)" style="font-family: Roboto Condensed; font-size: 10px; fill: #000; opacity: 1;">0</text><text text-anchor="end" transform="translate(-2,115.5)" style="font-family: Roboto Condensed; font-size: 10px; fill: #000; opacity: 1;">500</text><text text-anchor="end" transform="translate(-2,53)" style="font-family: Roboto Condensed; font-size: 10px; fill: #000; opacity: 1;">1,000</text></g><g class="mark-rule role-axis-domain" style="pointer-events: none;"><line transform="translate(0,200)" x2="0" y2="-200" style="fill: none; stroke: lightgray; stroke-width: 1; opacity: 1;"></line></g></g><path class="foreground" d="" style="pointer-events: none; display: none; fill: none;"></path></g></g><g class="mark-group role-scope concat_0_concat_2_pathgroup"><g transform="translate(0,0)"><path class="background" d="M0,0h200v200h-200Z" style="fill: none;"></path><g><g class="mark-line role-mark concat_0_concat_2_marks" clip-path="url(#clip11)"><path d="M0,175L6.666666666666667,175L13.333333333333334,175L20,174.625L26.666666666666668,172.5L33.33333333333333,173.5L40,174.375L46.666666666666664,173.875L53.333333333333336,174.125L60,175L66.66666666666666,173L73.33333333333333,175L80,174.5L86.66666666666667,63.25000000000001L93.33333333333333,149.875L100,160.625L106.66666666666667,163.5L113.33333333333333,168.75L120,167.5L126.66666666666666,158.5L133.33333333333331,157.25L140,160L146.66666666666666,169.25L153.33333333333334,152.25L160,152.5L166.66666666666669,161L173.33333333333334,139.25L180,145.5L186.66666666666666,140.25L193.33333333333334,129L200,117.5" style="fill: none; stroke: #4c78a8; stroke-width: 2; opacity: 1;"></path></g></g><path class="foreground" d="" style="display: none; fill: none;"></path></g><g transform="translate(0,0)"><path class="background" d="M0,0h200v200h-200Z" style="fill: none;"></path><g><g class="mark-line role-mark concat_0_concat_2_marks" clip-path="url(#clip12)"><path d="M0,175L6.666666666666667,175L13.333333333333334,175L20,175L26.666666666666668,175L33.33333333333333,175L40,175L46.666666666666664,175L53.333333333333336,175L60,175L66.66666666666666,175L73.33333333333333,175L80,175L86.66666666666667,175L93.33333333333333,138.75L100,175L106.66666666666667,175L113.33333333333333,175L120,175L126.66666666666666,175L133.33333333333331,175L140,175L146.66666666666666,175L153.33333333333334,175L160,175L166.66666666666669,175L173.33333333333334,175L180,175L186.66666666666666,0L193.33333333333334,175L200,175" style="fill: none; stroke: #f58518; stroke-width: 2; opacity: 1;"></path></g></g><path class="foreground" d="" style="display: none; fill: none;"></path></g><g transform="translate(0,0)"><path class="background" d="M0,0h200v200h-200Z" style="fill: none;"></path><g><g class="mark-line role-mark concat_0_concat_2_marks" clip-path="url(#clip13)"><path d="M0,175L6.666666666666667,175L13.333333333333334,172.875L20,177.125L26.666666666666668,169.25L33.33333333333333,175L40,174.375L46.666666666666664,171.75L53.333333333333336,173.125L60,172.875L66.66666666666666,172.375L73.33333333333333,172.25L80,169.875L86.66666666666667,171.625L93.33333333333333,167.625L100,171.875L106.66666666666667,164.125L113.33333333333333,171L120,171L126.66666666666666,162.625L133.33333333333331,165.75L140,168.125L146.66666666666666,167.125L153.33333333333334,163.75L160,169L166.66666666666669,169.5L173.33333333333334,168L180,164L186.66666666666666,166.625L193.33333333333334,165L200,166.625" style="fill: none; stroke: #e45756; stroke-width: 2; opacity: 1;"></path></g></g><path class="foreground" d="" style="display: none; fill: none;"></path></g><g transform="translate(0,0)"><path class="background" d="M0,0h200v200h-200Z" style="fill: none;"></path><g><g class="mark-line role-mark concat_0_concat_2_marks" clip-path="url(#clip14)"><path d="M0,175L6.666666666666667,175L13.333333333333334,175L20,174.375L26.666666666666668,175L33.33333333333333,175L40,175L46.666666666666664,175L53.333333333333336,175L60,174.875L66.66666666666666,175L73.33333333333333,174.375L80,174.875L86.66666666666667,175L93.33333333333333,172.625L100,175L106.66666666666667,175L113.33333333333333,175L120,175L126.66666666666666,175L133.33333333333331,175L140,175L146.66666666666666,175L153.33333333333334,175L160,175L166.66666666666669,175L173.33333333333334,175L180,175L186.66666666666666,175L193.33333333333334,175L200,175" style="fill: none; stroke: #72b7b2; stroke-width: 2; opacity: 1;"></path></g></g><path class="foreground" d="" style="display: none; fill: none;"></path></g><g transform="translate(0,0)"><path class="background" d="M0,0h200v200h-200Z" style="fill: none;"></path><g><g class="mark-line role-mark concat_0_concat_2_marks" clip-path="url(#clip15)"><path d="M0,173.125L6.666666666666667,175L13.333333333333334,175L20,175L26.666666666666668,175L33.33333333333333,175L40,175L46.666666666666664,175L53.333333333333336,175L60,175L66.66666666666666,175L73.33333333333333,175L80,175L86.66666666666667,164.125L93.33333333333333,175L100,162.25L106.66666666666667,175L113.33333333333333,175L120,175L126.66666666666666,175L133.33333333333331,175L140,175L146.66666666666666,153L153.33333333333334,175L160,175L166.66666666666669,175L173.33333333333334,175L180,175L186.66666666666666,153.875L193.33333333333334,175L200,175" style="fill: none; stroke: #54a24b; stroke-width: 2; opacity: 1;"></path></g></g><path class="foreground" d="" style="display: none; fill: none;"></path></g></g><g class="mark-group role-title"><g transform="translate(100,-17)"><path class="background" d="M0,0h0v0h0Z" style="pointer-events: none; fill: none;"></path><g><g class="mark-text role-title-text" style="pointer-events: none;"><text text-anchor="middle" transform="translate(0,10)" style="font-family: Roboto Condensed; font-size: 13px; font-weight: normal; fill: #000; opacity: 1;">Recovered/day</text></g></g><path class="foreground" d="" style="pointer-events: none; display: none; fill: none;"></path></g></g></g><path class="foreground" d="" style="display: none; fill: none;"></path></g></g></g><path class="foreground" d="" style="display: none; fill: none;"></path></g></g><g class="mark-group role-legend"><g transform="translate(700,0)"><path class="background" d="M0,0h54v63h-54Z" style="pointer-events: none; fill: none;"></path><g><g class="mark-group role-legend-entry"><g transform="translate(0,0)"><path class="background" d="M0,0h0v0h0Z" style="pointer-events: none; fill: none;"></path><g><g class="mark-group role-scope Country_legend_entries"><g transform="translate(0,0)"><path class="background" d="M0,0h53.20703125v11h-53.20703125Z" style="fill: none; opacity: 1;"></path><g><g class="mark-symbol role-legend-symbol Country_legend_symbols"><path transform="translate(6,6)" d="M-5,0L5,0" style="fill: none; stroke: #4c78a8; stroke-width: 1.5; opacity: 1;"></path></g><g class="mark-text role-legend-label Country_legend_labels"><text text-anchor="start" transform="translate(16,9)" style="font-family: Roboto Condensed; font-size: 10px; fill: #000; opacity: 1;">Denmark</text></g></g><path class="foreground" d="" style="display: none; fill: none;"></path></g><g transform="translate(0,13)"><path class="background" d="M0,0h53.20703125v11h-53.20703125Z" style="fill: none; opacity: 1;"></path><g><g class="mark-symbol role-legend-symbol Country_legend_symbols"><path transform="translate(6,6)" d="M-5,0L5,0" style="fill: none; stroke: #f58518; stroke-width: 1.5; opacity: 1;"></path></g><g class="mark-text role-legend-label Country_legend_labels"><text text-anchor="start" transform="translate(16,9)" style="font-family: Roboto Condensed; font-size: 10px; fill: #000; opacity: 1;">Finland</text></g></g><path class="foreground" d="" style="display: none; fill: none;"></path></g><g transform="translate(0,26)"><path class="background" d="M0,0h53.20703125v11h-53.20703125Z" style="fill: none; opacity: 1;"></path><g><g class="mark-symbol role-legend-symbol Country_legend_symbols"><path transform="translate(6,6)" d="M-5,0L5,0" style="fill: none; stroke: #e45756; stroke-width: 1.5; opacity: 1;"></path></g><g class="mark-text role-legend-label Country_legend_labels"><text text-anchor="start" transform="translate(16,9)" style="font-family: Roboto Condensed; font-size: 10px; fill: #000; opacity: 1;">Iceland</text></g></g><path class="foreground" d="" style="display: none; fill: none;"></path></g><g transform="translate(0,39)"><path class="background" d="M0,0h53.20703125v11h-53.20703125Z" style="fill: none; opacity: 1;"></path><g><g class="mark-symbol role-legend-symbol Country_legend_symbols"><path transform="translate(6,6)" d="M-5,0L5,0" style="fill: none; stroke: #72b7b2; stroke-width: 1.5; opacity: 1;"></path></g><g class="mark-text role-legend-label Country_legend_labels"><text text-anchor="start" transform="translate(16,9)" style="font-family: Roboto Condensed; font-size: 10px; fill: #000; opacity: 1;">Norway</text></g></g><path class="foreground" d="" style="display: none; fill: none;"></path></g><g transform="translate(0,52)"><path class="background" d="M0,0h53.20703125v11h-53.20703125Z" style="fill: none; opacity: 1;"></path><g><g class="mark-symbol role-legend-symbol Country_legend_symbols"><path transform="translate(6,6)" d="M-5,0L5,0" style="fill: none; stroke: #54a24b; stroke-width: 1.5; opacity: 1;"></path></g><g class="mark-text role-legend-label Country_legend_labels"><text text-anchor="start" transform="translate(16,9)" style="font-family: Roboto Condensed; font-size: 10px; fill: #000; opacity: 1;">Sweden</text></g></g><path class="foreground" d="" style="display: none; fill: none;"></path></g></g></g><path class="foreground" d="" style="pointer-events: none; display: none; fill: none;"></path></g></g></g><path class="foreground" d="" style="pointer-events: none; display: none; fill: none;"></path></g></g></g><path class="foreground" d="" style="display: none; fill: none;"></path></g></g></g></svg>