<svg class="marks" width="513" height="327" viewBox="0 0 513 327" version="1.1" xmlns="http://www.w3.org/2000/svg" xmlns:xlink="http://www.w3.org/1999/xlink"><rect width="513" height="327" style="fill: white;"></rect><defs><clipPath id="clip1"><rect x="0" y="0" width="400" height="300"></rect></clipPath><clipPath id="clip2"><rect x="0" y="0" width="400" height="300"></rect></clipPath><clipPath id="clip3"><rect x="0" y="0" width="400" height="300"></rect></clipPath><clipPath id="clip4"><rect x="0" y="0" width="400" height="300"></rect></clipPath></defs><g transform="translate(30,10)"><g class="mark-group role-frame root"><g transform="translate(0,0)"><path class="background" d="M0,0h400v300h-400Z" style="fill: none; stroke: #ddd; stroke-width: 0;"></path><g><g class="mark-group role-axis"><g transform="translate(0.5,0.5)"><path class="background" d="M0,0h0v0h0Z" style="pointer-events: none; fill: none;"></path><g><g class="mark-rule role-axis-grid" style="pointer-events: none;"><line transform="translate(0,300)" x2="400" y2="0" style="fill: none; stroke: #ddd; stroke-width: 1; opacity: 1;"></line><line transform="translate(0,257)" x2="400" y2="0" style="fill: none; stroke: #ddd; stroke-width: 1; opacity: 1;"></line><line transform="translate(0,214)" x2="400" y2="0" style="fill: none; stroke: #ddd; stroke-width: 1; opacity: 1;"></line><line transform="translate(0,171)" x2="400" y2="0" style="fill: none; stroke: #ddd; stroke-width: 1; opacity: 1;"></line><line transform="translate(0,129)" x2="400" y2="0" style="fill: none; stroke: #ddd; stroke-width: 1; opacity: 1;"></line><line transform="translate(0,86)" x2="400" y2="0" style="fill: none; stroke: #ddd; stroke-width: 1; opacity: 1;"></line><line transform="translate(0,43)" x2="400" y2="0" style="fill: none; stroke: #ddd; stroke-width: 1; opacity: 1;"></line><line transform="translate(0,0)" x2="400" y2="0" style="fill: none; stroke: #ddd; stroke-width: 1; opacity: 1;"></line></g></g><path class="foreground" d="" style="pointer-events: none; display: none; fill: none;"></path></g></g><g class="mark-group role-axis"><g transform="translate(0.5,300.5)"><path class="background" d="M0,0h0v0h0Z" style="pointer-events: none; fill: none;"></path><g><g class="mark-text role-axis-label" style="pointer-events: none;"><text text-anchor="middle" transform="translate(31.372549019607842,10)" style="font-family: Roboto Condensed; font-size: 10px; fill: #000; opacity: 1;">Mar 01</text><text text-anchor="middle" transform="translate(86.27450980392157,10)" style="font-family: Roboto Condensed; font-size: 10px; fill: #000; opacity: 1;">Mar 08</text><text text-anchor="middle" transform="translate(141.1764705882353,10)" style="font-family: Roboto Condensed; font-size: 10px; fill: #000; opacity: 1;">Mar 15</text><text text-anchor="middle" transform="translate(196.078431372549,10)" style="font-family: Roboto Condensed; font-size: 10px; fill: #000; opacity: 1;">Mar 22</text><text text-anchor="middle" transform="translate(250.98039215686273,10)" style="font-family: Roboto Condensed; font-size: 10px; fill: #000; opacity: 1;">Mar 29</text><text text-anchor="middle" transform="translate(305.88235294117646,10)" style="font-family: Roboto Condensed; font-size: 10px; fill: #000; opacity: 1;">Apr 05</text><text text-anchor="middle" transform="translate(360.7843137254902,10)" style="font-family: Roboto Condensed; font-size: 10px; fill: #000; opacity: 1;">Apr 12</text></g><g class="mark-rule role-axis-domain" style="pointer-events: none;"><line transform="translate(0,0)" x2="400" y2="0" style="fill: none; stroke: lightgray; stroke-width: 1; opacity: 1;"></line></g></g><path class="foreground" d="" style="pointer-events: none; display: none; fill: none;"></path></g></g><g class="mark-group role-axis"><g transform="translate(0.5,0.5)"><path class="background" d="M0,0h0v0h0Z" style="pointer-events: none; fill: none;"></path><g><g class="mark-text role-axis-label" style="pointer-events: none;"><text text-anchor="end" transform="translate(-2,303)" style="font-family: Roboto Condensed; font-size: 10px; fill: #000; opacity: 1;">0</text><text text-anchor="end" transform="translate(-2,260.14285714285717)" style="font-family: Roboto Condensed; font-size: 10px; fill: #000; opacity: 1;">1,000</text><text text-anchor="end" transform="translate(-2,217.28571428571428)" style="font-family: Roboto Condensed; font-size: 10px; fill: #000; opacity: 1;">2,000</text><text text-anchor="end" transform="translate(-2,174.42857142857142)" style="font-family: Roboto Condensed; font-size: 10px; fill: #000; opacity: 1;">3,000</text><text text-anchor="end" transform="translate(-2,131.57142857142858)" style="font-family: Roboto Condensed; font-size: 10px; fill: #000; opacity: 1;">4,000</text><text text-anchor="end" transform="translate(-2,88.71428571428571)" style="font-family: Roboto Condensed; font-size: 10px; fill: #000; opacity: 1;">5,000</text><text text-anchor="end" transform="translate(-2,45.85714285714287)" style="font-family: Roboto Condensed; font-size: 10px; fill: #000; opacity: 1;">6,000</text><text text-anchor="end" transform="translate(-2,3)" style="font-family: Roboto Condensed; font-size: 10px; fill: #000; opacity: 1;">7,000</text></g><g class="mark-rule role-axis-domain" style="pointer-events: none;"><line transform="translate(0,300)" x2="0" y2="-300" style="fill: none; stroke: lightgray; stroke-width: 1; opacity: 1;"></line></g></g><path class="foreground" d="" style="pointer-events: none; display: none; fill: none;"></path></g></g><g class="mark-group role-scope pathgroup"><g transform="translate(0,0)"><path class="background" d="M0,0h400v300h-400Z" style="fill: none;"></path><g><g class="mark-line role-mark marks" clip-path="url(#clip1)"><path d="M0,300L7.8431372549019605,300L15.686274509803921,300L23.52941176470588,300L31.372549019607842,300L39.21568627450981,300L47.05882352941176,300L54.90196078431373,300L62.745098039215684,300L70.58823529411765,300L78.43137254901961,300L86.27450980392157,300L94.11764705882352,299.95714285714286L101.96078431372548,299.95714285714286L109.80392156862746,299.95714285714286L117.64705882352942,299.95714285714286L125.49019607843137,299.95714285714286L133.33333333333331,299.95714285714286L141.1764705882353,299.95714285714286L149.01960784313727,299.95714285714286L156.86274509803923,299.95714285714286L164.70588235294116,299.95714285714286L172.54901960784315,299.95714285714286L180.3921568627451,299.95714285714286L188.23529411764704,299.95714285714286L196.078431372549,299.74285714285713L203.92156862745097,299.74285714285713L211.76470588235296,299.74285714285713L219.60784313725492,299.74285714285713L227.45098039215685,299.74285714285713L235.29411764705884,299.74285714285713L243.13725490196077,299.7L250.98039215686273,299.7L258.8235294117647,299.4857142857143L266.66666666666663,299.4428571428571L274.5098039215686,299.4428571428571L282.3529411764706,298.62857142857143L290.19607843137254,298.62857142857143L298.03921568627453,298.62857142857143L305.88235294117646,298.62857142857143L313.72549019607845,298.62857142857143L321.5686274509804,298.62857142857143L329.4117647058823,298.62857142857143L337.2549019607843,298.62857142857143L345.0980392156863,298.62857142857143L352.94117647058823,298.62857142857143L360.7843137254902,298.62857142857143L368.62745098039215,298.62857142857143L376.4705882352941,298.62857142857143L384.3137254901961,298.62857142857143L392.156862745098,298.62857142857143L400,298.62857142857143" style="fill: none; stroke: #72b7b2; stroke-width: 2; opacity: 0.7;"></path></g></g><path class="foreground" d="" style="display: none; fill: none;"></path></g><g transform="translate(0,0)"><path class="background" d="M0,0h400v300h-400Z" style="fill: none;"></path><g><g class="mark-line role-mark marks" clip-path="url(#clip2)"><path d="M0,299.95714285714286L7.8431372549019605,299.95714285714286L15.686274509803921,299.74285714285713L23.52941176470588,299.3571428571429L31.372549019607842,299.1857142857143L39.21568627450981,298.92857142857144L47.05882352941176,298.62857142857143L54.90196078431373,297.6L62.745098039215684,296.27142857142854L70.58823529411765,295.37142857142857L78.43137254901961,293.7L86.27450980392157,292.45714285714286L94.11764705882352,291.25714285714287L101.96078431372548,282.9L109.80392156862746,274.4142857142857L117.64705882352942,269.95714285714286L125.49019607843137,257.3571428571429L133.33333333333331,253.45714285714286L141.1764705882353,247.84285714285716L149.01960784313727,243.04285714285714L156.86274509803923,237.4714285714286L164.70588235294116,233.87142857142857L172.54901960784315,225.51428571428573L180.3921568627451,218.31428571428572L188.23529411764704,209.57142857142858L196.078431372549,203.57142857142858L203.92156862745097,188.35714285714286L211.76470588235296,178.07142857142858L219.60784313725492,168.68571428571428L227.45098039215685,156.47142857142856L235.29411764705884,140.14285714285717L243.13725490196077,129.21428571428572L250.98039215686273,117.77142857142857L258.8235294117647,111.3857142857143L266.66666666666663,103.32857142857142L274.5098039215686,94.02857142857141L282.3529411764706,82.92857142857144L290.19607843137254,73.75714285714287L298.03921568627453,66.17142857142856L305.88235294117646,60.68571428571429L313.72549019607845,53.27142857142858L321.5686274509804,44.357142857142875L329.4117647058823,44.871428571428574L337.2549019607843,39.8142857142857L345.0980392156863,35.6142857142857L352.94117647058823,31.799999999999994L360.7843137254902,27.214285714285722L368.62745098039215,24.128571428571423L376.4705882352941,23.485714285714288L384.3137254901961,18.94285714285715L392.156862745098,12.342857142857145L400,10.971428571428577" style="fill: none; stroke: #4c78a8; stroke-width: 2; opacity: 0.7;"></path></g></g><path class="foreground" d="" style="display: none; fill: none;"></path></g><g transform="translate(0,0)"><path class="background" d="M0,0h400v300h-400Z" style="fill: none;"></path><g><g class="mark-line role-mark marks" clip-path="url(#clip3)"><path d="M0,300L7.8431372549019605,300L15.686274509803921,300L23.52941176470588,300L31.372549019607842,300L39.21568627450981,300L47.05882352941176,300L54.90196078431373,300L62.745098039215684,300L70.58823529411765,300L78.43137254901961,300L86.27450980392157,300L94.11764705882352,300L101.96078431372548,300L109.80392156862746,300L117.64705882352942,300L125.49019607843137,300L133.33333333333331,299.87142857142857L141.1764705882353,299.87142857142857L149.01960784313727,299.87142857142857L156.86274509803923,299.87142857142857L164.70588235294116,299.74285714285713L172.54901960784315,299.7L180.3921568627451,299.7L188.23529411764704,299.7L196.078431372549,299.7L203.92156862745097,299.57142857142856L211.76470588235296,299.4857142857143L219.60784313725492,299.4L227.45098039215685,299.4L235.29411764705884,299.1857142857143L243.13725490196077,299.0142857142857L250.98039215686273,298.92857142857144L258.8235294117647,298.62857142857143L266.66666666666663,298.3285714285714L274.5098039215686,298.1142857142857L282.3529411764706,297.8571428571429L290.19607843137254,297.4714285714286L298.03921568627453,297.34285714285716L305.88235294117646,296.95714285714286L313.72549019607845,296.74285714285713L321.5686274509804,296.1857142857143L329.4117647058823,295.6714285714286L337.2549019607843,295.37142857142857L345.0980392156863,295.15714285714284L352.94117647058823,294.9L360.7843137254902,294.51428571428573L368.62745098039215,294.25714285714287L376.4705882352941,294.04285714285714L384.3137254901961,293.57142857142856L392.156862745098,293.48571428571427L400,293.09999999999997" style="fill: none; stroke: #e45756; stroke-width: 2; opacity: 0.7;"></path></g></g><path class="foreground" d="" style="display: none; fill: none;"></path></g><g transform="translate(0,0)"><path class="background" d="M0,0h400v300h-400Z" style="fill: none;"></path><g><g class="mark-line role-mark marks" clip-path="url(#clip4)"><path d="M0,299.95714285714286L7.8431372549019605,299.95714285714286L15.686274509803921,299.74285714285713L23.52941176470588,299.3571428571429L31.372549019607842,299.1857142857143L39.21568627450981,298.92857142857144L47.05882352941176,298.62857142857143L54.90196078431373,297.6L62.745098039215684,296.27142857142854L70.58823529411765,295.37142857142857L78.43137254901961,293.7L86.27450980392157,292.45714285714286L94.11764705882352,291.2142857142857L101.96078431372548,282.85714285714283L109.80392156862746,274.37142857142857L117.64705882352942,269.9142857142857L125.49019607843137,257.3142857142857L133.33333333333331,253.28571428571428L141.1764705882353,247.67142857142858L149.01960784313727,242.8714285714286L156.86274509803923,237.3L164.70588235294116,233.57142857142858L172.54901960784315,225.17142857142858L180.3921568627451,217.9714285714286L188.23529411764704,209.22857142857146L196.078431372549,203.0142857142857L203.92156862745097,187.67142857142858L211.76470588235296,177.29999999999998L219.60784313725492,167.82857142857142L227.45098039215685,155.6142857142857L235.29411764705884,139.07142857142856L243.13725490196077,127.92857142857142L250.98039215686273,116.4L258.8235294117647,109.5L266.66666666666663,101.1L274.5098039215686,91.58571428571427L282.3529411764706,79.41428571428571L290.19607843137254,69.85714285714286L298.03921568627453,62.14285714285715L305.88235294117646,56.27142857142859L313.72549019607845,48.642857142857146L321.5686274509804,39.17142857142857L329.4117647058823,39.17142857142857L337.2549019607843,33.81428571428573L345.0980392156863,29.39999999999999L352.94117647058823,25.328571428571422L360.7843137254902,20.35714285714285L368.62745098039215,17.014285714285716L376.4705882352941,16.157142857142848L384.3137254901961,11.142857142857142L392.156862745098,4.457142857142871L400,2.7000000000000024" style="fill: none; stroke: #f58518; stroke-width: 2; opacity: 0.7;"></path></g></g><path class="foreground" d="" style="display: none; fill: none;"></path></g></g><g class="mark-group role-legend"><g transform="translate(418,0)"><path class="background" d="M0,0h60v50h-60Z" style="pointer-events: none; fill: none;"></path><g><g class="mark-group role-legend-entry"><g transform="translate(0,0)"><path class="background" d="M0,0h0v0h0Z" style="pointer-events: none; fill: none;"></path><g><g class="mark-group role-scope"><g transform="translate(0,0)"><path class="background" d="M0,0h59.3251953125v11h-59.3251953125Z" style="pointer-events: none; fill: none; opacity: 1;"></path><g><g class="mark-symbol role-legend-symbol" style="pointer-events: none;"><path transform="translate(6,6)" d="M-5,0L5,0" style="fill: none; stroke: #4c78a8; stroke-width: 1.5; opacity: 0.7;"></path></g><g class="mark-text role-legend-label" style="pointer-events: none;"><text text-anchor="start" transform="translate(16,9)" style="font-family: Roboto Condensed; font-size: 10px; fill: #000; opacity: 1;">Active</text></g></g><path class="foreground" d="" style="pointer-events: none; display: none; fill: none;"></path></g><g transform="translate(0,13)"><path class="background" d="M0,0h59.3251953125v11h-59.3251953125Z" style="pointer-events: none; fill: none; opacity: 1;"></path><g><g class="mark-symbol role-legend-symbol" style="pointer-events: none;"><path transform="translate(6,6)" d="M-5,0L5,0" style="fill: none; stroke: #f58518; stroke-width: 1.5; opacity: 0.7;"></path></g><g class="mark-text role-legend-label" style="pointer-events: none;"><text text-anchor="start" transform="translate(16,9)" style="font-family: Roboto Condensed; font-size: 10px; fill: #000; opacity: 1;">Confirmed</text></g></g><path class="foreground" d="" style="pointer-events: none; display: none; fill: none;"></path></g><g transform="translate(0,26)"><path class="background" d="M0,0h59.3251953125v11h-59.3251953125Z" style="pointer-events: none; fill: none; opacity: 1;"></path><g><g class="mark-symbol role-legend-symbol" style="pointer-events: none;"><path transform="translate(6,6)" d="M-5,0L5,0" style="fill: none; stroke: #e45756; stroke-width: 1.5; opacity: 0.7;"></path></g><g class="mark-text role-legend-label" style="pointer-events: none;"><text text-anchor="start" transform="translate(16,9)" style="font-family: Roboto Condensed; font-size: 10px; fill: #000; opacity: 1;">Deaths</text></g></g><path class="foreground" d="" style="pointer-events: none; display: none; fill: none;"></path></g><g transform="translate(0,39)"><path class="background" d="M0,0h59.3251953125v11h-59.3251953125Z" style="pointer-events: none; fill: none; opacity: 1;"></path><g><g class="mark-symbol role-legend-symbol" style="pointer-events: none;"><path transform="translate(6,6)" d="M-5,0L5,0" style="fill: none; stroke: #72b7b2; stroke-width: 1.5; opacity: 0.7;"></path></g><g class="mark-text role-legend-label" style="pointer-events: none;"><text text-anchor="start" transform="translate(16,9)" style="font-family: Roboto Condensed; font-size: 10px; fill: #000; opacity: 1;">Recovered</text></g></g><path class="foreground" d="" style="pointer-events: none; display: none; fill: none;"></path></g></g></g><path class="foreground" d="" style="pointer-events: none; display: none; fill: none;"></path></g></g></g><path class="foreground" d="" style="pointer-events: none; display: none; fill: none;"></path></g></g></g><path class="foreground" d="" style="display: none; fill: none;"></path></g></g></g></svg>