<svg class="marks" width="996" height="476" viewBox="0 0 996 476" version="1.1" xmlns="http://www.w3.org/2000/svg" xmlns:xlink="http://www.w3.org/1999/xlink"><defs><clipPath id="clip1"><rect x="0" y="0" width="400" height="400"></rect></clipPath><clipPath id="clip2"><rect x="0" y="0" width="400" height="400"></rect></clipPath><clipPath id="clip3"><rect x="0" y="0" width="400" height="400"></rect></clipPath><clipPath id="clip4"><rect x="0" y="0" width="400" height="400"></rect></clipPath><clipPath id="clip5"><rect x="0" y="0" width="400" height="400"></rect></clipPath><clipPath id="clip6"><rect x="0" y="0" width="400" height="400"></rect></clipPath><clipPath id="clip7"><rect x="0" y="0" width="400" height="400"></rect></clipPath><clipPath id="clip8"><rect x="0" y="0" width="400" height="400"></rect></clipPath><clipPath id="clip9"><rect x="0" y="0" width="400" height="400"></rect></clipPath></defs><rect width="996" height="476" fill="white"></rect><g fill="none" stroke-miterlimit="10" transform="translate(50,44)"><g class="mark-group role-frame root" role="graphics-object" aria-roledescription="group mark container"><g transform="translate(0,0)"><path class="background" aria-hidden="true" d="M0,0h0v400h0Z"></path><g><g class="mark-group role-scope concat_0_group" role="graphics-object" aria-roledescription="group mark container"><g transform="translate(0,0)"><path class="background" aria-hidden="true" d="M0,0h400v400h-400Z" stroke="#ddd" stroke-width="0"></path><g><g class="mark-group role-axis" aria-hidden="true"><g transform="translate(0.5,0.5)"><path class="background" aria-hidden="true" d="M0,0h0v0h0Z" pointer-events="none"></path><g><g class="mark-rule role-axis-grid" pointer-events="none"><line transform="translate(0,400)" x2="400" y2="0" stroke="#ddd" stroke-width="1" opacity="1"></line><line transform="translate(0,350)" x2="400" y2="0" stroke="#ddd" stroke-width="1" opacity="1"></line><line transform="translate(0,300)" x2="400" y2="0" stroke="#ddd" stroke-width="1" opacity="1"></line><line transform="translate(0,250)" x2="400" y2="0" stroke="#ddd" stroke-width="1" opacity="1"></line><line transform="translate(0,200)" x2="400" y2="0" stroke="#ddd" stroke-width="1" opacity="1"></line><line transform="translate(0,150)" x2="400" y2="0" stroke="#ddd" stroke-width="1" opacity="1"></line><line transform="translate(0,100)" x2="400" y2="0" stroke="#ddd" stroke-width="1" opacity="1"></line><line transform="translate(0,50)" x2="400" y2="0" stroke="#ddd" stroke-width="1" opacity="1"></line><line transform="translate(0,0)" x2="400" y2="0" stroke="#ddd" stroke-width="1" opacity="1"></line></g></g><path class="foreground" aria-hidden="true" d="" pointer-events="none" display="none"></path></g></g><g class="mark-group role-axis" role="graphics-symbol" aria-roledescription="axis" aria-label="X-axis titled 'Date' for a time scale with values from April 28 to May 28"><g transform="translate(0.5,400.5)"><path class="background" aria-hidden="true" d="M0,0h0v0h0Z" pointer-events="none"></path><g><g class="mark-text role-axis-label" pointer-events="none"><text text-anchor="middle" transform="translate(3.888888888888889,10)" font-family="Roboto Condensed" font-size="10px" fill="#000" opacity="1">Apr 29</text><text text-anchor="middle" transform="translate(30.555555555555557,10)" font-family="Roboto Condensed" font-size="10px" fill="#000" opacity="0">May 01</text><text text-anchor="middle" transform="translate(57.22222222222222,10)" font-family="Roboto Condensed" font-size="10px" fill="#000" opacity="1">May 03</text><text text-anchor="middle" transform="translate(83.88888888888889,10)" font-family="Roboto Condensed" font-size="10px" fill="#000" opacity="0">May 05</text><text text-anchor="middle" transform="translate(110.55555555555556,10)" font-family="Roboto Condensed" font-size="10px" fill="#000" opacity="1">May 07</text><text text-anchor="middle" transform="translate(137.22222222222223,10)" font-family="Roboto Condensed" font-size="10px" fill="#000" opacity="0">May 09</text><text text-anchor="middle" transform="translate(163.88888888888889,10)" font-family="Roboto Condensed" font-size="10px" fill="#000" opacity="1">May 11</text><text text-anchor="middle" transform="translate(190.55555555555554,10)" font-family="Roboto Condensed" font-size="10px" fill="#000" opacity="0">May 13</text><text text-anchor="middle" transform="translate(217.2222222222222,10)" font-family="Roboto Condensed" font-size="10px" fill="#000" opacity="1">May 15</text><text text-anchor="middle" transform="translate(243.8888888888889,10)" font-family="Roboto Condensed" font-size="10px" fill="#000" opacity="0">May 17</text><text text-anchor="middle" transform="translate(270.55555555555554,10)" font-family="Roboto Condensed" font-size="10px" fill="#000" opacity="1">May 19</text><text text-anchor="middle" transform="translate(297.22222222222223,10)" font-family="Roboto Condensed" font-size="10px" fill="#000" opacity="0">May 21</text><text text-anchor="middle" transform="translate(323.8888888888889,10)" font-family="Roboto Condensed" font-size="10px" fill="#000" opacity="1">May 23</text><text text-anchor="middle" transform="translate(350.55555555555554,10)" font-family="Roboto Condensed" font-size="10px" fill="#000" opacity="0">May 25</text><text text-anchor="middle" transform="translate(377.22222222222223,10)" font-family="Roboto Condensed" font-size="10px" fill="#000" opacity="1">May 27</text></g><g class="mark-rule role-axis-domain" pointer-events="none"><line transform="translate(0,0)" x2="400" y2="0" stroke="lightgray" stroke-width="1" opacity="1"></line></g><g class="mark-text role-axis-title" pointer-events="none"><text text-anchor="middle" transform="translate(200,25)" font-family="Roboto Condensed" font-size="11px" font-weight="normal" fill="#000" opacity="1">Date</text></g></g><path class="foreground" aria-hidden="true" d="" pointer-events="none" display="none"></path></g></g><g class="mark-group role-axis" role="graphics-symbol" aria-roledescription="axis" aria-label="Y-axis titled 'Count' for a linear scale with values from 0 to 8,000"><g transform="translate(0.5,0.5)"><path class="background" aria-hidden="true" d="M0,0h0v0h0Z" pointer-events="none"></path><g><g class="mark-text role-axis-label" pointer-events="none"><text text-anchor="end" transform="translate(-2,403)" font-family="Roboto Condensed" font-size="10px" fill="#000" opacity="1">0</text><text text-anchor="end" transform="translate(-2,353)" font-family="Roboto Condensed" font-size="10px" fill="#000" opacity="1">1,000</text><text text-anchor="end" transform="translate(-2,303)" font-family="Roboto Condensed" font-size="10px" fill="#000" opacity="1">2,000</text><text text-anchor="end" transform="translate(-2,253)" font-family="Roboto Condensed" font-size="10px" fill="#000" opacity="1">3,000</text><text text-anchor="end" transform="translate(-2,203)" font-family="Roboto Condensed" font-size="10px" fill="#000" opacity="1">4,000</text><text text-anchor="end" transform="translate(-2,153)" font-family="Roboto Condensed" font-size="10px" fill="#000" opacity="1">5,000</text><text text-anchor="end" transform="translate(-2,103)" font-family="Roboto Condensed" font-size="10px" fill="#000" opacity="1">6,000</text><text text-anchor="end" transform="translate(-2,53)" font-family="Roboto Condensed" font-size="10px" fill="#000" opacity="1">7,000</text><text text-anchor="end" transform="translate(-2,3)" font-family="Roboto Condensed" font-size="10px" fill="#000" opacity="1">8,000</text></g><g class="mark-rule role-axis-domain" pointer-events="none"><line transform="translate(0,400)" x2="0" y2="-400" stroke="lightgray" stroke-width="1" opacity="1"></line></g><g class="mark-text role-axis-title" pointer-events="none"><text text-anchor="start" transform="translate(-45,-13)" font-family="Roboto Condensed" font-size="11px" font-weight="normal" fill="#000" opacity="1">Count</text></g></g><path class="foreground" aria-hidden="true" d="" pointer-events="none" display="none"></path></g></g><g class="mark-group role-scope concat_0_layer_0_pathgroup" role="graphics-object" aria-roledescription="group mark container"><g transform="translate(0,0)"><path class="background" aria-hidden="true" d="M0,0h400v400h-400Z"></path><g><g class="mark-line role-mark concat_0_layer_0_marks" clip-path="url(#clip1)" role="graphics-object" aria-roledescription="line mark container"><path aria-label="Type: Recovered; Date: Mar 01; Count: 0" role="graphics-symbol" aria-roledescription="line mark" d="M-782.2222222222222,400L-768.8888888888889,400L-755.5555555555555,400L-742.2222222222223,400L-728.8888888888889,400L-715.5555555555555,400L-702.2222222222222,400L-688.8888888888889,400L-676.1111111111111,399.95L-662.7777777777778,400L-649.4444444444445,400L-636.1111111111111,400L-622.7777777777778,400L-609.4444444444445,400L-596.1111111111111,400L-582.7777777777777,400L-569.4444444444445,400L-556.1111111111111,400L-542.7777777777778,400L-529.4444444444445,400L-516.1111111111111,400L-502.77777777777777,400L-489.44444444444446,400L-476.1111111111111,399.75L-462.7777777777778,400L-449.44444444444446,400L-436.1111111111111,400L-422.77777777777777,399.95L-409.4444444444444,400L-396.11111111111114,399.75L-382.77777777777777,399.95L-369.44444444444446,400L-356.1111111111111,399.05L-342.77777777777777,400L-329.44444444444446,400L-316.1111111111111,400L-302.77777777777777,400L-289.44444444444446,400L-276.1111111111111,400L-262.77777777777777,400L-249.44444444444446,400L-236.11111111111111,400L-222.77777777777777,400L-209.44444444444446,400L-196.11111111111111,400L-182.77777777777777,400L-169.44444444444443,400L-156.11111111111111,400L-142.77777777777777,400L-129.44444444444446,400L-116.11111111111111,400L-102.77777777777777,400L-89.44444444444444,400L-76.11111111111111,400L-62.77777777777778,400L-49.44444444444444,400L-36.11111111111111,400L-22.77777777777778,400L-9.444444444444445,400L3.888888888888889,400L17.22222222222222,400L30.555555555555557,400L43.888888888888886,400L57.22222222222222,400L70.55555555555556,400L83.88888888888889,400L97.22222222222221,400L110.55555555555556,400L123.88888888888889,400L137.22222222222223,400L150.55555555555554,400L163.88888888888889,400L177.22222222222223,400L190.55555555555554,400L203.88888888888889,400L217.2222222222222,400L230.55555555555554,400L243.8888888888889,400L257.22222222222223,400L270.55555555555554,400L283.8888888888889,400L297.22222222222223,400L310.55555555555554,15.249999999999986L323.8888888888889,400L337.22222222222223,400L350.55555555555554,400L363.88888888888886,400L377.22222222222223,400L390.55555555555554,400L403.88888888888886,400" stroke="#e45756" stroke-width="2" opacity="0.2"></path></g></g><path class="foreground" aria-hidden="true" d="" display="none"></path></g><g transform="translate(0,0)"><path class="background" aria-hidden="true" d="M0,0h400v400h-400Z"></path><g><g class="mark-line role-mark concat_0_layer_0_marks" clip-path="url(#clip2)" role="graphics-object" aria-roledescription="line mark container"><path aria-label="Type: Deaths; Date: Mar 01; Count: 0" role="graphics-symbol" aria-roledescription="line mark" d="M-782.2222222222222,400L-768.8888888888889,400L-755.5555555555555,400L-742.2222222222223,400L-728.8888888888889,400L-715.5555555555555,400L-702.2222222222222,400L-688.8888888888889,400L-676.1111111111111,400L-662.7777777777778,400L-649.4444444444445,400L-636.1111111111111,400L-622.7777777777778,400L-609.4444444444445,399.85L-596.1111111111111,400L-582.7777777777777,400L-569.4444444444445,400L-556.1111111111111,399.85L-542.7777777777778,399.95L-529.4444444444445,400L-516.1111111111111,400L-502.77777777777777,400L-489.44444444444446,399.85L-476.1111111111111,399.90000000000003L-462.7777777777778,399.90000000000003L-449.44444444444446,400L-436.1111111111111,399.75L-422.77777777777777,399.8L-409.4444444444444,399.90000000000003L-396.11111111111114,399.65000000000003L-382.77777777777777,399.65000000000003L-369.44444444444446,399.75L-356.1111111111111,399.7L-342.77777777777777,399.54999999999995L-329.44444444444446,399.85L-316.1111111111111,399.54999999999995L-302.77777777777777,399.75L-289.44444444444446,399.35L-276.1111111111111,399.40000000000003L-262.77777777777777,399.65000000000003L-249.44444444444446,399.75L-236.11111111111111,399.7L-222.77777777777777,399.54999999999995L-209.44444444444446,399.7L-196.11111111111111,399.75L-182.77777777777777,399.45L-169.44444444444443,399.90000000000003L-156.11111111111111,399.54999999999995L-142.77777777777777,399.85L-129.44444444444446,399.95L-116.11111111111111,399.2L-102.77777777777777,399.95L-89.44444444444444,399.75L-76.11111111111111,399.65000000000003L-62.77777777777778,399.75L-49.44444444444444,399.90000000000003L-36.11111111111111,400L-22.77777777777778,399.8L-9.444444444444445,399.95L3.888888888888889,399.95L17.22222222222222,399.85L30.555555555555557,400L43.888888888888886,399.95L57.22222222222222,400L70.55555555555556,399.85L83.88888888888889,399.95L97.22222222222221,399.95L110.55555555555556,399.95L123.88888888888889,399.95L137.22222222222223,399.95L150.55555555555554,400L163.88888888888889,399.75L177.22222222222223,399.8L190.55555555555554,399.95L203.88888888888889,399.85L217.2222222222222,400L230.55555555555554,400L243.8888888888889,400L257.22222222222223,399.95L270.55555555555554,400L283.8888888888889,399.95L297.22222222222223,399.95L310.55555555555554,400L323.8888888888889,400L337.22222222222223,400L350.55555555555554,400L363.88888888888886,400L377.22222222222223,400L390.55555555555554,399.95L403.88888888888886,400" stroke="#f58518" stroke-width="2" opacity="0.2"></path></g></g><path class="foreground" aria-hidden="true" d="" display="none"></path></g><g transform="translate(0,0)"><path class="background" aria-hidden="true" d="M0,0h400v400h-400Z"></path><g><g class="mark-line role-mark concat_0_layer_0_marks" clip-path="url(#clip3)" role="graphics-object" aria-roledescription="line mark container"><path aria-label="Type: Confirmed; Date: Mar 01; Count: 4" role="graphics-symbol" aria-roledescription="line mark" d="M-782.2222222222222,399.8L-768.8888888888889,399.7L-755.5555555555555,399.65000000000003L-742.2222222222223,398.8L-728.8888888888889,398.45L-715.5555555555555,398.95L-702.2222222222222,398.05L-688.8888888888889,398.55L-676.1111111111111,398.55L-662.7777777777778,390.25L-649.4444444444445,390.09999999999997L-636.1111111111111,394.8L-622.7777777777778,385.3L-609.4444444444445,395.3L-596.1111111111111,393.45L-582.7777777777777,394.4L-569.4444444444445,393.5L-556.1111111111111,395.65000000000003L-542.7777777777778,390.2L-529.4444444444445,391.59999999999997L-516.1111111111111,389.8L-502.77777777777777,386.65L-489.44444444444446,388.2L-476.1111111111111,387.9L-462.7777777777778,388.95L-449.44444444444446,385.75L-436.1111111111111,380.7L-422.77777777777777,387L-409.4444444444444,386.55L-396.11111111111114,391.95000000000005L-382.77777777777777,390.2L-369.44444444444446,388.9L-356.1111111111111,385.8L-342.77777777777777,388.85L-329.44444444444446,391L-316.1111111111111,393.15L-302.77777777777777,391.1L-289.44444444444446,388.95L-276.1111111111111,400L-262.77777777777777,393.75L-249.44444444444446,394.85L-236.11111111111111,395.25L-222.77777777777777,394.20000000000005L-209.44444444444446,396.09999999999997L-196.11111111111111,399L-182.77777777777777,394.15L-169.44444444444443,392.2L-156.11111111111111,397.95L-142.77777777777777,395.05L-129.44444444444446,397.90000000000003L-116.11111111111111,396.09999999999997L-102.77777777777777,398.25L-89.44444444444444,392.65L-76.11111111111111,396.85L-62.77777777777778,396.9L-49.44444444444444,398.20000000000005L-36.11111111111111,398.6L-22.77777777777778,396.4L-9.444444444444445,396.95L3.888888888888889,397.5L17.22222222222222,398.6L30.555555555555557,397.75L43.888888888888886,398.7L57.22222222222222,398.09999999999997L70.55555555555556,397.15L83.88888888888889,397.45L97.22222222222221,397.95L110.55555555555556,398.09999999999997L123.88888888888889,398.20000000000005L137.22222222222223,398.55L150.55555555555554,399.7L163.88888888888889,398.65L177.22222222222223,398.75L190.55555555555554,399.1L203.88888888888889,398.95L217.2222222222222,398.85L230.55555555555554,399.1L243.8888888888889,399.40000000000003L257.22222222222223,399.6L270.55555555555554,399.5L283.8888888888889,399.3L297.22222222222223,398.6L310.55555555555554,398.85L323.8888888888889,399.3L337.22222222222223,399.7L350.55555555555554,399.40000000000003L363.88888888888886,399.05L377.22222222222223,399.1L390.55555555555554,399.5L403.88888888888886,399.45" stroke="#4c78a8" stroke-width="2" opacity="0.2"></path></g></g><path class="foreground" aria-hidden="true" d="" display="none"></path></g></g><g class="mark-group role-scope concat_0_layer_1_pathgroup" role="graphics-object" aria-roledescription="group mark container"><g transform="translate(0,0)"><path class="background" aria-hidden="true" d="M0,0h400v400h-400Z"></path><g><g class="mark-line role-mark concat_0_layer_1_marks" clip-path="url(#clip4)" role="graphics-object" aria-roledescription="line mark container"><path aria-label="Type: Recovered; Date: Mar 01; Count: 0" role="graphics-symbol" aria-roledescription="line mark" d="M-702.2222222222222,400L-688.8888888888889,400L-676.1111111111111,399.99285714285713L-662.7777777777778,399.99285714285713L-649.4444444444445,399.99285714285713L-636.1111111111111,399.99285714285713L-622.7777777777778,399.99285714285713L-609.4444444444445,399.99285714285713L-596.1111111111111,399.99285714285713L-582.7777777777777,400L-569.4444444444445,400L-556.1111111111111,400L-542.7777777777778,400L-529.4444444444445,400L-516.1111111111111,400L-502.77777777777777,400L-489.44444444444446,400L-476.1111111111111,399.9642857142857L-462.7777777777778,399.9642857142857L-449.44444444444446,399.9642857142857L-436.1111111111111,399.9642857142857L-422.77777777777777,399.95714285714286L-409.4444444444444,399.95714285714286L-396.11111111111114,399.9214285714286L-382.77777777777777,399.95L-369.44444444444446,399.95L-356.1111111111111,399.81428571428575L-342.77777777777777,399.81428571428575L-329.44444444444446,399.82142857142856L-316.1111111111111,399.82142857142856L-302.77777777777777,399.8571428571429L-289.44444444444446,399.8642857142857L-276.1111111111111,399.8642857142857L-262.77777777777777,400L-249.44444444444446,400L-236.11111111111111,400L-222.77777777777777,400L-209.44444444444446,400L-196.11111111111111,400L-182.77777777777777,400L-169.44444444444443,400L-156.11111111111111,400L-142.77777777777777,400L-129.44444444444446,400L-116.11111111111111,400L-102.77777777777777,400L-89.44444444444444,400L-76.11111111111111,400L-62.77777777777778,400L-49.44444444444444,400L-36.11111111111111,400L-22.77777777777778,400L-9.444444444444445,400L3.888888888888889,400L17.22222222222222,400L30.555555555555557,400L43.888888888888886,400L57.22222222222222,400L70.55555555555556,400L83.88888888888889,400L97.22222222222221,400L110.55555555555556,400L123.88888888888889,400L137.22222222222223,400L150.55555555555554,400L163.88888888888889,400L177.22222222222223,400L190.55555555555554,400L203.88888888888889,400L217.2222222222222,400L230.55555555555554,400L243.8888888888889,400L257.22222222222223,400L270.55555555555554,400L283.8888888888889,400L297.22222222222223,400L310.55555555555554,345.0357142857143L323.8888888888889,345.0357142857143L337.22222222222223,345.0357142857143L350.55555555555554,345.0357142857143L363.88888888888886,345.0357142857143L377.22222222222223,345.0357142857143L390.55555555555554,345.0357142857143L403.88888888888886,400" stroke="#e45756" stroke-width="2" opacity="1"></path></g></g><path class="foreground" aria-hidden="true" d="" display="none"></path></g><g transform="translate(0,0)"><path class="background" aria-hidden="true" d="M0,0h400v400h-400Z"></path><g><g class="mark-line role-mark concat_0_layer_1_marks" clip-path="url(#clip5)" role="graphics-object" aria-roledescription="line mark container"><path aria-label="Type: Deaths; Date: Mar 01; Count: 0" role="graphics-symbol" aria-roledescription="line mark" d="M-702.2222222222222,400L-688.8888888888889,400L-676.1111111111111,400L-662.7777777777778,400L-649.4444444444445,400L-636.1111111111111,400L-622.7777777777778,400L-609.4444444444445,399.9785714285714L-596.1111111111111,399.9785714285714L-582.7777777777777,399.9785714285714L-569.4444444444445,399.9785714285714L-556.1111111111111,399.95714285714286L-542.7777777777778,399.95L-529.4444444444445,399.95L-516.1111111111111,399.97142857142853L-502.77777777777777,399.97142857142853L-489.44444444444446,399.95L-476.1111111111111,399.9357142857143L-462.7777777777778,399.9428571428572L-449.44444444444446,399.95L-436.1111111111111,399.9142857142857L-422.77777777777777,399.88571428571424L-409.4444444444444,399.87142857142857L-396.11111111111114,399.8428571428571L-382.77777777777777,399.8071428571428L-369.44444444444446,399.7857142857143L-356.1111111111111,399.74285714285713L-342.77777777777777,399.7142857142857L-329.44444444444446,399.72142857142853L-316.1111111111111,399.6714285714286L-302.77777777777777,399.6857142857143L-289.44444444444446,399.64285714285717L-276.1111111111111,399.59285714285716L-262.77777777777777,399.5857142857143L-249.44444444444446,399.6142857142857L-236.11111111111111,399.59285714285716L-222.77777777777777,399.59285714285716L-209.44444444444446,399.5857142857143L-196.11111111111111,399.64285714285717L-182.77777777777777,399.65000000000003L-169.44444444444443,399.6857142857143L-156.11111111111111,399.65714285714284L-142.77777777777777,399.67857142857144L-129.44444444444446,399.7357142857143L-116.11111111111111,399.6642857142857L-102.77777777777777,399.6928571428572L-89.44444444444444,399.7357142857143L-76.11111111111111,399.7L-62.77777777777778,399.72857142857146L-49.44444444444444,399.7357142857143L-36.11111111111111,399.74285714285713L-22.77777777777778,399.8285714285714L-9.444444444444445,399.8285714285714L3.888888888888889,399.8571428571429L17.22222222222222,399.88571428571424L30.555555555555557,399.9214285714286L43.888888888888886,399.9285714285714L57.22222222222222,399.9285714285714L70.55555555555556,399.9357142857143L83.88888888888889,399.9357142857143L97.22222222222221,399.9357142857143L110.55555555555556,399.95L123.88888888888889,399.9428571428572L137.22222222222223,399.9428571428572L150.55555555555554,399.9428571428572L163.88888888888889,399.9285714285714L177.22222222222223,399.90714285714284L190.55555555555554,399.90714285714284L203.88888888888889,399.8928571428571L217.2222222222222,399.90000000000003L230.55555555555554,399.90714285714284L243.8888888888889,399.90714285714284L257.22222222222223,399.9357142857143L270.55555555555554,399.9642857142857L283.8888888888889,399.9642857142857L297.22222222222223,399.9785714285714L310.55555555555554,399.9785714285714L323.8888888888889,399.9785714285714L337.22222222222223,399.9785714285714L350.55555555555554,399.9857142857143L363.88888888888886,399.9857142857143L377.22222222222223,399.99285714285713L390.55555555555554,399.99285714285713L403.88888888888886,399.99285714285713" stroke="#f58518" stroke-width="2" opacity="1"></path></g></g><path class="foreground" aria-hidden="true" d="" display="none"></path></g><g transform="translate(0,0)"><path class="background" aria-hidden="true" d="M0,0h400v400h-400Z"></path><g><g class="mark-line role-mark concat_0_layer_1_marks" clip-path="url(#clip6)" role="graphics-object" aria-roledescription="line mark container"><path aria-label="Type: Confirmed; Date: Mar 01; Count: 0" role="graphics-symbol" aria-roledescription="line mark" d="M-702.2222222222222,399.0571428571429L-688.8888888888889,398.87857142857143L-676.1111111111111,398.7142857142857L-662.7777777777778,397.37142857142857L-649.4444444444445,396.12857142857143L-636.1111111111111,395.6071428571429L-622.7777777777778,393.65714285714284L-609.4444444444445,393.26428571428573L-596.1111111111111,392.5357142857143L-582.7777777777777,391.9428571428571L-569.4444444444445,392.40714285714284L-556.1111111111111,393.2L-542.7777777777778,392.54285714285714L-529.4444444444445,393.4428571428572L-516.1111111111111,392.65714285714284L-502.77777777777777,391.68571428571425L-489.44444444444446,390.8L-476.1111111111111,390L-462.7777777777778,389.04285714285714L-449.44444444444446,388.40714285714284L-436.1111111111111,386.85L-422.77777777777777,386.45L-409.4444444444444,386.4357142857143L-396.11111111111114,386.9714285714286L-382.77777777777777,387.3L-369.44444444444446,387.29285714285714L-356.1111111111111,387.3L-342.77777777777777,388.4642857142857L-329.44444444444446,389.0357142857143L-316.1111111111111,389.9785714285714L-302.77777777777777,389.85714285714283L-289.44444444444446,389.67857142857144L-276.1111111111111,391.26428571428573L-262.77777777777777,392.4L-249.44444444444446,393.25714285714287L-236.11111111111111,393.86428571428576L-222.77777777777777,394.0142857142857L-209.44444444444446,394.7285714285714L-196.11111111111111,396.1642857142857L-182.77777777777777,395.3285714285714L-169.44444444444443,395.1071428571429L-156.11111111111111,395.54999999999995L-142.77777777777777,395.5214285714286L-129.44444444444446,396.05L-116.11111111111111,396.05L-102.77777777777777,395.9428571428572L-89.44444444444444,395.72857142857146L-76.11111111111111,396.3928571428571L-62.77777777777778,396.2428571428572L-49.44444444444444,396.6928571428571L-36.11111111111111,396.79285714285714L-22.77777777777778,396.8357142857143L-9.444444444444445,396.65L3.888888888888889,397.34285714285716L17.22222222222222,397.5928571428571L30.555555555555557,397.7142857142857L43.888888888888886,397.7857142857143L57.22222222222222,397.7142857142857L70.55555555555556,397.8214285714286L83.88888888888889,397.8928571428571L97.22222222222221,397.95714285714286L110.55555555555556,397.88571428571424L123.88888888888889,397.95L137.22222222222223,397.9285714285714L150.55555555555554,398.1571428571429L163.88888888888889,398.37142857142857L177.22222222222223,398.5571428571429L190.55555555555554,398.7214285714286L203.88888888888889,398.84285714285716L217.2222222222222,398.9357142857143L230.55555555555554,399.01428571428573L243.8888888888889,398.9714285714286L257.22222222222223,399.10714285714283L270.55555555555554,399.2142857142857L283.8888888888889,399.24285714285713L297.22222222222223,399.1928571428571L310.55555555555554,399.1928571428571L323.8888888888889,399.2214285714286L337.22222222222223,399.26428571428573L350.55555555555554,399.23571428571427L363.88888888888886,399.1714285714286L377.22222222222223,399.14285714285717L390.55555555555554,399.2714285714286L403.88888888888886,399.3571428571429" stroke="#4c78a8" stroke-width="2" opacity="1"></path></g></g><path class="foreground" aria-hidden="true" d="" display="none"></path></g></g><g class="mark-group role-title"><g transform="translate(200,-39)"><path class="background" aria-hidden="true" d="M0,0h0v0h0Z" pointer-events="none"></path><g><g class="mark-text role-title-text" role="graphics-symbol" aria-roledescription="title" aria-label="Title text '7-day average (Daily values in light color)'" pointer-events="none"><text text-anchor="middle" transform="translate(0,10)" font-family="Roboto Condensed" font-size="13px" font-weight="normal" fill="#000" opacity="1">7-day average (Daily values in light color)</text></g></g><path class="foreground" aria-hidden="true" d="" pointer-events="none" display="none"></path></g></g></g><path class="foreground" aria-hidden="true" d="" display="none"></path></g></g><g class="mark-group role-scope concat_1_group" role="graphics-object" aria-roledescription="group mark container"><g transform="translate(465,0)"><path class="background" aria-hidden="true" d="M0,0h400v400h-400Z" stroke="#ddd" stroke-width="0"></path><g><g class="mark-group role-axis" aria-hidden="true"><g transform="translate(0.5,0.5)"><path class="background" aria-hidden="true" d="M0,0h0v0h0Z" pointer-events="none"></path><g><g class="mark-rule role-axis-grid" pointer-events="none"><line transform="translate(0,400)" x2="400" y2="0" stroke="#ddd" stroke-width="1" opacity="1"></line><line transform="translate(0,356)" x2="400" y2="0" stroke="#ddd" stroke-width="1" opacity="1"></line><line transform="translate(0,311)" x2="400" y2="0" stroke="#ddd" stroke-width="1" opacity="1"></line><line transform="translate(0,267)" x2="400" y2="0" stroke="#ddd" stroke-width="1" opacity="1"></line><line transform="translate(0,222)" x2="400" y2="0" stroke="#ddd" stroke-width="1" opacity="1"></line><line transform="translate(0,178)" x2="400" y2="0" stroke="#ddd" stroke-width="1" opacity="1"></line><line transform="translate(0,133)" x2="400" y2="0" stroke="#ddd" stroke-width="1" opacity="1"></line><line transform="translate(0,89)" x2="400" y2="0" stroke="#ddd" stroke-width="1" opacity="1"></line><line transform="translate(0,44)" x2="400" y2="0" stroke="#ddd" stroke-width="1" opacity="1"></line><line transform="translate(0,0)" x2="400" y2="0" stroke="#ddd" stroke-width="1" opacity="1"></line></g></g><path class="foreground" aria-hidden="true" d="" pointer-events="none" display="none"></path></g></g><g class="mark-group role-axis" role="graphics-symbol" aria-roledescription="axis" aria-label="X-axis titled 'Date' for a time scale with values from April 28 to May 28"><g transform="translate(0.5,400.5)"><path class="background" aria-hidden="true" d="M0,0h0v0h0Z" pointer-events="none"></path><g><g class="mark-text role-axis-label" pointer-events="none"><text text-anchor="middle" transform="translate(3.888888888888889,10)" font-family="Roboto Condensed" font-size="10px" fill="#000" opacity="1">Apr 29</text><text text-anchor="middle" transform="translate(30.555555555555557,10)" font-family="Roboto Condensed" font-size="10px" fill="#000" opacity="0">May 01</text><text text-anchor="middle" transform="translate(57.22222222222222,10)" font-family="Roboto Condensed" font-size="10px" fill="#000" opacity="1">May 03</text><text text-anchor="middle" transform="translate(83.88888888888889,10)" font-family="Roboto Condensed" font-size="10px" fill="#000" opacity="0">May 05</text><text text-anchor="middle" transform="translate(110.55555555555556,10)" font-family="Roboto Condensed" font-size="10px" fill="#000" opacity="1">May 07</text><text text-anchor="middle" transform="translate(137.22222222222223,10)" font-family="Roboto Condensed" font-size="10px" fill="#000" opacity="0">May 09</text><text text-anchor="middle" transform="translate(163.88888888888889,10)" font-family="Roboto Condensed" font-size="10px" fill="#000" opacity="1">May 11</text><text text-anchor="middle" transform="translate(190.55555555555554,10)" font-family="Roboto Condensed" font-size="10px" fill="#000" opacity="0">May 13</text><text text-anchor="middle" transform="translate(217.2222222222222,10)" font-family="Roboto Condensed" font-size="10px" fill="#000" opacity="1">May 15</text><text text-anchor="middle" transform="translate(243.8888888888889,10)" font-family="Roboto Condensed" font-size="10px" fill="#000" opacity="0">May 17</text><text text-anchor="middle" transform="translate(270.55555555555554,10)" font-family="Roboto Condensed" font-size="10px" fill="#000" opacity="1">May 19</text><text text-anchor="middle" transform="translate(297.22222222222223,10)" font-family="Roboto Condensed" font-size="10px" fill="#000" opacity="0">May 21</text><text text-anchor="middle" transform="translate(323.8888888888889,10)" font-family="Roboto Condensed" font-size="10px" fill="#000" opacity="1">May 23</text><text text-anchor="middle" transform="translate(350.55555555555554,10)" font-family="Roboto Condensed" font-size="10px" fill="#000" opacity="0">May 25</text><text text-anchor="middle" transform="translate(377.22222222222223,10)" font-family="Roboto Condensed" font-size="10px" fill="#000" opacity="1">May 27</text></g><g class="mark-rule role-axis-domain" pointer-events="none"><line transform="translate(0,0)" x2="400" y2="0" stroke="lightgray" stroke-width="1" opacity="1"></line></g><g class="mark-text role-axis-title" pointer-events="none"><text text-anchor="middle" transform="translate(200,25)" font-family="Roboto Condensed" font-size="11px" font-weight="normal" fill="#000" opacity="1">Date</text></g></g><path class="foreground" aria-hidden="true" d="" pointer-events="none" display="none"></path></g></g><g class="mark-group role-axis" role="graphics-symbol" aria-roledescription="axis" aria-label="Y-axis titled 'Count' for a linear scale with values from 0 to 9,000"><g transform="translate(0.5,0.5)"><path class="background" aria-hidden="true" d="M0,0h0v0h0Z" pointer-events="none"></path><g><g class="mark-text role-axis-label" pointer-events="none"><text text-anchor="end" transform="translate(-2,403)" font-family="Roboto Condensed" font-size="10px" fill="#000" opacity="1">0</text><text text-anchor="end" transform="translate(-2,358.55555555555554)" font-family="Roboto Condensed" font-size="10px" fill="#000" opacity="1">1,000</text><text text-anchor="end" transform="translate(-2,314.11111111111114)" font-family="Roboto Condensed" font-size="10px" fill="#000" opacity="1">2,000</text><text text-anchor="end" transform="translate(-2,269.6666666666667)" font-family="Roboto Condensed" font-size="10px" fill="#000" opacity="1">3,000</text><text text-anchor="end" transform="translate(-2,225.22222222222223)" font-family="Roboto Condensed" font-size="10px" fill="#000" opacity="1">4,000</text><text text-anchor="end" transform="translate(-2,180.77777777777777)" font-family="Roboto Condensed" font-size="10px" fill="#000" opacity="1">5,000</text><text text-anchor="end" transform="translate(-2,136.33333333333334)" font-family="Roboto Condensed" font-size="10px" fill="#000" opacity="1">6,000</text><text text-anchor="end" transform="translate(-2,91.88888888888889)" font-family="Roboto Condensed" font-size="10px" fill="#000" opacity="1">7,000</text><text text-anchor="end" transform="translate(-2,47.444444444444464)" font-family="Roboto Condensed" font-size="10px" fill="#000" opacity="1">8,000</text><text text-anchor="end" transform="translate(-2,3)" font-family="Roboto Condensed" font-size="10px" fill="#000" opacity="1">9,000</text></g><g class="mark-rule role-axis-domain" pointer-events="none"><line transform="translate(0,400)" x2="0" y2="-400" stroke="lightgray" stroke-width="1" opacity="1"></line></g><g class="mark-text role-axis-title" pointer-events="none"><text text-anchor="start" transform="translate(-45,-13)" font-family="Roboto Condensed" font-size="11px" font-weight="normal" fill="#000" opacity="1">Count</text></g></g><path class="foreground" aria-hidden="true" d="" pointer-events="none" display="none"></path></g></g><g class="mark-group role-scope concat_1_pathgroup" role="graphics-object" aria-roledescription="group mark container"><g transform="translate(0,0)"><path class="background" aria-hidden="true" d="M0,0h400v400h-400Z"></path><g><g class="mark-line role-mark concat_1_marks" clip-path="url(#clip7)" role="graphics-object" aria-roledescription="line mark container"><path aria-label="Type: Recovered; Date: Mar 01; Country: Norway; Confirmed: 19; Recovered: 0; Deaths: 0; Count: 0" role="graphics-symbol" aria-roledescription="line mark" d="M-782.2222222222222,400L-768.8888888888889,400L-755.5555555555555,400L-742.2222222222223,400L-728.8888888888889,400L-715.5555555555555,400L-702.2222222222222,400L-688.8888888888889,400L-676.1111111111111,399.9555555555556L-662.7777777777778,399.9555555555556L-649.4444444444445,399.9555555555556L-636.1111111111111,399.9555555555556L-622.7777777777778,399.9555555555556L-609.4444444444445,399.9555555555556L-596.1111111111111,399.9555555555556L-582.7777777777777,399.9555555555556L-569.4444444444445,399.9555555555556L-556.1111111111111,399.9555555555556L-542.7777777777778,399.9555555555556L-529.4444444444445,399.9555555555556L-516.1111111111111,399.9555555555556L-502.77777777777777,399.9555555555556L-489.44444444444446,399.9555555555556L-476.1111111111111,399.7333333333333L-462.7777777777778,399.7333333333333L-449.44444444444446,399.7333333333333L-436.1111111111111,399.7333333333333L-422.77777777777777,399.68888888888887L-409.4444444444444,399.68888888888887L-396.11111111111114,399.4666666666667L-382.77777777777777,399.4222222222222L-369.44444444444446,399.4222222222222L-356.1111111111111,398.5777777777778L-342.77777777777777,398.5777777777778L-329.44444444444446,398.5777777777778L-316.1111111111111,398.5777777777778L-302.77777777777777,398.5777777777778L-289.44444444444446,398.5777777777778L-276.1111111111111,398.5777777777778L-262.77777777777777,398.5777777777778L-249.44444444444446,398.5777777777778L-236.11111111111111,398.5777777777778L-222.77777777777777,398.5777777777778L-209.44444444444446,398.5777777777778L-196.11111111111111,398.5777777777778L-182.77777777777777,398.5777777777778L-169.44444444444443,398.5777777777778L-156.11111111111111,398.5777777777778L-142.77777777777777,398.5777777777778L-129.44444444444446,398.5777777777778L-116.11111111111111,398.5777777777778L-102.77777777777777,398.5777777777778L-89.44444444444444,398.5777777777778L-76.11111111111111,398.5777777777778L-62.77777777777778,398.5777777777778L-49.44444444444444,398.5777777777778L-36.11111111111111,398.5777777777778L-22.77777777777778,398.5777777777778L-9.444444444444445,398.5777777777778L3.888888888888889,398.5777777777778L17.22222222222222,398.5777777777778L30.555555555555557,398.5777777777778L43.888888888888886,398.5777777777778L57.22222222222222,398.5777777777778L70.55555555555556,398.5777777777778L83.88888888888889,398.5777777777778L97.22222222222221,398.5777777777778L110.55555555555556,398.5777777777778L123.88888888888889,398.5777777777778L137.22222222222223,398.5777777777778L150.55555555555554,398.5777777777778L163.88888888888889,398.5777777777778L177.22222222222223,398.5777777777778L190.55555555555554,398.5777777777778L203.88888888888889,398.5777777777778L217.2222222222222,398.5777777777778L230.55555555555554,398.5777777777778L243.8888888888889,398.5777777777778L257.22222222222223,398.5777777777778L270.55555555555554,398.5777777777778L283.8888888888889,398.5777777777778L297.22222222222223,398.5777777777778L310.55555555555554,56.5777777777778L323.8888888888889,56.5777777777778L337.22222222222223,56.5777777777778L350.55555555555554,56.5777777777778L363.88888888888886,56.5777777777778L377.22222222222223,56.5777777777778L390.55555555555554,56.5777777777778L403.88888888888886,56.5777777777778" stroke="#e45756" stroke-width="2" opacity="0.7"></path></g></g><path class="foreground" aria-hidden="true" d="" display="none"></path></g><g transform="translate(0,0)"><path class="background" aria-hidden="true" d="M0,0h400v400h-400Z"></path><g><g class="mark-line role-mark concat_1_marks" clip-path="url(#clip8)" role="graphics-object" aria-roledescription="line mark container"><path aria-label="Type: Deaths; Date: Mar 01; Country: Norway; Confirmed: 19; Recovered: 0; Deaths: 0; Count: 0" role="graphics-symbol" aria-roledescription="line mark" d="M-782.2222222222222,400L-768.8888888888889,400L-755.5555555555555,400L-742.2222222222223,400L-728.8888888888889,400L-715.5555555555555,400L-702.2222222222222,400L-688.8888888888889,400L-676.1111111111111,400L-662.7777777777778,400L-649.4444444444445,400L-636.1111111111111,400L-622.7777777777778,400L-609.4444444444445,399.8666666666667L-596.1111111111111,399.8666666666667L-582.7777777777777,399.8666666666667L-569.4444444444445,399.8666666666667L-556.1111111111111,399.7333333333333L-542.7777777777778,399.68888888888887L-529.4444444444445,399.68888888888887L-516.1111111111111,399.68888888888887L-502.77777777777777,399.68888888888887L-489.44444444444446,399.5555555555556L-476.1111111111111,399.4666666666667L-462.7777777777778,399.3777777777778L-449.44444444444446,399.3777777777778L-436.1111111111111,399.15555555555557L-422.77777777777777,398.97777777777776L-409.4444444444444,398.8888888888889L-396.11111111111114,398.5777777777778L-382.77777777777777,398.26666666666665L-369.44444444444446,398.0444444444444L-356.1111111111111,397.77777777777777L-342.77777777777777,397.3777777777778L-329.44444444444446,397.2444444444444L-316.1111111111111,396.8444444444445L-302.77777777777777,396.6222222222222L-289.44444444444446,396.0444444444445L-276.1111111111111,395.5111111111111L-262.77777777777777,395.2L-249.44444444444446,394.97777777777776L-236.11111111111111,394.7111111111111L-222.77777777777777,394.3111111111111L-209.44444444444446,394.0444444444445L-196.11111111111111,393.8222222222222L-182.77777777777777,393.3333333333333L-169.44444444444443,393.24444444444447L-156.11111111111111,392.84444444444443L-142.77777777777777,392.7111111111111L-129.44444444444446,392.6666666666667L-116.11111111111111,391.9555555555556L-102.77777777777777,391.9111111111111L-89.44444444444444,391.68888888888887L-76.11111111111111,391.3777777777778L-62.77777777777778,391.15555555555557L-49.44444444444444,391.06666666666666L-36.11111111111111,391.06666666666666L-22.77777777777778,390.8888888888889L-9.444444444444445,390.84444444444443L3.888888888888889,390.8L17.22222222222222,390.6666666666667L30.555555555555557,390.6666666666667L43.888888888888886,390.6222222222222L57.22222222222222,390.6222222222222L70.55555555555556,390.4888888888889L83.88888888888889,390.44444444444446L97.22222222222221,390.4L110.55555555555556,390.35555555555555L123.88888888888889,390.3111111111111L137.22222222222223,390.26666666666665L150.55555555555554,390.26666666666665L163.88888888888889,390.0444444444445L177.22222222222223,389.8666666666667L190.55555555555554,389.8222222222222L203.88888888888889,389.68888888888887L217.2222222222222,389.68888888888887L230.55555555555554,389.68888888888887L243.8888888888889,389.68888888888887L257.22222222222223,389.64444444444445L270.55555555555554,389.64444444444445L283.8888888888889,389.59999999999997L297.22222222222223,389.55555555555554L310.55555555555554,389.55555555555554L323.8888888888889,389.55555555555554L337.22222222222223,389.55555555555554L350.55555555555554,389.55555555555554L363.88888888888886,389.55555555555554L377.22222222222223,389.55555555555554L390.55555555555554,389.5111111111111L403.88888888888886,389.5111111111111" stroke="#f58518" stroke-width="2" opacity="0.7"></path></g></g><path class="foreground" aria-hidden="true" d="" display="none"></path></g><g transform="translate(0,0)"><path class="background" aria-hidden="true" d="M0,0h400v400h-400Z"></path><g><g class="mark-line role-mark concat_1_marks" clip-path="url(#clip9)" role="graphics-object" aria-roledescription="line mark container"><path aria-label="Type: Confirmed; Date: Mar 01; Country: Norway; Confirmed: 19; Recovered: 0; Deaths: 0; Count: 19" role="graphics-symbol" aria-roledescription="line mark" d="M-782.2222222222222,399.15555555555557L-768.8888888888889,398.8888888888889L-755.5555555555555,398.5777777777778L-742.2222222222223,397.5111111111111L-728.8888888888889,396.1333333333333L-715.5555555555555,395.2L-702.2222222222222,393.4666666666667L-688.8888888888889,392.1777777777778L-676.1111111111111,390.8888888888889L-662.7777777777778,382.22222222222223L-649.4444444444445,373.4222222222222L-636.1111111111111,368.8L-622.7777777777778,355.73333333333335L-609.4444444444445,351.55555555555554L-596.1111111111111,345.73333333333335L-582.7777777777777,340.7555555555556L-569.4444444444445,334.97777777777776L-556.1111111111111,331.1111111111111L-542.7777777777778,322.40000000000003L-529.4444444444445,314.93333333333334L-516.1111111111111,305.8666666666666L-502.77777777777777,294L-489.44444444444446,283.51111111111106L-476.1111111111111,272.75555555555553L-462.7777777777778,262.93333333333334L-449.44444444444446,250.26666666666665L-436.1111111111111,233.11111111111114L-422.77777777777777,221.55555555555554L-409.4444444444444,209.60000000000002L-396.11111111111114,202.44444444444446L-382.77777777777777,193.73333333333332L-369.44444444444446,183.86666666666667L-356.1111111111111,171.24444444444444L-342.77777777777777,161.33333333333331L-329.44444444444446,153.33333333333331L-316.1111111111111,147.2444444444444L-302.77777777777777,139.33333333333334L-289.44444444444446,129.51111111111112L-276.1111111111111,129.51111111111112L-262.77777777777777,123.95555555555555L-249.44444444444446,119.37777777777777L-236.11111111111111,115.15555555555554L-222.77777777777777,110.00000000000001L-209.44444444444446,106.53333333333333L-196.11111111111111,105.64444444444443L-182.77777777777777,100.44444444444443L-169.44444444444443,93.5111111111111L-156.11111111111111,91.68888888888888L-142.77777777777777,87.28888888888888L-129.44444444444446,85.42222222222225L-116.11111111111111,81.95555555555556L-102.77777777777777,80.39999999999998L-89.44444444444444,73.86666666666666L-76.11111111111111,71.06666666666666L-62.77777777777778,68.31111111111112L-49.44444444444444,66.71111111111112L-36.11111111111111,65.46666666666665L-22.77777777777778,62.26666666666665L-9.444444444444445,59.55555555555554L3.888888888888889,57.33333333333333L17.22222222222222,56.0888888888889L30.555555555555557,54.088888888888896L43.888888888888886,52.93333333333332L57.22222222222222,51.244444444444426L70.55555555555556,48.71111111111111L83.88888888888889,46.444444444444464L97.22222222222221,44.622222222222206L110.55555555555556,42.93333333333331L123.88888888888889,41.33333333333336L137.22222222222223,40.04444444444446L150.55555555555554,39.77777777777778L163.88888888888889,38.577777777777776L177.22222222222223,37.46666666666667L190.55555555555554,36.66666666666667L203.88888888888889,35.73333333333335L217.2222222222222,34.711111111111094L230.55555555555554,33.91111111111109L243.8888888888889,33.37777777777777L257.22222222222223,33.02222222222224L270.55555555555554,32.57777777777777L283.8888888888889,31.95555555555556L297.22222222222223,30.711111111111087L310.55555555555554,29.688888888888876L323.8888888888889,29.066666666666663L337.22222222222223,28.799999999999983L350.55555555555554,28.266666666666662L363.88888888888886,27.42222222222224L377.22222222222223,26.622222222222234L390.55555555555554,26.177777777777766L403.88888888888886,25.688888888888872" stroke="#4c78a8" stroke-width="2" opacity="0.7"></path></g></g><path class="foreground" aria-hidden="true" d="" display="none"></path></g></g><g class="mark-group role-title"><g transform="translate(200,-39)"><path class="background" aria-hidden="true" d="M0,0h0v0h0Z" pointer-events="none"></path><g><g class="mark-text role-title-text" role="graphics-symbol" aria-roledescription="title" aria-label="Title text 'Total'" pointer-events="none"><text text-anchor="middle" transform="translate(0,10)" font-family="Roboto Condensed" font-size="13px" font-weight="normal" fill="#000" opacity="1">Total</text></g></g><path class="foreground" aria-hidden="true" d="" pointer-events="none" display="none"></path></g></g></g><path class="foreground" aria-hidden="true" d="" display="none"></path></g></g><g class="mark-group role-legend" role="graphics-symbol" aria-roledescription="legend" aria-label="Symbol legend for stroke color with 3 values: Confirmed, Deaths, Recovered"><g transform="translate(883,0)"><path class="background" aria-hidden="true" d="M0,0h58v37h-58Z" pointer-events="none"></path><g><g class="mark-group role-legend-entry"><g transform="translate(0,0)"><path class="background" aria-hidden="true" d="M0,0h0v0h0Z" pointer-events="none"></path><g><g class="mark-group role-scope" role="graphics-object" aria-roledescription="group mark container"><g transform="translate(0,0)"><path class="background" aria-hidden="true" d="M0,0h58v11h-58Z" pointer-events="none" opacity="1"></path><g><g class="mark-symbol role-legend-symbol" pointer-events="none"><path transform="translate(6,6)" d="M-5,0L5,0" stroke="#4c78a8" stroke-width="1.5" opacity="0.2"></path></g><g class="mark-text role-legend-label" pointer-events="none"><text text-anchor="start" transform="translate(16,9)" font-family="Roboto Condensed" font-size="10px" fill="#000" opacity="1">Confirmed</text></g></g><path class="foreground" aria-hidden="true" d="" pointer-events="none" display="none"></path></g><g transform="translate(0,13)"><path class="background" aria-hidden="true" d="M0,0h58v11h-58Z" pointer-events="none" opacity="1"></path><g><g class="mark-symbol role-legend-symbol" pointer-events="none"><path transform="translate(6,6)" d="M-5,0L5,0" stroke="#f58518" stroke-width="1.5" opacity="0.2"></path></g><g class="mark-text role-legend-label" pointer-events="none"><text text-anchor="start" transform="translate(16,9)" font-family="Roboto Condensed" font-size="10px" fill="#000" opacity="1">Deaths</text></g></g><path class="foreground" aria-hidden="true" d="" pointer-events="none" display="none"></path></g><g transform="translate(0,26)"><path class="background" aria-hidden="true" d="M0,0h58v11h-58Z" pointer-events="none" opacity="1"></path><g><g class="mark-symbol role-legend-symbol" pointer-events="none"><path transform="translate(6,6)" d="M-5,0L5,0" stroke="#e45756" stroke-width="1.5" opacity="0.2"></path></g><g class="mark-text role-legend-label" pointer-events="none"><text text-anchor="start" transform="translate(16,9)" font-family="Roboto Condensed" font-size="10px" fill="#000" opacity="1">Recovered</text></g></g><path class="foreground" aria-hidden="true" d="" pointer-events="none" display="none"></path></g></g></g><path class="foreground" aria-hidden="true" d="" pointer-events="none" display="none"></path></g></g></g><path class="foreground" aria-hidden="true" d="" pointer-events="none" display="none"></path></g></g></g><path class="foreground" aria-hidden="true" d="" display="none"></path></g></g></g></svg>