<svg class="marks" width="518" height="327" viewBox="0 0 518 327" version="1.1" xmlns="http://www.w3.org/2000/svg" xmlns:xlink="http://www.w3.org/1999/xlink"><rect width="518" height="327" style="fill: white;"></rect><defs><clipPath id="clip1"><rect x="0" y="0" width="400" height="300"></rect></clipPath><clipPath id="clip2"><rect x="0" y="0" width="400" height="300"></rect></clipPath><clipPath id="clip3"><rect x="0" y="0" width="400" height="300"></rect></clipPath><clipPath id="clip4"><rect x="0" y="0" width="400" height="300"></rect></clipPath></defs><g transform="translate(35,10)"><g class="mark-group role-frame root"><g transform="translate(0,0)"><path class="background" d="M0,0h400v300h-400Z" style="fill: none; stroke: #ddd; stroke-width: 0;"></path><g><g class="mark-group role-axis"><g transform="translate(0.5,0.5)"><path class="background" d="M0,0h0v0h0Z" style="pointer-events: none; fill: none;"></path><g><g class="mark-rule role-axis-grid" style="pointer-events: none;"><line transform="translate(0,300)" x2="400" y2="0" style="fill: none; stroke: #ddd; stroke-width: 1; opacity: 1;"></line><line transform="translate(0,257)" x2="400" y2="0" style="fill: none; stroke: #ddd; stroke-width: 1; opacity: 1;"></line><line transform="translate(0,214)" x2="400" y2="0" style="fill: none; stroke: #ddd; stroke-width: 1; opacity: 1;"></line><line transform="translate(0,171)" x2="400" y2="0" style="fill: none; stroke: #ddd; stroke-width: 1; opacity: 1;"></line><line transform="translate(0,129)" x2="400" y2="0" style="fill: none; stroke: #ddd; stroke-width: 1; opacity: 1;"></line><line transform="translate(0,86)" x2="400" y2="0" style="fill: none; stroke: #ddd; stroke-width: 1; opacity: 1;"></line><line transform="translate(0,43)" x2="400" y2="0" style="fill: none; stroke: #ddd; stroke-width: 1; opacity: 1;"></line><line transform="translate(0,0)" x2="400" y2="0" style="fill: none; stroke: #ddd; stroke-width: 1; opacity: 1;"></line></g></g><path class="foreground" d="" style="pointer-events: none; display: none; fill: none;"></path></g></g><g class="mark-group role-axis"><g transform="translate(0.5,300.5)"><path class="background" d="M0,0h0v0h0Z" style="pointer-events: none; fill: none;"></path><g><g class="mark-text role-axis-label" style="pointer-events: none;"><text text-anchor="middle" transform="translate(10.38961038961039,10)" style="font-family: Roboto Condensed; font-size: 10px; fill: #000; opacity: 1;">Feb 02</text><text text-anchor="middle" transform="translate(46.75324675324675,10)" style="font-family: Roboto Condensed; font-size: 10px; fill: #000; opacity: 1;">Feb 09</text><text text-anchor="middle" transform="translate(83.11688311688312,10)" style="font-family: Roboto Condensed; font-size: 10px; fill: #000; opacity: 1;">Feb 16</text><text text-anchor="middle" transform="translate(119.48051948051948,10)" style="font-family: Roboto Condensed; font-size: 10px; fill: #000; opacity: 1;">Feb 23</text><text text-anchor="middle" transform="translate(155.84415584415586,10)" style="font-family: Roboto Condensed; font-size: 10px; fill: #000; opacity: 1;">Mar 01</text><text text-anchor="middle" transform="translate(192.2077922077922,10)" style="font-family: Roboto Condensed; font-size: 10px; fill: #000; opacity: 1;">Mar 08</text><text text-anchor="middle" transform="translate(228.57142857142856,10)" style="font-family: Roboto Condensed; font-size: 10px; fill: #000; opacity: 1;">Mar 15</text><text text-anchor="middle" transform="translate(264.93506493506493,10)" style="font-family: Roboto Condensed; font-size: 10px; fill: #000; opacity: 1;">Mar 22</text><text text-anchor="middle" transform="translate(301.2987012987013,10)" style="font-family: Roboto Condensed; font-size: 10px; fill: #000; opacity: 1;">Mar 29</text><text text-anchor="middle" transform="translate(337.6623376623376,10)" style="font-family: Roboto Condensed; font-size: 10px; fill: #000; opacity: 1;">Apr 05</text><text text-anchor="middle" transform="translate(374.025974025974,10)" style="font-family: Roboto Condensed; font-size: 10px; fill: #000; opacity: 1;">Apr 12</text></g><g class="mark-rule role-axis-domain" style="pointer-events: none;"><line transform="translate(0,0)" x2="400" y2="0" style="fill: none; stroke: lightgray; stroke-width: 1; opacity: 1;"></line></g></g><path class="foreground" d="" style="pointer-events: none; display: none; fill: none;"></path></g></g><g class="mark-group role-axis"><g transform="translate(0.5,0.5)"><path class="background" d="M0,0h0v0h0Z" style="pointer-events: none; fill: none;"></path><g><g class="mark-text role-axis-label" style="pointer-events: none;"><text text-anchor="end" transform="translate(-2,303)" style="font-family: Roboto Condensed; font-size: 10px; fill: #000; opacity: 1;">0</text><text text-anchor="end" transform="translate(-2,260.14285714285717)" style="font-family: Roboto Condensed; font-size: 10px; fill: #000; opacity: 1;">2,000</text><text text-anchor="end" transform="translate(-2,217.28571428571428)" style="font-family: Roboto Condensed; font-size: 10px; fill: #000; opacity: 1;">4,000</text><text text-anchor="end" transform="translate(-2,174.42857142857142)" style="font-family: Roboto Condensed; font-size: 10px; fill: #000; opacity: 1;">6,000</text><text text-anchor="end" transform="translate(-2,131.57142857142858)" style="font-family: Roboto Condensed; font-size: 10px; fill: #000; opacity: 1;">8,000</text><text text-anchor="end" transform="translate(-2,88.71428571428571)" style="font-family: Roboto Condensed; font-size: 10px; fill: #000; opacity: 1;">10,000</text><text text-anchor="end" transform="translate(-2,45.85714285714287)" style="font-family: Roboto Condensed; font-size: 10px; fill: #000; opacity: 1;">12,000</text><text text-anchor="end" transform="translate(-2,3)" style="font-family: Roboto Condensed; font-size: 10px; fill: #000; opacity: 1;">14,000</text></g><g class="mark-rule role-axis-domain" style="pointer-events: none;"><line transform="translate(0,300)" x2="0" y2="-300" style="fill: none; stroke: lightgray; stroke-width: 1; opacity: 1;"></line></g></g><path class="foreground" d="" style="pointer-events: none; display: none; fill: none;"></path></g></g><g class="mark-group role-scope pathgroup"><g transform="translate(0,0)"><path class="background" d="M0,0h400v300h-400Z" style="fill: none;"></path><g><g class="mark-line role-mark marks" clip-path="url(#clip1)"><path d="M0,300L5.194805194805195,300L10.38961038961039,300L15.584415584415584,300L20.77922077922078,300L25.97402597402597,300L31.16883116883117,300L36.36363636363637,300L41.55844155844156,300L46.75324675324675,300L51.94805194805194,300L57.14285714285714,300L62.33766233766234,300L67.53246753246754,300L72.72727272727273,300L77.92207792207793,300L83.11688311688312,300L88.31168831168831,300L93.5064935064935,300L98.7012987012987,300L103.89610389610388,300L109.09090909090908,300L114.28571428571428,300L119.48051948051948,300L124.67532467532467,300L129.87012987012986,300L135.06493506493507,300L140.25974025974025,300L145.45454545454547,300L150.64935064935065,300L155.84415584415586,300L161.03896103896105,300L166.23376623376623,300L171.42857142857142,300L176.62337662337663,300L181.8181818181818,300L187.012987012987,300L192.2077922077922,300L197.4025974025974,299.9785714285714L202.59740259740258,299.9785714285714L207.79220779220776,299.9785714285714L212.98701298701297,299.9785714285714L218.18181818181816,299.9785714285714L223.37662337662337,299.9785714285714L228.57142857142856,299.9785714285714L233.76623376623377,299.9785714285714L238.96103896103895,299.9785714285714L244.15584415584414,299.9785714285714L249.35064935064935,299.65714285714284L254.54545454545453,299.65714285714284L259.7402597402597,299.65714285714284L264.93506493506493,299.65714285714284L270.12987012987014,299.65714285714284L275.32467532467535,299.65714285714284L280.5194805194805,299.65714285714284L285.7142857142857,299.65714285714284L290.90909090909093,299.65714285714284L296.1038961038961,299.65714285714284L301.2987012987013,299.65714285714284L306.4935064935065,299.65714285714284L311.6883116883117,299.65714285714284L316.8831168831169,297.79285714285714L322.0779220779221,297.79285714285714L327.2727272727273,295.60714285714283L332.46753246753246,295.60714285714283L337.6623376623376,295.60714285714283L342.85714285714283,295.60714285714283L348.05194805194805,295.60714285714283L353.24675324675326,295.60714285714283L358.4415584415584,295.60714285714283L363.6363636363636,291.8357142857143L368.83116883116884,291.8357142857143L374.025974025974,291.8357142857143L379.2207792207792,291.8357142857143L384.4155844155844,291.8357142857143L389.61038961038963,291.8357142857143L394.8051948051948,288.2142857142857L400,288.2142857142857" style="fill: none; stroke: #72b7b2; stroke-width: 2; opacity: 0.7;"></path></g></g><path class="foreground" d="" style="display: none; fill: none;"></path></g><g transform="translate(0,0)"><path class="background" d="M0,0h400v300h-400Z" style="fill: none;"></path><g><g class="mark-line role-mark marks" clip-path="url(#clip2)"><path d="M0,299.9785714285714L5.194805194805195,299.9785714285714L10.38961038961039,299.9785714285714L15.584415584415584,299.9785714285714L20.77922077922078,299.9785714285714L25.97402597402597,299.9785714285714L31.16883116883117,299.9785714285714L36.36363636363637,299.9785714285714L41.55844155844156,299.9785714285714L46.75324675324675,299.9785714285714L51.94805194805194,299.9785714285714L57.14285714285714,299.9785714285714L62.33766233766234,299.9785714285714L67.53246753246754,299.9785714285714L72.72727272727273,299.9785714285714L77.92207792207793,299.9785714285714L83.11688311688312,299.9785714285714L88.31168831168831,299.9785714285714L93.5064935064935,299.9785714285714L98.7012987012987,299.9785714285714L103.89610389610388,299.9785714285714L109.09090909090908,299.9785714285714L114.28571428571428,299.9785714285714L119.48051948051948,299.9785714285714L124.67532467532467,299.9785714285714L129.87012987012986,299.9785714285714L135.06493506493507,299.95714285714286L140.25974025974025,299.85L145.45454545454547,299.85L150.64935064935065,299.74285714285713L155.84415584415586,299.7L161.03896103896105,299.67857142857144L166.23376623376623,299.55L171.42857142857142,299.25L176.62337662337663,297.9857142857143L181.8181818181818,297.8357142857143L187.012987012987,296.55L192.2077922077922,295.65000000000003L197.4025974025974,294.70714285714286L202.59740259740258,292.4142857142857L207.79220779220776,289.3285714285714L212.98701298701297,287.20714285714286L218.18181818181816,282.59999999999997L223.37662337662337,279.4714285714286L228.57142857142856,278.18571428571425L233.76623376623377,276.51428571428573L238.96103896103895,274.6714285714286L244.15584415584414,272.8285714285714L249.35064935064935,269.74285714285713L254.54545454545453,265.56428571428575L259.7402597402597,262.99285714285713L264.93506493506493,259.4142857142857L270.12987012987014,257.0357142857143L275.32467532467535,252.12857142857143L280.5194805194805,247.54285714285714L285.7142857142857,241.1357142857143L290.90909090909093,236.82857142857142L296.1038961038961,228.72857142857143L301.2987012987013,223.4142857142857L306.4935064935065,217.15714285714287L311.6883116883117,209.16428571428574L316.8831168831169,201.32142857142856L322.0779220779221,189.49285714285716L327.2727272727273,180.68571428571428L332.46753246753246,174.32142857142858L337.6623376623376,166.6285714285714L342.85714285714283,160.20000000000002L348.05194805194805,152.20714285714286L353.24675324675326,138.70714285714288L358.4415584415584,125.50714285714287L363.6363636363636,119.27142857142857L368.83116883116884,109.65000000000002L374.025974025974,102.79285714285714L379.2207792207792,93.25714285714285L384.4155844155844,85.05L389.61038961038963,78.36428571428571L394.8051948051948,71.63571428571429L400,58.58571428571429" style="fill: none; stroke: #4c78a8; stroke-width: 2; opacity: 0.7;"></path></g></g><path class="foreground" d="" style="display: none; fill: none;"></path></g><g transform="translate(0,0)"><path class="background" d="M0,0h400v300h-400Z" style="fill: none;"></path><g><g class="mark-line role-mark marks" clip-path="url(#clip3)"><path d="M0,300L5.194805194805195,300L10.38961038961039,300L15.584415584415584,300L20.77922077922078,300L25.97402597402597,300L31.16883116883117,300L36.36363636363637,300L41.55844155844156,300L46.75324675324675,300L51.94805194805194,300L57.14285714285714,300L62.33766233766234,300L67.53246753246754,300L72.72727272727273,300L77.92207792207793,300L83.11688311688312,300L88.31168831168831,300L93.5064935064935,300L98.7012987012987,300L103.89610389610388,300L109.09090909090908,300L114.28571428571428,300L119.48051948051948,300L124.67532467532467,300L129.87012987012986,300L135.06493506493507,300L140.25974025974025,300L145.45454545454547,300L150.64935064935065,300L155.84415584415586,300L161.03896103896105,300L166.23376623376623,300L171.42857142857142,300L176.62337662337663,300L181.8181818181818,300L187.012987012987,300L192.2077922077922,300L197.4025974025974,300L202.59740259740258,300L207.79220779220776,299.9785714285714L212.98701298701297,299.9785714285714L218.18181818181816,299.9785714285714L223.37662337662337,299.95714285714286L228.57142857142856,299.9357142857143L233.76623376623377,299.87142857142857L238.96103896103895,299.85L244.15584415584414,299.7857142857143L249.35064935064935,299.76428571428573L254.54545454545453,299.65714285714284L259.7402597402597,299.57142857142856L264.93506493506493,299.55L270.12987012987014,299.4642857142857L275.32467532467535,299.22857142857146L280.5194805194805,298.6714285714286L285.7142857142857,298.35L290.90909090909093,297.75L296.1038961038961,297.75L301.2987012987013,297.6428571428571L306.4935064935065,296.87142857142857L311.6883116883117,296.1428571428571L316.8831168831169,294.87857142857143L322.0779220779221,293.4L327.2727272727273,292.3285714285714L332.46753246753246,292.00714285714287L337.6623376623376,291.40714285714284L342.85714285714283,289.77857142857147L348.05194805194805,287.3357142857143L353.24675324675326,285.2785714285714L358.4415584415584,283.00714285714287L363.6363636363636,281.35714285714283L368.83116883116884,280.99285714285713L374.025974025974,280.7357142857143L379.2207792207792,280.3071428571429L384.4155844155844,277.8642857142857L389.61038961038963,274.22142857142853L394.8051948051948,271.4357142857143L400,270" style="fill: none; stroke: #e45756; stroke-width: 2; opacity: 0.7;"></path></g></g><path class="foreground" d="" style="display: none; fill: none;"></path></g><g transform="translate(0,0)"><path class="background" d="M0,0h400v300h-400Z" style="fill: none;"></path><g><g class="mark-line role-mark marks" clip-path="url(#clip4)"><path d="M0,299.9785714285714L5.194805194805195,299.9785714285714L10.38961038961039,299.9785714285714L15.584415584415584,299.9785714285714L20.77922077922078,299.9785714285714L25.97402597402597,299.9785714285714L31.16883116883117,299.9785714285714L36.36363636363637,299.9785714285714L41.55844155844156,299.9785714285714L46.75324675324675,299.9785714285714L51.94805194805194,299.9785714285714L57.14285714285714,299.9785714285714L62.33766233766234,299.9785714285714L67.53246753246754,299.9785714285714L72.72727272727273,299.9785714285714L77.92207792207793,299.9785714285714L83.11688311688312,299.9785714285714L88.31168831168831,299.9785714285714L93.5064935064935,299.9785714285714L98.7012987012987,299.9785714285714L103.89610389610388,299.9785714285714L109.09090909090908,299.9785714285714L114.28571428571428,299.9785714285714L119.48051948051948,299.9785714285714L124.67532467532467,299.9785714285714L129.87012987012986,299.9785714285714L135.06493506493507,299.95714285714286L140.25974025974025,299.85L145.45454545454547,299.85L150.64935064935065,299.74285714285713L155.84415584415586,299.7L161.03896103896105,299.67857142857144L166.23376623376623,299.55L171.42857142857142,299.25L176.62337662337663,297.9857142857143L181.8181818181818,297.8357142857143L187.012987012987,296.55L192.2077922077922,295.65000000000003L197.4025974025974,294.6857142857143L202.59740259740258,292.39285714285717L207.79220779220776,289.2857142857143L212.98701298701297,287.1642857142857L218.18181818181816,282.5571428571429L223.37662337662337,279.40714285714284L228.57142857142856,278.1L233.76623376623377,276.36428571428576L238.96103896103895,274.5L244.15584415584414,272.5928571428571L249.35064935064935,269.1642857142857L254.54545454545453,264.87857142857143L259.7402597402597,262.2214285714286L264.93506493506493,258.62142857142857L270.12987012987014,256.15714285714284L275.32467532467535,251.01428571428573L280.5194805194805,245.8714285714286L285.7142857142857,239.14285714285714L290.90909090909093,234.2357142857143L296.1038961038961,226.13571428571427L301.2987012987013,220.71428571428572L306.4935064935065,213.68571428571428L311.6883116883117,204.96428571428572L316.8831168831169,193.99285714285713L322.0779220779221,180.68571428571428L327.2727272727273,168.62142857142857L332.46753246753246,161.93571428571428L337.6623376623376,153.64285714285714L342.85714285714283,145.5857142857143L348.05194805194805,135.15L353.24675324675326,119.59285714285716L358.4415584415584,104.12142857142858L363.6363636363636,92.4642857142857L368.83116883116884,82.47857142857143L374.025974025974,75.36428571428571L379.2207792207792,65.39999999999999L384.4155844155844,54.75L389.61038961038963,44.42142857142856L394.8051948051948,31.285714285714295L400,16.800000000000015" style="fill: none; stroke: #f58518; stroke-width: 2; opacity: 0.7;"></path></g></g><path class="foreground" d="" style="display: none; fill: none;"></path></g></g><g class="mark-group role-legend"><g transform="translate(418,0)"><path class="background" d="M0,0h60v50h-60Z" style="pointer-events: none; fill: none;"></path><g><g class="mark-group role-legend-entry"><g transform="translate(0,0)"><path class="background" d="M0,0h0v0h0Z" style="pointer-events: none; fill: none;"></path><g><g class="mark-group role-scope"><g transform="translate(0,0)"><path class="background" d="M0,0h59.3251953125v11h-59.3251953125Z" style="pointer-events: none; fill: none; opacity: 1;"></path><g><g class="mark-symbol role-legend-symbol" style="pointer-events: none;"><path transform="translate(6,6)" d="M-5,0L5,0" style="fill: none; stroke: #4c78a8; stroke-width: 1.5; opacity: 0.7;"></path></g><g class="mark-text role-legend-label" style="pointer-events: none;"><text text-anchor="start" transform="translate(16,9)" style="font-family: Roboto Condensed; font-size: 10px; fill: #000; opacity: 1;">Active</text></g></g><path class="foreground" d="" style="pointer-events: none; display: none; fill: none;"></path></g><g transform="translate(0,13)"><path class="background" d="M0,0h59.3251953125v11h-59.3251953125Z" style="pointer-events: none; fill: none; opacity: 1;"></path><g><g class="mark-symbol role-legend-symbol" style="pointer-events: none;"><path transform="translate(6,6)" d="M-5,0L5,0" style="fill: none; stroke: #f58518; stroke-width: 1.5; opacity: 0.7;"></path></g><g class="mark-text role-legend-label" style="pointer-events: none;"><text text-anchor="start" transform="translate(16,9)" style="font-family: Roboto Condensed; font-size: 10px; fill: #000; opacity: 1;">Confirmed</text></g></g><path class="foreground" d="" style="pointer-events: none; display: none; fill: none;"></path></g><g transform="translate(0,26)"><path class="background" d="M0,0h59.3251953125v11h-59.3251953125Z" style="pointer-events: none; fill: none; opacity: 1;"></path><g><g class="mark-symbol role-legend-symbol" style="pointer-events: none;"><path transform="translate(6,6)" d="M-5,0L5,0" style="fill: none; stroke: #e45756; stroke-width: 1.5; opacity: 0.7;"></path></g><g class="mark-text role-legend-label" style="pointer-events: none;"><text text-anchor="start" transform="translate(16,9)" style="font-family: Roboto Condensed; font-size: 10px; fill: #000; opacity: 1;">Deaths</text></g></g><path class="foreground" d="" style="pointer-events: none; display: none; fill: none;"></path></g><g transform="translate(0,39)"><path class="background" d="M0,0h59.3251953125v11h-59.3251953125Z" style="pointer-events: none; fill: none; opacity: 1;"></path><g><g class="mark-symbol role-legend-symbol" style="pointer-events: none;"><path transform="translate(6,6)" d="M-5,0L5,0" style="fill: none; stroke: #72b7b2; stroke-width: 1.5; opacity: 0.7;"></path></g><g class="mark-text role-legend-label" style="pointer-events: none;"><text text-anchor="start" transform="translate(16,9)" style="font-family: Roboto Condensed; font-size: 10px; fill: #000; opacity: 1;">Recovered</text></g></g><path class="foreground" d="" style="pointer-events: none; display: none; fill: none;"></path></g></g></g><path class="foreground" d="" style="pointer-events: none; display: none; fill: none;"></path></g></g></g><path class="foreground" d="" style="pointer-events: none; display: none; fill: none;"></path></g></g></g><path class="foreground" d="" style="display: none; fill: none;"></path></g></g></g></svg>