<svg class="marks" width="955" height="344" viewBox="0 0 955 344" version="1.1" xmlns="http://www.w3.org/2000/svg" xmlns:xlink="http://www.w3.org/1999/xlink"><rect width="955" height="344" style="fill: white;"></rect><defs><clipPath id="clip1"><rect x="0" y="0" width="400" height="300"></rect></clipPath><clipPath id="clip2"><rect x="0" y="0" width="400" height="300"></rect></clipPath><clipPath id="clip3"><rect x="0" y="0" width="400" height="300"></rect></clipPath><clipPath id="clip4"><rect x="0" y="0" width="400" height="300"></rect></clipPath><clipPath id="clip5"><rect x="0" y="0" width="400" height="300"></rect></clipPath><clipPath id="clip6"><rect x="0" y="0" width="400" height="300"></rect></clipPath><clipPath id="clip7"><rect x="0" y="0" width="400" height="300"></rect></clipPath><clipPath id="clip8"><rect x="0" y="0" width="400" height="300"></rect></clipPath><clipPath id="clip9"><rect x="0" y="0" width="400" height="300"></rect></clipPath></defs><g transform="translate(22,27)"><g class="mark-group role-frame root"><g transform="translate(0,0)"><path class="background" d="M0,0h0v0h0Z" style="fill: none;"></path><g><g class="mark-group role-scope concat_0_group"><g transform="translate(0,0)"><path class="background" d="M0,0h400v300h-400Z" style="fill: none; stroke: #ddd; stroke-width: 0;"></path><g><g class="mark-group role-axis"><g transform="translate(0.5,0.5)"><path class="background" d="M0,0h0v0h0Z" style="pointer-events: none; fill: none;"></path><g><g class="mark-rule role-axis-grid" style="pointer-events: none;"><line transform="translate(0,300)" x2="400" y2="0" style="fill: none; stroke: #ddd; stroke-width: 1; opacity: 1;"></line><line transform="translate(0,263)" x2="400" y2="0" style="fill: none; stroke: #ddd; stroke-width: 1; opacity: 1;"></line><line transform="translate(0,225)" x2="400" y2="0" style="fill: none; stroke: #ddd; stroke-width: 1; opacity: 1;"></line><line transform="translate(0,188)" x2="400" y2="0" style="fill: none; stroke: #ddd; stroke-width: 1; opacity: 1;"></line><line transform="translate(0,150)" x2="400" y2="0" style="fill: none; stroke: #ddd; stroke-width: 1; opacity: 1;"></line><line transform="translate(0,113)" x2="400" y2="0" style="fill: none; stroke: #ddd; stroke-width: 1; opacity: 1;"></line><line transform="translate(0,75)" x2="400" y2="0" style="fill: none; stroke: #ddd; stroke-width: 1; opacity: 1;"></line><line transform="translate(0,38)" x2="400" y2="0" style="fill: none; stroke: #ddd; stroke-width: 1; opacity: 1;"></line><line transform="translate(0,0)" x2="400" y2="0" style="fill: none; stroke: #ddd; stroke-width: 1; opacity: 1;"></line></g></g><path class="foreground" d="" style="pointer-events: none; display: none; fill: none;"></path></g></g><g class="mark-group role-axis"><g transform="translate(0.5,300.5)"><path class="background" d="M0,0h0v0h0Z" style="pointer-events: none; fill: none;"></path><g><g class="mark-text role-axis-label" style="pointer-events: none;"><text text-anchor="start" transform="translate(0,10)" style="font-family: Roboto Condensed; font-size: 10px; fill: #000; opacity: 1;">Mar 19</text><text text-anchor="middle" transform="translate(25.806451612903224,10)" style="font-family: Roboto Condensed; font-size: 10px; fill: #000; opacity: 0;">Mar 21</text><text text-anchor="middle" transform="translate(51.61290322580645,10)" style="font-family: Roboto Condensed; font-size: 10px; fill: #000; opacity: 1;">Mar 23</text><text text-anchor="middle" transform="translate(77.41935483870968,10)" style="font-family: Roboto Condensed; font-size: 10px; fill: #000; opacity: 0;">Mar 25</text><text text-anchor="middle" transform="translate(103.2258064516129,10)" style="font-family: Roboto Condensed; font-size: 10px; fill: #000; opacity: 1;">Mar 27</text><text text-anchor="middle" transform="translate(129.03225806451613,10)" style="font-family: Roboto Condensed; font-size: 10px; fill: #000; opacity: 0;">Mar 29</text><text text-anchor="middle" transform="translate(154.83870967741936,10)" style="font-family: Roboto Condensed; font-size: 10px; fill: #000; opacity: 1;">Mar 31</text><text text-anchor="middle" transform="translate(167.74193548387098,10)" style="font-family: Roboto Condensed; font-size: 10px; fill: #000; opacity: 0;">Apr 01</text><text text-anchor="middle" transform="translate(193.5483870967742,10)" style="font-family: Roboto Condensed; font-size: 10px; fill: #000; opacity: 1;">Apr 03</text><text text-anchor="middle" transform="translate(219.3548387096774,10)" style="font-family: Roboto Condensed; font-size: 10px; fill: #000; opacity: 0;">Apr 05</text><text text-anchor="middle" transform="translate(245.16129032258064,10)" style="font-family: Roboto Condensed; font-size: 10px; fill: #000; opacity: 1;">Apr 07</text><text text-anchor="middle" transform="translate(270.96774193548384,10)" style="font-family: Roboto Condensed; font-size: 10px; fill: #000; opacity: 0;">Apr 09</text><text text-anchor="middle" transform="translate(296.7741935483871,10)" style="font-family: Roboto Condensed; font-size: 10px; fill: #000; opacity: 1;">Apr 11</text><text text-anchor="middle" transform="translate(322.5806451612903,10)" style="font-family: Roboto Condensed; font-size: 10px; fill: #000; opacity: 0;">Apr 13</text><text text-anchor="middle" transform="translate(348.38709677419354,10)" style="font-family: Roboto Condensed; font-size: 10px; fill: #000; opacity: 1;">Apr 15</text><text text-anchor="middle" transform="translate(374.19354838709677,10)" style="font-family: Roboto Condensed; font-size: 10px; fill: #000; opacity: 0;">Apr 17</text><text text-anchor="end" transform="translate(400,10)" style="font-family: Roboto Condensed; font-size: 10px; fill: #000; opacity: 1;">Apr 19</text></g><g class="mark-rule role-axis-domain" style="pointer-events: none;"><line transform="translate(0,0)" x2="400" y2="0" style="fill: none; stroke: lightgray; stroke-width: 1; opacity: 1;"></line></g></g><path class="foreground" d="" style="pointer-events: none; display: none; fill: none;"></path></g></g><g class="mark-group role-axis"><g transform="translate(0.5,0.5)"><path class="background" d="M0,0h0v0h0Z" style="pointer-events: none; fill: none;"></path><g><g class="mark-text role-axis-label" style="pointer-events: none;"><text text-anchor="end" transform="translate(-2,303)" style="font-family: Roboto Condensed; font-size: 10px; fill: #000; opacity: 1;">0</text><text text-anchor="end" transform="translate(-2,265.5)" style="font-family: Roboto Condensed; font-size: 10px; fill: #000; opacity: 1;">100</text><text text-anchor="end" transform="translate(-2,228)" style="font-family: Roboto Condensed; font-size: 10px; fill: #000; opacity: 1;">200</text><text text-anchor="end" transform="translate(-2,190.5)" style="font-family: Roboto Condensed; font-size: 10px; fill: #000; opacity: 1;">300</text><text text-anchor="end" transform="translate(-2,153)" style="font-family: Roboto Condensed; font-size: 10px; fill: #000; opacity: 1;">400</text><text text-anchor="end" transform="translate(-2,115.5)" style="font-family: Roboto Condensed; font-size: 10px; fill: #000; opacity: 1;">500</text><text text-anchor="end" transform="translate(-2,78)" style="font-family: Roboto Condensed; font-size: 10px; fill: #000; opacity: 1;">600</text><text text-anchor="end" transform="translate(-2,40.5)" style="font-family: Roboto Condensed; font-size: 10px; fill: #000; opacity: 1;">700</text><text text-anchor="end" transform="translate(-2,3)" style="font-family: Roboto Condensed; font-size: 10px; fill: #000; opacity: 1;">800</text></g><g class="mark-rule role-axis-domain" style="pointer-events: none;"><line transform="translate(0,300)" x2="0" y2="-300" style="fill: none; stroke: lightgray; stroke-width: 1; opacity: 1;"></line></g></g><path class="foreground" d="" style="pointer-events: none; display: none; fill: none;"></path></g></g><g class="mark-group role-scope concat_0_layer_0_pathgroup"><g transform="translate(0,0)"><path class="background" d="M0,0h400v300h-400Z" style="fill: none;"></path><g><g class="mark-line role-mark concat_0_layer_0_marks" clip-path="url(#clip1)"><path d="M0,299.19642857142856L12.903225806451612,299.19642857142856L25.806451612903224,299.19642857142856L38.70967741935484,299.19642857142856L51.61290322580645,299.19642857142856L64.51612903225806,299.19642857142856L77.41935483870968,299.19642857142856L90.32258064516128,300L103.2258064516129,300L116.12903225806453,300L129.03225806451613,300L141.93548387096774,300L154.83870967741936,300L167.74193548387098,295.3392857142857L180.64516129032256,295.3392857142857L193.5483870967742,289.875L206.4516129032258,289.875L219.3548387096774,289.875L232.25806451612905,289.875L245.16129032258064,289.875L258.06451612903226,294.5357142857143L270.96774193548384,294.5357142857143L283.8709677419355,290.57142857142856L296.7741935483871,290.57142857142856L309.6774193548387,290.57142857142856L322.5806451612903,290.57142857142856L335.48387096774195,290.57142857142856L348.38709677419354,290.57142857142856L361.2903225806451,281.51785714285717L374.19354838709677,290.94642857142856L387.0967741935484,290.94642857142856L400,290.94642857142856" style="fill: none; stroke: #e45756; stroke-width: 2; opacity: 1;"></path></g></g><path class="foreground" d="" style="display: none; fill: none;"></path></g><g transform="translate(0,0)"><path class="background" d="M0,0h400v300h-400Z" style="fill: none;"></path><g><g class="mark-line role-mark concat_0_layer_0_marks" clip-path="url(#clip2)"><path d="M0,298.2857142857143L12.903225806451612,298.2857142857143L25.806451612903224,298.6607142857143L38.70967741935484,298.7142857142857L51.61290322580645,298.98214285714283L64.51612903225806,298.55357142857144L77.41935483870968,297.2142857142857L90.32258064516128,296.4642857142857L103.2258064516129,295.23214285714283L116.12903225806453,295.4464285714286L129.03225806451613,295.23214285714283L141.93548387096774,293.51785714285717L154.83870967741936,292.2857142857143L167.74193548387098,290.51785714285717L180.64516129032256,287.625L193.5483870967742,286.44642857142856L206.4516129032258,285.64285714285717L219.3548387096774,284.4107142857143L232.25806451612905,282.26785714285717L245.16129032258064,277.98214285714283L258.06451612903226,276L270.96774193548384,274.0178571428571L283.8709677419355,272.57142857142856L296.7741935483871,272.4642857142857L309.6774193548387,273.32142857142856L322.5806451612903,276.32142857142856L335.48387096774195,276.32142857142856L348.38709677419354,272.3571428571429L361.2903225806451,271.07142857142856L374.19354838709677,271.60714285714283L387.0967741935484,266.57142857142856L400,265.6607142857143" style="fill: none; stroke: #f58518; stroke-width: 2; opacity: 1;"></path></g></g><path class="foreground" d="" style="display: none; fill: none;"></path></g><g transform="translate(0,0)"><path class="background" d="M0,0h400v300h-400Z" style="fill: none;"></path><g><g class="mark-line role-mark concat_0_layer_0_marks" clip-path="url(#clip3)"><path d="M0,265.9821428571429L12.903225806451612,256.3392857142857L25.806451612903224,255.96428571428572L38.70967741935484,255.32142857142858L51.61290322580645,251.35714285714286L64.51612903225806,243.80357142857142L77.41935483870968,233.19642857142858L90.32258064516128,224.94642857142858L103.2258064516129,223.39285714285714L116.12903225806453,209.78571428571428L129.03225806451613,205.23214285714283L141.93548387096774,193.82142857142856L154.83870967741936,184.875L167.74193548387098,170.30357142857144L180.64516129032256,153.85714285714286L193.5483870967742,135.9642857142857L206.4516129032258,139.5L219.3548387096774,132.32142857142856L232.25806451612905,129.75L245.16129032258064,125.4642857142857L258.06451612903226,114L270.96774193548384,108.58928571428572L283.8709677419355,109.60714285714285L296.7741935483871,101.35714285714289L309.6774193548387,104.30357142857142L322.5806451612903,99.5357142857143L335.48387096774195,98.99999999999999L348.38709677419354,112.07142857142857L361.2903225806451,117.91071428571428L374.19354838709677,110.83928571428571L387.0967741935484,103.3392857142857L400,90.9642857142857" style="fill: none; stroke: #4c78a8; stroke-width: 2; opacity: 1;"></path></g></g><path class="foreground" d="" style="display: none; fill: none;"></path></g></g><g class="mark-group role-scope concat_0_layer_1_pathgroup"><g transform="translate(0,0)"><path class="background" d="M0,0h400v300h-400Z" style="fill: none;"></path><g><g class="mark-line role-mark concat_0_layer_1_marks" clip-path="url(#clip4)"><path d="M0,294.375L12.903225806451612,300L25.806451612903224,300L38.70967741935484,300L51.61290322580645,300L64.51612903225806,300L77.41935483870968,300L90.32258064516128,300L103.2258064516129,300L116.12903225806453,300L129.03225806451613,300L141.93548387096774,300L154.83870967741936,300L167.74193548387098,267.375L180.64516129032256,300L193.5483870967742,261.75L206.4516129032258,300L219.3548387096774,300L232.25806451612905,300L245.16129032258064,300L258.06451612903226,300L270.96774193548384,300L283.8709677419355,234L296.7741935483871,300L309.6774193548387,300L322.5806451612903,300L335.48387096774195,300L348.38709677419354,300L361.2903225806451,236.62500000000003L374.19354838709677,300L387.0967741935484,300L400,300" style="fill: none; stroke: #e45756; stroke-width: 2; opacity: 0.2;"></path></g></g><path class="foreground" d="" style="display: none; fill: none;"></path></g><g transform="translate(0,0)"><path class="background" d="M0,0h400v300h-400Z" style="fill: none;"></path><g><g class="mark-line role-mark concat_0_layer_1_marks" clip-path="url(#clip5)"><path d="M0,299.625L12.903225806451612,298.125L25.806451612903224,298.5L38.70967741935484,299.625L51.61290322580645,298.5L64.51612903225806,295.875L77.41935483870968,290.25L90.32258064516128,294.375L103.2258064516129,289.5L116.12903225806453,300L129.03225806451613,298.125L141.93548387096774,286.5L154.83870967741936,287.25L167.74193548387098,277.875L180.64516129032256,274.125L193.5483870967742,281.25L206.4516129032258,294.375L219.3548387096774,289.5L232.25806451612905,271.5L245.16129032258064,257.25L258.06451612903226,264L270.96774193548384,260.25L283.8709677419355,271.125L296.7741935483871,293.625L309.6774193548387,295.5L322.5806451612903,292.5L335.48387096774195,257.25L348.38709677419354,236.25L361.2903225806451,251.25L374.19354838709677,274.875L387.0967741935484,258.375L400,289.125" style="fill: none; stroke: #f58518; stroke-width: 2; opacity: 0.2;"></path></g></g><path class="foreground" d="" style="display: none; fill: none;"></path></g><g transform="translate(0,0)"><path class="background" d="M0,0h400v300h-400Z" style="fill: none;"></path><g><g class="mark-line role-mark concat_0_layer_1_marks" clip-path="url(#clip6)"><path d="M0,240L12.903225806451612,225L25.806451612903224,253.5L38.70967741935484,237L51.61290322580645,256.875L64.51612903225806,210L77.41935483870968,210L90.32258064516128,182.24999999999997L103.2258064516129,214.125L116.12903225806453,158.25000000000003L129.03225806451613,205.12500000000003L141.93548387096774,177.00000000000003L154.83870967741936,147.375L167.74193548387098,108L180.64516129032256,67.125L193.5483870967742,88.875L206.4516129032258,183L219.3548387096774,154.875L232.25806451612905,159L245.16129032258064,117.375L258.06451612903226,27.750000000000007L270.96774193548384,29.25000000000001L283.8709677419355,95.99999999999999L296.7741935483871,125.25L309.6774193548387,175.5L322.5806451612903,125.62499999999999L335.48387096774195,113.62500000000001L348.38709677419354,119.24999999999999L361.2903225806451,70.125L374.19354838709677,46.50000000000001L387.0967741935484,72.75000000000001L400,88.875" style="fill: none; stroke: #4c78a8; stroke-width: 2; opacity: 0.2;"></path></g></g><path class="foreground" d="" style="display: none; fill: none;"></path></g></g><g class="mark-group role-title"><g transform="translate(200,-22)"><path class="background" d="M0,0h0v0h0Z" style="pointer-events: none; fill: none;"></path><g><g class="mark-text role-title-text" style="pointer-events: none;"><text text-anchor="middle" transform="translate(0,10)" style="font-family: Roboto Condensed; font-size: 13px; font-weight: normal; fill: #000; opacity: 1;">7-day average (Daily values in light color)</text></g></g><path class="foreground" d="" style="pointer-events: none; display: none; fill: none;"></path></g></g></g><path class="foreground" d="" style="display: none; fill: none;"></path></g></g><g class="mark-group role-scope concat_1_group"><g transform="translate(450,0)"><path class="background" d="M0,0h400v300h-400Z" style="fill: none; stroke: #ddd; stroke-width: 0;"></path><g><g class="mark-group role-axis"><g transform="translate(0.5,0.5)"><path class="background" d="M0,0h0v0h0Z" style="pointer-events: none; fill: none;"></path><g><g class="mark-rule role-axis-grid" style="pointer-events: none;"><line transform="translate(0,300)" x2="400" y2="0" style="fill: none; stroke: #ddd; stroke-width: 1; opacity: 1;"></line><line transform="translate(0,263)" x2="400" y2="0" style="fill: none; stroke: #ddd; stroke-width: 1; opacity: 1;"></line><line transform="translate(0,225)" x2="400" y2="0" style="fill: none; stroke: #ddd; stroke-width: 1; opacity: 1;"></line><line transform="translate(0,188)" x2="400" y2="0" style="fill: none; stroke: #ddd; stroke-width: 1; opacity: 1;"></line><line transform="translate(0,150)" x2="400" y2="0" style="fill: none; stroke: #ddd; stroke-width: 1; opacity: 1;"></line><line transform="translate(0,113)" x2="400" y2="0" style="fill: none; stroke: #ddd; stroke-width: 1; opacity: 1;"></line><line transform="translate(0,75)" x2="400" y2="0" style="fill: none; stroke: #ddd; stroke-width: 1; opacity: 1;"></line><line transform="translate(0,38)" x2="400" y2="0" style="fill: none; stroke: #ddd; stroke-width: 1; opacity: 1;"></line><line transform="translate(0,0)" x2="400" y2="0" style="fill: none; stroke: #ddd; stroke-width: 1; opacity: 1;"></line></g></g><path class="foreground" d="" style="pointer-events: none; display: none; fill: none;"></path></g></g><g class="mark-group role-axis"><g transform="translate(0.5,300.5)"><path class="background" d="M0,0h0v0h0Z" style="pointer-events: none; fill: none;"></path><g><g class="mark-text role-axis-label" style="pointer-events: none;"><text text-anchor="middle" transform="translate(10.126582278481013,10)" style="font-family: Roboto Condensed; font-size: 10px; fill: #000; opacity: 1;">Feb 02</text><text text-anchor="middle" transform="translate(45.56962025316456,10)" style="font-family: Roboto Condensed; font-size: 10px; fill: #000; opacity: 0;">Feb 09</text><text text-anchor="middle" transform="translate(81.0126582278481,10)" style="font-family: Roboto Condensed; font-size: 10px; fill: #000; opacity: 1;">Feb 16</text><text text-anchor="middle" transform="translate(116.45569620253164,10)" style="font-family: Roboto Condensed; font-size: 10px; fill: #000; opacity: 0;">Feb 23</text><text text-anchor="middle" transform="translate(151.8987341772152,10)" style="font-family: Roboto Condensed; font-size: 10px; fill: #000; opacity: 1;">Mar 01</text><text text-anchor="middle" transform="translate(187.34177215189874,10)" style="font-family: Roboto Condensed; font-size: 10px; fill: #000; opacity: 0;">Mar 08</text><text text-anchor="middle" transform="translate(222.78481012658227,10)" style="font-family: Roboto Condensed; font-size: 10px; fill: #000; opacity: 1;">Mar 15</text><text text-anchor="middle" transform="translate(258.2278481012658,10)" style="font-family: Roboto Condensed; font-size: 10px; fill: #000; opacity: 0;">Mar 22</text><text text-anchor="middle" transform="translate(293.6708860759494,10)" style="font-family: Roboto Condensed; font-size: 10px; fill: #000; opacity: 1;">Mar 29</text><text text-anchor="middle" transform="translate(329.11392405063293,10)" style="font-family: Roboto Condensed; font-size: 10px; fill: #000; opacity: 0;">Apr 05</text><text text-anchor="middle" transform="translate(364.55696202531647,10)" style="font-family: Roboto Condensed; font-size: 10px; fill: #000; opacity: 1;">Apr 12</text><text text-anchor="end" transform="translate(400,10)" style="font-family: Roboto Condensed; font-size: 10px; fill: #000; opacity: 0;">Apr 19</text></g><g class="mark-rule role-axis-domain" style="pointer-events: none;"><line transform="translate(0,0)" x2="400" y2="0" style="fill: none; stroke: lightgray; stroke-width: 1; opacity: 1;"></line></g></g><path class="foreground" d="" style="pointer-events: none; display: none; fill: none;"></path></g></g><g class="mark-group role-axis"><g transform="translate(0.5,0.5)"><path class="background" d="M0,0h0v0h0Z" style="pointer-events: none; fill: none;"></path><g><g class="mark-text role-axis-label" style="pointer-events: none;"><text text-anchor="end" transform="translate(-2,303)" style="font-family: Roboto Condensed; font-size: 10px; fill: #000; opacity: 1;">0</text><text text-anchor="end" transform="translate(-2,265.5)" style="font-family: Roboto Condensed; font-size: 10px; fill: #000; opacity: 1;">2,000</text><text text-anchor="end" transform="translate(-2,228)" style="font-family: Roboto Condensed; font-size: 10px; fill: #000; opacity: 1;">4,000</text><text text-anchor="end" transform="translate(-2,190.5)" style="font-family: Roboto Condensed; font-size: 10px; fill: #000; opacity: 1;">6,000</text><text text-anchor="end" transform="translate(-2,153)" style="font-family: Roboto Condensed; font-size: 10px; fill: #000; opacity: 1;">8,000</text><text text-anchor="end" transform="translate(-2,115.5)" style="font-family: Roboto Condensed; font-size: 10px; fill: #000; opacity: 1;">10,000</text><text text-anchor="end" transform="translate(-2,78)" style="font-family: Roboto Condensed; font-size: 10px; fill: #000; opacity: 1;">12,000</text><text text-anchor="end" transform="translate(-2,40.5)" style="font-family: Roboto Condensed; font-size: 10px; fill: #000; opacity: 1;">14,000</text><text text-anchor="end" transform="translate(-2,3)" style="font-family: Roboto Condensed; font-size: 10px; fill: #000; opacity: 1;">16,000</text></g><g class="mark-rule role-axis-domain" style="pointer-events: none;"><line transform="translate(0,300)" x2="0" y2="-300" style="fill: none; stroke: lightgray; stroke-width: 1; opacity: 1;"></line></g></g><path class="foreground" d="" style="pointer-events: none; display: none; fill: none;"></path></g></g><g class="mark-group role-scope concat_1_pathgroup"><g transform="translate(0,0)"><path class="background" d="M0,0h400v300h-400Z" style="fill: none;"></path><g><g class="mark-line role-mark concat_1_marks" clip-path="url(#clip7)"><path d="M0,300L5.063291139240507,300L10.126582278481013,300L15.18987341772152,300L20.253164556962027,300L25.31645569620253,300L30.37974683544304,300L35.44303797468354,300L40.50632911392405,300L45.56962025316456,300L50.63291139240506,300L55.69620253164557,300L60.75949367088608,300L65.82278481012658,300L70.88607594936708,300L75.9493670886076,300L81.0126582278481,300L86.07594936708861,300L91.13924050632912,300L96.20253164556962,300L101.26582278481013,300L106.32911392405062,300L111.39240506329114,300L116.45569620253164,300L121.51898734177216,300L126.58227848101266,300L131.64556962025316,300L136.70886075949366,300L141.77215189873417,300L146.8354430379747,300L151.8987341772152,300L156.96202531645568,300L162.0253164556962,300L167.08860759493672,300L172.15189873417722,300L177.2151898734177,300L182.27848101265823,300L187.34177215189874,300L192.40506329113924,299.98125L197.46835443037975,299.98125L202.53164556962025,299.98125L207.59493670886076,299.98125L212.65822784810123,299.98125L217.72151898734177,299.98125L222.78481012658227,299.98125L227.8481012658228,299.98125L232.91139240506328,299.98125L237.9746835443038,299.98125L243.03797468354432,299.7L248.1012658227848,299.7L253.16455696202533,299.7L258.2278481012658,299.7L263.2911392405063,299.7L268.3544303797469,299.7L273.4177215189873,299.7L278.4810126582279,299.7L283.54430379746833,299.7L288.60759493670884,299.7L293.6708860759494,299.7L298.73417721518985,299.7L303.7974683544304,299.7L308.8607594936709,298.06875L313.92405063291136,298.06875L318.9873417721519,296.15625L324.0506329113924,296.15625L329.11392405063293,296.15625L334.17721518987344,296.15625L339.2405063291139,296.15625L344.30379746835445,296.15625L349.36708860759495,296.15625L354.4303797468354,292.85625L359.49367088607596,292.85625L364.55696202531647,292.85625L369.62025316455697,292.85625L374.6835443037975,292.85625L379.746835443038,292.85625L384.8101265822785,289.6875L389.873417721519,289.6875L394.9367088607595,289.6875L400,289.6875" style="fill: none; stroke: #e45756; stroke-width: 2; opacity: 0.7;"></path></g></g><path class="foreground" d="" style="display: none; fill: none;"></path></g><g transform="translate(0,0)"><path class="background" d="M0,0h400v300h-400Z" style="fill: none;"></path><g><g class="mark-line role-mark concat_1_marks" clip-path="url(#clip8)"><path d="M0,300L5.063291139240507,300L10.126582278481013,300L15.18987341772152,300L20.253164556962027,300L25.31645569620253,300L30.37974683544304,300L35.44303797468354,300L40.50632911392405,300L45.56962025316456,300L50.63291139240506,300L55.69620253164557,300L60.75949367088608,300L65.82278481012658,300L70.88607594936708,300L75.9493670886076,300L81.0126582278481,300L86.07594936708861,300L91.13924050632912,300L96.20253164556962,300L101.26582278481013,300L106.32911392405062,300L111.39240506329114,300L116.45569620253164,300L121.51898734177216,300L126.58227848101266,300L131.64556962025316,300L136.70886075949366,300L141.77215189873417,300L146.8354430379747,300L151.8987341772152,300L156.96202531645568,300L162.0253164556962,300L167.08860759493672,300L172.15189873417722,300L177.2151898734177,300L182.27848101265823,300L187.34177215189874,300L192.40506329113924,300L197.46835443037975,300L202.53164556962025,299.98125L207.59493670886076,299.98125L212.65822784810123,299.98125L217.72151898734177,299.9625L222.78481012658227,299.94375L227.8481012658228,299.8875L232.91139240506328,299.86875000000003L237.9746835443038,299.8125L243.03797468354432,299.79375L248.1012658227848,299.7L253.16455696202533,299.625L258.2278481012658,299.60625L263.2911392405063,299.53125L268.3544303797469,299.325L273.4177215189873,298.83750000000003L278.4810126582279,298.55625L283.54430379746833,298.03125L288.60759493670884,298.03125L293.6708860759494,297.9375L298.73417721518985,297.2625L303.7974683544304,296.625L308.8607594936709,295.51875L313.92405063291136,294.225L318.9873417721519,293.28749999999997L324.0506329113924,293.00625L329.11392405063293,292.48125L334.17721518987344,291.05625L339.2405063291139,288.91875L344.30379746835445,287.11875000000003L349.36708860759495,285.13125L354.4303797468354,283.6875L359.49367088607596,283.36875L364.55696202531647,283.14374999999995L369.62025316455697,282.76875L374.6835443037975,280.63125L379.746835443038,277.44375L384.8101265822785,275.00625L389.873417721519,273.75L394.9367088607595,271.66875L400,271.125" style="fill: none; stroke: #f58518; stroke-width: 2; opacity: 0.7;"></path></g></g><path class="foreground" d="" style="display: none; fill: none;"></path></g><g transform="translate(0,0)"><path class="background" d="M0,0h400v300h-400Z" style="fill: none;"></path><g><g class="mark-line role-mark concat_1_marks" clip-path="url(#clip9)"><path d="M0,299.98125L5.063291139240507,299.98125L10.126582278481013,299.98125L15.18987341772152,299.98125L20.253164556962027,299.98125L25.31645569620253,299.98125L30.37974683544304,299.98125L35.44303797468354,299.98125L40.50632911392405,299.98125L45.56962025316456,299.98125L50.63291139240506,299.98125L55.69620253164557,299.98125L60.75949367088608,299.98125L65.82278481012658,299.98125L70.88607594936708,299.98125L75.9493670886076,299.98125L81.0126582278481,299.98125L86.07594936708861,299.98125L91.13924050632912,299.98125L96.20253164556962,299.98125L101.26582278481013,299.98125L106.32911392405062,299.98125L111.39240506329114,299.98125L116.45569620253164,299.98125L121.51898734177216,299.98125L126.58227848101266,299.98125L131.64556962025316,299.9625L136.70886075949366,299.86875000000003L141.77215189873417,299.86875000000003L146.8354430379747,299.775L151.8987341772152,299.7375L156.96202531645568,299.71875L162.0253164556962,299.60625L167.08860759493672,299.34375L172.15189873417722,298.2375L177.2151898734177,298.10625L182.27848101265823,296.98125L187.34177215189874,296.19375L192.40506329113924,295.35L197.46835443037975,293.34375L202.53164556962025,290.625L207.59493670886076,288.76875L212.65822784810123,284.7375L217.72151898734177,281.98125L222.78481012658227,280.8375L227.8481012658228,279.31875L232.91139240506328,277.6875L237.9746835443038,276.01875L243.03797468354432,273.01875L248.1012658227848,269.26875L253.16455696202533,266.94375L258.2278481012658,263.79375L263.2911392405063,261.6375L268.3544303797469,257.1375L273.4177215189873,252.63750000000002L278.4810126582279,246.75L283.54430379746833,242.45625L288.60759493670884,235.36875L293.6708860759494,230.625L298.73417721518985,224.47500000000002L303.7974683544304,216.84375000000003L308.8607594936709,207.24375L313.92405063291136,195.6L318.9873417721519,185.04375L324.0506329113924,179.19375L329.11392405063293,171.9375L334.17721518987344,164.88750000000002L339.2405063291139,155.75625L344.30379746835445,142.14374999999998L349.36708860759495,128.60625L354.4303797468354,118.40624999999999L359.49367088607596,109.66875L364.55696202531647,103.44375L369.62025316455697,94.725L374.6835443037975,85.40625L379.746835443038,76.36875L384.8101265822785,64.87500000000001L389.873417721519,52.20000000000001L394.9367088607595,40.83750000000001L400,30.281250000000004" style="fill: none; stroke: #4c78a8; stroke-width: 2; opacity: 0.7;"></path></g></g><path class="foreground" d="" style="display: none; fill: none;"></path></g></g><g class="mark-group role-title"><g transform="translate(200,-22)"><path class="background" d="M0,0h0v0h0Z" style="pointer-events: none; fill: none;"></path><g><g class="mark-text role-title-text" style="pointer-events: none;"><text text-anchor="middle" transform="translate(0,10)" style="font-family: Roboto Condensed; font-size: 13px; font-weight: normal; fill: #000; opacity: 1;">Total</text></g></g><path class="foreground" d="" style="pointer-events: none; display: none; fill: none;"></path></g></g></g><path class="foreground" d="" style="display: none; fill: none;"></path></g></g><g class="mark-group role-legend"><g transform="translate(868,0)"><path class="background" d="M0,0h60v37h-60Z" style="pointer-events: none; fill: none;"></path><g><g class="mark-group role-legend-entry"><g transform="translate(0,0)"><path class="background" d="M0,0h0v0h0Z" style="pointer-events: none; fill: none;"></path><g><g class="mark-group role-scope"><g transform="translate(0,0)"><path class="background" d="M0,0h59.3251953125v11h-59.3251953125Z" style="pointer-events: none; fill: none; opacity: 1;"></path><g><g class="mark-symbol role-legend-symbol" style="pointer-events: none;"><path transform="translate(6,6)" d="M-5,0L5,0" style="fill: none; stroke: #4c78a8; stroke-width: 1.5; opacity: 1;"></path></g><g class="mark-text role-legend-label" style="pointer-events: none;"><text text-anchor="start" transform="translate(16,9)" style="font-family: Roboto Condensed; font-size: 10px; fill: #000; opacity: 1;">Confirmed</text></g></g><path class="foreground" d="" style="pointer-events: none; display: none; fill: none;"></path></g><g transform="translate(0,13)"><path class="background" d="M0,0h59.3251953125v11h-59.3251953125Z" style="pointer-events: none; fill: none; opacity: 1;"></path><g><g class="mark-symbol role-legend-symbol" style="pointer-events: none;"><path transform="translate(6,6)" d="M-5,0L5,0" style="fill: none; stroke: #f58518; stroke-width: 1.5; opacity: 1;"></path></g><g class="mark-text role-legend-label" style="pointer-events: none;"><text text-anchor="start" transform="translate(16,9)" style="font-family: Roboto Condensed; font-size: 10px; fill: #000; opacity: 1;">Deaths</text></g></g><path class="foreground" d="" style="pointer-events: none; display: none; fill: none;"></path></g><g transform="translate(0,26)"><path class="background" d="M0,0h59.3251953125v11h-59.3251953125Z" style="pointer-events: none; fill: none; opacity: 1;"></path><g><g class="mark-symbol role-legend-symbol" style="pointer-events: none;"><path transform="translate(6,6)" d="M-5,0L5,0" style="fill: none; stroke: #e45756; stroke-width: 1.5; opacity: 1;"></path></g><g class="mark-text role-legend-label" style="pointer-events: none;"><text text-anchor="start" transform="translate(16,9)" style="font-family: Roboto Condensed; font-size: 10px; fill: #000; opacity: 1;">Recovered</text></g></g><path class="foreground" d="" style="pointer-events: none; display: none; fill: none;"></path></g></g></g><path class="foreground" d="" style="pointer-events: none; display: none; fill: none;"></path></g></g></g><path class="foreground" d="" style="pointer-events: none; display: none; fill: none;"></path></g></g></g><path class="foreground" d="" style="display: none; fill: none;"></path></g></g></g></svg>