<svg class="marks" width="996" height="491" viewBox="0 0 996 491" version="1.1" xmlns="http://www.w3.org/2000/svg" xmlns:xlink="http://www.w3.org/1999/xlink"><defs><clipPath id="clip1"><rect x="0" y="0" width="400" height="400"></rect></clipPath><clipPath id="clip2"><rect x="0" y="0" width="400" height="400"></rect></clipPath><clipPath id="clip3"><rect x="0" y="0" width="400" height="400"></rect></clipPath><clipPath id="clip4"><rect x="0" y="0" width="400" height="400"></rect></clipPath><clipPath id="clip5"><rect x="0" y="0" width="400" height="400"></rect></clipPath><clipPath id="clip6"><rect x="0" y="0" width="400" height="400"></rect></clipPath><clipPath id="clip7"><rect x="0" y="0" width="400" height="400"></rect></clipPath><clipPath id="clip8"><rect x="0" y="0" width="400" height="400"></rect></clipPath><clipPath id="clip9"><rect x="0" y="0" width="400" height="400"></rect></clipPath></defs><rect width="996" height="491" fill="white"></rect><g fill="none" stroke-miterlimit="10" transform="translate(50,59)"><g class="mark-group role-frame root" role="graphics-object" aria-roledescription="group mark container"><g transform="translate(0,0)"><path class="background" aria-hidden="true" d="M0,0h0v400h0Z"></path><g><g class="mark-group role-scope concat_0_group" role="graphics-object" aria-roledescription="group mark container"><g transform="translate(0,0)"><path class="background" aria-hidden="true" d="M0,0h400v400h-400Z" stroke="#ddd" stroke-width="0"></path><g><g class="mark-group role-axis" aria-hidden="true"><g transform="translate(0.5,0.5)"><path class="background" aria-hidden="true" d="M0,0h0v0h0Z" pointer-events="none"></path><g><g class="mark-rule role-axis-grid" pointer-events="none"><line transform="translate(0,400)" x2="400" y2="0" stroke="#ddd" stroke-width="1" opacity="1"></line><line transform="translate(0,369)" x2="400" y2="0" stroke="#ddd" stroke-width="1" opacity="1"></line><line transform="translate(0,338)" x2="400" y2="0" stroke="#ddd" stroke-width="1" opacity="1"></line><line transform="translate(0,308)" x2="400" y2="0" stroke="#ddd" stroke-width="1" opacity="1"></line><line transform="translate(0,277)" x2="400" y2="0" stroke="#ddd" stroke-width="1" opacity="1"></line><line transform="translate(0,246)" x2="400" y2="0" stroke="#ddd" stroke-width="1" opacity="1"></line><line transform="translate(0,215)" x2="400" y2="0" stroke="#ddd" stroke-width="1" opacity="1"></line><line transform="translate(0,185)" x2="400" y2="0" stroke="#ddd" stroke-width="1" opacity="1"></line><line transform="translate(0,154)" x2="400" y2="0" stroke="#ddd" stroke-width="1" opacity="1"></line><line transform="translate(0,123)" x2="400" y2="0" stroke="#ddd" stroke-width="1" opacity="1"></line><line transform="translate(0,92)" x2="400" y2="0" stroke="#ddd" stroke-width="1" opacity="1"></line><line transform="translate(0,62)" x2="400" y2="0" stroke="#ddd" stroke-width="1" opacity="1"></line><line transform="translate(0,31)" x2="400" y2="0" stroke="#ddd" stroke-width="1" opacity="1"></line><line transform="translate(0,0)" x2="400" y2="0" stroke="#ddd" stroke-width="1" opacity="1"></line></g></g><path class="foreground" aria-hidden="true" d="" pointer-events="none" display="none"></path></g></g><g class="mark-group role-axis" role="graphics-symbol" aria-roledescription="axis" aria-label="X-axis titled 'Date' for a time scale with values from June 14 to June 29"><g transform="translate(0.5,400.5)"><path class="background" aria-hidden="true" d="M0,0h0v0h0Z" pointer-events="none"></path><g><g class="mark-text role-axis-label" pointer-events="none"><text text-anchor="middle" transform="translate(7.777777777777778,10)" font-family="Roboto Condensed" font-size="10px" fill="#000" opacity="1">Jun 15</text><text text-anchor="middle" transform="translate(61.111111111111114,10)" font-family="Roboto Condensed" font-size="10px" fill="#000" opacity="1">Jun 17</text><text text-anchor="middle" transform="translate(114.44444444444444,10)" font-family="Roboto Condensed" font-size="10px" fill="#000" opacity="1">Jun 19</text><text text-anchor="middle" transform="translate(167.77777777777777,10)" font-family="Roboto Condensed" font-size="10px" fill="#000" opacity="1">Jun 21</text><text text-anchor="middle" transform="translate(221.11111111111111,10)" font-family="Roboto Condensed" font-size="10px" fill="#000" opacity="1">Jun 23</text><text text-anchor="middle" transform="translate(274.44444444444446,10)" font-family="Roboto Condensed" font-size="10px" fill="#000" opacity="1">Jun 25</text><text text-anchor="middle" transform="translate(327.77777777777777,10)" font-family="Roboto Condensed" font-size="10px" fill="#000" opacity="1">Jun 27</text><text text-anchor="middle" transform="translate(381.1111111111111,10)" font-family="Roboto Condensed" font-size="10px" fill="#000" opacity="1">Jun 29</text></g><g class="mark-rule role-axis-domain" pointer-events="none"><line transform="translate(0,0)" x2="400" y2="0" stroke="lightgray" stroke-width="1" opacity="1"></line></g><g class="mark-text role-axis-title" pointer-events="none"><text text-anchor="middle" transform="translate(200,25)" font-family="Roboto Condensed" font-size="11px" font-weight="normal" fill="#000" opacity="1">Date</text></g></g><path class="foreground" aria-hidden="true" d="" pointer-events="none" display="none"></path></g></g><g class="mark-group role-axis" role="graphics-symbol" aria-roledescription="axis" aria-label="Y-axis titled 'Count' for a linear scale with values from 0 to 2,600"><g transform="translate(0.5,0.5)"><path class="background" aria-hidden="true" d="M0,0h0v0h0Z" pointer-events="none"></path><g><g class="mark-text role-axis-label" pointer-events="none"><text text-anchor="end" transform="translate(-2,403)" font-family="Roboto Condensed" font-size="10px" fill="#000" opacity="1">0</text><text text-anchor="end" transform="translate(-2,372.2307692307692)" font-family="Roboto Condensed" font-size="10px" fill="#000" opacity="1">200</text><text text-anchor="end" transform="translate(-2,341.46153846153845)" font-family="Roboto Condensed" font-size="10px" fill="#000" opacity="1">400</text><text text-anchor="end" transform="translate(-2,310.6923076923077)" font-family="Roboto Condensed" font-size="10px" fill="#000" opacity="1">600</text><text text-anchor="end" transform="translate(-2,279.9230769230769)" font-family="Roboto Condensed" font-size="10px" fill="#000" opacity="1">800</text><text text-anchor="end" transform="translate(-2,249.15384615384616)" font-family="Roboto Condensed" font-size="10px" fill="#000" opacity="1">1,000</text><text text-anchor="end" transform="translate(-2,218.3846153846154)" font-family="Roboto Condensed" font-size="10px" fill="#000" opacity="1">1,200</text><text text-anchor="end" transform="translate(-2,187.6153846153846)" font-family="Roboto Condensed" font-size="10px" fill="#000" opacity="1">1,400</text><text text-anchor="end" transform="translate(-2,156.84615384615384)" font-family="Roboto Condensed" font-size="10px" fill="#000" opacity="1">1,600</text><text text-anchor="end" transform="translate(-2,126.07692307692308)" font-family="Roboto Condensed" font-size="10px" fill="#000" opacity="1">1,800</text><text text-anchor="end" transform="translate(-2,95.30769230769229)" font-family="Roboto Condensed" font-size="10px" fill="#000" opacity="1">2,000</text><text text-anchor="end" transform="translate(-2,64.53846153846155)" font-family="Roboto Condensed" font-size="10px" fill="#000" opacity="1">2,200</text><text text-anchor="end" transform="translate(-2,33.769230769230745)" font-family="Roboto Condensed" font-size="10px" fill="#000" opacity="1">2,400</text><text text-anchor="end" transform="translate(-2,3)" font-family="Roboto Condensed" font-size="10px" fill="#000" opacity="1">2,600</text></g><g class="mark-rule role-axis-domain" pointer-events="none"><line transform="translate(0,400)" x2="0" y2="-400" stroke="lightgray" stroke-width="1" opacity="1"></line></g><g class="mark-text role-axis-title" pointer-events="none"><text text-anchor="start" transform="translate(-45,-13)" font-family="Roboto Condensed" font-size="11px" font-weight="normal" fill="#000" opacity="1">Count</text></g></g><path class="foreground" aria-hidden="true" d="" pointer-events="none" display="none"></path></g></g><g class="mark-group role-scope concat_0_layer_0_pathgroup" role="graphics-object" aria-roledescription="group mark container"><g transform="translate(0,0)"><path class="background" aria-hidden="true" d="M0,0h400v400h-400Z"></path><g><g class="mark-line role-mark concat_0_layer_0_marks" clip-path="url(#clip1)" role="graphics-object" aria-roledescription="line mark container"><path aria-label="Type: Recovered; Date: Mar 01; Count: 0" role="graphics-symbol" aria-roledescription="line mark" d="M-2817.777777777778,400L-2791.1111111111113,400L-2764.4444444444443,400L-2737.777777777778,400L-2711.111111111111,400L-2684.4444444444443,400L-2657.777777777778,400L-2631.111111111111,400L-2605.5555555555557,400L-2578.8888888888887,400L-2552.222222222222,400L-2525.5555555555557,400L-2498.8888888888887,400L-2472.222222222222,400L-2445.5555555555557,400L-2418.888888888889,400L-2392.222222222222,400L-2365.5555555555557,400L-2338.888888888889,400L-2312.222222222222,400L-2285.5555555555557,400L-2258.8888888888887,400L-2232.222222222222,400L-2205.5555555555557,400L-2178.8888888888887,400L-2152.222222222222,400L-2125.5555555555557,400L-2098.8888888888887,400L-2072.222222222222,400L-2045.5555555555557,400L-2018.888888888889,400L-1992.2222222222222,400L-1965.5555555555554,400L-1938.888888888889,400L-1912.2222222222224,400L-1885.5555555555554,400L-1858.888888888889,400L-1832.2222222222222,400L-1805.5555555555557,400L-1778.8888888888887,400L-1752.2222222222222,400L-1725.5555555555557,400L-1698.8888888888887,400L-1672.2222222222222,400L-1645.5555555555557,400L-1618.888888888889,400L-1592.2222222222222,400L-1565.5555555555554,400L-1538.888888888889,400L-1512.2222222222222,400L-1485.5555555555557,400L-1458.888888888889,400L-1432.2222222222222,400L-1405.5555555555554,400L-1378.888888888889,400L-1352.2222222222222,400L-1325.5555555555557,400L-1298.888888888889,400L-1272.2222222222222,400L-1245.5555555555557,400L-1218.888888888889,400L-1192.2222222222222,400L-1165.5555555555554,400L-1138.888888888889,400L-1112.2222222222222,400L-1085.5555555555557,400L-1058.888888888889,400L-1032.2222222222222,400L-1005.5555555555555,400L-978.8888888888889,400L-952.2222222222222,400L-925.5555555555557,400L-898.8888888888889,400L-872.2222222222222,400L-845.5555555555555,400L-818.8888888888888,400L-792.2222222222223,400L-765.5555555555555,400L-738.8888888888889,400L-712.2222222222222,400L-685.5555555555555,400L-658.8888888888889,400L-632.2222222222222,400L-605.5555555555555,400L-578.8888888888889,400L-552.2222222222222,400L-525.5555555555555,400L-498.8888888888889,400L-472.22222222222223,400L-445.55555555555554,400L-418.8888888888889,400L-392.22222222222223,400L-365.55555555555554,400L-338.88888888888886,400L-312.22222222222223,400L-285.55555555555554,400L-258.8888888888889,400L-232.22222222222223,400L-205.55555555555554,400L-178.88888888888889,400L-152.22222222222223,400L-125.55555555555556,400L-98.88888888888889,400L-72.22222222222221,400L-45.55555555555556,400L-18.88888888888889,400L7.777777777777778,400L34.44444444444444,400L61.111111111111114,400L87.77777777777777,400L114.44444444444444,400L141.11111111111111,400L167.77777777777777,400L194.44444444444443,400L221.11111111111111,400L247.77777777777777,400L274.44444444444446,400L301.1111111111111,400L327.77777777777777,400L354.44444444444446,400L381.1111111111111,400L407.77777777777777,400" stroke="#e45756" stroke-width="2" opacity="0.2"></path></g></g><path class="foreground" aria-hidden="true" d="" display="none"></path></g><g transform="translate(0,0)"><path class="background" aria-hidden="true" d="M0,0h400v400h-400Z"></path><g><g class="mark-line role-mark concat_0_layer_0_marks" clip-path="url(#clip2)" role="graphics-object" aria-roledescription="line mark container"><path aria-label="Type: Deaths; Date: Mar 01; Count: 0" role="graphics-symbol" aria-roledescription="line mark" d="M-2817.777777777778,400L-2791.1111111111113,400L-2764.4444444444443,400L-2737.777777777778,400L-2711.111111111111,400L-2684.4444444444443,400L-2657.777777777778,400L-2631.111111111111,400L-2605.5555555555557,400L-2578.8888888888887,400L-2552.222222222222,399.8461538461538L-2525.5555555555557,400L-2498.8888888888887,400L-2472.222222222222,399.8461538461538L-2445.5555555555557,399.8461538461538L-2418.888888888889,399.53846153846155L-2392.222222222222,399.8461538461538L-2365.5555555555557,399.53846153846155L-2338.888888888889,399.8461538461538L-2312.222222222222,399.2307692307692L-2285.5555555555557,399.3846153846154L-2258.8888888888887,399.8461538461538L-2232.222222222222,399.3846153846154L-2205.5555555555557,398.3076923076923L-2178.8888888888887,396L-2152.222222222222,397.6923076923077L-2125.5555555555557,395.6923076923077L-2098.8888888888887,400L-2072.222222222222,399.2307692307692L-2045.5555555555557,394.46153846153845L-2018.888888888889,394.7692307692308L-1992.2222222222222,390.9230769230769L-1965.5555555555554,389.3846153846154L-1938.888888888889,392.30769230769226L-1912.2222222222224,397.6923076923077L-1885.5555555555554,395.6923076923077L-1858.888888888889,388.30769230769226L-1832.2222222222222,382.46153846153845L-1805.5555555555557,385.2307692307692L-1778.8888888888887,383.6923076923077L-1752.2222222222222,388.1538461538462L-1725.5555555555557,397.3846153846154L-1698.8888888888887,398.1538461538462L-1672.2222222222222,396.9230769230769L-1645.5555555555557,382.46153846153845L-1618.888888888889,373.84615384615387L-1592.2222222222222,380L-1565.5555555555554,389.6923076923077L-1538.888888888889,382.9230769230769L-1512.2222222222222,395.53846153846155L-1485.5555555555557,393.84615384615387L-1458.888888888889,371.53846153846155L-1432.2222222222222,373.53846153846155L-1405.5555555555554,387.0769230769231L-1378.888888888889,379.84615384615387L-1352.2222222222222,393.84615384615387L-1325.5555555555557,399.6923076923077L-1298.888888888889,387.6923076923077L-1272.2222222222222,387.53846153846155L-1245.5555555555557,383.53846153846155L-1218.888888888889,380.9230769230769L-1192.2222222222222,389.6923076923077L-1165.5555555555554,397.53846153846155L-1138.888888888889,398.46153846153845L-1112.2222222222222,386.15384615384613L-1085.5555555555557,386.9230769230769L-1058.888888888889,386.61538461538464L-1032.2222222222222,384.7692307692308L-1005.5555555555555,379.2307692307692L-978.8888888888889,393.07692307692304L-952.2222222222222,399.2307692307692L-925.5555555555557,395.2307692307692L-898.8888888888889,391.2307692307692L-872.2222222222222,377.38461538461536L-845.5555555555555,389.3846153846154L-818.8888888888888,382L-792.2222222222223,395.6923076923077L-765.5555555555555,399.2307692307692L-738.8888888888889,397.07692307692304L-712.2222222222222,393.07692307692304L-685.5555555555555,386.46153846153845L-658.8888888888889,393.84615384615387L-632.2222222222222,391.6923076923077L-605.5555555555555,389.6923076923077L-578.8888888888889,399.07692307692304L-552.2222222222222,395.2307692307692L-525.5555555555555,385.2307692307692L-498.8888888888889,385.3846153846154L-472.22222222222223,392.9230769230769L-445.55555555555554,387.0769230769231L-418.8888888888889,393.07692307692304L-392.22222222222223,400L-365.55555555555554,398.7692307692308L-338.88888888888886,390L-312.22222222222223,388.61538461538464L-285.55555555555554,396.9230769230769L-258.8888888888889,388.1538461538462L-232.22222222222223,397.3846153846154L-205.55555555555554,399.53846153846155L-178.88888888888889,394.61538461538464L-152.22222222222223,396.46153846153845L-125.55555555555556,388L-98.88888888888889,397.07692307692304L-72.22222222222221,393.84615384615387L-45.55555555555556,396.9230769230769L-18.88888888888889,400L7.777777777777778,397.3846153846154L34.44444444444444,392.61538461538464L61.111111111111114,384.3076923076923L87.77777777777777,398.1538461538462L114.44444444444444,392L141.11111111111111,399.3846153846154L167.77777777777777,399.6923076923077L194.44444444444443,398.3076923076923L221.11111111111111,394L247.77777777777777,392.61538461538464L274.44444444444446,396.7692307692308L301.1111111111111,392.30769230769226L327.77777777777777,400L354.44444444444446,400L381.1111111111111,395.3846153846154L407.77777777777777,396.46153846153845" stroke="#f58518" stroke-width="2" opacity="0.2"></path></g></g><path class="foreground" aria-hidden="true" d="" display="none"></path></g><g transform="translate(0,0)"><path class="background" aria-hidden="true" d="M0,0h400v400h-400Z"></path><g><g class="mark-line role-mark concat_0_layer_0_marks" clip-path="url(#clip3)" role="graphics-object" aria-roledescription="line mark container"><path aria-label="Type: Confirmed; Date: Mar 01; Count: 2" role="graphics-symbol" aria-roledescription="line mark" d="M-2817.777777777778,399.6923076923077L-2791.1111111111113,399.8461538461538L-2764.4444444444443,399.07692307692304L-2737.777777777778,397.8461538461538L-2711.111111111111,390.9230769230769L-2684.4444444444443,398.92307692307696L-2657.777777777778,390.7692307692308L-2631.111111111111,393.53846153846155L-2605.5555555555557,393.07692307692304L-2578.8888888888887,383.53846153846155L-2552.222222222222,377.6923076923077L-2525.5555555555557,384.7692307692308L-2498.8888888888887,366.9230769230769L-2472.222222222222,377.38461538461536L-2445.5555555555557,390.61538461538464L-2418.888888888889,387.53846153846155L-2392.222222222222,386.61538461538464L-2365.5555555555557,386.30769230769226L-2338.888888888889,375.38461538461536L-2312.222222222222,369.2307692307692L-2285.5555555555557,380.9230769230769L-2258.8888888888887,373.6923076923077L-2232.222222222222,382.7692307692308L-2205.5555555555557,363.0769230769231L-2178.8888888888887,363.0769230769231L-2152.222222222222,351.6923076923077L-2125.5555555555557,364.7692307692308L-2098.8888888888887,341.8461538461538L-2072.222222222222,361.0769230769231L-2045.5555555555557,349.53846153846155L-2018.888888888889,337.3846153846154L-1992.2222222222222,321.2307692307692L-1965.5555555555554,304.46153846153845L-1938.888888888889,313.38461538461536L-1912.2222222222224,352L-1885.5555555555554,340.46153846153845L-1858.888888888889,342.1538461538462L-1832.2222222222222,325.0769230769231L-1805.5555555555557,288.3076923076923L-1778.8888888888887,288.9230769230769L-1752.2222222222222,316.3076923076923L-1725.5555555555557,328.3076923076923L-1698.8888888888887,348.92307692307696L-1672.2222222222222,328.46153846153845L-1645.5555555555557,323.53846153846155L-1618.888888888889,325.84615384615387L-1592.2222222222222,305.69230769230774L-1565.5555555555554,296L-1538.888888888889,306.7692307692308L-1512.2222222222222,313.38461538461536L-1485.5555555555557,339.6923076923077L-1458.888888888889,316.15384615384613L-1432.2222222222222,295.07692307692304L-1405.5555555555554,284.46153846153845L-1378.888888888889,275.0769230769231L-1352.2222222222222,306.15384615384613L-1325.5555555555557,328.7692307692308L-1298.888888888889,356L-1272.2222222222222,293.0769230769231L-1245.5555555555557,295.2307692307692L-1218.888888888889,278.46153846153845L-1192.2222222222222,334.15384615384613L-1165.5555555555554,313.53846153846155L-1138.888888888889,363.84615384615387L-1112.2222222222222,337.84615384615387L-1085.5555555555557,323.84615384615387L-1058.888888888889,292L-1032.2222222222222,291.53846153846155L-1005.5555555555555,301.2307692307692L-978.8888888888889,299.07692307692304L-952.2222222222222,338.3076923076923L-925.5555555555557,346.46153846153845L-898.8888888888889,307.3846153846154L-872.2222222222222,302L-845.5555555555555,296.46153846153845L-818.8888888888888,303.8461538461538L-792.2222222222223,327.6923076923077L-765.5555555555555,328.3076923076923L-738.8888888888889,364L-712.2222222222222,335.0769230769231L-685.5555555555555,288.6153846153846L-658.8888888888889,300.1538461538462L-632.2222222222222,302L-605.5555555555555,341.6923076923077L-578.8888888888889,358.3076923076923L-552.2222222222222,340.9230769230769L-525.5555555555555,308.1538461538462L-498.8888888888889,300.3076923076923L-472.22222222222223,301.6923076923077L-445.55555555555554,284.7692307692308L-418.8888888888889,302L-392.22222222222223,334L-365.55555555555554,358.1538461538462L-338.88888888888886,280.7692307692308L-312.22222222222223,59.38461538461537L-285.55555555555554,233.8461538461538L-258.8888888888889,237.53846153846158L-232.22222222222223,254.1538461538462L-205.55555555555554,270.3076923076923L-178.88888888888889,338L-152.22222222222223,278.30769230769226L-125.55555555555556,263.0769230769231L-98.88888888888889,173.2307692307692L-72.22222222222221,185.23076923076923L-45.55555555555556,208.1538461538462L-18.88888888888889,294.9230769230769L7.777777777777778,281.6923076923077L34.44444444444444,255.38461538461536L61.111111111111114,209.38461538461536L87.77777777777777,172.15384615384613L114.44444444444444,87.23076923076923L141.11111111111111,320.7692307692308L167.77777777777777,360.46153846153845L194.44444444444443,387.0769230769231L221.11111111111111,106.92307692307695L247.77777777777777,171.2307692307692L274.44444444444446,159.07692307692307L301.1111111111111,208.1538461538462L327.77777777777777,400L354.44444444444446,400L381.1111111111111,10.769230769230775L407.77777777777777,279.38461538461536" stroke="#4c78a8" stroke-width="2" opacity="0.2"></path></g></g><path class="foreground" aria-hidden="true" d="" display="none"></path></g></g><g class="mark-group role-scope concat_0_layer_1_pathgroup" role="graphics-object" aria-roledescription="group mark container"><g transform="translate(0,0)"><path class="background" aria-hidden="true" d="M0,0h400v400h-400Z"></path><g><g class="mark-line role-mark concat_0_layer_1_marks" clip-path="url(#clip4)" role="graphics-object" aria-roledescription="line mark container"><path aria-label="Type: Recovered; Date: Mar 01; Count: 0" role="graphics-symbol" aria-roledescription="line mark" d="M-2657.777777777778,400L-2631.111111111111,400L-2605.5555555555557,400L-2578.8888888888887,400L-2552.222222222222,400L-2525.5555555555557,400L-2498.8888888888887,400L-2472.222222222222,400L-2445.5555555555557,400L-2418.888888888889,400L-2392.222222222222,400L-2365.5555555555557,400L-2338.888888888889,400L-2312.222222222222,400L-2285.5555555555557,400L-2258.8888888888887,400L-2232.222222222222,400L-2205.5555555555557,400L-2178.8888888888887,400L-2152.222222222222,400L-2125.5555555555557,400L-2098.8888888888887,400L-2072.222222222222,400L-2045.5555555555557,400L-2018.888888888889,400L-1992.2222222222222,400L-1965.5555555555554,400L-1938.888888888889,400L-1912.2222222222224,400L-1885.5555555555554,400L-1858.888888888889,400L-1832.2222222222222,400L-1805.5555555555557,400L-1778.8888888888887,400L-1752.2222222222222,400L-1725.5555555555557,400L-1698.8888888888887,400L-1672.2222222222222,400L-1645.5555555555557,400L-1618.888888888889,400L-1592.2222222222222,400L-1565.5555555555554,400L-1538.888888888889,400L-1512.2222222222222,400L-1485.5555555555557,400L-1458.888888888889,400L-1432.2222222222222,400L-1405.5555555555554,400L-1378.888888888889,400L-1352.2222222222222,400L-1325.5555555555557,400L-1298.888888888889,400L-1272.2222222222222,400L-1245.5555555555557,400L-1218.888888888889,400L-1192.2222222222222,400L-1165.5555555555554,400L-1138.888888888889,400L-1112.2222222222222,400L-1085.5555555555557,400L-1058.888888888889,400L-1032.2222222222222,400L-1005.5555555555555,400L-978.8888888888889,400L-952.2222222222222,400L-925.5555555555557,400L-898.8888888888889,400L-872.2222222222222,400L-845.5555555555555,400L-818.8888888888888,400L-792.2222222222223,400L-765.5555555555555,400L-738.8888888888889,400L-712.2222222222222,400L-685.5555555555555,400L-658.8888888888889,400L-632.2222222222222,400L-605.5555555555555,400L-578.8888888888889,400L-552.2222222222222,400L-525.5555555555555,400L-498.8888888888889,400L-472.22222222222223,400L-445.55555555555554,400L-418.8888888888889,400L-392.22222222222223,400L-365.55555555555554,400L-338.88888888888886,400L-312.22222222222223,400L-285.55555555555554,400L-258.8888888888889,400L-232.22222222222223,400L-205.55555555555554,400L-178.88888888888889,400L-152.22222222222223,400L-125.55555555555556,400L-98.88888888888889,400L-72.22222222222221,400L-45.55555555555556,400L-18.88888888888889,400L7.777777777777778,400L34.44444444444444,400L61.111111111111114,400L87.77777777777777,400L114.44444444444444,400L141.11111111111111,400L167.77777777777777,400L194.44444444444443,400L221.11111111111111,400L247.77777777777777,400L274.44444444444446,400L301.1111111111111,400L327.77777777777777,400L354.44444444444446,400L381.1111111111111,400L407.77777777777777,400" stroke="#e45756" stroke-width="2" opacity="1"></path></g></g><path class="foreground" aria-hidden="true" d="" display="none"></path></g><g transform="translate(0,0)"><path class="background" aria-hidden="true" d="M0,0h400v400h-400Z"></path><g><g class="mark-line role-mark concat_0_layer_1_marks" clip-path="url(#clip5)" role="graphics-object" aria-roledescription="line mark container"><path aria-label="Type: Deaths; Date: Mar 01; Count: 0" role="graphics-symbol" aria-roledescription="line mark" d="M-2657.777777777778,400L-2631.111111111111,400L-2605.5555555555557,400L-2578.8888888888887,400L-2552.222222222222,399.97802197802196L-2525.5555555555557,399.97802197802196L-2498.8888888888887,399.97802197802196L-2472.222222222222,399.9560439560439L-2445.5555555555557,399.9340659340659L-2418.888888888889,399.86813186813185L-2392.222222222222,399.8461538461538L-2365.5555555555557,399.80219780219784L-2338.888888888889,399.7802197802198L-2312.222222222222,399.6703296703297L-2285.5555555555557,399.6043956043956L-2258.8888888888887,399.6043956043956L-2232.222222222222,399.5824175824176L-2205.5555555555557,399.3626373626374L-2178.8888888888887,398.85714285714283L-2152.222222222222,398.54945054945057L-2125.5555555555557,398.0439560439561L-2098.8888888888887,398.13186813186815L-2072.222222222222,398.0439560439561L-2045.5555555555557,397.34065934065933L-2018.888888888889,396.83516483516485L-1992.2222222222222,396.1098901098901L-1965.5555555555554,394.9230769230769L-1938.888888888889,394.4395604395604L-1912.2222222222224,394.1098901098901L-1885.5555555555554,393.6043956043956L-1858.888888888889,392.72527472527474L-1832.2222222222222,390.96703296703294L-1805.5555555555557,390.1538461538462L-1778.8888888888887,389.34065934065933L-1752.2222222222222,388.7472527472528L-1725.5555555555557,388.7032967032967L-1698.8888888888887,389.05494505494505L-1672.2222222222222,390.2857142857143L-1645.5555555555557,390.2857142857143L-1618.888888888889,388.65934065934067L-1592.2222222222222,388.13186813186815L-1565.5555555555554,388.35164835164835L-1538.888888888889,386.2857142857143L-1512.2222222222222,385.9120879120879L-1485.5555555555557,385.4725274725275L-1458.888888888889,383.9120879120879L-1432.2222222222222,383.8681318681319L-1405.5555555555554,384.8791208791209L-1378.888888888889,383.4725274725275L-1352.2222222222222,385.032967032967L-1325.5555555555557,385.62637362637366L-1298.888888888889,384.7472527472528L-1272.2222222222222,387.032967032967L-1245.5555555555557,388.46153846153845L-1218.888888888889,387.5824175824176L-1192.2222222222222,388.989010989011L-1165.5555555555554,389.51648351648356L-1138.888888888889,389.34065934065933L-1112.2222222222222,389.1208791208791L-1085.5555555555557,389.032967032967L-1058.888888888889,389.4725274725275L-1032.2222222222222,390.02197802197804L-1005.5555555555555,388.5274725274725L-978.8888888888889,387.8901098901099L-952.2222222222222,388L-925.5555555555557,389.2967032967033L-898.8888888888889,389.91208791208794L-872.2222222222222,388.5934065934066L-845.5555555555555,389.25274725274727L-818.8888888888888,389.64835164835165L-792.2222222222223,390.02197802197804L-765.5555555555555,390.02197802197804L-738.8888888888889,390.2857142857143L-712.2222222222222,390.5494505494505L-685.5555555555555,391.84615384615387L-658.8888888888889,392.4835164835165L-632.2222222222222,393.86813186813185L-605.5555555555555,393.010989010989L-578.8888888888889,392.989010989011L-552.2222222222222,392.72527472527474L-525.5555555555555,391.6043956043956L-498.8888888888889,391.45054945054943L-472.22222222222223,391.3186813186813L-445.55555555555554,390.65934065934067L-418.8888888888889,391.14285714285717L-392.22222222222223,391.2747252747253L-365.55555555555554,391.7802197802198L-338.88888888888886,392.46153846153845L-312.22222222222223,392.9230769230769L-285.55555555555554,393.4945054945055L-258.8888888888889,393.64835164835165L-232.22222222222223,394.2637362637363L-205.55555555555554,394.19780219780216L-178.88888888888889,393.6043956043956L-152.22222222222223,394.5274725274725L-125.55555555555556,394.4395604395604L-98.88888888888889,394.46153846153845L-72.22222222222221,395.2747252747253L-45.55555555555556,395.2087912087912L-18.88888888888889,395.2747252747253L7.777777777777778,395.6703296703297L34.44444444444444,395.1208791208791L61.111111111111114,394.5934065934066L87.77777777777777,394.74725274725273L114.44444444444444,394.4835164835165L141.11111111111111,394.83516483516485L167.77777777777777,394.7912087912088L194.44444444444443,394.9230769230769L221.11111111111111,395.1208791208791L247.77777777777777,396.3076923076923L274.44444444444446,396.1098901098901L301.1111111111111,396.1538461538462L327.77777777777777,396.24175824175825L354.44444444444446,396.2857142857143L381.1111111111111,395.86813186813185L407.77777777777777,396.2197802197802" stroke="#f58518" stroke-width="2" opacity="1"></path></g></g><path class="foreground" aria-hidden="true" d="" display="none"></path></g><g transform="translate(0,0)"><path class="background" aria-hidden="true" d="M0,0h400v400h-400Z"></path><g><g class="mark-line role-mark concat_0_layer_1_marks" clip-path="url(#clip6)" role="graphics-object" aria-roledescription="line mark container"><path aria-label="Type: Confirmed; Date: Mar 01; Count: 0" role="graphics-symbol" aria-roledescription="line mark" d="M-2657.777777777778,396.72527472527474L-2631.111111111111,395.8461538461538L-2605.5555555555557,394.8791208791209L-2578.8888888888887,392.65934065934067L-2552.222222222222,389.7802197802198L-2525.5555555555557,388.9010989010989L-2498.8888888888887,384.3296703296703L-2472.222222222222,382.4175824175824L-2445.5555555555557,382L-2418.888888888889,381.2087912087912L-2392.222222222222,381.64835164835165L-2365.5555555555557,382.8791208791209L-2338.888888888889,381.5384615384615L-2312.222222222222,381.8681318681319L-2285.5555555555557,382.3736263736264L-2258.8888888888887,379.95604395604397L-2232.222222222222,379.27472527472526L-2205.5555555555557,375.9120879120879L-2178.8888888888887,372.5934065934066L-2152.222222222222,369.20879120879124L-2125.5555555555557,368.5714285714286L-2098.8888888888887,362.989010989011L-2072.222222222222,361.1868131868132L-2045.5555555555557,356.43956043956047L-2018.888888888889,352.7692307692308L-1992.2222222222222,346.7912087912088L-1965.5555555555554,340.04395604395603L-1938.888888888889,332.7032967032967L-1912.2222222222224,334.15384615384613L-1885.5555555555554,331.2087912087912L-1858.888888888889,330.15384615384613L-1832.2222222222222,328.3956043956044L-1805.5555555555557,323.6923076923077L-1778.8888888888887,321.4725274725275L-1752.2222222222222,321.89010989010984L-1725.5555555555557,318.5054945054945L-1698.8888888888887,319.7142857142857L-1672.2222222222222,317.75824175824175L-1645.5555555555557,317.53846153846155L-1618.888888888889,322.90109890109886L-1592.2222222222222,325.2967032967033L-1565.5555555555554,322.3956043956044L-1538.888888888889,319.31868131868134L-1512.2222222222222,314.24175824175825L-1485.5555555555557,315.84615384615387L-1458.888888888889,314.7912087912088L-1432.2222222222222,310.3956043956044L-1405.5555555555554,307.3626373626374L-1378.888888888889,304.3736263736264L-1352.2222222222222,304.2857142857143L-1325.5555555555557,306.48351648351644L-1298.888888888889,308.81318681318686L-1272.2222222222222,305.5164835164835L-1245.5555555555557,305.53846153846155L-1218.888888888889,304.6813186813187L-1192.2222222222222,313.1208791208791L-1165.5555555555554,314.1758241758242L-1138.888888888889,319.1868131868132L-1112.2222222222222,316.5934065934066L-1085.5555555555557,320.989010989011L-1058.888888888889,320.5274725274725L-1032.2222222222222,322.3956043956044L-1005.5555555555555,317.69230769230774L-978.8888888888889,315.6263736263736L-952.2222222222222,311.97802197802196L-925.5555555555557,313.20879120879124L-898.8888888888889,310.85714285714283L-872.2222222222222,312.2857142857143L-845.5555555555555,312.989010989011L-818.8888888888888,313.3626373626374L-792.2222222222223,317.4505494505495L-765.5555555555555,316.021978021978L-738.8888888888889,318.5274725274725L-712.2222222222222,322.4835164835165L-685.5555555555555,320.57142857142856L-658.8888888888889,321.09890109890114L-632.2222222222222,320.83516483516485L-605.5555555555555,322.83516483516485L-578.8888888888889,327.1208791208791L-552.2222222222222,323.8241758241758L-525.5555555555555,319.978021978022L-498.8888888888889,321.64835164835165L-472.22222222222223,321.86813186813185L-445.55555555555554,319.4065934065934L-418.8888888888889,313.7362637362637L-392.22222222222223,310.26373626373623L-365.55555555555554,312.72527472527474L-338.88888888888886,308.81318681318686L-312.22222222222223,274.3956043956044L-285.55555555555554,264.7032967032967L-258.8888888888889,257.95604395604397L-232.22222222222223,251.12087912087912L-205.55555555555554,242.02197802197801L-178.88888888888889,239.14285714285714L-152.22222222222223,238.7912087912088L-125.55555555555556,267.8901098901099L-98.88888888888889,259.23076923076917L-72.22222222222221,251.75824175824175L-45.55555555555556,245.18681318681317L-18.88888888888889,248.70329670329667L7.777777777777778,240.65934065934064L34.44444444444444,237.3846153846154L61.111111111111114,229.71428571428572L87.77777777777777,229.56043956043953L114.44444444444444,215.5604395604396L141.11111111111111,231.64835164835168L167.77777777777777,241.01098901098902L194.44444444444443,256.0659340659341L221.11111111111111,234.8571428571429L247.77777777777777,229.40659340659337L274.44444444444446,227.53846153846152L301.1111111111111,244.81318681318683L327.77777777777777,256.13186813186815L354.44444444444446,261.7802197802198L381.1111111111111,208.021978021978L407.77777777777777,232.65934065934064" stroke="#4c78a8" stroke-width="2" opacity="1"></path></g></g><path class="foreground" aria-hidden="true" d="" display="none"></path></g></g><g class="mark-group role-title"><g transform="translate(200,-54)"><path class="background" aria-hidden="true" d="M0,0h0v0h0Z" pointer-events="none"></path><g><g class="mark-text role-title-text" role="graphics-symbol" aria-roledescription="title" aria-label="Title text '7-day average (light color: daily values) [2020-06-30]'" pointer-events="none"><text text-anchor="middle" transform="translate(0,10)" font-family="Roboto Condensed" font-size="13px" font-weight="normal" fill="#000" opacity="1"><tspan>7-day average (light color: daily values)</tspan><tspan x="0" dy="15">[2020-06-30]</tspan></text></g></g><path class="foreground" aria-hidden="true" d="" pointer-events="none" display="none"></path></g></g></g><path class="foreground" aria-hidden="true" d="" display="none"></path></g></g><g class="mark-group role-scope concat_1_group" role="graphics-object" aria-roledescription="group mark container"><g transform="translate(465,0)"><path class="background" aria-hidden="true" d="M0,0h400v400h-400Z" stroke="#ddd" stroke-width="0"></path><g><g class="mark-group role-axis" aria-hidden="true"><g transform="translate(0.5,0.5)"><path class="background" aria-hidden="true" d="M0,0h0v0h0Z" pointer-events="none"></path><g><g class="mark-rule role-axis-grid" pointer-events="none"><line transform="translate(0,400)" x2="400" y2="0" stroke="#ddd" stroke-width="1" opacity="1"></line><line transform="translate(0,371)" x2="400" y2="0" stroke="#ddd" stroke-width="1" opacity="1"></line><line transform="translate(0,343)" x2="400" y2="0" stroke="#ddd" stroke-width="1" opacity="1"></line><line transform="translate(0,314)" x2="400" y2="0" stroke="#ddd" stroke-width="1" opacity="1"></line><line transform="translate(0,286)" x2="400" y2="0" stroke="#ddd" stroke-width="1" opacity="1"></line><line transform="translate(0,257)" x2="400" y2="0" stroke="#ddd" stroke-width="1" opacity="1"></line><line transform="translate(0,229)" x2="400" y2="0" stroke="#ddd" stroke-width="1" opacity="1"></line><line transform="translate(0,200)" x2="400" y2="0" stroke="#ddd" stroke-width="1" opacity="1"></line><line transform="translate(0,171)" x2="400" y2="0" stroke="#ddd" stroke-width="1" opacity="1"></line><line transform="translate(0,143)" x2="400" y2="0" stroke="#ddd" stroke-width="1" opacity="1"></line><line transform="translate(0,114)" x2="400" y2="0" stroke="#ddd" stroke-width="1" opacity="1"></line><line transform="translate(0,86)" x2="400" y2="0" stroke="#ddd" stroke-width="1" opacity="1"></line><line transform="translate(0,57)" x2="400" y2="0" stroke="#ddd" stroke-width="1" opacity="1"></line><line transform="translate(0,29)" x2="400" y2="0" stroke="#ddd" stroke-width="1" opacity="1"></line><line transform="translate(0,0)" x2="400" y2="0" stroke="#ddd" stroke-width="1" opacity="1"></line></g></g><path class="foreground" aria-hidden="true" d="" pointer-events="none" display="none"></path></g></g><g class="mark-group role-axis" role="graphics-symbol" aria-roledescription="axis" aria-label="X-axis titled 'Date' for a time scale with values from June 14 to June 29"><g transform="translate(0.5,400.5)"><path class="background" aria-hidden="true" d="M0,0h0v0h0Z" pointer-events="none"></path><g><g class="mark-text role-axis-label" pointer-events="none"><text text-anchor="middle" transform="translate(7.777777777777778,10)" font-family="Roboto Condensed" font-size="10px" fill="#000" opacity="1">Jun 15</text><text text-anchor="middle" transform="translate(61.111111111111114,10)" font-family="Roboto Condensed" font-size="10px" fill="#000" opacity="1">Jun 17</text><text text-anchor="middle" transform="translate(114.44444444444444,10)" font-family="Roboto Condensed" font-size="10px" fill="#000" opacity="1">Jun 19</text><text text-anchor="middle" transform="translate(167.77777777777777,10)" font-family="Roboto Condensed" font-size="10px" fill="#000" opacity="1">Jun 21</text><text text-anchor="middle" transform="translate(221.11111111111111,10)" font-family="Roboto Condensed" font-size="10px" fill="#000" opacity="1">Jun 23</text><text text-anchor="middle" transform="translate(274.44444444444446,10)" font-family="Roboto Condensed" font-size="10px" fill="#000" opacity="1">Jun 25</text><text text-anchor="middle" transform="translate(327.77777777777777,10)" font-family="Roboto Condensed" font-size="10px" fill="#000" opacity="1">Jun 27</text><text text-anchor="middle" transform="translate(381.1111111111111,10)" font-family="Roboto Condensed" font-size="10px" fill="#000" opacity="1">Jun 29</text></g><g class="mark-rule role-axis-domain" pointer-events="none"><line transform="translate(0,0)" x2="400" y2="0" stroke="lightgray" stroke-width="1" opacity="1"></line></g><g class="mark-text role-axis-title" pointer-events="none"><text text-anchor="middle" transform="translate(200,25)" font-family="Roboto Condensed" font-size="11px" font-weight="normal" fill="#000" opacity="1">Date</text></g></g><path class="foreground" aria-hidden="true" d="" pointer-events="none" display="none"></path></g></g><g class="mark-group role-axis" role="graphics-symbol" aria-roledescription="axis" aria-label="Y-axis titled 'Count' for a linear scale with values from 0 to 70,000"><g transform="translate(0.5,0.5)"><path class="background" aria-hidden="true" d="M0,0h0v0h0Z" pointer-events="none"></path><g><g class="mark-text role-axis-label" pointer-events="none"><text text-anchor="end" transform="translate(-2,403)" font-family="Roboto Condensed" font-size="10px" fill="#000" opacity="1">0</text><text text-anchor="end" transform="translate(-2,374.42857142857144)" font-family="Roboto Condensed" font-size="10px" fill="#000" opacity="1">5,000</text><text text-anchor="end" transform="translate(-2,345.8571428571429)" font-family="Roboto Condensed" font-size="10px" fill="#000" opacity="1">10,000</text><text text-anchor="end" transform="translate(-2,317.2857142857143)" font-family="Roboto Condensed" font-size="10px" fill="#000" opacity="1">15,000</text><text text-anchor="end" transform="translate(-2,288.7142857142857)" font-family="Roboto Condensed" font-size="10px" fill="#000" opacity="1">20,000</text><text text-anchor="end" transform="translate(-2,260.1428571428571)" font-family="Roboto Condensed" font-size="10px" fill="#000" opacity="1">25,000</text><text text-anchor="end" transform="translate(-2,231.57142857142856)" font-family="Roboto Condensed" font-size="10px" fill="#000" opacity="1">30,000</text><text text-anchor="end" transform="translate(-2,203)" font-family="Roboto Condensed" font-size="10px" fill="#000" opacity="1">35,000</text><text text-anchor="end" transform="translate(-2,174.42857142857144)" font-family="Roboto Condensed" font-size="10px" fill="#000" opacity="1">40,000</text><text text-anchor="end" transform="translate(-2,145.85714285714283)" font-family="Roboto Condensed" font-size="10px" fill="#000" opacity="1">45,000</text><text text-anchor="end" transform="translate(-2,117.28571428571428)" font-family="Roboto Condensed" font-size="10px" fill="#000" opacity="1">50,000</text><text text-anchor="end" transform="translate(-2,88.71428571428572)" font-family="Roboto Condensed" font-size="10px" fill="#000" opacity="1">55,000</text><text text-anchor="end" transform="translate(-2,60.14285714285716)" font-family="Roboto Condensed" font-size="10px" fill="#000" opacity="1">60,000</text><text text-anchor="end" transform="translate(-2,31.57142857142856)" font-family="Roboto Condensed" font-size="10px" fill="#000" opacity="1">65,000</text><text text-anchor="end" transform="translate(-2,3)" font-family="Roboto Condensed" font-size="10px" fill="#000" opacity="1">70,000</text></g><g class="mark-rule role-axis-domain" pointer-events="none"><line transform="translate(0,400)" x2="0" y2="-400" stroke="lightgray" stroke-width="1" opacity="1"></line></g><g class="mark-text role-axis-title" pointer-events="none"><text text-anchor="start" transform="translate(-45,-13)" font-family="Roboto Condensed" font-size="11px" font-weight="normal" fill="#000" opacity="1">Count</text></g></g><path class="foreground" aria-hidden="true" d="" pointer-events="none" display="none"></path></g></g><g class="mark-group role-scope concat_1_pathgroup" role="graphics-object" aria-roledescription="group mark container"><g transform="translate(0,0)"><path class="background" aria-hidden="true" d="M0,0h400v400h-400Z"></path><g><g class="mark-line role-mark concat_1_marks" clip-path="url(#clip7)" role="graphics-object" aria-roledescription="line mark container"><path aria-label="Type: Recovered; Date: Mar 01; Country: Sweden; Confirmed: 14; Recovered: 0; Deaths: 0; Count: 0" role="graphics-symbol" aria-roledescription="line mark" d="M-2817.777777777778,400L-2791.1111111111113,400L-2764.4444444444443,400L-2737.777777777778,400L-2711.111111111111,400L-2684.4444444444443,400L-2657.777777777778,400L-2631.111111111111,400L-2605.5555555555557,400L-2578.8888888888887,400L-2552.222222222222,400L-2525.5555555555557,400L-2498.8888888888887,400L-2472.222222222222,400L-2445.5555555555557,400L-2418.888888888889,400L-2392.222222222222,400L-2365.5555555555557,400L-2338.888888888889,400L-2312.222222222222,400L-2285.5555555555557,400L-2258.8888888888887,400L-2232.222222222222,400L-2205.5555555555557,400L-2178.8888888888887,400L-2152.222222222222,400L-2125.5555555555557,400L-2098.8888888888887,400L-2072.222222222222,400L-2045.5555555555557,400L-2018.888888888889,400L-1992.2222222222222,400L-1965.5555555555554,400L-1938.888888888889,400L-1912.2222222222224,400L-1885.5555555555554,400L-1858.888888888889,400L-1832.2222222222222,400L-1805.5555555555557,400L-1778.8888888888887,400L-1752.2222222222222,400L-1725.5555555555557,400L-1698.8888888888887,400L-1672.2222222222222,400L-1645.5555555555557,400L-1618.888888888889,400L-1592.2222222222222,400L-1565.5555555555554,400L-1538.888888888889,400L-1512.2222222222222,400L-1485.5555555555557,400L-1458.888888888889,400L-1432.2222222222222,400L-1405.5555555555554,400L-1378.888888888889,400L-1352.2222222222222,400L-1325.5555555555557,400L-1298.888888888889,400L-1272.2222222222222,400L-1245.5555555555557,400L-1218.888888888889,400L-1192.2222222222222,400L-1165.5555555555554,400L-1138.888888888889,400L-1112.2222222222222,400L-1085.5555555555557,400L-1058.888888888889,400L-1032.2222222222222,400L-1005.5555555555555,400L-978.8888888888889,400L-952.2222222222222,400L-925.5555555555557,400L-898.8888888888889,400L-872.2222222222222,400L-845.5555555555555,400L-818.8888888888888,400L-792.2222222222223,400L-765.5555555555555,400L-738.8888888888889,400L-712.2222222222222,400L-685.5555555555555,400L-658.8888888888889,400L-632.2222222222222,400L-605.5555555555555,400L-578.8888888888889,400L-552.2222222222222,400L-525.5555555555555,400L-498.8888888888889,400L-472.22222222222223,400L-445.55555555555554,400L-418.8888888888889,400L-392.22222222222223,400L-365.55555555555554,400L-338.88888888888886,400L-312.22222222222223,400L-285.55555555555554,400L-258.8888888888889,400L-232.22222222222223,400L-205.55555555555554,400L-178.88888888888889,400L-152.22222222222223,400L-125.55555555555556,400L-98.88888888888889,400L-72.22222222222221,400L-45.55555555555556,400L-18.88888888888889,400L7.777777777777778,400L34.44444444444444,400L61.111111111111114,400L87.77777777777777,400L114.44444444444444,400L141.11111111111111,400L167.77777777777777,400L194.44444444444443,400L221.11111111111111,400L247.77777777777777,400L274.44444444444446,400L301.1111111111111,400L327.77777777777777,400L354.44444444444446,400L381.1111111111111,400L407.77777777777777,400" stroke="#e45756" stroke-width="2" opacity="0.7"></path></g></g><path class="foreground" aria-hidden="true" d="" display="none"></path></g><g transform="translate(0,0)"><path class="background" aria-hidden="true" d="M0,0h400v400h-400Z"></path><g><g class="mark-line role-mark concat_1_marks" clip-path="url(#clip8)" role="graphics-object" aria-roledescription="line mark container"><path aria-label="Type: Deaths; Date: Mar 01; Country: Sweden; Confirmed: 14; Recovered: 0; Deaths: 0; Count: 0" role="graphics-symbol" aria-roledescription="line mark" d="M-2817.777777777778,400L-2791.1111111111113,400L-2764.4444444444443,400L-2737.777777777778,400L-2711.111111111111,400L-2684.4444444444443,400L-2657.777777777778,400L-2631.111111111111,400L-2605.5555555555557,400L-2578.8888888888887,400L-2552.222222222222,399.9942857142857L-2525.5555555555557,399.9942857142857L-2498.8888888888887,399.9942857142857L-2472.222222222222,399.98857142857145L-2445.5555555555557,399.98285714285714L-2418.888888888889,399.9657142857143L-2392.222222222222,399.96L-2365.5555555555557,399.9428571428572L-2338.888888888889,399.9371428571429L-2312.222222222222,399.9085714285714L-2285.5555555555557,399.88571428571424L-2258.8888888888887,399.88L-2232.222222222222,399.8571428571429L-2205.5555555555557,399.7942857142857L-2178.8888888888887,399.6457142857143L-2152.222222222222,399.56L-2125.5555555555557,399.40000000000003L-2098.8888888888887,399.40000000000003L-2072.222222222222,399.37142857142857L-2045.5555555555557,399.16571428571433L-2018.888888888889,398.9714285714286L-1992.2222222222222,398.63428571428574L-1965.5555555555554,398.24L-1938.888888888889,397.95428571428573L-1912.2222222222224,397.86857142857144L-1885.5555555555554,397.7085714285714L-1858.888888888889,397.2742857142857L-1832.2222222222222,396.62285714285713L-1805.5555555555557,396.07428571428574L-1778.8888888888887,395.4685714285714L-1752.2222222222222,395.0285714285714L-1725.5555555555557,394.93142857142857L-1698.8888888888887,394.86285714285714L-1672.2222222222222,394.74857142857144L-1645.5555555555557,394.09714285714284L-1618.888888888889,393.1257142857143L-1592.2222222222222,392.3828571428571L-1565.5555555555554,392L-1538.888888888889,391.36571428571426L-1512.2222222222222,391.2L-1485.5555555555557,390.9714285714286L-1458.888888888889,389.9142857142857L-1432.2222222222222,388.93142857142857L-1405.5555555555554,388.4514285714286L-1378.888888888889,387.7028571428571L-1352.2222222222222,387.4742857142857L-1325.5555555555557,387.46285714285716L-1298.888888888889,387.0057142857143L-1272.2222222222222,386.54285714285714L-1245.5555555555557,385.93142857142857L-1218.888888888889,385.22285714285715L-1192.2222222222222,384.84L-1165.5555555555554,384.74857142857144L-1138.888888888889,384.69142857142856L-1112.2222222222222,384.1771428571429L-1085.5555555555557,383.69142857142856L-1058.888888888889,383.19428571428574L-1032.2222222222222,382.62857142857143L-1005.5555555555555,381.85714285714283L-978.8888888888889,381.59999999999997L-952.2222222222222,381.57142857142856L-925.5555555555557,381.39428571428573L-898.8888888888889,381.06857142857143L-872.2222222222222,380.22857142857146L-845.5555555555555,379.8342857142857L-818.8888888888888,379.1657142857143L-792.2222222222223,379.0057142857143L-765.5555555555555,378.97714285714284L-738.8888888888889,378.86857142857144L-712.2222222222222,378.6114285714286L-685.5555555555555,378.1085714285714L-658.8888888888889,377.88L-632.2222222222222,377.57142857142856L-605.5555555555555,377.18857142857144L-578.8888888888889,377.1542857142857L-552.2222222222222,376.97714285714284L-525.5555555555555,376.42857142857144L-498.8888888888889,375.8857142857143L-472.22222222222223,375.62285714285713L-445.55555555555554,375.1428571428571L-418.8888888888889,374.88571428571424L-392.22222222222223,374.88571428571424L-365.55555555555554,374.84000000000003L-338.88888888888886,374.4685714285714L-312.22222222222223,374.04571428571427L-285.55555555555554,373.93142857142857L-258.8888888888889,373.49142857142857L-232.22222222222223,373.39428571428573L-205.55555555555554,373.37714285714287L-178.88888888888889,373.1771428571429L-152.22222222222223,373.04571428571427L-125.55555555555556,372.6L-98.88888888888889,372.49142857142857L-72.22222222222221,372.2628571428571L-45.55555555555556,372.1485714285715L-18.88888888888889,372.1485714285715L7.777777777777778,372.0514285714286L34.44444444444444,371.77714285714285L61.111111111111114,371.19428571428574L87.77777777777777,371.12571428571425L114.44444444444444,370.8285714285714L141.11111111111111,370.80571428571426L167.77777777777777,370.7942857142857L194.44444444444443,370.7314285714286L221.11111111111111,370.50857142857143L247.77777777777777,370.2342857142857L274.44444444444446,370.1142857142857L301.1111111111111,369.8285714285714L327.77777777777777,369.8285714285714L354.44444444444446,369.8285714285714L381.1111111111111,369.65714285714284L407.77777777777777,369.5257142857143" stroke="#f58518" stroke-width="2" opacity="0.7"></path></g></g><path class="foreground" aria-hidden="true" d="" display="none"></path></g><g transform="translate(0,0)"><path class="background" aria-hidden="true" d="M0,0h400v400h-400Z"></path><g><g class="mark-line role-mark concat_1_marks" clip-path="url(#clip9)" role="graphics-object" aria-roledescription="line mark container"><path aria-label="Type: Confirmed; Date: Mar 01; Country: Sweden; Confirmed: 14; Recovered: 0; Deaths: 0; Count: 14" role="graphics-symbol" aria-roledescription="line mark" d="M-2817.777777777778,399.92L-2791.1111111111113,399.9142857142857L-2764.4444444444443,399.88L-2737.777777777778,399.8L-2711.111111111111,399.46285714285716L-2684.4444444444443,399.42285714285714L-2657.777777777778,399.08000000000004L-2631.111111111111,398.84L-2605.5555555555557,398.5828571428571L-2578.8888888888887,397.97142857142853L-2552.222222222222,397.14285714285717L-2525.5555555555557,396.57714285714286L-2498.8888888888887,395.3485714285714L-2472.222222222222,394.50857142857143L-2445.5555555555557,394.16L-2418.888888888889,393.69714285714286L-2392.222222222222,393.2L-2365.5555555555557,392.69142857142856L-2338.888888888889,391.77714285714285L-2312.222222222222,390.63428571428574L-2285.5555555555557,389.9257142857143L-2258.8888888888887,388.9485714285714L-2232.222222222222,388.30857142857144L-2205.5555555555557,386.9371428571429L-2178.8888888888887,385.5657142857143L-2152.222222222222,383.77142857142854L-2125.5555555555557,382.4628571428571L-2098.8888888888887,380.30285714285714L-2072.222222222222,378.8571428571429L-2045.5555555555557,376.98285714285714L-2018.888888888889,374.65714285714284L-1992.2222222222222,371.7314285714286L-1965.5555555555554,368.18285714285713L-1938.888888888889,364.9657142857143L-1912.2222222222224,363.1828571428572L-1885.5555555555554,360.9714285714286L-1858.888888888889,358.8228571428572L-1832.2222222222222,356.04L-1805.5555555555557,351.89142857142855L-1778.8888888888887,347.7657142857143L-1752.2222222222222,344.65714285714284L-1725.5555555555557,341.9942857142857L-1698.8888888888887,340.09714285714284L-1672.2222222222222,337.44L-1645.5555555555557,334.6L-1618.888888888889,331.8457142857143L-1592.2222222222222,328.34285714285716L-1565.5555555555554,324.48L-1538.888888888889,321.01714285714286L-1512.2222222222222,317.8L-1485.5555555555557,315.55999999999995L-1458.888888888889,312.44571428571425L-1432.2222222222222,308.54857142857145L-1405.5555555555554,304.25714285714287L-1378.888888888889,299.6171428571428L-1352.2222222222222,296.13142857142856L-1325.5555555555557,293.4857142857143L-1298.888888888889,291.8514285714286L-1272.2222222222222,287.88L-1245.5555555555557,283.98857142857145L-1218.888888888889,279.47428571428577L-1192.2222222222222,277.02857142857147L-1165.5555555555554,273.81714285714287L-1138.888888888889,272.4742857142857L-1112.2222222222222,270.1657142857143L-1085.5555555555557,267.33714285714285L-1058.888888888889,263.3257142857143L-1032.2222222222222,259.29714285714283L-1005.5555555555555,255.6285714285714L-978.8888888888889,251.87999999999997L-952.2222222222222,249.58857142857144L-925.5555555555557,247.6L-898.8888888888889,244.16000000000003L-872.2222222222222,240.51999999999998L-845.5555555555555,236.6742857142857L-818.8888888888888,233.10285714285715L-792.2222222222223,230.41714285714284L-765.5555555555555,227.75428571428571L-738.8888888888889,226.41714285714284L-712.2222222222222,224.00571428571428L-685.5555555555555,219.86857142857144L-658.8888888888889,216.16L-632.2222222222222,212.52L-605.5555555555555,210.3542857142857L-578.8888888888889,208.80571428571432L-552.2222222222222,206.61142857142858L-525.5555555555555,203.2L-498.8888888888889,199.49714285714288L-472.22222222222223,195.84571428571428L-445.55555555555554,191.5657142857143L-418.8888888888889,187.9257142857143L-392.22222222222223,185.4742857142857L-365.55555555555554,183.92L-338.88888888888886,179.4914285714286L-312.22222222222223,166.84L-285.55555555555554,160.66857142857143L-258.8888888888889,154.63428571428574L-232.22222222222223,149.21714285714285L-205.55555555555554,144.4L-178.88888888888889,142.09714285714287L-152.22222222222223,137.57714285714283L-125.55555555555556,132.49142857142857L-98.88888888888889,124.06857142857142L-72.22222222222221,116.09142857142855L-45.55555555555556,108.96571428571428L-18.88888888888889,105.06285714285713L7.777777777777778,100.66857142857143L34.44444444444444,95.29714285714283L61.111111111111114,88.21714285714286L87.77777777777777,79.75428571428571L114.44444444444444,68.13714285714285L141.11111111111111,65.19428571428571L167.77777777777777,63.7257142857143L194.44444444444443,63.24571428571431L221.11111111111111,52.36000000000001L247.77777777777777,43.86285714285716L274.44444444444446,34.91428571428572L301.1111111111111,27.78857142857141L327.77777777777777,27.78857142857141L354.44444444444446,27.78857142857141L381.1111111111111,13.33142857142855L407.77777777777777,8.851428571428555" stroke="#4c78a8" stroke-width="2" opacity="0.7"></path></g></g><path class="foreground" aria-hidden="true" d="" display="none"></path></g></g><g class="mark-group role-title"><g transform="translate(200,-54)"><path class="background" aria-hidden="true" d="M0,0h0v0h0Z" pointer-events="none"></path><g><g class="mark-text role-title-text" role="graphics-symbol" aria-roledescription="title" aria-label="Title text 'Total [2020-06-30]'" pointer-events="none"><text text-anchor="middle" transform="translate(0,10)" font-family="Roboto Condensed" font-size="13px" font-weight="normal" fill="#000" opacity="1"><tspan>Total</tspan><tspan x="0" dy="15">[2020-06-30]</tspan></text></g></g><path class="foreground" aria-hidden="true" d="" pointer-events="none" display="none"></path></g></g></g><path class="foreground" aria-hidden="true" d="" display="none"></path></g></g><g class="mark-group role-legend" role="graphics-symbol" aria-roledescription="legend" aria-label="Symbol legend for stroke color with 3 values: Confirmed, Deaths, Recovered"><g transform="translate(883,0)"><path class="background" aria-hidden="true" d="M0,0h58v37h-58Z" pointer-events="none"></path><g><g class="mark-group role-legend-entry"><g transform="translate(0,0)"><path class="background" aria-hidden="true" d="M0,0h0v0h0Z" pointer-events="none"></path><g><g class="mark-group role-scope" role="graphics-object" aria-roledescription="group mark container"><g transform="translate(0,0)"><path class="background" aria-hidden="true" d="M0,0h58v11h-58Z" pointer-events="none" opacity="1"></path><g><g class="mark-symbol role-legend-symbol" pointer-events="none"><path transform="translate(6,6)" d="M-5,0L5,0" stroke="#4c78a8" stroke-width="1.5" opacity="0.2"></path></g><g class="mark-text role-legend-label" pointer-events="none"><text text-anchor="start" transform="translate(16,9)" font-family="Roboto Condensed" font-size="10px" fill="#000" opacity="1">Confirmed</text></g></g><path class="foreground" aria-hidden="true" d="" pointer-events="none" display="none"></path></g><g transform="translate(0,13)"><path class="background" aria-hidden="true" d="M0,0h58v11h-58Z" pointer-events="none" opacity="1"></path><g><g class="mark-symbol role-legend-symbol" pointer-events="none"><path transform="translate(6,6)" d="M-5,0L5,0" stroke="#f58518" stroke-width="1.5" opacity="0.2"></path></g><g class="mark-text role-legend-label" pointer-events="none"><text text-anchor="start" transform="translate(16,9)" font-family="Roboto Condensed" font-size="10px" fill="#000" opacity="1">Deaths</text></g></g><path class="foreground" aria-hidden="true" d="" pointer-events="none" display="none"></path></g><g transform="translate(0,26)"><path class="background" aria-hidden="true" d="M0,0h58v11h-58Z" pointer-events="none" opacity="1"></path><g><g class="mark-symbol role-legend-symbol" pointer-events="none"><path transform="translate(6,6)" d="M-5,0L5,0" stroke="#e45756" stroke-width="1.5" opacity="0.2"></path></g><g class="mark-text role-legend-label" pointer-events="none"><text text-anchor="start" transform="translate(16,9)" font-family="Roboto Condensed" font-size="10px" fill="#000" opacity="1">Recovered</text></g></g><path class="foreground" aria-hidden="true" d="" pointer-events="none" display="none"></path></g></g></g><path class="foreground" aria-hidden="true" d="" pointer-events="none" display="none"></path></g></g></g><path class="foreground" aria-hidden="true" d="" pointer-events="none" display="none"></path></g></g></g><path class="foreground" aria-hidden="true" d="" display="none"></path></g></g></g></svg>