<svg class="marks" width="996" height="491" viewBox="0 0 996 491" version="1.1" xmlns="http://www.w3.org/2000/svg" xmlns:xlink="http://www.w3.org/1999/xlink"><defs><clipPath id="clip1"><rect x="0" y="0" width="400" height="400"></rect></clipPath><clipPath id="clip2"><rect x="0" y="0" width="400" height="400"></rect></clipPath><clipPath id="clip3"><rect x="0" y="0" width="400" height="400"></rect></clipPath><clipPath id="clip4"><rect x="0" y="0" width="400" height="400"></rect></clipPath><clipPath id="clip5"><rect x="0" y="0" width="400" height="400"></rect></clipPath><clipPath id="clip6"><rect x="0" y="0" width="400" height="400"></rect></clipPath><clipPath id="clip7"><rect x="0" y="0" width="400" height="400"></rect></clipPath><clipPath id="clip8"><rect x="0" y="0" width="400" height="400"></rect></clipPath><clipPath id="clip9"><rect x="0" y="0" width="400" height="400"></rect></clipPath></defs><rect width="996" height="491" fill="white"></rect><g fill="none" stroke-miterlimit="10" transform="translate(50,59)"><g class="mark-group role-frame root" role="graphics-object" aria-roledescription="group mark container"><g transform="translate(0,0)"><path class="background" aria-hidden="true" d="M0,0h0v400h0Z"></path><g><g class="mark-group role-scope concat_0_group" role="graphics-object" aria-roledescription="group mark container"><g transform="translate(0,0)"><path class="background" aria-hidden="true" d="M0,0h400v400h-400Z" stroke="#ddd" stroke-width="0"></path><g><g class="mark-group role-axis" aria-hidden="true"><g transform="translate(0.5,0.5)"><path class="background" aria-hidden="true" d="M0,0h0v0h0Z" pointer-events="none"></path><g><g class="mark-rule role-axis-grid" pointer-events="none"><line transform="translate(0,400)" x2="400" y2="0" stroke="#ddd" stroke-width="1" opacity="1"></line><line transform="translate(0,369)" x2="400" y2="0" stroke="#ddd" stroke-width="1" opacity="1"></line><line transform="translate(0,338)" x2="400" y2="0" stroke="#ddd" stroke-width="1" opacity="1"></line><line transform="translate(0,308)" x2="400" y2="0" stroke="#ddd" stroke-width="1" opacity="1"></line><line transform="translate(0,277)" x2="400" y2="0" stroke="#ddd" stroke-width="1" opacity="1"></line><line transform="translate(0,246)" x2="400" y2="0" stroke="#ddd" stroke-width="1" opacity="1"></line><line transform="translate(0,215)" x2="400" y2="0" stroke="#ddd" stroke-width="1" opacity="1"></line><line transform="translate(0,185)" x2="400" y2="0" stroke="#ddd" stroke-width="1" opacity="1"></line><line transform="translate(0,154)" x2="400" y2="0" stroke="#ddd" stroke-width="1" opacity="1"></line><line transform="translate(0,123)" x2="400" y2="0" stroke="#ddd" stroke-width="1" opacity="1"></line><line transform="translate(0,92)" x2="400" y2="0" stroke="#ddd" stroke-width="1" opacity="1"></line><line transform="translate(0,62)" x2="400" y2="0" stroke="#ddd" stroke-width="1" opacity="1"></line><line transform="translate(0,31)" x2="400" y2="0" stroke="#ddd" stroke-width="1" opacity="1"></line><line transform="translate(0,0)" x2="400" y2="0" stroke="#ddd" stroke-width="1" opacity="1"></line></g></g><path class="foreground" aria-hidden="true" d="" pointer-events="none" display="none"></path></g></g><g class="mark-group role-axis" role="graphics-symbol" aria-roledescription="axis" aria-label="X-axis titled 'Date' for a time scale with values from June 20 to July 05"><g transform="translate(0.5,400.5)"><path class="background" aria-hidden="true" d="M0,0h0v0h0Z" pointer-events="none"></path><g><g class="mark-text role-axis-label" pointer-events="none"><text text-anchor="middle" transform="translate(7.777777777777778,10)" font-family="Roboto Condensed" font-size="10px" fill="#000" opacity="1">Jun 21</text><text text-anchor="middle" transform="translate(61.111111111111114,10)" font-family="Roboto Condensed" font-size="10px" fill="#000" opacity="1">Jun 23</text><text text-anchor="middle" transform="translate(114.44444444444444,10)" font-family="Roboto Condensed" font-size="10px" fill="#000" opacity="1">Jun 25</text><text text-anchor="middle" transform="translate(167.77777777777777,10)" font-family="Roboto Condensed" font-size="10px" fill="#000" opacity="1">Jun 27</text><text text-anchor="middle" transform="translate(221.11111111111111,10)" font-family="Roboto Condensed" font-size="10px" fill="#000" opacity="1">Jun 29</text><text text-anchor="middle" transform="translate(274.44444444444446,10)" font-family="Roboto Condensed" font-size="10px" fill="#000" opacity="1">Jul 01</text><text text-anchor="middle" transform="translate(327.77777777777777,10)" font-family="Roboto Condensed" font-size="10px" fill="#000" opacity="1">Jul 03</text><text text-anchor="middle" transform="translate(381.1111111111111,10)" font-family="Roboto Condensed" font-size="10px" fill="#000" opacity="1">Jul 05</text></g><g class="mark-rule role-axis-domain" pointer-events="none"><line transform="translate(0,0)" x2="400" y2="0" stroke="lightgray" stroke-width="1" opacity="1"></line></g><g class="mark-text role-axis-title" pointer-events="none"><text text-anchor="middle" transform="translate(200,25)" font-family="Roboto Condensed" font-size="11px" font-weight="normal" fill="#000" opacity="1">Date</text></g></g><path class="foreground" aria-hidden="true" d="" pointer-events="none" display="none"></path></g></g><g class="mark-group role-axis" role="graphics-symbol" aria-roledescription="axis" aria-label="Y-axis titled 'Count' for a linear scale with values from 0 to 2,600"><g transform="translate(0.5,0.5)"><path class="background" aria-hidden="true" d="M0,0h0v0h0Z" pointer-events="none"></path><g><g class="mark-text role-axis-label" pointer-events="none"><text text-anchor="end" transform="translate(-2,403)" font-family="Roboto Condensed" font-size="10px" fill="#000" opacity="1">0</text><text text-anchor="end" transform="translate(-2,372.2307692307692)" font-family="Roboto Condensed" font-size="10px" fill="#000" opacity="1">200</text><text text-anchor="end" transform="translate(-2,341.46153846153845)" font-family="Roboto Condensed" font-size="10px" fill="#000" opacity="1">400</text><text text-anchor="end" transform="translate(-2,310.6923076923077)" font-family="Roboto Condensed" font-size="10px" fill="#000" opacity="1">600</text><text text-anchor="end" transform="translate(-2,279.9230769230769)" font-family="Roboto Condensed" font-size="10px" fill="#000" opacity="1">800</text><text text-anchor="end" transform="translate(-2,249.15384615384616)" font-family="Roboto Condensed" font-size="10px" fill="#000" opacity="1">1,000</text><text text-anchor="end" transform="translate(-2,218.3846153846154)" font-family="Roboto Condensed" font-size="10px" fill="#000" opacity="1">1,200</text><text text-anchor="end" transform="translate(-2,187.6153846153846)" font-family="Roboto Condensed" font-size="10px" fill="#000" opacity="1">1,400</text><text text-anchor="end" transform="translate(-2,156.84615384615384)" font-family="Roboto Condensed" font-size="10px" fill="#000" opacity="1">1,600</text><text text-anchor="end" transform="translate(-2,126.07692307692308)" font-family="Roboto Condensed" font-size="10px" fill="#000" opacity="1">1,800</text><text text-anchor="end" transform="translate(-2,95.30769230769229)" font-family="Roboto Condensed" font-size="10px" fill="#000" opacity="1">2,000</text><text text-anchor="end" transform="translate(-2,64.53846153846155)" font-family="Roboto Condensed" font-size="10px" fill="#000" opacity="1">2,200</text><text text-anchor="end" transform="translate(-2,33.769230769230745)" font-family="Roboto Condensed" font-size="10px" fill="#000" opacity="1">2,400</text><text text-anchor="end" transform="translate(-2,3)" font-family="Roboto Condensed" font-size="10px" fill="#000" opacity="1">2,600</text></g><g class="mark-rule role-axis-domain" pointer-events="none"><line transform="translate(0,400)" x2="0" y2="-400" stroke="lightgray" stroke-width="1" opacity="1"></line></g><g class="mark-text role-axis-title" pointer-events="none"><text text-anchor="start" transform="translate(-45,-13)" font-family="Roboto Condensed" font-size="11px" font-weight="normal" fill="#000" opacity="1">Count</text></g></g><path class="foreground" aria-hidden="true" d="" pointer-events="none" display="none"></path></g></g><g class="mark-group role-scope concat_0_layer_0_pathgroup" role="graphics-object" aria-roledescription="group mark container"><g transform="translate(0,0)"><path class="background" aria-hidden="true" d="M0,0h400v400h-400Z"></path><g><g class="mark-line role-mark concat_0_layer_0_marks" clip-path="url(#clip1)" role="graphics-object" aria-roledescription="line mark container"><path aria-label="Type: Recovered; Date: Mar 01; Count: 0" role="graphics-symbol" aria-roledescription="line mark" d="M-2977.777777777778,400L-2951.1111111111113,400L-2924.4444444444443,400L-2897.777777777778,400L-2871.1111111111113,400L-2844.4444444444443,400L-2817.777777777778,400L-2791.1111111111113,400L-2765.5555555555557,400L-2738.888888888889,400L-2712.222222222222,400L-2685.5555555555557,400L-2658.8888888888887,400L-2632.222222222222,400L-2605.5555555555557,400L-2578.8888888888887,400L-2552.222222222222,400L-2525.5555555555557,400L-2498.8888888888887,400L-2472.222222222222,400L-2445.5555555555557,400L-2418.888888888889,400L-2392.222222222222,400L-2365.5555555555557,400L-2338.888888888889,400L-2312.222222222222,400L-2285.5555555555557,400L-2258.8888888888887,400L-2232.222222222222,400L-2205.5555555555557,400L-2178.8888888888887,400L-2152.222222222222,400L-2125.5555555555557,400L-2098.8888888888887,400L-2072.222222222222,400L-2045.5555555555557,400L-2018.888888888889,400L-1992.2222222222222,400L-1965.5555555555554,400L-1938.888888888889,400L-1912.2222222222224,400L-1885.5555555555554,400L-1858.888888888889,400L-1832.2222222222222,400L-1805.5555555555557,400L-1778.8888888888887,400L-1752.2222222222222,400L-1725.5555555555557,400L-1698.8888888888887,400L-1672.2222222222222,400L-1645.5555555555557,400L-1618.888888888889,400L-1592.2222222222222,400L-1565.5555555555554,400L-1538.888888888889,400L-1512.2222222222222,400L-1485.5555555555557,400L-1458.888888888889,400L-1432.2222222222222,400L-1405.5555555555554,400L-1378.888888888889,400L-1352.2222222222222,400L-1325.5555555555557,400L-1298.888888888889,400L-1272.2222222222222,400L-1245.5555555555557,400L-1218.888888888889,400L-1192.2222222222222,400L-1165.5555555555554,400L-1138.888888888889,400L-1112.2222222222222,400L-1085.5555555555557,400L-1058.888888888889,400L-1032.2222222222222,400L-1005.5555555555555,400L-978.8888888888889,400L-952.2222222222222,400L-925.5555555555557,400L-898.8888888888889,400L-872.2222222222222,400L-845.5555555555555,400L-818.8888888888888,400L-792.2222222222223,400L-765.5555555555555,400L-738.8888888888889,400L-712.2222222222222,400L-685.5555555555555,400L-658.8888888888889,400L-632.2222222222222,400L-605.5555555555555,400L-578.8888888888889,400L-552.2222222222222,400L-525.5555555555555,400L-498.8888888888889,400L-472.22222222222223,400L-445.55555555555554,400L-418.8888888888889,400L-392.22222222222223,400L-365.55555555555554,400L-338.88888888888886,400L-312.22222222222223,400L-285.55555555555554,400L-258.8888888888889,400L-232.22222222222223,400L-205.55555555555554,400L-178.88888888888889,400L-152.22222222222223,400L-125.55555555555556,400L-98.88888888888889,400L-72.22222222222221,400L-45.55555555555556,400L-18.88888888888889,400L7.777777777777778,400L34.44444444444444,400L61.111111111111114,400L87.77777777777777,400L114.44444444444444,400L141.11111111111111,400L167.77777777777777,400L194.44444444444443,400L221.11111111111111,400L247.77777777777777,400L274.44444444444446,400L301.1111111111111,400L327.77777777777777,400L354.44444444444446,400L381.1111111111111,400L407.77777777777777,400" stroke="#e45756" stroke-width="2" opacity="0.2"></path></g></g><path class="foreground" aria-hidden="true" d="" display="none"></path></g><g transform="translate(0,0)"><path class="background" aria-hidden="true" d="M0,0h400v400h-400Z"></path><g><g class="mark-line role-mark concat_0_layer_0_marks" clip-path="url(#clip2)" role="graphics-object" aria-roledescription="line mark container"><path aria-label="Type: Deaths; Date: Mar 01; Count: 0" role="graphics-symbol" aria-roledescription="line mark" d="M-2977.777777777778,400L-2951.1111111111113,400L-2924.4444444444443,400L-2897.777777777778,400L-2871.1111111111113,400L-2844.4444444444443,400L-2817.777777777778,400L-2791.1111111111113,400L-2765.5555555555557,400L-2738.888888888889,400L-2712.222222222222,399.8461538461538L-2685.5555555555557,400L-2658.8888888888887,400L-2632.222222222222,399.8461538461538L-2605.5555555555557,399.8461538461538L-2578.8888888888887,399.53846153846155L-2552.222222222222,399.8461538461538L-2525.5555555555557,399.53846153846155L-2498.8888888888887,399.8461538461538L-2472.222222222222,399.2307692307692L-2445.5555555555557,399.3846153846154L-2418.888888888889,399.8461538461538L-2392.222222222222,399.3846153846154L-2365.5555555555557,398.3076923076923L-2338.888888888889,396L-2312.222222222222,397.6923076923077L-2285.5555555555557,395.6923076923077L-2258.8888888888887,400L-2232.222222222222,399.2307692307692L-2205.5555555555557,394.46153846153845L-2178.8888888888887,394.7692307692308L-2152.222222222222,390.9230769230769L-2125.5555555555557,389.3846153846154L-2098.8888888888887,392.30769230769226L-2072.222222222222,397.6923076923077L-2045.5555555555557,395.6923076923077L-2018.888888888889,388.30769230769226L-1992.2222222222222,382.46153846153845L-1965.5555555555554,385.2307692307692L-1938.888888888889,383.6923076923077L-1912.2222222222224,388.1538461538462L-1885.5555555555554,397.3846153846154L-1858.888888888889,398.1538461538462L-1832.2222222222222,396.9230769230769L-1805.5555555555557,382.46153846153845L-1778.8888888888887,373.84615384615387L-1752.2222222222222,380L-1725.5555555555557,389.6923076923077L-1698.8888888888887,382.9230769230769L-1672.2222222222222,395.53846153846155L-1645.5555555555557,393.84615384615387L-1618.888888888889,371.53846153846155L-1592.2222222222222,373.53846153846155L-1565.5555555555554,387.0769230769231L-1538.888888888889,379.84615384615387L-1512.2222222222222,393.84615384615387L-1485.5555555555557,399.6923076923077L-1458.888888888889,387.6923076923077L-1432.2222222222222,387.53846153846155L-1405.5555555555554,383.53846153846155L-1378.888888888889,380.9230769230769L-1352.2222222222222,389.6923076923077L-1325.5555555555557,397.53846153846155L-1298.888888888889,398.46153846153845L-1272.2222222222222,386.15384615384613L-1245.5555555555557,386.9230769230769L-1218.888888888889,386.61538461538464L-1192.2222222222222,384.7692307692308L-1165.5555555555554,379.2307692307692L-1138.888888888889,393.07692307692304L-1112.2222222222222,399.2307692307692L-1085.5555555555557,395.2307692307692L-1058.888888888889,391.2307692307692L-1032.2222222222222,377.38461538461536L-1005.5555555555555,389.3846153846154L-978.8888888888889,382L-952.2222222222222,395.6923076923077L-925.5555555555557,399.2307692307692L-898.8888888888889,397.07692307692304L-872.2222222222222,393.07692307692304L-845.5555555555555,386.46153846153845L-818.8888888888888,393.84615384615387L-792.2222222222223,391.6923076923077L-765.5555555555555,389.6923076923077L-738.8888888888889,399.07692307692304L-712.2222222222222,395.2307692307692L-685.5555555555555,385.2307692307692L-658.8888888888889,385.3846153846154L-632.2222222222222,392.9230769230769L-605.5555555555555,387.0769230769231L-578.8888888888889,393.07692307692304L-552.2222222222222,400L-525.5555555555555,398.7692307692308L-498.8888888888889,390L-472.22222222222223,388.61538461538464L-445.55555555555554,396.9230769230769L-418.8888888888889,388.1538461538462L-392.22222222222223,397.3846153846154L-365.55555555555554,399.53846153846155L-338.88888888888886,394.61538461538464L-312.22222222222223,396.46153846153845L-285.55555555555554,388L-258.8888888888889,397.07692307692304L-232.22222222222223,393.84615384615387L-205.55555555555554,396.9230769230769L-178.88888888888889,400L-152.22222222222223,397.3846153846154L-125.55555555555556,392.61538461538464L-98.88888888888889,384.3076923076923L-72.22222222222221,398.1538461538462L-45.55555555555556,392L-18.88888888888889,399.3846153846154L7.777777777777778,399.6923076923077L34.44444444444444,398.3076923076923L61.111111111111114,394L87.77777777777777,392.61538461538464L114.44444444444444,396.7692307692308L141.11111111111111,392.30769230769226L167.77777777777777,400L194.44444444444443,400L221.11111111111111,395.3846153846154L247.77777777777777,396.46153846153845L274.44444444444446,394.30769230769226L301.1111111111111,393.6923076923077L327.77777777777777,398.6153846153846L354.44444444444446,400L381.1111111111111,400L407.77777777777777,398" stroke="#f58518" stroke-width="2" opacity="0.2"></path></g></g><path class="foreground" aria-hidden="true" d="" display="none"></path></g><g transform="translate(0,0)"><path class="background" aria-hidden="true" d="M0,0h400v400h-400Z"></path><g><g class="mark-line role-mark concat_0_layer_0_marks" clip-path="url(#clip3)" role="graphics-object" aria-roledescription="line mark container"><path aria-label="Type: Confirmed; Date: Mar 01; Count: 2" role="graphics-symbol" aria-roledescription="line mark" d="M-2977.777777777778,399.6923076923077L-2951.1111111111113,399.8461538461538L-2924.4444444444443,399.07692307692304L-2897.777777777778,397.8461538461538L-2871.1111111111113,390.9230769230769L-2844.4444444444443,398.92307692307696L-2817.777777777778,390.7692307692308L-2791.1111111111113,393.53846153846155L-2765.5555555555557,393.07692307692304L-2738.888888888889,383.53846153846155L-2712.222222222222,377.6923076923077L-2685.5555555555557,384.7692307692308L-2658.8888888888887,366.9230769230769L-2632.222222222222,377.38461538461536L-2605.5555555555557,390.61538461538464L-2578.8888888888887,387.53846153846155L-2552.222222222222,386.61538461538464L-2525.5555555555557,386.30769230769226L-2498.8888888888887,375.38461538461536L-2472.222222222222,369.2307692307692L-2445.5555555555557,380.9230769230769L-2418.888888888889,373.6923076923077L-2392.222222222222,382.7692307692308L-2365.5555555555557,363.0769230769231L-2338.888888888889,363.0769230769231L-2312.222222222222,351.6923076923077L-2285.5555555555557,364.7692307692308L-2258.8888888888887,341.8461538461538L-2232.222222222222,361.0769230769231L-2205.5555555555557,349.53846153846155L-2178.8888888888887,337.3846153846154L-2152.222222222222,321.2307692307692L-2125.5555555555557,304.46153846153845L-2098.8888888888887,313.38461538461536L-2072.222222222222,352L-2045.5555555555557,340.46153846153845L-2018.888888888889,342.1538461538462L-1992.2222222222222,325.0769230769231L-1965.5555555555554,288.3076923076923L-1938.888888888889,288.9230769230769L-1912.2222222222224,316.3076923076923L-1885.5555555555554,328.3076923076923L-1858.888888888889,348.92307692307696L-1832.2222222222222,328.46153846153845L-1805.5555555555557,323.53846153846155L-1778.8888888888887,325.84615384615387L-1752.2222222222222,305.69230769230774L-1725.5555555555557,296L-1698.8888888888887,306.7692307692308L-1672.2222222222222,313.38461538461536L-1645.5555555555557,339.6923076923077L-1618.888888888889,316.15384615384613L-1592.2222222222222,295.07692307692304L-1565.5555555555554,284.46153846153845L-1538.888888888889,275.0769230769231L-1512.2222222222222,306.15384615384613L-1485.5555555555557,328.7692307692308L-1458.888888888889,356L-1432.2222222222222,293.0769230769231L-1405.5555555555554,295.2307692307692L-1378.888888888889,278.46153846153845L-1352.2222222222222,334.15384615384613L-1325.5555555555557,313.53846153846155L-1298.888888888889,363.84615384615387L-1272.2222222222222,337.84615384615387L-1245.5555555555557,323.84615384615387L-1218.888888888889,292L-1192.2222222222222,291.53846153846155L-1165.5555555555554,301.2307692307692L-1138.888888888889,299.07692307692304L-1112.2222222222222,338.3076923076923L-1085.5555555555557,346.46153846153845L-1058.888888888889,307.3846153846154L-1032.2222222222222,302L-1005.5555555555555,296.46153846153845L-978.8888888888889,303.8461538461538L-952.2222222222222,327.6923076923077L-925.5555555555557,328.3076923076923L-898.8888888888889,364L-872.2222222222222,335.0769230769231L-845.5555555555555,288.6153846153846L-818.8888888888888,300.1538461538462L-792.2222222222223,302L-765.5555555555555,341.6923076923077L-738.8888888888889,358.3076923076923L-712.2222222222222,340.9230769230769L-685.5555555555555,308.1538461538462L-658.8888888888889,300.3076923076923L-632.2222222222222,301.6923076923077L-605.5555555555555,284.7692307692308L-578.8888888888889,302L-552.2222222222222,334L-525.5555555555555,358.1538461538462L-498.8888888888889,280.7692307692308L-472.22222222222223,59.38461538461537L-445.55555555555554,233.8461538461538L-418.8888888888889,237.53846153846158L-392.22222222222223,254.1538461538462L-365.55555555555554,270.3076923076923L-338.88888888888886,338L-312.22222222222223,278.30769230769226L-285.55555555555554,263.0769230769231L-258.8888888888889,173.2307692307692L-232.22222222222223,185.23076923076923L-205.55555555555554,208.1538461538462L-178.88888888888889,294.9230769230769L-152.22222222222223,281.6923076923077L-125.55555555555556,255.38461538461536L-98.88888888888889,209.38461538461536L-72.22222222222221,172.15384615384613L-45.55555555555556,87.23076923076923L-18.88888888888889,320.7692307692308L7.777777777777778,360.46153846153845L34.44444444444444,387.0769230769231L61.111111111111114,106.92307692307695L87.77777777777777,171.2307692307692L114.44444444444444,159.07692307692307L141.11111111111111,208.1538461538462L167.77777777777777,400L194.44444444444443,400L221.11111111111111,10.769230769230775L247.77777777777777,279.38461538461536L274.44444444444446,209.07692307692307L301.1111111111111,254.3076923076923L327.77777777777777,280L354.44444444444446,400L381.1111111111111,400L407.77777777777777,147.38461538461542" stroke="#4c78a8" stroke-width="2" opacity="0.2"></path></g></g><path class="foreground" aria-hidden="true" d="" display="none"></path></g></g><g class="mark-group role-scope concat_0_layer_1_pathgroup" role="graphics-object" aria-roledescription="group mark container"><g transform="translate(0,0)"><path class="background" aria-hidden="true" d="M0,0h400v400h-400Z"></path><g><g class="mark-line role-mark concat_0_layer_1_marks" clip-path="url(#clip4)" role="graphics-object" aria-roledescription="line mark container"><path aria-label="Type: Recovered; Date: Mar 01; Count: 0" role="graphics-symbol" aria-roledescription="line mark" d="M-2817.777777777778,400L-2791.1111111111113,400L-2765.5555555555557,400L-2738.888888888889,400L-2712.222222222222,400L-2685.5555555555557,400L-2658.8888888888887,400L-2632.222222222222,400L-2605.5555555555557,400L-2578.8888888888887,400L-2552.222222222222,400L-2525.5555555555557,400L-2498.8888888888887,400L-2472.222222222222,400L-2445.5555555555557,400L-2418.888888888889,400L-2392.222222222222,400L-2365.5555555555557,400L-2338.888888888889,400L-2312.222222222222,400L-2285.5555555555557,400L-2258.8888888888887,400L-2232.222222222222,400L-2205.5555555555557,400L-2178.8888888888887,400L-2152.222222222222,400L-2125.5555555555557,400L-2098.8888888888887,400L-2072.222222222222,400L-2045.5555555555557,400L-2018.888888888889,400L-1992.2222222222222,400L-1965.5555555555554,400L-1938.888888888889,400L-1912.2222222222224,400L-1885.5555555555554,400L-1858.888888888889,400L-1832.2222222222222,400L-1805.5555555555557,400L-1778.8888888888887,400L-1752.2222222222222,400L-1725.5555555555557,400L-1698.8888888888887,400L-1672.2222222222222,400L-1645.5555555555557,400L-1618.888888888889,400L-1592.2222222222222,400L-1565.5555555555554,400L-1538.888888888889,400L-1512.2222222222222,400L-1485.5555555555557,400L-1458.888888888889,400L-1432.2222222222222,400L-1405.5555555555554,400L-1378.888888888889,400L-1352.2222222222222,400L-1325.5555555555557,400L-1298.888888888889,400L-1272.2222222222222,400L-1245.5555555555557,400L-1218.888888888889,400L-1192.2222222222222,400L-1165.5555555555554,400L-1138.888888888889,400L-1112.2222222222222,400L-1085.5555555555557,400L-1058.888888888889,400L-1032.2222222222222,400L-1005.5555555555555,400L-978.8888888888889,400L-952.2222222222222,400L-925.5555555555557,400L-898.8888888888889,400L-872.2222222222222,400L-845.5555555555555,400L-818.8888888888888,400L-792.2222222222223,400L-765.5555555555555,400L-738.8888888888889,400L-712.2222222222222,400L-685.5555555555555,400L-658.8888888888889,400L-632.2222222222222,400L-605.5555555555555,400L-578.8888888888889,400L-552.2222222222222,400L-525.5555555555555,400L-498.8888888888889,400L-472.22222222222223,400L-445.55555555555554,400L-418.8888888888889,400L-392.22222222222223,400L-365.55555555555554,400L-338.88888888888886,400L-312.22222222222223,400L-285.55555555555554,400L-258.8888888888889,400L-232.22222222222223,400L-205.55555555555554,400L-178.88888888888889,400L-152.22222222222223,400L-125.55555555555556,400L-98.88888888888889,400L-72.22222222222221,400L-45.55555555555556,400L-18.88888888888889,400L7.777777777777778,400L34.44444444444444,400L61.111111111111114,400L87.77777777777777,400L114.44444444444444,400L141.11111111111111,400L167.77777777777777,400L194.44444444444443,400L221.11111111111111,400L247.77777777777777,400L274.44444444444446,400L301.1111111111111,400L327.77777777777777,400L354.44444444444446,400L381.1111111111111,400L407.77777777777777,400" stroke="#e45756" stroke-width="2" opacity="1"></path></g></g><path class="foreground" aria-hidden="true" d="" display="none"></path></g><g transform="translate(0,0)"><path class="background" aria-hidden="true" d="M0,0h400v400h-400Z"></path><g><g class="mark-line role-mark concat_0_layer_1_marks" clip-path="url(#clip5)" role="graphics-object" aria-roledescription="line mark container"><path aria-label="Type: Deaths; Date: Mar 01; Count: 0" role="graphics-symbol" aria-roledescription="line mark" d="M-2817.777777777778,400L-2791.1111111111113,400L-2765.5555555555557,400L-2738.888888888889,400L-2712.222222222222,399.97802197802196L-2685.5555555555557,399.97802197802196L-2658.8888888888887,399.97802197802196L-2632.222222222222,399.9560439560439L-2605.5555555555557,399.9340659340659L-2578.8888888888887,399.86813186813185L-2552.222222222222,399.8461538461538L-2525.5555555555557,399.80219780219784L-2498.8888888888887,399.7802197802198L-2472.222222222222,399.6703296703297L-2445.5555555555557,399.6043956043956L-2418.888888888889,399.6043956043956L-2392.222222222222,399.5824175824176L-2365.5555555555557,399.3626373626374L-2338.888888888889,398.85714285714283L-2312.222222222222,398.54945054945057L-2285.5555555555557,398.0439560439561L-2258.8888888888887,398.13186813186815L-2232.222222222222,398.0439560439561L-2205.5555555555557,397.34065934065933L-2178.8888888888887,396.83516483516485L-2152.222222222222,396.1098901098901L-2125.5555555555557,394.9230769230769L-2098.8888888888887,394.4395604395604L-2072.222222222222,394.1098901098901L-2045.5555555555557,393.6043956043956L-2018.888888888889,392.72527472527474L-1992.2222222222222,390.96703296703294L-1965.5555555555554,390.1538461538462L-1938.888888888889,389.34065934065933L-1912.2222222222224,388.7472527472528L-1885.5555555555554,388.7032967032967L-1858.888888888889,389.05494505494505L-1832.2222222222222,390.2857142857143L-1805.5555555555557,390.2857142857143L-1778.8888888888887,388.65934065934067L-1752.2222222222222,388.13186813186815L-1725.5555555555557,388.35164835164835L-1698.8888888888887,386.2857142857143L-1672.2222222222222,385.9120879120879L-1645.5555555555557,385.4725274725275L-1618.888888888889,383.9120879120879L-1592.2222222222222,383.8681318681319L-1565.5555555555554,384.8791208791209L-1538.888888888889,383.4725274725275L-1512.2222222222222,385.032967032967L-1485.5555555555557,385.62637362637366L-1458.888888888889,384.7472527472528L-1432.2222222222222,387.032967032967L-1405.5555555555554,388.46153846153845L-1378.888888888889,387.5824175824176L-1352.2222222222222,388.989010989011L-1325.5555555555557,389.51648351648356L-1298.888888888889,389.34065934065933L-1272.2222222222222,389.1208791208791L-1245.5555555555557,389.032967032967L-1218.888888888889,389.4725274725275L-1192.2222222222222,390.02197802197804L-1165.5555555555554,388.5274725274725L-1138.888888888889,387.8901098901099L-1112.2222222222222,388L-1085.5555555555557,389.2967032967033L-1058.888888888889,389.91208791208794L-1032.2222222222222,388.5934065934066L-1005.5555555555555,389.25274725274727L-978.8888888888889,389.64835164835165L-952.2222222222222,390.02197802197804L-925.5555555555557,390.02197802197804L-898.8888888888889,390.2857142857143L-872.2222222222222,390.5494505494505L-845.5555555555555,391.84615384615387L-818.8888888888888,392.4835164835165L-792.2222222222223,393.86813186813185L-765.5555555555555,393.010989010989L-738.8888888888889,392.989010989011L-712.2222222222222,392.72527472527474L-685.5555555555555,391.6043956043956L-658.8888888888889,391.45054945054943L-632.2222222222222,391.3186813186813L-605.5555555555555,390.65934065934067L-578.8888888888889,391.14285714285717L-552.2222222222222,391.2747252747253L-525.5555555555555,391.7802197802198L-498.8888888888889,392.46153846153845L-472.22222222222223,392.9230769230769L-445.55555555555554,393.4945054945055L-418.8888888888889,393.64835164835165L-392.22222222222223,394.2637362637363L-365.55555555555554,394.19780219780216L-338.88888888888886,393.6043956043956L-312.22222222222223,394.5274725274725L-285.55555555555554,394.4395604395604L-258.8888888888889,394.46153846153845L-232.22222222222223,395.2747252747253L-205.55555555555554,395.2087912087912L-178.88888888888889,395.2747252747253L-152.22222222222223,395.6703296703297L-125.55555555555556,395.1208791208791L-98.88888888888889,394.5934065934066L-72.22222222222221,394.74725274725273L-45.55555555555556,394.4835164835165L-18.88888888888889,394.83516483516485L7.777777777777778,394.7912087912088L34.44444444444444,394.9230769230769L61.111111111111114,395.1208791208791L87.77777777777777,396.3076923076923L114.44444444444444,396.1098901098901L141.11111111111111,396.1538461538462L167.77777777777777,396.24175824175825L194.44444444444443,396.2857142857143L221.11111111111111,395.86813186813185L247.77777777777777,396.2197802197802L274.44444444444446,396.46153846153845L301.1111111111111,396.02197802197804L327.77777777777777,396.9230769230769L354.44444444444446,396.9230769230769L381.1111111111111,396.9230769230769L407.77777777777777,397.2967032967033" stroke="#f58518" stroke-width="2" opacity="1"></path></g></g><path class="foreground" aria-hidden="true" d="" display="none"></path></g><g transform="translate(0,0)"><path class="background" aria-hidden="true" d="M0,0h400v400h-400Z"></path><g><g class="mark-line role-mark concat_0_layer_1_marks" clip-path="url(#clip6)" role="graphics-object" aria-roledescription="line mark container"><path aria-label="Type: Confirmed; Date: Mar 01; Count: 0" role="graphics-symbol" aria-roledescription="line mark" d="M-2817.777777777778,396.72527472527474L-2791.1111111111113,395.8461538461538L-2765.5555555555557,394.8791208791209L-2738.888888888889,392.65934065934067L-2712.222222222222,389.7802197802198L-2685.5555555555557,388.9010989010989L-2658.8888888888887,384.3296703296703L-2632.222222222222,382.4175824175824L-2605.5555555555557,382L-2578.8888888888887,381.2087912087912L-2552.222222222222,381.64835164835165L-2525.5555555555557,382.8791208791209L-2498.8888888888887,381.5384615384615L-2472.222222222222,381.8681318681319L-2445.5555555555557,382.3736263736264L-2418.888888888889,379.95604395604397L-2392.222222222222,379.27472527472526L-2365.5555555555557,375.9120879120879L-2338.888888888889,372.5934065934066L-2312.222222222222,369.20879120879124L-2285.5555555555557,368.5714285714286L-2258.8888888888887,362.989010989011L-2232.222222222222,361.1868131868132L-2205.5555555555557,356.43956043956047L-2178.8888888888887,352.7692307692308L-2152.222222222222,346.7912087912088L-2125.5555555555557,340.04395604395603L-2098.8888888888887,332.7032967032967L-2072.222222222222,334.15384615384613L-2045.5555555555557,331.2087912087912L-2018.888888888889,330.15384615384613L-1992.2222222222222,328.3956043956044L-1965.5555555555554,323.6923076923077L-1938.888888888889,321.4725274725275L-1912.2222222222224,321.89010989010984L-1885.5555555555554,318.5054945054945L-1858.888888888889,319.7142857142857L-1832.2222222222222,317.75824175824175L-1805.5555555555557,317.53846153846155L-1778.8888888888887,322.90109890109886L-1752.2222222222222,325.2967032967033L-1725.5555555555557,322.3956043956044L-1698.8888888888887,319.31868131868134L-1672.2222222222222,314.24175824175825L-1645.5555555555557,315.84615384615387L-1618.888888888889,314.7912087912088L-1592.2222222222222,310.3956043956044L-1565.5555555555554,307.3626373626374L-1538.888888888889,304.3736263736264L-1512.2222222222222,304.2857142857143L-1485.5555555555557,306.48351648351644L-1458.888888888889,308.81318681318686L-1432.2222222222222,305.5164835164835L-1405.5555555555554,305.53846153846155L-1378.888888888889,304.6813186813187L-1352.2222222222222,313.1208791208791L-1325.5555555555557,314.1758241758242L-1298.888888888889,319.1868131868132L-1272.2222222222222,316.5934065934066L-1245.5555555555557,320.989010989011L-1218.888888888889,320.5274725274725L-1192.2222222222222,322.3956043956044L-1165.5555555555554,317.69230769230774L-1138.888888888889,315.6263736263736L-1112.2222222222222,311.97802197802196L-1085.5555555555557,313.20879120879124L-1058.888888888889,310.85714285714283L-1032.2222222222222,312.2857142857143L-1005.5555555555555,312.989010989011L-978.8888888888889,313.3626373626374L-952.2222222222222,317.4505494505495L-925.5555555555557,316.021978021978L-898.8888888888889,318.5274725274725L-872.2222222222222,322.4835164835165L-845.5555555555555,320.57142857142856L-818.8888888888888,321.09890109890114L-792.2222222222223,320.83516483516485L-765.5555555555555,322.83516483516485L-738.8888888888889,327.1208791208791L-712.2222222222222,323.8241758241758L-685.5555555555555,319.978021978022L-658.8888888888889,321.64835164835165L-632.2222222222222,321.86813186813185L-605.5555555555555,319.4065934065934L-578.8888888888889,313.7362637362637L-552.2222222222222,310.26373626373623L-525.5555555555555,312.72527472527474L-498.8888888888889,308.81318681318686L-472.22222222222223,274.3956043956044L-445.55555555555554,264.7032967032967L-418.8888888888889,257.95604395604397L-392.22222222222223,251.12087912087912L-365.55555555555554,242.02197802197801L-338.88888888888886,239.14285714285714L-312.22222222222223,238.7912087912088L-285.55555555555554,267.8901098901099L-258.8888888888889,259.23076923076917L-232.22222222222223,251.75824175824175L-205.55555555555554,245.18681318681317L-178.88888888888889,248.70329670329667L-152.22222222222223,240.65934065934064L-125.55555555555556,237.3846153846154L-98.88888888888889,229.71428571428572L-72.22222222222221,229.56043956043953L-45.55555555555556,215.5604395604396L-18.88888888888889,231.64835164835168L7.777777777777778,241.01098901098902L34.44444444444444,256.0659340659341L61.111111111111114,234.8571428571429L87.77777777777777,229.40659340659337L114.44444444444444,227.53846153846152L141.11111111111111,244.81318681318683L167.77777777777777,256.13186813186815L194.44444444444443,261.7802197802198L221.11111111111111,208.021978021978L247.77777777777777,232.65934065934064L274.44444444444446,238.06593406593404L301.1111111111111,251.67032967032966L327.77777777777777,261.934065934066L354.44444444444446,261.934065934066L381.1111111111111,261.934065934066L407.77777777777777,281.4505494505495" stroke="#4c78a8" stroke-width="2" opacity="1"></path></g></g><path class="foreground" aria-hidden="true" d="" display="none"></path></g></g><g class="mark-group role-title"><g transform="translate(200,-54)"><path class="background" aria-hidden="true" d="M0,0h0v0h0Z" pointer-events="none"></path><g><g class="mark-text role-title-text" role="graphics-symbol" aria-roledescription="title" aria-label="Title text '7-day average (light color: daily values) [2020-07-06]'" pointer-events="none"><text text-anchor="middle" transform="translate(0,10)" font-family="Roboto Condensed" font-size="13px" font-weight="normal" fill="#000" opacity="1"><tspan>7-day average (light color: daily values)</tspan><tspan x="0" dy="15">[2020-07-06]</tspan></text></g></g><path class="foreground" aria-hidden="true" d="" pointer-events="none" display="none"></path></g></g></g><path class="foreground" aria-hidden="true" d="" display="none"></path></g></g><g class="mark-group role-scope concat_1_group" role="graphics-object" aria-roledescription="group mark container"><g transform="translate(465,0)"><path class="background" aria-hidden="true" d="M0,0h400v400h-400Z" stroke="#ddd" stroke-width="0"></path><g><g class="mark-group role-axis" aria-hidden="true"><g transform="translate(0.5,0.5)"><path class="background" aria-hidden="true" d="M0,0h0v0h0Z" pointer-events="none"></path><g><g class="mark-rule role-axis-grid" pointer-events="none"><line transform="translate(0,400)" x2="400" y2="0" stroke="#ddd" stroke-width="1" opacity="1"></line><line transform="translate(0,350)" x2="400" y2="0" stroke="#ddd" stroke-width="1" opacity="1"></line><line transform="translate(0,300)" x2="400" y2="0" stroke="#ddd" stroke-width="1" opacity="1"></line><line transform="translate(0,250)" x2="400" y2="0" stroke="#ddd" stroke-width="1" opacity="1"></line><line transform="translate(0,200)" x2="400" y2="0" stroke="#ddd" stroke-width="1" opacity="1"></line><line transform="translate(0,150)" x2="400" y2="0" stroke="#ddd" stroke-width="1" opacity="1"></line><line transform="translate(0,100)" x2="400" y2="0" stroke="#ddd" stroke-width="1" opacity="1"></line><line transform="translate(0,50)" x2="400" y2="0" stroke="#ddd" stroke-width="1" opacity="1"></line><line transform="translate(0,0)" x2="400" y2="0" stroke="#ddd" stroke-width="1" opacity="1"></line></g></g><path class="foreground" aria-hidden="true" d="" pointer-events="none" display="none"></path></g></g><g class="mark-group role-axis" role="graphics-symbol" aria-roledescription="axis" aria-label="X-axis titled 'Date' for a time scale with values from June 20 to July 05"><g transform="translate(0.5,400.5)"><path class="background" aria-hidden="true" d="M0,0h0v0h0Z" pointer-events="none"></path><g><g class="mark-text role-axis-label" pointer-events="none"><text text-anchor="middle" transform="translate(7.777777777777778,10)" font-family="Roboto Condensed" font-size="10px" fill="#000" opacity="1">Jun 21</text><text text-anchor="middle" transform="translate(61.111111111111114,10)" font-family="Roboto Condensed" font-size="10px" fill="#000" opacity="1">Jun 23</text><text text-anchor="middle" transform="translate(114.44444444444444,10)" font-family="Roboto Condensed" font-size="10px" fill="#000" opacity="1">Jun 25</text><text text-anchor="middle" transform="translate(167.77777777777777,10)" font-family="Roboto Condensed" font-size="10px" fill="#000" opacity="1">Jun 27</text><text text-anchor="middle" transform="translate(221.11111111111111,10)" font-family="Roboto Condensed" font-size="10px" fill="#000" opacity="1">Jun 29</text><text text-anchor="middle" transform="translate(274.44444444444446,10)" font-family="Roboto Condensed" font-size="10px" fill="#000" opacity="1">Jul 01</text><text text-anchor="middle" transform="translate(327.77777777777777,10)" font-family="Roboto Condensed" font-size="10px" fill="#000" opacity="1">Jul 03</text><text text-anchor="middle" transform="translate(381.1111111111111,10)" font-family="Roboto Condensed" font-size="10px" fill="#000" opacity="1">Jul 05</text></g><g class="mark-rule role-axis-domain" pointer-events="none"><line transform="translate(0,0)" x2="400" y2="0" stroke="lightgray" stroke-width="1" opacity="1"></line></g><g class="mark-text role-axis-title" pointer-events="none"><text text-anchor="middle" transform="translate(200,25)" font-family="Roboto Condensed" font-size="11px" font-weight="normal" fill="#000" opacity="1">Date</text></g></g><path class="foreground" aria-hidden="true" d="" pointer-events="none" display="none"></path></g></g><g class="mark-group role-axis" role="graphics-symbol" aria-roledescription="axis" aria-label="Y-axis titled 'Count' for a linear scale with values from 0 to 80,000"><g transform="translate(0.5,0.5)"><path class="background" aria-hidden="true" d="M0,0h0v0h0Z" pointer-events="none"></path><g><g class="mark-text role-axis-label" pointer-events="none"><text text-anchor="end" transform="translate(-2,403)" font-family="Roboto Condensed" font-size="10px" fill="#000" opacity="1">0</text><text text-anchor="end" transform="translate(-2,353)" font-family="Roboto Condensed" font-size="10px" fill="#000" opacity="1">10,000</text><text text-anchor="end" transform="translate(-2,303)" font-family="Roboto Condensed" font-size="10px" fill="#000" opacity="1">20,000</text><text text-anchor="end" transform="translate(-2,253)" font-family="Roboto Condensed" font-size="10px" fill="#000" opacity="1">30,000</text><text text-anchor="end" transform="translate(-2,203)" font-family="Roboto Condensed" font-size="10px" fill="#000" opacity="1">40,000</text><text text-anchor="end" transform="translate(-2,153)" font-family="Roboto Condensed" font-size="10px" fill="#000" opacity="1">50,000</text><text text-anchor="end" transform="translate(-2,103)" font-family="Roboto Condensed" font-size="10px" fill="#000" opacity="1">60,000</text><text text-anchor="end" transform="translate(-2,53)" font-family="Roboto Condensed" font-size="10px" fill="#000" opacity="1">70,000</text><text text-anchor="end" transform="translate(-2,3)" font-family="Roboto Condensed" font-size="10px" fill="#000" opacity="1">80,000</text></g><g class="mark-rule role-axis-domain" pointer-events="none"><line transform="translate(0,400)" x2="0" y2="-400" stroke="lightgray" stroke-width="1" opacity="1"></line></g><g class="mark-text role-axis-title" pointer-events="none"><text text-anchor="start" transform="translate(-45,-13)" font-family="Roboto Condensed" font-size="11px" font-weight="normal" fill="#000" opacity="1">Count</text></g></g><path class="foreground" aria-hidden="true" d="" pointer-events="none" display="none"></path></g></g><g class="mark-group role-scope concat_1_pathgroup" role="graphics-object" aria-roledescription="group mark container"><g transform="translate(0,0)"><path class="background" aria-hidden="true" d="M0,0h400v400h-400Z"></path><g><g class="mark-line role-mark concat_1_marks" clip-path="url(#clip7)" role="graphics-object" aria-roledescription="line mark container"><path aria-label="Type: Recovered; Date: Mar 01; Country: Sweden; Confirmed: 14; Recovered: 0; Deaths: 0; Count: 0" role="graphics-symbol" aria-roledescription="line mark" d="M-2977.777777777778,400L-2951.1111111111113,400L-2924.4444444444443,400L-2897.777777777778,400L-2871.1111111111113,400L-2844.4444444444443,400L-2817.777777777778,400L-2791.1111111111113,400L-2765.5555555555557,400L-2738.888888888889,400L-2712.222222222222,400L-2685.5555555555557,400L-2658.8888888888887,400L-2632.222222222222,400L-2605.5555555555557,400L-2578.8888888888887,400L-2552.222222222222,400L-2525.5555555555557,400L-2498.8888888888887,400L-2472.222222222222,400L-2445.5555555555557,400L-2418.888888888889,400L-2392.222222222222,400L-2365.5555555555557,400L-2338.888888888889,400L-2312.222222222222,400L-2285.5555555555557,400L-2258.8888888888887,400L-2232.222222222222,400L-2205.5555555555557,400L-2178.8888888888887,400L-2152.222222222222,400L-2125.5555555555557,400L-2098.8888888888887,400L-2072.222222222222,400L-2045.5555555555557,400L-2018.888888888889,400L-1992.2222222222222,400L-1965.5555555555554,400L-1938.888888888889,400L-1912.2222222222224,400L-1885.5555555555554,400L-1858.888888888889,400L-1832.2222222222222,400L-1805.5555555555557,400L-1778.8888888888887,400L-1752.2222222222222,400L-1725.5555555555557,400L-1698.8888888888887,400L-1672.2222222222222,400L-1645.5555555555557,400L-1618.888888888889,400L-1592.2222222222222,400L-1565.5555555555554,400L-1538.888888888889,400L-1512.2222222222222,400L-1485.5555555555557,400L-1458.888888888889,400L-1432.2222222222222,400L-1405.5555555555554,400L-1378.888888888889,400L-1352.2222222222222,400L-1325.5555555555557,400L-1298.888888888889,400L-1272.2222222222222,400L-1245.5555555555557,400L-1218.888888888889,400L-1192.2222222222222,400L-1165.5555555555554,400L-1138.888888888889,400L-1112.2222222222222,400L-1085.5555555555557,400L-1058.888888888889,400L-1032.2222222222222,400L-1005.5555555555555,400L-978.8888888888889,400L-952.2222222222222,400L-925.5555555555557,400L-898.8888888888889,400L-872.2222222222222,400L-845.5555555555555,400L-818.8888888888888,400L-792.2222222222223,400L-765.5555555555555,400L-738.8888888888889,400L-712.2222222222222,400L-685.5555555555555,400L-658.8888888888889,400L-632.2222222222222,400L-605.5555555555555,400L-578.8888888888889,400L-552.2222222222222,400L-525.5555555555555,400L-498.8888888888889,400L-472.22222222222223,400L-445.55555555555554,400L-418.8888888888889,400L-392.22222222222223,400L-365.55555555555554,400L-338.88888888888886,400L-312.22222222222223,400L-285.55555555555554,400L-258.8888888888889,400L-232.22222222222223,400L-205.55555555555554,400L-178.88888888888889,400L-152.22222222222223,400L-125.55555555555556,400L-98.88888888888889,400L-72.22222222222221,400L-45.55555555555556,400L-18.88888888888889,400L7.777777777777778,400L34.44444444444444,400L61.111111111111114,400L87.77777777777777,400L114.44444444444444,400L141.11111111111111,400L167.77777777777777,400L194.44444444444443,400L221.11111111111111,400L247.77777777777777,400L274.44444444444446,400L301.1111111111111,400L327.77777777777777,400L354.44444444444446,400L381.1111111111111,400L407.77777777777777,400" stroke="#e45756" stroke-width="2" opacity="0.7"></path></g></g><path class="foreground" aria-hidden="true" d="" display="none"></path></g><g transform="translate(0,0)"><path class="background" aria-hidden="true" d="M0,0h400v400h-400Z"></path><g><g class="mark-line role-mark concat_1_marks" clip-path="url(#clip8)" role="graphics-object" aria-roledescription="line mark container"><path aria-label="Type: Deaths; Date: Mar 01; Country: Sweden; Confirmed: 14; Recovered: 0; Deaths: 0; Count: 0" role="graphics-symbol" aria-roledescription="line mark" d="M-2977.777777777778,400L-2951.1111111111113,400L-2924.4444444444443,400L-2897.777777777778,400L-2871.1111111111113,400L-2844.4444444444443,400L-2817.777777777778,400L-2791.1111111111113,400L-2765.5555555555557,400L-2738.888888888889,400L-2712.222222222222,399.995L-2685.5555555555557,399.995L-2658.8888888888887,399.995L-2632.222222222222,399.98999999999995L-2605.5555555555557,399.985L-2578.8888888888887,399.96999999999997L-2552.222222222222,399.965L-2525.5555555555557,399.95L-2498.8888888888887,399.945L-2472.222222222222,399.92L-2445.5555555555557,399.90000000000003L-2418.888888888889,399.895L-2392.222222222222,399.875L-2365.5555555555557,399.82L-2338.888888888889,399.69L-2312.222222222222,399.615L-2285.5555555555557,399.47499999999997L-2258.8888888888887,399.47499999999997L-2232.222222222222,399.45L-2205.5555555555557,399.27000000000004L-2178.8888888888887,399.1L-2152.222222222222,398.805L-2125.5555555555557,398.46L-2098.8888888888887,398.21L-2072.222222222222,398.135L-2045.5555555555557,397.995L-2018.888888888889,397.615L-1992.2222222222222,397.045L-1965.5555555555554,396.565L-1938.888888888889,396.035L-1912.2222222222224,395.65000000000003L-1885.5555555555554,395.565L-1858.888888888889,395.505L-1832.2222222222222,395.40500000000003L-1805.5555555555557,394.835L-1778.8888888888887,393.985L-1752.2222222222222,393.335L-1725.5555555555557,393L-1698.8888888888887,392.44500000000005L-1672.2222222222222,392.3L-1645.5555555555557,392.09999999999997L-1618.888888888889,391.175L-1592.2222222222222,390.315L-1565.5555555555554,389.89500000000004L-1538.888888888889,389.24L-1512.2222222222222,389.04L-1485.5555555555557,389.03L-1458.888888888889,388.63L-1432.2222222222222,388.225L-1405.5555555555554,387.69L-1378.888888888889,387.07L-1352.2222222222222,386.735L-1325.5555555555557,386.65500000000003L-1298.888888888889,386.605L-1272.2222222222222,386.155L-1245.5555555555557,385.73L-1218.888888888889,385.29499999999996L-1192.2222222222222,384.8L-1165.5555555555554,384.125L-1138.888888888889,383.9L-1112.2222222222222,383.875L-1085.5555555555557,383.72L-1058.888888888889,383.435L-1032.2222222222222,382.7L-1005.5555555555555,382.355L-978.8888888888889,381.77L-952.2222222222222,381.63L-925.5555555555557,381.605L-898.8888888888889,381.51L-872.2222222222222,381.285L-845.5555555555555,380.845L-818.8888888888888,380.645L-792.2222222222223,380.375L-765.5555555555555,380.03999999999996L-738.8888888888889,380.01L-712.2222222222222,379.855L-685.5555555555555,379.375L-658.8888888888889,378.90000000000003L-632.2222222222222,378.67L-605.5555555555555,378.25L-578.8888888888889,378.02500000000003L-552.2222222222222,378.02500000000003L-525.5555555555555,377.985L-498.8888888888889,377.66L-472.22222222222223,377.28999999999996L-445.55555555555554,377.19L-418.8888888888889,376.805L-392.22222222222223,376.71999999999997L-365.55555555555554,376.70500000000004L-338.88888888888886,376.53L-312.22222222222223,376.41499999999996L-285.55555555555554,376.02500000000003L-258.8888888888889,375.93L-232.22222222222223,375.72999999999996L-205.55555555555554,375.63L-178.88888888888889,375.63L-152.22222222222223,375.545L-125.55555555555556,375.305L-98.88888888888889,374.795L-72.22222222222221,374.735L-45.55555555555556,374.47499999999997L-18.88888888888889,374.455L7.777777777777778,374.445L34.44444444444444,374.39L61.111111111111114,374.195L87.77777777777777,373.955L114.44444444444444,373.85L141.11111111111111,373.59999999999997L167.77777777777777,373.59999999999997L194.44444444444443,373.59999999999997L221.11111111111111,373.45L247.77777777777777,373.33500000000004L274.44444444444446,373.15L301.1111111111111,372.945L327.77777777777777,372.90000000000003L354.44444444444446,372.90000000000003L381.1111111111111,372.90000000000003L407.77777777777777,372.835" stroke="#f58518" stroke-width="2" opacity="0.7"></path></g></g><path class="foreground" aria-hidden="true" d="" display="none"></path></g><g transform="translate(0,0)"><path class="background" aria-hidden="true" d="M0,0h400v400h-400Z"></path><g><g class="mark-line role-mark concat_1_marks" clip-path="url(#clip9)" role="graphics-object" aria-roledescription="line mark container"><path aria-label="Type: Confirmed; Date: Mar 01; Country: Sweden; Confirmed: 14; Recovered: 0; Deaths: 0; Count: 14" role="graphics-symbol" aria-roledescription="line mark" d="M-2977.777777777778,399.93L-2951.1111111111113,399.925L-2924.4444444444443,399.895L-2897.777777777778,399.825L-2871.1111111111113,399.53L-2844.4444444444443,399.495L-2817.777777777778,399.195L-2791.1111111111113,398.985L-2765.5555555555557,398.76L-2738.888888888889,398.225L-2712.222222222222,397.5L-2685.5555555555557,397.005L-2658.8888888888887,395.93L-2632.222222222222,395.195L-2605.5555555555557,394.89L-2578.8888888888887,394.485L-2552.222222222222,394.05L-2525.5555555555557,393.60499999999996L-2498.8888888888887,392.805L-2472.222222222222,391.805L-2445.5555555555557,391.185L-2418.888888888889,390.33000000000004L-2392.222222222222,389.77L-2365.5555555555557,388.57L-2338.888888888889,387.37L-2312.222222222222,385.8L-2285.5555555555557,384.65500000000003L-2258.8888888888887,382.76500000000004L-2232.222222222222,381.5L-2205.5555555555557,379.86L-2178.8888888888887,377.825L-2152.222222222222,375.265L-2125.5555555555557,372.16L-2098.8888888888887,369.34499999999997L-2072.222222222222,367.78499999999997L-2045.5555555555557,365.85L-2018.888888888889,363.96999999999997L-1992.2222222222222,361.53499999999997L-1965.5555555555554,357.90500000000003L-1938.888888888889,354.29499999999996L-1912.2222222222224,351.575L-1885.5555555555554,349.245L-1858.888888888889,347.585L-1832.2222222222222,345.26L-1805.5555555555557,342.77500000000003L-1778.8888888888887,340.365L-1752.2222222222222,337.3L-1725.5555555555557,333.92L-1698.8888888888887,330.89L-1672.2222222222222,328.07500000000005L-1645.5555555555557,326.11499999999995L-1618.888888888889,323.39000000000004L-1592.2222222222222,319.97999999999996L-1565.5555555555554,316.225L-1538.888888888889,312.16499999999996L-1512.2222222222222,309.115L-1485.5555555555557,306.8L-1458.888888888889,305.37L-1432.2222222222222,301.89500000000004L-1405.5555555555554,298.49L-1378.888888888889,294.54L-1352.2222222222222,292.4L-1325.5555555555557,289.59000000000003L-1298.888888888889,288.415L-1272.2222222222222,286.395L-1245.5555555555557,283.92L-1218.888888888889,280.41L-1192.2222222222222,276.885L-1165.5555555555554,273.67499999999995L-1138.888888888889,270.395L-1112.2222222222222,268.39L-1085.5555555555557,266.65000000000003L-1058.888888888889,263.64L-1032.2222222222222,260.455L-1005.5555555555555,257.09L-978.8888888888889,253.965L-952.2222222222222,251.615L-925.5555555555557,249.28499999999997L-898.8888888888889,248.115L-872.2222222222222,246.005L-845.5555555555555,242.385L-818.8888888888888,239.14L-792.2222222222223,235.955L-765.5555555555555,234.06000000000003L-738.8888888888889,232.70499999999998L-712.2222222222222,230.78500000000003L-685.5555555555555,227.8L-658.8888888888889,224.56L-632.2222222222222,221.36499999999998L-605.5555555555555,217.61999999999998L-578.8888888888889,214.43500000000003L-552.2222222222222,212.29L-525.5555555555555,210.93L-498.8888888888889,207.05499999999998L-472.22222222222223,195.98499999999999L-445.55555555555554,190.585L-418.8888888888889,185.305L-392.22222222222223,180.565L-365.55555555555554,176.35L-338.88888888888886,174.335L-312.22222222222223,170.38000000000002L-285.55555555555554,165.93L-258.8888888888889,158.56L-232.22222222222223,151.58L-205.55555555555554,145.34500000000003L-178.88888888888889,141.92999999999998L-152.22222222222223,138.085L-125.55555555555556,133.385L-98.88888888888889,127.19L-72.22222222222221,119.78499999999998L-45.55555555555556,109.62L-18.88888888888889,107.04500000000002L7.777777777777778,105.75999999999999L34.44444444444444,105.33999999999999L61.111111111111114,95.81499999999998L87.77777777777777,88.38L114.44444444444444,80.54999999999998L141.11111111111111,74.315L167.77777777777777,74.315L194.44444444444443,74.315L221.11111111111111,61.66499999999999L247.77777777777777,57.744999999999976L274.44444444444446,51.540000000000006L301.1111111111111,46.804999999999986L327.77777777777777,42.905000000000015L354.44444444444446,42.905000000000015L381.1111111111111,42.905000000000015L407.77777777777777,34.69500000000001" stroke="#4c78a8" stroke-width="2" opacity="0.7"></path></g></g><path class="foreground" aria-hidden="true" d="" display="none"></path></g></g><g class="mark-group role-title"><g transform="translate(200,-54)"><path class="background" aria-hidden="true" d="M0,0h0v0h0Z" pointer-events="none"></path><g><g class="mark-text role-title-text" role="graphics-symbol" aria-roledescription="title" aria-label="Title text 'Total [2020-07-06]'" pointer-events="none"><text text-anchor="middle" transform="translate(0,10)" font-family="Roboto Condensed" font-size="13px" font-weight="normal" fill="#000" opacity="1"><tspan>Total</tspan><tspan x="0" dy="15">[2020-07-06]</tspan></text></g></g><path class="foreground" aria-hidden="true" d="" pointer-events="none" display="none"></path></g></g></g><path class="foreground" aria-hidden="true" d="" display="none"></path></g></g><g class="mark-group role-legend" role="graphics-symbol" aria-roledescription="legend" aria-label="Symbol legend for stroke color with 3 values: Confirmed, Deaths, Recovered"><g transform="translate(883,0)"><path class="background" aria-hidden="true" d="M0,0h58v37h-58Z" pointer-events="none"></path><g><g class="mark-group role-legend-entry"><g transform="translate(0,0)"><path class="background" aria-hidden="true" d="M0,0h0v0h0Z" pointer-events="none"></path><g><g class="mark-group role-scope" role="graphics-object" aria-roledescription="group mark container"><g transform="translate(0,0)"><path class="background" aria-hidden="true" d="M0,0h58v11h-58Z" pointer-events="none" opacity="1"></path><g><g class="mark-symbol role-legend-symbol" pointer-events="none"><path transform="translate(6,6)" d="M-5,0L5,0" stroke="#4c78a8" stroke-width="1.5" opacity="0.2"></path></g><g class="mark-text role-legend-label" pointer-events="none"><text text-anchor="start" transform="translate(16,9)" font-family="Roboto Condensed" font-size="10px" fill="#000" opacity="1">Confirmed</text></g></g><path class="foreground" aria-hidden="true" d="" pointer-events="none" display="none"></path></g><g transform="translate(0,13)"><path class="background" aria-hidden="true" d="M0,0h58v11h-58Z" pointer-events="none" opacity="1"></path><g><g class="mark-symbol role-legend-symbol" pointer-events="none"><path transform="translate(6,6)" d="M-5,0L5,0" stroke="#f58518" stroke-width="1.5" opacity="0.2"></path></g><g class="mark-text role-legend-label" pointer-events="none"><text text-anchor="start" transform="translate(16,9)" font-family="Roboto Condensed" font-size="10px" fill="#000" opacity="1">Deaths</text></g></g><path class="foreground" aria-hidden="true" d="" pointer-events="none" display="none"></path></g><g transform="translate(0,26)"><path class="background" aria-hidden="true" d="M0,0h58v11h-58Z" pointer-events="none" opacity="1"></path><g><g class="mark-symbol role-legend-symbol" pointer-events="none"><path transform="translate(6,6)" d="M-5,0L5,0" stroke="#e45756" stroke-width="1.5" opacity="0.2"></path></g><g class="mark-text role-legend-label" pointer-events="none"><text text-anchor="start" transform="translate(16,9)" font-family="Roboto Condensed" font-size="10px" fill="#000" opacity="1">Recovered</text></g></g><path class="foreground" aria-hidden="true" d="" pointer-events="none" display="none"></path></g></g></g><path class="foreground" aria-hidden="true" d="" pointer-events="none" display="none"></path></g></g></g><path class="foreground" aria-hidden="true" d="" pointer-events="none" display="none"></path></g></g></g><path class="foreground" aria-hidden="true" d="" display="none"></path></g></g></g></svg>