<svg class="marks" width="996" height="491" viewBox="0 0 996 491" version="1.1" xmlns="http://www.w3.org/2000/svg" xmlns:xlink="http://www.w3.org/1999/xlink"><defs><clipPath id="clip1"><rect x="0" y="0" width="400" height="400"></rect></clipPath><clipPath id="clip2"><rect x="0" y="0" width="400" height="400"></rect></clipPath><clipPath id="clip3"><rect x="0" y="0" width="400" height="400"></rect></clipPath><clipPath id="clip4"><rect x="0" y="0" width="400" height="400"></rect></clipPath><clipPath id="clip5"><rect x="0" y="0" width="400" height="400"></rect></clipPath><clipPath id="clip6"><rect x="0" y="0" width="400" height="400"></rect></clipPath><clipPath id="clip7"><rect x="0" y="0" width="400" height="400"></rect></clipPath><clipPath id="clip8"><rect x="0" y="0" width="400" height="400"></rect></clipPath><clipPath id="clip9"><rect x="0" y="0" width="400" height="400"></rect></clipPath></defs><rect width="996" height="491" fill="white"></rect><g fill="none" stroke-miterlimit="10" transform="translate(50,59)"><g class="mark-group role-frame root" role="graphics-object" aria-roledescription="group mark container"><g transform="translate(0,0)"><path class="background" aria-hidden="true" d="M0,0h0v400h0Z"></path><g><g class="mark-group role-scope concat_0_group" role="graphics-object" aria-roledescription="group mark container"><g transform="translate(0,0)"><path class="background" aria-hidden="true" d="M0,0h400v400h-400Z" stroke="#ddd" stroke-width="0"></path><g><g class="mark-group role-axis" aria-hidden="true"><g transform="translate(0.5,0.5)"><path class="background" aria-hidden="true" d="M0,0h0v0h0Z" pointer-events="none"></path><g><g class="mark-rule role-axis-grid" pointer-events="none"><line transform="translate(0,400)" x2="400" y2="0" stroke="#ddd" stroke-width="1" opacity="1"></line><line transform="translate(0,350)" x2="400" y2="0" stroke="#ddd" stroke-width="1" opacity="1"></line><line transform="translate(0,300)" x2="400" y2="0" stroke="#ddd" stroke-width="1" opacity="1"></line><line transform="translate(0,250)" x2="400" y2="0" stroke="#ddd" stroke-width="1" opacity="1"></line><line transform="translate(0,200)" x2="400" y2="0" stroke="#ddd" stroke-width="1" opacity="1"></line><line transform="translate(0,150)" x2="400" y2="0" stroke="#ddd" stroke-width="1" opacity="1"></line><line transform="translate(0,100)" x2="400" y2="0" stroke="#ddd" stroke-width="1" opacity="1"></line><line transform="translate(0,50)" x2="400" y2="0" stroke="#ddd" stroke-width="1" opacity="1"></line><line transform="translate(0,0)" x2="400" y2="0" stroke="#ddd" stroke-width="1" opacity="1"></line></g></g><path class="foreground" aria-hidden="true" d="" pointer-events="none" display="none"></path></g></g><g class="mark-group role-axis" role="graphics-symbol" aria-roledescription="axis" aria-label="X-axis titled 'Date' for a time scale with values from October 07 to October 22"><g transform="translate(0.5,400.5)"><path class="background" aria-hidden="true" d="M0,0h0v0h0Z" pointer-events="none"></path><g><g class="mark-text role-axis-label" pointer-events="none"><text text-anchor="middle" transform="translate(34.44444444444444,10)" font-family="Roboto Condensed" font-size="10px" fill="#000" opacity="1">Oct 09</text><text text-anchor="middle" transform="translate(87.77777777777777,10)" font-family="Roboto Condensed" font-size="10px" fill="#000" opacity="1">Oct 11</text><text text-anchor="middle" transform="translate(141.11111111111111,10)" font-family="Roboto Condensed" font-size="10px" fill="#000" opacity="1">Oct 13</text><text text-anchor="middle" transform="translate(194.44444444444443,10)" font-family="Roboto Condensed" font-size="10px" fill="#000" opacity="1">Oct 15</text><text text-anchor="middle" transform="translate(247.77777777777777,10)" font-family="Roboto Condensed" font-size="10px" fill="#000" opacity="1">Oct 17</text><text text-anchor="middle" transform="translate(301.1111111111111,10)" font-family="Roboto Condensed" font-size="10px" fill="#000" opacity="1">Oct 19</text><text text-anchor="middle" transform="translate(354.44444444444446,10)" font-family="Roboto Condensed" font-size="10px" fill="#000" opacity="1">Oct 21</text></g><g class="mark-rule role-axis-domain" pointer-events="none"><line transform="translate(0,0)" x2="400" y2="0" stroke="lightgray" stroke-width="1" opacity="1"></line></g><g class="mark-text role-axis-title" pointer-events="none"><text text-anchor="middle" transform="translate(200,25)" font-family="Roboto Condensed" font-size="11px" font-weight="normal" fill="#000" opacity="1">Date</text></g></g><path class="foreground" aria-hidden="true" d="" pointer-events="none" display="none"></path></g></g><g class="mark-group role-axis" role="graphics-symbol" aria-roledescription="axis" aria-label="Y-axis titled 'Count' for a linear scale with values from -200 to 1,400"><g transform="translate(0.5,0.5)"><path class="background" aria-hidden="true" d="M0,0h0v0h0Z" pointer-events="none"></path><g><g class="mark-text role-axis-label" pointer-events="none"><text text-anchor="end" transform="translate(-2,403)" font-family="Roboto Condensed" font-size="10px" fill="#000" opacity="1">-200</text><text text-anchor="end" transform="translate(-2,353)" font-family="Roboto Condensed" font-size="10px" fill="#000" opacity="1">0</text><text text-anchor="end" transform="translate(-2,303)" font-family="Roboto Condensed" font-size="10px" fill="#000" opacity="1">200</text><text text-anchor="end" transform="translate(-2,253)" font-family="Roboto Condensed" font-size="10px" fill="#000" opacity="1">400</text><text text-anchor="end" transform="translate(-2,203)" font-family="Roboto Condensed" font-size="10px" fill="#000" opacity="1">600</text><text text-anchor="end" transform="translate(-2,153)" font-family="Roboto Condensed" font-size="10px" fill="#000" opacity="1">800</text><text text-anchor="end" transform="translate(-2,103)" font-family="Roboto Condensed" font-size="10px" fill="#000" opacity="1">1,000</text><text text-anchor="end" transform="translate(-2,53)" font-family="Roboto Condensed" font-size="10px" fill="#000" opacity="1">1,200</text><text text-anchor="end" transform="translate(-2,3)" font-family="Roboto Condensed" font-size="10px" fill="#000" opacity="1">1,400</text></g><g class="mark-rule role-axis-domain" pointer-events="none"><line transform="translate(0,400)" x2="0" y2="-400" stroke="lightgray" stroke-width="1" opacity="1"></line></g><g class="mark-text role-axis-title" pointer-events="none"><text text-anchor="start" transform="translate(-45,-13)" font-family="Roboto Condensed" font-size="11px" font-weight="normal" fill="#000" opacity="1">Count</text></g></g><path class="foreground" aria-hidden="true" d="" pointer-events="none" display="none"></path></g></g><g class="mark-group role-scope concat_0_layer_0_pathgroup" role="graphics-object" aria-roledescription="group mark container"><g transform="translate(0,0)"><path class="background" aria-hidden="true" d="M0,0h400v400h-400Z"></path><g><g class="mark-line role-mark concat_0_layer_0_marks" clip-path="url(#clip1)" role="graphics-object" aria-roledescription="line mark container"><path aria-label="Type: Recovered; Date: Mar 01; Count: 0" role="graphics-symbol" aria-roledescription="line mark" d="M-5884.444444444444,350L-5857.777777777777,350L-5831.111111111111,350L-5804.444444444444,350L-5777.777777777778,350L-5751.111111111111,350L-5724.444444444444,350L-5697.777777777777,350L-5672.222222222222,350L-5645.555555555556,350L-5618.888888888889,350L-5592.222222222223,350L-5565.555555555556,350L-5538.888888888889,350L-5512.222222222222,347.75L-5485.555555555556,350L-5458.888888888889,350L-5432.222222222223,350L-5405.555555555556,350L-5378.888888888889,350L-5352.222222222223,350L-5325.555555555556,350L-5298.888888888889,350L-5272.222222222222,350L-5245.555555555556,350L-5218.888888888889,350L-5192.222222222223,350L-5165.555555555556,350L-5138.888888888889,350L-5112.222222222222,350L-5085.555555555556,350L-5058.888888888889,350L-5032.222222222223,277.5L-5005.555555555556,350L-4978.888888888889,350L-4952.222222222223,350L-4925.555555555556,350L-4898.888888888889,350L-4872.222222222222,350L-4845.555555555556,350L-4818.888888888889,350L-4792.222222222223,350L-4765.555555555556,350L-4738.888888888889,350L-4712.222222222222,350L-4685.555555555556,350L-4658.888888888889,0L-4632.222222222223,350L-4605.555555555556,350L-4578.888888888889,350L-4552.222222222223,275L-4525.555555555556,350L-4498.888888888889,350L-4472.222222222222,350L-4445.555555555556,225L-4418.888888888889,350L-4392.222222222223,350L-4365.555555555556,350L-4338.888888888889,275L-4312.222222222222,350L-4285.555555555556,300L-4258.888888888889,350L-4232.222222222223,350L-4205.555555555556,350L-4178.888888888889,225L-4152.222222222223,350L-4125.555555555556,350L-4098.888888888889,350L-4072.222222222222,225L-4045.5555555555557,350L-4018.888888888889,350L-3992.2222222222226,350L-3965.5555555555557,275L-3938.8888888888887,350L-3912.222222222222,350L-3885.5555555555557,175L-3858.8888888888887,350L-3832.222222222222,350L-3805.5555555555557,350L-3778.888888888889,350L-3752.2222222222226,400L-3725.555555555555,350L-3698.8888888888887,350L-3672.222222222222,350L-3645.5555555555557,350L-3618.888888888889,275L-3592.2222222222226,350L-3565.5555555555557,350L-3538.8888888888887,250L-3512.222222222222,350L-3485.5555555555557,350L-3458.8888888888887,350L-3432.222222222222,350L-3405.5555555555557,350L-3378.888888888889,350L-3352.2222222222226,275L-3325.555555555555,350L-3298.8888888888887,350L-3272.222222222222,350L-3245.5555555555557,350L-3218.888888888889,350L-3192.222222222222,350L-3165.5555555555557,250L-3138.888888888889,350L-3112.222222222222,350L-3085.5555555555557,350L-3058.8888888888887,350L-3032.222222222222,350L-3005.5555555555557,350L-2978.8888888888887,350L-2952.222222222222,350L-2925.5555555555557,350L-2898.8888888888887,350L-2872.222222222222,300L-2845.5555555555557,350L-2818.888888888889,300L-2792.222222222222,350L-2765.5555555555557,350L-2738.888888888889,350L-2712.222222222222,350L-2685.5555555555557,350L-2658.8888888888887,350L-2632.222222222222,325L-2605.5555555555557,350L-2578.8888888888887,350L-2552.222222222222,350L-2525.5555555555557,350L-2498.8888888888887,350L-2472.222222222222,350L-2445.5555555555557,325L-2418.888888888889,350L-2392.222222222222,350L-2365.5555555555557,350L-2338.888888888889,350L-2312.222222222222,350L-2285.5555555555557,350L-2258.8888888888887,330L-2232.222222222222,350L-2205.5555555555557,350L-2178.8888888888887,350L-2152.222222222222,350L-2125.5555555555557,350L-2098.8888888888887,350L-2072.222222222222,340L-2045.5555555555557,350L-2018.888888888889,350L-1992.2222222222222,350L-1965.5555555555554,350L-1938.888888888889,350L-1912.2222222222224,350L-1885.5555555555554,342.5L-1858.888888888889,350L-1832.2222222222222,350L-1805.5555555555557,350L-1778.8888888888887,350L-1752.2222222222222,350L-1725.5555555555557,350L-1698.8888888888887,342.5L-1672.2222222222222,350L-1645.5555555555557,350L-1618.888888888889,350L-1592.2222222222222,350L-1565.5555555555554,350L-1538.888888888889,350L-1512.2222222222222,332.5L-1485.5555555555557,350L-1458.888888888889,350L-1432.2222222222222,350L-1405.5555555555554,350L-1378.888888888889,350L-1352.2222222222222,350L-1325.5555555555557,337.5L-1298.888888888889,350L-1272.2222222222222,350L-1245.5555555555557,350L-1218.888888888889,350L-1192.2222222222222,350L-1165.5555555555554,350L-1138.888888888889,325L-1112.2222222222222,350L-1085.5555555555557,350L-1058.888888888889,350L-1032.2222222222222,350L-1005.5555555555555,350L-978.8888888888889,350L-952.2222222222222,312.5L-925.5555555555557,350L-898.8888888888889,350L-872.2222222222222,350L-845.5555555555555,350L-818.8888888888888,350L-792.2222222222223,350L-765.5555555555555,312.5L-738.8888888888889,350L-712.2222222222222,350L-685.5555555555555,350L-658.8888888888889,350L-632.2222222222222,350L-605.5555555555555,350L-578.8888888888889,300L-552.2222222222222,350L-525.5555555555555,350L-498.8888888888889,350L-472.22222222222223,350L-445.55555555555554,350L-418.8888888888889,350L-392.22222222222223,312.5L-365.55555555555554,350L-338.88888888888886,350L-312.22222222222223,350L-285.55555555555554,350L-258.8888888888889,350L-232.22222222222223,350L-205.55555555555554,287.5L-178.88888888888889,350L-152.22222222222223,350L-125.55555555555556,350L-98.88888888888889,350L-72.22222222222221,350L-45.55555555555556,350L-18.88888888888889,250L7.777777777777778,350L34.44444444444444,350L61.111111111111114,350L87.77777777777777,350L114.44444444444444,350L141.11111111111111,350L167.77777777777777,200L194.44444444444443,350L221.11111111111111,350L247.77777777777777,350L274.44444444444446,350L301.1111111111111,350L327.77777777777777,350L354.44444444444446,175L381.1111111111111,350L407.77777777777777,350" stroke="#e45756" stroke-width="2" opacity="0.2"></path></g></g><path class="foreground" aria-hidden="true" d="" display="none"></path></g><g transform="translate(0,0)"><path class="background" aria-hidden="true" d="M0,0h400v400h-400Z"></path><g><g class="mark-line role-mark concat_0_layer_0_marks" clip-path="url(#clip2)" role="graphics-object" aria-roledescription="line mark container"><path aria-label="Type: Deaths; Date: Mar 01; Count: 0" role="graphics-symbol" aria-roledescription="line mark" d="M-5884.444444444444,350L-5857.777777777777,350L-5831.111111111111,350L-5804.444444444444,350L-5777.777777777778,350L-5751.111111111111,350L-5724.444444444444,350L-5697.777777777777,350L-5672.222222222222,350L-5645.555555555556,350L-5618.888888888889,350L-5592.222222222223,350L-5565.555555555556,350L-5538.888888888889,350L-5512.222222222222,350L-5485.555555555556,350L-5458.888888888889,350L-5432.222222222223,350L-5405.555555555556,350L-5378.888888888889,350L-5352.222222222223,349.75L-5325.555555555556,350L-5298.888888888889,350L-5272.222222222222,350L-5245.555555555556,349.5L-5218.888888888889,349.5L-5192.222222222223,349.5L-5165.555555555556,349.5L-5138.888888888889,349.5L-5112.222222222222,349.5L-5085.555555555556,349L-5058.888888888889,350L-5032.222222222223,349.5L-5005.555555555556,349.75L-4978.888888888889,348.75L-4952.222222222223,349.25L-4925.555555555556,350.25L-4898.888888888889,348.25L-4872.222222222222,348.5L-4845.555555555556,349.5L-4818.888888888889,348.5L-4792.222222222223,349.75L-4765.555555555556,348.25L-4738.888888888889,349.25L-4712.222222222222,348.75L-4685.555555555556,348L-4658.888888888889,349.25L-4632.222222222223,348.25L-4605.555555555556,348L-4578.888888888889,349L-4552.222222222223,349L-4525.555555555556,339.25L-4498.888888888889,348L-4472.222222222222,344.25L-4445.555555555556,348.75L-4418.888888888889,347.75L-4392.222222222223,349L-4365.555555555556,349.25L-4338.888888888889,348.5L-4312.222222222222,348.25L-4285.555555555556,348.75L-4258.888888888889,348.25L-4232.222222222223,349.5L-4205.555555555556,347.5L-4178.888888888889,347.5L-4152.222222222223,348.5L-4125.555555555556,348.5L-4098.888888888889,349.25L-4072.222222222222,348.75L-4045.5555555555557,348.75L-4018.888888888889,349.5L-3992.2222222222226,349L-3965.5555555555557,349L-3938.8888888888887,347.75L-3912.222222222222,349.25L-3885.5555555555557,348.5L-3858.8888888888887,349L-3832.222222222222,349.75L-3805.5555555555557,349.5L-3778.888888888889,349.75L-3752.2222222222226,349.25L-3725.555555555555,349.5L-3698.8888888888887,350L-3672.222222222222,350L-3645.5555555555557,349.75L-3618.888888888889,349.75L-3592.2222222222226,349L-3565.5555555555557,349.75L-3538.8888888888887,350L-3512.222222222222,349.75L-3485.5555555555557,349.5L-3458.8888888888887,349L-3432.222222222222,350.5L-3405.5555555555557,349.5L-3378.888888888889,349.75L-3352.2222222222226,349.75L-3325.555555555555,350L-3298.8888888888887,350L-3272.222222222222,349.75L-3245.5555555555557,350L-3218.888888888889,349.75L-3192.222222222222,350L-3165.5555555555557,349.75L-3138.888888888889,350L-3112.222222222222,350L-3085.5555555555557,349.75L-3058.8888888888887,350L-3032.222222222222,350L-3005.5555555555557,350L-2978.8888888888887,350L-2952.222222222222,350L-2925.5555555555557,350L-2898.8888888888887,350L-2872.222222222222,349.75L-2845.5555555555557,350L-2818.888888888889,350L-2792.222222222222,350L-2765.5555555555557,349.75L-2738.888888888889,350L-2712.222222222222,350L-2685.5555555555557,350L-2658.8888888888887,350L-2632.222222222222,350L-2605.5555555555557,350L-2578.8888888888887,349.75L-2552.222222222222,350L-2525.5555555555557,350L-2498.8888888888887,350L-2472.222222222222,350L-2445.5555555555557,350L-2418.888888888889,350L-2392.222222222222,350L-2365.5555555555557,350L-2338.888888888889,350L-2312.222222222222,350L-2285.5555555555557,350L-2258.8888888888887,350.25L-2232.222222222222,350L-2205.5555555555557,350L-2178.8888888888887,350L-2152.222222222222,350L-2125.5555555555557,350L-2098.8888888888887,350L-2072.222222222222,350L-2045.5555555555557,350L-2018.888888888889,349.75L-1992.2222222222222,350L-1965.5555555555554,350L-1938.888888888889,350L-1912.2222222222224,350L-1885.5555555555554,350L-1858.888888888889,350L-1832.2222222222222,350L-1805.5555555555557,350L-1778.8888888888887,350L-1752.2222222222222,350L-1725.5555555555557,349.5L-1698.8888888888887,350L-1672.2222222222222,350L-1645.5555555555557,350L-1618.888888888889,350L-1592.2222222222222,350L-1565.5555555555554,349.5L-1538.888888888889,350L-1512.2222222222222,350L-1485.5555555555557,350L-1458.888888888889,350L-1432.2222222222222,350L-1405.5555555555554,350L-1378.888888888889,349.75L-1352.2222222222222,350L-1325.5555555555557,350L-1298.888888888889,350L-1272.2222222222222,350L-1245.5555555555557,350L-1218.888888888889,350L-1192.2222222222222,349.75L-1165.5555555555554,350L-1138.888888888889,350L-1112.2222222222222,350L-1085.5555555555557,350L-1058.888888888889,350L-1032.2222222222222,350L-1005.5555555555555,349.75L-978.8888888888889,350L-952.2222222222222,350L-925.5555555555557,350L-898.8888888888889,350L-872.2222222222222,350L-845.5555555555555,350L-818.8888888888888,350L-792.2222222222223,350L-765.5555555555555,349.75L-738.8888888888889,350L-712.2222222222222,350L-685.5555555555555,350L-658.8888888888889,350L-632.2222222222222,350L-605.5555555555555,349.5L-578.8888888888889,350L-552.2222222222222,350L-525.5555555555555,350L-498.8888888888889,350L-472.22222222222223,350L-445.55555555555554,349.5L-418.8888888888889,350L-392.22222222222223,349.5L-365.55555555555554,350L-338.88888888888886,350L-312.22222222222223,350L-285.55555555555554,350L-258.8888888888889,349.5L-232.22222222222223,350L-205.55555555555554,350.25L-178.88888888888889,350L-152.22222222222223,349.75L-125.55555555555556,350L-98.88888888888889,350L-72.22222222222221,349.75L-45.55555555555556,350L-18.88888888888889,350L7.777777777777778,350L34.44444444444444,350L61.111111111111114,350L87.77777777777777,350L114.44444444444444,350L141.11111111111111,350L167.77777777777777,349L194.44444444444443,350L221.11111111111111,349.75L247.77777777777777,350L274.44444444444446,350L301.1111111111111,350L327.77777777777777,350L354.44444444444446,349L381.1111111111111,350L407.77777777777777,350.5" stroke="#f58518" stroke-width="2" opacity="0.2"></path></g></g><path class="foreground" aria-hidden="true" d="" display="none"></path></g><g transform="translate(0,0)"><path class="background" aria-hidden="true" d="M0,0h400v400h-400Z"></path><g><g class="mark-line role-mark concat_0_layer_0_marks" clip-path="url(#clip3)" role="graphics-object" aria-roledescription="line mark container"><path aria-label="Type: Confirmed; Date: Mar 01; Count: 3" role="graphics-symbol" aria-roledescription="line mark" d="M-5884.444444444444,349.25L-5857.777777777777,350L-5831.111111111111,350L-5804.444444444444,350L-5777.777777777778,348.5L-5751.111111111111,349.25L-5724.444444444444,350L-5697.777777777777,348L-5672.222222222222,348.25L-5645.555555555556,347.5L-5618.888888888889,345.25L-5592.222222222223,350L-5565.555555555556,326L-5538.888888888889,332.5L-5512.222222222222,345.25L-5485.555555555556,341.75L-5458.888888888889,339L-5432.222222222223,346.25L-5405.555555555556,334L-5378.888888888889,337.5L-5352.222222222223,331.75L-5325.555555555556,324.25L-5298.888888888889,331.5L-5272.222222222222,327L-5245.555555555556,328L-5218.888888888889,330.5L-5192.222222222223,329.25L-5165.555555555556,318.5L-5138.888888888889,331.75L-5112.222222222222,322L-5085.555555555556,333.5L-5058.888888888889,343L-5032.222222222223,332L-5005.555555555556,325.75L-4978.888888888889,283.25L-4952.222222222223,338.75L-4925.555555555556,287.75L-4898.888888888889,317L-4872.222222222222,305.25L-4845.555555555556,320.5L-4818.888888888889,309L-4792.222222222223,316L-4765.555555555556,332.75L-4738.888888888889,327.5L-4712.222222222222,325.75L-4685.555555555556,331L-4658.888888888889,317L-4632.222222222223,320L-4605.555555555556,302L-4578.888888888889,324.5L-4552.222222222223,328.75L-4525.555555555556,313.5L-4498.888888888889,321.25L-4472.222222222222,311.25L-4445.555555555556,322.25L-4418.888888888889,330L-4392.222222222223,324.75L-4365.555555555556,320.25L-4338.888888888889,338.75L-4312.222222222222,308.5L-4285.555555555556,327.75L-4258.888888888889,336L-4232.222222222223,318.75L-4205.555555555556,330.5L-4178.888888888889,331.75L-4152.222222222223,328.75L-4125.555555555556,309.75L-4098.888888888889,325L-4072.222222222222,333.75L-4045.5555555555557,314.5L-4018.888888888889,329.5L-3992.2222222222226,344.5L-3965.5555555555557,345.25L-3938.8888888888887,337.25L-3912.222222222222,327.25L-3885.5555555555557,329.25L-3858.8888888888887,335.5L-3832.222222222222,334.75L-3805.5555555555557,341.75L-3778.888888888889,345.25L-3752.2222222222226,339L-3725.555555555555,337.5L-3698.8888888888887,339L-3672.222222222222,342.25L-3645.5555555555557,347.25L-3618.888888888889,345L-3592.2222222222226,342.75L-3565.5555555555557,334L-3538.8888888888887,337.25L-3512.222222222222,341.75L-3485.5555555555557,337.5L-3458.8888888888887,341.75L-3432.222222222222,343.5L-3405.5555555555557,349.5L-3378.888888888889,344L-3352.2222222222226,350L-3325.555555555555,342.5L-3298.8888888888887,344.25L-3272.222222222222,345.75L-3245.5555555555557,345L-3218.888888888889,344L-3192.222222222222,346.25L-3165.5555555555557,344L-3138.888888888889,347.75L-3112.222222222222,346.5L-3085.5555555555557,345.75L-3058.8888888888887,349L-3032.222222222222,349L-3005.5555555555557,348.75L-2978.8888888888887,349.5L-2952.222222222222,346.5L-2925.5555555555557,347.75L-2898.8888888888887,349.75L-2872.222222222222,349.75L-2845.5555555555557,347.25L-2818.888888888889,347L-2792.222222222222,348.75L-2765.5555555555557,345.25L-2738.888888888889,348.25L-2712.222222222222,350L-2685.5555555555557,347.25L-2658.8888888888887,348.75L-2632.222222222222,344.5L-2605.5555555555557,348.75L-2578.8888888888887,349.75L-2552.222222222222,348.5L-2525.5555555555557,348.75L-2498.8888888888887,349L-2472.222222222222,348.75L-2445.5555555555557,349.25L-2418.888888888889,348L-2392.222222222222,348.5L-2365.5555555555557,347L-2338.888888888889,349.25L-2312.222222222222,349.75L-2285.5555555555557,348.5L-2258.8888888888887,351.25L-2232.222222222222,350.75L-2205.5555555555557,348L-2178.8888888888887,345.75L-2152.222222222222,345.75L-2125.5555555555557,348.75L-2098.8888888888887,347.25L-2072.222222222222,347.25L-2045.5555555555557,347.5L-2018.888888888889,348L-1992.2222222222222,348L-1965.5555555555554,348.75L-1938.888888888889,348.75L-1912.2222222222224,348.5L-1885.5555555555554,347.5L-1858.888888888889,347.75L-1832.2222222222222,347.75L-1805.5555555555557,347.25L-1778.8888888888887,347.5L-1752.2222222222222,346.75L-1725.5555555555557,345.75L-1698.8888888888887,342.75L-1672.2222222222222,345L-1645.5555555555557,344.5L-1618.888888888889,346.5L-1592.2222222222222,346L-1565.5555555555554,345.75L-1538.888888888889,344.5L-1512.2222222222222,345.25L-1485.5555555555557,339.75L-1458.888888888889,345.75L-1432.2222222222222,345L-1405.5555555555554,347.25L-1378.888888888889,344.75L-1352.2222222222222,344L-1325.5555555555557,342.75L-1298.888888888889,340.75L-1272.2222222222222,342.75L-1245.5555555555557,341.25L-1218.888888888889,346.5L-1192.2222222222222,345.5L-1165.5555555555554,339.25L-1138.888888888889,344.75L-1112.2222222222222,345.75L-1085.5555555555557,344.25L-1058.888888888889,348.25L-1032.2222222222222,343L-1005.5555555555555,347.75L-978.8888888888889,336L-952.2222222222222,345.25L-925.5555555555557,340.25L-898.8888888888889,343.75L-872.2222222222222,341L-845.5555555555555,342.5L-818.8888888888888,341L-792.2222222222223,347.5L-765.5555555555555,326.75L-738.8888888888889,340.25L-712.2222222222222,339.25L-685.5555555555555,338.75L-658.8888888888889,344.25L-632.2222222222222,338.25L-605.5555555555555,325.5L-578.8888888888889,343.75L-552.2222222222222,337.75L-525.5555555555555,335.25L-498.8888888888889,334L-472.22222222222223,335.5L-445.55555555555554,333.5L-418.8888888888889,312.75L-392.22222222222223,326.75L-365.55555555555554,327.25L-338.88888888888886,323.75L-312.22222222222223,326.75L-285.55555555555554,323.75L-258.8888888888889,334.75L-232.22222222222223,312.75L-205.55555555555554,325L-178.88888888888889,322.25L-152.22222222222223,314.75L-125.55555555555556,313.25L-98.88888888888889,313.25L-72.22222222222221,309L-45.55555555555556,293.25L-18.88888888888889,320L7.777777777777778,276L34.44444444444444,291.25L61.111111111111114,282.74999999999994L87.77777777777777,312.75L114.44444444444444,296.5L141.11111111111111,278.25L167.77777777777777,299L194.44444444444443,289.75L221.11111111111111,302.75L247.77777777777777,310L274.44444444444446,317.25L301.1111111111111,317.25L327.77777777777777,276.49999999999994L354.44444444444446,294.5L381.1111111111111,304L407.77777777777777,295.24999999999994" stroke="#4c78a8" stroke-width="2" opacity="0.2"></path></g></g><path class="foreground" aria-hidden="true" d="" display="none"></path></g></g><g class="mark-group role-scope concat_0_layer_1_pathgroup" role="graphics-object" aria-roledescription="group mark container"><g transform="translate(0,0)"><path class="background" aria-hidden="true" d="M0,0h400v400h-400Z"></path><g><g class="mark-line role-mark concat_0_layer_1_marks" clip-path="url(#clip4)" role="graphics-object" aria-roledescription="line mark container"><path aria-label="Type: Recovered; Date: Mar 01; Count: 0" role="graphics-symbol" aria-roledescription="line mark" d="M-5724.444444444444,350L-5697.777777777777,350L-5672.222222222222,350L-5645.555555555556,350L-5618.888888888889,350L-5592.222222222223,350L-5565.555555555556,350L-5538.888888888889,350L-5512.222222222222,349.67857142857144L-5485.555555555556,349.67857142857144L-5458.888888888889,349.67857142857144L-5432.222222222223,349.67857142857144L-5405.555555555556,349.67857142857144L-5378.888888888889,349.67857142857144L-5352.222222222223,349.67857142857144L-5325.555555555556,350L-5298.888888888889,350L-5272.222222222222,350L-5245.555555555556,350L-5218.888888888889,350L-5192.222222222223,350L-5165.555555555556,350L-5138.888888888889,350L-5112.222222222222,350L-5085.555555555556,350L-5058.888888888889,350L-5032.222222222223,339.6428571428571L-5005.555555555556,339.6428571428571L-4978.888888888889,339.6428571428571L-4952.222222222223,339.6428571428571L-4925.555555555556,339.6428571428571L-4898.888888888889,339.6428571428571L-4872.222222222222,339.6428571428571L-4845.555555555556,350L-4818.888888888889,350L-4792.222222222223,350L-4765.555555555556,350L-4738.888888888889,350L-4712.222222222222,350L-4685.555555555556,350L-4658.888888888889,300L-4632.222222222223,300L-4605.555555555556,300L-4578.888888888889,300L-4552.222222222223,289.2857142857143L-4525.555555555556,289.2857142857143L-4498.888888888889,289.2857142857143L-4472.222222222222,339.2857142857143L-4445.555555555556,321.42857142857144L-4418.888888888889,321.42857142857144L-4392.222222222223,321.42857142857144L-4365.555555555556,332.1428571428571L-4338.888888888889,321.42857142857144L-4312.222222222222,321.42857142857144L-4285.555555555556,314.2857142857143L-4258.888888888889,332.1428571428571L-4232.222222222223,332.1428571428571L-4205.555555555556,332.1428571428571L-4178.888888888889,314.2857142857143L-4152.222222222223,325L-4125.555555555556,325L-4098.888888888889,332.1428571428571L-4072.222222222222,314.2857142857143L-4045.5555555555557,314.2857142857143L-4018.888888888889,314.2857142857143L-3992.2222222222226,332.1428571428571L-3965.5555555555557,321.42857142857144L-3938.8888888888887,321.42857142857144L-3912.222222222222,321.42857142857144L-3885.5555555555557,314.2857142857143L-3858.8888888888887,314.2857142857143L-3832.222222222222,314.2857142857143L-3805.5555555555557,314.2857142857143L-3778.888888888889,325L-3752.2222222222226,332.1428571428571L-3725.555555555555,332.1428571428571L-3698.8888888888887,357.14285714285717L-3672.222222222222,357.14285714285717L-3645.5555555555557,357.14285714285717L-3618.888888888889,346.42857142857144L-3592.2222222222226,346.42857142857144L-3565.5555555555557,339.2857142857143L-3538.8888888888887,325L-3512.222222222222,325L-3485.5555555555557,325L-3458.8888888888887,325L-3432.222222222222,335.7142857142857L-3405.5555555555557,335.7142857142857L-3378.888888888889,335.7142857142857L-3352.2222222222226,339.2857142857143L-3325.555555555555,339.2857142857143L-3298.8888888888887,339.2857142857143L-3272.222222222222,339.2857142857143L-3245.5555555555557,339.2857142857143L-3218.888888888889,339.2857142857143L-3192.222222222222,339.2857142857143L-3165.5555555555557,335.7142857142857L-3138.888888888889,335.7142857142857L-3112.222222222222,335.7142857142857L-3085.5555555555557,335.7142857142857L-3058.8888888888887,335.7142857142857L-3032.222222222222,335.7142857142857L-3005.5555555555557,335.7142857142857L-2978.8888888888887,350L-2952.222222222222,350L-2925.5555555555557,350L-2898.8888888888887,350L-2872.222222222222,342.85714285714283L-2845.5555555555557,342.85714285714283L-2818.888888888889,335.7142857142857L-2792.222222222222,335.7142857142857L-2765.5555555555557,335.7142857142857L-2738.888888888889,335.7142857142857L-2712.222222222222,335.7142857142857L-2685.5555555555557,342.85714285714283L-2658.8888888888887,342.85714285714283L-2632.222222222222,346.42857142857144L-2605.5555555555557,346.42857142857144L-2578.8888888888887,346.42857142857144L-2552.222222222222,346.42857142857144L-2525.5555555555557,346.42857142857144L-2498.8888888888887,346.42857142857144L-2472.222222222222,346.42857142857144L-2445.5555555555557,346.42857142857144L-2418.888888888889,346.42857142857144L-2392.222222222222,346.42857142857144L-2365.5555555555557,346.42857142857144L-2338.888888888889,346.42857142857144L-2312.222222222222,346.42857142857144L-2285.5555555555557,346.42857142857144L-2258.8888888888887,347.14285714285717L-2232.222222222222,347.14285714285717L-2205.5555555555557,347.14285714285717L-2178.8888888888887,347.14285714285717L-2152.222222222222,347.14285714285717L-2125.5555555555557,347.14285714285717L-2098.8888888888887,347.14285714285717L-2072.222222222222,348.57142857142856L-2045.5555555555557,348.57142857142856L-2018.888888888889,348.57142857142856L-1992.2222222222222,348.57142857142856L-1965.5555555555554,348.57142857142856L-1938.888888888889,348.57142857142856L-1912.2222222222224,348.57142857142856L-1885.5555555555554,348.92857142857144L-1858.888888888889,348.92857142857144L-1832.2222222222222,348.92857142857144L-1805.5555555555557,348.92857142857144L-1778.8888888888887,348.92857142857144L-1752.2222222222222,348.92857142857144L-1725.5555555555557,348.92857142857144L-1698.8888888888887,348.92857142857144L-1672.2222222222222,348.92857142857144L-1645.5555555555557,348.92857142857144L-1618.888888888889,348.92857142857144L-1592.2222222222222,348.92857142857144L-1565.5555555555554,348.92857142857144L-1538.888888888889,348.92857142857144L-1512.2222222222222,347.5L-1485.5555555555557,347.5L-1458.888888888889,347.5L-1432.2222222222222,347.5L-1405.5555555555554,347.5L-1378.888888888889,347.5L-1352.2222222222222,347.5L-1325.5555555555557,348.2142857142857L-1298.888888888889,348.2142857142857L-1272.2222222222222,348.2142857142857L-1245.5555555555557,348.2142857142857L-1218.888888888889,348.2142857142857L-1192.2222222222222,348.2142857142857L-1165.5555555555554,348.2142857142857L-1138.888888888889,346.42857142857144L-1112.2222222222222,346.42857142857144L-1085.5555555555557,346.42857142857144L-1058.888888888889,346.42857142857144L-1032.2222222222222,346.42857142857144L-1005.5555555555555,346.42857142857144L-978.8888888888889,346.42857142857144L-952.2222222222222,344.64285714285717L-925.5555555555557,344.64285714285717L-898.8888888888889,344.64285714285717L-872.2222222222222,344.64285714285717L-845.5555555555555,344.64285714285717L-818.8888888888888,344.64285714285717L-792.2222222222223,344.64285714285717L-765.5555555555555,344.64285714285717L-738.8888888888889,344.64285714285717L-712.2222222222222,344.64285714285717L-685.5555555555555,344.64285714285717L-658.8888888888889,344.64285714285717L-632.2222222222222,344.64285714285717L-605.5555555555555,344.64285714285717L-578.8888888888889,342.85714285714283L-552.2222222222222,342.85714285714283L-525.5555555555555,342.85714285714283L-498.8888888888889,342.85714285714283L-472.22222222222223,342.85714285714283L-445.55555555555554,342.85714285714283L-418.8888888888889,342.85714285714283L-392.22222222222223,344.64285714285717L-365.55555555555554,344.64285714285717L-338.88888888888886,344.64285714285717L-312.22222222222223,344.64285714285717L-285.55555555555554,344.64285714285717L-258.8888888888889,344.64285714285717L-232.22222222222223,344.64285714285717L-205.55555555555554,341.07142857142856L-178.88888888888889,341.07142857142856L-152.22222222222223,341.07142857142856L-125.55555555555556,341.07142857142856L-98.88888888888889,341.07142857142856L-72.22222222222221,341.07142857142856L-45.55555555555556,341.07142857142856L-18.88888888888889,335.7142857142857L7.777777777777778,335.7142857142857L34.44444444444444,335.7142857142857L61.111111111111114,335.7142857142857L87.77777777777777,335.7142857142857L114.44444444444444,335.7142857142857L141.11111111111111,335.7142857142857L167.77777777777777,328.57142857142856L194.44444444444443,328.57142857142856L221.11111111111111,328.57142857142856L247.77777777777777,328.57142857142856L274.44444444444446,328.57142857142856L301.1111111111111,328.57142857142856L327.77777777777777,328.57142857142856L354.44444444444446,325L381.1111111111111,325L407.77777777777777,325" stroke="#e45756" stroke-width="2" opacity="1"></path></g></g><path class="foreground" aria-hidden="true" d="" display="none"></path></g><g transform="translate(0,0)"><path class="background" aria-hidden="true" d="M0,0h400v400h-400Z"></path><g><g class="mark-line role-mark concat_0_layer_1_marks" clip-path="url(#clip5)" role="graphics-object" aria-roledescription="line mark container"><path aria-label="Type: Deaths; Date: Mar 01; Count: 0" role="graphics-symbol" aria-roledescription="line mark" d="M-5724.444444444444,350L-5697.777777777777,350L-5672.222222222222,350L-5645.555555555556,350L-5618.888888888889,350L-5592.222222222223,350L-5565.555555555556,350L-5538.888888888889,350L-5512.222222222222,350L-5485.555555555556,350L-5458.888888888889,350L-5432.222222222223,350L-5405.555555555556,350L-5378.888888888889,350L-5352.222222222223,349.9642857142857L-5325.555555555556,349.9642857142857L-5298.888888888889,349.9642857142857L-5272.222222222222,349.9642857142857L-5245.555555555556,349.8928571428571L-5218.888888888889,349.8214285714286L-5192.222222222223,349.75L-5165.555555555556,349.7142857142857L-5138.888888888889,349.64285714285717L-5112.222222222222,349.57142857142856L-5085.555555555556,349.42857142857144L-5058.888888888889,349.5L-5032.222222222223,349.5L-5005.555555555556,349.5357142857143L-4978.888888888889,349.42857142857144L-4952.222222222223,349.39285714285717L-4925.555555555556,349.5L-4898.888888888889,349.39285714285717L-4872.222222222222,349.17857142857144L-4845.555555555556,349.17857142857144L-4818.888888888889,349L-4792.222222222223,349.14285714285717L-4765.555555555556,349L-4738.888888888889,348.85714285714283L-4712.222222222222,348.92857142857144L-4685.555555555556,348.85714285714283L-4658.888888888889,348.82142857142856L-4632.222222222223,348.7857142857143L-4605.555555555556,348.5357142857143L-4578.888888888889,348.6428571428571L-4552.222222222223,348.60714285714283L-4525.555555555556,347.25L-4498.888888888889,347.25L-4472.222222222222,346.5357142857143L-4445.555555555556,346.60714285714283L-4418.888888888889,346.57142857142856L-4392.222222222223,346.57142857142856L-4365.555555555556,346.60714285714283L-4338.888888888889,347.9285714285714L-4312.222222222222,347.9642857142857L-4285.555555555556,348.60714285714283L-4258.888888888889,348.5357142857143L-4232.222222222223,348.7857142857143L-4205.555555555556,348.57142857142856L-4178.888888888889,348.32142857142856L-4152.222222222223,348.32142857142856L-4125.555555555556,348.35714285714283L-4098.888888888889,348.42857142857144L-4072.222222222222,348.5L-4045.5555555555557,348.39285714285717L-4018.888888888889,348.67857142857144L-3992.2222222222226,348.89285714285717L-3965.5555555555557,348.9642857142857L-3938.8888888888887,348.85714285714283L-3912.222222222222,348.85714285714283L-3885.5555555555557,348.82142857142856L-3858.8888888888887,348.85714285714283L-3832.222222222222,348.89285714285717L-3805.5555555555557,348.9642857142857L-3778.888888888889,349.07142857142856L-3752.2222222222226,349.2857142857143L-3725.555555555555,349.32142857142856L-3698.8888888888887,349.5357142857143L-3672.222222222222,349.67857142857144L-3645.5555555555557,349.67857142857144L-3618.888888888889,349.7142857142857L-3592.2222222222226,349.6071428571429L-3565.5555555555557,349.67857142857144L-3538.8888888888887,349.75L-3512.222222222222,349.7142857142857L-3485.5555555555557,349.64285714285717L-3458.8888888888887,349.5357142857143L-3432.222222222222,349.64285714285717L-3405.5555555555557,349.7142857142857L-3378.888888888889,349.7142857142857L-3352.2222222222226,349.67857142857144L-3325.555555555555,349.7142857142857L-3298.8888888888887,349.7857142857143L-3272.222222222222,349.8928571428571L-3245.5555555555557,349.8214285714286L-3218.888888888889,349.8571428571429L-3192.222222222222,349.8928571428571L-3165.5555555555557,349.8928571428571L-3138.888888888889,349.8928571428571L-3112.222222222222,349.8928571428571L-3085.5555555555557,349.8928571428571L-3058.8888888888887,349.8928571428571L-3032.222222222222,349.92857142857144L-3005.5555555555557,349.92857142857144L-2978.8888888888887,349.9642857142857L-2952.222222222222,349.9642857142857L-2925.5555555555557,349.9642857142857L-2898.8888888888887,350L-2872.222222222222,349.9642857142857L-2845.5555555555557,349.9642857142857L-2818.888888888889,349.9642857142857L-2792.222222222222,349.9642857142857L-2765.5555555555557,349.92857142857144L-2738.888888888889,349.92857142857144L-2712.222222222222,349.92857142857144L-2685.5555555555557,349.9642857142857L-2658.8888888888887,349.9642857142857L-2632.222222222222,349.9642857142857L-2605.5555555555557,349.9642857142857L-2578.8888888888887,349.9642857142857L-2552.222222222222,349.9642857142857L-2525.5555555555557,349.9642857142857L-2498.8888888888887,349.9642857142857L-2472.222222222222,349.9642857142857L-2445.5555555555557,349.9642857142857L-2418.888888888889,349.9642857142857L-2392.222222222222,350L-2365.5555555555557,350L-2338.888888888889,350L-2312.222222222222,350L-2285.5555555555557,350L-2258.8888888888887,350.0357142857143L-2232.222222222222,350.0357142857143L-2205.5555555555557,350.0357142857143L-2178.8888888888887,350.0357142857143L-2152.222222222222,350.0357142857143L-2125.5555555555557,350.0357142857143L-2098.8888888888887,350.0357142857143L-2072.222222222222,350L-2045.5555555555557,350L-2018.888888888889,349.9642857142857L-1992.2222222222222,349.9642857142857L-1965.5555555555554,349.9642857142857L-1938.888888888889,349.9642857142857L-1912.2222222222224,349.9642857142857L-1885.5555555555554,349.9642857142857L-1858.888888888889,349.9642857142857L-1832.2222222222222,350L-1805.5555555555557,350L-1778.8888888888887,350L-1752.2222222222222,350L-1725.5555555555557,349.92857142857144L-1698.8888888888887,349.92857142857144L-1672.2222222222222,349.92857142857144L-1645.5555555555557,349.92857142857144L-1618.888888888889,349.92857142857144L-1592.2222222222222,349.92857142857144L-1565.5555555555554,349.8571428571429L-1538.888888888889,349.92857142857144L-1512.2222222222222,349.92857142857144L-1485.5555555555557,349.92857142857144L-1458.888888888889,349.92857142857144L-1432.2222222222222,349.92857142857144L-1405.5555555555554,349.92857142857144L-1378.888888888889,349.9642857142857L-1352.2222222222222,349.9642857142857L-1325.5555555555557,349.9642857142857L-1298.888888888889,349.9642857142857L-1272.2222222222222,349.9642857142857L-1245.5555555555557,349.9642857142857L-1218.888888888889,349.9642857142857L-1192.2222222222222,349.9642857142857L-1165.5555555555554,349.9642857142857L-1138.888888888889,349.9642857142857L-1112.2222222222222,349.9642857142857L-1085.5555555555557,349.9642857142857L-1058.888888888889,349.9642857142857L-1032.2222222222222,349.9642857142857L-1005.5555555555555,349.9642857142857L-978.8888888888889,349.9642857142857L-952.2222222222222,349.9642857142857L-925.5555555555557,349.9642857142857L-898.8888888888889,349.9642857142857L-872.2222222222222,349.9642857142857L-845.5555555555555,349.9642857142857L-818.8888888888888,350L-792.2222222222223,350L-765.5555555555555,349.9642857142857L-738.8888888888889,349.9642857142857L-712.2222222222222,349.9642857142857L-685.5555555555555,349.9642857142857L-658.8888888888889,349.9642857142857L-632.2222222222222,349.9642857142857L-605.5555555555555,349.8928571428571L-578.8888888888889,349.92857142857144L-552.2222222222222,349.92857142857144L-525.5555555555555,349.92857142857144L-498.8888888888889,349.92857142857144L-472.22222222222223,349.92857142857144L-445.55555555555554,349.8571428571429L-418.8888888888889,349.92857142857144L-392.22222222222223,349.8571428571429L-365.55555555555554,349.8571428571429L-338.88888888888886,349.8571428571429L-312.22222222222223,349.8571428571429L-285.55555555555554,349.8571428571429L-258.8888888888889,349.8571428571429L-232.22222222222223,349.8571428571429L-205.55555555555554,349.9642857142857L-178.88888888888889,349.9642857142857L-152.22222222222223,349.92857142857144L-125.55555555555556,349.92857142857144L-98.88888888888889,349.92857142857144L-72.22222222222221,349.9642857142857L-45.55555555555556,349.9642857142857L-18.88888888888889,349.92857142857144L7.777777777777778,349.92857142857144L34.44444444444444,349.9642857142857L61.111111111111114,349.9642857142857L87.77777777777777,349.9642857142857L114.44444444444444,350L141.11111111111111,350L167.77777777777777,349.8571428571429L194.44444444444443,349.8571428571429L221.11111111111111,349.8214285714286L247.77777777777777,349.8214285714286L274.44444444444446,349.8214285714286L301.1111111111111,349.8214285714286L327.77777777777777,349.8214285714286L354.44444444444446,349.8214285714286L381.1111111111111,349.8214285714286L407.77777777777777,349.92857142857144" stroke="#f58518" stroke-width="2" opacity="1"></path></g></g><path class="foreground" aria-hidden="true" d="" display="none"></path></g><g transform="translate(0,0)"><path class="background" aria-hidden="true" d="M0,0h400v400h-400Z"></path><g><g class="mark-line role-mark concat_0_layer_1_marks" clip-path="url(#clip6)" role="graphics-object" aria-roledescription="line mark container"><path aria-label="Type: Confirmed; Date: Mar 01; Count: 0" role="graphics-symbol" aria-roledescription="line mark" d="M-5724.444444444444,349.57142857142856L-5697.777777777777,349.39285714285717L-5672.222222222222,349.14285714285717L-5645.555555555556,348.7857142857143L-5618.888888888889,348.10714285714283L-5592.222222222223,348.32142857142856L-5565.555555555556,345L-5538.888888888889,342.5L-5512.222222222222,342.10714285714283L-5485.555555555556,341.17857142857144L-5458.888888888889,339.9642857142857L-5432.222222222223,340.10714285714283L-5405.555555555556,337.82142857142856L-5378.888888888889,339.4642857142857L-5352.222222222223,339.3571428571429L-5325.555555555556,336.35714285714283L-5298.888888888889,334.89285714285717L-5272.222222222222,333.1785714285714L-5245.555555555556,330.57142857142856L-5218.888888888889,330.07142857142856L-5192.222222222223,328.89285714285717L-5165.555555555556,327L-5138.888888888889,328.07142857142856L-5112.222222222222,326.7142857142857L-5085.555555555556,327.6428571428571L-5058.888888888889,329.7857142857143L-5032.222222222223,330L-5005.555555555556,329.5L-4978.888888888889,324.4642857142857L-4952.222222222223,325.4642857142857L-4925.555555555556,320.57142857142856L-4898.888888888889,318.2142857142857L-4872.222222222222,312.82142857142856L-4845.555555555556,311.17857142857144L-4818.888888888889,308.7857142857143L-4792.222222222223,313.4642857142857L-4765.555555555556,312.6071428571429L-4738.888888888889,318.2857142857143L-4712.222222222222,319.5357142857143L-4685.555555555556,323.2142857142857L-4658.888888888889,322.7142857142857L-4632.222222222223,324.2857142857143L-4605.555555555556,322.2857142857143L-4578.888888888889,321.10714285714283L-4552.222222222223,321.2857142857143L-4525.555555555556,319.5357142857143L-4498.888888888889,318.14285714285717L-4472.222222222222,317.32142857142856L-4445.555555555556,317.64285714285717L-4418.888888888889,321.64285714285717L-4392.222222222223,321.67857142857144L-4365.555555555556,320.4642857142857L-4338.888888888889,324.07142857142856L-4312.222222222222,322.25L-4285.555555555556,324.6071428571429L-4258.888888888889,326.57142857142856L-4232.222222222223,324.9642857142857L-4205.555555555556,325.7857142857143L-4178.888888888889,327.42857142857144L-4152.222222222223,326L-4125.555555555556,326.17857142857144L-4098.888888888889,325.7857142857143L-4072.222222222222,325.4642857142857L-4045.5555555555557,324.8571428571429L-4018.888888888889,324.7142857142857L-3992.2222222222226,326.5357142857143L-3965.5555555555557,328.89285714285717L-3938.8888888888887,332.82142857142856L-3912.222222222222,333.14285714285717L-3885.5555555555557,332.5L-3858.8888888888887,335.5L-3832.222222222222,336.25L-3805.5555555555557,335.85714285714283L-3778.888888888889,335.85714285714283L-3752.2222222222226,336.10714285714283L-3725.555555555555,337.57142857142856L-3698.8888888888887,338.9642857142857L-3672.222222222222,339.92857142857144L-3645.5555555555557,341.7142857142857L-3618.888888888889,342.17857142857144L-3592.2222222222226,341.8214285714286L-3565.5555555555557,341.1071428571429L-3538.8888888888887,341.07142857142856L-3512.222222222222,341.4642857142857L-3485.5555555555557,340.7857142857143L-3458.8888888888887,340L-3432.222222222222,339.7857142857143L-3405.5555555555557,340.75L-3378.888888888889,342.17857142857144L-3352.2222222222226,344L-3325.555555555555,344.10714285714283L-3298.8888888888887,345.07142857142856L-3272.222222222222,345.64285714285717L-3245.5555555555557,345.8571428571429L-3218.888888888889,345.07142857142856L-3192.222222222222,345.39285714285717L-3165.5555555555557,344.5357142857143L-3138.888888888889,345.2857142857143L-3112.222222222222,345.6071428571429L-3085.5555555555557,345.6071428571429L-3058.8888888888887,346.17857142857144L-3032.222222222222,346.89285714285717L-3005.5555555555557,347.25L-2978.8888888888887,348.0357142857143L-2952.222222222222,347.8571428571429L-2925.5555555555557,348.0357142857143L-2898.8888888888887,348.60714285714283L-2872.222222222222,348.7142857142857L-2845.5555555555557,348.4642857142857L-2818.888888888889,348.2142857142857L-2792.222222222222,348.10714285714283L-2765.5555555555557,347.9285714285714L-2738.888888888889,348L-2712.222222222222,348.0357142857143L-2685.5555555555557,347.6785714285714L-2658.8888888888887,347.8928571428571L-2632.222222222222,347.5357142857143L-2605.5555555555557,347.5357142857143L-2578.8888888888887,348.17857142857144L-2552.222222222222,348.2142857142857L-2525.5555555555557,348.0357142857143L-2498.8888888888887,348.28571428571433L-2472.222222222222,348.28571428571433L-2445.5555555555557,348.9642857142857L-2418.888888888889,348.85714285714283L-2392.222222222222,348.67857142857144L-2365.5555555555557,348.4642857142857L-2338.888888888889,348.5357142857143L-2312.222222222222,348.6428571428571L-2285.5555555555557,348.60714285714283L-2258.8888888888887,348.89285714285717L-2232.222222222222,349.2857142857143L-2205.5555555555557,349.2142857142857L-2178.8888888888887,349.0357142857143L-2152.222222222222,348.5357142857143L-2125.5555555555557,348.39285714285717L-2098.8888888888887,348.2142857142857L-2072.222222222222,347.64285714285717L-2045.5555555555557,347.17857142857144L-2018.888888888889,347.17857142857144L-1992.2222222222222,347.5L-1965.5555555555554,347.9285714285714L-1938.888888888889,347.9285714285714L-1912.2222222222224,348.10714285714283L-1885.5555555555554,348.1428571428571L-1858.888888888889,348.17857142857144L-1832.2222222222222,348.1428571428571L-1805.5555555555557,348.0357142857143L-1778.8888888888887,347.8571428571429L-1752.2222222222222,347.57142857142856L-1725.5555555555557,347.17857142857144L-1698.8888888888887,346.5L-1672.2222222222222,346.10714285714283L-1645.5555555555557,345.64285714285717L-1618.888888888889,345.5357142857143L-1592.2222222222222,345.32142857142856L-1565.5555555555554,345.17857142857144L-1538.888888888889,345L-1512.2222222222222,345.35714285714283L-1485.5555555555557,344.60714285714283L-1458.888888888889,344.7857142857143L-1432.2222222222222,344.57142857142856L-1405.5555555555554,344.75L-1378.888888888889,344.60714285714283L-1352.2222222222222,344.5357142857143L-1325.5555555555557,344.17857142857144L-1298.888888888889,344.32142857142856L-1272.2222222222222,343.8928571428571L-1245.5555555555557,343.3571428571429L-1218.888888888889,343.25L-1192.2222222222222,343.3571428571429L-1165.5555555555554,342.67857142857144L-1138.888888888889,342.9642857142857L-1112.2222222222222,343.67857142857144L-1085.5555555555557,343.8928571428571L-1058.888888888889,344.89285714285717L-1032.2222222222222,344.39285714285717L-1005.5555555555555,344.7142857142857L-978.8888888888889,344.25L-952.2222222222222,344.32142857142856L-925.5555555555557,343.5357142857143L-898.8888888888889,343.4642857142857L-872.2222222222222,342.42857142857144L-845.5555555555555,342.35714285714283L-818.8888888888888,341.39285714285717L-792.2222222222223,343.0357142857143L-765.5555555555555,340.39285714285717L-738.8888888888889,340.39285714285717L-712.2222222222222,339.75L-685.5555555555555,339.4285714285714L-658.8888888888889,339.67857142857144L-632.2222222222222,339.2857142857143L-605.5555555555555,336.1428571428571L-578.8888888888889,338.57142857142856L-552.2222222222222,338.2142857142857L-525.5555555555555,337.6428571428571L-498.8888888888889,336.96428571428567L-472.22222222222223,335.7142857142857L-445.55555555555554,335.0357142857143L-418.8888888888889,333.2142857142857L-392.22222222222223,330.7857142857143L-365.55555555555554,329.2857142857143L-338.88888888888886,327.6428571428571L-312.22222222222223,326.6071428571429L-285.55555555555554,324.92857142857144L-258.8888888888889,325.1071428571429L-232.22222222222223,325.1071428571429L-205.55555555555554,324.8571428571429L-178.88888888888889,324.14285714285717L-152.22222222222223,322.8571428571429L-125.55555555555556,320.92857142857144L-98.88888888888889,319.42857142857144L-72.22222222222221,315.75L-45.55555555555556,312.9642857142857L-18.88888888888889,312.25L7.777777777777778,305.64285714285717L34.44444444444444,302.2857142857143L61.111111111111114,297.9285714285714L87.77777777777777,297.8571428571429L114.44444444444444,296.07142857142856L141.11111111111111,293.9285714285714L167.77777777777777,290.92857142857144L194.44444444444443,292.8928571428571L221.11111111111111,294.5357142857143L247.77777777777777,298.4285714285714L274.44444444444446,299.07142857142856L301.1111111111111,302.0357142857143L327.77777777777777,301.7857142857143L354.44444444444446,301.14285714285717L381.1111111111111,303.17857142857144L407.77777777777777,302.1071428571429" stroke="#4c78a8" stroke-width="2" opacity="1"></path></g></g><path class="foreground" aria-hidden="true" d="" display="none"></path></g></g><g class="mark-group role-title"><g transform="translate(200,-54)"><path class="background" aria-hidden="true" d="M0,0h0v0h0Z" pointer-events="none"></path><g><g class="mark-text role-title-text" role="graphics-symbol" aria-roledescription="title" aria-label="Title text '7-day average (light color: daily values) [2020-10-23]'" pointer-events="none"><text text-anchor="middle" transform="translate(0,10)" font-family="Roboto Condensed" font-size="13px" font-weight="normal" fill="#000" opacity="1"><tspan>7-day average (light color: daily values)</tspan><tspan x="0" dy="15">[2020-10-23]</tspan></text></g></g><path class="foreground" aria-hidden="true" d="" pointer-events="none" display="none"></path></g></g></g><path class="foreground" aria-hidden="true" d="" display="none"></path></g></g><g class="mark-group role-scope concat_1_group" role="graphics-object" aria-roledescription="group mark container"><g transform="translate(465,0)"><path class="background" aria-hidden="true" d="M0,0h400v400h-400Z" stroke="#ddd" stroke-width="0"></path><g><g class="mark-group role-axis" aria-hidden="true"><g transform="translate(0.5,0.5)"><path class="background" aria-hidden="true" d="M0,0h0v0h0Z" pointer-events="none"></path><g><g class="mark-rule role-axis-grid" pointer-events="none"><line transform="translate(0,400)" x2="400" y2="0" stroke="#ddd" stroke-width="1" opacity="1"></line><line transform="translate(0,350)" x2="400" y2="0" stroke="#ddd" stroke-width="1" opacity="1"></line><line transform="translate(0,300)" x2="400" y2="0" stroke="#ddd" stroke-width="1" opacity="1"></line><line transform="translate(0,250)" x2="400" y2="0" stroke="#ddd" stroke-width="1" opacity="1"></line><line transform="translate(0,200)" x2="400" y2="0" stroke="#ddd" stroke-width="1" opacity="1"></line><line transform="translate(0,150)" x2="400" y2="0" stroke="#ddd" stroke-width="1" opacity="1"></line><line transform="translate(0,100)" x2="400" y2="0" stroke="#ddd" stroke-width="1" opacity="1"></line><line transform="translate(0,50)" x2="400" y2="0" stroke="#ddd" stroke-width="1" opacity="1"></line><line transform="translate(0,0)" x2="400" y2="0" stroke="#ddd" stroke-width="1" opacity="1"></line></g></g><path class="foreground" aria-hidden="true" d="" pointer-events="none" display="none"></path></g></g><g class="mark-group role-axis" role="graphics-symbol" aria-roledescription="axis" aria-label="X-axis titled 'Date' for a time scale with values from October 07 to October 22"><g transform="translate(0.5,400.5)"><path class="background" aria-hidden="true" d="M0,0h0v0h0Z" pointer-events="none"></path><g><g class="mark-text role-axis-label" pointer-events="none"><text text-anchor="middle" transform="translate(34.44444444444444,10)" font-family="Roboto Condensed" font-size="10px" fill="#000" opacity="1">Oct 09</text><text text-anchor="middle" transform="translate(87.77777777777777,10)" font-family="Roboto Condensed" font-size="10px" fill="#000" opacity="1">Oct 11</text><text text-anchor="middle" transform="translate(141.11111111111111,10)" font-family="Roboto Condensed" font-size="10px" fill="#000" opacity="1">Oct 13</text><text text-anchor="middle" transform="translate(194.44444444444443,10)" font-family="Roboto Condensed" font-size="10px" fill="#000" opacity="1">Oct 15</text><text text-anchor="middle" transform="translate(247.77777777777777,10)" font-family="Roboto Condensed" font-size="10px" fill="#000" opacity="1">Oct 17</text><text text-anchor="middle" transform="translate(301.1111111111111,10)" font-family="Roboto Condensed" font-size="10px" fill="#000" opacity="1">Oct 19</text><text text-anchor="middle" transform="translate(354.44444444444446,10)" font-family="Roboto Condensed" font-size="10px" fill="#000" opacity="1">Oct 21</text></g><g class="mark-rule role-axis-domain" pointer-events="none"><line transform="translate(0,0)" x2="400" y2="0" stroke="lightgray" stroke-width="1" opacity="1"></line></g><g class="mark-text role-axis-title" pointer-events="none"><text text-anchor="middle" transform="translate(200,25)" font-family="Roboto Condensed" font-size="11px" font-weight="normal" fill="#000" opacity="1">Date</text></g></g><path class="foreground" aria-hidden="true" d="" pointer-events="none" display="none"></path></g></g><g class="mark-group role-axis" role="graphics-symbol" aria-roledescription="axis" aria-label="Y-axis titled 'Count' for a linear scale with values from 0 to 16,000"><g transform="translate(0.5,0.5)"><path class="background" aria-hidden="true" d="M0,0h0v0h0Z" pointer-events="none"></path><g><g class="mark-text role-axis-label" pointer-events="none"><text text-anchor="end" transform="translate(-2,403)" font-family="Roboto Condensed" font-size="10px" fill="#000" opacity="1">0</text><text text-anchor="end" transform="translate(-2,353)" font-family="Roboto Condensed" font-size="10px" fill="#000" opacity="1">2,000</text><text text-anchor="end" transform="translate(-2,303)" font-family="Roboto Condensed" font-size="10px" fill="#000" opacity="1">4,000</text><text text-anchor="end" transform="translate(-2,253)" font-family="Roboto Condensed" font-size="10px" fill="#000" opacity="1">6,000</text><text text-anchor="end" transform="translate(-2,203)" font-family="Roboto Condensed" font-size="10px" fill="#000" opacity="1">8,000</text><text text-anchor="end" transform="translate(-2,153)" font-family="Roboto Condensed" font-size="10px" fill="#000" opacity="1">10,000</text><text text-anchor="end" transform="translate(-2,103)" font-family="Roboto Condensed" font-size="10px" fill="#000" opacity="1">12,000</text><text text-anchor="end" transform="translate(-2,53)" font-family="Roboto Condensed" font-size="10px" fill="#000" opacity="1">14,000</text><text text-anchor="end" transform="translate(-2,3)" font-family="Roboto Condensed" font-size="10px" fill="#000" opacity="1">16,000</text></g><g class="mark-rule role-axis-domain" pointer-events="none"><line transform="translate(0,400)" x2="0" y2="-400" stroke="lightgray" stroke-width="1" opacity="1"></line></g><g class="mark-text role-axis-title" pointer-events="none"><text text-anchor="start" transform="translate(-45,-13)" font-family="Roboto Condensed" font-size="11px" font-weight="normal" fill="#000" opacity="1">Count</text></g></g><path class="foreground" aria-hidden="true" d="" pointer-events="none" display="none"></path></g></g><g class="mark-group role-scope concat_1_pathgroup" role="graphics-object" aria-roledescription="group mark container"><g transform="translate(0,0)"><path class="background" aria-hidden="true" d="M0,0h400v400h-400Z"></path><g><g class="mark-line role-mark concat_1_marks" clip-path="url(#clip7)" role="graphics-object" aria-roledescription="line mark container"><path aria-label="Type: Recovered; Date: Mar 01; Country: Finland; Confirmed: 6; Recovered: 1; Deaths: 0; Count: 1" role="graphics-symbol" aria-roledescription="line mark" d="M-5884.444444444444,399.975L-5857.777777777777,399.975L-5831.111111111111,399.975L-5804.444444444444,399.975L-5777.777777777778,399.975L-5751.111111111111,399.975L-5724.444444444444,399.975L-5697.777777777777,399.975L-5672.222222222222,399.975L-5645.555555555556,399.975L-5618.888888888889,399.975L-5592.222222222223,399.975L-5565.555555555556,399.975L-5538.888888888889,399.975L-5512.222222222222,399.75L-5485.555555555556,399.75L-5458.888888888889,399.75L-5432.222222222223,399.75L-5405.555555555556,399.75L-5378.888888888889,399.75L-5352.222222222223,399.75L-5325.555555555556,399.75L-5298.888888888889,399.75L-5272.222222222222,399.75L-5245.555555555556,399.75L-5218.888888888889,399.75L-5192.222222222223,399.75L-5165.555555555556,399.75L-5138.888888888889,399.75L-5112.222222222222,399.75L-5085.555555555556,399.75L-5058.888888888889,399.75L-5032.222222222223,392.5L-5005.555555555556,392.5L-4978.888888888889,392.5L-4952.222222222223,392.5L-4925.555555555556,392.5L-4898.888888888889,392.5L-4872.222222222222,392.5L-4845.555555555556,392.5L-4818.888888888889,392.5L-4792.222222222223,392.5L-4765.555555555556,392.5L-4738.888888888889,392.5L-4712.222222222222,392.5L-4685.555555555556,392.5L-4658.888888888889,357.5L-4632.222222222223,357.5L-4605.555555555556,357.5L-4578.888888888889,357.5L-4552.222222222223,350L-4525.555555555556,350L-4498.888888888889,350L-4472.222222222222,350L-4445.555555555556,337.5L-4418.888888888889,337.5L-4392.222222222223,337.5L-4365.555555555556,337.5L-4338.888888888889,330L-4312.222222222222,330L-4285.555555555556,325L-4258.888888888889,325L-4232.222222222223,325L-4205.555555555556,325L-4178.888888888889,312.5L-4152.222222222223,312.5L-4125.555555555556,312.5L-4098.888888888889,312.5L-4072.222222222222,300L-4045.5555555555557,300L-4018.888888888889,300L-3992.2222222222226,300L-3965.5555555555557,292.5L-3938.8888888888887,292.5L-3912.222222222222,292.5L-3885.5555555555557,275L-3858.8888888888887,275L-3832.222222222222,275L-3805.5555555555557,275L-3778.888888888889,275L-3752.2222222222226,280L-3725.555555555555,280L-3698.8888888888887,280L-3672.222222222222,280L-3645.5555555555557,280L-3618.888888888889,272.5L-3592.2222222222226,272.5L-3565.5555555555557,272.5L-3538.8888888888887,262.5L-3512.222222222222,262.5L-3485.5555555555557,262.5L-3458.8888888888887,262.5L-3432.222222222222,262.5L-3405.5555555555557,262.5L-3378.888888888889,262.5L-3352.2222222222226,254.99999999999997L-3325.555555555555,254.99999999999997L-3298.8888888888887,254.99999999999997L-3272.222222222222,254.99999999999997L-3245.5555555555557,254.99999999999997L-3218.888888888889,254.99999999999997L-3192.222222222222,254.99999999999997L-3165.5555555555557,245.00000000000003L-3138.888888888889,245.00000000000003L-3112.222222222222,245.00000000000003L-3085.5555555555557,245.00000000000003L-3058.8888888888887,245.00000000000003L-3032.222222222222,245.00000000000003L-3005.5555555555557,245.00000000000003L-2978.8888888888887,245.00000000000003L-2952.222222222222,245.00000000000003L-2925.5555555555557,245.00000000000003L-2898.8888888888887,245.00000000000003L-2872.222222222222,240L-2845.5555555555557,240L-2818.888888888889,235L-2792.222222222222,235L-2765.5555555555557,235L-2738.888888888889,235L-2712.222222222222,235L-2685.5555555555557,235L-2658.8888888888887,235L-2632.222222222222,232.50000000000003L-2605.5555555555557,232.50000000000003L-2578.8888888888887,232.50000000000003L-2552.222222222222,232.50000000000003L-2525.5555555555557,232.50000000000003L-2498.8888888888887,232.50000000000003L-2472.222222222222,232.50000000000003L-2445.5555555555557,229.99999999999997L-2418.888888888889,229.99999999999997L-2392.222222222222,229.99999999999997L-2365.5555555555557,229.99999999999997L-2338.888888888889,229.99999999999997L-2312.222222222222,229.99999999999997L-2285.5555555555557,229.99999999999997L-2258.8888888888887,228.00000000000003L-2232.222222222222,228.00000000000003L-2205.5555555555557,228.00000000000003L-2178.8888888888887,228.00000000000003L-2152.222222222222,228.00000000000003L-2125.5555555555557,228.00000000000003L-2098.8888888888887,228.00000000000003L-2072.222222222222,227L-2045.5555555555557,227L-2018.888888888889,227L-1992.2222222222222,227L-1965.5555555555554,227L-1938.888888888889,227L-1912.2222222222224,227L-1885.5555555555554,226.25000000000003L-1858.888888888889,226.25000000000003L-1832.2222222222222,226.25000000000003L-1805.5555555555557,226.25000000000003L-1778.8888888888887,226.25000000000003L-1752.2222222222222,226.25000000000003L-1725.5555555555557,226.25000000000003L-1698.8888888888887,225.5L-1672.2222222222222,225.5L-1645.5555555555557,225.5L-1618.888888888889,225.5L-1592.2222222222222,225.5L-1565.5555555555554,225.5L-1538.888888888889,225.5L-1512.2222222222222,223.74999999999997L-1485.5555555555557,223.74999999999997L-1458.888888888889,223.74999999999997L-1432.2222222222222,223.74999999999997L-1405.5555555555554,223.74999999999997L-1378.888888888889,223.74999999999997L-1352.2222222222222,223.74999999999997L-1325.5555555555557,222.5L-1298.888888888889,222.5L-1272.2222222222222,222.5L-1245.5555555555557,222.5L-1218.888888888889,222.5L-1192.2222222222222,222.5L-1165.5555555555554,222.5L-1138.888888888889,220.00000000000003L-1112.2222222222222,220.00000000000003L-1085.5555555555557,220.00000000000003L-1058.888888888889,220.00000000000003L-1032.2222222222222,220.00000000000003L-1005.5555555555555,220.00000000000003L-978.8888888888889,220.00000000000003L-952.2222222222222,216.25L-925.5555555555557,216.25L-898.8888888888889,216.25L-872.2222222222222,216.25L-845.5555555555555,216.25L-818.8888888888888,216.25L-792.2222222222223,216.25L-765.5555555555555,212.5L-738.8888888888889,212.5L-712.2222222222222,212.5L-685.5555555555555,212.5L-658.8888888888889,212.5L-632.2222222222222,212.5L-605.5555555555555,212.5L-578.8888888888889,207.50000000000003L-552.2222222222222,207.50000000000003L-525.5555555555555,207.50000000000003L-498.8888888888889,207.50000000000003L-472.22222222222223,207.50000000000003L-445.55555555555554,207.50000000000003L-418.8888888888889,207.50000000000003L-392.22222222222223,203.75L-365.55555555555554,203.75L-338.88888888888886,203.75L-312.22222222222223,203.75L-285.55555555555554,203.75L-258.8888888888889,203.75L-232.22222222222223,203.75L-205.55555555555554,197.5L-178.88888888888889,197.5L-152.22222222222223,197.5L-125.55555555555556,197.5L-98.88888888888889,197.5L-72.22222222222221,197.5L-45.55555555555556,197.5L-18.88888888888889,187.5L7.777777777777778,187.5L34.44444444444444,187.5L61.111111111111114,187.5L87.77777777777777,187.5L114.44444444444444,187.5L141.11111111111111,187.5L167.77777777777777,172.5L194.44444444444443,172.5L221.11111111111111,172.5L247.77777777777777,172.5L274.44444444444446,172.5L301.1111111111111,172.5L327.77777777777777,172.5L354.44444444444446,154.99999999999997L381.1111111111111,154.99999999999997L407.77777777777777,154.99999999999997" stroke="#e45756" stroke-width="2" opacity="0.7"></path></g></g><path class="foreground" aria-hidden="true" d="" display="none"></path></g><g transform="translate(0,0)"><path class="background" aria-hidden="true" d="M0,0h400v400h-400Z"></path><g><g class="mark-line role-mark concat_1_marks" clip-path="url(#clip8)" role="graphics-object" aria-roledescription="line mark container"><path aria-label="Type: Deaths; Date: Mar 01; Country: Finland; Confirmed: 6; Recovered: 1; Deaths: 0; Count: 0" role="graphics-symbol" aria-roledescription="line mark" d="M-5884.444444444444,400L-5857.777777777777,400L-5831.111111111111,400L-5804.444444444444,400L-5777.777777777778,400L-5751.111111111111,400L-5724.444444444444,400L-5697.777777777777,400L-5672.222222222222,400L-5645.555555555556,400L-5618.888888888889,400L-5592.222222222223,400L-5565.555555555556,400L-5538.888888888889,400L-5512.222222222222,400L-5485.555555555556,400L-5458.888888888889,400L-5432.222222222223,400L-5405.555555555556,400L-5378.888888888889,400L-5352.222222222223,399.975L-5325.555555555556,399.975L-5298.888888888889,399.975L-5272.222222222222,399.975L-5245.555555555556,399.925L-5218.888888888889,399.875L-5192.222222222223,399.825L-5165.555555555556,399.775L-5138.888888888889,399.725L-5112.222222222222,399.675L-5085.555555555556,399.575L-5058.888888888889,399.575L-5032.222222222223,399.525L-5005.555555555556,399.5L-4978.888888888889,399.375L-4952.222222222223,399.3L-4925.555555555556,399.32500000000005L-4898.888888888889,399.15L-4872.222222222222,399L-4845.555555555556,398.95L-4818.888888888889,398.8L-4792.222222222223,398.77500000000003L-4765.555555555556,398.6L-4738.888888888889,398.52500000000003L-4712.222222222222,398.4L-4685.555555555556,398.20000000000005L-4658.888888888889,398.125L-4632.222222222223,397.95L-4605.555555555556,397.75L-4578.888888888889,397.65000000000003L-4552.222222222223,397.54999999999995L-4525.555555555556,396.475L-4498.888888888889,396.27500000000003L-4472.222222222222,395.7L-4445.555555555556,395.575L-4418.888888888889,395.35L-4392.222222222223,395.25L-4365.555555555556,395.175L-4338.888888888889,395.025L-4312.222222222222,394.85L-4285.555555555556,394.72499999999997L-4258.888888888889,394.55L-4232.222222222223,394.5L-4205.555555555556,394.25L-4178.888888888889,394L-4152.222222222223,393.84999999999997L-4125.555555555556,393.7L-4098.888888888889,393.625L-4072.222222222222,393.5L-4045.5555555555557,393.375L-4018.888888888889,393.325L-3992.2222222222226,393.22499999999997L-3965.5555555555557,393.125L-3938.8888888888887,392.9L-3912.222222222222,392.825L-3885.5555555555557,392.675L-3858.8888888888887,392.575L-3832.222222222222,392.55L-3805.5555555555557,392.5L-3778.888888888889,392.475L-3752.2222222222226,392.4L-3725.555555555555,392.35L-3698.8888888888887,392.35L-3672.222222222222,392.35L-3645.5555555555557,392.325L-3618.888888888889,392.3L-3592.2222222222226,392.2L-3565.5555555555557,392.175L-3538.8888888888887,392.175L-3512.222222222222,392.15L-3485.5555555555557,392.09999999999997L-3458.8888888888887,392L-3432.222222222222,392.05L-3405.5555555555557,392L-3378.888888888889,391.975L-3352.2222222222226,391.95000000000005L-3325.555555555555,391.95000000000005L-3298.8888888888887,391.95000000000005L-3272.222222222222,391.925L-3245.5555555555557,391.925L-3218.888888888889,391.9L-3192.222222222222,391.9L-3165.5555555555557,391.875L-3138.888888888889,391.875L-3112.222222222222,391.875L-3085.5555555555557,391.84999999999997L-3058.8888888888887,391.84999999999997L-3032.222222222222,391.84999999999997L-3005.5555555555557,391.84999999999997L-2978.8888888888887,391.84999999999997L-2952.222222222222,391.84999999999997L-2925.5555555555557,391.84999999999997L-2898.8888888888887,391.84999999999997L-2872.222222222222,391.825L-2845.5555555555557,391.825L-2818.888888888889,391.825L-2792.222222222222,391.825L-2765.5555555555557,391.8L-2738.888888888889,391.8L-2712.222222222222,391.8L-2685.5555555555557,391.8L-2658.8888888888887,391.8L-2632.222222222222,391.8L-2605.5555555555557,391.8L-2578.8888888888887,391.775L-2552.222222222222,391.775L-2525.5555555555557,391.775L-2498.8888888888887,391.775L-2472.222222222222,391.775L-2445.5555555555557,391.775L-2418.888888888889,391.775L-2392.222222222222,391.775L-2365.5555555555557,391.775L-2338.888888888889,391.775L-2312.222222222222,391.775L-2285.5555555555557,391.775L-2258.8888888888887,391.8L-2232.222222222222,391.8L-2205.5555555555557,391.8L-2178.8888888888887,391.8L-2152.222222222222,391.8L-2125.5555555555557,391.8L-2098.8888888888887,391.8L-2072.222222222222,391.8L-2045.5555555555557,391.8L-2018.888888888889,391.775L-1992.2222222222222,391.775L-1965.5555555555554,391.775L-1938.888888888889,391.775L-1912.2222222222224,391.775L-1885.5555555555554,391.775L-1858.888888888889,391.775L-1832.2222222222222,391.775L-1805.5555555555557,391.775L-1778.8888888888887,391.775L-1752.2222222222222,391.775L-1725.5555555555557,391.725L-1698.8888888888887,391.725L-1672.2222222222222,391.725L-1645.5555555555557,391.725L-1618.888888888889,391.725L-1592.2222222222222,391.725L-1565.5555555555554,391.675L-1538.888888888889,391.675L-1512.2222222222222,391.675L-1485.5555555555557,391.675L-1458.888888888889,391.675L-1432.2222222222222,391.675L-1405.5555555555554,391.675L-1378.888888888889,391.65000000000003L-1352.2222222222222,391.65000000000003L-1325.5555555555557,391.65000000000003L-1298.888888888889,391.65000000000003L-1272.2222222222222,391.65000000000003L-1245.5555555555557,391.65000000000003L-1218.888888888889,391.65000000000003L-1192.2222222222222,391.625L-1165.5555555555554,391.625L-1138.888888888889,391.625L-1112.2222222222222,391.625L-1085.5555555555557,391.625L-1058.888888888889,391.625L-1032.2222222222222,391.625L-1005.5555555555555,391.59999999999997L-978.8888888888889,391.59999999999997L-952.2222222222222,391.59999999999997L-925.5555555555557,391.59999999999997L-898.8888888888889,391.59999999999997L-872.2222222222222,391.59999999999997L-845.5555555555555,391.59999999999997L-818.8888888888888,391.59999999999997L-792.2222222222223,391.59999999999997L-765.5555555555555,391.575L-738.8888888888889,391.575L-712.2222222222222,391.575L-685.5555555555555,391.575L-658.8888888888889,391.575L-632.2222222222222,391.575L-605.5555555555555,391.525L-578.8888888888889,391.525L-552.2222222222222,391.525L-525.5555555555555,391.525L-498.8888888888889,391.525L-472.22222222222223,391.525L-445.55555555555554,391.475L-418.8888888888889,391.475L-392.22222222222223,391.425L-365.55555555555554,391.425L-338.88888888888886,391.425L-312.22222222222223,391.425L-285.55555555555554,391.425L-258.8888888888889,391.375L-232.22222222222223,391.375L-205.55555555555554,391.40000000000003L-178.88888888888889,391.40000000000003L-152.22222222222223,391.375L-125.55555555555556,391.375L-98.88888888888889,391.375L-72.22222222222221,391.35L-45.55555555555556,391.35L-18.88888888888889,391.35L7.777777777777778,391.35L34.44444444444444,391.35L61.111111111111114,391.35L87.77777777777777,391.35L114.44444444444444,391.35L141.11111111111111,391.35L167.77777777777777,391.25L194.44444444444443,391.25L221.11111111111111,391.225L247.77777777777777,391.225L274.44444444444446,391.225L301.1111111111111,391.225L327.77777777777777,391.225L354.44444444444446,391.125L381.1111111111111,391.125L407.77777777777777,391.175" stroke="#f58518" stroke-width="2" opacity="0.7"></path></g></g><path class="foreground" aria-hidden="true" d="" display="none"></path></g><g transform="translate(0,0)"><path class="background" aria-hidden="true" d="M0,0h400v400h-400Z"></path><g><g class="mark-line role-mark concat_1_marks" clip-path="url(#clip9)" role="graphics-object" aria-roledescription="line mark container"><path aria-label="Type: Confirmed; Date: Mar 01; Country: Finland; Confirmed: 6; Recovered: 1; Deaths: 0; Count: 6" role="graphics-symbol" aria-roledescription="line mark" d="M-5884.444444444444,399.85L-5857.777777777777,399.85L-5831.111111111111,399.85L-5804.444444444444,399.85L-5777.777777777778,399.7L-5751.111111111111,399.625L-5724.444444444444,399.625L-5697.777777777777,399.425L-5672.222222222222,399.25L-5645.555555555556,399L-5618.888888888889,398.52500000000003L-5592.222222222223,398.52500000000003L-5565.555555555556,396.125L-5538.888888888889,394.375L-5512.222222222222,393.9L-5485.555555555556,393.07500000000005L-5458.888888888889,391.975L-5432.222222222223,391.59999999999997L-5405.555555555556,390L-5378.888888888889,388.75L-5352.222222222223,386.925L-5325.555555555556,384.35L-5298.888888888889,382.5L-5272.222222222222,380.2L-5245.555555555556,378L-5218.888888888889,376.05L-5192.222222222223,373.97499999999997L-5165.555555555556,370.825L-5138.888888888889,369L-5112.222222222222,366.2L-5085.555555555556,364.55L-5058.888888888889,363.85L-5032.222222222223,362.04999999999995L-5005.555555555556,359.625L-4978.888888888889,352.95L-4952.222222222223,351.825L-4925.555555555556,345.6L-4898.888888888889,342.3L-4872.222222222222,337.825L-4845.555555555556,334.875L-4818.888888888889,330.775L-4792.222222222223,327.375L-4765.555555555556,325.65L-4738.888888888889,323.4L-4712.222222222222,320.975L-4685.555555555556,319.075L-4658.888888888889,315.775L-4632.222222222223,312.775L-4605.555555555556,307.97499999999997L-4578.888888888889,305.425L-4552.222222222223,303.3L-4525.555555555556,299.65000000000003L-4498.888888888889,296.77500000000003L-4472.222222222222,292.90000000000003L-4445.555555555556,290.125L-4418.888888888889,288.125L-4392.222222222223,285.59999999999997L-4365.555555555556,282.625L-4338.888888888889,281.5L-4312.222222222222,277.35L-4285.555555555556,275.125L-4258.888888888889,273.725L-4232.222222222223,270.6L-4205.555555555556,268.65000000000003L-4178.888888888889,266.825L-4152.222222222223,264.70000000000005L-4125.555555555556,260.675L-4098.888888888889,258.175L-4072.222222222222,256.55L-4045.5555555555557,253.00000000000003L-4018.888888888889,250.95000000000002L-3992.2222222222226,250.4L-3965.5555555555557,249.925L-3938.8888888888887,248.65L-3912.222222222222,246.375L-3885.5555555555557,244.3L-3858.8888888888887,242.85000000000002L-3832.222222222222,241.32499999999996L-3805.5555555555557,240.50000000000003L-3778.888888888889,240.02499999999998L-3752.2222222222226,238.925L-3725.555555555555,237.67499999999998L-3698.8888888888887,236.57500000000002L-3672.222222222222,235.8L-3645.5555555555557,235.52499999999998L-3618.888888888889,235.025L-3592.2222222222226,234.3L-3565.5555555555557,232.7L-3538.8888888888887,231.42499999999998L-3512.222222222222,230.6L-3485.5555555555557,229.35L-3458.8888888888887,228.525L-3432.222222222222,227.875L-3405.5555555555557,227.825L-3378.888888888889,227.22500000000002L-3352.2222222222226,227.22500000000002L-3325.555555555555,226.47500000000002L-3298.8888888888887,225.89999999999998L-3272.222222222222,225.475L-3245.5555555555557,224.97499999999997L-3218.888888888889,224.375L-3192.222222222222,224.00000000000003L-3165.5555555555557,223.4L-3138.888888888889,223.17499999999998L-3112.222222222222,222.82500000000002L-3085.5555555555557,222.40000000000003L-3058.8888888888887,222.29999999999998L-3032.222222222222,222.2L-3005.5555555555557,222.075L-2978.8888888888887,222.025L-2952.222222222222,221.675L-2925.5555555555557,221.45000000000002L-2898.8888888888887,221.42499999999998L-2872.222222222222,221.4L-2845.5555555555557,221.12499999999997L-2818.888888888889,220.82500000000002L-2792.222222222222,220.7L-2765.5555555555557,220.22500000000002L-2738.888888888889,220.04999999999998L-2712.222222222222,220.04999999999998L-2685.5555555555557,219.775L-2658.8888888888887,219.64999999999998L-2632.222222222222,219.1L-2605.5555555555557,218.97500000000002L-2578.8888888888887,218.95L-2552.222222222222,218.79999999999998L-2525.5555555555557,218.675L-2498.8888888888887,218.57500000000002L-2472.222222222222,218.45L-2445.5555555555557,218.375L-2418.888888888889,218.175L-2392.222222222222,218.025L-2365.5555555555557,217.725L-2338.888888888889,217.64999999999998L-2312.222222222222,217.625L-2285.5555555555557,217.475L-2258.8888888888887,217.60000000000002L-2232.222222222222,217.675L-2205.5555555555557,217.475L-2178.8888888888887,217.05L-2152.222222222222,216.62499999999997L-2125.5555555555557,216.5L-2098.8888888888887,216.22500000000002L-2072.222222222222,215.95L-2045.5555555555557,215.7L-2018.888888888889,215.50000000000003L-1992.2222222222222,215.3L-1965.5555555555554,215.17499999999998L-1938.888888888889,215.05L-1912.2222222222224,214.9L-1885.5555555555554,214.65L-1858.888888888889,214.425L-1832.2222222222222,214.2L-1805.5555555555557,213.925L-1778.8888888888887,213.675L-1752.2222222222222,213.34999999999997L-1725.5555555555557,212.92499999999998L-1698.8888888888887,212.2L-1672.2222222222222,211.7L-1645.5555555555557,211.15L-1618.888888888889,210.8L-1592.2222222222222,210.4L-1565.5555555555554,209.97500000000002L-1538.888888888889,209.42499999999998L-1512.2222222222222,208.95000000000002L-1485.5555555555557,207.925L-1458.888888888889,207.50000000000003L-1432.2222222222222,207.00000000000003L-1405.5555555555554,206.725L-1378.888888888889,206.20000000000002L-1352.2222222222222,205.6L-1325.5555555555557,204.875L-1298.888888888889,203.95000000000005L-1272.2222222222222,203.225L-1245.5555555555557,202.35000000000002L-1218.888888888889,202L-1192.2222222222222,201.55000000000004L-1165.5555555555554,200.475L-1138.888888888889,199.95L-1112.2222222222222,199.525L-1085.5555555555557,198.95000000000002L-1058.888888888889,198.775L-1032.2222222222222,198.075L-1005.5555555555555,197.85L-978.8888888888889,196.45000000000002L-952.2222222222222,195.97500000000002L-925.5555555555557,195.00000000000003L-898.8888888888889,194.375L-872.2222222222222,193.47500000000002L-845.5555555555555,192.725L-818.8888888888888,191.825L-792.2222222222223,191.57500000000002L-765.5555555555555,189.25L-738.8888888888889,188.275L-712.2222222222222,187.2L-685.5555555555555,186.075L-658.8888888888889,185.5L-632.2222222222222,184.325L-605.5555555555555,181.875L-578.8888888888889,181.25L-552.2222222222222,180.025L-525.5555555555555,178.54999999999998L-498.8888888888889,176.95L-472.22222222222223,175.5L-445.55555555555554,173.85000000000002L-418.8888888888889,170.125L-392.22222222222223,167.79999999999998L-365.55555555555554,165.525L-338.88888888888886,162.9L-312.22222222222223,160.575L-285.55555555555554,157.95L-258.8888888888889,156.42499999999998L-232.22222222222223,152.70000000000002L-205.55555555555554,150.2L-178.88888888888889,147.425L-152.22222222222223,143.9L-125.55555555555556,140.225L-98.88888888888889,136.54999999999998L-72.22222222222221,132.45L-45.55555555555556,126.77499999999999L-18.88888888888889,123.775L7.777777777777778,116.37499999999999L34.44444444444444,110.5L61.111111111111114,103.77499999999999L87.77777777777777,100.05000000000001L114.44444444444444,94.7L141.11111111111111,87.52499999999999L167.77777777777777,82.42500000000001L194.44444444444443,76.39999999999998L221.11111111111111,71.67500000000003L247.77777777777777,67.67500000000001L274.44444444444446,64.4L301.1111111111111,61.12500000000001L327.77777777777777,53.77499999999999L354.44444444444446,48.22500000000001L381.1111111111111,43.62499999999998L407.77777777777777,38.14999999999999" stroke="#4c78a8" stroke-width="2" opacity="0.7"></path></g></g><path class="foreground" aria-hidden="true" d="" display="none"></path></g></g><g class="mark-group role-title"><g transform="translate(200,-54)"><path class="background" aria-hidden="true" d="M0,0h0v0h0Z" pointer-events="none"></path><g><g class="mark-text role-title-text" role="graphics-symbol" aria-roledescription="title" aria-label="Title text 'Total [2020-10-23]'" pointer-events="none"><text text-anchor="middle" transform="translate(0,10)" font-family="Roboto Condensed" font-size="13px" font-weight="normal" fill="#000" opacity="1"><tspan>Total</tspan><tspan x="0" dy="15">[2020-10-23]</tspan></text></g></g><path class="foreground" aria-hidden="true" d="" pointer-events="none" display="none"></path></g></g></g><path class="foreground" aria-hidden="true" d="" display="none"></path></g></g><g class="mark-group role-legend" role="graphics-symbol" aria-roledescription="legend" aria-label="Symbol legend for stroke color with 3 values: Confirmed, Deaths, Recovered"><g transform="translate(883,0)"><path class="background" aria-hidden="true" d="M0,0h58v37h-58Z" pointer-events="none"></path><g><g class="mark-group role-legend-entry"><g transform="translate(0,0)"><path class="background" aria-hidden="true" d="M0,0h0v0h0Z" pointer-events="none"></path><g><g class="mark-group role-scope" role="graphics-object" aria-roledescription="group mark container"><g transform="translate(0,0)"><path class="background" aria-hidden="true" d="M0,0h58v11h-58Z" pointer-events="none" opacity="1"></path><g><g class="mark-symbol role-legend-symbol" pointer-events="none"><path transform="translate(6,6)" d="M-5,0L5,0" stroke="#4c78a8" stroke-width="1.5" opacity="0.2"></path></g><g class="mark-text role-legend-label" pointer-events="none"><text text-anchor="start" transform="translate(16,9)" font-family="Roboto Condensed" font-size="10px" fill="#000" opacity="1">Confirmed</text></g></g><path class="foreground" aria-hidden="true" d="" pointer-events="none" display="none"></path></g><g transform="translate(0,13)"><path class="background" aria-hidden="true" d="M0,0h58v11h-58Z" pointer-events="none" opacity="1"></path><g><g class="mark-symbol role-legend-symbol" pointer-events="none"><path transform="translate(6,6)" d="M-5,0L5,0" stroke="#f58518" stroke-width="1.5" opacity="0.2"></path></g><g class="mark-text role-legend-label" pointer-events="none"><text text-anchor="start" transform="translate(16,9)" font-family="Roboto Condensed" font-size="10px" fill="#000" opacity="1">Deaths</text></g></g><path class="foreground" aria-hidden="true" d="" pointer-events="none" display="none"></path></g><g transform="translate(0,26)"><path class="background" aria-hidden="true" d="M0,0h58v11h-58Z" pointer-events="none" opacity="1"></path><g><g class="mark-symbol role-legend-symbol" pointer-events="none"><path transform="translate(6,6)" d="M-5,0L5,0" stroke="#e45756" stroke-width="1.5" opacity="0.2"></path></g><g class="mark-text role-legend-label" pointer-events="none"><text text-anchor="start" transform="translate(16,9)" font-family="Roboto Condensed" font-size="10px" fill="#000" opacity="1">Recovered</text></g></g><path class="foreground" aria-hidden="true" d="" pointer-events="none" display="none"></path></g></g></g><path class="foreground" aria-hidden="true" d="" pointer-events="none" display="none"></path></g></g></g><path class="foreground" aria-hidden="true" d="" pointer-events="none" display="none"></path></g></g></g><path class="foreground" aria-hidden="true" d="" display="none"></path></g></g></g></svg>