<svg class="marks" width="996" height="491" viewBox="0 0 996 491" version="1.1" xmlns="http://www.w3.org/2000/svg" xmlns:xlink="http://www.w3.org/1999/xlink"><defs><clipPath id="clip1"><rect x="0" y="0" width="400" height="400"></rect></clipPath><clipPath id="clip2"><rect x="0" y="0" width="400" height="400"></rect></clipPath><clipPath id="clip3"><rect x="0" y="0" width="400" height="400"></rect></clipPath><clipPath id="clip4"><rect x="0" y="0" width="400" height="400"></rect></clipPath><clipPath id="clip5"><rect x="0" y="0" width="400" height="400"></rect></clipPath><clipPath id="clip6"><rect x="0" y="0" width="400" height="400"></rect></clipPath><clipPath id="clip7"><rect x="0" y="0" width="400" height="400"></rect></clipPath><clipPath id="clip8"><rect x="0" y="0" width="400" height="400"></rect></clipPath><clipPath id="clip9"><rect x="0" y="0" width="400" height="400"></rect></clipPath></defs><rect width="996" height="491" fill="white"></rect><g fill="none" stroke-miterlimit="10" transform="translate(50,59)"><g class="mark-group role-frame root" role="graphics-object" aria-roledescription="group mark container"><g transform="translate(0,0)"><path class="background" aria-hidden="true" d="M0,0h0v400h0Z"></path><g><g class="mark-group role-scope concat_0_group" role="graphics-object" aria-roledescription="group mark container"><g transform="translate(0,0)"><path class="background" aria-hidden="true" d="M0,0h400v400h-400Z" stroke="#ddd" stroke-width="0"></path><g><g class="mark-group role-axis" aria-hidden="true"><g transform="translate(0.5,0.5)"><path class="background" aria-hidden="true" d="M0,0h0v0h0Z" pointer-events="none"></path><g><g class="mark-rule role-axis-grid" pointer-events="none"><line transform="translate(0,400)" x2="400" y2="0" stroke="#ddd" stroke-width="1" opacity="1"></line><line transform="translate(0,350)" x2="400" y2="0" stroke="#ddd" stroke-width="1" opacity="1"></line><line transform="translate(0,300)" x2="400" y2="0" stroke="#ddd" stroke-width="1" opacity="1"></line><line transform="translate(0,250)" x2="400" y2="0" stroke="#ddd" stroke-width="1" opacity="1"></line><line transform="translate(0,200)" x2="400" y2="0" stroke="#ddd" stroke-width="1" opacity="1"></line><line transform="translate(0,150)" x2="400" y2="0" stroke="#ddd" stroke-width="1" opacity="1"></line><line transform="translate(0,100)" x2="400" y2="0" stroke="#ddd" stroke-width="1" opacity="1"></line><line transform="translate(0,50)" x2="400" y2="0" stroke="#ddd" stroke-width="1" opacity="1"></line><line transform="translate(0,0)" x2="400" y2="0" stroke="#ddd" stroke-width="1" opacity="1"></line></g></g><path class="foreground" aria-hidden="true" d="" pointer-events="none" display="none"></path></g></g><g class="mark-group role-axis" role="graphics-symbol" aria-roledescription="axis" aria-label="X-axis titled 'Date' for a time scale with values from October 07 to October 22"><g transform="translate(0.5,400.5)"><path class="background" aria-hidden="true" d="M0,0h0v0h0Z" pointer-events="none"></path><g><g class="mark-text role-axis-label" pointer-events="none"><text text-anchor="middle" transform="translate(34.44444444444444,10)" font-family="Roboto Condensed" font-size="10px" fill="#000" opacity="1">Oct 09</text><text text-anchor="middle" transform="translate(87.77777777777777,10)" font-family="Roboto Condensed" font-size="10px" fill="#000" opacity="1">Oct 11</text><text text-anchor="middle" transform="translate(141.11111111111111,10)" font-family="Roboto Condensed" font-size="10px" fill="#000" opacity="1">Oct 13</text><text text-anchor="middle" transform="translate(194.44444444444443,10)" font-family="Roboto Condensed" font-size="10px" fill="#000" opacity="1">Oct 15</text><text text-anchor="middle" transform="translate(247.77777777777777,10)" font-family="Roboto Condensed" font-size="10px" fill="#000" opacity="1">Oct 17</text><text text-anchor="middle" transform="translate(301.1111111111111,10)" font-family="Roboto Condensed" font-size="10px" fill="#000" opacity="1">Oct 19</text><text text-anchor="middle" transform="translate(354.44444444444446,10)" font-family="Roboto Condensed" font-size="10px" fill="#000" opacity="1">Oct 21</text></g><g class="mark-rule role-axis-domain" pointer-events="none"><line transform="translate(0,0)" x2="400" y2="0" stroke="lightgray" stroke-width="1" opacity="1"></line></g><g class="mark-text role-axis-title" pointer-events="none"><text text-anchor="middle" transform="translate(200,25)" font-family="Roboto Condensed" font-size="11px" font-weight="normal" fill="#000" opacity="1">Date</text></g></g><path class="foreground" aria-hidden="true" d="" pointer-events="none" display="none"></path></g></g><g class="mark-group role-axis" role="graphics-symbol" aria-roledescription="axis" aria-label="Y-axis titled 'Count' for a linear scale with values from 0 to 160,000"><g transform="translate(0.5,0.5)"><path class="background" aria-hidden="true" d="M0,0h0v0h0Z" pointer-events="none"></path><g><g class="mark-text role-axis-label" pointer-events="none"><text text-anchor="end" transform="translate(-2,403)" font-family="Roboto Condensed" font-size="10px" fill="#000" opacity="1">0</text><text text-anchor="end" transform="translate(-2,353)" font-family="Roboto Condensed" font-size="10px" fill="#000" opacity="1">20,000</text><text text-anchor="end" transform="translate(-2,303)" font-family="Roboto Condensed" font-size="10px" fill="#000" opacity="1">40,000</text><text text-anchor="end" transform="translate(-2,253)" font-family="Roboto Condensed" font-size="10px" fill="#000" opacity="1">60,000</text><text text-anchor="end" transform="translate(-2,203)" font-family="Roboto Condensed" font-size="10px" fill="#000" opacity="1">80,000</text><text text-anchor="end" transform="translate(-2,153)" font-family="Roboto Condensed" font-size="10px" fill="#000" opacity="1">100,000</text><text text-anchor="end" transform="translate(-2,103)" font-family="Roboto Condensed" font-size="10px" fill="#000" opacity="1">120,000</text><text text-anchor="end" transform="translate(-2,53)" font-family="Roboto Condensed" font-size="10px" fill="#000" opacity="1">140,000</text><text text-anchor="end" transform="translate(-2,3)" font-family="Roboto Condensed" font-size="10px" fill="#000" opacity="1">160,000</text></g><g class="mark-rule role-axis-domain" pointer-events="none"><line transform="translate(0,400)" x2="0" y2="-400" stroke="lightgray" stroke-width="1" opacity="1"></line></g><g class="mark-text role-axis-title" pointer-events="none"><text text-anchor="start" transform="translate(-45,-13)" font-family="Roboto Condensed" font-size="11px" font-weight="normal" fill="#000" opacity="1">Count</text></g></g><path class="foreground" aria-hidden="true" d="" pointer-events="none" display="none"></path></g></g><g class="mark-group role-scope concat_0_layer_0_pathgroup" role="graphics-object" aria-roledescription="group mark container"><g transform="translate(0,0)"><path class="background" aria-hidden="true" d="M0,0h400v400h-400Z"></path><g><g class="mark-line role-mark concat_0_layer_0_marks" clip-path="url(#clip1)" role="graphics-object" aria-roledescription="line mark container"><path aria-label="Type: Recovered; Date: Mar 01; Count: 0" role="graphics-symbol" aria-roledescription="line mark" d="M-5884.444444444444,400L-5857.777777777777,400L-5831.111111111111,400L-5804.444444444444,400L-5777.777777777778,400L-5751.111111111111,400L-5724.444444444444,400L-5697.777777777777,400L-5672.222222222222,400L-5645.555555555556,400L-5618.888888888889,400L-5592.222222222223,400L-5565.555555555556,400L-5538.888888888889,400L-5512.222222222222,400L-5485.555555555556,399.9975L-5458.888888888889,399.9975L-5432.222222222223,400L-5405.555555555556,400L-5378.888888888889,400L-5352.222222222223,400L-5325.555555555556,400L-5298.888888888889,400L-5272.222222222222,400L-5245.555555555556,400L-5218.888888888889,399.98999999999995L-5192.222222222223,400L-5165.555555555556,400L-5138.888888888889,400L-5112.222222222222,399.715L-5085.555555555556,399.9825L-5058.888888888889,400L-5032.222222222223,400L-5005.555555555556,400L-4978.888888888889,400L-4952.222222222223,400L-4925.555555555556,400L-4898.888888888889,400L-4872.222222222222,400L-4845.555555555556,399.885L-4818.888888888889,400L-4792.222222222223,400L-4765.555555555556,400L-4738.888888888889,400L-4712.222222222222,392.8175L-4685.555555555556,372.54999999999995L-4658.888888888889,400L-4632.222222222223,400L-4605.555555555556,400L-4578.888888888889,379.74L-4552.222222222223,400L-4525.555555555556,397.8475L-4498.888888888889,394.1825L-4472.222222222222,396.8625L-4445.555555555556,397.295L-4418.888888888889,396.2375L-4392.222222222223,397.52L-4365.555555555556,397.525L-4338.888888888889,396.495L-4312.222222222222,396.03000000000003L-4285.555555555556,395.4925L-4258.888888888889,394.74L-4232.222222222223,392.755L-4205.555555555556,394.865L-4178.888888888889,392.94L-4152.222222222223,393.985L-4125.555555555556,392.1275L-4098.888888888889,390.05L-4072.222222222222,390.1325L-4045.5555555555557,394.03000000000003L-4018.888888888889,391.82L-3992.2222222222226,393.9325L-3965.5555555555557,386.9675L-3938.8888888888887,385.4325L-3912.222222222222,397.3625L-3885.5555555555557,386.27250000000004L-3858.8888888888887,388.245L-3832.222222222222,388.875L-3805.5555555555557,384.1575L-3778.888888888889,384.1625L-3752.2222222222226,375.27750000000003L-3725.555555555555,376.8075L-3698.8888888888887,376.32500000000005L-3672.222222222222,382.1075L-3645.5555555555557,381.69L-3618.888888888889,390.195L-3592.2222222222226,388.1L-3565.5555555555557,379.865L-3538.8888888888887,372.60749999999996L-3512.222222222222,370.32L-3485.5555555555557,371.46L-3458.8888888888887,385.8425L-3432.222222222222,388.6875L-3405.5555555555557,368.60499999999996L-3378.888888888889,362.5525L-3352.2222222222226,359.135L-3325.555555555555,370.0575L-3298.8888888888887,374.4775L-3272.222222222222,382.9925L-3245.5555555555557,164.23749999999998L-3218.888888888889,353.79999999999995L-3192.222222222222,357.0525L-3165.5555555555557,359.8775L-3138.888888888889,362.10499999999996L-3112.222222222222,364.2175L-3085.5555555555557,375.7375L-3058.8888888888887,378.58L-3032.222222222222,369.26L-3005.5555555555557,322.39750000000004L-2978.8888888888887,366.16499999999996L-2952.222222222222,357.3725L-2925.5555555555557,337.13L-2898.8888888888887,371.6525L-2872.222222222222,365.955L-2845.5555555555557,334.4325L-2818.888888888889,318.735L-2792.222222222222,352.3625L-2765.5555555555557,342.8125L-2738.888888888889,336.71L-2712.222222222222,354.2425L-2685.5555555555557,370.5175L-2658.8888888888887,323.7325L-2632.222222222222,326.69L-2605.5555555555557,49.87499999999998L-2578.8888888888887,332.6925L-2552.222222222222,384.71000000000004L-2525.5555555555557,304.215L-2498.8888888888887,316.2575L-2472.222222222222,288.82500000000005L-2445.5555555555557,317.91999999999996L-2418.888888888889,320.9925L-2392.222222222222,285.215L-2365.5555555555557,333.1825L-2338.888888888889,348.1125L-2312.222222222222,333.97999999999996L-2285.5555555555557,319.565L-2258.8888888888887,333.3175L-2232.222222222222,281.4175L-2205.5555555555557,322.5275L-2178.8888888888887,352.78000000000003L-2152.222222222222,370.84000000000003L-2125.5555555555557,261.93L-2098.8888888888887,297.40250000000003L-2072.222222222222,308.40999999999997L-2045.5555555555557,329.155L-2018.888888888889,217.74750000000003L-1992.2222222222222,169.63750000000002L-1965.5555555555554,331.115L-1938.888888888889,315.68L-1912.2222222222224,344.73L-1885.5555555555554,264.8675L-1858.888888888889,314.98749999999995L-1832.2222222222222,269.88250000000005L-1805.5555555555557,327.18L-1778.8888888888887,337.765L-1752.2222222222222,309.75L-1725.5555555555557,253.73000000000002L-1698.8888888888887,317.8075L-1672.2222222222222,299.5475L-1645.5555555555557,295.6075L-1618.888888888889,276.905L-1592.2222222222222,311.38500000000005L-1565.5555555555554,315.3825L-1538.888888888889,253.73000000000002L-1512.2222222222222,257.775L-1485.5555555555557,362.82L-1458.888888888889,160.29749999999999L-1432.2222222222222,385.2575L-1405.5555555555554,319.6525L-1378.888888888889,289.84250000000003L-1352.2222222222222,269.58500000000004L-1325.5555555555557,273.2875L-1298.888888888889,294.0325L-1272.2222222222222,371.9L-1245.5555555555557,253.98000000000002L-1218.888888888889,315.455L-1192.2222222222222,328.82L-1165.5555555555554,259.2625L-1138.888888888889,275.26L-1112.2222222222222,299.0025L-1085.5555555555557,310.15749999999997L-1058.888888888889,291.495L-1032.2222222222222,311.425L-1005.5555555555555,322.56L-978.8888888888889,208.37750000000003L-952.2222222222222,294.8275L-925.5555555555557,294.685L-898.8888888888889,312.8925L-872.2222222222222,313.1975L-845.5555555555555,342.11L-818.8888888888888,332.385L-792.2222222222223,341.95000000000005L-765.5555555555555,301.9725L-738.8888888888889,284.8275L-712.2222222222222,306.3575L-685.5555555555555,329.88L-658.8888888888889,400L-632.2222222222222,282.66999999999996L-605.5555555555555,296.5825L-578.8888888888889,315.10249999999996L-552.2222222222222,328.825L-525.5555555555555,340.9875L-498.8888888888889,301.615L-472.22222222222223,333.6175L-445.55555555555554,325.035L-418.8888888888889,341.5025L-392.22222222222223,325.01L-365.55555555555554,259.6825L-338.88888888888886,336.16L-312.22222222222223,337.9575L-285.55555555555554,351.49L-258.8888888888889,338.34749999999997L-232.22222222222223,300.55L-205.55555555555554,305.945L-178.88888888888889,337.7875L-152.22222222222223,400L-125.55555555555556,246.3775L-98.88888888888889,364.385L-72.22222222222221,343.68L-45.55555555555556,318.855L-18.88888888888889,332.92L7.777777777777778,322.7L34.44444444444444,363.09499999999997L61.111111111111114,400L87.77777777777777,341.15250000000003L114.44444444444444,400L141.11111111111111,400L167.77777777777777,400L194.44444444444443,400L221.11111111111111,400L247.77777777777777,400L274.44444444444446,400L301.1111111111111,400L327.77777777777777,400L354.44444444444446,400L381.1111111111111,400L407.77777777777777,400" stroke="#e45756" stroke-width="2" opacity="0.2"></path></g></g><path class="foreground" aria-hidden="true" d="" display="none"></path></g><g transform="translate(0,0)"><path class="background" aria-hidden="true" d="M0,0h400v400h-400Z"></path><g><g class="mark-line role-mark concat_0_layer_0_marks" clip-path="url(#clip2)" role="graphics-object" aria-roledescription="line mark container"><path aria-label="Type: Deaths; Date: Mar 01; Count: 0" role="graphics-symbol" aria-roledescription="line mark" d="M-5884.444444444444,400L-5857.777777777777,400L-5831.111111111111,400L-5804.444444444444,400L-5777.777777777778,400L-5751.111111111111,400L-5724.444444444444,400L-5697.777777777777,400L-5672.222222222222,400L-5645.555555555556,400L-5618.888888888889,400L-5592.222222222223,400L-5565.555555555556,400L-5538.888888888889,400L-5512.222222222222,400L-5485.555555555556,400L-5458.888888888889,399.9975L-5432.222222222223,399.995L-5405.555555555556,399.9925L-5378.888888888889,399.9875L-5352.222222222223,399.98999999999995L-5325.555555555556,399.975L-5298.888888888889,399.9775L-5272.222222222222,399.96999999999997L-5245.555555555556,399.9675L-5218.888888888889,399.95500000000004L-5192.222222222223,399.9625L-5165.555555555556,399.95250000000004L-5138.888888888889,399.9375L-5112.222222222222,399.9425L-5085.555555555556,399.895L-5058.888888888889,399.90250000000003L-5032.222222222223,399.79L-5005.555555555556,399.91249999999997L-4978.888888888889,399.785L-4952.222222222223,399.89750000000004L-4925.555555555556,399.805L-4898.888888888889,399.695L-4872.222222222222,399.6675L-4845.555555555556,399.6725L-4818.888888888889,399.7325L-4792.222222222223,399.8325L-4765.555555555556,399.7525L-4738.888888888889,399.7375L-4712.222222222222,399.49L-4685.555555555556,399.49L-4658.888888888889,399.53L-4632.222222222223,399.45750000000004L-4605.555555555556,399.4675L-4578.888888888889,399.73L-4552.222222222223,399.6875L-4525.555555555556,399.615L-4498.888888888889,399.5875L-4472.222222222222,398.9375L-4445.555555555556,399.0675L-4418.888888888889,399.1175L-4392.222222222223,399.4275L-4365.555555555556,399.2075L-4338.888888888889,398.8L-4312.222222222222,398.925L-4285.555555555556,398.7675L-4258.888888888889,398.985L-4232.222222222223,399.1275L-4205.555555555556,399.275L-4178.888888888889,399.21000000000004L-4152.222222222223,398.5725L-4125.555555555556,398.375L-4098.888888888889,398.495L-4072.222222222222,397.9325L-4045.5555555555557,398.4025L-4018.888888888889,398.83250000000004L-3992.2222222222226,398.67499999999995L-3965.5555555555557,397.98L-3938.8888888888887,398.0525L-3912.222222222222,398.10249999999996L-3885.5555555555557,397.59250000000003L-3858.8888888888887,398.25L-3832.222222222222,398.86L-3805.5555555555557,398.1625L-3778.888888888889,397.175L-3752.2222222222226,397.81L-3725.555555555555,397.03L-3698.8888888888887,397.4975L-3672.222222222222,397.5875L-3645.5555555555557,398.3675L-3618.888888888889,397.9825L-3592.2222222222226,397.40250000000003L-3565.5555555555557,397.285L-3538.8888888888887,397.11L-3512.222222222222,397.19L-3485.5555555555557,397.61L-3458.8888888888887,398.8L-3432.222222222222,398.4425L-3405.5555555555557,396.84499999999997L-3378.888888888889,396.6275L-3352.2222222222226,396.3175L-3325.555555555555,397.4875L-3298.8888888888887,397.74L-3272.222222222222,398.6875L-3245.5555555555557,398.3025L-3218.888888888889,396.82L-3192.222222222222,396.815L-3165.5555555555557,396.9025L-3138.888888888889,397.7275L-3112.222222222222,397.77L-3085.5555555555557,398.47L-3058.8888888888887,398.4325L-3032.222222222222,396.795L-3005.5555555555557,396.82750000000004L-2978.8888888888887,396.90500000000003L-2952.222222222222,396.985L-2925.5555555555557,397.445L-2898.8888888888887,398.4625L-2872.222222222222,398.3L-2845.5555555555557,396.565L-2818.888888888889,397.0375L-2792.222222222222,397.1475L-2765.5555555555557,397.525L-2738.888888888889,397.22749999999996L-2712.222222222222,398.62L-2685.5555555555557,398.27L-2658.8888888888887,396.8L-2632.222222222222,397.40500000000003L-2605.5555555555557,396.87L-2578.8888888888887,396.77500000000003L-2552.222222222222,397.2725L-2525.5555555555557,398.495L-2498.8888888888887,398.45L-2472.222222222222,396.86499999999995L-2445.5555555555557,396.9425L-2418.888888888889,396.95L-2392.222222222222,396.96500000000003L-2365.5555555555557,397.3225L-2338.888888888889,398.4225L-2312.222222222222,398.1675L-2285.5555555555557,396.75L-2258.8888888888887,396.9175L-2232.222222222222,396.695L-2205.5555555555557,397.0925L-2178.8888888888887,397.6975L-2152.222222222222,398.21L-2125.5555555555557,398.42L-2098.8888888888887,396.58250000000004L-2072.222222222222,396.79L-2045.5555555555557,396.7225L-2018.888888888889,397.11L-1992.2222222222222,396.97249999999997L-1965.5555555555554,398.6125L-1938.888888888889,398.465L-1912.2222222222224,397.6975L-1885.5555555555554,396.0125L-1858.888888888889,397.1775L-1832.2222222222222,396.97L-1805.5555555555557,397.28L-1778.8888888888887,398.6475L-1752.2222222222222,398.59749999999997L-1725.5555555555557,397.115L-1698.8888888888887,396.40749999999997L-1672.2222222222222,396.9075L-1645.5555555555557,397.3025L-1618.888888888889,397.7375L-1592.2222222222222,398.57L-1565.5555555555554,398.2425L-1538.888888888889,396.815L-1512.2222222222222,397.0625L-1485.5555555555557,396.84499999999997L-1458.888888888889,397.35L-1432.2222222222222,398.2275L-1405.5555555555554,398.45L-1378.888888888889,398.28999999999996L-1352.2222222222222,396.62L-1325.5555555555557,396.97L-1298.888888888889,396.99L-1272.2222222222222,397.365L-1245.5555555555557,397.77L-1218.888888888889,398.765L-1192.2222222222222,398.5875L-1165.5555555555554,396.8225L-1138.888888888889,397.2875L-1112.2222222222222,397.54L-1085.5555555555557,397.8625L-1058.888888888889,398.105L-1032.2222222222222,398.58500000000004L-1005.5555555555555,398.6175L-978.8888888888889,396.96250000000003L-952.2222222222222,397.04L-925.5555555555557,397.915L-898.8888888888889,397.78L-872.2222222222222,398.2475L-845.5555555555555,398.8825L-818.8888888888888,399.22499999999997L-792.2222222222223,398.74L-765.5555555555555,397.3125L-738.8888888888889,397.5425L-712.2222222222222,397.815L-685.5555555555555,397.965L-658.8888888888889,398.96250000000003L-632.2222222222222,399.0475L-605.5555555555555,397.2175L-578.8888888888889,397.5325L-552.2222222222222,397.9275L-525.5555555555555,397.85499999999996L-498.8888888888889,398.1525L-472.22222222222223,399.0925L-445.55555555555554,399.0575L-418.8888888888889,397.9175L-392.22222222222223,400L-365.55555555555554,395.7425L-338.88888888888886,398.1775L-312.22222222222223,397.8275L-285.55555555555554,399.1625L-258.8888888888889,399.2075L-232.22222222222223,397.84250000000003L-205.55555555555554,397.4225L-178.88888888888889,398.17999999999995L-152.22222222222223,400L-125.55555555555556,396.7325L-98.88888888888889,399.0875L-72.22222222222221,399.1925L-45.55555555555556,397.95250000000004L-18.88888888888889,398.165L7.777777777777778,398.1775L34.44444444444444,398.295L61.111111111111114,398.6025L87.77777777777777,399.275L114.44444444444444,399.4975L141.11111111111111,399.22749999999996L167.77777777777777,398.1275L194.44444444444443,398.2175L221.11111111111111,398.115L247.77777777777777,398.8475L274.44444444444446,400L301.1111111111111,398.7475L327.77777777777777,398.34749999999997L354.44444444444446,398.58500000000004L381.1111111111111,398.7575L407.77777777777777,398.5725" stroke="#f58518" stroke-width="2" opacity="0.2"></path></g></g><path class="foreground" aria-hidden="true" d="" display="none"></path></g><g transform="translate(0,0)"><path class="background" aria-hidden="true" d="M0,0h400v400h-400Z"></path><g><g class="mark-line role-mark concat_0_layer_0_marks" clip-path="url(#clip3)" role="graphics-object" aria-roledescription="line mark container"><path aria-label="Type: Confirmed; Date: Mar 01; Count: 0" role="graphics-symbol" aria-roledescription="line mark" d="M-5884.444444444444,400L-5857.777777777777,400L-5831.111111111111,400L-5804.444444444444,399.995L-5777.777777777778,400L-5751.111111111111,399.9775L-5724.444444444444,400L-5697.777777777777,399.9825L-5672.222222222222,399.9875L-5645.555555555556,399.985L-5618.888888888889,399.9825L-5592.222222222223,399.965L-5565.555555555556,399.7525L-5538.888888888889,400L-5512.222222222222,399.9725L-5485.555555555556,399.905L-5458.888888888889,399.6975L-5432.222222222223,399.8725L-5405.555555555556,399.3775L-5378.888888888889,399.57L-5352.222222222223,399.43L-5325.555555555556,398.6875L-5298.888888888889,399.055L-5272.222222222222,399.1925L-5245.555555555556,399.2325L-5218.888888888889,398.92249999999996L-5192.222222222223,398.91999999999996L-5165.555555555556,398.78249999999997L-5138.888888888889,399.12L-5112.222222222222,399.1925L-5085.555555555556,397.15500000000003L-5058.888888888889,397.2025L-5032.222222222223,396.98L-5005.555555555556,397.46999999999997L-4978.888888888889,396.74L-4952.222222222223,398.075L-4925.555555555556,397.4225L-4898.888888888889,395.3175L-4872.222222222222,394.66L-4845.555555555556,395.195L-4818.888888888889,396.135L-4792.222222222223,397.2775L-4765.555555555556,396.33750000000003L-4738.888888888889,396.90500000000003L-4712.222222222222,395.42L-4685.555555555556,392.355L-4658.888888888889,394.7375L-4632.222222222223,391.8575L-4605.555555555556,392.56L-4578.888888888889,395.01L-4552.222222222223,394.77750000000003L-4525.555555555556,394.16L-4498.888888888889,393.305L-4472.222222222222,389.3025L-4445.555555555556,389.98249999999996L-4418.888888888889,386.7975L-4392.222222222223,390.56L-4365.555555555556,389.135L-4338.888888888889,385.5275L-4312.222222222222,383.875L-4285.555555555556,381.245L-4258.888888888889,387.4625L-4232.222222222223,387.755L-4205.555555555556,388.185L-4178.888888888889,383.01500000000004L-4152.222222222223,382.91249999999997L-4125.555555555556,372.11L-4098.888888888889,377.095L-4072.222222222222,372.1975L-4045.5555555555557,377.0825L-4018.888888888889,383.405L-3992.2222222222226,382.7625L-3965.5555555555557,378.45L-3938.8888888888887,370.1925L-3912.222222222222,367.43L-3885.5555555555557,357.185L-3858.8888888888887,366.95000000000005L-3832.222222222222,381.0775L-3805.5555555555557,364.28L-3778.888888888889,358.7075L-3752.2222222222226,350.765L-3725.555555555555,353.73L-3698.8888888888887,347.9925L-3672.222222222222,358.73L-3645.5555555555557,360.4675L-3618.888888888889,370.7825L-3592.2222222222226,359.19L-3565.5555555555557,348.50250000000005L-3538.8888888888887,333.9575L-3512.222222222222,332.68L-3485.5555555555557,316.815L-3458.8888888888887,358.9775L-3432.222222222222,371.005L-3405.5555555555557,327.66L-3378.888888888889,328.41749999999996L-3352.2222222222226,322.6875L-3325.555555555555,322.925L-3298.8888888888887,332.3125L-3272.222222222222,352.72L-3245.5555555555557,360.865L-3218.888888888889,319.77250000000004L-3192.222222222222,317.71750000000003L-3165.5555555555557,323.97L-3138.888888888889,335.045L-3112.222222222222,345.74L-3085.5555555555557,357.22499999999997L-3058.8888888888887,348.3825L-3032.222222222222,312.705L-3005.5555555555557,319.53000000000003L-2978.8888888888887,343.0875L-2952.222222222222,263.0725L-2925.5555555555557,313.33500000000004L-2898.8888888888887,360.595L-2872.222222222222,342.1775L-2845.5555555555557,301.41L-2818.888888888889,293.1875L-2792.222222222222,301.2925L-2765.5555555555557,282.85L-2738.888888888889,303.26750000000004L-2712.222222222222,323.81L-2685.5555555555557,339.87L-2658.8888888888887,315.38500000000005L-2632.222222222222,283.22L-2605.5555555555557,279.73749999999995L-2578.8888888888887,294.4425L-2552.222222222222,305.1925L-2525.5555555555557,334.8725L-2498.8888888888887,349.4275L-2472.222222222222,286.7375L-2445.5555555555557,288.5725L-2418.888888888889,293.4525L-2392.222222222222,287.38L-2365.5555555555557,302.4425L-2338.888888888889,337.9225L-2312.222222222222,349.28499999999997L-2285.5555555555557,295.35749999999996L-2258.8888888888887,300.19L-2232.222222222222,286.4925L-2205.5555555555557,314.5575L-2178.8888888888887,328.66999999999996L-2152.222222222222,341.1775L-2125.5555555555557,349.35749999999996L-2098.8888888888887,297.48L-2072.222222222222,230.35000000000002L-2045.5555555555557,250.0975L-2018.888888888889,260.2725L-1992.2222222222222,272.13250000000005L-1965.5555555555554,338.555L-1938.888888888889,341.79L-1912.2222222222224,297.96L-1885.5555555555554,227.31500000000003L-1858.888888888889,255.4075L-1832.2222222222222,269.0425L-1805.5555555555557,286.52L-1778.8888888888887,335.5L-1752.2222222222222,358.39750000000004L-1725.5555555555557,270.9925L-1698.8888888888887,257.12L-1672.2222222222222,267.1525L-1645.5555555555557,274.425L-1618.888888888889,275.075L-1592.2222222222222,342.475L-1565.5555555555554,344.88L-1538.888888888889,269.59999999999997L-1512.2222222222222,262.1125L-1485.5555555555557,249.7725L-1458.888888888889,273.39000000000004L-1432.2222222222222,296.06L-1405.5555555555554,342.2475L-1378.888888888889,351.5675L-1352.2222222222222,280.53999999999996L-1325.5555555555557,276.755L-1298.888888888889,286.6925L-1272.2222222222222,324.1125L-1245.5555555555557,274.92L-1218.888888888889,341.4475L-1192.2222222222222,357.305L-1165.5555555555554,282.165L-1138.888888888889,282.09749999999997L-1112.2222222222222,289.41249999999997L-1085.5555555555557,291.46999999999997L-1058.888888888889,296.625L-1032.2222222222222,359.605L-1005.5555555555555,285.0975L-978.8888888888889,293.3525L-952.2222222222222,282.66499999999996L-925.5555555555557,290.5675L-898.8888888888889,274.5925L-872.2222222222222,322.0025L-845.5555555555555,363.6975L-818.8888888888888,374.3175L-792.2222222222223,364.3025L-765.5555555555555,310.46L-738.8888888888889,298.6075L-712.2222222222222,290.705L-685.5555555555555,316.1925L-658.8888888888889,363.08L-632.2222222222222,362.1125L-605.5555555555555,308.3675L-578.8888888888889,307.95L-552.2222222222222,309.2425L-525.5555555555555,300.5075L-498.8888888888889,317.3575L-472.22222222222223,359.02750000000003L-445.55555555555554,366.47249999999997L-418.8888888888889,316.69L-392.22222222222223,400L-365.55555555555554,234.15499999999997L-338.88888888888886,320.22249999999997L-312.22222222222223,329.055L-285.55555555555554,364.20500000000004L-258.8888888888889,367.1125L-232.22222222222223,319.855L-205.55555555555554,316.4675L-178.88888888888889,309.6075L-152.22222222222223,400L-125.55555555555556,250.6475L-98.88888888888889,378.86L-72.22222222222221,370.135L-45.55555555555556,295.235L-18.88888888888889,321.1175L7.777777777777778,330.625L34.44444444444444,331.39L61.111111111111114,333.1275L87.77777777777777,369.14500000000004L114.44444444444444,378.9275L141.11111111111111,374.45L167.77777777777777,331.9125L194.44444444444443,328.6925L221.11111111111111,322.715L247.77777777777777,339.84499999999997L274.44444444444446,400L301.1111111111111,334.0875L327.77777777777777,341.93249999999995L354.44444444444446,337.955L381.1111111111111,337.855L407.77777777777777,324.93499999999995" stroke="#4c78a8" stroke-width="2" opacity="0.2"></path></g></g><path class="foreground" aria-hidden="true" d="" display="none"></path></g></g><g class="mark-group role-scope concat_0_layer_1_pathgroup" role="graphics-object" aria-roledescription="group mark container"><g transform="translate(0,0)"><path class="background" aria-hidden="true" d="M0,0h400v400h-400Z"></path><g><g class="mark-line role-mark concat_0_layer_1_marks" clip-path="url(#clip4)" role="graphics-object" aria-roledescription="line mark container"><path aria-label="Type: Recovered; Date: Mar 01; Count: 0" role="graphics-symbol" aria-roledescription="line mark" d="M-5724.444444444444,400L-5697.777777777777,400L-5672.222222222222,400L-5645.555555555556,400L-5618.888888888889,400L-5592.222222222223,400L-5565.555555555556,400L-5538.888888888889,400L-5512.222222222222,400L-5485.555555555556,399.9996428571428L-5458.888888888889,399.99928571428575L-5432.222222222223,399.99928571428575L-5405.555555555556,399.99928571428575L-5378.888888888889,399.99928571428575L-5352.222222222223,399.99928571428575L-5325.555555555556,399.99928571428575L-5298.888888888889,399.9996428571428L-5272.222222222222,400L-5245.555555555556,400L-5218.888888888889,399.99857142857144L-5192.222222222223,399.99857142857144L-5165.555555555556,399.99857142857144L-5138.888888888889,399.99857142857144L-5112.222222222222,399.95785714285716L-5085.555555555556,399.9553571428571L-5058.888888888889,399.9553571428571L-5032.222222222223,399.95678571428573L-5005.555555555556,399.95678571428573L-4978.888888888889,399.95678571428573L-4952.222222222223,399.95678571428573L-4925.555555555556,399.9975L-4898.888888888889,400L-4872.222222222222,400L-4845.555555555556,399.9835714285714L-4818.888888888889,399.9835714285714L-4792.222222222223,399.9835714285714L-4765.555555555556,399.9835714285714L-4738.888888888889,399.9835714285714L-4712.222222222222,398.9575L-4685.555555555556,395.03607142857146L-4658.888888888889,395.0525L-4632.222222222223,395.0525L-4605.555555555556,395.0525L-4578.888888888889,392.1582142857143L-4552.222222222223,392.1582142857143L-4525.555555555556,392.87678571428575L-4498.888888888889,395.96714285714285L-4472.222222222222,395.5189285714286L-4445.555555555556,395.1325L-4418.888888888889,394.59499999999997L-4392.222222222223,397.135L-4365.555555555556,396.7814285714286L-4338.888888888889,396.5882142857143L-4312.222222222222,396.85214285714284L-4285.555555555556,396.65642857142853L-4258.888888888889,396.2914285714286L-4232.222222222223,395.7939285714286L-4205.555555555556,395.4146428571429L-4178.888888888889,394.75964285714286L-4152.222222222223,394.4010714285714L-4125.555555555556,393.8435714285714L-4098.888888888889,393.06607142857143L-4072.222222222222,392.40785714285715L-4045.5555555555557,392.59L-4018.888888888889,392.155L-3992.2222222222226,392.2967857142857L-3965.5555555555557,391.2942857142857L-3938.8888888888887,390.33785714285716L-3912.222222222222,391.3825L-3885.5555555555557,390.8310714285714L-3858.8888888888887,390.00464285714287L-3832.222222222222,389.58392857142854L-3805.5555555555557,388.1875L-3778.888888888889,387.7867857142857L-3752.2222222222226,386.3360714285714L-3725.555555555555,383.39964285714285L-3698.8888888888887,381.9785714285714L-3672.222222222222,381.1017857142857L-3645.5555555555557,380.0753571428571L-3618.888888888889,380.9378571428571L-3592.2222222222226,381.5003571428571L-3565.5555555555557,382.1557142857143L-3538.8888888888887,381.5557142857143L-3512.222222222222,380.6978571428572L-3485.5555555555557,379.1767857142857L-3458.8888888888887,379.77L-3432.222222222222,379.5546428571428L-3405.5555555555557,376.76964285714286L-3378.888888888889,374.2964285714286L-3352.2222222222226,372.37178571428575L-3325.555555555555,372.3342857142857L-3298.8888888888887,372.7653571428571L-3272.222222222222,372.35821428571427L-3245.5555555555557,340.2939285714286L-3218.888888888889,338.17892857142857L-3192.222222222222,337.3932142857143L-3165.5555555555557,337.4992857142857L-3138.888888888889,336.3632142857143L-3112.222222222222,334.89750000000004L-3085.5555555555557,333.86107142857145L-3058.8888888888887,364.4814285714286L-3032.222222222222,366.69L-3005.5555555555557,361.73928571428576L-2978.8888888888887,362.6375L-2952.222222222222,361.9614285714286L-2925.5555555555557,358.0917857142857L-2898.8888888888887,357.50821428571425L-2872.222222222222,355.70464285714286L-2845.5555555555557,350.7292857142857L-2818.888888888889,350.2060714285714L-2792.222222222222,348.2342857142857L-2765.5555555555557,346.1542857142857L-2738.888888888889,346.0942857142857L-2712.222222222222,343.6071428571429L-2685.5555555555557,344.2589285714286L-2658.8888888888887,342.73035714285714L-2632.222222222222,343.86678571428575L-2605.5555555555557,300.6542857142857L-2578.8888888888887,299.2085714285714L-2552.222222222222,306.0657142857143L-2525.5555555555557,298.9189285714286L-2498.8888888888887,291.16749999999996L-2472.222222222222,286.18071428571426L-2445.5555555555557,284.92785714285714L-2418.888888888889,323.65892857142853L-2392.222222222222,316.87642857142856L-2365.5555555555557,309.5153571428571L-2338.888888888889,315.78642857142853L-2312.222222222222,318.3182142857143L-2285.5555555555557,322.70964285714285L-2258.8888888888887,324.9092857142857L-2232.222222222222,319.2557142857143L-2205.5555555555557,324.5860714285715L-2178.8888888888887,327.38571428571424L-2152.222222222222,330.6325L-2125.5555555555557,320.33964285714285L-2098.8888888888887,317.1735714285714L-2072.222222222222,313.61535714285714L-2045.5555555555557,320.435L-2018.888888888889,305.4664285714286L-1992.2222222222222,279.3032142857143L-1965.5555555555554,273.6282142857143L-1938.888888888889,281.30678571428575L-1912.2222222222224,288.0678571428572L-1885.5555555555554,281.8475L-1858.888888888889,279.8235714285714L-1832.2222222222222,287.2714285714286L-1805.5555555555557,309.7775L-1778.8888888888887,310.7275L-1752.2222222222222,309.8803571428571L-1725.5555555555557,296.8803571428571L-1698.8888888888887,304.4432142857143L-1672.2222222222222,302.2375L-1645.5555555555557,305.91249999999997L-1618.888888888889,298.73035714285714L-1592.2222222222222,294.9617857142857L-1565.5555555555554,295.76642857142855L-1538.888888888889,295.76642857142855L-1512.2222222222222,287.1903571428572L-1485.5555555555557,296.2292857142857L-1458.888888888889,276.8992857142857L-1432.2222222222222,292.3782142857143L-1405.5555555555554,293.5592857142857L-1378.888888888889,289.9107142857143L-1352.2222222222222,292.1757142857143L-1325.5555555555557,294.3917857142857L-1298.888888888889,284.565L-1272.2222222222222,314.7939285714286L-1245.5555555555557,296.03999999999996L-1218.888888888889,295.4403571428571L-1192.2222222222222,301.00857142857143L-1165.5555555555554,299.53392857142853L-1138.888888888889,299.8157142857143L-1112.2222222222222,300.5257142857143L-1085.5555555555557,291.7053571428571L-1058.888888888889,297.06464285714287L-1032.2222222222222,296.4889285714286L-1005.5555555555555,295.59464285714284L-978.8888888888889,288.3253571428571L-952.2222222222222,291.1207142857143L-925.5555555555557,290.50392857142856L-898.8888888888889,290.89464285714286L-872.2222222222222,293.995L-845.5555555555555,298.37857142857143L-818.8888888888888,299.78214285714284L-792.2222222222223,318.8639285714286L-765.5555555555555,319.88464285714286L-738.8888888888889,318.4764285714285L-712.2222222222222,317.54285714285714L-685.5555555555555,319.92607142857145L-658.8888888888889,328.19607142857143L-632.2222222222222,321.0939285714286L-605.5555555555555,314.61285714285714L-578.8888888888889,316.4885714285714L-552.2222222222222,322.77392857142854L-525.5555555555555,327.7210714285714L-498.8888888888889,323.68321428571426L-472.22222222222223,314.2L-445.55555555555554,320.25214285714287L-418.8888888888889,326.6692857142857L-392.22222222222223,328.08464285714285L-365.55555555555554,318.20714285714286L-338.88888888888886,317.5175L-312.22222222222223,322.70928571428567L-285.55555555555554,325.2625L-258.8888888888889,327.1642857142857L-232.22222222222223,321.31392857142856L-205.55555555555554,318.59035714285716L-178.88888888888889,329.74821428571425L-152.22222222222223,338.86821428571426L-125.55555555555556,325.78535714285715L-98.88888888888889,327.6275L-72.22222222222221,328.3892857142857L-45.55555555555556,331.00428571428574L-18.88888888888889,334.85785714285714L7.777777777777778,332.7025L34.44444444444444,327.43035714285713L61.111111111111114,349.37642857142856L87.77777777777777,346.0575L114.44444444444444,354.1032142857143L141.11111111111111,365.6953571428571L167.77777777777777,375.2782142857143L194.44444444444443,386.32107142857143L221.11111111111111,391.5932142857143L247.77777777777777,391.5932142857143L274.44444444444446,400L301.1111111111111,400L327.77777777777777,400L354.44444444444446,400L381.1111111111111,400L407.77777777777777,400" stroke="#e45756" stroke-width="2" opacity="1"></path></g></g><path class="foreground" aria-hidden="true" d="" display="none"></path></g><g transform="translate(0,0)"><path class="background" aria-hidden="true" d="M0,0h400v400h-400Z"></path><g><g class="mark-line role-mark concat_0_layer_1_marks" clip-path="url(#clip5)" role="graphics-object" aria-roledescription="line mark container"><path aria-label="Type: Deaths; Date: Mar 01; Count: 0" role="graphics-symbol" aria-roledescription="line mark" d="M-5724.444444444444,400L-5697.777777777777,400L-5672.222222222222,400L-5645.555555555556,400L-5618.888888888889,400L-5592.222222222223,400L-5565.555555555556,400L-5538.888888888889,400L-5512.222222222222,400L-5485.555555555556,400L-5458.888888888889,399.9996428571428L-5432.222222222223,399.99892857142856L-5405.555555555556,399.9978571428572L-5378.888888888889,399.99607142857144L-5352.222222222223,399.9946428571429L-5325.555555555556,399.99107142857144L-5298.888888888889,399.98785714285714L-5272.222222222222,399.9839285714286L-5245.555555555556,399.98L-5218.888888888889,399.97464285714284L-5192.222222222223,399.97107142857146L-5165.555555555556,399.9657142857143L-5138.888888888889,399.96035714285716L-5112.222222222222,399.9553571428571L-5085.555555555556,399.94464285714287L-5058.888888888889,399.93535714285713L-5032.222222222223,399.9117857142857L-5005.555555555556,399.90464285714285L-4978.888888888889,399.8807142857143L-4952.222222222223,399.875L-4925.555555555556,399.85535714285714L-4898.888888888889,399.8267857142857L-4872.222222222222,399.7932142857143L-4845.555555555556,399.77642857142854L-4818.888888888889,399.75071428571425L-4792.222222222223,399.7575L-4765.555555555556,399.7367857142857L-4738.888888888889,399.72714285714284L-4712.222222222222,399.6978571428572L-4685.555555555556,399.6725L-4658.888888888889,399.65214285714285L-4632.222222222223,399.61285714285714L-4605.555555555556,399.56071428571425L-4578.888888888889,399.5575L-4552.222222222223,399.55035714285714L-4525.555555555556,399.5682142857143L-4498.888888888889,399.58214285714286L-4472.222222222222,399.4975L-4445.555555555556,399.4417857142857L-4418.888888888889,399.39178571428573L-4392.222222222223,399.3485714285714L-4365.555555555556,399.28L-4338.888888888889,399.1635714285714L-4312.222222222222,399.06892857142856L-4285.555555555556,399.04464285714283L-4258.888888888889,399.03285714285715L-4232.222222222223,399.0342857142857L-4205.555555555556,399.0125L-4178.888888888889,399.0128571428572L-4152.222222222223,398.98035714285714L-4125.555555555556,398.9017857142857L-4098.888888888889,398.86285714285714L-4072.222222222222,398.7125L-4045.5555555555557,398.6089285714286L-4018.888888888889,398.54571428571427L-3992.2222222222226,398.4692857142857L-3965.5555555555557,398.38464285714286L-3938.8888888888887,398.3385714285714L-3912.222222222222,398.2825L-3885.5555555555557,398.2339285714286L-3858.8888888888887,398.21214285714285L-3832.222222222222,398.21607142857147L-3805.5555555555557,398.1428571428571L-3778.888888888889,398.02785714285716L-3752.2222222222226,397.99321428571426L-3725.555555555555,397.84000000000003L-3698.8888888888887,397.8264285714286L-3672.222222222222,397.7317857142857L-3645.5555555555557,397.6614285714286L-3618.888888888889,397.63571428571424L-3592.2222222222226,397.66821428571427L-3565.5555555555557,397.5932142857143L-3538.8888888888887,397.6046428571429L-3512.222222222222,397.56071428571425L-3485.5555555555557,397.56392857142856L-3458.8888888888887,397.6257142857143L-3432.222222222222,397.69142857142856L-3405.5555555555557,397.6117857142857L-3378.888888888889,397.5178571428571L-3352.2222222222226,397.40464285714285L-3325.555555555555,397.44714285714286L-3298.8888888888887,397.4657142857143L-3272.222222222222,397.44964285714286L-3245.5555555555557,397.4296428571428L-3218.888888888889,397.42607142857145L-3192.222222222222,397.45285714285717L-3165.5555555555557,397.5364285714286L-3138.888888888889,397.5707142857143L-3112.222222222222,397.575L-3085.5555555555557,397.5439285714286L-3058.8888888888887,397.5625L-3032.222222222222,397.55892857142857L-3005.5555555555557,397.56071428571425L-2978.8888888888887,397.56107142857144L-2952.222222222222,397.455L-2925.5555555555557,397.4085714285714L-2898.8888888888887,397.4075L-2872.222222222222,397.3885714285714L-2845.5555555555557,397.3557142857143L-2818.888888888889,397.3857142857143L-2792.222222222222,397.42035714285714L-2765.5555555555557,397.4975L-2738.888888888889,397.4664285714286L-2712.222222222222,397.4889285714286L-2685.5555555555557,397.48464285714283L-2658.8888888888887,397.5182142857143L-2632.222222222222,397.5707142857143L-2605.5555555555557,397.53107142857147L-2578.8888888888887,397.4239285714286L-2552.222222222222,397.43035714285713L-2525.5555555555557,397.41249999999997L-2498.8888888888887,397.4382142857143L-2472.222222222222,397.4475L-2445.5555555555557,397.38142857142856L-2418.888888888889,397.39285714285717L-2392.222222222222,397.42L-2365.5555555555557,397.4271428571428L-2338.888888888889,397.4167857142857L-2312.222222222222,397.37642857142856L-2285.5555555555557,397.35999999999996L-2258.8888888888887,397.3564285714286L-2232.222222222222,397.32L-2205.5555555555557,397.3382142857143L-2178.8888888888887,397.39178571428573L-2152.222222222222,397.3614285714286L-2125.5555555555557,397.3975L-2098.8888888888887,397.37357142857144L-2072.222222222222,397.35535714285714L-2045.5555555555557,397.3592857142857L-2018.888888888889,397.3617857142857L-1992.2222222222222,397.2582142857143L-1965.5555555555554,397.3157142857143L-1938.888888888889,397.32214285714286L-1912.2222222222224,397.4814285714286L-1885.5555555555554,397.37035714285713L-1858.888888888889,397.43535714285713L-1832.2222222222222,397.41535714285715L-1805.5555555555557,397.4592857142857L-1778.8888888888887,397.46428571428567L-1752.2222222222222,397.48321428571427L-1725.5555555555557,397.40000000000003L-1698.8888888888887,397.45642857142855L-1672.2222222222222,397.41785714285714L-1645.5555555555557,397.46535714285716L-1618.888888888889,397.5307142857143L-1592.2222222222222,397.51964285714286L-1565.5555555555554,397.4689285714286L-1538.888888888889,397.42607142857145L-1512.2222222222222,397.51964285714286L-1485.5555555555557,397.5107142857143L-1458.888888888889,397.51750000000004L-1432.2222222222222,397.5875L-1405.5555555555554,397.5703571428571L-1378.888888888889,397.57714285714286L-1352.2222222222222,397.5492857142857L-1325.5555555555557,397.53607142857146L-1298.888888888889,397.5567857142857L-1272.2222222222222,397.55892857142857L-1245.5555555555557,397.49357142857144L-1218.888888888889,397.53857142857146L-1192.2222222222222,397.5810714285714L-1165.5555555555554,397.61L-1138.888888888889,397.65535714285716L-1112.2222222222222,397.7339285714286L-1085.5555555555557,397.805L-1058.888888888889,397.85285714285715L-1032.2222222222222,397.82714285714286L-1005.5555555555555,397.83142857142855L-978.8888888888889,397.8514285714286L-952.2222222222222,397.81607142857143L-925.5555555555557,397.8696428571428L-898.8888888888889,397.85785714285714L-872.2222222222222,397.8782142857143L-845.5555555555555,397.92071428571427L-818.8888888888888,398.0075L-792.2222222222223,398.2614285714286L-765.5555555555555,398.30035714285714L-738.8888888888889,398.2471428571428L-712.2222222222222,398.25214285714287L-685.5555555555555,398.2117857142857L-658.8888888888889,398.2232142857143L-632.2222222222222,398.1978571428571L-605.5555555555555,397.98035714285714L-578.8888888888889,398.0117857142857L-552.2222222222222,398.0667857142857L-525.5555555555555,398.0725L-498.8888888888889,398.0992857142857L-472.22222222222223,398.11785714285713L-445.55555555555554,398.1192857142857L-418.8888888888889,398.2192857142857L-392.22222222222223,398.57178571428574L-365.55555555555554,398.25964285714286L-338.88888888888886,398.3057142857143L-312.22222222222223,398.2592857142857L-285.55555555555554,398.26928571428573L-258.8888888888889,398.2907142857143L-232.22222222222223,398.28000000000003L-205.55555555555554,397.9117857142857L-178.88888888888889,398.26L-152.22222222222223,398.52035714285716L-125.55555555555556,398.3639285714286L-98.88888888888889,398.3532142857143L-72.22222222222221,398.35107142857146L-45.55555555555556,398.3667857142857L-18.88888888888889,398.47285714285715L7.777777777777778,398.4725L34.44444444444444,398.2289285714286L61.111111111111114,398.49607142857144L87.77777777777777,398.5228571428571L114.44444444444444,398.56642857142856L141.11111111111111,398.7485714285714L167.77777777777777,398.74321428571426L194.44444444444443,398.74892857142856L221.11111111111111,398.7232142857143L247.77777777777777,398.7582142857143L274.44444444444446,398.8617857142857L301.1111111111111,398.75464285714287L327.77777777777777,398.62892857142856L354.44444444444446,398.6942857142857L381.1111111111111,398.77142857142854L407.77777777777777,398.8367857142857" stroke="#f58518" stroke-width="2" opacity="1"></path></g></g><path class="foreground" aria-hidden="true" d="" display="none"></path></g><g transform="translate(0,0)"><path class="background" aria-hidden="true" d="M0,0h400v400h-400Z"></path><g><g class="mark-line role-mark concat_0_layer_1_marks" clip-path="url(#clip6)" role="graphics-object" aria-roledescription="line mark container"><path aria-label="Type: Confirmed; Date: Mar 01; Count: 0" role="graphics-symbol" aria-roledescription="line mark" d="M-5724.444444444444,399.99607142857144L-5697.777777777777,399.99357142857144L-5672.222222222222,399.9917857142857L-5645.555555555556,399.9896428571429L-5618.888888888889,399.98785714285714L-5592.222222222223,399.98285714285714L-5565.555555555556,399.9507142857143L-5538.888888888889,399.9507142857143L-5512.222222222222,399.94928571428574L-5485.555555555556,399.9375L-5458.888888888889,399.89642857142854L-5432.222222222223,399.8807142857143L-5405.555555555556,399.7967857142857L-5378.888888888889,399.7707142857143L-5352.222222222223,399.6892857142857L-5325.555555555556,399.50571428571425L-5298.888888888889,399.3842857142857L-5272.222222222222,399.3121428571429L-5245.555555555556,399.2207142857143L-5218.888888888889,399.1557142857143L-5192.222222222223,399.0628571428572L-5165.555555555556,398.97035714285715L-5138.888888888889,399.03214285714284L-5112.222222222222,399.0517857142857L-5085.555555555556,398.76071428571424L-5058.888888888889,398.4707142857143L-5032.222222222223,398.1932142857143L-5005.555555555556,397.9860714285714L-4978.888888888889,397.69428571428574L-4952.222222222223,397.545L-4925.555555555556,397.29214285714284L-4898.888888888889,397.02964285714285L-4872.222222222222,396.6664285714286L-4845.555555555556,396.4114285714286L-4818.888888888889,396.2207142857143L-4792.222222222223,396.2975L-4765.555555555556,396.0492857142857L-4738.888888888889,395.9753571428571L-4712.222222222222,395.99L-4685.555555555556,395.6607142857143L-4658.888888888889,395.59535714285715L-4632.222222222223,394.9842857142857L-4605.555555555556,394.31035714285713L-4578.888888888889,394.1207142857143L-4552.222222222223,393.8167857142857L-4525.555555555556,393.63678571428574L-4498.888888888889,393.7725L-4472.222222222222,392.99607142857144L-4445.555555555556,392.7282142857143L-4418.888888888889,391.905L-4392.222222222223,391.2692857142857L-4365.555555555556,390.4632142857143L-4338.888888888889,389.23L-4312.222222222222,387.8828571428572L-4285.555555555556,386.7317857142857L-4258.888888888889,386.3717857142857L-4232.222222222223,386.50857142857143L-4205.555555555556,386.1692857142857L-4178.888888888889,385.29499999999996L-4152.222222222223,384.9214285714286L-4125.555555555556,383.24071428571426L-4098.888888888889,382.64785714285716L-4072.222222222222,380.46714285714285L-4045.5555555555557,378.9425L-4018.888888888889,378.25964285714286L-3992.2222222222226,378.2235714285714L-3965.5555555555557,377.5860714285714L-3938.8888888888887,377.3121428571429L-3912.222222222222,375.93142857142857L-3885.5555555555557,373.7867857142857L-3858.8888888888887,372.3392857142857L-3832.222222222222,372.00678571428574L-3805.5555555555557,369.36642857142857L-3778.888888888889,366.5460714285714L-3752.2222222222226,363.7707142857143L-3725.555555555555,361.81357142857144L-3698.8888888888887,360.5003571428571L-3672.222222222222,359.3260714285714L-3645.5555555555557,356.38178571428574L-3618.888888888889,357.31071428571425L-3592.2222222222226,357.37964285714287L-3565.5555555555557,357.05642857142857L-3538.8888888888887,354.2317857142857L-3512.222222222222,352.0442857142857L-3485.5555555555557,346.05642857142857L-3458.8888888888887,345.8435714285714L-3432.222222222222,345.8753571428571L-3405.5555555555557,341.37107142857144L-3378.888888888889,338.5017857142857L-3352.2222222222226,336.89178571428573L-3325.555555555555,335.49821428571425L-3298.8888888888887,337.71214285714285L-3272.222222222222,336.8182142857143L-3245.5555555555557,335.3696428571428L-3218.888888888889,334.24285714285713L-3192.222222222222,332.7142857142857L-3165.5555555555557,332.8975L-3138.888888888889,334.62892857142856L-3112.222222222222,336.54714285714283L-3085.5555555555557,337.19071428571425L-3058.8888888888887,335.40749999999997L-3032.222222222222,334.39785714285716L-3005.5555555555557,334.6567857142857L-2978.8888888888887,337.3878571428572L-2952.222222222222,327.10607142857145L-2925.5555555555557,322.4767857142857L-2898.8888888888887,322.9582142857143L-2872.222222222222,322.07178571428574L-2845.5555555555557,320.4582142857143L-2818.888888888889,316.695L-2792.222222222222,310.7242857142857L-2765.5555555555557,313.5496428571429L-2738.888888888889,312.1114285714286L-2712.222222222222,306.8564285714285L-2685.5555555555557,306.5267857142857L-2658.8888888888887,308.5232142857143L-2632.222222222222,307.0992857142857L-2605.5555555555557,304.02L-2578.8888888888887,305.67607142857145L-2552.222222222222,305.9510714285715L-2525.5555555555557,307.5314285714286L-2498.8888888888887,308.89678571428567L-2472.222222222222,304.8042857142857L-2445.5555555555557,305.56892857142856L-2418.888888888889,307.5282142857143L-2392.222222222222,306.5192857142857L-2365.5555555555557,306.12642857142856L-2338.888888888889,306.5621428571429L-2312.222222222222,306.5417857142857L-2285.5555555555557,307.7732142857143L-2258.8888888888887,309.43285714285713L-2232.222222222222,308.43857142857144L-2205.5555555555557,312.32107142857143L-2178.8888888888887,316.0678571428571L-2152.222222222222,316.53285714285715L-2125.5555555555557,316.5432142857143L-2098.8888888888887,316.8464285714286L-2072.222222222222,306.8692857142857L-2045.5555555555557,301.67L-2018.888888888889,293.91499999999996L-1992.2222222222222,285.8382142857143L-1965.5555555555554,285.4635714285714L-1938.888888888889,284.3825L-1912.2222222222224,284.4510714285714L-1885.5555555555554,284.0175L-1858.888888888889,284.7760714285714L-1832.2222222222222,286.0289285714286L-1805.5555555555557,288.0842857142857L-1778.8888888888887,287.64785714285716L-1752.2222222222222,290.02035714285716L-1725.5555555555557,286.16785714285714L-1698.8888888888887,290.42571428571426L-1672.2222222222222,292.10357142857146L-1645.5555555555557,292.8725L-1618.888888888889,291.2375L-1592.2222222222222,292.2339285714286L-1565.5555555555554,290.3028571428571L-1538.888888888889,290.1039285714286L-1512.2222222222222,290.8171428571428L-1485.5555555555557,288.33428571428567L-1458.888888888889,288.18642857142856L-1432.2222222222222,291.1842857142857L-1405.5555555555554,291.1517857142857L-1378.888888888889,292.10714285714283L-1352.2222222222222,293.67L-1325.5555555555557,295.7617857142857L-1298.888888888889,301.03607142857146L-1272.2222222222222,308.28214285714284L-1245.5555555555557,305.26214285714286L-1218.888888888889,305.14785714285716L-1192.2222222222222,305.9675L-1165.5555555555554,306.19964285714286L-1138.888888888889,306.96285714285716L-1112.2222222222222,307.3514285714285L-1085.5555555555557,302.6882142857143L-1058.888888888889,305.7889285714285L-1032.2222222222222,308.3828571428572L-1005.5555555555555,298.0675L-978.8888888888889,299.6657142857143L-952.2222222222222,299.7467857142857L-925.5555555555557,299.9117857142857L-898.8888888888889,297.50071428571425L-872.2222222222222,301.12607142857144L-845.5555555555555,301.71071428571435L-818.8888888888888,314.4564285714286L-792.2222222222223,324.59214285714285L-765.5555555555555,328.5628571428572L-738.8888888888889,329.71142857142854L-712.2222222222222,332.0132142857143L-685.5555555555555,331.1832142857143L-658.8888888888889,331.095L-632.2222222222222,329.3514285714286L-605.5555555555555,321.36071428571427L-578.8888888888889,321.0021428571428L-552.2222222222222,322.5214285714286L-525.5555555555555,323.9217857142857L-498.8888888888889,324.0882142857143L-472.22222222222223,323.5092857142857L-445.55555555555554,324.13214285714287L-418.8888888888889,325.32107142857143L-392.22222222222223,338.4710714285714L-365.55555555555554,327.7442857142857L-338.88888888888886,330.56071428571425L-312.22222222222223,332.2317857142857L-285.55555555555554,332.9714285714286L-258.8888888888889,333.0628571428571L-232.22222222222223,333.515L-205.55555555555554,321.58178571428573L-178.88888888888889,332.3607142857143L-152.22222222222223,343.7575L-125.55555555555556,332.55642857142857L-98.88888888888889,334.65L-72.22222222222221,335.08178571428573L-45.55555555555556,331.56464285714287L-18.88888888888889,332.2289285714286L7.777777777777778,335.2314285714286L34.44444444444444,325.42999999999995L61.111111111111114,337.21285714285716L87.77777777777777,335.825L114.44444444444444,337.0810714285714L141.11111111111111,348.3975L167.77777777777777,349.93964285714287L194.44444444444443,349.66357142857146L221.11111111111111,348.4242857142857L247.77777777777777,349.38392857142856L274.44444444444446,353.7917857142857L301.1111111111111,347.3860714285714L327.77777777777777,342.74071428571426L354.44444444444446,343.6039285714286L381.1111111111111,344.91285714285715L407.77777777777777,345.23" stroke="#4c78a8" stroke-width="2" opacity="1"></path></g></g><path class="foreground" aria-hidden="true" d="" display="none"></path></g></g><g class="mark-group role-title"><g transform="translate(200,-54)"><path class="background" aria-hidden="true" d="M0,0h0v0h0Z" pointer-events="none"></path><g><g class="mark-text role-title-text" role="graphics-symbol" aria-roledescription="title" aria-label="Title text '7-day average (light color: daily values) [2020-10-23]'" pointer-events="none"><text text-anchor="middle" transform="translate(0,10)" font-family="Roboto Condensed" font-size="13px" font-weight="normal" fill="#000" opacity="1"><tspan>7-day average (light color: daily values)</tspan><tspan x="0" dy="15">[2020-10-23]</tspan></text></g></g><path class="foreground" aria-hidden="true" d="" pointer-events="none" display="none"></path></g></g></g><path class="foreground" aria-hidden="true" d="" display="none"></path></g></g><g class="mark-group role-scope concat_1_group" role="graphics-object" aria-roledescription="group mark container"><g transform="translate(465,0)"><path class="background" aria-hidden="true" d="M0,0h400v400h-400Z" stroke="#ddd" stroke-width="0"></path><g><g class="mark-group role-axis" aria-hidden="true"><g transform="translate(0.5,0.5)"><path class="background" aria-hidden="true" d="M0,0h0v0h0Z" pointer-events="none"></path><g><g class="mark-rule role-axis-grid" pointer-events="none"><line transform="translate(0,400)" x2="400" y2="0" stroke="#ddd" stroke-width="1" opacity="1"></line><line transform="translate(0,364)" x2="400" y2="0" stroke="#ddd" stroke-width="1" opacity="1"></line><line transform="translate(0,327)" x2="400" y2="0" stroke="#ddd" stroke-width="1" opacity="1"></line><line transform="translate(0,291)" x2="400" y2="0" stroke="#ddd" stroke-width="1" opacity="1"></line><line transform="translate(0,255)" x2="400" y2="0" stroke="#ddd" stroke-width="1" opacity="1"></line><line transform="translate(0,218)" x2="400" y2="0" stroke="#ddd" stroke-width="1" opacity="1"></line><line transform="translate(0,182)" x2="400" y2="0" stroke="#ddd" stroke-width="1" opacity="1"></line><line transform="translate(0,145)" x2="400" y2="0" stroke="#ddd" stroke-width="1" opacity="1"></line><line transform="translate(0,109)" x2="400" y2="0" stroke="#ddd" stroke-width="1" opacity="1"></line><line transform="translate(0,73)" x2="400" y2="0" stroke="#ddd" stroke-width="1" opacity="1"></line><line transform="translate(0,36)" x2="400" y2="0" stroke="#ddd" stroke-width="1" opacity="1"></line><line transform="translate(0,0)" x2="400" y2="0" stroke="#ddd" stroke-width="1" opacity="1"></line></g></g><path class="foreground" aria-hidden="true" d="" pointer-events="none" display="none"></path></g></g><g class="mark-group role-axis" role="graphics-symbol" aria-roledescription="axis" aria-label="X-axis titled 'Date' for a time scale with values from October 07 to October 22"><g transform="translate(0.5,400.5)"><path class="background" aria-hidden="true" d="M0,0h0v0h0Z" pointer-events="none"></path><g><g class="mark-text role-axis-label" pointer-events="none"><text text-anchor="middle" transform="translate(34.44444444444444,10)" font-family="Roboto Condensed" font-size="10px" fill="#000" opacity="1">Oct 09</text><text text-anchor="middle" transform="translate(87.77777777777777,10)" font-family="Roboto Condensed" font-size="10px" fill="#000" opacity="1">Oct 11</text><text text-anchor="middle" transform="translate(141.11111111111111,10)" font-family="Roboto Condensed" font-size="10px" fill="#000" opacity="1">Oct 13</text><text text-anchor="middle" transform="translate(194.44444444444443,10)" font-family="Roboto Condensed" font-size="10px" fill="#000" opacity="1">Oct 15</text><text text-anchor="middle" transform="translate(247.77777777777777,10)" font-family="Roboto Condensed" font-size="10px" fill="#000" opacity="1">Oct 17</text><text text-anchor="middle" transform="translate(301.1111111111111,10)" font-family="Roboto Condensed" font-size="10px" fill="#000" opacity="1">Oct 19</text><text text-anchor="middle" transform="translate(354.44444444444446,10)" font-family="Roboto Condensed" font-size="10px" fill="#000" opacity="1">Oct 21</text></g><g class="mark-rule role-axis-domain" pointer-events="none"><line transform="translate(0,0)" x2="400" y2="0" stroke="lightgray" stroke-width="1" opacity="1"></line></g><g class="mark-text role-axis-title" pointer-events="none"><text text-anchor="middle" transform="translate(200,25)" font-family="Roboto Condensed" font-size="11px" font-weight="normal" fill="#000" opacity="1">Date</text></g></g><path class="foreground" aria-hidden="true" d="" pointer-events="none" display="none"></path></g></g><g class="mark-group role-axis" role="graphics-symbol" aria-roledescription="axis" aria-label="Y-axis titled 'Count' for a linear scale with values from 0 to 5,500,000"><g transform="translate(0.5,0.5)"><path class="background" aria-hidden="true" d="M0,0h0v0h0Z" pointer-events="none"></path><g><g class="mark-text role-axis-label" pointer-events="none"><text text-anchor="end" transform="translate(-2,403)" font-family="Roboto Condensed" font-size="10px" fill="#000" opacity="1">0</text><text text-anchor="end" transform="translate(-2,366.6363636363636)" font-family="Roboto Condensed" font-size="10px" fill="#000" opacity="1">500,000</text><text text-anchor="end" transform="translate(-2,330.27272727272725)" font-family="Roboto Condensed" font-size="10px" fill="#000" opacity="1">1,000,000</text><text text-anchor="end" transform="translate(-2,293.90909090909093)" font-family="Roboto Condensed" font-size="10px" fill="#000" opacity="1">1,500,000</text><text text-anchor="end" transform="translate(-2,257.5454545454545)" font-family="Roboto Condensed" font-size="10px" fill="#000" opacity="1">2,000,000</text><text text-anchor="end" transform="translate(-2,221.18181818181816)" font-family="Roboto Condensed" font-size="10px" fill="#000" opacity="1">2,500,000</text><text text-anchor="end" transform="translate(-2,184.81818181818184)" font-family="Roboto Condensed" font-size="10px" fill="#000" opacity="1">3,000,000</text><text text-anchor="end" transform="translate(-2,148.45454545454547)" font-family="Roboto Condensed" font-size="10px" fill="#000" opacity="1">3,500,000</text><text text-anchor="end" transform="translate(-2,112.09090909090908)" font-family="Roboto Condensed" font-size="10px" fill="#000" opacity="1">4,000,000</text><text text-anchor="end" transform="translate(-2,75.7272727272727)" font-family="Roboto Condensed" font-size="10px" fill="#000" opacity="1">4,500,000</text><text text-anchor="end" transform="translate(-2,39.363636363636374)" font-family="Roboto Condensed" font-size="10px" fill="#000" opacity="1">5,000,000</text><text text-anchor="end" transform="translate(-2,3)" font-family="Roboto Condensed" font-size="10px" fill="#000" opacity="1">5,500,000</text></g><g class="mark-rule role-axis-domain" pointer-events="none"><line transform="translate(0,400)" x2="0" y2="-400" stroke="lightgray" stroke-width="1" opacity="1"></line></g><g class="mark-text role-axis-title" pointer-events="none"><text text-anchor="start" transform="translate(-45,-13)" font-family="Roboto Condensed" font-size="11px" font-weight="normal" fill="#000" opacity="1">Count</text></g></g><path class="foreground" aria-hidden="true" d="" pointer-events="none" display="none"></path></g></g><g class="mark-group role-scope concat_1_pathgroup" role="graphics-object" aria-roledescription="group mark container"><g transform="translate(0,0)"><path class="background" aria-hidden="true" d="M0,0h400v400h-400Z"></path><g><g class="mark-line role-mark concat_1_marks" clip-path="url(#clip7)" role="graphics-object" aria-roledescription="line mark container"><path aria-label="Type: Recovered; Date: Mar 01; Country: Brazil; Confirmed: 2; Recovered: 0; Deaths: 0; Count: 0" role="graphics-symbol" aria-roledescription="line mark" d="M-5884.444444444444,400L-5857.777777777777,400L-5831.111111111111,400L-5804.444444444444,400L-5777.777777777778,400L-5751.111111111111,400L-5724.444444444444,400L-5697.777777777777,400L-5672.222222222222,400L-5645.555555555556,400L-5618.888888888889,400L-5592.222222222223,400L-5565.555555555556,400L-5538.888888888889,400L-5512.222222222222,400L-5485.555555555556,399.9999272727273L-5458.888888888889,399.9998545454545L-5432.222222222223,399.9998545454545L-5405.555555555556,399.9998545454545L-5378.888888888889,399.9998545454545L-5352.222222222223,399.9998545454545L-5325.555555555556,399.9998545454545L-5298.888888888889,399.9998545454545L-5272.222222222222,399.9998545454545L-5245.555555555556,399.9998545454545L-5218.888888888889,399.99956363636363L-5192.222222222223,399.99956363636363L-5165.555555555556,399.99956363636363L-5138.888888888889,399.99956363636363L-5112.222222222222,399.9912727272727L-5085.555555555556,399.9907636363636L-5058.888888888889,399.9907636363636L-5032.222222222223,399.9907636363636L-5005.555555555556,399.9907636363636L-4978.888888888889,399.9907636363636L-4952.222222222223,399.9907636363636L-4925.555555555556,399.9907636363636L-4898.888888888889,399.9907636363636L-4872.222222222222,399.9907636363636L-4845.555555555556,399.9874181818182L-4818.888888888889,399.9874181818182L-4792.222222222223,399.9874181818182L-4765.555555555556,399.9874181818182L-4738.888888888889,399.9874181818182L-4712.222222222222,399.77847272727274L-4685.555555555556,398.9799272727273L-4658.888888888889,398.9799272727273L-4632.222222222223,398.9799272727273L-4605.555555555556,398.9799272727273L-4578.888888888889,398.3905454545455L-4552.222222222223,398.3905454545455L-4525.555555555556,398.32792727272727L-4498.888888888889,398.1586909090909L-4472.222222222222,398.0674181818182L-4445.555555555556,397.9887272727273L-4418.888888888889,397.87927272727273L-4392.222222222223,397.80712727272726L-4365.555555555556,397.7351272727273L-4338.888888888889,397.63316363636363L-4312.222222222222,397.5176727272727L-4285.555555555556,397.38654545454546L-4258.888888888889,397.2335272727273L-4232.222222222223,397.02276363636366L-4205.555555555556,396.8733818181818L-4178.888888888889,396.668L-4152.222222222223,396.4930181818182L-4125.555555555556,396.264L-4098.888888888889,395.9745454545454L-4072.222222222222,395.6874909090909L-4045.5555555555557,395.5138181818182L-4018.888888888889,395.27585454545454L-3992.2222222222226,395.09934545454547L-3965.5555555555557,394.72021818181815L-3938.8888888888887,394.29643636363636L-3912.222222222222,394.21970909090913L-3885.5555555555557,393.82036363636365L-3858.8888888888887,393.4784L-3832.222222222222,393.15476363636367L-3805.5555555555557,392.6938909090909L-3778.888888888889,392.2331636363636L-3752.2222222222226,391.51396363636366L-3725.555555555555,390.83927272727277L-3698.8888888888887,390.15054545454547L-3672.222222222222,389.63003636363635L-3645.5555555555557,389.0973818181818L-3618.888888888889,388.81214545454543L-3592.2222222222226,388.46596363636365L-3565.5555555555557,387.8802181818182L-3538.8888888888887,387.08334545454545L-3512.222222222222,386.21992727272726L-3485.5555555555557,385.38967272727274L-3458.8888888888887,384.9778181818182L-3432.222222222222,384.6487272727272L-3405.5555555555557,383.7354181818182L-3378.888888888889,382.64603636363637L-3352.2222222222226,381.45723636363635L-3325.555555555555,380.5861818181818L-3298.8888888888887,379.8437090909091L-3272.222222222222,379.34894545454546L-3245.5555555555557,372.4904L-3218.888888888889,371.14639999999997L-3192.222222222222,369.89701818181817L-3165.5555555555557,368.7298181818182L-3138.888888888889,367.62741818181814L-3112.222222222222,366.58647272727274L-3085.5555555555557,365.88065454545455L-3058.8888888888887,365.2575272727273L-3032.222222222222,364.3632727272727L-3005.5555555555557,362.10574545454546L-2978.8888888888887,361.1214545454545L-2952.222222222222,359.8813818181818L-2925.5555555555557,358.0524363636364L-2898.8888888888887,357.2277818181818L-2872.222222222222,356.2373818181818L-2845.5555555555557,354.32996363636363L-2818.888888888889,351.9658909090909L-2792.222222222222,350.5800727272727L-2765.5555555555557,348.91643636363636L-2738.888888888889,347.07527272727276L-2712.222222222222,345.7441454545455L-2685.5555555555557,344.88647272727275L-2658.8888888888887,342.6677818181818L-2632.222222222222,340.53512727272727L-2605.5555555555557,330.3496727272727L-2578.8888888888887,328.3916363636364L-2552.222222222222,327.94683636363635L-2525.5555555555557,325.1603636363636L-2498.8888888888887,322.7242181818182L-2472.222222222222,319.49003636363636L-2445.5555555555557,317.1022545454545L-2418.888888888889,314.8038545454545L-2392.222222222222,311.46465454545455L-2365.5555555555557,309.5208727272727L-2338.888888888889,308.01141818181816L-2312.222222222222,306.09083636363636L-2285.5555555555557,303.7509090909091L-2258.8888888888887,301.81105454545457L-2232.222222222222,298.3613818181818L-2205.5555555555557,296.1076363636364L-2178.8888888888887,294.7339636363636L-2152.222222222222,293.8856727272727L-2125.5555555555557,289.8690909090909L-2098.8888888888887,286.8844363636364L-2072.222222222222,284.22L-2045.5555555555557,282.1590545454545L-2018.888888888889,276.8571636363636L-1992.2222222222222,270.1557090909091L-1965.5555555555554,268.1517818181818L-1938.888888888889,265.69883636363636L-1912.2222222222224,264.09098181818183L-1885.5555555555554,260.15985454545455L-1858.888888888889,257.68676363636365L-1832.2222222222222,253.90152727272726L-1805.5555555555557,251.78312727272728L-1778.8888888888887,249.97265454545453L-1752.2222222222222,247.34720000000002L-1725.5555555555557,243.09207272727272L-1698.8888888888887,240.70101818181814L-1672.2222222222222,237.7787636363636L-1645.5555555555557,234.7418909090909L-1618.888888888889,231.16094545454544L-1592.2222222222222,228.58305454545453L-1565.5555555555554,226.12145454545453L-1538.888888888889,221.8663272727273L-1512.2222222222222,217.72887272727272L-1485.5555555555557,216.6472727272727L-1458.888888888889,209.67410909090907L-1432.2222222222222,209.24523636363634L-1405.5555555555554,206.90785454545457L-1378.888888888889,203.70327272727275L-1352.2222222222222,199.9093818181818L-1325.5555555555557,196.22320000000002L-1298.888888888889,193.14050909090906L-1272.2222222222222,192.32305454545454L-1245.5555555555557,188.07520000000002L-1218.888888888889,185.6157090909091L-1192.2222222222222,183.54501818181816L-1165.5555555555554,179.45083636363637L-1138.888888888889,175.82203636363639L-1112.2222222222222,172.88392727272725L-1085.5555555555557,170.2703272727273L-1058.888888888889,167.11381818181817L-1032.2222222222222,164.5370909090909L-1005.5555555555555,162.2842909090909L-978.8888888888889,156.7098181818182L-952.2222222222222,153.65025454545454L-925.5555555555557,150.58654545454547L-898.8888888888889,148.0525090909091L-872.2222222222222,145.52734545454547L-845.5555555555555,143.8432727272727L-818.8888888888888,141.87629090909093L-792.2222222222223,140.18756363636365L-765.5555555555555,137.33585454545457L-738.8888888888889,133.9853818181818L-712.2222222222222,131.26123636363639L-685.5555555555555,129.2213818181818L-658.8888888888889,129.2213818181818L-632.2222222222222,125.80814545454544L-605.5555555555555,122.79963636363638L-578.8888888888889,120.32989090909089L-552.2222222222222,118.25934545454544L-525.5555555555555,116.5426181818182L-498.8888888888889,113.68050909090908L-472.22222222222223,111.74938181818183L-445.55555555555554,109.56858181818183L-418.8888888888889,107.86683636363637L-392.22222222222223,105.68530909090907L-365.55555555555554,101.60334545454543L-338.88888888888886,99.74618181818182L-312.22222222222223,97.9413090909091L-285.55555555555554,96.53010909090911L-258.8888888888889,94.73658181818183L-232.22222222222223,91.84349090909092L-205.55555555555554,89.10734545454547L-178.88888888888889,87.29752727272727L-152.22222222222223,87.29752727272727L-125.55555555555556,82.82850909090911L-98.88888888888889,81.79243636363638L-72.22222222222221,80.15403636363638L-45.55555555555556,77.79345454545457L-18.88888888888889,75.84203636363638L7.777777777777778,73.59330909090912L34.44444444444444,72.5197090909091L61.111111111111114,72.5197090909091L87.77777777777777,70.80778181818181L114.44444444444444,70.80778181818181L141.11111111111111,70.80778181818181L167.77777777777777,70.80778181818181L194.44444444444443,70.80778181818181L221.11111111111111,70.80778181818181L247.77777777777777,70.80778181818181L274.44444444444446,70.80778181818181L301.1111111111111,70.80778181818181L327.77777777777777,70.80778181818181L354.44444444444446,70.80778181818181L381.1111111111111,70.80778181818181L407.77777777777777,70.80778181818181" stroke="#e45756" stroke-width="2" opacity="0.7"></path></g></g><path class="foreground" aria-hidden="true" d="" display="none"></path></g><g transform="translate(0,0)"><path class="background" aria-hidden="true" d="M0,0h400v400h-400Z"></path><g><g class="mark-line role-mark concat_1_marks" clip-path="url(#clip8)" role="graphics-object" aria-roledescription="line mark container"><path aria-label="Type: Deaths; Date: Mar 01; Country: Brazil; Confirmed: 2; Recovered: 0; Deaths: 0; Count: 0" role="graphics-symbol" aria-roledescription="line mark" d="M-5884.444444444444,400L-5857.777777777777,400L-5831.111111111111,400L-5804.444444444444,400L-5777.777777777778,400L-5751.111111111111,400L-5724.444444444444,400L-5697.777777777777,400L-5672.222222222222,400L-5645.555555555556,400L-5618.888888888889,400L-5592.222222222223,400L-5565.555555555556,400L-5538.888888888889,400L-5512.222222222222,400L-5485.555555555556,400L-5458.888888888889,399.9999272727273L-5432.222222222223,399.9997818181818L-5405.555555555556,399.99956363636363L-5378.888888888889,399.99920000000003L-5352.222222222223,399.9989090909091L-5325.555555555556,399.9981818181818L-5298.888888888889,399.99752727272727L-5272.222222222222,399.9966545454546L-5245.555555555556,399.9957090909091L-5218.888888888889,399.99440000000004L-5192.222222222223,399.99330909090907L-5165.555555555556,399.99192727272725L-5138.888888888889,399.9901090909091L-5112.222222222222,399.98843636363637L-5085.555555555556,399.9853818181818L-5058.888888888889,399.98254545454546L-5032.222222222223,399.97643636363637L-5005.555555555556,399.9738909090909L-4978.888888888889,399.96763636363636L-4952.222222222223,399.96465454545455L-4925.555555555556,399.9589818181818L-4898.888888888889,399.9501090909091L-4872.222222222222,399.94043636363637L-4845.555555555556,399.9309090909091L-4818.888888888889,399.9231272727273L-4792.222222222223,399.91825454545454L-4765.555555555556,399.91105454545453L-4738.888888888889,399.9034181818182L-4712.222222222222,399.8885818181818L-4685.555555555556,399.8737454545454L-4658.888888888889,399.8600727272727L-4632.222222222223,399.8442909090909L-4605.555555555556,399.8288L-4578.888888888889,399.8209454545455L-4552.222222222223,399.81185454545454L-4525.555555555556,399.8006545454545L-4498.888888888889,399.78865454545456L-4472.222222222222,399.7577454545455L-4445.555555555556,399.73061818181816L-4418.888888888889,399.70494545454545L-4392.222222222223,399.6882909090909L-4365.555555555556,399.6652363636364L-4338.888888888889,399.6303272727273L-4312.222222222222,399.5990545454545L-4285.555555555556,399.5632L-4258.888888888889,399.53367272727274L-4232.222222222223,399.50829090909093L-4205.555555555556,399.4872L-4178.888888888889,399.4642181818182L-4152.222222222223,399.42269090909093L-4125.555555555556,399.3754181818182L-4098.888888888889,399.3316363636364L-4072.222222222222,399.2714909090909L-4045.5555555555557,399.22501818181814L-4018.888888888889,399.19105454545456L-3992.2222222222226,399.15250909090906L-3965.5555555555557,399.09374545454546L-3938.8888888888887,399.0370909090909L-3912.222222222222,398.9818909090909L-3885.5555555555557,398.91185454545456L-3858.8888888888887,398.86094545454546L-3832.222222222222,398.82778181818185L-3805.5555555555557,398.7743272727273L-3778.888888888889,398.6921454545454L-3752.2222222222226,398.62843636363635L-3725.555555555555,398.5420363636364L-3698.8888888888887,398.46923636363636L-3672.222222222222,398.39905454545453L-3645.5555555555557,398.3515636363636L-3618.888888888889,398.2928727272727L-3592.2222222222226,398.2173090909091L-3565.5555555555557,398.1383272727273L-3538.8888888888887,398.0542545454545L-3512.222222222222,397.9725090909091L-3485.5555555555557,397.9029818181818L-3458.8888888888887,397.8680727272727L-3432.222222222222,397.8227636363636L-3405.5555555555557,397.7309818181818L-3378.888888888889,397.63287272727274L-3352.2222222222226,397.5257454545455L-3325.555555555555,397.45265454545455L-3298.8888888888887,397.3869090909091L-3272.222222222222,397.3487272727273L-3245.5555555555557,397.29934545454546L-3218.888888888889,397.2068363636364L-3192.222222222222,397.1141818181818L-3165.5555555555557,397.0240727272727L-3138.888888888889,396.9579636363636L-3112.222222222222,396.8930909090909L-3085.5555555555557,396.8485818181818L-3058.8888888888887,396.8029818181818L-3032.222222222222,396.70974545454544L-3005.5555555555557,396.61745454545456L-2978.8888888888887,396.5274181818182L-2952.222222222222,396.4397090909091L-2925.5555555555557,396.36538181818185L-2898.8888888888887,396.32065454545454L-2872.222222222222,396.27119999999996L-2845.5555555555557,396.1712727272727L-2818.888888888889,396.0850909090909L-2792.222222222222,396.0021090909091L-2765.5555555555557,395.93010909090907L-2738.888888888889,395.84945454545453L-2712.222222222222,395.8093090909091L-2685.5555555555557,395.75898181818184L-2658.8888888888887,395.66589090909093L-2632.222222222222,395.5904L-2605.5555555555557,395.49934545454545L-2578.8888888888887,395.4055272727273L-2552.222222222222,395.3261818181818L-2525.5555555555557,395.2824L-2498.8888888888887,395.2373090909091L-2472.222222222222,395.1461090909091L-2445.5555555555557,395.05716363636367L-2418.888888888889,394.9684363636364L-2392.222222222222,394.88014545454547L-2365.5555555555557,394.80225454545456L-2338.888888888889,394.75636363636363L-2312.222222222222,394.7030545454545L-2285.5555555555557,394.6085090909091L-2258.8888888888887,394.51883636363635L-2232.222222222222,394.42269090909093L-2205.5555555555557,394.3381090909091L-2178.8888888888887,394.2711272727273L-2152.222222222222,394.2190545454546L-2125.5555555555557,394.1730909090909L-2098.8888888888887,394.0736727272727L-2072.222222222222,393.9802909090909L-2045.5555555555557,393.88494545454546L-2018.888888888889,393.80087272727275L-1992.2222222222222,393.7128L-1965.5555555555554,393.67243636363634L-1938.888888888889,393.62778181818186L-1912.2222222222224,393.56080000000003L-1885.5555555555554,393.44480000000004L-1858.888888888889,393.36269090909093L-1832.2222222222222,393.27454545454543L-1805.5555555555557,393.1954181818182L-1778.8888888888887,393.1560727272727L-1752.2222222222222,393.1152727272727L-1725.5555555555557,393.03134545454543L-1698.8888888888887,392.92683636363637L-1672.2222222222222,392.83687272727275L-1645.5555555555557,392.7584L-1618.888888888889,392.6925818181818L-1592.2222222222222,392.65098181818183L-1565.5555555555554,392.59985454545455L-1538.888888888889,392.5072L-1512.2222222222222,392.4217454545455L-1485.5555555555557,392.32996363636363L-1458.888888888889,392.2528727272727L-1432.2222222222222,392.2013090909091L-1405.5555555555554,392.1562181818182L-1378.888888888889,392.1064727272727L-1352.2222222222222,392.00814545454546L-1325.5555555555557,391.92L-1298.888888888889,391.83243636363636L-1272.2222222222222,391.75578181818184L-1245.5555555555557,391.6909090909091L-1218.888888888889,391.6549818181818L-1192.2222222222222,391.6138909090909L-1165.5555555555554,391.5214545454545L-1138.888888888889,391.44254545454544L-1112.2222222222222,391.3709818181818L-1085.5555555555557,391.3088L-1058.888888888889,391.2536727272727L-1032.2222222222222,391.2125090909091L-1005.5555555555555,391.1722909090909L-978.8888888888889,391.0839272727273L-952.2222222222222,390.9978181818182L-925.5555555555557,390.9371636363636L-898.8888888888889,390.87258181818186L-872.2222222222222,390.8216L-845.5555555555555,390.78909090909093L-818.8888888888888,390.76654545454545L-792.2222222222223,390.7298909090909L-765.5555555555555,390.6517090909091L-738.8888888888889,390.58021818181817L-712.2222222222222,390.51665454545457L-685.5555555555555,390.45745454545454L-658.8888888888889,390.42727272727274L-632.2222222222222,390.39956363636367L-605.5555555555555,390.3186181818182L-578.8888888888889,390.24683636363636L-552.2222222222222,390.18654545454547L-525.5555555555555,390.12414545454544L-498.8888888888889,390.0704L-472.22222222222223,390.04400000000004L-445.55555555555554,390.0165818181818L-418.8888888888889,389.956L-392.22222222222223,389.956L-365.55555555555554,389.83214545454547L-338.88888888888886,389.77912727272724L-312.22222222222223,389.71592727272724L-285.55555555555554,389.69156363636364L-258.8888888888889,389.6685090909091L-232.22222222222223,389.60574545454546L-205.55555555555554,389.53076363636364L-178.88888888888889,389.4778181818182L-152.22222222222223,389.4778181818182L-125.55555555555556,389.3827636363636L-98.88888888888889,389.3562181818182L-72.22222222222221,389.33272727272725L-45.55555555555556,389.2731636363636L-18.88888888888889,389.21978181818184L7.777777777777778,389.16676363636367L34.44444444444444,389.1171636363636L61.111111111111114,389.0765090909091L87.77777777777777,389.05541818181814L114.44444444444444,389.0408L141.11111111111111,389.0183272727273L167.77777777777777,388.9638545454545L194.44444444444443,388.91200000000003L221.11111111111111,388.8571636363636L247.77777777777777,388.82363636363635L274.44444444444446,388.82363636363635L301.1111111111111,388.7872L327.77777777777777,388.7391272727273L354.44444444444446,388.6979636363636L381.1111111111111,388.66181818181815L407.77777777777777,388.6202909090909" stroke="#f58518" stroke-width="2" opacity="0.7"></path></g></g><path class="foreground" aria-hidden="true" d="" display="none"></path></g><g transform="translate(0,0)"><path class="background" aria-hidden="true" d="M0,0h400v400h-400Z"></path><g><g class="mark-line role-mark concat_1_marks" clip-path="url(#clip9)" role="graphics-object" aria-roledescription="line mark container"><path aria-label="Type: Confirmed; Date: Mar 01; Country: Brazil; Confirmed: 2; Recovered: 0; Deaths: 0; Count: 2" role="graphics-symbol" aria-roledescription="line mark" d="M-5884.444444444444,399.9998545454545L-5857.777777777777,399.9998545454545L-5831.111111111111,399.9998545454545L-5804.444444444444,399.9997090909091L-5777.777777777778,399.9997090909091L-5751.111111111111,399.99905454545456L-5724.444444444444,399.99905454545456L-5697.777777777777,399.9985454545455L-5672.222222222222,399.9981818181818L-5645.555555555556,399.99774545454545L-5618.888888888889,399.9972363636364L-5592.222222222223,399.99621818181816L-5565.555555555556,399.9890181818182L-5538.888888888889,399.9890181818182L-5512.222222222222,399.9882181818182L-5485.555555555556,399.98545454545456L-5458.888888888889,399.97665454545455L-5432.222222222223,399.9729454545454L-5405.555555555556,399.95483636363633L-5378.888888888889,399.9423272727273L-5352.222222222223,399.92574545454545L-5325.555555555556,399.88756363636367L-5298.888888888889,399.8600727272727L-5272.222222222222,399.8365818181818L-5245.555555555556,399.81425454545456L-5218.888888888889,399.7829090909091L-5192.222222222223,399.7514909090909L-5165.555555555556,399.7160727272727L-5138.888888888889,399.6904727272727L-5112.222222222222,399.6669818181818L-5085.555555555556,399.5842181818182L-5058.888888888889,399.5028363636364L-5032.222222222223,399.4149818181818L-5005.555555555556,399.34138181818184L-4978.888888888889,399.24654545454547L-4952.222222222223,399.1905454545455L-4925.555555555556,399.1155636363636L-4898.888888888889,398.97934545454547L-4872.222222222222,398.82399999999996L-4845.555555555556,398.68421818181815L-4818.888888888889,398.5717818181818L-4792.222222222223,398.49258181818186L-4765.555555555556,398.3860363636364L-4738.888888888889,398.296L-4712.222222222222,398.16276363636365L-4685.555555555556,397.94036363636366L-4658.888888888889,397.78727272727275L-4632.222222222223,397.55039999999997L-4605.555555555556,397.3339636363636L-4578.888888888889,397.1888L-4552.222222222223,397.0368727272727L-4525.555555555556,396.8669818181818L-4498.888888888889,396.67221818181815L-4472.222222222222,396.36101818181817L-4445.555555555556,396.0696L-4418.888888888889,395.68552727272726L-4392.222222222223,395.41090909090906L-4365.555555555556,395.0948363636364L-4338.888888888889,394.67381818181815L-4312.222222222222,394.20472727272727L-4285.555555555556,393.6591272727273L-4258.888888888889,393.2944L-4232.222222222223,392.9381818181818L-4205.555555555556,392.5944727272727L-4178.888888888889,392.1003636363636L-4152.222222222223,391.6032727272727L-4125.555555555556,390.79192727272726L-4098.888888888889,390.1256L-4072.222222222222,389.3168L-4045.5555555555557,388.6501090909091L-4018.888888888889,388.16734545454545L-3992.2222222222226,387.66589090909093L-3965.5555555555557,387.0389818181818L-3938.8888888888887,386.17185454545455L-3912.222222222222,385.22436363636365L-3885.5555555555557,383.9788363636364L-3858.8888888888887,383.01738181818183L-3832.222222222222,382.4669090909091L-3805.5555555555557,381.4277818181818L-3778.888888888889,380.22654545454543L-3752.2222222222226,378.7942545454546L-3725.555555555555,377.44821818181816L-3698.8888888888887,375.9352727272727L-3672.222222222222,374.7346909090909L-3645.5555555555557,373.58465454545455L-3618.888888888889,372.7346909090909L-3592.2222222222226,371.5474909090909L-3565.5555555555557,370.0493818181818L-3538.8888888888887,368.12814545454546L-3512.222222222222,366.1697454545454L-3485.5555555555557,363.74981818181817L-3458.8888888888887,362.55643636363635L-3432.222222222222,361.71294545454543L-3405.5555555555557,359.6085090909091L-3378.888888888889,357.5261090909091L-3352.2222222222226,355.27701818181816L-3325.555555555555,353.0348363636364L-3298.8888888888887,351.0657454545455L-3272.222222222222,349.6903272727273L-3245.5555555555557,348.55185454545455L-3218.888888888889,346.2179636363636L-3192.222222222222,343.8242909090909L-3165.5555555555557,341.6125090909091L-3138.888888888889,339.72290909090907L-3112.222222222222,338.1444363636364L-3085.5555555555557,336.9000727272727L-3058.8888888888887,335.3984727272727L-3032.222222222222,332.85898181818186L-3005.5555555555557,330.5180363636364L-2978.8888888888887,328.8624L-2952.222222222222,324.87905454545455L-2925.5555555555557,322.3578909090909L-2898.8888888888887,321.2115636363636L-2872.222222222222,319.52945454545454L-2845.5555555555557,316.66138181818184L-2818.888888888889,313.5541090909091L-2792.222222222222,310.68261818181816L-2765.5555555555557,307.2746181818182L-2738.888888888889,304.4605818181818L-2712.222222222222,302.24414545454545L-2685.5555555555557,300.49490909090906L-2658.8888888888887,298.0333818181818L-2632.222222222222,294.63614545454544L-2605.5555555555557,291.13759999999996L-2578.8888888888887,288.06683636363636L-2552.222222222222,285.3088L-2525.5555555555557,283.4141818181818L-2498.8888888888887,281.9429818181818L-2472.222222222222,278.64807272727273L-2445.5555555555557,275.40654545454544L-2418.888888888889,272.3069818181818L-2392.222222222222,269.03076363636364L-2365.5555555555557,266.19272727272727L-2338.888888888889,264.38683636363635L-2312.222222222222,262.9114909090909L-2285.5555555555557,259.86734545454544L-2258.8888888888887,256.9637818181819L-2232.222222222222,253.66174545454544L-2205.5555555555557,251.17614545454546L-2178.8888888888887,249.10109090909094L-2152.222222222222,247.38989090909092L-2125.5555555555557,245.91665454545452L-2098.8888888888887,242.93425454545456L-2072.222222222222,237.99898181818185L-2045.5555555555557,233.6381818181818L-2018.888888888889,229.57338181818182L-1992.2222222222222,225.85360000000003L-1965.5555555555554,224.06610909090912L-1938.888888888889,222.3727272727273L-1912.2222222222224,219.4042909090909L-1885.5555555555554,214.38072727272726L-1858.888888888889,210.1744L-1832.2222222222222,206.36472727272727L-1805.5555555555557,203.06349090909092L-1778.8888888888887,201.1871272727273L-1752.2222222222222,199.97687272727273L-1725.5555555555557,196.22392727272725L-1698.8888888888887,192.0674181818182L-1672.2222222222222,188.20276363636364L-1645.5555555555557,184.5496727272727L-1618.888888888889,180.91549090909092L-1592.2222222222222,179.24203636363637L-1565.5555555555554,177.63854545454544L-1538.888888888889,173.8450909090909L-1512.2222222222222,169.8338181818182L-1485.5555555555557,165.46356363636363L-1458.888888888889,161.78036363636363L-1432.2222222222222,158.75665454545452L-1405.5555555555554,157.0765818181818L-1378.888888888889,155.66763636363638L-1352.2222222222222,152.19243636363635L-1325.5555555555557,148.60712727272727L-1298.888888888889,145.3109090909091L-1272.2222222222222,143.10327272727275L-1245.5555555555557,139.46458181818178L-1218.888888888889,137.76123636363639L-1192.2222222222222,136.51919999999998L-1165.5555555555554,133.09127272727275L-1138.888888888889,129.6613818181818L-1112.2222222222222,126.44429090909091L-1085.5555555555557,123.28705454545457L-1058.888888888889,120.27978181818182L-1032.2222222222222,119.10465454545457L-1005.5555555555555,115.76203636363638L-978.8888888888889,112.65956363636364L-952.2222222222222,109.2461818181818L-925.5555555555557,106.06269090909093L-898.8888888888889,102.41447272727271L-872.2222222222222,100.14545454545454L-845.5555555555555,99.0893818181818L-818.8888888888888,98.34225454545455L-792.2222222222223,97.3037818181818L-765.5555555555555,94.69898181818182L-738.8888888888889,91.74938181818182L-712.2222222222222,88.56989090909089L-685.5555555555555,86.13185454545453L-658.8888888888889,85.05781818181819L-632.2222222222222,83.95563636363636L-605.5555555555555,81.28996363636362L-578.8888888888889,78.61214545454547L-552.2222222222222,75.97192727272729L-525.5555555555555,73.0776L-498.8888888888889,70.67345454545455L-472.22222222222223,69.48152727272729L-445.55555555555554,68.5061818181818L-418.8888888888889,66.08261818181819L-392.22222222222223,66.08261818181819L-365.55555555555554,61.25803636363636L-338.88888888888886,58.93723636363637L-312.22222222222223,56.87338181818183L-285.55555555555554,55.83207272727271L-258.8888888888889,54.87534545454547L-232.22222222222223,52.543854545454536L-205.55555555555554,50.11381818181819L-178.88888888888889,47.484218181818164L-152.22222222222223,47.484218181818164L-125.55555555555556,43.139418181818186L-98.88888888888889,42.52443636363634L-72.22222222222221,41.65563636363636L-45.55555555555556,38.60792727272728L-18.88888888888889,36.313163636363655L7.777777777777778,34.294981818181824L34.44444444444444,32.29905454545454L61.111111111111114,30.353672727272716L87.77777777777777,29.45607272727271L114.44444444444444,28.84305454545455L141.11111111111111,28.099781818181803L167.77777777777777,26.119054545454556L194.44444444444443,24.04465454545455L221.11111111111111,21.796363636363658L247.77777777777777,20.04640000000002L274.44444444444446,20.04640000000002L301.1111111111111,18.128945454545466L327.77777777777777,16.439709090909105L354.44444444444446,14.634763636363646L381.1111111111111,12.826909090909089L407.77777777777777,10.643199999999986" stroke="#4c78a8" stroke-width="2" opacity="0.7"></path></g></g><path class="foreground" aria-hidden="true" d="" display="none"></path></g></g><g class="mark-group role-title"><g transform="translate(200,-54)"><path class="background" aria-hidden="true" d="M0,0h0v0h0Z" pointer-events="none"></path><g><g class="mark-text role-title-text" role="graphics-symbol" aria-roledescription="title" aria-label="Title text 'Total [2020-10-23]'" pointer-events="none"><text text-anchor="middle" transform="translate(0,10)" font-family="Roboto Condensed" font-size="13px" font-weight="normal" fill="#000" opacity="1"><tspan>Total</tspan><tspan x="0" dy="15">[2020-10-23]</tspan></text></g></g><path class="foreground" aria-hidden="true" d="" pointer-events="none" display="none"></path></g></g></g><path class="foreground" aria-hidden="true" d="" display="none"></path></g></g><g class="mark-group role-legend" role="graphics-symbol" aria-roledescription="legend" aria-label="Symbol legend for stroke color with 3 values: Confirmed, Deaths, Recovered"><g transform="translate(883,0)"><path class="background" aria-hidden="true" d="M0,0h58v37h-58Z" pointer-events="none"></path><g><g class="mark-group role-legend-entry"><g transform="translate(0,0)"><path class="background" aria-hidden="true" d="M0,0h0v0h0Z" pointer-events="none"></path><g><g class="mark-group role-scope" role="graphics-object" aria-roledescription="group mark container"><g transform="translate(0,0)"><path class="background" aria-hidden="true" d="M0,0h58v11h-58Z" pointer-events="none" opacity="1"></path><g><g class="mark-symbol role-legend-symbol" pointer-events="none"><path transform="translate(6,6)" d="M-5,0L5,0" stroke="#4c78a8" stroke-width="1.5" opacity="0.2"></path></g><g class="mark-text role-legend-label" pointer-events="none"><text text-anchor="start" transform="translate(16,9)" font-family="Roboto Condensed" font-size="10px" fill="#000" opacity="1">Confirmed</text></g></g><path class="foreground" aria-hidden="true" d="" pointer-events="none" display="none"></path></g><g transform="translate(0,13)"><path class="background" aria-hidden="true" d="M0,0h58v11h-58Z" pointer-events="none" opacity="1"></path><g><g class="mark-symbol role-legend-symbol" pointer-events="none"><path transform="translate(6,6)" d="M-5,0L5,0" stroke="#f58518" stroke-width="1.5" opacity="0.2"></path></g><g class="mark-text role-legend-label" pointer-events="none"><text text-anchor="start" transform="translate(16,9)" font-family="Roboto Condensed" font-size="10px" fill="#000" opacity="1">Deaths</text></g></g><path class="foreground" aria-hidden="true" d="" pointer-events="none" display="none"></path></g><g transform="translate(0,26)"><path class="background" aria-hidden="true" d="M0,0h58v11h-58Z" pointer-events="none" opacity="1"></path><g><g class="mark-symbol role-legend-symbol" pointer-events="none"><path transform="translate(6,6)" d="M-5,0L5,0" stroke="#e45756" stroke-width="1.5" opacity="0.2"></path></g><g class="mark-text role-legend-label" pointer-events="none"><text text-anchor="start" transform="translate(16,9)" font-family="Roboto Condensed" font-size="10px" fill="#000" opacity="1">Recovered</text></g></g><path class="foreground" aria-hidden="true" d="" pointer-events="none" display="none"></path></g></g></g><path class="foreground" aria-hidden="true" d="" pointer-events="none" display="none"></path></g></g></g><path class="foreground" aria-hidden="true" d="" pointer-events="none" display="none"></path></g></g></g><path class="foreground" aria-hidden="true" d="" display="none"></path></g></g></g></svg>