<svg class="marks" width="955" height="344" viewBox="0 0 955 344" version="1.1" xmlns="http://www.w3.org/2000/svg" xmlns:xlink="http://www.w3.org/1999/xlink"><rect width="955" height="344" style="fill: white;"></rect><defs><clipPath id="clip1"><rect x="0" y="0" width="400" height="300"></rect></clipPath><clipPath id="clip2"><rect x="0" y="0" width="400" height="300"></rect></clipPath><clipPath id="clip3"><rect x="0" y="0" width="400" height="300"></rect></clipPath><clipPath id="clip4"><rect x="0" y="0" width="400" height="300"></rect></clipPath><clipPath id="clip5"><rect x="0" y="0" width="400" height="300"></rect></clipPath><clipPath id="clip6"><rect x="0" y="0" width="400" height="300"></rect></clipPath><clipPath id="clip7"><rect x="0" y="0" width="400" height="300"></rect></clipPath><clipPath id="clip8"><rect x="0" y="0" width="400" height="300"></rect></clipPath><clipPath id="clip9"><rect x="0" y="0" width="400" height="300"></rect></clipPath></defs><g transform="translate(22,27)"><g class="mark-group role-frame root"><g transform="translate(0,0)"><path class="background" d="M0,0h0v0h0Z" style="fill: none;"></path><g><g class="mark-group role-scope concat_0_group"><g transform="translate(0,0)"><path class="background" d="M0,0h400v300h-400Z" style="fill: none; stroke: #ddd; stroke-width: 0;"></path><g><g class="mark-group role-axis"><g transform="translate(0.5,0.5)"><path class="background" d="M0,0h0v0h0Z" style="pointer-events: none; fill: none;"></path><g><g class="mark-rule role-axis-grid" style="pointer-events: none;"><line transform="translate(0,300)" x2="400" y2="0" style="fill: none; stroke: #ddd; stroke-width: 1; opacity: 1;"></line><line transform="translate(0,267)" x2="400" y2="0" style="fill: none; stroke: #ddd; stroke-width: 1; opacity: 1;"></line><line transform="translate(0,233)" x2="400" y2="0" style="fill: none; stroke: #ddd; stroke-width: 1; opacity: 1;"></line><line transform="translate(0,200)" x2="400" y2="0" style="fill: none; stroke: #ddd; stroke-width: 1; opacity: 1;"></line><line transform="translate(0,167)" x2="400" y2="0" style="fill: none; stroke: #ddd; stroke-width: 1; opacity: 1;"></line><line transform="translate(0,133)" x2="400" y2="0" style="fill: none; stroke: #ddd; stroke-width: 1; opacity: 1;"></line><line transform="translate(0,100)" x2="400" y2="0" style="fill: none; stroke: #ddd; stroke-width: 1; opacity: 1;"></line><line transform="translate(0,67)" x2="400" y2="0" style="fill: none; stroke: #ddd; stroke-width: 1; opacity: 1;"></line><line transform="translate(0,33)" x2="400" y2="0" style="fill: none; stroke: #ddd; stroke-width: 1; opacity: 1;"></line><line transform="translate(0,0)" x2="400" y2="0" style="fill: none; stroke: #ddd; stroke-width: 1; opacity: 1;"></line></g></g><path class="foreground" d="" style="pointer-events: none; display: none; fill: none;"></path></g></g><g class="mark-group role-axis"><g transform="translate(0.5,300.5)"><path class="background" d="M0,0h0v0h0Z" style="pointer-events: none; fill: none;"></path><g><g class="mark-text role-axis-label" style="pointer-events: none;"><text text-anchor="start" transform="translate(0,10)" style="font-family: Roboto Condensed; font-size: 10px; fill: #000; opacity: 1;">Apr 09</text><text text-anchor="middle" transform="translate(26.666666666666668,10)" style="font-family: Roboto Condensed; font-size: 10px; fill: #000; opacity: 0;">Apr 11</text><text text-anchor="middle" transform="translate(53.333333333333336,10)" style="font-family: Roboto Condensed; font-size: 10px; fill: #000; opacity: 1;">Apr 13</text><text text-anchor="middle" transform="translate(80,10)" style="font-family: Roboto Condensed; font-size: 10px; fill: #000; opacity: 0;">Apr 15</text><text text-anchor="middle" transform="translate(106.66666666666667,10)" style="font-family: Roboto Condensed; font-size: 10px; fill: #000; opacity: 1;">Apr 17</text><text text-anchor="middle" transform="translate(133.33333333333331,10)" style="font-family: Roboto Condensed; font-size: 10px; fill: #000; opacity: 0;">Apr 19</text><text text-anchor="middle" transform="translate(160,10)" style="font-family: Roboto Condensed; font-size: 10px; fill: #000; opacity: 1;">Apr 21</text><text text-anchor="middle" transform="translate(186.66666666666666,10)" style="font-family: Roboto Condensed; font-size: 10px; fill: #000; opacity: 0;">Apr 23</text><text text-anchor="middle" transform="translate(213.33333333333334,10)" style="font-family: Roboto Condensed; font-size: 10px; fill: #000; opacity: 1;">Apr 25</text><text text-anchor="middle" transform="translate(240,10)" style="font-family: Roboto Condensed; font-size: 10px; fill: #000; opacity: 0;">Apr 27</text><text text-anchor="middle" transform="translate(266.66666666666663,10)" style="font-family: Roboto Condensed; font-size: 10px; fill: #000; opacity: 1;">Apr 29</text><text text-anchor="middle" transform="translate(293.3333333333333,10)" style="font-family: Roboto Condensed; font-size: 10px; fill: #000; opacity: 0;">May 01</text><text text-anchor="middle" transform="translate(320,10)" style="font-family: Roboto Condensed; font-size: 10px; fill: #000; opacity: 1;">May 03</text><text text-anchor="middle" transform="translate(346.6666666666667,10)" style="font-family: Roboto Condensed; font-size: 10px; fill: #000; opacity: 0;">May 05</text><text text-anchor="middle" transform="translate(373.3333333333333,10)" style="font-family: Roboto Condensed; font-size: 10px; fill: #000; opacity: 1;">May 07</text><text text-anchor="end" transform="translate(400,10)" style="font-family: Roboto Condensed; font-size: 10px; fill: #000; opacity: 0;">May 09</text></g><g class="mark-rule role-axis-domain" style="pointer-events: none;"><line transform="translate(0,0)" x2="400" y2="0" style="fill: none; stroke: lightgray; stroke-width: 1; opacity: 1;"></line></g></g><path class="foreground" d="" style="pointer-events: none; display: none; fill: none;"></path></g></g><g class="mark-group role-axis"><g transform="translate(0.5,0.5)"><path class="background" d="M0,0h0v0h0Z" style="pointer-events: none; fill: none;"></path><g><g class="mark-text role-axis-label" style="pointer-events: none;"><text text-anchor="end" transform="translate(-2,303)" style="font-family: Roboto Condensed; font-size: 10px; fill: #000; opacity: 1;">0</text><text text-anchor="end" transform="translate(-2,269.66666666666663)" style="font-family: Roboto Condensed; font-size: 10px; fill: #000; opacity: 1;">100</text><text text-anchor="end" transform="translate(-2,236.33333333333334)" style="font-family: Roboto Condensed; font-size: 10px; fill: #000; opacity: 1;">200</text><text text-anchor="end" transform="translate(-2,203.00000000000003)" style="font-family: Roboto Condensed; font-size: 10px; fill: #000; opacity: 1;">300</text><text text-anchor="end" transform="translate(-2,169.66666666666669)" style="font-family: Roboto Condensed; font-size: 10px; fill: #000; opacity: 1;">400</text><text text-anchor="end" transform="translate(-2,136.33333333333331)" style="font-family: Roboto Condensed; font-size: 10px; fill: #000; opacity: 1;">500</text><text text-anchor="end" transform="translate(-2,103.00000000000001)" style="font-family: Roboto Condensed; font-size: 10px; fill: #000; opacity: 1;">600</text><text text-anchor="end" transform="translate(-2,69.66666666666666)" style="font-family: Roboto Condensed; font-size: 10px; fill: #000; opacity: 1;">700</text><text text-anchor="end" transform="translate(-2,36.33333333333335)" style="font-family: Roboto Condensed; font-size: 10px; fill: #000; opacity: 1;">800</text><text text-anchor="end" transform="translate(-2,3)" style="font-family: Roboto Condensed; font-size: 10px; fill: #000; opacity: 1;">900</text></g><g class="mark-rule role-axis-domain" style="pointer-events: none;"><line transform="translate(0,300)" x2="0" y2="-300" style="fill: none; stroke: lightgray; stroke-width: 1; opacity: 1;"></line></g></g><path class="foreground" d="" style="pointer-events: none; display: none; fill: none;"></path></g></g><g class="mark-group role-scope concat_0_layer_0_pathgroup"><g transform="translate(0,0)"><path class="background" d="M0,0h400v300h-400Z" style="fill: none;"></path><g><g class="mark-line role-mark concat_0_layer_0_marks" clip-path="url(#clip1)"><path d="M-440.00000000000006,299.95238095238096L-426.6666666666667,299.95238095238096L-413.33333333333337,299.95238095238096L-400,299.95238095238096L-386.6666666666667,299.95238095238096L-373.3333333333333,299.95238095238096L-360,300L-346.6666666666667,300L-333.33333333333337,300L-320,300L-306.6666666666667,300L-293.3333333333333,300L-280,300L-266.66666666666663,300L-253.33333333333331,300L-240,299.85714285714283L-226.66666666666666,298.90476190476187L-213.33333333333334,298.3333333333333L-200,298.0952380952381L-186.66666666666666,297.6666666666667L-173.33333333333334,297.33333333333337L-160,297.33333333333337L-146.66666666666666,296.7142857142857L-133.33333333333331,297.6666666666667L-120,298.04761904761904L-106.66666666666667,255.7142857142857L-93.33333333333333,246.57142857142858L-80,241.42857142857144L-66.66666666666666,237.04761904761907L-53.333333333333336,235.42857142857144L-40,232.57142857142858L-26.666666666666668,226.47619047619045L-13.333333333333334,262.2857142857143L0,266.1428571428571L13.333333333333334,269.42857142857144L26.666666666666668,265.14285714285717L40,258.95238095238096L53.333333333333336,256.4761904761905L66.66666666666666,249.14285714285714L80,244.66666666666669L93.33333333333333,237.14285714285714L106.66666666666667,221.8095238095238L120,208.57142857142856L133.33333333333331,203.00000000000003L146.66666666666666,200.19047619047618L160,195.23809523809524L173.33333333333334,188.04761904761907L186.66666666666666,187.14285714285714L200,197.9047619047619L213.33333333333334,213L226.66666666666666,220.66666666666666L240,221.47619047619045L253.33333333333331,232.1904761904762L266.66666666666663,238.95238095238096L280,244.38095238095235L293.3333333333333,242.42857142857142L306.6666666666667,241.6190476190476L320,243.38095238095238L333.33333333333337,245.9047619047619L346.6666666666667,243.85714285714286L360,246.14285714285714L373.3333333333333,244.47619047619048L386.6666666666667,242.8095238095238L400,242.52380952380955" style="fill: none; stroke: #e45756; stroke-width: 2; opacity: 1;"></path></g></g><path class="foreground" d="" style="display: none; fill: none;"></path></g><g transform="translate(0,0)"><path class="background" d="M0,0h400v300h-400Z" style="fill: none;"></path><g><g class="mark-line role-mark concat_0_layer_0_marks" clip-path="url(#clip2)"><path d="M-440.00000000000006,300L-426.6666666666667,300L-413.33333333333337,300L-400,300L-386.6666666666667,300L-373.3333333333333,300L-360,300L-346.6666666666667,299.95238095238096L-333.33333333333337,299.9047619047619L-320,299.85714285714283L-306.6666666666667,299.8095238095238L-293.3333333333333,299.8095238095238L-280,299.7142857142857L-266.66666666666663,299.57142857142856L-253.33333333333331,299.42857142857144L-240,299.4761904761905L-226.66666666666666,299L-213.33333333333334,298.6666666666667L-200,298.57142857142856L-186.66666666666666,298.3333333333333L-173.33333333333334,297.95238095238096L-160,297.5238095238095L-146.66666666666666,297.1904761904762L-133.33333333333331,297.4761904761905L-120,297.23809523809524L-106.66666666666667,296.6666666666667L-93.33333333333333,296.0952380952381L-80,295.85714285714283L-66.66666666666666,295.42857142857144L-53.333333333333336,294.9047619047619L-40,294.76190476190476L-26.666666666666668,294.61904761904765L-13.333333333333334,294.5714285714286L0,294.5714285714286L13.333333333333334,294.8571428571429L26.666666666666668,295.2857142857143L40,295.5238095238095L53.333333333333336,295.3333333333333L66.66666666666666,295.42857142857144L80,295.66666666666663L93.33333333333333,296L106.66666666666667,295.76190476190476L120,295.90476190476187L133.33333333333331,296.0952380952381L146.66666666666666,296.23809523809524L160,296.6190476190476L173.33333333333334,296.42857142857144L186.66666666666666,296.5238095238095L200,296.8095238095238L213.33333333333334,296.57142857142856L226.66666666666666,296.8095238095238L240,297L253.33333333333331,296.95238095238096L266.66666666666663,297.1904761904762L280,297.23809523809524L293.3333333333333,297.2857142857143L306.6666666666667,297.2857142857143L320,297.04761904761904L333.33333333333337,296.85714285714283L346.6666666666667,296.7142857142857L360,297L373.3333333333333,297.04761904761904L386.6666666666667,297.04761904761904L400,297.5714285714286" style="fill: none; stroke: #f58518; stroke-width: 2; opacity: 1;"></path></g></g><path class="foreground" d="" style="display: none; fill: none;"></path></g><g transform="translate(0,0)"><path class="background" d="M0,0h400v300h-400Z" style="fill: none;"></path><g><g class="mark-line role-mark concat_0_layer_0_marks" clip-path="url(#clip3)"><path d="M-440.00000000000006,299.04761904761904L-426.6666666666667,298.5238095238095L-413.33333333333337,295.90476190476187L-400,287.80952380952385L-386.6666666666667,279.3333333333333L-373.3333333333333,271.09523809523813L-360,262.8095238095238L-346.6666666666667,261.2857142857143L-333.33333333333337,260L-320,259.90476190476187L-306.6666666666667,263.7142857142857L-293.3333333333333,268.04761904761904L-280,271.04761904761904L-266.66666666666663,274.61904761904765L-253.33333333333331,272.1904761904762L-240,269.57142857142856L-226.66666666666666,269.5238095238095L-213.33333333333334,266.95238095238096L-200,264.42857142857144L-186.66666666666666,262L-173.33333333333334,258.9047619047619L-160,254.95238095238096L-146.66666666666666,250L-133.33333333333331,243.66666666666666L-120,237.0952380952381L-106.66666666666667,232L-93.33333333333333,226.19047619047618L-80,216.85714285714286L-66.66666666666666,209.38095238095238L-53.333333333333336,204.90476190476193L-40,199.04761904761907L-26.666666666666668,193.95238095238093L-13.333333333333334,190.14285714285714L0,192.52380952380952L13.333333333333334,201.52380952380952L26.666666666666668,208.47619047619048L40,213.90476190476193L53.333333333333336,222L66.66666666666666,231.42857142857142L80,239.09523809523807L93.33333333333333,240.76190476190476L106.66666666666667,240.28571428571428L120,240.66666666666666L133.33333333333331,242.33333333333334L146.66666666666666,242.95238095238093L160,243.57142857142858L173.33333333333334,241.33333333333331L186.66666666666666,243.00000000000003L200,245.7142857142857L213.33333333333334,242.57142857142858L226.66666666666666,243.19047619047618L240,243.57142857142858L253.33333333333331,244.85714285714286L266.66666666666663,247.71428571428572L280,248.33333333333331L293.3333333333333,247.57142857142856L306.6666666666667,254.1904761904762L320,254.85714285714286L333.33333333333337,253.7142857142857L346.6666666666667,253.8095238095238L360,255.7142857142857L373.3333333333333,255.95238095238093L386.6666666666667,256.8095238095238L400,256.57142857142856" style="fill: none; stroke: #4c78a8; stroke-width: 2; opacity: 1;"></path></g></g><path class="foreground" d="" style="display: none; fill: none;"></path></g></g><g class="mark-group role-scope concat_0_layer_1_pathgroup"><g transform="translate(0,0)"><path class="background" d="M0,0h400v300h-400Z" style="fill: none;"></path><g><g class="mark-line role-mark concat_0_layer_1_marks" clip-path="url(#clip4)"><path d="M-520,300L-506.66666666666663,300L-493.33333333333337,300L-480,300L-466.6666666666667,300L-453.3333333333333,299.6666666666667L-440.00000000000006,300L-426.6666666666667,300L-413.33333333333337,300L-400,300L-386.6666666666667,300L-373.3333333333333,300L-360,300L-346.6666666666667,300L-333.33333333333337,300L-320,300L-306.6666666666667,300L-293.3333333333333,300L-280,300L-266.66666666666663,300L-253.33333333333331,300L-240,299L-226.66666666666666,293.3333333333333L-213.33333333333334,296L-200,298.3333333333333L-186.66666666666666,297L-173.33333333333334,297.6666666666667L-160,300L-146.66666666666666,294.6666666666667L-133.33333333333331,300L-120,298.6666666666667L-106.66666666666667,2.000000000000013L-93.33333333333333,232.99999999999997L-80,261.6666666666667L-66.66666666666666,269.3333333333333L-53.333333333333336,283.3333333333333L-40,280L-26.666666666666668,255.99999999999997L-13.333333333333334,252.66666666666666L0,260L13.333333333333334,284.6666666666667L26.666666666666668,239.33333333333334L40,240L53.333333333333336,262.6666666666667L66.66666666666666,204.66666666666669L80,221.33333333333331L93.33333333333333,207.33333333333334L106.66666666666667,177.33333333333334L120,146.66666666666669L133.33333333333331,200.99999999999997L146.66666666666666,243.00000000000003L160,170L173.33333333333334,171.00000000000003L186.66666666666666,200.99999999999997L200,252.66666666666666L213.33333333333334,252.33333333333334L226.66666666666666,254.66666666666669L240,248.66666666666666L253.33333333333331,245L266.66666666666663,218.33333333333337L280,239L293.3333333333333,239L306.6666666666667,246.66666666666666L320,267L333.33333333333337,266.3333333333333L346.6666666666667,230.66666666666669L360,234.33333333333331L373.3333333333333,227.33333333333334L386.6666666666667,227.33333333333334L400,244.66666666666669" style="fill: none; stroke: #e45756; stroke-width: 2; opacity: 0.2;"></path></g></g><path class="foreground" d="" style="display: none; fill: none;"></path></g><g transform="translate(0,0)"><path class="background" d="M0,0h400v300h-400Z" style="fill: none;"></path><g><g class="mark-line role-mark concat_0_layer_1_marks" clip-path="url(#clip5)"><path d="M-520,300L-506.66666666666663,300L-493.33333333333337,300L-480,300L-466.6666666666667,300L-453.3333333333333,300L-440.00000000000006,300L-426.6666666666667,300L-413.33333333333337,300L-400,300L-386.6666666666667,300L-373.3333333333333,300L-360,300L-346.6666666666667,299.6666666666667L-333.33333333333337,299.6666666666667L-320,299.6666666666667L-306.6666666666667,299.6666666666667L-293.3333333333333,300L-280,299.3333333333333L-266.66666666666663,299L-253.33333333333331,298.6666666666667L-240,300L-226.66666666666666,296.3333333333333L-213.33333333333334,297.33333333333337L-200,299.3333333333333L-186.66666666666666,297.6666666666667L-173.33333333333334,296.3333333333333L-160,295.66666666666663L-146.66666666666666,297.6666666666667L-133.33333333333331,298.3333333333333L-120,295.66666666666663L-106.66666666666667,295.3333333333333L-93.33333333333333,293.6666666666667L-80,294.6666666666667L-66.66666666666666,292.66666666666663L-53.333333333333336,294L-40,297.33333333333337L-26.666666666666668,294.6666666666667L-13.333333333333334,295L0,293.6666666666667L13.333333333333334,296.6666666666667L26.666666666666668,295.66666666666663L40,295.66666666666663L53.333333333333336,296L66.66666666666666,295.3333333333333L80,296.6666666666667L93.33333333333333,296L106.66666666666667,295L120,296.6666666666667L133.33333333333331,297L146.66666666666666,297L160,298L173.33333333333334,295.3333333333333L186.66666666666666,296.6666666666667L200,297L213.33333333333334,295L226.66666666666666,298.6666666666667L240,298.3333333333333L253.33333333333331,297.6666666666667L266.66666666666663,297L280,297L293.3333333333333,297.33333333333337L306.6666666666667,295L320,297L333.33333333333337,297L346.6666666666667,296.6666666666667L360,299L373.3333333333333,297.33333333333337L386.6666666666667,297.33333333333337L400,298.6666666666667" style="fill: none; stroke: #f58518; stroke-width: 2; opacity: 0.2;"></path></g></g><path class="foreground" d="" style="display: none; fill: none;"></path></g><g transform="translate(0,0)"><path class="background" d="M0,0h400v300h-400Z" style="fill: none;"></path><g><g class="mark-line role-mark concat_0_layer_1_marks" clip-path="url(#clip6)"><path d="M-520,299.6666666666667L-506.66666666666663,300L-493.33333333333337,299.3333333333333L-480,298.6666666666667L-466.6666666666667,300L-453.3333333333333,295.66666666666663L-440.00000000000006,300L-426.6666666666667,296L-413.33333333333337,281.6666666666667L-400,242.66666666666666L-386.6666666666667,239.33333333333334L-373.3333333333333,242.33333333333334L-360,237.66666666666666L-346.6666666666667,289.3333333333333L-333.33333333333337,287L-320,281L-306.6666666666667,269.3333333333333L-293.3333333333333,269.66666666666663L-280,263.3333333333333L-266.66666666666663,262.6666666666667L-253.33333333333331,272.3333333333333L-240,268.6666666666667L-226.66666666666666,280.6666666666667L-213.33333333333334,251.33333333333331L-200,252L-186.66666666666666,246.33333333333334L-173.33333333333334,241L-160,244.66666666666669L-146.66666666666666,234L-133.33333333333331,236.33333333333334L-120,205.33333333333331L-106.66666666666667,216.33333333333331L-93.33333333333333,205.66666666666663L-80,175.66666666666669L-66.66666666666666,192.33333333333334L-53.333333333333336,202.66666666666669L-40,195.33333333333331L-26.666666666666668,169.66666666666669L-13.333333333333334,189.66666666666669L0,222.33333333333331L13.333333333333334,238.66666666666669L26.666666666666668,241L40,240.66666666666666L53.333333333333336,252L66.66666666666666,235.66666666666666L80,243.33333333333334L93.33333333333333,234L106.66666666666667,235.33333333333334L120,243.66666666666666L133.33333333333331,252.33333333333334L146.66666666666666,256.3333333333333L160,240L173.33333333333334,227.66666666666669L186.66666666666666,245.66666666666666L200,254.33333333333331L213.33333333333334,221.66666666666669L226.66666666666666,256.6666666666667L240,259L253.33333333333331,249L266.66666666666663,247.66666666666669L280,250L293.3333333333333,249L306.6666666666667,268L320,261.33333333333337L333.33333333333337,251L346.6666666666667,249.66666666666666L360,261L373.3333333333333,251.66666666666669L386.6666666666667,255L400,266.3333333333333" style="fill: none; stroke: #4c78a8; stroke-width: 2; opacity: 0.2;"></path></g></g><path class="foreground" d="" style="display: none; fill: none;"></path></g></g><g class="mark-group role-title"><g transform="translate(200,-22)"><path class="background" d="M0,0h0v0h0Z" style="pointer-events: none; fill: none;"></path><g><g class="mark-text role-title-text" style="pointer-events: none;"><text text-anchor="middle" transform="translate(0,10)" style="font-family: Roboto Condensed; font-size: 13px; font-weight: normal; fill: #000; opacity: 1;">7-day average (Daily values in light color)</text></g></g><path class="foreground" d="" style="pointer-events: none; display: none; fill: none;"></path></g></g></g><path class="foreground" d="" style="display: none; fill: none;"></path></g></g><g class="mark-group role-scope concat_1_group"><g transform="translate(450,0)"><path class="background" d="M0,0h400v300h-400Z" style="fill: none; stroke: #ddd; stroke-width: 0;"></path><g><g class="mark-group role-axis"><g transform="translate(0.5,0.5)"><path class="background" d="M0,0h0v0h0Z" style="pointer-events: none; fill: none;"></path><g><g class="mark-rule role-axis-grid" style="pointer-events: none;"><line transform="translate(0,300)" x2="400" y2="0" style="fill: none; stroke: #ddd; stroke-width: 1; opacity: 1;"></line><line transform="translate(0,273)" x2="400" y2="0" style="fill: none; stroke: #ddd; stroke-width: 1; opacity: 1;"></line><line transform="translate(0,245)" x2="400" y2="0" style="fill: none; stroke: #ddd; stroke-width: 1; opacity: 1;"></line><line transform="translate(0,218)" x2="400" y2="0" style="fill: none; stroke: #ddd; stroke-width: 1; opacity: 1;"></line><line transform="translate(0,191)" x2="400" y2="0" style="fill: none; stroke: #ddd; stroke-width: 1; opacity: 1;"></line><line transform="translate(0,164)" x2="400" y2="0" style="fill: none; stroke: #ddd; stroke-width: 1; opacity: 1;"></line><line transform="translate(0,136)" x2="400" y2="0" style="fill: none; stroke: #ddd; stroke-width: 1; opacity: 1;"></line><line transform="translate(0,109)" x2="400" y2="0" style="fill: none; stroke: #ddd; stroke-width: 1; opacity: 1;"></line><line transform="translate(0,82)" x2="400" y2="0" style="fill: none; stroke: #ddd; stroke-width: 1; opacity: 1;"></line><line transform="translate(0,55)" x2="400" y2="0" style="fill: none; stroke: #ddd; stroke-width: 1; opacity: 1;"></line><line transform="translate(0,27)" x2="400" y2="0" style="fill: none; stroke: #ddd; stroke-width: 1; opacity: 1;"></line><line transform="translate(0,0)" x2="400" y2="0" style="fill: none; stroke: #ddd; stroke-width: 1; opacity: 1;"></line></g></g><path class="foreground" d="" style="pointer-events: none; display: none; fill: none;"></path></g></g><g class="mark-group role-axis"><g transform="translate(0.5,300.5)"><path class="background" d="M0,0h0v0h0Z" style="pointer-events: none; fill: none;"></path><g><g class="mark-text role-axis-label" style="pointer-events: none;"><text text-anchor="start" transform="translate(0,10)" style="font-family: Roboto Condensed; font-size: 10px; fill: #000; opacity: 1;">Apr 09</text><text text-anchor="middle" transform="translate(26.666666666666668,10)" style="font-family: Roboto Condensed; font-size: 10px; fill: #000; opacity: 0;">Apr 11</text><text text-anchor="middle" transform="translate(53.333333333333336,10)" style="font-family: Roboto Condensed; font-size: 10px; fill: #000; opacity: 1;">Apr 13</text><text text-anchor="middle" transform="translate(80,10)" style="font-family: Roboto Condensed; font-size: 10px; fill: #000; opacity: 0;">Apr 15</text><text text-anchor="middle" transform="translate(106.66666666666667,10)" style="font-family: Roboto Condensed; font-size: 10px; fill: #000; opacity: 1;">Apr 17</text><text text-anchor="middle" transform="translate(133.33333333333331,10)" style="font-family: Roboto Condensed; font-size: 10px; fill: #000; opacity: 0;">Apr 19</text><text text-anchor="middle" transform="translate(160,10)" style="font-family: Roboto Condensed; font-size: 10px; fill: #000; opacity: 1;">Apr 21</text><text text-anchor="middle" transform="translate(186.66666666666666,10)" style="font-family: Roboto Condensed; font-size: 10px; fill: #000; opacity: 0;">Apr 23</text><text text-anchor="middle" transform="translate(213.33333333333334,10)" style="font-family: Roboto Condensed; font-size: 10px; fill: #000; opacity: 1;">Apr 25</text><text text-anchor="middle" transform="translate(240,10)" style="font-family: Roboto Condensed; font-size: 10px; fill: #000; opacity: 0;">Apr 27</text><text text-anchor="middle" transform="translate(266.66666666666663,10)" style="font-family: Roboto Condensed; font-size: 10px; fill: #000; opacity: 1;">Apr 29</text><text text-anchor="middle" transform="translate(293.3333333333333,10)" style="font-family: Roboto Condensed; font-size: 10px; fill: #000; opacity: 0;">May 01</text><text text-anchor="middle" transform="translate(320,10)" style="font-family: Roboto Condensed; font-size: 10px; fill: #000; opacity: 1;">May 03</text><text text-anchor="middle" transform="translate(346.6666666666667,10)" style="font-family: Roboto Condensed; font-size: 10px; fill: #000; opacity: 0;">May 05</text><text text-anchor="middle" transform="translate(373.3333333333333,10)" style="font-family: Roboto Condensed; font-size: 10px; fill: #000; opacity: 1;">May 07</text><text text-anchor="end" transform="translate(400,10)" style="font-family: Roboto Condensed; font-size: 10px; fill: #000; opacity: 0;">May 09</text></g><g class="mark-rule role-axis-domain" style="pointer-events: none;"><line transform="translate(0,0)" x2="400" y2="0" style="fill: none; stroke: lightgray; stroke-width: 1; opacity: 1;"></line></g></g><path class="foreground" d="" style="pointer-events: none; display: none; fill: none;"></path></g></g><g class="mark-group role-axis"><g transform="translate(0.5,0.5)"><path class="background" d="M0,0h0v0h0Z" style="pointer-events: none; fill: none;"></path><g><g class="mark-text role-axis-label" style="pointer-events: none;"><text text-anchor="end" transform="translate(-2,303)" style="font-family: Roboto Condensed; font-size: 10px; fill: #000; opacity: 1;">0</text><text text-anchor="end" transform="translate(-2,275.7272727272727)" style="font-family: Roboto Condensed; font-size: 10px; fill: #000; opacity: 1;">1,000</text><text text-anchor="end" transform="translate(-2,248.45454545454544)" style="font-family: Roboto Condensed; font-size: 10px; fill: #000; opacity: 1;">2,000</text><text text-anchor="end" transform="translate(-2,221.1818181818182)" style="font-family: Roboto Condensed; font-size: 10px; fill: #000; opacity: 1;">3,000</text><text text-anchor="end" transform="translate(-2,193.9090909090909)" style="font-family: Roboto Condensed; font-size: 10px; fill: #000; opacity: 1;">4,000</text><text text-anchor="end" transform="translate(-2,166.63636363636363)" style="font-family: Roboto Condensed; font-size: 10px; fill: #000; opacity: 1;">5,000</text><text text-anchor="end" transform="translate(-2,139.36363636363637)" style="font-family: Roboto Condensed; font-size: 10px; fill: #000; opacity: 1;">6,000</text><text text-anchor="end" transform="translate(-2,112.0909090909091)" style="font-family: Roboto Condensed; font-size: 10px; fill: #000; opacity: 1;">7,000</text><text text-anchor="end" transform="translate(-2,84.81818181818181)" style="font-family: Roboto Condensed; font-size: 10px; fill: #000; opacity: 1;">8,000</text><text text-anchor="end" transform="translate(-2,57.54545454545453)" style="font-family: Roboto Condensed; font-size: 10px; fill: #000; opacity: 1;">9,000</text><text text-anchor="end" transform="translate(-2,30.27272727272728)" style="font-family: Roboto Condensed; font-size: 10px; fill: #000; opacity: 1;">10,000</text><text text-anchor="end" transform="translate(-2,3)" style="font-family: Roboto Condensed; font-size: 10px; fill: #000; opacity: 1;">11,000</text></g><g class="mark-rule role-axis-domain" style="pointer-events: none;"><line transform="translate(0,300)" x2="0" y2="-300" style="fill: none; stroke: lightgray; stroke-width: 1; opacity: 1;"></line></g></g><path class="foreground" d="" style="pointer-events: none; display: none; fill: none;"></path></g></g><g class="mark-group role-scope concat_1_pathgroup"><g transform="translate(0,0)"><path class="background" d="M0,0h400v300h-400Z" style="fill: none;"></path><g><g class="mark-line role-mark concat_1_marks" clip-path="url(#clip7)"><path d="M-560,300L-546.6666666666666,300L-533.3333333333333,300L-520,300L-506.66666666666663,300L-493.33333333333337,300L-480,300L-466.6666666666667,300L-453.3333333333333,299.97272727272724L-440.00000000000006,299.97272727272724L-426.6666666666667,299.97272727272724L-413.33333333333337,299.97272727272724L-400,299.97272727272724L-386.6666666666667,299.97272727272724L-373.3333333333333,299.97272727272724L-360,299.97272727272724L-346.6666666666667,299.97272727272724L-333.33333333333337,299.97272727272724L-320,299.97272727272724L-306.6666666666667,299.97272727272724L-293.3333333333333,299.97272727272724L-280,299.97272727272724L-266.66666666666663,299.97272727272724L-253.33333333333331,299.97272727272724L-240,299.8909090909091L-226.66666666666666,299.3454545454546L-213.33333333333334,299.0181818181818L-200,298.8818181818182L-186.66666666666666,298.6363636363636L-173.33333333333334,298.44545454545454L-160,298.44545454545454L-146.66666666666666,298.0090909090909L-133.33333333333331,298.0090909090909L-120,297.9L-106.66666666666667,273.5181818181818L-93.33333333333333,268.03636363636366L-80,264.9L-66.66666666666666,262.3909090909091L-53.333333333333336,261.0272727272727L-40,259.3909090909091L-26.666666666666668,255.79090909090908L-13.333333333333334,251.91818181818184L0,248.64545454545453L13.333333333333334,247.39090909090908L26.666666666666668,242.42727272727274L40,237.51818181818183L53.333333333333336,234.46363636363637L66.66666666666666,226.66363636363636L80,220.22727272727275L93.33333333333333,212.64545454545453L106.66666666666667,202.60909090909092L120,190.06363636363636L133.33333333333331,181.96363636363634L146.66666666666666,177.29999999999998L160,166.66363636363636L173.33333333333334,156.1090909090909L186.66666666666666,148.0090909090909L200,144.13636363636363L213.33333333333334,140.23636363636365L226.66666666666666,136.52727272727273L240,132.3272727272727L253.33333333333331,127.82727272727273L266.66666666666663,121.14545454545456L280,116.15454545454546L293.3333333333333,111.16363636363636L306.6666666666667,106.8L320,104.1L333.33333333333337,101.34545454545454L346.6666666666667,95.67272727272727L360,90.30000000000001L373.3333333333333,84.35454545454546L386.6666666666667,78.4090909090909L400,73.88181818181819" style="fill: none; stroke: #e45756; stroke-width: 2; opacity: 0.7;"></path></g></g><path class="foreground" d="" style="display: none; fill: none;"></path></g><g transform="translate(0,0)"><path class="background" d="M0,0h400v300h-400Z" style="fill: none;"></path><g><g class="mark-line role-mark concat_1_marks" clip-path="url(#clip8)"><path d="M-560,300L-546.6666666666666,300L-533.3333333333333,300L-520,300L-506.66666666666663,300L-493.33333333333337,300L-480,300L-466.6666666666667,300L-453.3333333333333,300L-440.00000000000006,300L-426.6666666666667,300L-413.33333333333337,300L-400,300L-386.6666666666667,300L-373.3333333333333,300L-360,300L-346.6666666666667,299.97272727272724L-333.33333333333337,299.94545454545454L-320,299.9181818181818L-306.6666666666667,299.8909090909091L-293.3333333333333,299.8909090909091L-280,299.83636363636367L-266.66666666666663,299.75454545454545L-253.33333333333331,299.6454545454545L-240,299.6454545454545L-226.66666666666666,299.3454545454546L-213.33333333333334,299.1272727272727L-200,299.07272727272726L-186.66666666666666,298.8818181818182L-173.33333333333334,298.5818181818182L-160,298.22727272727275L-146.66666666666666,298.03636363636366L-133.33333333333331,297.9L-120,297.54545454545456L-106.66666666666667,297.16363636363633L-93.33333333333333,296.6454545454545L-80,296.2090909090909L-66.66666666666666,295.6090909090909L-53.333333333333336,295.1181818181818L-40,294.9L-26.666666666666668,294.46363636363634L-13.333333333333334,294.05454545454546L0,293.53636363636366L13.333333333333334,293.26363636363635L26.666666666666668,292.9090909090909L40,292.55454545454546L53.333333333333336,292.22727272727275L66.66666666666666,291.8454545454545L80,291.57272727272726L93.33333333333333,291.24545454545455L106.66666666666667,290.8363636363636L120,290.56363636363636L133.33333333333331,290.3181818181818L146.66666666666666,290.07272727272726L160,289.9090909090909L173.33333333333334,289.52727272727276L186.66666666666666,289.25454545454545L200,289.0090909090909L213.33333333333334,288.59999999999997L226.66666666666666,288.4909090909091L240,288.3545454545454L253.33333333333331,288.1636363636364L266.66666666666663,287.91818181818184L280,287.6727272727273L293.3333333333333,287.45454545454544L306.6666666666667,287.04545454545456L320,286.8L333.33333333333337,286.55454545454546L346.6666666666667,286.2818181818182L360,286.2L373.3333333333333,285.9818181818182L386.6666666666667,285.76363636363635L400,285.6545454545455" style="fill: none; stroke: #f58518; stroke-width: 2; opacity: 0.7;"></path></g></g><path class="foreground" d="" style="display: none; fill: none;"></path></g><g transform="translate(0,0)"><path class="background" d="M0,0h400v300h-400Z" style="fill: none;"></path><g><g class="mark-line role-mark concat_1_marks" clip-path="url(#clip9)"><path d="M-560,299.97272727272724L-546.6666666666666,299.97272727272724L-533.3333333333333,299.9181818181818L-520,299.8909090909091L-506.66666666666663,299.8909090909091L-493.33333333333337,299.83636363636367L-480,299.72727272727275L-466.6666666666667,299.72727272727275L-453.3333333333333,299.3727272727273L-440.00000000000006,299.3727272727273L-426.6666666666667,299.04545454545456L-413.33333333333337,297.54545454545456L-400,292.8545454545455L-386.6666666666667,287.8909090909091L-373.3333333333333,283.1727272727273L-360,278.07272727272726L-346.6666666666667,277.2L-333.33333333333337,276.1363636363636L-320,274.58181818181816L-306.6666666666667,272.07272727272726L-293.3333333333333,269.5909090909091L-280,266.5909090909091L-266.66666666666663,263.53636363636366L-253.33333333333331,261.27272727272725L-240,258.7090909090909L-226.66666666666666,257.1272727272727L-213.33333333333334,253.14545454545453L-200,249.21818181818182L-186.66666666666666,244.8272727272727L-173.33333333333334,240L-160,235.47272727272727L-146.66666666666666,230.07272727272726L-133.33333333333331,224.86363636363635L-120,217.11818181818182L-106.66666666666667,210.27272727272728L-93.33333333333333,202.55454545454543L-80,192.38181818181818L-66.66666666666666,183.5727272727273L-53.333333333333336,175.6090909090909L-40,167.04545454545456L-26.666666666666668,156.3818181818182L-13.333333333333334,147.35454545454544L0,141L13.333333333333334,135.98181818181817L26.666666666666668,131.15454545454546L40,126.30000000000001L53.333333333333336,122.37272727272726L66.66666666666666,117.10909090909091L80,112.47272727272725L93.33333333333333,107.07272727272729L106.66666666666667,101.78181818181818L120,97.17272727272727L133.33333333333331,93.27272727272728L146.66666666666666,89.70000000000002L160,84.79090909090911L173.33333333333334,78.87272727272726L186.66666666666666,74.42727272727274L200,70.69090909090909L213.33333333333334,64.28181818181818L226.66666666666666,60.736363636363635L240,57.381818181818176L253.33333333333331,53.20909090909092L266.66666666666663,48.92727272727272L280,44.83636363636365L293.3333333333333,40.66363636363636L306.6666666666667,38.04545454545455L320,34.88181818181819L333.33333333333337,30.872727272727285L346.6666666666667,26.754545454545443L360,23.563636363636377L373.3333333333333,19.60909090909092L386.6666666666667,15.927272727272722L400,13.172727272727268" style="fill: none; stroke: #4c78a8; stroke-width: 2; opacity: 0.7;"></path></g></g><path class="foreground" d="" style="display: none; fill: none;"></path></g></g><g class="mark-group role-title"><g transform="translate(200,-22)"><path class="background" d="M0,0h0v0h0Z" style="pointer-events: none; fill: none;"></path><g><g class="mark-text role-title-text" style="pointer-events: none;"><text text-anchor="middle" transform="translate(0,10)" style="font-family: Roboto Condensed; font-size: 13px; font-weight: normal; fill: #000; opacity: 1;">Total</text></g></g><path class="foreground" d="" style="pointer-events: none; display: none; fill: none;"></path></g></g></g><path class="foreground" d="" style="display: none; fill: none;"></path></g></g><g class="mark-group role-legend"><g transform="translate(868,0)"><path class="background" d="M0,0h60v37h-60Z" style="pointer-events: none; fill: none;"></path><g><g class="mark-group role-legend-entry"><g transform="translate(0,0)"><path class="background" d="M0,0h0v0h0Z" style="pointer-events: none; fill: none;"></path><g><g class="mark-group role-scope"><g transform="translate(0,0)"><path class="background" d="M0,0h59.3251953125v11h-59.3251953125Z" style="pointer-events: none; fill: none; opacity: 1;"></path><g><g class="mark-symbol role-legend-symbol" style="pointer-events: none;"><path transform="translate(6,6)" d="M-5,0L5,0" style="fill: none; stroke: #4c78a8; stroke-width: 1.5; opacity: 1;"></path></g><g class="mark-text role-legend-label" style="pointer-events: none;"><text text-anchor="start" transform="translate(16,9)" style="font-family: Roboto Condensed; font-size: 10px; fill: #000; opacity: 1;">Confirmed</text></g></g><path class="foreground" d="" style="pointer-events: none; display: none; fill: none;"></path></g><g transform="translate(0,13)"><path class="background" d="M0,0h59.3251953125v11h-59.3251953125Z" style="pointer-events: none; fill: none; opacity: 1;"></path><g><g class="mark-symbol role-legend-symbol" style="pointer-events: none;"><path transform="translate(6,6)" d="M-5,0L5,0" style="fill: none; stroke: #f58518; stroke-width: 1.5; opacity: 1;"></path></g><g class="mark-text role-legend-label" style="pointer-events: none;"><text text-anchor="start" transform="translate(16,9)" style="font-family: Roboto Condensed; font-size: 10px; fill: #000; opacity: 1;">Deaths</text></g></g><path class="foreground" d="" style="pointer-events: none; display: none; fill: none;"></path></g><g transform="translate(0,26)"><path class="background" d="M0,0h59.3251953125v11h-59.3251953125Z" style="pointer-events: none; fill: none; opacity: 1;"></path><g><g class="mark-symbol role-legend-symbol" style="pointer-events: none;"><path transform="translate(6,6)" d="M-5,0L5,0" style="fill: none; stroke: #e45756; stroke-width: 1.5; opacity: 1;"></path></g><g class="mark-text role-legend-label" style="pointer-events: none;"><text text-anchor="start" transform="translate(16,9)" style="font-family: Roboto Condensed; font-size: 10px; fill: #000; opacity: 1;">Recovered</text></g></g><path class="foreground" d="" style="pointer-events: none; display: none; fill: none;"></path></g></g></g><path class="foreground" d="" style="pointer-events: none; display: none; fill: none;"></path></g></g></g><path class="foreground" d="" style="pointer-events: none; display: none; fill: none;"></path></g></g></g><path class="foreground" d="" style="display: none; fill: none;"></path></g></g></g></svg>