<svg class="marks" width="958" height="344" viewBox="0 0 958 344" version="1.1" xmlns="http://www.w3.org/2000/svg" xmlns:xlink="http://www.w3.org/1999/xlink"><rect width="958" height="344" style="fill: white;"></rect><defs><clipPath id="clip1"><rect x="0" y="0" width="400" height="300"></rect></clipPath><clipPath id="clip2"><rect x="0" y="0" width="400" height="300"></rect></clipPath><clipPath id="clip3"><rect x="0" y="0" width="400" height="300"></rect></clipPath><clipPath id="clip4"><rect x="0" y="0" width="400" height="300"></rect></clipPath><clipPath id="clip5"><rect x="0" y="0" width="400" height="300"></rect></clipPath><clipPath id="clip6"><rect x="0" y="0" width="400" height="300"></rect></clipPath><clipPath id="clip7"><rect x="0" y="0" width="400" height="300"></rect></clipPath><clipPath id="clip8"><rect x="0" y="0" width="400" height="300"></rect></clipPath><clipPath id="clip9"><rect x="0" y="0" width="400" height="300"></rect></clipPath></defs><g transform="translate(30,27)"><g class="mark-group role-frame root"><g transform="translate(0,0)"><path class="background" d="M0,0h0v0h0Z" style="fill: none;"></path><g><g class="mark-group role-scope concat_0_group"><g transform="translate(0,0)"><path class="background" d="M0,0h400v300h-400Z" style="fill: none; stroke: #ddd; stroke-width: 0;"></path><g><g class="mark-group role-axis"><g transform="translate(0.5,0.5)"><path class="background" d="M0,0h0v0h0Z" style="pointer-events: none; fill: none;"></path><g><g class="mark-rule role-axis-grid" style="pointer-events: none;"><line transform="translate(0,300)" x2="400" y2="0" style="fill: none; stroke: #ddd; stroke-width: 1; opacity: 1;"></line><line transform="translate(0,263)" x2="400" y2="0" style="fill: none; stroke: #ddd; stroke-width: 1; opacity: 1;"></line><line transform="translate(0,225)" x2="400" y2="0" style="fill: none; stroke: #ddd; stroke-width: 1; opacity: 1;"></line><line transform="translate(0,188)" x2="400" y2="0" style="fill: none; stroke: #ddd; stroke-width: 1; opacity: 1;"></line><line transform="translate(0,150)" x2="400" y2="0" style="fill: none; stroke: #ddd; stroke-width: 1; opacity: 1;"></line><line transform="translate(0,113)" x2="400" y2="0" style="fill: none; stroke: #ddd; stroke-width: 1; opacity: 1;"></line><line transform="translate(0,75)" x2="400" y2="0" style="fill: none; stroke: #ddd; stroke-width: 1; opacity: 1;"></line><line transform="translate(0,38)" x2="400" y2="0" style="fill: none; stroke: #ddd; stroke-width: 1; opacity: 1;"></line><line transform="translate(0,0)" x2="400" y2="0" style="fill: none; stroke: #ddd; stroke-width: 1; opacity: 1;"></line></g></g><path class="foreground" d="" style="pointer-events: none; display: none; fill: none;"></path></g></g><g class="mark-group role-axis"><g transform="translate(0.5,300.5)"><path class="background" d="M0,0h0v0h0Z" style="pointer-events: none; fill: none;"></path><g><g class="mark-text role-axis-label" style="pointer-events: none;"><text text-anchor="start" transform="translate(0,10)" style="font-family: Roboto Condensed; font-size: 10px; fill: #000; opacity: 1;">Apr 09</text><text text-anchor="middle" transform="translate(26.666666666666668,10)" style="font-family: Roboto Condensed; font-size: 10px; fill: #000; opacity: 0;">Apr 11</text><text text-anchor="middle" transform="translate(53.333333333333336,10)" style="font-family: Roboto Condensed; font-size: 10px; fill: #000; opacity: 1;">Apr 13</text><text text-anchor="middle" transform="translate(80,10)" style="font-family: Roboto Condensed; font-size: 10px; fill: #000; opacity: 0;">Apr 15</text><text text-anchor="middle" transform="translate(106.66666666666667,10)" style="font-family: Roboto Condensed; font-size: 10px; fill: #000; opacity: 1;">Apr 17</text><text text-anchor="middle" transform="translate(133.33333333333331,10)" style="font-family: Roboto Condensed; font-size: 10px; fill: #000; opacity: 0;">Apr 19</text><text text-anchor="middle" transform="translate(160,10)" style="font-family: Roboto Condensed; font-size: 10px; fill: #000; opacity: 1;">Apr 21</text><text text-anchor="middle" transform="translate(186.66666666666666,10)" style="font-family: Roboto Condensed; font-size: 10px; fill: #000; opacity: 0;">Apr 23</text><text text-anchor="middle" transform="translate(213.33333333333334,10)" style="font-family: Roboto Condensed; font-size: 10px; fill: #000; opacity: 1;">Apr 25</text><text text-anchor="middle" transform="translate(240,10)" style="font-family: Roboto Condensed; font-size: 10px; fill: #000; opacity: 0;">Apr 27</text><text text-anchor="middle" transform="translate(266.66666666666663,10)" style="font-family: Roboto Condensed; font-size: 10px; fill: #000; opacity: 1;">Apr 29</text><text text-anchor="middle" transform="translate(293.3333333333333,10)" style="font-family: Roboto Condensed; font-size: 10px; fill: #000; opacity: 0;">May 01</text><text text-anchor="middle" transform="translate(320,10)" style="font-family: Roboto Condensed; font-size: 10px; fill: #000; opacity: 1;">May 03</text><text text-anchor="middle" transform="translate(346.6666666666667,10)" style="font-family: Roboto Condensed; font-size: 10px; fill: #000; opacity: 0;">May 05</text><text text-anchor="middle" transform="translate(373.3333333333333,10)" style="font-family: Roboto Condensed; font-size: 10px; fill: #000; opacity: 1;">May 07</text><text text-anchor="end" transform="translate(400,10)" style="font-family: Roboto Condensed; font-size: 10px; fill: #000; opacity: 0;">May 09</text></g><g class="mark-rule role-axis-domain" style="pointer-events: none;"><line transform="translate(0,0)" x2="400" y2="0" style="fill: none; stroke: lightgray; stroke-width: 1; opacity: 1;"></line></g></g><path class="foreground" d="" style="pointer-events: none; display: none; fill: none;"></path></g></g><g class="mark-group role-axis"><g transform="translate(0.5,0.5)"><path class="background" d="M0,0h0v0h0Z" style="pointer-events: none; fill: none;"></path><g><g class="mark-text role-axis-label" style="pointer-events: none;"><text text-anchor="end" transform="translate(-2,303)" style="font-family: Roboto Condensed; font-size: 10px; fill: #000; opacity: 1;">-200</text><text text-anchor="end" transform="translate(-2,265.5)" style="font-family: Roboto Condensed; font-size: 10px; fill: #000; opacity: 1;">0</text><text text-anchor="end" transform="translate(-2,228)" style="font-family: Roboto Condensed; font-size: 10px; fill: #000; opacity: 1;">200</text><text text-anchor="end" transform="translate(-2,190.5)" style="font-family: Roboto Condensed; font-size: 10px; fill: #000; opacity: 1;">400</text><text text-anchor="end" transform="translate(-2,153)" style="font-family: Roboto Condensed; font-size: 10px; fill: #000; opacity: 1;">600</text><text text-anchor="end" transform="translate(-2,115.5)" style="font-family: Roboto Condensed; font-size: 10px; fill: #000; opacity: 1;">800</text><text text-anchor="end" transform="translate(-2,78)" style="font-family: Roboto Condensed; font-size: 10px; fill: #000; opacity: 1;">1,000</text><text text-anchor="end" transform="translate(-2,40.5)" style="font-family: Roboto Condensed; font-size: 10px; fill: #000; opacity: 1;">1,200</text><text text-anchor="end" transform="translate(-2,3)" style="font-family: Roboto Condensed; font-size: 10px; fill: #000; opacity: 1;">1,400</text></g><g class="mark-rule role-axis-domain" style="pointer-events: none;"><line transform="translate(0,300)" x2="0" y2="-300" style="fill: none; stroke: lightgray; stroke-width: 1; opacity: 1;"></line></g></g><path class="foreground" d="" style="pointer-events: none; display: none; fill: none;"></path></g></g><g class="mark-group role-scope concat_0_layer_0_pathgroup"><g transform="translate(0,0)"><path class="background" d="M0,0h400v300h-400Z" style="fill: none;"></path><g><g class="mark-line role-mark concat_0_layer_0_marks" clip-path="url(#clip1)"><path d="M-440.00000000000006,262.5L-426.6666666666667,262.5L-413.33333333333337,262.5L-400,262.5L-386.6666666666667,262.5L-373.3333333333333,262.5L-360,262.5L-346.6666666666667,262.5L-333.33333333333337,262.25892857142856L-320,262.25892857142856L-306.6666666666667,262.25892857142856L-293.3333333333333,262.25892857142856L-280,262.25892857142856L-266.66666666666663,262.25892857142856L-253.33333333333331,262.25892857142856L-240,262.5L-226.66666666666666,262.5L-213.33333333333334,262.5L-200,262.5L-186.66666666666666,262.5L-173.33333333333334,262.5L-160,262.5L-146.66666666666666,262.5L-133.33333333333331,262.5L-120,262.5L-106.66666666666667,262.5L-93.33333333333333,254.73214285714286L-80,254.73214285714286L-66.66666666666666,254.73214285714286L-53.333333333333336,254.73214285714286L-40,254.73214285714286L-26.666666666666668,254.73214285714286L-13.333333333333334,254.73214285714286L0,262.5L13.333333333333334,262.5L26.666666666666668,262.5L40,262.5L53.333333333333336,262.5L66.66666666666666,262.5L80,262.5L93.33333333333333,225L106.66666666666667,225L120,225L133.33333333333331,225L146.66666666666666,216.96428571428572L160,216.96428571428572L173.33333333333334,216.96428571428572L186.66666666666666,254.46428571428572L200,241.07142857142858L213.33333333333334,241.07142857142858L226.66666666666666,241.07142857142858L240,249.10714285714283L253.33333333333331,241.07142857142858L266.66666666666663,241.07142857142858L280,235.71428571428572L293.3333333333333,249.10714285714283L306.6666666666667,249.10714285714283L320,249.10714285714283L333.33333333333337,235.71428571428572L346.6666666666667,243.75L360,243.75L373.3333333333333,249.10714285714283L386.6666666666667,235.71428571428572L400,235.71428571428572" style="fill: none; stroke: #e45756; stroke-width: 2; opacity: 1;"></path></g></g><path class="foreground" d="" style="display: none; fill: none;"></path></g><g transform="translate(0,0)"><path class="background" d="M0,0h400v300h-400Z" style="fill: none;"></path><g><g class="mark-line role-mark concat_0_layer_0_marks" clip-path="url(#clip2)"><path d="M-440.00000000000006,262.5L-426.6666666666667,262.5L-413.33333333333337,262.5L-400,262.5L-386.6666666666667,262.5L-373.3333333333333,262.5L-360,262.5L-346.6666666666667,262.5L-333.33333333333337,262.5L-320,262.5L-306.6666666666667,262.5L-293.3333333333333,262.5L-280,262.5L-266.66666666666663,262.5L-253.33333333333331,262.4732142857143L-240,262.4732142857143L-226.66666666666666,262.4732142857143L-213.33333333333334,262.4732142857143L-200,262.41964285714283L-186.66666666666666,262.36607142857144L-173.33333333333334,262.3125L-160,262.2857142857143L-146.66666666666666,262.23214285714283L-133.33333333333331,262.17857142857144L-120,262.07142857142856L-106.66666666666667,262.125L-93.33333333333333,262.125L-80,262.1517857142857L-66.66666666666666,262.07142857142856L-53.333333333333336,262.0446428571429L-40,262.125L-26.666666666666668,262.0446428571429L-13.333333333333334,261.88392857142856L0,261.88392857142856L13.333333333333334,261.75L26.666666666666668,261.8571428571429L40,261.75L53.333333333333336,261.6428571428571L66.66666666666666,261.69642857142856L80,261.6428571428571L93.33333333333333,261.61607142857144L106.66666666666667,261.5892857142857L120,261.4017857142857L133.33333333333331,261.48214285714283L146.66666666666666,261.4553571428571L160,260.4375L173.33333333333334,260.4375L186.66666666666666,259.9017857142857L200,259.9553571428571L213.33333333333334,259.92857142857144L226.66666666666666,259.92857142857144L240,259.9553571428571L253.33333333333331,260.94642857142856L266.66666666666663,260.9732142857143L280,261.4553571428571L293.3333333333333,261.4017857142857L306.6666666666667,261.5892857142857L320,261.42857142857144L333.33333333333337,261.24107142857144L346.6666666666667,261.24107142857144L360,261.26785714285717L373.3333333333333,261.32142857142856L386.6666666666667,261.375L400,261.2946428571429" style="fill: none; stroke: #f58518; stroke-width: 2; opacity: 1;"></path></g></g><path class="foreground" d="" style="display: none; fill: none;"></path></g><g transform="translate(0,0)"><path class="background" d="M0,0h400v300h-400Z" style="fill: none;"></path><g><g class="mark-line role-mark concat_0_layer_0_marks" clip-path="url(#clip3)"><path d="M-440.00000000000006,262.17857142857144L-426.6666666666667,262.0446428571429L-413.33333333333337,261.8571428571429L-400,261.5892857142857L-386.6666666666667,261.08035714285717L-373.3333333333333,261.24107142857144L-360,258.75L-346.6666666666667,256.875L-333.33333333333337,256.58035714285717L-320,255.88392857142856L-306.6666666666667,254.97321428571428L-293.3333333333333,255.08035714285714L-280,253.36607142857144L-266.66666666666663,254.5982142857143L-253.33333333333331,254.51785714285714L-240,252.26785714285714L-226.66666666666666,251.16964285714286L-213.33333333333334,249.88392857142856L-200,247.92857142857142L-186.66666666666666,247.55357142857142L-173.33333333333334,246.66964285714286L-160,245.25L-146.66666666666666,246.05357142857142L-133.33333333333331,245.0357142857143L-120,245.73214285714283L-106.66666666666667,247.3392857142857L-93.33333333333333,247.5L-80,247.125L-66.66666666666666,243.3482142857143L-53.333333333333336,244.09821428571428L-40,240.42857142857142L-26.666666666666668,238.6607142857143L-13.333333333333334,234.61607142857144L0,233.38392857142858L13.333333333333334,231.5892857142857L26.666666666666668,235.09821428571428L40,234.45535714285714L53.333333333333336,238.71428571428572L66.66666666666666,239.6517857142857L80,242.41071428571428L93.33333333333333,242.0357142857143L106.66666666666667,243.21428571428572L120,241.71428571428572L133.33333333333331,240.83035714285714L146.66666666666666,240.9642857142857L160,239.6517857142857L173.33333333333334,238.60714285714286L186.66666666666666,237.99107142857144L200,238.23214285714286L213.33333333333334,241.23214285714286L226.66666666666666,241.25892857142858L240,240.3482142857143L253.33333333333331,243.05357142857142L266.66666666666663,241.6875L280,243.45535714285717L293.3333333333333,244.92857142857142L306.6666666666667,243.7232142857143L320,244.3392857142857L333.33333333333337,245.57142857142858L346.6666666666667,244.49999999999997L360,244.63392857142858L373.3333333333333,244.3392857142857L386.6666666666667,244.09821428571428L400,243.64285714285714" style="fill: none; stroke: #4c78a8; stroke-width: 2; opacity: 1;"></path></g></g><path class="foreground" d="" style="display: none; fill: none;"></path></g></g><g class="mark-group role-scope concat_0_layer_1_pathgroup"><g transform="translate(0,0)"><path class="background" d="M0,0h400v300h-400Z" style="fill: none;"></path><g><g class="mark-line role-mark concat_0_layer_1_marks" clip-path="url(#clip4)"><path d="M-520,262.5L-506.66666666666663,262.5L-493.33333333333337,262.5L-480,262.5L-466.6666666666667,262.5L-453.3333333333333,262.5L-440.00000000000006,262.5L-426.6666666666667,262.5L-413.33333333333337,262.5L-400,262.5L-386.6666666666667,262.5L-373.3333333333333,262.5L-360,262.5L-346.6666666666667,262.5L-333.33333333333337,260.8125L-320,262.5L-306.6666666666667,262.5L-293.3333333333333,262.5L-280,262.5L-266.66666666666663,262.5L-253.33333333333331,262.5L-240,262.5L-226.66666666666666,262.5L-213.33333333333334,262.5L-200,262.5L-186.66666666666666,262.5L-173.33333333333334,262.5L-160,262.5L-146.66666666666666,262.5L-133.33333333333331,262.5L-120,262.5L-106.66666666666667,262.5L-93.33333333333333,208.125L-80,262.5L-66.66666666666666,262.5L-53.333333333333336,262.5L-40,262.5L-26.666666666666668,262.5L-13.333333333333334,262.5L0,262.5L13.333333333333334,262.5L26.666666666666668,262.5L40,262.5L53.333333333333336,262.5L66.66666666666666,262.5L80,262.5L93.33333333333333,0L106.66666666666667,262.5L120,262.5L133.33333333333331,262.5L146.66666666666666,206.25L160,262.5L173.33333333333334,262.5L186.66666666666666,262.5L200,168.75L213.33333333333334,262.5L226.66666666666666,262.5L240,262.5L253.33333333333331,206.25L266.66666666666663,262.5L280,225L293.3333333333333,262.5L306.6666666666667,262.5L320,262.5L333.33333333333337,168.75L346.6666666666667,262.5L360,262.5L373.3333333333333,262.5L386.6666666666667,168.75L400,262.5" style="fill: none; stroke: #e45756; stroke-width: 2; opacity: 0.2;"></path></g></g><path class="foreground" d="" style="display: none; fill: none;"></path></g><g transform="translate(0,0)"><path class="background" d="M0,0h400v300h-400Z" style="fill: none;"></path><g><g class="mark-line role-mark concat_0_layer_1_marks" clip-path="url(#clip5)"><path d="M-520,262.5L-506.66666666666663,262.5L-493.33333333333337,262.5L-480,262.5L-466.6666666666667,262.5L-453.3333333333333,262.5L-440.00000000000006,262.5L-426.6666666666667,262.5L-413.33333333333337,262.5L-400,262.5L-386.6666666666667,262.5L-373.3333333333333,262.5L-360,262.5L-346.6666666666667,262.5L-333.33333333333337,262.5L-320,262.5L-306.6666666666667,262.5L-293.3333333333333,262.5L-280,262.5L-266.66666666666663,262.5L-253.33333333333331,262.3125L-240,262.5L-226.66666666666666,262.5L-213.33333333333334,262.5L-200,262.125L-186.66666666666666,262.125L-173.33333333333334,262.125L-160,262.125L-146.66666666666666,262.125L-133.33333333333331,262.125L-120,261.75L-106.66666666666667,262.5L-93.33333333333333,262.125L-80,262.3125L-66.66666666666666,261.5625L-53.333333333333336,261.9375L-40,262.6875L-26.666666666666668,261.1875L-13.333333333333334,261.375L0,262.125L13.333333333333334,261.375L26.666666666666668,262.3125L40,261.1875L53.333333333333336,261.9375L66.66666666666666,261.5625L80,261L93.33333333333333,261.9375L106.66666666666667,261.1875L120,261L133.33333333333331,261.75L146.66666666666666,261.75L160,254.4375L173.33333333333334,261L186.66666666666666,258.1875L200,261.5625L213.33333333333334,260.8125L226.66666666666666,261.75L240,261.9375L253.33333333333331,261.375L266.66666666666663,261.1875L280,261.5625L293.3333333333333,261.1875L306.6666666666667,262.125L320,260.625L333.33333333333337,260.625L346.6666666666667,261.375L360,261.375L373.3333333333333,261.9375L386.6666666666667,261.5625L400,261.5625" style="fill: none; stroke: #f58518; stroke-width: 2; opacity: 0.2;"></path></g></g><path class="foreground" d="" style="display: none; fill: none;"></path></g><g transform="translate(0,0)"><path class="background" d="M0,0h400v300h-400Z" style="fill: none;"></path><g><g class="mark-line role-mark concat_0_layer_1_marks" clip-path="url(#clip6)"><path d="M-520,261.9375L-506.66666666666663,262.5L-493.33333333333337,262.5L-480,262.5L-466.6666666666667,261.375L-453.3333333333333,261.9375L-440.00000000000006,262.5L-426.6666666666667,261L-413.33333333333337,261.1875L-400,260.625L-386.6666666666667,258.9375L-373.3333333333333,262.5L-360,244.49999999999997L-346.6666666666667,249.375L-333.33333333333337,258.9375L-320,256.3125L-306.6666666666667,254.25L-293.3333333333333,259.6875L-280,250.5L-266.66666666666663,253.125L-253.33333333333331,248.8125L-240,243.1875L-226.66666666666666,248.625L-213.33333333333334,245.25L-200,246.00000000000003L-186.66666666666666,247.875L-173.33333333333334,246.9375L-160,238.875L-146.66666666666666,248.8125L-133.33333333333331,241.49999999999997L-120,250.125L-106.66666666666667,257.25L-93.33333333333333,249L-80,244.3125L-66.66666666666666,212.4375L-53.333333333333336,254.0625L-40,215.8125L-26.666666666666668,237.75L-13.333333333333334,228.93750000000003L0,240.375L13.333333333333334,231.75L26.666666666666668,237L40,249.5625L53.333333333333336,245.625L66.66666666666666,244.3125L80,248.25L93.33333333333333,237.75L106.66666666666667,240L120,226.5L133.33333333333331,243.375L146.66666666666666,246.5625L160,235.12499999999997L173.33333333333334,240.9375L186.66666666666666,233.4375L200,241.6875L213.33333333333334,247.5L226.66666666666666,243.5625L240,240.1875L253.33333333333331,254.0625L266.66666666666663,231.375L280,245.8125L293.3333333333333,252L306.6666666666667,239.0625L320,247.875L333.33333333333337,248.8125L346.6666666666667,246.5625L360,232.3125L373.3333333333333,243.75L386.6666666666667,250.3125L400,235.875" style="fill: none; stroke: #4c78a8; stroke-width: 2; opacity: 0.2;"></path></g></g><path class="foreground" d="" style="display: none; fill: none;"></path></g></g><g class="mark-group role-title"><g transform="translate(200,-22)"><path class="background" d="M0,0h0v0h0Z" style="pointer-events: none; fill: none;"></path><g><g class="mark-text role-title-text" style="pointer-events: none;"><text text-anchor="middle" transform="translate(0,10)" style="font-family: Roboto Condensed; font-size: 13px; font-weight: normal; fill: #000; opacity: 1;">7-day average (Daily values in light color)</text></g></g><path class="foreground" d="" style="pointer-events: none; display: none; fill: none;"></path></g></g></g><path class="foreground" d="" style="display: none; fill: none;"></path></g></g><g class="mark-group role-scope concat_1_group"><g transform="translate(445,0)"><path class="background" d="M0,0h400v300h-400Z" style="fill: none; stroke: #ddd; stroke-width: 0;"></path><g><g class="mark-group role-axis"><g transform="translate(0.5,0.5)"><path class="background" d="M0,0h0v0h0Z" style="pointer-events: none; fill: none;"></path><g><g class="mark-rule role-axis-grid" style="pointer-events: none;"><line transform="translate(0,300)" x2="400" y2="0" style="fill: none; stroke: #ddd; stroke-width: 1; opacity: 1;"></line><line transform="translate(0,250)" x2="400" y2="0" style="fill: none; stroke: #ddd; stroke-width: 1; opacity: 1;"></line><line transform="translate(0,200)" x2="400" y2="0" style="fill: none; stroke: #ddd; stroke-width: 1; opacity: 1;"></line><line transform="translate(0,150)" x2="400" y2="0" style="fill: none; stroke: #ddd; stroke-width: 1; opacity: 1;"></line><line transform="translate(0,100)" x2="400" y2="0" style="fill: none; stroke: #ddd; stroke-width: 1; opacity: 1;"></line><line transform="translate(0,50)" x2="400" y2="0" style="fill: none; stroke: #ddd; stroke-width: 1; opacity: 1;"></line><line transform="translate(0,0)" x2="400" y2="0" style="fill: none; stroke: #ddd; stroke-width: 1; opacity: 1;"></line></g></g><path class="foreground" d="" style="pointer-events: none; display: none; fill: none;"></path></g></g><g class="mark-group role-axis"><g transform="translate(0.5,300.5)"><path class="background" d="M0,0h0v0h0Z" style="pointer-events: none; fill: none;"></path><g><g class="mark-text role-axis-label" style="pointer-events: none;"><text text-anchor="start" transform="translate(0,10)" style="font-family: Roboto Condensed; font-size: 10px; fill: #000; opacity: 1;">Apr 09</text><text text-anchor="middle" transform="translate(26.666666666666668,10)" style="font-family: Roboto Condensed; font-size: 10px; fill: #000; opacity: 0;">Apr 11</text><text text-anchor="middle" transform="translate(53.333333333333336,10)" style="font-family: Roboto Condensed; font-size: 10px; fill: #000; opacity: 1;">Apr 13</text><text text-anchor="middle" transform="translate(80,10)" style="font-family: Roboto Condensed; font-size: 10px; fill: #000; opacity: 0;">Apr 15</text><text text-anchor="middle" transform="translate(106.66666666666667,10)" style="font-family: Roboto Condensed; font-size: 10px; fill: #000; opacity: 1;">Apr 17</text><text text-anchor="middle" transform="translate(133.33333333333331,10)" style="font-family: Roboto Condensed; font-size: 10px; fill: #000; opacity: 0;">Apr 19</text><text text-anchor="middle" transform="translate(160,10)" style="font-family: Roboto Condensed; font-size: 10px; fill: #000; opacity: 1;">Apr 21</text><text text-anchor="middle" transform="translate(186.66666666666666,10)" style="font-family: Roboto Condensed; font-size: 10px; fill: #000; opacity: 0;">Apr 23</text><text text-anchor="middle" transform="translate(213.33333333333334,10)" style="font-family: Roboto Condensed; font-size: 10px; fill: #000; opacity: 1;">Apr 25</text><text text-anchor="middle" transform="translate(240,10)" style="font-family: Roboto Condensed; font-size: 10px; fill: #000; opacity: 0;">Apr 27</text><text text-anchor="middle" transform="translate(266.66666666666663,10)" style="font-family: Roboto Condensed; font-size: 10px; fill: #000; opacity: 1;">Apr 29</text><text text-anchor="middle" transform="translate(293.3333333333333,10)" style="font-family: Roboto Condensed; font-size: 10px; fill: #000; opacity: 0;">May 01</text><text text-anchor="middle" transform="translate(320,10)" style="font-family: Roboto Condensed; font-size: 10px; fill: #000; opacity: 1;">May 03</text><text text-anchor="middle" transform="translate(346.6666666666667,10)" style="font-family: Roboto Condensed; font-size: 10px; fill: #000; opacity: 0;">May 05</text><text text-anchor="middle" transform="translate(373.3333333333333,10)" style="font-family: Roboto Condensed; font-size: 10px; fill: #000; opacity: 1;">May 07</text><text text-anchor="end" transform="translate(400,10)" style="font-family: Roboto Condensed; font-size: 10px; fill: #000; opacity: 0;">May 09</text></g><g class="mark-rule role-axis-domain" style="pointer-events: none;"><line transform="translate(0,0)" x2="400" y2="0" style="fill: none; stroke: lightgray; stroke-width: 1; opacity: 1;"></line></g></g><path class="foreground" d="" style="pointer-events: none; display: none; fill: none;"></path></g></g><g class="mark-group role-axis"><g transform="translate(0.5,0.5)"><path class="background" d="M0,0h0v0h0Z" style="pointer-events: none; fill: none;"></path><g><g class="mark-text role-axis-label" style="pointer-events: none;"><text text-anchor="end" transform="translate(-2,303)" style="font-family: Roboto Condensed; font-size: 10px; fill: #000; opacity: 1;">0</text><text text-anchor="end" transform="translate(-2,253)" style="font-family: Roboto Condensed; font-size: 10px; fill: #000; opacity: 1;">1,000</text><text text-anchor="end" transform="translate(-2,203.00000000000003)" style="font-family: Roboto Condensed; font-size: 10px; fill: #000; opacity: 1;">2,000</text><text text-anchor="end" transform="translate(-2,153)" style="font-family: Roboto Condensed; font-size: 10px; fill: #000; opacity: 1;">3,000</text><text text-anchor="end" transform="translate(-2,103.00000000000001)" style="font-family: Roboto Condensed; font-size: 10px; fill: #000; opacity: 1;">4,000</text><text text-anchor="end" transform="translate(-2,52.999999999999986)" style="font-family: Roboto Condensed; font-size: 10px; fill: #000; opacity: 1;">5,000</text><text text-anchor="end" transform="translate(-2,3)" style="font-family: Roboto Condensed; font-size: 10px; fill: #000; opacity: 1;">6,000</text></g><g class="mark-rule role-axis-domain" style="pointer-events: none;"><line transform="translate(0,300)" x2="0" y2="-300" style="fill: none; stroke: lightgray; stroke-width: 1; opacity: 1;"></line></g></g><path class="foreground" d="" style="pointer-events: none; display: none; fill: none;"></path></g></g><g class="mark-group role-scope concat_1_pathgroup"><g transform="translate(0,0)"><path class="background" d="M0,0h400v300h-400Z" style="fill: none;"></path><g><g class="mark-line role-mark concat_1_marks" clip-path="url(#clip7)"><path d="M-946.6666666666666,300L-933.3333333333334,300L-919.9999999999999,300L-906.6666666666666,300L-893.3333333333334,300L-880.0000000000001,300L-866.6666666666666,300L-853.3333333333334,300L-840,300L-826.6666666666667,300L-813.3333333333333,300L-800,300L-786.6666666666666,300L-773.3333333333334,300L-760,299.95L-746.6666666666666,299.95L-733.3333333333333,299.95L-720,299.95L-706.6666666666666,299.95L-693.3333333333334,299.95L-680,299.95L-666.6666666666667,299.95L-653.3333333333334,299.95L-640,299.95L-626.6666666666666,299.95L-613.3333333333334,299.95L-600,299.95L-586.6666666666666,299.95L-573.3333333333334,299.95L-560,299.95L-546.6666666666666,299.95L-533.3333333333333,299.95L-520,299.95L-506.66666666666663,299.95L-493.33333333333337,299.95L-480,299.95L-466.6666666666667,299.95L-453.3333333333333,299.95L-440.00000000000006,299.95L-426.6666666666667,299.95L-413.33333333333337,299.95L-400,299.95L-386.6666666666667,299.95L-373.3333333333333,299.95L-360,299.95L-346.6666666666667,299.95L-333.33333333333337,299.5L-320,299.5L-306.6666666666667,299.5L-293.3333333333333,299.5L-280,299.5L-266.66666666666663,299.5L-253.33333333333331,299.5L-240,299.5L-226.66666666666666,299.5L-213.33333333333334,299.5L-200,299.5L-186.66666666666666,299.5L-173.33333333333334,299.5L-160,299.5L-146.66666666666666,299.5L-133.33333333333331,299.5L-120,299.5L-106.66666666666667,299.5L-93.33333333333333,285L-80,285L-66.66666666666666,285L-53.333333333333336,285L-40,285L-26.666666666666668,285L-13.333333333333334,285L0,285L13.333333333333334,285L26.666666666666668,285L40,285L53.333333333333336,285L66.66666666666666,285L80,285L93.33333333333333,215L106.66666666666667,215L120,215L133.33333333333331,215L146.66666666666666,200.00000000000003L160,200.00000000000003L173.33333333333334,200.00000000000003L186.66666666666666,200.00000000000003L200,174.99999999999997L213.33333333333334,174.99999999999997L226.66666666666666,174.99999999999997L240,174.99999999999997L253.33333333333331,160L266.66666666666663,160L280,150L293.3333333333333,150L306.6666666666667,150L320,150L333.33333333333337,124.99999999999999L346.6666666666667,124.99999999999999L360,124.99999999999999L373.3333333333333,124.99999999999999L386.6666666666667,100.00000000000001L400,100.00000000000001" style="fill: none; stroke: #e45756; stroke-width: 2; opacity: 0.7;"></path></g></g><path class="foreground" d="" style="display: none; fill: none;"></path></g><g transform="translate(0,0)"><path class="background" d="M0,0h400v300h-400Z" style="fill: none;"></path><g><g class="mark-line role-mark concat_1_marks" clip-path="url(#clip8)"><path d="M-946.6666666666666,300L-933.3333333333334,300L-919.9999999999999,300L-906.6666666666666,300L-893.3333333333334,300L-880.0000000000001,300L-866.6666666666666,300L-853.3333333333334,300L-840,300L-826.6666666666667,300L-813.3333333333333,300L-800,300L-786.6666666666666,300L-773.3333333333334,300L-760,300L-746.6666666666666,300L-733.3333333333333,300L-720,300L-706.6666666666666,300L-693.3333333333334,300L-680,300L-666.6666666666667,300L-653.3333333333334,300L-640,300L-626.6666666666666,300L-613.3333333333334,300L-600,300L-586.6666666666666,300L-573.3333333333334,300L-560,300L-546.6666666666666,300L-533.3333333333333,300L-520,300L-506.66666666666663,300L-493.33333333333337,300L-480,300L-466.6666666666667,300L-453.3333333333333,300L-440.00000000000006,300L-426.6666666666667,300L-413.33333333333337,300L-400,300L-386.6666666666667,300L-373.3333333333333,300L-360,300L-346.6666666666667,300L-333.33333333333337,300L-320,300L-306.6666666666667,300L-293.3333333333333,300L-280,300L-266.66666666666663,300L-253.33333333333331,299.95L-240,299.95L-226.66666666666666,299.95L-213.33333333333334,299.95L-200,299.85L-186.66666666666666,299.75L-173.33333333333334,299.65L-160,299.55L-146.66666666666666,299.45L-133.33333333333331,299.35L-120,299.15L-106.66666666666667,299.15L-93.33333333333333,299.05L-80,299L-66.66666666666666,298.75L-53.333333333333336,298.59999999999997L-40,298.65000000000003L-26.666666666666668,298.3L-13.333333333333334,298L0,297.9L13.333333333333334,297.6L26.666666666666668,297.55L40,297.2L53.333333333333336,297.05L66.66666666666666,296.8L80,296.4L93.33333333333333,296.25L106.66666666666667,295.9L120,295.5L133.33333333333331,295.3L146.66666666666666,295.1L160,292.95L173.33333333333334,292.55L186.66666666666666,291.40000000000003L200,291.15000000000003L213.33333333333334,290.7L226.66666666666666,290.5L240,290.35L253.33333333333331,290.05L266.66666666666663,289.7L280,289.45L293.3333333333333,289.1L306.6666666666667,289L320,288.5L333.33333333333337,288L346.6666666666667,287.7L360,287.4L373.3333333333333,287.25L386.6666666666667,287L400,286.75" style="fill: none; stroke: #f58518; stroke-width: 2; opacity: 0.7;"></path></g></g><path class="foreground" d="" style="display: none; fill: none;"></path></g><g transform="translate(0,0)"><path class="background" d="M0,0h400v300h-400Z" style="fill: none;"></path><g><g class="mark-line role-mark concat_1_marks" clip-path="url(#clip9)"><path d="M-946.6666666666666,299.95L-933.3333333333334,299.95L-919.9999999999999,299.95L-906.6666666666666,299.95L-893.3333333333334,299.95L-880.0000000000001,299.95L-866.6666666666666,299.95L-853.3333333333334,299.95L-840,299.95L-826.6666666666667,299.95L-813.3333333333333,299.95L-800,299.95L-786.6666666666666,299.95L-773.3333333333334,299.95L-760,299.95L-746.6666666666666,299.95L-733.3333333333333,299.95L-720,299.95L-706.6666666666666,299.95L-693.3333333333334,299.95L-680,299.95L-666.6666666666667,299.95L-653.3333333333334,299.95L-640,299.95L-626.6666666666666,299.95L-613.3333333333334,299.95L-600,299.95L-586.6666666666666,299.95L-573.3333333333334,299.90000000000003L-560,299.90000000000003L-546.6666666666666,299.90000000000003L-533.3333333333333,299.85L-520,299.7L-506.66666666666663,299.7L-493.33333333333337,299.7L-480,299.7L-466.6666666666667,299.4L-453.3333333333333,299.25L-440.00000000000006,299.25L-426.6666666666667,298.84999999999997L-413.33333333333337,298.5L-400,298L-386.6666666666667,297.05L-373.3333333333333,297.05L-360,292.25L-346.6666666666667,288.75L-333.33333333333337,287.8L-320,286.15L-306.6666666666667,283.95L-293.3333333333333,283.2L-280,280L-266.66666666666663,277.5L-253.33333333333331,273.85L-240,268.7L-226.66666666666666,265L-213.33333333333334,260.4L-200,255.99999999999997L-186.66666666666666,252.10000000000002L-173.33333333333334,247.95000000000002L-160,241.65L-146.66666666666666,238L-133.33333333333331,232.39999999999998L-120,229.10000000000002L-106.66666666666667,227.7L-93.33333333333333,224.1L-80,219.25L-66.66666666666666,205.9L-53.333333333333336,203.65000000000003L-40,191.2L-26.666666666666668,184.6L-13.333333333333334,175.65L0,169.75000000000003L13.333333333333334,161.54999999999998L26.666666666666668,154.75L40,151.29999999999998L53.333333333333336,146.79999999999998L66.66666666666666,141.95L80,138.15L93.33333333333333,131.55L106.66666666666667,125.55L120,115.94999999999999L133.33333333333331,110.85000000000001L146.66666666666666,106.59999999999998L160,99.29999999999998L173.33333333333334,93.54999999999998L186.66666666666666,85.80000000000001L200,80.24999999999999L213.33333333333334,76.25L226.66666666666666,71.19999999999999L240,65.25000000000001L253.33333333333331,62.999999999999986L266.66666666666663,54.7L280,50.24999999999999L293.3333333333333,47.45L306.6666666666667,41.19999999999999L320,37.29999999999999L333.33333333333337,33.64999999999999L346.6666666666667,29.39999999999999L360,21.350000000000012L373.3333333333333,16.349999999999998L386.6666666666667,13.099999999999989L400,6.000000000000005" style="fill: none; stroke: #4c78a8; stroke-width: 2; opacity: 0.7;"></path></g></g><path class="foreground" d="" style="display: none; fill: none;"></path></g></g><g class="mark-group role-title"><g transform="translate(200,-22)"><path class="background" d="M0,0h0v0h0Z" style="pointer-events: none; fill: none;"></path><g><g class="mark-text role-title-text" style="pointer-events: none;"><text text-anchor="middle" transform="translate(0,10)" style="font-family: Roboto Condensed; font-size: 13px; font-weight: normal; fill: #000; opacity: 1;">Total</text></g></g><path class="foreground" d="" style="pointer-events: none; display: none; fill: none;"></path></g></g></g><path class="foreground" d="" style="display: none; fill: none;"></path></g></g><g class="mark-group role-legend"><g transform="translate(863,0)"><path class="background" d="M0,0h60v37h-60Z" style="pointer-events: none; fill: none;"></path><g><g class="mark-group role-legend-entry"><g transform="translate(0,0)"><path class="background" d="M0,0h0v0h0Z" style="pointer-events: none; fill: none;"></path><g><g class="mark-group role-scope"><g transform="translate(0,0)"><path class="background" d="M0,0h59.3251953125v11h-59.3251953125Z" style="pointer-events: none; fill: none; opacity: 1;"></path><g><g class="mark-symbol role-legend-symbol" style="pointer-events: none;"><path transform="translate(6,6)" d="M-5,0L5,0" style="fill: none; stroke: #4c78a8; stroke-width: 1.5; opacity: 1;"></path></g><g class="mark-text role-legend-label" style="pointer-events: none;"><text text-anchor="start" transform="translate(16,9)" style="font-family: Roboto Condensed; font-size: 10px; fill: #000; opacity: 1;">Confirmed</text></g></g><path class="foreground" d="" style="pointer-events: none; display: none; fill: none;"></path></g><g transform="translate(0,13)"><path class="background" d="M0,0h59.3251953125v11h-59.3251953125Z" style="pointer-events: none; fill: none; opacity: 1;"></path><g><g class="mark-symbol role-legend-symbol" style="pointer-events: none;"><path transform="translate(6,6)" d="M-5,0L5,0" style="fill: none; stroke: #f58518; stroke-width: 1.5; opacity: 1;"></path></g><g class="mark-text role-legend-label" style="pointer-events: none;"><text text-anchor="start" transform="translate(16,9)" style="font-family: Roboto Condensed; font-size: 10px; fill: #000; opacity: 1;">Deaths</text></g></g><path class="foreground" d="" style="pointer-events: none; display: none; fill: none;"></path></g><g transform="translate(0,26)"><path class="background" d="M0,0h59.3251953125v11h-59.3251953125Z" style="pointer-events: none; fill: none; opacity: 1;"></path><g><g class="mark-symbol role-legend-symbol" style="pointer-events: none;"><path transform="translate(6,6)" d="M-5,0L5,0" style="fill: none; stroke: #e45756; stroke-width: 1.5; opacity: 1;"></path></g><g class="mark-text role-legend-label" style="pointer-events: none;"><text text-anchor="start" transform="translate(16,9)" style="font-family: Roboto Condensed; font-size: 10px; fill: #000; opacity: 1;">Recovered</text></g></g><path class="foreground" d="" style="pointer-events: none; display: none; fill: none;"></path></g></g></g><path class="foreground" d="" style="pointer-events: none; display: none; fill: none;"></path></g></g></g><path class="foreground" d="" style="pointer-events: none; display: none; fill: none;"></path></g></g></g><path class="foreground" d="" style="display: none; fill: none;"></path></g></g></g></svg>