<svg class="marks" width="950" height="344" viewBox="0 0 950 344" version="1.1" xmlns="http://www.w3.org/2000/svg" xmlns:xlink="http://www.w3.org/1999/xlink"><rect width="950" height="344" style="fill: white;"></rect><defs><clipPath id="clip1"><rect x="0" y="0" width="400" height="300"></rect></clipPath><clipPath id="clip2"><rect x="0" y="0" width="400" height="300"></rect></clipPath><clipPath id="clip3"><rect x="0" y="0" width="400" height="300"></rect></clipPath><clipPath id="clip4"><rect x="0" y="0" width="400" height="300"></rect></clipPath><clipPath id="clip5"><rect x="0" y="0" width="400" height="300"></rect></clipPath><clipPath id="clip6"><rect x="0" y="0" width="400" height="300"></rect></clipPath><clipPath id="clip7"><rect x="0" y="0" width="400" height="300"></rect></clipPath><clipPath id="clip8"><rect x="0" y="0" width="400" height="300"></rect></clipPath><clipPath id="clip9"><rect x="0" y="0" width="400" height="300"></rect></clipPath></defs><g transform="translate(22,27)"><g class="mark-group role-frame root"><g transform="translate(0,0)"><path class="background" d="M0,0h0v0h0Z" style="fill: none;"></path><g><g class="mark-group role-scope concat_0_group"><g transform="translate(0,0)"><path class="background" d="M0,0h400v300h-400Z" style="fill: none; stroke: #ddd; stroke-width: 0;"></path><g><g class="mark-group role-axis"><g transform="translate(0.5,0.5)"><path class="background" d="M0,0h0v0h0Z" style="pointer-events: none; fill: none;"></path><g><g class="mark-rule role-axis-grid" style="pointer-events: none;"><line transform="translate(0,300)" x2="400" y2="0" style="fill: none; stroke: #ddd; stroke-width: 1; opacity: 1;"></line><line transform="translate(0,250)" x2="400" y2="0" style="fill: none; stroke: #ddd; stroke-width: 1; opacity: 1;"></line><line transform="translate(0,200)" x2="400" y2="0" style="fill: none; stroke: #ddd; stroke-width: 1; opacity: 1;"></line><line transform="translate(0,150)" x2="400" y2="0" style="fill: none; stroke: #ddd; stroke-width: 1; opacity: 1;"></line><line transform="translate(0,100)" x2="400" y2="0" style="fill: none; stroke: #ddd; stroke-width: 1; opacity: 1;"></line><line transform="translate(0,50)" x2="400" y2="0" style="fill: none; stroke: #ddd; stroke-width: 1; opacity: 1;"></line><line transform="translate(0,0)" x2="400" y2="0" style="fill: none; stroke: #ddd; stroke-width: 1; opacity: 1;"></line></g></g><path class="foreground" d="" style="pointer-events: none; display: none; fill: none;"></path></g></g><g class="mark-group role-axis"><g transform="translate(0.5,300.5)"><path class="background" d="M0,0h0v0h0Z" style="pointer-events: none; fill: none;"></path><g><g class="mark-text role-axis-label" style="pointer-events: none;"><text text-anchor="start" transform="translate(0,10)" style="font-family: Roboto Condensed; font-size: 10px; fill: #000; opacity: 1;">Apr 09</text><text text-anchor="middle" transform="translate(26.666666666666668,10)" style="font-family: Roboto Condensed; font-size: 10px; fill: #000; opacity: 0;">Apr 11</text><text text-anchor="middle" transform="translate(53.333333333333336,10)" style="font-family: Roboto Condensed; font-size: 10px; fill: #000; opacity: 1;">Apr 13</text><text text-anchor="middle" transform="translate(80,10)" style="font-family: Roboto Condensed; font-size: 10px; fill: #000; opacity: 0;">Apr 15</text><text text-anchor="middle" transform="translate(106.66666666666667,10)" style="font-family: Roboto Condensed; font-size: 10px; fill: #000; opacity: 1;">Apr 17</text><text text-anchor="middle" transform="translate(133.33333333333331,10)" style="font-family: Roboto Condensed; font-size: 10px; fill: #000; opacity: 0;">Apr 19</text><text text-anchor="middle" transform="translate(160,10)" style="font-family: Roboto Condensed; font-size: 10px; fill: #000; opacity: 1;">Apr 21</text><text text-anchor="middle" transform="translate(186.66666666666666,10)" style="font-family: Roboto Condensed; font-size: 10px; fill: #000; opacity: 0;">Apr 23</text><text text-anchor="middle" transform="translate(213.33333333333334,10)" style="font-family: Roboto Condensed; font-size: 10px; fill: #000; opacity: 1;">Apr 25</text><text text-anchor="middle" transform="translate(240,10)" style="font-family: Roboto Condensed; font-size: 10px; fill: #000; opacity: 0;">Apr 27</text><text text-anchor="middle" transform="translate(266.66666666666663,10)" style="font-family: Roboto Condensed; font-size: 10px; fill: #000; opacity: 1;">Apr 29</text><text text-anchor="middle" transform="translate(293.3333333333333,10)" style="font-family: Roboto Condensed; font-size: 10px; fill: #000; opacity: 0;">May 01</text><text text-anchor="middle" transform="translate(320,10)" style="font-family: Roboto Condensed; font-size: 10px; fill: #000; opacity: 1;">May 03</text><text text-anchor="middle" transform="translate(346.6666666666667,10)" style="font-family: Roboto Condensed; font-size: 10px; fill: #000; opacity: 0;">May 05</text><text text-anchor="middle" transform="translate(373.3333333333333,10)" style="font-family: Roboto Condensed; font-size: 10px; fill: #000; opacity: 1;">May 07</text><text text-anchor="end" transform="translate(400,10)" style="font-family: Roboto Condensed; font-size: 10px; fill: #000; opacity: 0;">May 09</text></g><g class="mark-rule role-axis-domain" style="pointer-events: none;"><line transform="translate(0,0)" x2="400" y2="0" style="fill: none; stroke: lightgray; stroke-width: 1; opacity: 1;"></line></g></g><path class="foreground" d="" style="pointer-events: none; display: none; fill: none;"></path></g></g><g class="mark-group role-axis"><g transform="translate(0.5,0.5)"><path class="background" d="M0,0h0v0h0Z" style="pointer-events: none; fill: none;"></path><g><g class="mark-text role-axis-label" style="pointer-events: none;"><text text-anchor="end" transform="translate(-2,303)" style="font-family: Roboto Condensed; font-size: 10px; fill: #000; opacity: 1;">-20</text><text text-anchor="end" transform="translate(-2,253)" style="font-family: Roboto Condensed; font-size: 10px; fill: #000; opacity: 1;">0</text><text text-anchor="end" transform="translate(-2,203.00000000000003)" style="font-family: Roboto Condensed; font-size: 10px; fill: #000; opacity: 1;">20</text><text text-anchor="end" transform="translate(-2,153)" style="font-family: Roboto Condensed; font-size: 10px; fill: #000; opacity: 1;">40</text><text text-anchor="end" transform="translate(-2,103.00000000000001)" style="font-family: Roboto Condensed; font-size: 10px; fill: #000; opacity: 1;">60</text><text text-anchor="end" transform="translate(-2,52.999999999999986)" style="font-family: Roboto Condensed; font-size: 10px; fill: #000; opacity: 1;">80</text><text text-anchor="end" transform="translate(-2,3)" style="font-family: Roboto Condensed; font-size: 10px; fill: #000; opacity: 1;">100</text></g><g class="mark-rule role-axis-domain" style="pointer-events: none;"><line transform="translate(0,300)" x2="0" y2="-300" style="fill: none; stroke: lightgray; stroke-width: 1; opacity: 1;"></line></g></g><path class="foreground" d="" style="pointer-events: none; display: none; fill: none;"></path></g></g><g class="mark-group role-scope concat_0_layer_0_pathgroup"><g transform="translate(0,0)"><path class="background" d="M0,0h400v300h-400Z" style="fill: none;"></path><g><g class="mark-line role-mark concat_0_layer_0_marks" clip-path="url(#clip1)"><path d="M-440.00000000000006,250L-426.6666666666667,250L-413.33333333333337,250L-400,249.64285714285717L-386.6666666666667,249.64285714285717L-373.3333333333333,249.64285714285717L-360,249.64285714285717L-346.6666666666667,249.64285714285717L-333.33333333333337,247.14285714285714L-320,250L-306.6666666666667,250.35714285714286L-293.3333333333333,248.57142857142856L-280,248.57142857142856L-266.66666666666663,248.57142857142856L-253.33333333333331,242.5L-240,251.07142857142858L-226.66666666666666,231.7857142857143L-213.33333333333334,231.7857142857143L-200,231.7857142857143L-186.66666666666666,222.5L-173.33333333333334,217.14285714285717L-160,217.14285714285717L-146.66666666666666,203.57142857142858L-133.33333333333331,212.14285714285717L-120,197.5L-106.66666666666667,189.64285714285714L-93.33333333333333,177.85714285714283L-80,174.28571428571428L-66.66666666666666,149.28571428571428L-53.333333333333336,145.35714285714286L-40,141.78571428571428L-26.666666666666668,121.07142857142857L-13.333333333333334,104.28571428571432L0,105.71428571428571L13.333333333333334,92.14285714285715L26.666666666666668,91.07142857142858L40,85.35714285714285L53.333333333333336,81.07142857142858L66.66666666666666,96.42857142857142L80,91.42857142857143L93.33333333333333,87.14285714285717L106.66666666666667,81.07142857142858L120,89.28571428571426L133.33333333333331,106.42857142857142L146.66666666666666,96.7857142857143L160,97.14285714285717L173.33333333333334,112.5L186.66666666666666,119.64285714285715L200,136.42857142857142L213.33333333333334,150.35714285714286L226.66666666666666,136.7857142857143L240,156.42857142857142L253.33333333333331,171.78571428571428L266.66666666666663,180.7142857142857L280,192.49999999999997L293.3333333333333,197.5L306.6666666666667,201.42857142857144L320,211.07142857142856L333.33333333333337,214.64285714285714L346.6666666666667,215.35714285714283L360,216.42857142857142L373.3333333333333,219.64285714285717L386.6666666666667,222.85714285714286L400,226.07142857142856" style="fill: none; stroke: #e45756; stroke-width: 2; opacity: 1;"></path></g></g><path class="foreground" d="" style="display: none; fill: none;"></path></g><g transform="translate(0,0)"><path class="background" d="M0,0h400v300h-400Z" style="fill: none;"></path><g><g class="mark-line role-mark concat_0_layer_0_marks" clip-path="url(#clip2)"><path d="M-440.00000000000006,250L-426.6666666666667,250L-413.33333333333337,250L-400,250L-386.6666666666667,250L-373.3333333333333,250L-360,250L-346.6666666666667,250L-333.33333333333337,248.2142857142857L-320,250L-306.6666666666667,249.64285714285717L-293.3333333333333,249.64285714285717L-280,249.64285714285717L-266.66666666666663,250L-253.33333333333331,249.64285714285717L-240,251.42857142857144L-226.66666666666666,249.64285714285717L-213.33333333333334,249.64285714285717L-200,249.64285714285717L-186.66666666666666,249.64285714285717L-173.33333333333334,249.2857142857143L-160,249.64285714285717L-146.66666666666666,249.64285714285717L-133.33333333333331,249.64285714285717L-120,250L-106.66666666666667,250L-93.33333333333333,249.2857142857143L-80,249.2857142857143L-66.66666666666666,249.2857142857143L-53.333333333333336,249.2857142857143L-40,248.57142857142856L-26.666666666666668,248.57142857142856L-13.333333333333334,248.57142857142856L0,249.2857142857143L13.333333333333334,248.92857142857144L26.666666666666668,248.57142857142856L40,248.57142857142856L53.333333333333336,249.2857142857143L66.66666666666666,249.2857142857143L80,249.2857142857143L93.33333333333333,249.2857142857143L106.66666666666667,249.2857142857143L120,249.64285714285717L133.33333333333331,249.64285714285717L146.66666666666666,249.2857142857143L160,249.2857142857143L173.33333333333334,249.2857142857143L186.66666666666666,249.2857142857143L200,249.64285714285717L213.33333333333334,249.64285714285717L226.66666666666666,249.64285714285717L240,250L253.33333333333331,250L266.66666666666663,250L280,250L293.3333333333333,250L306.6666666666667,250L320,250L333.33333333333337,250L346.6666666666667,250L360,250L373.3333333333333,250L386.6666666666667,250L400,250" style="fill: none; stroke: #f58518; stroke-width: 2; opacity: 1;"></path></g></g><path class="foreground" d="" style="display: none; fill: none;"></path></g><g transform="translate(0,0)"><path class="background" d="M0,0h400v300h-400Z" style="fill: none;"></path><g><g class="mark-line role-mark concat_0_layer_0_marks" clip-path="url(#clip3)"><path d="M-440.00000000000006,232.5L-426.6666666666667,233.21428571428572L-413.33333333333337,231.42857142857142L-400,229.28571428571428L-386.6666666666667,228.92857142857142L-373.3333333333333,225.35714285714286L-360,217.5L-346.6666666666667,212.14285714285717L-333.33333333333337,206.78571428571428L-320,206.42857142857142L-306.6666666666667,196.07142857142858L-293.3333333333333,191.07142857142856L-280,168.92857142857142L-266.66666666666663,151.78571428571428L-253.33333333333331,136.7857142857143L-240,108.2142857142857L-226.66666666666666,104.28571428571432L-213.33333333333334,97.14285714285717L-200,76.07142857142857L-186.66666666666666,81.42857142857144L-173.33333333333334,78.21428571428574L-160,75L-146.66666666666666,88.57142857142858L-133.33333333333331,72.14285714285715L-120,76.07142857142857L-106.66666666666667,77.49999999999999L-93.33333333333333,65.35714285714286L-80,80.71428571428572L-66.66666666666666,87.85714285714285L-53.333333333333336,83.57142857142857L-40,80.00000000000001L-26.666666666666668,88.92857142857142L-13.333333333333334,108.57142857142858L0,132.5L13.333333333333334,138.92857142857144L26.666666666666668,152.85714285714283L40,173.2142857142857L53.333333333333336,196.78571428571428L66.66666666666666,202.14285714285717L80,210.35714285714283L93.33333333333333,217.5L106.66666666666667,221.7857142857143L120,224.64285714285714L133.33333333333331,225L146.66666666666666,227.85714285714283L160,229.28571428571428L173.33333333333334,229.28571428571428L186.66666666666666,232.14285714285714L200,237.5L213.33333333333334,239.2857142857143L226.66666666666666,242.5L240,243.21428571428572L253.33333333333331,243.92857142857142L266.66666666666663,245.7142857142857L280,247.14285714285714L293.3333333333333,246.78571428571428L306.6666666666667,247.14285714285714L320,247.5L333.33333333333337,247.5L346.6666666666667,248.57142857142856L360,249.2857142857143L373.3333333333333,248.57142857142856L386.6666666666667,248.92857142857144L400,248.92857142857144" style="fill: none; stroke: #4c78a8; stroke-width: 2; opacity: 1;"></path></g></g><path class="foreground" d="" style="display: none; fill: none;"></path></g></g><g class="mark-group role-scope concat_0_layer_1_pathgroup"><g transform="translate(0,0)"><path class="background" d="M0,0h400v300h-400Z" style="fill: none;"></path><g><g class="mark-line role-mark concat_0_layer_1_marks" clip-path="url(#clip4)"><path d="M-520,250L-506.66666666666663,250L-493.33333333333337,250L-480,250L-466.6666666666667,250L-453.3333333333333,250L-440.00000000000006,250L-426.6666666666667,250L-413.33333333333337,250L-400,247.5L-386.6666666666667,250L-373.3333333333333,250L-360,250L-346.6666666666667,250L-333.33333333333337,232.5L-320,270L-306.6666666666667,250L-293.3333333333333,237.5L-280,250L-266.66666666666663,250L-253.33333333333331,207.5L-240,292.5L-226.66666666666666,135L-213.33333333333334,250L-200,237.5L-186.66666666666666,185L-173.33333333333334,212.49999999999997L-160,207.5L-146.66666666666666,197.5L-133.33333333333331,195L-120,147.5L-106.66666666666667,182.50000000000003L-93.33333333333333,102.5L-80,187.5L-66.66666666666666,32.499999999999986L-53.333333333333336,170L-40,170L-26.666666666666668,2.499999999999991L-13.333333333333334,65L0,112.5L13.333333333333334,92.5L26.666666666666668,25.00000000000001L40,130L53.333333333333336,140L66.66666666666666,110.00000000000001L80,29.999999999999993L93.33333333333333,82.5L106.66666666666667,49.999999999999986L120,82.5L133.33333333333331,250L146.66666666666666,72.50000000000001L160,112.5L173.33333333333334,137.5L186.66666666666666,132.5L200,167.5L213.33333333333334,180L226.66666666666666,154.99999999999997L240,210L253.33333333333331,220.00000000000003L266.66666666666663,200.00000000000003L280,215L293.3333333333333,202.5L306.6666666666667,207.5L320,222.5L333.33333333333337,235L346.6666666666667,225L360,207.5L373.3333333333333,237.5L386.6666666666667,225L400,229.99999999999997" style="fill: none; stroke: #e45756; stroke-width: 2; opacity: 0.2;"></path></g></g><path class="foreground" d="" style="display: none; fill: none;"></path></g><g transform="translate(0,0)"><path class="background" d="M0,0h400v300h-400Z" style="fill: none;"></path><g><g class="mark-line role-mark concat_0_layer_1_marks" clip-path="url(#clip5)"><path d="M-520,250L-506.66666666666663,250L-493.33333333333337,250L-480,250L-466.6666666666667,250L-453.3333333333333,250L-440.00000000000006,250L-426.6666666666667,250L-413.33333333333337,250L-400,250L-386.6666666666667,250L-373.3333333333333,250L-360,250L-346.6666666666667,250L-333.33333333333337,237.5L-320,262.5L-306.6666666666667,247.5L-293.3333333333333,250L-280,250L-266.66666666666663,252.5L-253.33333333333331,247.5L-240,250L-226.66666666666666,250L-213.33333333333334,247.5L-200,250L-186.66666666666666,250L-173.33333333333334,250L-160,250L-146.66666666666666,250L-133.33333333333331,250L-120,250L-106.66666666666667,250L-93.33333333333333,245L-80,250L-66.66666666666666,250L-53.333333333333336,250L-40,245L-26.666666666666668,250L-13.333333333333334,250L0,250L13.333333333333334,247.5L26.666666666666668,247.5L40,250L53.333333333333336,250L66.66666666666666,250L80,250L93.33333333333333,250L106.66666666666667,247.5L120,250L133.33333333333331,250L146.66666666666666,247.5L160,250L173.33333333333334,250L186.66666666666666,250L200,250L213.33333333333334,250L226.66666666666666,250L240,250L253.33333333333331,250L266.66666666666663,250L280,250L293.3333333333333,250L306.6666666666667,250L320,250L333.33333333333337,250L346.6666666666667,250L360,250L373.3333333333333,250L386.6666666666667,250L400,250" style="fill: none; stroke: #f58518; stroke-width: 2; opacity: 0.2;"></path></g></g><path class="foreground" d="" style="display: none; fill: none;"></path></g><g transform="translate(0,0)"><path class="background" d="M0,0h400v300h-400Z" style="fill: none;"></path><g><g class="mark-line role-mark concat_0_layer_1_marks" clip-path="url(#clip6)"><path d="M-520,245L-506.66666666666663,242.5L-493.33333333333337,237.5L-480,212.49999999999997L-466.6666666666667,229.99999999999997L-453.3333333333333,227.5L-440.00000000000006,232.5L-426.6666666666667,250L-413.33333333333337,229.99999999999997L-400,222.5L-386.6666666666667,210L-373.3333333333333,205L-360,172.5L-346.6666666666667,195L-333.33333333333337,212.49999999999997L-320,227.5L-306.6666666666667,150L-293.3333333333333,174.99999999999997L-280,49.999999999999986L-266.66666666666663,52.500000000000014L-253.33333333333331,90.00000000000001L-240,12.49999999999999L-226.66666666666666,200.00000000000003L-213.33333333333334,100.00000000000001L-200,27.500000000000004L-186.66666666666666,87.49999999999999L-173.33333333333334,29.999999999999993L-160,67.5L-146.66666666666666,107.49999999999999L-133.33333333333331,85L-120,127.50000000000001L-106.66666666666667,37.5L-93.33333333333333,2.499999999999991L-80,137.5L-66.66666666666666,117.50000000000001L-53.333333333333336,77.49999999999999L-40,59.999999999999986L-26.666666666666668,190L-13.333333333333334,174.99999999999997L0,170L13.333333333333334,182.50000000000003L26.666666666666668,215L40,220.00000000000003L53.333333333333336,225L66.66666666666666,227.5L80,232.5L93.33333333333333,220.00000000000003L106.66666666666667,212.49999999999997L120,235L133.33333333333331,222.5L146.66666666666666,245L160,237.5L173.33333333333334,232.5L186.66666666666666,240L200,250L213.33333333333334,247.5L226.66666666666666,245L240,250L253.33333333333331,242.5L266.66666666666663,245L280,250L293.3333333333333,247.5L306.6666666666667,250L320,247.5L333.33333333333337,250L346.6666666666667,250L360,250L373.3333333333333,245L386.6666666666667,250L400,250" style="fill: none; stroke: #4c78a8; stroke-width: 2; opacity: 0.2;"></path></g></g><path class="foreground" d="" style="display: none; fill: none;"></path></g></g><g class="mark-group role-title"><g transform="translate(200,-22)"><path class="background" d="M0,0h0v0h0Z" style="pointer-events: none; fill: none;"></path><g><g class="mark-text role-title-text" style="pointer-events: none;"><text text-anchor="middle" transform="translate(0,10)" style="font-family: Roboto Condensed; font-size: 13px; font-weight: normal; fill: #000; opacity: 1;">7-day average (Daily values in light color)</text></g></g><path class="foreground" d="" style="pointer-events: none; display: none; fill: none;"></path></g></g></g><path class="foreground" d="" style="display: none; fill: none;"></path></g></g><g class="mark-group role-scope concat_1_group"><g transform="translate(445,0)"><path class="background" d="M0,0h400v300h-400Z" style="fill: none; stroke: #ddd; stroke-width: 0;"></path><g><g class="mark-group role-axis"><g transform="translate(0.5,0.5)"><path class="background" d="M0,0h0v0h0Z" style="pointer-events: none; fill: none;"></path><g><g class="mark-rule role-axis-grid" style="pointer-events: none;"><line transform="translate(0,300)" x2="400" y2="0" style="fill: none; stroke: #ddd; stroke-width: 1; opacity: 1;"></line><line transform="translate(0,270)" x2="400" y2="0" style="fill: none; stroke: #ddd; stroke-width: 1; opacity: 1;"></line><line transform="translate(0,240)" x2="400" y2="0" style="fill: none; stroke: #ddd; stroke-width: 1; opacity: 1;"></line><line transform="translate(0,210)" x2="400" y2="0" style="fill: none; stroke: #ddd; stroke-width: 1; opacity: 1;"></line><line transform="translate(0,180)" x2="400" y2="0" style="fill: none; stroke: #ddd; stroke-width: 1; opacity: 1;"></line><line transform="translate(0,150)" x2="400" y2="0" style="fill: none; stroke: #ddd; stroke-width: 1; opacity: 1;"></line><line transform="translate(0,120)" x2="400" y2="0" style="fill: none; stroke: #ddd; stroke-width: 1; opacity: 1;"></line><line transform="translate(0,90)" x2="400" y2="0" style="fill: none; stroke: #ddd; stroke-width: 1; opacity: 1;"></line><line transform="translate(0,60)" x2="400" y2="0" style="fill: none; stroke: #ddd; stroke-width: 1; opacity: 1;"></line><line transform="translate(0,30)" x2="400" y2="0" style="fill: none; stroke: #ddd; stroke-width: 1; opacity: 1;"></line><line transform="translate(0,0)" x2="400" y2="0" style="fill: none; stroke: #ddd; stroke-width: 1; opacity: 1;"></line></g></g><path class="foreground" d="" style="pointer-events: none; display: none; fill: none;"></path></g></g><g class="mark-group role-axis"><g transform="translate(0.5,300.5)"><path class="background" d="M0,0h0v0h0Z" style="pointer-events: none; fill: none;"></path><g><g class="mark-text role-axis-label" style="pointer-events: none;"><text text-anchor="start" transform="translate(0,10)" style="font-family: Roboto Condensed; font-size: 10px; fill: #000; opacity: 1;">Apr 09</text><text text-anchor="middle" transform="translate(26.666666666666668,10)" style="font-family: Roboto Condensed; font-size: 10px; fill: #000; opacity: 0;">Apr 11</text><text text-anchor="middle" transform="translate(53.333333333333336,10)" style="font-family: Roboto Condensed; font-size: 10px; fill: #000; opacity: 1;">Apr 13</text><text text-anchor="middle" transform="translate(80,10)" style="font-family: Roboto Condensed; font-size: 10px; fill: #000; opacity: 0;">Apr 15</text><text text-anchor="middle" transform="translate(106.66666666666667,10)" style="font-family: Roboto Condensed; font-size: 10px; fill: #000; opacity: 1;">Apr 17</text><text text-anchor="middle" transform="translate(133.33333333333331,10)" style="font-family: Roboto Condensed; font-size: 10px; fill: #000; opacity: 0;">Apr 19</text><text text-anchor="middle" transform="translate(160,10)" style="font-family: Roboto Condensed; font-size: 10px; fill: #000; opacity: 1;">Apr 21</text><text text-anchor="middle" transform="translate(186.66666666666666,10)" style="font-family: Roboto Condensed; font-size: 10px; fill: #000; opacity: 0;">Apr 23</text><text text-anchor="middle" transform="translate(213.33333333333334,10)" style="font-family: Roboto Condensed; font-size: 10px; fill: #000; opacity: 1;">Apr 25</text><text text-anchor="middle" transform="translate(240,10)" style="font-family: Roboto Condensed; font-size: 10px; fill: #000; opacity: 0;">Apr 27</text><text text-anchor="middle" transform="translate(266.66666666666663,10)" style="font-family: Roboto Condensed; font-size: 10px; fill: #000; opacity: 1;">Apr 29</text><text text-anchor="middle" transform="translate(293.3333333333333,10)" style="font-family: Roboto Condensed; font-size: 10px; fill: #000; opacity: 0;">May 01</text><text text-anchor="middle" transform="translate(320,10)" style="font-family: Roboto Condensed; font-size: 10px; fill: #000; opacity: 1;">May 03</text><text text-anchor="middle" transform="translate(346.6666666666667,10)" style="font-family: Roboto Condensed; font-size: 10px; fill: #000; opacity: 0;">May 05</text><text text-anchor="middle" transform="translate(373.3333333333333,10)" style="font-family: Roboto Condensed; font-size: 10px; fill: #000; opacity: 1;">May 07</text><text text-anchor="end" transform="translate(400,10)" style="font-family: Roboto Condensed; font-size: 10px; fill: #000; opacity: 0;">May 09</text></g><g class="mark-rule role-axis-domain" style="pointer-events: none;"><line transform="translate(0,0)" x2="400" y2="0" style="fill: none; stroke: lightgray; stroke-width: 1; opacity: 1;"></line></g></g><path class="foreground" d="" style="pointer-events: none; display: none; fill: none;"></path></g></g><g class="mark-group role-axis"><g transform="translate(0.5,0.5)"><path class="background" d="M0,0h0v0h0Z" style="pointer-events: none; fill: none;"></path><g><g class="mark-text role-axis-label" style="pointer-events: none;"><text text-anchor="end" transform="translate(-2,303)" style="font-family: Roboto Condensed; font-size: 10px; fill: #000; opacity: 1;">0</text><text text-anchor="end" transform="translate(-2,273)" style="font-family: Roboto Condensed; font-size: 10px; fill: #000; opacity: 1;">200</text><text text-anchor="end" transform="translate(-2,243)" style="font-family: Roboto Condensed; font-size: 10px; fill: #000; opacity: 1;">400</text><text text-anchor="end" transform="translate(-2,213)" style="font-family: Roboto Condensed; font-size: 10px; fill: #000; opacity: 1;">600</text><text text-anchor="end" transform="translate(-2,183)" style="font-family: Roboto Condensed; font-size: 10px; fill: #000; opacity: 1;">800</text><text text-anchor="end" transform="translate(-2,153)" style="font-family: Roboto Condensed; font-size: 10px; fill: #000; opacity: 1;">1,000</text><text text-anchor="end" transform="translate(-2,123)" style="font-family: Roboto Condensed; font-size: 10px; fill: #000; opacity: 1;">1,200</text><text text-anchor="end" transform="translate(-2,93.00000000000001)" style="font-family: Roboto Condensed; font-size: 10px; fill: #000; opacity: 1;">1,400</text><text text-anchor="end" transform="translate(-2,62.999999999999986)" style="font-family: Roboto Condensed; font-size: 10px; fill: #000; opacity: 1;">1,600</text><text text-anchor="end" transform="translate(-2,32.99999999999999)" style="font-family: Roboto Condensed; font-size: 10px; fill: #000; opacity: 1;">1,800</text><text text-anchor="end" transform="translate(-2,3)" style="font-family: Roboto Condensed; font-size: 10px; fill: #000; opacity: 1;">2,000</text></g><g class="mark-rule role-axis-domain" style="pointer-events: none;"><line transform="translate(0,300)" x2="0" y2="-300" style="fill: none; stroke: lightgray; stroke-width: 1; opacity: 1;"></line></g></g><path class="foreground" d="" style="pointer-events: none; display: none; fill: none;"></path></g></g><g class="mark-group role-scope concat_1_pathgroup"><g transform="translate(0,0)"><path class="background" d="M0,0h400v300h-400Z" style="fill: none;"></path><g><g class="mark-line role-mark concat_1_marks" clip-path="url(#clip7)"><path d="M-546.6666666666666,300L-533.3333333333333,300L-520,300L-506.66666666666663,300L-493.33333333333337,300L-480,300L-466.6666666666667,300L-453.3333333333333,300L-440.00000000000006,300L-426.6666666666667,300L-413.33333333333337,300L-400,299.85L-386.6666666666667,299.85L-373.3333333333333,299.85L-360,299.85L-346.6666666666667,299.85L-333.33333333333337,298.8L-320,300L-306.6666666666667,300L-293.3333333333333,299.25L-280,299.25L-266.66666666666663,299.25L-253.33333333333331,296.7L-240,299.25L-226.66666666666666,292.35L-213.33333333333334,292.35L-200,291.59999999999997L-186.66666666666666,287.7L-173.33333333333334,285.45L-160,282.9L-146.66666666666666,279.75L-133.33333333333331,276.45L-120,270.3L-106.66666666666667,266.25L-93.33333333333333,257.4L-80,253.65L-66.66666666666666,240.60000000000002L-53.333333333333336,235.8L-40,231L-26.666666666666668,216.14999999999998L-13.333333333333334,205.05L0,196.8L13.333333333333334,187.35000000000002L26.666666666666668,173.85L40,166.65L53.333333333333336,160.04999999999998L66.66666666666666,151.65L80,138.45000000000002L93.33333333333333,128.4L106.66666666666667,116.4L120,106.35000000000001L133.33333333333331,106.35000000000001L146.66666666666666,95.69999999999999L160,87.44999999999999L173.33333333333334,80.7L186.66666666666666,73.65000000000002L200,68.69999999999999L213.33333333333334,64.49999999999999L226.66666666666666,58.79999999999998L240,56.399999999999984L253.33333333333331,54.600000000000016L266.66666666666663,51.600000000000016L280,49.500000000000014L293.3333333333333,46.64999999999999L306.6666666666667,44.10000000000001L320,42.44999999999999L333.33333333333337,41.54999999999999L346.6666666666667,40.04999999999998L360,37.5L373.3333333333333,36.750000000000014L386.6666666666667,35.250000000000014L400,34.05000000000001" style="fill: none; stroke: #e45756; stroke-width: 2; opacity: 0.7;"></path></g></g><path class="foreground" d="" style="display: none; fill: none;"></path></g><g transform="translate(0,0)"><path class="background" d="M0,0h400v300h-400Z" style="fill: none;"></path><g><g class="mark-line role-mark concat_1_marks" clip-path="url(#clip8)"><path d="M-546.6666666666666,300L-533.3333333333333,300L-520,300L-506.66666666666663,300L-493.33333333333337,300L-480,300L-466.6666666666667,300L-453.3333333333333,300L-440.00000000000006,300L-426.6666666666667,300L-413.33333333333337,300L-400,300L-386.6666666666667,300L-373.3333333333333,300L-360,300L-346.6666666666667,300L-333.33333333333337,299.25L-320,300L-306.6666666666667,299.85L-293.3333333333333,299.85L-280,299.85L-266.66666666666663,300L-253.33333333333331,299.85L-240,299.85L-226.66666666666666,299.85L-213.33333333333334,299.7L-200,299.7L-186.66666666666666,299.7L-173.33333333333334,299.7L-160,299.7L-146.66666666666666,299.7L-133.33333333333331,299.7L-120,299.7L-106.66666666666667,299.7L-93.33333333333333,299.4L-80,299.4L-66.66666666666666,299.4L-53.333333333333336,299.4L-40,299.1L-26.666666666666668,299.1L-13.333333333333334,299.1L0,299.1L13.333333333333334,298.95L26.666666666666668,298.8L40,298.8L53.333333333333336,298.8L66.66666666666666,298.8L80,298.8L93.33333333333333,298.8L106.66666666666667,298.65000000000003L120,298.65000000000003L133.33333333333331,298.65000000000003L146.66666666666666,298.5L160,298.5L173.33333333333334,298.5L186.66666666666666,298.5L200,298.5L213.33333333333334,298.5L226.66666666666666,298.5L240,298.5L253.33333333333331,298.5L266.66666666666663,298.5L280,298.5L293.3333333333333,298.5L306.6666666666667,298.5L320,298.5L333.33333333333337,298.5L346.6666666666667,298.5L360,298.5L373.3333333333333,298.5L386.6666666666667,298.5L400,298.5" style="fill: none; stroke: #f58518; stroke-width: 2; opacity: 0.7;"></path></g></g><path class="foreground" d="" style="display: none; fill: none;"></path></g><g transform="translate(0,0)"><path class="background" d="M0,0h400v300h-400Z" style="fill: none;"></path><g><g class="mark-line role-mark concat_1_marks" clip-path="url(#clip9)"><path d="M-546.6666666666666,299.85L-533.3333333333333,299.85L-520,299.55L-506.66666666666663,299.1L-493.33333333333337,298.35L-480,296.1L-466.6666666666667,294.9L-453.3333333333333,293.55L-440.00000000000006,292.5L-426.6666666666667,292.5L-413.33333333333337,291.3L-400,289.65000000000003L-386.6666666666667,287.25L-373.3333333333333,284.55L-360,279.90000000000003L-346.6666666666667,276.6L-333.33333333333337,274.34999999999997L-320,273L-306.6666666666667,267L-293.3333333333333,262.5L-280,250.5L-266.66666666666663,238.65L-253.33333333333331,229.05L-240,214.79999999999998L-226.66666666666666,211.79999999999998L-213.33333333333334,202.79999999999998L-200,189.45L-186.66666666666666,179.7L-173.33333333333334,166.49999999999997L-160,155.54999999999998L-146.66666666666666,147L-133.33333333333331,137.1L-120,129.75L-106.66666666666667,117L-93.33333333333333,102.15L-80,95.39999999999999L-66.66666666666666,87.44999999999999L-53.333333333333336,77.10000000000001L-40,65.69999999999999L-26.666666666666668,62.09999999999999L-13.333333333333334,57.59999999999999L0,52.80000000000001L13.333333333333334,48.74999999999999L26.666666666666668,46.64999999999999L40,44.84999999999999L53.333333333333336,43.34999999999999L66.66666666666666,42.00000000000001L80,40.94999999999999L93.33333333333333,39.149999999999984L106.66666666666667,36.9L120,36L133.33333333333331,34.350000000000016L146.66666666666666,34.05000000000001L160,33.3L173.33333333333334,32.250000000000014L186.66666666666666,31.650000000000013L200,31.650000000000013L213.33333333333334,31.499999999999993L226.66666666666666,31.199999999999996L240,31.199999999999996L253.33333333333331,30.75000000000001L266.66666666666663,30.45000000000001L280,30.45000000000001L293.3333333333333,30.299999999999994L306.6666666666667,30.299999999999994L320,30.15000000000001L333.33333333333337,30.15000000000001L346.6666666666667,30.15000000000001L360,30.15000000000001L373.3333333333333,29.85000000000001L386.6666666666667,29.85000000000001L400,29.85000000000001" style="fill: none; stroke: #4c78a8; stroke-width: 2; opacity: 0.7;"></path></g></g><path class="foreground" d="" style="display: none; fill: none;"></path></g></g><g class="mark-group role-title"><g transform="translate(200,-22)"><path class="background" d="M0,0h0v0h0Z" style="pointer-events: none; fill: none;"></path><g><g class="mark-text role-title-text" style="pointer-events: none;"><text text-anchor="middle" transform="translate(0,10)" style="font-family: Roboto Condensed; font-size: 13px; font-weight: normal; fill: #000; opacity: 1;">Total</text></g></g><path class="foreground" d="" style="pointer-events: none; display: none; fill: none;"></path></g></g></g><path class="foreground" d="" style="display: none; fill: none;"></path></g></g><g class="mark-group role-legend"><g transform="translate(863,0)"><path class="background" d="M0,0h60v37h-60Z" style="pointer-events: none; fill: none;"></path><g><g class="mark-group role-legend-entry"><g transform="translate(0,0)"><path class="background" d="M0,0h0v0h0Z" style="pointer-events: none; fill: none;"></path><g><g class="mark-group role-scope"><g transform="translate(0,0)"><path class="background" d="M0,0h59.3251953125v11h-59.3251953125Z" style="pointer-events: none; fill: none; opacity: 1;"></path><g><g class="mark-symbol role-legend-symbol" style="pointer-events: none;"><path transform="translate(6,6)" d="M-5,0L5,0" style="fill: none; stroke: #4c78a8; stroke-width: 1.5; opacity: 1;"></path></g><g class="mark-text role-legend-label" style="pointer-events: none;"><text text-anchor="start" transform="translate(16,9)" style="font-family: Roboto Condensed; font-size: 10px; fill: #000; opacity: 1;">Confirmed</text></g></g><path class="foreground" d="" style="pointer-events: none; display: none; fill: none;"></path></g><g transform="translate(0,13)"><path class="background" d="M0,0h59.3251953125v11h-59.3251953125Z" style="pointer-events: none; fill: none; opacity: 1;"></path><g><g class="mark-symbol role-legend-symbol" style="pointer-events: none;"><path transform="translate(6,6)" d="M-5,0L5,0" style="fill: none; stroke: #f58518; stroke-width: 1.5; opacity: 1;"></path></g><g class="mark-text role-legend-label" style="pointer-events: none;"><text text-anchor="start" transform="translate(16,9)" style="font-family: Roboto Condensed; font-size: 10px; fill: #000; opacity: 1;">Deaths</text></g></g><path class="foreground" d="" style="pointer-events: none; display: none; fill: none;"></path></g><g transform="translate(0,26)"><path class="background" d="M0,0h59.3251953125v11h-59.3251953125Z" style="pointer-events: none; fill: none; opacity: 1;"></path><g><g class="mark-symbol role-legend-symbol" style="pointer-events: none;"><path transform="translate(6,6)" d="M-5,0L5,0" style="fill: none; stroke: #e45756; stroke-width: 1.5; opacity: 1;"></path></g><g class="mark-text role-legend-label" style="pointer-events: none;"><text text-anchor="start" transform="translate(16,9)" style="font-family: Roboto Condensed; font-size: 10px; fill: #000; opacity: 1;">Recovered</text></g></g><path class="foreground" d="" style="pointer-events: none; display: none; fill: none;"></path></g></g></g><path class="foreground" d="" style="pointer-events: none; display: none; fill: none;"></path></g></g></g><path class="foreground" d="" style="pointer-events: none; display: none; fill: none;"></path></g></g></g><path class="foreground" d="" style="display: none; fill: none;"></path></g></g></g></svg>