<svg class="marks" width="973" height="344" viewBox="0 0 973 344" version="1.1" xmlns="http://www.w3.org/2000/svg" xmlns:xlink="http://www.w3.org/1999/xlink"><rect width="973" height="344" style="fill: white;"></rect><defs><clipPath id="clip1"><rect x="0" y="0" width="400" height="300"></rect></clipPath><clipPath id="clip2"><rect x="0" y="0" width="400" height="300"></rect></clipPath><clipPath id="clip3"><rect x="0" y="0" width="400" height="300"></rect></clipPath><clipPath id="clip4"><rect x="0" y="0" width="400" height="300"></rect></clipPath><clipPath id="clip5"><rect x="0" y="0" width="400" height="300"></rect></clipPath><clipPath id="clip6"><rect x="0" y="0" width="400" height="300"></rect></clipPath><clipPath id="clip7"><rect x="0" y="0" width="400" height="300"></rect></clipPath><clipPath id="clip8"><rect x="0" y="0" width="400" height="300"></rect></clipPath><clipPath id="clip9"><rect x="0" y="0" width="400" height="300"></rect></clipPath></defs><g transform="translate(35,27)"><g class="mark-group role-frame root"><g transform="translate(0,0)"><path class="background" d="M0,0h0v0h0Z" style="fill: none;"></path><g><g class="mark-group role-scope concat_0_group"><g transform="translate(0,0)"><path class="background" d="M0,0h400v300h-400Z" style="fill: none; stroke: #ddd; stroke-width: 0;"></path><g><g class="mark-group role-axis"><g transform="translate(0.5,0.5)"><path class="background" d="M0,0h0v0h0Z" style="pointer-events: none; fill: none;"></path><g><g class="mark-rule role-axis-grid" style="pointer-events: none;"><line transform="translate(0,300)" x2="400" y2="0" style="fill: none; stroke: #ddd; stroke-width: 1; opacity: 1;"></line><line transform="translate(0,250)" x2="400" y2="0" style="fill: none; stroke: #ddd; stroke-width: 1; opacity: 1;"></line><line transform="translate(0,200)" x2="400" y2="0" style="fill: none; stroke: #ddd; stroke-width: 1; opacity: 1;"></line><line transform="translate(0,150)" x2="400" y2="0" style="fill: none; stroke: #ddd; stroke-width: 1; opacity: 1;"></line><line transform="translate(0,100)" x2="400" y2="0" style="fill: none; stroke: #ddd; stroke-width: 1; opacity: 1;"></line><line transform="translate(0,50)" x2="400" y2="0" style="fill: none; stroke: #ddd; stroke-width: 1; opacity: 1;"></line><line transform="translate(0,0)" x2="400" y2="0" style="fill: none; stroke: #ddd; stroke-width: 1; opacity: 1;"></line></g></g><path class="foreground" d="" style="pointer-events: none; display: none; fill: none;"></path></g></g><g class="mark-group role-axis"><g transform="translate(0.5,300.5)"><path class="background" d="M0,0h0v0h0Z" style="pointer-events: none; fill: none;"></path><g><g class="mark-text role-axis-label" style="pointer-events: none;"><text text-anchor="start" transform="translate(0,10)" style="font-family: Roboto Condensed; font-size: 10px; fill: #000; opacity: 1;">Apr 09</text><text text-anchor="middle" transform="translate(26.666666666666668,10)" style="font-family: Roboto Condensed; font-size: 10px; fill: #000; opacity: 0;">Apr 11</text><text text-anchor="middle" transform="translate(53.333333333333336,10)" style="font-family: Roboto Condensed; font-size: 10px; fill: #000; opacity: 1;">Apr 13</text><text text-anchor="middle" transform="translate(80,10)" style="font-family: Roboto Condensed; font-size: 10px; fill: #000; opacity: 0;">Apr 15</text><text text-anchor="middle" transform="translate(106.66666666666667,10)" style="font-family: Roboto Condensed; font-size: 10px; fill: #000; opacity: 1;">Apr 17</text><text text-anchor="middle" transform="translate(133.33333333333331,10)" style="font-family: Roboto Condensed; font-size: 10px; fill: #000; opacity: 0;">Apr 19</text><text text-anchor="middle" transform="translate(160,10)" style="font-family: Roboto Condensed; font-size: 10px; fill: #000; opacity: 1;">Apr 21</text><text text-anchor="middle" transform="translate(186.66666666666666,10)" style="font-family: Roboto Condensed; font-size: 10px; fill: #000; opacity: 0;">Apr 23</text><text text-anchor="middle" transform="translate(213.33333333333334,10)" style="font-family: Roboto Condensed; font-size: 10px; fill: #000; opacity: 1;">Apr 25</text><text text-anchor="middle" transform="translate(240,10)" style="font-family: Roboto Condensed; font-size: 10px; fill: #000; opacity: 0;">Apr 27</text><text text-anchor="middle" transform="translate(266.66666666666663,10)" style="font-family: Roboto Condensed; font-size: 10px; fill: #000; opacity: 1;">Apr 29</text><text text-anchor="middle" transform="translate(293.3333333333333,10)" style="font-family: Roboto Condensed; font-size: 10px; fill: #000; opacity: 0;">May 01</text><text text-anchor="middle" transform="translate(320,10)" style="font-family: Roboto Condensed; font-size: 10px; fill: #000; opacity: 1;">May 03</text><text text-anchor="middle" transform="translate(346.6666666666667,10)" style="font-family: Roboto Condensed; font-size: 10px; fill: #000; opacity: 0;">May 05</text><text text-anchor="middle" transform="translate(373.3333333333333,10)" style="font-family: Roboto Condensed; font-size: 10px; fill: #000; opacity: 1;">May 07</text><text text-anchor="end" transform="translate(400,10)" style="font-family: Roboto Condensed; font-size: 10px; fill: #000; opacity: 0;">May 09</text></g><g class="mark-rule role-axis-domain" style="pointer-events: none;"><line transform="translate(0,0)" x2="400" y2="0" style="fill: none; stroke: lightgray; stroke-width: 1; opacity: 1;"></line></g></g><path class="foreground" d="" style="pointer-events: none; display: none; fill: none;"></path></g></g><g class="mark-group role-axis"><g transform="translate(0.5,0.5)"><path class="background" d="M0,0h0v0h0Z" style="pointer-events: none; fill: none;"></path><g><g class="mark-text role-axis-label" style="pointer-events: none;"><text text-anchor="end" transform="translate(-2,303)" style="font-family: Roboto Condensed; font-size: 10px; fill: #000; opacity: 1;">0</text><text text-anchor="end" transform="translate(-2,253)" style="font-family: Roboto Condensed; font-size: 10px; fill: #000; opacity: 1;">2,000</text><text text-anchor="end" transform="translate(-2,203.00000000000003)" style="font-family: Roboto Condensed; font-size: 10px; fill: #000; opacity: 1;">4,000</text><text text-anchor="end" transform="translate(-2,153)" style="font-family: Roboto Condensed; font-size: 10px; fill: #000; opacity: 1;">6,000</text><text text-anchor="end" transform="translate(-2,103.00000000000001)" style="font-family: Roboto Condensed; font-size: 10px; fill: #000; opacity: 1;">8,000</text><text text-anchor="end" transform="translate(-2,52.999999999999986)" style="font-family: Roboto Condensed; font-size: 10px; fill: #000; opacity: 1;">10,000</text><text text-anchor="end" transform="translate(-2,3)" style="font-family: Roboto Condensed; font-size: 10px; fill: #000; opacity: 1;">12,000</text></g><g class="mark-rule role-axis-domain" style="pointer-events: none;"><line transform="translate(0,300)" x2="0" y2="-300" style="fill: none; stroke: lightgray; stroke-width: 1; opacity: 1;"></line></g></g><path class="foreground" d="" style="pointer-events: none; display: none; fill: none;"></path></g></g><g class="mark-group role-scope concat_0_layer_0_pathgroup"><g transform="translate(0,0)"><path class="background" d="M0,0h400v300h-400Z" style="fill: none;"></path><g><g class="mark-line role-mark concat_0_layer_0_marks" clip-path="url(#clip1)"><path d="M-440.00000000000006,300L-426.6666666666667,300L-413.33333333333337,300L-400,300L-386.6666666666667,300L-373.3333333333333,300L-360,300L-346.6666666666667,300L-333.33333333333337,300L-320,299.99642857142857L-306.6666666666667,299.99285714285713L-293.3333333333333,299.99285714285713L-280,299.99285714285713L-266.66666666666663,299.99285714285713L-253.33333333333331,299.99285714285713L-240,299.99285714285713L-226.66666666666666,299.99642857142857L-213.33333333333334,300L-200,300L-186.66666666666666,299.98571428571427L-173.33333333333334,299.98571428571427L-160,299.98571428571427L-146.66666666666666,299.98571428571427L-133.33333333333331,299.5785714285714L-120,299.55357142857144L-106.66666666666667,299.55357142857144L-93.33333333333333,299.5678571428572L-80,299.5678571428572L-66.66666666666666,299.5678571428572L-53.333333333333336,299.5678571428572L-40,299.975L-26.666666666666668,300L-13.333333333333334,300L0,299.8357142857143L13.333333333333334,299.8357142857143L26.666666666666668,299.8357142857143L40,299.8357142857143L53.333333333333336,299.8357142857143L66.66666666666666,289.575L80,250.3607142857143L93.33333333333333,250.52500000000003L106.66666666666667,250.52500000000003L120,250.52500000000003L133.33333333333331,221.58214285714283L146.66666666666666,221.58214285714283L160,228.76785714285717L173.33333333333334,259.6714285714286L186.66666666666666,255.1892857142857L200,251.325L213.33333333333334,245.95L226.66666666666666,271.34999999999997L240,267.8142857142857L253.33333333333331,265.88214285714287L266.66666666666663,268.52142857142854L280,266.5642857142857L293.3333333333333,262.9142857142857L306.6666666666667,257.93928571428575L320,254.14642857142857L333.33333333333337,247.59642857142856L346.6666666666667,244.01071428571427L360,238.43571428571428L373.3333333333333,230.66071428571428L386.6666666666667,224.07857142857142L400,225.9" style="fill: none; stroke: #e45756; stroke-width: 2; opacity: 1;"></path></g></g><path class="foreground" d="" style="display: none; fill: none;"></path></g><g transform="translate(0,0)"><path class="background" d="M0,0h400v300h-400Z" style="fill: none;"></path><g><g class="mark-line role-mark concat_0_layer_0_marks" clip-path="url(#clip2)"><path d="M-440.00000000000006,300L-426.6666666666667,300L-413.33333333333337,300L-400,300L-386.6666666666667,300L-373.3333333333333,300L-360,300L-346.6666666666667,300L-333.33333333333337,300L-320,300L-306.6666666666667,299.99642857142857L-293.3333333333333,299.9892857142857L-280,299.9785714285714L-266.66666666666663,299.9607142857143L-253.33333333333331,299.94642857142856L-240,299.9107142857143L-226.66666666666666,299.87857142857143L-213.33333333333334,299.8392857142857L-200,299.8L-186.66666666666666,299.74642857142857L-173.33333333333334,299.7107142857143L-160,299.65714285714284L-146.66666666666666,299.6035714285714L-133.33333333333331,299.55357142857144L-120,299.44642857142856L-106.66666666666667,299.3535714285714L-93.33333333333333,299.11785714285713L-80,299.0464285714286L-66.66666666666666,298.8071428571429L-53.333333333333336,298.75L-40,298.55357142857144L-26.666666666666668,298.2678571428571L-13.333333333333334,297.9321428571429L0,297.7642857142857L13.333333333333334,297.50714285714287L26.666666666666668,297.575L40,297.36785714285713L53.333333333333336,297.2714285714286L66.66666666666666,296.9785714285714L80,296.725L93.33333333333333,296.52142857142854L106.66666666666667,296.12857142857143L120,295.60714285714283L133.33333333333331,295.575L146.66666666666666,295.50357142857143L160,295.6821428571429L173.33333333333334,295.82142857142856L186.66666666666666,294.97499999999997L200,294.41785714285714L213.33333333333334,293.91785714285714L226.66666666666666,293.48571428571427L240,292.8L253.33333333333331,291.6357142857143L266.66666666666663,290.6892857142857L280,290.44642857142856L293.3333333333333,290.3285714285714L306.6666666666667,290.34285714285716L320,290.125L333.33333333333337,290.12857142857143L346.6666666666667,289.80357142857144L360,289.01785714285717L373.3333333333333,288.62857142857143L386.6666666666667,287.125L400,286.0892857142857" style="fill: none; stroke: #f58518; stroke-width: 2; opacity: 1;"></path></g></g><path class="foreground" d="" style="display: none; fill: none;"></path></g><g transform="translate(0,0)"><path class="background" d="M0,0h400v300h-400Z" style="fill: none;"></path><g><g class="mark-line role-mark concat_0_layer_0_marks" clip-path="url(#clip3)"><path d="M-440.00000000000006,299.9607142857143L-426.6666666666667,299.9357142857143L-413.33333333333337,299.91785714285714L-400,299.89642857142854L-386.6666666666667,299.87857142857143L-373.3333333333333,299.8285714285714L-360,299.50714285714287L-346.6666666666667,299.50714285714287L-333.33333333333337,299.49285714285713L-320,299.375L-306.6666666666667,298.9642857142857L-293.3333333333333,298.8071428571429L-280,297.96785714285716L-266.66666666666663,297.70714285714286L-253.33333333333331,296.89285714285717L-240,295.0571428571428L-226.66666666666666,293.84285714285716L-213.33333333333334,293.12142857142857L-200,292.20714285714286L-186.66666666666666,291.5571428571429L-173.33333333333334,290.62857142857143L-160,289.7035714285714L-146.66666666666666,290.3214285714286L-133.33333333333331,290.51785714285717L-120,287.6071428571429L-106.66666666666667,284.70714285714286L-93.33333333333333,281.9321428571429L-80,279.8607142857143L-66.66666666666666,276.9428571428571L-53.333333333333336,275.45L-40,272.9214285714286L-26.666666666666668,270.2964285714286L-13.333333333333334,266.6642857142857L0,264.1142857142857L13.333333333333334,262.20714285714286L26.666666666666668,262.975L40,260.49285714285713L53.333333333333336,259.75357142857143L66.66666666666666,259.90000000000003L80,256.60714285714283L93.33333333333333,255.95357142857142L106.66666666666667,249.84285714285713L120,243.10357142857143L133.33333333333331,241.20714285714286L146.66666666666666,238.16785714285714L160,236.36785714285716L173.33333333333334,237.725L186.66666666666666,229.9607142857143L200,227.28214285714284L213.33333333333334,219.04999999999998L226.66666666666666,212.69285714285712L240,204.63214285714284L253.33333333333331,192.3L266.66666666666663,178.8285714285714L280,167.31785714285712L293.3333333333333,163.71785714285713L306.6666666666667,165.0857142857143L320,161.69285714285715L333.33333333333337,152.95000000000002L346.6666666666667,149.21428571428572L360,132.40714285714287L373.3333333333333,126.47857142857141L386.6666666666667,104.67142857142858L400,89.42500000000001" style="fill: none; stroke: #4c78a8; stroke-width: 2; opacity: 1;"></path></g></g><path class="foreground" d="" style="display: none; fill: none;"></path></g></g><g class="mark-group role-scope concat_0_layer_1_pathgroup"><g transform="translate(0,0)"><path class="background" d="M0,0h400v300h-400Z" style="fill: none;"></path><g><g class="mark-line role-mark concat_0_layer_1_marks" clip-path="url(#clip4)"><path d="M-520,300L-506.66666666666663,300L-493.33333333333337,300L-480,300L-466.6666666666667,300L-453.3333333333333,300L-440.00000000000006,300L-426.6666666666667,300L-413.33333333333337,300L-400,300L-386.6666666666667,300L-373.3333333333333,300L-360,300L-346.6666666666667,300L-333.33333333333337,300L-320,299.975L-306.6666666666667,299.975L-293.3333333333333,300L-280,300L-266.66666666666663,300L-253.33333333333331,300L-240,300L-226.66666666666666,300L-213.33333333333334,300L-200,300L-186.66666666666666,299.90000000000003L-173.33333333333334,300L-160,300L-146.66666666666666,300L-133.33333333333331,297.15000000000003L-120,299.825L-106.66666666666667,300L-93.33333333333333,300L-80,300L-66.66666666666666,300L-53.333333333333336,300L-40,300L-26.666666666666668,300L-13.333333333333334,300L0,298.84999999999997L13.333333333333334,300L26.666666666666668,300L40,300L53.333333333333336,300L66.66666666666666,228.175L80,25.49999999999999L93.33333333333333,300L106.66666666666667,300L120,300L133.33333333333331,97.39999999999999L146.66666666666666,300L160,278.475L173.33333333333334,241.82500000000002L186.66666666666666,268.625L200,272.95L213.33333333333334,262.375L226.66666666666666,275.2L240,275.25L253.33333333333331,264.95L266.66666666666663,260.3L280,254.925L293.3333333333333,247.4L306.6666666666667,227.54999999999998L320,248.65L333.33333333333337,229.39999999999998L346.6666666666667,239.85L360,221.27499999999998L373.3333333333333,200.5L386.6666666666667,201.325L400,240.29999999999998" style="fill: none; stroke: #e45756; stroke-width: 2; opacity: 0.2;"></path></g></g><path class="foreground" d="" style="display: none; fill: none;"></path></g><g transform="translate(0,0)"><path class="background" d="M0,0h400v300h-400Z" style="fill: none;"></path><g><g class="mark-line role-mark concat_0_layer_1_marks" clip-path="url(#clip5)"><path d="M-520,300L-506.66666666666663,300L-493.33333333333337,300L-480,300L-466.6666666666667,300L-453.3333333333333,300L-440.00000000000006,300L-426.6666666666667,300L-413.33333333333337,300L-400,300L-386.6666666666667,300L-373.3333333333333,300L-360,300L-346.6666666666667,300L-333.33333333333337,300L-320,300L-306.6666666666667,299.975L-293.3333333333333,299.95L-280,299.925L-266.66666666666663,299.875L-253.33333333333331,299.90000000000003L-240,299.75L-226.66666666666666,299.775L-213.33333333333334,299.7L-200,299.675L-186.66666666666666,299.55L-173.33333333333334,299.625L-160,299.525L-146.66666666666666,299.375L-133.33333333333331,299.425L-120,298.95L-106.66666666666667,299.02500000000003L-93.33333333333333,297.9L-80,299.125L-66.66666666666666,297.85L-53.333333333333336,298.975L-40,298.05L-26.666666666666668,296.95L-13.333333333333334,296.675L0,296.725L13.333333333333334,297.325L26.666666666666668,298.325L40,297.52500000000003L53.333333333333336,297.375L66.66666666666666,294.9L80,294.9L93.33333333333333,295.3L106.66666666666667,294.575L120,294.675L133.33333333333331,297.3L146.66666666666666,296.875L160,296.15L173.33333333333334,295.875L186.66666666666666,289.375L200,290.675L213.33333333333334,291.175L226.66666666666666,294.275L240,292.075L253.33333333333331,288L266.66666666666663,289.25L280,287.675L293.3333333333333,289.84999999999997L306.6666666666667,291.275L320,292.75L333.33333333333337,292.1L346.6666666666667,285.725L360,283.75L373.3333333333333,284.95L386.6666666666667,279.325L400,284.025" style="fill: none; stroke: #f58518; stroke-width: 2; opacity: 0.2;"></path></g></g><path class="foreground" d="" style="display: none; fill: none;"></path></g><g transform="translate(0,0)"><path class="background" d="M0,0h400v300h-400Z" style="fill: none;"></path><g><g class="mark-line role-mark concat_0_layer_1_marks" clip-path="url(#clip6)"><path d="M-520,300L-506.66666666666663,300L-493.33333333333337,300L-480,299.95L-466.6666666666667,300L-453.3333333333333,299.775L-440.00000000000006,300L-426.6666666666667,299.825L-413.33333333333337,299.875L-400,299.85L-386.6666666666667,299.825L-373.3333333333333,299.65L-360,297.52500000000003L-346.6666666666667,300L-333.33333333333337,299.725L-320,299.05L-306.6666666666667,296.975L-293.3333333333333,298.725L-280,293.775L-266.66666666666663,295.7L-253.33333333333331,294.3L-240,286.875L-226.66666666666666,290.55L-213.33333333333334,291.925L-200,292.325L-186.66666666666666,289.22499999999997L-173.33333333333334,289.2L-160,287.825L-146.66666666666666,291.2L-133.33333333333331,291.925L-120,271.55L-106.66666666666667,272.025L-93.33333333333333,269.8L-80,274.7L-66.66666666666666,267.4L-53.333333333333336,280.75L-40,274.225L-26.666666666666668,253.17499999999998L-13.333333333333334,246.60000000000002L0,251.95L13.333333333333334,261.34999999999997L26.666666666666668,272.775L40,263.375L53.333333333333336,269.05L66.66666666666666,254.2L80,223.54999999999998L93.33333333333333,247.375L106.66666666666667,218.57500000000002L120,225.6L133.33333333333331,250.1L146.66666666666666,247.77499999999998L160,241.6L173.33333333333334,233.04999999999998L186.66666666666666,193.02500000000003L200,199.82500000000002L213.33333333333334,167.975L226.66666666666666,205.6L240,191.34999999999997L253.33333333333331,155.27499999999998L266.66666666666663,138.75L280,112.45L293.3333333333333,174.625L306.6666666666667,177.54999999999998L320,181.85000000000002L333.33333333333337,130.14999999999998L346.6666666666667,129.125L360,21.10000000000001L373.3333333333333,70.95000000000002L386.6666666666667,21.975000000000012L400,70.82499999999999" style="fill: none; stroke: #4c78a8; stroke-width: 2; opacity: 0.2;"></path></g></g><path class="foreground" d="" style="display: none; fill: none;"></path></g></g><g class="mark-group role-title"><g transform="translate(200,-22)"><path class="background" d="M0,0h0v0h0Z" style="pointer-events: none; fill: none;"></path><g><g class="mark-text role-title-text" style="pointer-events: none;"><text text-anchor="middle" transform="translate(0,10)" style="font-family: Roboto Condensed; font-size: 13px; font-weight: normal; fill: #000; opacity: 1;">7-day average (Daily values in light color)</text></g></g><path class="foreground" d="" style="pointer-events: none; display: none; fill: none;"></path></g></g></g><path class="foreground" d="" style="display: none; fill: none;"></path></g></g><g class="mark-group role-scope concat_1_group"><g transform="translate(455,0)"><path class="background" d="M0,0h400v300h-400Z" style="fill: none; stroke: #ddd; stroke-width: 0;"></path><g><g class="mark-group role-axis"><g transform="translate(0.5,0.5)"><path class="background" d="M0,0h0v0h0Z" style="pointer-events: none; fill: none;"></path><g><g class="mark-rule role-axis-grid" style="pointer-events: none;"><line transform="translate(0,300)" x2="400" y2="0" style="fill: none; stroke: #ddd; stroke-width: 1; opacity: 1;"></line><line transform="translate(0,263)" x2="400" y2="0" style="fill: none; stroke: #ddd; stroke-width: 1; opacity: 1;"></line><line transform="translate(0,225)" x2="400" y2="0" style="fill: none; stroke: #ddd; stroke-width: 1; opacity: 1;"></line><line transform="translate(0,188)" x2="400" y2="0" style="fill: none; stroke: #ddd; stroke-width: 1; opacity: 1;"></line><line transform="translate(0,150)" x2="400" y2="0" style="fill: none; stroke: #ddd; stroke-width: 1; opacity: 1;"></line><line transform="translate(0,113)" x2="400" y2="0" style="fill: none; stroke: #ddd; stroke-width: 1; opacity: 1;"></line><line transform="translate(0,75)" x2="400" y2="0" style="fill: none; stroke: #ddd; stroke-width: 1; opacity: 1;"></line><line transform="translate(0,38)" x2="400" y2="0" style="fill: none; stroke: #ddd; stroke-width: 1; opacity: 1;"></line><line transform="translate(0,0)" x2="400" y2="0" style="fill: none; stroke: #ddd; stroke-width: 1; opacity: 1;"></line></g></g><path class="foreground" d="" style="pointer-events: none; display: none; fill: none;"></path></g></g><g class="mark-group role-axis"><g transform="translate(0.5,300.5)"><path class="background" d="M0,0h0v0h0Z" style="pointer-events: none; fill: none;"></path><g><g class="mark-text role-axis-label" style="pointer-events: none;"><text text-anchor="start" transform="translate(0,10)" style="font-family: Roboto Condensed; font-size: 10px; fill: #000; opacity: 1;">Apr 09</text><text text-anchor="middle" transform="translate(26.666666666666668,10)" style="font-family: Roboto Condensed; font-size: 10px; fill: #000; opacity: 0;">Apr 11</text><text text-anchor="middle" transform="translate(53.333333333333336,10)" style="font-family: Roboto Condensed; font-size: 10px; fill: #000; opacity: 1;">Apr 13</text><text text-anchor="middle" transform="translate(80,10)" style="font-family: Roboto Condensed; font-size: 10px; fill: #000; opacity: 0;">Apr 15</text><text text-anchor="middle" transform="translate(106.66666666666667,10)" style="font-family: Roboto Condensed; font-size: 10px; fill: #000; opacity: 1;">Apr 17</text><text text-anchor="middle" transform="translate(133.33333333333331,10)" style="font-family: Roboto Condensed; font-size: 10px; fill: #000; opacity: 0;">Apr 19</text><text text-anchor="middle" transform="translate(160,10)" style="font-family: Roboto Condensed; font-size: 10px; fill: #000; opacity: 1;">Apr 21</text><text text-anchor="middle" transform="translate(186.66666666666666,10)" style="font-family: Roboto Condensed; font-size: 10px; fill: #000; opacity: 0;">Apr 23</text><text text-anchor="middle" transform="translate(213.33333333333334,10)" style="font-family: Roboto Condensed; font-size: 10px; fill: #000; opacity: 1;">Apr 25</text><text text-anchor="middle" transform="translate(240,10)" style="font-family: Roboto Condensed; font-size: 10px; fill: #000; opacity: 0;">Apr 27</text><text text-anchor="middle" transform="translate(266.66666666666663,10)" style="font-family: Roboto Condensed; font-size: 10px; fill: #000; opacity: 1;">Apr 29</text><text text-anchor="middle" transform="translate(293.3333333333333,10)" style="font-family: Roboto Condensed; font-size: 10px; fill: #000; opacity: 0;">May 01</text><text text-anchor="middle" transform="translate(320,10)" style="font-family: Roboto Condensed; font-size: 10px; fill: #000; opacity: 1;">May 03</text><text text-anchor="middle" transform="translate(346.6666666666667,10)" style="font-family: Roboto Condensed; font-size: 10px; fill: #000; opacity: 0;">May 05</text><text text-anchor="middle" transform="translate(373.3333333333333,10)" style="font-family: Roboto Condensed; font-size: 10px; fill: #000; opacity: 1;">May 07</text><text text-anchor="end" transform="translate(400,10)" style="font-family: Roboto Condensed; font-size: 10px; fill: #000; opacity: 0;">May 09</text></g><g class="mark-rule role-axis-domain" style="pointer-events: none;"><line transform="translate(0,0)" x2="400" y2="0" style="fill: none; stroke: lightgray; stroke-width: 1; opacity: 1;"></line></g></g><path class="foreground" d="" style="pointer-events: none; display: none; fill: none;"></path></g></g><g class="mark-group role-axis"><g transform="translate(0.5,0.5)"><path class="background" d="M0,0h0v0h0Z" style="pointer-events: none; fill: none;"></path><g><g class="mark-text role-axis-label" style="pointer-events: none;"><text text-anchor="end" transform="translate(-2,303)" style="font-family: Roboto Condensed; font-size: 10px; fill: #000; opacity: 1;">0</text><text text-anchor="end" transform="translate(-2,265.5)" style="font-family: Roboto Condensed; font-size: 10px; fill: #000; opacity: 1;">20,000</text><text text-anchor="end" transform="translate(-2,228)" style="font-family: Roboto Condensed; font-size: 10px; fill: #000; opacity: 1;">40,000</text><text text-anchor="end" transform="translate(-2,190.5)" style="font-family: Roboto Condensed; font-size: 10px; fill: #000; opacity: 1;">60,000</text><text text-anchor="end" transform="translate(-2,153)" style="font-family: Roboto Condensed; font-size: 10px; fill: #000; opacity: 1;">80,000</text><text text-anchor="end" transform="translate(-2,115.5)" style="font-family: Roboto Condensed; font-size: 10px; fill: #000; opacity: 1;">100,000</text><text text-anchor="end" transform="translate(-2,78)" style="font-family: Roboto Condensed; font-size: 10px; fill: #000; opacity: 1;">120,000</text><text text-anchor="end" transform="translate(-2,40.5)" style="font-family: Roboto Condensed; font-size: 10px; fill: #000; opacity: 1;">140,000</text><text text-anchor="end" transform="translate(-2,3)" style="font-family: Roboto Condensed; font-size: 10px; fill: #000; opacity: 1;">160,000</text></g><g class="mark-rule role-axis-domain" style="pointer-events: none;"><line transform="translate(0,300)" x2="0" y2="-300" style="fill: none; stroke: lightgray; stroke-width: 1; opacity: 1;"></line></g></g><path class="foreground" d="" style="pointer-events: none; display: none; fill: none;"></path></g></g><g class="mark-group role-scope concat_1_pathgroup"><g transform="translate(0,0)"><path class="background" d="M0,0h400v300h-400Z" style="fill: none;"></path><g><g class="mark-line role-mark concat_1_marks" clip-path="url(#clip7)"><path d="M-1026.6666666666667,300L-573.3333333333334,300L-560,300L-546.6666666666666,300L-533.3333333333333,300L-520,300L-506.66666666666663,300L-493.33333333333337,300L-480,300L-466.6666666666667,300L-453.3333333333333,300L-440.00000000000006,300L-426.6666666666667,300L-413.33333333333337,300L-400,300L-386.6666666666667,300L-373.3333333333333,300L-360,300L-346.6666666666667,300L-333.33333333333337,300L-320,299.998125L-306.6666666666667,299.99625000000003L-293.3333333333333,299.99625000000003L-280,299.99625000000003L-266.66666666666663,299.99625000000003L-253.33333333333331,299.99625000000003L-240,299.99625000000003L-226.66666666666666,299.99625000000003L-213.33333333333334,299.99625000000003L-200,299.99625000000003L-186.66666666666666,299.98875L-173.33333333333334,299.98875L-160,299.98875L-146.66666666666666,299.98875L-133.33333333333331,299.775L-120,299.761875L-106.66666666666667,299.761875L-93.33333333333333,299.761875L-80,299.761875L-66.66666666666666,299.761875L-53.333333333333336,299.761875L-40,299.761875L-26.666666666666668,299.761875L-13.333333333333334,299.761875L0,299.67562499999997L13.333333333333334,299.67562499999997L26.666666666666668,299.67562499999997L40,299.67562499999997L53.333333333333336,299.67562499999997L66.66666666666666,294.28875L80,273.70125L93.33333333333333,273.70125L106.66666666666667,273.70125L120,273.70125L133.33333333333331,258.50624999999997L146.66666666666666,258.50624999999997L160,256.891875L173.33333333333334,252.52875L186.66666666666666,250.17562500000003L200,248.14687500000002L213.33333333333334,245.325L226.66666666666666,243.465L240,241.60875L253.33333333333331,238.98L266.66666666666663,236.0025L280,232.621875L293.3333333333333,228.676875L306.6666666666667,223.243125L320,219.39187500000003L333.33333333333337,214.096875L346.6666666666667,209.58562500000002L360,203.68124999999998L373.3333333333333,196.21875L386.6666666666667,188.81812499999998L400,184.340625" style="fill: none; stroke: #e45756; stroke-width: 2; opacity: 0.7;"></path></g></g><path class="foreground" d="" style="display: none; fill: none;"></path></g><g transform="translate(0,0)"><path class="background" d="M0,0h400v300h-400Z" style="fill: none;"></path><g><g class="mark-line role-mark concat_1_marks" clip-path="url(#clip8)"><path d="M-1026.6666666666667,300L-573.3333333333334,300L-560,300L-546.6666666666666,300L-533.3333333333333,300L-520,300L-506.66666666666663,300L-493.33333333333337,300L-480,300L-466.6666666666667,300L-453.3333333333333,300L-440.00000000000006,300L-426.6666666666667,300L-413.33333333333337,300L-400,300L-386.6666666666667,300L-373.3333333333333,300L-360,300L-346.6666666666667,300L-333.33333333333337,300L-320,300L-306.6666666666667,299.998125L-293.3333333333333,299.994375L-280,299.98875L-266.66666666666663,299.979375L-253.33333333333331,299.971875L-240,299.953125L-226.66666666666666,299.93625000000003L-213.33333333333334,299.91375L-200,299.889375L-186.66666666666666,299.85562500000003L-173.33333333333334,299.8275L-160,299.791875L-146.66666666666666,299.745L-133.33333333333331,299.701875L-120,299.623125L-106.66666666666667,299.55L-93.33333333333333,299.3925L-80,299.32687500000003L-66.66666666666666,299.16562500000003L-53.333333333333336,299.08875L-40,298.9425L-26.666666666666668,298.71375L-13.333333333333334,298.464375L0,298.21875L13.333333333333334,298.018125L26.666666666666668,297.89250000000004L40,297.706875L53.333333333333336,297.51L66.66666666666666,297.1275L80,296.745L93.33333333333333,296.39250000000004L106.66666666666667,295.98562499999997L120,295.58625L133.33333333333331,295.38375L146.66666666666666,295.149375L160,294.86062499999997L173.33333333333334,294.55125L186.66666666666666,293.754375L200,293.055L213.33333333333334,292.393125L226.66666666666666,291.96375L240,291.369375L253.33333333333331,290.469375L266.66666666666663,289.66312500000004L280,288.73875L293.3333333333333,287.9775L306.6666666666667,287.323125L320,286.779375L333.33333333333337,286.186875L346.6666666666667,285.11625000000004L360,283.8975L373.3333333333333,282.76875L386.6666666666667,281.218125L400,280.02" style="fill: none; stroke: #f58518; stroke-width: 2; opacity: 0.7;"></path></g></g><path class="foreground" d="" style="display: none; fill: none;"></path></g><g transform="translate(0,0)"><path class="background" d="M0,0h400v300h-400Z" style="fill: none;"></path><g><g class="mark-line role-mark concat_1_marks" clip-path="url(#clip9)"><path d="M-1026.6666666666667,300L-573.3333333333334,299.998125L-560,299.998125L-546.6666666666666,299.998125L-533.3333333333333,299.99625000000003L-520,299.99625000000003L-506.66666666666663,299.99625000000003L-493.33333333333337,299.99625000000003L-480,299.9925L-466.6666666666667,299.9925L-453.3333333333333,299.975625L-440.00000000000006,299.975625L-426.6666666666667,299.9625L-413.33333333333337,299.953125L-400,299.941875L-386.6666666666667,299.92875L-373.3333333333333,299.9025L-360,299.716875L-346.6666666666667,299.716875L-333.33333333333337,299.69625L-320,299.625L-306.6666666666667,299.398125L-293.3333333333333,299.3025L-280,298.835625L-266.66666666666663,298.513125L-253.33333333333331,298.085625L-240,297.10125L-226.66666666666666,296.39250000000004L-213.33333333333334,295.786875L-200,295.21125L-186.66666666666666,294.403125L-173.33333333333334,293.593125L-160,292.68L-146.66666666666666,292.02000000000004L-133.33333333333331,291.414375L-120,289.280625L-106.66666666666667,287.1825L-93.33333333333333,284.9175L-80,283.02L-66.66666666666666,280.575L-53.333333333333336,279.13125L-40,277.198125L-26.666666666666668,273.68625000000003L-13.333333333333334,269.68125L0,266.0775L13.333333333333334,263.17875000000004L26.666666666666668,261.136875L40,258.39L53.333333333333336,256.06875L66.66666666666666,252.63375000000002L80,246.89999999999998L93.33333333333333,242.953125L106.66666666666667,236.84625L120,231.26624999999999L133.33333333333331,227.52374999999998L146.66666666666666,223.60687499999997L160,219.226875L173.33333333333334,214.20562499999997L186.66666666666666,206.18250000000003L200,198.669375L213.33333333333334,188.76749999999998L226.66666666666666,181.68750000000003L240,173.53875L253.33333333333331,162.68437500000002L266.66666666666663,150.59062500000002L280,136.524375L293.3333333333333,127.12125L306.6666666666667,117.93749999999999L320,109.07624999999999L333.33333333333337,96.33749999999999L346.6666666666667,83.521875L360,62.60437500000001L373.3333333333333,45.42562500000001L386.6666666666667,24.573750000000018L400,7.385625000000006" style="fill: none; stroke: #4c78a8; stroke-width: 2; opacity: 0.7;"></path></g></g><path class="foreground" d="" style="display: none; fill: none;"></path></g></g><g class="mark-group role-title"><g transform="translate(200,-22)"><path class="background" d="M0,0h0v0h0Z" style="pointer-events: none; fill: none;"></path><g><g class="mark-text role-title-text" style="pointer-events: none;"><text text-anchor="middle" transform="translate(0,10)" style="font-family: Roboto Condensed; font-size: 13px; font-weight: normal; fill: #000; opacity: 1;">Total</text></g></g><path class="foreground" d="" style="pointer-events: none; display: none; fill: none;"></path></g></g></g><path class="foreground" d="" style="display: none; fill: none;"></path></g></g><g class="mark-group role-legend"><g transform="translate(873,0)"><path class="background" d="M0,0h60v37h-60Z" style="pointer-events: none; fill: none;"></path><g><g class="mark-group role-legend-entry"><g transform="translate(0,0)"><path class="background" d="M0,0h0v0h0Z" style="pointer-events: none; fill: none;"></path><g><g class="mark-group role-scope"><g transform="translate(0,0)"><path class="background" d="M0,0h59.3251953125v11h-59.3251953125Z" style="pointer-events: none; fill: none; opacity: 1;"></path><g><g class="mark-symbol role-legend-symbol" style="pointer-events: none;"><path transform="translate(6,6)" d="M-5,0L5,0" style="fill: none; stroke: #4c78a8; stroke-width: 1.5; opacity: 1;"></path></g><g class="mark-text role-legend-label" style="pointer-events: none;"><text text-anchor="start" transform="translate(16,9)" style="font-family: Roboto Condensed; font-size: 10px; fill: #000; opacity: 1;">Confirmed</text></g></g><path class="foreground" d="" style="pointer-events: none; display: none; fill: none;"></path></g><g transform="translate(0,13)"><path class="background" d="M0,0h59.3251953125v11h-59.3251953125Z" style="pointer-events: none; fill: none; opacity: 1;"></path><g><g class="mark-symbol role-legend-symbol" style="pointer-events: none;"><path transform="translate(6,6)" d="M-5,0L5,0" style="fill: none; stroke: #f58518; stroke-width: 1.5; opacity: 1;"></path></g><g class="mark-text role-legend-label" style="pointer-events: none;"><text text-anchor="start" transform="translate(16,9)" style="font-family: Roboto Condensed; font-size: 10px; fill: #000; opacity: 1;">Deaths</text></g></g><path class="foreground" d="" style="pointer-events: none; display: none; fill: none;"></path></g><g transform="translate(0,26)"><path class="background" d="M0,0h59.3251953125v11h-59.3251953125Z" style="pointer-events: none; fill: none; opacity: 1;"></path><g><g class="mark-symbol role-legend-symbol" style="pointer-events: none;"><path transform="translate(6,6)" d="M-5,0L5,0" style="fill: none; stroke: #e45756; stroke-width: 1.5; opacity: 1;"></path></g><g class="mark-text role-legend-label" style="pointer-events: none;"><text text-anchor="start" transform="translate(16,9)" style="font-family: Roboto Condensed; font-size: 10px; fill: #000; opacity: 1;">Recovered</text></g></g><path class="foreground" d="" style="pointer-events: none; display: none; fill: none;"></path></g></g></g><path class="foreground" d="" style="pointer-events: none; display: none; fill: none;"></path></g></g></g><path class="foreground" d="" style="pointer-events: none; display: none; fill: none;"></path></g></g></g><path class="foreground" d="" style="display: none; fill: none;"></path></g></g></g></svg>