<svg class="marks" width="974" height="311" viewBox="0 0 974 311" version="1.1" xmlns="http://www.w3.org/2000/svg" xmlns:xlink="http://www.w3.org/1999/xlink"><rect width="974" height="311" style="fill: white;"></rect><defs><clipPath id="clip1"><rect x="0" y="0" width="266.6666666666667" height="266.6666666666667"></rect></clipPath><clipPath id="clip2"><rect x="0" y="0" width="266.6666666666667" height="266.6666666666667"></rect></clipPath><clipPath id="clip3"><rect x="0" y="0" width="266.6666666666667" height="266.6666666666667"></rect></clipPath><clipPath id="clip4"><rect x="0" y="0" width="266.6666666666667" height="266.6666666666667"></rect></clipPath><clipPath id="clip5"><rect x="0" y="0" width="266.6666666666667" height="266.6666666666667"></rect></clipPath><clipPath id="clip6"><rect x="0" y="0" width="266.6666666666667" height="266.6666666666667"></rect></clipPath><clipPath id="clip7"><rect x="0" y="0" width="266.6666666666667" height="266.6666666666667"></rect></clipPath><clipPath id="clip8"><rect x="0" y="0" width="266.6666666666667" height="266.6666666666667"></rect></clipPath><clipPath id="clip9"><rect x="0" y="0" width="266.6666666666667" height="266.6666666666667"></rect></clipPath><clipPath id="clip10"><rect x="0" y="0" width="266.6666666666667" height="266.6666666666667"></rect></clipPath><clipPath id="clip11"><rect x="0" y="0" width="266.6666666666667" height="266.6666666666667"></rect></clipPath><clipPath id="clip12"><rect x="0" y="0" width="266.6666666666667" height="266.6666666666667"></rect></clipPath><clipPath id="clip13"><rect x="0" y="0" width="266.6666666666667" height="266.6666666666667"></rect></clipPath><clipPath id="clip14"><rect x="0" y="0" width="266.6666666666667" height="266.6666666666667"></rect></clipPath><clipPath id="clip15"><rect x="0" y="0" width="266.6666666666667" height="266.6666666666667"></rect></clipPath></defs><g transform="translate(22,27)"><g class="mark-group role-frame root"><g transform="translate(0,0)"><path class="background" d="M0,0h0v0h0Z" style="fill: none;"></path><g><g class="mark-group role-scope concat_0_group"><g transform="translate(0,0)"><path class="background" d="M0,0h0v0h0Z" style="fill: none;"></path><g><g class="mark-group role-scope concat_0_concat_0_group"><g transform="translate(0,0)"><path class="background" d="M0,0h266.6666666666667v266.6666666666667h-266.6666666666667Z" style="fill: none; stroke: #ddd; stroke-width: 0;"></path><g><g class="mark-group role-axis"><g transform="translate(0.5,0.5)"><path class="background" d="M0,0h0v0h0Z" style="pointer-events: none; fill: none;"></path><g><g class="mark-rule role-axis-grid" style="pointer-events: none;"><line transform="translate(0,267)" x2="266.6666666666667" y2="0" style="fill: none; stroke: #ddd; stroke-width: 1; opacity: 1;"></line><line transform="translate(0,226)" x2="266.6666666666667" y2="0" style="fill: none; stroke: #ddd; stroke-width: 1; opacity: 1;"></line><line transform="translate(0,185)" x2="266.6666666666667" y2="0" style="fill: none; stroke: #ddd; stroke-width: 1; opacity: 1;"></line><line transform="translate(0,144)" x2="266.6666666666667" y2="0" style="fill: none; stroke: #ddd; stroke-width: 1; opacity: 1;"></line><line transform="translate(0,103)" x2="266.6666666666667" y2="0" style="fill: none; stroke: #ddd; stroke-width: 1; opacity: 1;"></line><line transform="translate(0,62)" x2="266.6666666666667" y2="0" style="fill: none; stroke: #ddd; stroke-width: 1; opacity: 1;"></line><line transform="translate(0,21)" x2="266.6666666666667" y2="0" style="fill: none; stroke: #ddd; stroke-width: 1; opacity: 1;"></line></g></g><path class="foreground" d="" style="pointer-events: none; display: none; fill: none;"></path></g></g><g class="mark-group role-axis"><g transform="translate(0.5,267.1666666666667)"><path class="background" d="M0,0h0v0h0Z" style="pointer-events: none; fill: none;"></path><g><g class="mark-text role-axis-label" style="pointer-events: none;"><text text-anchor="middle" transform="translate(26.66666666666667,10)" style="font-family: Roboto Condensed; font-size: 10px; fill: #000; opacity: 1;">Apr 12</text><text text-anchor="middle" transform="translate(88.88888888888889,10)" style="font-family: Roboto Condensed; font-size: 10px; fill: #000; opacity: 1;">Apr 19</text><text text-anchor="middle" transform="translate(151.11111111111111,10)" style="font-family: Roboto Condensed; font-size: 10px; fill: #000; opacity: 1;">Apr 26</text><text text-anchor="middle" transform="translate(213.33333333333337,10)" style="font-family: Roboto Condensed; font-size: 10px; fill: #000; opacity: 1;">May 03</text></g><g class="mark-rule role-axis-domain" style="pointer-events: none;"><line transform="translate(0,0)" x2="266.6666666666667" y2="0" style="fill: none; stroke: lightgray; stroke-width: 1; opacity: 1;"></line></g></g><path class="foreground" d="" style="pointer-events: none; display: none; fill: none;"></path></g></g><g class="mark-group role-axis"><g transform="translate(0.5,0.5)"><path class="background" d="M0,0h0v0h0Z" style="pointer-events: none; fill: none;"></path><g><g class="mark-text role-axis-label" style="pointer-events: none;"><text text-anchor="end" transform="translate(-2,269.6666666666667)" style="font-family: Roboto Condensed; font-size: 10px; fill: #000; opacity: 1;">0</text><text text-anchor="end" transform="translate(-2,228.64102564102566)" style="font-family: Roboto Condensed; font-size: 10px; fill: #000; opacity: 1;">100</text><text text-anchor="end" transform="translate(-2,187.6153846153846)" style="font-family: Roboto Condensed; font-size: 10px; fill: #000; opacity: 1;">200</text><text text-anchor="end" transform="translate(-2,146.5897435897436)" style="font-family: Roboto Condensed; font-size: 10px; fill: #000; opacity: 1;">300</text><text text-anchor="end" transform="translate(-2,105.56410256410257)" style="font-family: Roboto Condensed; font-size: 10px; fill: #000; opacity: 1;">400</text><text text-anchor="end" transform="translate(-2,64.53846153846153)" style="font-family: Roboto Condensed; font-size: 10px; fill: #000; opacity: 1;">500</text><text text-anchor="end" transform="translate(-2,23.5128205128205)" style="font-family: Roboto Condensed; font-size: 10px; fill: #000; opacity: 1;">600</text></g><g class="mark-rule role-axis-domain" style="pointer-events: none;"><line transform="translate(0,266.6666666666667)" x2="0" y2="-266.6666666666667" style="fill: none; stroke: lightgray; stroke-width: 1; opacity: 1;"></line></g></g><path class="foreground" d="" style="pointer-events: none; display: none; fill: none;"></path></g></g><g class="mark-group role-scope concat_0_concat_0_pathgroup"><g transform="translate(0,0)"><path class="background" d="M0,0h266.6666666666667v266.6666666666667h-266.6666666666667Z" style="fill: none;"></path><g><g class="mark-line role-mark concat_0_concat_0_marks" clip-path="url(#clip1)"><path d="M-346.6666666666667,266.6666666666667L-337.77777777777777,266.6666666666667L-328.8888888888889,266.6666666666667L-320,266.6666666666667L-311.11111111111114,266.6666666666667L-302.22222222222223,266.6666666666667L-293.33333333333337,265.4945054945055L-284.44444444444446,264.8498168498169L-275.5555555555556,261.62637362637366L-266.6666666666667,251.66300366300368L-257.77777777777777,241.23076923076925L-248.8888888888889,231.09157509157512L-240.00000000000003,220.8937728937729L-231.11111111111114,219.01831501831504L-222.22222222222226,217.43589743589746L-213.33333333333337,217.31868131868134L-204.44444444444449,222.00732600732601L-195.55555555555554,227.34065934065936L-186.66666666666666,231.03296703296704L-177.77777777777777,235.42857142857144L-168.88888888888889,232.43956043956047L-160,229.2161172161172L-151.11111111111111,229.1575091575092L-142.22222222222223,225.99267399267399L-133.33333333333334,222.8864468864469L-124.44444444444446,219.8974358974359L-115.55555555555557,216.0879120879121L-106.66666666666669,211.22344322344324L-97.77777777777777,205.12820512820514L-88.88888888888889,197.33333333333334L-80,189.24542124542128L-71.11111111111111,182.97435897435898L-62.22222222222223,175.82417582417585L-53.33333333333334,164.33699633699632L-44.44444444444444,155.13553113553118L-35.55555555555556,149.62637362637366L-26.66666666666667,142.41758241758245L-17.77777777777778,136.14652014652015L-8.88888888888889,131.45787545787547L0,134.3882783882784L8.88888888888889,145.4652014652015L17.77777777777778,154.02197802197804L26.66666666666667,160.70329670329673L35.55555555555556,170.66666666666669L44.44444444444444,182.27106227106228L53.33333333333334,191.7069597069597L62.22222222222223,193.75824175824175L71.11111111111111,193.17216117216117L80,193.64102564102566L88.88888888888889,195.6923076923077L97.77777777777777,196.45421245421247L106.66666666666669,197.21611721611723L115.55555555555557,194.46153846153848L124.44444444444446,196.51282051282053L133.33333333333334,199.85347985347985L142.22222222222223,195.985347985348L151.11111111111111,196.74725274725276L160,197.21611721611723L168.88888888888889,198.7985347985348L177.77777777777777,202.3150183150183L186.66666666666666,203.0769230769231L195.55555555555554,202.13919413919416L204.44444444444449,210.2857142857143L213.33333333333337,211.10622710622712L222.22222222222226,209.69963369963372L231.11111111111114,209.81684981684984L240.00000000000003,212.1611721611722L248.8888888888889,212.4542124542125L257.77777777777777,213.50915750915752L266.6666666666667,213.21611721611723" style="fill: none; stroke: #4c78a8; stroke-width: 2; opacity: 1;"></path></g></g><path class="foreground" d="" style="display: none; fill: none;"></path></g><g transform="translate(0,0)"><path class="background" d="M0,0h266.6666666666667v266.6666666666667h-266.6666666666667Z" style="fill: none;"></path><g><g class="mark-line role-mark concat_0_concat_0_marks" clip-path="url(#clip2)"><path d="M-346.6666666666667,266.6666666666667L-337.77777777777777,266.6666666666667L-328.8888888888889,266.6666666666667L-320,266.6666666666667L-311.11111111111114,266.6666666666667L-302.22222222222223,266.6666666666667L-293.33333333333337,265.96336996337L-284.44444444444446,265.6703296703297L-275.5555555555556,265.2600732600733L-266.6666666666667,264.6739926739927L-257.77777777777777,263.5604395604396L-248.8888888888889,263.91208791208794L-240.00000000000003,258.46153846153845L-231.11111111111114,254.35897435897436L-222.22222222222226,253.71428571428572L-213.33333333333337,252.1904761904762L-204.44444444444449,250.19780219780222L-195.55555555555554,250.43223443223445L-186.66666666666666,246.6813186813187L-177.77777777777777,249.3772893772894L-168.88888888888889,249.2014652014652L-160,244.2783882783883L-151.11111111111111,241.87545787545787L-142.22222222222223,239.06227106227107L-133.33333333333334,234.78388278388283L-124.44444444444446,233.96336996336996L-115.55555555555557,232.02930402930403L-106.66666666666669,228.92307692307696L-97.77777777777777,230.68131868131871L-88.88888888888889,228.45421245421247L-80,229.97802197802199L-71.11111111111111,233.49450549450552L-62.22222222222223,233.84615384615387L-53.33333333333334,233.02564102564105L-44.44444444444444,224.7619047619048L-35.55555555555556,226.40293040293042L-26.66666666666667,218.3736263736264L-17.77777777777778,214.50549450549454L-8.88888888888889,205.65567765567766L0,202.95970695970698L8.88888888888889,199.03296703296704L17.77777777777778,206.71062271062272L26.66666666666667,205.3040293040293L35.55555555555556,214.62271062271063L44.44444444444444,216.67399267399267L53.33333333333334,222.71062271062274L62.22222222222223,221.8901098901099L71.11111111111111,224.4688644688645L80,221.1868131868132L88.88888888888889,219.25274725274727L97.77777777777777,219.54578754578756L106.66666666666669,216.67399267399267L115.55555555555557,214.3882783882784L124.44444444444446,213.04029304029308L133.33333333333334,213.56776556776558L142.22222222222223,220.13186813186815L151.11111111111111,220.1904761904762L160,218.19780219780222L168.88888888888889,224.11721611721615L177.77777777777777,221.12820512820514L186.66666666666666,224.99633699633702L195.55555555555554,228.21978021978023L204.44444444444449,225.5824175824176L213.33333333333337,226.93040293040295L222.22222222222226,229.62637362637363L231.11111111111114,227.2820512820513L240.00000000000003,227.5750915750916L248.8888888888889,226.93040293040295L257.77777777777777,226.40293040293042L266.6666666666667,225.4065934065934" style="fill: none; stroke: #f58518; stroke-width: 2; opacity: 1;"></path></g></g><path class="foreground" d="" style="display: none; fill: none;"></path></g><g transform="translate(0,0)"><path class="background" d="M0,0h266.6666666666667v266.6666666666667h-266.6666666666667Z" style="fill: none;"></path><g><g class="mark-line role-mark concat_0_concat_0_marks" clip-path="url(#clip3)"><path d="M-346.6666666666667,266.6666666666667L-337.77777777777777,266.6666666666667L-328.8888888888889,266.6666666666667L-320,266.6666666666667L-311.11111111111114,266.6666666666667L-302.22222222222223,266.6666666666667L-293.33333333333337,263.7948717948718L-284.44444444444446,263.91208791208794L-275.5555555555556,263.61904761904765L-266.6666666666667,263.2673992673993L-257.77777777777777,263.20879120879124L-248.8888888888889,262.62271062271066L-240.00000000000003,261.33333333333337L-231.11111111111114,260.4542124542125L-222.22222222222226,259.5750915750916L-213.33333333333337,259.51648351648356L-204.44444444444449,257.81684981684987L-195.55555555555554,256.996336996337L-186.66666666666666,253.36263736263737L-177.77777777777777,250.54945054945057L-168.88888888888889,248.0879120879121L-160,243.39926739926742L-151.11111111111111,242.75457875457877L-142.22222222222223,241.58241758241758L-133.33333333333334,238.12454212454213L-124.44444444444446,239.003663003663L-115.55555555555557,238.4761904761905L-106.66666666666669,237.94871794871796L-97.77777777777777,240.17582417582418L-88.88888888888889,237.4798534798535L-80,238.12454212454213L-71.11111111111111,238.35897435897436L-62.22222222222223,236.36630036630038L-53.33333333333334,238.88644688644692L-44.44444444444444,240.0586080586081L-35.55555555555556,239.3553113553114L-26.66666666666667,238.7692307692308L-17.77777777777778,240.23443223443226L-8.88888888888889,243.45787545787547L0,247.38461538461542L8.88888888888889,248.43956043956047L17.77777777777778,250.72527472527474L26.66666666666667,254.06593406593407L35.55555555555556,257.9340659340659L44.44444444444444,258.8131868131868L53.33333333333334,260.1611721611722L62.22222222222223,261.33333333333337L71.11111111111111,262.0366300366301L80,262.50549450549454L88.88888888888889,262.5641025641026L97.77777777777777,263.03296703296706L106.66666666666669,263.2673992673993L115.55555555555557,263.2673992673993L124.44444444444446,263.73626373626377L133.33333333333334,264.61538461538464L142.22222222222223,264.90842490842493L151.11111111111111,265.43589743589746L160,265.5531135531136L168.88888888888889,265.6703296703297L177.77777777777777,265.96336996337L186.66666666666666,266.1978021978022L195.55555555555554,266.13919413919416L204.44444444444449,266.1978021978022L213.33333333333337,266.2564102564103L222.22222222222226,266.2564102564103L231.11111111111114,266.43223443223445L240.00000000000003,266.54945054945057L248.8888888888889,266.43223443223445L257.77777777777777,266.4908424908425L266.6666666666667,266.4908424908425" style="fill: none; stroke: #e45756; stroke-width: 2; opacity: 1;"></path></g></g><path class="foreground" d="" style="display: none; fill: none;"></path></g><g transform="translate(0,0)"><path class="background" d="M0,0h266.6666666666667v266.6666666666667h-266.6666666666667Z" style="fill: none;"></path><g><g class="mark-line role-mark concat_0_concat_0_marks" clip-path="url(#clip4)"><path d="M-346.6666666666667,266.6666666666667L-337.77777777777777,266.6666666666667L-328.8888888888889,266.6666666666667L-320,266.6666666666667L-311.11111111111114,266.6666666666667L-302.22222222222223,266.6666666666667L-293.33333333333337,258.930402930403L-284.44444444444446,257.46520146520146L-275.5555555555556,256.1172161172161L-266.6666666666667,245.0989010989011L-257.77777777777777,234.90109890109892L-248.8888888888889,230.62271062271066L-240.00000000000003,214.62271062271063L-231.11111111111114,211.39926739926742L-222.22222222222226,205.42124542124546L-213.33333333333337,200.55677655677655L-204.44444444444449,204.36630036630038L-195.55555555555554,210.8717948717949L-186.66666666666666,205.4798534798535L-177.77777777777777,212.86446886446888L-168.88888888888889,206.41758241758242L-160,205.5970695970696L-151.11111111111111,191.1794871794872L-142.22222222222223,184.6153846153846L-133.33333333333334,176.76190476190476L-124.44444444444446,171.54578754578756L-115.55555555555557,158.76923076923077L-106.66666666666669,155.4871794871795L-97.77777777777777,148.2197802197802L-88.88888888888889,159.76556776556777L-80,162.46153846153848L-71.11111111111111,162.4029304029304L-62.22222222222223,162.46153846153848L-53.33333333333334,172.014652014652L-44.44444444444444,176.70329670329673L-35.55555555555556,184.43956043956044L-26.66666666666667,183.44322344322345L-17.77777777777778,181.97802197802199L-8.88888888888889,194.989010989011L0,204.30769230769232L8.88888888888889,211.34065934065933L17.77777777777778,216.32234432234432L26.66666666666667,217.55311355311355L35.55555555555556,223.41391941391942L44.44444444444444,235.1941391941392L53.33333333333334,228.33699633699632L62.22222222222223,226.52014652014654L71.11111111111111,230.15384615384616L80,229.91941391941393L88.88888888888889,234.25641025641025L97.77777777777777,234.25641025641025L106.66666666666669,233.37728937728937L115.55555555555557,231.61904761904762L124.44444444444446,237.06959706959708L133.33333333333334,235.83882783882785L142.22222222222223,239.53113553113553L151.11111111111111,240.35164835164838L160,240.7032967032967L168.88888888888889,239.1794871794872L177.77777777777777,244.86446886446888L186.66666666666666,246.91575091575092L195.55555555555554,247.91208791208794L204.44444444444449,248.49816849816852L213.33333333333337,247.91208791208794L222.22222222222226,248.79120879120882L231.11111111111114,249.3772893772894L240.00000000000003,249.90476190476193L248.8888888888889,249.31868131868134L257.77777777777777,249.84615384615387L266.6666666666667,249.6703296703297" style="fill: none; stroke: #72b7b2; stroke-width: 2; opacity: 1;"></path></g></g><path class="foreground" d="" style="display: none; fill: none;"></path></g><g transform="translate(0,0)"><path class="background" d="M0,0h266.6666666666667v266.6666666666667h-266.6666666666667Z" style="fill: none;"></path><g><g class="mark-line role-mark concat_0_concat_0_marks" clip-path="url(#clip5)"><path d="M-346.6666666666667,266.6666666666667L-337.77777777777777,266.6666666666667L-328.8888888888889,266.6666666666667L-320,266.6666666666667L-311.11111111111114,266.6666666666667L-302.22222222222223,266.6666666666667L-293.33333333333337,257.9340659340659L-284.44444444444446,255.58974358974362L-275.5555555555556,253.01098901098905L-266.6666666666667,247.09157509157512L-257.77777777777777,239.41391941391944L-248.8888888888889,237.06959706959708L-240.00000000000003,224.87912087912088L-231.11111111111114,219.7802197802198L-222.22222222222226,218.66666666666669L-213.33333333333337,216.55677655677658L-204.44444444444449,217.72893772893775L-195.55555555555554,221.01098901098902L-186.66666666666666,217.43589743589746L-177.77777777777777,218.31501831501834L-168.88888888888889,219.66300366300368L-160,213.3919413919414L-151.11111111111111,211.39926739926742L-142.22222222222223,202.43223443223445L-133.33333333333334,193.5824175824176L-124.44444444444446,184.55677655677658L-115.55555555555557,182.85714285714286L-106.66666666666669,167.97069597069597L-97.77777777777777,162.98901098901098L-88.88888888888889,150.50549450549454L-80,140.71794871794873L-71.11111111111111,124.77655677655679L-62.22222222222223,106.78388278388279L-53.33333333333334,87.20879120879121L-44.44444444444444,91.0769230769231L-35.55555555555556,83.22344322344323L-26.66666666666667,80.41025641025641L-17.77777777777778,75.72161172161171L-8.88888888888889,63.179487179487175L0,57.260073260073256L8.88888888888889,58.37362637362637L17.77777777777778,49.34798534798537L26.66666666666667,52.571428571428555L35.55555555555556,47.35531135531138L44.44444444444444,46.76923076923077L53.33333333333334,61.06959706959705L62.22222222222223,67.45787545787549L71.11111111111111,59.72161172161173L80,51.51648351648352L88.88888888888889,37.97802197802198L97.77777777777777,42.25641025641025L106.66666666666669,39.44322344322344L115.55555555555557,27.721611721611726L124.44444444444446,19.633699633699653L133.33333333333334,11.663003663003657L142.22222222222223,11.428571428571448L151.11111111111111,17.28937728937729L160,23.501831501831532L168.88888888888889,14.710622710622713L177.77777777777777,14.769230769230765L186.66666666666666,12.483516483516482L195.55555555555554,34.98901098901101L204.44444444444449,37.80219780219779L213.33333333333337,51.16483516483515L222.22222222222226,44.24908424908427L231.11111111111114,55.970695970695985L240.00000000000003,54.739926739926766L248.8888888888889,59.72161172161173L257.77777777777777,47.17948717948719L266.6666666666667,41.670329670329664" style="fill: none; stroke: #54a24b; stroke-width: 2; opacity: 1;"></path></g></g><path class="foreground" d="" style="display: none; fill: none;"></path></g></g><g class="mark-group role-title"><g transform="translate(133.33333333333334,-17)"><path class="background" d="M0,0h0v0h0Z" style="pointer-events: none; fill: none;"></path><g><g class="mark-text role-title-text" style="pointer-events: none;"><text text-anchor="middle" transform="translate(0,10)" style="font-family: Roboto Condensed; font-size: 13px; font-weight: normal; fill: #000; opacity: 1;">Confirmed/7-day average</text></g></g><path class="foreground" d="" style="pointer-events: none; display: none; fill: none;"></path></g></g></g><path class="foreground" d="" style="display: none; fill: none;"></path></g></g><g class="mark-group role-scope concat_0_concat_1_group"><g transform="translate(304,0)"><path class="background" d="M0,0h266.6666666666667v266.6666666666667h-266.6666666666667Z" style="fill: none; stroke: #ddd; stroke-width: 0;"></path><g><g class="mark-group role-axis"><g transform="translate(0.5,0.5)"><path class="background" d="M0,0h0v0h0Z" style="pointer-events: none; fill: none;"></path><g><g class="mark-rule role-axis-grid" style="pointer-events: none;"><line transform="translate(0,267)" x2="266.6666666666667" y2="0" style="fill: none; stroke: #ddd; stroke-width: 1; opacity: 1;"></line><line transform="translate(0,218)" x2="266.6666666666667" y2="0" style="fill: none; stroke: #ddd; stroke-width: 1; opacity: 1;"></line><line transform="translate(0,170)" x2="266.6666666666667" y2="0" style="fill: none; stroke: #ddd; stroke-width: 1; opacity: 1;"></line><line transform="translate(0,121)" x2="266.6666666666667" y2="0" style="fill: none; stroke: #ddd; stroke-width: 1; opacity: 1;"></line><line transform="translate(0,73)" x2="266.6666666666667" y2="0" style="fill: none; stroke: #ddd; stroke-width: 1; opacity: 1;"></line><line transform="translate(0,24)" x2="266.6666666666667" y2="0" style="fill: none; stroke: #ddd; stroke-width: 1; opacity: 1;"></line></g></g><path class="foreground" d="" style="pointer-events: none; display: none; fill: none;"></path></g></g><g class="mark-group role-axis"><g transform="translate(0.5,267.1666666666667)"><path class="background" d="M0,0h0v0h0Z" style="pointer-events: none; fill: none;"></path><g><g class="mark-text role-axis-label" style="pointer-events: none;"><text text-anchor="middle" transform="translate(26.66666666666667,10)" style="font-family: Roboto Condensed; font-size: 10px; fill: #000; opacity: 1;">Apr 12</text><text text-anchor="middle" transform="translate(88.88888888888889,10)" style="font-family: Roboto Condensed; font-size: 10px; fill: #000; opacity: 1;">Apr 19</text><text text-anchor="middle" transform="translate(151.11111111111111,10)" style="font-family: Roboto Condensed; font-size: 10px; fill: #000; opacity: 1;">Apr 26</text><text text-anchor="middle" transform="translate(213.33333333333337,10)" style="font-family: Roboto Condensed; font-size: 10px; fill: #000; opacity: 1;">May 03</text></g><g class="mark-rule role-axis-domain" style="pointer-events: none;"><line transform="translate(0,0)" x2="266.6666666666667" y2="0" style="fill: none; stroke: lightgray; stroke-width: 1; opacity: 1;"></line></g></g><path class="foreground" d="" style="pointer-events: none; display: none; fill: none;"></path></g></g><g class="mark-group role-axis"><g transform="translate(0.5,0.5)"><path class="background" d="M0,0h0v0h0Z" style="pointer-events: none; fill: none;"></path><g><g class="mark-text role-axis-label" style="pointer-events: none;"><text text-anchor="end" transform="translate(-2,269.6666666666667)" style="font-family: Roboto Condensed; font-size: 10px; fill: #000; opacity: 1;">0</text><text text-anchor="end" transform="translate(-2,221.1818181818182)" style="font-family: Roboto Condensed; font-size: 10px; fill: #000; opacity: 1;">20</text><text text-anchor="end" transform="translate(-2,172.69696969696972)" style="font-family: Roboto Condensed; font-size: 10px; fill: #000; opacity: 1;">40</text><text text-anchor="end" transform="translate(-2,124.21212121212123)" style="font-family: Roboto Condensed; font-size: 10px; fill: #000; opacity: 1;">60</text><text text-anchor="end" transform="translate(-2,75.72727272727273)" style="font-family: Roboto Condensed; font-size: 10px; fill: #000; opacity: 1;">80</text><text text-anchor="end" transform="translate(-2,27.242424242424253)" style="font-family: Roboto Condensed; font-size: 10px; fill: #000; opacity: 1;">100</text></g><g class="mark-rule role-axis-domain" style="pointer-events: none;"><line transform="translate(0,266.6666666666667)" x2="0" y2="-266.6666666666667" style="fill: none; stroke: lightgray; stroke-width: 1; opacity: 1;"></line></g></g><path class="foreground" d="" style="pointer-events: none; display: none; fill: none;"></path></g></g><g class="mark-group role-scope concat_0_concat_1_pathgroup"><g transform="translate(0,0)"><path class="background" d="M0,0h266.6666666666667v266.6666666666667h-266.6666666666667Z" style="fill: none;"></path><g><g class="mark-line role-mark concat_0_concat_1_marks" clip-path="url(#clip6)"><path d="M-346.6666666666667,266.6666666666667L-337.77777777777777,266.6666666666667L-328.8888888888889,266.6666666666667L-320,266.6666666666667L-311.11111111111114,266.6666666666667L-302.22222222222223,266.6666666666667L-293.33333333333337,266.6666666666667L-284.44444444444446,266.6666666666667L-275.5555555555556,266.6666666666667L-266.6666666666667,266.6666666666667L-257.77777777777777,266.6666666666667L-248.8888888888889,266.6666666666667L-240.00000000000003,266.6666666666667L-231.11111111111114,266.32034632034635L-222.22222222222226,265.974025974026L-213.33333333333337,265.62770562770567L-204.44444444444449,265.2813852813853L-195.55555555555554,265.2813852813853L-186.66666666666666,264.5887445887446L-177.77777777777777,263.54978354978357L-168.88888888888889,262.51082251082255L-160,262.8571428571429L-151.11111111111111,259.39393939393943L-142.22222222222223,256.969696969697L-133.33333333333334,256.2770562770563L-124.44444444444446,254.54545454545456L-115.55555555555557,251.7748917748918L-106.66666666666669,248.65800865800867L-97.77777777777777,246.23376623376626L-88.88888888888889,248.31168831168833L-80,246.5800865800866L-71.11111111111111,242.42424242424244L-62.22222222222223,238.26839826839827L-53.33333333333334,236.53679653679657L-44.44444444444444,233.41991341991343L-35.55555555555556,229.61038961038963L-26.66666666666667,228.5714285714286L-17.77777777777778,227.53246753246756L-8.88888888888889,227.18614718614722L0,227.18614718614722L8.88888888888889,229.26406926406926L17.77777777777778,232.3809523809524L26.66666666666667,234.1125541125541L35.55555555555556,232.72727272727275L44.44444444444444,233.41991341991343L53.33333333333334,235.15151515151518L62.22222222222223,237.5757575757576L71.11111111111111,235.84415584415586L80,236.88311688311688L88.88888888888889,238.26839826839827L97.77777777777777,239.30735930735932L106.66666666666669,242.0779220779221L115.55555555555557,240.6926406926407L124.44444444444446,241.38528138528142L133.33333333333334,243.46320346320348L142.22222222222223,241.73160173160173L151.11111111111111,243.46320346320348L160,244.84848484848487L168.88888888888889,244.5021645021645L177.77777777777777,246.23376623376626L186.66666666666666,246.5800865800866L195.55555555555554,246.92640692640694L204.44444444444449,246.92640692640694L213.33333333333337,245.1948051948052L222.22222222222226,243.80952380952382L231.11111111111114,242.7705627705628L240.00000000000003,244.84848484848487L248.8888888888889,245.1948051948052L257.77777777777777,245.1948051948052L266.6666666666667,249.00432900432904" style="fill: none; stroke: #4c78a8; stroke-width: 2; opacity: 1;"></path></g></g><path class="foreground" d="" style="display: none; fill: none;"></path></g><g transform="translate(0,0)"><path class="background" d="M0,0h266.6666666666667v266.6666666666667h-266.6666666666667Z" style="fill: none;"></path><g><g class="mark-line role-mark concat_0_concat_1_marks" clip-path="url(#clip7)"><path d="M-346.6666666666667,266.6666666666667L-337.77777777777777,266.6666666666667L-328.8888888888889,266.6666666666667L-320,266.6666666666667L-311.11111111111114,266.6666666666667L-302.22222222222223,266.6666666666667L-293.33333333333337,266.6666666666667L-284.44444444444446,266.6666666666667L-275.5555555555556,266.6666666666667L-266.6666666666667,266.6666666666667L-257.77777777777777,266.6666666666667L-248.8888888888889,266.6666666666667L-240.00000000000003,266.6666666666667L-231.11111111111114,266.6666666666667L-222.22222222222226,266.6666666666667L-213.33333333333337,266.6666666666667L-204.44444444444449,266.6666666666667L-195.55555555555554,266.6666666666667L-186.66666666666666,266.6666666666667L-177.77777777777777,266.6666666666667L-168.88888888888889,266.32034632034635L-160,266.32034632034635L-151.11111111111111,266.32034632034635L-142.22222222222223,266.32034632034635L-133.33333333333334,265.62770562770567L-124.44444444444446,264.935064935065L-115.55555555555557,264.24242424242425L-106.66666666666669,263.8961038961039L-97.77777777777777,263.20346320346323L-88.88888888888889,262.51082251082255L-80,261.12554112554113L-71.11111111111111,261.8181818181818L-62.22222222222223,261.8181818181818L-53.33333333333334,262.1645021645022L-44.44444444444444,261.12554112554113L-35.55555555555556,260.7792207792208L-26.66666666666667,261.8181818181818L-17.77777777777778,260.7792207792208L-8.88888888888889,258.70129870129875L0,258.70129870129875L8.88888888888889,256.969696969697L17.77777777777778,258.35497835497836L26.66666666666667,256.969696969697L35.55555555555556,255.5844155844156L44.44444444444444,256.2770562770563L53.33333333333334,255.5844155844156L62.22222222222223,255.23809523809527L71.11111111111111,254.8917748917749L80,252.4675324675325L88.88888888888889,253.5064935064935L97.77777777777777,253.1601731601732L106.66666666666669,240.00000000000003L115.55555555555557,240.00000000000003L124.44444444444446,233.0735930735931L133.33333333333334,233.7662337662338L142.22222222222223,233.41991341991343L151.11111111111111,233.41991341991343L160,233.7662337662338L168.88888888888889,246.5800865800866L177.77777777777777,246.92640692640694L186.66666666666666,253.1601731601732L195.55555555555554,252.4675324675325L204.44444444444449,254.8917748917749L213.33333333333337,252.81385281385283L222.22222222222226,250.38961038961043L231.11111111111114,250.38961038961043L240.00000000000003,250.73593073593074L248.8888888888889,251.42857142857144L257.77777777777777,252.12121212121212L266.6666666666667,251.0822510822511" style="fill: none; stroke: #f58518; stroke-width: 2; opacity: 1;"></path></g></g><path class="foreground" d="" style="display: none; fill: none;"></path></g><g transform="translate(0,0)"><path class="background" d="M0,0h266.6666666666667v266.6666666666667h-266.6666666666667Z" style="fill: none;"></path><g><g class="mark-line role-mark concat_0_concat_1_marks" clip-path="url(#clip8)"><path d="M-346.6666666666667,266.6666666666667L-337.77777777777777,266.6666666666667L-328.8888888888889,266.6666666666667L-320,266.6666666666667L-311.11111111111114,266.6666666666667L-302.22222222222223,266.6666666666667L-293.33333333333337,266.6666666666667L-284.44444444444446,266.6666666666667L-275.5555555555556,266.6666666666667L-266.6666666666667,266.6666666666667L-257.77777777777777,266.6666666666667L-248.8888888888889,266.6666666666667L-240.00000000000003,266.6666666666667L-231.11111111111114,266.6666666666667L-222.22222222222226,264.935064935065L-213.33333333333337,266.6666666666667L-204.44444444444449,266.32034632034635L-195.55555555555554,266.32034632034635L-186.66666666666666,266.32034632034635L-177.77777777777777,266.6666666666667L-168.88888888888889,266.32034632034635L-160,266.6666666666667L-151.11111111111111,266.32034632034635L-142.22222222222223,266.32034632034635L-133.33333333333334,266.32034632034635L-124.44444444444446,266.32034632034635L-115.55555555555557,265.974025974026L-106.66666666666669,266.32034632034635L-97.77777777777777,266.32034632034635L-88.88888888888889,266.32034632034635L-80,266.6666666666667L-71.11111111111111,266.6666666666667L-62.22222222222223,265.974025974026L-53.33333333333334,265.974025974026L-44.44444444444444,265.974025974026L-35.55555555555556,265.974025974026L-26.66666666666667,265.2813852813853L-17.77777777777778,265.2813852813853L-8.88888888888889,265.2813852813853L0,265.974025974026L8.88888888888889,265.62770562770567L17.77777777777778,265.2813852813853L26.66666666666667,265.2813852813853L35.55555555555556,265.974025974026L44.44444444444444,265.974025974026L53.33333333333334,265.974025974026L62.22222222222223,265.974025974026L71.11111111111111,265.974025974026L80,266.32034632034635L88.88888888888889,266.32034632034635L97.77777777777777,265.974025974026L106.66666666666669,265.974025974026L115.55555555555557,265.974025974026L124.44444444444446,265.974025974026L133.33333333333334,266.32034632034635L142.22222222222223,266.32034632034635L151.11111111111111,266.32034632034635L160,266.6666666666667L168.88888888888889,266.6666666666667L177.77777777777777,266.6666666666667L186.66666666666666,266.6666666666667L195.55555555555554,266.6666666666667L204.44444444444449,266.6666666666667L213.33333333333337,266.6666666666667L222.22222222222226,266.6666666666667L231.11111111111114,266.6666666666667L240.00000000000003,266.6666666666667L248.8888888888889,266.6666666666667L257.77777777777777,266.6666666666667L266.6666666666667,266.6666666666667" style="fill: none; stroke: #e45756; stroke-width: 2; opacity: 1;"></path></g></g><path class="foreground" d="" style="display: none; fill: none;"></path></g><g transform="translate(0,0)"><path class="background" d="M0,0h266.6666666666667v266.6666666666667h-266.6666666666667Z" style="fill: none;"></path><g><g class="mark-line role-mark concat_0_concat_1_marks" clip-path="url(#clip9)"><path d="M-346.6666666666667,266.6666666666667L-337.77777777777777,266.6666666666667L-328.8888888888889,266.6666666666667L-320,266.6666666666667L-311.11111111111114,266.6666666666667L-302.22222222222223,266.6666666666667L-293.33333333333337,266.6666666666667L-284.44444444444446,266.6666666666667L-275.5555555555556,266.6666666666667L-266.6666666666667,266.6666666666667L-257.77777777777777,266.6666666666667L-248.8888888888889,266.6666666666667L-240.00000000000003,266.6666666666667L-231.11111111111114,265.62770562770567L-222.22222222222226,265.62770562770567L-213.33333333333337,265.62770562770567L-204.44444444444449,265.62770562770567L-195.55555555555554,264.5887445887446L-186.66666666666666,264.24242424242425L-177.77777777777777,264.24242424242425L-168.88888888888889,265.2813852813853L-160,265.2813852813853L-151.11111111111111,264.24242424242425L-142.22222222222223,263.54978354978357L-133.33333333333334,263.8961038961039L-124.44444444444446,264.24242424242425L-115.55555555555557,262.51082251082255L-106.66666666666669,261.12554112554113L-97.77777777777777,260.43290043290045L-88.88888888888889,259.04761904761904L-80,257.31601731601734L-71.11111111111111,256.2770562770563L-62.22222222222223,254.19913419913422L-53.33333333333334,252.81385281385283L-44.44444444444444,253.1601731601732L-35.55555555555556,250.73593073593074L-26.66666666666667,251.42857142857144L-17.77777777777778,249.35064935064935L-8.88888888888889,246.92640692640694L0,246.5800865800866L8.88888888888889,247.965367965368L17.77777777777778,246.92640692640694L26.66666666666667,246.92640692640694L35.55555555555556,246.5800865800866L44.44444444444444,249.35064935064935L53.33333333333334,249.69696969696972L62.22222222222223,251.42857142857144L71.11111111111111,250.04329004329006L80,251.0822510822511L88.88888888888889,253.85281385281388L97.77777777777777,250.38961038961043L106.66666666666669,251.7748917748918L115.55555555555557,253.85281385281388L124.44444444444446,252.12121212121212L133.33333333333334,253.5064935064935L142.22222222222223,253.85281385281388L151.11111111111111,254.19913419913422L160,258.35497835497836L168.88888888888889,258.35497835497836L177.77777777777777,259.7402597402598L186.66666666666666,261.12554112554113L195.55555555555554,262.8571428571429L204.44444444444449,263.20346320346323L213.33333333333337,263.20346320346323L222.22222222222226,263.54978354978357L231.11111111111114,263.54978354978357L240.00000000000003,263.54978354978357L248.8888888888889,264.24242424242425L257.77777777777777,263.8961038961039L266.6666666666667,263.8961038961039" style="fill: none; stroke: #72b7b2; stroke-width: 2; opacity: 1;"></path></g></g><path class="foreground" d="" style="display: none; fill: none;"></path></g><g transform="translate(0,0)"><path class="background" d="M0,0h266.6666666666667v266.6666666666667h-266.6666666666667Z" style="fill: none;"></path><g><g class="mark-line role-mark concat_0_concat_1_marks" clip-path="url(#clip10)"><path d="M-346.6666666666667,266.6666666666667L-337.77777777777777,266.6666666666667L-328.8888888888889,266.6666666666667L-320,266.6666666666667L-311.11111111111114,266.6666666666667L-302.22222222222223,266.6666666666667L-293.33333333333337,266.6666666666667L-284.44444444444446,266.6666666666667L-275.5555555555556,266.6666666666667L-266.6666666666667,266.6666666666667L-257.77777777777777,266.32034632034635L-248.8888888888889,266.32034632034635L-240.00000000000003,266.32034632034635L-231.11111111111114,265.974025974026L-222.22222222222226,265.62770562770567L-213.33333333333337,264.5887445887446L-204.44444444444449,264.24242424242425L-195.55555555555554,263.54978354978357L-186.66666666666666,263.20346320346323L-177.77777777777777,261.47186147186153L-168.88888888888889,260.43290043290045L-160,260.43290043290045L-151.11111111111111,260.0865800865801L-142.22222222222223,256.62337662337666L-133.33333333333334,248.65800865800867L-124.44444444444446,243.80952380952382L-115.55555555555557,235.84415584415586L-106.66666666666669,237.22943722943725L-97.77777777777777,235.84415584415586L-88.88888888888889,224.7619047619048L-80,216.7965367965368L-71.11111111111111,205.36796536796538L-62.22222222222223,186.66666666666666L-53.33333333333334,179.04761904761904L-44.44444444444444,173.85281385281385L-35.55555555555556,165.88744588744592L-26.66666666666667,152.03463203463204L-17.77777777777778,124.32900432900433L-8.88888888888889,111.51515151515153L0,98.7012987012987L8.88888888888889,89.35064935064936L17.77777777777778,88.65800865800867L26.66666666666667,94.1991341991342L35.55555555555556,113.59307359307358L44.44444444444444,113.59307359307358L53.33333333333334,87.965367965368L62.22222222222223,79.65367965367966L71.11111111111111,83.11688311688314L80,50.56277056277058L88.88888888888889,44.67532467532468L97.77777777777777,37.74891774891775L106.66666666666669,13.160173160173166L115.55555555555557,12.467532467532472L124.44444444444446,28.39826839826838L133.33333333333334,6.233766233766236L142.22222222222223,30.82251082251082L151.11111111111111,40.17316017316016L160,26.32034632034633L168.88888888888889,62.33766233766233L177.77777777777777,84.84848484848487L186.66666666666666,70.995670995671L195.55555555555554,93.16017316017319L204.44444444444449,101.4718614718615L213.33333333333337,98.7012987012987L222.22222222222226,95.23809523809526L231.11111111111114,93.85281385281385L240.00000000000003,100.77922077922078L248.8888888888889,109.43722943722942L257.77777777777777,85.88744588744589L266.6666666666667,75.84415584415586" style="fill: none; stroke: #54a24b; stroke-width: 2; opacity: 1;"></path></g></g><path class="foreground" d="" style="display: none; fill: none;"></path></g></g><g class="mark-group role-title"><g transform="translate(133.33333333333334,-17)"><path class="background" d="M0,0h0v0h0Z" style="pointer-events: none; fill: none;"></path><g><g class="mark-text role-title-text" style="pointer-events: none;"><text text-anchor="middle" transform="translate(0,10)" style="font-family: Roboto Condensed; font-size: 13px; font-weight: normal; fill: #000; opacity: 1;">Deaths/7-day average</text></g></g><path class="foreground" d="" style="pointer-events: none; display: none; fill: none;"></path></g></g></g><path class="foreground" d="" style="display: none; fill: none;"></path></g></g><g class="mark-group role-scope concat_0_concat_2_group"><g transform="translate(608,0)"><path class="background" d="M0,0h266.6666666666667v266.6666666666667h-266.6666666666667Z" style="fill: none; stroke: #ddd; stroke-width: 0;"></path><g><g class="mark-group role-axis"><g transform="translate(0.5,0.5)"><path class="background" d="M0,0h0v0h0Z" style="pointer-events: none; fill: none;"></path><g><g class="mark-rule role-axis-grid" style="pointer-events: none;"><line transform="translate(0,267)" x2="266.6666666666667" y2="0" style="fill: none; stroke: #ddd; stroke-width: 1; opacity: 1;"></line><line transform="translate(0,222)" x2="266.6666666666667" y2="0" style="fill: none; stroke: #ddd; stroke-width: 1; opacity: 1;"></line><line transform="translate(0,178)" x2="266.6666666666667" y2="0" style="fill: none; stroke: #ddd; stroke-width: 1; opacity: 1;"></line><line transform="translate(0,133)" x2="266.6666666666667" y2="0" style="fill: none; stroke: #ddd; stroke-width: 1; opacity: 1;"></line><line transform="translate(0,89)" x2="266.6666666666667" y2="0" style="fill: none; stroke: #ddd; stroke-width: 1; opacity: 1;"></line><line transform="translate(0,44)" x2="266.6666666666667" y2="0" style="fill: none; stroke: #ddd; stroke-width: 1; opacity: 1;"></line><line transform="translate(0,0)" x2="266.6666666666667" y2="0" style="fill: none; stroke: #ddd; stroke-width: 1; opacity: 1;"></line></g></g><path class="foreground" d="" style="pointer-events: none; display: none; fill: none;"></path></g></g><g class="mark-group role-axis"><g transform="translate(0.5,267.1666666666667)"><path class="background" d="M0,0h0v0h0Z" style="pointer-events: none; fill: none;"></path><g><g class="mark-text role-axis-label" style="pointer-events: none;"><text text-anchor="middle" transform="translate(26.66666666666667,10)" style="font-family: Roboto Condensed; font-size: 10px; fill: #000; opacity: 1;">Apr 12</text><text text-anchor="middle" transform="translate(88.88888888888889,10)" style="font-family: Roboto Condensed; font-size: 10px; fill: #000; opacity: 1;">Apr 19</text><text text-anchor="middle" transform="translate(151.11111111111111,10)" style="font-family: Roboto Condensed; font-size: 10px; fill: #000; opacity: 1;">Apr 26</text><text text-anchor="middle" transform="translate(213.33333333333337,10)" style="font-family: Roboto Condensed; font-size: 10px; fill: #000; opacity: 1;">May 03</text></g><g class="mark-rule role-axis-domain" style="pointer-events: none;"><line transform="translate(0,0)" x2="266.6666666666667" y2="0" style="fill: none; stroke: lightgray; stroke-width: 1; opacity: 1;"></line></g></g><path class="foreground" d="" style="pointer-events: none; display: none; fill: none;"></path></g></g><g class="mark-group role-axis"><g transform="translate(0.5,0.5)"><path class="background" d="M0,0h0v0h0Z" style="pointer-events: none; fill: none;"></path><g><g class="mark-text role-axis-label" style="pointer-events: none;"><text text-anchor="end" transform="translate(-2,269.6666666666667)" style="font-family: Roboto Condensed; font-size: 10px; fill: #000; opacity: 1;">0</text><text text-anchor="end" transform="translate(-2,225.22222222222226)" style="font-family: Roboto Condensed; font-size: 10px; fill: #000; opacity: 1;">100</text><text text-anchor="end" transform="translate(-2,180.7777777777778)" style="font-family: Roboto Condensed; font-size: 10px; fill: #000; opacity: 1;">200</text><text text-anchor="end" transform="translate(-2,136.33333333333334)" style="font-family: Roboto Condensed; font-size: 10px; fill: #000; opacity: 1;">300</text><text text-anchor="end" transform="translate(-2,91.8888888888889)" style="font-family: Roboto Condensed; font-size: 10px; fill: #000; opacity: 1;">400</text><text text-anchor="end" transform="translate(-2,47.444444444444436)" style="font-family: Roboto Condensed; font-size: 10px; fill: #000; opacity: 1;">500</text><text text-anchor="end" transform="translate(-2,3)" style="font-family: Roboto Condensed; font-size: 10px; fill: #000; opacity: 1;">600</text></g><g class="mark-rule role-axis-domain" style="pointer-events: none;"><line transform="translate(0,266.6666666666667)" x2="0" y2="-266.6666666666667" style="fill: none; stroke: lightgray; stroke-width: 1; opacity: 1;"></line></g></g><path class="foreground" d="" style="pointer-events: none; display: none; fill: none;"></path></g></g><g class="mark-group role-scope concat_0_concat_2_pathgroup"><g transform="translate(0,0)"><path class="background" d="M0,0h266.6666666666667v266.6666666666667h-266.6666666666667Z" style="fill: none;"></path><g><g class="mark-line role-mark concat_0_concat_2_marks" clip-path="url(#clip11)"><path d="M-346.6666666666667,266.6666666666667L-337.77777777777777,266.6666666666667L-328.8888888888889,266.6666666666667L-320,266.6666666666667L-311.11111111111114,266.6666666666667L-302.22222222222223,266.6666666666667L-293.33333333333337,266.60317460317464L-284.44444444444446,266.60317460317464L-275.5555555555556,266.60317460317464L-266.6666666666667,266.60317460317464L-257.77777777777777,266.60317460317464L-248.8888888888889,266.60317460317464L-240.00000000000003,266.6666666666667L-231.11111111111114,266.6666666666667L-222.22222222222226,266.6666666666667L-213.33333333333337,266.6666666666667L-204.44444444444449,266.6666666666667L-195.55555555555554,266.6666666666667L-186.66666666666666,266.6666666666667L-177.77777777777777,266.6666666666667L-168.88888888888889,266.6666666666667L-160,266.4761904761905L-151.11111111111111,265.2063492063492L-142.22222222222223,264.44444444444446L-133.33333333333334,264.12698412698415L-124.44444444444446,263.55555555555554L-115.55555555555557,263.11111111111114L-106.66666666666669,263.11111111111114L-97.77777777777777,262.2857142857143L-88.88888888888889,263.55555555555554L-80,264.0634920634921L-71.11111111111111,207.61904761904765L-62.22222222222223,195.42857142857144L-53.33333333333334,188.57142857142856L-44.44444444444444,182.73015873015873L-35.55555555555556,180.57142857142856L-26.66666666666667,176.76190476190476L-17.77777777777778,168.63492063492063L-8.88888888888889,216.38095238095238L0,221.52380952380955L8.88888888888889,225.90476190476193L17.77777777777778,220.1904761904762L26.66666666666667,211.93650793650795L35.55555555555556,208.63492063492066L44.44444444444444,198.8571428571429L53.33333333333334,192.8888888888889L62.22222222222223,182.85714285714286L71.11111111111111,162.41269841269843L80,144.7619047619048L88.88888888888889,137.33333333333334L97.77777777777777,133.5873015873016L106.66666666666669,126.98412698412699L115.55555555555557,117.39682539682542L124.44444444444446,116.1904761904762L133.33333333333334,130.53968253968256L142.22222222222223,150.66666666666666L151.11111111111111,160.88888888888889L160,161.96825396825398L168.88888888888889,176.25396825396828L177.77777777777777,185.26984126984127L186.66666666666666,192.5079365079365L195.55555555555554,189.90476190476193L204.44444444444449,188.82539682539684L213.33333333333337,191.1746031746032L222.22222222222226,194.53968253968253L231.11111111111114,191.80952380952382L240.00000000000003,194.85714285714286L248.8888888888889,192.63492063492063L257.77777777777777,190.41269841269843L266.6666666666667,190.03174603174608" style="fill: none; stroke: #4c78a8; stroke-width: 2; opacity: 1;"></path></g></g><path class="foreground" d="" style="display: none; fill: none;"></path></g><g transform="translate(0,0)"><path class="background" d="M0,0h266.6666666666667v266.6666666666667h-266.6666666666667Z" style="fill: none;"></path><g><g class="mark-line role-mark concat_0_concat_2_marks" clip-path="url(#clip12)"><path d="M-346.6666666666667,266.6666666666667L-337.77777777777777,266.6666666666667L-328.8888888888889,266.6666666666667L-320,266.6666666666667L-311.11111111111114,266.6666666666667L-302.22222222222223,266.6666666666667L-293.33333333333337,266.6666666666667L-284.44444444444446,266.6666666666667L-275.5555555555556,266.6666666666667L-266.6666666666667,266.6666666666667L-257.77777777777777,266.6666666666667L-248.8888888888889,266.6666666666667L-240.00000000000003,266.6666666666667L-231.11111111111114,266.6666666666667L-222.22222222222226,266.09523809523813L-213.33333333333337,266.09523809523813L-204.44444444444449,266.09523809523813L-195.55555555555554,266.09523809523813L-186.66666666666666,266.09523809523813L-177.77777777777777,266.09523809523813L-168.88888888888889,266.09523809523813L-160,266.6666666666667L-151.11111111111111,266.6666666666667L-142.22222222222223,266.6666666666667L-133.33333333333334,266.6666666666667L-124.44444444444446,266.6666666666667L-115.55555555555557,266.6666666666667L-106.66666666666669,266.6666666666667L-97.77777777777777,266.6666666666667L-88.88888888888889,266.6666666666667L-80,266.6666666666667L-71.11111111111111,266.6666666666667L-62.22222222222223,248.25396825396828L-53.33333333333334,248.25396825396828L-44.44444444444444,248.25396825396828L-35.55555555555556,248.25396825396828L-26.66666666666667,248.25396825396828L-17.77777777777778,248.25396825396828L-8.88888888888889,248.25396825396828L0,266.6666666666667L8.88888888888889,266.6666666666667L17.77777777777778,266.6666666666667L26.66666666666667,266.6666666666667L35.55555555555556,266.6666666666667L44.44444444444444,266.6666666666667L53.33333333333334,266.6666666666667L62.22222222222223,177.7777777777778L71.11111111111111,177.7777777777778L80,177.7777777777778L88.88888888888889,177.7777777777778L97.77777777777777,158.73015873015873L106.66666666666669,158.73015873015873L115.55555555555557,158.73015873015873L124.44444444444446,247.61904761904765L133.33333333333334,215.8730158730159L142.22222222222223,215.8730158730159L151.11111111111111,215.8730158730159L160,234.92063492063494L168.88888888888889,215.8730158730159L177.77777777777777,215.8730158730159L186.66666666666666,203.1746031746032L195.55555555555554,234.92063492063494L204.44444444444449,234.92063492063494L213.33333333333337,234.92063492063494L222.22222222222226,203.1746031746032L231.11111111111114,222.22222222222226L240.00000000000003,222.22222222222226L248.8888888888889,234.92063492063494L257.77777777777777,203.1746031746032L266.6666666666667,203.1746031746032" style="fill: none; stroke: #f58518; stroke-width: 2; opacity: 1;"></path></g></g><path class="foreground" d="" style="display: none; fill: none;"></path></g><g transform="translate(0,0)"><path class="background" d="M0,0h266.6666666666667v266.6666666666667h-266.6666666666667Z" style="fill: none;"></path><g><g class="mark-line role-mark concat_0_concat_2_marks" clip-path="url(#clip13)"><path d="M-346.6666666666667,266.6666666666667L-337.77777777777777,266.6666666666667L-328.8888888888889,266.6666666666667L-320,266.6666666666667L-311.11111111111114,266.6666666666667L-302.22222222222223,266.6666666666667L-293.33333333333337,266.6666666666667L-284.44444444444446,266.6666666666667L-275.5555555555556,266.6666666666667L-266.6666666666667,266.60317460317464L-257.77777777777777,266.60317460317464L-248.8888888888889,266.60317460317464L-240.00000000000003,266.60317460317464L-231.11111111111114,266.60317460317464L-222.22222222222226,266.1587301587302L-213.33333333333337,266.6666666666667L-204.44444444444449,266.6666666666667L-195.55555555555554,266.41269841269843L-186.66666666666666,266.41269841269843L-177.77777777777777,266.41269841269843L-168.88888888888889,265.33333333333337L-160,266.6666666666667L-151.11111111111111,263.42857142857144L-142.22222222222223,263.42857142857144L-133.33333333333334,263.42857142857144L-124.44444444444446,261.7777777777778L-115.55555555555557,260.82539682539687L-106.66666666666669,260.82539682539687L-97.77777777777777,258.41269841269843L-88.88888888888889,259.93650793650795L-80,257.33333333333337L-71.11111111111111,255.93650793650798L-62.22222222222223,253.84126984126988L-53.33333333333334,253.20634920634924L-44.44444444444444,248.76190476190476L-35.55555555555556,248.06349206349208L-26.66666666666667,247.42857142857144L-17.77777777777778,243.74603174603175L-8.88888888888889,240.76190476190476L0,241.01587301587304L8.88888888888889,238.6031746031746L17.77777777777778,238.41269841269843L26.66666666666667,237.39682539682542L35.55555555555556,236.63492063492066L44.44444444444444,239.3650793650794L53.33333333333334,238.47619047619048L62.22222222222223,237.71428571428575L71.11111111111111,236.63492063492066L80,238.0952380952381L88.88888888888889,241.14285714285714L97.77777777777777,239.42857142857147L106.66666666666669,239.4920634920635L115.55555555555557,242.22222222222223L124.44444444444446,243.4920634920635L133.33333333333334,246.47619047619048L142.22222222222223,248.952380952381L151.11111111111111,246.53968253968256L160,250.03174603174602L168.88888888888889,252.7619047619048L177.77777777777777,254.34920634920636L186.66666666666666,256.44444444444446L195.55555555555554,257.33333333333337L204.44444444444449,258.031746031746L213.33333333333337,259.74603174603175L222.22222222222226,260.3809523809524L231.11111111111114,260.50793650793656L240.00000000000003,260.6984126984127L248.8888888888889,261.26984126984127L257.77777777777777,261.8412698412699L266.6666666666667,262.41269841269843" style="fill: none; stroke: #e45756; stroke-width: 2; opacity: 1;"></path></g></g><path class="foreground" d="" style="display: none; fill: none;"></path></g><g transform="translate(0,0)"><path class="background" d="M0,0h266.6666666666667v266.6666666666667h-266.6666666666667Z" style="fill: none;"></path><g><g class="mark-line role-mark concat_0_concat_2_marks" clip-path="url(#clip14)"><path d="M-346.6666666666667,266.6666666666667L-337.77777777777777,266.6666666666667L-328.8888888888889,266.6666666666667L-320,266.6666666666667L-311.11111111111114,266.6666666666667L-302.22222222222223,266.6666666666667L-293.33333333333337,266.6666666666667L-284.44444444444446,266.6666666666667L-275.5555555555556,266.60317460317464L-266.6666666666667,266.60317460317464L-257.77777777777777,266.60317460317464L-248.8888888888889,266.60317460317464L-240.00000000000003,266.60317460317464L-231.11111111111114,266.60317460317464L-222.22222222222226,266.60317460317464L-213.33333333333337,266.6666666666667L-204.44444444444449,266.6666666666667L-195.55555555555554,266.6666666666667L-186.66666666666666,266.6666666666667L-177.77777777777777,266.6666666666667L-168.88888888888889,266.6666666666667L-160,266.3492063492064L-151.11111111111111,266.3492063492064L-142.22222222222223,266.3492063492064L-133.33333333333334,266.3492063492064L-124.44444444444446,266.3492063492064L-115.55555555555557,266.3492063492064L-106.66666666666669,266.2857142857143L-97.77777777777777,266.60317460317464L-88.88888888888889,266.2857142857143L-80,266.22222222222223L-71.11111111111111,266.22222222222223L-62.22222222222223,265.015873015873L-53.33333333333334,265.015873015873L-44.44444444444444,265.0793650793651L-35.55555555555556,265.0793650793651L-26.66666666666667,265.3968253968254L-17.77777777777778,265.46031746031747L-8.88888888888889,265.46031746031747L0,266.6666666666667L8.88888888888889,266.6666666666667L17.77777777777778,266.6666666666667L26.66666666666667,266.6666666666667L35.55555555555556,266.6666666666667L44.44444444444444,266.6666666666667L53.33333333333334,266.6666666666667L62.22222222222223,266.6666666666667L71.11111111111111,266.6666666666667L80,266.6666666666667L88.88888888888889,266.6666666666667L97.77777777777777,266.6666666666667L106.66666666666669,266.6666666666667L115.55555555555557,266.6666666666667L124.44444444444446,266.6666666666667L133.33333333333334,266.6666666666667L142.22222222222223,266.6666666666667L151.11111111111111,266.6666666666667L160,266.6666666666667L168.88888888888889,266.6666666666667L177.77777777777777,266.6666666666667L186.66666666666666,266.6666666666667L195.55555555555554,266.6666666666667L204.44444444444449,266.6666666666667L213.33333333333337,266.6666666666667L222.22222222222226,266.6666666666667L231.11111111111114,266.6666666666667L240.00000000000003,266.6666666666667L248.8888888888889,266.6666666666667L257.77777777777777,266.6666666666667L266.6666666666667,266.6666666666667" style="fill: none; stroke: #72b7b2; stroke-width: 2; opacity: 1;"></path></g></g><path class="foreground" d="" style="display: none; fill: none;"></path></g><g transform="translate(0,0)"><path class="background" d="M0,0h266.6666666666667v266.6666666666667h-266.6666666666667Z" style="fill: none;"></path><g><g class="mark-line role-mark concat_0_concat_2_marks" clip-path="url(#clip15)"><path d="M-346.6666666666667,266.6666666666667L-337.77777777777777,266.6666666666667L-328.8888888888889,266.6666666666667L-320,266.6666666666667L-311.11111111111114,266.6666666666667L-302.22222222222223,266.6666666666667L-293.33333333333337,266.6666666666667L-284.44444444444446,266.6666666666667L-275.5555555555556,266.60317460317464L-266.6666666666667,266.60317460317464L-257.77777777777777,266.60317460317464L-248.8888888888889,266.60317460317464L-240.00000000000003,266.60317460317464L-231.11111111111114,266.60317460317464L-222.22222222222226,266.60317460317464L-213.33333333333337,266.6666666666667L-204.44444444444449,266.6666666666667L-195.55555555555554,266.6666666666667L-186.66666666666666,265.7142857142857L-177.77777777777777,265.7142857142857L-168.88888888888889,265.7142857142857L-160,265.7142857142857L-151.11111111111111,265.7142857142857L-142.22222222222223,265.7142857142857L-133.33333333333334,265.7142857142857L-124.44444444444446,266.6666666666667L-115.55555555555557,266.6666666666667L-106.66666666666669,266.6666666666667L-97.77777777777777,266.6666666666667L-88.88888888888889,266.6666666666667L-80,266.6666666666667L-71.11111111111111,261.14285714285717L-62.22222222222223,261.14285714285717L-53.33333333333334,254.66666666666669L-44.44444444444444,254.66666666666669L-35.55555555555556,254.66666666666669L-26.66666666666667,254.66666666666669L-17.77777777777778,254.66666666666669L-8.88888888888889,260.1904761904762L0,260.1904761904762L8.88888888888889,255.49206349206352L17.77777777777778,255.49206349206352L26.66666666666667,255.49206349206352L35.55555555555556,255.49206349206352L44.44444444444444,255.49206349206352L53.33333333333334,255.49206349206352L62.22222222222223,244.76190476190476L71.11111111111111,255.93650793650798L80,255.93650793650798L88.88888888888889,255.93650793650798L97.77777777777777,255.93650793650798L106.66666666666669,255.93650793650798L115.55555555555557,255.93650793650798L124.44444444444446,266.6666666666667L133.33333333333334,237.77777777777777L142.22222222222223,237.77777777777777L151.11111111111111,237.77777777777777L160,237.77777777777777L168.88888888888889,237.77777777777777L177.77777777777777,237.77777777777777L186.66666666666666,237.77777777777777L195.55555555555554,266.6666666666667L204.44444444444449,266.6666666666667L213.33333333333337,266.6666666666667L222.22222222222226,71.8095238095238L231.11111111111114,71.8095238095238L240.00000000000003,71.8095238095238L248.8888888888889,14.85714285714286L257.77777777777777,14.85714285714286L266.6666666666667,14.85714285714286" style="fill: none; stroke: #54a24b; stroke-width: 2; opacity: 1;"></path></g></g><path class="foreground" d="" style="display: none; fill: none;"></path></g></g><g class="mark-group role-title"><g transform="translate(133.33333333333334,-22)"><path class="background" d="M0,0h0v0h0Z" style="pointer-events: none; fill: none;"></path><g><g class="mark-text role-title-text" style="pointer-events: none;"><text text-anchor="middle" transform="translate(0,10)" style="font-family: Roboto Condensed; font-size: 13px; font-weight: normal; fill: #000; opacity: 1;">Recovered/7-day average</text></g></g><path class="foreground" d="" style="pointer-events: none; display: none; fill: none;"></path></g></g></g><path class="foreground" d="" style="display: none; fill: none;"></path></g></g></g><path class="foreground" d="" style="display: none; fill: none;"></path></g></g><g class="mark-group role-legend"><g transform="translate(893,0)"><path class="background" d="M0,0h54v63h-54Z" style="pointer-events: none; fill: none;"></path><g><g class="mark-group role-legend-entry"><g transform="translate(0,0)"><path class="background" d="M0,0h0v0h0Z" style="pointer-events: none; fill: none;"></path><g><g class="mark-group role-scope"><g transform="translate(0,0)"><path class="background" d="M0,0h53.20703125v11h-53.20703125Z" style="pointer-events: none; fill: none; opacity: 1;"></path><g><g class="mark-symbol role-legend-symbol" style="pointer-events: none;"><path transform="translate(6,6)" d="M-5,0L5,0" style="fill: none; stroke: #4c78a8; stroke-width: 1.5; opacity: 1;"></path></g><g class="mark-text role-legend-label" style="pointer-events: none;"><text text-anchor="start" transform="translate(16,9)" style="font-family: Roboto Condensed; font-size: 10px; fill: #000; opacity: 1;">Denmark</text></g></g><path class="foreground" d="" style="pointer-events: none; display: none; fill: none;"></path></g><g transform="translate(0,13)"><path class="background" d="M0,0h53.20703125v11h-53.20703125Z" style="pointer-events: none; fill: none; opacity: 1;"></path><g><g class="mark-symbol role-legend-symbol" style="pointer-events: none;"><path transform="translate(6,6)" d="M-5,0L5,0" style="fill: none; stroke: #f58518; stroke-width: 1.5; opacity: 1;"></path></g><g class="mark-text role-legend-label" style="pointer-events: none;"><text text-anchor="start" transform="translate(16,9)" style="font-family: Roboto Condensed; font-size: 10px; fill: #000; opacity: 1;">Finland</text></g></g><path class="foreground" d="" style="pointer-events: none; display: none; fill: none;"></path></g><g transform="translate(0,26)"><path class="background" d="M0,0h53.20703125v11h-53.20703125Z" style="pointer-events: none; fill: none; opacity: 1;"></path><g><g class="mark-symbol role-legend-symbol" style="pointer-events: none;"><path transform="translate(6,6)" d="M-5,0L5,0" style="fill: none; stroke: #e45756; stroke-width: 1.5; opacity: 1;"></path></g><g class="mark-text role-legend-label" style="pointer-events: none;"><text text-anchor="start" transform="translate(16,9)" style="font-family: Roboto Condensed; font-size: 10px; fill: #000; opacity: 1;">Iceland</text></g></g><path class="foreground" d="" style="pointer-events: none; display: none; fill: none;"></path></g><g transform="translate(0,39)"><path class="background" d="M0,0h53.20703125v11h-53.20703125Z" style="pointer-events: none; fill: none; opacity: 1;"></path><g><g class="mark-symbol role-legend-symbol" style="pointer-events: none;"><path transform="translate(6,6)" d="M-5,0L5,0" style="fill: none; stroke: #72b7b2; stroke-width: 1.5; opacity: 1;"></path></g><g class="mark-text role-legend-label" style="pointer-events: none;"><text text-anchor="start" transform="translate(16,9)" style="font-family: Roboto Condensed; font-size: 10px; fill: #000; opacity: 1;">Norway</text></g></g><path class="foreground" d="" style="pointer-events: none; display: none; fill: none;"></path></g><g transform="translate(0,52)"><path class="background" d="M0,0h53.20703125v11h-53.20703125Z" style="pointer-events: none; fill: none; opacity: 1;"></path><g><g class="mark-symbol role-legend-symbol" style="pointer-events: none;"><path transform="translate(6,6)" d="M-5,0L5,0" style="fill: none; stroke: #54a24b; stroke-width: 1.5; opacity: 1;"></path></g><g class="mark-text role-legend-label" style="pointer-events: none;"><text text-anchor="start" transform="translate(16,9)" style="font-family: Roboto Condensed; font-size: 10px; fill: #000; opacity: 1;">Sweden</text></g></g><path class="foreground" d="" style="pointer-events: none; display: none; fill: none;"></path></g></g></g><path class="foreground" d="" style="pointer-events: none; display: none; fill: none;"></path></g></g></g><path class="foreground" d="" style="pointer-events: none; display: none; fill: none;"></path></g></g></g><path class="foreground" d="" style="display: none; fill: none;"></path></g></g></g></svg>