<svg class="marks" width="950" height="344" viewBox="0 0 950 344" version="1.1" xmlns="http://www.w3.org/2000/svg" xmlns:xlink="http://www.w3.org/1999/xlink"><rect width="950" height="344" style="fill: white;"></rect><defs><clipPath id="clip1"><rect x="0" y="0" width="400" height="300"></rect></clipPath><clipPath id="clip2"><rect x="0" y="0" width="400" height="300"></rect></clipPath><clipPath id="clip3"><rect x="0" y="0" width="400" height="300"></rect></clipPath><clipPath id="clip4"><rect x="0" y="0" width="400" height="300"></rect></clipPath><clipPath id="clip5"><rect x="0" y="0" width="400" height="300"></rect></clipPath><clipPath id="clip6"><rect x="0" y="0" width="400" height="300"></rect></clipPath><clipPath id="clip7"><rect x="0" y="0" width="400" height="300"></rect></clipPath><clipPath id="clip8"><rect x="0" y="0" width="400" height="300"></rect></clipPath><clipPath id="clip9"><rect x="0" y="0" width="400" height="300"></rect></clipPath></defs><g transform="translate(22,27)"><g class="mark-group role-frame root"><g transform="translate(0,0)"><path class="background" d="M0,0h0v0h0Z" style="fill: none;"></path><g><g class="mark-group role-scope concat_0_group"><g transform="translate(0,0)"><path class="background" d="M0,0h400v300h-400Z" style="fill: none; stroke: #ddd; stroke-width: 0;"></path><g><g class="mark-group role-axis"><g transform="translate(0.5,0.5)"><path class="background" d="M0,0h0v0h0Z" style="pointer-events: none; fill: none;"></path><g><g class="mark-rule role-axis-grid" style="pointer-events: none;"><line transform="translate(0,300)" x2="400" y2="0" style="fill: none; stroke: #ddd; stroke-width: 1; opacity: 1;"></line><line transform="translate(0,263)" x2="400" y2="0" style="fill: none; stroke: #ddd; stroke-width: 1; opacity: 1;"></line><line transform="translate(0,225)" x2="400" y2="0" style="fill: none; stroke: #ddd; stroke-width: 1; opacity: 1;"></line><line transform="translate(0,188)" x2="400" y2="0" style="fill: none; stroke: #ddd; stroke-width: 1; opacity: 1;"></line><line transform="translate(0,150)" x2="400" y2="0" style="fill: none; stroke: #ddd; stroke-width: 1; opacity: 1;"></line><line transform="translate(0,113)" x2="400" y2="0" style="fill: none; stroke: #ddd; stroke-width: 1; opacity: 1;"></line><line transform="translate(0,75)" x2="400" y2="0" style="fill: none; stroke: #ddd; stroke-width: 1; opacity: 1;"></line><line transform="translate(0,38)" x2="400" y2="0" style="fill: none; stroke: #ddd; stroke-width: 1; opacity: 1;"></line><line transform="translate(0,0)" x2="400" y2="0" style="fill: none; stroke: #ddd; stroke-width: 1; opacity: 1;"></line></g></g><path class="foreground" d="" style="pointer-events: none; display: none; fill: none;"></path></g></g><g class="mark-group role-axis"><g transform="translate(0.5,300.5)"><path class="background" d="M0,0h0v0h0Z" style="pointer-events: none; fill: none;"></path><g><g class="mark-text role-axis-label" style="pointer-events: none;"><text text-anchor="start" transform="translate(0,10)" style="font-family: Roboto Condensed; font-size: 10px; fill: #000; opacity: 1;">Apr 09</text><text text-anchor="middle" transform="translate(26.666666666666668,10)" style="font-family: Roboto Condensed; font-size: 10px; fill: #000; opacity: 0;">Apr 11</text><text text-anchor="middle" transform="translate(53.333333333333336,10)" style="font-family: Roboto Condensed; font-size: 10px; fill: #000; opacity: 1;">Apr 13</text><text text-anchor="middle" transform="translate(80,10)" style="font-family: Roboto Condensed; font-size: 10px; fill: #000; opacity: 0;">Apr 15</text><text text-anchor="middle" transform="translate(106.66666666666667,10)" style="font-family: Roboto Condensed; font-size: 10px; fill: #000; opacity: 1;">Apr 17</text><text text-anchor="middle" transform="translate(133.33333333333331,10)" style="font-family: Roboto Condensed; font-size: 10px; fill: #000; opacity: 0;">Apr 19</text><text text-anchor="middle" transform="translate(160,10)" style="font-family: Roboto Condensed; font-size: 10px; fill: #000; opacity: 1;">Apr 21</text><text text-anchor="middle" transform="translate(186.66666666666666,10)" style="font-family: Roboto Condensed; font-size: 10px; fill: #000; opacity: 0;">Apr 23</text><text text-anchor="middle" transform="translate(213.33333333333334,10)" style="font-family: Roboto Condensed; font-size: 10px; fill: #000; opacity: 1;">Apr 25</text><text text-anchor="middle" transform="translate(240,10)" style="font-family: Roboto Condensed; font-size: 10px; fill: #000; opacity: 0;">Apr 27</text><text text-anchor="middle" transform="translate(266.66666666666663,10)" style="font-family: Roboto Condensed; font-size: 10px; fill: #000; opacity: 1;">Apr 29</text><text text-anchor="middle" transform="translate(293.3333333333333,10)" style="font-family: Roboto Condensed; font-size: 10px; fill: #000; opacity: 0;">May 01</text><text text-anchor="middle" transform="translate(320,10)" style="font-family: Roboto Condensed; font-size: 10px; fill: #000; opacity: 1;">May 03</text><text text-anchor="middle" transform="translate(346.6666666666667,10)" style="font-family: Roboto Condensed; font-size: 10px; fill: #000; opacity: 0;">May 05</text><text text-anchor="middle" transform="translate(373.3333333333333,10)" style="font-family: Roboto Condensed; font-size: 10px; fill: #000; opacity: 1;">May 07</text><text text-anchor="end" transform="translate(400,10)" style="font-family: Roboto Condensed; font-size: 10px; fill: #000; opacity: 0;">May 09</text></g><g class="mark-rule role-axis-domain" style="pointer-events: none;"><line transform="translate(0,0)" x2="400" y2="0" style="fill: none; stroke: lightgray; stroke-width: 1; opacity: 1;"></line></g></g><path class="foreground" d="" style="pointer-events: none; display: none; fill: none;"></path></g></g><g class="mark-group role-axis"><g transform="translate(0.5,0.5)"><path class="background" d="M0,0h0v0h0Z" style="pointer-events: none; fill: none;"></path><g><g class="mark-text role-axis-label" style="pointer-events: none;"><text text-anchor="end" transform="translate(-2,303)" style="font-family: Roboto Condensed; font-size: 10px; fill: #000; opacity: 1;">0</text><text text-anchor="end" transform="translate(-2,265.5)" style="font-family: Roboto Condensed; font-size: 10px; fill: #000; opacity: 1;">50</text><text text-anchor="end" transform="translate(-2,228)" style="font-family: Roboto Condensed; font-size: 10px; fill: #000; opacity: 1;">100</text><text text-anchor="end" transform="translate(-2,190.5)" style="font-family: Roboto Condensed; font-size: 10px; fill: #000; opacity: 1;">150</text><text text-anchor="end" transform="translate(-2,153)" style="font-family: Roboto Condensed; font-size: 10px; fill: #000; opacity: 1;">200</text><text text-anchor="end" transform="translate(-2,115.5)" style="font-family: Roboto Condensed; font-size: 10px; fill: #000; opacity: 1;">250</text><text text-anchor="end" transform="translate(-2,78)" style="font-family: Roboto Condensed; font-size: 10px; fill: #000; opacity: 1;">300</text><text text-anchor="end" transform="translate(-2,40.5)" style="font-family: Roboto Condensed; font-size: 10px; fill: #000; opacity: 1;">350</text><text text-anchor="end" transform="translate(-2,3)" style="font-family: Roboto Condensed; font-size: 10px; fill: #000; opacity: 1;">400</text></g><g class="mark-rule role-axis-domain" style="pointer-events: none;"><line transform="translate(0,300)" x2="0" y2="-300" style="fill: none; stroke: lightgray; stroke-width: 1; opacity: 1;"></line></g></g><path class="foreground" d="" style="pointer-events: none; display: none; fill: none;"></path></g></g><g class="mark-group role-scope concat_0_layer_0_pathgroup"><g transform="translate(0,0)"><path class="background" d="M0,0h400v300h-400Z" style="fill: none;"></path><g><g class="mark-line role-mark concat_0_layer_0_marks" clip-path="url(#clip1)"><path d="M-440.00000000000006,300L-426.6666666666667,300L-413.33333333333337,299.89285714285717L-400,299.89285714285717L-386.6666666666667,299.89285714285717L-373.3333333333333,299.89285714285717L-360,299.89285714285717L-346.6666666666667,299.89285714285717L-333.33333333333337,299.89285714285717L-320,300L-306.6666666666667,300L-293.3333333333333,300L-280,300L-266.66666666666663,300L-253.33333333333331,300L-240,299.4642857142857L-226.66666666666666,299.4642857142857L-213.33333333333334,299.4642857142857L-200,299.4642857142857L-186.66666666666666,299.4642857142857L-173.33333333333334,299.4642857142857L-160,299.3571428571429L-146.66666666666666,299.89285714285717L-133.33333333333331,299.3571428571429L-120,299.25L-106.66666666666667,299.25L-93.33333333333333,297.2142857142857L-80,297.2142857142857L-66.66666666666666,297.32142857142856L-53.333333333333336,297.32142857142856L-40,297.8571428571429L-26.666666666666668,297.9642857142857L-13.333333333333334,297.9642857142857L0,300L13.333333333333334,300L26.666666666666668,300L40,300L53.333333333333336,300L66.66666666666666,300L80,300L93.33333333333333,300L106.66666666666667,300L120,300L133.33333333333331,300L146.66666666666666,300L160,300L173.33333333333334,300L186.66666666666666,300L200,300L213.33333333333334,300L226.66666666666666,300L240,300L253.33333333333331,300L266.66666666666663,300L280,300L293.3333333333333,300L306.6666666666667,300L320,300L333.33333333333337,300L346.6666666666667,300L360,300L373.3333333333333,300L386.6666666666667,300L400,300" style="fill: none; stroke: #e45756; stroke-width: 2; opacity: 1;"></path></g></g><path class="foreground" d="" style="display: none; fill: none;"></path></g><g transform="translate(0,0)"><path class="background" d="M0,0h400v300h-400Z" style="fill: none;"></path><g><g class="mark-line role-mark concat_0_layer_0_marks" clip-path="url(#clip2)"><path d="M-440.00000000000006,300L-426.6666666666667,300L-413.33333333333337,300L-400,300L-386.6666666666667,300L-373.3333333333333,300L-360,300L-346.6666666666667,299.67857142857144L-333.33333333333337,299.67857142857144L-320,299.67857142857144L-306.6666666666667,299.67857142857144L-293.3333333333333,299.3571428571429L-280,299.25L-266.66666666666663,299.25L-253.33333333333331,299.57142857142856L-240,299.57142857142856L-226.66666666666666,299.25L-213.33333333333334,299.0357142857143L-200,299.1428571428571L-186.66666666666666,299.25L-173.33333333333334,298.7142857142857L-160,298.2857142857143L-146.66666666666666,298.07142857142856L-133.33333333333331,297.6428571428571L-120,297.10714285714283L-106.66666666666667,296.7857142857143L-93.33333333333333,296.1428571428571L-80,295.7142857142857L-66.66666666666666,295.82142857142856L-53.333333333333336,295.07142857142856L-40,295.2857142857143L-26.666666666666668,294.6428571428571L-13.333333333333334,293.89285714285717L0,293.7857142857143L13.333333333333334,294.2142857142857L26.666666666666668,293.89285714285717L40,293.89285714285717L53.333333333333336,293.7857142857143L66.66666666666666,294.6428571428571L80,294.75L93.33333333333333,295.2857142857143L106.66666666666667,294.8571428571429L120,295.1785714285714L133.33333333333331,296.0357142857143L146.66666666666666,294.9642857142857L160,295.39285714285717L173.33333333333334,296.0357142857143L186.66666666666666,295.5L200,295.92857142857144L213.33333333333334,296.0357142857143L226.66666666666666,296.1428571428571L240,297.42857142857144L253.33333333333331,297.42857142857144L266.66666666666663,297.8571428571429L280,298.2857142857143L293.3333333333333,298.82142857142856L306.6666666666667,298.92857142857144L320,298.92857142857144L333.33333333333337,299.0357142857143L346.6666666666667,299.0357142857143L360,299.0357142857143L373.3333333333333,299.25L386.6666666666667,299.1428571428571L400,299.1428571428571" style="fill: none; stroke: #f58518; stroke-width: 2; opacity: 1;"></path></g></g><path class="foreground" d="" style="display: none; fill: none;"></path></g><g transform="translate(0,0)"><path class="background" d="M0,0h400v300h-400Z" style="fill: none;"></path><g><g class="mark-line role-mark concat_0_layer_0_marks" clip-path="url(#clip3)"><path d="M-440.00000000000006,285.85714285714283L-426.6666666666667,283.17857142857144L-413.33333333333337,280.7142857142857L-400,260.57142857142856L-386.6666666666667,241.92857142857142L-373.3333333333333,234.10714285714286L-360,204.85714285714286L-346.6666666666667,198.96428571428572L-333.33333333333337,188.03571428571428L-320,179.14285714285717L-306.6666666666667,186.10714285714286L-293.3333333333333,197.99999999999997L-280,188.14285714285717L-266.66666666666663,201.64285714285714L-253.33333333333331,189.85714285714283L-240,188.35714285714286L-226.66666666666666,162L-213.33333333333334,150L-200,135.64285714285717L-186.66666666666666,126.10714285714286L-173.33333333333334,102.75000000000001L-160,96.75L-146.66666666666666,83.46428571428572L-133.33333333333331,104.5714285714286L-120,109.5L-106.66666666666667,109.39285714285715L-93.33333333333333,109.5L-80,126.9642857142857L-66.66666666666666,135.5357142857143L-53.333333333333336,149.67857142857144L-40,147.85714285714286L-26.666666666666668,145.17857142857144L-13.333333333333334,168.9642857142857L0,186L13.333333333333334,198.85714285714283L26.666666666666668,207.96428571428572L40,210.21428571428572L53.333333333333336,220.92857142857142L66.66666666666666,242.46428571428572L80,229.92857142857144L93.33333333333333,226.60714285714286L106.66666666666667,233.25L120,232.82142857142856L133.33333333333331,240.75L146.66666666666666,240.75L160,239.14285714285714L173.33333333333334,235.92857142857144L186.66666666666666,245.89285714285714L200,243.64285714285714L213.33333333333334,250.39285714285714L226.66666666666666,251.89285714285714L240,252.53571428571428L253.33333333333331,249.75L266.66666666666663,260.1428571428571L280,263.89285714285717L293.3333333333333,265.7142857142857L306.6666666666667,266.7857142857143L320,265.7142857142857L333.33333333333337,267.32142857142856L346.6666666666667,268.3928571428571L360,269.3571428571429L373.3333333333333,268.2857142857143L386.6666666666667,269.25L400,268.92857142857144" style="fill: none; stroke: #4c78a8; stroke-width: 2; opacity: 1;"></path></g></g><path class="foreground" d="" style="display: none; fill: none;"></path></g></g><g class="mark-group role-scope concat_0_layer_1_pathgroup"><g transform="translate(0,0)"><path class="background" d="M0,0h400v300h-400Z" style="fill: none;"></path><g><g class="mark-line role-mark concat_0_layer_1_marks" clip-path="url(#clip4)"><path d="M-520,300L-506.66666666666663,300L-493.33333333333337,300L-480,300L-466.6666666666667,300L-453.3333333333333,300L-440.00000000000006,300L-426.6666666666667,300L-413.33333333333337,299.25L-400,300L-386.6666666666667,300L-373.3333333333333,300L-360,300L-346.6666666666667,300L-333.33333333333337,300L-320,300L-306.6666666666667,300L-293.3333333333333,300L-280,300L-266.66666666666663,300L-253.33333333333331,300L-240,296.25L-226.66666666666666,300L-213.33333333333334,300L-200,300L-186.66666666666666,300L-173.33333333333334,300L-160,299.25L-146.66666666666666,300L-133.33333333333331,296.25L-120,299.25L-106.66666666666667,300L-93.33333333333333,285.75L-80,300L-66.66666666666666,300L-53.333333333333336,300L-40,300L-26.666666666666668,300L-13.333333333333334,300L0,300L13.333333333333334,300L26.666666666666668,300L40,300L53.333333333333336,300L66.66666666666666,300L80,300L93.33333333333333,300L106.66666666666667,300L120,300L133.33333333333331,300L146.66666666666666,300L160,300L173.33333333333334,300L186.66666666666666,300L200,300L213.33333333333334,300L226.66666666666666,300L240,300L253.33333333333331,300L266.66666666666663,300L280,300L293.3333333333333,300L306.6666666666667,300L320,300L333.33333333333337,300L346.6666666666667,300L360,300L373.3333333333333,300L386.6666666666667,300L400,300" style="fill: none; stroke: #e45756; stroke-width: 2; opacity: 0.2;"></path></g></g><path class="foreground" d="" style="display: none; fill: none;"></path></g><g transform="translate(0,0)"><path class="background" d="M0,0h400v300h-400Z" style="fill: none;"></path><g><g class="mark-line role-mark concat_0_layer_1_marks" clip-path="url(#clip5)"><path d="M-520,300L-506.66666666666663,300L-493.33333333333337,300L-480,300L-466.6666666666667,300L-453.3333333333333,300L-440.00000000000006,300L-426.6666666666667,300L-413.33333333333337,300L-400,300L-386.6666666666667,300L-373.3333333333333,300L-360,300L-346.6666666666667,297.75L-333.33333333333337,300L-320,300L-306.6666666666667,300L-293.3333333333333,297.75L-280,299.25L-266.66666666666663,300L-253.33333333333331,300L-240,300L-226.66666666666666,297.75L-213.33333333333334,298.5L-200,298.5L-186.66666666666666,300L-173.33333333333334,296.25L-160,297L-146.66666666666666,298.5L-133.33333333333331,294.75L-120,294.75L-106.66666666666667,296.25L-93.33333333333333,295.5L-80,293.25L-66.66666666666666,297.75L-53.333333333333336,293.25L-40,296.25L-26.666666666666668,290.25L-13.333333333333334,291L0,294.75L13.333333333333334,296.25L26.666666666666668,295.5L40,293.25L53.333333333333336,295.5L66.66666666666666,296.25L80,291.75L93.33333333333333,298.5L106.66666666666667,293.25L120,297.75L133.33333333333331,299.25L146.66666666666666,288L160,299.25L173.33333333333334,296.25L186.66666666666666,294.75L200,296.25L213.33333333333334,298.5L226.66666666666666,300L240,297L253.33333333333331,299.25L266.66666666666663,299.25L280,297.75L293.3333333333333,300L306.6666666666667,299.25L320,300L333.33333333333337,297.75L346.6666666666667,299.25L360,299.25L373.3333333333333,299.25L386.6666666666667,299.25L400,299.25" style="fill: none; stroke: #f58518; stroke-width: 2; opacity: 0.2;"></path></g></g><path class="foreground" d="" style="display: none; fill: none;"></path></g><g transform="translate(0,0)"><path class="background" d="M0,0h400v300h-400Z" style="fill: none;"></path><g><g class="mark-line role-mark concat_0_layer_1_marks" clip-path="url(#clip6)"><path d="M-520,297L-506.66666666666663,295.5L-493.33333333333337,294.75L-480,282L-466.6666666666667,276.75L-453.3333333333333,284.25L-440.00000000000006,270.75L-426.6666666666667,278.25L-413.33333333333337,278.25L-400,153.75L-386.6666666666667,151.5L-373.3333333333333,222L-360,79.5L-346.6666666666667,229.5L-333.33333333333337,201.75L-320,216L-306.6666666666667,202.5L-293.3333333333333,234.75L-280,153L-266.66666666666663,174.00000000000003L-253.33333333333331,147L-240,191.25L-226.66666666666666,31.499999999999993L-213.33333333333334,118.5L-200,134.25L-186.66666666666666,86.25L-173.33333333333334,10.500000000000009L-160,105L-146.66666666666666,98.25L-133.33333333333331,179.24999999999997L-120,153L-106.66666666666667,133.49999999999997L-93.33333333333333,87.00000000000001L-80,132.75L-66.66666666666666,165L-53.333333333333336,197.25L-40,166.49999999999997L-26.666666666666668,134.25L-13.333333333333334,300L0,206.25L13.333333333333334,222.74999999999997L26.666666666666668,228.75L40,213L53.333333333333336,241.49999999999997L66.66666666666666,285L80,212.25L93.33333333333333,183L106.66666666666667,269.25L120,225.74999999999997L133.33333333333331,268.5L146.66666666666666,241.49999999999997L160,273.75L173.33333333333334,189.75000000000003L186.66666666666666,252.75L200,253.5L213.33333333333334,273L226.66666666666666,279L240,246.00000000000003L253.33333333333331,254.25L266.66666666666663,262.5L280,279L293.3333333333333,266.25L306.6666666666667,280.5L320,271.5L333.33333333333337,257.25L346.6666666666667,261.75L360,269.25L373.3333333333333,271.5L386.6666666666667,273L400,278.25" style="fill: none; stroke: #4c78a8; stroke-width: 2; opacity: 0.2;"></path></g></g><path class="foreground" d="" style="display: none; fill: none;"></path></g></g><g class="mark-group role-title"><g transform="translate(200,-22)"><path class="background" d="M0,0h0v0h0Z" style="pointer-events: none; fill: none;"></path><g><g class="mark-text role-title-text" style="pointer-events: none;"><text text-anchor="middle" transform="translate(0,10)" style="font-family: Roboto Condensed; font-size: 13px; font-weight: normal; fill: #000; opacity: 1;">7-day average (Daily values in light color)</text></g></g><path class="foreground" d="" style="pointer-events: none; display: none; fill: none;"></path></g></g></g><path class="foreground" d="" style="display: none; fill: none;"></path></g></g><g class="mark-group role-scope concat_1_group"><g transform="translate(445,0)"><path class="background" d="M0,0h400v300h-400Z" style="fill: none; stroke: #ddd; stroke-width: 0;"></path><g><g class="mark-group role-axis"><g transform="translate(0.5,0.5)"><path class="background" d="M0,0h0v0h0Z" style="pointer-events: none; fill: none;"></path><g><g class="mark-rule role-axis-grid" style="pointer-events: none;"><line transform="translate(0,300)" x2="400" y2="0" style="fill: none; stroke: #ddd; stroke-width: 1; opacity: 1;"></line><line transform="translate(0,267)" x2="400" y2="0" style="fill: none; stroke: #ddd; stroke-width: 1; opacity: 1;"></line><line transform="translate(0,233)" x2="400" y2="0" style="fill: none; stroke: #ddd; stroke-width: 1; opacity: 1;"></line><line transform="translate(0,200)" x2="400" y2="0" style="fill: none; stroke: #ddd; stroke-width: 1; opacity: 1;"></line><line transform="translate(0,167)" x2="400" y2="0" style="fill: none; stroke: #ddd; stroke-width: 1; opacity: 1;"></line><line transform="translate(0,133)" x2="400" y2="0" style="fill: none; stroke: #ddd; stroke-width: 1; opacity: 1;"></line><line transform="translate(0,100)" x2="400" y2="0" style="fill: none; stroke: #ddd; stroke-width: 1; opacity: 1;"></line><line transform="translate(0,67)" x2="400" y2="0" style="fill: none; stroke: #ddd; stroke-width: 1; opacity: 1;"></line><line transform="translate(0,33)" x2="400" y2="0" style="fill: none; stroke: #ddd; stroke-width: 1; opacity: 1;"></line><line transform="translate(0,0)" x2="400" y2="0" style="fill: none; stroke: #ddd; stroke-width: 1; opacity: 1;"></line></g></g><path class="foreground" d="" style="pointer-events: none; display: none; fill: none;"></path></g></g><g class="mark-group role-axis"><g transform="translate(0.5,300.5)"><path class="background" d="M0,0h0v0h0Z" style="pointer-events: none; fill: none;"></path><g><g class="mark-text role-axis-label" style="pointer-events: none;"><text text-anchor="start" transform="translate(0,10)" style="font-family: Roboto Condensed; font-size: 10px; fill: #000; opacity: 1;">Apr 09</text><text text-anchor="middle" transform="translate(26.666666666666668,10)" style="font-family: Roboto Condensed; font-size: 10px; fill: #000; opacity: 0;">Apr 11</text><text text-anchor="middle" transform="translate(53.333333333333336,10)" style="font-family: Roboto Condensed; font-size: 10px; fill: #000; opacity: 1;">Apr 13</text><text text-anchor="middle" transform="translate(80,10)" style="font-family: Roboto Condensed; font-size: 10px; fill: #000; opacity: 0;">Apr 15</text><text text-anchor="middle" transform="translate(106.66666666666667,10)" style="font-family: Roboto Condensed; font-size: 10px; fill: #000; opacity: 1;">Apr 17</text><text text-anchor="middle" transform="translate(133.33333333333331,10)" style="font-family: Roboto Condensed; font-size: 10px; fill: #000; opacity: 0;">Apr 19</text><text text-anchor="middle" transform="translate(160,10)" style="font-family: Roboto Condensed; font-size: 10px; fill: #000; opacity: 1;">Apr 21</text><text text-anchor="middle" transform="translate(186.66666666666666,10)" style="font-family: Roboto Condensed; font-size: 10px; fill: #000; opacity: 0;">Apr 23</text><text text-anchor="middle" transform="translate(213.33333333333334,10)" style="font-family: Roboto Condensed; font-size: 10px; fill: #000; opacity: 1;">Apr 25</text><text text-anchor="middle" transform="translate(240,10)" style="font-family: Roboto Condensed; font-size: 10px; fill: #000; opacity: 0;">Apr 27</text><text text-anchor="middle" transform="translate(266.66666666666663,10)" style="font-family: Roboto Condensed; font-size: 10px; fill: #000; opacity: 1;">Apr 29</text><text text-anchor="middle" transform="translate(293.3333333333333,10)" style="font-family: Roboto Condensed; font-size: 10px; fill: #000; opacity: 0;">May 01</text><text text-anchor="middle" transform="translate(320,10)" style="font-family: Roboto Condensed; font-size: 10px; fill: #000; opacity: 1;">May 03</text><text text-anchor="middle" transform="translate(346.6666666666667,10)" style="font-family: Roboto Condensed; font-size: 10px; fill: #000; opacity: 0;">May 05</text><text text-anchor="middle" transform="translate(373.3333333333333,10)" style="font-family: Roboto Condensed; font-size: 10px; fill: #000; opacity: 1;">May 07</text><text text-anchor="end" transform="translate(400,10)" style="font-family: Roboto Condensed; font-size: 10px; fill: #000; opacity: 0;">May 09</text></g><g class="mark-rule role-axis-domain" style="pointer-events: none;"><line transform="translate(0,0)" x2="400" y2="0" style="fill: none; stroke: lightgray; stroke-width: 1; opacity: 1;"></line></g></g><path class="foreground" d="" style="pointer-events: none; display: none; fill: none;"></path></g></g><g class="mark-group role-axis"><g transform="translate(0.5,0.5)"><path class="background" d="M0,0h0v0h0Z" style="pointer-events: none; fill: none;"></path><g><g class="mark-text role-axis-label" style="pointer-events: none;"><text text-anchor="end" transform="translate(-2,303)" style="font-family: Roboto Condensed; font-size: 10px; fill: #000; opacity: 1;">0</text><text text-anchor="end" transform="translate(-2,269.66666666666663)" style="font-family: Roboto Condensed; font-size: 10px; fill: #000; opacity: 1;">1,000</text><text text-anchor="end" transform="translate(-2,236.33333333333334)" style="font-family: Roboto Condensed; font-size: 10px; fill: #000; opacity: 1;">2,000</text><text text-anchor="end" transform="translate(-2,203.00000000000003)" style="font-family: Roboto Condensed; font-size: 10px; fill: #000; opacity: 1;">3,000</text><text text-anchor="end" transform="translate(-2,169.66666666666669)" style="font-family: Roboto Condensed; font-size: 10px; fill: #000; opacity: 1;">4,000</text><text text-anchor="end" transform="translate(-2,136.33333333333331)" style="font-family: Roboto Condensed; font-size: 10px; fill: #000; opacity: 1;">5,000</text><text text-anchor="end" transform="translate(-2,103.00000000000001)" style="font-family: Roboto Condensed; font-size: 10px; fill: #000; opacity: 1;">6,000</text><text text-anchor="end" transform="translate(-2,69.66666666666666)" style="font-family: Roboto Condensed; font-size: 10px; fill: #000; opacity: 1;">7,000</text><text text-anchor="end" transform="translate(-2,36.33333333333335)" style="font-family: Roboto Condensed; font-size: 10px; fill: #000; opacity: 1;">8,000</text><text text-anchor="end" transform="translate(-2,3)" style="font-family: Roboto Condensed; font-size: 10px; fill: #000; opacity: 1;">9,000</text></g><g class="mark-rule role-axis-domain" style="pointer-events: none;"><line transform="translate(0,300)" x2="0" y2="-300" style="fill: none; stroke: lightgray; stroke-width: 1; opacity: 1;"></line></g></g><path class="foreground" d="" style="pointer-events: none; display: none; fill: none;"></path></g></g><g class="mark-group role-scope concat_1_pathgroup"><g transform="translate(0,0)"><path class="background" d="M0,0h400v300h-400Z" style="fill: none;"></path><g><g class="mark-line role-mark concat_1_marks" clip-path="url(#clip7)"><path d="M-573.3333333333334,300L-560,300L-546.6666666666666,300L-533.3333333333333,300L-520,300L-506.66666666666663,300L-493.33333333333337,300L-480,300L-466.6666666666667,300L-453.3333333333333,300L-440.00000000000006,300L-426.6666666666667,300L-413.33333333333337,299.9666666666667L-400,299.9666666666667L-386.6666666666667,299.9666666666667L-373.3333333333333,299.9666666666667L-360,299.9666666666667L-346.6666666666667,299.9666666666667L-333.33333333333337,299.9666666666667L-320,299.9666666666667L-306.6666666666667,299.9666666666667L-293.3333333333333,299.9666666666667L-280,299.9666666666667L-266.66666666666663,299.9666666666667L-253.33333333333331,299.9666666666667L-240,299.8L-226.66666666666666,299.8L-213.33333333333334,299.8L-200,299.8L-186.66666666666666,299.8L-173.33333333333334,299.8L-160,299.76666666666665L-146.66666666666666,299.76666666666665L-133.33333333333331,299.6L-120,299.56666666666666L-106.66666666666667,299.56666666666666L-93.33333333333333,298.93333333333334L-80,298.93333333333334L-66.66666666666666,298.93333333333334L-53.333333333333336,298.93333333333334L-40,298.93333333333334L-26.666666666666668,298.93333333333334L-13.333333333333334,298.93333333333334L0,298.93333333333334L13.333333333333334,298.93333333333334L26.666666666666668,298.93333333333334L40,298.93333333333334L53.333333333333336,298.93333333333334L66.66666666666666,298.93333333333334L80,298.93333333333334L93.33333333333333,298.93333333333334L106.66666666666667,298.93333333333334L120,298.93333333333334L133.33333333333331,298.93333333333334L146.66666666666666,298.93333333333334L160,298.93333333333334L173.33333333333334,298.93333333333334L186.66666666666666,298.93333333333334L200,298.93333333333334L213.33333333333334,298.93333333333334L226.66666666666666,298.93333333333334L240,298.93333333333334L253.33333333333331,298.93333333333334L266.66666666666663,298.93333333333334L280,298.93333333333334L293.3333333333333,298.93333333333334L306.6666666666667,298.93333333333334L320,298.93333333333334L333.33333333333337,298.93333333333334L346.6666666666667,298.93333333333334L360,298.93333333333334L373.3333333333333,298.93333333333334L386.6666666666667,298.93333333333334L400,298.93333333333334" style="fill: none; stroke: #e45756; stroke-width: 2; opacity: 0.7;"></path></g></g><path class="foreground" d="" style="display: none; fill: none;"></path></g><g transform="translate(0,0)"><path class="background" d="M0,0h400v300h-400Z" style="fill: none;"></path><g><g class="mark-line role-mark concat_1_marks" clip-path="url(#clip8)"><path d="M-573.3333333333334,300L-560,300L-546.6666666666666,300L-533.3333333333333,300L-520,300L-506.66666666666663,300L-493.33333333333337,300L-480,300L-466.6666666666667,300L-453.3333333333333,300L-440.00000000000006,300L-426.6666666666667,300L-413.33333333333337,300L-400,300L-386.6666666666667,300L-373.3333333333333,300L-360,300L-346.6666666666667,299.90000000000003L-333.33333333333337,299.90000000000003L-320,299.90000000000003L-306.6666666666667,299.90000000000003L-293.3333333333333,299.8L-280,299.76666666666665L-266.66666666666663,299.76666666666665L-253.33333333333331,299.76666666666665L-240,299.76666666666665L-226.66666666666666,299.6666666666667L-213.33333333333334,299.6L-200,299.53333333333336L-186.66666666666666,299.53333333333336L-173.33333333333334,299.3666666666667L-160,299.23333333333335L-146.66666666666666,299.1666666666667L-133.33333333333331,298.93333333333334L-120,298.7L-106.66666666666667,298.5333333333333L-93.33333333333333,298.3333333333333L-80,298.03333333333336L-66.66666666666666,297.93333333333334L-53.333333333333336,297.6333333333333L-40,297.46666666666664L-26.666666666666668,297.03333333333336L-13.333333333333334,296.6333333333333L0,296.4L13.333333333333334,296.23333333333335L26.666666666666668,296.0333333333333L40,295.73333333333335L53.333333333333336,295.53333333333336L66.66666666666666,295.3666666666667L80,295L93.33333333333333,294.93333333333334L106.66666666666667,294.6333333333333L120,294.5333333333333L133.33333333333331,294.5L146.66666666666666,293.9666666666667L160,293.93333333333334L173.33333333333334,293.76666666666665L186.66666666666666,293.53333333333336L200,293.3666666666667L213.33333333333334,293.3L226.66666666666666,293.3L240,293.1666666666667L253.33333333333331,293.1333333333333L266.66666666666663,293.09999999999997L280,293L293.3333333333333,293L306.6666666666667,292.96666666666664L320,292.96666666666664L333.33333333333337,292.8666666666667L346.6666666666667,292.83333333333337L360,292.8L373.3333333333333,292.76666666666665L386.6666666666667,292.73333333333335L400,292.7" style="fill: none; stroke: #f58518; stroke-width: 2; opacity: 0.7;"></path></g></g><path class="foreground" d="" style="display: none; fill: none;"></path></g><g transform="translate(0,0)"><path class="background" d="M0,0h400v300h-400Z" style="fill: none;"></path><g><g class="mark-line role-mark concat_1_marks" clip-path="url(#clip9)"><path d="M-573.3333333333334,299.9666666666667L-560,299.9666666666667L-546.6666666666666,299.8L-533.3333333333333,299.5L-520,299.3666666666667L-506.66666666666663,299.1666666666667L-493.33333333333337,298.93333333333334L-480,298.1333333333333L-466.6666666666667,297.09999999999997L-453.3333333333333,296.4L-440.00000000000006,295.1L-426.6666666666667,294.1333333333333L-413.33333333333337,293.1666666666667L-400,286.6666666666667L-386.6666666666667,280.06666666666666L-373.3333333333333,276.6L-360,266.8L-346.6666666666667,263.66666666666663L-333.33333333333337,259.3L-320,255.56666666666666L-306.6666666666667,251.23333333333332L-293.3333333333333,248.33333333333331L-280,241.8L-266.66666666666663,236.2L-253.33333333333331,229.39999999999998L-240,224.56666666666666L-226.66666666666666,212.63333333333333L-213.33333333333334,204.56666666666666L-200,197.2L-186.66666666666666,187.7L-173.33333333333334,174.83333333333334L-160,166.16666666666666L-146.66666666666666,157.20000000000002L-133.33333333333331,151.83333333333334L-120,145.29999999999998L-106.66666666666667,137.9L-93.33333333333333,128.43333333333334L-80,121L-66.66666666666666,114.99999999999999L-53.333333333333336,110.43333333333332L-40,104.50000000000001L-26.666666666666668,97.13333333333335L-13.333333333333334,97.13333333333335L0,92.96666666666667L13.333333333333334,89.53333333333332L26.666666666666668,86.36666666666666L40,82.5L53.333333333333336,79.89999999999999L66.66666666666666,79.23333333333332L80,75.33333333333331L93.33333333333333,70.13333333333333L106.66666666666667,68.76666666666667L120,65.46666666666667L133.33333333333331,64.06666666666668L146.66666666666666,61.46666666666667L160,60.29999999999999L173.33333333333334,55.39999999999999L186.66666666666666,53.29999999999999L200,51.23333333333334L213.33333333333334,50.03333333333334L226.66666666666666,49.09999999999999L240,46.69999999999999L253.33333333333331,44.66666666666666L266.66666666666663,42.99999999999999L280,42.06666666666668L293.3333333333333,40.56666666666667L306.6666666666667,39.69999999999999L320,38.43333333333332L333.33333333333337,36.53333333333333L346.6666666666667,34.83333333333335L360,33.466666666666654L373.3333333333333,32.19999999999998L386.6666666666667,31.000000000000018L400,30.033333333333346" style="fill: none; stroke: #4c78a8; stroke-width: 2; opacity: 0.7;"></path></g></g><path class="foreground" d="" style="display: none; fill: none;"></path></g></g><g class="mark-group role-title"><g transform="translate(200,-22)"><path class="background" d="M0,0h0v0h0Z" style="pointer-events: none; fill: none;"></path><g><g class="mark-text role-title-text" style="pointer-events: none;"><text text-anchor="middle" transform="translate(0,10)" style="font-family: Roboto Condensed; font-size: 13px; font-weight: normal; fill: #000; opacity: 1;">Total</text></g></g><path class="foreground" d="" style="pointer-events: none; display: none; fill: none;"></path></g></g></g><path class="foreground" d="" style="display: none; fill: none;"></path></g></g><g class="mark-group role-legend"><g transform="translate(863,0)"><path class="background" d="M0,0h60v37h-60Z" style="pointer-events: none; fill: none;"></path><g><g class="mark-group role-legend-entry"><g transform="translate(0,0)"><path class="background" d="M0,0h0v0h0Z" style="pointer-events: none; fill: none;"></path><g><g class="mark-group role-scope"><g transform="translate(0,0)"><path class="background" d="M0,0h59.3251953125v11h-59.3251953125Z" style="pointer-events: none; fill: none; opacity: 1;"></path><g><g class="mark-symbol role-legend-symbol" style="pointer-events: none;"><path transform="translate(6,6)" d="M-5,0L5,0" style="fill: none; stroke: #4c78a8; stroke-width: 1.5; opacity: 1;"></path></g><g class="mark-text role-legend-label" style="pointer-events: none;"><text text-anchor="start" transform="translate(16,9)" style="font-family: Roboto Condensed; font-size: 10px; fill: #000; opacity: 1;">Confirmed</text></g></g><path class="foreground" d="" style="pointer-events: none; display: none; fill: none;"></path></g><g transform="translate(0,13)"><path class="background" d="M0,0h59.3251953125v11h-59.3251953125Z" style="pointer-events: none; fill: none; opacity: 1;"></path><g><g class="mark-symbol role-legend-symbol" style="pointer-events: none;"><path transform="translate(6,6)" d="M-5,0L5,0" style="fill: none; stroke: #f58518; stroke-width: 1.5; opacity: 1;"></path></g><g class="mark-text role-legend-label" style="pointer-events: none;"><text text-anchor="start" transform="translate(16,9)" style="font-family: Roboto Condensed; font-size: 10px; fill: #000; opacity: 1;">Deaths</text></g></g><path class="foreground" d="" style="pointer-events: none; display: none; fill: none;"></path></g><g transform="translate(0,26)"><path class="background" d="M0,0h59.3251953125v11h-59.3251953125Z" style="pointer-events: none; fill: none; opacity: 1;"></path><g><g class="mark-symbol role-legend-symbol" style="pointer-events: none;"><path transform="translate(6,6)" d="M-5,0L5,0" style="fill: none; stroke: #e45756; stroke-width: 1.5; opacity: 1;"></path></g><g class="mark-text role-legend-label" style="pointer-events: none;"><text text-anchor="start" transform="translate(16,9)" style="font-family: Roboto Condensed; font-size: 10px; fill: #000; opacity: 1;">Recovered</text></g></g><path class="foreground" d="" style="pointer-events: none; display: none; fill: none;"></path></g></g></g><path class="foreground" d="" style="pointer-events: none; display: none; fill: none;"></path></g></g></g><path class="foreground" d="" style="pointer-events: none; display: none; fill: none;"></path></g></g></g><path class="foreground" d="" style="display: none; fill: none;"></path></g></g></g></svg>