<svg class="marks" width="963" height="344" viewBox="0 0 963 344" version="1.1" xmlns="http://www.w3.org/2000/svg" xmlns:xlink="http://www.w3.org/1999/xlink"><rect width="963" height="344" style="fill: white;"></rect><defs><clipPath id="clip1"><rect x="0" y="0" width="400" height="300"></rect></clipPath><clipPath id="clip2"><rect x="0" y="0" width="400" height="300"></rect></clipPath><clipPath id="clip3"><rect x="0" y="0" width="400" height="300"></rect></clipPath><clipPath id="clip4"><rect x="0" y="0" width="400" height="300"></rect></clipPath><clipPath id="clip5"><rect x="0" y="0" width="400" height="300"></rect></clipPath><clipPath id="clip6"><rect x="0" y="0" width="400" height="300"></rect></clipPath><clipPath id="clip7"><rect x="0" y="0" width="400" height="300"></rect></clipPath><clipPath id="clip8"><rect x="0" y="0" width="400" height="300"></rect></clipPath><clipPath id="clip9"><rect x="0" y="0" width="400" height="300"></rect></clipPath></defs><g transform="translate(30,27)"><g class="mark-group role-frame root"><g transform="translate(0,0)"><path class="background" d="M0,0h0v0h0Z" style="fill: none;"></path><g><g class="mark-group role-scope concat_0_group"><g transform="translate(0,0)"><path class="background" d="M0,0h400v300h-400Z" style="fill: none; stroke: #ddd; stroke-width: 0;"></path><g><g class="mark-group role-axis"><g transform="translate(0.5,0.5)"><path class="background" d="M0,0h0v0h0Z" style="pointer-events: none; fill: none;"></path><g><g class="mark-rule role-axis-grid" style="pointer-events: none;"><line transform="translate(0,300)" x2="400" y2="0" style="fill: none; stroke: #ddd; stroke-width: 1; opacity: 1;"></line><line transform="translate(0,257)" x2="400" y2="0" style="fill: none; stroke: #ddd; stroke-width: 1; opacity: 1;"></line><line transform="translate(0,214)" x2="400" y2="0" style="fill: none; stroke: #ddd; stroke-width: 1; opacity: 1;"></line><line transform="translate(0,171)" x2="400" y2="0" style="fill: none; stroke: #ddd; stroke-width: 1; opacity: 1;"></line><line transform="translate(0,129)" x2="400" y2="0" style="fill: none; stroke: #ddd; stroke-width: 1; opacity: 1;"></line><line transform="translate(0,86)" x2="400" y2="0" style="fill: none; stroke: #ddd; stroke-width: 1; opacity: 1;"></line><line transform="translate(0,43)" x2="400" y2="0" style="fill: none; stroke: #ddd; stroke-width: 1; opacity: 1;"></line><line transform="translate(0,0)" x2="400" y2="0" style="fill: none; stroke: #ddd; stroke-width: 1; opacity: 1;"></line></g></g><path class="foreground" d="" style="pointer-events: none; display: none; fill: none;"></path></g></g><g class="mark-group role-axis"><g transform="translate(0.5,300.5)"><path class="background" d="M0,0h0v0h0Z" style="pointer-events: none; fill: none;"></path><g><g class="mark-text role-axis-label" style="pointer-events: none;"><text text-anchor="start" transform="translate(0,10)" style="font-family: Roboto Condensed; font-size: 10px; fill: #000; opacity: 1;">Apr 09</text><text text-anchor="middle" transform="translate(26.666666666666668,10)" style="font-family: Roboto Condensed; font-size: 10px; fill: #000; opacity: 0;">Apr 11</text><text text-anchor="middle" transform="translate(53.333333333333336,10)" style="font-family: Roboto Condensed; font-size: 10px; fill: #000; opacity: 1;">Apr 13</text><text text-anchor="middle" transform="translate(80,10)" style="font-family: Roboto Condensed; font-size: 10px; fill: #000; opacity: 0;">Apr 15</text><text text-anchor="middle" transform="translate(106.66666666666667,10)" style="font-family: Roboto Condensed; font-size: 10px; fill: #000; opacity: 1;">Apr 17</text><text text-anchor="middle" transform="translate(133.33333333333331,10)" style="font-family: Roboto Condensed; font-size: 10px; fill: #000; opacity: 0;">Apr 19</text><text text-anchor="middle" transform="translate(160,10)" style="font-family: Roboto Condensed; font-size: 10px; fill: #000; opacity: 1;">Apr 21</text><text text-anchor="middle" transform="translate(186.66666666666666,10)" style="font-family: Roboto Condensed; font-size: 10px; fill: #000; opacity: 0;">Apr 23</text><text text-anchor="middle" transform="translate(213.33333333333334,10)" style="font-family: Roboto Condensed; font-size: 10px; fill: #000; opacity: 1;">Apr 25</text><text text-anchor="middle" transform="translate(240,10)" style="font-family: Roboto Condensed; font-size: 10px; fill: #000; opacity: 0;">Apr 27</text><text text-anchor="middle" transform="translate(266.66666666666663,10)" style="font-family: Roboto Condensed; font-size: 10px; fill: #000; opacity: 1;">Apr 29</text><text text-anchor="middle" transform="translate(293.3333333333333,10)" style="font-family: Roboto Condensed; font-size: 10px; fill: #000; opacity: 0;">May 01</text><text text-anchor="middle" transform="translate(320,10)" style="font-family: Roboto Condensed; font-size: 10px; fill: #000; opacity: 1;">May 03</text><text text-anchor="middle" transform="translate(346.6666666666667,10)" style="font-family: Roboto Condensed; font-size: 10px; fill: #000; opacity: 0;">May 05</text><text text-anchor="middle" transform="translate(373.3333333333333,10)" style="font-family: Roboto Condensed; font-size: 10px; fill: #000; opacity: 1;">May 07</text><text text-anchor="end" transform="translate(400,10)" style="font-family: Roboto Condensed; font-size: 10px; fill: #000; opacity: 0;">May 09</text></g><g class="mark-rule role-axis-domain" style="pointer-events: none;"><line transform="translate(0,0)" x2="400" y2="0" style="fill: none; stroke: lightgray; stroke-width: 1; opacity: 1;"></line></g></g><path class="foreground" d="" style="pointer-events: none; display: none; fill: none;"></path></g></g><g class="mark-group role-axis"><g transform="translate(0.5,0.5)"><path class="background" d="M0,0h0v0h0Z" style="pointer-events: none; fill: none;"></path><g><g class="mark-text role-axis-label" style="pointer-events: none;"><text text-anchor="end" transform="translate(-2,303)" style="font-family: Roboto Condensed; font-size: 10px; fill: #000; opacity: 1;">0</text><text text-anchor="end" transform="translate(-2,260.14285714285717)" style="font-family: Roboto Condensed; font-size: 10px; fill: #000; opacity: 1;">500</text><text text-anchor="end" transform="translate(-2,217.28571428571428)" style="font-family: Roboto Condensed; font-size: 10px; fill: #000; opacity: 1;">1,000</text><text text-anchor="end" transform="translate(-2,174.42857142857142)" style="font-family: Roboto Condensed; font-size: 10px; fill: #000; opacity: 1;">1,500</text><text text-anchor="end" transform="translate(-2,131.57142857142858)" style="font-family: Roboto Condensed; font-size: 10px; fill: #000; opacity: 1;">2,000</text><text text-anchor="end" transform="translate(-2,88.71428571428571)" style="font-family: Roboto Condensed; font-size: 10px; fill: #000; opacity: 1;">2,500</text><text text-anchor="end" transform="translate(-2,45.85714285714287)" style="font-family: Roboto Condensed; font-size: 10px; fill: #000; opacity: 1;">3,000</text><text text-anchor="end" transform="translate(-2,3)" style="font-family: Roboto Condensed; font-size: 10px; fill: #000; opacity: 1;">3,500</text></g><g class="mark-rule role-axis-domain" style="pointer-events: none;"><line transform="translate(0,300)" x2="0" y2="-300" style="fill: none; stroke: lightgray; stroke-width: 1; opacity: 1;"></line></g></g><path class="foreground" d="" style="pointer-events: none; display: none; fill: none;"></path></g></g><g class="mark-group role-scope concat_0_layer_0_pathgroup"><g transform="translate(0,0)"><path class="background" d="M0,0h400v300h-400Z" style="fill: none;"></path><g><g class="mark-line role-mark concat_0_layer_0_marks" clip-path="url(#clip1)"><path d="M-440.00000000000006,300L-426.6666666666667,300L-413.33333333333337,299.9877551020408L-400,299.9877551020408L-386.6666666666667,299.9877551020408L-373.3333333333333,299.9877551020408L-360,299.9877551020408L-346.6666666666667,299.9877551020408L-333.33333333333337,299.9877551020408L-320,300L-306.6666666666667,300L-293.3333333333333,300L-280,299.81632653061223L-266.66666666666663,299.81632653061223L-253.33333333333331,299.81632653061223L-240,299.81632653061223L-226.66666666666666,299.81632653061223L-213.33333333333334,299.81632653061223L-200,299.81632653061223L-186.66666666666666,300L-173.33333333333334,300L-160,300L-146.66666666666666,300L-133.33333333333331,300L-120,300L-106.66666666666667,298.934693877551L-93.33333333333333,298.934693877551L-80,297.6857142857143L-66.66666666666666,297.6857142857143L-53.333333333333336,297.6857142857143L-40,297.6857142857143L-26.666666666666668,297.6857142857143L-13.333333333333334,298.75102040816324L0,298.75102040816324L13.333333333333334,297.8448979591837L26.666666666666668,297.8448979591837L40,297.8448979591837L53.333333333333336,297.8448979591837L66.66666666666666,297.8448979591837L80,297.8448979591837L93.33333333333333,295.7755102040816L106.66666666666667,297.930612244898L120,297.930612244898L133.33333333333331,297.930612244898L146.66666666666666,297.930612244898L160,297.930612244898L173.33333333333334,297.930612244898L186.66666666666666,300L200,294.42857142857144L213.33333333333334,294.42857142857144L226.66666666666666,294.42857142857144L240,294.42857142857144L253.33333333333331,294.42857142857144L266.66666666666663,294.42857142857144L280,294.42857142857144L293.3333333333333,300L306.6666666666667,300L320,300L333.33333333333337,262.4204081632653L346.6666666666667,262.4204081632653L360,262.4204081632653L373.3333333333333,251.43673469387755L386.6666666666667,251.43673469387755L400,251.43673469387755" style="fill: none; stroke: #e45756; stroke-width: 2; opacity: 1;"></path></g></g><path class="foreground" d="" style="display: none; fill: none;"></path></g><g transform="translate(0,0)"><path class="background" d="M0,0h400v300h-400Z" style="fill: none;"></path><g><g class="mark-line role-mark concat_0_layer_0_marks" clip-path="url(#clip2)"><path d="M-440.00000000000006,300L-426.6666666666667,300L-413.33333333333337,300L-400,300L-386.6666666666667,299.9877551020408L-373.3333333333333,299.9877551020408L-360,299.9877551020408L-346.6666666666667,299.9755102040816L-333.33333333333337,299.9632653061225L-320,299.9265306122449L-306.6666666666667,299.9142857142857L-293.3333333333333,299.8897959183673L-280,299.87755102040813L-266.66666666666663,299.81632653061223L-253.33333333333331,299.7795918367347L-240,299.7795918367347L-226.66666666666666,299.7673469387755L-213.33333333333334,299.64489795918365L-200,299.36326530612246L-186.66666666666666,299.1918367346939L-173.33333333333334,298.9102040816326L-160,298.9591836734694L-146.66666666666666,298.9102040816326L-133.33333333333331,298.51836734693876L-120,298.2367346938775L-106.66666666666667,297.8326530612245L-93.33333333333333,297.1714285714286L-80,296.9020408163265L-66.66666666666666,296.7183673469388L-53.333333333333336,296.43673469387755L-40,295.9469387755102L-26.666666666666668,294.9673469387755L-13.333333333333334,294.51428571428573L0,294.0612244897959L13.333333333333334,293.730612244898L26.666666666666668,293.7061224489796L40,293.9020408163265L53.333333333333336,294.58775510204083L66.66666666666666,294.58775510204083L80,293.68163265306123L93.33333333333333,293.3877551020408L106.66666666666667,293.51020408163265L120,292.3591836734694L133.33333333333331,292.1510204081633L146.66666666666666,291.9061224489796L160,291.0367346938776L173.33333333333334,291.0122448979592L186.66666666666666,291.57551020408164L200,290.7918367346939L213.33333333333334,291.6612244897959L226.66666666666666,291.9918367346939L240,291.50204081632654L253.33333333333331,292.7755102040816L266.66666666666663,293.57142857142856L280,293.08163265306126L293.3333333333333,293.86530612244894L306.6666666666667,294.1591836734694L320,294.0612244897959L333.33333333333337,293.9387755102041L346.6666666666667,293.8897959183673L360,294.134693877551L373.3333333333333,294.44081632653064L386.6666666666667,293.60816326530613L400,293.2530612244898" style="fill: none; stroke: #f58518; stroke-width: 2; opacity: 1;"></path></g></g><path class="foreground" d="" style="display: none; fill: none;"></path></g><g transform="translate(0,0)"><path class="background" d="M0,0h400v300h-400Z" style="fill: none;"></path><g><g class="mark-line role-mark concat_0_layer_0_marks" clip-path="url(#clip3)"><path d="M-440.00000000000006,298.1755102040816L-426.6666666666667,297.6857142857143L-413.33333333333337,297.1469387755102L-400,295.9102040816326L-386.6666666666667,294.3061224489796L-373.3333333333333,293.81632653061223L-360,291.26938775510206L-346.6666666666667,290.2040816326531L-333.33333333333337,289.97142857142853L-320,289.53061224489795L-306.6666666666667,289.7755102040816L-293.3333333333333,290.46122448979594L-280,289.7142857142857L-266.66666666666663,289.8979591836735L-253.33333333333331,290.1795918367347L-240,288.869387755102L-226.66666666666666,288.45306122448983L-213.33333333333334,286.5795918367347L-200,284.73061224489794L-186.66666666666666,282.84489795918364L-173.33333333333334,282.48979591836735L-160,279.3795918367347L-146.66666666666666,278.3387755102041L-133.33333333333331,275.73061224489794L-120,273.68571428571425L-106.66666666666667,270.35510204081635L-93.33333333333333,266.59591836734694L-80,262.50612244897957L-66.66666666666666,263.3142857142857L-53.333333333333336,261.6734693877551L-40,261.0857142857143L-26.666666666666668,260.1061224489796L-13.333333333333334,257.4857142857143L0,256.2489795918367L13.333333333333334,256.4816326530612L26.666666666666668,254.59591836734694L40,255.26938775510203L53.333333333333336,254.1795918367347L66.66666666666666,254.05714285714285L80,257.0448979591837L93.33333333333333,258.3795918367347L106.66666666666667,256.76326530612243L120,255.0489795918367L133.33333333333331,252.22040816326532L146.66666666666666,253.11428571428573L160,252.52653061224487L173.33333333333334,250.07755102040815L186.66666666666666,248.38775510204084L200,246.72244897959186L213.33333333333334,246.6734693877551L226.66666666666666,247.89795918367346L240,249.19591836734693L253.33333333333331,247.3591836734694L266.66666666666663,247.37142857142857L280,246.89387755102038L293.3333333333333,251.59591836734694L306.6666666666667,252.18367346938774L320,254.97551020408164L333.33333333333337,253.53061224489798L346.6666666666667,255.9795918367347L360,255.72244897959183L373.3333333333333,256.76326530612243L386.6666666666667,254.14285714285717L400,252.9918367346939" style="fill: none; stroke: #4c78a8; stroke-width: 2; opacity: 1;"></path></g></g><path class="foreground" d="" style="display: none; fill: none;"></path></g></g><g class="mark-group role-scope concat_0_layer_1_pathgroup"><g transform="translate(0,0)"><path class="background" d="M0,0h400v300h-400Z" style="fill: none;"></path><g><g class="mark-line role-mark concat_0_layer_1_marks" clip-path="url(#clip4)"><path d="M-520,300L-506.66666666666663,300L-493.33333333333337,300L-480,300L-466.6666666666667,300L-453.3333333333333,300L-440.00000000000006,300L-426.6666666666667,300L-413.33333333333337,299.9142857142857L-400,300L-386.6666666666667,300L-373.3333333333333,300L-360,300L-346.6666666666667,300L-333.33333333333337,300L-320,300L-306.6666666666667,300L-293.3333333333333,300L-280,298.7142857142857L-266.66666666666663,300L-253.33333333333331,300L-240,300L-226.66666666666666,300L-213.33333333333334,300L-200,300L-186.66666666666666,300L-173.33333333333334,300L-160,300L-146.66666666666666,300L-133.33333333333331,300L-120,300L-106.66666666666667,292.54285714285714L-93.33333333333333,300L-80,291.25714285714287L-66.66666666666666,300L-53.333333333333336,300L-40,300L-26.666666666666668,300L-13.333333333333334,300L0,300L13.333333333333334,284.9142857142857L26.666666666666668,300L40,300L53.333333333333336,300L66.66666666666666,300L80,300L93.33333333333333,285.51428571428573L106.66666666666667,300L120,300L133.33333333333331,300L146.66666666666666,300L160,300L173.33333333333334,300L186.66666666666666,300L200,261L213.33333333333334,300L226.66666666666666,300L240,300L253.33333333333331,300L266.66666666666663,300L280,300L293.3333333333333,300L306.6666666666667,300L320,300L333.33333333333337,36.942857142857136L346.6666666666667,300L360,300L373.3333333333333,223.11428571428573L386.6666666666667,300L400,300" style="fill: none; stroke: #e45756; stroke-width: 2; opacity: 0.2;"></path></g></g><path class="foreground" d="" style="display: none; fill: none;"></path></g><g transform="translate(0,0)"><path class="background" d="M0,0h400v300h-400Z" style="fill: none;"></path><g><g class="mark-line role-mark concat_0_layer_1_marks" clip-path="url(#clip5)"><path d="M-520,300L-506.66666666666663,300L-493.33333333333337,300L-480,300L-466.6666666666667,300L-453.3333333333333,300L-440.00000000000006,300L-426.6666666666667,300L-413.33333333333337,300L-400,300L-386.6666666666667,299.9142857142857L-373.3333333333333,300L-360,300L-346.6666666666667,299.9142857142857L-333.33333333333337,299.9142857142857L-320,299.74285714285713L-306.6666666666667,299.9142857142857L-293.3333333333333,299.74285714285713L-280,299.9142857142857L-266.66666666666663,299.57142857142856L-253.33333333333331,299.65714285714284L-240,299.9142857142857L-226.66666666666666,299.65714285714284L-213.33333333333334,299.0571428571429L-200,297.77142857142854L-186.66666666666666,298.7142857142857L-173.33333333333334,297.6L-160,300L-146.66666666666666,299.57142857142856L-133.33333333333331,296.9142857142857L-120,297.0857142857143L-106.66666666666667,294.9428571428571L-93.33333333333333,294.0857142857143L-80,295.7142857142857L-66.66666666666666,298.7142857142857L-53.333333333333336,297.6L-40,293.48571428571427L-26.666666666666668,290.2285714285714L-13.333333333333334,291.77142857142854L0,290.9142857142857L13.333333333333334,293.4L26.666666666666668,298.54285714285714L40,298.9714285714286L53.333333333333336,298.2857142857143L66.66666666666666,290.2285714285714L80,285.42857142857144L93.33333333333333,288.85714285714283L106.66666666666667,294.25714285714287L120,290.48571428571427L133.33333333333331,297.51428571428573L146.66666666666666,296.57142857142856L160,284.14285714285717L173.33333333333334,285.25714285714287L186.66666666666666,292.8L200,288.77142857142854L213.33333333333334,296.57142857142856L226.66666666666666,299.8285714285714L240,293.1428571428571L253.33333333333331,293.0571428571429L266.66666666666663,290.8285714285714L280,289.37142857142857L293.3333333333333,294.25714285714287L306.6666666666667,298.62857142857143L320,299.1428571428571L333.33333333333337,292.2857142857143L346.6666666666667,292.7142857142857L360,292.54285714285714L373.3333333333333,291.51428571428573L386.6666666666667,288.42857142857144L400,296.1428571428571" style="fill: none; stroke: #f58518; stroke-width: 2; opacity: 0.2;"></path></g></g><path class="foreground" d="" style="display: none; fill: none;"></path></g><g transform="translate(0,0)"><path class="background" d="M0,0h400v300h-400Z" style="fill: none;"></path><g><g class="mark-line role-mark concat_0_layer_1_marks" clip-path="url(#clip6)"><path d="M-520,299.8285714285714L-506.66666666666663,299.9142857142857L-493.33333333333337,299.4857142857143L-480,298.8L-466.6666666666667,294.9428571428571L-453.3333333333333,299.4L-440.00000000000006,294.8571428571429L-426.6666666666667,296.4L-413.33333333333337,296.1428571428571L-400,290.8285714285714L-386.6666666666667,287.5714285714286L-373.3333333333333,291.51428571428573L-360,281.57142857142856L-346.6666666666667,287.4L-333.33333333333337,294.77142857142854L-320,293.0571428571429L-306.6666666666667,292.54285714285714L-293.3333333333333,292.37142857142857L-280,286.2857142857143L-266.66666666666663,282.85714285714283L-253.33333333333331,289.37142857142857L-240,285.59999999999997L-226.66666666666666,290.14285714285717L-213.33333333333334,279.4285714285714L-200,279.4285714285714L-186.66666666666666,273.0857142857143L-173.33333333333334,280.37142857142857L-160,267.6L-146.66666666666666,278.3142857142857L-133.33333333333331,271.8857142857143L-120,265.1142857142857L-106.66666666666667,256.1142857142857L-93.33333333333333,246.77142857142854L-80,251.74285714285716L-66.66666666666666,273.25714285714287L-53.333333333333336,266.8285714285714L-40,267.77142857142854L-26.666666666666668,258.25714285714287L-13.333333333333334,237.77142857142857L0,238.1142857142857L13.333333333333334,253.37142857142857L26.666666666666668,260.0571428571429L40,271.54285714285714L53.333333333333336,260.1428571428571L66.66666666666666,257.4L80,258.6857142857143L93.33333333333333,247.45714285714286L106.66666666666667,242.05714285714285L120,248.05714285714285L133.33333333333331,251.74285714285716L146.66666666666666,266.4L160,253.28571428571428L173.33333333333334,241.54285714285714L186.66666666666666,235.6285714285714L200,230.4L213.33333333333334,247.71428571428572L226.66666666666666,260.3142857142857L240,275.48571428571427L253.33333333333331,240.42857142857142L266.66666666666663,241.6285714285714L280,232.28571428571428L293.3333333333333,263.3142857142857L306.6666666666667,251.82857142857142L320,279.85714285714283L333.33333333333337,265.37142857142857L346.6666666666667,257.57142857142856L360,239.82857142857142L373.3333333333333,239.57142857142858L386.6666666666667,244.97142857142856L400,243.77142857142857" style="fill: none; stroke: #4c78a8; stroke-width: 2; opacity: 0.2;"></path></g></g><path class="foreground" d="" style="display: none; fill: none;"></path></g></g><g class="mark-group role-title"><g transform="translate(200,-22)"><path class="background" d="M0,0h0v0h0Z" style="pointer-events: none; fill: none;"></path><g><g class="mark-text role-title-text" style="pointer-events: none;"><text text-anchor="middle" transform="translate(0,10)" style="font-family: Roboto Condensed; font-size: 13px; font-weight: normal; fill: #000; opacity: 1;">7-day average (Daily values in light color)</text></g></g><path class="foreground" d="" style="pointer-events: none; display: none; fill: none;"></path></g></g></g><path class="foreground" d="" style="display: none; fill: none;"></path></g></g><g class="mark-group role-scope concat_1_group"><g transform="translate(450,0)"><path class="background" d="M0,0h400v300h-400Z" style="fill: none; stroke: #ddd; stroke-width: 0;"></path><g><g class="mark-group role-axis"><g transform="translate(0.5,0.5)"><path class="background" d="M0,0h0v0h0Z" style="pointer-events: none; fill: none;"></path><g><g class="mark-rule role-axis-grid" style="pointer-events: none;"><line transform="translate(0,300)" x2="400" y2="0" style="fill: none; stroke: #ddd; stroke-width: 1; opacity: 1;"></line><line transform="translate(0,242)" x2="400" y2="0" style="fill: none; stroke: #ddd; stroke-width: 1; opacity: 1;"></line><line transform="translate(0,185)" x2="400" y2="0" style="fill: none; stroke: #ddd; stroke-width: 1; opacity: 1;"></line><line transform="translate(0,127)" x2="400" y2="0" style="fill: none; stroke: #ddd; stroke-width: 1; opacity: 1;"></line><line transform="translate(0,69)" x2="400" y2="0" style="fill: none; stroke: #ddd; stroke-width: 1; opacity: 1;"></line><line transform="translate(0,12)" x2="400" y2="0" style="fill: none; stroke: #ddd; stroke-width: 1; opacity: 1;"></line></g></g><path class="foreground" d="" style="pointer-events: none; display: none; fill: none;"></path></g></g><g class="mark-group role-axis"><g transform="translate(0.5,300.5)"><path class="background" d="M0,0h0v0h0Z" style="pointer-events: none; fill: none;"></path><g><g class="mark-text role-axis-label" style="pointer-events: none;"><text text-anchor="start" transform="translate(0,10)" style="font-family: Roboto Condensed; font-size: 10px; fill: #000; opacity: 1;">Apr 09</text><text text-anchor="middle" transform="translate(26.666666666666668,10)" style="font-family: Roboto Condensed; font-size: 10px; fill: #000; opacity: 0;">Apr 11</text><text text-anchor="middle" transform="translate(53.333333333333336,10)" style="font-family: Roboto Condensed; font-size: 10px; fill: #000; opacity: 1;">Apr 13</text><text text-anchor="middle" transform="translate(80,10)" style="font-family: Roboto Condensed; font-size: 10px; fill: #000; opacity: 0;">Apr 15</text><text text-anchor="middle" transform="translate(106.66666666666667,10)" style="font-family: Roboto Condensed; font-size: 10px; fill: #000; opacity: 1;">Apr 17</text><text text-anchor="middle" transform="translate(133.33333333333331,10)" style="font-family: Roboto Condensed; font-size: 10px; fill: #000; opacity: 0;">Apr 19</text><text text-anchor="middle" transform="translate(160,10)" style="font-family: Roboto Condensed; font-size: 10px; fill: #000; opacity: 1;">Apr 21</text><text text-anchor="middle" transform="translate(186.66666666666666,10)" style="font-family: Roboto Condensed; font-size: 10px; fill: #000; opacity: 0;">Apr 23</text><text text-anchor="middle" transform="translate(213.33333333333334,10)" style="font-family: Roboto Condensed; font-size: 10px; fill: #000; opacity: 1;">Apr 25</text><text text-anchor="middle" transform="translate(240,10)" style="font-family: Roboto Condensed; font-size: 10px; fill: #000; opacity: 0;">Apr 27</text><text text-anchor="middle" transform="translate(266.66666666666663,10)" style="font-family: Roboto Condensed; font-size: 10px; fill: #000; opacity: 1;">Apr 29</text><text text-anchor="middle" transform="translate(293.3333333333333,10)" style="font-family: Roboto Condensed; font-size: 10px; fill: #000; opacity: 0;">May 01</text><text text-anchor="middle" transform="translate(320,10)" style="font-family: Roboto Condensed; font-size: 10px; fill: #000; opacity: 1;">May 03</text><text text-anchor="middle" transform="translate(346.6666666666667,10)" style="font-family: Roboto Condensed; font-size: 10px; fill: #000; opacity: 0;">May 05</text><text text-anchor="middle" transform="translate(373.3333333333333,10)" style="font-family: Roboto Condensed; font-size: 10px; fill: #000; opacity: 1;">May 07</text><text text-anchor="end" transform="translate(400,10)" style="font-family: Roboto Condensed; font-size: 10px; fill: #000; opacity: 0;">May 09</text></g><g class="mark-rule role-axis-domain" style="pointer-events: none;"><line transform="translate(0,0)" x2="400" y2="0" style="fill: none; stroke: lightgray; stroke-width: 1; opacity: 1;"></line></g></g><path class="foreground" d="" style="pointer-events: none; display: none; fill: none;"></path></g></g><g class="mark-group role-axis"><g transform="translate(0.5,0.5)"><path class="background" d="M0,0h0v0h0Z" style="pointer-events: none; fill: none;"></path><g><g class="mark-text role-axis-label" style="pointer-events: none;"><text text-anchor="end" transform="translate(-2,303)" style="font-family: Roboto Condensed; font-size: 10px; fill: #000; opacity: 1;">0</text><text text-anchor="end" transform="translate(-2,245.30769230769232)" style="font-family: Roboto Condensed; font-size: 10px; fill: #000; opacity: 1;">5,000</text><text text-anchor="end" transform="translate(-2,187.6153846153846)" style="font-family: Roboto Condensed; font-size: 10px; fill: #000; opacity: 1;">10,000</text><text text-anchor="end" transform="translate(-2,129.92307692307693)" style="font-family: Roboto Condensed; font-size: 10px; fill: #000; opacity: 1;">15,000</text><text text-anchor="end" transform="translate(-2,72.23076923076921)" style="font-family: Roboto Condensed; font-size: 10px; fill: #000; opacity: 1;">20,000</text><text text-anchor="end" transform="translate(-2,14.538461538461531)" style="font-family: Roboto Condensed; font-size: 10px; fill: #000; opacity: 1;">25,000</text></g><g class="mark-rule role-axis-domain" style="pointer-events: none;"><line transform="translate(0,300)" x2="0" y2="-300" style="fill: none; stroke: lightgray; stroke-width: 1; opacity: 1;"></line></g></g><path class="foreground" d="" style="pointer-events: none; display: none; fill: none;"></path></g></g><g class="mark-group role-scope concat_1_pathgroup"><g transform="translate(0,0)"><path class="background" d="M0,0h400v300h-400Z" style="fill: none;"></path><g><g class="mark-line role-mark concat_1_marks" clip-path="url(#clip7)"><path d="M-919.9999999999999,300L-906.6666666666666,300L-893.3333333333334,300L-880.0000000000001,300L-866.6666666666666,300L-853.3333333333334,300L-840,300L-826.6666666666667,300L-813.3333333333333,300L-800,300L-786.6666666666666,300L-773.3333333333334,300L-760,300L-746.6666666666666,300L-733.3333333333333,300L-720,300L-706.6666666666666,300L-693.3333333333334,300L-680,300L-666.6666666666667,300L-653.3333333333334,300L-640,300L-626.6666666666666,300L-613.3333333333334,300L-600,300L-586.6666666666666,300L-573.3333333333334,300L-560,300L-546.6666666666666,300L-533.3333333333333,300L-520,300L-506.66666666666663,300L-493.33333333333337,300L-480,300L-466.6666666666667,300L-453.3333333333333,300L-440.00000000000006,300L-426.6666666666667,300L-413.33333333333337,299.98846153846154L-400,299.98846153846154L-386.6666666666667,299.98846153846154L-373.3333333333333,299.98846153846154L-360,299.98846153846154L-346.6666666666667,299.98846153846154L-333.33333333333337,299.98846153846154L-320,299.98846153846154L-306.6666666666667,299.98846153846154L-293.3333333333333,299.98846153846154L-280,299.81538461538463L-266.66666666666663,299.81538461538463L-253.33333333333331,299.81538461538463L-240,299.81538461538463L-226.66666666666666,299.81538461538463L-213.33333333333334,299.81538461538463L-200,299.81538461538463L-186.66666666666666,299.81538461538463L-173.33333333333334,299.81538461538463L-160,299.81538461538463L-146.66666666666666,299.81538461538463L-133.33333333333331,299.81538461538463L-120,299.81538461538463L-106.66666666666667,298.8115384615385L-93.33333333333333,298.8115384615385L-80,297.63461538461536L-66.66666666666666,297.63461538461536L-53.333333333333336,297.63461538461536L-40,297.63461538461536L-26.666666666666668,297.63461538461536L-13.333333333333334,297.63461538461536L0,297.63461538461536L13.333333333333334,295.6038461538462L26.666666666666668,295.6038461538462L40,295.6038461538462L53.333333333333336,295.6038461538462L66.66666666666666,295.6038461538462L80,295.6038461538462L93.33333333333333,293.65384615384613L106.66666666666667,293.65384615384613L120,293.65384615384613L133.33333333333331,293.65384615384613L146.66666666666666,293.65384615384613L160,293.65384615384613L173.33333333333334,293.65384615384613L186.66666666666666,293.65384615384613L200,288.40384615384613L213.33333333333334,288.40384615384613L226.66666666666666,288.40384615384613L240,288.40384615384613L253.33333333333331,288.40384615384613L266.66666666666663,288.40384615384613L280,288.40384615384613L293.3333333333333,288.40384615384613L306.6666666666667,288.40384615384613L320,288.40384615384613L333.33333333333337,252.9923076923077L346.6666666666667,252.9923076923077L360,252.9923076923077L373.3333333333333,242.6423076923077L386.6666666666667,242.6423076923077L400,242.6423076923077" style="fill: none; stroke: #e45756; stroke-width: 2; opacity: 0.7;"></path></g></g><path class="foreground" d="" style="display: none; fill: none;"></path></g><g transform="translate(0,0)"><path class="background" d="M0,0h400v300h-400Z" style="fill: none;"></path><g><g class="mark-line role-mark concat_1_marks" clip-path="url(#clip8)"><path d="M-919.9999999999999,300L-906.6666666666666,300L-893.3333333333334,300L-880.0000000000001,300L-866.6666666666666,300L-853.3333333333334,300L-840,300L-826.6666666666667,300L-813.3333333333333,300L-800,300L-786.6666666666666,300L-773.3333333333334,300L-760,300L-746.6666666666666,300L-733.3333333333333,300L-720,300L-706.6666666666666,300L-693.3333333333334,300L-680,300L-666.6666666666667,300L-653.3333333333334,300L-640,300L-626.6666666666666,300L-613.3333333333334,300L-600,300L-586.6666666666666,300L-573.3333333333334,300L-560,300L-546.6666666666666,300L-533.3333333333333,300L-520,300L-506.66666666666663,300L-493.33333333333337,300L-480,300L-466.6666666666667,300L-453.3333333333333,300L-440.00000000000006,300L-426.6666666666667,300L-413.33333333333337,300L-400,300L-386.6666666666667,299.98846153846154L-373.3333333333333,299.98846153846154L-360,299.98846153846154L-346.6666666666667,299.9769230769231L-333.33333333333337,299.9653846153846L-320,299.9307692307692L-306.6666666666667,299.91923076923075L-293.3333333333333,299.88461538461536L-280,299.8730769230769L-266.66666666666663,299.81538461538463L-253.33333333333331,299.7692307692308L-240,299.7576923076923L-226.66666666666666,299.71153846153845L-213.33333333333334,299.58461538461535L-200,299.2846153846154L-186.66666666666666,299.1115384615385L-173.33333333333334,298.78846153846155L-160,298.78846153846155L-146.66666666666666,298.7307692307692L-133.33333333333331,298.31538461538463L-120,297.9230769230769L-106.66666666666667,297.2423076923077L-93.33333333333333,296.44615384615383L-80,295.8692307692308L-66.66666666666666,295.69615384615383L-53.333333333333336,295.37307692307695L-40,294.49615384615385L-26.666666666666668,293.1807692307692L-13.333333333333334,292.07307692307694L0,290.85L13.333333333333334,289.96153846153845L26.666666666666668,289.7653846153846L40,289.6269230769231L53.333333333333336,289.3961538461539L66.66666666666666,288.08076923076925L80,286.1192307692308L93.33333333333333,284.6192307692308L106.66666666666667,283.8461538461538L120,282.56538461538463L133.33333333333331,282.2307692307692L146.66666666666666,281.7692307692308L160,279.63461538461536L173.33333333333334,277.65L186.66666666666666,276.6807692307692L200,275.16923076923075L213.33333333333334,274.7076923076923L226.66666666666666,274.68461538461537L240,273.76153846153846L253.33333333333331,272.8269230769231L266.66666666666663,271.5923076923077L280,270.16153846153844L293.3333333333333,269.38846153846157L306.6666666666667,269.20384615384614L320,269.08846153846156L333.33333333333337,268.05L346.6666666666667,267.0692307692308L360,266.06538461538463L373.3333333333333,264.9230769230769L386.6666666666667,263.3653846153846L400,262.84615384615387" style="fill: none; stroke: #f58518; stroke-width: 2; opacity: 0.7;"></path></g></g><path class="foreground" d="" style="display: none; fill: none;"></path></g><g transform="translate(0,0)"><path class="background" d="M0,0h400v300h-400Z" style="fill: none;"></path><g><g class="mark-line role-mark concat_1_marks" clip-path="url(#clip9)"><path d="M-919.9999999999999,299.98846153846154L-906.6666666666666,299.98846153846154L-893.3333333333334,299.98846153846154L-880.0000000000001,299.98846153846154L-866.6666666666666,299.98846153846154L-853.3333333333334,299.98846153846154L-840,299.98846153846154L-826.6666666666667,299.98846153846154L-813.3333333333333,299.98846153846154L-800,299.98846153846154L-786.6666666666666,299.98846153846154L-773.3333333333334,299.98846153846154L-760,299.98846153846154L-746.6666666666666,299.98846153846154L-733.3333333333333,299.98846153846154L-720,299.98846153846154L-706.6666666666666,299.98846153846154L-693.3333333333334,299.98846153846154L-680,299.98846153846154L-666.6666666666667,299.98846153846154L-653.3333333333334,299.98846153846154L-640,299.98846153846154L-626.6666666666666,299.98846153846154L-613.3333333333334,299.98846153846154L-600,299.98846153846154L-586.6666666666666,299.98846153846154L-573.3333333333334,299.9769230769231L-560,299.91923076923075L-546.6666666666666,299.91923076923075L-533.3333333333333,299.86153846153843L-520,299.83846153846156L-506.66666666666663,299.8269230769231L-493.33333333333337,299.7576923076923L-480,299.5961538461538L-466.6666666666667,298.91538461538465L-453.3333333333333,298.8346153846154L-440.00000000000006,298.14230769230767L-426.6666666666667,297.6576923076923L-413.33333333333337,297.13846153846157L-400,295.9038461538462L-386.6666666666667,294.2307692307692L-373.3333333333333,293.08846153846156L-360,290.60769230769233L-346.6666666666667,288.91153846153844L-333.33333333333337,288.2076923076923L-320,287.2730769230769L-306.6666666666667,286.2692307692308L-293.3333333333333,285.2423076923077L-280,283.3961538461539L-266.66666666666663,281.0884615384615L-253.33333333333331,279.6576923076923L-240,277.71923076923076L-226.66666666666666,276.39230769230767L-213.33333333333334,273.62307692307695L-200,270.8538461538462L-186.66666666666666,267.2307692307692L-173.33333333333334,264.58846153846156L-160,260.2269230769231L-146.66666666666666,257.3076923076923L-133.33333333333331,253.52307692307693L-120,248.82692307692307L-106.66666666666667,242.91923076923078L-93.33333333333333,235.75384615384615L-80,229.2576923076923L-66.66666666666666,225.65769230769232L-53.333333333333336,221.1923076923077L-40,216.85384615384618L-26.666666666666668,211.2346153846154L-13.333333333333334,202.85769230769233L0,194.52692307692308L13.333333333333334,188.24999999999997L26.666666666666668,182.8730769230769L40,179.0423076923077L53.333333333333336,173.67692307692306L66.66666666666666,167.94230769230768L80,162.38076923076926L93.33333333333333,155.3076923076923L106.66666666666667,147.5076923076923L120,140.51538461538462L133.33333333333331,134.01923076923077L146.66666666666666,129.49615384615385L160,123.20769230769231L173.33333333333334,115.33846153846153L186.66666666666666,106.67307692307693L200,97.30384615384615L213.33333333333334,90.26538461538462L226.66666666666666,84.92307692307693L240,81.62307692307694L253.33333333333331,73.60384615384616L266.66666666666663,65.74615384615385L280,56.63076923076924L293.3333333333333,51.69230769230768L306.6666666666667,45.207692307692305L320,42.49615384615384L333.33333333333337,37.83461538461539L346.6666666666667,32.12307692307692L360,24.023076923076914L373.3333333333333,15.888461538461552L386.6666666666667,8.480769230769248L400,0.9115384615384636" style="fill: none; stroke: #4c78a8; stroke-width: 2; opacity: 0.7;"></path></g></g><path class="foreground" d="" style="display: none; fill: none;"></path></g></g><g class="mark-group role-title"><g transform="translate(200,-17)"><path class="background" d="M0,0h0v0h0Z" style="pointer-events: none; fill: none;"></path><g><g class="mark-text role-title-text" style="pointer-events: none;"><text text-anchor="middle" transform="translate(0,10)" style="font-family: Roboto Condensed; font-size: 13px; font-weight: normal; fill: #000; opacity: 1;">Total</text></g></g><path class="foreground" d="" style="pointer-events: none; display: none; fill: none;"></path></g></g></g><path class="foreground" d="" style="display: none; fill: none;"></path></g></g><g class="mark-group role-legend"><g transform="translate(868,0)"><path class="background" d="M0,0h60v37h-60Z" style="pointer-events: none; fill: none;"></path><g><g class="mark-group role-legend-entry"><g transform="translate(0,0)"><path class="background" d="M0,0h0v0h0Z" style="pointer-events: none; fill: none;"></path><g><g class="mark-group role-scope"><g transform="translate(0,0)"><path class="background" d="M0,0h59.3251953125v11h-59.3251953125Z" style="pointer-events: none; fill: none; opacity: 1;"></path><g><g class="mark-symbol role-legend-symbol" style="pointer-events: none;"><path transform="translate(6,6)" d="M-5,0L5,0" style="fill: none; stroke: #4c78a8; stroke-width: 1.5; opacity: 1;"></path></g><g class="mark-text role-legend-label" style="pointer-events: none;"><text text-anchor="start" transform="translate(16,9)" style="font-family: Roboto Condensed; font-size: 10px; fill: #000; opacity: 1;">Confirmed</text></g></g><path class="foreground" d="" style="pointer-events: none; display: none; fill: none;"></path></g><g transform="translate(0,13)"><path class="background" d="M0,0h59.3251953125v11h-59.3251953125Z" style="pointer-events: none; fill: none; opacity: 1;"></path><g><g class="mark-symbol role-legend-symbol" style="pointer-events: none;"><path transform="translate(6,6)" d="M-5,0L5,0" style="fill: none; stroke: #f58518; stroke-width: 1.5; opacity: 1;"></path></g><g class="mark-text role-legend-label" style="pointer-events: none;"><text text-anchor="start" transform="translate(16,9)" style="font-family: Roboto Condensed; font-size: 10px; fill: #000; opacity: 1;">Deaths</text></g></g><path class="foreground" d="" style="pointer-events: none; display: none; fill: none;"></path></g><g transform="translate(0,26)"><path class="background" d="M0,0h59.3251953125v11h-59.3251953125Z" style="pointer-events: none; fill: none; opacity: 1;"></path><g><g class="mark-symbol role-legend-symbol" style="pointer-events: none;"><path transform="translate(6,6)" d="M-5,0L5,0" style="fill: none; stroke: #e45756; stroke-width: 1.5; opacity: 1;"></path></g><g class="mark-text role-legend-label" style="pointer-events: none;"><text text-anchor="start" transform="translate(16,9)" style="font-family: Roboto Condensed; font-size: 10px; fill: #000; opacity: 1;">Recovered</text></g></g><path class="foreground" d="" style="pointer-events: none; display: none; fill: none;"></path></g></g></g><path class="foreground" d="" style="pointer-events: none; display: none; fill: none;"></path></g></g></g><path class="foreground" d="" style="pointer-events: none; display: none; fill: none;"></path></g></g></g><path class="foreground" d="" style="display: none; fill: none;"></path></g></g></g></svg>